<svg width="1130" height="802" viewBox="0 0 1130 802" fill="none" xmlns="http://www.w3.org/2000/svg">
<path d="M1090.12 275.36H1093.16V278.56H1094.88V275.36H1097.92V273.744H1094.88V270.544H1093.16V273.744H1090.12V275.36ZM1101.84 280H1103.95V268.512H1102.31C1102.05 270.128 1100.77 270.752 1099.2 270.8V272.208H1101.84V280ZM1110.39 280.272C1112.74 280.272 1114.69 279.088 1114.69 276.768C1114.69 275.264 1113.91 274.304 1112.4 273.888V273.856C1113.55 273.472 1114.32 272.752 1114.32 271.52C1114.32 269.536 1112.61 268.352 1110.32 268.352C1107.63 268.352 1106.08 269.92 1106.05 272.032H1108.05C1108.08 270.896 1108.83 269.952 1110.27 269.952C1111.41 269.952 1112.24 270.576 1112.24 271.6C1112.24 272.64 1111.46 273.248 1110.03 273.248H1109.38V274.768H1110.08C1111.65 274.768 1112.55 275.392 1112.55 276.608C1112.55 277.904 1111.67 278.592 1110.31 278.592C1108.64 278.592 1107.78 277.648 1107.71 276.272H1105.7C1105.71 277.504 1106.19 278.56 1107.06 279.264C1107.89 279.92 1108.99 280.272 1110.39 280.272ZM1118.77 274.976C1120.45 274.976 1121.62 273.68 1121.62 271.664C1121.62 269.616 1120.43 268.352 1118.77 268.352C1117.12 268.352 1115.9 269.648 1115.9 271.664C1115.9 273.68 1117.1 274.976 1118.77 274.976ZM1118.83 280H1120.18L1126.53 268.608H1125.17L1118.83 280ZM1126.58 280.272C1128.27 280.272 1129.46 278.96 1129.46 276.944C1129.46 274.912 1128.26 273.632 1126.58 273.632C1124.94 273.632 1123.71 274.928 1123.71 276.944C1123.71 278.96 1124.91 280.272 1126.58 280.272ZM1118.77 273.744C1117.95 273.744 1117.57 272.864 1117.57 271.664C1117.57 270.432 1117.95 269.552 1118.77 269.552C1119.58 269.552 1120 270.464 1120 271.664C1120 272.88 1119.6 273.744 1118.77 273.744ZM1126.59 279.024C1125.78 279.024 1125.38 278.144 1125.38 276.944C1125.38 275.728 1125.78 274.832 1126.59 274.832C1127.38 274.832 1127.81 275.744 1127.81 276.944C1127.81 278.16 1127.42 279.024 1126.59 279.024Z" fill="#004FED"/>
<path d="M742.834 30.36H745.874V33.56H747.602V30.36H750.642V28.744H747.602V25.544H745.874V28.744H742.834V30.36ZM756.411 35.256C758.923 35.256 760.763 33.688 760.763 31.224C760.763 28.776 758.939 27.304 756.939 27.304C755.786 27.304 755.035 27.656 754.443 28.28H754.411L755.035 25.352H760.059V23.608H753.531L752.315 29.832H754.315C754.699 29.352 755.403 28.936 756.427 28.936C757.643 28.936 758.619 29.784 758.619 31.208C758.619 32.584 757.707 33.512 756.347 33.512C755.035 33.512 754.283 32.84 754.075 31.848H751.995C752.155 33.864 753.914 35.256 756.411 35.256ZM762.128 35H764.352V32.776H762.128V35ZM766.92 35H769.032V23.512H767.384C767.128 25.128 765.848 25.752 764.28 25.8V27.208H766.92V35ZM773.767 29.976C775.447 29.976 776.615 28.68 776.615 26.664C776.615 24.616 775.431 23.352 773.767 23.352C772.119 23.352 770.903 24.648 770.903 26.664C770.903 28.68 772.103 29.976 773.767 29.976ZM773.831 35H775.175L781.527 23.608H780.167L773.831 35ZM781.575 35.272C783.271 35.272 784.455 33.96 784.455 31.944C784.455 29.912 783.255 28.632 781.575 28.632C779.943 28.632 778.711 29.928 778.711 31.944C778.711 33.96 779.911 35.272 781.575 35.272ZM773.767 28.744C772.951 28.744 772.567 27.864 772.567 26.664C772.567 25.432 772.951 24.552 773.767 24.552C774.583 24.552 774.999 25.464 774.999 26.664C774.999 27.88 774.599 28.744 773.767 28.744ZM781.591 34.024C780.775 34.024 780.375 33.144 780.375 31.944C780.375 30.728 780.775 29.832 781.591 29.832C782.375 29.832 782.807 30.744 782.807 31.944C782.807 33.16 782.423 34.024 781.591 34.024Z" fill="#004FED"/>
<path d="M466 31.64H474V29.896H466V31.64ZM474.404 35H482.788V33.176H477.156V33.096C477.844 31.944 479.492 31.16 480.676 30.248C481.924 29.416 482.884 28.616 482.884 26.936C482.884 24.904 481.396 23.368 478.9 23.368C477.38 23.368 476.212 23.88 475.524 24.728C474.932 25.464 474.628 26.328 474.628 27.544H476.692C476.692 26.728 476.868 26.12 477.268 25.688C477.62 25.288 478.116 25.08 478.788 25.08C480.004 25.08 480.74 25.848 480.74 26.984C480.74 28.024 480.116 28.568 479.06 29.24C477.94 29.976 476.58 30.776 475.62 31.848C474.9 32.664 474.452 33.608 474.404 35ZM484.284 35H486.508V32.776H484.284V35ZM487.841 35H496.225V33.176H490.593V33.096C491.281 31.944 492.929 31.16 494.113 30.248C495.361 29.416 496.321 28.616 496.321 26.936C496.321 24.904 494.833 23.368 492.337 23.368C490.817 23.368 489.649 23.88 488.961 24.728C488.369 25.464 488.065 26.328 488.065 27.544H490.129C490.129 26.728 490.305 26.12 490.705 25.688C491.057 25.288 491.553 25.08 492.225 25.08C493.441 25.08 494.177 25.848 494.177 26.984C494.177 28.024 493.553 28.568 492.497 29.24C491.377 29.976 490.017 30.776 489.057 31.848C488.337 32.664 487.889 33.608 487.841 35ZM500.752 29.976C502.432 29.976 503.6 28.68 503.6 26.664C503.6 24.616 502.416 23.352 500.752 23.352C499.104 23.352 497.888 24.648 497.888 26.664C497.888 28.68 499.088 29.976 500.752 29.976ZM500.816 35H502.16L508.512 23.608H507.152L500.816 35ZM508.56 35.272C510.256 35.272 511.44 33.96 511.44 31.944C511.44 29.912 510.24 28.632 508.56 28.632C506.928 28.632 505.696 29.928 505.696 31.944C505.696 33.96 506.896 35.272 508.56 35.272ZM500.752 28.744C499.936 28.744 499.552 27.864 499.552 26.664C499.552 25.432 499.936 24.552 500.752 24.552C501.568 24.552 501.984 25.464 501.984 26.664C501.984 27.88 501.584 28.744 500.752 28.744ZM508.576 34.024C507.76 34.024 507.36 33.144 507.36 31.944C507.36 30.728 507.76 29.832 508.576 29.832C509.36 29.832 509.792 30.744 509.792 31.944C509.792 33.16 509.408 34.024 508.576 34.024Z" fill="#A6D9DB"/>
<path d="M563 44H780.5C782.985 44 785 46.0147 785 48.5C785 50.9853 782.985 53 780.5 53H563V44Z" fill="#004FED"/>
<path d="M466 48.5C466 46.0147 468.015 44 470.5 44H563V53H470.5C468.015 53 466 50.9853 466 48.5Z" fill="#A6D9DB"/>
<path d="M563 240H1122.5C1124.99 240 1127 242.015 1127 244.5C1127 246.985 1124.99 249 1122.5 249H563V240Z" fill="#004FED"/>
<path d="M27 244.5C27 242.015 29.0147 240 31.5 240H563V249H31.5C29.0147 249 27 246.985 27 244.5Z" fill="#A6D9DB"/>
<path d="M1073.66 226.36H1076.7V229.56H1078.43V226.36H1081.47V224.744H1078.43V221.544H1076.7V224.744H1073.66V226.36ZM1085.39 231H1087.5V219.512H1085.85C1085.6 221.128 1084.32 221.752 1082.75 221.8V223.208H1085.39V231ZM1089.39 231H1097.77V229.176H1092.14V229.096C1092.83 227.944 1094.48 227.16 1095.66 226.248C1096.91 225.416 1097.87 224.616 1097.87 222.936C1097.87 220.904 1096.38 219.368 1093.88 219.368C1092.36 219.368 1091.2 219.88 1090.51 220.728C1089.92 221.464 1089.61 222.328 1089.61 223.544H1091.68C1091.68 222.728 1091.85 222.12 1092.25 221.688C1092.6 221.288 1093.1 221.08 1093.77 221.08C1094.99 221.08 1095.72 221.848 1095.72 222.984C1095.72 224.024 1095.1 224.568 1094.04 225.24C1092.92 225.976 1091.56 226.776 1090.6 227.848C1089.88 228.664 1089.44 229.608 1089.39 231ZM1099.27 231H1101.49V228.776H1099.27V231ZM1107.12 231.272C1108.45 231.272 1109.49 230.856 1110.22 230.088C1111.25 229.064 1111.66 227.384 1111.66 225.288C1111.66 222.936 1111.2 221.336 1110.01 220.36C1109.28 219.736 1108.27 219.352 1107.04 219.352C1104.56 219.352 1102.75 221.048 1102.75 223.32C1102.75 225.608 1104.53 227.272 1106.73 227.272C1108 227.272 1108.94 226.712 1109.65 225.8H1109.68C1109.61 227.208 1109.37 228.2 1108.89 228.808C1108.46 229.4 1107.87 229.672 1107.07 229.672C1105.85 229.672 1105.21 228.952 1105.07 228.232H1103.01C1103.21 229.912 1104.77 231.272 1107.12 231.272ZM1107.07 225.656C1105.71 225.656 1104.73 224.664 1104.73 223.304C1104.73 221.944 1105.69 220.968 1107.09 220.968C1108.43 220.968 1109.47 221.928 1109.47 223.304C1109.47 224.696 1108.51 225.656 1107.07 225.656ZM1115.77 225.976C1117.45 225.976 1118.62 224.68 1118.62 222.664C1118.62 220.616 1117.43 219.352 1115.77 219.352C1114.12 219.352 1112.9 220.648 1112.9 222.664C1112.9 224.68 1114.1 225.976 1115.77 225.976ZM1115.83 231H1117.18L1123.53 219.608H1122.17L1115.83 231ZM1123.58 231.272C1125.27 231.272 1126.46 229.96 1126.46 227.944C1126.46 225.912 1125.26 224.632 1123.58 224.632C1121.94 224.632 1120.71 225.928 1120.71 227.944C1120.71 229.96 1121.91 231.272 1123.58 231.272ZM1115.77 224.744C1114.95 224.744 1114.57 223.864 1114.57 222.664C1114.57 221.432 1114.95 220.552 1115.77 220.552C1116.58 220.552 1117 221.464 1117 222.664C1117 223.88 1116.6 224.744 1115.77 224.744ZM1123.59 230.024C1122.78 230.024 1122.38 229.144 1122.38 227.944C1122.38 226.728 1122.78 225.832 1123.59 225.832C1124.38 225.832 1124.81 226.744 1124.81 227.944C1124.81 229.16 1124.42 230.024 1123.59 230.024Z" fill="#004FED"/>
<path d="M27 228.64H35V226.896H27V228.64ZM37.1851 232H39.2971V220.512H37.6491C37.3931 222.128 36.1131 222.752 34.5451 222.8V224.208H37.1851V232ZM41.185 232H49.569V230.176H43.937V230.096C44.625 228.944 46.273 228.16 47.457 227.248C48.705 226.416 49.665 225.616 49.665 223.936C49.665 221.904 48.177 220.368 45.681 220.368C44.161 220.368 42.993 220.88 42.305 221.728C41.713 222.464 41.409 223.328 41.409 224.544H43.473C43.473 223.728 43.649 223.12 44.049 222.688C44.401 222.288 44.897 222.08 45.569 222.08C46.785 222.08 47.521 222.848 47.521 223.984C47.521 225.024 46.897 225.568 45.841 226.24C44.721 226.976 43.361 227.776 42.401 228.848C41.681 229.664 41.233 230.608 41.185 232ZM51.0653 232H53.2893V229.776H51.0653V232ZM54.6225 232H63.0065V230.176H57.3745V230.096C58.0625 228.944 59.7105 228.16 60.8945 227.248C62.1425 226.416 63.1025 225.616 63.1025 223.936C63.1025 221.904 61.6145 220.368 59.1185 220.368C57.5985 220.368 56.4305 220.88 55.7425 221.728C55.1505 222.464 54.8465 223.328 54.8465 224.544H56.9105C56.9105 223.728 57.0865 223.12 57.4865 222.688C57.8385 222.288 58.3345 222.08 59.0065 222.08C60.2225 222.08 60.9585 222.848 60.9585 223.984C60.9585 225.024 60.3345 225.568 59.2785 226.24C58.1585 226.976 56.7985 227.776 55.8385 228.848C55.1185 229.664 54.6705 230.608 54.6225 232ZM67.533 226.976C69.213 226.976 70.381 225.68 70.381 223.664C70.381 221.616 69.197 220.352 67.533 220.352C65.885 220.352 64.669 221.648 64.669 223.664C64.669 225.68 65.869 226.976 67.533 226.976ZM67.597 232H68.941L75.293 220.608H73.933L67.597 232ZM75.341 232.272C77.037 232.272 78.221 230.96 78.221 228.944C78.221 226.912 77.021 225.632 75.341 225.632C73.709 225.632 72.477 226.928 72.477 228.944C72.477 230.96 73.677 232.272 75.341 232.272ZM67.533 225.744C66.717 225.744 66.333 224.864 66.333 223.664C66.333 222.432 66.717 221.552 67.533 221.552C68.349 221.552 68.765 222.464 68.765 223.664C68.765 224.88 68.365 225.744 67.533 225.744ZM75.357 231.024C74.541 231.024 74.141 230.144 74.141 228.944C74.141 227.728 74.541 226.832 75.357 226.832C76.141 226.832 76.573 227.744 76.573 228.944C76.573 230.16 76.189 231.024 75.357 231.024Z" fill="#A6D9DB"/>
<path d="M563 93H1017.5C1019.99 93 1022 95.0147 1022 97.5C1022 99.9853 1019.99 102 1017.5 102H563V93Z" fill="#004FED"/>
<path d="M231 97.5C231 95.0147 233.015 93 235.5 93H563V102H235.5C233.015 102 231 99.9853 231 97.5Z" fill="#A6D9DB"/>
<path d="M563 191H1102.5C1104.99 191 1107 193.015 1107 195.5C1107 197.985 1104.99 200 1102.5 200H563V191Z" fill="#004FED"/>
<path d="M39 195.5C39 193.015 41.0147 191 43.5 191H563V200H43.5C41.0147 200 39 197.985 39 195.5Z" fill="#A6D9DB"/>
<path d="M968.303 79.36H971.343V82.56H973.071V79.36H976.111V77.744H973.071V74.544H971.343V77.744H968.303V79.36ZM980.029 84H982.141V72.512H980.493C980.237 74.128 978.957 74.752 977.389 74.8V76.208H980.029V84ZM988.893 84.272C991.837 84.272 993.645 81.936 993.645 78.304C993.645 74.624 991.789 72.352 988.909 72.352C986.077 72.352 984.173 74.656 984.173 78.304C984.173 81.936 986.029 84.272 988.893 84.272ZM988.909 82.544C987.149 82.544 986.349 80.864 986.349 78.304C986.349 75.728 987.149 74.048 988.909 74.048C990.685 74.048 991.469 75.744 991.469 78.304C991.469 80.896 990.717 82.544 988.909 82.544ZM994.815 84H997.039V81.776H994.815V84ZM1002.66 84.256C1005.17 84.256 1007.01 82.688 1007.01 80.224C1007.01 77.776 1005.19 76.304 1003.19 76.304C1002.04 76.304 1001.28 76.656 1000.69 77.28H1000.66L1001.28 74.352H1006.31V72.608H999.781L998.565 78.832H1000.56C1000.95 78.352 1001.65 77.936 1002.68 77.936C1003.89 77.936 1004.87 78.784 1004.87 80.208C1004.87 81.584 1003.96 82.512 1002.6 82.512C1001.28 82.512 1000.53 81.84 1000.32 80.848H998.245C998.405 82.864 1000.16 84.256 1002.66 84.256ZM1010.77 78.976C1012.45 78.976 1013.62 77.68 1013.62 75.664C1013.62 73.616 1012.43 72.352 1010.77 72.352C1009.12 72.352 1007.9 73.648 1007.9 75.664C1007.9 77.68 1009.1 78.976 1010.77 78.976ZM1010.83 84H1012.18L1018.53 72.608H1017.17L1010.83 84ZM1018.58 84.272C1020.27 84.272 1021.46 82.96 1021.46 80.944C1021.46 78.912 1020.26 77.632 1018.58 77.632C1016.94 77.632 1015.71 78.928 1015.71 80.944C1015.71 82.96 1016.91 84.272 1018.58 84.272ZM1010.77 77.744C1009.95 77.744 1009.57 76.864 1009.57 75.664C1009.57 74.432 1009.95 73.552 1010.77 73.552C1011.58 73.552 1012 74.464 1012 75.664C1012 76.88 1011.6 77.744 1010.77 77.744ZM1018.59 83.024C1017.78 83.024 1017.38 82.144 1017.38 80.944C1017.38 79.728 1017.78 78.832 1018.59 78.832C1019.38 78.832 1019.81 79.744 1019.81 80.944C1019.81 82.16 1019.42 83.024 1018.59 83.024Z" fill="#004FED"/>
<path d="M231 80.64H239V78.896H231V80.64ZM240.423 84H242.647C242.823 79.776 244.871 76.288 247.047 74.256V72.608H238.839V74.416H242.551C243.799 74.416 244.983 74.336 244.983 74.336V74.368C242.775 76.24 240.631 79.936 240.423 84ZM247.159 84H249.383V81.776H247.159V84ZM255.174 84.272C257.558 84.272 259.382 82.56 259.366 80.272C259.35 78.016 257.59 76.336 255.446 76.336C254.134 76.336 253.19 76.88 252.502 77.936H252.47C252.566 75.36 253.382 73.936 255.19 73.936C256.31 73.936 256.87 74.64 256.998 75.296H259.046C258.774 73.744 257.494 72.352 255.158 72.352C253.606 72.352 252.502 72.896 251.702 73.888C250.854 74.96 250.454 76.496 250.47 78.304C250.47 80.336 250.886 81.856 251.894 82.928C252.646 83.76 253.734 84.272 255.174 84.272ZM255.11 82.656C253.75 82.656 252.694 81.68 252.694 80.304C252.694 78.912 253.67 77.968 255.094 77.968C256.39 77.968 257.382 78.928 257.382 80.32C257.382 81.68 256.406 82.656 255.11 82.656ZM263.392 78.976C265.072 78.976 266.24 77.68 266.24 75.664C266.24 73.616 265.056 72.352 263.392 72.352C261.744 72.352 260.528 73.648 260.528 75.664C260.528 77.68 261.728 78.976 263.392 78.976ZM263.456 84H264.8L271.152 72.608H269.792L263.456 84ZM271.2 84.272C272.896 84.272 274.08 82.96 274.08 80.944C274.08 78.912 272.88 77.632 271.2 77.632C269.568 77.632 268.336 78.928 268.336 80.944C268.336 82.96 269.536 84.272 271.2 84.272ZM263.392 77.744C262.576 77.744 262.192 76.864 262.192 75.664C262.192 74.432 262.576 73.552 263.392 73.552C264.208 73.552 264.624 74.464 264.624 75.664C264.624 76.88 264.224 77.744 263.392 77.744ZM271.216 83.024C270.4 83.024 270 82.144 270 80.944C270 79.728 270.4 78.832 271.216 78.832C272 78.832 272.432 79.744 272.432 80.944C272.432 82.16 272.048 83.024 271.216 83.024Z" fill="#A6D9DB"/>
<path d="M579.648 280.272C582.288 280.272 584.272 278.944 584.272 276.576C584.272 274 582.24 273.344 580.032 272.864C578.192 272.48 577.04 272.192 577.04 271.088C577.04 270.144 577.92 269.584 579.248 269.584C580.656 269.584 581.536 270.24 581.712 271.408H583.872C583.648 269.216 582.048 267.888 579.28 267.888C576.736 267.888 574.88 269.024 574.88 271.28C574.88 273.664 576.736 274.256 578.96 274.752C580.848 275.184 582.032 275.472 582.032 276.752C582.032 277.936 580.96 278.496 579.664 278.496C577.84 278.496 576.832 277.728 576.672 276.192H574.448C574.544 278.624 576.384 280.272 579.648 280.272ZM585.802 270.064H587.882V268.096H585.802V270.064ZM585.834 280H587.866V271.456H585.834V280ZM593.133 280.272C595.245 280.272 596.781 279.328 596.781 277.536C596.781 275.456 595.181 275.072 593.565 274.768C592.269 274.528 591.389 274.384 591.389 273.632C591.389 273.04 591.885 272.608 592.829 272.608C593.837 272.608 594.381 273.008 594.525 273.744H596.461C596.253 272.256 595.117 271.232 592.845 271.232C590.845 271.232 589.469 272.16 589.469 273.776C589.469 275.712 590.989 276.08 592.589 276.4C593.933 276.656 594.797 276.816 594.797 277.664C594.797 278.352 594.269 278.832 593.149 278.832C592.061 278.832 591.277 278.4 591.117 277.376H589.165C589.293 279.104 590.701 280.272 593.133 280.272ZM597.463 272.848H598.775V278.08C598.775 279.584 599.719 280.08 601.095 280.08C601.639 280.08 602.103 280.016 602.439 279.952V278.368H602.343C602.183 278.4 601.895 278.432 601.687 278.432C601.111 278.432 600.775 278.256 600.775 277.632V272.848H602.487V271.456H600.775V268.736H598.775V271.456H597.463V272.848ZM607.832 280.256C609.928 280.256 611.304 279.12 611.72 277.584H609.736C609.464 278.288 608.824 278.704 607.848 278.704C606.424 278.704 605.64 277.712 605.496 276.24H611.88C611.896 274.656 611.496 273.312 610.664 272.432C609.944 271.664 608.968 271.232 607.72 271.232C605.192 271.232 603.48 273.2 603.48 275.744C603.48 278.272 605.112 280.256 607.832 280.256ZM607.72 272.704C608.952 272.704 609.704 273.552 609.784 274.96H605.528C605.704 273.616 606.392 272.704 607.72 272.704ZM613.303 280H615.335V274.944C615.335 273.744 616.167 272.912 617.111 272.912C617.959 272.912 618.455 273.504 618.455 274.48V280H620.487V274.944C620.487 273.744 621.223 272.912 622.215 272.912C623.047 272.912 623.607 273.504 623.607 274.48V280H625.639V274.208C625.639 272.368 624.615 271.232 622.871 271.232C621.815 271.232 620.855 271.728 620.183 272.832H620.151C619.767 271.776 618.951 271.232 617.879 271.232C616.711 271.232 615.863 271.792 615.319 272.752H615.271V271.456H613.303V280ZM632.964 280H634.932V279.856C634.74 279.728 634.612 279.36 634.612 278.656V274.16C634.612 273.024 634.196 272.208 633.396 271.728C632.836 271.376 632.084 271.232 631.108 271.232C628.676 271.232 627.524 272.56 627.46 274.016H629.38C629.428 273.168 629.988 272.64 631.124 272.64C632.148 272.64 632.66 273.136 632.66 273.872C632.66 274.64 631.956 274.864 630.548 275.04C628.516 275.28 627.044 275.744 627.044 277.68C627.044 279.344 628.292 280.208 629.956 280.208C631.316 280.208 632.084 279.648 632.644 278.896H632.676C632.708 279.472 632.82 279.808 632.964 280ZM630.548 278.816C629.764 278.816 629.076 278.544 629.076 277.632C629.076 276.688 629.796 276.432 631.044 276.192C631.668 276.064 632.308 275.888 632.708 275.632V276.896C632.708 277.856 631.94 278.816 630.548 278.816ZM640.537 280H642.569V274.944C642.569 273.744 643.401 272.912 644.345 272.912C645.193 272.912 645.689 273.504 645.689 274.48V280H647.721V274.944C647.721 273.744 648.457 272.912 649.449 272.912C650.281 272.912 650.841 273.504 650.841 274.48V280H652.873V274.208C652.873 272.368 651.849 271.232 650.105 271.232C649.049 271.232 648.089 271.728 647.417 272.832H647.385C647.001 271.776 646.185 271.232 645.113 271.232C643.945 271.232 643.097 271.792 642.553 272.752H642.505V271.456H640.537V280ZM658.598 280.256C661.254 280.256 662.934 278.272 662.934 275.744C662.934 273.2 661.254 271.232 658.598 271.232C655.942 271.232 654.23 273.2 654.23 275.744C654.23 278.272 655.942 280.256 658.598 280.256ZM658.582 278.72C657.078 278.72 656.294 277.456 656.294 275.744C656.294 274.016 657.078 272.736 658.582 272.736C660.07 272.736 660.87 274.016 660.87 275.744C660.87 277.456 660.07 278.72 658.582 278.72ZM667.646 280.272C668.814 280.272 669.742 279.744 670.27 278.752H670.302V280H672.27V268.096H670.238V270.912C670.238 271.552 670.27 272.224 670.302 272.688H670.27C669.71 271.792 668.83 271.232 667.646 271.232C665.47 271.232 663.934 273.024 663.934 275.744C663.934 278.528 665.39 280.272 667.646 280.272ZM668.062 278.608C666.686 278.608 665.998 277.44 665.998 275.728C665.998 274.048 666.686 272.816 668.062 272.816C669.566 272.816 670.318 274.032 670.318 275.744C670.318 277.424 669.566 278.608 668.062 278.608ZM679.667 280H681.635V279.856C681.443 279.728 681.315 279.36 681.315 278.656V274.16C681.315 273.024 680.899 272.208 680.099 271.728C679.539 271.376 678.787 271.232 677.811 271.232C675.379 271.232 674.227 272.56 674.163 274.016H676.083C676.131 273.168 676.691 272.64 677.827 272.64C678.851 272.64 679.363 273.136 679.363 273.872C679.363 274.64 678.659 274.864 677.251 275.04C675.219 275.28 673.747 275.744 673.747 277.68C673.747 279.344 674.995 280.208 676.659 280.208C678.019 280.208 678.787 279.648 679.347 278.896H679.379C679.411 279.472 679.523 279.808 679.667 280ZM677.251 278.816C676.467 278.816 675.779 278.544 675.779 277.632C675.779 276.688 676.499 276.432 677.747 276.192C678.371 276.064 679.011 275.888 679.411 275.632V276.896C679.411 277.856 678.643 278.816 677.251 278.816Z" fill="white"/>
<path d="M574.224 35H576.464L577.424 32.168H581.936L582.88 35H585.248L580.912 23.096H578.544L574.224 35ZM578.912 27.784C579.296 26.648 579.696 24.92 579.696 24.92H579.728C579.728 24.92 580.016 26.376 580.48 27.784L581.392 30.536H577.968L578.912 27.784ZM586.444 35H588.492V23.096H586.444V35ZM590.334 25.064H592.414V23.096H590.334V25.064ZM590.366 35H592.398V26.456H590.366V35ZM594.241 35H596.273V29.944C596.273 28.744 597.105 27.912 598.049 27.912C598.897 27.912 599.393 28.504 599.393 29.48V35H601.425V29.944C601.425 28.744 602.161 27.912 603.153 27.912C603.985 27.912 604.545 28.504 604.545 29.48V35H606.577V29.208C606.577 27.368 605.553 26.232 603.809 26.232C602.753 26.232 601.793 26.728 601.121 27.832H601.089C600.705 26.776 599.889 26.232 598.817 26.232C597.649 26.232 596.801 26.792 596.257 27.752H596.209V26.456H594.241V35ZM612.286 35.256C614.382 35.256 615.758 34.12 616.174 32.584H614.19C613.918 33.288 613.278 33.704 612.302 33.704C610.878 33.704 610.094 32.712 609.95 31.24H616.334C616.35 29.656 615.95 28.312 615.118 27.432C614.398 26.664 613.422 26.232 612.174 26.232C609.646 26.232 607.934 28.2 607.934 30.744C607.934 33.272 609.566 35.256 612.286 35.256ZM612.174 27.704C613.406 27.704 614.158 28.552 614.238 29.96H609.982C610.158 28.616 610.846 27.704 612.174 27.704ZM619.74 26.456H617.756V35H619.788V29.992C619.788 28.776 620.588 27.912 621.724 27.912C622.764 27.912 623.356 28.536 623.356 29.544V35H625.388V29.208C625.388 27.368 624.284 26.232 622.444 26.232C621.244 26.232 620.348 26.76 619.788 27.704H619.74V26.456ZM626.51 27.848H627.822V33.08C627.822 34.584 628.766 35.08 630.142 35.08C630.686 35.08 631.15 35.016 631.486 34.952V33.368H631.39C631.23 33.4 630.942 33.432 630.734 33.432C630.158 33.432 629.822 33.256 629.822 32.632V27.848H631.534V26.456H629.822V23.736H627.822V26.456H626.51V27.848ZM638.573 35H640.541V34.856C640.349 34.728 640.221 34.36 640.221 33.656V29.16C640.221 28.024 639.805 27.208 639.005 26.728C638.445 26.376 637.693 26.232 636.717 26.232C634.285 26.232 633.133 27.56 633.069 29.016H634.989C635.037 28.168 635.597 27.64 636.733 27.64C637.757 27.64 638.269 28.136 638.269 28.872C638.269 29.64 637.565 29.864 636.157 30.04C634.125 30.28 632.653 30.744 632.653 32.68C632.653 34.344 633.901 35.208 635.565 35.208C636.925 35.208 637.693 34.648 638.253 33.896H638.285C638.317 34.472 638.429 34.808 638.573 35ZM636.157 33.816C635.373 33.816 634.685 33.544 634.685 32.632C634.685 31.688 635.405 31.432 636.653 31.192C637.277 31.064 637.917 30.888 638.317 30.632V31.896C638.317 32.856 637.549 33.816 636.157 33.816ZM644.068 26.456H642.1V35H644.132V30.712C644.132 29.064 645.14 28.152 646.484 28.168C646.692 28.168 646.852 28.184 647.044 28.232H647.108V26.408C646.964 26.344 646.804 26.328 646.564 26.328C645.476 26.328 644.66 26.888 644.116 27.992H644.068V26.456ZM652.129 35.256C654.225 35.256 655.601 34.12 656.017 32.584H654.033C653.761 33.288 653.121 33.704 652.145 33.704C650.721 33.704 649.937 32.712 649.793 31.24H656.177C656.193 29.656 655.793 28.312 654.961 27.432C654.241 26.664 653.265 26.232 652.017 26.232C649.489 26.232 647.777 28.2 647.777 30.744C647.777 33.272 649.409 35.256 652.129 35.256ZM652.017 27.704C653.249 27.704 654.001 28.552 654.081 29.96H649.825C650.001 28.616 650.689 27.704 652.017 27.704ZM656.258 37.144H658.178L663.73 22.456H661.81L656.258 37.144ZM669.412 35.272C671.684 35.272 673.092 33.528 673.092 30.744C673.092 28.024 671.62 26.232 669.428 26.232C668.212 26.232 667.348 26.824 666.788 27.72H666.74C666.772 27.272 666.804 26.584 666.804 25.912V23.096H664.772V35H666.74V33.768H666.788C667.3 34.776 668.276 35.272 669.412 35.272ZM668.98 33.608C667.508 33.608 666.724 32.408 666.724 30.744C666.724 29.112 667.428 27.816 668.98 27.816C670.34 27.816 671.028 29.048 671.028 30.728C671.028 32.44 670.34 33.608 668.98 33.608ZM678.426 35.256C680.522 35.256 681.898 34.12 682.314 32.584H680.33C680.058 33.288 679.418 33.704 678.442 33.704C677.018 33.704 676.234 32.712 676.09 31.24H682.474C682.49 29.656 682.09 28.312 681.258 27.432C680.538 26.664 679.562 26.232 678.314 26.232C675.786 26.232 674.074 28.2 674.074 30.744C674.074 33.272 675.706 35.256 678.426 35.256ZM678.314 27.704C679.546 27.704 680.298 28.552 680.378 29.96H676.122C676.298 28.616 676.986 27.704 678.314 27.704ZM685.774 35H687.998L691.022 26.456H688.958L687.662 30.44C687.294 31.592 686.958 33.304 686.958 33.304H686.91C686.91 33.304 686.558 31.592 686.19 30.44L684.942 26.456H682.814L685.774 35ZM697.261 35H699.229V34.856C699.037 34.728 698.909 34.36 698.909 33.656V29.16C698.909 28.024 698.493 27.208 697.693 26.728C697.133 26.376 696.381 26.232 695.405 26.232C692.973 26.232 691.821 27.56 691.757 29.016H693.677C693.725 28.168 694.285 27.64 695.421 27.64C696.445 27.64 696.957 28.136 696.957 28.872C696.957 29.64 696.253 29.864 694.845 30.04C692.813 30.28 691.341 30.744 691.341 32.68C691.341 34.344 692.589 35.208 694.253 35.208C695.613 35.208 696.381 34.648 696.941 33.896H696.973C697.005 34.472 697.117 34.808 697.261 35ZM694.845 33.816C694.061 33.816 693.373 33.544 693.373 32.632C693.373 31.688 694.093 31.432 695.341 31.192C695.965 31.064 696.605 30.888 697.005 30.632V31.896C697.005 32.856 696.237 33.816 694.845 33.816ZM702.771 26.456H700.787V35H702.819V29.992C702.819 28.776 703.619 27.912 704.755 27.912C705.795 27.912 706.387 28.536 706.387 29.544V35H708.419V29.208C708.419 27.368 707.315 26.232 705.475 26.232C704.275 26.232 703.379 26.76 702.819 27.704H702.771V26.456ZM713.489 35.272C714.657 35.272 715.585 34.744 716.113 33.752H716.145V35H718.113V23.096H716.081V25.912C716.081 26.552 716.113 27.224 716.145 27.688H716.113C715.553 26.792 714.673 26.232 713.489 26.232C711.313 26.232 709.777 28.024 709.777 30.744C709.777 33.528 711.233 35.272 713.489 35.272ZM713.905 33.608C712.529 33.608 711.841 32.44 711.841 30.728C711.841 29.048 712.529 27.816 713.905 27.816C715.409 27.816 716.161 29.032 716.161 30.744C716.161 32.424 715.409 33.608 713.905 33.608ZM723.895 35.256C725.991 35.256 727.367 34.12 727.783 32.584H725.799C725.527 33.288 724.887 33.704 723.911 33.704C722.487 33.704 721.703 32.712 721.559 31.24H727.943C727.959 29.656 727.559 28.312 726.727 27.432C726.007 26.664 725.031 26.232 723.783 26.232C721.255 26.232 719.543 28.2 719.543 30.744C719.543 33.272 721.175 35.256 723.895 35.256ZM723.783 27.704C725.015 27.704 725.767 28.552 725.847 29.96H721.591C721.767 28.616 722.455 27.704 723.783 27.704Z" fill="white"/>
<path d="M574.464 123H578.176V133H580.4V123H584.128V121.096H574.464V123ZM587.598 133.256C590.254 133.256 591.934 131.272 591.934 128.744C591.934 126.2 590.254 124.232 587.598 124.232C584.942 124.232 583.23 126.2 583.23 128.744C583.23 131.272 584.942 133.256 587.598 133.256ZM587.582 131.72C586.078 131.72 585.294 130.456 585.294 128.744C585.294 127.016 586.078 125.736 587.582 125.736C589.07 125.736 589.87 127.016 589.87 128.744C589.87 130.456 589.07 131.72 587.582 131.72ZM592.697 125.848H594.009V131.08C594.009 132.584 594.953 133.08 596.329 133.08C596.873 133.08 597.337 133.016 597.673 132.952V131.368H597.577C597.417 131.4 597.129 131.432 596.921 131.432C596.345 131.432 596.009 131.256 596.009 130.632V125.848H597.721V124.456H596.009V121.736H594.009V124.456H592.697V125.848ZM604.761 133H606.729V132.856C606.537 132.728 606.409 132.36 606.409 131.656V127.16C606.409 126.024 605.993 125.208 605.193 124.728C604.633 124.376 603.881 124.232 602.905 124.232C600.473 124.232 599.321 125.56 599.257 127.016H601.177C601.225 126.168 601.785 125.64 602.921 125.64C603.945 125.64 604.457 126.136 604.457 126.872C604.457 127.64 603.753 127.864 602.345 128.04C600.313 128.28 598.841 128.744 598.841 130.68C598.841 132.344 600.089 133.208 601.753 133.208C603.113 133.208 603.881 132.648 604.441 131.896H604.473C604.505 132.472 604.617 132.808 604.761 133ZM602.345 131.816C601.561 131.816 600.873 131.544 600.873 130.632C600.873 129.688 601.593 129.432 602.841 129.192C603.465 129.064 604.105 128.888 604.505 128.632V129.896C604.505 130.856 603.737 131.816 602.345 131.816ZM608.319 133H610.367V121.096H608.319V133ZM616.161 133.256C618.257 133.256 619.633 132.12 620.049 130.584H618.065C617.793 131.288 617.153 131.704 616.177 131.704C614.753 131.704 613.969 130.712 613.825 129.24H620.209C620.225 127.656 619.825 126.312 618.993 125.432C618.273 124.664 617.297 124.232 616.049 124.232C613.521 124.232 611.809 126.2 611.809 128.744C611.809 131.272 613.441 133.256 616.161 133.256ZM616.049 125.704C617.281 125.704 618.033 126.552 618.113 127.96H613.857C614.033 126.616 614.721 125.704 616.049 125.704ZM628.958 133.272C630.126 133.272 631.054 132.744 631.582 131.752H631.614V133H633.582V121.096H631.55V123.912C631.55 124.552 631.582 125.224 631.614 125.688H631.582C631.022 124.792 630.142 124.232 628.958 124.232C626.782 124.232 625.246 126.024 625.246 128.744C625.246 131.528 626.702 133.272 628.958 133.272ZM629.374 131.608C627.998 131.608 627.31 130.44 627.31 128.728C627.31 127.048 627.998 125.816 629.374 125.816C630.878 125.816 631.63 127.032 631.63 128.744C631.63 130.424 630.878 131.608 629.374 131.608ZM635.412 123.064H637.492V121.096H635.412V123.064ZM635.444 133H637.476V124.456H635.444V133ZM642.743 133.272C644.855 133.272 646.391 132.328 646.391 130.536C646.391 128.456 644.791 128.072 643.175 127.768C641.879 127.528 640.999 127.384 640.999 126.632C640.999 126.04 641.495 125.608 642.439 125.608C643.447 125.608 643.991 126.008 644.135 126.744H646.071C645.863 125.256 644.727 124.232 642.455 124.232C640.455 124.232 639.079 125.16 639.079 126.776C639.079 128.712 640.599 129.08 642.199 129.4C643.543 129.656 644.407 129.816 644.407 130.664C644.407 131.352 643.879 131.832 642.759 131.832C641.671 131.832 640.887 131.4 640.727 130.376H638.775C638.903 132.104 640.311 133.272 642.743 133.272ZM647.072 125.848H648.384V131.08C648.384 132.584 649.328 133.08 650.704 133.08C651.248 133.08 651.712 133.016 652.048 132.952V131.368H651.952C651.792 131.4 651.504 131.432 651.296 131.432C650.72 131.432 650.384 131.256 650.384 130.632V125.848H652.096V124.456H650.384V121.736H648.384V124.456H647.072V125.848ZM655.49 124.456H653.522V133H655.554V128.712C655.554 127.064 656.562 126.152 657.906 126.168C658.114 126.168 658.274 126.184 658.466 126.232H658.53V124.408C658.386 124.344 658.226 124.328 657.986 124.328C656.898 124.328 656.082 124.888 655.538 125.992H655.49V124.456ZM663.551 133.256C665.647 133.256 667.023 132.12 667.439 130.584H665.455C665.183 131.288 664.543 131.704 663.567 131.704C662.143 131.704 661.359 130.712 661.215 129.24H667.599C667.615 127.656 667.215 126.312 666.383 125.432C665.663 124.664 664.687 124.232 663.439 124.232C660.911 124.232 659.199 126.2 659.199 128.744C659.199 131.272 660.831 133.256 663.551 133.256ZM663.439 125.704C664.671 125.704 665.423 126.552 665.503 127.96H661.247C661.423 126.616 662.111 125.704 663.439 125.704ZM668.354 125.848H669.666V131.08C669.666 132.584 670.61 133.08 671.986 133.08C672.53 133.08 672.994 133.016 673.33 132.952V131.368H673.234C673.074 131.4 672.786 131.432 672.578 131.432C672.002 131.432 671.666 131.256 671.666 130.632V125.848H673.378V124.456H671.666V121.736H669.666V124.456H668.354V125.848ZM674.135 125.848H675.447V131.08C675.447 132.584 676.391 133.08 677.767 133.08C678.311 133.08 678.775 133.016 679.111 132.952V131.368H679.015C678.855 131.4 678.567 131.432 678.359 131.432C677.783 131.432 677.447 131.256 677.447 130.632V125.848H679.159V124.456H677.447V121.736H675.447V124.456H674.135V125.848ZM680.552 123.064H682.632V121.096H680.552V123.064ZM680.584 133H682.616V124.456H680.584V133Z" fill="white"/>
<path d="M575.12 182H577.104V175.792C577.104 174.496 576.96 172.08 576.96 172.08H576.992C576.992 172.08 577.488 174.272 577.872 175.456L580.144 182H581.936L584.192 175.456C584.576 174.272 585.072 172.08 585.072 172.08H585.104C585.104 172.08 584.96 174.496 584.96 175.792V182H587.024V170.096H584.032L582.112 175.76C581.664 177.168 581.088 179.76 581.088 179.76H581.04C581.04 179.76 580.464 177.152 580 175.76L578.048 170.096H575.12V182ZM592.973 182.256C595.069 182.256 596.445 181.12 596.861 179.584H594.877C594.605 180.288 593.965 180.704 592.989 180.704C591.565 180.704 590.781 179.712 590.637 178.24H597.021C597.037 176.656 596.637 175.312 595.805 174.432C595.085 173.664 594.109 173.232 592.861 173.232C590.333 173.232 588.621 175.2 588.621 177.744C588.621 180.272 590.253 182.256 592.973 182.256ZM592.861 174.704C594.093 174.704 594.845 175.552 594.925 176.96H590.669C590.845 175.616 591.533 174.704 592.861 174.704ZM602.348 182.256C604.636 182.256 606.092 180.88 606.22 178.896H604.236C604.124 180.016 603.452 180.672 602.332 180.672C600.844 180.672 600.076 179.424 600.076 177.744C600.076 176.016 600.844 174.784 602.332 174.784C603.356 174.784 603.996 175.376 604.188 176.304H606.172C605.868 174.464 604.492 173.232 602.316 173.232C599.692 173.232 598.012 175.2 598.012 177.744C598.012 180.272 599.708 182.256 602.348 182.256ZM611.457 182.256C613.745 182.256 615.201 180.88 615.329 178.896H613.345C613.233 180.016 612.561 180.672 611.441 180.672C609.953 180.672 609.185 179.424 609.185 177.744C609.185 176.016 609.953 174.784 611.441 174.784C612.465 174.784 613.105 175.376 613.297 176.304H615.281C614.977 174.464 613.601 173.232 611.425 173.232C608.801 173.232 607.121 175.2 607.121 177.744C607.121 180.272 608.817 182.256 611.457 182.256ZM622.355 182H624.323V181.856C624.131 181.728 624.003 181.36 624.003 180.656V176.16C624.003 175.024 623.587 174.208 622.787 173.728C622.227 173.376 621.475 173.232 620.499 173.232C618.067 173.232 616.915 174.56 616.851 176.016H618.771C618.819 175.168 619.379 174.64 620.515 174.64C621.539 174.64 622.051 175.136 622.051 175.872C622.051 176.64 621.347 176.864 619.939 177.04C617.907 177.28 616.435 177.744 616.435 179.68C616.435 181.344 617.683 182.208 619.347 182.208C620.707 182.208 621.475 181.648 622.035 180.896H622.067C622.099 181.472 622.211 181.808 622.355 182ZM619.939 180.816C619.155 180.816 618.467 180.544 618.467 179.632C618.467 178.688 619.187 178.432 620.435 178.192C621.059 178.064 621.699 177.888 622.099 177.632V178.896C622.099 179.856 621.331 180.816 619.939 180.816ZM627.865 173.456H625.881V182H627.913V176.992C627.913 175.776 628.713 174.912 629.849 174.912C630.889 174.912 631.481 175.536 631.481 176.544V182H633.513V176.208C633.513 174.368 632.409 173.232 630.569 173.232C629.369 173.232 628.473 173.76 627.913 174.704H627.865V173.456ZM635.271 172.064H637.351V170.096H635.271V172.064ZM635.303 182H637.335V173.456H635.303V182ZM643.082 182.256C645.37 182.256 646.826 180.88 646.954 178.896H644.97C644.858 180.016 644.186 180.672 643.066 180.672C641.578 180.672 640.81 179.424 640.81 177.744C640.81 176.016 641.578 174.784 643.066 174.784C644.09 174.784 644.73 175.376 644.922 176.304H646.906C646.602 174.464 645.226 173.232 643.05 173.232C640.426 173.232 638.746 175.2 638.746 177.744C638.746 180.272 640.442 182.256 643.082 182.256ZM653.98 182H655.948V181.856C655.756 181.728 655.628 181.36 655.628 180.656V176.16C655.628 175.024 655.212 174.208 654.412 173.728C653.852 173.376 653.1 173.232 652.124 173.232C649.692 173.232 648.54 174.56 648.476 176.016H650.396C650.444 175.168 651.004 174.64 652.14 174.64C653.164 174.64 653.676 175.136 653.676 175.872C653.676 176.64 652.972 176.864 651.564 177.04C649.532 177.28 648.06 177.744 648.06 179.68C648.06 181.344 649.308 182.208 650.972 182.208C652.332 182.208 653.1 181.648 653.66 180.896H653.692C653.724 181.472 653.836 181.808 653.98 182ZM651.564 180.816C650.78 180.816 650.092 180.544 650.092 179.632C650.092 178.688 650.812 178.432 652.06 178.192C652.684 178.064 653.324 177.888 653.724 177.632V178.896C653.724 179.856 652.956 180.816 651.564 180.816Z" fill="white"/>
<path d="M575.12 231H577.36V226.52H580.368C582.88 226.52 584.304 225.064 584.304 222.824C584.304 221.768 583.936 220.904 583.296 220.216C582.64 219.496 581.616 219.096 580.272 219.096H575.12V231ZM577.36 221H580.048C581.344 221 582.08 221.656 582.08 222.856C582.08 224.008 581.376 224.744 580.016 224.744H577.36V221ZM587.584 222.456H585.616V231H587.648V226.712C587.648 225.064 588.656 224.152 590 224.168C590.208 224.168 590.368 224.184 590.56 224.232H590.624V222.408C590.48 222.344 590.32 222.328 590.08 222.328C588.992 222.328 588.176 222.888 587.632 223.992H587.584V222.456ZM595.661 231.256C598.317 231.256 599.997 229.272 599.997 226.744C599.997 224.2 598.317 222.232 595.661 222.232C593.005 222.232 591.293 224.2 591.293 226.744C591.293 229.272 593.005 231.256 595.661 231.256ZM595.645 229.72C594.141 229.72 593.357 228.456 593.357 226.744C593.357 225.016 594.141 223.736 595.645 223.736C597.133 223.736 597.933 225.016 597.933 226.744C597.933 228.456 597.133 229.72 595.645 229.72ZM604.708 231.272C605.876 231.272 606.804 230.744 607.332 229.752H607.364V231H609.332V219.096H607.3V221.912C607.3 222.552 607.332 223.224 607.364 223.688H607.332C606.772 222.792 605.892 222.232 604.708 222.232C602.532 222.232 600.996 224.024 600.996 226.744C600.996 229.528 602.452 231.272 604.708 231.272ZM605.124 229.608C603.748 229.608 603.06 228.44 603.06 226.728C603.06 225.048 603.748 223.816 605.124 223.816C606.628 223.816 607.38 225.032 607.38 226.744C607.38 228.424 606.628 229.608 605.124 229.608ZM615.13 231.256C617.786 231.256 619.466 229.272 619.466 226.744C619.466 224.2 617.786 222.232 615.13 222.232C612.474 222.232 610.762 224.2 610.762 226.744C610.762 229.272 612.474 231.256 615.13 231.256ZM615.114 229.72C613.61 229.72 612.826 228.456 612.826 226.744C612.826 225.016 613.61 223.736 615.114 223.736C616.602 223.736 617.402 225.016 617.402 226.744C617.402 228.456 616.602 229.72 615.114 229.72ZM620.229 223.848H621.541V229.08C621.541 230.584 622.485 231.08 623.861 231.08C624.405 231.08 624.869 231.016 625.205 230.952V229.368H625.109C624.949 229.4 624.661 229.432 624.453 229.432C623.877 229.432 623.541 229.256 623.541 228.632V223.848H625.253V222.456H623.541V219.736H621.541V222.456H620.229V223.848ZM626.01 223.848H627.322V229.08C627.322 230.584 628.266 231.08 629.642 231.08C630.186 231.08 630.65 231.016 630.986 230.952V229.368H630.89C630.73 229.4 630.442 229.432 630.234 229.432C629.658 229.432 629.322 229.256 629.322 228.632V223.848H631.034V222.456H629.322V219.736H627.322V222.456H626.01V223.848ZM632.427 221.064H634.507V219.096H632.427V221.064ZM632.459 231H634.491V222.456H632.459V231ZM640.349 221.064H642.429V219.096H640.349V221.064ZM640.381 231H642.413V222.456H640.381V231ZM646.24 222.456H644.256V231H646.288V225.992C646.288 224.776 647.088 223.912 648.224 223.912C649.264 223.912 649.856 224.536 649.856 225.544V231H651.888V225.208C651.888 223.368 650.784 222.232 648.944 222.232C647.744 222.232 646.848 222.76 646.288 223.704H646.24V222.456ZM657.725 231H659.757V225.944C659.757 224.744 660.589 223.912 661.533 223.912C662.381 223.912 662.877 224.504 662.877 225.48V231H664.909V225.944C664.909 224.744 665.645 223.912 666.637 223.912C667.469 223.912 668.029 224.504 668.029 225.48V231H670.061V225.208C670.061 223.368 669.037 222.232 667.293 222.232C666.237 222.232 665.277 222.728 664.605 223.832H664.573C664.189 222.776 663.373 222.232 662.301 222.232C661.133 222.232 660.285 222.792 659.741 223.752H659.693V222.456H657.725V231ZM675.77 231.256C677.866 231.256 679.242 230.12 679.658 228.584H677.674C677.402 229.288 676.762 229.704 675.786 229.704C674.362 229.704 673.578 228.712 673.434 227.24H679.818C679.834 225.656 679.434 224.312 678.602 223.432C677.882 222.664 676.906 222.232 675.658 222.232C673.13 222.232 671.418 224.2 671.418 226.744C671.418 229.272 673.05 231.256 675.77 231.256ZM675.658 223.704C676.89 223.704 677.642 224.552 677.722 225.96H673.466C673.642 224.616 674.33 223.704 675.658 223.704ZM680.572 223.848H681.884V229.08C681.884 230.584 682.828 231.08 684.204 231.08C684.748 231.08 685.212 231.016 685.548 230.952V229.368H685.452C685.292 229.4 685.004 229.432 684.796 229.432C684.22 229.432 683.884 229.256 683.884 228.632V223.848H685.596V222.456H683.884V219.736H681.884V222.456H680.572V223.848ZM692.636 231H694.604V230.856C694.412 230.728 694.284 230.36 694.284 229.656V225.16C694.284 224.024 693.868 223.208 693.068 222.728C692.508 222.376 691.756 222.232 690.78 222.232C688.348 222.232 687.196 223.56 687.132 225.016H689.052C689.1 224.168 689.66 223.64 690.796 223.64C691.82 223.64 692.332 224.136 692.332 224.872C692.332 225.64 691.628 225.864 690.22 226.04C688.188 226.28 686.716 226.744 686.716 228.68C686.716 230.344 687.964 231.208 689.628 231.208C690.988 231.208 691.756 230.648 692.316 229.896H692.348C692.38 230.472 692.492 230.808 692.636 231ZM690.22 229.816C689.436 229.816 688.748 229.544 688.748 228.632C688.748 227.688 689.468 227.432 690.716 227.192C691.34 227.064 691.98 226.888 692.38 226.632V227.896C692.38 228.856 691.612 229.816 690.22 229.816ZM696.194 231H698.242V219.096H696.194V231ZM700.148 231H702.196V219.096H700.148V231ZM708.005 231.256C710.661 231.256 712.341 229.272 712.341 226.744C712.341 224.2 710.661 222.232 708.005 222.232C705.349 222.232 703.637 224.2 703.637 226.744C703.637 229.272 705.349 231.256 708.005 231.256ZM707.989 229.72C706.485 229.72 705.701 228.456 705.701 226.744C705.701 225.016 706.485 223.736 707.989 223.736C709.477 223.736 710.277 225.016 710.277 226.744C710.277 228.456 709.477 229.72 707.989 229.72Z" fill="white"/>
<path d="M575.12 84H577.104V77.792C577.104 76.496 576.96 74.08 576.96 74.08H576.992C576.992 74.08 577.488 76.272 577.872 77.456L580.144 84H581.936L584.192 77.456C584.576 76.272 585.072 74.08 585.072 74.08H585.104C585.104 74.08 584.96 76.496 584.96 77.792V84H587.024V72.096H584.032L582.112 77.76C581.664 79.168 581.088 81.76 581.088 81.76H581.04C581.04 81.76 580.464 79.152 580 77.76L578.048 72.096H575.12V84ZM592.989 84.256C595.645 84.256 597.325 82.272 597.325 79.744C597.325 77.2 595.645 75.232 592.989 75.232C590.333 75.232 588.621 77.2 588.621 79.744C588.621 82.272 590.333 84.256 592.989 84.256ZM592.973 82.72C591.469 82.72 590.685 81.456 590.685 79.744C590.685 78.016 591.469 76.736 592.973 76.736C594.461 76.736 595.261 78.016 595.261 79.744C595.261 81.456 594.461 82.72 592.973 82.72ZM603.396 84.272C605.668 84.272 607.076 82.528 607.076 79.744C607.076 77.024 605.604 75.232 603.412 75.232C602.196 75.232 601.332 75.824 600.772 76.72H600.724C600.756 76.272 600.788 75.584 600.788 74.912V72.096H598.756V84H600.724V82.768H600.772C601.284 83.776 602.26 84.272 603.396 84.272ZM602.964 82.608C601.492 82.608 600.708 81.408 600.708 79.744C600.708 78.112 601.412 76.816 602.964 76.816C604.324 76.816 605.012 78.048 605.012 79.728C605.012 81.44 604.324 82.608 602.964 82.608ZM608.459 74.064H610.539V72.096H608.459V74.064ZM608.491 84H610.523V75.456H608.491V84ZM612.398 84H614.446V72.096H612.398V84ZM616.287 74.064H618.367V72.096H616.287V74.064ZM616.319 84H618.351V75.456H616.319V84Z" fill="white"/>
<path d="M563 142H1074.5C1076.99 142 1079 144.015 1079 146.5C1079 148.985 1076.99 151 1074.5 151H563V142Z" fill="#004FED"/>
<path d="M27 146.5C27 144.015 29.0147 142 31.5 142H563V151H31.5C29.0147 151 27 148.985 27 146.5Z" fill="#A6D9DB"/>
<path d="M1028.54 128.36H1031.58V131.56H1033.31V128.36H1036.35V126.744H1033.31V123.544H1031.58V126.744H1028.54V128.36ZM1040.26 133H1042.38V121.512H1040.73C1040.47 123.128 1039.19 123.752 1037.62 123.8V125.208H1040.26V133ZM1046.94 133H1049.05V121.512H1047.4C1047.14 123.128 1045.86 123.752 1044.3 123.8V125.208H1046.94V133ZM1051.16 133H1053.38V130.776H1051.16V133ZM1059.29 133.272C1061.76 133.272 1063.8 132.104 1063.8 129.704C1063.8 128.28 1062.94 127.192 1061.45 126.808V126.76C1062.65 126.36 1063.28 125.496 1063.28 124.392C1063.28 122.52 1061.64 121.352 1059.26 121.352C1056.89 121.352 1055.24 122.568 1055.24 124.424C1055.24 125.544 1055.87 126.392 1057.08 126.792V126.84C1055.63 127.256 1054.72 128.28 1054.72 129.752C1054.72 132.104 1056.83 133.272 1059.29 133.272ZM1059.26 126.136C1058 126.136 1057.24 125.512 1057.24 124.52C1057.24 123.528 1058 122.888 1059.26 122.888C1060.52 122.888 1061.26 123.528 1061.26 124.52C1061.26 125.512 1060.52 126.136 1059.26 126.136ZM1059.29 131.64C1057.77 131.64 1056.86 130.888 1056.86 129.656C1056.86 128.392 1057.77 127.592 1059.28 127.592C1060.78 127.592 1061.68 128.392 1061.68 129.656C1061.68 130.872 1060.75 131.64 1059.29 131.64ZM1067.77 127.976C1069.45 127.976 1070.62 126.68 1070.62 124.664C1070.62 122.616 1069.43 121.352 1067.77 121.352C1066.12 121.352 1064.9 122.648 1064.9 124.664C1064.9 126.68 1066.1 127.976 1067.77 127.976ZM1067.83 133H1069.18L1075.53 121.608H1074.17L1067.83 133ZM1075.58 133.272C1077.27 133.272 1078.46 131.96 1078.46 129.944C1078.46 127.912 1077.26 126.632 1075.58 126.632C1073.94 126.632 1072.71 127.928 1072.71 129.944C1072.71 131.96 1073.91 133.272 1075.58 133.272ZM1067.77 126.744C1066.95 126.744 1066.57 125.864 1066.57 124.664C1066.57 123.432 1066.95 122.552 1067.77 122.552C1068.58 122.552 1069 123.464 1069 124.664C1069 125.88 1068.6 126.744 1067.77 126.744ZM1075.59 132.024C1074.78 132.024 1074.38 131.144 1074.38 129.944C1074.38 128.728 1074.78 127.832 1075.59 127.832C1076.38 127.832 1076.81 128.744 1076.81 129.944C1076.81 131.16 1076.42 132.024 1075.59 132.024Z" fill="#004FED"/>
<path d="M27 130.64H35V128.896H27V130.64ZM37.1851 134H39.2971V122.512H37.6491C37.3931 124.128 36.1131 124.752 34.5451 124.8V126.208H37.1851V134ZM41.185 134H49.569V132.176H43.937V132.096C44.625 130.944 46.273 130.16 47.457 129.248C48.705 128.416 49.665 127.616 49.665 125.936C49.665 123.904 48.177 122.368 45.681 122.368C44.161 122.368 42.993 122.88 42.305 123.728C41.713 124.464 41.409 125.328 41.409 126.544H43.473C43.473 125.728 43.649 125.12 44.049 124.688C44.401 124.288 44.897 124.08 45.569 124.08C46.785 124.08 47.521 124.848 47.521 125.984C47.521 127.024 46.897 127.568 45.841 128.24C44.721 128.976 43.361 129.776 42.401 130.848C41.681 131.664 41.233 132.608 41.185 134ZM51.0653 134H53.2893V131.776H51.0653V134ZM54.6225 134H63.0065V132.176H57.3745V132.096C58.0625 130.944 59.7105 130.16 60.8945 129.248C62.1425 128.416 63.1025 127.616 63.1025 125.936C63.1025 123.904 61.6145 122.368 59.1185 122.368C57.5985 122.368 56.4305 122.88 55.7425 123.728C55.1505 124.464 54.8465 125.328 54.8465 126.544H56.9105C56.9105 125.728 57.0865 125.12 57.4865 124.688C57.8385 124.288 58.3345 124.08 59.0065 124.08C60.2225 124.08 60.9585 124.848 60.9585 125.984C60.9585 127.024 60.3345 127.568 59.2785 128.24C58.1585 128.976 56.7985 129.776 55.8385 130.848C55.1185 131.664 54.6705 132.608 54.6225 134ZM67.533 128.976C69.213 128.976 70.381 127.68 70.381 125.664C70.381 123.616 69.197 122.352 67.533 122.352C65.885 122.352 64.669 123.648 64.669 125.664C64.669 127.68 65.869 128.976 67.533 128.976ZM67.597 134H68.941L75.293 122.608H73.933L67.597 134ZM75.341 134.272C77.037 134.272 78.221 132.96 78.221 130.944C78.221 128.912 77.021 127.632 75.341 127.632C73.709 127.632 72.477 128.928 72.477 130.944C72.477 132.96 73.677 134.272 75.341 134.272ZM67.533 127.744C66.717 127.744 66.333 126.864 66.333 125.664C66.333 124.432 66.717 123.552 67.533 123.552C68.349 123.552 68.765 124.464 68.765 125.664C68.765 126.88 68.365 127.744 67.533 127.744ZM75.357 133.024C74.541 133.024 74.141 132.144 74.141 130.944C74.141 129.728 74.541 128.832 75.357 128.832C76.141 128.832 76.573 129.744 76.573 130.944C76.573 132.16 76.189 133.024 75.357 133.024Z" fill="#A6D9DB"/>
<path d="M1054.16 177.36H1057.2V180.56H1058.93V177.36H1061.97V175.744H1058.93V172.544H1057.2V175.744H1054.16V177.36ZM1065.89 182H1068V170.512H1066.35C1066.1 172.128 1064.82 172.752 1063.25 172.8V174.208H1065.89V182ZM1069.89 182H1078.27V180.176H1072.64V180.096C1073.33 178.944 1074.98 178.16 1076.16 177.248C1077.41 176.416 1078.37 175.616 1078.37 173.936C1078.37 171.904 1076.88 170.368 1074.38 170.368C1072.86 170.368 1071.7 170.88 1071.01 171.728C1070.42 172.464 1070.11 173.328 1070.11 174.544H1072.18C1072.18 173.728 1072.35 173.12 1072.75 172.688C1073.1 172.288 1073.6 172.08 1074.27 172.08C1075.49 172.08 1076.22 172.848 1076.22 173.984C1076.22 175.024 1075.6 175.568 1074.54 176.24C1073.42 176.976 1072.06 177.776 1071.1 178.848C1070.38 179.664 1069.94 180.608 1069.89 182ZM1079.77 182H1081.99V179.776H1079.77V182ZM1088.72 182H1090.77V179.328H1092.53V177.744H1090.77V170.48H1088.85L1083.3 177.456V179.328H1088.72V182ZM1084.8 177.824V177.792C1084.8 177.792 1085.62 176.928 1086.08 176.368L1087.72 174.304C1088.18 173.712 1088.77 172.768 1088.77 172.768H1088.8C1088.8 172.768 1088.72 173.84 1088.72 174.48V177.744H1086.47C1085.83 177.744 1084.8 177.824 1084.8 177.824ZM1095.77 176.976C1097.45 176.976 1098.62 175.68 1098.62 173.664C1098.62 171.616 1097.43 170.352 1095.77 170.352C1094.12 170.352 1092.9 171.648 1092.9 173.664C1092.9 175.68 1094.1 176.976 1095.77 176.976ZM1095.83 182H1097.18L1103.53 170.608H1102.17L1095.83 182ZM1103.58 182.272C1105.27 182.272 1106.46 180.96 1106.46 178.944C1106.46 176.912 1105.26 175.632 1103.58 175.632C1101.94 175.632 1100.71 176.928 1100.71 178.944C1100.71 180.96 1101.91 182.272 1103.58 182.272ZM1095.77 175.744C1094.95 175.744 1094.57 174.864 1094.57 173.664C1094.57 172.432 1094.95 171.552 1095.77 171.552C1096.58 171.552 1097 172.464 1097 173.664C1097 174.88 1096.6 175.744 1095.77 175.744ZM1103.59 181.024C1102.78 181.024 1102.38 180.144 1102.38 178.944C1102.38 177.728 1102.78 176.832 1103.59 176.832C1104.38 176.832 1104.81 177.744 1104.81 178.944C1104.81 180.16 1104.42 181.024 1103.59 181.024Z" fill="#004FED"/>
<path d="M39 179.64H47V177.896H39V179.64ZM49.1851 183H51.2971V171.512H49.6491C49.3931 173.128 48.1131 173.752 46.5451 173.8V175.208H49.1851V183ZM55.857 183H57.969V171.512H56.321C56.065 173.128 54.785 173.752 53.217 173.8V175.208H55.857V183ZM60.0809 183H62.3049V180.776H60.0809V183ZM67.9299 183.272C69.2579 183.272 70.2979 182.856 71.0339 182.088C72.0579 181.064 72.4739 179.384 72.4739 177.288C72.4739 174.936 72.0099 173.336 70.8259 172.36C70.0899 171.736 69.0819 171.352 67.8499 171.352C65.3699 171.352 63.5619 173.048 63.5619 175.32C63.5619 177.608 65.3379 179.272 67.5459 179.272C68.8099 179.272 69.7539 178.712 70.4579 177.8H70.4899C70.4259 179.208 70.1859 180.2 69.7059 180.808C69.2739 181.4 68.6819 181.672 67.8819 181.672C66.6659 181.672 66.0259 180.952 65.8819 180.232H63.8179C64.0259 181.912 65.5779 183.272 67.9299 183.272ZM67.8819 177.656C66.5219 177.656 65.5459 176.664 65.5459 175.304C65.5459 173.944 66.5059 172.968 67.8979 172.968C69.2419 172.968 70.2819 173.928 70.2819 175.304C70.2819 176.696 69.3219 177.656 67.8819 177.656ZM76.5799 177.976C78.2599 177.976 79.4279 176.68 79.4279 174.664C79.4279 172.616 78.2439 171.352 76.5799 171.352C74.9319 171.352 73.7159 172.648 73.7159 174.664C73.7159 176.68 74.9159 177.976 76.5799 177.976ZM76.6439 183H77.9879L84.3399 171.608H82.9799L76.6439 183ZM84.3879 183.272C86.0839 183.272 87.2679 181.96 87.2679 179.944C87.2679 177.912 86.0679 176.632 84.3879 176.632C82.7559 176.632 81.5239 177.928 81.5239 179.944C81.5239 181.96 82.7239 183.272 84.3879 183.272ZM76.5799 176.744C75.7639 176.744 75.3799 175.864 75.3799 174.664C75.3799 173.432 75.7639 172.552 76.5799 172.552C77.3959 172.552 77.8119 173.464 77.8119 174.664C77.8119 175.88 77.4119 176.744 76.5799 176.744ZM84.4039 182.024C83.5879 182.024 83.1879 181.144 83.1879 179.944C83.1879 178.728 83.5879 177.832 84.4039 177.832C85.1879 177.832 85.6199 178.744 85.6199 179.944C85.6199 181.16 85.2359 182.024 84.4039 182.024Z" fill="#A6D9DB"/>
<path d="M54.924 59H56.148V54.872H60.216V53.828H56.148V51.152H61.032V50.072H54.924V59ZM64.5018 59.18C66.4458 59.18 67.6338 57.668 67.6338 55.784C67.6338 53.912 66.4458 52.4 64.5018 52.4C62.5578 52.4 61.3458 53.912 61.3458 55.784C61.3458 57.668 62.5578 59.18 64.5018 59.18ZM64.4898 58.268C63.1698 58.268 62.4858 57.176 62.4858 55.784C62.4858 54.392 63.1698 53.288 64.4898 53.288C65.8098 53.288 66.4938 54.392 66.4938 55.784C66.4938 57.176 65.8098 58.268 64.4898 58.268ZM69.9228 52.556H68.8188V59H69.9348V55.076C69.9348 54.044 70.6548 53.336 71.6508 53.336C72.5268 53.336 73.0668 53.804 73.0668 54.632V59H74.1708V54.5C74.1708 53.156 73.3428 52.4 71.9988 52.4C71.0628 52.4 70.4268 52.82 69.9588 53.468H69.9228V52.556ZM75.1611 53.42H76.1691V57.74C76.1691 58.688 76.7691 59.036 77.6331 59.048C77.9211 59.048 78.2331 59.012 78.5331 58.94V58.004H78.4971C78.3771 58.04 78.1251 58.088 77.9331 58.088C77.5251 58.088 77.2731 57.956 77.2731 57.488V53.42H78.6051V52.556H77.2731V50.528H76.1691V52.556H75.1611V53.42ZM82.5015 59.18C83.9895 59.18 85.0215 58.364 85.3095 57.164H84.2175C84.0135 57.848 83.4015 58.268 82.5135 58.268C81.2655 58.268 80.5815 57.308 80.4975 56.048H85.4415C85.4415 54.956 85.1775 54.032 84.6495 53.396C84.1455 52.772 83.4015 52.4 82.4415 52.4C80.5935 52.4 79.3575 53.912 79.3575 55.784C79.3575 57.668 80.5215 59.18 82.5015 59.18ZM82.4415 53.264C83.5575 53.264 84.1935 54.008 84.2535 55.244H80.5215C80.6655 54.104 81.2775 53.264 82.4415 53.264ZM86.5473 55.208H87.8433V53.888H86.5473V55.208ZM86.5473 59H87.8433V57.68H86.5473V59ZM92.6589 59H93.8829V50.072H92.6589V59ZM96.7001 52.556H95.5961V59H96.7121V55.076C96.7121 54.044 97.4321 53.336 98.4281 53.336C99.3041 53.336 99.8441 53.804 99.8441 54.632V59H100.948V54.5C100.948 53.156 100.12 52.4 98.7761 52.4C97.8401 52.4 97.2041 52.82 96.7361 53.468H96.7001V52.556ZM101.938 53.42H102.946V57.74C102.946 58.688 103.546 59.036 104.41 59.048C104.698 59.048 105.01 59.012 105.31 58.94V58.004H105.274C105.154 58.04 104.902 58.088 104.71 58.088C104.302 58.088 104.05 57.956 104.05 57.488V53.42H105.382V52.556H104.05V50.528H102.946V52.556H101.938V53.42ZM109.279 59.18C110.767 59.18 111.799 58.364 112.087 57.164H110.995C110.791 57.848 110.179 58.268 109.291 58.268C108.043 58.268 107.359 57.308 107.275 56.048H112.219C112.219 54.956 111.955 54.032 111.427 53.396C110.923 52.772 110.179 52.4 109.219 52.4C107.371 52.4 106.135 53.912 106.135 55.784C106.135 57.668 107.299 59.18 109.279 59.18ZM109.219 53.264C110.335 53.264 110.971 54.008 111.031 55.244H107.299C107.443 54.104 108.055 53.264 109.219 53.264ZM115.881 59.192C117.393 59.192 118.473 58.52 118.473 57.212C118.473 55.712 117.369 55.424 116.085 55.172C114.993 54.956 114.369 54.824 114.369 54.152C114.369 53.66 114.741 53.252 115.617 53.252C116.541 53.252 116.997 53.624 117.093 54.284H118.209C118.065 53.168 117.261 52.412 115.641 52.412C114.141 52.412 113.277 53.108 113.277 54.212C113.277 55.628 114.417 55.892 115.677 56.156C116.817 56.384 117.357 56.564 117.357 57.272C117.357 57.848 116.925 58.292 115.905 58.292C114.981 58.292 114.261 57.98 114.129 57.044H113.001C113.097 58.352 114.105 59.192 115.881 59.192ZM121.657 59.132C122.749 59.132 123.409 58.616 123.817 58.052H123.829C123.949 58.736 124.285 59.06 124.969 59.06C125.233 59.06 125.413 59.012 125.569 58.964V58.184H125.521C124.957 58.304 124.837 58.028 124.837 57.512V54.5C124.837 53.636 124.513 53.072 123.973 52.748C123.565 52.508 123.025 52.4 122.413 52.4C120.673 52.4 119.845 53.372 119.797 54.464H120.877C120.913 53.696 121.405 53.216 122.425 53.216C123.313 53.216 123.805 53.648 123.805 54.344C123.805 55.004 123.193 55.16 122.245 55.268C120.577 55.472 119.473 55.796 119.473 57.296C119.473 58.532 120.433 59.132 121.657 59.132ZM121.933 58.316C121.285 58.316 120.649 58.112 120.649 57.284C120.649 56.396 121.345 56.204 122.401 56.024C122.929 55.928 123.493 55.772 123.817 55.568V56.624C123.817 57.368 123.217 58.316 121.933 58.316ZM133.095 59.18C135.027 59.18 136.419 58.232 136.419 56.54C136.419 54.548 134.847 54.104 133.119 53.756C131.775 53.48 130.803 53.204 130.803 52.232C130.803 51.344 131.571 50.864 132.747 50.864C134.007 50.864 134.787 51.452 134.943 52.532H136.131C135.915 51.008 134.931 49.904 132.735 49.904C130.899 49.904 129.639 50.792 129.639 52.292C129.639 54.008 130.995 54.464 132.591 54.8C134.151 55.148 135.183 55.424 135.183 56.588C135.183 57.668 134.319 58.196 133.131 58.196C131.511 58.196 130.623 57.452 130.479 56.108H129.267C129.363 57.812 130.599 59.18 133.095 59.18ZM139.645 59.132C140.737 59.132 141.397 58.616 141.805 58.052H141.817C141.937 58.736 142.273 59.06 142.957 59.06C143.221 59.06 143.401 59.012 143.557 58.964V58.184H143.509C142.945 58.304 142.825 58.028 142.825 57.512V54.5C142.825 53.636 142.501 53.072 141.961 52.748C141.553 52.508 141.013 52.4 140.401 52.4C138.661 52.4 137.833 53.372 137.785 54.464H138.865C138.901 53.696 139.393 53.216 140.413 53.216C141.301 53.216 141.793 53.648 141.793 54.344C141.793 55.004 141.181 55.16 140.233 55.268C138.565 55.472 137.461 55.796 137.461 57.296C137.461 58.532 138.421 59.132 139.645 59.132ZM139.921 58.316C139.273 58.316 138.637 58.112 138.637 57.284C138.637 56.396 139.333 56.204 140.389 56.024C140.917 55.928 141.481 55.772 141.805 55.568V56.624C141.805 57.368 141.205 58.316 139.921 58.316ZM145.567 52.556H144.463V59H145.579V55.076C145.579 54.044 146.299 53.336 147.295 53.336C148.171 53.336 148.711 53.804 148.711 54.632V59H149.815V54.5C149.815 53.156 148.987 52.4 147.643 52.4C146.707 52.4 146.071 52.82 145.603 53.468H145.567V52.556ZM151.319 61.184H152.435V59.228C152.435 58.736 152.423 58.376 152.411 58.148H152.447C152.891 58.832 153.599 59.192 154.475 59.192C156.215 59.192 157.283 57.86 157.283 55.796C157.283 53.672 156.155 52.4 154.511 52.4C153.587 52.4 152.939 52.832 152.459 53.564H152.423V52.556H151.319V61.184ZM154.355 58.268C152.927 58.268 152.375 57.176 152.375 55.82C152.375 54.452 152.999 53.348 154.367 53.348C155.555 53.348 156.143 54.404 156.143 55.82C156.143 57.224 155.543 58.268 154.355 58.268ZM160.387 59.132C161.479 59.132 162.139 58.616 162.547 58.052H162.559C162.679 58.736 163.015 59.06 163.699 59.06C163.963 59.06 164.143 59.012 164.299 58.964V58.184H164.251C163.687 58.304 163.567 58.028 163.567 57.512V54.5C163.567 53.636 163.243 53.072 162.703 52.748C162.295 52.508 161.755 52.4 161.143 52.4C159.403 52.4 158.575 53.372 158.527 54.464H159.607C159.643 53.696 160.135 53.216 161.155 53.216C162.043 53.216 162.535 53.648 162.535 54.344C162.535 55.004 161.923 55.16 160.975 55.268C159.307 55.472 158.203 55.796 158.203 57.296C158.203 58.532 159.163 59.132 160.387 59.132ZM160.663 58.316C160.015 58.316 159.379 58.112 159.379 57.284C159.379 56.396 160.075 56.204 161.131 56.024C161.659 55.928 162.223 55.772 162.547 55.568V56.624C162.547 57.368 161.947 58.316 160.663 58.316ZM168.014 59.18C169.958 59.18 171.146 57.668 171.146 55.784C171.146 53.912 169.958 52.4 168.014 52.4C166.07 52.4 164.858 53.912 164.858 55.784C164.858 57.668 166.07 59.18 168.014 59.18ZM168.002 58.268C166.682 58.268 165.998 57.176 165.998 55.784C165.998 54.392 166.682 53.288 168.002 53.288C169.322 53.288 170.006 54.392 170.006 55.784C170.006 57.176 169.322 58.268 168.002 58.268ZM172.367 59H173.483V50.072H172.367V59ZM177.857 59.18C179.801 59.18 180.989 57.668 180.989 55.784C180.989 53.912 179.801 52.4 177.857 52.4C175.913 52.4 174.701 53.912 174.701 55.784C174.701 57.668 175.913 59.18 177.857 59.18ZM177.845 58.268C176.525 58.268 175.841 57.176 175.841 55.784C175.841 54.392 176.525 53.288 177.845 53.288C179.165 53.288 179.849 54.392 179.849 55.784C179.849 57.176 179.165 58.268 177.845 58.268Z" fill="white"/>
<path d="M72.49 35H79.826V33.404H74.898V33.334C75.5 32.326 76.942 31.64 77.978 30.842C79.07 30.114 79.91 29.414 79.91 27.944C79.91 26.166 78.608 24.822 76.424 24.822C75.094 24.822 74.072 25.27 73.47 26.012C72.952 26.656 72.686 27.412 72.686 28.476H74.492C74.492 27.762 74.646 27.23 74.996 26.852C75.304 26.502 75.738 26.32 76.326 26.32C77.39 26.32 78.034 26.992 78.034 27.986C78.034 28.896 77.488 29.372 76.564 29.96C75.584 30.604 74.394 31.304 73.554 32.242C72.924 32.956 72.532 33.782 72.49 35ZM85.2636 35.238C87.8396 35.238 89.4216 33.194 89.4216 30.016C89.4216 26.796 87.7976 24.808 85.2776 24.808C82.7996 24.808 81.1336 26.824 81.1336 30.016C81.1336 33.194 82.7576 35.238 85.2636 35.238ZM85.2776 33.726C83.7376 33.726 83.0376 32.256 83.0376 30.016C83.0376 27.762 83.7376 26.292 85.2776 26.292C86.8316 26.292 87.5176 27.776 87.5176 30.016C87.5176 32.284 86.8596 33.726 85.2776 33.726ZM90.3865 35H97.7225V33.404H92.7945V33.334C93.3965 32.326 94.8385 31.64 95.8745 30.842C96.9665 30.114 97.8065 29.414 97.8065 27.944C97.8065 26.166 96.5045 24.822 94.3205 24.822C92.9905 24.822 91.9685 25.27 91.3665 26.012C90.8485 26.656 90.5825 27.412 90.5825 28.476H92.3885C92.3885 27.762 92.5425 27.23 92.8925 26.852C93.2005 26.502 93.6345 26.32 94.2225 26.32C95.2865 26.32 95.9305 26.992 95.9305 27.986C95.9305 28.896 95.3845 29.372 94.4605 29.96C93.4805 30.604 92.2905 31.304 91.4505 32.242C90.8205 32.956 90.4285 33.782 90.3865 35ZM103.16 35.238C105.736 35.238 107.318 33.194 107.318 30.016C107.318 26.796 105.694 24.808 103.174 24.808C100.696 24.808 99.0301 26.824 99.0301 30.016C99.0301 33.194 100.654 35.238 103.16 35.238ZM103.174 33.726C101.634 33.726 100.934 32.256 100.934 30.016C100.934 27.762 101.634 26.292 103.174 26.292C104.728 26.292 105.414 27.776 105.414 30.016C105.414 32.284 104.756 33.726 103.174 33.726Z" fill="white"/>
<path d="M142.49 35H149.826V33.404H144.898V33.334C145.5 32.326 146.942 31.64 147.978 30.842C149.07 30.114 149.91 29.414 149.91 27.944C149.91 26.166 148.608 24.822 146.424 24.822C145.094 24.822 144.072 25.27 143.47 26.012C142.952 26.656 142.686 27.412 142.686 28.476H144.492C144.492 27.762 144.646 27.23 144.996 26.852C145.304 26.502 145.738 26.32 146.326 26.32C147.39 26.32 148.034 26.992 148.034 27.986C148.034 28.896 147.488 29.372 146.564 29.96C145.584 30.604 144.394 31.304 143.554 32.242C142.924 32.956 142.532 33.782 142.49 35ZM155.264 35.238C157.84 35.238 159.422 33.194 159.422 30.016C159.422 26.796 157.798 24.808 155.278 24.808C152.8 24.808 151.134 26.824 151.134 30.016C151.134 33.194 152.758 35.238 155.264 35.238ZM155.278 33.726C153.738 33.726 153.038 32.256 153.038 30.016C153.038 27.762 153.738 26.292 155.278 26.292C156.832 26.292 157.518 27.776 157.518 30.016C157.518 32.284 156.86 33.726 155.278 33.726ZM160.386 35H167.722V33.404H162.794V33.334C163.396 32.326 164.838 31.64 165.874 30.842C166.966 30.114 167.806 29.414 167.806 27.944C167.806 26.166 166.504 24.822 164.32 24.822C162.99 24.822 161.968 25.27 161.366 26.012C160.848 26.656 160.582 27.412 160.582 28.476H162.388C162.388 27.762 162.542 27.23 162.892 26.852C163.2 26.502 163.634 26.32 164.222 26.32C165.286 26.32 165.93 26.992 165.93 27.986C165.93 28.896 165.384 29.372 164.46 29.96C163.48 30.604 162.29 31.304 161.45 32.242C160.82 32.956 160.428 33.782 160.386 35ZM171.242 35H173.09V24.948H171.648C171.424 26.362 170.304 26.908 168.932 26.95V28.182H171.242V35Z" fill="white"/>
<circle cx="59" cy="30" r="5" fill="#A6D9DB"/>
<circle cx="129" cy="30" r="5" fill="#004FED"/>
<path d="M0.34375 797.64H8.34375V795.896H0.34375V797.64ZM12.9506 801H21.3346V799.176H15.7026V799.096C16.3906 797.944 18.0386 797.16 19.2226 796.248C20.4706 795.416 21.4306 794.616 21.4306 792.936C21.4306 790.904 19.9426 789.368 17.4466 789.368C15.9266 789.368 14.7586 789.88 14.0706 790.728C13.4786 791.464 13.1746 792.328 13.1746 793.544H15.2386C15.2386 792.728 15.4146 792.12 15.8146 791.688C16.1666 791.288 16.6626 791.08 17.3346 791.08C18.5506 791.08 19.2866 791.848 19.2866 792.984C19.2866 794.024 18.6626 794.568 17.6066 795.24C16.4866 795.976 15.1266 796.776 14.1666 797.848C13.4466 798.664 12.9986 799.608 12.9506 801ZM27.1509 801.272C29.5029 801.272 31.4549 800.088 31.4549 797.768C31.4549 796.264 30.6709 795.304 29.1669 794.888V794.856C30.3189 794.472 31.0869 793.752 31.0869 792.52C31.0869 790.536 29.3749 789.352 27.0869 789.352C24.3989 789.352 22.8469 790.92 22.8149 793.032H24.8149C24.8469 791.896 25.5989 790.952 27.0389 790.952C28.1749 790.952 29.0069 791.576 29.0069 792.6C29.0069 793.64 28.2229 794.248 26.7989 794.248H26.1429V795.768H26.8469C28.4149 795.768 29.3109 796.392 29.3109 797.608C29.3109 798.904 28.4309 799.592 27.0709 799.592C25.4069 799.592 24.5429 798.648 24.4789 797.272H22.4629C22.4789 798.504 22.9589 799.56 23.8229 800.264C24.6549 800.92 25.7589 801.272 27.1509 801.272ZM32.8309 801H35.0549V798.776H32.8309V801ZM40.8459 801.272C43.2299 801.272 45.0539 799.56 45.0379 797.272C45.0219 795.016 43.2619 793.336 41.1179 793.336C39.8059 793.336 38.8619 793.88 38.1739 794.936H38.1419C38.2379 792.36 39.0539 790.936 40.8619 790.936C41.9819 790.936 42.5419 791.64 42.6699 792.296H44.7179C44.4459 790.744 43.1659 789.352 40.8299 789.352C39.2779 789.352 38.1739 789.896 37.3739 790.888C36.5259 791.96 36.1259 793.496 36.1419 795.304C36.1419 797.336 36.5579 798.856 37.5659 799.928C38.3179 800.76 39.4059 801.272 40.8459 801.272ZM40.7819 799.656C39.4219 799.656 38.3659 798.68 38.3659 797.304C38.3659 795.912 39.3419 794.968 40.7659 794.968C42.0619 794.968 43.0539 795.928 43.0539 797.32C43.0539 798.68 42.0779 799.656 40.7819 799.656Z" fill="#A6D9DB"/>
<path d="M563 289H1125.5C1127.99 289 1130 291.015 1130 293.5C1130 295.985 1127.99 298 1125.5 298H563V289Z" fill="#004FED"/>
<path d="M563 289H56C36.67 289 21 304.67 21 324V776.492C21 778.982 23.0184 781 25.5083 781C27.9982 781 30.0166 778.982 30.0166 776.492L30.0166 324C30.0166 309.641 41.6573 298 56.0167 298H563V289Z" fill="#A6D9DB"/>
<path d="M562.487 16.272C565.431 16.272 567.239 13.936 567.239 10.304C567.239 6.624 565.383 4.352 562.503 4.352C559.671 4.352 557.767 6.656 557.767 10.304C557.767 13.936 559.623 16.272 562.487 16.272ZM562.503 14.544C560.743 14.544 559.943 12.864 559.943 10.304C559.943 7.728 560.743 6.048 562.503 6.048C564.279 6.048 565.062 7.744 565.062 10.304C565.062 12.896 564.311 14.544 562.503 14.544Z" fill="white"/>
<rect x="562" y="20" width="1" height="278" fill="white"/>
</svg>
