<svg width="1133" height="822" viewBox="0 0 1133 822" fill="none" xmlns="http://www.w3.org/2000/svg">
<path d="M1093.12 290.36H1096.16V293.56H1097.88V290.36H1100.92V288.744H1097.88V285.544H1096.16V288.744H1093.12V290.36ZM1104.84 295H1106.95V283.512H1105.31C1105.05 285.128 1103.77 285.752 1102.2 285.8V287.208H1104.84V295ZM1113.39 295.272C1115.74 295.272 1117.69 294.088 1117.69 291.768C1117.69 290.264 1116.91 289.304 1115.4 288.888V288.856C1116.55 288.472 1117.32 287.752 1117.32 286.52C1117.32 284.536 1115.61 283.352 1113.32 283.352C1110.63 283.352 1109.08 284.92 1109.05 287.032H1111.05C1111.08 285.896 1111.83 284.952 1113.27 284.952C1114.41 284.952 1115.24 285.576 1115.24 286.6C1115.24 287.64 1114.46 288.248 1113.03 288.248H1112.38V289.768H1113.08C1114.65 289.768 1115.55 290.392 1115.55 291.608C1115.55 292.904 1114.67 293.592 1113.31 293.592C1111.64 293.592 1110.78 292.648 1110.71 291.272H1108.7C1108.71 292.504 1109.19 293.56 1110.06 294.264C1110.89 294.92 1111.99 295.272 1113.39 295.272ZM1121.77 289.976C1123.45 289.976 1124.62 288.68 1124.62 286.664C1124.62 284.616 1123.43 283.352 1121.77 283.352C1120.12 283.352 1118.9 284.648 1118.9 286.664C1118.9 288.68 1120.1 289.976 1121.77 289.976ZM1121.83 295H1123.18L1129.53 283.608H1128.17L1121.83 295ZM1129.58 295.272C1131.27 295.272 1132.46 293.96 1132.46 291.944C1132.46 289.912 1131.26 288.632 1129.58 288.632C1127.94 288.632 1126.71 289.928 1126.71 291.944C1126.71 293.96 1127.91 295.272 1129.58 295.272ZM1121.77 288.744C1120.95 288.744 1120.57 287.864 1120.57 286.664C1120.57 285.432 1120.95 284.552 1121.77 284.552C1122.58 284.552 1123 285.464 1123 286.664C1123 287.88 1122.6 288.744 1121.77 288.744ZM1129.59 294.024C1128.78 294.024 1128.38 293.144 1128.38 291.944C1128.38 290.728 1128.78 289.832 1129.59 289.832C1130.38 289.832 1130.81 290.744 1130.81 291.944C1130.81 293.16 1130.42 294.024 1129.59 294.024Z" fill="#004FED"/>
<path d="M745.834 30.36H748.874V33.56H750.602V30.36H753.642V28.744H750.602V25.544H748.874V28.744H745.834V30.36ZM759.411 35.256C761.923 35.256 763.763 33.688 763.763 31.224C763.763 28.776 761.939 27.304 759.939 27.304C758.786 27.304 758.035 27.656 757.443 28.28H757.411L758.035 25.352H763.059V23.608H756.531L755.315 29.832H757.315C757.699 29.352 758.403 28.936 759.427 28.936C760.643 28.936 761.619 29.784 761.619 31.208C761.619 32.584 760.707 33.512 759.347 33.512C758.035 33.512 757.283 32.84 757.075 31.848H754.995C755.155 33.864 756.914 35.256 759.411 35.256ZM765.128 35H767.352V32.776H765.128V35ZM769.92 35H772.032V23.512H770.384C770.128 25.128 768.848 25.752 767.28 25.8V27.208H769.92V35ZM776.767 29.976C778.447 29.976 779.615 28.68 779.615 26.664C779.615 24.616 778.431 23.352 776.767 23.352C775.119 23.352 773.903 24.648 773.903 26.664C773.903 28.68 775.103 29.976 776.767 29.976ZM776.831 35H778.175L784.527 23.608H783.167L776.831 35ZM784.575 35.272C786.271 35.272 787.455 33.96 787.455 31.944C787.455 29.912 786.255 28.632 784.575 28.632C782.943 28.632 781.711 29.928 781.711 31.944C781.711 33.96 782.911 35.272 784.575 35.272ZM776.767 28.744C775.951 28.744 775.567 27.864 775.567 26.664C775.567 25.432 775.951 24.552 776.767 24.552C777.583 24.552 777.999 25.464 777.999 26.664C777.999 27.88 777.599 28.744 776.767 28.744ZM784.591 34.024C783.775 34.024 783.375 33.144 783.375 31.944C783.375 30.728 783.775 29.832 784.591 29.832C785.375 29.832 785.807 30.744 785.807 31.944C785.807 33.16 785.423 34.024 784.591 34.024Z" fill="#004FED"/>
<path d="M469 31.64H477V29.896H469V31.64ZM477.404 35H485.788V33.176H480.156V33.096C480.844 31.944 482.492 31.16 483.676 30.248C484.924 29.416 485.884 28.616 485.884 26.936C485.884 24.904 484.396 23.368 481.9 23.368C480.38 23.368 479.212 23.88 478.524 24.728C477.932 25.464 477.628 26.328 477.628 27.544H479.692C479.692 26.728 479.868 26.12 480.268 25.688C480.62 25.288 481.116 25.08 481.788 25.08C483.004 25.08 483.74 25.848 483.74 26.984C483.74 28.024 483.116 28.568 482.06 29.24C480.94 29.976 479.58 30.776 478.62 31.848C477.9 32.664 477.452 33.608 477.404 35ZM487.284 35H489.508V32.776H487.284V35ZM490.841 35H499.225V33.176H493.593V33.096C494.281 31.944 495.929 31.16 497.113 30.248C498.361 29.416 499.321 28.616 499.321 26.936C499.321 24.904 497.833 23.368 495.337 23.368C493.817 23.368 492.649 23.88 491.961 24.728C491.369 25.464 491.065 26.328 491.065 27.544H493.129C493.129 26.728 493.305 26.12 493.705 25.688C494.057 25.288 494.553 25.08 495.225 25.08C496.441 25.08 497.177 25.848 497.177 26.984C497.177 28.024 496.553 28.568 495.497 29.24C494.377 29.976 493.017 30.776 492.057 31.848C491.337 32.664 490.889 33.608 490.841 35ZM503.752 29.976C505.432 29.976 506.6 28.68 506.6 26.664C506.6 24.616 505.416 23.352 503.752 23.352C502.104 23.352 500.888 24.648 500.888 26.664C500.888 28.68 502.088 29.976 503.752 29.976ZM503.816 35H505.16L511.512 23.608H510.152L503.816 35ZM511.56 35.272C513.256 35.272 514.44 33.96 514.44 31.944C514.44 29.912 513.24 28.632 511.56 28.632C509.928 28.632 508.696 29.928 508.696 31.944C508.696 33.96 509.896 35.272 511.56 35.272ZM503.752 28.744C502.936 28.744 502.552 27.864 502.552 26.664C502.552 25.432 502.936 24.552 503.752 24.552C504.568 24.552 504.984 25.464 504.984 26.664C504.984 27.88 504.584 28.744 503.752 28.744ZM511.576 34.024C510.76 34.024 510.36 33.144 510.36 31.944C510.36 30.728 510.76 29.832 511.576 29.832C512.36 29.832 512.792 30.744 512.792 31.944C512.792 33.16 512.408 34.024 511.576 34.024Z" fill="#131313"/>
<path d="M1076.66 238.36H1079.7V241.56H1081.43V238.36H1084.47V236.744H1081.43V233.544H1079.7V236.744H1076.66V238.36ZM1088.39 243H1090.5V231.512H1088.85C1088.6 233.128 1087.32 233.752 1085.75 233.8V235.208H1088.39V243ZM1092.39 243H1100.77V241.176H1095.14V241.096C1095.83 239.944 1097.48 239.16 1098.66 238.248C1099.91 237.416 1100.87 236.616 1100.87 234.936C1100.87 232.904 1099.38 231.368 1096.88 231.368C1095.36 231.368 1094.2 231.88 1093.51 232.728C1092.92 233.464 1092.61 234.328 1092.61 235.544H1094.68C1094.68 234.728 1094.85 234.12 1095.25 233.688C1095.6 233.288 1096.1 233.08 1096.77 233.08C1097.99 233.08 1098.72 233.848 1098.72 234.984C1098.72 236.024 1098.1 236.568 1097.04 237.24C1095.92 237.976 1094.56 238.776 1093.6 239.848C1092.88 240.664 1092.44 241.608 1092.39 243ZM1102.27 243H1104.49V240.776H1102.27V243ZM1110.12 243.272C1111.45 243.272 1112.49 242.856 1113.22 242.088C1114.25 241.064 1114.66 239.384 1114.66 237.288C1114.66 234.936 1114.2 233.336 1113.01 232.36C1112.28 231.736 1111.27 231.352 1110.04 231.352C1107.56 231.352 1105.75 233.048 1105.75 235.32C1105.75 237.608 1107.53 239.272 1109.73 239.272C1111 239.272 1111.94 238.712 1112.65 237.8H1112.68C1112.61 239.208 1112.37 240.2 1111.89 240.808C1111.46 241.4 1110.87 241.672 1110.07 241.672C1108.85 241.672 1108.21 240.952 1108.07 240.232H1106.01C1106.21 241.912 1107.77 243.272 1110.12 243.272ZM1110.07 237.656C1108.71 237.656 1107.73 236.664 1107.73 235.304C1107.73 233.944 1108.69 232.968 1110.09 232.968C1111.43 232.968 1112.47 233.928 1112.47 235.304C1112.47 236.696 1111.51 237.656 1110.07 237.656ZM1118.77 237.976C1120.45 237.976 1121.62 236.68 1121.62 234.664C1121.62 232.616 1120.43 231.352 1118.77 231.352C1117.12 231.352 1115.9 232.648 1115.9 234.664C1115.9 236.68 1117.1 237.976 1118.77 237.976ZM1118.83 243H1120.18L1126.53 231.608H1125.17L1118.83 243ZM1126.58 243.272C1128.27 243.272 1129.46 241.96 1129.46 239.944C1129.46 237.912 1128.26 236.632 1126.58 236.632C1124.94 236.632 1123.71 237.928 1123.71 239.944C1123.71 241.96 1124.91 243.272 1126.58 243.272ZM1118.77 236.744C1117.95 236.744 1117.57 235.864 1117.57 234.664C1117.57 233.432 1117.95 232.552 1118.77 232.552C1119.58 232.552 1120 233.464 1120 234.664C1120 235.88 1119.6 236.744 1118.77 236.744ZM1126.59 242.024C1125.78 242.024 1125.38 241.144 1125.38 239.944C1125.38 238.728 1125.78 237.832 1126.59 237.832C1127.38 237.832 1127.81 238.744 1127.81 239.944C1127.81 241.16 1127.42 242.024 1126.59 242.024Z" fill="#004FED"/>
<path d="M30 239.64H38V237.896H30V239.64ZM40.1851 243H42.2971V231.512H40.6491C40.3931 233.128 39.1131 233.752 37.5451 233.8V235.208H40.1851V243ZM44.185 243H52.569V241.176H46.937V241.096C47.625 239.944 49.273 239.16 50.457 238.248C51.705 237.416 52.665 236.616 52.665 234.936C52.665 232.904 51.177 231.368 48.681 231.368C47.161 231.368 45.993 231.88 45.305 232.728C44.713 233.464 44.409 234.328 44.409 235.544H46.473C46.473 234.728 46.649 234.12 47.049 233.688C47.401 233.288 47.897 233.08 48.569 233.08C49.785 233.08 50.521 233.848 50.521 234.984C50.521 236.024 49.897 236.568 48.841 237.24C47.721 237.976 46.361 238.776 45.401 239.848C44.681 240.664 44.233 241.608 44.185 243ZM54.0653 243H56.2893V240.776H54.0653V243ZM57.6225 243H66.0065V241.176H60.3745V241.096C61.0625 239.944 62.7105 239.16 63.8945 238.248C65.1425 237.416 66.1025 236.616 66.1025 234.936C66.1025 232.904 64.6145 231.368 62.1185 231.368C60.5985 231.368 59.4305 231.88 58.7425 232.728C58.1505 233.464 57.8465 234.328 57.8465 235.544H59.9105C59.9105 234.728 60.0865 234.12 60.4865 233.688C60.8385 233.288 61.3345 233.08 62.0065 233.08C63.2225 233.08 63.9585 233.848 63.9585 234.984C63.9585 236.024 63.3345 236.568 62.2785 237.24C61.1585 237.976 59.7985 238.776 58.8385 239.848C58.1185 240.664 57.6705 241.608 57.6225 243ZM70.533 237.976C72.213 237.976 73.381 236.68 73.381 234.664C73.381 232.616 72.197 231.352 70.533 231.352C68.885 231.352 67.669 232.648 67.669 234.664C67.669 236.68 68.869 237.976 70.533 237.976ZM70.597 243H71.941L78.293 231.608H76.933L70.597 243ZM78.341 243.272C80.037 243.272 81.221 241.96 81.221 239.944C81.221 237.912 80.021 236.632 78.341 236.632C76.709 236.632 75.477 237.928 75.477 239.944C75.477 241.96 76.677 243.272 78.341 243.272ZM70.533 236.744C69.717 236.744 69.333 235.864 69.333 234.664C69.333 233.432 69.717 232.552 70.533 232.552C71.349 232.552 71.765 233.464 71.765 234.664C71.765 235.88 71.365 236.744 70.533 236.744ZM78.357 242.024C77.541 242.024 77.141 241.144 77.141 239.944C77.141 238.728 77.541 237.832 78.357 237.832C79.141 237.832 79.573 238.744 79.573 239.944C79.573 241.16 79.189 242.024 78.357 242.024Z" fill="#131313"/>
<path d="M971.303 82.36H974.343V85.56H976.071V82.36H979.111V80.744H976.071V77.544H974.343V80.744H971.303V82.36ZM983.029 87H985.141V75.512H983.493C983.237 77.128 981.957 77.752 980.389 77.8V79.208H983.029V87ZM991.893 87.272C994.837 87.272 996.645 84.936 996.645 81.304C996.645 77.624 994.789 75.352 991.909 75.352C989.077 75.352 987.173 77.656 987.173 81.304C987.173 84.936 989.029 87.272 991.893 87.272ZM991.909 85.544C990.149 85.544 989.349 83.864 989.349 81.304C989.349 78.728 990.149 77.048 991.909 77.048C993.685 77.048 994.469 78.744 994.469 81.304C994.469 83.896 993.717 85.544 991.909 85.544ZM997.815 87H1000.04V84.776H997.815V87ZM1005.66 87.256C1008.17 87.256 1010.01 85.688 1010.01 83.224C1010.01 80.776 1008.19 79.304 1006.19 79.304C1005.04 79.304 1004.28 79.656 1003.69 80.28H1003.66L1004.28 77.352H1009.31V75.608H1002.78L1001.56 81.832H1003.56C1003.95 81.352 1004.65 80.936 1005.68 80.936C1006.89 80.936 1007.87 81.784 1007.87 83.208C1007.87 84.584 1006.96 85.512 1005.6 85.512C1004.28 85.512 1003.53 84.84 1003.32 83.848H1001.24C1001.4 85.864 1003.16 87.256 1005.66 87.256ZM1013.77 81.976C1015.45 81.976 1016.62 80.68 1016.62 78.664C1016.62 76.616 1015.43 75.352 1013.77 75.352C1012.12 75.352 1010.9 76.648 1010.9 78.664C1010.9 80.68 1012.1 81.976 1013.77 81.976ZM1013.83 87H1015.18L1021.53 75.608H1020.17L1013.83 87ZM1021.58 87.272C1023.27 87.272 1024.46 85.96 1024.46 83.944C1024.46 81.912 1023.26 80.632 1021.58 80.632C1019.94 80.632 1018.71 81.928 1018.71 83.944C1018.71 85.96 1019.91 87.272 1021.58 87.272ZM1013.77 80.744C1012.95 80.744 1012.57 79.864 1012.57 78.664C1012.57 77.432 1012.95 76.552 1013.77 76.552C1014.58 76.552 1015 77.464 1015 78.664C1015 79.88 1014.6 80.744 1013.77 80.744ZM1021.59 86.024C1020.78 86.024 1020.38 85.144 1020.38 83.944C1020.38 82.728 1020.78 81.832 1021.59 81.832C1022.38 81.832 1022.81 82.744 1022.81 83.944C1022.81 85.16 1022.42 86.024 1021.59 86.024Z" fill="#004FED"/>
<path d="M234 83.64H242V81.896H234V83.64ZM243.423 87H245.647C245.823 82.776 247.871 79.288 250.047 77.256V75.608H241.839V77.416H245.551C246.799 77.416 247.983 77.336 247.983 77.336V77.368C245.775 79.24 243.631 82.936 243.423 87ZM250.159 87H252.383V84.776H250.159V87ZM258.174 87.272C260.558 87.272 262.382 85.56 262.366 83.272C262.35 81.016 260.59 79.336 258.446 79.336C257.134 79.336 256.19 79.88 255.502 80.936H255.47C255.566 78.36 256.382 76.936 258.19 76.936C259.31 76.936 259.87 77.64 259.998 78.296H262.046C261.774 76.744 260.494 75.352 258.158 75.352C256.606 75.352 255.502 75.896 254.702 76.888C253.854 77.96 253.454 79.496 253.47 81.304C253.47 83.336 253.886 84.856 254.894 85.928C255.646 86.76 256.734 87.272 258.174 87.272ZM258.11 85.656C256.75 85.656 255.694 84.68 255.694 83.304C255.694 81.912 256.67 80.968 258.094 80.968C259.39 80.968 260.382 81.928 260.382 83.32C260.382 84.68 259.406 85.656 258.11 85.656ZM266.392 81.976C268.072 81.976 269.24 80.68 269.24 78.664C269.24 76.616 268.056 75.352 266.392 75.352C264.744 75.352 263.528 76.648 263.528 78.664C263.528 80.68 264.728 81.976 266.392 81.976ZM266.456 87H267.8L274.152 75.608H272.792L266.456 87ZM274.2 87.272C275.896 87.272 277.08 85.96 277.08 83.944C277.08 81.912 275.88 80.632 274.2 80.632C272.568 80.632 271.336 81.928 271.336 83.944C271.336 85.96 272.536 87.272 274.2 87.272ZM266.392 80.744C265.576 80.744 265.192 79.864 265.192 78.664C265.192 77.432 265.576 76.552 266.392 76.552C267.208 76.552 267.624 77.464 267.624 78.664C267.624 79.88 267.224 80.744 266.392 80.744ZM274.216 86.024C273.4 86.024 273 85.144 273 83.944C273 82.728 273.4 81.832 274.216 81.832C275 81.832 275.432 82.744 275.432 83.944C275.432 85.16 275.048 86.024 274.216 86.024Z" fill="#131313"/>
<path d="M582.648 295.272C585.288 295.272 587.272 293.944 587.272 291.576C587.272 289 585.24 288.344 583.032 287.864C581.192 287.48 580.04 287.192 580.04 286.088C580.04 285.144 580.92 284.584 582.248 284.584C583.656 284.584 584.536 285.24 584.712 286.408H586.872C586.648 284.216 585.048 282.888 582.28 282.888C579.736 282.888 577.88 284.024 577.88 286.28C577.88 288.664 579.736 289.256 581.96 289.752C583.848 290.184 585.032 290.472 585.032 291.752C585.032 292.936 583.96 293.496 582.664 293.496C580.84 293.496 579.832 292.728 579.672 291.192H577.448C577.544 293.624 579.384 295.272 582.648 295.272ZM588.802 285.064H590.882V283.096H588.802V285.064ZM588.834 295H590.866V286.456H588.834V295ZM596.133 295.272C598.245 295.272 599.781 294.328 599.781 292.536C599.781 290.456 598.181 290.072 596.565 289.768C595.269 289.528 594.389 289.384 594.389 288.632C594.389 288.04 594.885 287.608 595.829 287.608C596.837 287.608 597.381 288.008 597.525 288.744H599.461C599.253 287.256 598.117 286.232 595.845 286.232C593.845 286.232 592.469 287.16 592.469 288.776C592.469 290.712 593.989 291.08 595.589 291.4C596.933 291.656 597.797 291.816 597.797 292.664C597.797 293.352 597.269 293.832 596.149 293.832C595.061 293.832 594.277 293.4 594.117 292.376H592.165C592.293 294.104 593.701 295.272 596.133 295.272ZM600.463 287.848H601.775V293.08C601.775 294.584 602.719 295.08 604.095 295.08C604.639 295.08 605.103 295.016 605.439 294.952V293.368H605.343C605.183 293.4 604.895 293.432 604.687 293.432C604.111 293.432 603.775 293.256 603.775 292.632V287.848H605.487V286.456H603.775V283.736H601.775V286.456H600.463V287.848ZM610.832 295.256C612.928 295.256 614.304 294.12 614.72 292.584H612.736C612.464 293.288 611.824 293.704 610.848 293.704C609.424 293.704 608.64 292.712 608.496 291.24H614.88C614.896 289.656 614.496 288.312 613.664 287.432C612.944 286.664 611.968 286.232 610.72 286.232C608.192 286.232 606.48 288.2 606.48 290.744C606.48 293.272 608.112 295.256 610.832 295.256ZM610.72 287.704C611.952 287.704 612.704 288.552 612.784 289.96H608.528C608.704 288.616 609.392 287.704 610.72 287.704ZM616.303 295H618.335V289.944C618.335 288.744 619.167 287.912 620.111 287.912C620.959 287.912 621.455 288.504 621.455 289.48V295H623.487V289.944C623.487 288.744 624.223 287.912 625.215 287.912C626.047 287.912 626.607 288.504 626.607 289.48V295H628.639V289.208C628.639 287.368 627.615 286.232 625.871 286.232C624.815 286.232 623.855 286.728 623.183 287.832H623.151C622.767 286.776 621.951 286.232 620.879 286.232C619.711 286.232 618.863 286.792 618.319 287.752H618.271V286.456H616.303V295ZM635.964 295H637.932V294.856C637.74 294.728 637.612 294.36 637.612 293.656V289.16C637.612 288.024 637.196 287.208 636.396 286.728C635.836 286.376 635.084 286.232 634.108 286.232C631.676 286.232 630.524 287.56 630.46 289.016H632.38C632.428 288.168 632.988 287.64 634.124 287.64C635.148 287.64 635.66 288.136 635.66 288.872C635.66 289.64 634.956 289.864 633.548 290.04C631.516 290.28 630.044 290.744 630.044 292.68C630.044 294.344 631.292 295.208 632.956 295.208C634.316 295.208 635.084 294.648 635.644 293.896H635.676C635.708 294.472 635.82 294.808 635.964 295ZM633.548 293.816C632.764 293.816 632.076 293.544 632.076 292.632C632.076 291.688 632.796 291.432 634.044 291.192C634.668 291.064 635.308 290.888 635.708 290.632V291.896C635.708 292.856 634.94 293.816 633.548 293.816ZM643.537 295H645.569V289.944C645.569 288.744 646.401 287.912 647.345 287.912C648.193 287.912 648.689 288.504 648.689 289.48V295H650.721V289.944C650.721 288.744 651.457 287.912 652.449 287.912C653.281 287.912 653.841 288.504 653.841 289.48V295H655.873V289.208C655.873 287.368 654.849 286.232 653.105 286.232C652.049 286.232 651.089 286.728 650.417 287.832H650.385C650.001 286.776 649.185 286.232 648.113 286.232C646.945 286.232 646.097 286.792 645.553 287.752H645.505V286.456H643.537V295ZM661.598 295.256C664.254 295.256 665.934 293.272 665.934 290.744C665.934 288.2 664.254 286.232 661.598 286.232C658.942 286.232 657.23 288.2 657.23 290.744C657.23 293.272 658.942 295.256 661.598 295.256ZM661.582 293.72C660.078 293.72 659.294 292.456 659.294 290.744C659.294 289.016 660.078 287.736 661.582 287.736C663.07 287.736 663.87 289.016 663.87 290.744C663.87 292.456 663.07 293.72 661.582 293.72ZM670.646 295.272C671.814 295.272 672.742 294.744 673.27 293.752H673.302V295H675.27V283.096H673.238V285.912C673.238 286.552 673.27 287.224 673.302 287.688H673.27C672.71 286.792 671.83 286.232 670.646 286.232C668.47 286.232 666.934 288.024 666.934 290.744C666.934 293.528 668.39 295.272 670.646 295.272ZM671.062 293.608C669.686 293.608 668.998 292.44 668.998 290.728C668.998 289.048 669.686 287.816 671.062 287.816C672.566 287.816 673.318 289.032 673.318 290.744C673.318 292.424 672.566 293.608 671.062 293.608ZM682.667 295H684.635V294.856C684.443 294.728 684.315 294.36 684.315 293.656V289.16C684.315 288.024 683.899 287.208 683.099 286.728C682.539 286.376 681.787 286.232 680.811 286.232C678.379 286.232 677.227 287.56 677.163 289.016H679.083C679.131 288.168 679.691 287.64 680.827 287.64C681.851 287.64 682.363 288.136 682.363 288.872C682.363 289.64 681.659 289.864 680.251 290.04C678.219 290.28 676.747 290.744 676.747 292.68C676.747 294.344 677.995 295.208 679.659 295.208C681.019 295.208 681.787 294.648 682.347 293.896H682.379C682.411 294.472 682.523 294.808 682.667 295ZM680.251 293.816C679.467 293.816 678.779 293.544 678.779 292.632C678.779 291.688 679.499 291.432 680.747 291.192C681.371 291.064 682.011 290.888 682.411 290.632V291.896C682.411 292.856 681.643 293.816 680.251 293.816Z" fill="#131313"/>
<path d="M577.224 35H579.464L580.424 32.168H584.936L585.88 35H588.248L583.912 23.096H581.544L577.224 35ZM581.912 27.784C582.296 26.648 582.696 24.92 582.696 24.92H582.728C582.728 24.92 583.016 26.376 583.48 27.784L584.392 30.536H580.968L581.912 27.784ZM589.444 35H591.492V23.096H589.444V35ZM593.334 25.064H595.414V23.096H593.334V25.064ZM593.366 35H595.398V26.456H593.366V35ZM597.241 35H599.273V29.944C599.273 28.744 600.105 27.912 601.049 27.912C601.897 27.912 602.393 28.504 602.393 29.48V35H604.425V29.944C604.425 28.744 605.161 27.912 606.153 27.912C606.985 27.912 607.545 28.504 607.545 29.48V35H609.577V29.208C609.577 27.368 608.553 26.232 606.809 26.232C605.753 26.232 604.793 26.728 604.121 27.832H604.089C603.705 26.776 602.889 26.232 601.817 26.232C600.649 26.232 599.801 26.792 599.257 27.752H599.209V26.456H597.241V35ZM615.286 35.256C617.382 35.256 618.758 34.12 619.174 32.584H617.19C616.918 33.288 616.278 33.704 615.302 33.704C613.878 33.704 613.094 32.712 612.95 31.24H619.334C619.35 29.656 618.95 28.312 618.118 27.432C617.398 26.664 616.422 26.232 615.174 26.232C612.646 26.232 610.934 28.2 610.934 30.744C610.934 33.272 612.566 35.256 615.286 35.256ZM615.174 27.704C616.406 27.704 617.158 28.552 617.238 29.96H612.982C613.158 28.616 613.846 27.704 615.174 27.704ZM622.74 26.456H620.756V35H622.788V29.992C622.788 28.776 623.588 27.912 624.724 27.912C625.764 27.912 626.356 28.536 626.356 29.544V35H628.388V29.208C628.388 27.368 627.284 26.232 625.444 26.232C624.244 26.232 623.348 26.76 622.788 27.704H622.74V26.456ZM629.51 27.848H630.822V33.08C630.822 34.584 631.766 35.08 633.142 35.08C633.686 35.08 634.15 35.016 634.486 34.952V33.368H634.39C634.23 33.4 633.942 33.432 633.734 33.432C633.158 33.432 632.822 33.256 632.822 32.632V27.848H634.534V26.456H632.822V23.736H630.822V26.456H629.51V27.848ZM641.573 35H643.541V34.856C643.349 34.728 643.221 34.36 643.221 33.656V29.16C643.221 28.024 642.805 27.208 642.005 26.728C641.445 26.376 640.693 26.232 639.717 26.232C637.285 26.232 636.133 27.56 636.069 29.016H637.989C638.037 28.168 638.597 27.64 639.733 27.64C640.757 27.64 641.269 28.136 641.269 28.872C641.269 29.64 640.565 29.864 639.157 30.04C637.125 30.28 635.653 30.744 635.653 32.68C635.653 34.344 636.901 35.208 638.565 35.208C639.925 35.208 640.693 34.648 641.253 33.896H641.285C641.317 34.472 641.429 34.808 641.573 35ZM639.157 33.816C638.373 33.816 637.685 33.544 637.685 32.632C637.685 31.688 638.405 31.432 639.653 31.192C640.277 31.064 640.917 30.888 641.317 30.632V31.896C641.317 32.856 640.549 33.816 639.157 33.816ZM647.068 26.456H645.1V35H647.132V30.712C647.132 29.064 648.14 28.152 649.484 28.168C649.692 28.168 649.852 28.184 650.044 28.232H650.108V26.408C649.964 26.344 649.804 26.328 649.564 26.328C648.476 26.328 647.66 26.888 647.116 27.992H647.068V26.456ZM655.129 35.256C657.225 35.256 658.601 34.12 659.017 32.584H657.033C656.761 33.288 656.121 33.704 655.145 33.704C653.721 33.704 652.937 32.712 652.793 31.24H659.177C659.193 29.656 658.793 28.312 657.961 27.432C657.241 26.664 656.265 26.232 655.017 26.232C652.489 26.232 650.777 28.2 650.777 30.744C650.777 33.272 652.409 35.256 655.129 35.256ZM655.017 27.704C656.249 27.704 657.001 28.552 657.081 29.96H652.825C653.001 28.616 653.689 27.704 655.017 27.704ZM659.258 37.144H661.178L666.73 22.456H664.81L659.258 37.144ZM672.412 35.272C674.684 35.272 676.092 33.528 676.092 30.744C676.092 28.024 674.62 26.232 672.428 26.232C671.212 26.232 670.348 26.824 669.788 27.72H669.74C669.772 27.272 669.804 26.584 669.804 25.912V23.096H667.772V35H669.74V33.768H669.788C670.3 34.776 671.276 35.272 672.412 35.272ZM671.98 33.608C670.508 33.608 669.724 32.408 669.724 30.744C669.724 29.112 670.428 27.816 671.98 27.816C673.34 27.816 674.028 29.048 674.028 30.728C674.028 32.44 673.34 33.608 671.98 33.608ZM681.426 35.256C683.522 35.256 684.898 34.12 685.314 32.584H683.33C683.058 33.288 682.418 33.704 681.442 33.704C680.018 33.704 679.234 32.712 679.09 31.24H685.474C685.49 29.656 685.09 28.312 684.258 27.432C683.538 26.664 682.562 26.232 681.314 26.232C678.786 26.232 677.074 28.2 677.074 30.744C677.074 33.272 678.706 35.256 681.426 35.256ZM681.314 27.704C682.546 27.704 683.298 28.552 683.378 29.96H679.122C679.298 28.616 679.986 27.704 681.314 27.704ZM688.774 35H690.998L694.022 26.456H691.958L690.662 30.44C690.294 31.592 689.958 33.304 689.958 33.304H689.91C689.91 33.304 689.558 31.592 689.19 30.44L687.942 26.456H685.814L688.774 35ZM700.261 35H702.229V34.856C702.037 34.728 701.909 34.36 701.909 33.656V29.16C701.909 28.024 701.493 27.208 700.693 26.728C700.133 26.376 699.381 26.232 698.405 26.232C695.973 26.232 694.821 27.56 694.757 29.016H696.677C696.725 28.168 697.285 27.64 698.421 27.64C699.445 27.64 699.957 28.136 699.957 28.872C699.957 29.64 699.253 29.864 697.845 30.04C695.813 30.28 694.341 30.744 694.341 32.68C694.341 34.344 695.589 35.208 697.253 35.208C698.613 35.208 699.381 34.648 699.941 33.896H699.973C700.005 34.472 700.117 34.808 700.261 35ZM697.845 33.816C697.061 33.816 696.373 33.544 696.373 32.632C696.373 31.688 697.093 31.432 698.341 31.192C698.965 31.064 699.605 30.888 700.005 30.632V31.896C700.005 32.856 699.237 33.816 697.845 33.816ZM705.771 26.456H703.787V35H705.819V29.992C705.819 28.776 706.619 27.912 707.755 27.912C708.795 27.912 709.387 28.536 709.387 29.544V35H711.419V29.208C711.419 27.368 710.315 26.232 708.475 26.232C707.275 26.232 706.379 26.76 705.819 27.704H705.771V26.456ZM716.489 35.272C717.657 35.272 718.585 34.744 719.113 33.752H719.145V35H721.113V23.096H719.081V25.912C719.081 26.552 719.113 27.224 719.145 27.688H719.113C718.553 26.792 717.673 26.232 716.489 26.232C714.313 26.232 712.777 28.024 712.777 30.744C712.777 33.528 714.233 35.272 716.489 35.272ZM716.905 33.608C715.529 33.608 714.841 32.44 714.841 30.728C714.841 29.048 715.529 27.816 716.905 27.816C718.409 27.816 719.161 29.032 719.161 30.744C719.161 32.424 718.409 33.608 716.905 33.608ZM726.895 35.256C728.991 35.256 730.367 34.12 730.783 32.584H728.799C728.527 33.288 727.887 33.704 726.911 33.704C725.487 33.704 724.703 32.712 724.559 31.24H730.943C730.959 29.656 730.559 28.312 729.727 27.432C729.007 26.664 728.031 26.232 726.783 26.232C724.255 26.232 722.543 28.2 722.543 30.744C722.543 33.272 724.175 35.256 726.895 35.256ZM726.783 27.704C728.015 27.704 728.767 28.552 728.847 29.96H724.591C724.767 28.616 725.455 27.704 726.783 27.704Z" fill="#131313"/>
<path d="M577.464 129H581.176V139H583.4V129H587.128V127.096H577.464V129ZM590.598 139.256C593.254 139.256 594.934 137.272 594.934 134.744C594.934 132.2 593.254 130.232 590.598 130.232C587.942 130.232 586.23 132.2 586.23 134.744C586.23 137.272 587.942 139.256 590.598 139.256ZM590.582 137.72C589.078 137.72 588.294 136.456 588.294 134.744C588.294 133.016 589.078 131.736 590.582 131.736C592.07 131.736 592.87 133.016 592.87 134.744C592.87 136.456 592.07 137.72 590.582 137.72ZM595.697 131.848H597.009V137.08C597.009 138.584 597.953 139.08 599.329 139.08C599.873 139.08 600.337 139.016 600.673 138.952V137.368H600.577C600.417 137.4 600.129 137.432 599.921 137.432C599.345 137.432 599.009 137.256 599.009 136.632V131.848H600.721V130.456H599.009V127.736H597.009V130.456H595.697V131.848ZM607.761 139H609.729V138.856C609.537 138.728 609.409 138.36 609.409 137.656V133.16C609.409 132.024 608.993 131.208 608.193 130.728C607.633 130.376 606.881 130.232 605.905 130.232C603.473 130.232 602.321 131.56 602.257 133.016H604.177C604.225 132.168 604.785 131.64 605.921 131.64C606.945 131.64 607.457 132.136 607.457 132.872C607.457 133.64 606.753 133.864 605.345 134.04C603.313 134.28 601.841 134.744 601.841 136.68C601.841 138.344 603.089 139.208 604.753 139.208C606.113 139.208 606.881 138.648 607.441 137.896H607.473C607.505 138.472 607.617 138.808 607.761 139ZM605.345 137.816C604.561 137.816 603.873 137.544 603.873 136.632C603.873 135.688 604.593 135.432 605.841 135.192C606.465 135.064 607.105 134.888 607.505 134.632V135.896C607.505 136.856 606.737 137.816 605.345 137.816ZM611.319 139H613.367V127.096H611.319V139ZM619.161 139.256C621.257 139.256 622.633 138.12 623.049 136.584H621.065C620.793 137.288 620.153 137.704 619.177 137.704C617.753 137.704 616.969 136.712 616.825 135.24H623.209C623.225 133.656 622.825 132.312 621.993 131.432C621.273 130.664 620.297 130.232 619.049 130.232C616.521 130.232 614.809 132.2 614.809 134.744C614.809 137.272 616.441 139.256 619.161 139.256ZM619.049 131.704C620.281 131.704 621.033 132.552 621.113 133.96H616.857C617.033 132.616 617.721 131.704 619.049 131.704ZM631.958 139.272C633.126 139.272 634.054 138.744 634.582 137.752H634.614V139H636.582V127.096H634.55V129.912C634.55 130.552 634.582 131.224 634.614 131.688H634.582C634.022 130.792 633.142 130.232 631.958 130.232C629.782 130.232 628.246 132.024 628.246 134.744C628.246 137.528 629.702 139.272 631.958 139.272ZM632.374 137.608C630.998 137.608 630.31 136.44 630.31 134.728C630.31 133.048 630.998 131.816 632.374 131.816C633.878 131.816 634.63 133.032 634.63 134.744C634.63 136.424 633.878 137.608 632.374 137.608ZM638.412 129.064H640.492V127.096H638.412V129.064ZM638.444 139H640.476V130.456H638.444V139ZM645.743 139.272C647.855 139.272 649.391 138.328 649.391 136.536C649.391 134.456 647.791 134.072 646.175 133.768C644.879 133.528 643.999 133.384 643.999 132.632C643.999 132.04 644.495 131.608 645.439 131.608C646.447 131.608 646.991 132.008 647.135 132.744H649.071C648.863 131.256 647.727 130.232 645.455 130.232C643.455 130.232 642.079 131.16 642.079 132.776C642.079 134.712 643.599 135.08 645.199 135.4C646.543 135.656 647.407 135.816 647.407 136.664C647.407 137.352 646.879 137.832 645.759 137.832C644.671 137.832 643.887 137.4 643.727 136.376H641.775C641.903 138.104 643.311 139.272 645.743 139.272ZM650.072 131.848H651.384V137.08C651.384 138.584 652.328 139.08 653.704 139.08C654.248 139.08 654.712 139.016 655.048 138.952V137.368H654.952C654.792 137.4 654.504 137.432 654.296 137.432C653.72 137.432 653.384 137.256 653.384 136.632V131.848H655.096V130.456H653.384V127.736H651.384V130.456H650.072V131.848ZM658.49 130.456H656.522V139H658.554V134.712C658.554 133.064 659.562 132.152 660.906 132.168C661.114 132.168 661.274 132.184 661.466 132.232H661.53V130.408C661.386 130.344 661.226 130.328 660.986 130.328C659.898 130.328 659.082 130.888 658.538 131.992H658.49V130.456ZM666.551 139.256C668.647 139.256 670.023 138.12 670.439 136.584H668.455C668.183 137.288 667.543 137.704 666.567 137.704C665.143 137.704 664.359 136.712 664.215 135.24H670.599C670.615 133.656 670.215 132.312 669.383 131.432C668.663 130.664 667.687 130.232 666.439 130.232C663.911 130.232 662.199 132.2 662.199 134.744C662.199 137.272 663.831 139.256 666.551 139.256ZM666.439 131.704C667.671 131.704 668.423 132.552 668.503 133.96H664.247C664.423 132.616 665.111 131.704 666.439 131.704ZM671.354 131.848H672.666V137.08C672.666 138.584 673.61 139.08 674.986 139.08C675.53 139.08 675.994 139.016 676.33 138.952V137.368H676.234C676.074 137.4 675.786 137.432 675.578 137.432C675.002 137.432 674.666 137.256 674.666 136.632V131.848H676.378V130.456H674.666V127.736H672.666V130.456H671.354V131.848ZM677.135 131.848H678.447V137.08C678.447 138.584 679.391 139.08 680.767 139.08C681.311 139.08 681.775 139.016 682.111 138.952V137.368H682.015C681.855 137.4 681.567 137.432 681.359 137.432C680.783 137.432 680.447 137.256 680.447 136.632V131.848H682.159V130.456H680.447V127.736H678.447V130.456H677.135V131.848ZM683.552 129.064H685.632V127.096H683.552V129.064ZM683.584 139H685.616V130.456H683.584V139Z" fill="#131313"/>
<path d="M578.12 191H580.104V184.792C580.104 183.496 579.96 181.08 579.96 181.08H579.992C579.992 181.08 580.488 183.272 580.872 184.456L583.144 191H584.936L587.192 184.456C587.576 183.272 588.072 181.08 588.072 181.08H588.104C588.104 181.08 587.96 183.496 587.96 184.792V191H590.024V179.096H587.032L585.112 184.76C584.664 186.168 584.088 188.76 584.088 188.76H584.04C584.04 188.76 583.464 186.152 583 184.76L581.048 179.096H578.12V191ZM595.973 191.256C598.069 191.256 599.445 190.12 599.861 188.584H597.877C597.605 189.288 596.965 189.704 595.989 189.704C594.565 189.704 593.781 188.712 593.637 187.24H600.021C600.037 185.656 599.637 184.312 598.805 183.432C598.085 182.664 597.109 182.232 595.861 182.232C593.333 182.232 591.621 184.2 591.621 186.744C591.621 189.272 593.253 191.256 595.973 191.256ZM595.861 183.704C597.093 183.704 597.845 184.552 597.925 185.96H593.669C593.845 184.616 594.533 183.704 595.861 183.704ZM605.348 191.256C607.636 191.256 609.092 189.88 609.22 187.896H607.236C607.124 189.016 606.452 189.672 605.332 189.672C603.844 189.672 603.076 188.424 603.076 186.744C603.076 185.016 603.844 183.784 605.332 183.784C606.356 183.784 606.996 184.376 607.188 185.304H609.172C608.868 183.464 607.492 182.232 605.316 182.232C602.692 182.232 601.012 184.2 601.012 186.744C601.012 189.272 602.708 191.256 605.348 191.256ZM614.457 191.256C616.745 191.256 618.201 189.88 618.329 187.896H616.345C616.233 189.016 615.561 189.672 614.441 189.672C612.953 189.672 612.185 188.424 612.185 186.744C612.185 185.016 612.953 183.784 614.441 183.784C615.465 183.784 616.105 184.376 616.297 185.304H618.281C617.977 183.464 616.601 182.232 614.425 182.232C611.801 182.232 610.121 184.2 610.121 186.744C610.121 189.272 611.817 191.256 614.457 191.256ZM625.355 191H627.323V190.856C627.131 190.728 627.003 190.36 627.003 189.656V185.16C627.003 184.024 626.587 183.208 625.787 182.728C625.227 182.376 624.475 182.232 623.499 182.232C621.067 182.232 619.915 183.56 619.851 185.016H621.771C621.819 184.168 622.379 183.64 623.515 183.64C624.539 183.64 625.051 184.136 625.051 184.872C625.051 185.64 624.347 185.864 622.939 186.04C620.907 186.28 619.435 186.744 619.435 188.68C619.435 190.344 620.683 191.208 622.347 191.208C623.707 191.208 624.475 190.648 625.035 189.896H625.067C625.099 190.472 625.211 190.808 625.355 191ZM622.939 189.816C622.155 189.816 621.467 189.544 621.467 188.632C621.467 187.688 622.187 187.432 623.435 187.192C624.059 187.064 624.699 186.888 625.099 186.632V187.896C625.099 188.856 624.331 189.816 622.939 189.816ZM630.865 182.456H628.881V191H630.913V185.992C630.913 184.776 631.713 183.912 632.849 183.912C633.889 183.912 634.481 184.536 634.481 185.544V191H636.513V185.208C636.513 183.368 635.409 182.232 633.569 182.232C632.369 182.232 631.473 182.76 630.913 183.704H630.865V182.456ZM638.271 181.064H640.351V179.096H638.271V181.064ZM638.303 191H640.335V182.456H638.303V191ZM646.082 191.256C648.37 191.256 649.826 189.88 649.954 187.896H647.97C647.858 189.016 647.186 189.672 646.066 189.672C644.578 189.672 643.81 188.424 643.81 186.744C643.81 185.016 644.578 183.784 646.066 183.784C647.09 183.784 647.73 184.376 647.922 185.304H649.906C649.602 183.464 648.226 182.232 646.05 182.232C643.426 182.232 641.746 184.2 641.746 186.744C641.746 189.272 643.442 191.256 646.082 191.256ZM656.98 191H658.948V190.856C658.756 190.728 658.628 190.36 658.628 189.656V185.16C658.628 184.024 658.212 183.208 657.412 182.728C656.852 182.376 656.1 182.232 655.124 182.232C652.692 182.232 651.54 183.56 651.476 185.016H653.396C653.444 184.168 654.004 183.64 655.14 183.64C656.164 183.64 656.676 184.136 656.676 184.872C656.676 185.64 655.972 185.864 654.564 186.04C652.532 186.28 651.06 186.744 651.06 188.68C651.06 190.344 652.308 191.208 653.972 191.208C655.332 191.208 656.1 190.648 656.66 189.896H656.692C656.724 190.472 656.836 190.808 656.98 191ZM654.564 189.816C653.78 189.816 653.092 189.544 653.092 188.632C653.092 187.688 653.812 187.432 655.06 187.192C655.684 187.064 656.324 186.888 656.724 186.632V187.896C656.724 188.856 655.956 189.816 654.564 189.816Z" fill="#131313"/>
<path d="M578.12 243H580.36V238.52H583.368C585.88 238.52 587.304 237.064 587.304 234.824C587.304 233.768 586.936 232.904 586.296 232.216C585.64 231.496 584.616 231.096 583.272 231.096H578.12V243ZM580.36 233H583.048C584.344 233 585.08 233.656 585.08 234.856C585.08 236.008 584.376 236.744 583.016 236.744H580.36V233ZM590.584 234.456H588.616V243H590.648V238.712C590.648 237.064 591.656 236.152 593 236.168C593.208 236.168 593.368 236.184 593.56 236.232H593.624V234.408C593.48 234.344 593.32 234.328 593.08 234.328C591.992 234.328 591.176 234.888 590.632 235.992H590.584V234.456ZM598.661 243.256C601.317 243.256 602.997 241.272 602.997 238.744C602.997 236.2 601.317 234.232 598.661 234.232C596.005 234.232 594.293 236.2 594.293 238.744C594.293 241.272 596.005 243.256 598.661 243.256ZM598.645 241.72C597.141 241.72 596.357 240.456 596.357 238.744C596.357 237.016 597.141 235.736 598.645 235.736C600.133 235.736 600.933 237.016 600.933 238.744C600.933 240.456 600.133 241.72 598.645 241.72ZM607.708 243.272C608.876 243.272 609.804 242.744 610.332 241.752H610.364V243H612.332V231.096H610.3V233.912C610.3 234.552 610.332 235.224 610.364 235.688H610.332C609.772 234.792 608.892 234.232 607.708 234.232C605.532 234.232 603.996 236.024 603.996 238.744C603.996 241.528 605.452 243.272 607.708 243.272ZM608.124 241.608C606.748 241.608 606.06 240.44 606.06 238.728C606.06 237.048 606.748 235.816 608.124 235.816C609.628 235.816 610.38 237.032 610.38 238.744C610.38 240.424 609.628 241.608 608.124 241.608ZM618.13 243.256C620.786 243.256 622.466 241.272 622.466 238.744C622.466 236.2 620.786 234.232 618.13 234.232C615.474 234.232 613.762 236.2 613.762 238.744C613.762 241.272 615.474 243.256 618.13 243.256ZM618.114 241.72C616.61 241.72 615.826 240.456 615.826 238.744C615.826 237.016 616.61 235.736 618.114 235.736C619.602 235.736 620.402 237.016 620.402 238.744C620.402 240.456 619.602 241.72 618.114 241.72ZM623.229 235.848H624.541V241.08C624.541 242.584 625.485 243.08 626.861 243.08C627.405 243.08 627.869 243.016 628.205 242.952V241.368H628.109C627.949 241.4 627.661 241.432 627.453 241.432C626.877 241.432 626.541 241.256 626.541 240.632V235.848H628.253V234.456H626.541V231.736H624.541V234.456H623.229V235.848ZM629.01 235.848H630.322V241.08C630.322 242.584 631.266 243.08 632.642 243.08C633.186 243.08 633.65 243.016 633.986 242.952V241.368H633.89C633.73 241.4 633.442 241.432 633.234 241.432C632.658 241.432 632.322 241.256 632.322 240.632V235.848H634.034V234.456H632.322V231.736H630.322V234.456H629.01V235.848ZM635.427 233.064H637.507V231.096H635.427V233.064ZM635.459 243H637.491V234.456H635.459V243ZM643.349 233.064H645.429V231.096H643.349V233.064ZM643.381 243H645.413V234.456H643.381V243ZM649.24 234.456H647.256V243H649.288V237.992C649.288 236.776 650.088 235.912 651.224 235.912C652.264 235.912 652.856 236.536 652.856 237.544V243H654.888V237.208C654.888 235.368 653.784 234.232 651.944 234.232C650.744 234.232 649.848 234.76 649.288 235.704H649.24V234.456ZM660.725 243H662.757V237.944C662.757 236.744 663.589 235.912 664.533 235.912C665.381 235.912 665.877 236.504 665.877 237.48V243H667.909V237.944C667.909 236.744 668.645 235.912 669.637 235.912C670.469 235.912 671.029 236.504 671.029 237.48V243H673.061V237.208C673.061 235.368 672.037 234.232 670.293 234.232C669.237 234.232 668.277 234.728 667.605 235.832H667.573C667.189 234.776 666.373 234.232 665.301 234.232C664.133 234.232 663.285 234.792 662.741 235.752H662.693V234.456H660.725V243ZM678.77 243.256C680.866 243.256 682.242 242.12 682.658 240.584H680.674C680.402 241.288 679.762 241.704 678.786 241.704C677.362 241.704 676.578 240.712 676.434 239.24H682.818C682.834 237.656 682.434 236.312 681.602 235.432C680.882 234.664 679.906 234.232 678.658 234.232C676.13 234.232 674.418 236.2 674.418 238.744C674.418 241.272 676.05 243.256 678.77 243.256ZM678.658 235.704C679.89 235.704 680.642 236.552 680.722 237.96H676.466C676.642 236.616 677.33 235.704 678.658 235.704ZM683.572 235.848H684.884V241.08C684.884 242.584 685.828 243.08 687.204 243.08C687.748 243.08 688.212 243.016 688.548 242.952V241.368H688.452C688.292 241.4 688.004 241.432 687.796 241.432C687.22 241.432 686.884 241.256 686.884 240.632V235.848H688.596V234.456H686.884V231.736H684.884V234.456H683.572V235.848ZM695.636 243H697.604V242.856C697.412 242.728 697.284 242.36 697.284 241.656V237.16C697.284 236.024 696.868 235.208 696.068 234.728C695.508 234.376 694.756 234.232 693.78 234.232C691.348 234.232 690.196 235.56 690.132 237.016H692.052C692.1 236.168 692.66 235.64 693.796 235.64C694.82 235.64 695.332 236.136 695.332 236.872C695.332 237.64 694.628 237.864 693.22 238.04C691.188 238.28 689.716 238.744 689.716 240.68C689.716 242.344 690.964 243.208 692.628 243.208C693.988 243.208 694.756 242.648 695.316 241.896H695.348C695.38 242.472 695.492 242.808 695.636 243ZM693.22 241.816C692.436 241.816 691.748 241.544 691.748 240.632C691.748 239.688 692.468 239.432 693.716 239.192C694.34 239.064 694.98 238.888 695.38 238.632V239.896C695.38 240.856 694.612 241.816 693.22 241.816ZM699.194 243H701.242V231.096H699.194V243ZM703.148 243H705.196V231.096H703.148V243ZM711.005 243.256C713.661 243.256 715.341 241.272 715.341 238.744C715.341 236.2 713.661 234.232 711.005 234.232C708.349 234.232 706.637 236.2 706.637 238.744C706.637 241.272 708.349 243.256 711.005 243.256ZM710.989 241.72C709.485 241.72 708.701 240.456 708.701 238.744C708.701 237.016 709.485 235.736 710.989 235.736C712.477 235.736 713.277 237.016 713.277 238.744C713.277 240.456 712.477 241.72 710.989 241.72Z" fill="#131313"/>
<path d="M578.12 87H580.104V80.792C580.104 79.496 579.96 77.08 579.96 77.08H579.992C579.992 77.08 580.488 79.272 580.872 80.456L583.144 87H584.936L587.192 80.456C587.576 79.272 588.072 77.08 588.072 77.08H588.104C588.104 77.08 587.96 79.496 587.96 80.792V87H590.024V75.096H587.032L585.112 80.76C584.664 82.168 584.088 84.76 584.088 84.76H584.04C584.04 84.76 583.464 82.152 583 80.76L581.048 75.096H578.12V87ZM595.989 87.256C598.645 87.256 600.325 85.272 600.325 82.744C600.325 80.2 598.645 78.232 595.989 78.232C593.333 78.232 591.621 80.2 591.621 82.744C591.621 85.272 593.333 87.256 595.989 87.256ZM595.973 85.72C594.469 85.72 593.685 84.456 593.685 82.744C593.685 81.016 594.469 79.736 595.973 79.736C597.461 79.736 598.261 81.016 598.261 82.744C598.261 84.456 597.461 85.72 595.973 85.72ZM606.396 87.272C608.668 87.272 610.076 85.528 610.076 82.744C610.076 80.024 608.604 78.232 606.412 78.232C605.196 78.232 604.332 78.824 603.772 79.72H603.724C603.756 79.272 603.788 78.584 603.788 77.912V75.096H601.756V87H603.724V85.768H603.772C604.284 86.776 605.26 87.272 606.396 87.272ZM605.964 85.608C604.492 85.608 603.708 84.408 603.708 82.744C603.708 81.112 604.412 79.816 605.964 79.816C607.324 79.816 608.012 81.048 608.012 82.728C608.012 84.44 607.324 85.608 605.964 85.608ZM611.459 77.064H613.539V75.096H611.459V77.064ZM611.491 87H613.523V78.456H611.491V87ZM615.398 87H617.446V75.096H615.398V87ZM619.287 77.064H621.367V75.096H619.287V77.064ZM619.319 87H621.351V78.456H619.319V87Z" fill="#131313"/>
<path d="M1031.54 134.36H1034.58V137.56H1036.31V134.36H1039.35V132.744H1036.31V129.544H1034.58V132.744H1031.54V134.36ZM1043.26 139H1045.38V127.512H1043.73C1043.47 129.128 1042.19 129.752 1040.62 129.8V131.208H1043.26V139ZM1049.94 139H1052.05V127.512H1050.4C1050.14 129.128 1048.86 129.752 1047.3 129.8V131.208H1049.94V139ZM1054.16 139H1056.38V136.776H1054.16V139ZM1062.29 139.272C1064.76 139.272 1066.8 138.104 1066.8 135.704C1066.8 134.28 1065.94 133.192 1064.45 132.808V132.76C1065.65 132.36 1066.28 131.496 1066.28 130.392C1066.28 128.52 1064.64 127.352 1062.26 127.352C1059.89 127.352 1058.24 128.568 1058.24 130.424C1058.24 131.544 1058.87 132.392 1060.08 132.792V132.84C1058.63 133.256 1057.72 134.28 1057.72 135.752C1057.72 138.104 1059.83 139.272 1062.29 139.272ZM1062.26 132.136C1061 132.136 1060.24 131.512 1060.24 130.52C1060.24 129.528 1061 128.888 1062.26 128.888C1063.52 128.888 1064.26 129.528 1064.26 130.52C1064.26 131.512 1063.52 132.136 1062.26 132.136ZM1062.29 137.64C1060.77 137.64 1059.86 136.888 1059.86 135.656C1059.86 134.392 1060.77 133.592 1062.28 133.592C1063.78 133.592 1064.68 134.392 1064.68 135.656C1064.68 136.872 1063.75 137.64 1062.29 137.64ZM1070.77 133.976C1072.45 133.976 1073.62 132.68 1073.62 130.664C1073.62 128.616 1072.43 127.352 1070.77 127.352C1069.12 127.352 1067.9 128.648 1067.9 130.664C1067.9 132.68 1069.1 133.976 1070.77 133.976ZM1070.83 139H1072.18L1078.53 127.608H1077.17L1070.83 139ZM1078.58 139.272C1080.27 139.272 1081.46 137.96 1081.46 135.944C1081.46 133.912 1080.26 132.632 1078.58 132.632C1076.94 132.632 1075.71 133.928 1075.71 135.944C1075.71 137.96 1076.91 139.272 1078.58 139.272ZM1070.77 132.744C1069.95 132.744 1069.57 131.864 1069.57 130.664C1069.57 129.432 1069.95 128.552 1070.77 128.552C1071.58 128.552 1072 129.464 1072 130.664C1072 131.88 1071.6 132.744 1070.77 132.744ZM1078.59 138.024C1077.78 138.024 1077.38 137.144 1077.38 135.944C1077.38 134.728 1077.78 133.832 1078.59 133.832C1079.38 133.832 1079.81 134.744 1079.81 135.944C1079.81 137.16 1079.42 138.024 1078.59 138.024Z" fill="#004FED"/>
<path d="M30 135.64H38V133.896H30V135.64ZM40.1851 139H42.2971V127.512H40.6491C40.3931 129.128 39.1131 129.752 37.5451 129.8V131.208H40.1851V139ZM44.185 139H52.569V137.176H46.937V137.096C47.625 135.944 49.273 135.16 50.457 134.248C51.705 133.416 52.665 132.616 52.665 130.936C52.665 128.904 51.177 127.368 48.681 127.368C47.161 127.368 45.993 127.88 45.305 128.728C44.713 129.464 44.409 130.328 44.409 131.544H46.473C46.473 130.728 46.649 130.12 47.049 129.688C47.401 129.288 47.897 129.08 48.569 129.08C49.785 129.08 50.521 129.848 50.521 130.984C50.521 132.024 49.897 132.568 48.841 133.24C47.721 133.976 46.361 134.776 45.401 135.848C44.681 136.664 44.233 137.608 44.185 139ZM54.0653 139H56.2893V136.776H54.0653V139ZM57.6225 139H66.0065V137.176H60.3745V137.096C61.0625 135.944 62.7105 135.16 63.8945 134.248C65.1425 133.416 66.1025 132.616 66.1025 130.936C66.1025 128.904 64.6145 127.368 62.1185 127.368C60.5985 127.368 59.4305 127.88 58.7425 128.728C58.1505 129.464 57.8465 130.328 57.8465 131.544H59.9105C59.9105 130.728 60.0865 130.12 60.4865 129.688C60.8385 129.288 61.3345 129.08 62.0065 129.08C63.2225 129.08 63.9585 129.848 63.9585 130.984C63.9585 132.024 63.3345 132.568 62.2785 133.24C61.1585 133.976 59.7985 134.776 58.8385 135.848C58.1185 136.664 57.6705 137.608 57.6225 139ZM70.533 133.976C72.213 133.976 73.381 132.68 73.381 130.664C73.381 128.616 72.197 127.352 70.533 127.352C68.885 127.352 67.669 128.648 67.669 130.664C67.669 132.68 68.869 133.976 70.533 133.976ZM70.597 139H71.941L78.293 127.608H76.933L70.597 139ZM78.341 139.272C80.037 139.272 81.221 137.96 81.221 135.944C81.221 133.912 80.021 132.632 78.341 132.632C76.709 132.632 75.477 133.928 75.477 135.944C75.477 137.96 76.677 139.272 78.341 139.272ZM70.533 132.744C69.717 132.744 69.333 131.864 69.333 130.664C69.333 129.432 69.717 128.552 70.533 128.552C71.349 128.552 71.765 129.464 71.765 130.664C71.765 131.88 71.365 132.744 70.533 132.744ZM78.357 138.024C77.541 138.024 77.141 137.144 77.141 135.944C77.141 134.728 77.541 133.832 78.357 133.832C79.141 133.832 79.573 134.744 79.573 135.944C79.573 137.16 79.189 138.024 78.357 138.024Z" fill="#131313"/>
<path d="M1057.16 186.36H1060.2V189.56H1061.93V186.36H1064.97V184.744H1061.93V181.544H1060.2V184.744H1057.16V186.36ZM1068.89 191H1071V179.512H1069.35C1069.1 181.128 1067.82 181.752 1066.25 181.8V183.208H1068.89V191ZM1072.89 191H1081.27V189.176H1075.64V189.096C1076.33 187.944 1077.98 187.16 1079.16 186.248C1080.41 185.416 1081.37 184.616 1081.37 182.936C1081.37 180.904 1079.88 179.368 1077.38 179.368C1075.86 179.368 1074.7 179.88 1074.01 180.728C1073.42 181.464 1073.11 182.328 1073.11 183.544H1075.18C1075.18 182.728 1075.35 182.12 1075.75 181.688C1076.1 181.288 1076.6 181.08 1077.27 181.08C1078.49 181.08 1079.22 181.848 1079.22 182.984C1079.22 184.024 1078.6 184.568 1077.54 185.24C1076.42 185.976 1075.06 186.776 1074.1 187.848C1073.38 188.664 1072.94 189.608 1072.89 191ZM1082.77 191H1084.99V188.776H1082.77V191ZM1091.72 191H1093.77V188.328H1095.53V186.744H1093.77V179.48H1091.85L1086.3 186.456V188.328H1091.72V191ZM1087.8 186.824V186.792C1087.8 186.792 1088.62 185.928 1089.08 185.368L1090.72 183.304C1091.18 182.712 1091.77 181.768 1091.77 181.768H1091.8C1091.8 181.768 1091.72 182.84 1091.72 183.48V186.744H1089.47C1088.83 186.744 1087.8 186.824 1087.8 186.824ZM1098.77 185.976C1100.45 185.976 1101.62 184.68 1101.62 182.664C1101.62 180.616 1100.43 179.352 1098.77 179.352C1097.12 179.352 1095.9 180.648 1095.9 182.664C1095.9 184.68 1097.1 185.976 1098.77 185.976ZM1098.83 191H1100.18L1106.53 179.608H1105.17L1098.83 191ZM1106.58 191.272C1108.27 191.272 1109.46 189.96 1109.46 187.944C1109.46 185.912 1108.26 184.632 1106.58 184.632C1104.94 184.632 1103.71 185.928 1103.71 187.944C1103.71 189.96 1104.91 191.272 1106.58 191.272ZM1098.77 184.744C1097.95 184.744 1097.57 183.864 1097.57 182.664C1097.57 181.432 1097.95 180.552 1098.77 180.552C1099.58 180.552 1100 181.464 1100 182.664C1100 183.88 1099.6 184.744 1098.77 184.744ZM1106.59 190.024C1105.78 190.024 1105.38 189.144 1105.38 187.944C1105.38 186.728 1105.78 185.832 1106.59 185.832C1107.38 185.832 1107.81 186.744 1107.81 187.944C1107.81 189.16 1107.42 190.024 1106.59 190.024Z" fill="#004FED"/>
<path d="M42 187.64H50V185.896H42V187.64ZM52.1851 191H54.2971V179.512H52.6491C52.3931 181.128 51.1131 181.752 49.5451 181.8V183.208H52.1851V191ZM58.857 191H60.969V179.512H59.321C59.065 181.128 57.785 181.752 56.217 181.8V183.208H58.857V191ZM63.0809 191H65.3049V188.776H63.0809V191ZM70.9299 191.272C72.2579 191.272 73.2979 190.856 74.0339 190.088C75.0579 189.064 75.4739 187.384 75.4739 185.288C75.4739 182.936 75.0099 181.336 73.8259 180.36C73.0899 179.736 72.0819 179.352 70.8499 179.352C68.3699 179.352 66.5619 181.048 66.5619 183.32C66.5619 185.608 68.3379 187.272 70.5459 187.272C71.8099 187.272 72.7539 186.712 73.4579 185.8H73.4899C73.4259 187.208 73.1859 188.2 72.7059 188.808C72.2739 189.4 71.6819 189.672 70.8819 189.672C69.6659 189.672 69.0259 188.952 68.8819 188.232H66.8179C67.0259 189.912 68.5779 191.272 70.9299 191.272ZM70.8819 185.656C69.5219 185.656 68.5459 184.664 68.5459 183.304C68.5459 181.944 69.5059 180.968 70.8979 180.968C72.2419 180.968 73.2819 181.928 73.2819 183.304C73.2819 184.696 72.3219 185.656 70.8819 185.656ZM79.5799 185.976C81.2599 185.976 82.4279 184.68 82.4279 182.664C82.4279 180.616 81.2439 179.352 79.5799 179.352C77.9319 179.352 76.7159 180.648 76.7159 182.664C76.7159 184.68 77.9159 185.976 79.5799 185.976ZM79.6439 191H80.9879L87.3399 179.608H85.9799L79.6439 191ZM87.3879 191.272C89.0839 191.272 90.2679 189.96 90.2679 187.944C90.2679 185.912 89.0679 184.632 87.3879 184.632C85.7559 184.632 84.5239 185.928 84.5239 187.944C84.5239 189.96 85.7239 191.272 87.3879 191.272ZM79.5799 184.744C78.7639 184.744 78.3799 183.864 78.3799 182.664C78.3799 181.432 78.7639 180.552 79.5799 180.552C80.3959 180.552 80.8119 181.464 80.8119 182.664C80.8119 183.88 80.4119 184.744 79.5799 184.744ZM87.4039 190.024C86.5879 190.024 86.1879 189.144 86.1879 187.944C86.1879 186.728 86.5879 185.832 87.4039 185.832C88.1879 185.832 88.6199 186.744 88.6199 187.944C88.6199 189.16 88.2359 190.024 87.4039 190.024Z" fill="#131313"/>
<path d="M57.924 59H59.148V54.872H63.216V53.828H59.148V51.152H64.032V50.072H57.924V59ZM67.5018 59.18C69.4458 59.18 70.6338 57.668 70.6338 55.784C70.6338 53.912 69.4458 52.4 67.5018 52.4C65.5578 52.4 64.3458 53.912 64.3458 55.784C64.3458 57.668 65.5578 59.18 67.5018 59.18ZM67.4898 58.268C66.1698 58.268 65.4858 57.176 65.4858 55.784C65.4858 54.392 66.1698 53.288 67.4898 53.288C68.8098 53.288 69.4938 54.392 69.4938 55.784C69.4938 57.176 68.8098 58.268 67.4898 58.268ZM72.9228 52.556H71.8188V59H72.9348V55.076C72.9348 54.044 73.6548 53.336 74.6508 53.336C75.5268 53.336 76.0668 53.804 76.0668 54.632V59H77.1708V54.5C77.1708 53.156 76.3428 52.4 74.9988 52.4C74.0628 52.4 73.4268 52.82 72.9588 53.468H72.9228V52.556ZM78.1611 53.42H79.1691V57.74C79.1691 58.688 79.7691 59.036 80.6331 59.048C80.9211 59.048 81.2331 59.012 81.5331 58.94V58.004H81.4971C81.3771 58.04 81.1251 58.088 80.9331 58.088C80.5251 58.088 80.2731 57.956 80.2731 57.488V53.42H81.6051V52.556H80.2731V50.528H79.1691V52.556H78.1611V53.42ZM85.5015 59.18C86.9895 59.18 88.0215 58.364 88.3095 57.164H87.2175C87.0135 57.848 86.4015 58.268 85.5135 58.268C84.2655 58.268 83.5815 57.308 83.4975 56.048H88.4415C88.4415 54.956 88.1775 54.032 87.6495 53.396C87.1455 52.772 86.4015 52.4 85.4415 52.4C83.5935 52.4 82.3575 53.912 82.3575 55.784C82.3575 57.668 83.5215 59.18 85.5015 59.18ZM85.4415 53.264C86.5575 53.264 87.1935 54.008 87.2535 55.244H83.5215C83.6655 54.104 84.2775 53.264 85.4415 53.264ZM89.5473 55.208H90.8433V53.888H89.5473V55.208ZM89.5473 59H90.8433V57.68H89.5473V59ZM95.6589 59H96.8829V50.072H95.6589V59ZM99.7001 52.556H98.5961V59H99.7121V55.076C99.7121 54.044 100.432 53.336 101.428 53.336C102.304 53.336 102.844 53.804 102.844 54.632V59H103.948V54.5C103.948 53.156 103.12 52.4 101.776 52.4C100.84 52.4 100.204 52.82 99.7361 53.468H99.7001V52.556ZM104.938 53.42H105.946V57.74C105.946 58.688 106.546 59.036 107.41 59.048C107.698 59.048 108.01 59.012 108.31 58.94V58.004H108.274C108.154 58.04 107.902 58.088 107.71 58.088C107.302 58.088 107.05 57.956 107.05 57.488V53.42H108.382V52.556H107.05V50.528H105.946V52.556H104.938V53.42ZM112.279 59.18C113.767 59.18 114.799 58.364 115.087 57.164H113.995C113.791 57.848 113.179 58.268 112.291 58.268C111.043 58.268 110.359 57.308 110.275 56.048H115.219C115.219 54.956 114.955 54.032 114.427 53.396C113.923 52.772 113.179 52.4 112.219 52.4C110.371 52.4 109.135 53.912 109.135 55.784C109.135 57.668 110.299 59.18 112.279 59.18ZM112.219 53.264C113.335 53.264 113.971 54.008 114.031 55.244H110.299C110.443 54.104 111.055 53.264 112.219 53.264ZM118.881 59.192C120.393 59.192 121.473 58.52 121.473 57.212C121.473 55.712 120.369 55.424 119.085 55.172C117.993 54.956 117.369 54.824 117.369 54.152C117.369 53.66 117.741 53.252 118.617 53.252C119.541 53.252 119.997 53.624 120.093 54.284H121.209C121.065 53.168 120.261 52.412 118.641 52.412C117.141 52.412 116.277 53.108 116.277 54.212C116.277 55.628 117.417 55.892 118.677 56.156C119.817 56.384 120.357 56.564 120.357 57.272C120.357 57.848 119.925 58.292 118.905 58.292C117.981 58.292 117.261 57.98 117.129 57.044H116.001C116.097 58.352 117.105 59.192 118.881 59.192ZM124.657 59.132C125.749 59.132 126.409 58.616 126.817 58.052H126.829C126.949 58.736 127.285 59.06 127.969 59.06C128.233 59.06 128.413 59.012 128.569 58.964V58.184H128.521C127.957 58.304 127.837 58.028 127.837 57.512V54.5C127.837 53.636 127.513 53.072 126.973 52.748C126.565 52.508 126.025 52.4 125.413 52.4C123.673 52.4 122.845 53.372 122.797 54.464H123.877C123.913 53.696 124.405 53.216 125.425 53.216C126.313 53.216 126.805 53.648 126.805 54.344C126.805 55.004 126.193 55.16 125.245 55.268C123.577 55.472 122.473 55.796 122.473 57.296C122.473 58.532 123.433 59.132 124.657 59.132ZM124.933 58.316C124.285 58.316 123.649 58.112 123.649 57.284C123.649 56.396 124.345 56.204 125.401 56.024C125.929 55.928 126.493 55.772 126.817 55.568V56.624C126.817 57.368 126.217 58.316 124.933 58.316ZM136.095 59.18C138.027 59.18 139.419 58.232 139.419 56.54C139.419 54.548 137.847 54.104 136.119 53.756C134.775 53.48 133.803 53.204 133.803 52.232C133.803 51.344 134.571 50.864 135.747 50.864C137.007 50.864 137.787 51.452 137.943 52.532H139.131C138.915 51.008 137.931 49.904 135.735 49.904C133.899 49.904 132.639 50.792 132.639 52.292C132.639 54.008 133.995 54.464 135.591 54.8C137.151 55.148 138.183 55.424 138.183 56.588C138.183 57.668 137.319 58.196 136.131 58.196C134.511 58.196 133.623 57.452 133.479 56.108H132.267C132.363 57.812 133.599 59.18 136.095 59.18ZM142.645 59.132C143.737 59.132 144.397 58.616 144.805 58.052H144.817C144.937 58.736 145.273 59.06 145.957 59.06C146.221 59.06 146.401 59.012 146.557 58.964V58.184H146.509C145.945 58.304 145.825 58.028 145.825 57.512V54.5C145.825 53.636 145.501 53.072 144.961 52.748C144.553 52.508 144.013 52.4 143.401 52.4C141.661 52.4 140.833 53.372 140.785 54.464H141.865C141.901 53.696 142.393 53.216 143.413 53.216C144.301 53.216 144.793 53.648 144.793 54.344C144.793 55.004 144.181 55.16 143.233 55.268C141.565 55.472 140.461 55.796 140.461 57.296C140.461 58.532 141.421 59.132 142.645 59.132ZM142.921 58.316C142.273 58.316 141.637 58.112 141.637 57.284C141.637 56.396 142.333 56.204 143.389 56.024C143.917 55.928 144.481 55.772 144.805 55.568V56.624C144.805 57.368 144.205 58.316 142.921 58.316ZM148.567 52.556H147.463V59H148.579V55.076C148.579 54.044 149.299 53.336 150.295 53.336C151.171 53.336 151.711 53.804 151.711 54.632V59H152.815V54.5C152.815 53.156 151.987 52.4 150.643 52.4C149.707 52.4 149.071 52.82 148.603 53.468H148.567V52.556ZM154.319 61.184H155.435V59.228C155.435 58.736 155.423 58.376 155.411 58.148H155.447C155.891 58.832 156.599 59.192 157.475 59.192C159.215 59.192 160.283 57.86 160.283 55.796C160.283 53.672 159.155 52.4 157.511 52.4C156.587 52.4 155.939 52.832 155.459 53.564H155.423V52.556H154.319V61.184ZM157.355 58.268C155.927 58.268 155.375 57.176 155.375 55.82C155.375 54.452 155.999 53.348 157.367 53.348C158.555 53.348 159.143 54.404 159.143 55.82C159.143 57.224 158.543 58.268 157.355 58.268ZM163.387 59.132C164.479 59.132 165.139 58.616 165.547 58.052H165.559C165.679 58.736 166.015 59.06 166.699 59.06C166.963 59.06 167.143 59.012 167.299 58.964V58.184H167.251C166.687 58.304 166.567 58.028 166.567 57.512V54.5C166.567 53.636 166.243 53.072 165.703 52.748C165.295 52.508 164.755 52.4 164.143 52.4C162.403 52.4 161.575 53.372 161.527 54.464H162.607C162.643 53.696 163.135 53.216 164.155 53.216C165.043 53.216 165.535 53.648 165.535 54.344C165.535 55.004 164.923 55.16 163.975 55.268C162.307 55.472 161.203 55.796 161.203 57.296C161.203 58.532 162.163 59.132 163.387 59.132ZM163.663 58.316C163.015 58.316 162.379 58.112 162.379 57.284C162.379 56.396 163.075 56.204 164.131 56.024C164.659 55.928 165.223 55.772 165.547 55.568V56.624C165.547 57.368 164.947 58.316 163.663 58.316ZM171.014 59.18C172.958 59.18 174.146 57.668 174.146 55.784C174.146 53.912 172.958 52.4 171.014 52.4C169.07 52.4 167.858 53.912 167.858 55.784C167.858 57.668 169.07 59.18 171.014 59.18ZM171.002 58.268C169.682 58.268 168.998 57.176 168.998 55.784C168.998 54.392 169.682 53.288 171.002 53.288C172.322 53.288 173.006 54.392 173.006 55.784C173.006 57.176 172.322 58.268 171.002 58.268ZM175.367 59H176.483V50.072H175.367V59ZM180.857 59.18C182.801 59.18 183.989 57.668 183.989 55.784C183.989 53.912 182.801 52.4 180.857 52.4C178.913 52.4 177.701 53.912 177.701 55.784C177.701 57.668 178.913 59.18 180.857 59.18ZM180.845 58.268C179.525 58.268 178.841 57.176 178.841 55.784C178.841 54.392 179.525 53.288 180.845 53.288C182.165 53.288 182.849 54.392 182.849 55.784C182.849 57.176 182.165 58.268 180.845 58.268Z" fill="#131313"/>
<path d="M75.49 35H82.826V33.404H77.898V33.334C78.5 32.326 79.942 31.64 80.978 30.842C82.07 30.114 82.91 29.414 82.91 27.944C82.91 26.166 81.608 24.822 79.424 24.822C78.094 24.822 77.072 25.27 76.47 26.012C75.952 26.656 75.686 27.412 75.686 28.476H77.492C77.492 27.762 77.646 27.23 77.996 26.852C78.304 26.502 78.738 26.32 79.326 26.32C80.39 26.32 81.034 26.992 81.034 27.986C81.034 28.896 80.488 29.372 79.564 29.96C78.584 30.604 77.394 31.304 76.554 32.242C75.924 32.956 75.532 33.782 75.49 35ZM88.2636 35.238C90.8396 35.238 92.4216 33.194 92.4216 30.016C92.4216 26.796 90.7976 24.808 88.2776 24.808C85.7996 24.808 84.1336 26.824 84.1336 30.016C84.1336 33.194 85.7576 35.238 88.2636 35.238ZM88.2776 33.726C86.7376 33.726 86.0376 32.256 86.0376 30.016C86.0376 27.762 86.7376 26.292 88.2776 26.292C89.8316 26.292 90.5176 27.776 90.5176 30.016C90.5176 32.284 89.8596 33.726 88.2776 33.726ZM93.3865 35H100.722V33.404H95.7945V33.334C96.3965 32.326 97.8385 31.64 98.8745 30.842C99.9665 30.114 100.806 29.414 100.806 27.944C100.806 26.166 99.5045 24.822 97.3205 24.822C95.9905 24.822 94.9685 25.27 94.3665 26.012C93.8485 26.656 93.5825 27.412 93.5825 28.476H95.3885C95.3885 27.762 95.5425 27.23 95.8925 26.852C96.2005 26.502 96.6345 26.32 97.2225 26.32C98.2865 26.32 98.9305 26.992 98.9305 27.986C98.9305 28.896 98.3845 29.372 97.4605 29.96C96.4805 30.604 95.2905 31.304 94.4505 32.242C93.8205 32.956 93.4285 33.782 93.3865 35ZM106.16 35.238C108.736 35.238 110.318 33.194 110.318 30.016C110.318 26.796 108.694 24.808 106.174 24.808C103.696 24.808 102.03 26.824 102.03 30.016C102.03 33.194 103.654 35.238 106.16 35.238ZM106.174 33.726C104.634 33.726 103.934 32.256 103.934 30.016C103.934 27.762 104.634 26.292 106.174 26.292C107.728 26.292 108.414 27.776 108.414 30.016C108.414 32.284 107.756 33.726 106.174 33.726Z" fill="#131313"/>
<path d="M145.49 35H152.826V33.404H147.898V33.334C148.5 32.326 149.942 31.64 150.978 30.842C152.07 30.114 152.91 29.414 152.91 27.944C152.91 26.166 151.608 24.822 149.424 24.822C148.094 24.822 147.072 25.27 146.47 26.012C145.952 26.656 145.686 27.412 145.686 28.476H147.492C147.492 27.762 147.646 27.23 147.996 26.852C148.304 26.502 148.738 26.32 149.326 26.32C150.39 26.32 151.034 26.992 151.034 27.986C151.034 28.896 150.488 29.372 149.564 29.96C148.584 30.604 147.394 31.304 146.554 32.242C145.924 32.956 145.532 33.782 145.49 35ZM158.264 35.238C160.84 35.238 162.422 33.194 162.422 30.016C162.422 26.796 160.798 24.808 158.278 24.808C155.8 24.808 154.134 26.824 154.134 30.016C154.134 33.194 155.758 35.238 158.264 35.238ZM158.278 33.726C156.738 33.726 156.038 32.256 156.038 30.016C156.038 27.762 156.738 26.292 158.278 26.292C159.832 26.292 160.518 27.776 160.518 30.016C160.518 32.284 159.86 33.726 158.278 33.726ZM163.386 35H170.722V33.404H165.794V33.334C166.396 32.326 167.838 31.64 168.874 30.842C169.966 30.114 170.806 29.414 170.806 27.944C170.806 26.166 169.504 24.822 167.32 24.822C165.99 24.822 164.968 25.27 164.366 26.012C163.848 26.656 163.582 27.412 163.582 28.476H165.388C165.388 27.762 165.542 27.23 165.892 26.852C166.2 26.502 166.634 26.32 167.222 26.32C168.286 26.32 168.93 26.992 168.93 27.986C168.93 28.896 168.384 29.372 167.46 29.96C166.48 30.604 165.29 31.304 164.45 32.242C163.82 32.956 163.428 33.782 163.386 35ZM174.242 35H176.09V24.948H174.648C174.424 26.362 173.304 26.908 171.932 26.95V28.182H174.242V35Z" fill="#131313"/>
<circle cx="62" cy="30" r="5" fill="#131313"/>
<circle cx="132" cy="30" r="5" fill="#004FED"/>
<path d="M0.0234375 817.64H8.02344V815.896H0.0234375V817.64ZM12.6303 821H21.0143V819.176H15.3823V819.096C16.0703 817.944 17.7183 817.16 18.9023 816.248C20.1503 815.416 21.1103 814.616 21.1103 812.936C21.1103 810.904 19.6223 809.368 17.1263 809.368C15.6063 809.368 14.4383 809.88 13.7503 810.728C13.1583 811.464 12.8543 812.328 12.8543 813.544H14.9183C14.9183 812.728 15.0943 812.12 15.4943 811.688C15.8463 811.288 16.3423 811.08 17.0143 811.08C18.2303 811.08 18.9663 811.848 18.9663 812.984C18.9663 814.024 18.3423 814.568 17.2863 815.24C16.1663 815.976 14.8063 816.776 13.8463 817.848C13.1263 818.664 12.6783 819.608 12.6303 821ZM26.8306 821.272C29.1826 821.272 31.1346 820.088 31.1346 817.768C31.1346 816.264 30.3506 815.304 28.8466 814.888V814.856C29.9986 814.472 30.7666 813.752 30.7666 812.52C30.7666 810.536 29.0546 809.352 26.7666 809.352C24.0786 809.352 22.5266 810.92 22.4946 813.032H24.4946C24.5266 811.896 25.2786 810.952 26.7186 810.952C27.8546 810.952 28.6866 811.576 28.6866 812.6C28.6866 813.64 27.9026 814.248 26.4786 814.248H25.8226V815.768H26.5266C28.0946 815.768 28.9906 816.392 28.9906 817.608C28.9906 818.904 28.1106 819.592 26.7506 819.592C25.0866 819.592 24.2226 818.648 24.1586 817.272H22.1426C22.1586 818.504 22.6386 819.56 23.5026 820.264C24.3346 820.92 25.4386 821.272 26.8306 821.272ZM32.5106 821H34.7346V818.776H32.5106V821ZM40.5256 821.272C42.9096 821.272 44.7336 819.56 44.7176 817.272C44.7016 815.016 42.9416 813.336 40.7976 813.336C39.4856 813.336 38.5416 813.88 37.8536 814.936H37.8216C37.9176 812.36 38.7336 810.936 40.5416 810.936C41.6616 810.936 42.2216 811.64 42.3496 812.296H44.3976C44.1256 810.744 42.8456 809.352 40.5096 809.352C38.9576 809.352 37.8536 809.896 37.0536 810.888C36.2056 811.96 35.8056 813.496 35.8216 815.304C35.8216 817.336 36.2376 818.856 37.2456 819.928C37.9976 820.76 39.0856 821.272 40.5256 821.272ZM40.4616 819.656C39.1016 819.656 38.0456 818.68 38.0456 817.304C38.0456 815.912 39.0216 814.968 40.4456 814.968C41.7416 814.968 42.7336 815.928 42.7336 817.32C42.7336 818.68 41.7576 819.656 40.4616 819.656ZM48.7439 815.976C50.4239 815.976 51.5919 814.68 51.5919 812.664C51.5919 810.616 50.4079 809.352 48.7439 809.352C47.0959 809.352 45.8799 810.648 45.8799 812.664C45.8799 814.68 47.0799 815.976 48.7439 815.976ZM48.8079 821H50.1519L56.5039 809.608H55.1439L48.8079 821ZM56.5519 821.272C58.2479 821.272 59.4319 819.96 59.4319 817.944C59.4319 815.912 58.2319 814.632 56.5519 814.632C54.9199 814.632 53.6879 815.928 53.6879 817.944C53.6879 819.96 54.8879 821.272 56.5519 821.272ZM48.7439 814.744C47.9279 814.744 47.5439 813.864 47.5439 812.664C47.5439 811.432 47.9279 810.552 48.7439 810.552C49.5599 810.552 49.9759 811.464 49.9759 812.664C49.9759 813.88 49.5759 814.744 48.7439 814.744ZM56.5679 820.024C55.7519 820.024 55.3519 819.144 55.3519 817.944C55.3519 816.728 55.7519 815.832 56.5679 815.832C57.3519 815.832 57.7839 816.744 57.7839 817.944C57.7839 819.16 57.3999 820.024 56.5679 820.024Z" fill="#131313"/>
<path d="M566 44H782C785.314 44 788 46.6863 788 50C788 53.3137 785.314 56 782 56H566V44Z" fill="#004FED"/>
<path d="M469 50C469 46.6863 471.686 44 475 44H566V56H475C471.686 56 469 53.3137 469 50Z" fill="#131313"/>
<path d="M566 252H1124C1127.31 252 1130 254.686 1130 258C1130 261.314 1127.31 264 1124 264H566V252Z" fill="#004FED"/>
<path d="M30 258C30 254.686 32.6863 252 36 252H566V264H36C32.6863 264 30 261.314 30 258Z" fill="#131313"/>
<path d="M566 96H1019C1022.31 96 1025 98.6863 1025 102C1025 105.314 1022.31 108 1019 108H566V96Z" fill="#004FED"/>
<path d="M234 102C234 98.6863 236.686 96 240 96H566V108H240C236.686 108 234 105.314 234 102Z" fill="#131313"/>
<path d="M566 200H1104C1107.31 200 1110 202.686 1110 206C1110 209.314 1107.31 212 1104 212H566V200Z" fill="#004FED"/>
<path d="M42 206C42 202.686 44.6863 200 48 200H566V212H48C44.6863 212 42 209.314 42 206Z" fill="#131313"/>
<path d="M566 148H1076C1079.31 148 1082 150.686 1082 154C1082 157.314 1079.31 160 1076 160H566V148Z" fill="#004FED"/>
<path d="M30 154C30 150.686 32.6863 148 36 148H566V160H36C32.6863 160 30 157.314 30 154Z" fill="#131313"/>
<path d="M566 304H1127C1130.31 304 1133 306.686 1133 310C1133 313.314 1130.31 316 1127 316H566V304Z" fill="#004FED"/>
<path d="M566 304H59C39.67 304 24 319.67 24 339V790C24 793.314 26.6863 796 30 796C33.3137 796 36 793.314 36 790V342C36 327.641 47.6406 316 62 316H566V304Z" fill="#131313"/>
<path d="M565.487 16.272C568.431 16.272 570.239 13.936 570.239 10.304C570.239 6.624 568.383 4.352 565.503 4.352C562.671 4.352 560.767 6.656 560.767 10.304C560.767 13.936 562.623 16.272 565.487 16.272ZM565.503 14.544C563.743 14.544 562.943 12.864 562.943 10.304C562.943 7.728 563.743 6.048 565.503 6.048C567.279 6.048 568.062 7.744 568.062 10.304C568.062 12.896 567.311 14.544 565.503 14.544Z" fill="#131313"/>
<rect x="565" y="20" width="1" height="296" fill="#131313"/>
</svg>
