<svg width="75" height="20" viewBox="0 0 75 20" fill="none" xmlns="http://www.w3.org/2000/svg">
<path d="M72.4221 0H71.112C69.434 0 69.3284 0.18584 69.1972 0.478995L66.6029 6.82633C65.7355 8.93339 64.845 11.2001 64.5027 12.3727C64.1887 11.2001 63.6122 9.62701 62.4051 6.71902L59.8108 0.478995C59.6538 0.107316 58.9975 0 57.5819 0H56.1072C54.6659 0 54.3776 0.13349 54.3776 0.426646V19.5734C54.3776 19.9189 54.6659 20 56.1612 20H56.9745C58.4415 20 58.8611 19.9189 58.8611 19.5734V8.21358H58.9666C59.055 8.55934 59.1685 8.89793 59.3063 9.22654L62.297 16.346C62.4283 16.668 62.5853 16.7988 63.9751 16.7988H64.8656C66.2811 16.7988 66.3867 16.6941 66.5179 16.346L69.2461 9.49352C69.5035 8.85224 69.6913 8.21358 69.6913 8.21358H69.7943V19.5734C69.7943 19.9189 70.0851 20 71.6319 20H72.4169C73.8608 20 74.2803 19.9189 74.2803 19.5734V0.426646C74.2855 0.13349 73.8659 0 72.4221 0ZM50.6586 0.426646C50.6586 0.13349 50.2391 0 48.7978 0H47.9587C46.4376 0 46.1751 0.13349 46.1751 0.426646V19.5734C46.1751 19.9189 46.4325 20 47.9587 20H48.7978C50.2391 20 50.6586 19.9189 50.6586 19.5734V0.426646ZM42.662 0C43.0558 0 43.133 0.0523491 43.133 1.46578V2.77451C43.133 4.13297 43.0274 4.29263 42.662 4.29263H38.2043V19.5734C38.2043 19.9189 37.7848 20 36.2894 20H35.5173C33.9962 20 33.7337 19.9189 33.7337 19.5734V4.29263H29.2631C28.8951 4.29263 28.7896 4.18793 28.7896 2.77451V1.46578C28.7896 0 28.8693 0 29.2631 0L42.662 0Z" fill="white"/>
<path d="M9.41477 15.7205H1.12992C0.830256 15.7205 0.54287 15.8415 0.330978 16.057C0.119086 16.2725 4.69066e-05 16.5648 4.69066e-05 16.8695V18.8457C-0.000291575 18.9968 0.0286836 19.1465 0.0853133 19.2862C0.141943 19.4259 0.225115 19.5529 0.330067 19.6599C0.435019 19.7669 0.559689 19.8518 0.696939 19.9097C0.834189 19.9676 0.981323 19.9974 1.12992 19.9974H9.41477V15.7205ZM23.2074 16.0607C23.1022 15.953 22.9771 15.8674 22.8393 15.809C22.7015 15.7506 22.5537 15.7205 22.4044 15.7205H14.1196V19.9974H22.4044C22.553 19.9974 22.7001 19.9676 22.8374 19.9097C22.9746 19.8518 23.0993 19.7669 23.2043 19.6599C23.3092 19.5529 23.3924 19.4259 23.449 19.2862C23.5056 19.1465 23.5346 18.9968 23.5343 18.8457V16.8695C23.5347 16.5666 23.4172 16.2758 23.2074 16.0607ZM23.2074 8.20835C23.1039 8.09729 22.9794 8.00854 22.8415 7.94738C22.7035 7.88623 22.5549 7.85392 22.4044 7.85238H14.1196V12.1398H22.4044C22.7036 12.1398 22.9906 12.0191 23.2024 11.8041C23.4143 11.5892 23.5336 11.2976 23.5343 10.9933V9.01191C23.535 8.86182 23.5065 8.71307 23.4504 8.57425C23.3943 8.43542 23.3117 8.30928 23.2074 8.20311V8.20835ZM9.41477 7.85238H1.12992C0.98067 7.85237 0.8329 7.88243 0.695143 7.94083C0.557386 7.99923 0.43237 8.08481 0.327316 8.19262C0.222262 8.30043 0.139252 8.42834 0.0830802 8.56896C0.0269081 8.70959 -0.00131297 8.86013 4.69066e-05 9.01191V10.9933C-0.000291575 11.1444 0.0286836 11.2941 0.0853133 11.4339C0.141943 11.5736 0.225115 11.7006 0.330067 11.8075C0.435019 11.9145 0.559689 11.9994 0.696939 12.0573C0.834189 12.1152 0.981323 12.145 1.12992 12.145H9.41477V7.85238ZM22.4044 4.27954H1.12992C0.832032 4.27956 0.546194 4.15993 0.334596 3.9467C0.122998 3.73347 0.00276112 3.44388 4.69066e-05 3.14095V1.1543C-0.000631047 1.00296 0.0280935 0.852979 0.0845712 0.712964C0.141049 0.572948 0.224167 0.445657 0.329153 0.338402C0.434138 0.231146 0.558923 0.146038 0.696342 0.0879654C0.833761 0.0298924 0.981106 -1.57049e-06 1.12992 0L22.4044 0C22.7043 0.000693164 22.9917 0.122337 23.2035 0.338244C23.4153 0.554151 23.5343 0.84669 23.5343 1.15168V3.14095C23.5343 3.4457 23.4152 3.73797 23.2034 3.95346C22.9915 4.16895 22.7041 4.29001 22.4044 4.29001" fill="white"/>
</svg>
