<svg width="20" height="17" viewBox="0 0 20 17" fill="none" xmlns="http://www.w3.org/2000/svg">
<path d="M19.6735 1.92707C18.937 2.25399 18.1973 2.50078 17.3776 2.58412C18.1973 2.09053 18.8538 1.27001 19.1804 0.366169C18.3606 0.859758 17.5409 1.18668 16.6411 1.35335C15.8214 0.532836 14.7551 0.0392456 13.6088 0.0392456C11.3929 0.0392456 9.59019 1.84373 9.59019 4.05848C9.59019 4.3886 9.59019 4.71553 9.67344 4.96232C6.31127 4.79886 3.36217 3.23796 1.3929 0.776425C0.983034 1.35335 0.819729 2.09053 0.819729 2.82771C0.819729 4.22514 1.5562 5.45591 2.62249 6.19309C1.96607 6.10976 1.31285 5.9463 0.819729 5.6995C0.819729 5.6995 0.819729 5.6995 0.819729 5.78284C0.819729 7.75078 2.21263 9.39181 4.01539 9.72194C3.68878 9.80207 3.36217 9.8854 2.9523 9.8854C2.70575 9.8854 2.45919 9.8854 2.21263 9.80207C2.70575 11.4431 4.1819 12.5937 5.98466 12.5937C4.59176 13.661 2.86905 14.3149 0.983034 14.3149C0.656423 14.3149 0.326611 14.3149 0 14.2348C1.80276 15.3822 3.93534 16.0392 6.14797 16.0392C13.6088 16.0392 17.6242 9.8854 17.6242 4.55207C17.6242 4.3886 17.6242 4.22514 17.6242 4.05848C18.4439 3.48476 19.1003 2.74758 19.6735 1.92707Z" fill="white"/>
</svg>
