<svg width="63" height="61" viewBox="0 0 63 61" fill="none" xmlns="http://www.w3.org/2000/svg">
<path d="M32.7399 55.5225L7.3243 26.3299C-0.792282 33.3964 -1.6821 45.6585 5.33668 53.7204C12.3555 61.7822 24.6233 62.589 32.7399 55.5225Z" fill="#3B7AF3"/>
<path d="M34.7264 28.1316C27.7076 20.0698 28.5974 7.80766 36.714 0.741211L7.32314 26.3295C15.4397 19.263 27.7076 20.0698 34.7264 28.1316Z" fill="#3B7AF3"/>
<path d="M34.7249 28.1322C41.7437 36.194 40.8539 48.4562 32.7373 55.5226L62.1282 29.9344C54.0116 37.0008 41.7437 36.194 34.7249 28.1322Z" fill="#3B7AF3"/>
<path d="M34.727 28.1325C27.7082 20.0707 15.4409 19.2635 7.3243 26.3299L32.7399 55.5225C40.8565 48.4561 41.7458 36.1944 34.727 28.1325Z" fill="#3B7AF3"/>
<path d="M34.7264 28.1316C41.7452 36.1935 54.0131 37.0003 62.1296 29.9338L36.714 0.741211C28.5974 7.80766 27.7076 20.0698 34.7264 28.1316Z" fill="#3B7AF3"/>
</svg>
