<svg width="110" height="114" viewBox="0 0 110 114" fill="none" xmlns="http://www.w3.org/2000/svg">
<path d="M50.8003 0.954543C55.9924 7.30058 58.3362 15.543 57.3163 23.8685C56.2964 32.1941 51.9961 39.9208 45.3616 45.3489C38.7272 50.777 30.3019 53.4618 21.9392 52.8127C13.5766 52.1636 5.9616 48.2337 0.769534 41.8877L25.7849 21.4211L50.8003 0.954543Z" fill="#E73A2F"/>
<path d="M70.4878 25.0175C75.6799 31.3636 78.0238 39.606 77.0038 47.9315C75.9839 56.2571 71.6836 63.9838 65.0491 69.4119C58.4147 74.8399 49.9894 77.5247 41.6267 76.8756C33.2641 76.2265 25.6491 72.2967 20.457 65.9507L70.4878 25.0175Z" fill="#E73A2F"/>
<path d="M90.1167 49.0102C95.3088 55.3562 97.6527 63.5987 96.6327 71.9242C95.6128 80.2498 91.3125 87.9765 84.6781 93.4045C78.0436 98.8326 69.6183 101.517 61.2556 100.868C52.893 100.219 45.278 96.2894 40.0859 89.9434L90.1167 49.0102Z" fill="#E73A2F"/>
</svg>
