<svg width="141" height="159" viewBox="0 0 141 159" fill="none" xmlns="http://www.w3.org/2000/svg">
<path fill-rule="evenodd" clip-rule="evenodd" d="M5.44256 48.9727C2.43675 35.9531 10.5545 22.962 23.5741 19.9561L86.4383 5.44281C99.4579 2.437 112.449 10.5548 115.455 23.5744C117.671 33.1722 113.841 42.7546 106.46 48.3327C115.54 50.1104 123.182 57.0443 125.397 66.6421C127.613 76.2392 123.785 85.8208 116.404 91.399C125.484 93.1767 133.126 100.111 135.342 109.708C138.348 122.728 130.23 135.719 117.21 138.725L54.3461 153.238C41.3265 156.244 28.3354 148.126 25.3296 135.107C23.1139 125.51 26.9423 115.928 34.3229 110.35C25.2432 108.572 17.601 101.638 15.3852 92.0404C13.1693 82.4425 16.9985 72.8601 24.3802 67.2821C15.3005 65.5044 7.65838 58.5705 5.44256 48.9727Z" fill="#3B7AF3"/>
</svg>
