<svg width="75" height="75" viewBox="0 0 75 75" fill="none" xmlns="http://www.w3.org/2000/svg">
<path d="M71.8133 45.2075C72.2445 46.095 73.6134 46.0329 73.8054 45.0651C75.8145 34.94 73.5997 24.0327 66.7919 15.2235C54.2965 -0.945445 31.0594 -3.92342 14.8905 8.57201C-1.27845 21.0674 -4.25643 44.3045 8.239 60.4734C15.0928 69.3422 25.1783 74.2423 35.5565 74.7972C36.5418 74.8499 36.9396 73.5385 36.1859 72.9017C34.9616 71.8673 33.8272 70.6888 32.8075 69.3694C25.0191 59.2912 26.8753 44.8075 36.9534 37.0191C47.0315 29.2307 61.5152 31.0869 69.3036 41.165C70.2957 42.4487 71.1312 43.8038 71.8133 45.2075Z" fill="#E73A2F"/>
</svg>
