<svg width="67" height="67" viewBox="0 0 67 67" fill="none" xmlns="http://www.w3.org/2000/svg">
<path d="M17.0491 26.6677L10.8333 26.6678C7.05933 26.6678 3.99997 29.7272 4 33.5011C4.00003 37.2751 7.05945 40.3345 10.8334 40.3344L17.0497 40.3344L12.26 45.1242L15.0885 47.9526L12.26 45.1242C9.6038 47.7804 9.60384 52.087 12.2601 54.7433C14.9164 57.3995 19.223 57.3994 21.8792 54.7432L26.6683 49.954L26.6683 56.1667C26.6683 59.9407 29.7277 63 33.5017 63C37.2756 63 40.335 59.9406 40.335 56.1666L40.3349 49.9532L45.1244 54.7425C47.7812 57.3994 52.0888 57.3993 54.7457 54.7425C57.4025 52.0856 57.4025 47.778 54.7456 45.1212L49.9585 40.3341L56.1667 40.3341C59.9407 40.334 63 37.2746 63 33.5007C63 29.7267 59.9406 26.6674 56.1666 26.6674L49.9545 26.6674L54.7379 21.884C57.3941 19.2277 57.3941 14.9211 54.7378 12.2649C52.0815 9.60866 47.7749 9.6087 45.1187 12.265L40.3347 17.0491L40.3346 10.8333C40.3346 7.05933 37.2752 3.99997 33.5012 4C29.7273 4.00003 26.6679 7.05945 26.6679 10.8334L26.668 17.044L21.8902 12.2663C19.2333 9.60943 14.9257 9.60947 12.2689 12.2663C9.61204 14.9232 9.61207 19.2308 12.2689 21.8876L17.0491 26.6677Z" fill="#E73A2F" stroke="#E73A2F" stroke-width="8"/>
</svg>
