<svg width="121" height="103" viewBox="0 0 121 103" fill="none" xmlns="http://www.w3.org/2000/svg">
<path d="M63.2934 41.2578C36.447 32.7389 16.5186 20.0501 18.7822 12.9165C21.0458 5.78291 44.6442 6.90592 71.4907 15.4248C98.3372 23.9437 118.266 36.6325 116.002 43.7661C113.738 50.8997 90.1399 49.7767 63.2934 41.2578Z" fill="#3AD15E"/>
<path d="M56.0474 64.0923C29.2009 55.5734 9.27251 42.8845 11.5361 35.751C13.7997 28.6174 37.3981 29.7404 64.2446 38.2593C91.0911 46.7782 111.019 59.467 108.756 66.6006C106.492 73.7342 82.8938 72.6112 56.0474 64.0923Z" fill="#3AD15E"/>
<path d="M48.8013 86.9272C21.9548 78.4083 2.02641 65.7195 4.29003 58.5859C6.55365 51.4523 30.1521 52.5754 56.9985 61.0942C83.845 69.6131 103.773 82.302 101.51 89.4356C99.2462 96.5691 75.6477 95.4461 48.8013 86.9272Z" fill="#3AD15E"/>
</svg>
