<svg width="140" height="140" viewBox="0 0 140 140" fill="none" xmlns="http://www.w3.org/2000/svg">
<path d="M96.7248 47.4624C100.992 48.6059 105.379 46.0733 106.523 41.8056L109.739 29.8008C110.883 25.5331 115.27 23.0004 119.537 24.1439L137.338 28.9135C138.405 29.1994 139.038 30.2961 138.752 31.363L110.874 135.406C110.302 137.54 108.109 138.806 105.975 138.234L1.93191 110.356C0.864984 110.07 0.231818 108.973 0.517701 107.907L5.28729 90.1062C6.43082 85.8385 10.8175 83.3058 15.0852 84.4494L27.09 87.666C31.3577 88.8096 35.7444 86.2769 36.888 82.0092L40.1047 70.0044C41.2482 65.7367 45.6349 63.204 49.9026 64.3476L61.9074 67.5642C66.1751 68.7078 70.5618 66.1751 71.7053 61.9074L74.922 49.9026C76.0656 45.6349 80.4522 43.1022 84.72 44.2457L96.7248 47.4624Z" fill="#3B7AF3"/>
</svg>
