<svg width="1133" height="826" viewBox="0 0 1133 826" fill="none" xmlns="http://www.w3.org/2000/svg">
  <g id="info_1_container">
    <text id="Fonte: Intesa Sanpaolo" transform="translate(57 48)" fill="#131313" xml:space="preserve" style="white-space: pre" font-family="Neue Haas Grotesk Text Pro" font-size="12" letter-spacing="0em">
      <tspan x="0" y="11.398">Fonte: Intesa Sanpaolo</tspan>
    </text>
    <g id="Group 125">
      <text id="2020" fill="#131313" xml:space="preserve" style="white-space: pre" font-family="Neue Haas Grotesk Text Pro" font-size="14" font-weight="500" letter-spacing="0em">
        <tspan x="75" y="35.131">2020</tspan>
      </text>
      <text id="2021" fill="#131313" xml:space="preserve" style="white-space: pre" font-family="Neue Haas Grotesk Text Pro" font-size="14" font-weight="500" letter-spacing="0em">
        <tspan x="145" y="35.131">2021</tspan>
      </text>
      <circle id="Ellipse 96" cx="62" cy="30" r="5" fill="#131313"/>
      <circle id="Ellipse 97" cx="132" cy="30" r="5" fill="#004FED"/>
    </g>
    <g id="chart-container">
      <g id="row6">
        <g id="line6">
          <path id="Rectangle 21" d="M566 304H1127C1130.31 304 1133 306.686 1133 310C1133 313.314 1130.31 316 1127 316H566V304Z" fill="#004FED"/>
          <path id="Union" d="M566 304H59C39.67 304 24 319.67 24 339V790C24 793.314 26.6863 796 30 796C33.3137 796 36 793.314 36 790V342C36 327.641 47.6406 316 62 316H566V304Z" fill="#131313"/>
        </g>
        <text id="&#226;&#128;&#147; 23.6%" fill="#131313" xml:space="preserve" style="white-space: pre" font-family="Neue Haas Grotesk Text Pro" font-size="16" font-weight="500" letter-spacing="0em">
          <tspan x="0.0234375" y="820.864">&#x2013; 23.6%</tspan>
        </text>
        <text id="+13%" fill="#004FED" xml:space="preserve" style="white-space: pre" font-family="Neue Haas Grotesk Text Pro" font-size="16" font-weight="500" letter-spacing="0em">
          <tspan x="1092.19" y="294.864">+13%</tspan>
        </text>
        <text id="Sistema moda" transform="translate(577 278)" fill="#131313" xml:space="preserve" style="white-space: pre" font-family="Neue Haas Grotesk Text Pro" font-size="16" font-weight="500" letter-spacing="0em">
          <tspan x="0" y="16.864">Sistema moda</tspan>
        </text>
      </g>
      <g id="row5">
        <g id="Group 206">
          <text id="+12.9%" fill="#004FED" xml:space="preserve" style="white-space: pre" font-family="Neue Haas Grotesk Text Pro" font-size="16" font-weight="500" letter-spacing="0em">
            <tspan x="1075.73" y="242.864">+12.9%</tspan>
          </text>
          <text id="&#226;&#128;&#147;12.2%" fill="#131313" xml:space="preserve" style="white-space: pre" font-family="Neue Haas Grotesk Text Pro" font-size="16" font-weight="500" letter-spacing="0em">
            <tspan x="30" y="242.864">&#x2013;12.2%</tspan>
          </text>
        </g>
        <text id="Prodotti in metallo" fill="#131313" xml:space="preserve" style="white-space: pre" font-family="Neue Haas Grotesk Text Pro" font-size="16" font-weight="500" letter-spacing="0em">
          <tspan x="577" y="242.864">Prodotti in metallo</tspan>
        </text>
        <g id="line5">
          <path id="Rectangle 19" d="M566 252H1124C1127.31 252 1130 254.686 1130 258C1130 261.314 1127.31 264 1124 264H566V252Z" fill="#004FED"/>
          <path id="Rectangle 20" d="M30 258C30 254.686 32.6863 252 36 252H566V264H36C32.6863 264 30 261.314 30 258Z" fill="#131313"/>
        </g>
      </g>
      <g id="row4">
        <text id="Meccanica" fill="#131313" xml:space="preserve" style="white-space: pre" font-family="Neue Haas Grotesk Text Pro" font-size="16" font-weight="500" letter-spacing="0em">
          <tspan x="577" y="190.864">Meccanica</tspan>
        </text>
        <g id="Group 205">
          <text id="+12.4%" fill="#004FED" xml:space="preserve" style="white-space: pre" font-family="Neue Haas Grotesk Text Pro" font-size="16" font-weight="500" letter-spacing="0em">
            <tspan x="1056.23" y="190.864">+12.4%</tspan>
          </text>
          <text id="&#226;&#128;&#147;11.9%" fill="#131313" xml:space="preserve" style="white-space: pre" font-family="Neue Haas Grotesk Text Pro" font-size="16" font-weight="500" letter-spacing="0em">
            <tspan x="42" y="190.864">&#x2013;11.9%</tspan>
          </text>
        </g>
        <g id="line4">
          <path id="Rectangle 71" d="M566 200H1104C1107.31 200 1110 202.686 1110 206C1110 209.314 1107.31 212 1104 212H566V200Z" fill="#004FED"/>
          <path id="Rectangle 72" d="M42 206C42 202.686 44.6863 200 48 200H566V212H48C44.6863 212 42 209.314 42 206Z" fill="#131313"/>
        </g>
      </g>
      <g id="row3">
        <text id="Totale distretti" fill="#131313" xml:space="preserve" style="white-space: pre" font-family="Neue Haas Grotesk Text Pro" font-size="16" font-weight="500" letter-spacing="0em">
          <tspan x="577" y="138.864">Totale distretti</tspan>
        </text>
        <g id="Group 204">
          <text id="+11.8%" fill="#004FED" xml:space="preserve" style="white-space: pre" font-family="Neue Haas Grotesk Text Pro" font-size="16" font-weight="500" letter-spacing="0em">
            <tspan x="1030.61" y="138.864">+11.8%</tspan>
          </text>
          <text id="&#226;&#128;&#147;12.2%_2" fill="#131313" xml:space="preserve" style="white-space: pre" font-family="Neue Haas Grotesk Text Pro" font-size="16" font-weight="500" letter-spacing="0em">
            <tspan x="30" y="138.864">&#x2013;12.2%</tspan>
          </text>
        </g>
        <g id="line3">
          <path id="Rectangle 15" d="M566 148H1076C1079.31 148 1082 150.686 1082 154C1082 157.314 1079.31 160 1076 160H566V148Z" fill="#004FED"/>
          <path id="Rectangle 16" d="M30 154C30 150.686 32.6863 148 36 148H566V160H36C32.6863 160 30 157.314 30 154Z" fill="#131313"/>
        </g>
      </g>
      <g id="row2">
        <g id="Group 203">
          <text id="+10.5%" fill="#004FED" xml:space="preserve" style="white-space: pre" font-family="Neue Haas Grotesk Text Pro" font-size="16" font-weight="500" letter-spacing="0em">
            <tspan x="970.375" y="86.864">+10.5%</tspan>
          </text>
          <text id="&#226;&#128;&#147;7.6%" fill="#131313" xml:space="preserve" style="white-space: pre" font-family="Neue Haas Grotesk Text Pro" font-size="16" font-weight="500" letter-spacing="0em">
            <tspan x="234" y="86.864">&#x2013;7.6%</tspan>
          </text>
        </g>
        <text id="Mobili" fill="#131313" xml:space="preserve" style="white-space: pre" font-family="Neue Haas Grotesk Text Pro" font-size="16" font-weight="500" letter-spacing="0em">
          <tspan x="577" y="86.864">Mobili</tspan>
        </text>
        <g id="line2">
          <path id="Rectangle 13" d="M566 96H1019C1022.31 96 1025 98.6863 1025 102C1025 105.314 1022.31 108 1019 108H566V96Z" fill="#004FED"/>
          <path id="Rectangle 14" d="M234 102C234 98.6863 236.686 96 240 96H566V108H240C236.686 108 234 105.314 234 102Z" fill="#131313"/>
        </g>
      </g>
      <g id="row1">
        <text id="+5.1%" fill="#004FED" xml:space="preserve" style="white-space: pre" font-family="Neue Haas Grotesk Text Pro" font-size="16" font-weight="500" letter-spacing="0em">
          <tspan x="744.906" y="34.864">+5.1%</tspan>
        </text>
        <text id="&#226;&#128;&#147;2.2%" fill="#131313" xml:space="preserve" style="white-space: pre" font-family="Neue Haas Grotesk Text Pro" font-size="16" font-weight="500" letter-spacing="0em">
          <tspan x="469" y="34.864">&#x2013;2.2%</tspan>
        </text>
        <g id="Group 209">
          <text id="Alimentare/bevande" fill="#131313" xml:space="preserve" style="white-space: pre" font-family="Neue Haas Grotesk Text Pro" font-size="16" font-weight="500" letter-spacing="0em">
            <tspan x="577" y="34.864">Alimentare/bevande</tspan>
          </text>
        </g>
        <g id="line1">
          <path id="Rectangle 11" d="M566 44H782C785.314 44 788 46.6863 788 50C788 53.3137 785.314 56 782 56H566V44Z" fill="#004FED"/>
          <path id="Rectangle 12" d="M469 50C469 46.6863 471.686 44 475 44H566V56H475C471.686 56 469 53.3137 469 50Z" fill="#131313"/>
        </g>
      </g>
    </g>
    <g id="vertical_line">
      <text id="0" fill="#131313" xml:space="preserve" style="white-space: pre" font-family="Neue Haas Grotesk Text Pro" font-size="16" font-weight="500" letter-spacing="0em">
        <tspan x="560.062" y="15.864">0</tspan>
      </text>
      <rect id="Rectangle 97" x="565" y="20" width="1" height="296" fill="#131313"/>
    </g>
  </g>
</svg>
