<svg width="24" height="159" viewBox="0 0 24 159" fill="none" xmlns="http://www.w3.org/2000/svg">
<rect x="0.5" y="158.5" width="158" height="23" rx="11.5" transform="rotate(-90 0.5 158.5)" fill="white" stroke="#24262F"/>
<circle cx="12" cy="147" r="11.5" transform="rotate(-90 12 147)" fill="white" stroke="#24262F"/>
<path d="M17.095 147.696L13.319 151.472L12.167 150.304L14.007 148.448L14.631 148.064L14.551 147.808L13.799 147.92L5.79902 147.92L5.79902 146.16L13.799 146.16L14.551 146.272L14.631 146.016L14.007 145.632L12.167 143.776L13.319 142.608L17.095 146.384L17.095 147.696Z" fill="#24262F"/>
<path d="M16.696 123.22C16.696 123.771 16.5607 124.289 16.29 124.774C16.01 125.25 15.604 125.633 15.072 125.922C14.54 126.211 13.896 126.356 13.14 126.356L12.916 126.356C12.16 126.356 11.516 126.211 10.984 125.922C10.452 125.633 10.0507 125.25 9.78 124.774C9.5 124.298 9.36 123.78 9.36 123.22C9.36 122.8 9.41133 122.45 9.514 122.17C9.60733 121.881 9.72867 121.647 9.878 121.47C10.0273 121.293 10.186 121.157 10.354 121.064L10.354 120.812L6.7 120.812L6.7 119.048L16.5 119.048L16.5 120.784L15.66 120.784L15.66 121.036C15.9213 121.195 16.1593 121.442 16.374 121.778C16.5887 122.105 16.696 122.585 16.696 123.22ZM15.156 122.688C15.156 122.147 14.9833 121.694 14.638 121.33C14.2833 120.966 13.77 120.784 13.098 120.784L12.958 120.784C12.286 120.784 11.7773 120.966 11.432 121.33C11.0773 121.685 10.9 122.137 10.9 122.688C10.9 123.229 11.0773 123.682 11.432 124.046C11.7773 124.41 12.286 124.592 12.958 124.592L13.098 124.592C13.77 124.592 14.2833 124.41 14.638 124.046C14.9833 123.682 15.156 123.229 15.156 122.688ZM16.696 114.936C16.696 115.431 16.612 115.874 16.444 116.266C16.2667 116.658 16.0147 116.971 15.688 117.204C15.352 117.428 14.946 117.54 14.47 117.54C13.994 117.54 13.5973 117.428 13.28 117.204C12.9533 116.971 12.7107 116.654 12.552 116.252C12.384 115.842 12.3 115.375 12.3 114.852L12.3 112.948L11.908 112.948C11.5813 112.948 11.3153 113.051 11.11 113.256C10.8953 113.462 10.788 113.788 10.788 114.236C10.788 114.675 10.8907 115.002 11.096 115.216C11.292 115.431 11.5487 115.571 11.866 115.636L11.32 117.26C10.9653 117.148 10.6433 116.971 10.354 116.728C10.0553 116.476 9.81733 116.145 9.64 115.734C9.45333 115.314 9.36 114.806 9.36 114.208C9.36 113.294 9.58867 112.57 10.046 112.038C10.5033 111.506 11.166 111.24 12.034 111.24L14.624 111.24C14.904 111.24 15.044 111.11 15.044 110.848L15.044 110.288L16.5 110.288L16.5 111.464C16.5 111.81 16.416 112.094 16.248 112.318C16.08 112.542 15.856 112.654 15.576 112.654L15.562 112.654L15.562 112.92C15.674 112.958 15.8233 113.042 16.01 113.172C16.1873 113.303 16.346 113.508 16.486 113.788C16.626 114.068 16.696 114.451 16.696 114.936ZM15.268 114.628C15.268 114.134 15.1327 113.732 14.862 113.424C14.582 113.107 14.2133 112.948 13.756 112.948L13.616 112.948L13.616 114.726C13.616 115.053 13.686 115.31 13.826 115.496C13.966 115.683 14.162 115.776 14.414 115.776C14.666 115.776 14.8713 115.678 15.03 115.482C15.1887 115.286 15.268 115.002 15.268 114.628ZM16.5 105.5L6.7 105.5L6.7 101.986L15.24 100.04L15.24 99.7878L6.7 99.7878L6.7 97.9678L16.5 97.9678L16.5 101.482L7.96 103.428L7.96 103.68L16.5 103.68L16.5 105.5ZM16.696 92.7609C16.696 93.4516 16.556 94.0723 16.276 94.6229C15.996 95.1736 15.59 95.6076 15.058 95.9249C14.526 96.2423 13.8867 96.4009 13.14 96.4009L12.916 96.4009C12.1693 96.4009 11.53 96.2423 10.998 95.9249C10.466 95.6076 10.06 95.1736 9.78 94.6229C9.5 94.0723 9.36 93.4516 9.36 92.7609C9.36 92.0703 9.5 91.4496 9.78 90.8989C10.06 90.3483 10.466 89.9143 10.998 89.5969C11.53 89.2796 12.1693 89.1209 12.916 89.1209L13.14 89.1209C13.8867 89.1209 14.526 89.2796 15.058 89.5969C15.59 89.9143 15.996 90.3483 16.276 90.8989C16.556 91.4496 16.696 92.0703 16.696 92.7609ZM15.128 92.7609C15.128 92.2196 14.9553 91.7716 14.61 91.4169C14.2553 91.0623 13.7513 90.8849 13.098 90.8849L12.958 90.8849C12.3047 90.8849 11.8053 91.0623 11.46 91.4169C11.1053 91.7623 10.928 92.2103 10.928 92.7609C10.928 93.3023 11.1053 93.7503 11.46 94.1049C11.8053 94.4596 12.3047 94.6369 12.958 94.6369L13.098 94.6369C13.7513 94.6369 14.2553 94.4596 14.61 94.1049C14.9553 93.7503 15.128 93.3023 15.128 92.7609ZM16.5 86.2281L9.556 88.4401L9.556 86.5641L15.212 84.9541L15.212 84.7021L9.556 83.0921L9.556 81.2161L16.5 83.4281L16.5 86.2281ZM16.696 77.0415C16.696 77.7322 16.5513 78.3435 16.262 78.8755C15.9633 79.3982 15.548 79.8089 15.016 80.1075C14.4747 80.3969 13.84 80.5415 13.112 80.5415L12.944 80.5415C12.216 80.5415 11.586 80.3969 11.054 80.1075C10.5127 79.8182 10.0973 79.4122 9.808 78.8895C9.50933 78.3669 9.36 77.7602 9.36 77.0695C9.36 76.3882 9.514 75.7955 9.822 75.2915C10.1207 74.7875 10.5407 74.3955 11.082 74.1155C11.614 73.8355 12.2347 73.6955 12.944 73.6955L13.546 73.6955L13.546 78.7495C14.022 78.7309 14.4093 78.5535 14.708 78.2175C15.0067 77.8815 15.156 77.4709 15.156 76.9855C15.156 76.4909 15.0487 76.1269 14.834 75.8935C14.6193 75.6602 14.3813 75.4829 14.12 75.3615L14.876 73.9195C15.1187 74.0502 15.3847 74.2415 15.674 74.4935C15.954 74.7362 16.1967 75.0629 16.402 75.4735C16.598 75.8842 16.696 76.4069 16.696 77.0415ZM12.23 78.7355L12.23 75.4875C11.8287 75.5249 11.5067 75.6882 11.264 75.9775C11.0213 76.2575 10.9 76.6262 10.9 77.0835C10.9 77.5595 11.0213 77.9375 11.264 78.2175C11.5067 78.4975 11.8287 78.6702 12.23 78.7355ZM16.5 72.1255L9.556 72.1255L9.556 70.3895L10.312 70.3895L10.312 70.1375C10.0787 70.0161 9.878 69.8155 9.71 69.5355C9.53267 69.2555 9.444 68.8868 9.444 68.4295C9.444 67.9348 9.542 67.5381 9.738 67.2395C9.92467 66.9408 10.172 66.7121 10.48 66.5535L10.48 66.3015C10.1813 66.1428 9.934 65.9188 9.738 65.6295C9.542 65.3401 9.444 64.9295 9.444 64.3975C9.444 63.9681 9.53733 63.5808 9.724 63.2355C9.90133 62.8808 10.1767 62.6008 10.55 62.3955C10.914 62.1808 11.376 62.0735 11.936 62.0735L16.5 62.0735L16.5 63.8375L12.062 63.8375C11.6793 63.8375 11.3947 63.9355 11.208 64.1315C11.012 64.3275 10.914 64.6028 10.914 64.9575C10.914 65.3588 11.0447 65.6715 11.306 65.8955C11.558 66.1101 11.922 66.2175 12.398 66.2175L16.5 66.2175L16.5 67.9815L12.062 67.9815C11.6793 67.9815 11.3947 68.0795 11.208 68.2755C11.012 68.4715 10.914 68.7468 10.914 69.1015C10.914 69.5028 11.0447 69.8155 11.306 70.0395C11.558 70.2541 11.922 70.3615 12.398 70.3615L16.5 70.3615L16.5 72.1255ZM16.696 56.0042C16.696 56.6296 16.5887 57.1102 16.374 57.4462C16.1593 57.7822 15.9213 58.0296 15.66 58.1882L15.66 58.4403L16.5 58.4403L16.5 60.1763L6.7 60.1763L6.7 58.4122L10.354 58.4122L10.354 58.1602C10.186 58.0576 10.0273 57.9222 9.878 57.7542C9.72867 57.5769 9.60733 57.3482 9.514 57.0682C9.41133 56.7789 9.36 56.4242 9.36 56.0042C9.36 55.4442 9.5 54.9262 9.78 54.4502C10.0507 53.9742 10.452 53.5916 10.984 53.3022C11.516 53.0129 12.16 52.8683 12.916 52.8683L13.14 52.8683C13.896 52.8683 14.54 53.0129 15.072 53.3022C15.604 53.5916 16.01 53.9742 16.29 54.4502C16.5607 54.9262 16.696 55.4442 16.696 56.0042ZM15.156 56.5362C15.156 55.9949 14.9833 55.5422 14.638 55.1782C14.2833 54.8142 13.77 54.6322 13.098 54.6322L12.958 54.6322C12.286 54.6322 11.7773 54.8142 11.432 55.1782C11.0773 55.5329 10.9 55.9856 10.9 56.5362C10.9 57.0776 11.0773 57.5302 11.432 57.8942C11.7773 58.2583 12.286 58.4403 12.958 58.4403L13.098 58.4403C13.77 58.4403 14.2833 58.2583 14.638 57.8943C14.9833 57.5302 15.156 57.0776 15.156 56.5362ZM16.5 51.2485L9.556 51.2485L9.556 49.5125L10.34 49.5125L10.34 49.2605C10.06 49.1578 9.85467 48.9898 9.724 48.7565C9.59333 48.5138 9.528 48.2338 9.528 47.9165L9.528 47.0765L11.096 47.0765L11.096 47.9445C11.096 48.3925 11.2173 48.7612 11.46 49.0505C11.6933 49.3398 12.0573 49.4845 12.552 49.4845L16.5 49.4845L16.5 51.2485ZM16.696 42.7798C16.696 43.4705 16.5513 44.0818 16.262 44.6138C15.9633 45.1365 15.548 45.5472 15.016 45.8458C14.4747 46.1352 13.84 46.2798 13.112 46.2798L12.944 46.2798C12.216 46.2798 11.586 46.1352 11.054 45.8458C10.5127 45.5565 10.0973 45.1505 9.808 44.6278C9.50933 44.1052 9.36 43.4985 9.36 42.8078C9.36 42.1265 9.514 41.5338 9.822 41.0298C10.1207 40.5258 10.5407 40.1338 11.082 39.8538C11.614 39.5738 12.2347 39.4338 12.944 39.4338L13.546 39.4338L13.546 44.4878C14.022 44.4692 14.4093 44.2918 14.708 43.9558C15.0067 43.6198 15.156 43.2092 15.156 42.7238C15.156 42.2292 15.0487 41.8652 14.834 41.6318C14.6193 41.3985 14.3813 41.2212 14.12 41.0998L14.876 39.6578C15.1187 39.7885 15.3847 39.9798 15.674 40.2318C15.954 40.4745 16.1967 40.8012 16.402 41.2118C16.598 41.6225 16.696 42.1452 16.696 42.7798ZM12.23 44.4738L12.23 41.2258C11.8287 41.2632 11.5067 41.4265 11.264 41.7158C11.0213 41.9958 10.9 42.3645 10.9 42.8218C10.9 43.2978 11.0213 43.6758 11.264 43.9558C11.5067 44.2358 11.8287 44.4085 12.23 44.4738ZM16.5 34.7011L15.324 34.7011C14.6427 34.7011 14.078 34.5891 13.63 34.3651C13.1727 34.1411 12.7993 33.8191 12.51 33.3991C12.2113 32.9697 11.9687 32.4471 11.782 31.8311L11.488 30.8931C11.376 30.5477 11.2407 30.2584 11.082 30.0251C10.914 29.7917 10.7133 29.6144 10.48 29.4931C10.2467 29.3624 9.98067 29.2971 9.682 29.2971L9.626 29.2971C9.15933 29.2971 8.79067 29.4557 8.52 29.7731C8.24 30.0904 8.1 30.5244 8.1 31.0751C8.1 31.6164 8.24933 32.0551 8.548 32.3911C8.83733 32.7177 9.25733 32.8811 9.808 32.8811L10.06 32.8811L10.06 34.6731L9.836 34.6731C9.12667 34.6731 8.52467 34.5144 8.03 34.1971C7.53533 33.8797 7.15733 33.4504 6.896 32.9091C6.63467 32.3584 6.504 31.7471 6.504 31.0751C6.504 30.4031 6.63467 29.7964 6.896 29.2551C7.148 28.7137 7.50733 28.2891 7.974 27.9811C8.43133 27.6637 8.97267 27.5051 9.598 27.5051L9.738 27.5051C10.3633 27.5051 10.8953 27.6357 11.334 27.8971C11.7633 28.1491 12.118 28.4944 12.398 28.9331C12.6687 29.3717 12.8927 29.8711 13.07 30.4311L13.35 31.3271C13.4713 31.7284 13.6067 32.0411 13.756 32.2651C13.896 32.4891 14.0547 32.6477 14.232 32.7411C14.4 32.8251 14.6053 32.8671 14.848 32.8671L14.904 32.8671L14.904 27.5891L16.5 27.5891L16.5 34.7011ZM16.696 22.4406C16.696 23.5979 16.3787 24.5266 15.744 25.2266C15.1 25.9266 14.1293 26.2766 12.832 26.2766L10.368 26.2766C9.108 26.2766 8.15133 25.9266 7.498 25.2266C6.83533 24.5266 6.504 23.5979 6.504 22.4406C6.504 21.2739 6.83533 20.3452 7.498 19.6546C8.15133 18.9546 9.108 18.6046 10.368 18.6046L12.832 18.6046C14.1293 18.6046 15.1 18.9546 15.744 19.6546C16.3787 20.3452 16.696 21.2739 16.696 22.4406ZM15.1 22.4406C15.1 21.7406 14.9087 21.2272 14.526 20.9006C14.1433 20.5646 13.5973 20.3966 12.888 20.3966L10.284 20.3966C9.56533 20.3966 9.024 20.5832 8.66 20.9566C8.28667 21.3206 8.1 21.8152 8.1 22.4406C8.1 23.0846 8.29133 23.5886 8.674 23.9526C9.05667 24.3072 9.59333 24.4846 10.284 24.4846L12.888 24.4846C13.6253 24.4846 14.1807 24.3166 14.554 23.9806C14.918 23.6352 15.1 23.1219 15.1 22.4406ZM16.5 14.2864L8.016 14.2864L8.016 14.5384L11.124 15.8544L11.124 17.7304L6.7 15.7284L6.7 12.4944L16.5 12.4944L16.5 14.2864ZM16.696 7.36836C16.696 8.09636 16.5747 8.73103 16.332 9.27236C16.0893 9.80436 15.7393 10.2197 15.282 10.5184C14.8247 10.8077 14.2787 10.9524 13.644 10.9524L13.644 9.13236C14.036 9.13236 14.3767 8.99703 14.666 8.72636C14.9553 8.44636 15.1 7.99369 15.1 7.36836C15.1 6.73369 14.9367 6.24836 14.61 5.91236C14.274 5.57636 13.8213 5.40836 13.252 5.40836L12.244 5.40836L12.244 5.66036C12.4307 5.81903 12.608 6.06169 12.776 6.38836C12.944 6.70569 13.028 7.18169 13.028 7.81636C13.028 8.37636 12.9067 8.89903 12.664 9.38436C12.4213 9.86969 12.0713 10.2617 11.614 10.5604C11.1473 10.859 10.5873 11.0084 9.934 11.0084L9.766 11.0084C9.11267 11.0084 8.54333 10.8544 8.058 10.5464C7.57267 10.2384 7.19467 9.80436 6.924 9.24436C6.644 8.68436 6.504 8.03103 6.504 7.28436C6.504 6.53769 6.644 5.88903 6.924 5.33836C7.204 4.78769 7.59133 4.36303 8.086 4.06436C8.58067 3.76569 9.15 3.61636 9.794 3.61636L13.14 3.61636C13.9333 3.61636 14.596 3.77969 15.128 4.10636C15.6507 4.42369 16.0427 4.86703 16.304 5.43636C16.5653 5.99636 16.696 6.64036 16.696 7.36836ZM11.6 7.31236C11.6 6.92036 11.53 6.58436 11.39 6.30436C11.25 6.01503 11.054 5.79569 10.802 5.64636C10.55 5.48769 10.2513 5.40836 9.906 5.40836L9.794 5.40836C9.27133 5.40836 8.86067 5.58103 8.562 5.92636C8.254 6.26236 8.1 6.72436 8.1 7.31236C8.1 7.90036 8.254 8.36703 8.562 8.71236C8.86067 9.04836 9.27133 9.21636 9.794 9.21636L9.906 9.21636C10.2513 9.21636 10.55 9.14169 10.802 8.99236C11.054 8.83369 11.25 8.60969 11.39 8.32036C11.53 8.03103 11.6 7.69503 11.6 7.31236Z" fill="#24262F"/>
</svg>
