<svg width="163" height="32" viewBox="0 0 163 32" fill="none" xmlns="http://www.w3.org/2000/svg">
<path d="M0 26.2183H7.32738V25.0161C6.18247 24.9589 6.06798 24.5009 6.06798 23.356V0H4.92308L0 2.34705V3.09124L1.25939 4.29339V23.356C1.25939 24.5009 1.20215 24.9589 0 25.0161V26.2183Z" fill="white"/>
<path d="M15.227 17.059V22.1539C15.227 23.2415 14.5973 24.1002 13.6814 24.1002C12.7082 24.1002 12.2503 23.2988 12.2503 21.6386C12.2503 19.6351 12.8227 18.7764 13.9676 17.975L15.227 17.059ZM12.88 10.3614C14.5401 10.3614 15.2843 11.1628 15.2843 13.1664V15.5707L12.3648 16.8873C9.15904 18.3184 7.78516 19.7496 7.78516 22.3828C7.78516 25.1306 9.617 26.5617 12.0213 26.5617C13.4524 26.5617 14.8836 25.703 15.6277 24.3292C15.9712 25.703 17.0016 26.5617 18.5472 26.5617C19.8639 26.5617 21.066 25.9893 21.6385 25.2451V24.0429C21.4095 24.1574 21.1805 24.2719 20.9515 24.2719C20.4363 24.2719 20.2074 23.8712 20.2074 22.8408V14.3113C20.2074 10.6476 18.032 8.81573 13.7959 8.81573C10.4757 8.81573 8.30036 10.4758 8.30036 12.7657C8.30036 14.025 9.15904 15.2272 10.7047 15.2272C12.0785 15.2272 12.8227 14.3113 12.8227 13.2236C12.8227 11.7925 11.5633 11.5063 11.5633 11.0483C11.4488 10.5903 12.0785 10.3614 12.88 10.3614Z" fill="white"/>
<path d="M35.2632 2.28982H35.6639C38.5834 2.28982 39.3276 3.83544 39.3276 7.55637C39.3276 11.2773 38.5834 12.365 35.5494 12.365H35.2059V2.28982H35.2632ZM39.1558 13.3381C43.163 12.5367 44.9948 10.4186 44.9948 7.38464C44.9948 3.26299 42.1898 0.744202 36.4653 0.744202H27.8213V1.94635C29.5959 2.06084 29.7676 2.63329 29.7676 4.35065V22.6118C29.7676 24.2719 29.3669 24.8444 27.8213 25.0161V26.2183H37.1522V25.0161C35.6066 24.9016 35.2059 24.2719 35.2059 22.6118V13.9106H35.7211C36.9233 13.9106 37.8964 14.3685 38.2399 15.4562C38.7551 17.2308 38.7551 21.009 39.442 23.4705C40.129 25.7603 41.7891 26.3328 43.9072 26.3328C45.5673 26.3328 46.7122 25.8176 47.1701 25.5313L47.1129 24.3292C45.6818 24.6727 45.1093 24.1002 44.4796 20.0358C43.8499 15.6279 42.3616 14.0251 39.1558 13.3381Z" fill="white"/>
<path d="M50.3758 16.3148H59.0771V15.7424C59.0771 11.3345 56.6728 8.81573 53.4098 8.81573C49.5744 8.81573 46.5977 12.3077 46.5977 17.975C46.5977 23.356 49.4599 26.619 53.3526 26.619C56.2148 26.619 58.1039 25.1306 59.2488 22.2111L58.1612 21.4669C57.3597 22.7835 56.5583 23.4705 55.1844 23.4705C52.8946 23.4705 51.2918 20.8945 51.2918 15.3417C51.2918 11.449 52.0932 10.3614 53.1236 10.3614C53.9823 10.3614 54.6692 11.449 54.6692 14.3113V14.8265H50.3758V16.3148Z" fill="white"/>
<path d="M65.7746 13.8533C65.7746 12.4794 66.5188 11.5063 67.5492 11.5063C68.9804 11.5063 69.4383 13.6816 69.4383 18.8336C69.4383 23.0125 69.1521 25.0734 67.4348 25.0734C66.2326 25.0734 65.7174 24.1002 65.7174 22.4401V13.8533H65.7746ZM59.6494 32H67.0913V30.7979C65.8319 30.7406 65.7746 30.2827 65.7746 29.1378V26.2183C66.4043 26.4472 67.2058 26.619 68.0072 26.619C72.0716 26.619 74.6476 22.9553 74.6476 16.8873C74.6476 11.5063 72.5868 8.87298 69.7246 8.87298C68.0072 8.87298 66.7478 9.73166 65.7746 11.1055V8.81573H64.6297L59.7067 10.8193V11.5635L60.966 12.7657V29.1378C60.966 30.2827 60.9088 30.7406 59.6494 30.7979V32Z" fill="white"/>
<path d="M81.0017 8.81573H79.8568L74.8765 9.96064V10.991C75.9641 11.1628 76.1359 11.9642 76.1359 13.5671V20.9517C76.1359 24.9016 77.8532 26.619 80.3148 26.619C81.9749 26.619 83.2915 25.7031 84.1502 24.2719V26.3327H85.1233L90.1037 25.5886V24.3864C89.0733 24.1574 88.9588 23.8712 88.9588 22.1539V8.81573H87.8139L83.0625 9.96064V10.991C84.0357 11.3918 84.1502 12.136 84.1502 13.5671V21.6959C84.1502 22.898 83.406 23.8712 82.3183 23.8712C81.3452 23.8712 80.9445 23.1843 80.9445 22.0394V8.81573H81.0017Z" fill="white"/>
<path d="M96.1716 13.8533C96.1716 12.4794 96.9158 11.5063 97.9462 11.5063C99.3773 11.5063 99.8925 13.6816 99.8925 18.8336C99.8925 23.0125 99.6063 25.0734 97.889 25.0734C96.6868 25.0734 96.1716 24.2719 96.1716 22.8408V13.8533ZM98.0607 26.619C102.411 26.619 104.987 22.9553 104.987 16.8873C104.987 11.5063 102.927 8.873 100.007 8.873C98.3469 8.873 97.0303 9.73167 96.1144 11.1056V0H94.9695L90.0464 2.34705V3.09124L91.3058 4.29338V24.2147C92.6224 25.5313 94.9695 26.619 98.0607 26.619Z" fill="white"/>
<path d="M110.998 13.8533C110.998 12.4794 111.742 11.5063 112.773 11.5063C114.204 11.5063 114.662 13.6816 114.662 18.8336C114.662 23.0125 114.376 25.0734 112.658 25.0734C111.456 25.0734 110.941 24.2719 110.941 22.8408V13.8533H110.998ZM112.944 26.619C117.295 26.619 119.871 22.9553 119.871 16.8873C119.871 11.5063 117.81 8.873 114.891 8.873C113.231 8.873 111.914 9.73167 110.998 11.1056V0H109.853L104.93 2.34705V3.09124L106.19 4.29338V24.2147C107.506 25.5313 109.853 26.619 112.944 26.619Z" fill="white"/>
<path d="M120.444 26.2183H127.771V25.0161C126.626 24.9589 126.512 24.5009 126.512 23.356V0H125.367L120.444 2.34705V3.09124L121.703 4.29339V23.356C121.703 24.5009 121.646 24.9589 120.444 25.0161V26.2183Z" fill="white"/>
<path d="M129.374 3.83536C129.374 5.26649 130.576 6.46864 132.065 6.46864C133.496 6.46864 134.755 5.32374 134.755 3.83536C134.755 2.34699 133.553 1.20209 132.065 1.20209C130.576 1.20209 129.374 2.40424 129.374 3.83536ZM128.344 26.2182H135.671V25.0161C134.526 24.9588 134.412 24.5009 134.412 23.356V8.81569H133.267L128.344 10.8193V11.5635L129.603 12.7656V23.356C129.603 24.5009 129.546 24.9588 128.344 25.0161V26.2182Z" fill="white"/>
<path d="M143.285 10.3613C144.086 10.3613 144.659 10.6475 144.659 11.1055C144.659 11.5634 143.456 11.8497 143.456 13.2808C143.456 14.3685 144.086 15.2844 145.517 15.2844C147.063 15.2844 147.864 14.025 147.864 12.7083C147.864 10.3613 145.918 8.87292 143.17 8.87292C139.163 8.87292 135.843 11.9642 135.843 18.3184C135.843 23.2987 138.533 26.6762 142.483 26.6762C145.345 26.6762 146.719 24.7298 147.635 22.3828L146.032 21.5241C145.288 23.2415 144.659 24.1574 143.399 24.1574C141.396 24.1574 140.537 21.5241 140.537 16.0858C140.537 11.449 141.682 10.3613 143.285 10.3613Z" fill="white"/>
<path d="M155.879 17.059V22.1539C155.879 23.2415 155.249 24.1002 154.333 24.1002C153.36 24.1002 152.902 23.2988 152.902 21.6386C152.902 19.6351 153.474 18.7764 154.619 17.975L155.879 17.059ZM153.474 10.3614C155.134 10.3614 155.879 11.1628 155.879 13.1664V15.5707L152.959 16.8873C149.753 18.3184 148.379 19.7496 148.379 22.3828C148.379 25.1306 150.211 26.5617 152.616 26.5617C154.047 26.5617 155.478 25.703 156.222 24.3292C156.565 25.703 157.596 26.5617 159.141 26.5617C160.458 26.5617 161.66 25.9893 162.233 25.2451V24.0429C162.004 24.1574 161.775 24.2719 161.546 24.2719C161.031 24.2719 160.802 23.8712 160.802 22.8408V14.3113C160.802 10.6476 158.626 8.81573 154.39 8.81573C151.07 8.81573 148.895 10.4758 148.895 12.7657C148.895 14.025 149.753 15.2272 151.299 15.2272C152.673 15.2272 153.417 14.3113 153.417 13.2236C153.417 11.7925 152.158 11.5063 152.158 11.0483C152.043 10.5903 152.673 10.3614 153.474 10.3614Z" fill="white"/>
</svg>
