<svg width="24" height="159" viewBox="0 0 24 159" fill="none" xmlns="http://www.w3.org/2000/svg">
<rect x="0.5" y="158.5" width="158" height="23" rx="11.5" transform="rotate(-90 0.5 158.5)" fill="white" stroke="#24262F"/>
<circle cx="12" cy="147" r="11.5" transform="rotate(-90 12 147)" fill="white" stroke="#24262F"/>
<path d="M13.383 151.456L17.095 147.744L17.095 146.32L13.383 142.608L12.199 143.792L14.135 145.712L14.647 146.064L14.599 146.208L13.975 146.144L5.79902 146.144L5.79902 147.92L13.975 147.92L14.599 147.856L14.647 148L14.135 148.352L12.199 150.272L13.383 151.456Z" fill="#24262F"/>
<path d="M16.696 128.22C16.696 128.771 16.5607 129.289 16.29 129.774C16.01 130.25 15.604 130.633 15.072 130.922C14.54 131.211 13.896 131.356 13.14 131.356L12.916 131.356C12.16 131.356 11.516 131.211 10.984 130.922C10.452 130.633 10.0507 130.25 9.78 129.774C9.5 129.298 9.36 128.78 9.36 128.22C9.36 127.8 9.41133 127.45 9.514 127.17C9.60733 126.881 9.72867 126.647 9.878 126.47C10.0273 126.293 10.186 126.157 10.354 126.064L10.354 125.812L6.7 125.812L6.7 124.048L16.5 124.048L16.5 125.784L15.66 125.784L15.66 126.036C15.9213 126.195 16.1593 126.442 16.374 126.778C16.5887 127.105 16.696 127.585 16.696 128.22ZM15.156 127.688C15.156 127.147 14.9833 126.694 14.638 126.33C14.2833 125.966 13.77 125.784 13.098 125.784L12.958 125.784C12.286 125.784 11.7773 125.966 11.432 126.33C11.0773 126.685 10.9 127.137 10.9 127.688C10.9 128.229 11.0773 128.682 11.432 129.046C11.7773 129.41 12.286 129.592 12.958 129.592L13.098 129.592C13.77 129.592 14.2833 129.41 14.638 129.046C14.9833 128.682 15.156 128.229 15.156 127.688ZM16.696 119.936C16.696 120.431 16.612 120.874 16.444 121.266C16.2667 121.658 16.0147 121.971 15.688 122.204C15.352 122.428 14.946 122.54 14.47 122.54C13.994 122.54 13.5973 122.428 13.28 122.204C12.9533 121.971 12.7107 121.654 12.552 121.252C12.384 120.842 12.3 120.375 12.3 119.852L12.3 117.948L11.908 117.948C11.5813 117.948 11.3153 118.051 11.11 118.256C10.8953 118.462 10.788 118.788 10.788 119.236C10.788 119.675 10.8907 120.002 11.096 120.216C11.292 120.431 11.5487 120.571 11.866 120.636L11.32 122.26C10.9653 122.148 10.6433 121.971 10.354 121.728C10.0553 121.476 9.81733 121.145 9.64 120.734C9.45333 120.314 9.36 119.806 9.36 119.208C9.36 118.294 9.58867 117.57 10.046 117.038C10.5033 116.506 11.166 116.24 12.034 116.24L14.624 116.24C14.904 116.24 15.044 116.11 15.044 115.848L15.044 115.288L16.5 115.288L16.5 116.464C16.5 116.81 16.416 117.094 16.248 117.318C16.08 117.542 15.856 117.654 15.576 117.654L15.562 117.654L15.562 117.92C15.674 117.958 15.8233 118.042 16.01 118.172C16.1873 118.303 16.346 118.508 16.486 118.788C16.626 119.068 16.696 119.451 16.696 119.936ZM15.268 119.628C15.268 119.134 15.1327 118.732 14.862 118.424C14.582 118.107 14.2133 117.948 13.756 117.948L13.616 117.948L13.616 119.726C13.616 120.053 13.686 120.31 13.826 120.496C13.966 120.683 14.162 120.776 14.414 120.776C14.666 120.776 14.8713 120.678 15.03 120.482C15.1887 120.286 15.268 120.002 15.268 119.628ZM16.5 110.444L9.556 110.444L9.556 108.708L10.466 108.708L10.466 108.456C10.2233 108.344 9.99467 108.134 9.78 107.826C9.556 107.518 9.444 107.051 9.444 106.426C9.444 105.884 9.57 105.413 9.822 105.012C10.0647 104.601 10.4053 104.284 10.844 104.06C11.2733 103.836 11.7773 103.724 12.356 103.724L16.5 103.724L16.5 105.488L12.496 105.488C11.9733 105.488 11.5813 105.618 11.32 105.88C11.0587 106.132 10.928 106.496 10.928 106.972C10.928 107.513 11.11 107.933 11.474 108.232C11.8287 108.53 12.328 108.68 12.972 108.68L16.5 108.68L16.5 110.444ZM16.696 98.5129C16.696 99.2035 16.556 99.8242 16.276 100.375C15.996 100.926 15.59 101.36 15.058 101.677C14.526 101.994 13.8867 102.153 13.14 102.153L12.916 102.153C12.1693 102.153 11.53 101.994 10.998 101.677C10.466 101.36 10.06 100.926 9.78 100.375C9.5 99.8242 9.36 99.2035 9.36 98.5129C9.36 97.8222 9.5 97.2015 9.78 96.6509C10.06 96.1002 10.466 95.6662 10.998 95.3489C11.53 95.0315 12.1693 94.8729 12.916 94.8729L13.14 94.8729C13.8867 94.8729 14.526 95.0315 15.058 95.3489C15.59 95.6662 15.996 96.1002 16.276 96.6509C16.556 97.2015 16.696 97.8222 16.696 98.5129ZM15.128 98.5129C15.128 97.9715 14.9553 97.5235 14.61 97.1689C14.2553 96.8142 13.7513 96.6369 13.098 96.6369L12.958 96.6369C12.3047 96.6369 11.8053 96.8142 11.46 97.1689C11.1053 97.5142 10.928 97.9622 10.928 98.5129C10.928 99.0542 11.1053 99.5022 11.46 99.8569C11.8053 100.212 12.3047 100.389 12.958 100.389L13.098 100.389C13.7513 100.389 14.2553 100.212 14.61 99.8569C14.9553 99.5022 15.128 99.0542 15.128 98.5129ZM16.5 91.98L9.556 94.192L9.556 92.316L15.212 90.706L15.212 90.454L9.556 88.844L9.556 86.968L16.5 89.18L16.5 91.98ZM16.696 82.7935C16.696 83.4842 16.5513 84.0955 16.262 84.6275C15.9633 85.1502 15.548 85.5608 15.016 85.8595C14.4747 86.1488 13.84 86.2935 13.112 86.2935L12.944 86.2935C12.216 86.2935 11.586 86.1488 11.054 85.8595C10.5127 85.5702 10.0973 85.1642 9.808 84.6415C9.50933 84.1188 9.36 83.5122 9.36 82.8215C9.36 82.1402 9.514 81.5475 9.822 81.0435C10.1207 80.5395 10.5407 80.1475 11.082 79.8675C11.614 79.5875 12.2347 79.4475 12.944 79.4475L13.546 79.4475L13.546 84.5015C14.022 84.4828 14.4093 84.3055 14.708 83.9695C15.0067 83.6335 15.156 83.2228 15.156 82.7375C15.156 82.2428 15.0487 81.8788 14.834 81.6455C14.6193 81.4122 14.3813 81.2348 14.12 81.1135L14.876 79.6715C15.1187 79.8022 15.3847 79.9935 15.674 80.2455C15.954 80.4882 16.1967 80.8148 16.402 81.2255C16.598 81.6362 16.696 82.1588 16.696 82.7935ZM12.23 84.4875L12.23 81.2395C11.8287 81.2768 11.5067 81.4402 11.264 81.7295C11.0213 82.0095 10.9 82.3782 10.9 82.8355C10.9 83.3115 11.0213 83.6895 11.264 83.9695C11.5067 84.2495 11.8287 84.4222 12.23 84.4875ZM16.5 77.8774L9.556 77.8774L9.556 76.1414L10.312 76.1414L10.312 75.8894C10.0787 75.7681 9.878 75.5674 9.71 75.2874C9.53267 75.0074 9.444 74.6388 9.444 74.1814C9.444 73.6868 9.542 73.2901 9.738 72.9914C9.92467 72.6928 10.172 72.4641 10.48 72.3054L10.48 72.0534C10.1813 71.8948 9.934 71.6708 9.738 71.3814C9.542 71.0921 9.444 70.6814 9.444 70.1494C9.444 69.7201 9.53733 69.3328 9.724 68.9874C9.90133 68.6328 10.1767 68.3528 10.55 68.1474C10.914 67.9328 11.376 67.8254 11.936 67.8254L16.5 67.8254L16.5 69.5894L12.062 69.5894C11.6793 69.5894 11.3947 69.6874 11.208 69.8834C11.012 70.0794 10.914 70.3548 10.914 70.7094C10.914 71.1108 11.0447 71.4234 11.306 71.6474C11.558 71.8621 11.922 71.9694 12.398 71.9694L16.5 71.9694L16.5 73.7334L12.062 73.7334C11.6793 73.7334 11.3947 73.8314 11.208 74.0274C11.012 74.2234 10.914 74.4988 10.914 74.8534C10.914 75.2548 11.0447 75.5674 11.306 75.7914C11.558 76.0061 11.922 76.1134 12.398 76.1134L16.5 76.1134L16.5 77.8774ZM16.696 61.7562C16.696 62.3815 16.5887 62.8622 16.374 63.1982C16.1593 63.5342 15.9213 63.7815 15.66 63.9402L15.66 64.1922L16.5 64.1922L16.5 65.9282L6.7 65.9282L6.7 64.1642L10.354 64.1642L10.354 63.9122C10.186 63.8095 10.0273 63.6742 9.878 63.5062C9.72867 63.3289 9.60733 63.1002 9.514 62.8202C9.41133 62.5309 9.36 62.1762 9.36 61.7562C9.36 61.1962 9.5 60.6782 9.78 60.2022C10.0507 59.7262 10.452 59.3435 10.984 59.0542C11.516 58.7649 12.16 58.6202 12.916 58.6202L13.14 58.6202C13.896 58.6202 14.54 58.7649 15.072 59.0542C15.604 59.3435 16.01 59.7262 16.29 60.2022C16.5607 60.6782 16.696 61.1962 16.696 61.7562ZM15.156 62.2882C15.156 61.7469 14.9833 61.2942 14.638 60.9302C14.2833 60.5662 13.77 60.3842 13.098 60.3842L12.958 60.3842C12.286 60.3842 11.7773 60.5662 11.432 60.9302C11.0773 61.2849 10.9 61.7375 10.9 62.2882C10.9 62.8295 11.0773 63.2822 11.432 63.6462C11.7773 64.0102 12.286 64.1922 12.958 64.1922L13.098 64.1922C13.77 64.1922 14.2833 64.0102 14.638 63.6462C14.9833 63.2822 15.156 62.8295 15.156 62.2882ZM16.5 57.0005L9.556 57.0005L9.556 55.2645L10.34 55.2645L10.34 55.0125C10.06 54.9098 9.85467 54.7418 9.724 54.5085C9.59333 54.2658 9.528 53.9858 9.528 53.6685L9.528 52.8285L11.096 52.8285L11.096 53.6965C11.096 54.1445 11.2173 54.5131 11.46 54.8025C11.6933 55.0918 12.0573 55.2365 12.552 55.2365L16.5 55.2365L16.5 57.0005ZM16.696 48.5318C16.696 49.2224 16.5513 49.8338 16.262 50.3658C15.9633 50.8884 15.548 51.2991 15.016 51.5978C14.4747 51.8871 13.84 52.0318 13.112 52.0318L12.944 52.0318C12.216 52.0318 11.586 51.8871 11.054 51.5978C10.5127 51.3084 10.0973 50.9024 9.808 50.3798C9.50933 49.8571 9.36 49.2504 9.36 48.5598C9.36 47.8784 9.514 47.2858 9.822 46.7818C10.1207 46.2778 10.5407 45.8858 11.082 45.6058C11.614 45.3258 12.2347 45.1858 12.944 45.1858L13.546 45.1858L13.546 50.2398C14.022 50.2211 14.4093 50.0438 14.708 49.7078C15.0067 49.3718 15.156 48.9611 15.156 48.4758C15.156 47.9811 15.0487 47.6171 14.834 47.3838C14.6193 47.1504 14.3813 46.9731 14.12 46.8518L14.876 45.4098C15.1187 45.5404 15.3847 45.7318 15.674 45.9838C15.954 46.2264 16.1967 46.5531 16.402 46.9638C16.598 47.3744 16.696 47.8971 16.696 48.5318ZM12.23 50.2258L12.23 46.9778C11.8287 47.0151 11.5067 47.1784 11.264 47.4678C11.0213 47.7478 10.9 48.1164 10.9 48.5738C10.9 49.0498 11.0213 49.4278 11.264 49.7078C11.5067 49.9878 11.8287 50.1604 12.23 50.2258ZM16.5 40.453L15.324 40.453C14.6427 40.453 14.078 40.341 13.63 40.117C13.1727 39.893 12.7993 39.571 12.51 39.151C12.2113 38.7217 11.9687 38.199 11.782 37.583L11.488 36.645C11.376 36.2997 11.2407 36.0103 11.082 35.777C10.914 35.5437 10.7133 35.3663 10.48 35.245C10.2467 35.1143 9.98067 35.049 9.682 35.049L9.626 35.049C9.15933 35.049 8.79067 35.2077 8.52 35.525C8.24 35.8423 8.1 36.2763 8.1 36.827C8.1 37.3683 8.24933 37.807 8.548 38.143C8.83733 38.4697 9.25733 38.633 9.808 38.633L10.06 38.633L10.06 40.425L9.836 40.425C9.12667 40.425 8.52467 40.2663 8.03 39.949C7.53533 39.6317 7.15733 39.2023 6.896 38.661C6.63467 38.1103 6.504 37.499 6.504 36.827C6.504 36.155 6.63467 35.5483 6.896 35.007C7.148 34.4657 7.50733 34.041 7.974 33.733C8.43133 33.4157 8.97267 33.257 9.598 33.257L9.738 33.257C10.3633 33.257 10.8953 33.3877 11.334 33.649C11.7633 33.901 12.118 34.2463 12.398 34.685C12.6687 35.1237 12.8927 35.623 13.07 36.183L13.35 37.079C13.4713 37.4803 13.6067 37.793 13.756 38.017C13.896 38.241 14.0547 38.3997 14.232 38.493C14.4 38.577 14.6053 38.619 14.848 38.619L14.904 38.619L14.904 33.341L16.5 33.341L16.5 40.453ZM16.696 28.1925C16.696 29.3498 16.3787 30.2785 15.744 30.9785C15.1 31.6785 14.1293 32.0285 12.832 32.0285L10.368 32.0285C9.108 32.0285 8.15133 31.6785 7.498 30.9785C6.83533 30.2785 6.504 29.3498 6.504 28.1925C6.504 27.0258 6.83533 26.0972 7.498 25.4065C8.15133 24.7065 9.108 24.3565 10.368 24.3565L12.832 24.3565C14.1293 24.3565 15.1 24.7065 15.744 25.4065C16.3787 26.0972 16.696 27.0258 16.696 28.1925ZM15.1 28.1925C15.1 27.4925 14.9087 26.9792 14.526 26.6525C14.1433 26.3165 13.5973 26.1485 12.888 26.1485L10.284 26.1485C9.56533 26.1485 9.024 26.3352 8.66 26.7085C8.28667 27.0725 8.1 27.5672 8.1 28.1925C8.1 28.8365 8.29133 29.3405 8.674 29.7045C9.05667 30.0592 9.59333 30.2365 10.284 30.2365L12.888 30.2365C13.6253 30.2365 14.1807 30.0685 14.554 29.7325C14.918 29.3872 15.1 28.8738 15.1 28.1925ZM16.5 20.0384L8.016 20.0384L8.016 20.2904L11.124 21.6064L11.124 23.4824L6.7 21.4804L6.7 18.2464L16.5 18.2464L16.5 20.0384ZM16.696 13.1203C16.696 13.8483 16.5747 14.483 16.332 15.0243C16.0893 15.5563 15.7393 15.9716 15.282 16.2703C14.8247 16.5596 14.2787 16.7043 13.644 16.7043L13.644 14.8843C14.036 14.8843 14.3767 14.749 14.666 14.4783C14.9553 14.1983 15.1 13.7456 15.1 13.1203C15.1 12.4856 14.9367 12.0003 14.61 11.6643C14.274 11.3283 13.8213 11.1603 13.252 11.1603L12.244 11.1603L12.244 11.4123C12.4307 11.571 12.608 11.8136 12.776 12.1403C12.944 12.4576 13.028 12.9336 13.028 13.5683C13.028 14.1283 12.9067 14.651 12.664 15.1363C12.4213 15.6216 12.0713 16.0136 11.614 16.3123C11.1473 16.611 10.5873 16.7603 9.934 16.7603L9.766 16.7603C9.11267 16.7603 8.54333 16.6063 8.058 16.2983C7.57267 15.9903 7.19467 15.5563 6.924 14.9963C6.644 14.4363 6.504 13.783 6.504 13.0363C6.504 12.2896 6.644 11.641 6.924 11.0903C7.204 10.5396 7.59133 10.115 8.086 9.81631C8.58067 9.51765 9.15 9.36831 9.794 9.36831L13.14 9.36831C13.9333 9.36831 14.596 9.53165 15.128 9.85831C15.6507 10.1756 16.0427 10.619 16.304 11.1883C16.5653 11.7483 16.696 12.3923 16.696 13.1203ZM11.6 13.0643C11.6 12.6723 11.53 12.3363 11.39 12.0563C11.25 11.767 11.054 11.5476 10.802 11.3983C10.55 11.2396 10.2513 11.1603 9.906 11.1603L9.794 11.1603C9.27133 11.1603 8.86067 11.333 8.562 11.6783C8.254 12.0143 8.1 12.4763 8.1 13.0643C8.1 13.6523 8.254 14.119 8.562 14.4643C8.86067 14.8003 9.27133 14.9683 9.794 14.9683L9.906 14.9683C10.2513 14.9683 10.55 14.8936 10.802 14.7443C11.054 14.5856 11.25 14.3616 11.39 14.0723C11.53 13.783 11.6 13.447 11.6 13.0643Z" fill="#24262F"/>
</svg>
