<svg width="91" height="77" viewBox="0 0 91 77" fill="none" xmlns="http://www.w3.org/2000/svg">
<path d="M13.2655 32.3314C14.087 30.8522 13.9259 29.5851 12.8328 28.9828C11.7188 28.3689 10.9002 29.151 10.2963 29.9417L9.68198 30.7267C9.36841 31.1431 9.03256 31.4512 8.57012 31.1964C8.09717 30.9358 8.06631 30.3982 8.47994 29.6533C8.95183 28.8035 9.55145 28.49 10.0346 28.3863L9.71729 27.3757C8.90747 27.5734 8.19019 28.1235 7.63091 29.1307C6.8619 30.5155 6.9378 31.763 8.04135 32.3711C9.15541 32.985 9.99035 32.1982 10.5884 31.418L11.2027 30.633C11.5221 30.2061 11.8521 29.9084 12.3146 30.1633C12.8506 30.4586 12.8127 31.0954 12.4049 31.8297C11.9563 32.6376 11.3521 33.0582 10.5749 33.2465L10.8152 34.2969C11.7313 34.1303 12.6189 33.4959 13.2655 32.3314Z" fill="#3A504B"/>
<path d="M17.8766 25.7143C18.7411 24.7488 18.8199 23.7433 18.4382 22.8745L17.3582 23.1991C17.6146 23.8122 17.5895 24.4159 17.0772 24.9881C16.3968 25.748 15.5182 25.7218 14.7916 25.0763L14.0201 24.3908C13.2845 23.7373 13.1753 22.8698 13.8317 22.1367C14.312 21.6003 14.8853 21.4997 15.46 21.7213L15.7277 20.5948C14.8257 20.307 13.8728 20.4717 13.0244 21.4194C11.8076 22.7783 12.0131 24.4376 13.4933 25.7527C14.9735 27.0678 16.6439 27.0911 17.8766 25.7143Z" fill="#3A504B"/>
<path d="M21.2522 22.0601L25.4824 19.0428L24.866 18.1854L23.0391 19.4885L21.6873 17.6079C21.183 16.9064 21.2289 16.004 22.0984 15.3838L23.0949 14.673L22.3665 13.6597L21.7608 14.0917C20.735 14.8234 20.7506 15.7703 21.0595 16.6112L21.0009 16.653L20.0413 15.3181L17.6381 17.0323L18.2544 17.8898L19.5928 16.9351L21.9743 20.248L20.6358 21.2027L21.2522 22.0601Z" fill="#3A504B"/>
<path d="M30.3514 16.6672C32.0347 15.9648 32.5761 14.3735 31.8086 12.5483C31.041 10.7232 29.5226 9.99151 27.8393 10.694C26.156 11.3964 25.6145 12.9877 26.3821 14.8128C27.1497 16.638 28.6681 17.3697 30.3514 16.6672ZM29.9513 15.7159C29.0764 16.081 28.2726 15.7793 27.826 14.7174L27.4632 13.8546C27.0166 12.7927 27.3645 12.0103 28.2394 11.6453C29.1143 11.2802 29.9181 11.5819 30.3647 12.6438L30.7275 13.5066C31.1741 14.5685 30.8262 15.3508 29.9513 15.7159Z" fill="#3A504B"/>
<path d="M35.1619 14.6759L40.4924 13.7406L40.3085 12.7007L38.2874 13.0553L36.925 5.35085L33.6156 5.93154L33.7995 6.97141L35.8206 6.61677L36.9991 13.2814L34.978 13.636L35.1619 14.6759Z" fill="#3A504B"/>
<path d="M42.9825 13.4557L48.3878 13.7249L48.4408 12.6702L46.3913 12.5681L46.7835 4.75398L43.4277 4.58684L43.3748 5.64151L45.4242 5.74358L45.0849 12.5031L43.0355 12.401L42.9825 13.4557Z" fill="#3A504B"/>
<path d="M62.0732 18.2149L63.2257 18.8333L67.4497 11.0223L66.2971 10.4038L64.5162 13.6971L64.4528 13.6631C64.4894 12.8384 64.1776 12.1536 63.374 11.7224C62.0946 11.0359 60.739 11.575 59.7287 13.4433C58.7183 15.3116 59.0123 16.7359 60.2917 17.4224C61.0953 17.8536 61.8409 17.7362 62.512 17.252L62.5755 17.286L62.0732 18.2149ZM61.2755 16.7383C60.4085 16.273 60.2254 15.4258 60.7049 14.5391L61.1844 13.6525C61.6639 12.7658 62.4748 12.4519 63.3418 12.9172C64.008 13.2746 64.3963 13.9188 64.0367 14.5838L63.055 16.3993C62.6953 17.0643 61.9417 17.0957 61.2755 16.7383Z" fill="#3A504B"/>
<path d="M67.3658 22.05C68.743 23.2459 70.4154 23.0294 71.7194 21.5394C73.0233 20.0494 73.0105 18.3695 71.6333 17.1736C70.2561 15.9777 68.5836 16.1941 67.2797 17.6841C65.9757 19.1741 65.9886 20.8541 67.3658 22.05ZM68.0454 21.2734C67.3297 20.6518 67.2457 19.8002 68.0044 18.9333L68.6208 18.2289C69.3795 17.362 70.2378 17.3286 70.9536 17.9502C71.6694 18.5718 71.7533 19.4234 70.9947 20.2903L70.3783 20.9947C69.6196 21.8616 68.7612 21.8949 68.0454 21.2734Z" fill="#3A504B"/>
<path d="M71.4197 25.653L72.3689 26.951L76.7497 24.8101L76.8135 24.8973L73.4172 28.3846L74.3663 29.6826L79.888 26.7436L79.2576 25.8815L74.6811 28.4461L74.6173 28.3589L78.2943 24.5641L77.5435 23.5374L72.7828 25.8501L72.7191 25.7629L76.5802 22.22L75.9214 21.3191L71.4197 25.653Z" fill="#3A504B"/>
<path d="M76.4489 33.2372L80.3029 31.568C80.9636 31.2818 81.5518 31.7594 81.8206 32.3753C82.1566 33.1452 81.8828 33.7476 80.9798 34.1387L77.5002 35.6457L78.0234 36.8445L81.6792 35.2612C83.0557 34.665 83.5015 33.5566 83.0023 32.4128C82.5942 31.4779 81.8861 31.2354 81.1859 31.251L81.1619 31.196L82.1309 30.7763L81.6076 29.5775L75.9256 32.0384L76.4489 33.2372Z" fill="#3A504B"/>
<path d="M44.5 75.376C59.1356 75.376 71 63.5575 71 48.9785C71 34.3996 59.1356 22.5811 44.5 22.5811C29.8645 22.5811 18 34.3996 18 48.9785C18 63.5575 29.8645 75.376 44.5 75.376Z" fill="#F7F7F7" stroke="#3A504B" stroke-width="2"/>
<path d="M38.9902 33.3936C38.9902 33.1335 38.8849 32.884 38.6973 32.7001C38.5098 32.5162 38.2555 32.4128 37.9902 32.4128C37.725 32.4128 37.4707 32.5162 37.2831 32.7001C37.0956 32.884 36.9902 33.1335 36.9902 33.3936H38.9902ZM48.2902 64.0039C48.4776 64.1865 48.731 64.2891 48.9952 64.2891C49.2594 64.2891 49.5129 64.1865 49.7002 64.0039L56.0702 57.7563C56.2565 57.5725 56.361 57.3239 56.361 57.0648C56.361 56.8057 56.2565 56.5571 56.0702 56.3734C55.9773 56.2814 55.8667 56.2085 55.7448 56.1587C55.6229 56.1089 55.4922 56.0833 55.3602 56.0833C55.2282 56.0833 55.0975 56.1089 54.9757 56.1587C54.8538 56.2085 54.7432 56.2814 54.6502 56.3734L48.9902 61.9246L43.3402 56.3734C43.2473 56.2814 43.1367 56.2085 43.0148 56.1587C42.893 56.1089 42.7622 56.0833 42.6302 56.0833C42.4982 56.0833 42.3675 56.1089 42.2457 56.1587C42.1238 56.2085 42.0132 56.2814 41.9202 56.3734C41.734 56.5571 41.6294 56.8057 41.6294 57.0648C41.6294 57.3239 41.734 57.5725 41.9202 57.7563L48.2902 64.0039ZM36.9902 33.3936V44.3392H38.9902V33.3936H36.9902ZM38.9902 46.3007H47.9902V44.3392H38.9902V46.3007ZM47.9902 46.3007V63.3075H49.9902V46.3007H47.9902ZM47.9902 46.3007H49.9902C49.9902 45.7805 49.7795 45.2816 49.4044 44.9137C49.0294 44.5458 48.5207 44.3392 47.9902 44.3392V46.3007ZM36.9902 44.3392C36.9902 44.8594 37.2009 45.3583 37.576 45.7262C37.9511 46.0941 38.4598 46.3007 38.9902 46.3007V44.3392H36.9902Z" fill="#3A504B"/>
</svg>
