<svg width="20" height="20" viewBox="0 0 20 20" fill="none" xmlns="http://www.w3.org/2000/svg">
<path fill-rule="evenodd" clip-rule="evenodd" d="M20 10.0138C20 4.48332 15.5228 -3.69181e-05 10 -3.66767e-05C4.47715 -3.64353e-05 -6.78255e-07 4.48333 -4.36509e-07 10.0138C-2.05806e-07 15.2917 4.07745 19.6159 9.25 20L9.25 6.31881L6.0307 9.54258L4.9693 8.48265L9.4693 3.97641C9.60998 3.83553 9.80091 3.75637 10 3.75637C10.1991 3.75637 10.39 3.83553 10.5307 3.97641L15.0307 8.48265L13.9693 9.54258L10.75 6.31881L10.75 20C15.9225 19.6159 20 15.2917 20 10.0138Z" fill="#FCFCF3"/>
</svg>
