<svg width="24" height="24" viewBox="0 0 24 24" fill="none" xmlns="http://www.w3.org/2000/svg">
<path fill-rule="evenodd" clip-rule="evenodd" d="M-5.23639e-07 11.9795C-8.13829e-07 18.6182 5.37258 24 12 24C18.6274 24 24 18.6182 24 11.9795C24 5.67816 19.1597 0.509292 13.0004 8.34232e-05L13.0004 16.1744L16.6927 12.4758C17.0829 12.0849 17.716 12.0844 18.1069 12.4746C18.4977 12.8648 18.4983 13.4979 18.1081 13.8888L12.7081 19.298C12.5205 19.4859 12.2659 19.5915 12.0004 19.5915C11.7349 19.5915 11.4803 19.4859 11.2927 19.298L5.89268 13.8888C5.50249 13.4979 5.50303 12.8648 5.89389 12.4746C6.28475 12.0844 6.91791 12.0849 7.3081 12.4758L11.0004 16.1744L11.0004 1.87159e-05C4.84068 0.508854 -2.48189e-07 5.67789 -5.23639e-07 11.9795Z" fill="#FCFCF3"/>
</svg>
