<svg width="484" height="764" viewBox="0 0 484 764" fill="none" xmlns="http://www.w3.org/2000/svg">
<g clip-path="url(#clip0_1182:815)">
<rect width="484" height="764" fill="#0038FF"/>
<path d="M456.93 299.355L-5.43102 204.122C-5.6752 204.061 -5.91937 204.142 -6.18389 204.122C-6.28563 204.122 -6.36702 204 -6.46876 204H-14.9131C-17.7211 204 -20 206.274 -20 209.075V625.677C-20 628.479 -17.7211 630.752 -14.9131 630.752H-6.46876C-6.28563 630.752 -6.1025 630.752 -5.91937 630.732L14.2249 628.56V632.925C14.2249 634.366 14.8353 635.747 15.9137 636.721C16.8497 637.553 18.0503 638 19.3118 638C19.4949 638 19.6984 637.98 19.8816 637.959L34.3284 636.335C36.8923 636.051 38.8456 633.879 38.8456 631.301V625.9L92.4009 620.115L145.203 637.31C145.732 637.492 146.261 637.574 146.79 637.574C148.927 637.574 150.921 636.214 151.633 634.062C152.488 631.402 151.043 628.54 148.377 627.687L117.042 617.496L372.487 589.927L426.063 601.113C426.409 601.174 426.755 601.214 427.101 601.214C429.461 601.214 431.577 599.57 432.086 597.174C432.656 594.434 430.885 591.733 428.138 591.165L405.288 586.394L456.462 580.872C459.026 580.568 461 578.416 461 575.817V304.329C460.98 301.913 459.291 299.842 456.93 299.355ZM450.806 571.25L19.4746 617.8C19.4136 617.8 19.3729 617.739 19.3118 617.739C19.2101 617.739 19.1287 617.841 19.0269 617.861L-1.38183 620.054V215.328L450.806 308.47V571.25Z" fill="white"/>
<rect width="447.095" height="164.873" transform="matrix(0.989992 -0.141124 0.00249406 0.999997 34 666.096)" fill="white"/>
<circle cx="23" cy="631.3" r="2" fill="#0038FF"/>
<circle cx="31" cy="630.5" r="2" fill="#0038FF"/>
</g>
<defs>
<clipPath id="clip0_1182:815">
<rect width="484" height="764" fill="white"/>
</clipPath>
</defs>
</svg>
