<svg width="241" height="239" viewBox="0 0 241 239" fill="none" xmlns="http://www.w3.org/2000/svg">
<g clip-path="url(#clip0_1382:101)">
<path d="M4.42261 56.4926C2.73274 49.9574 6.66071 43.2896 13.196 41.5997L110.753 16.3737C117.289 14.6838 123.956 18.6118 125.646 25.147L169.166 193.452C170.856 199.987 166.928 206.655 160.393 208.345L62.8351 233.571C56.2999 235.261 49.6322 231.333 47.9423 224.797L4.42261 56.4926Z" fill="white" stroke="#0038FF"/>
<path d="M123.013 8.15528C125.561 1.88279 132.722 -1.1421 139.009 1.40116L232.829 39.3546C239.116 41.8976 242.145 49.044 239.597 55.316L173.987 216.845C171.439 223.117 164.278 226.142 157.991 223.599L64.1708 185.645C57.8844 183.102 54.8552 175.956 57.4028 169.684L123.013 8.15528Z" fill="white" stroke="#0038FF"/>
</g>
<defs>
<clipPath id="clip0_1382:101">
<rect width="241" height="239" fill="white"/>
</clipPath>
</defs>
</svg>
