<svg width="167" height="148" viewBox="0 0 167 148" fill="none" xmlns="http://www.w3.org/2000/svg">
<path d="M105.189 22.8425C108.942 24.1933 110.889 28.3308 109.539 32.0838L95.8363 70.1527L133.712 52.326C137.281 50.6464 141.536 52.1778 143.215 55.7465C144.895 59.3152 143.364 63.5698 139.795 65.2494L101.921 83.0751L139.981 96.7743C143.734 98.1251 145.681 102.263 144.331 106.016C142.98 109.769 138.842 111.716 135.089 110.365L97.0384 96.6693L114.87 134.555C116.55 138.126 115.018 142.383 111.447 144.063C107.877 145.744 103.62 144.212 101.939 140.641L84.1042 102.748L70.4039 140.811C69.0531 144.564 64.9156 146.511 61.1626 145.16C57.4096 143.81 55.4622 139.672 56.8131 135.919L70.5127 97.8577L32.6203 115.692C29.0516 117.372 24.797 115.84 23.1173 112.272C21.4377 108.703 22.9691 104.448 26.5378 102.769L64.4323 84.9332L26.3621 71.2304C22.6091 69.8796 20.6618 65.7421 22.0126 61.9891C23.3635 58.2361 27.501 56.2887 31.254 57.6396L69.3228 71.3419L51.5023 33.4788C49.8217 29.9081 51.3539 25.6511 54.9246 23.9706C58.4953 22.29 62.7524 23.8222 64.4329 27.3929L82.2499 65.2484L95.9478 27.192C97.2986 23.439 101.436 21.4916 105.189 22.8425Z" fill="#FFC700"/>
</svg>
