<svg width="20" height="20" viewBox="0 0 20 20" fill="none" xmlns="http://www.w3.org/2000/svg">
<path fill-rule="evenodd" clip-rule="evenodd" d="M10.0139 1.03433e-06C4.48336 5.50841e-07 3.2644e-06 4.47715 2.78158e-06 10C2.29875e-06 15.5228 4.48336 20 10.0139 20C15.2917 20 19.6159 15.9225 20 10.75L6.31885 10.75L9.54262 13.9693L8.48269 15.0307L3.97645 10.5307C3.83557 10.39 3.75641 10.1991 3.75641 10C3.75641 9.80091 3.83557 9.60998 3.97645 9.4693L8.48269 4.9693L9.54262 6.0307L6.31885 9.25L20 9.25C19.6159 4.07745 15.2917 1.49574e-06 10.0139 1.03433e-06Z" fill="#387267"/>
</svg>
