<svg width="18" height="14" viewBox="0 0 18 14" fill="none" xmlns="http://www.w3.org/2000/svg">
<path d="M17.3521 1.65184C16.711 1.9379 16.067 2.15385 15.3534 2.22676C16.067 1.79487 16.6385 1.07692 16.9228 0.286058C16.2092 0.717949 15.4956 1.00401 14.7123 1.14984C13.9987 0.431891 13.0705 0 12.0725 0C10.1436 0 8.5742 1.57893 8.5742 3.51683C8.5742 3.80569 8.5742 4.09175 8.64667 4.30769C5.71978 4.16466 3.15248 2.79888 1.43816 0.645032C1.08135 1.14984 0.93919 1.79487 0.93919 2.4399C0.93919 3.66266 1.58032 4.73958 2.50856 5.38462C1.93712 5.3117 1.36847 5.16867 0.93919 4.95272C0.93919 4.95272 0.93919 4.95272 0.93919 5.02564C0.93919 6.7476 2.15176 8.18349 3.72113 8.47236C3.4368 8.54247 3.15248 8.61539 2.79568 8.61539C2.58104 8.61539 2.3664 8.61539 2.15176 8.54247C2.58104 9.97837 3.86608 10.9852 5.43545 10.9852C4.22288 11.9191 2.7232 12.4912 1.08135 12.4912C0.797026 12.4912 0.509913 12.4912 0.225586 12.4211C1.79496 13.4251 3.65144 14 5.57762 14C12.0725 14 15.5681 8.61539 15.5681 3.94872C15.5681 3.80569 15.5681 3.66266 15.5681 3.51683C16.2817 3.01482 16.8531 2.36979 17.3521 1.65184Z" fill="#04171F"/>
</svg>
