<svg width="1160" height="716" viewBox="0 0 1160 716" fill="none" xmlns="http://www.w3.org/2000/svg">
<rect width="1160" height="716" fill="#E3E3E5"/>
<rect x="120" y="579" width="920" height="1" fill="white"/>
<rect x="120" y="501" width="920" height="1" fill="white"/>
<rect x="120" y="423" width="920" height="1" fill="white"/>
<rect x="120" y="345" width="920" height="1" fill="white"/>
<rect x="120" y="267" width="920" height="1" fill="white"/>
<rect x="120" y="189" width="920" height="1" fill="white"/>
<rect x="120" y="111" width="920" height="1" fill="white"/>
<rect x="120" y="33" width="920" height="1" fill="white"/>
<path d="M80.1438 584.126C82.2718 584.126 83.7208 582.873 83.7208 581.053C83.7208 579.772 82.8738 579.03 81.8098 578.708C82.5938 578.372 83.1748 577.728 83.1748 576.748C83.1748 575.208 81.9358 574.116 80.1858 574.116C78.3238 574.116 76.9938 575.306 76.9938 576.972L78.5268 577.07C78.5408 576.195 79.1288 575.607 80.1298 575.607C81.0328 575.607 81.6138 576.111 81.6138 576.902C81.6138 577.924 80.7318 578.288 79.6328 578.274V579.499C81.1588 579.499 82.1738 579.884 82.1738 581.039C82.1738 582.026 81.4248 582.628 80.1998 582.628C78.9258 582.628 78.1068 581.942 78.1068 580.857L76.5598 580.948C76.5598 582.852 77.9878 584.126 80.1438 584.126ZM84.9608 584H86.6688V582.229H84.9608V584ZM88.793 584H90.522L94.918 575.39V574.242H87.89V575.691H93.07L88.793 584ZM99.21 584.126C101.275 584.126 102.745 582.474 102.745 580.612C102.745 578.848 101.408 577.315 99.462 577.315C98.951 577.315 98.384 577.427 97.838 577.805L98.23 575.691H102.304V574.242H96.956L96.018 579.352L97.488 579.737C97.866 579.163 98.447 578.778 99.245 578.778C100.505 578.778 101.1 579.632 101.1 580.612C101.1 581.634 100.47 582.642 99.196 582.642C98.034 582.642 97.362 581.816 97.243 580.941L95.717 581.207C95.976 582.88 97.404 584.126 99.21 584.126ZM107.1 584.126C109.942 584.126 110.411 581.319 110.411 579.086C110.411 576.93 109.97 574.102 107.079 574.102C104.132 574.102 103.761 577.014 103.761 579.072C103.761 581.214 104.16 584.126 107.1 584.126ZM105.357 579.128C105.357 577.21 105.651 575.593 107.079 575.593C108.458 575.593 108.822 577.126 108.822 579.135C108.822 581.06 108.472 582.628 107.1 582.628C105.651 582.628 105.357 580.969 105.357 579.128Z" fill="#04171F"/>
<path d="M174.556 680H176.11V670.242H174.556V670.865C174.556 671.544 174.227 671.775 173.611 671.775H172.036V673.014H174.556V680ZM180.682 680H182.474L185.386 675.275C185.722 674.729 185.932 674.092 185.932 673.462C185.932 671.523 184.336 670.116 182.404 670.116C180.486 670.116 178.897 671.516 178.897 673.476C178.897 675.31 180.332 676.745 182.194 676.745C182.404 676.745 182.628 676.71 182.845 676.647L180.682 680ZM180.479 673.483C180.479 672.349 181.34 671.593 182.404 671.593C183.475 671.593 184.336 672.349 184.336 673.476C184.336 674.61 183.468 675.366 182.404 675.366C181.326 675.366 180.479 674.596 180.479 673.483ZM190.91 680H192.464V677.69H194.025V676.248H192.464V670.242H191.085L186.486 676.486V677.69H190.91V680ZM188.18 676.248L190.91 672.412V676.248H188.18ZM198.009 680.126C200.137 680.126 201.586 678.873 201.586 677.053C201.586 675.772 200.739 675.03 199.675 674.708C200.459 674.372 201.04 673.728 201.04 672.748C201.04 671.208 199.801 670.116 198.051 670.116C196.189 670.116 194.859 671.306 194.859 672.972L196.392 673.07C196.406 672.195 196.994 671.607 197.995 671.607C198.898 671.607 199.479 672.111 199.479 672.902C199.479 673.924 198.597 674.288 197.498 674.274V675.499C199.024 675.499 200.039 675.884 200.039 677.039C200.039 678.026 199.29 678.628 198.065 678.628C196.791 678.628 195.972 677.942 195.972 676.857L194.425 676.948C194.425 678.852 195.853 680.126 198.009 680.126Z" fill="#04171F"/>
<path d="M306.224 680H307.778V670.242H306.224V670.865C306.224 671.544 305.895 671.775 305.279 671.775H303.704V673.014H306.224V680ZM312.35 680H314.142L317.054 675.275C317.39 674.729 317.6 674.092 317.6 673.462C317.6 671.523 316.004 670.116 314.072 670.116C312.154 670.116 310.565 671.516 310.565 673.476C310.565 675.31 312 676.745 313.862 676.745C314.072 676.745 314.296 676.71 314.513 676.647L312.35 680ZM312.147 673.483C312.147 672.349 313.008 671.593 314.072 671.593C315.143 671.593 316.004 672.349 316.004 673.476C316.004 674.61 315.136 675.366 314.072 675.366C312.994 675.366 312.147 674.596 312.147 673.483ZM322.578 680H324.132V677.69H325.693V676.248H324.132V670.242H322.753L318.154 676.486V677.69H322.578V680ZM319.848 676.248L322.578 672.412V676.248H319.848ZM329.712 680.126C331.777 680.126 333.247 678.474 333.247 676.612C333.247 674.848 331.91 673.315 329.964 673.315C329.453 673.315 328.886 673.427 328.34 673.805L328.732 671.691H332.806V670.242H327.458L326.52 675.352L327.99 675.737C328.368 675.163 328.949 674.778 329.747 674.778C331.007 674.778 331.602 675.632 331.602 676.612C331.602 677.634 330.972 678.642 329.698 678.642C328.536 678.642 327.864 677.816 327.745 676.941L326.219 677.207C326.478 678.88 327.906 680.126 329.712 680.126Z" fill="#04171F"/>
<path d="M438.224 680H439.778V670.242H438.224V670.865C438.224 671.544 437.895 671.775 437.279 671.775H435.704V673.014H438.224V680ZM444.35 680H446.142L449.054 675.275C449.39 674.729 449.6 674.092 449.6 673.462C449.6 671.523 448.004 670.116 446.072 670.116C444.154 670.116 442.565 671.516 442.565 673.476C442.565 675.31 444 676.745 445.862 676.745C446.072 676.745 446.296 676.71 446.513 676.647L444.35 680ZM444.147 673.483C444.147 672.349 445.008 671.593 446.072 671.593C447.143 671.593 448.004 672.349 448.004 673.476C448.004 674.61 447.136 675.366 446.072 675.366C444.994 675.366 444.147 674.596 444.147 673.483ZM454.578 680H456.132V677.69H457.693V676.248H456.132V670.242H454.753L450.154 676.486V677.69H454.578V680ZM451.848 676.248L454.578 672.412V676.248H451.848ZM459.129 680H460.858L465.254 671.39V670.242H458.226V671.691H463.406L459.129 680Z" fill="#04171F"/>
<path d="M570.224 680H571.778V670.242H570.224V670.865C570.224 671.544 569.895 671.775 569.279 671.775H567.704V673.014H570.224V680ZM576.35 680H578.142L581.054 675.275C581.39 674.729 581.6 674.092 581.6 673.462C581.6 671.523 580.004 670.116 578.072 670.116C576.154 670.116 574.565 671.516 574.565 673.476C574.565 675.31 576 676.745 577.862 676.745C578.072 676.745 578.296 676.71 578.513 676.647L576.35 680ZM576.147 673.483C576.147 672.349 577.008 671.593 578.072 671.593C579.143 671.593 580.004 672.349 580.004 673.476C580.004 674.61 579.136 675.366 578.072 675.366C576.994 675.366 576.147 674.596 576.147 673.483ZM586.578 680H588.132V677.69H589.693V676.248H588.132V670.242H586.753L582.154 676.486V677.69H586.578V680ZM583.848 676.248L586.578 672.412V676.248H583.848ZM592.018 680H593.81L596.722 675.275C597.058 674.729 597.268 674.092 597.268 673.462C597.268 671.523 595.672 670.116 593.74 670.116C591.822 670.116 590.233 671.516 590.233 673.476C590.233 675.31 591.668 676.745 593.53 676.745C593.74 676.745 593.964 676.71 594.181 676.647L592.018 680ZM591.815 673.483C591.815 672.349 592.676 671.593 593.74 671.593C594.811 671.593 595.672 672.349 595.672 673.476C595.672 674.61 594.804 675.366 593.74 675.366C592.662 675.366 591.815 674.596 591.815 673.483Z" fill="#04171F"/>
<path d="M702.224 680H703.778V670.242H702.224V670.865C702.224 671.544 701.895 671.775 701.279 671.775H699.704V673.014H702.224V680ZM708.35 680H710.142L713.054 675.275C713.39 674.729 713.6 674.092 713.6 673.462C713.6 671.523 712.004 670.116 710.072 670.116C708.154 670.116 706.565 671.516 706.565 673.476C706.565 675.31 708 676.745 709.862 676.745C710.072 676.745 710.296 676.71 710.513 676.647L708.35 680ZM708.147 673.483C708.147 672.349 709.008 671.593 710.072 671.593C711.143 671.593 712.004 672.349 712.004 673.476C712.004 674.61 711.136 675.366 710.072 675.366C708.994 675.366 708.147 674.596 708.147 673.483ZM717.878 680.126C719.943 680.126 721.413 678.474 721.413 676.612C721.413 674.848 720.076 673.315 718.13 673.315C717.619 673.315 717.052 673.427 716.506 673.805L716.898 671.691H720.972V670.242H715.624L714.686 675.352L716.156 675.737C716.534 675.163 717.115 674.778 717.913 674.778C719.173 674.778 719.768 675.632 719.768 676.612C719.768 677.634 719.138 678.642 717.864 678.642C716.702 678.642 716.03 677.816 715.911 676.941L714.385 677.207C714.644 678.88 716.072 680.126 717.878 680.126ZM725.726 680H727.28V670.242H725.726V670.865C725.726 671.544 725.397 671.775 724.781 671.775H723.206V673.014H725.726V680Z" fill="#04171F"/>
<path d="M834.224 680H835.778V670.242H834.224V670.865C834.224 671.544 833.895 671.775 833.279 671.775H831.704V673.014H834.224V680ZM840.35 680H842.142L845.054 675.275C845.39 674.729 845.6 674.092 845.6 673.462C845.6 671.523 844.004 670.116 842.072 670.116C840.154 670.116 838.565 671.516 838.565 673.476C838.565 675.31 840 676.745 841.862 676.745C842.072 676.745 842.296 676.71 842.513 676.647L840.35 680ZM840.147 673.483C840.147 672.349 841.008 671.593 842.072 671.593C843.143 671.593 844.004 672.349 844.004 673.476C844.004 674.61 843.136 675.366 842.072 675.366C840.994 675.366 840.147 674.596 840.147 673.483ZM849.878 680.126C851.943 680.126 853.413 678.474 853.413 676.612C853.413 674.848 852.076 673.315 850.13 673.315C849.619 673.315 849.052 673.427 848.506 673.805L848.898 671.691H852.972V670.242H847.624L846.686 675.352L848.156 675.737C848.534 675.163 849.115 674.778 849.913 674.778C851.173 674.778 851.768 675.632 851.768 676.612C851.768 677.634 851.138 678.642 849.864 678.642C848.702 678.642 848.03 677.816 847.911 676.941L846.385 677.207C846.644 678.88 848.072 680.126 849.878 680.126ZM857.677 680.126C859.805 680.126 861.254 678.873 861.254 677.053C861.254 675.772 860.407 675.03 859.343 674.708C860.127 674.372 860.708 673.728 860.708 672.748C860.708 671.208 859.469 670.116 857.719 670.116C855.857 670.116 854.527 671.306 854.527 672.972L856.06 673.07C856.074 672.195 856.662 671.607 857.663 671.607C858.566 671.607 859.147 672.111 859.147 672.902C859.147 673.924 858.265 674.288 857.166 674.274V675.499C858.692 675.499 859.707 675.884 859.707 677.039C859.707 678.026 858.958 678.628 857.733 678.628C856.459 678.628 855.64 677.942 855.64 676.857L854.093 676.948C854.093 678.852 855.521 680.126 857.677 680.126Z" fill="#04171F"/>
<path d="M966.224 680H967.778V670.242H966.224V670.865C966.224 671.544 965.895 671.775 965.279 671.775H963.704V673.014H966.224V680ZM972.35 680H974.142L977.054 675.275C977.39 674.729 977.6 674.092 977.6 673.462C977.6 671.523 976.004 670.116 974.072 670.116C972.154 670.116 970.565 671.516 970.565 673.476C970.565 675.31 972 676.745 973.862 676.745C974.072 676.745 974.296 676.71 974.513 676.647L972.35 680ZM972.147 673.483C972.147 672.349 973.008 671.593 974.072 671.593C975.143 671.593 976.004 672.349 976.004 673.476C976.004 674.61 975.136 675.366 974.072 675.366C972.994 675.366 972.147 674.596 972.147 673.483ZM981.878 680.126C983.943 680.126 985.413 678.474 985.413 676.612C985.413 674.848 984.076 673.315 982.13 673.315C981.619 673.315 981.052 673.427 980.506 673.805L980.898 671.691H984.972V670.242H979.624L978.686 675.352L980.156 675.737C980.534 675.163 981.115 674.778 981.913 674.778C983.173 674.778 983.768 675.632 983.768 676.612C983.768 677.634 983.138 678.642 981.864 678.642C980.702 678.642 980.03 677.816 979.911 676.941L978.385 677.207C978.644 678.88 980.072 680.126 981.878 680.126ZM989.712 680.126C991.777 680.126 993.247 678.474 993.247 676.612C993.247 674.848 991.91 673.315 989.964 673.315C989.453 673.315 988.886 673.427 988.34 673.805L988.732 671.691H992.806V670.242H987.458L986.52 675.352L987.99 675.737C988.368 675.163 988.949 674.778 989.747 674.778C991.007 674.778 991.602 675.632 991.602 676.612C991.602 677.634 990.972 678.642 989.698 678.642C988.536 678.642 987.864 677.816 987.745 676.941L986.219 677.207C986.478 678.88 987.906 680.126 989.712 680.126Z" fill="#04171F"/>
<path d="M77.5958 506H79.3248L83.7208 497.39V496.242H76.6928V497.691H81.8728L77.5958 506ZM84.9608 506H86.6688V504.229H84.9608V506ZM91.376 506.126C93.441 506.126 94.911 504.474 94.911 502.612C94.911 500.848 93.574 499.315 91.628 499.315C91.117 499.315 90.55 499.427 90.004 499.805L90.396 497.691H94.47V496.242H89.122L88.184 501.352L89.654 501.737C90.032 501.163 90.613 500.778 91.411 500.778C92.671 500.778 93.266 501.632 93.266 502.612C93.266 503.634 92.636 504.642 91.362 504.642C90.2 504.642 89.528 503.816 89.409 502.941L87.883 503.207C88.142 504.88 89.57 506.126 91.376 506.126ZM99.266 506.126C102.108 506.126 102.577 503.319 102.577 501.086C102.577 498.93 102.136 496.102 99.245 496.102C96.298 496.102 95.927 499.014 95.927 501.072C95.927 503.214 96.326 506.126 99.266 506.126ZM97.523 501.128C97.523 499.21 97.817 497.593 99.245 497.593C100.624 497.593 100.988 499.126 100.988 501.135C100.988 503.06 100.638 504.628 99.266 504.628C97.817 504.628 97.523 502.969 97.523 501.128ZM107.1 506.126C109.942 506.126 110.411 503.319 110.411 501.086C110.411 498.93 109.97 496.102 107.079 496.102C104.132 496.102 103.761 499.014 103.761 501.072C103.761 503.214 104.16 506.126 107.1 506.126ZM105.357 501.128C105.357 499.21 105.651 497.593 107.079 497.593C108.458 497.593 108.822 499.126 108.822 501.135C108.822 503.06 108.472 504.628 107.1 504.628C105.651 504.628 105.357 502.969 105.357 501.128Z" fill="#04171F"/>
<path d="M72.3588 350H73.9128V340.242H72.3588V340.865C72.3588 341.544 72.0298 341.775 71.4138 341.775H69.8388V343.014H72.3588V350ZM80.1788 350.126C82.2438 350.126 83.7138 348.474 83.7138 346.612C83.7138 344.848 82.3768 343.315 80.4308 343.315C79.9198 343.315 79.3528 343.427 78.8068 343.805L79.1988 341.691H83.2728V340.242H77.9248L76.9868 345.352L78.4568 345.737C78.8348 345.163 79.4158 344.778 80.2138 344.778C81.4738 344.778 82.0688 345.632 82.0688 346.612C82.0688 347.634 81.4388 348.642 80.1648 348.642C79.0028 348.642 78.3308 347.816 78.2118 346.941L76.6858 347.207C76.9448 348.88 78.3728 350.126 80.1788 350.126ZM84.9608 350H86.6688V348.229H84.9608V350ZM91.432 350.126C94.274 350.126 94.743 347.319 94.743 345.086C94.743 342.93 94.302 340.102 91.411 340.102C88.464 340.102 88.093 343.014 88.093 345.072C88.093 347.214 88.492 350.126 91.432 350.126ZM89.689 345.128C89.689 343.21 89.983 341.593 91.411 341.593C92.79 341.593 93.154 343.126 93.154 345.135C93.154 347.06 92.804 348.628 91.432 348.628C89.983 348.628 89.689 346.969 89.689 345.128ZM99.266 350.126C102.108 350.126 102.577 347.319 102.577 345.086C102.577 342.93 102.136 340.102 99.245 340.102C96.298 340.102 95.927 343.014 95.927 345.072C95.927 347.214 96.326 350.126 99.266 350.126ZM97.523 345.128C97.523 343.21 97.817 341.593 99.245 341.593C100.624 341.593 100.988 343.126 100.988 345.135C100.988 347.06 100.638 348.628 99.266 348.628C97.817 348.628 97.523 346.969 97.523 345.128ZM107.1 350.126C109.942 350.126 110.411 347.319 110.411 345.086C110.411 342.93 109.97 340.102 107.079 340.102C104.132 340.102 103.761 343.014 103.761 345.072C103.761 347.214 104.16 350.126 107.1 350.126ZM105.357 345.128C105.357 343.21 105.651 341.593 107.079 341.593C108.458 341.593 108.822 343.126 108.822 345.135C108.822 347.06 108.472 348.628 107.1 348.628C105.651 348.628 105.357 346.969 105.357 345.128Z" fill="#04171F"/>
<path d="M72.3098 38.126C74.4378 38.126 75.8868 36.873 75.8868 35.053C75.8868 33.772 75.0398 33.03 73.9758 32.708C74.7598 32.372 75.3408 31.728 75.3408 30.748C75.3408 29.208 74.1018 28.116 72.3518 28.116C70.4898 28.116 69.1598 29.306 69.1598 30.972L70.6928 31.07C70.7068 30.195 71.2948 29.607 72.2958 29.607C73.1988 29.607 73.7798 30.111 73.7798 30.902C73.7798 31.924 72.8978 32.288 71.7988 32.274V33.499C73.3248 33.499 74.3398 33.884 74.3398 35.039C74.3398 36.026 73.5908 36.628 72.3658 36.628C71.0918 36.628 70.2728 35.942 70.2728 34.857L68.7258 34.948C68.7258 36.852 70.1538 38.126 72.3098 38.126ZM80.2348 38.126C83.0768 38.126 83.5458 35.319 83.5458 33.086C83.5458 30.93 83.1048 28.102 80.2138 28.102C77.2668 28.102 76.8958 31.014 76.8958 33.072C76.8958 35.214 77.2948 38.126 80.2348 38.126ZM78.4918 33.128C78.4918 31.21 78.7858 29.593 80.2138 29.593C81.5928 29.593 81.9568 31.126 81.9568 33.135C81.9568 35.06 81.6068 36.628 80.2348 36.628C78.7858 36.628 78.4918 34.969 78.4918 33.128ZM84.9608 38H86.6688V36.229H84.9608V38ZM91.432 38.126C94.274 38.126 94.743 35.319 94.743 33.086C94.743 30.93 94.302 28.102 91.411 28.102C88.464 28.102 88.093 31.014 88.093 33.072C88.093 35.214 88.492 38.126 91.432 38.126ZM89.689 33.128C89.689 31.21 89.983 29.593 91.411 29.593C92.79 29.593 93.154 31.126 93.154 33.135C93.154 35.06 92.804 36.628 91.432 36.628C89.983 36.628 89.689 34.969 89.689 33.128ZM99.266 38.126C102.108 38.126 102.577 35.319 102.577 33.086C102.577 30.93 102.136 28.102 99.245 28.102C96.298 28.102 95.927 31.014 95.927 33.072C95.927 35.214 96.326 38.126 99.266 38.126ZM97.523 33.128C97.523 31.21 97.817 29.593 99.245 29.593C100.624 29.593 100.988 31.126 100.988 33.135C100.988 35.06 100.638 36.628 99.266 36.628C97.817 36.628 97.523 34.969 97.523 33.128ZM107.1 38.126C109.942 38.126 110.411 35.319 110.411 33.086C110.411 30.93 109.97 28.102 107.079 28.102C104.132 28.102 103.761 31.014 103.761 33.072C103.761 35.214 104.16 38.126 107.1 38.126ZM105.357 33.128C105.357 31.21 105.651 29.593 107.079 29.593C108.458 29.593 108.822 31.126 108.822 33.135C108.822 35.06 108.472 36.628 107.1 36.628C105.651 36.628 105.357 34.969 105.357 33.128Z" fill="#04171F"/>
<path d="M163.903 657L290.179 359.042C291.354 356.269 295.466 356.979 295.644 359.986L305.68 529.398C305.995 534.723 311.407 538.196 316.377 536.263C326.201 532.44 333.704 524.283 336.695 514.171L364.904 418.809C370.428 400.134 379.154 382.561 390.692 366.875L420.258 326.681C425.625 319.384 434.142 315.075 443.199 315.075H468.072C484.138 315.075 499.732 309.64 512.32 299.653L524.471 290.012C530.664 285.098 538.621 282.98 546.437 284.165L560.633 286.317C574.027 288.347 587.723 286.35 599.981 280.579L620.967 270.7C625.573 268.531 631.041 270.848 632.69 275.666L673.938 396.199C680.421 415.145 689.681 433.024 701.415 449.249L720.512 475.658C734.349 494.793 751.994 513.76 754.112 537.282L764.894 657H163.903Z" fill="#CAD0D3"/>
<path d="M163.443 656.805L163.148 657.5H163.903H764.894H765.441L765.392 656.955L754.61 537.237C753.541 525.364 748.555 514.663 742.129 504.557C737.913 497.927 733.052 491.518 728.259 485.198C725.76 481.903 723.279 478.631 720.917 475.366L701.82 448.956C690.116 432.771 680.878 414.936 674.411 396.037L633.163 275.504C631.418 270.404 625.63 267.952 620.754 270.247L599.768 280.127C587.6 285.855 574.004 287.838 560.708 285.822L546.512 283.67C538.558 282.465 530.462 284.62 524.16 289.621L512.009 299.261C499.51 309.178 484.025 314.575 468.072 314.575H443.199C433.983 314.575 425.317 318.96 419.855 326.385L390.29 366.579C378.717 382.312 369.965 399.937 364.424 418.667L336.216 514.029C333.268 523.993 325.876 532.03 316.195 535.797C311.542 537.607 306.474 534.356 306.179 529.369L296.143 359.956C295.934 356.422 291.1 355.587 289.718 358.847L163.443 656.805Z" stroke="#04171F"/>
<path d="M387.654 485.372L247.929 601.437H858.888V520.23H824.973C815.771 520.23 807.035 516.184 801.082 509.165L776.668 480.38C773.409 476.538 767.551 476.335 764.034 479.943L724.622 520.381C720.207 524.911 712.573 523.24 710.453 517.279L668.592 399.57C664.594 388.331 656.353 379.106 645.635 373.876L621.107 361.907C609.828 356.403 597.443 353.542 584.893 353.542H577.711C565.218 353.542 553.11 349.218 543.442 341.304L520.662 322.659C516.122 318.944 509.275 320.804 507.238 326.306L454.43 468.941H433.143C416.528 468.941 400.436 474.754 387.654 485.372Z" fill="#98A2A7"/>
<path d="M247.609 601.053L246.544 601.937H247.929H858.888H859.388V601.437V520.23V519.73H858.888H824.973C815.918 519.73 807.322 515.749 801.464 508.842L777.049 480.057C773.599 475.989 767.398 475.775 763.676 479.594L724.264 520.032C720.107 524.297 712.92 522.724 710.924 517.112L669.063 399.402C665.022 388.04 656.69 378.714 645.855 373.427L621.327 361.457C609.979 355.92 597.519 353.042 584.893 353.042H577.711C565.334 353.042 553.338 348.758 543.758 340.917L520.979 322.272C516.173 318.339 508.926 320.308 506.769 326.133L454.082 468.441H433.143C416.411 468.441 400.206 474.295 387.334 484.987L247.609 601.053Z" stroke="#04171F"/>
<path d="M326.575 556.603L262.171 615.866L259.322 657H1039.76V631.566C1039.76 611.917 1035.92 592.456 1028.47 574.275L969.349 430.031C966.28 422.543 958.992 417.652 950.901 417.652H915.94C905.547 417.652 895.262 419.76 885.706 423.847L876.773 427.668C864.352 432.981 854.366 442.75 848.778 455.054L811.028 538.18C805.483 550.39 793.315 558.229 779.909 558.229H637.571C631.325 558.229 625.097 557.572 618.989 556.269C590.065 550.095 560.573 546.983 530.998 546.983H522.79L418.827 538.549H372.853C355.71 538.549 339.192 544.992 326.575 556.603Z" fill="#65747B"/>
<path d="M261.832 615.498L261.686 615.633L261.672 615.831L258.823 656.965L258.786 657.5H259.322H1039.76H1040.26V657V631.566C1040.26 611.852 1036.41 592.326 1028.93 574.085L969.812 429.842C966.666 422.166 959.195 417.152 950.901 417.152H915.94C905.48 417.152 895.127 419.273 885.509 423.388L876.577 427.208C864.04 432.571 853.962 442.429 848.323 454.847L810.573 537.973C805.109 550.004 793.119 557.729 779.909 557.729H637.571C631.36 557.729 625.167 557.076 619.093 555.78C590.135 549.599 560.608 546.483 530.998 546.483H522.81L418.867 538.05L418.847 538.049H418.827H372.853C355.585 538.049 338.946 544.54 326.237 556.235L261.832 615.498Z" stroke="#04171F"/>
<path d="M288.228 591.318L218 658H990L912.945 642.128L853.011 626.255L791.848 615.728C787.918 615.051 784.054 614.026 780.3 612.663L750.814 601.96C737.457 597.112 722.958 596.586 709.297 600.453C699.61 603.196 689.477 603.896 679.516 602.511L580.455 588.738H540.609C533.265 588.738 527.125 583.043 526.429 575.587L476.172 36.6302C475.846 33.1346 470.85 33.1182 470.502 36.6115L417.395 569.588C416.802 575.54 411.875 580.06 406.009 580.034L317.534 579.635C306.664 579.586 296.184 583.764 288.228 591.318Z" fill="#34464E"/>
<path d="M985.094 657.5H219.253L288.572 591.681C296.435 584.214 306.792 580.086 317.532 580.135L406.006 580.534C412.138 580.561 417.275 575.838 417.893 569.637L470.999 36.6611C471.287 33.7711 475.404 33.7831 475.674 36.6766L525.932 575.633C526.65 583.339 532.999 589.238 540.609 589.238H580.42L679.447 603.007C689.477 604.401 699.68 603.696 709.433 600.935C722.993 597.095 737.385 597.617 750.644 602.43L780.129 613.133C783.911 614.506 787.804 615.539 791.763 616.22L852.904 626.744L912.817 642.611L912.83 642.614L912.844 642.617L985.094 657.5Z" stroke="#04171F"/>
<path d="M159.796 524.331L120 658H1040L820.341 652.282H759.212C753.378 652.282 747.552 651.855 741.78 651.004L609.669 631.532C606.543 631.072 603.489 630.213 600.581 628.976L578.307 619.505C565.2 613.932 550.458 613.619 537.127 618.629C528.221 621.976 518.787 623.691 509.275 623.691H350.874C348.163 623.691 345.464 623.339 342.844 622.644L322.599 617.273C307.595 613.292 295.918 601.481 292.084 586.407L245.517 403.309C244.35 398.72 238.442 397.46 235.512 401.176L200.922 445.041C182.327 468.622 168.371 495.529 159.796 524.331Z" fill="url(#paint0_linear)"/>
<path d="M1001.58 657.5H120.671L160.275 524.474C168.832 495.732 182.759 468.882 201.314 445.351L235.905 401.485C238.577 398.096 243.967 399.244 245.032 403.432L291.6 586.53C295.478 601.779 307.291 613.729 322.471 617.756L342.716 623.127C345.378 623.833 348.12 624.191 350.874 624.191H509.275C518.847 624.191 528.34 622.465 537.302 619.097C550.513 614.132 565.123 614.443 578.112 619.965L600.385 629.436C603.333 630.689 606.428 631.56 609.596 632.027L741.707 651.499C747.503 652.353 753.354 652.782 759.212 652.782H820.335H820.341L1001.58 657.5Z" stroke="#04171F"/>
<rect width="2.00468" height="2" transform="matrix(1 0 0 -1 185 658)" fill="white"/>
<rect width="2.00468" height="2" transform="matrix(1 0 0 -1 251 658)" fill="white"/>
<rect width="2.00468" height="2" transform="matrix(1 0 0 -1 317 658)" fill="white"/>
<rect width="2.00468" height="2" transform="matrix(1 0 0 -1 383 658)" fill="white"/>
<rect width="2.00468" height="2" transform="matrix(1 0 0 -1 449 658)" fill="white"/>
<rect width="2.00468" height="2" transform="matrix(1 0 0 -1 515 658)" fill="white"/>
<rect width="2.00468" height="2" transform="matrix(1 0 0 -1 581 658)" fill="white"/>
<rect width="2.00468" height="2" transform="matrix(1 0 0 -1 647 658)" fill="white"/>
<rect width="2.00468" height="2" transform="matrix(1 0 0 -1 713 658)" fill="white"/>
<rect width="2.00468" height="2" transform="matrix(1 0 0 -1 779 658)" fill="white"/>
<rect width="2.00468" height="2" transform="matrix(1 0 0 -1 845 658)" fill="white"/>
<rect width="2.00468" height="2" transform="matrix(1 0 0 -1 911 658)" fill="white"/>
<rect width="2.00468" height="2" transform="matrix(1 0 0 -1 977 658)" fill="white"/>
<rect x="720.5" y="59.5" width="214" height="194" fill="white" stroke="#04171F"/>
<path d="M739.632 87H741.728V77.696H745.168V75.848H736.176V77.696H739.632V87ZM746.32 87H748.32V83.216C748.32 81.464 748.888 80.68 750.032 80.68C751.024 80.68 751.488 81.272 751.488 82.584V87H753.48V81.848C753.48 80.016 752.416 78.952 750.624 78.952C749.744 78.952 748.848 79.272 748.32 80.128V75.848H746.32V87ZM758.903 87.16C760.255 87.16 761.303 86.672 762.151 85.736L760.775 84.52C760.263 85.112 759.639 85.36 758.919 85.36C757.719 85.36 757.079 84.712 756.999 83.72H762.383C762.415 83.432 762.431 83.152 762.431 82.984C762.431 80.752 761.223 78.952 758.775 78.952C756.127 78.952 755.015 81.048 755.015 83.104C755.015 85.2 756.159 87.16 758.903 87.16ZM756.975 82.256C757.071 81.432 757.615 80.608 758.815 80.608C759.855 80.608 760.535 81.328 760.535 82.224V82.256H756.975ZM772.435 78.952C771.571 78.952 770.731 79.248 770.179 80.152V79.112H768.203V90.264H770.179V85.952C770.683 86.776 771.523 87.16 772.435 87.16C774.299 87.16 775.803 85.64 775.803 83.064C775.803 80.712 774.523 78.952 772.435 78.952ZM770.003 83.064C770.003 81.68 770.739 80.776 771.899 80.776C773.059 80.776 773.811 81.672 773.811 83.064C773.811 84.448 773.059 85.336 771.899 85.336C770.739 85.336 770.003 84.44 770.003 83.064ZM779.269 87.16C779.605 87.16 780.069 87.088 780.509 86.912V85.224C780.301 85.288 780.109 85.32 779.941 85.32C779.605 85.32 779.365 85.152 779.365 84.712V75.848H777.389V85.104C777.389 86.536 778.189 87.16 779.269 87.16ZM787.001 87H788.825V82.016C788.825 80.112 787.545 78.952 785.369 78.952C784.009 78.952 782.673 79.408 781.737 80.44L783.169 81.648C783.873 80.912 784.529 80.68 785.225 80.68C786.281 80.68 786.841 81.192 786.841 82.016V82.208H784.569C783.833 82.208 783.161 82.336 782.641 82.64C782.009 83 781.609 83.664 781.609 84.56C781.609 86.128 782.881 87.16 784.617 87.16C785.465 87.16 786.305 86.888 786.873 86.064L787.001 87ZM783.601 84.568C783.601 84.28 783.713 84.056 783.929 83.904C784.169 83.736 784.505 83.688 784.857 83.688H786.841V83.76C786.841 84.8 785.961 85.552 784.905 85.552C784.105 85.552 783.601 85.168 783.601 84.568ZM794.167 87.16C795.759 87.16 796.983 86.392 797.559 84.824L795.815 84.144C795.559 84.904 795.063 85.424 794.167 85.424C792.855 85.424 792.311 84.256 792.311 83.048C792.311 81.856 792.855 80.68 794.167 80.68C795.063 80.68 795.559 81.208 795.815 81.96L797.559 81.28C796.983 79.712 795.759 78.952 794.167 78.952C791.607 78.952 790.327 80.944 790.327 83.048C790.327 85.168 791.607 87.16 794.167 87.16ZM802.606 87.16C803.958 87.16 805.006 86.672 805.854 85.736L804.478 84.52C803.966 85.112 803.342 85.36 802.622 85.36C801.422 85.36 800.782 84.712 800.702 83.72H806.086C806.118 83.432 806.134 83.152 806.134 82.984C806.134 80.752 804.926 78.952 802.478 78.952C799.83 78.952 798.718 81.048 798.718 83.104C798.718 85.2 799.862 87.16 802.606 87.16ZM800.678 82.256C800.774 81.432 801.318 80.608 802.518 80.608C803.558 80.608 804.238 81.328 804.238 82.224V82.256H800.678ZM810.478 87.16C812.414 87.16 813.702 86.096 813.702 84.512C813.702 82.664 812.022 82.264 810.75 81.952C809.726 81.704 809.342 81.528 809.342 81.12C809.342 80.712 809.79 80.456 810.39 80.456C811.078 80.456 811.718 80.792 812.102 81.36L813.39 80.408C812.79 79.464 811.718 78.952 810.446 78.952C808.678 78.952 807.486 79.896 807.486 81.304C807.486 82.92 808.934 83.384 810.182 83.72C811.038 83.952 811.75 84.144 811.75 84.728C811.75 85.2 811.278 85.552 810.494 85.552C809.494 85.552 808.838 84.944 808.454 84.352L807.102 85.536C807.646 86.248 808.718 87.16 810.478 87.16ZM823.045 87.16C825.325 87.16 827.005 85.416 827.005 83.048C827.005 80.672 825.341 78.952 823.045 78.952C820.733 78.952 819.077 80.672 819.077 83.048C819.077 85.432 820.757 87.16 823.045 87.16ZM821.061 83.048C821.061 81.576 821.797 80.696 823.045 80.696C824.285 80.696 825.013 81.568 825.013 83.048C825.013 84.52 824.285 85.408 823.045 85.408C821.805 85.408 821.061 84.52 821.061 83.048ZM829.331 87H831.323V80.656H833.003V79.112H831.323V78.288C831.323 77.728 831.515 77.344 832.027 77.344C832.266 77.344 832.507 77.432 832.715 77.544L833.355 76.032C832.907 75.824 832.459 75.688 831.803 75.688C830.475 75.688 829.347 76.248 829.347 78.28V79.112H827.899V80.656H829.331V87ZM841.629 87.16C842.085 87.16 842.541 87.08 842.973 86.92V85.392C842.661 85.48 842.381 85.528 842.173 85.528C841.461 85.528 841.261 85.048 841.261 84.136V80.656H842.973V79.112H841.261V76.192L839.245 77.28V79.112H837.805V80.656H839.245V84.688C839.245 86.504 840.357 87.16 841.629 87.16ZM844.523 87H846.523V83.216C846.523 81.464 847.091 80.68 848.235 80.68C849.227 80.68 849.691 81.272 849.691 82.584V87H851.683V81.848C851.683 80.016 850.619 78.952 848.827 78.952C847.947 78.952 847.051 79.272 846.523 80.128V75.848H844.523V87ZM857.106 87.16C858.458 87.16 859.506 86.672 860.354 85.736L858.978 84.52C858.466 85.112 857.842 85.36 857.122 85.36C855.922 85.36 855.282 84.712 855.202 83.72H860.586C860.618 83.432 860.634 83.152 860.634 82.984C860.634 80.752 859.426 78.952 856.978 78.952C854.33 78.952 853.218 81.048 853.218 83.104C853.218 85.2 854.362 87.16 857.106 87.16ZM855.178 82.256C855.274 81.432 855.818 80.608 857.018 80.608C858.058 80.608 858.738 81.328 858.738 82.224V82.256H855.178ZM869.95 87.16C871.302 87.16 872.35 86.672 873.198 85.736L871.822 84.52C871.31 85.112 870.686 85.36 869.966 85.36C868.766 85.36 868.126 84.712 868.046 83.72H873.43C873.462 83.432 873.478 83.152 873.478 82.984C873.478 80.752 872.27 78.952 869.822 78.952C867.174 78.952 866.062 81.048 866.062 83.104C866.062 85.2 867.206 87.16 869.95 87.16ZM868.022 82.256C868.118 81.432 868.662 80.608 869.862 80.608C870.902 80.608 871.582 81.328 871.582 82.224V82.256H868.022ZM874.195 87H876.523L878.211 84.344L879.867 87H882.227L879.507 83.024L882.227 79.112H879.883L878.211 81.72L876.547 79.112H874.195L876.883 83.024L874.195 87ZM886.639 87.16C888.919 87.16 890.599 85.416 890.599 83.048C890.599 80.672 888.935 78.952 886.639 78.952C884.327 78.952 882.671 80.672 882.671 83.048C882.671 85.432 884.351 87.16 886.639 87.16ZM884.655 83.048C884.655 81.576 885.391 80.696 886.639 80.696C887.879 80.696 888.607 81.568 888.607 83.048C888.607 84.52 887.879 85.408 886.639 85.408C885.399 85.408 884.655 84.52 884.655 83.048ZM895.235 87.16C896.099 87.16 896.939 86.864 897.491 85.96V87H899.467V75.848H897.491V80.16C896.987 79.336 896.147 78.952 895.235 78.952C893.371 78.952 891.867 80.472 891.867 83.048C891.867 85.4 893.147 87.16 895.235 87.16ZM893.859 83.048C893.859 81.664 894.611 80.776 895.771 80.776C896.931 80.776 897.667 81.672 897.667 83.048C897.667 84.432 896.931 85.336 895.771 85.336C894.611 85.336 893.859 84.44 893.859 83.048ZM904.213 87.16C905.149 87.16 905.973 86.824 906.501 86.008V87H908.485V79.112H906.501V82.248C906.501 84.176 906.205 85.424 904.805 85.424C903.637 85.424 903.325 84.64 903.325 83.544V79.112H901.333V84.04C901.333 85.944 902.269 87.16 904.213 87.16ZM913.196 87.16C915.132 87.16 916.42 86.096 916.42 84.512C916.42 82.664 914.74 82.264 913.468 81.952C912.444 81.704 912.06 81.528 912.06 81.12C912.06 80.712 912.508 80.456 913.108 80.456C913.796 80.456 914.436 80.792 914.82 81.36L916.108 80.408C915.508 79.464 914.436 78.952 913.164 78.952C911.396 78.952 910.204 79.896 910.204 81.304C910.204 82.92 911.652 83.384 912.9 83.72C913.756 83.952 914.468 84.144 914.468 84.728C914.468 85.2 913.996 85.552 913.212 85.552C912.212 85.552 911.556 84.944 911.172 84.352L909.82 85.536C910.364 86.248 911.436 87.16 913.196 87.16Z" fill="black"/>
<path d="M754.427 114H761.812V112.726H756.177L761.644 105.432V104.242H754.763V105.516H759.88L754.427 112.803V114ZM767.711 114H768.971V109.66C768.971 107.966 767.907 106.979 766.073 106.979C764.89 106.979 763.826 107.378 763.049 108.281L764.036 109.114C764.652 108.414 765.268 108.162 765.975 108.162C767.046 108.162 767.613 108.715 767.613 109.66V109.884H765.527C764.855 109.884 764.232 109.996 763.756 110.29C763.245 110.605 762.902 111.144 762.902 111.914C762.902 113.244 763.938 114.119 765.499 114.119C766.395 114.119 767.165 113.783 767.641 113.069L767.711 114ZM764.274 111.928C764.274 111.592 764.4 111.34 764.631 111.172C764.925 110.969 765.345 110.913 765.723 110.913H767.613V111.116C767.613 112.208 766.717 113.006 765.653 113.006C764.806 113.006 764.274 112.586 764.274 111.928ZM770.791 114H772.17V110.857C772.17 110.08 772.212 109.772 772.296 109.478C772.562 108.666 773.213 108.337 773.85 108.337C774.137 108.337 774.48 108.428 774.697 108.547L775.369 107.315C774.949 107.07 774.564 106.979 774.165 106.979C773.444 106.979 772.625 107.385 772.17 108.071V107.098H770.791V114ZM780.904 114H782.164V109.66C782.164 107.966 781.1 106.979 779.266 106.979C778.083 106.979 777.019 107.378 776.242 108.281L777.229 109.114C777.845 108.414 778.461 108.162 779.168 108.162C780.239 108.162 780.806 108.715 780.806 109.66V109.884H778.72C778.048 109.884 777.425 109.996 776.949 110.29C776.438 110.605 776.095 111.144 776.095 111.914C776.095 113.244 777.131 114.119 778.692 114.119C779.588 114.119 780.358 113.783 780.834 113.069L780.904 114ZM777.467 111.928C777.467 111.592 777.593 111.34 777.824 111.172C778.118 110.969 778.538 110.913 778.916 110.913H780.806V111.116C780.806 112.208 779.91 113.006 778.846 113.006C777.999 113.006 777.467 112.586 777.467 111.928Z" fill="black"/>
<path d="M736 103C736.788 103 737.568 103.155 738.296 103.457C739.024 103.758 739.685 104.2 740.243 104.757C740.8 105.315 741.242 105.976 741.543 106.704C741.845 107.432 742 108.212 742 109C742 109.788 741.845 110.568 741.543 111.296C741.242 112.024 740.8 112.685 740.243 113.243C739.685 113.8 739.024 114.242 738.296 114.543C737.568 114.845 736.788 115 736 115L736 103Z" fill="#04171F"/>
<path d="M755.049 144H756.463V139.856H758.066C760.18 139.856 761.342 138.855 761.342 137.021C761.342 135.194 760.194 134.242 758.066 134.242H755.049V144ZM756.463 138.589V135.516H757.919C759.221 135.516 759.914 135.985 759.914 137.042C759.914 138.127 759.172 138.589 757.919 138.589H756.463ZM765.407 144.119C767.36 144.119 768.788 142.614 768.788 140.542C768.788 138.47 767.374 136.979 765.407 136.979C763.412 136.979 762.005 138.47 762.005 140.542C762.005 142.628 763.44 144.119 765.407 144.119ZM763.37 140.542C763.37 139.093 764.154 138.176 765.407 138.176C766.646 138.176 767.416 139.086 767.416 140.542C767.416 141.991 766.646 142.908 765.407 142.908C764.154 142.908 763.37 141.991 763.37 140.542ZM771.836 144.119C772.123 144.119 772.508 144.056 772.851 143.916V142.754C772.641 142.817 772.445 142.859 772.284 142.859C771.934 142.859 771.71 142.656 771.71 142.166V134.242H770.345V142.432C770.345 143.601 770.961 144.119 771.836 144.119ZM778.716 144H779.976V139.66C779.976 137.966 778.912 136.979 777.078 136.979C775.895 136.979 774.831 137.378 774.054 138.281L775.041 139.114C775.657 138.414 776.273 138.162 776.98 138.162C778.051 138.162 778.618 138.715 778.618 139.66V139.884H776.532C775.86 139.884 775.237 139.996 774.761 140.29C774.25 140.605 773.907 141.144 773.907 141.914C773.907 143.244 774.943 144.119 776.504 144.119C777.4 144.119 778.17 143.783 778.646 143.069L778.716 144ZM775.279 141.928C775.279 141.592 775.405 141.34 775.636 141.172C775.93 140.969 776.35 140.913 776.728 140.913H778.618V141.116C778.618 142.208 777.722 143.006 776.658 143.006C775.811 143.006 775.279 142.586 775.279 141.928Z" fill="black"/>
<path d="M736 133C736.788 133 737.568 133.155 738.296 133.457C739.024 133.758 739.685 134.2 740.243 134.757C740.8 135.315 741.242 135.976 741.543 136.704C741.845 137.432 742 138.212 742 139C742 139.788 741.845 140.568 741.543 141.296C741.242 142.024 740.8 142.685 740.243 143.243C739.685 143.8 739.024 144.242 738.296 144.543C737.568 144.845 736.788 145 736 145L736 133Z" fill="#34464E"/>
<path d="M755.05 174H758.648C760.65 174 761.798 172.971 761.798 171.207C761.798 169.954 761.224 169.107 760.118 168.764C760.86 168.386 761.294 167.63 761.294 166.685C761.294 165.159 760.153 164.242 758.277 164.242H755.05V174ZM756.478 172.691V169.597H758.76C759.782 169.597 760.384 170.164 760.384 171.144C760.384 172.173 759.768 172.691 758.543 172.691H756.478ZM756.478 168.316V165.551H758.277C759.292 165.551 759.88 166.048 759.88 166.902C759.88 167.784 759.306 168.316 758.431 168.316H756.478ZM766.527 174H773.912V172.726H768.277L773.744 165.432V164.242H766.863V165.516H771.98L766.527 172.803V174ZM778.191 174.119C780.144 174.119 781.572 172.614 781.572 170.542C781.572 168.47 780.158 166.979 778.191 166.979C776.196 166.979 774.789 168.47 774.789 170.542C774.789 172.628 776.224 174.119 778.191 174.119ZM776.154 170.542C776.154 169.093 776.938 168.176 778.191 168.176C779.43 168.176 780.2 169.086 780.2 170.542C780.2 171.991 779.43 172.908 778.191 172.908C776.938 172.908 776.154 171.991 776.154 170.542ZM783.164 174H784.536V170.598C784.536 168.911 785.131 168.162 786.23 168.162C787.21 168.162 787.693 168.764 787.693 170.08V174H789.065V169.576C789.065 167.882 788.148 166.979 786.622 166.979C785.768 166.979 784.998 167.294 784.536 167.994V167.098H783.164V174ZM793.884 174.119C795.039 174.119 795.893 173.734 796.656 172.922L795.704 172.082C795.2 172.635 794.64 172.88 793.898 172.88C792.708 172.88 792.022 172.166 791.959 170.983H796.845C796.873 170.766 796.887 170.458 796.887 170.353C796.887 168.582 795.907 166.979 793.772 166.979C791.609 166.979 790.594 168.715 790.594 170.598C790.594 172.488 791.637 174.119 793.884 174.119ZM791.945 169.968C792.029 168.981 792.645 168.12 793.807 168.12C794.969 168.12 795.578 168.974 795.578 169.842L795.571 169.968H791.945Z" fill="black"/>
<path d="M736 163C737.591 163 739.117 163.632 740.243 164.757C741.368 165.883 742 167.409 742 169C742 170.591 741.368 172.117 740.243 173.243C739.117 174.368 737.591 175 736 175L736 163Z" fill="#65747B"/>
<path d="M755.05 204H756.478V199.828H757.409H758.046L760.454 204H762.099L759.502 199.639C760.706 199.261 761.343 198.365 761.343 197.014C761.343 195.299 760.342 194.242 758.067 194.242H755.05V204ZM756.478 198.568V195.516H757.92C759.054 195.516 759.915 195.88 759.915 197.028C759.915 198.176 759.082 198.568 757.92 198.568H756.478ZM766.076 204.119C767.231 204.119 768.085 203.734 768.848 202.922L767.896 202.082C767.392 202.635 766.832 202.88 766.09 202.88C764.9 202.88 764.214 202.166 764.151 200.983H769.037C769.065 200.766 769.079 200.458 769.079 200.353C769.079 198.582 768.099 196.979 765.964 196.979C763.801 196.979 762.786 198.715 762.786 200.598C762.786 202.488 763.829 204.119 766.076 204.119ZM764.137 199.968C764.221 198.981 764.837 198.12 765.999 198.12C767.161 198.12 767.77 198.974 767.77 199.842L767.763 199.968H764.137ZM772.985 204.119C774.602 204.119 775.673 203.244 775.673 201.914C775.673 200.339 774.259 200.003 773.111 199.73C772.166 199.506 771.718 199.303 771.718 198.82C771.718 198.33 772.215 198.05 772.859 198.05C773.531 198.05 774.105 198.365 774.441 198.904L775.414 198.267C774.903 197.427 773.993 196.979 772.901 196.979C771.445 196.979 770.451 197.763 770.451 198.953C770.451 200.241 771.585 200.647 772.719 200.941C773.587 201.172 774.329 201.368 774.329 202.061C774.329 202.628 773.818 202.992 772.999 202.992C772.061 202.992 771.389 202.474 771.039 201.83L770.094 202.642C770.563 203.377 771.529 204.119 772.985 204.119ZM779.834 204.119C780.191 204.119 780.576 204.063 780.94 203.93V202.866C780.653 202.95 780.38 202.992 780.198 202.992C779.575 202.992 779.372 202.565 779.372 201.781V198.162H780.94V197.098H779.372V194.564L777.986 195.334V197.098H776.614V198.162H777.986V202.152C777.986 203.566 778.805 204.119 779.834 204.119ZM789.115 204.119C791.068 204.119 792.496 202.614 792.496 200.542C792.496 198.47 791.082 196.979 789.115 196.979C787.12 196.979 785.713 198.47 785.713 200.542C785.713 202.628 787.148 204.119 789.115 204.119ZM787.078 200.542C787.078 199.093 787.862 198.176 789.115 198.176C790.354 198.176 791.124 199.086 791.124 200.542C791.124 201.991 790.354 202.908 789.115 202.908C787.862 202.908 787.078 201.991 787.078 200.542ZM794.7 204H796.079V198.162H797.64V197.098H796.079V196.258C796.079 195.642 796.317 195.264 796.87 195.264C797.108 195.264 797.346 195.341 797.549 195.446L797.997 194.41C797.633 194.228 797.248 194.123 796.723 194.123C795.603 194.123 794.714 194.62 794.714 196.258V197.098H793.335V198.162H794.7V204ZM802.628 204H804.056V194.242H802.628V204ZM808.381 204.119C809.998 204.119 811.069 203.244 811.069 201.914C811.069 200.339 809.655 200.003 808.507 199.73C807.562 199.506 807.114 199.303 807.114 198.82C807.114 198.33 807.611 198.05 808.255 198.05C808.927 198.05 809.501 198.365 809.837 198.904L810.81 198.267C810.299 197.427 809.389 196.979 808.297 196.979C806.841 196.979 805.847 197.763 805.847 198.953C805.847 200.241 806.981 200.647 808.115 200.941C808.983 201.172 809.725 201.368 809.725 202.061C809.725 202.628 809.214 202.992 808.395 202.992C807.457 202.992 806.785 202.474 806.435 201.83L805.49 202.642C805.959 203.377 806.925 204.119 808.381 204.119ZM815.23 204.119C815.587 204.119 815.972 204.063 816.336 203.93V202.866C816.049 202.95 815.776 202.992 815.594 202.992C814.971 202.992 814.768 202.565 814.768 201.781V198.162H816.336V197.098H814.768V194.564L813.382 195.334V197.098H812.01V198.162H813.382V202.152C813.382 203.566 814.201 204.119 815.23 204.119ZM817.795 204H819.174V200.857C819.174 200.08 819.216 199.772 819.3 199.478C819.566 198.666 820.217 198.337 820.854 198.337C821.141 198.337 821.484 198.428 821.701 198.547L822.373 197.315C821.953 197.07 821.568 196.979 821.169 196.979C820.448 196.979 819.629 197.385 819.174 198.071V197.098H817.795V204ZM823.564 204H824.929V197.098H823.564V204ZM823.466 195.908H825.02V194.242H823.466V195.908ZM831.326 204H832.586V199.66C832.586 197.966 831.522 196.979 829.688 196.979C828.505 196.979 827.441 197.378 826.664 198.281L827.651 199.114C828.267 198.414 828.883 198.162 829.59 198.162C830.661 198.162 831.228 198.715 831.228 199.66V199.884H829.142C828.47 199.884 827.847 199.996 827.371 200.29C826.86 200.605 826.517 201.144 826.517 201.914C826.517 203.244 827.553 204.119 829.114 204.119C830.01 204.119 830.78 203.783 831.256 203.069L831.326 204ZM827.889 201.928C827.889 201.592 828.015 201.34 828.246 201.172C828.54 200.969 828.96 200.913 829.338 200.913H831.228V201.116C831.228 202.208 830.332 203.006 829.268 203.006C828.421 203.006 827.889 202.586 827.889 201.928Z" fill="black"/>
<path d="M736 193C736.788 193 737.568 193.155 738.296 193.457C739.024 193.758 739.685 194.2 740.243 194.757C740.8 195.315 741.242 195.976 741.543 196.704C741.845 197.432 742 198.212 742 199C742 199.788 741.845 200.568 741.543 201.296C741.242 202.024 740.8 202.685 740.243 203.243C739.685 203.8 739.024 204.242 738.296 204.543C737.568 204.845 736.788 205 736 205L736 193Z" fill="#98A2A7"/>
<path d="M755.049 234H756.477V229.828H757.408H758.045L760.453 234H762.098L759.501 229.639C760.705 229.261 761.342 228.365 761.342 227.014C761.342 225.299 760.341 224.242 758.066 224.242H755.049V234ZM756.477 228.568V225.516H757.919C759.053 225.516 759.914 225.88 759.914 227.028C759.914 228.176 759.081 228.568 757.919 228.568H756.477ZM763.38 234H764.745V227.098H763.38V234ZM763.282 225.908H764.836V224.242H763.282V225.908ZM768.796 234H769.937L772.751 227.098H771.267L769.363 232.229L767.48 227.098H765.975L768.796 234ZM776.78 234.119C777.935 234.119 778.789 233.734 779.552 232.922L778.6 232.082C778.096 232.635 777.536 232.88 776.794 232.88C775.604 232.88 774.918 232.166 774.855 230.983H779.741C779.769 230.766 779.783 230.458 779.783 230.353C779.783 228.582 778.803 226.979 776.668 226.979C774.505 226.979 773.49 228.715 773.49 230.598C773.49 232.488 774.533 234.119 776.78 234.119ZM774.841 229.968C774.925 228.981 775.541 228.12 776.703 228.12C777.865 228.12 778.474 228.974 778.474 229.842L778.467 229.968H774.841ZM781.358 234H782.737V230.857C782.737 230.08 782.779 229.772 782.863 229.478C783.129 228.666 783.78 228.337 784.417 228.337C784.704 228.337 785.047 228.428 785.264 228.547L785.936 227.315C785.516 227.07 785.131 226.979 784.732 226.979C784.011 226.979 783.192 227.385 782.737 228.071V227.098H781.358V234ZM795.272 234H796.532V229.66C796.532 227.966 795.468 226.979 793.634 226.979C792.451 226.979 791.387 227.378 790.61 228.281L791.597 229.114C792.213 228.414 792.829 228.162 793.536 228.162C794.607 228.162 795.174 228.715 795.174 229.66V229.884H793.088C792.416 229.884 791.793 229.996 791.317 230.29C790.806 230.605 790.463 231.144 790.463 231.914C790.463 233.244 791.499 234.119 793.06 234.119C793.956 234.119 794.726 233.783 795.202 233.069L795.272 234ZM791.835 231.928C791.835 231.592 791.961 231.34 792.192 231.172C792.486 230.969 792.906 230.913 793.284 230.913H795.174V231.116C795.174 232.208 794.278 233.006 793.214 233.006C792.367 233.006 791.835 232.586 791.835 231.928ZM798.366 234H799.738V230.598C799.738 228.911 800.333 228.162 801.432 228.162C802.412 228.162 802.895 228.764 802.895 230.08V234H804.267V229.576C804.267 227.882 803.35 226.979 801.824 226.979C800.97 226.979 800.2 227.294 799.738 227.994V227.098H798.366V234ZM808.863 234.119C809.773 234.119 810.522 233.776 810.998 233.048V234H812.356V224.242H810.998V228.078C810.55 227.378 809.787 226.979 808.863 226.979C807.162 226.979 805.79 228.344 805.79 230.542C805.79 232.579 807.008 234.119 808.863 234.119ZM807.169 230.542C807.169 229.17 807.974 228.225 809.15 228.225C810.319 228.225 811.117 229.17 811.117 230.542C811.117 231.914 810.319 232.859 809.15 232.859C807.974 232.859 807.169 231.921 807.169 230.542ZM821.396 234.119C823.251 234.119 824.469 232.579 824.469 230.542C824.469 228.344 823.097 226.979 821.396 226.979C820.472 226.979 819.709 227.378 819.261 228.078V224.242H817.903V234H819.261V233.048C819.737 233.776 820.486 234.119 821.396 234.119ZM819.142 230.542C819.142 229.17 819.94 228.225 821.109 228.225C822.285 228.225 823.09 229.17 823.09 230.542C823.09 231.921 822.285 232.859 821.109 232.859C819.94 232.859 819.142 231.914 819.142 230.542ZM829.131 234.119C831.084 234.119 832.512 232.614 832.512 230.542C832.512 228.47 831.098 226.979 829.131 226.979C827.136 226.979 825.729 228.47 825.729 230.542C825.729 232.628 827.164 234.119 829.131 234.119ZM827.094 230.542C827.094 229.093 827.878 228.176 829.131 228.176C830.37 228.176 831.14 229.086 831.14 230.542C831.14 231.991 830.37 232.908 829.131 232.908C827.878 232.908 827.094 231.991 827.094 230.542ZM834.091 234H835.47V230.857C835.47 230.08 835.512 229.772 835.596 229.478C835.862 228.666 836.513 228.337 837.15 228.337C837.437 228.337 837.78 228.428 837.997 228.547L838.669 227.315C838.249 227.07 837.864 226.979 837.465 226.979C836.744 226.979 835.925 227.385 835.47 228.071V227.098H834.091V234ZM842.249 234.119C843.159 234.119 843.908 233.776 844.384 233.048V234H845.742V224.242H844.384V228.078C843.936 227.378 843.173 226.979 842.249 226.979C840.548 226.979 839.176 228.344 839.176 230.542C839.176 232.579 840.394 234.119 842.249 234.119ZM840.555 230.542C840.555 229.17 841.36 228.225 842.536 228.225C843.705 228.225 844.503 229.17 844.503 230.542C844.503 231.914 843.705 232.859 842.536 232.859C841.36 232.859 840.555 231.921 840.555 230.542ZM850.635 234.119C851.79 234.119 852.644 233.734 853.407 232.922L852.455 232.082C851.951 232.635 851.391 232.88 850.649 232.88C849.459 232.88 848.773 232.166 848.71 230.983H853.596C853.624 230.766 853.638 230.458 853.638 230.353C853.638 228.582 852.658 226.979 850.523 226.979C848.36 226.979 847.345 228.715 847.345 230.598C847.345 232.488 848.388 234.119 850.635 234.119ZM848.696 229.968C848.78 228.981 849.396 228.12 850.558 228.12C851.72 228.12 852.329 228.974 852.329 229.842L852.322 229.968H848.696ZM855.214 234H856.593V230.857C856.593 230.08 856.635 229.772 856.719 229.478C856.985 228.666 857.636 228.337 858.273 228.337C858.56 228.337 858.903 228.428 859.12 228.547L859.792 227.315C859.372 227.07 858.987 226.979 858.588 226.979C857.867 226.979 857.048 227.385 856.593 228.071V227.098H855.214V234ZM869.128 234H870.388V229.66C870.388 227.966 869.324 226.979 867.49 226.979C866.307 226.979 865.243 227.378 864.466 228.281L865.453 229.114C866.069 228.414 866.685 228.162 867.392 228.162C868.463 228.162 869.03 228.715 869.03 229.66V229.884H866.944C866.272 229.884 865.649 229.996 865.173 230.29C864.662 230.605 864.319 231.144 864.319 231.914C864.319 233.244 865.355 234.119 866.916 234.119C867.812 234.119 868.582 233.783 869.058 233.069L869.128 234ZM865.691 231.928C865.691 231.592 865.817 231.34 866.048 231.172C866.342 230.969 866.762 230.913 867.14 230.913H869.03V231.116C869.03 232.208 868.134 233.006 867.07 233.006C866.223 233.006 865.691 232.586 865.691 231.928ZM872.208 234H873.587V230.857C873.587 230.08 873.629 229.772 873.713 229.478C873.979 228.666 874.63 228.337 875.267 228.337C875.554 228.337 875.897 228.428 876.114 228.547L876.786 227.315C876.366 227.07 875.981 226.979 875.582 226.979C874.861 226.979 874.042 227.385 873.587 228.071V227.098H872.208V234ZM880.59 234.119C881.745 234.119 882.599 233.734 883.362 232.922L882.41 232.082C881.906 232.635 881.346 232.88 880.604 232.88C879.414 232.88 878.728 232.166 878.665 230.983H883.551C883.579 230.766 883.593 230.458 883.593 230.353C883.593 228.582 882.613 226.979 880.478 226.979C878.315 226.979 877.3 228.715 877.3 230.598C877.3 232.488 878.343 234.119 880.59 234.119ZM878.651 229.968C878.735 228.981 879.351 228.12 880.513 228.12C881.675 228.12 882.284 228.974 882.284 229.842L882.277 229.968H878.651ZM889.677 234H890.937V229.66C890.937 227.966 889.873 226.979 888.039 226.979C886.856 226.979 885.792 227.378 885.015 228.281L886.002 229.114C886.618 228.414 887.234 228.162 887.941 228.162C889.012 228.162 889.579 228.715 889.579 229.66V229.884H887.493C886.821 229.884 886.198 229.996 885.722 230.29C885.211 230.605 884.868 231.144 884.868 231.914C884.868 233.244 885.904 234.119 887.465 234.119C888.361 234.119 889.131 233.783 889.607 233.069L889.677 234ZM886.24 231.928C886.24 231.592 886.366 231.34 886.597 231.172C886.891 230.969 887.311 230.913 887.689 230.913H889.579V231.116C889.579 232.208 888.683 233.006 887.619 233.006C886.772 233.006 886.24 232.586 886.24 231.928ZM895.088 234.119C896.705 234.119 897.776 233.244 897.776 231.914C897.776 230.339 896.362 230.003 895.214 229.73C894.269 229.506 893.821 229.303 893.821 228.82C893.821 228.33 894.318 228.05 894.962 228.05C895.634 228.05 896.208 228.365 896.544 228.904L897.517 228.267C897.006 227.427 896.096 226.979 895.004 226.979C893.548 226.979 892.554 227.763 892.554 228.953C892.554 230.241 893.688 230.647 894.822 230.941C895.69 231.172 896.432 231.368 896.432 232.061C896.432 232.628 895.921 232.992 895.102 232.992C894.164 232.992 893.492 232.474 893.142 231.83L892.197 232.642C892.666 233.377 893.632 234.119 895.088 234.119Z" fill="black"/>
<path d="M736 223C737.591 223 739.117 223.632 740.243 224.757C741.368 225.883 742 227.409 742 229C742 230.591 741.368 232.117 740.243 233.243C739.117 234.368 737.591 235 736 235L736 223Z" fill="#CAD0D3"/>
<defs>
<linearGradient id="paint0_linear" x1="580" y1="399" x2="580" y2="658" gradientUnits="userSpaceOnUse">
<stop stop-color="#04171F"/>
<stop offset="1" stop-color="#04171F"/>
</linearGradient>
</defs>
</svg>
