<svg width="375" height="338" viewBox="0 0 375 338" fill="none" xmlns="http://www.w3.org/2000/svg">
<rect x="20.5" y="0.5" width="335" height="93" fill="white" stroke="#04171F"/>
<path d="M36.938 22H38.751V12.242H36.938V22ZM45.7921 22.14C46.0861 22.14 46.4921 22.077 46.8771 21.923V20.446C46.6951 20.502 46.5271 20.53 46.3801 20.53C46.0861 20.53 45.8761 20.383 45.8761 19.998V12.242H44.1471V20.341C44.1471 21.594 44.8471 22.14 45.7921 22.14ZM50.5693 22.14C51.3883 22.14 52.1093 21.846 52.5713 21.132V22H54.3073V15.098H52.5713V17.842C52.5713 19.529 52.3123 20.621 51.0873 20.621C50.0653 20.621 49.7923 19.935 49.7923 18.976V15.098H48.0493V19.41C48.0493 21.076 48.8683 22.14 50.5693 22.14ZM59.1856 22.14C61.1806 22.14 62.6506 20.614 62.6506 18.542C62.6506 16.463 61.1946 14.958 59.1856 14.958C57.1626 14.958 55.7136 16.463 55.7136 18.542C55.7136 20.628 57.1836 22.14 59.1856 22.14ZM57.4496 18.542C57.4496 17.254 58.0936 16.484 59.1856 16.484C60.2706 16.484 60.9076 17.247 60.9076 18.542C60.9076 19.83 60.2706 20.607 59.1856 20.607C58.1006 20.607 57.4496 19.83 57.4496 18.542ZM66.9384 24.996C68.9474 24.996 70.1024 24.254 70.1024 22.903C70.1024 21.454 68.8074 21.202 67.0364 20.95C65.6784 20.761 65.3074 20.656 65.3074 20.215C65.3074 20.054 65.3704 19.928 65.4824 19.823C65.8674 19.977 66.3224 20.068 66.8194 20.068C68.4784 20.068 69.6124 19.088 69.6124 17.597C69.6124 17.149 69.5144 16.75 69.3324 16.407L70.3754 15.546L69.4934 14.468L68.3524 15.378C67.8904 15.105 67.3374 14.958 66.7634 14.958C65.2164 14.958 63.9214 15.987 63.9214 17.534C63.9214 18.171 64.1384 18.731 64.5304 19.165C64.1034 19.487 63.8234 19.921 63.8234 20.481C63.8234 21.146 64.1104 21.573 64.5724 21.853L63.6064 22.504C63.5644 22.686 63.5574 22.798 63.5574 22.882C63.5574 24.226 64.6984 24.996 66.9384 24.996ZM65.2444 22.791L65.6644 22.259C65.9304 22.315 66.2174 22.364 66.5114 22.399C67.7644 22.567 68.3804 22.651 68.3804 23.106C68.3804 23.519 67.7924 23.708 66.9664 23.708C66.0284 23.708 65.3214 23.456 65.2514 22.931C65.2444 22.896 65.2374 22.868 65.2444 22.791ZM65.6574 17.52C65.6574 16.862 66.0914 16.393 66.7844 16.393C67.4634 16.393 67.8834 16.848 67.8834 17.527C67.8834 18.164 67.5194 18.696 66.7844 18.696C66.0284 18.696 65.6574 18.164 65.6574 17.52ZM71.3618 22H73.1118V18.689C73.1118 17.156 73.6088 16.47 74.6098 16.47C75.4778 16.47 75.8838 16.988 75.8838 18.136V22H77.6268V17.492C77.6268 15.889 76.6958 14.958 75.1278 14.958C74.3578 14.958 73.5738 15.238 73.1118 15.987V12.242H71.3618V22ZM79.2502 22H80.9932V15.098H79.2502V22ZM79.2012 14.027H81.0492V12.242H79.2012V14.027ZM88.9925 22.14C89.7485 22.14 90.4835 21.881 90.9665 21.09V22H92.6955V12.242H90.9665V16.015C90.5255 15.294 89.7905 14.958 88.9925 14.958C87.3615 14.958 86.0455 16.288 86.0455 18.542C86.0455 20.6 87.1655 22.14 88.9925 22.14ZM87.7885 18.542C87.7885 17.331 88.4465 16.554 89.4615 16.554C90.4765 16.554 91.1205 17.338 91.1205 18.542C91.1205 19.753 90.4765 20.544 89.4615 20.544C88.4465 20.544 87.7885 19.76 87.7885 18.542ZM97.5206 22.14C98.7036 22.14 99.6206 21.713 100.363 20.894L99.1586 19.83C98.7106 20.348 98.1646 20.565 97.5346 20.565C96.4846 20.565 95.9246 19.998 95.8546 19.13H100.566C100.594 18.878 100.608 18.633 100.608 18.486C100.608 16.533 99.5506 14.958 97.4086 14.958C95.0916 14.958 94.1186 16.792 94.1186 18.591C94.1186 20.425 95.1196 22.14 97.5206 22.14ZM95.8336 17.849C95.9176 17.128 96.3936 16.407 97.4436 16.407C98.3536 16.407 98.9486 17.037 98.9486 17.821V17.849H95.8336ZM103.624 22.14C103.918 22.14 104.324 22.077 104.709 21.923V20.446C104.527 20.502 104.359 20.53 104.212 20.53C103.918 20.53 103.708 20.383 103.708 19.998V12.242H101.979V20.341C101.979 21.594 102.679 22.14 103.624 22.14ZM107.575 22.14C107.869 22.14 108.275 22.077 108.66 21.923V20.446C108.478 20.502 108.31 20.53 108.163 20.53C107.869 20.53 107.659 20.383 107.659 19.998V12.242H105.93V20.341C105.93 21.594 106.63 22.14 107.575 22.14ZM109.224 16.141H110.372L112.136 12.242H110.12L109.224 16.141ZM116.483 22.14C117.666 22.14 118.583 21.713 119.325 20.894L118.121 19.83C117.673 20.348 117.127 20.565 116.497 20.565C115.447 20.565 114.887 19.998 114.817 19.13H119.528C119.556 18.878 119.57 18.633 119.57 18.486C119.57 16.533 118.513 14.958 116.371 14.958C114.054 14.958 113.081 16.792 113.081 18.591C113.081 20.425 114.082 22.14 116.483 22.14ZM114.796 17.849C114.88 17.128 115.356 16.407 116.406 16.407C117.316 16.407 117.911 17.037 117.911 17.821V17.849H114.796ZM123.371 22.14C125.065 22.14 126.192 21.209 126.192 19.823C126.192 18.206 124.722 17.856 123.609 17.583C122.713 17.366 122.377 17.212 122.377 16.855C122.377 16.498 122.769 16.274 123.294 16.274C123.896 16.274 124.456 16.568 124.792 17.065L125.919 16.232C125.394 15.406 124.456 14.958 123.343 14.958C121.796 14.958 120.753 15.784 120.753 17.016C120.753 18.43 122.02 18.836 123.112 19.13C123.861 19.333 124.484 19.501 124.484 20.012C124.484 20.425 124.071 20.733 123.385 20.733C122.51 20.733 121.936 20.201 121.6 19.683L120.417 20.719C120.893 21.342 121.831 22.14 123.371 22.14ZM130.731 22.14C132.726 22.14 134.196 20.614 134.196 18.542C134.196 16.463 132.74 14.958 130.731 14.958C128.708 14.958 127.259 16.463 127.259 18.542C127.259 20.628 128.729 22.14 130.731 22.14ZM128.995 18.542C128.995 17.254 129.639 16.484 130.731 16.484C131.816 16.484 132.453 17.247 132.453 18.542C132.453 19.83 131.816 20.607 130.731 20.607C129.646 20.607 128.995 19.83 128.995 18.542ZM138.252 22.14C139.008 22.14 139.743 21.881 140.226 21.09V22H141.955V12.242H140.226V16.015C139.785 15.294 139.05 14.958 138.252 14.958C136.621 14.958 135.305 16.288 135.305 18.542C135.305 20.6 136.425 22.14 138.252 22.14ZM137.048 18.542C137.048 17.331 137.706 16.554 138.721 16.554C139.736 16.554 140.38 17.338 140.38 18.542C140.38 19.753 139.736 20.544 138.721 20.544C137.706 20.544 137.048 19.76 137.048 18.542ZM146.822 22.14C148.817 22.14 150.287 20.614 150.287 18.542C150.287 16.463 148.831 14.958 146.822 14.958C144.799 14.958 143.35 16.463 143.35 18.542C143.35 20.628 144.82 22.14 146.822 22.14ZM145.086 18.542C145.086 17.254 145.73 16.484 146.822 16.484C147.907 16.484 148.544 17.247 148.544 18.542C148.544 19.83 147.907 20.607 146.822 20.607C145.737 20.607 145.086 19.83 145.086 18.542Z" fill="black"/>
<path d="M54.366 50H60.696V48.908H55.866L60.552 42.656V41.636H54.654V42.728H59.04L54.366 48.974V50ZM65.7521 50H66.8321V46.28C66.8321 44.828 65.9201 43.982 64.3481 43.982C63.3341 43.982 62.4221 44.324 61.7561 45.098L62.6021 45.812C63.1301 45.212 63.6581 44.996 64.2641 44.996C65.1821 44.996 65.6681 45.47 65.6681 46.28V46.472H63.8801C63.3041 46.472 62.7701 46.568 62.3621 46.82C61.9241 47.09 61.6301 47.552 61.6301 48.212C61.6301 49.352 62.5181 50.102 63.8561 50.102C64.6241 50.102 65.2841 49.814 65.6921 49.202L65.7521 50ZM62.8061 48.224C62.8061 47.936 62.9141 47.72 63.1121 47.576C63.3641 47.402 63.7241 47.354 64.0481 47.354H65.6681V47.528C65.6681 48.464 64.9001 49.148 63.9881 49.148C63.2621 49.148 62.8061 48.788 62.8061 48.224ZM68.392 50H69.574V47.306C69.574 46.64 69.61 46.376 69.682 46.124C69.91 45.428 70.468 45.146 71.014 45.146C71.26 45.146 71.554 45.224 71.74 45.326L72.316 44.27C71.956 44.06 71.626 43.982 71.284 43.982C70.666 43.982 69.964 44.33 69.574 44.918V44.084H68.392V50ZM77.0607 50H78.1407V46.28C78.1407 44.828 77.2287 43.982 75.6567 43.982C74.6427 43.982 73.7307 44.324 73.0647 45.098L73.9107 45.812C74.4387 45.212 74.9667 44.996 75.5727 44.996C76.4907 44.996 76.9767 45.47 76.9767 46.28V46.472H75.1887C74.6127 46.472 74.0787 46.568 73.6707 46.82C73.2327 47.09 72.9387 47.552 72.9387 48.212C72.9387 49.352 73.8267 50.102 75.1647 50.102C75.9327 50.102 76.5927 49.814 77.0007 49.202L77.0607 50ZM74.1147 48.224C74.1147 47.936 74.2227 47.72 74.4207 47.576C74.6727 47.402 75.0327 47.354 75.3567 47.354H76.9767V47.528C76.9767 48.464 76.2087 49.148 75.2967 49.148C74.5707 49.148 74.1147 48.788 74.1147 48.224Z" fill="black"/>
<path d="M36 41C36.7879 41 37.5681 41.1552 38.2961 41.4567C39.0241 41.7583 39.6855 42.2002 40.2426 42.7574C40.7998 43.3145 41.2417 43.9759 41.5433 44.7039C41.8448 45.4319 42 46.2121 42 47C42 47.7879 41.8448 48.5681 41.5433 49.2961C41.2417 50.0241 40.7998 50.6855 40.2426 51.2426C39.6855 51.7998 39.0241 52.2417 38.2961 52.5433C37.5681 52.8448 36.7879 53 36 53L36 41Z" fill="#04171F"/>
<path d="M137.899 50H139.111V46.448H140.485C142.297 46.448 143.293 45.59 143.293 44.018C143.293 42.452 142.309 41.636 140.485 41.636H137.899V50ZM139.111 45.362V42.728H140.359C141.475 42.728 142.069 43.13 142.069 44.036C142.069 44.966 141.433 45.362 140.359 45.362H139.111ZM146.777 50.102C148.451 50.102 149.675 48.812 149.675 47.036C149.675 45.26 148.463 43.982 146.777 43.982C145.067 43.982 143.861 45.26 143.861 47.036C143.861 48.824 145.091 50.102 146.777 50.102ZM145.031 47.036C145.031 45.794 145.703 45.008 146.777 45.008C147.839 45.008 148.499 45.788 148.499 47.036C148.499 48.278 147.839 49.064 146.777 49.064C145.703 49.064 145.031 48.278 145.031 47.036ZM152.288 50.102C152.534 50.102 152.864 50.048 153.158 49.928V48.932C152.978 48.986 152.81 49.022 152.672 49.022C152.372 49.022 152.18 48.848 152.18 48.428V41.636H151.01V48.656C151.01 49.658 151.538 50.102 152.288 50.102ZM158.185 50H159.265V46.28C159.265 44.828 158.353 43.982 156.781 43.982C155.767 43.982 154.855 44.324 154.189 45.098L155.035 45.812C155.563 45.212 156.091 44.996 156.697 44.996C157.615 44.996 158.101 45.47 158.101 46.28V46.472H156.313C155.737 46.472 155.203 46.568 154.795 46.82C154.357 47.09 154.063 47.552 154.063 48.212C154.063 49.352 154.951 50.102 156.289 50.102C157.057 50.102 157.717 49.814 158.125 49.202L158.185 50ZM155.239 48.224C155.239 47.936 155.347 47.72 155.545 47.576C155.797 47.402 156.157 47.354 156.481 47.354H158.101V47.528C158.101 48.464 157.333 49.148 156.421 49.148C155.695 49.148 155.239 48.788 155.239 48.224Z" fill="black"/>
<path d="M119 41C119.788 41 120.568 41.1552 121.296 41.4567C122.024 41.7583 122.685 42.2002 123.243 42.7574C123.8 43.3145 124.242 43.9759 124.543 44.7039C124.845 45.4319 125 46.2121 125 47C125 47.7879 124.845 48.5681 124.543 49.2961C124.242 50.0241 123.8 50.6855 123.243 51.2426C122.685 51.7998 122.024 52.2417 121.296 52.5433C120.568 52.8448 119.788 53 119 53L119 41Z" fill="#34464E"/>
<path d="M219.364 50H225.694V48.908H220.864L225.55 42.656V41.636H219.652V42.728H224.038L219.364 48.974V50ZM229.362 50.102C231.036 50.102 232.26 48.812 232.26 47.036C232.26 45.26 231.048 43.982 229.362 43.982C227.652 43.982 226.446 45.26 226.446 47.036C226.446 48.824 227.676 50.102 229.362 50.102ZM227.616 47.036C227.616 45.794 228.288 45.008 229.362 45.008C230.424 45.008 231.084 45.788 231.084 47.036C231.084 48.278 230.424 49.064 229.362 49.064C228.288 49.064 227.616 48.278 227.616 47.036ZM233.625 50H234.801V47.084C234.801 45.638 235.311 44.996 236.253 44.996C237.093 44.996 237.507 45.512 237.507 46.64V50H238.683V46.208C238.683 44.756 237.897 43.982 236.589 43.982C235.857 43.982 235.197 44.252 234.801 44.852V44.084H233.625V50ZM244.11 50H245.19V46.28C245.19 44.828 244.278 43.982 242.706 43.982C241.692 43.982 240.78 44.324 240.114 45.098L240.96 45.812C241.488 45.212 242.016 44.996 242.622 44.996C243.54 44.996 244.026 45.47 244.026 46.28V46.472H242.238C241.662 46.472 241.128 46.568 240.72 46.82C240.282 47.09 239.988 47.552 239.988 48.212C239.988 49.352 240.876 50.102 242.214 50.102C242.982 50.102 243.642 49.814 244.05 49.202L244.11 50ZM241.164 48.224C241.164 47.936 241.272 47.72 241.47 47.576C241.722 47.402 242.082 47.354 242.406 47.354H244.026V47.528C244.026 48.464 243.258 49.148 242.346 49.148C241.62 49.148 241.164 48.788 241.164 48.224ZM249.957 50H253.041C254.757 50 255.741 49.118 255.741 47.606C255.741 46.532 255.249 45.806 254.301 45.512C254.937 45.188 255.309 44.54 255.309 43.73C255.309 42.422 254.331 41.636 252.723 41.636H249.957V50ZM251.181 48.878V46.226H253.137C254.013 46.226 254.529 46.712 254.529 47.552C254.529 48.434 254.001 48.878 252.951 48.878H251.181ZM251.181 45.128V42.758H252.723C253.593 42.758 254.097 43.184 254.097 43.916C254.097 44.672 253.605 45.128 252.855 45.128H251.181Z" fill="black"/>
<path d="M200.999 41C202.59 41 204.116 41.6321 205.242 42.7574C206.367 43.8826 206.999 45.4087 206.999 47C206.999 48.5913 206.367 50.1174 205.242 51.2426C204.116 52.3679 202.59 53 200.999 53L200.999 41Z" fill="#65747B"/>
<path d="M54.9 74H56.124V70.424H56.922H57.468L59.532 74H60.942L58.716 70.262C59.748 69.938 60.294 69.17 60.294 68.012C60.294 66.542 59.436 65.636 57.486 65.636H54.9V74ZM56.124 69.344V66.728H57.36C58.332 66.728 59.07 67.04 59.07 68.024C59.07 69.008 58.356 69.344 57.36 69.344H56.124ZM64.3507 74.102C65.3407 74.102 66.0727 73.772 66.7267 73.076L65.9107 72.356C65.4787 72.83 64.9987 73.04 64.3627 73.04C63.3427 73.04 62.7547 72.428 62.7007 71.414H66.8887C66.9127 71.228 66.9247 70.964 66.9247 70.874C66.9247 69.356 66.0847 67.982 64.2547 67.982C62.4007 67.982 61.5307 69.47 61.5307 71.084C61.5307 72.704 62.4247 74.102 64.3507 74.102ZM62.6887 70.544C62.7607 69.698 63.2887 68.96 64.2847 68.96C65.2807 68.96 65.8027 69.692 65.8027 70.436L65.7967 70.544H62.6887ZM70.2728 74.102C71.6588 74.102 72.5768 73.352 72.5768 72.212C72.5768 70.862 71.3648 70.574 70.3808 70.34C69.5708 70.148 69.1868 69.974 69.1868 69.56C69.1868 69.14 69.6128 68.9 70.1648 68.9C70.7408 68.9 71.2328 69.17 71.5208 69.632L72.3548 69.086C71.9168 68.366 71.1368 67.982 70.2008 67.982C68.9528 67.982 68.1008 68.654 68.1008 69.674C68.1008 70.778 69.0728 71.126 70.0448 71.378C70.7888 71.576 71.4248 71.744 71.4248 72.338C71.4248 72.824 70.9868 73.136 70.2848 73.136C69.4808 73.136 68.9048 72.692 68.6048 72.14L67.7948 72.836C68.1968 73.466 69.0248 74.102 70.2728 74.102ZM76.1433 74.102C76.4493 74.102 76.7793 74.054 77.0913 73.94V73.028C76.8453 73.1 76.6113 73.136 76.4553 73.136C75.9213 73.136 75.7473 72.77 75.7473 72.098V68.996H77.0913V68.084H75.7473V65.912L74.5593 66.572V68.084H73.3833V68.996H74.5593V72.416C74.5593 73.628 75.2613 74.102 76.1433 74.102ZM80.8641 74.102C82.5381 74.102 83.7621 72.812 83.7621 71.036C83.7621 69.26 82.5501 67.982 80.8641 67.982C79.1541 67.982 77.9481 69.26 77.9481 71.036C77.9481 72.824 79.1781 74.102 80.8641 74.102ZM79.1181 71.036C79.1181 69.794 79.7901 69.008 80.8641 69.008C81.9261 69.008 82.5861 69.788 82.5861 71.036C82.5861 72.278 81.9261 73.064 80.8641 73.064C79.7901 73.064 79.1181 72.278 79.1181 71.036ZM90.6079 74.102C91.3879 74.102 92.0299 73.808 92.4379 73.184V74H93.6019V65.636H92.4379V68.924C92.0539 68.324 91.3999 67.982 90.6079 67.982C89.1499 67.982 87.9739 69.152 87.9739 71.036C87.9739 72.782 89.0179 74.102 90.6079 74.102ZM89.1559 71.036C89.1559 69.86 89.8459 69.05 90.8539 69.05C91.8559 69.05 92.5399 69.86 92.5399 71.036C92.5399 72.212 91.8559 73.022 90.8539 73.022C89.8459 73.022 89.1559 72.218 89.1559 71.036ZM97.796 74.102C98.786 74.102 99.518 73.772 100.172 73.076L99.356 72.356C98.924 72.83 98.444 73.04 97.808 73.04C96.788 73.04 96.2 72.428 96.146 71.414H100.334C100.358 71.228 100.37 70.964 100.37 70.874C100.37 69.356 99.53 67.982 97.7 67.982C95.846 67.982 94.976 69.47 94.976 71.084C94.976 72.704 95.87 74.102 97.796 74.102ZM96.134 70.544C96.206 69.698 96.734 68.96 97.73 68.96C98.726 68.96 99.248 69.692 99.248 70.436L99.242 70.544H96.134ZM102.98 74.102C103.226 74.102 103.556 74.048 103.85 73.928V72.932C103.67 72.986 103.502 73.022 103.364 73.022C103.064 73.022 102.872 72.848 102.872 72.428V65.636H101.702V72.656C101.702 73.658 102.23 74.102 102.98 74.102ZM106.273 74.102C106.519 74.102 106.849 74.048 107.143 73.928V72.932C106.963 72.986 106.795 73.022 106.657 73.022C106.357 73.022 106.165 72.848 106.165 72.428V65.636H104.995V72.656C104.995 73.658 105.523 74.102 106.273 74.102ZM107.63 69.008H108.41L109.964 65.636H108.602L107.63 69.008ZM111.267 74H112.491V65.636H111.267V74ZM116.199 74.102C117.585 74.102 118.503 73.352 118.503 72.212C118.503 70.862 117.291 70.574 116.307 70.34C115.497 70.148 115.113 69.974 115.113 69.56C115.113 69.14 115.539 68.9 116.091 68.9C116.667 68.9 117.159 69.17 117.447 69.632L118.281 69.086C117.843 68.366 117.063 67.982 116.127 67.982C114.879 67.982 114.027 68.654 114.027 69.674C114.027 70.778 114.999 71.126 115.971 71.378C116.715 71.576 117.351 71.744 117.351 72.338C117.351 72.824 116.913 73.136 116.211 73.136C115.407 73.136 114.831 72.692 114.531 72.14L113.721 72.836C114.123 73.466 114.951 74.102 116.199 74.102ZM122.069 74.102C122.375 74.102 122.705 74.054 123.017 73.94V73.028C122.771 73.1 122.537 73.136 122.381 73.136C121.847 73.136 121.673 72.77 121.673 72.098V68.996H123.017V68.084H121.673V65.912L120.485 66.572V68.084H119.309V68.996H120.485V72.416C120.485 73.628 121.187 74.102 122.069 74.102ZM124.267 74H125.449V71.306C125.449 70.64 125.485 70.376 125.557 70.124C125.785 69.428 126.343 69.146 126.889 69.146C127.135 69.146 127.429 69.224 127.615 69.326L128.191 68.27C127.831 68.06 127.501 67.982 127.159 67.982C126.541 67.982 125.839 68.33 125.449 68.918V68.084H124.267V74ZM129.212 74H130.382V68.084H129.212V74ZM129.128 67.064H130.46V65.636H129.128V67.064ZM135.865 74H136.945V70.28C136.945 68.828 136.033 67.982 134.461 67.982C133.447 67.982 132.535 68.324 131.869 69.098L132.715 69.812C133.243 69.212 133.771 68.996 134.377 68.996C135.295 68.996 135.781 69.47 135.781 70.28V70.472H133.993C133.417 70.472 132.883 70.568 132.475 70.82C132.037 71.09 131.743 71.552 131.743 72.212C131.743 73.352 132.631 74.102 133.969 74.102C134.737 74.102 135.397 73.814 135.805 73.202L135.865 74ZM132.919 72.224C132.919 71.936 133.027 71.72 133.225 71.576C133.477 71.402 133.837 71.354 134.161 71.354H135.781V71.528C135.781 72.464 135.013 73.148 134.101 73.148C133.375 73.148 132.919 72.788 132.919 72.224Z" fill="black"/>
<path d="M36 65C36.7879 65 37.5681 65.1552 38.2961 65.4567C39.0241 65.7583 39.6855 66.2002 40.2426 66.7574C40.7998 67.3145 41.2417 67.9759 41.5433 68.7039C41.8448 69.4319 42 70.2121 42 71C42 71.7879 41.8448 72.5681 41.5433 73.2961C41.2417 74.0241 40.7998 74.6855 40.2426 75.2426C39.6855 75.7998 39.0241 76.2417 38.2961 76.5433C37.5681 76.8448 36.7879 77 36 77L36 65Z" fill="#98A2A7"/>
<path d="M196.899 74H198.123V70.274H201.849V69.176H198.123V66.728H202.419V65.636H196.899V74ZM203.559 74H204.729V68.084H203.559V74ZM203.475 67.064H204.807V65.636H203.475V67.064ZM208.382 74.102C209.126 74.102 209.768 73.82 210.17 73.232V74H211.34V68.084H210.17V70.826C210.17 72.32 209.726 73.076 208.724 73.076C207.836 73.076 207.458 72.512 207.458 71.45V68.084H206.288V71.81C206.288 73.28 207.038 74.102 208.382 74.102ZM212.993 74H214.169V70.88C214.169 69.638 214.643 68.996 215.483 68.996C216.215 68.996 216.623 69.512 216.623 70.568V74H217.799V70.88C217.799 69.626 218.261 68.996 219.083 68.996C219.905 68.996 220.247 69.602 220.247 70.64V74H221.417V70.358C221.417 69.098 220.829 67.982 219.347 67.982C218.603 67.982 217.979 68.276 217.559 68.948C217.205 68.276 216.593 67.982 215.849 67.982C215.231 67.982 214.559 68.216 214.169 68.924V68.084H212.993V74ZM225.545 74.102C226.535 74.102 227.267 73.772 227.921 73.076L227.105 72.356C226.673 72.83 226.193 73.04 225.557 73.04C224.537 73.04 223.949 72.428 223.895 71.414H228.083C228.107 71.228 228.119 70.964 228.119 70.874C228.119 69.356 227.279 67.982 225.449 67.982C223.595 67.982 222.725 69.47 222.725 71.084C222.725 72.704 223.619 74.102 225.545 74.102ZM223.883 70.544C223.955 69.698 224.483 68.96 225.479 68.96C226.475 68.96 226.997 69.692 226.997 70.436L226.991 70.544H223.883ZM235.154 74.102C236.144 74.102 236.876 73.772 237.53 73.076L236.714 72.356C236.282 72.83 235.802 73.04 235.166 73.04C234.146 73.04 233.558 72.428 233.504 71.414H237.692C237.716 71.228 237.728 70.964 237.728 70.874C237.728 69.356 236.888 67.982 235.058 67.982C233.204 67.982 232.334 69.47 232.334 71.084C232.334 72.704 233.228 74.102 235.154 74.102ZM233.492 70.544C233.564 69.698 234.092 68.96 235.088 68.96C236.084 68.96 236.606 69.692 236.606 70.436L236.6 70.544H233.492ZM241.818 74H246.546V73.004H243.336L246.564 68.948V68.084H241.974V69.068H245.154L241.818 73.19V74ZM250.39 74.102C252.064 74.102 253.288 72.812 253.288 71.036C253.288 69.26 252.076 67.982 250.39 67.982C248.68 67.982 247.474 69.26 247.474 71.036C247.474 72.824 248.704 74.102 250.39 74.102ZM248.644 71.036C248.644 69.794 249.316 69.008 250.39 69.008C251.452 69.008 252.112 69.788 252.112 71.036C252.112 72.278 251.452 73.064 250.39 73.064C249.316 73.064 248.644 72.278 248.644 71.036ZM254.653 74H255.829V71.084C255.829 69.638 256.339 68.996 257.281 68.996C258.121 68.996 258.535 69.512 258.535 70.64V74H259.711V70.208C259.711 68.756 258.925 67.982 257.617 67.982C256.885 67.982 256.225 68.252 255.829 68.852V68.084H254.653V74ZM263.842 74.102C264.832 74.102 265.564 73.772 266.218 73.076L265.402 72.356C264.97 72.83 264.49 73.04 263.854 73.04C262.834 73.04 262.246 72.428 262.192 71.414H266.38C266.404 71.228 266.416 70.964 266.416 70.874C266.416 69.356 265.576 67.982 263.746 67.982C261.892 67.982 261.022 69.47 261.022 71.084C261.022 72.704 261.916 74.102 263.842 74.102ZM262.18 70.544C262.252 69.698 262.78 68.96 263.776 68.96C264.772 68.96 265.294 69.692 265.294 70.436L265.288 70.544H262.18ZM273.403 74.102C274.549 74.102 275.437 73.544 275.851 72.41L274.819 72.008C274.603 72.65 274.147 73.076 273.403 73.076C272.287 73.076 271.789 72.092 271.789 71.036C271.789 69.992 272.287 68.996 273.403 68.996C274.147 68.996 274.603 69.434 274.819 70.07L275.851 69.668C275.437 68.528 274.549 67.982 273.403 67.982C271.591 67.982 270.619 69.416 270.619 71.036C270.619 72.668 271.591 74.102 273.403 74.102ZM279.758 74.102C281.432 74.102 282.656 72.812 282.656 71.036C282.656 69.26 281.444 67.982 279.758 67.982C278.048 67.982 276.842 69.26 276.842 71.036C276.842 72.824 278.072 74.102 279.758 74.102ZM278.012 71.036C278.012 69.794 278.684 69.008 279.758 69.008C280.82 69.008 281.48 69.788 281.48 71.036C281.48 72.278 280.82 73.064 279.758 73.064C278.684 73.064 278.012 72.278 278.012 71.036ZM284.02 74H285.196V71.084C285.196 69.638 285.706 68.996 286.648 68.996C287.488 68.996 287.902 69.512 287.902 70.64V74H289.078V70.208C289.078 68.756 288.292 67.982 286.984 67.982C286.252 67.982 285.592 68.252 285.196 68.852V68.084H284.02V74ZM291.121 74H292.291V68.996H294.355V74H295.519V68.084H292.291V67.73C292.291 66.896 292.699 66.488 293.509 66.488C294.091 66.488 294.571 66.644 294.991 66.944L295.543 66.11C294.967 65.744 294.343 65.534 293.455 65.534C292.195 65.534 291.121 66.254 291.121 67.634V68.084H290.101V68.996H291.121V74ZM297.087 74H298.263V71.084C298.263 69.638 298.773 68.996 299.715 68.996C300.555 68.996 300.969 69.512 300.969 70.64V74H302.145V70.208C302.145 68.756 301.359 67.982 300.051 67.982C299.319 67.982 298.659 68.252 298.263 68.852V68.084H297.087V74ZM307.571 74H308.651V70.28C308.651 68.828 307.739 67.982 306.167 67.982C305.153 67.982 304.241 68.324 303.575 69.098L304.421 69.812C304.949 69.212 305.477 68.996 306.083 68.996C307.001 68.996 307.487 69.47 307.487 70.28V70.472H305.699C305.123 70.472 304.589 70.568 304.181 70.82C303.743 71.09 303.449 71.552 303.449 72.212C303.449 73.352 304.337 74.102 305.675 74.102C306.443 74.102 307.103 73.814 307.511 73.202L307.571 74ZM304.625 72.224C304.625 71.936 304.733 71.72 304.931 71.576C305.183 71.402 305.543 71.354 305.867 71.354H307.487V71.528C307.487 72.464 306.719 73.148 305.807 73.148C305.081 73.148 304.625 72.788 304.625 72.224ZM310.211 74H311.393V71.306C311.393 70.64 311.429 70.376 311.501 70.124C311.729 69.428 312.287 69.146 312.833 69.146C313.079 69.146 313.373 69.224 313.559 69.326L314.135 68.27C313.775 68.06 313.445 67.982 313.103 67.982C312.485 67.982 311.783 68.33 311.393 68.918V68.084H310.211V74ZM315.157 74H316.327V68.084H315.157V74ZM315.073 67.064H316.405V65.636H315.073V67.064ZM320.514 74.102C321.504 74.102 322.236 73.772 322.89 73.076L322.074 72.356C321.642 72.83 321.162 73.04 320.526 73.04C319.506 73.04 318.918 72.428 318.864 71.414H323.052C323.076 71.228 323.088 70.964 323.088 70.874C323.088 69.356 322.248 67.982 320.418 67.982C318.564 67.982 317.694 69.47 317.694 71.084C317.694 72.704 318.588 74.102 320.514 74.102ZM318.852 70.544C318.924 69.698 319.452 68.96 320.448 68.96C321.444 68.96 321.966 69.692 321.966 70.436L321.96 70.544H318.852Z" fill="black"/>
<path d="M178 65C179.591 65 181.117 65.6321 182.243 66.7574C183.368 67.8826 184 69.4087 184 71C184 72.5913 183.368 74.1174 182.243 75.2426C181.117 76.3679 179.591 77 178 77L178 65Z" fill="#CAD0D3"/>
<rect y="106" width="375" height="231.466" fill="#E3E3E5"/>
<rect x="38.793" y="293.177" width="297.414" height="0.323276" fill="white"/>
<rect x="38.793" y="267.961" width="297.414" height="0.323276" fill="white"/>
<rect x="38.793" y="242.746" width="297.414" height="0.323276" fill="white"/>
<rect x="38.793" y="217.53" width="297.414" height="0.323276" fill="white"/>
<rect x="38.793" y="192.315" width="297.414" height="0.323276" fill="white"/>
<rect x="38.793" y="167.099" width="297.414" height="0.323276" fill="white"/>
<rect x="38.793" y="141.884" width="297.414" height="0.323276" fill="white"/>
<rect x="38.793" y="116.668" width="297.414" height="0.323276" fill="white"/>
<path d="M13.2089 298.505C14.7289 298.505 15.7639 297.61 15.7639 296.31C15.7639 295.395 15.1589 294.865 14.3989 294.635C14.9589 294.395 15.3739 293.935 15.3739 293.235C15.3739 292.135 14.4889 291.355 13.2389 291.355C11.9089 291.355 10.9589 292.205 10.9589 293.395L12.0539 293.465C12.0639 292.84 12.4839 292.42 13.1989 292.42C13.8439 292.42 14.2589 292.78 14.2589 293.345C14.2589 294.075 13.6289 294.335 12.8439 294.325V295.2C13.9339 295.2 14.6589 295.475 14.6589 296.3C14.6589 297.005 14.1239 297.435 13.2489 297.435C12.3389 297.435 11.7539 296.945 11.7539 296.17L10.6489 296.235C10.6489 297.595 11.6689 298.505 13.2089 298.505ZM16.6496 298.415H17.8696V297.15H16.6496V298.415ZM19.3869 298.415H20.6219L23.7619 292.265V291.445H18.7419V292.48H22.4419L19.3869 298.415ZM26.8276 298.505C28.3026 298.505 29.3526 297.325 29.3526 295.995C29.3526 294.735 28.3976 293.64 27.0076 293.64C26.6426 293.64 26.2376 293.72 25.8476 293.99L26.1276 292.48H29.0376V291.445H25.2176L24.5476 295.095L25.5976 295.37C25.8676 294.96 26.2826 294.685 26.8526 294.685C27.7526 294.685 28.1776 295.295 28.1776 295.995C28.1776 296.725 27.7276 297.445 26.8176 297.445C25.9876 297.445 25.5076 296.855 25.4226 296.23L24.3326 296.42C24.5176 297.615 25.5376 298.505 26.8276 298.505ZM32.4633 298.505C34.4933 298.505 34.8283 296.5 34.8283 294.905C34.8283 293.365 34.5133 291.345 32.4483 291.345C30.3433 291.345 30.0783 293.425 30.0783 294.895C30.0783 296.425 30.3633 298.505 32.4633 298.505ZM31.2183 294.935C31.2183 293.565 31.4283 292.41 32.4483 292.41C33.4333 292.41 33.6933 293.505 33.6933 294.94C33.6933 296.315 33.4433 297.435 32.4633 297.435C31.4283 297.435 31.2183 296.25 31.2183 294.935Z" fill="#04171F"/>
<path d="M45.0339 331.302H46.1439V324.332H45.0339V324.777C45.0339 325.262 44.7989 325.427 44.3589 325.427H43.2339V326.312H45.0339V331.302ZM49.4096 331.302H50.6896L52.7696 327.927C53.0096 327.537 53.1596 327.082 53.1596 326.632C53.1596 325.247 52.0196 324.242 50.6396 324.242C49.2696 324.242 48.1346 325.242 48.1346 326.642C48.1346 327.952 49.1596 328.977 50.4896 328.977C50.6396 328.977 50.7996 328.952 50.9546 328.907L49.4096 331.302ZM49.2646 326.647C49.2646 325.837 49.8796 325.297 50.6396 325.297C51.4046 325.297 52.0196 325.837 52.0196 326.642C52.0196 327.452 51.3996 327.992 50.6396 327.992C49.8696 327.992 49.2646 327.442 49.2646 326.647ZM56.7153 331.302H57.8253V329.652H58.9403V328.622H57.8253V324.332H56.8403L53.5553 328.792V329.652H56.7153V331.302ZM54.7653 328.622L56.7153 325.882V328.622H54.7653ZM61.786 331.392C63.306 331.392 64.341 330.497 64.341 329.197C64.341 328.282 63.736 327.752 62.976 327.522C63.536 327.282 63.951 326.822 63.951 326.122C63.951 325.022 63.066 324.242 61.816 324.242C60.486 324.242 59.536 325.092 59.536 326.282L60.631 326.352C60.641 325.727 61.061 325.307 61.776 325.307C62.421 325.307 62.836 325.667 62.836 326.232C62.836 326.962 62.206 327.222 61.421 327.212V328.087C62.511 328.087 63.236 328.362 63.236 329.187C63.236 329.892 62.701 330.322 61.826 330.322C60.916 330.322 60.331 329.832 60.331 329.057L59.226 329.122C59.226 330.482 60.246 331.392 61.786 331.392Z" fill="#04171F"/>
<path d="M94.8659 331.302H95.9759V324.332H94.8659V324.777C94.8659 325.262 94.6309 325.427 94.1909 325.427H93.0659V326.312H94.8659V331.302ZM99.2416 331.302H100.522L102.602 327.927C102.842 327.537 102.992 327.082 102.992 326.632C102.992 325.247 101.852 324.242 100.472 324.242C99.1016 324.242 97.9666 325.242 97.9666 326.642C97.9666 327.952 98.9916 328.977 100.322 328.977C100.472 328.977 100.632 328.952 100.787 328.907L99.2416 331.302ZM99.0966 326.647C99.0966 325.837 99.7116 325.297 100.472 325.297C101.237 325.297 101.852 325.837 101.852 326.642C101.852 327.452 101.232 327.992 100.472 327.992C99.7016 327.992 99.0966 327.442 99.0966 326.647ZM106.547 331.302H107.657V329.652H108.772V328.622H107.657V324.332H106.672L103.387 328.792V329.652H106.547V331.302ZM104.597 328.622L106.547 325.882V328.622H104.597ZM111.643 331.392C113.118 331.392 114.168 330.212 114.168 328.882C114.168 327.622 113.213 326.527 111.823 326.527C111.458 326.527 111.053 326.607 110.663 326.877L110.943 325.367H113.853V324.332H110.033L109.363 327.982L110.413 328.257C110.683 327.847 111.098 327.572 111.668 327.572C112.568 327.572 112.993 328.182 112.993 328.882C112.993 329.612 112.543 330.332 111.633 330.332C110.803 330.332 110.323 329.742 110.238 329.117L109.148 329.307C109.333 330.502 110.353 331.392 111.643 331.392Z" fill="#04171F"/>
<path d="M137.539 331.302H138.649V324.332H137.539V324.777C137.539 325.262 137.304 325.427 136.864 325.427H135.739V326.312H137.539V331.302ZM141.914 331.302H143.194L145.274 327.927C145.514 327.537 145.664 327.082 145.664 326.632C145.664 325.247 144.524 324.242 143.144 324.242C141.774 324.242 140.639 325.242 140.639 326.642C140.639 327.952 141.664 328.977 142.994 328.977C143.144 328.977 143.304 328.952 143.459 328.907L141.914 331.302ZM141.769 326.647C141.769 325.837 142.384 325.297 143.144 325.297C143.909 325.297 144.524 325.837 144.524 326.642C144.524 327.452 143.904 327.992 143.144 327.992C142.374 327.992 141.769 327.442 141.769 326.647ZM149.22 331.302H150.33V329.652H151.445V328.622H150.33V324.332H149.345L146.06 328.792V329.652H149.22V331.302ZM147.27 328.622L149.22 325.882V328.622H147.27ZM152.471 331.302H153.706L156.846 325.152V324.332H151.826V325.367H155.526L152.471 331.302Z" fill="#04171F"/>
<path d="M180.212 331.302H181.322V324.332H180.212V324.777C180.212 325.262 179.977 325.427 179.537 325.427H178.412V326.312H180.212V331.302ZM184.587 331.302H185.867L187.947 327.927C188.187 327.537 188.337 327.082 188.337 326.632C188.337 325.247 187.197 324.242 185.817 324.242C184.447 324.242 183.312 325.242 183.312 326.642C183.312 327.952 184.337 328.977 185.667 328.977C185.817 328.977 185.977 328.952 186.132 328.907L184.587 331.302ZM184.442 326.647C184.442 325.837 185.057 325.297 185.817 325.297C186.582 325.297 187.197 325.837 187.197 326.642C187.197 327.452 186.577 327.992 185.817 327.992C185.047 327.992 184.442 327.442 184.442 326.647ZM191.893 331.302H193.003V329.652H194.118V328.622H193.003V324.332H192.018L188.733 328.792V329.652H191.893V331.302ZM189.943 328.622L191.893 325.882V328.622H189.943ZM195.779 331.302H197.059L199.139 327.927C199.379 327.537 199.529 327.082 199.529 326.632C199.529 325.247 198.389 324.242 197.009 324.242C195.639 324.242 194.504 325.242 194.504 326.642C194.504 327.952 195.529 328.977 196.859 328.977C197.009 328.977 197.169 328.952 197.324 328.907L195.779 331.302ZM195.634 326.647C195.634 325.837 196.249 325.297 197.009 325.297C197.774 325.297 198.389 325.837 198.389 326.642C198.389 327.452 197.769 327.992 197.009 327.992C196.239 327.992 195.634 327.442 195.634 326.647Z" fill="#04171F"/>
<path d="M222.884 331.302H223.994V324.332H222.884V324.777C222.884 325.262 222.649 325.427 222.209 325.427H221.084V326.312H222.884V331.302ZM227.259 331.302H228.539L230.619 327.927C230.859 327.537 231.009 327.082 231.009 326.632C231.009 325.247 229.869 324.242 228.489 324.242C227.119 324.242 225.984 325.242 225.984 326.642C225.984 327.952 227.009 328.977 228.339 328.977C228.489 328.977 228.649 328.952 228.804 328.907L227.259 331.302ZM227.114 326.647C227.114 325.837 227.729 325.297 228.489 325.297C229.254 325.297 229.869 325.837 229.869 326.642C229.869 327.452 229.249 327.992 228.489 327.992C227.719 327.992 227.114 327.442 227.114 326.647ZM234.065 331.392C235.54 331.392 236.59 330.212 236.59 328.882C236.59 327.622 235.635 326.527 234.245 326.527C233.88 326.527 233.475 326.607 233.085 326.877L233.365 325.367H236.275V324.332H232.455L231.785 327.982L232.835 328.257C233.105 327.847 233.52 327.572 234.09 327.572C234.99 327.572 235.415 328.182 235.415 328.882C235.415 329.612 234.965 330.332 234.055 330.332C233.225 330.332 232.745 329.742 232.66 329.117L231.57 329.307C231.755 330.502 232.775 331.392 234.065 331.392ZM239.671 331.302H240.781V324.332H239.671V324.777C239.671 325.262 239.436 325.427 238.996 325.427H237.871V326.312H239.671V331.302Z" fill="#04171F"/>
<path d="M265.555 331.302H266.665V324.332H265.555V324.777C265.555 325.262 265.32 325.427 264.88 325.427H263.755V326.312H265.555V331.302ZM269.931 331.302H271.211L273.291 327.927C273.531 327.537 273.681 327.082 273.681 326.632C273.681 325.247 272.541 324.242 271.161 324.242C269.791 324.242 268.656 325.242 268.656 326.642C268.656 327.952 269.681 328.977 271.011 328.977C271.161 328.977 271.321 328.952 271.476 328.907L269.931 331.302ZM269.786 326.647C269.786 325.837 270.401 325.297 271.161 325.297C271.926 325.297 272.541 325.837 272.541 326.642C272.541 327.452 271.921 327.992 271.161 327.992C270.391 327.992 269.786 327.442 269.786 326.647ZM276.737 331.392C278.212 331.392 279.262 330.212 279.262 328.882C279.262 327.622 278.307 326.527 276.917 326.527C276.552 326.527 276.147 326.607 275.757 326.877L276.037 325.367H278.947V324.332H275.127L274.457 327.982L275.507 328.257C275.777 327.847 276.192 327.572 276.762 327.572C277.662 327.572 278.087 328.182 278.087 328.882C278.087 329.612 277.637 330.332 276.727 330.332C275.897 330.332 275.417 329.742 275.332 329.117L274.242 329.307C274.427 330.502 275.447 331.392 276.737 331.392ZM282.308 331.392C283.828 331.392 284.863 330.497 284.863 329.197C284.863 328.282 284.258 327.752 283.498 327.522C284.058 327.282 284.473 326.822 284.473 326.122C284.473 325.022 283.588 324.242 282.338 324.242C281.008 324.242 280.058 325.092 280.058 326.282L281.153 326.352C281.163 325.727 281.583 325.307 282.298 325.307C282.943 325.307 283.358 325.667 283.358 326.232C283.358 326.962 282.728 327.222 281.943 327.212V328.087C283.033 328.087 283.758 328.362 283.758 329.187C283.758 329.892 283.223 330.322 282.348 330.322C281.438 330.322 280.853 329.832 280.853 329.057L279.748 329.122C279.748 330.482 280.768 331.392 282.308 331.392Z" fill="#04171F"/>
<path d="M308.228 331.302H309.338V324.332H308.228V324.777C308.228 325.262 307.993 325.427 307.553 325.427H306.428V326.312H308.228V331.302ZM312.604 331.302H313.884L315.964 327.927C316.204 327.537 316.354 327.082 316.354 326.632C316.354 325.247 315.214 324.242 313.834 324.242C312.464 324.242 311.329 325.242 311.329 326.642C311.329 327.952 312.354 328.977 313.684 328.977C313.834 328.977 313.994 328.952 314.149 328.907L312.604 331.302ZM312.459 326.647C312.459 325.837 313.074 325.297 313.834 325.297C314.599 325.297 315.214 325.837 315.214 326.642C315.214 327.452 314.594 327.992 313.834 327.992C313.064 327.992 312.459 327.442 312.459 326.647ZM319.41 331.392C320.885 331.392 321.935 330.212 321.935 328.882C321.935 327.622 320.98 326.527 319.59 326.527C319.225 326.527 318.82 326.607 318.43 326.877L318.71 325.367H321.62V324.332H317.8L317.13 327.982L318.18 328.257C318.45 327.847 318.865 327.572 319.435 327.572C320.335 327.572 320.76 328.182 320.76 328.882C320.76 329.612 320.31 330.332 319.4 330.332C318.57 330.332 318.09 329.742 318.005 329.117L316.915 329.307C317.1 330.502 318.12 331.392 319.41 331.392ZM325.005 331.392C326.48 331.392 327.53 330.212 327.53 328.882C327.53 327.622 326.575 326.527 325.185 326.527C324.82 326.527 324.415 326.607 324.025 326.877L324.305 325.367H327.215V324.332H323.395L322.725 327.982L323.775 328.257C324.045 327.847 324.46 327.572 325.03 327.572C325.93 327.572 326.355 328.182 326.355 328.882C326.355 329.612 325.905 330.332 324.995 330.332C324.165 330.332 323.685 329.742 323.6 329.117L322.51 329.307C322.695 330.502 323.715 331.392 325.005 331.392Z" fill="#04171F"/>
<path d="M11.3889 273.2H12.6239L15.7639 267.05V266.23H10.7439V267.265H14.4439L11.3889 273.2ZM16.6496 273.2H17.8696V271.935H16.6496V273.2ZM21.2319 273.29C22.7069 273.29 23.7569 272.11 23.7569 270.78C23.7569 269.52 22.8019 268.425 21.4119 268.425C21.0469 268.425 20.6419 268.505 20.2519 268.775L20.5319 267.265H23.4419V266.23H19.6219L18.9519 269.88L20.0019 270.155C20.2719 269.745 20.6869 269.47 21.2569 269.47C22.1569 269.47 22.5819 270.08 22.5819 270.78C22.5819 271.51 22.1319 272.23 21.2219 272.23C20.3919 272.23 19.9119 271.64 19.8269 271.015L18.7369 271.205C18.9219 272.4 19.9419 273.29 21.2319 273.29ZM26.8676 273.29C28.8976 273.29 29.2326 271.285 29.2326 269.69C29.2326 268.15 28.9176 266.13 26.8526 266.13C24.7476 266.13 24.4826 268.21 24.4826 269.68C24.4826 271.21 24.7676 273.29 26.8676 273.29ZM25.6226 269.72C25.6226 268.35 25.8326 267.195 26.8526 267.195C27.8376 267.195 28.0976 268.29 28.0976 269.725C28.0976 271.1 27.8476 272.22 26.8676 272.22C25.8326 272.22 25.6226 271.035 25.6226 269.72ZM32.4633 273.29C34.4933 273.29 34.8283 271.285 34.8283 269.69C34.8283 268.15 34.5133 266.13 32.4483 266.13C30.3433 266.13 30.0783 268.21 30.0783 269.68C30.0783 271.21 30.3633 273.29 32.4633 273.29ZM31.2183 269.72C31.2183 268.35 31.4283 267.195 32.4483 267.195C33.4333 267.195 33.6933 268.29 33.6933 269.725C33.6933 271.1 33.4433 272.22 32.4633 272.22C31.4283 272.22 31.2183 271.035 31.2183 269.72Z" fill="#04171F"/>
<path d="M7.82688 222.769H8.93688V215.799H7.82688V216.244C7.82688 216.729 7.59188 216.894 7.15188 216.894H6.02688V217.779H7.82688V222.769ZM13.4126 222.859C14.8876 222.859 15.9376 221.679 15.9376 220.349C15.9376 219.089 14.9826 217.994 13.5926 217.994C13.2276 217.994 12.8226 218.074 12.4326 218.344L12.7126 216.834H15.6226V215.799H11.8026L11.1326 219.449L12.1826 219.724C12.4526 219.314 12.8676 219.039 13.4376 219.039C14.3376 219.039 14.7626 219.649 14.7626 220.349C14.7626 221.079 14.3126 221.799 13.4026 221.799C12.5726 221.799 12.0926 221.209 12.0076 220.584L10.9176 220.774C11.1026 221.969 12.1226 222.859 13.4126 222.859ZM16.8283 222.769H18.0483V221.504H16.8283V222.769ZM21.4506 222.859C23.4806 222.859 23.8156 220.854 23.8156 219.259C23.8156 217.719 23.5006 215.699 21.4356 215.699C19.3306 215.699 19.0656 217.779 19.0656 219.249C19.0656 220.779 19.3506 222.859 21.4506 222.859ZM20.2056 219.289C20.2056 217.919 20.4156 216.764 21.4356 216.764C22.4206 216.764 22.6806 217.859 22.6806 219.294C22.6806 220.669 22.4306 221.789 21.4506 221.789C20.4156 221.789 20.2056 220.604 20.2056 219.289ZM27.0463 222.859C29.0763 222.859 29.4113 220.854 29.4113 219.259C29.4113 217.719 29.0963 215.699 27.0313 215.699C24.9263 215.699 24.6613 217.779 24.6613 219.249C24.6613 220.779 24.9463 222.859 27.0463 222.859ZM25.8013 219.289C25.8013 217.919 26.0113 216.764 27.0313 216.764C28.0163 216.764 28.2763 217.859 28.2763 219.294C28.2763 220.669 28.0263 221.789 27.0463 221.789C26.0113 221.789 25.8013 220.604 25.8013 219.289ZM32.642 222.859C34.672 222.859 35.007 220.854 35.007 219.259C35.007 217.719 34.692 215.699 32.627 215.699C30.522 215.699 30.257 217.779 30.257 219.249C30.257 220.779 30.542 222.859 32.642 222.859ZM31.397 219.289C31.397 217.919 31.607 216.764 32.627 216.764C33.612 216.764 33.872 217.859 33.872 219.294C33.872 220.669 33.622 221.789 32.642 221.789C31.607 221.789 31.397 220.604 31.397 219.289Z" fill="#04171F"/>
<path d="M7.79188 121.997C9.31188 121.997 10.3469 121.102 10.3469 119.802C10.3469 118.887 9.74188 118.357 8.98188 118.127C9.54188 117.887 9.95688 117.427 9.95688 116.727C9.95688 115.627 9.07188 114.847 7.82188 114.847C6.49188 114.847 5.54188 115.697 5.54188 116.887L6.63688 116.957C6.64688 116.332 7.06688 115.912 7.78188 115.912C8.42688 115.912 8.84188 116.272 8.84188 116.837C8.84188 117.567 8.21188 117.827 7.42688 117.817V118.692C8.51688 118.692 9.24188 118.967 9.24188 119.792C9.24188 120.497 8.70688 120.927 7.83188 120.927C6.92188 120.927 6.33688 120.437 6.33688 119.662L5.23188 119.727C5.23188 121.087 6.25188 121.997 7.79188 121.997ZM13.4526 121.997C15.4826 121.997 15.8176 119.992 15.8176 118.397C15.8176 116.857 15.5026 114.837 13.4376 114.837C11.3326 114.837 11.0676 116.917 11.0676 118.387C11.0676 119.917 11.3526 121.997 13.4526 121.997ZM12.2076 118.427C12.2076 117.057 12.4176 115.902 13.4376 115.902C14.4226 115.902 14.6826 116.997 14.6826 118.432C14.6826 119.807 14.4326 120.927 13.4526 120.927C12.4176 120.927 12.2076 119.742 12.2076 118.427ZM16.8283 121.907H18.0483V120.642H16.8283V121.907ZM21.4506 121.997C23.4806 121.997 23.8156 119.992 23.8156 118.397C23.8156 116.857 23.5006 114.837 21.4356 114.837C19.3306 114.837 19.0656 116.917 19.0656 118.387C19.0656 119.917 19.3506 121.997 21.4506 121.997ZM20.2056 118.427C20.2056 117.057 20.4156 115.902 21.4356 115.902C22.4206 115.902 22.6806 116.997 22.6806 118.432C22.6806 119.807 22.4306 120.927 21.4506 120.927C20.4156 120.927 20.2056 119.742 20.2056 118.427ZM27.0463 121.997C29.0763 121.997 29.4113 119.992 29.4113 118.397C29.4113 116.857 29.0963 114.837 27.0313 114.837C24.9263 114.837 24.6613 116.917 24.6613 118.387C24.6613 119.917 24.9463 121.997 27.0463 121.997ZM25.8013 118.427C25.8013 117.057 26.0113 115.902 27.0313 115.902C28.0163 115.902 28.2763 116.997 28.2763 118.432C28.2763 119.807 28.0263 120.927 27.0463 120.927C26.0113 120.927 25.8013 119.742 25.8013 118.427ZM32.642 121.997C34.672 121.997 35.007 119.992 35.007 118.397C35.007 116.857 34.692 114.837 32.627 114.837C30.522 114.837 30.257 116.917 30.257 118.387C30.257 119.917 30.542 121.997 32.642 121.997ZM31.397 118.427C31.397 117.057 31.607 115.902 32.627 115.902C33.612 115.902 33.872 116.997 33.872 118.432C33.872 119.807 33.622 120.927 32.642 120.927C31.607 120.927 31.397 119.742 31.397 118.427Z" fill="#04171F"/>
<path d="M53 318L96.5385 221.79C96.9437 220.894 98.3616 221.123 98.423 222.094L101.883 276.797C101.992 278.517 103.858 279.638 105.571 279.014C108.959 277.78 111.546 275.146 112.577 271.881L122.303 241.088C124.208 235.058 127.216 229.384 131.195 224.319L141.389 211.34C143.239 208.984 146.176 207.593 149.298 207.593H157.874C163.414 207.593 168.79 205.838 173.131 202.613L177.32 199.5C179.456 197.913 182.199 197.229 184.894 197.612L189.789 198.306C194.407 198.962 199.129 198.317 203.355 196.454L210.591 193.264C212.179 192.564 214.064 193.312 214.633 194.867L228.855 233.787C231.09 239.905 234.283 245.678 238.329 250.917L244.913 259.445C249.684 265.624 255.768 271.748 256.498 279.343L260.216 318H53Z" fill="#CAD0D3"/>
<path d="M52.5445 317.794L52.2249 318.5H53H260.216H260.766L260.713 317.952L256.996 279.295C256.619 275.378 254.865 271.866 252.635 268.582C251.174 266.43 249.481 264.34 247.822 262.292C246.963 261.23 246.113 260.181 245.309 259.139L238.724 250.612C234.71 245.412 231.542 239.685 229.324 233.616L215.103 194.696C214.427 192.846 212.219 191.999 210.389 192.806L203.154 195.996C199.013 197.822 194.386 198.454 189.859 197.811L184.964 197.117C182.142 196.716 179.266 197.431 177.022 199.098L172.832 202.211C168.581 205.37 163.309 207.093 157.874 207.093H149.298C146.03 207.093 142.945 208.549 140.995 211.031L130.801 224.01C126.787 229.121 123.749 234.849 121.826 240.938L112.1 271.73C111.118 274.838 108.651 277.36 105.4 278.544C103.96 279.069 102.467 278.111 102.382 276.766L98.922 222.063C98.8733 221.294 98.2787 220.844 97.6895 220.748C97.1013 220.653 96.3971 220.889 96.0829 221.583L52.5445 317.794Z" stroke="#04171F"/>
<path d="M130.284 262.908L82.1084 300.43H292.761V274.177H281.068C277.895 274.177 274.883 272.869 272.83 270.6L264.412 261.295C263.289 260.053 261.269 259.987 260.056 261.153L246.467 274.226C244.945 275.691 242.313 275.15 241.582 273.223L227.149 235.171C225.771 231.537 222.929 228.555 219.234 226.865L210.777 222.995C206.888 221.216 202.618 220.291 198.29 220.291H195.814C191.507 220.291 187.332 218.893 183.998 216.335L176.144 210.307C174.579 209.106 172.218 209.708 171.516 211.486L153.308 257.597H145.969C140.24 257.597 134.691 259.476 130.284 262.908Z" fill="#98A2A7"/>
<path d="M81.8012 300.035L80.6527 300.93H82.1084H292.761H293.261V300.43V274.177V273.677H292.761H281.068C278.03 273.677 275.155 272.425 273.201 270.265L264.783 260.959C263.469 259.506 261.124 259.433 259.71 260.793L246.121 273.866C244.841 275.097 242.646 274.617 242.05 273.046L227.616 234.993C226.189 231.231 223.251 228.153 219.442 226.41L210.985 222.541C207.03 220.731 202.688 219.791 198.29 219.791H195.814C191.614 219.791 187.547 218.428 184.303 215.938L176.449 209.911C174.638 208.521 171.883 209.194 171.051 211.303L152.968 257.097H145.969C140.132 257.097 134.474 259.011 129.977 262.514L81.8012 300.035Z" stroke="#04171F"/>
<path d="M109.188 285.701L86.9821 304.767L86 318H355.086V309.818C355.086 303.496 353.764 297.236 351.195 291.387L330.81 244.982C329.752 242.573 327.239 241 324.45 241H312.395C308.812 241 305.266 241.678 301.971 242.993L298.891 244.222C294.608 245.931 291.165 249.074 289.239 253.032L276.223 279.775C274.311 283.703 270.115 286.225 265.493 286.225H216.416C214.263 286.225 212.116 286.013 210.01 285.594C200.037 283.608 189.868 282.607 179.671 282.607H176.841L140.996 279.893H125.144C119.234 279.893 113.538 281.966 109.188 285.701Z" fill="#65747B"/>
<path d="M86.6564 304.388L86.4988 304.523L86.4834 304.73L85.5014 317.963L85.4615 318.5H86H355.086H355.586V318V309.818C355.586 303.426 354.249 297.097 351.652 291.186L331.268 244.781C330.124 242.177 327.422 240.5 324.45 240.5H312.395C308.749 240.5 305.14 241.19 301.786 242.529L298.706 243.758C294.313 245.511 290.773 248.738 288.789 252.814L275.773 279.556C273.951 283.3 269.938 285.725 265.493 285.725H216.416C214.296 285.725 212.181 285.517 210.107 285.104C200.102 283.111 189.901 282.107 179.671 282.107H176.86L141.033 279.395L141.015 279.393H140.996H125.144C119.118 279.393 113.306 281.507 108.862 285.322L86.6564 304.388Z" stroke="#04171F"/>
<path d="M96.2138 297.521L72 319H338.178L311.61 313.887L290.946 308.774L269.857 305.383C268.502 305.166 267.17 304.835 265.875 304.396L255.709 300.949C251.104 299.387 246.105 299.217 241.394 300.463C238.054 301.347 234.561 301.572 231.126 301.126L196.971 296.69H183.232C180.7 296.69 178.583 294.855 178.343 292.454L161.015 118.847C160.903 117.721 159.18 117.716 159.06 118.841L140.75 290.521C140.545 292.438 138.846 293.894 136.824 293.886L106.318 293.757C102.57 293.742 98.957 295.087 96.2138 297.521Z" fill="#34464E"/>
<path d="M311.49 314.373L311.503 314.376L311.516 314.378L332.934 318.5H73.3171L96.5456 297.895C99.1945 295.545 102.688 294.242 106.316 294.257L136.821 294.386C139.081 294.395 141.013 292.765 141.247 290.574L159.557 118.894C159.584 118.646 159.771 118.499 160.039 118.5C160.307 118.501 160.493 118.649 160.518 118.897L177.846 292.503C178.113 295.18 180.463 297.19 183.232 297.19H196.938L231.062 301.622C234.56 302.077 238.12 301.847 241.522 300.947C246.138 299.726 251.036 299.892 255.549 301.422L265.715 304.87C267.036 305.318 268.395 305.655 269.778 305.877L290.846 309.265L311.49 314.373Z" stroke="#04171F"/>
<path d="M51.7212 276.164L38 319H355.207L279.471 317.168H258.394C256.383 317.168 254.374 317.031 252.384 316.758L206.833 310.518C205.755 310.37 204.702 310.095 203.7 309.699L196.02 306.664C191.501 304.878 186.418 304.777 181.821 306.383C178.751 307.456 175.498 308.005 172.218 308.005H117.603C116.668 308.005 115.738 307.892 114.834 307.67L107.854 305.948C102.681 304.673 98.6549 300.888 97.333 296.057L81.277 237.381C80.8746 235.91 78.8375 235.507 77.8274 236.697L65.901 250.754C59.4896 258.311 54.6777 266.934 51.7212 276.164Z" fill="url(#paint0_linear)"/>
<path d="M313.871 318.5H38.6852L52.1974 276.317C55.1334 267.151 59.9125 258.586 66.2823 251.078L78.2087 237.021C78.9797 236.112 80.5069 236.461 80.7947 237.513L96.8508 296.189C98.2241 301.208 102.399 305.118 107.735 306.434L114.715 308.155C115.657 308.387 116.628 308.505 117.603 308.505H172.218C175.553 308.505 178.862 307.946 181.986 306.855C186.469 305.289 191.429 305.387 195.836 307.129L203.516 310.164C204.556 310.575 205.648 310.86 206.765 311.013L252.316 317.253C254.329 317.529 256.36 317.668 258.394 317.668H279.465H279.471L313.871 318.5Z" stroke="#04171F"/>
<rect width="1" height="1" transform="matrix(1 0 0 -1 60 319)" fill="white"/>
<rect width="1" height="1" transform="matrix(1 0 0 -1 81 319)" fill="white"/>
<rect width="1" height="1" transform="matrix(1 0 0 -1 103 319)" fill="white"/>
<rect width="1" height="1" transform="matrix(1 0 0 -1 124 319)" fill="white"/>
<rect width="1" height="1" transform="matrix(1 0 0 -1 145 319)" fill="white"/>
<rect width="1" height="1" transform="matrix(1 0 0 -1 166 319)" fill="white"/>
<rect width="1" height="1" transform="matrix(1 0 0 -1 188.008 319)" fill="white"/>
<rect width="1" height="1" transform="matrix(1 0 0 -1 209 319)" fill="white"/>
<rect width="1" height="1" transform="matrix(1 0 0 -1 230 319)" fill="white"/>
<rect width="1" height="1" transform="matrix(1 0 0 -1 252.017 319)" fill="white"/>
<rect width="1" height="1" transform="matrix(1 0 0 -1 273 319)" fill="white"/>
<rect width="1" height="1" transform="matrix(1 0 0 -1 294 319)" fill="white"/>
<rect width="1" height="1" transform="matrix(1 0 0 -1 316.025 319)" fill="white"/>
<defs>
<linearGradient id="paint0_linear" x1="196.604" y1="236" x2="196.604" y2="319" gradientUnits="userSpaceOnUse">
<stop stop-color="#04171F"/>
<stop offset="1" stop-color="#04171F"/>
</linearGradient>
</defs>
</svg>
