<svg width="76" height="22" viewBox="0 0 76 22" fill="none" xmlns="http://www.w3.org/2000/svg">
<g clip-path="url(#clip0_2462_151)">
<path d="M55.8737 17.4083C56.5583 17.4247 57.2399 17.3115 57.882 17.0749C59.3911 16.5925 60.6791 15.5935 61.5167 14.2558C61.8607 13.7491 62.0562 13.1574 62.0814 12.5466C62.0814 11.8334 61.5804 11.4282 60.8967 11.6688C60.4371 11.8386 60.0072 12.0793 59.6229 12.382C58.5691 13.229 57.6799 14.2602 56.9989 15.4248C56.604 16.0494 56.26 16.6909 55.8652 17.4083H55.8737ZM23.1706 11.3269C22.8424 11.3693 22.5185 11.4399 22.2025 11.538C20.6762 12.1365 19.337 13.1268 18.3216 14.4078C17.897 14.9015 17.5955 15.4628 17.2219 15.9819C16.7528 16.6607 16.3679 17.3933 16.0755 18.1638C15.8146 18.7699 15.7208 19.4341 15.8037 20.0882C15.8125 20.4051 15.9442 20.7064 16.1713 20.929C16.3984 21.1516 16.7034 21.2783 17.0223 21.2825C17.2538 21.3078 17.4873 21.3078 17.7187 21.2825C19.018 21.1433 20.0413 20.4385 20.9627 19.5944C22.3924 18.2835 23.582 16.7355 24.4784 15.0197C24.7721 14.5137 24.9707 13.9589 25.0643 13.3822C25.196 12.3862 24.7629 11.6561 23.8627 11.424C23.634 11.3782 23.4029 11.3444 23.1706 11.3227V11.3269ZM45.25 11.2594H47.5684C47.5229 11.353 47.4507 11.4312 47.3609 11.4845C47.2711 11.5377 47.1676 11.5637 47.0631 11.5591C46.4474 11.5591 45.8233 11.5591 45.2076 11.5591C45.1368 11.5539 45.0662 11.57 45.0048 11.6054C44.9434 11.6408 44.8942 11.6938 44.8637 11.7574C43.5559 13.9899 42.2354 16.2098 40.9276 18.4423C40.6546 18.8827 40.4271 19.3493 40.2482 19.835C40.0104 20.5524 40.4775 21.0546 41.2333 20.9618C41.9486 20.8457 42.6239 20.5558 43.1992 20.1177C44.8594 18.9076 46.3551 17.4891 47.6491 15.8975C48.7354 14.5863 49.7285 13.2015 50.6213 11.7532C50.6525 11.6904 50.702 11.6383 50.7633 11.6037C50.8246 11.5691 50.895 11.5535 50.9652 11.5591C51.513 11.5591 52.0607 11.5591 52.6637 11.5591C52.6 11.673 52.5575 11.7574 52.5108 11.8376C51.1606 14.1714 49.8018 16.501 48.4643 18.8432C48.2968 19.1681 48.1549 19.5053 48.0397 19.8519C48.0077 19.9585 47.9948 20.07 48.0015 20.1811C47.9813 20.3177 47.9983 20.4572 48.0508 20.585C48.1032 20.7129 48.1892 20.8244 48.2998 20.908C48.4104 20.9916 48.5414 21.0442 48.6794 21.0603C48.8174 21.0765 48.9572 21.0556 49.0842 20.9998C49.6241 20.8262 50.1195 20.5382 50.5364 20.1557C51.6069 19.2451 52.5931 18.2409 53.4831 17.1551C54.0224 16.501 54.4895 15.7878 55.0372 15.1421C56.2793 13.6401 57.8647 12.455 59.6611 11.6857C60.5143 11.2895 61.4736 11.1784 62.3956 11.3692C62.4429 11.3793 62.4897 11.392 62.5357 11.4071C63.61 11.6688 63.8392 12.382 63.6737 13.34C63.5137 13.973 63.1553 14.5391 62.6504 14.9564C61.6616 15.8776 60.4901 16.5834 59.2111 17.0285C58.1981 17.4286 57.1165 17.6293 56.0265 17.6194C55.9809 17.6241 55.9371 17.6396 55.8987 17.6646C55.8603 17.6895 55.8284 17.7232 55.8057 17.7628C55.5751 18.3174 55.4512 18.91 55.4406 19.51C55.4126 19.8489 55.5059 20.1866 55.704 20.4638C55.9021 20.741 56.1922 20.9398 56.5233 21.0251C57.2836 21.2655 58.1059 21.2235 58.8374 20.9069C60.0196 20.422 61.1365 19.7926 62.1621 19.0331C64.9168 17.042 67.2704 14.5538 69.1001 11.6983C69.1382 11.627 69.196 11.568 69.2667 11.5284C69.3374 11.4888 69.4182 11.4701 69.4992 11.4747C70.1404 11.4747 70.773 11.4747 71.4779 11.4747C70.9896 12.3187 70.5268 13.0868 70.0639 13.8802C70.7603 13.3949 71.4269 12.9053 72.1233 12.4538C72.8084 11.9713 73.5836 11.6298 74.4034 11.4493C74.6354 11.4067 74.8745 11.4245 75.0974 11.5012C75.3203 11.5779 75.5194 11.7108 75.6752 11.8869C75.8309 12.063 75.9381 12.2762 75.9861 12.5058C76.034 12.7353 76.0213 12.9733 75.949 13.1965C75.9136 13.3666 75.8433 13.5277 75.7425 13.6697C75.6418 13.8117 75.5127 13.9315 75.3633 14.0218C75.214 14.112 75.0475 14.1708 74.8744 14.1943C74.7012 14.2179 74.525 14.2058 74.3567 14.1587C74.2108 14.1168 74.0759 14.0433 73.9618 13.9435C73.8018 13.763 73.6969 13.5409 73.6592 13.3032C73.6217 13.0655 73.6529 12.8221 73.7495 12.6015C73.823 12.4041 73.9585 12.2356 74.136 12.1208C74.3134 12.006 74.5233 11.9511 74.7346 11.9642H74.8747L74.9002 11.8925C74.7728 11.846 74.637 11.749 74.5138 11.7616C74.148 11.7877 73.787 11.86 73.4396 11.9769C71.9563 12.5808 70.6569 13.5582 69.6691 14.8129C69.1522 15.4869 68.6772 16.1915 68.2467 16.923C67.304 18.4465 66.3741 19.9827 65.4528 21.5189C65.4174 21.5924 65.3601 21.6533 65.2887 21.6933C65.2173 21.7333 65.1352 21.7505 65.0536 21.7425C64.421 21.7425 63.7798 21.7425 63.1089 21.7425C64.5653 19.3117 65.9962 16.923 67.4314 14.5344L67.3932 14.509C66.9941 14.9311 66.5992 15.3531 66.1916 15.7751C64.4353 17.6321 62.4359 19.246 60.2471 20.5735C59.1932 21.2244 58.0223 21.6658 56.7993 21.8734C56.6581 21.8871 56.5159 21.8871 56.3747 21.8734C56.069 21.8523 55.7633 21.8143 55.4618 21.7974C54.9822 21.7876 54.518 21.6266 54.1364 21.3376C53.7548 21.0486 53.4755 20.6466 53.3388 20.1895C53.0932 19.4193 53.1385 18.5866 53.4662 17.8472C53.5086 17.7417 53.5468 17.6362 53.585 17.5307V17.4716C53.5129 17.5603 53.4492 17.632 53.3855 17.7038C52.2863 18.934 51.0784 20.064 49.7763 21.08C49.2122 21.5393 48.5295 21.8318 47.8062 21.924C47.3671 21.9797 46.9211 21.9408 46.4984 21.8101C46.2783 21.7142 46.0925 21.5546 45.9652 21.352C45.8379 21.1495 45.7751 20.9134 45.7851 20.6748C45.7296 20.2025 45.8091 19.7243 46.0144 19.2948C46.3668 18.5605 46.7319 17.8304 47.0928 17.0961C47.1339 17.0273 47.1532 16.9479 47.148 16.8681C47.0844 16.9357 47.0207 17.0074 46.9527 17.0749C45.7284 18.3693 44.3945 19.5567 42.9657 20.6242C42.4931 20.9718 41.9763 21.2557 41.4286 21.4682C41.0668 21.5717 40.6926 21.6256 40.3161 21.6286C40.0784 21.6581 39.8363 21.6708 39.5943 21.6877C39.3739 21.7171 39.1496 21.6913 38.9419 21.6126C38.7341 21.5339 38.5494 21.4047 38.4046 21.2369C38.2599 21.0692 38.1597 20.8681 38.1131 20.6519C38.0665 20.4358 38.075 20.2116 38.1379 19.9996C38.2397 19.5653 38.3997 19.1466 38.6135 18.7546C39.8873 16.5305 41.1611 14.3275 42.4349 12.1161C42.4831 12.0384 42.5108 11.9499 42.5156 11.8587L42.3585 12.0359C41.6027 12.9434 40.7272 13.7455 39.7557 14.4204C39.3345 14.6854 38.8486 14.8313 38.3502 14.8424C38.156 14.8345 37.9693 14.7658 37.8167 14.646C37.6642 14.5262 37.5537 14.3616 37.501 14.1756C37.4522 13.9634 37.4545 13.7427 37.5076 13.5316C37.5607 13.3204 37.6632 13.1246 37.8067 12.9602C37.8993 12.838 38.0258 12.7453 38.1706 12.6936C38.3154 12.6418 38.4723 12.6333 38.622 12.669C38.813 12.7196 39.0126 12.7365 39.2079 12.7703C39.2234 12.5821 39.164 12.3954 39.0425 12.2503C38.9211 12.1051 38.7472 12.013 38.5583 11.9938C36.9745 11.7405 35.8493 12.5466 34.9109 13.627C34.3035 14.3728 33.7595 15.1675 33.2847 16.003C32.168 17.843 31.0895 19.7042 29.9983 21.5611C29.9704 21.6297 29.9211 21.6876 29.8577 21.7264C29.7943 21.7651 29.72 21.7826 29.6458 21.7763C28.9113 21.7763 28.1809 21.7763 27.4167 21.7763L29.9049 17.7966C29.4251 18.2904 28.9622 18.801 28.4697 19.2821C27.5526 20.2293 26.4634 20.9953 25.2597 21.54C24.8211 21.7385 24.3588 21.8803 23.8839 21.962C23.5935 22.0102 23.2959 21.9926 23.0132 21.9106C22.7306 21.8285 22.4702 21.6842 22.2514 21.4883C22.0327 21.2924 21.8613 21.0499 21.7499 20.779C21.6385 20.5081 21.59 20.2157 21.6081 19.9236V19.6451C21.5527 19.6733 21.4989 19.7042 21.4467 19.7379C20.4757 20.4774 19.4124 21.0888 18.2834 21.5569C17.5197 21.9135 16.6614 22.0185 15.8334 21.8565C15.3068 21.7521 14.8335 21.4681 14.4954 21.0534C14.1573 20.6388 13.9758 20.1197 13.9822 19.586C13.9822 19.2146 14.0246 18.839 14.0459 18.4465L13.8548 18.6027C12.1201 20.1305 10.0355 21.2128 7.78293 21.7552C5.99038 22.1702 4.11165 22.0107 2.41592 21.2994C1.06992 20.7634 0.411807 19.7253 0.127322 18.3706C-0.10735 16.9763 0.0392995 15.5449 0.551927 14.2263C1.45579 11.5851 2.90167 9.15929 4.79797 7.10249C6.43756 5.33398 8.36895 3.85675 10.5089 2.7345C11.6567 2.05499 12.8984 1.54598 14.1945 1.22364C16.0032 0.778154 17.9133 1.00478 19.5657 1.86091C20.1315 2.10442 20.7607 2.16209 21.3618 2.0255C21.9053 1.94954 22.4403 1.79338 22.9838 1.67099C22.0468 2.75041 21.2284 3.92607 20.5423 5.17802C20.4289 4.64898 20.2872 4.12635 20.1177 3.61232C19.9518 3.20599 19.738 2.82064 19.4808 2.4644C19.2171 2.11542 18.879 1.82886 18.4906 1.62527C18.1022 1.42168 17.6733 1.30613 17.2346 1.28696C15.4551 1.11618 13.6711 1.56359 12.1861 2.55304C9.95095 3.90103 8.01281 5.68386 6.48789 7.79459C5.87222 8.63864 5.21408 9.48269 4.6621 10.3563C3.61045 12.2124 2.90691 14.2429 2.58577 16.3491C2.3892 17.7906 2.75869 19.2521 3.61756 20.43C3.82391 20.7123 4.08794 20.9481 4.39234 21.1219C4.69674 21.2957 5.03464 21.4037 5.38393 21.4387C7.05222 21.6792 8.75419 21.3835 10.2414 20.5946C11.5849 19.9363 12.8343 19.1032 13.9567 18.1173C14.0551 18.0239 14.1382 17.9156 14.203 17.7966C15.1547 16.1399 16.374 14.65 17.8121 13.3864C19.1004 12.2483 20.6748 11.4782 22.3681 11.1581C22.9328 11.0722 23.5086 11.0908 24.0665 11.213C24.4672 11.3186 24.8219 11.5521 25.0759 11.8778C25.3299 12.2034 25.469 12.603 25.472 13.015C25.4725 13.1567 25.4867 13.2981 25.5144 13.4371C25.5484 13.378 25.5866 13.3147 25.6163 13.2556C25.9008 12.745 26.1853 12.2343 26.4655 11.7279C26.5038 11.6603 26.5844 11.5759 26.6481 11.5717C27.3063 11.5717 27.9644 11.5717 28.6523 11.5717C28.6056 11.6561 28.5631 11.7363 28.5164 11.8123L24.3892 18.7462C24.1201 19.1653 23.9409 19.6351 23.8627 20.1262C23.8335 20.2757 23.8423 20.4301 23.8882 20.5754C23.9342 20.7207 24.0159 20.8523 24.1259 20.9583C24.2359 21.0644 24.3708 21.1414 24.5184 21.1825C24.6659 21.2237 24.8215 21.2276 24.9709 21.1939C25.517 21.0865 26.0329 20.8618 26.4825 20.5355C27.8844 19.5625 29.1274 18.3811 30.1681 17.0327C31.4928 15.3728 32.6948 13.6196 33.7645 11.787C33.796 11.7163 33.849 11.6571 33.916 11.6178C33.983 11.5784 34.0606 11.5609 34.1381 11.5675C34.7496 11.5675 35.3568 11.5675 36.0149 11.5675L35.1657 12.9686L35.1912 12.9982L35.3907 12.8547C36.1903 12.2107 37.1814 11.8473 38.2101 11.8207C38.4125 11.8064 38.6155 11.8384 38.8036 11.9141C38.9916 11.9899 39.1597 12.1074 39.295 12.2578C39.4303 12.4081 39.5291 12.5872 39.5839 12.7814C39.6387 12.9756 39.6481 13.1797 39.6113 13.378C39.5619 13.6767 39.4909 13.9714 39.399 14.26C39.6071 14.1376 39.8236 14.0195 40.0317 13.8802C41.131 13.1173 42.0915 12.174 42.8723 11.0906C43.8106 9.82453 44.6514 8.44873 45.5218 7.11513C45.559 7.03645 45.6198 6.97111 45.6958 6.92805C45.7718 6.88499 45.8593 6.86631 45.9464 6.87458C46.5493 6.87458 47.1523 6.87458 47.7892 6.87458L45.2585 11.2637" fill="#FBF9F4"/>
</g>
<defs>
<clipPath id="clip0_2462_151">
<rect width="76" height="22" fill="white"/>
</clipPath>
</defs>
</svg>
