<svg width="182" height="22" viewBox="0 0 182 22" fill="none" xmlns="http://www.w3.org/2000/svg">
<path d="M0 0.0419922L0 4.14399L3.00794 4.14399L3.03209 17.744L0 17.7886L0 21.7791L10.6934 21.7791L10.6934 17.7886L7.63713 17.7886L7.63713 4.14399H10.6451V0.0419922L0 0.0419922Z" fill="#04171F"/>
<path d="M0.53125 3.64345L3.53574 3.64345L3.56334 18.2347L0.53125 18.2793L0.53125 21.2785H10.1656L10.1656 18.2889H7.10939L7.10939 3.64345L10.1173 3.64345V0.539062L0.53125 0.539062L0.53125 3.64345Z" fill="#04171F"/>
<path d="M11.9346 0.0415039V4.1435L14.9425 4.1435L14.9425 17.7435L11.9346 17.7881L11.9346 21.7786L29.8063 21.7786V14.0718L25.7808 14.0718V17.7881L19.5476 17.7881L19.5476 4.1435H22.5555V0.0415039L11.9346 0.0415039Z" fill="#04171F"/>
<path d="M12.4658 0.539062V3.64663L15.4738 3.64663L15.4738 18.2347L12.4658 18.2793L12.4658 21.2817L29.2785 21.2817V14.5694L26.312 14.5694V18.2889L19.0198 18.2889L19.0198 3.64663L22.0277 3.64663V0.539062L12.4658 0.539062Z" fill="#04171F"/>
<path d="M140.652 0.0415039V4.1435L143.564 4.1435V17.7658L140.652 17.7881V21.7786L157.41 21.7563V14.1387L153.264 14.1387V17.7658L148.265 17.7881V4.1435H151.297V0.0415039L140.652 0.0415039Z" fill="#04171F"/>
<path d="M141.184 0.539062V3.64663L144.091 3.64663V18.2602L141.184 18.2857V21.2785L156.879 21.2594V14.6395L153.774 14.6395V18.2634L147.72 18.2921V3.64663L150.752 3.64663V0.539062L141.184 0.539062Z" fill="#04171F"/>
<path d="M58.3718 0.0415039V4.1435L61.3797 4.1435L61.4004 17.7435H58.3477L58.3718 21.7786L69.0652 21.7786V17.7881L65.9848 17.7881V4.1435H69.0169V0.0415039L58.3718 0.0415039Z" fill="#04171F"/>
<path d="M58.8986 0.539062V3.64663L61.9066 3.64663L61.9307 18.2443H58.8779L58.8952 21.2817H68.533V18.2889H65.4561V3.64663L68.4847 3.64663V0.539062L58.8986 0.539062Z" fill="#04171F"/>
<path fill-rule="evenodd" clip-rule="evenodd" d="M50.7392 8.81282C51.0697 8.8198 51.3982 8.76479 51.7051 8.65113C52.0119 8.53747 52.2906 8.36752 52.5244 8.15154C52.7581 7.93556 52.942 7.67804 53.065 7.39454C53.1881 7.11103 53.2476 6.80743 53.24 6.50207C53.2521 5.88912 53.0007 5.29675 52.541 4.85468C52.0813 4.41262 51.4508 4.15689 50.7875 4.1435H46.5688V8.7682L50.7392 8.81282ZM57.6071 6.36501C57.6174 8.02946 56.9189 9.6309 55.6623 10.8236C54.4058 12.0162 52.692 12.7044 50.8909 12.7395H46.5688V17.7913L49.6008 17.7913V21.7786L38.9316 21.7786V17.7435H41.9361V4.1435L38.9316 4.1435V0.0415039L50.8634 0.0415039C52.6645 0.0558197 54.3859 0.729584 55.6501 1.91502C56.9143 3.10046 57.6181 4.70079 57.6071 6.36501Z" fill="#04171F"/>
<path d="M39.458 21.2815H49.0682V18.2887H46.0362V12.2329H50.8654C52.5442 12.2303 54.1531 11.6117 55.3382 10.5131C56.5233 9.41447 57.1876 7.92585 57.1849 6.3747C57.1821 4.82355 56.5126 3.33694 55.3236 2.24191C54.1346 1.14688 52.5235 0.533116 50.8447 0.535652L39.4615 0.535652V3.64322L42.4694 3.64322V18.2408H39.4615L39.458 21.2815ZM50.7067 9.31335L46.0224 9.26235V3.64641L50.7723 3.64641C51.1721 3.65303 51.5666 3.73259 51.9331 3.88051C52.2995 4.02842 52.6307 4.24179 52.9077 4.50834C53.1846 4.7749 53.4018 5.08939 53.5468 5.43374C53.6918 5.7781 53.7618 6.14553 53.7526 6.51494C53.7595 6.87811 53.6888 7.23896 53.5446 7.57685C53.4004 7.91475 53.1855 8.22306 52.9122 8.48415C52.6389 8.74525 52.3126 8.954 51.9519 9.09847C51.5912 9.24294 51.2033 9.32029 50.8102 9.3261H50.7067" fill="#04171F"/>
<path fill-rule="evenodd" clip-rule="evenodd" d="M87.27 8.11163H91.6509V0.0415039L87.3977 0.0415039V1.65107C85.6017 0.609355 83.5264 0.0518882 81.4059 0.0415039C78.286 0.0633813 75.302 1.22435 73.1049 3.27117C70.9078 5.31799 69.6758 8.08456 69.6777 10.9674C69.6777 17.0232 74.9658 21.9602 81.4059 21.9602C86.6664 21.9602 90.9955 18.6073 92.4235 14.0718L87.0113 14.0654C86.4493 14.9733 85.6379 15.7281 84.6592 16.2536C83.6804 16.7791 82.569 17.0566 81.437 17.0582C79.7062 17.0217 78.0596 16.3608 76.8494 15.2169C75.6393 14.0729 74.9617 12.5368 74.9617 10.9371C74.9617 9.33747 75.6393 7.80134 76.8494 6.65739C78.0596 5.51343 79.7062 4.8525 81.437 4.81601C82.6452 4.80772 83.8319 5.11199 84.8627 5.6944C85.8935 6.27681 86.7274 7.11412 87.27 8.11163Z" fill="#04171F"/>
<path d="M73.5214 3.6052C71.4132 5.57073 70.2305 8.226 70.2305 10.9933C70.2305 13.7605 71.4132 16.4158 73.5214 18.3813C74.5486 19.3527 75.775 20.1252 77.1289 20.6538C78.4828 21.1825 79.9371 21.4566 81.4069 21.4602C86.1706 21.4602 90.1341 18.5917 91.6932 14.5694L87.2986 14.5502C86.6723 15.4642 85.8065 16.2173 84.7815 16.7399C83.7564 17.2625 82.6052 17.5377 81.4345 17.5399C79.562 17.5019 77.7801 16.7879 76.4703 15.5509C75.1606 14.3139 74.4271 12.6521 74.4271 10.9215C74.4271 9.19098 75.1606 7.52922 76.4703 6.29218C77.7801 5.05514 79.562 4.34118 81.4345 4.30321C82.691 4.29299 83.9274 4.59459 85.0147 5.17653C86.1021 5.75846 87.0004 6.59941 87.6159 7.61158H91.1448V0.539062L87.9264 0.539062V2.54066L87.1227 2.07532C85.4093 1.08176 83.4298 0.54972 81.4069 0.539062C79.9373 0.542453 78.483 0.8152 77.1282 1.34151C75.7735 1.86782 74.5452 2.63724 73.5145 3.6052" fill="#04171F"/>
<path fill-rule="evenodd" clip-rule="evenodd" d="M110.863 8.11163H115.275V0.0415039L110.984 0.0415039V1.65107C109.186 0.616202 107.111 0.0643919 104.992 0.0574402C101.874 0.0784967 98.8909 1.23972 96.6963 3.28717C94.5017 5.33463 93.2739 8.10172 93.2813 10.9833C93.2813 17.0391 98.5417 21.9762 104.992 21.9762C110.256 21.9762 114.62 18.6232 116.051 14.0877L110.594 14.0654C110.029 14.9714 109.216 15.7246 108.238 16.2497C107.259 16.7749 106.148 17.0536 105.016 17.0582C103.286 17.0218 101.639 16.3608 100.429 15.2169C99.2187 14.0729 98.5411 12.5368 98.5411 10.9371C98.5411 9.33747 99.2187 7.80134 100.429 6.65739C101.639 5.51343 103.286 4.8525 105.016 4.81601C106.228 4.80867 107.418 5.11496 108.452 5.70021C109.485 6.28547 110.32 7.12631 110.863 8.12756" fill="#04171F"/>
<path d="M97.0887 3.6052C94.9864 5.57355 93.8076 8.22777 93.8076 10.9933C93.8076 13.7587 94.9864 16.4129 97.0887 18.3813C98.1166 19.3554 99.3451 20.1295 100.702 20.6583C102.058 21.1871 103.516 21.4597 104.988 21.4602C109.755 21.4602 113.753 18.5757 115.316 14.5694L110.883 14.5502C110.255 15.4625 109.389 16.2144 108.364 16.7368C107.34 17.2592 106.189 17.5353 105.019 17.5399C103.147 17.5019 101.365 16.7879 100.055 15.5509C98.7451 14.3139 98.0117 12.6521 98.0117 10.9215C98.0117 9.19098 98.7451 7.52922 100.055 6.29218C101.365 5.05514 103.147 4.34118 105.019 4.30321C106.273 4.29695 107.506 4.60034 108.59 5.18199C109.674 5.76364 110.571 6.60243 111.187 7.61158H114.747V0.539062L111.518 0.539062V2.53747L110.711 2.07851C108.998 1.08414 107.018 0.551013 104.995 0.539062C103.524 0.541011 102.067 0.813065 100.711 1.33942C99.3539 1.86578 98.124 2.63595 97.0922 3.6052" fill="#04171F"/>
<path fill-rule="evenodd" clip-rule="evenodd" d="M140.31 11C140.336 12.4356 140.053 13.8617 139.477 15.1951C138.901 16.5286 138.043 17.7427 136.954 18.7666C135.865 19.7906 134.566 20.6038 133.133 21.159C131.7 21.7141 130.161 22 128.607 22C127.053 22 125.515 21.7141 124.082 21.159C122.649 20.6038 121.35 19.7906 120.261 18.7666C119.171 17.7427 118.314 16.5286 117.737 15.1951C117.161 13.8617 116.878 12.4356 116.905 11C116.878 9.56443 117.161 8.13832 117.737 6.80486C118.314 5.47141 119.171 4.2573 120.261 3.23337C121.35 2.20944 122.649 1.39619 124.082 0.841047C125.515 0.285909 127.053 0 128.607 0C130.161 0 131.7 0.285909 133.133 0.841047C134.566 1.39619 135.865 2.20944 136.954 3.23337C138.043 4.2573 138.901 5.47141 139.477 6.80486C140.053 8.13832 140.336 9.56443 140.31 11ZM128.664 4.80079C127.352 4.78816 126.064 5.13629 124.966 5.80099C123.868 6.46568 123.008 7.41694 122.496 8.53397C121.985 9.651 121.844 10.8834 122.091 12.0746C122.339 13.2659 122.964 14.3622 123.888 15.2244C124.811 16.0867 125.991 16.6758 127.278 16.9172C128.564 17.1585 129.899 17.0411 131.114 16.5799C132.328 16.1186 133.366 15.3344 134.097 14.3267C134.828 13.319 135.218 12.1333 135.218 10.9203C135.223 10.1208 135.058 9.32813 134.731 8.58774C134.404 7.84736 133.923 7.17374 133.314 6.60541C132.705 6.03707 131.981 5.58516 131.184 5.27551C130.386 4.96586 129.53 4.80455 128.664 4.80079Z" fill="#04171F"/>
<path d="M117.437 10.9996C117.466 13.0354 118.146 15.0177 119.391 16.6972C120.637 18.3768 122.392 19.6786 124.436 20.439C126.48 21.1994 128.721 21.3844 130.879 20.9707C133.036 20.5571 135.013 19.5632 136.561 18.1141C138.109 16.665 139.158 14.8255 139.577 12.8267C139.996 10.828 139.767 8.75934 138.917 6.88093C138.067 5.00253 136.635 3.39824 134.801 2.26982C132.967 1.1414 130.813 0.539242 128.61 0.539062C125.628 0.560124 122.777 1.67334 120.682 3.63445C118.587 5.59556 117.42 8.24436 117.437 10.9996ZM128.647 4.3064C130.067 4.29123 131.46 4.66637 132.648 5.38414C133.837 6.10192 134.767 7.12993 135.322 8.33756C135.877 9.5452 136.031 10.8779 135.764 12.1665C135.497 13.455 134.821 14.6411 133.823 15.5742C132.825 16.5072 131.549 17.145 130.158 17.4066C128.767 17.6681 127.323 17.5417 126.009 17.0432C124.696 16.5447 123.573 15.6967 122.782 14.607C121.991 13.5173 121.569 12.235 121.569 10.9231C121.564 10.0579 121.744 9.20016 122.098 8.39907C122.452 7.59797 122.973 6.86919 123.632 6.25439C124.291 5.63959 125.075 5.15082 125.938 4.81602C126.802 4.48122 127.728 4.30697 128.665 4.30321V4.80042" fill="#04171F"/>
<path fill-rule="evenodd" clip-rule="evenodd" d="M176.078 13.5053C175.456 14.7655 174.384 15.7897 173.041 16.406C171.699 17.0223 170.168 17.1933 168.705 16.8902C167.242 16.5872 165.937 15.8285 165.008 14.7416C164.078 13.6546 163.582 12.3054 163.602 10.9204C163.58 9.53484 164.075 8.18465 165.004 7.09654C165.933 6.00843 167.238 5.24865 168.702 4.94476C170.165 4.64087 171.697 4.81137 173.04 5.42764C174.383 6.04392 175.456 7.06843 176.078 8.32919H181.463C180.798 5.73986 179.121 3.46866 176.755 1.95139C174.389 0.43412 171.5 -0.222356 168.642 0.107927C165.784 0.438211 163.158 1.73199 161.27 3.74101C159.381 5.75004 158.361 8.3328 158.407 10.9937C158.363 13.6675 159.394 16.2612 161.301 18.2727C163.208 20.2842 165.855 21.5703 168.73 21.8821C171.604 22.1939 174.501 21.5092 176.861 19.9605C179.22 18.4118 180.873 16.1094 181.501 13.4989L176.078 13.5053Z" fill="#04171F"/>
<path d="M176.665 13.5055C176.149 14.5852 175.328 15.5163 174.288 16.2007C173.247 16.8852 172.026 17.2975 170.754 17.3941C169.481 17.4908 168.203 17.2683 167.056 16.7501C165.909 16.2318 164.934 15.4371 164.235 14.4497C163.536 13.4622 163.138 12.3187 163.083 11.1398C163.029 9.96086 163.32 8.79018 163.925 7.75126C164.531 6.71234 165.428 5.84368 166.524 5.23693C167.619 4.63018 168.871 4.30782 170.148 4.30387C171.543 4.30842 172.904 4.69274 174.063 5.40875C175.222 6.12476 176.127 7.14067 176.665 8.32937H180.911C180.244 5.87831 178.625 3.73914 176.363 2.31841C174.101 0.897688 171.353 0.294436 168.64 0.623309C165.928 0.952182 163.442 2.19026 161.653 4.10223C159.864 6.01421 158.898 8.46681 158.938 10.9939C158.898 13.5348 159.876 15.9996 161.683 17.9152C163.49 19.8308 165.999 21.062 168.729 21.3727C171.458 21.6833 174.216 21.0513 176.472 19.5981C178.728 18.1449 180.323 15.9729 180.952 13.4991L176.665 13.5055Z" fill="#04171F"/>
<path fill-rule="evenodd" clip-rule="evenodd" d="M172.798 8.82008L171.332 8.81689L171.329 9.59777L171.908 9.60096V12.189H171.318L171.322 12.9539L173.381 12.9571L173.385 12.2018L172.791 12.1986L172.798 8.82008Z" fill="#04171F"/>
<path fill-rule="evenodd" clip-rule="evenodd" d="M176.189 8.82617H175.302L173.602 10.8565V11.5736H175.302V12.1919H174.716V12.96H176.785V12.2047H176.192V11.5672H176.785V10.8788H176.192L176.189 8.82617ZM174.519 10.8596L175.302 9.92259V10.8565L174.519 10.8596Z" fill="#04171F"/>
<path fill-rule="evenodd" clip-rule="evenodd" d="M179.565 8.83305C179.118 8.83052 178.679 8.95089 178.306 9.17889C177.932 9.40688 177.641 9.73223 177.468 10.1137C177.295 10.4951 177.248 10.9154 177.334 11.3213C177.42 11.7272 177.634 12.1003 177.95 12.3935C178.266 12.6866 178.669 12.8864 179.108 12.9676C179.547 13.0489 180.002 13.0078 180.415 12.8497C180.829 12.6916 181.182 12.4235 181.431 12.0795C181.679 11.7355 181.811 11.3311 181.811 10.9175C181.811 10.3663 181.575 9.83758 181.154 9.44694C180.733 9.0563 180.162 8.83558 179.565 8.83305ZM179.565 12.0681C179.315 12.0681 179.071 11.9997 178.864 11.8715C178.656 11.7433 178.494 11.5611 178.399 11.348C178.303 11.1348 178.278 10.9003 178.327 10.674C178.376 10.4477 178.496 10.2399 178.672 10.0767C178.849 9.91357 179.074 9.80246 179.319 9.75745C179.564 9.71244 179.818 9.73554 180.048 9.82384C180.279 9.91213 180.476 10.0616 180.615 10.2535C180.754 10.4453 180.828 10.6709 180.828 10.9016C180.827 11.2107 180.693 11.5069 180.457 11.7255C180.22 11.9441 179.9 12.0673 179.565 12.0681Z" fill="#04171F"/>
</svg>
