<svg width="177" height="26" viewBox="0 0 177 26" fill="none" xmlns="http://www.w3.org/2000/svg">
<g clip-path="url(#clip0_1059:90)">
<path d="M16.1543 3.24547L17.3212 1.27632H17.6858V7.69427H17.1753C16.7742 3.0996 13.8934 1.64098 10.9397 1.64098C6.56381 1.64098 4.74053 4.84995 4.74053 11.5961V15.4615C4.74053 22.2076 6.19916 25.4895 10.575 25.4895C14.0393 25.4895 14.9874 23.5204 14.9874 18.8163V16.0084C14.9874 15.5709 14.7321 15.3885 14.331 15.3885H12.9453V14.9145H20.9677V15.3885H19.9467C19.5091 15.3885 19.2903 15.5344 19.2903 15.9355V17.6859C19.2903 22.2805 15.1332 26 10.4292 26C5.06872 26 0 20.3478 0 13.5288C0 6.74617 5.17812 1.09399 10.8668 1.09399C13.0912 1.09399 14.9509 1.85977 16.1543 3.24547Z" fill="#FCFCF3"/>
<path d="M23.0098 10.3198H21.5876V9.84574H23.4839C26.1094 9.84574 26.7293 9.48108 27.021 9.48108C27.3128 9.48108 27.4586 9.62694 27.4586 9.91867V13.0912C27.8597 11.4138 28.9902 9.51754 31.1052 9.51754C32.7097 9.51754 33.6578 10.5386 33.6578 11.7784C33.6578 12.8724 32.8555 13.6017 31.8345 13.6017C30.777 13.6017 29.9747 12.8724 29.9747 11.7055C29.9747 11.0491 30.3394 10.6844 30.3394 10.5021C30.3394 10.3927 30.2665 10.3198 30.1206 10.3198C28.9172 10.3198 27.4586 12.8359 27.4586 16.0449V24.7237C27.4586 25.0154 27.6409 25.1978 27.9327 25.1978H29.3184V25.6718H21.5876V25.1978H23.0098C23.3015 25.1978 23.4839 24.979 23.4839 24.7237V10.7938C23.4839 10.5021 23.3015 10.3198 23.0098 10.3198Z" fill="#FCFCF3"/>
<path d="M38.4711 16.3731V18.7069C38.4711 22.6817 39.3463 25.4166 42.2636 25.4166C44.5609 25.4166 46.4206 23.8486 47.3687 20.7855L47.8428 20.9313C46.8947 23.885 44.9256 26 41.7895 26C37.7783 26 34.2776 22.2441 34.2776 17.7588C34.2776 13.2006 37.7783 9.51758 41.3884 9.51758C44.7797 9.51758 47.8428 12.6172 47.8428 15.8626C47.8428 16.2273 47.6969 16.3367 47.3687 16.3367H38.4711V16.3731ZM38.4711 15.8991H43.7951V15.425C43.7951 11.9608 43.3575 10.0281 41.4249 10.0281C39.5286 10.0281 38.617 12.2525 38.4711 15.8991Z" fill="#FCFCF3"/>
<path d="M53.6411 16.3731V18.7069C53.6411 22.6817 54.5162 25.4166 57.4335 25.4166C59.7308 25.4166 61.5906 23.8486 62.5387 20.7855L63.0127 20.9313C62.0646 23.885 60.0955 26 56.9594 26C52.9482 26 49.4475 22.2441 49.4475 17.7588C49.4475 13.2006 52.9482 9.51758 56.5583 9.51758C59.9496 9.51758 63.0127 12.6172 63.0127 15.8626C63.0127 16.2273 62.8669 16.3367 62.5387 16.3367H53.6411V16.3731ZM53.6411 15.8991H58.965V15.425C58.965 11.9608 58.5275 10.0281 56.5948 10.0281C54.6986 10.0281 53.7869 12.2525 53.6411 15.8991Z" fill="#FCFCF3"/>
<path d="M65.4922 10.3198H64.07V9.84574H65.9662C68.5917 9.84574 69.2117 9.48108 69.5034 9.48108C69.7951 9.48108 69.941 9.62694 69.941 9.91867V12.763C70.415 11.3408 71.983 9.51754 74.9003 9.51754C77.9269 9.51754 79.6773 11.4867 79.6773 14.2216V24.7237C79.6773 25.0154 79.8596 25.1978 80.1514 25.1978H81.537V25.6718H73.6605V25.1978H75.192C75.4837 25.1978 75.6661 24.979 75.6661 24.7237V14.3675C75.6661 11.7784 75.5567 10.2833 73.6605 10.2833C71.6184 10.2833 69.9045 12.5807 69.9045 14.9874V24.6872C69.9045 24.979 70.0868 25.1613 70.3786 25.1613H71.8372V25.6354H63.9971V25.1613H65.4192C65.711 25.1613 65.8933 24.9425 65.8933 24.6872V10.7938C65.9662 10.5021 65.7839 10.3198 65.4922 10.3198Z" fill="#FCFCF3"/>
<path d="M93.3155 10.0645C93.6802 9.95507 93.9719 9.9186 94.3001 9.9186C95.4306 9.9186 96.2328 10.4291 96.2328 11.2314C96.2328 11.8877 95.7588 12.2889 95.0659 12.2889C94.2272 12.2889 93.4979 11.7054 92.9509 10.8302C91.5287 11.7419 90.2524 13.8934 90.2524 16.446C90.2524 20.129 92.4404 23.7755 98.2019 23.7755C103.927 23.7755 106.553 19.2538 106.553 15.0238C106.553 11.2314 104.109 10.2833 102.213 10.2833C100.135 10.2833 99.1136 11.5231 99.1136 13.0182C99.1136 14.4039 100.208 15.2061 100.937 15.2061C100.645 14.1851 101.046 12.7629 102.395 12.7629C103.234 12.7629 103.854 13.3464 103.854 14.1486C103.854 15.2791 103.052 16.0813 101.63 16.0813C99.9158 16.0813 98.5666 14.8415 98.5666 12.9817C98.5666 10.9396 100.135 8.93403 102.87 8.93403C104.365 8.93403 106.261 9.59041 107.792 9.59041C109.907 9.59041 111.001 8.24118 111.001 6.5273C111.001 4.74048 110.272 3.97471 109.433 3.50065C109.215 4.81342 108.558 5.50626 107.61 5.50626C106.771 5.50626 106.151 4.88635 106.151 4.04764C106.151 3.20893 106.844 2.55255 107.792 2.55255C109.616 2.55255 112.424 4.48522 112.424 7.07428C112.424 9.73628 110.783 11.3408 108.194 11.3408C107.464 11.3408 106.37 11.1584 105.349 10.7573C106.735 11.8148 107.574 14.0392 107.574 15.9354C107.574 20.6395 104.51 25.8906 97.4726 25.8906C91.8205 25.927 88.2468 22.0981 88.2468 17.5035C88.2468 13.4558 90.3983 11.1949 92.6592 10.2468C92.3674 9.59041 92.2216 8.7517 92.2216 7.91299C92.2216 4.88635 94.1178 2.47961 97.2903 2.47961C99.8429 2.47961 101.447 3.68298 101.447 5.72506C101.447 7.07428 100.755 7.87653 99.697 8.27765L99.5876 8.13179C100.062 7.8036 100.353 7.40247 100.353 6.49083C100.353 5.21454 99.3688 3.93824 97.108 3.93824C94.993 3.93824 93.0968 5.76152 93.0968 8.64231C93.1332 9.0799 93.2062 9.62688 93.3155 10.0645Z" fill="#FCFCF3"/>
<path d="M117.602 24.9425H118.951C119.389 24.9425 119.571 24.6872 119.571 24.3226V2.29734C119.571 1.89622 119.352 1.67742 118.951 1.67742H117.602V1.20337H126.135C130.948 1.20337 134.23 3.8289 134.23 7.18373C134.23 9.88219 131.86 12.216 128.177 12.7994C132.516 13.2006 135.324 15.6802 135.324 18.8527C135.324 22.3534 131.896 25.4165 126.828 25.4165H117.602V24.9425ZM123.874 12.5442H126.171C129.052 12.5442 130.037 10.8303 130.037 7.40253V6.70968C130.037 3.31838 128.87 1.71389 126.098 1.71389H124.53C124.093 1.71389 123.874 1.96915 123.874 2.37027V12.5442ZM124.53 24.906H126.828C129.927 24.906 130.985 23.0098 130.985 19.1445V18.4151C130.985 14.8051 129.964 13.0912 126.901 13.0912H123.874V24.2861C123.874 24.6508 124.129 24.906 124.53 24.906Z" fill="#FCFCF3"/>
<path d="M138.059 0.802244H136.637V0.364656H138.533C141.159 0.364656 141.778 0 142.07 0C142.362 0 142.508 0.145863 142.508 0.437588V24.4684C142.508 24.7602 142.69 24.9425 142.982 24.9425H144.44V25.4165H136.6V24.9425H138.022C138.314 24.9425 138.497 24.7237 138.497 24.4684V1.2763C138.497 0.984572 138.314 0.802244 138.059 0.802244Z" fill="#FCFCF3"/>
<path d="M160.23 24.9425H161.652V25.4165H159.756C157.094 25.4165 156.511 25.6718 156.219 25.6718C155.927 25.6718 155.781 25.5259 155.781 25.2342V22.4993C155.344 23.8485 153.958 25.7447 151.077 25.7447C148.124 25.7447 146.373 23.7756 146.373 21.0042V10.5386C146.373 10.2468 146.154 10.0645 145.899 10.0645H144.513V9.59045H149.764C150.202 9.59045 150.348 9.77278 150.348 10.1739V21.223C150.348 24.1038 150.858 24.9425 152.281 24.9425C154.25 24.9425 155.781 22.6452 155.781 20.2384V10.5386C155.781 10.2468 155.563 10.0645 155.307 10.0645H153.922V9.59045H159.173C159.61 9.59045 159.756 9.77278 159.756 10.1739V24.432C159.793 24.7602 159.975 24.9425 160.23 24.9425Z" fill="#FCFCF3"/>
<path d="M166.831 16.1179V18.4517C166.831 22.4264 167.706 25.1613 170.623 25.1613C172.92 25.1613 174.78 23.5933 175.728 20.5302L176.202 20.6761C175.254 23.6298 173.285 25.7448 170.149 25.7448C166.138 25.7448 162.637 21.9888 162.637 17.5036C162.637 12.9454 166.138 9.26233 169.748 9.26233C173.139 9.26233 176.202 12.3619 176.202 15.6073C176.202 15.972 176.056 16.0814 175.728 16.0814H166.831V16.1179ZM166.831 15.6438H172.154V15.1698C172.154 11.7055 171.717 9.77285 169.784 9.77285C167.888 9.73638 166.976 11.9973 166.831 15.6438Z" fill="#FCFCF3"/>
</g>
<defs>
<clipPath id="clip0_1059:90">
<rect width="176.202" height="26" fill="white"/>
</clipPath>
</defs>
</svg>
