<svg width="112" height="98" viewBox="0 0 112 98" fill="none" xmlns="http://www.w3.org/2000/svg">
<path d="M74.84 48.9973C74.84 75.2835 70.7383 85.2146 63.0002 91.6382C58.349 95.4415 51.5414 96.6671 45.2833 96.6671H29.5946C28.9182 96.6671 28.6219 96.5404 28.6219 96.1179V1.74954C28.6219 1.49605 28.8755 1.20031 29.5946 1.20031H45.2833C51.5414 1.20031 58.349 2.42596 63.0002 6.22923C70.7387 12.6528 74.84 25.9647 74.84 48.9973ZM90.5287 48.9973C90.5274 22.2882 70.2314 0.650635 45.2833 0.650635H0.71603C0.460217 0.650635 0.460217 1.19987 0.71603 1.19987H12.8513C13.5276 1.19987 13.824 1.45336 13.824 1.74911V96.1179C13.824 96.5404 13.5703 96.6671 12.8513 96.6671H0.71603C0.462396 96.6671 0.462396 97.2164 0.71603 97.2164H45.2833C70.1887 97.2164 90.5274 75.5366 90.5274 48.9969L90.5287 48.9973ZM83.5816 97.5557C84.3448 97.5332 85.0705 97.2202 85.6103 96.6807C86.1502 96.1411 86.4634 95.4158 86.4858 94.6531C86.4526 93.9019 86.1335 93.1918 85.5936 92.668C85.0537 92.1443 84.3339 91.8467 83.5816 91.8359C82.8294 91.8467 82.1096 92.1443 81.5697 92.668C81.0299 93.1918 80.7107 93.9019 80.6775 94.6531C80.7 95.4158 81.0131 96.1411 81.553 96.6807C82.0928 97.2202 82.8185 97.5332 83.5816 97.5557ZM93.4045 73.8231C94.1037 73.8237 94.7757 73.5522 95.2781 73.0662C95.7805 72.5802 96.0738 71.9178 96.096 71.2194C96.0828 70.5142 95.7938 69.8423 95.2908 69.3476C94.7879 68.853 94.1111 68.5748 93.4054 68.5729C92.7065 68.5836 92.0392 68.8658 91.5449 69.3598C91.0506 69.8539 90.7682 70.5208 90.7575 71.2194C90.7771 71.9109 91.0636 72.5681 91.557 73.0534C92.0503 73.5387 92.7124 73.8145 93.4045 73.8231ZM91.141 79.0306V95.9763C91.1477 96.0529 91.1383 96.13 91.1133 96.2027C91.0884 96.2754 91.0485 96.342 90.9961 96.3983C90.9438 96.4546 90.8803 96.4993 90.8096 96.5296C90.7389 96.5598 90.6627 96.5749 90.5858 96.5739H88.7493V97.1288H98.3587V96.5739H96.5649C96.4848 96.5797 96.4044 96.5683 96.3292 96.5403C96.2539 96.5124 96.1855 96.4686 96.1287 96.4119C96.0718 96.3552 96.0278 96.287 95.9996 96.2119C95.9714 96.1367 95.9597 96.0564 95.9653 95.9763V78.0079C95.9653 77.6665 95.8372 77.4957 95.4528 77.4957C94.0382 77.818 92.5887 77.9614 91.1384 77.9226H88.7493V78.4774H90.5858C90.66 78.4716 90.7347 78.4818 90.8046 78.5075C90.8745 78.5332 90.938 78.5738 90.9908 78.6263C91.0435 78.6789 91.0843 78.7422 91.1102 78.812C91.1361 78.8818 91.1466 78.9564 91.141 79.0306ZM111.128 93.2445L110.616 93.0738C110.146 94.951 109.292 96.4032 107.712 96.4032C106.089 96.4032 105.747 95.0373 105.747 92.4762V78.4757H110.701V77.9208H105.747V73.8658C105.747 73.5243 105.576 73.3536 105.32 73.3536C105.064 73.3536 104.936 73.4407 104.765 73.8231C104.195 74.9242 103.37 75.8739 102.361 76.5939C101.351 77.314 100.184 77.7837 98.9566 77.9644V78.4766H100.921V91.7933C100.921 95.1653 102.8 97.5557 106.132 97.5557C109.463 97.5557 110.659 95.2934 111.128 93.2445Z" fill="white"/>
</svg>
