<svg width="123" height="24" viewBox="0 0 123 24" fill="none" xmlns="http://www.w3.org/2000/svg">
<path d="M16.4395 19.0589V17.1467H17.6246C18.2909 17.1467 18.5127 16.9264 18.5127 16.191V6.41176C18.5127 5.67637 18.2909 5.45615 17.6246 5.45615H16.4395V3.54395H29.8424V9.64727H28.0652V8.39672C28.0652 6.41176 27.1761 5.45517 25.6216 5.45517H23.1038C22.4375 5.45517 22.2147 5.6754 22.2147 6.41079V10.2342H23.6216C24.288 10.2342 24.584 9.71906 24.584 8.91091V7.5876H26.287V15.088H24.584V13.3232C24.584 12.5141 24.2137 12.1464 23.5474 12.1464H22.2147V16.2638C22.2147 17.0729 22.4365 17.2194 23.1038 17.2194H25.3256C27.2513 17.2194 28.2137 16.484 28.2137 13.8374V12.8081H30.0651V19.1316H16.4395V19.0589Z" fill="#FF382E"/>
<path d="M37.9135 3.47021C40.3571 3.47021 41.9867 3.98537 43.2452 4.94099C45.1709 6.33803 46.3551 8.69068 46.3551 11.2645C46.3551 13.8384 45.1699 16.191 43.2452 17.5881C41.9867 18.5437 40.3571 19.0589 37.9135 19.0589H33.0264V3.47021H37.9135ZM42.2085 7.88157C41.3194 6.77849 40.061 6.11683 38.2838 6.11683H36.062V16.3375H38.2838C40.1353 16.3375 41.3937 15.6759 42.2085 14.5728C42.9491 13.6909 43.3194 12.5141 43.3194 11.1908C43.3194 9.94123 42.8749 8.76442 42.2085 7.88157Z" fill="black"/>
<path d="M51.7612 3.47021H48.7988V19.0589H51.7612V3.47021Z" fill="black"/>
<path d="M3.10989 11.1908C3.10989 14.2789 5.40592 16.5588 8.44156 16.5588C9.84849 16.5588 11.0336 16.0436 11.9217 15.3819V12.2939H8.2188V9.64632H14.8831V16.3376C13.4762 18.1023 11.1802 19.3519 8.29305 19.3519C3.40593 19.3528 0 15.7496 0 11.2646C0 6.77947 3.40593 3.17627 8.21977 3.17627C10.5158 3.17627 12.5148 4.05815 13.9217 5.45616L11.996 7.51486C11.0336 6.55924 9.77423 5.89759 8.21977 5.89759C5.33167 5.82289 3.10989 8.17651 3.10989 11.1908Z" fill="black"/>
<path d="M64.6685 18.6172H62.8248L57.5146 3.44092H58.9362L63.7344 17.3599H63.8898L68.688 3.44092H69.9992L64.6685 18.6172Z" fill="black"/>
<path d="M71.5986 3.44092H72.9538V18.6172H71.5986V3.44092Z" fill="black"/>
<path d="M83.4621 4.01439V5.24942C82.8182 4.85262 81.5959 4.27925 80.019 4.27925C77.8647 4.27925 76.576 5.31636 76.576 6.88221C76.576 8.73523 78.2203 9.35322 80.0415 10.0362C82.1519 10.8085 84.3287 11.8669 84.3287 14.6465C84.3287 17.2931 82.2408 18.9695 79.4641 18.9695C77.3312 18.9695 75.7318 18.2419 74.9541 17.5802V16.2123C75.8207 16.874 77.4201 17.7568 79.4641 17.7568C81.5745 17.7568 82.9521 16.5654 82.9521 14.7347C82.9521 12.6828 81.0859 11.9116 79.4201 11.2712C77.1094 10.4107 75.2433 9.52882 75.2433 6.96952C75.2433 4.67508 77.1534 3.08691 80.0415 3.08691C81.6184 3.08788 82.9061 3.6176 83.4621 4.01439Z" fill="black"/>
<path d="M96.1013 12.7943V3.44092H97.434V12.7943C97.434 17.0077 95.2122 18.9704 91.9245 18.9704C88.6368 18.9704 86.3926 17.0068 86.3926 12.7943V3.44092H87.7477V12.7943C87.7477 16.3674 89.48 17.7577 91.9245 17.7577C94.3466 17.7567 96.1013 16.3674 96.1013 12.7943Z" fill="black"/>
<path d="M108.408 14.5804H101.454L100.055 18.6172H98.7227L104.054 3.44092H105.898L111.23 18.6172H109.808L108.408 14.5804ZM108.008 13.4113L105.009 4.69825H104.876L101.855 13.4113H108.008Z" fill="black"/>
<path d="M112.829 3.44092H114.184V17.4045H121.293V18.6182H112.829V3.44092Z" fill="black"/>
</svg>
