<svg width="72" height="72" viewBox="0 0 72 72" fill="none" xmlns="http://www.w3.org/2000/svg">
<circle cx="36" cy="36" r="36" transform="rotate(90 36 36)" fill="#FBF9F4"/>
<circle cx="36" cy="36" r="23.5" stroke="#E81E29"/>
<rect x="5" y="28" width="16" height="16" fill="#FBF9F4"/>
<path d="M3.64645 35.6464C3.45118 35.8417 3.45118 36.1583 3.64645 36.3536L6.82843 39.5355C7.02369 39.7308 7.34027 39.7308 7.53553 39.5355C7.7308 39.3403 7.7308 39.0237 7.53553 38.8284L4.70711 36L7.53553 33.1716C7.7308 32.9763 7.7308 32.6597 7.53553 32.4645C7.34027 32.2692 7.02369 32.2692 6.82843 32.4645L3.64645 35.6464ZM52 35.5L4 35.5V36.5L52 36.5V35.5Z" fill="#E81E29"/>
</svg>
