<svg width="132" height="26" viewBox="0 0 132 26" fill="none" xmlns="http://www.w3.org/2000/svg">
<path d="M0 21.3033H5.92332V20.3265C4.9978 20.28 4.90525 19.9079 4.90525 18.9776V0H3.97973L0 1.90706V2.51174L1.01807 3.48853V18.9776C1.01807 19.9079 0.971795 20.28 0 20.3265V21.3033Z" fill="black"/>
<path d="M12.3069 13.8601V17.9998C12.3069 18.8836 11.7979 19.5813 11.0575 19.5813C10.2708 19.5813 9.90055 18.9301 9.90055 17.5812C9.90055 15.9532 10.3633 15.2555 11.2888 14.6043L12.3069 13.8601ZM10.4096 8.41798C11.7516 8.41798 12.3532 9.06917 12.3532 10.6971V12.6507L9.9931 13.7205C7.40164 14.8834 6.29102 16.0462 6.29102 18.1858C6.29102 20.4185 7.77185 21.5813 9.71545 21.5813C10.8723 21.5813 12.0292 20.8836 12.6308 19.7673C12.9085 20.8836 13.7415 21.5813 14.9909 21.5813C16.0553 21.5813 17.0271 21.1162 17.4898 20.5115V19.5347C17.3047 19.6278 17.1196 19.7208 16.9345 19.7208C16.518 19.7208 16.3329 19.3952 16.3329 18.558V11.6274C16.3329 8.65055 14.5744 7.16211 11.15 7.16211C8.46599 7.16211 6.7075 8.51101 6.7075 10.3716C6.7075 11.3949 7.40164 12.3716 8.6511 12.3716C9.76172 12.3716 10.3633 11.6274 10.3633 10.7437C10.3633 9.58082 9.34524 9.34825 9.34524 8.97614C9.25269 8.60403 9.76172 8.41798 10.4096 8.41798Z" fill="black"/>
<path d="M28.5061 1.86036H28.8301C31.1901 1.86036 31.7917 3.11623 31.7917 6.13962C31.7917 9.16301 31.1901 10.0468 28.7375 10.0468H28.4598V1.86036H28.5061ZM31.6529 10.8375C34.8922 10.1863 36.373 8.4653 36.373 6.00008C36.373 2.65109 34.1055 0.604492 29.4779 0.604492H22.4902V1.58128C23.9248 1.67431 24.0636 2.13944 24.0636 3.53485V18.3727C24.0636 19.7216 23.7397 20.1867 22.4902 20.3263V21.3031H30.0332V20.3263C28.7838 20.2333 28.4598 19.7216 28.4598 18.3727V11.3026H28.8763C29.8481 11.3026 30.6348 11.6747 30.9125 12.5585C31.329 14.0004 31.329 17.0703 31.8843 19.0704C32.4396 20.931 33.7816 21.3961 35.4938 21.3961C36.8358 21.3961 37.7613 20.9775 38.1315 20.7449L38.0853 19.7681C36.9284 20.0472 36.4656 19.5821 35.9566 16.2796C35.4475 12.698 34.2443 11.3957 31.6529 10.8375Z" fill="black"/>
<path d="M40.7241 13.2554H47.7581V12.7903C47.7581 9.20871 45.8145 7.16211 43.1768 7.16211C40.0763 7.16211 37.6699 9.99944 37.6699 14.6043C37.6699 18.9766 39.9837 21.6278 43.1305 21.6278C45.4443 21.6278 46.9714 20.4185 47.8969 18.0463L47.0177 17.4416C46.3698 18.5114 45.722 19.0696 44.6113 19.0696C42.7603 19.0696 41.4646 16.9765 41.4646 12.4647C41.4646 9.30174 42.1124 8.41798 42.9454 8.41798C43.6395 8.41798 44.1949 9.30174 44.1949 11.6274V12.046H40.7241V13.2554Z" fill="black"/>
<path d="M53.1703 11.2553C53.1703 10.139 53.7719 9.34825 54.6048 9.34825C55.7617 9.34825 56.132 11.1158 56.132 15.302C56.132 18.6975 55.9006 20.372 54.5123 20.372C53.5405 20.372 53.124 19.5813 53.124 18.2324V11.2553H53.1703ZM48.2188 26.0002H54.2346V25.0234C53.2166 24.9769 53.1703 24.6047 53.1703 23.6745V21.3023C53.6793 21.4883 54.3272 21.6279 54.9751 21.6279C58.2607 21.6279 60.3431 18.651 60.3431 13.7205C60.3431 9.34825 58.6771 7.20862 56.3633 7.20862C54.9751 7.20862 53.957 7.90633 53.1703 9.02266V7.16211H52.2448L48.265 8.79009V9.39477L49.2831 10.3716V23.6745C49.2831 24.6047 49.2368 24.9769 48.2188 25.0234V26.0002Z" fill="black"/>
<path d="M65.4808 7.16211H64.5553L60.5293 8.09238V8.92963C61.4085 9.06917 61.5474 9.72036 61.5474 11.0227V17.023C61.5474 20.2324 62.9357 21.6278 64.9255 21.6278C66.2675 21.6278 67.3319 20.8836 68.026 19.7208V21.3953H68.8127L72.8387 20.7906V19.8138C72.0058 19.6278 71.9132 19.3952 71.9132 17.9998V7.16211H70.9877L67.1468 8.09238V8.92963C67.9335 9.25522 68.026 9.8599 68.026 11.0227V17.6277C68.026 18.6045 67.4244 19.3952 66.5452 19.3952C65.7585 19.3952 65.4346 18.837 65.4346 17.9068V7.16211H65.4808Z" fill="black"/>
<path d="M77.7445 11.2563C77.7445 10.14 78.3461 9.34925 79.1791 9.34925C80.336 9.34925 80.7524 11.1168 80.7524 15.303C80.7524 18.6985 80.5211 20.373 79.1328 20.373C78.161 20.373 77.7445 19.7218 77.7445 18.559V11.2563ZM79.2716 21.6289C82.7886 21.6289 84.871 18.652 84.871 13.7215C84.871 9.34925 83.2051 7.20962 80.845 7.20962C79.503 7.20962 78.4386 7.90733 77.6982 9.02366V0H76.7727L72.793 1.90706V2.51174L73.811 3.48853V19.6753C74.8754 20.7451 76.7727 21.6289 79.2716 21.6289Z" fill="black"/>
<path d="M89.7314 11.2563C89.7314 10.14 90.333 9.34925 91.166 9.34925C92.3229 9.34925 92.6931 11.1168 92.6931 15.303C92.6931 18.6985 92.4617 20.373 91.0734 20.373C90.1016 20.373 89.6852 19.7218 89.6852 18.559V11.2563H89.7314ZM91.3048 21.6289C94.8218 21.6289 96.9042 18.652 96.9042 13.7215C96.9042 9.34925 95.2383 7.20962 92.8782 7.20962C91.5362 7.20962 90.4719 7.90733 89.7314 9.02366V0H88.8059L84.8262 1.90706V2.51174L85.8442 3.48853V19.6753C86.9086 20.7451 88.8059 21.6289 91.3048 21.6289Z" fill="black"/>
<path d="M97.3633 21.3033H103.287V20.3265C102.361 20.28 102.269 19.9079 102.269 18.9776V0H101.343L97.3633 1.90706V2.51174L98.3813 3.48853V18.9776C98.3813 19.9079 98.3351 20.28 97.3633 20.3265V21.3033Z" fill="black"/>
<path d="M104.585 3.11619C104.585 4.27903 105.557 5.25582 106.76 5.25582C107.917 5.25582 108.935 4.32555 108.935 3.11619C108.935 1.90684 107.963 0.976562 106.76 0.976562C105.557 0.976562 104.585 1.95335 104.585 3.11619ZM103.752 21.303H109.675V20.3262C108.75 20.2797 108.657 19.9076 108.657 18.9774V7.16288H107.732L103.752 8.79086V9.39554L104.77 10.3723V18.9774C104.77 19.9076 104.724 20.2797 103.752 20.3262V21.303Z" fill="black"/>
<path d="M115.828 8.41932C116.476 8.41932 116.939 8.65189 116.939 9.02399C116.939 9.3961 115.967 9.62867 115.967 10.7915C115.967 11.6753 116.476 12.4195 117.633 12.4195C118.883 12.4195 119.53 11.3962 119.53 10.3264C119.53 8.41932 117.957 7.20996 115.736 7.20996C112.497 7.20996 109.812 9.7217 109.812 14.8847C109.812 18.9314 111.987 21.6757 115.181 21.6757C117.494 21.6757 118.605 20.0943 119.345 18.1872L118.05 17.4895C117.448 18.8849 116.939 19.6291 115.921 19.6291C114.301 19.6291 113.607 17.4895 113.607 13.0707C113.607 9.30308 114.533 8.41932 115.828 8.41932Z" fill="black"/>
<path d="M126.009 13.8601V17.9998C126.009 18.8836 125.5 19.5813 124.76 19.5813C123.973 19.5813 123.603 18.9301 123.603 17.5812C123.603 15.9532 124.066 15.2555 124.991 14.6043L126.009 13.8601ZM124.066 8.41798C125.408 8.41798 126.009 9.06917 126.009 10.6971V12.6507L123.649 13.7205C121.058 14.8834 119.947 16.0462 119.947 18.1858C119.947 20.4185 121.428 21.5813 123.372 21.5813C124.529 21.5813 125.686 20.8836 126.287 19.7673C126.565 20.8836 127.398 21.5813 128.647 21.5813C129.712 21.5813 130.683 21.1162 131.146 20.5115V19.5347C130.961 19.6278 130.776 19.7208 130.591 19.7208C130.174 19.7208 129.989 19.3952 129.989 18.558V11.6274C129.989 8.65055 128.231 7.16211 124.806 7.16211C122.122 7.16211 120.364 8.51101 120.364 10.3716C120.364 11.3949 121.058 12.3716 122.307 12.3716C123.418 12.3716 124.02 11.6274 124.02 10.7437C124.02 9.58082 123.001 9.34825 123.001 8.97614C122.909 8.60403 123.418 8.41798 124.066 8.41798Z" fill="black"/>
</svg>
