<svg width="22" height="17" viewBox="0 0 22 17" fill="none" xmlns="http://www.w3.org/2000/svg">
<g clip-path="url(#clip0_1144:99)">
<path d="M21.9563 2.75776C21.1299 3.08245 20.3 3.32756 19.3802 3.41033C20.3 2.9201 21.0365 2.10519 21.403 1.20751C20.4832 1.69773 19.5634 2.02242 18.5538 2.18795C17.634 1.37304 16.4376 0.882812 15.1513 0.882812C12.665 0.882812 10.6422 2.67499 10.6422 4.87463C10.6422 5.20251 10.6422 5.5272 10.7356 5.77231C6.96302 5.60996 3.65393 4.05971 1.44427 1.61496C0.984378 2.18795 0.801138 2.9201 0.801138 3.65226C0.801138 5.04016 1.62751 6.26253 2.82396 6.99469C2.08741 6.91192 1.35445 6.74957 0.801138 6.50446C0.801138 6.50446 0.801138 6.50446 0.801138 6.58723C0.801138 8.54175 2.36406 10.1716 4.38688 10.4995C4.0204 10.579 3.65393 10.6618 3.19403 10.6618C2.91737 10.6618 2.64072 10.6618 2.36406 10.579C2.91737 12.2089 4.57372 13.3517 6.59654 13.3517C5.03361 14.4117 3.10061 15.0611 0.984378 15.0611C0.617898 15.0611 0.247827 15.0611 -0.118652 14.9815C1.90417 16.1211 4.29706 16.7737 6.77978 16.7737C15.1513 16.7737 19.6568 10.6618 19.6568 5.36485C19.6568 5.20251 19.6568 5.04016 19.6568 4.87463C20.5766 4.30482 21.3132 3.57267 21.9563 2.75776Z" fill="white"/>
</g>
<defs>
<clipPath id="clip0_1144:99">
<rect width="21.4286" height="15.8909" fill="white" transform="translate(0.304321 0.882812)"/>
</clipPath>
</defs>
</svg>
