<svg width="20" height="16" viewBox="0 0 20 16" fill="none" xmlns="http://www.w3.org/2000/svg">
<path d="M19.6981 1.88782C18.9654 2.21474 18.2295 2.46154 17.414 2.54487C18.2295 2.05128 18.8826 1.23077 19.2075 0.326923C18.392 0.820513 17.5764 1.14744 16.6812 1.3141C15.8657 0.49359 14.8049 0 13.6644 0C11.4598 0 9.66627 1.80449 9.66627 4.01923C9.66627 4.34936 9.66627 4.67628 9.7491 4.92308C6.40408 4.75962 3.47002 3.19872 1.51079 0.73718C1.10302 1.3141 0.940547 2.05128 0.940547 2.78846C0.940547 4.1859 1.67327 5.41667 2.73411 6.15385C2.08104 6.07051 1.43115 5.90705 0.940547 5.66026C0.940547 5.66026 0.940547 5.66026 0.940547 5.74359C0.940547 7.71154 2.32634 9.35256 4.11991 9.68269C3.79496 9.76282 3.47002 9.84616 3.06225 9.84616C2.81694 9.84616 2.57164 9.84616 2.32634 9.76282C2.81694 11.4038 4.28557 12.5545 6.07913 12.5545C4.69334 13.6218 2.97942 14.2756 1.10302 14.2756C0.778075 14.2756 0.449945 14.2756 0.125 14.1955C1.91857 15.3429 4.04026 16 6.24161 16C13.6644 16 17.6593 9.84616 17.6593 4.51282C17.6593 4.34936 17.6593 4.1859 17.6593 4.01923C18.4748 3.44551 19.1279 2.70833 19.6981 1.88782Z" fill="white"/>
</svg>
