<svg width="20" height="16" viewBox="0 0 20 16" fill="none" xmlns="http://www.w3.org/2000/svg">
<g clip-path="url(#clip0_959:53)">
<path d="M19.8092 1.88782C19.0765 2.21474 18.3406 2.46154 17.5251 2.54487C18.3406 2.05128 18.9937 1.23077 19.3186 0.326923C18.5031 0.820513 17.6875 1.14744 16.7923 1.3141C15.9768 0.49359 14.9159 0 13.7754 0C11.5709 0 9.77735 1.80449 9.77735 4.01923C9.77735 4.34936 9.77735 4.67628 9.86018 4.92308C6.51516 4.75962 3.5811 3.19872 1.62188 0.73718C1.2141 1.3141 1.05163 2.05128 1.05163 2.78846C1.05163 4.1859 1.78435 5.41667 2.8452 6.15385C2.19212 6.07051 1.54223 5.90705 1.05163 5.66026C1.05163 5.66026 1.05163 5.66026 1.05163 5.74359C1.05163 7.71154 2.43743 9.35256 4.23099 9.68269C3.90605 9.76282 3.5811 9.84616 3.17333 9.84616C2.92803 9.84616 2.68273 9.84616 2.43743 9.76282C2.92803 11.4038 4.39665 12.5545 6.19022 12.5545C4.80442 13.6218 3.0905 14.2756 1.2141 14.2756C0.889159 14.2756 0.561029 14.2756 0.236084 14.1955C2.02965 15.3429 4.15135 16 6.35269 16C13.7754 16 17.7704 9.84616 17.7704 4.51282C17.7704 4.34936 17.7704 4.1859 17.7704 4.01923C18.5859 3.44551 19.239 2.70833 19.8092 1.88782Z" fill="#FCFCF3"/>
</g>
<defs>
<clipPath id="clip0_959:53">
<rect width="19.5556" height="16" fill="white" transform="translate(0.125)"/>
</clipPath>
</defs>
</svg>
