<svg width="670" height="267" viewBox="0 0 670 267" fill="none" xmlns="http://www.w3.org/2000/svg">
<path d="M604.5 39L566.5 54.5L411.5 20L450 8.5" stroke="#0038FF" stroke-linejoin="bevel"/>
<path d="M669.5 51.5L411.5 1L1 96L254.5 266.5L669.5 51.5Z" fill="white" stroke="#0038FF" stroke-linejoin="bevel"/>
<path d="M82 135.5L82.2716 135.08L81.5 135.5H82ZM107.5 152H108V151.728L107.772 151.58L107.5 152ZM82.5 150.5V135.5H81.5V150.5H82.5ZM81.7284 135.92L107.228 152.42L107.772 151.58L82.2716 135.08L81.7284 135.92ZM107 152V167.5H108V152H107Z" fill="#0038FF"/>
<path d="M535.5 25V14L508 9V20" stroke="#0038FF" stroke-linejoin="bevel"/>
<path d="M255.5 37L532.5 122.5" stroke="#0038FF"/>
<path d="M417.5 73C417.5 75.0593 416.248 77.1007 413.801 79.0298C411.358 80.9545 407.793 82.7097 403.344 84.1929C394.449 87.1577 382.13 89 368.5 89C354.87 89 342.551 87.1577 333.656 84.1929C329.207 82.7097 325.642 80.9545 323.199 79.0298C320.752 77.1007 319.5 75.0593 319.5 73C319.5 70.9407 320.752 68.8993 323.199 66.9702C325.642 65.0455 329.207 63.2903 333.656 61.8071C342.551 58.8423 354.87 57 368.5 57C382.13 57 394.449 58.8423 403.344 61.8071C407.793 63.2903 411.358 65.0455 413.801 66.9702C416.248 68.8993 417.5 70.9407 417.5 73Z" fill="white" stroke="#0038FF"/>
<path d="M131 183L168.5 169.5L103 129.5L67.5 140.5M179.5 215.5L289 169L135 93L36 119.5" stroke="#0038FF" stroke-linejoin="bevel"/>
<path d="M231 140.331C233.571 137.785 235 134.966 235 132C235 120.678 214.181 111.5 188.5 111.5C183.621 111.5 178.918 111.831 174.5 112.445" stroke="#0038FF"/>
<path d="M555.5 29.5L545 34L476 20L488.5 16" stroke="#0038FF" stroke-linejoin="bevel"/>
</svg>
