<svg width="483" height="764" viewBox="0 0 483 764" fill="none" xmlns="http://www.w3.org/2000/svg">
<g clip-path="url(#clip0_1182:894)">
<rect x="-1" width="484" height="764" fill="#0038FF"/>
<circle r="76.2804" transform="matrix(0.902585 0.430511 -0.646257 0.76312 198.492 359.801)" stroke="white" stroke-width="4"/>
<rect width="587.103" height="3.91402" transform="matrix(0.902585 0.430511 -0.646257 0.76312 -65.4512 232.229)" fill="white"/>
<circle r="4.69682" transform="matrix(0.902585 0.430511 -0.646257 0.76312 198.493 359.801)" fill="white"/>
<rect x="0.512656" y="2.38726" width="340.434" height="136.905" transform="matrix(0.902585 0.430511 -0.646257 0.76312 -167.83 536.901)" stroke="white" stroke-width="4"/>
<mask id="path-6-inside-1_1182:894" fill="white">
<path fill-rule="evenodd" clip-rule="evenodd" d="M60.5017 650.419C68.4295 619.104 53.4954 587.531 19.0019 571.078C-15.4916 554.626 -59.9225 557.883 -94.3348 576.565L60.5017 650.419Z"/>
</mask>
<path d="M60.5017 650.419L57.9167 653.471L63.4896 656.129L64.8533 650.742L60.5017 650.419ZM-94.3348 576.565L-96.5731 573.746L-102.493 576.96L-96.9199 579.618L-94.3348 576.565ZM16.4169 574.131C49.436 589.88 63.7424 620.105 56.1501 650.095L64.8533 650.742C73.1166 618.103 57.5548 585.182 21.5869 568.026L16.4169 574.131ZM-92.0965 579.385C-59.1404 561.493 -16.6022 558.382 16.4169 574.131L21.5869 568.026C-14.3809 550.87 -60.7046 554.273 -96.5731 573.746L-92.0965 579.385ZM-96.9199 579.618L57.9167 653.471L63.0867 647.366L-91.7498 573.513L-96.9199 579.618Z" fill="white" mask="url(#path-6-inside-1_1182:894)"/>
<rect x="0.512656" y="2.38726" width="340.434" height="136.905" transform="matrix(0.902585 0.430511 -0.646257 0.76312 348.18 -72.4192)" stroke="white" stroke-width="4"/>
<rect x="0.512656" y="2.38726" width="89.9365" height="42.9683" transform="matrix(0.902585 0.430511 -0.646257 0.76312 461.228 -18.4984)" stroke="white" stroke-width="4"/>
<circle r="4.69682" transform="matrix(0.902585 0.430511 -0.646257 0.76312 438.286 76.6464)" fill="white"/>
<mask id="path-11-inside-2_1182:894" fill="white">
<path fill-rule="evenodd" clip-rule="evenodd" d="M335.777 68.8471C327.849 100.161 342.783 131.735 377.277 148.187C411.77 164.64 456.201 161.382 490.613 142.7L335.777 68.8471Z"/>
</mask>
<path d="M335.777 68.8471L338.362 65.7946L332.789 63.1365L331.425 68.5232L335.777 68.8471ZM490.613 142.7L492.851 145.52L498.771 142.306L493.198 139.648L490.613 142.7ZM379.862 145.135C346.843 129.385 332.536 99.1602 340.128 69.171L331.425 68.5232C323.162 101.163 338.724 134.084 374.692 151.239L379.862 145.135ZM488.375 139.881C455.419 157.772 412.881 160.884 379.862 145.135L374.692 151.239C410.659 168.395 456.983 164.992 492.851 145.52L488.375 139.881ZM493.198 139.648L338.362 65.7946L333.192 71.8996L488.028 145.753L493.198 139.648Z" fill="white" mask="url(#path-11-inside-2_1182:894)"/>
<rect x="0.512656" y="2.38726" width="583.103" height="935.365" transform="matrix(0.902585 0.430511 -0.646257 0.76312 238.666 -124.653)" stroke="white" stroke-width="4"/>
</g>
<defs>
<clipPath id="clip0_1182:894">
<rect width="484" height="764" fill="white" transform="translate(-1)"/>
</clipPath>
</defs>
</svg>
