<svg width="295" height="401" viewBox="0 0 295 401" fill="none" xmlns="http://www.w3.org/2000/svg">
<g clip-path="url(#clip0_1176:509)">
<path d="M1.33373 96.5939C-1.59818 85.2553 5.21684 73.6867 16.5555 70.7548L182.999 27.7163C194.338 24.7844 205.907 31.5994 208.838 42.938L283.088 330.085C286.02 341.423 279.205 352.992 267.866 355.924L101.422 398.962C90.0837 401.894 78.5151 395.079 75.5832 383.741L1.33373 96.5939Z" fill="white" stroke="#0038FF"/>
<path d="M204.721 13.7851C209.119 2.89814 221.478 -2.34793 232.324 2.06402L391.565 66.8378C402.412 71.2501 407.643 83.6526 403.245 94.5405L291.885 370.216C287.487 381.103 275.129 386.349 264.282 381.937L105.042 317.163C94.1944 312.751 88.9634 300.349 93.3615 289.461L204.721 13.7851Z" fill="white" stroke="#0038FF"/>
</g>
<defs>
<clipPath id="clip0_1176:509">
<rect width="405" height="401" fill="white" transform="translate(0 0.000732422)"/>
</clipPath>
</defs>
</svg>
