<svg width="375" height="608" viewBox="0 0 375 608" fill="none" xmlns="http://www.w3.org/2000/svg">
<rect x="375" width="607.542" height="375" transform="rotate(90 375 0)" fill="#E3E3E5"/>
<rect x="71.7529" y="62.8491" width="481.844" height="0.523743" transform="rotate(90 71.7529 62.8491)" fill="white"/>
<rect x="112.604" y="62.8491" width="481.844" height="0.523743" transform="rotate(90 112.604 62.8491)" fill="white"/>
<rect x="153.457" y="62.8491" width="481.844" height="0.523743" transform="rotate(90 153.457 62.8491)" fill="white"/>
<rect x="194.309" y="62.8491" width="481.844" height="0.523743" transform="rotate(90 194.309 62.8491)" fill="white"/>
<rect x="235.16" y="62.8491" width="481.844" height="0.523743" transform="rotate(90 235.16 62.8491)" fill="white"/>
<rect x="276.013" y="62.8491" width="481.844" height="0.523743" transform="rotate(90 276.013 62.8491)" fill="white"/>
<rect x="316.864" y="62.8491" width="481.844" height="0.523743" transform="rotate(90 316.864 62.8491)" fill="white"/>
<rect x="357.717" y="62.8491" width="481.844" height="0.523743" transform="rotate(90 357.717 62.8491)" fill="white"/>
<path d="M69.3768 35.764C69.3768 37.284 70.2718 38.319 71.5718 38.319C72.4868 38.319 73.0168 37.714 73.2468 36.954C73.4868 37.514 73.9468 37.929 74.6468 37.929C75.7468 37.929 76.5268 37.044 76.5268 35.794C76.5268 34.464 75.6768 33.514 74.4868 33.514L74.4168 34.609C75.0418 34.619 75.4618 35.039 75.4618 35.754C75.4618 36.399 75.1018 36.814 74.5368 36.814C73.8068 36.814 73.5468 36.184 73.5568 35.399L72.6818 35.399C72.6818 36.489 72.4068 37.214 71.5818 37.214C70.8768 37.214 70.4468 36.679 70.4468 35.804C70.4468 34.894 70.9368 34.309 71.7118 34.309L71.6468 33.204C70.2868 33.204 69.3768 34.224 69.3768 35.764ZM69.4668 39.2047L69.4668 40.4247L70.7318 40.4247L70.7318 39.2047L69.4668 39.2047ZM69.4668 41.9421L69.4668 43.1771L75.6168 46.3171L76.4368 46.3171L76.4368 41.2971L75.4018 41.2971L75.4018 44.9971L69.4668 41.9421ZM69.3768 49.3828C69.3768 50.8578 70.5568 51.9078 71.8868 51.9078C73.1468 51.9078 74.2418 50.9528 74.2418 49.5628C74.2418 49.1978 74.1618 48.7928 73.8918 48.4028L75.4018 48.6828L75.4018 51.5928L76.4368 51.5928L76.4368 47.7728L72.7868 47.1028L72.5118 48.1528C72.9218 48.4228 73.1968 48.8378 73.1968 49.4078C73.1968 50.3078 72.5868 50.7328 71.8868 50.7328C71.1568 50.7328 70.4368 50.2828 70.4368 49.3728C70.4368 48.5428 71.0268 48.0628 71.6518 47.9778L71.4618 46.8878C70.2668 47.0728 69.3768 48.0928 69.3768 49.3828ZM69.3768 55.0185C69.3768 57.0485 71.3818 57.3835 72.9768 57.3835C74.5168 57.3835 76.5368 57.0685 76.5368 55.0035C76.5368 52.8985 74.4568 52.6335 72.9868 52.6335C71.4568 52.6335 69.3768 52.9185 69.3768 55.0185ZM72.9468 53.7735C74.3168 53.7735 75.4718 53.9835 75.4718 55.0035C75.4718 55.9885 74.3768 56.2485 72.9418 56.2485C71.5668 56.2485 70.4468 55.9985 70.4468 55.0185C70.4468 53.9835 71.6318 53.7735 72.9468 53.7735Z" fill="#04171F"/>
<path d="M16.1875 85.4333L16.1875 86.5433L23.1575 86.5433L23.1575 85.4333L22.7125 85.4333C22.2275 85.4333 22.0625 85.1983 22.0625 84.7583L22.0625 83.6333L21.1775 83.6333L21.1775 85.4333L16.1875 85.4333ZM16.1875 89.809L16.1875 91.089L19.5625 93.169C19.9525 93.409 20.4075 93.559 20.8575 93.559C22.2425 93.559 23.2475 92.419 23.2475 91.039C23.2475 89.669 22.2475 88.534 20.8475 88.534C19.5375 88.534 18.5125 89.559 18.5125 90.889C18.5125 91.039 18.5375 91.199 18.5825 91.354L16.1875 89.809ZM20.8425 89.664C21.6525 89.664 22.1925 90.279 22.1925 91.039C22.1925 91.804 21.6525 92.419 20.8475 92.419C20.0375 92.419 19.4975 91.799 19.4975 91.039C19.4975 90.269 20.0475 89.664 20.8425 89.664ZM16.1875 97.1147L16.1875 98.2247L17.8375 98.2247L17.8375 99.3397L18.8675 99.3397L18.8675 98.2247L23.1575 98.2247L23.1575 97.2397L18.6975 93.9547L17.8375 93.9547L17.8375 97.1147L16.1875 97.1147ZM18.8675 95.1647L21.6075 97.1147L18.8675 97.1147L18.8675 95.1647ZM16.0975 102.185C16.0975 103.705 16.9925 104.74 18.2925 104.74C19.2075 104.74 19.7375 104.135 19.9675 103.375C20.2075 103.935 20.6675 104.35 21.3675 104.35C22.4675 104.35 23.2475 103.465 23.2475 102.215C23.2475 100.885 22.3975 99.9354 21.2075 99.9354L21.1375 101.03C21.7625 101.04 22.1825 101.46 22.1825 102.175C22.1825 102.82 21.8225 103.235 21.2575 103.235C20.5275 103.235 20.2675 102.605 20.2775 101.82L19.4025 101.82C19.4025 102.91 19.1275 103.635 18.3025 103.635C17.5975 103.635 17.1675 103.1 17.1675 102.225C17.1675 101.315 17.6575 100.73 18.4325 100.73L18.3675 99.6254C17.0075 99.6254 16.0975 100.645 16.0975 102.185Z" fill="#04171F"/>
<path d="M16.1875 158.259L16.1875 159.369L23.1575 159.369L23.1575 158.259L22.7125 158.259C22.2275 158.259 22.0625 158.024 22.0625 157.584L22.0625 156.459L21.1775 156.459L21.1775 158.259L16.1875 158.259ZM16.1875 162.634L16.1875 163.914L19.5625 165.994C19.9525 166.234 20.4075 166.384 20.8575 166.384C22.2425 166.384 23.2475 165.244 23.2475 163.864C23.2475 162.494 22.2475 161.359 20.8475 161.359C19.5375 161.359 18.5125 162.384 18.5125 163.714C18.5125 163.864 18.5375 164.024 18.5825 164.179L16.1875 162.634ZM20.8425 162.489C21.6525 162.489 22.1925 163.104 22.1925 163.864C22.1925 164.629 21.6525 165.244 20.8475 165.244C20.0375 165.244 19.4975 164.624 19.4975 163.864C19.4975 163.094 20.0475 162.489 20.8425 162.489ZM16.1875 169.94L16.1875 171.05L17.8375 171.05L17.8375 172.165L18.8675 172.165L18.8675 171.05L23.1575 171.05L23.1575 170.065L18.6975 166.78L17.8375 166.78L17.8375 169.94L16.1875 169.94ZM18.8675 167.99L21.6075 169.94L18.8675 169.94L18.8675 167.99ZM16.0975 175.036C16.0975 176.511 17.2775 177.561 18.6075 177.561C19.8675 177.561 20.9625 176.606 20.9625 175.216C20.9625 174.851 20.8825 174.446 20.6125 174.056L22.1225 174.336L22.1225 177.246L23.1575 177.246L23.1575 173.426L19.5075 172.756L19.2325 173.806C19.6425 174.076 19.9175 174.491 19.9175 175.061C19.9175 175.961 19.3075 176.386 18.6075 176.386C17.8775 176.386 17.1575 175.936 17.1575 175.026C17.1575 174.196 17.7475 173.716 18.3725 173.631L18.1825 172.541C16.9875 172.726 16.0975 173.746 16.0975 175.036Z" fill="#04171F"/>
<path d="M16.1875 227.393L16.1875 228.503L23.1575 228.503L23.1575 227.393L22.7125 227.393C22.2275 227.393 22.0625 227.158 22.0625 226.718L22.0625 225.593L21.1775 225.593L21.1775 227.393L16.1875 227.393ZM16.1875 231.768L16.1875 233.048L19.5625 235.128C19.9525 235.368 20.4075 235.518 20.8575 235.518C22.2425 235.518 23.2475 234.378 23.2475 232.998C23.2475 231.628 22.2475 230.493 20.8475 230.493C19.5375 230.493 18.5125 231.518 18.5125 232.848C18.5125 232.998 18.5375 233.158 18.5825 233.313L16.1875 231.768ZM20.8425 231.623C21.6525 231.623 22.1925 232.238 22.1925 232.998C22.1925 233.763 21.6525 234.378 20.8475 234.378C20.0375 234.378 19.4975 233.758 19.4975 232.998C19.4975 232.228 20.0475 231.623 20.8425 231.623ZM16.1875 239.074L16.1875 240.184L17.8375 240.184L17.8375 241.299L18.8675 241.299L18.8675 240.184L23.1575 240.184L23.1575 239.199L18.6975 235.914L17.8375 235.914L17.8375 239.074L16.1875 239.074ZM18.8675 237.124L21.6075 239.074L18.8675 239.074L18.8675 237.124ZM16.1875 242.325L16.1875 243.56L22.3375 246.7L23.1575 246.7L23.1575 241.68L22.1225 241.68L22.1225 245.38L16.1875 242.325Z" fill="#04171F"/>
<path d="M16.1875 296.527L16.1875 297.637L23.1575 297.637L23.1575 296.527L22.7125 296.527C22.2275 296.527 22.0625 296.292 22.0625 295.852L22.0625 294.727L21.1775 294.727L21.1775 296.527L16.1875 296.527ZM16.1875 300.903L16.1875 302.183L19.5625 304.263C19.9525 304.503 20.4075 304.653 20.8575 304.653C22.2425 304.653 23.2475 303.513 23.2475 302.133C23.2475 300.763 22.2475 299.628 20.8475 299.628C19.5375 299.628 18.5125 300.653 18.5125 301.983C18.5125 302.133 18.5375 302.293 18.5825 302.448L16.1875 300.903ZM20.8425 300.758C21.6525 300.758 22.1925 301.373 22.1925 302.133C22.1925 302.898 21.6525 303.513 20.8475 303.513C20.0375 303.513 19.4975 302.893 19.4975 302.133C19.4975 301.363 20.0475 300.758 20.8425 300.758ZM16.1875 308.208L16.1875 309.318L17.8375 309.318L17.8375 310.433L18.8675 310.433L18.8675 309.318L23.1575 309.318L23.1575 308.333L18.6975 305.048L17.8375 305.048L17.8375 308.208L16.1875 308.208ZM18.8675 306.258L21.6075 308.208L18.8675 308.208L18.8675 306.258ZM16.1875 312.094L16.1875 313.374L19.5625 315.454C19.9525 315.694 20.4075 315.844 20.8575 315.844C22.2425 315.844 23.2475 314.704 23.2475 313.324C23.2475 311.954 22.2475 310.819 20.8475 310.819C19.5375 310.819 18.5125 311.844 18.5125 313.174C18.5125 313.324 18.5375 313.484 18.5825 313.639L16.1875 312.094ZM20.8425 311.949C21.6525 311.949 22.1925 312.564 22.1925 313.324C22.1925 314.089 21.6525 314.704 20.8475 314.704C20.0375 314.704 19.4975 314.084 19.4975 313.324C19.4975 312.554 20.0475 311.949 20.8425 311.949Z" fill="#04171F"/>
<path d="M16.1875 365.661L16.1875 366.771L23.1575 366.771L23.1575 365.661L22.7125 365.661C22.2275 365.661 22.0625 365.426 22.0625 364.986L22.0625 363.861L21.1775 363.861L21.1775 365.661L16.1875 365.661ZM16.1875 370.037L16.1875 371.317L19.5625 373.397C19.9525 373.637 20.4075 373.787 20.8575 373.787C22.2425 373.787 23.2475 372.647 23.2475 371.267C23.2475 369.897 22.2475 368.762 20.8475 368.762C19.5375 368.762 18.5125 369.787 18.5125 371.117C18.5125 371.267 18.5375 371.427 18.5825 371.582L16.1875 370.037ZM20.8425 369.892C21.6525 369.892 22.1925 370.507 22.1925 371.267C22.1925 372.032 21.6525 372.647 20.8475 372.647C20.0375 372.647 19.4975 372.027 19.4975 371.267C19.4975 370.497 20.0475 369.892 20.8425 369.892ZM16.0975 376.842C16.0975 378.317 17.2775 379.367 18.6075 379.367C19.8675 379.367 20.9625 378.412 20.9625 377.022C20.9625 376.657 20.8825 376.252 20.6125 375.862L22.1225 376.142L22.1225 379.052L23.1575 379.052L23.1575 375.232L19.5075 374.562L19.2325 375.612C19.6425 375.882 19.9175 376.297 19.9175 376.867C19.9175 377.767 19.3075 378.192 18.6075 378.192C17.8775 378.192 17.1575 377.742 17.1575 376.832C17.1575 376.002 17.7475 375.522 18.3725 375.437L18.1825 374.347C16.9875 374.532 16.0975 375.552 16.0975 376.842ZM16.1875 382.448L16.1875 383.558L23.1575 383.558L23.1575 382.448L22.7125 382.448C22.2275 382.448 22.0625 382.213 22.0625 381.773L22.0625 380.648L21.1775 380.648L21.1775 382.448L16.1875 382.448Z" fill="#04171F"/>
<path d="M16.1875 434.795L16.1875 435.905L23.1575 435.905L23.1575 434.795L22.7125 434.795C22.2275 434.795 22.0625 434.56 22.0625 434.12L22.0625 432.995L21.1775 432.995L21.1775 434.795L16.1875 434.795ZM16.1875 439.171L16.1875 440.451L19.5625 442.531C19.9525 442.771 20.4075 442.921 20.8575 442.921C22.2425 442.921 23.2475 441.781 23.2475 440.401C23.2475 439.031 22.2475 437.896 20.8475 437.896C19.5375 437.896 18.5125 438.921 18.5125 440.251C18.5125 440.401 18.5375 440.561 18.5825 440.716L16.1875 439.171ZM20.8425 439.026C21.6525 439.026 22.1925 439.641 22.1925 440.401C22.1925 441.166 21.6525 441.781 20.8475 441.781C20.0375 441.781 19.4975 441.161 19.4975 440.401C19.4975 439.631 20.0475 439.026 20.8425 439.026ZM16.0975 445.977C16.0975 447.452 17.2775 448.502 18.6075 448.502C19.8675 448.502 20.9625 447.547 20.9625 446.157C20.9625 445.792 20.8825 445.387 20.6125 444.997L22.1225 445.277L22.1225 448.187L23.1575 448.187L23.1575 444.367L19.5075 443.697L19.2325 444.747C19.6425 445.017 19.9175 445.432 19.9175 446.002C19.9175 446.902 19.3075 447.327 18.6075 447.327C17.8775 447.327 17.1575 446.877 17.1575 445.967C17.1575 445.137 17.7475 444.657 18.3725 444.572L18.1825 443.482C16.9875 443.667 16.0975 444.687 16.0975 445.977ZM16.0975 451.547C16.0975 453.067 16.9925 454.102 18.2925 454.102C19.2075 454.102 19.7375 453.497 19.9675 452.737C20.2075 453.297 20.6675 453.712 21.3675 453.712C22.4675 453.712 23.2475 452.827 23.2475 451.577C23.2475 450.247 22.3975 449.297 21.2075 449.297L21.1375 450.392C21.7625 450.402 22.1825 450.822 22.1825 451.537C22.1825 452.182 21.8225 452.597 21.2575 452.597C20.5275 452.597 20.2675 451.967 20.2775 451.182L19.4025 451.182C19.4025 452.272 19.1275 452.997 18.3025 452.997C17.5975 452.997 17.1675 452.462 17.1675 451.587C17.1675 450.677 17.6575 450.092 18.4325 450.092L18.3675 448.987C17.0075 448.987 16.0975 450.007 16.0975 451.547Z" fill="#04171F"/>
<path d="M16.1875 503.929L16.1875 505.039L23.1575 505.039L23.1575 503.929L22.7125 503.929C22.2275 503.929 22.0625 503.694 22.0625 503.254L22.0625 502.129L21.1775 502.129L21.1775 503.929L16.1875 503.929ZM16.1875 508.305L16.1875 509.585L19.5625 511.665C19.9525 511.905 20.4075 512.055 20.8575 512.055C22.2425 512.055 23.2475 510.915 23.2475 509.535C23.2475 508.165 22.2475 507.03 20.8475 507.03C19.5375 507.03 18.5125 508.055 18.5125 509.385C18.5125 509.535 18.5375 509.695 18.5825 509.85L16.1875 508.305ZM20.8425 508.16C21.6525 508.16 22.1925 508.775 22.1925 509.535C22.1925 510.3 21.6525 510.915 20.8475 510.915C20.0375 510.915 19.4975 510.295 19.4975 509.535C19.4975 508.765 20.0475 508.16 20.8425 508.16ZM16.0975 515.11C16.0975 516.585 17.2775 517.635 18.6075 517.635C19.8675 517.635 20.9625 516.68 20.9625 515.29C20.9625 514.925 20.8825 514.52 20.6125 514.13L22.1225 514.41L22.1225 517.32L23.1575 517.32L23.1575 513.5L19.5075 512.83L19.2325 513.88C19.6425 514.15 19.9175 514.565 19.9175 515.135C19.9175 516.035 19.3075 516.46 18.6075 516.46C17.8775 516.46 17.1575 516.01 17.1575 515.1C17.1575 514.27 17.7475 513.79 18.3725 513.705L18.1825 512.615C16.9875 512.8 16.0975 513.82 16.0975 515.11ZM16.0975 520.706C16.0975 522.181 17.2775 523.231 18.6075 523.231C19.8675 523.231 20.9625 522.276 20.9625 520.886C20.9625 520.521 20.8825 520.116 20.6125 519.726L22.1225 520.006L22.1225 522.916L23.1575 522.916L23.1575 519.096L19.5075 518.426L19.2325 519.476C19.6425 519.746 19.9175 520.161 19.9175 520.731C19.9175 521.631 19.3075 522.056 18.6075 522.056C17.8775 522.056 17.1575 521.606 17.1575 520.696C17.1575 519.866 17.7475 519.386 18.3725 519.301L18.1825 518.211C16.9875 518.396 16.0975 519.416 16.0975 520.706Z" fill="#04171F"/>
<path d="M110.318 33.944L110.318 35.179L116.468 38.319L117.288 38.319L117.288 33.299L116.253 33.299L116.253 36.999L110.318 33.944ZM110.318 39.2047L110.318 40.4247L111.583 40.4247L111.583 39.2047L110.318 39.2047ZM110.228 43.7871C110.228 45.2621 111.408 46.3121 112.738 46.3121C113.998 46.3121 115.093 45.3571 115.093 43.9671C115.093 43.6021 115.013 43.1971 114.743 42.8071L116.253 43.0871L116.253 45.9971L117.288 45.9971L117.288 42.1771L113.638 41.5071L113.363 42.5571C113.773 42.8271 114.048 43.2421 114.048 43.8121C114.048 44.7121 113.438 45.1371 112.738 45.1371C112.008 45.1371 111.288 44.6871 111.288 43.7771C111.288 42.9471 111.878 42.4671 112.503 42.3821L112.313 41.2921C111.118 41.4771 110.228 42.4971 110.228 43.7871ZM110.228 49.4228C110.228 51.4528 112.233 51.7878 113.828 51.7878C115.368 51.7878 117.388 51.4728 117.388 49.4078C117.388 47.3028 115.308 47.0378 113.838 47.0378C112.308 47.0378 110.228 47.3228 110.228 49.4228ZM113.798 48.1778C115.168 48.1778 116.323 48.3878 116.323 49.4078C116.323 50.3928 115.228 50.6528 113.793 50.6528C112.418 50.6528 111.298 50.4028 111.298 49.4228C111.298 48.3878 112.483 48.1778 113.798 48.1778ZM110.228 55.0185C110.228 57.0485 112.233 57.3835 113.828 57.3835C115.368 57.3835 117.388 57.0685 117.388 55.0035C117.388 52.8985 115.308 52.6335 113.838 52.6335C112.308 52.6335 110.228 52.9185 110.228 55.0185ZM113.798 53.7735C115.168 53.7735 116.323 53.9835 116.323 55.0035C116.323 55.9885 115.228 56.2485 113.793 56.2485C112.418 56.2485 111.298 55.9985 111.298 55.0185C111.298 53.9835 112.483 53.7735 113.798 53.7735Z" fill="#04171F"/>
<path d="M192.022 30.0134L192.022 31.1234L198.992 31.1234L198.992 30.0134L198.547 30.0134C198.062 30.0134 197.897 29.7784 197.897 29.3384L197.897 28.2134L197.012 28.2134L197.012 30.0134L192.022 30.0134ZM191.932 35.5991C191.932 37.0741 193.112 38.1241 194.442 38.1241C195.702 38.1241 196.797 37.1691 196.797 35.7791C196.797 35.4141 196.717 35.0091 196.447 34.6191L197.957 34.8991L197.957 37.8091L198.992 37.8091L198.992 33.9891L195.342 33.3191L195.067 34.3691C195.477 34.6391 195.752 35.0541 195.752 35.6241C195.752 36.5241 195.142 36.9491 194.442 36.9491C193.712 36.9491 192.992 36.4991 192.992 35.5891C192.992 34.7591 193.582 34.2791 194.207 34.1941L194.017 33.1041C192.822 33.2891 191.932 34.3091 191.932 35.5991ZM192.022 39.0148L192.022 40.2348L193.287 40.2348L193.287 39.0148L192.022 39.0148ZM191.932 43.6371C191.932 45.6671 193.937 46.0021 195.532 46.0021C197.072 46.0021 199.092 45.6871 199.092 43.6221C199.092 41.5171 197.012 41.2521 195.542 41.2521C194.012 41.2521 191.932 41.5371 191.932 43.6371ZM195.502 42.3921C196.872 42.3921 198.027 42.6021 198.027 43.6221C198.027 44.6071 196.932 44.8671 195.497 44.8671C194.122 44.8671 193.002 44.6171 193.002 43.6371C193.002 42.6021 194.187 42.3921 195.502 42.3921ZM191.932 49.2329C191.932 51.2629 193.937 51.5979 195.532 51.5979C197.072 51.5979 199.092 51.2829 199.092 49.2179C199.092 47.1129 197.012 46.8479 195.542 46.8479C194.012 46.8479 191.932 47.1329 191.932 49.2329ZM195.502 47.9879C196.872 47.9879 198.027 48.1979 198.027 49.2179C198.027 50.2029 196.932 50.4629 195.497 50.4629C194.122 50.4629 193.002 50.2129 193.002 49.2329C193.002 48.1979 194.187 47.9879 195.502 47.9879ZM191.932 54.8286C191.932 56.8586 193.937 57.1936 195.532 57.1936C197.072 57.1936 199.092 56.8786 199.092 54.8136C199.092 52.7086 197.012 52.4436 195.542 52.4436C194.012 52.4436 191.932 52.7286 191.932 54.8286ZM195.502 53.5836C196.872 53.5836 198.027 53.7936 198.027 54.8136C198.027 55.7986 196.932 56.0586 195.497 56.0586C194.122 56.0586 193.002 55.8086 193.002 54.8286C193.002 53.7936 194.187 53.5836 195.502 53.5836Z" fill="#04171F"/>
<path d="M355.34 29.9784C355.34 31.4984 356.235 32.5334 357.535 32.5334C358.45 32.5334 358.98 31.9284 359.21 31.1684C359.45 31.7284 359.91 32.1434 360.61 32.1434C361.71 32.1434 362.49 31.2584 362.49 30.0084C362.49 28.6784 361.64 27.7284 360.45 27.7284L360.38 28.8234C361.005 28.8334 361.425 29.2534 361.425 29.9684C361.425 30.6134 361.065 31.0284 360.5 31.0284C359.77 31.0284 359.51 30.3984 359.52 29.6134L358.645 29.6134C358.645 30.7034 358.37 31.4284 357.545 31.4284C356.84 31.4284 356.41 30.8934 356.41 30.0184C356.41 29.1084 356.9 28.5234 357.675 28.5234L357.61 27.4184C356.25 27.4184 355.34 28.4384 355.34 29.9784ZM355.34 35.6391C355.34 37.6691 357.345 38.0041 358.94 38.0041C360.48 38.0041 362.5 37.6891 362.5 35.6241C362.5 33.5191 360.42 33.2541 358.95 33.2541C357.42 33.2541 355.34 33.5391 355.34 35.6391ZM358.91 34.3941C360.28 34.3941 361.435 34.6041 361.435 35.6241C361.435 36.6091 360.34 36.8691 358.905 36.8691C357.53 36.8691 356.41 36.6191 356.41 35.6391C356.41 34.6041 357.595 34.3941 358.91 34.3941ZM355.43 39.0148L355.43 40.2348L356.695 40.2348L356.695 39.0148L355.43 39.0148ZM355.34 43.6371C355.34 45.6671 357.345 46.0021 358.94 46.0021C360.48 46.0021 362.5 45.6871 362.5 43.6221C362.5 41.5171 360.42 41.2521 358.95 41.2521C357.42 41.2521 355.34 41.5371 355.34 43.6371ZM358.91 42.3921C360.28 42.3921 361.435 42.6021 361.435 43.6221C361.435 44.6071 360.34 44.8671 358.905 44.8671C357.53 44.8671 356.41 44.6171 356.41 43.6371C356.41 42.6021 357.595 42.3921 358.91 42.3921ZM355.34 49.2329C355.34 51.2629 357.345 51.5979 358.94 51.5979C360.48 51.5979 362.5 51.2829 362.5 49.2179C362.5 47.1129 360.42 46.8479 358.95 46.8479C357.42 46.8479 355.34 47.1329 355.34 49.2329ZM358.91 47.9879C360.28 47.9879 361.435 48.1979 361.435 49.2179C361.435 50.2029 360.34 50.4629 358.905 50.4629C357.53 50.4629 356.41 50.2129 356.41 49.2329C356.41 48.1979 357.595 47.9879 358.91 47.9879ZM355.34 54.8286C355.34 56.8586 357.345 57.1936 358.94 57.1936C360.48 57.1936 362.5 56.8786 362.5 54.8136C362.5 52.7086 360.42 52.4436 358.95 52.4436C357.42 52.4436 355.34 52.7286 355.34 54.8286ZM358.91 53.5836C360.28 53.5836 361.435 53.7936 361.435 54.8136C361.435 55.7986 360.34 56.0586 358.905 56.0586C357.53 56.0586 356.41 55.8086 356.41 54.8286C356.41 53.7936 357.595 53.5836 358.91 53.5836Z" fill="#04171F"/>
<path d="M30.9015 85.8433L186.955 151.979C188.407 152.595 188.035 154.748 186.46 154.842L97.732 160.098C94.9429 160.263 93.1242 163.097 94.1369 165.7C96.1387 170.846 100.411 174.775 105.707 176.342L155.652 191.116C165.433 194.009 174.637 198.579 182.852 204.622L203.904 220.107C207.726 222.918 209.982 227.379 209.982 232.122L209.982 245.149C209.982 253.564 212.829 261.731 218.06 268.324L223.109 274.688C225.682 277.932 226.792 282.099 226.171 286.192L225.044 293.628C223.981 300.643 225.027 307.816 228.049 314.236L233.224 325.227C234.359 327.64 233.146 330.503 230.623 331.367L167.494 352.97C157.571 356.366 148.207 361.216 139.709 367.361L125.878 377.363C115.856 384.61 105.922 393.852 93.6029 394.961L30.9015 400.608L30.9015 85.8433Z" fill="#CAD0D3"/>
<path d="M31.0966 85.3829L30.4015 85.0883L30.4015 85.8433L30.4015 400.608L30.4015 401.155L30.9463 401.106L93.6477 395.459C99.92 394.894 105.562 392.261 110.87 388.886C114.35 386.673 117.722 384.116 121.037 381.602C122.761 380.294 124.47 378.998 126.171 377.768L140.002 367.766C148.46 361.65 157.78 356.823 167.656 353.443L230.785 331.84C233.59 330.88 234.939 327.696 233.676 325.014L228.502 314.023C225.521 307.693 224.49 300.62 225.539 293.703L226.666 286.267C227.307 282.037 226.16 277.73 223.5 274.377L218.451 268.013C213.291 261.509 210.482 253.451 210.482 245.149L210.482 232.122C210.482 227.22 208.15 222.61 204.2 219.704L183.149 204.22C174.886 198.142 165.63 193.546 155.794 190.636L105.849 175.862C100.701 174.339 96.5486 170.52 94.6028 165.519C93.7133 163.232 95.3109 160.742 97.7616 160.597L186.49 155.341C188.592 155.216 189.089 152.341 187.15 151.519L31.0966 85.3829Z" stroke="#04171F"/>
<path d="M120.79 203.031L60.0016 129.851L60.0016 449.837L102.533 449.837L102.533 432.074C102.533 427.255 104.652 422.679 108.328 419.561L123.404 406.774C125.417 405.067 125.523 401.999 123.633 400.158L102.454 379.516C100.082 377.203 100.957 373.205 104.079 372.095L165.728 350.17C171.615 348.077 176.446 343.76 179.185 338.147L185.454 325.301C188.337 319.393 189.835 312.907 189.835 306.334L189.835 302.572C189.835 296.029 192.1 289.688 196.244 284.624L206.01 272.693C207.956 270.315 206.982 266.729 204.1 265.662L129.395 238.005L129.395 226.856C129.395 218.154 126.351 209.726 120.79 203.031Z" fill="#98A2A7"/>
<path d="M60.3862 129.532L59.5016 128.467L59.5016 129.851L59.5016 449.837L59.5016 450.337L60.0016 450.337L102.533 450.337L103.033 450.337L103.033 449.837L103.033 432.074C103.033 427.402 105.088 422.966 108.652 419.943L123.728 407.156C125.965 405.258 126.083 401.847 123.982 399.8L102.803 379.158C100.696 377.104 101.473 373.552 104.246 372.566L165.896 350.641C171.906 348.504 176.838 344.097 179.635 338.366L185.903 325.52C188.819 319.544 190.335 312.983 190.335 306.334L190.335 302.572C190.335 296.145 192.56 289.915 196.631 284.941L206.397 273.01C208.56 270.366 207.477 266.38 204.273 265.194L129.895 237.657L129.895 226.856C129.895 218.037 126.81 209.496 121.175 202.711L60.3862 129.532Z" stroke="#04171F"/>
<path d="M83.4836 171.042L52.4448 137.31L30.9013 135.818L30.9013 544.565L44.2218 544.565C54.5133 544.565 64.7058 542.557 74.2279 538.654L149.774 507.69C153.696 506.082 156.258 502.265 156.258 498.028L156.258 479.717C156.258 474.274 155.154 468.887 153.013 463.882L151.012 459.204C148.229 452.698 143.113 447.468 136.669 444.542L93.1324 424.77C86.7376 421.866 82.6316 415.493 82.6316 408.472L82.6316 333.923C82.6316 330.652 82.9758 327.39 83.6586 324.191C86.8917 309.043 88.5217 293.596 88.5217 278.107L88.5217 273.808L92.9392 219.358L92.9392 195.279C92.9392 186.301 89.5644 177.65 83.4836 171.042Z" fill="#65747B"/>
<path d="M52.8128 136.972L52.678 136.825L52.4794 136.811L30.9359 135.32L30.4013 135.283L30.4013 135.818L30.4013 544.565L30.4013 545.065L30.9013 545.065L44.2218 545.065C54.5783 545.065 64.8352 543.044 74.4175 539.117L149.964 508.153C154.074 506.468 156.758 502.468 156.758 498.028L156.758 479.717C156.758 474.207 155.64 468.753 153.473 463.686L151.472 459.007C148.64 452.387 143.434 447.065 136.876 444.086L93.3392 424.315C87.1229 421.492 83.1316 415.297 83.1316 408.472L83.1316 333.923C83.1316 330.687 83.4721 327.46 84.1476 324.296C87.388 309.113 89.0217 293.631 89.0217 278.107L89.0217 273.828L93.4376 219.398L93.4392 219.378L93.4392 219.358L93.4392 195.279C93.4392 186.175 90.0172 177.404 83.8515 170.703L52.8128 136.972Z" stroke="#04171F"/>
<path d="M65.302 150.957L30.3777 114.176L30.3777 518.505L38.6908 478.148L47.004 446.758L52.5175 414.724C52.8718 412.666 53.4088 410.643 54.1226 408.676L59.7282 393.234C62.2675 386.238 62.5431 378.644 60.5173 371.489C59.0809 366.416 58.7142 361.109 59.4395 355.892L66.6532 304.009L66.6532 283.14C66.6532 279.293 69.6358 276.078 73.5409 275.713L355.816 249.391C357.647 249.221 357.655 246.604 355.826 246.422L76.6831 218.608C73.5657 218.297 71.1982 215.716 71.2121 212.644L71.421 166.306C71.4467 160.613 69.2585 155.124 65.302 150.957Z" fill="#34464E"/>
<path d="M38.2075 478.02L38.2039 478.034L38.2011 478.047L30.8777 513.6L30.8777 115.428L64.9394 151.301C68.808 155.376 70.9461 160.741 70.921 166.304L70.7121 212.642C70.697 215.98 73.2675 218.77 76.6335 219.105L355.776 246.919C357.002 247.042 356.998 248.779 355.769 248.894L73.4945 275.216C69.3403 275.603 66.1532 279.027 66.1532 283.14L66.1532 303.974L58.9443 355.823C58.2094 361.108 58.581 366.485 60.0362 371.625C62.0335 378.679 61.7618 386.166 59.2582 393.063L53.6526 408.506C52.9287 410.5 52.3841 412.552 52.0248 414.64L46.5149 446.652L38.2075 478.02Z" stroke="#04171F"/>
<path d="M100.386 83.6919L30.3779 62.8491L30.3779 544.693L33.3728 429.648L33.3728 397.632C33.3728 394.577 33.5965 391.525 34.042 388.502L44.2402 319.31C44.4815 317.673 44.9314 316.073 45.5791 314.55L50.5393 302.884C53.4581 296.02 53.6224 288.298 50.9982 281.316C49.2452 276.652 48.3472 271.711 48.3472 266.729L48.3472 183.768C48.3472 182.348 48.5315 180.934 48.8956 179.562L51.7085 168.959C53.7934 161.101 59.9794 154.985 67.8742 152.977L163.771 128.588C166.174 127.976 166.834 124.882 164.888 123.348L141.914 105.231C129.563 95.4923 115.471 88.1829 100.386 83.6919Z" fill="url(#paint0_linear)"/>
<path d="M30.8779 506.272L30.8779 63.5197L100.243 84.1711C115.268 88.6441 129.303 95.9241 141.604 105.624L164.578 123.74C166.198 125.017 165.65 127.594 163.647 128.103L67.7509 152.493C59.6809 154.545 53.3567 160.797 51.2253 168.831L48.4123 179.434C48.0372 180.848 47.8472 182.305 47.8472 183.768L47.8472 266.729C47.8472 271.771 48.756 276.772 50.5302 281.492C53.1092 288.354 52.9477 295.942 50.0791 302.689L45.1189 314.354C44.4546 315.917 43.993 317.558 43.7455 319.237L33.5473 388.429C33.0982 391.476 32.8728 394.552 32.8728 397.632L32.8728 429.641L32.8728 429.648L30.8779 506.272Z" stroke="#04171F"/>
<rect width="1.04994" height="1.04749" transform="matrix(-4.37114e-08 1 1 4.37114e-08 30.377 96.8921)" fill="white"/>
<rect width="1.04994" height="1.04749" transform="matrix(-4.37114e-08 1 1 4.37114e-08 30.377 131.459)" fill="white"/>
<rect width="1.04994" height="1.04749" transform="matrix(-4.37114e-08 1 1 4.37114e-08 30.377 166.026)" fill="white"/>
<rect width="1.04994" height="1.04749" transform="matrix(-4.37114e-08 1 1 4.37114e-08 30.377 200.593)" fill="white"/>
<rect width="1.04994" height="1.04749" transform="matrix(-4.37114e-08 1 1 4.37114e-08 30.377 235.16)" fill="white"/>
<rect width="1.04994" height="1.04749" transform="matrix(-4.37114e-08 1 1 4.37114e-08 30.377 269.728)" fill="white"/>
<rect width="1.04994" height="1.04749" transform="matrix(-4.37114e-08 1 1 4.37114e-08 30.377 304.294)" fill="white"/>
<rect width="1.04994" height="1.04749" transform="matrix(-4.37114e-08 1 1 4.37114e-08 30.377 338.861)" fill="white"/>
<rect width="1.04994" height="1.04749" transform="matrix(-4.37114e-08 1 1 4.37114e-08 30.377 373.428)" fill="white"/>
<rect width="1.04994" height="1.04749" transform="matrix(-4.37114e-08 1 1 4.37114e-08 30.377 407.996)" fill="white"/>
<rect width="1.04994" height="1.04749" transform="matrix(-4.37114e-08 1 1 4.37114e-08 30.377 442.562)" fill="white"/>
<rect width="1.04994" height="1.04749" transform="matrix(-4.37114e-08 1 1 4.37114e-08 30.377 477.129)" fill="white"/>
<rect width="1.04994" height="1.04749" transform="matrix(-4.37114e-08 1 1 4.37114e-08 30.377 511.697)" fill="white"/>
<defs>
<linearGradient id="paint0_linear" x1="166.027" y1="303.771" x2="30.3779" y2="303.771" gradientUnits="userSpaceOnUse">
<stop stop-color="#04171F"/>
<stop offset="1" stop-color="#04171F"/>
</linearGradient>
</defs>
</svg>
