<svg width="1160" height="716" viewBox="0 0 1160 716" fill="none" xmlns="http://www.w3.org/2000/svg">
<rect width="1160" height="716" fill="#E3E3E5"/>
<rect x="120" y="579" width="920" height="1" fill="white"/>
<rect x="120" y="501" width="920" height="1" fill="white"/>
<rect x="120" y="423" width="920" height="1" fill="white"/>
<rect x="120" y="345" width="920" height="1" fill="white"/>
<rect x="120" y="267" width="920" height="1" fill="white"/>
<rect x="120" y="189" width="920" height="1" fill="white"/>
<rect x="120" y="111" width="920" height="1" fill="white"/>
<rect x="120" y="33" width="920" height="1" fill="white"/>
<path d="M80.1438 584.126C82.2718 584.126 83.7208 582.873 83.7208 581.053C83.7208 579.772 82.8738 579.03 81.8098 578.708C82.5938 578.372 83.1748 577.728 83.1748 576.748C83.1748 575.208 81.9358 574.116 80.1858 574.116C78.3238 574.116 76.9938 575.306 76.9938 576.972L78.5268 577.07C78.5408 576.195 79.1288 575.607 80.1298 575.607C81.0328 575.607 81.6138 576.111 81.6138 576.902C81.6138 577.924 80.7318 578.288 79.6328 578.274V579.499C81.1588 579.499 82.1738 579.884 82.1738 581.039C82.1738 582.026 81.4248 582.628 80.1998 582.628C78.9258 582.628 78.1068 581.942 78.1068 580.857L76.5598 580.948C76.5598 582.852 77.9878 584.126 80.1438 584.126ZM84.9608 584H86.6688V582.229H84.9608V584ZM88.793 584H90.522L94.918 575.39V574.242H87.89V575.691H93.07L88.793 584ZM99.21 584.126C101.275 584.126 102.745 582.474 102.745 580.612C102.745 578.848 101.408 577.315 99.462 577.315C98.951 577.315 98.384 577.427 97.838 577.805L98.23 575.691H102.304V574.242H96.956L96.018 579.352L97.488 579.737C97.866 579.163 98.447 578.778 99.245 578.778C100.505 578.778 101.1 579.632 101.1 580.612C101.1 581.634 100.47 582.642 99.196 582.642C98.034 582.642 97.362 581.816 97.243 580.941L95.717 581.207C95.976 582.88 97.404 584.126 99.21 584.126ZM107.1 584.126C109.942 584.126 110.411 581.319 110.411 579.086C110.411 576.93 109.97 574.102 107.079 574.102C104.132 574.102 103.761 577.014 103.761 579.072C103.761 581.214 104.16 584.126 107.1 584.126ZM105.357 579.128C105.357 577.21 105.651 575.593 107.079 575.593C108.458 575.593 108.822 577.126 108.822 579.135C108.822 581.06 108.472 582.628 107.1 582.628C105.651 582.628 105.357 580.969 105.357 579.128Z" fill="#04171F"/>
<path d="M174.556 680H176.11V670.242H174.556V670.865C174.556 671.544 174.227 671.775 173.611 671.775H172.036V673.014H174.556V680ZM180.682 680H182.474L185.386 675.275C185.722 674.729 185.932 674.092 185.932 673.462C185.932 671.523 184.336 670.116 182.404 670.116C180.486 670.116 178.897 671.516 178.897 673.476C178.897 675.31 180.332 676.745 182.194 676.745C182.404 676.745 182.628 676.71 182.845 676.647L180.682 680ZM180.479 673.483C180.479 672.349 181.34 671.593 182.404 671.593C183.475 671.593 184.336 672.349 184.336 673.476C184.336 674.61 183.468 675.366 182.404 675.366C181.326 675.366 180.479 674.596 180.479 673.483ZM190.91 680H192.464V677.69H194.025V676.248H192.464V670.242H191.085L186.486 676.486V677.69H190.91V680ZM188.18 676.248L190.91 672.412V676.248H188.18ZM198.009 680.126C200.137 680.126 201.586 678.873 201.586 677.053C201.586 675.772 200.739 675.03 199.675 674.708C200.459 674.372 201.04 673.728 201.04 672.748C201.04 671.208 199.801 670.116 198.051 670.116C196.189 670.116 194.859 671.306 194.859 672.972L196.392 673.07C196.406 672.195 196.994 671.607 197.995 671.607C198.898 671.607 199.479 672.111 199.479 672.902C199.479 673.924 198.597 674.288 197.498 674.274V675.499C199.024 675.499 200.039 675.884 200.039 677.039C200.039 678.026 199.29 678.628 198.065 678.628C196.791 678.628 195.972 677.942 195.972 676.857L194.425 676.948C194.425 678.852 195.853 680.126 198.009 680.126Z" fill="#04171F"/>
<path d="M306.224 680H307.778V670.242H306.224V670.865C306.224 671.544 305.895 671.775 305.279 671.775H303.704V673.014H306.224V680ZM312.35 680H314.142L317.054 675.275C317.39 674.729 317.6 674.092 317.6 673.462C317.6 671.523 316.004 670.116 314.072 670.116C312.154 670.116 310.565 671.516 310.565 673.476C310.565 675.31 312 676.745 313.862 676.745C314.072 676.745 314.296 676.71 314.513 676.647L312.35 680ZM312.147 673.483C312.147 672.349 313.008 671.593 314.072 671.593C315.143 671.593 316.004 672.349 316.004 673.476C316.004 674.61 315.136 675.366 314.072 675.366C312.994 675.366 312.147 674.596 312.147 673.483ZM322.578 680H324.132V677.69H325.693V676.248H324.132V670.242H322.753L318.154 676.486V677.69H322.578V680ZM319.848 676.248L322.578 672.412V676.248H319.848ZM329.712 680.126C331.777 680.126 333.247 678.474 333.247 676.612C333.247 674.848 331.91 673.315 329.964 673.315C329.453 673.315 328.886 673.427 328.34 673.805L328.732 671.691H332.806V670.242H327.458L326.52 675.352L327.99 675.737C328.368 675.163 328.949 674.778 329.747 674.778C331.007 674.778 331.602 675.632 331.602 676.612C331.602 677.634 330.972 678.642 329.698 678.642C328.536 678.642 327.864 677.816 327.745 676.941L326.219 677.207C326.478 678.88 327.906 680.126 329.712 680.126Z" fill="#04171F"/>
<path d="M438.224 680H439.778V670.242H438.224V670.865C438.224 671.544 437.895 671.775 437.279 671.775H435.704V673.014H438.224V680ZM444.35 680H446.142L449.054 675.275C449.39 674.729 449.6 674.092 449.6 673.462C449.6 671.523 448.004 670.116 446.072 670.116C444.154 670.116 442.565 671.516 442.565 673.476C442.565 675.31 444 676.745 445.862 676.745C446.072 676.745 446.296 676.71 446.513 676.647L444.35 680ZM444.147 673.483C444.147 672.349 445.008 671.593 446.072 671.593C447.143 671.593 448.004 672.349 448.004 673.476C448.004 674.61 447.136 675.366 446.072 675.366C444.994 675.366 444.147 674.596 444.147 673.483ZM454.578 680H456.132V677.69H457.693V676.248H456.132V670.242H454.753L450.154 676.486V677.69H454.578V680ZM451.848 676.248L454.578 672.412V676.248H451.848ZM459.129 680H460.858L465.254 671.39V670.242H458.226V671.691H463.406L459.129 680Z" fill="#04171F"/>
<path d="M570.224 680H571.778V670.242H570.224V670.865C570.224 671.544 569.895 671.775 569.279 671.775H567.704V673.014H570.224V680ZM576.35 680H578.142L581.054 675.275C581.39 674.729 581.6 674.092 581.6 673.462C581.6 671.523 580.004 670.116 578.072 670.116C576.154 670.116 574.565 671.516 574.565 673.476C574.565 675.31 576 676.745 577.862 676.745C578.072 676.745 578.296 676.71 578.513 676.647L576.35 680ZM576.147 673.483C576.147 672.349 577.008 671.593 578.072 671.593C579.143 671.593 580.004 672.349 580.004 673.476C580.004 674.61 579.136 675.366 578.072 675.366C576.994 675.366 576.147 674.596 576.147 673.483ZM586.578 680H588.132V677.69H589.693V676.248H588.132V670.242H586.753L582.154 676.486V677.69H586.578V680ZM583.848 676.248L586.578 672.412V676.248H583.848ZM592.018 680H593.81L596.722 675.275C597.058 674.729 597.268 674.092 597.268 673.462C597.268 671.523 595.672 670.116 593.74 670.116C591.822 670.116 590.233 671.516 590.233 673.476C590.233 675.31 591.668 676.745 593.53 676.745C593.74 676.745 593.964 676.71 594.181 676.647L592.018 680ZM591.815 673.483C591.815 672.349 592.676 671.593 593.74 671.593C594.811 671.593 595.672 672.349 595.672 673.476C595.672 674.61 594.804 675.366 593.74 675.366C592.662 675.366 591.815 674.596 591.815 673.483Z" fill="#04171F"/>
<path d="M702.224 680H703.778V670.242H702.224V670.865C702.224 671.544 701.895 671.775 701.279 671.775H699.704V673.014H702.224V680ZM708.35 680H710.142L713.054 675.275C713.39 674.729 713.6 674.092 713.6 673.462C713.6 671.523 712.004 670.116 710.072 670.116C708.154 670.116 706.565 671.516 706.565 673.476C706.565 675.31 708 676.745 709.862 676.745C710.072 676.745 710.296 676.71 710.513 676.647L708.35 680ZM708.147 673.483C708.147 672.349 709.008 671.593 710.072 671.593C711.143 671.593 712.004 672.349 712.004 673.476C712.004 674.61 711.136 675.366 710.072 675.366C708.994 675.366 708.147 674.596 708.147 673.483ZM717.878 680.126C719.943 680.126 721.413 678.474 721.413 676.612C721.413 674.848 720.076 673.315 718.13 673.315C717.619 673.315 717.052 673.427 716.506 673.805L716.898 671.691H720.972V670.242H715.624L714.686 675.352L716.156 675.737C716.534 675.163 717.115 674.778 717.913 674.778C719.173 674.778 719.768 675.632 719.768 676.612C719.768 677.634 719.138 678.642 717.864 678.642C716.702 678.642 716.03 677.816 715.911 676.941L714.385 677.207C714.644 678.88 716.072 680.126 717.878 680.126ZM725.726 680H727.28V670.242H725.726V670.865C725.726 671.544 725.397 671.775 724.781 671.775H723.206V673.014H725.726V680Z" fill="#04171F"/>
<path d="M834.224 680H835.778V670.242H834.224V670.865C834.224 671.544 833.895 671.775 833.279 671.775H831.704V673.014H834.224V680ZM840.35 680H842.142L845.054 675.275C845.39 674.729 845.6 674.092 845.6 673.462C845.6 671.523 844.004 670.116 842.072 670.116C840.154 670.116 838.565 671.516 838.565 673.476C838.565 675.31 840 676.745 841.862 676.745C842.072 676.745 842.296 676.71 842.513 676.647L840.35 680ZM840.147 673.483C840.147 672.349 841.008 671.593 842.072 671.593C843.143 671.593 844.004 672.349 844.004 673.476C844.004 674.61 843.136 675.366 842.072 675.366C840.994 675.366 840.147 674.596 840.147 673.483ZM849.878 680.126C851.943 680.126 853.413 678.474 853.413 676.612C853.413 674.848 852.076 673.315 850.13 673.315C849.619 673.315 849.052 673.427 848.506 673.805L848.898 671.691H852.972V670.242H847.624L846.686 675.352L848.156 675.737C848.534 675.163 849.115 674.778 849.913 674.778C851.173 674.778 851.768 675.632 851.768 676.612C851.768 677.634 851.138 678.642 849.864 678.642C848.702 678.642 848.03 677.816 847.911 676.941L846.385 677.207C846.644 678.88 848.072 680.126 849.878 680.126ZM857.677 680.126C859.805 680.126 861.254 678.873 861.254 677.053C861.254 675.772 860.407 675.03 859.343 674.708C860.127 674.372 860.708 673.728 860.708 672.748C860.708 671.208 859.469 670.116 857.719 670.116C855.857 670.116 854.527 671.306 854.527 672.972L856.06 673.07C856.074 672.195 856.662 671.607 857.663 671.607C858.566 671.607 859.147 672.111 859.147 672.902C859.147 673.924 858.265 674.288 857.166 674.274V675.499C858.692 675.499 859.707 675.884 859.707 677.039C859.707 678.026 858.958 678.628 857.733 678.628C856.459 678.628 855.64 677.942 855.64 676.857L854.093 676.948C854.093 678.852 855.521 680.126 857.677 680.126Z" fill="#04171F"/>
<path d="M966.224 680H967.778V670.242H966.224V670.865C966.224 671.544 965.895 671.775 965.279 671.775H963.704V673.014H966.224V680ZM972.35 680H974.142L977.054 675.275C977.39 674.729 977.6 674.092 977.6 673.462C977.6 671.523 976.004 670.116 974.072 670.116C972.154 670.116 970.565 671.516 970.565 673.476C970.565 675.31 972 676.745 973.862 676.745C974.072 676.745 974.296 676.71 974.513 676.647L972.35 680ZM972.147 673.483C972.147 672.349 973.008 671.593 974.072 671.593C975.143 671.593 976.004 672.349 976.004 673.476C976.004 674.61 975.136 675.366 974.072 675.366C972.994 675.366 972.147 674.596 972.147 673.483ZM981.878 680.126C983.943 680.126 985.413 678.474 985.413 676.612C985.413 674.848 984.076 673.315 982.13 673.315C981.619 673.315 981.052 673.427 980.506 673.805L980.898 671.691H984.972V670.242H979.624L978.686 675.352L980.156 675.737C980.534 675.163 981.115 674.778 981.913 674.778C983.173 674.778 983.768 675.632 983.768 676.612C983.768 677.634 983.138 678.642 981.864 678.642C980.702 678.642 980.03 677.816 979.911 676.941L978.385 677.207C978.644 678.88 980.072 680.126 981.878 680.126ZM989.712 680.126C991.777 680.126 993.247 678.474 993.247 676.612C993.247 674.848 991.91 673.315 989.964 673.315C989.453 673.315 988.886 673.427 988.34 673.805L988.732 671.691H992.806V670.242H987.458L986.52 675.352L987.99 675.737C988.368 675.163 988.949 674.778 989.747 674.778C991.007 674.778 991.602 675.632 991.602 676.612C991.602 677.634 990.972 678.642 989.698 678.642C988.536 678.642 987.864 677.816 987.745 676.941L986.219 677.207C986.478 678.88 987.906 680.126 989.712 680.126Z" fill="#04171F"/>
<path d="M77.5958 506H79.3248L83.7208 497.39V496.242H76.6928V497.691H81.8728L77.5958 506ZM84.9608 506H86.6688V504.229H84.9608V506ZM91.376 506.126C93.441 506.126 94.911 504.474 94.911 502.612C94.911 500.848 93.574 499.315 91.628 499.315C91.117 499.315 90.55 499.427 90.004 499.805L90.396 497.691H94.47V496.242H89.122L88.184 501.352L89.654 501.737C90.032 501.163 90.613 500.778 91.411 500.778C92.671 500.778 93.266 501.632 93.266 502.612C93.266 503.634 92.636 504.642 91.362 504.642C90.2 504.642 89.528 503.816 89.409 502.941L87.883 503.207C88.142 504.88 89.57 506.126 91.376 506.126ZM99.266 506.126C102.108 506.126 102.577 503.319 102.577 501.086C102.577 498.93 102.136 496.102 99.245 496.102C96.298 496.102 95.927 499.014 95.927 501.072C95.927 503.214 96.326 506.126 99.266 506.126ZM97.523 501.128C97.523 499.21 97.817 497.593 99.245 497.593C100.624 497.593 100.988 499.126 100.988 501.135C100.988 503.06 100.638 504.628 99.266 504.628C97.817 504.628 97.523 502.969 97.523 501.128ZM107.1 506.126C109.942 506.126 110.411 503.319 110.411 501.086C110.411 498.93 109.97 496.102 107.079 496.102C104.132 496.102 103.761 499.014 103.761 501.072C103.761 503.214 104.16 506.126 107.1 506.126ZM105.357 501.128C105.357 499.21 105.651 497.593 107.079 497.593C108.458 497.593 108.822 499.126 108.822 501.135C108.822 503.06 108.472 504.628 107.1 504.628C105.651 504.628 105.357 502.969 105.357 501.128Z" fill="#04171F"/>
<path d="M72.3588 350H73.9128V340.242H72.3588V340.865C72.3588 341.544 72.0298 341.775 71.4138 341.775H69.8388V343.014H72.3588V350ZM80.1788 350.126C82.2438 350.126 83.7138 348.474 83.7138 346.612C83.7138 344.848 82.3768 343.315 80.4308 343.315C79.9198 343.315 79.3528 343.427 78.8068 343.805L79.1988 341.691H83.2728V340.242H77.9248L76.9868 345.352L78.4568 345.737C78.8348 345.163 79.4158 344.778 80.2138 344.778C81.4738 344.778 82.0688 345.632 82.0688 346.612C82.0688 347.634 81.4388 348.642 80.1648 348.642C79.0028 348.642 78.3308 347.816 78.2118 346.941L76.6858 347.207C76.9448 348.88 78.3728 350.126 80.1788 350.126ZM84.9608 350H86.6688V348.229H84.9608V350ZM91.432 350.126C94.274 350.126 94.743 347.319 94.743 345.086C94.743 342.93 94.302 340.102 91.411 340.102C88.464 340.102 88.093 343.014 88.093 345.072C88.093 347.214 88.492 350.126 91.432 350.126ZM89.689 345.128C89.689 343.21 89.983 341.593 91.411 341.593C92.79 341.593 93.154 343.126 93.154 345.135C93.154 347.06 92.804 348.628 91.432 348.628C89.983 348.628 89.689 346.969 89.689 345.128ZM99.266 350.126C102.108 350.126 102.577 347.319 102.577 345.086C102.577 342.93 102.136 340.102 99.245 340.102C96.298 340.102 95.927 343.014 95.927 345.072C95.927 347.214 96.326 350.126 99.266 350.126ZM97.523 345.128C97.523 343.21 97.817 341.593 99.245 341.593C100.624 341.593 100.988 343.126 100.988 345.135C100.988 347.06 100.638 348.628 99.266 348.628C97.817 348.628 97.523 346.969 97.523 345.128ZM107.1 350.126C109.942 350.126 110.411 347.319 110.411 345.086C110.411 342.93 109.97 340.102 107.079 340.102C104.132 340.102 103.761 343.014 103.761 345.072C103.761 347.214 104.16 350.126 107.1 350.126ZM105.357 345.128C105.357 343.21 105.651 341.593 107.079 341.593C108.458 341.593 108.822 343.126 108.822 345.135C108.822 347.06 108.472 348.628 107.1 348.628C105.651 348.628 105.357 346.969 105.357 345.128Z" fill="#04171F"/>
<path d="M72.3098 38.126C74.4378 38.126 75.8868 36.873 75.8868 35.053C75.8868 33.772 75.0398 33.03 73.9758 32.708C74.7598 32.372 75.3408 31.728 75.3408 30.748C75.3408 29.208 74.1018 28.116 72.3518 28.116C70.4898 28.116 69.1598 29.306 69.1598 30.972L70.6928 31.07C70.7068 30.195 71.2948 29.607 72.2958 29.607C73.1988 29.607 73.7798 30.111 73.7798 30.902C73.7798 31.924 72.8978 32.288 71.7988 32.274V33.499C73.3248 33.499 74.3398 33.884 74.3398 35.039C74.3398 36.026 73.5908 36.628 72.3658 36.628C71.0918 36.628 70.2728 35.942 70.2728 34.857L68.7258 34.948C68.7258 36.852 70.1538 38.126 72.3098 38.126ZM80.2348 38.126C83.0768 38.126 83.5458 35.319 83.5458 33.086C83.5458 30.93 83.1048 28.102 80.2138 28.102C77.2668 28.102 76.8958 31.014 76.8958 33.072C76.8958 35.214 77.2948 38.126 80.2348 38.126ZM78.4918 33.128C78.4918 31.21 78.7858 29.593 80.2138 29.593C81.5928 29.593 81.9568 31.126 81.9568 33.135C81.9568 35.06 81.6068 36.628 80.2348 36.628C78.7858 36.628 78.4918 34.969 78.4918 33.128ZM84.9608 38H86.6688V36.229H84.9608V38ZM91.432 38.126C94.274 38.126 94.743 35.319 94.743 33.086C94.743 30.93 94.302 28.102 91.411 28.102C88.464 28.102 88.093 31.014 88.093 33.072C88.093 35.214 88.492 38.126 91.432 38.126ZM89.689 33.128C89.689 31.21 89.983 29.593 91.411 29.593C92.79 29.593 93.154 31.126 93.154 33.135C93.154 35.06 92.804 36.628 91.432 36.628C89.983 36.628 89.689 34.969 89.689 33.128ZM99.266 38.126C102.108 38.126 102.577 35.319 102.577 33.086C102.577 30.93 102.136 28.102 99.245 28.102C96.298 28.102 95.927 31.014 95.927 33.072C95.927 35.214 96.326 38.126 99.266 38.126ZM97.523 33.128C97.523 31.21 97.817 29.593 99.245 29.593C100.624 29.593 100.988 31.126 100.988 33.135C100.988 35.06 100.638 36.628 99.266 36.628C97.817 36.628 97.523 34.969 97.523 33.128ZM107.1 38.126C109.942 38.126 110.411 35.319 110.411 33.086C110.411 30.93 109.97 28.102 107.079 28.102C104.132 28.102 103.761 31.014 103.761 33.072C103.761 35.214 104.16 38.126 107.1 38.126ZM105.357 33.128C105.357 31.21 105.651 29.593 107.079 29.593C108.458 29.593 108.822 31.126 108.822 33.135C108.822 35.06 108.472 36.628 107.1 36.628C105.651 36.628 105.357 34.969 105.357 33.128Z" fill="#04171F"/>
<path d="M163.903 657L290.179 359.042C291.354 356.269 295.466 356.979 295.644 359.986L305.68 529.398C305.995 534.723 311.407 538.196 316.377 536.263C326.201 532.44 333.704 524.283 336.695 514.171L364.904 418.809C370.428 400.134 379.154 382.561 390.692 366.875L420.258 326.681C425.625 319.384 434.142 315.075 443.199 315.075H468.072C484.138 315.075 499.732 309.64 512.32 299.653L524.471 290.012C530.664 285.098 538.621 282.98 546.437 284.165L560.633 286.317C574.027 288.347 587.723 286.35 599.981 280.579L620.967 270.7C625.573 268.531 631.041 270.848 632.69 275.666L673.938 396.199C680.421 415.145 689.681 433.024 701.415 449.249L720.512 475.658C734.349 494.793 751.994 513.76 754.112 537.282L764.894 657H163.903Z" fill="#CAD0D3"/>
<path d="M163.443 656.805L163.148 657.5H163.903H764.894H765.441L765.392 656.955L754.61 537.237C753.541 525.364 748.555 514.663 742.129 504.557C737.913 497.927 733.052 491.518 728.259 485.198C725.76 481.903 723.279 478.631 720.917 475.366L701.82 448.956C690.116 432.771 680.878 414.936 674.411 396.037L633.163 275.504C631.418 270.404 625.63 267.952 620.754 270.247L599.768 280.127C587.6 285.855 574.004 287.838 560.708 285.822L546.512 283.67C538.558 282.465 530.462 284.62 524.16 289.621L512.009 299.261C499.51 309.178 484.025 314.575 468.072 314.575H443.199C433.983 314.575 425.317 318.96 419.855 326.385L390.29 366.579C378.717 382.312 369.965 399.937 364.424 418.667L336.216 514.029C333.268 523.993 325.876 532.03 316.195 535.797C311.542 537.607 306.474 534.356 306.179 529.369L296.143 359.956C295.934 356.422 291.1 355.587 289.718 358.847L163.443 656.805Z" stroke="#04171F"/>
<path d="M387.654 485.372L247.929 601.437H858.888V520.23H824.973C815.771 520.23 807.035 516.184 801.082 509.165L776.668 480.38C773.409 476.538 767.551 476.335 764.034 479.943L724.622 520.381C720.207 524.911 712.573 523.24 710.453 517.279L668.592 399.57C664.594 388.331 656.353 379.106 645.635 373.876L621.107 361.907C609.828 356.403 597.443 353.542 584.893 353.542H577.711C565.218 353.542 553.11 349.218 543.442 341.304L520.662 322.659C516.122 318.944 509.275 320.804 507.238 326.306L454.43 468.941H433.143C416.528 468.941 400.436 474.754 387.654 485.372Z" fill="#98A2A7"/>
<path d="M247.609 601.053L246.544 601.937H247.929H858.888H859.388V601.437V520.23V519.73H858.888H824.973C815.918 519.73 807.322 515.749 801.464 508.842L777.049 480.057C773.599 475.989 767.398 475.775 763.676 479.594L724.264 520.032C720.107 524.297 712.92 522.724 710.924 517.112L669.063 399.402C665.022 388.04 656.69 378.714 645.855 373.427L621.327 361.457C609.979 355.92 597.519 353.042 584.893 353.042H577.711C565.334 353.042 553.338 348.758 543.758 340.917L520.979 322.272C516.173 318.339 508.926 320.308 506.769 326.133L454.082 468.441H433.143C416.411 468.441 400.206 474.295 387.334 484.987L247.609 601.053Z" stroke="#04171F"/>
<path d="M326.575 556.603L262.171 615.866L259.322 657H1039.76V631.566C1039.76 611.917 1035.92 592.456 1028.47 574.275L969.349 430.031C966.28 422.543 958.992 417.652 950.901 417.652H915.94C905.547 417.652 895.262 419.76 885.706 423.847L876.773 427.668C864.352 432.981 854.366 442.75 848.778 455.054L811.028 538.18C805.483 550.39 793.315 558.229 779.909 558.229H637.571C631.325 558.229 625.097 557.572 618.989 556.269C590.065 550.095 560.573 546.983 530.998 546.983H522.79L418.827 538.549H372.853C355.71 538.549 339.192 544.992 326.575 556.603Z" fill="#65747B"/>
<path d="M261.832 615.498L261.686 615.633L261.672 615.831L258.823 656.965L258.786 657.5H259.322H1039.76H1040.26V657V631.566C1040.26 611.852 1036.41 592.326 1028.93 574.085L969.812 429.842C966.666 422.166 959.195 417.152 950.901 417.152H915.94C905.48 417.152 895.127 419.273 885.509 423.388L876.577 427.208C864.04 432.571 853.962 442.429 848.323 454.847L810.573 537.973C805.109 550.004 793.119 557.729 779.909 557.729H637.571C631.36 557.729 625.167 557.076 619.093 555.78C590.135 549.599 560.608 546.483 530.998 546.483H522.81L418.867 538.05L418.847 538.049H418.827H372.853C355.585 538.049 338.946 544.54 326.237 556.235L261.832 615.498Z" stroke="#04171F"/>
<path d="M288.228 591.318L218 658H990L912.945 642.128L853.011 626.255L791.848 615.728C787.918 615.051 784.054 614.026 780.3 612.663L750.814 601.96C737.457 597.112 722.958 596.586 709.297 600.453C699.61 603.196 689.477 603.896 679.516 602.511L580.455 588.738H540.609C533.265 588.738 527.125 583.043 526.429 575.587L476.172 36.6302C475.846 33.1346 470.85 33.1182 470.502 36.6115L417.395 569.588C416.802 575.54 411.875 580.06 406.009 580.034L317.534 579.635C306.664 579.586 296.184 583.764 288.228 591.318Z" fill="#34464E"/>
<path d="M985.094 657.5H219.253L288.572 591.681C296.435 584.214 306.792 580.086 317.532 580.135L406.006 580.534C412.138 580.561 417.275 575.838 417.893 569.637L470.999 36.6611C471.287 33.7711 475.404 33.7831 475.674 36.6766L525.932 575.633C526.65 583.339 532.999 589.238 540.609 589.238H580.42L679.447 603.007C689.477 604.401 699.68 603.696 709.433 600.935C722.993 597.095 737.385 597.617 750.644 602.43L780.129 613.133C783.911 614.506 787.804 615.539 791.763 616.22L852.904 626.744L912.817 642.611L912.83 642.614L912.844 642.617L985.094 657.5Z" stroke="#04171F"/>
<path d="M159.796 524.331L120 658H1040L820.341 652.282H759.212C753.378 652.282 747.552 651.855 741.78 651.004L609.669 631.532C606.543 631.072 603.489 630.213 600.581 628.976L578.307 619.505C565.2 613.932 550.458 613.619 537.127 618.629C528.221 621.976 518.787 623.691 509.275 623.691H350.874C348.163 623.691 345.464 623.339 342.844 622.644L322.599 617.273C307.595 613.292 295.918 601.481 292.084 586.407L245.517 403.309C244.35 398.72 238.442 397.46 235.512 401.176L200.922 445.041C182.327 468.622 168.371 495.529 159.796 524.331Z" fill="url(#paint0_linear)"/>
<path d="M1001.58 657.5H120.671L160.275 524.474C168.832 495.732 182.759 468.882 201.314 445.351L235.905 401.485C238.577 398.096 243.967 399.244 245.032 403.432L291.6 586.53C295.478 601.779 307.291 613.729 322.471 617.756L342.716 623.127C345.378 623.833 348.12 624.191 350.874 624.191H509.275C518.847 624.191 528.34 622.465 537.302 619.097C550.513 614.132 565.123 614.443 578.112 619.965L600.385 629.436C603.333 630.689 606.428 631.56 609.596 632.027L741.707 651.499C747.503 652.353 753.354 652.782 759.212 652.782H820.335H820.341L1001.58 657.5Z" stroke="#04171F"/>
<rect width="2.00468" height="2" transform="matrix(1 0 0 -1 185 658)" fill="white"/>
<rect width="2.00468" height="2" transform="matrix(1 0 0 -1 251 658)" fill="white"/>
<rect width="2.00468" height="2" transform="matrix(1 0 0 -1 317 658)" fill="white"/>
<rect width="2.00468" height="2" transform="matrix(1 0 0 -1 383 658)" fill="white"/>
<rect width="2.00468" height="2" transform="matrix(1 0 0 -1 449 658)" fill="white"/>
<rect width="2.00468" height="2" transform="matrix(1 0 0 -1 515 658)" fill="white"/>
<rect width="2.00468" height="2" transform="matrix(1 0 0 -1 581 658)" fill="white"/>
<rect width="2.00468" height="2" transform="matrix(1 0 0 -1 647 658)" fill="white"/>
<rect width="2.00468" height="2" transform="matrix(1 0 0 -1 713 658)" fill="white"/>
<rect width="2.00468" height="2" transform="matrix(1 0 0 -1 779 658)" fill="white"/>
<rect width="2.00468" height="2" transform="matrix(1 0 0 -1 845 658)" fill="white"/>
<rect width="2.00468" height="2" transform="matrix(1 0 0 -1 911 658)" fill="white"/>
<rect width="2.00468" height="2" transform="matrix(1 0 0 -1 977 658)" fill="white"/>
<rect x="720.5" y="59.5" width="214" height="194" fill="white" stroke="#04171F"/>
<path d="M737.838 87H739.91V75.848H737.838V87ZM747.957 87.16C748.293 87.16 748.757 87.088 749.197 86.912V85.224C748.989 85.288 748.797 85.32 748.629 85.32C748.293 85.32 748.053 85.152 748.053 84.712V75.848H746.077V85.104C746.077 86.536 746.877 87.16 747.957 87.16ZM753.416 87.16C754.352 87.16 755.176 86.824 755.704 86.008V87H757.688V79.112H755.704V82.248C755.704 84.176 755.408 85.424 754.008 85.424C752.84 85.424 752.528 84.64 752.528 83.544V79.112H750.536V84.04C750.536 85.944 751.472 87.16 753.416 87.16ZM763.264 87.16C765.544 87.16 767.224 85.416 767.224 83.048C767.224 80.672 765.56 78.952 763.264 78.952C760.952 78.952 759.296 80.672 759.296 83.048C759.296 85.432 760.976 87.16 763.264 87.16ZM761.28 83.048C761.28 81.576 762.016 80.696 763.264 80.696C764.504 80.696 765.232 81.568 765.232 83.048C765.232 84.52 764.504 85.408 763.264 85.408C762.024 85.408 761.28 84.52 761.28 83.048ZM772.124 90.424C774.42 90.424 775.74 89.576 775.74 88.032C775.74 86.376 774.26 86.088 772.236 85.8C770.684 85.584 770.26 85.464 770.26 84.96C770.26 84.776 770.332 84.632 770.46 84.512C770.9 84.688 771.42 84.792 771.988 84.792C773.884 84.792 775.18 83.672 775.18 81.968C775.18 81.456 775.068 81 774.86 80.608L776.052 79.624L775.044 78.392L773.74 79.432C773.212 79.12 772.58 78.952 771.924 78.952C770.156 78.952 768.676 80.128 768.676 81.896C768.676 82.624 768.924 83.264 769.372 83.76C768.884 84.128 768.564 84.624 768.564 85.264C768.564 86.024 768.892 86.512 769.42 86.832L768.316 87.576C768.268 87.784 768.26 87.912 768.26 88.008C768.26 89.544 769.564 90.424 772.124 90.424ZM770.188 87.904L770.668 87.296C770.972 87.36 771.3 87.416 771.636 87.456C773.068 87.648 773.772 87.744 773.772 88.264C773.772 88.736 773.1 88.952 772.156 88.952C771.084 88.952 770.276 88.664 770.196 88.064C770.188 88.024 770.18 87.992 770.188 87.904ZM770.66 81.88C770.66 81.128 771.156 80.592 771.948 80.592C772.724 80.592 773.204 81.112 773.204 81.888C773.204 82.616 772.788 83.224 771.948 83.224C771.084 83.224 770.66 82.616 770.66 81.88ZM777.179 87H779.179V83.216C779.179 81.464 779.747 80.68 780.891 80.68C781.883 80.68 782.347 81.272 782.347 82.584V87H784.339V81.848C784.339 80.016 783.275 78.952 781.483 78.952C780.603 78.952 779.707 79.272 779.179 80.128V75.848H777.179V87ZM786.194 87H788.186V79.112H786.194V87ZM786.138 77.888H788.25V75.848H786.138V77.888ZM797.329 87.16C798.193 87.16 799.033 86.864 799.585 85.96V87H801.561V75.848H799.585V80.16C799.081 79.336 798.241 78.952 797.329 78.952C795.465 78.952 793.961 80.472 793.961 83.048C793.961 85.4 795.241 87.16 797.329 87.16ZM795.953 83.048C795.953 81.664 796.705 80.776 797.865 80.776C799.025 80.776 799.761 81.672 799.761 83.048C799.761 84.432 799.025 85.336 797.865 85.336C796.705 85.336 795.953 84.44 795.953 83.048ZM807.075 87.16C808.427 87.16 809.475 86.672 810.323 85.736L808.947 84.52C808.435 85.112 807.811 85.36 807.091 85.36C805.891 85.36 805.251 84.712 805.171 83.72H810.555C810.587 83.432 810.603 83.152 810.603 82.984C810.603 80.752 809.395 78.952 806.947 78.952C804.299 78.952 803.187 81.048 803.187 83.104C803.187 85.2 804.331 87.16 807.075 87.16ZM805.147 82.256C805.243 81.432 805.787 80.608 806.987 80.608C808.027 80.608 808.707 81.328 808.707 82.224V82.256H805.147ZM814.05 87.16C814.386 87.16 814.85 87.088 815.29 86.912V85.224C815.082 85.288 814.89 85.32 814.722 85.32C814.386 85.32 814.146 85.152 814.146 84.712V75.848H812.17V85.104C812.17 86.536 812.97 87.16 814.05 87.16ZM818.566 87.16C818.902 87.16 819.366 87.088 819.806 86.912V85.224C819.598 85.288 819.406 85.32 819.238 85.32C818.902 85.32 818.662 85.152 818.662 84.712V75.848H816.686V85.104C816.686 86.536 817.486 87.16 818.566 87.16ZM820.45 80.304H821.762L823.778 75.848H821.474L820.45 80.304ZM828.747 87.16C830.099 87.16 831.147 86.672 831.995 85.736L830.619 84.52C830.107 85.112 829.483 85.36 828.763 85.36C827.563 85.36 826.923 84.712 826.843 83.72H832.227C832.259 83.432 832.275 83.152 832.275 82.984C832.275 80.752 831.067 78.952 828.619 78.952C825.971 78.952 824.859 81.048 824.859 83.104C824.859 85.2 826.003 87.16 828.747 87.16ZM826.819 82.256C826.915 81.432 827.459 80.608 828.659 80.608C829.699 80.608 830.379 81.328 830.379 82.224V82.256H826.819ZM836.618 87.16C838.554 87.16 839.842 86.096 839.842 84.512C839.842 82.664 838.162 82.264 836.89 81.952C835.866 81.704 835.482 81.528 835.482 81.12C835.482 80.712 835.93 80.456 836.53 80.456C837.218 80.456 837.858 80.792 838.242 81.36L839.53 80.408C838.93 79.464 837.858 78.952 836.586 78.952C834.818 78.952 833.626 79.896 833.626 81.304C833.626 82.92 835.074 83.384 836.322 83.72C837.178 83.952 837.89 84.144 837.89 84.728C837.89 85.2 837.418 85.552 836.634 85.552C835.634 85.552 834.978 84.944 834.594 84.352L833.242 85.536C833.786 86.248 834.858 87.16 836.618 87.16ZM845.029 87.16C847.309 87.16 848.989 85.416 848.989 83.048C848.989 80.672 847.325 78.952 845.029 78.952C842.717 78.952 841.061 80.672 841.061 83.048C841.061 85.432 842.741 87.16 845.029 87.16ZM843.045 83.048C843.045 81.576 843.781 80.696 845.029 80.696C846.269 80.696 846.997 81.568 846.997 83.048C846.997 84.52 846.269 85.408 845.029 85.408C843.789 85.408 843.045 84.52 843.045 83.048ZM853.625 87.16C854.489 87.16 855.329 86.864 855.881 85.96V87H857.857V75.848H855.881V80.16C855.377 79.336 854.537 78.952 853.625 78.952C851.761 78.952 850.257 80.472 850.257 83.048C850.257 85.4 851.537 87.16 853.625 87.16ZM852.249 83.048C852.249 81.664 853.001 80.776 854.161 80.776C855.321 80.776 856.057 81.672 856.057 83.048C856.057 84.432 855.321 85.336 854.161 85.336C853.001 85.336 852.249 84.44 852.249 83.048ZM863.42 87.16C865.7 87.16 867.38 85.416 867.38 83.048C867.38 80.672 865.716 78.952 863.42 78.952C861.108 78.952 859.452 80.672 859.452 83.048C859.452 85.432 861.132 87.16 863.42 87.16ZM861.436 83.048C861.436 81.576 862.172 80.696 863.42 80.696C864.66 80.696 865.388 81.568 865.388 83.048C865.388 84.52 864.66 85.408 863.42 85.408C862.18 85.408 861.436 84.52 861.436 83.048Z" fill="black"/>
<path d="M754.427 114H761.812V112.726H756.177L761.644 105.432V104.242H754.763V105.516H759.88L754.427 112.803V114ZM767.711 114H768.971V109.66C768.971 107.966 767.907 106.979 766.073 106.979C764.89 106.979 763.826 107.378 763.049 108.281L764.036 109.114C764.652 108.414 765.268 108.162 765.975 108.162C767.046 108.162 767.613 108.715 767.613 109.66V109.884H765.527C764.855 109.884 764.232 109.996 763.756 110.29C763.245 110.605 762.902 111.144 762.902 111.914C762.902 113.244 763.938 114.119 765.499 114.119C766.395 114.119 767.165 113.783 767.641 113.069L767.711 114ZM764.274 111.928C764.274 111.592 764.4 111.34 764.631 111.172C764.925 110.969 765.345 110.913 765.723 110.913H767.613V111.116C767.613 112.208 766.717 113.006 765.653 113.006C764.806 113.006 764.274 112.586 764.274 111.928ZM770.791 114H772.17V110.857C772.17 110.08 772.212 109.772 772.296 109.478C772.562 108.666 773.213 108.337 773.85 108.337C774.137 108.337 774.48 108.428 774.697 108.547L775.369 107.315C774.949 107.07 774.564 106.979 774.165 106.979C773.444 106.979 772.625 107.385 772.17 108.071V107.098H770.791V114ZM780.904 114H782.164V109.66C782.164 107.966 781.1 106.979 779.266 106.979C778.083 106.979 777.019 107.378 776.242 108.281L777.229 109.114C777.845 108.414 778.461 108.162 779.168 108.162C780.239 108.162 780.806 108.715 780.806 109.66V109.884H778.72C778.048 109.884 777.425 109.996 776.949 110.29C776.438 110.605 776.095 111.144 776.095 111.914C776.095 113.244 777.131 114.119 778.692 114.119C779.588 114.119 780.358 113.783 780.834 113.069L780.904 114ZM777.467 111.928C777.467 111.592 777.593 111.34 777.824 111.172C778.118 110.969 778.538 110.913 778.916 110.913H780.806V111.116C780.806 112.208 779.91 113.006 778.846 113.006C777.999 113.006 777.467 112.586 777.467 111.928Z" fill="black"/>
<path d="M736 103C736.788 103 737.568 103.155 738.296 103.457C739.024 103.758 739.685 104.2 740.243 104.757C740.8 105.315 741.242 105.976 741.543 106.704C741.845 107.432 742 108.212 742 109C742 109.788 741.845 110.568 741.543 111.296C741.242 112.024 740.8 112.685 740.243 113.243C739.685 113.8 739.024 114.242 738.296 114.543C737.568 114.845 736.788 115 736 115L736 103Z" fill="#04171F"/>
<path d="M755.049 144H756.463V139.856H758.066C760.18 139.856 761.342 138.855 761.342 137.021C761.342 135.194 760.194 134.242 758.066 134.242H755.049V144ZM756.463 138.589V135.516H757.919C759.221 135.516 759.914 135.985 759.914 137.042C759.914 138.127 759.172 138.589 757.919 138.589H756.463ZM765.407 144.119C767.36 144.119 768.788 142.614 768.788 140.542C768.788 138.47 767.374 136.979 765.407 136.979C763.412 136.979 762.005 138.47 762.005 140.542C762.005 142.628 763.44 144.119 765.407 144.119ZM763.37 140.542C763.37 139.093 764.154 138.176 765.407 138.176C766.646 138.176 767.416 139.086 767.416 140.542C767.416 141.991 766.646 142.908 765.407 142.908C764.154 142.908 763.37 141.991 763.37 140.542ZM771.836 144.119C772.123 144.119 772.508 144.056 772.851 143.916V142.754C772.641 142.817 772.445 142.859 772.284 142.859C771.934 142.859 771.71 142.656 771.71 142.166V134.242H770.345V142.432C770.345 143.601 770.961 144.119 771.836 144.119ZM778.716 144H779.976V139.66C779.976 137.966 778.912 136.979 777.078 136.979C775.895 136.979 774.831 137.378 774.054 138.281L775.041 139.114C775.657 138.414 776.273 138.162 776.98 138.162C778.051 138.162 778.618 138.715 778.618 139.66V139.884H776.532C775.86 139.884 775.237 139.996 774.761 140.29C774.25 140.605 773.907 141.144 773.907 141.914C773.907 143.244 774.943 144.119 776.504 144.119C777.4 144.119 778.17 143.783 778.646 143.069L778.716 144ZM775.279 141.928C775.279 141.592 775.405 141.34 775.636 141.172C775.93 140.969 776.35 140.913 776.728 140.913H778.618V141.116C778.618 142.208 777.722 143.006 776.658 143.006C775.811 143.006 775.279 142.586 775.279 141.928Z" fill="black"/>
<path d="M736 133C736.788 133 737.568 133.155 738.296 133.457C739.024 133.758 739.685 134.2 740.243 134.757C740.8 135.315 741.242 135.976 741.543 136.704C741.845 137.432 742 138.212 742 139C742 139.788 741.845 140.568 741.543 141.296C741.242 142.024 740.8 142.685 740.243 143.243C739.685 143.8 739.024 144.242 738.296 144.543C737.568 144.845 736.788 145 736 145L736 133Z" fill="#34464E"/>
<path d="M754.427 174H761.812V172.726H756.177L761.644 165.432V164.242H754.763V165.516H759.88L754.427 172.803V174ZM766.091 174.119C768.044 174.119 769.472 172.614 769.472 170.542C769.472 168.47 768.058 166.979 766.091 166.979C764.096 166.979 762.689 168.47 762.689 170.542C762.689 172.628 764.124 174.119 766.091 174.119ZM764.054 170.542C764.054 169.093 764.838 168.176 766.091 168.176C767.33 168.176 768.1 169.086 768.1 170.542C768.1 171.991 767.33 172.908 766.091 172.908C764.838 172.908 764.054 171.991 764.054 170.542ZM771.064 174H772.436V170.598C772.436 168.911 773.031 168.162 774.13 168.162C775.11 168.162 775.593 168.764 775.593 170.08V174H776.965V169.576C776.965 167.882 776.048 166.979 774.522 166.979C773.668 166.979 772.898 167.294 772.436 167.994V167.098H771.064V174ZM783.297 174H784.557V169.66C784.557 167.966 783.493 166.979 781.659 166.979C780.476 166.979 779.412 167.378 778.635 168.281L779.622 169.114C780.238 168.414 780.854 168.162 781.561 168.162C782.632 168.162 783.199 168.715 783.199 169.66V169.884H781.113C780.441 169.884 779.818 169.996 779.342 170.29C778.831 170.605 778.488 171.144 778.488 171.914C778.488 173.244 779.524 174.119 781.085 174.119C781.981 174.119 782.751 173.783 783.227 173.069L783.297 174ZM779.86 171.928C779.86 171.592 779.986 171.34 780.217 171.172C780.511 170.969 780.931 170.913 781.309 170.913H783.199V171.116C783.199 172.208 782.303 173.006 781.239 173.006C780.392 173.006 779.86 172.586 779.86 171.928ZM790.118 174H793.716C795.718 174 796.866 172.971 796.866 171.207C796.866 169.954 796.292 169.107 795.186 168.764C795.928 168.386 796.362 167.63 796.362 166.685C796.362 165.159 795.221 164.242 793.345 164.242H790.118V174ZM791.546 172.691V169.597H793.828C794.85 169.597 795.452 170.164 795.452 171.144C795.452 172.173 794.836 172.691 793.611 172.691H791.546ZM791.546 168.316V165.551H793.345C794.36 165.551 794.948 166.048 794.948 166.902C794.948 167.784 794.374 168.316 793.499 168.316H791.546Z" fill="black"/>
<path d="M736 163C737.591 163 739.117 163.632 740.243 164.757C741.368 165.883 742 167.409 742 169C742 170.591 741.368 172.117 740.243 173.243C739.117 174.368 737.591 175 736 175L736 163Z" fill="#65747B"/>
<path d="M755.05 204H756.478V199.828H757.409H758.046L760.454 204H762.099L759.502 199.639C760.706 199.261 761.343 198.365 761.343 197.014C761.343 195.299 760.342 194.242 758.067 194.242H755.05V204ZM756.478 198.568V195.516H757.92C759.054 195.516 759.915 195.88 759.915 197.028C759.915 198.176 759.082 198.568 757.92 198.568H756.478ZM766.076 204.119C767.231 204.119 768.085 203.734 768.848 202.922L767.896 202.082C767.392 202.635 766.832 202.88 766.09 202.88C764.9 202.88 764.214 202.166 764.151 200.983H769.037C769.065 200.766 769.079 200.458 769.079 200.353C769.079 198.582 768.099 196.979 765.964 196.979C763.801 196.979 762.786 198.715 762.786 200.598C762.786 202.488 763.829 204.119 766.076 204.119ZM764.137 199.968C764.221 198.981 764.837 198.12 765.999 198.12C767.161 198.12 767.77 198.974 767.77 199.842L767.763 199.968H764.137ZM772.985 204.119C774.602 204.119 775.673 203.244 775.673 201.914C775.673 200.339 774.259 200.003 773.111 199.73C772.166 199.506 771.718 199.303 771.718 198.82C771.718 198.33 772.215 198.05 772.859 198.05C773.531 198.05 774.105 198.365 774.441 198.904L775.414 198.267C774.903 197.427 773.993 196.979 772.901 196.979C771.445 196.979 770.451 197.763 770.451 198.953C770.451 200.241 771.585 200.647 772.719 200.941C773.587 201.172 774.329 201.368 774.329 202.061C774.329 202.628 773.818 202.992 772.999 202.992C772.061 202.992 771.389 202.474 771.039 201.83L770.094 202.642C770.563 203.377 771.529 204.119 772.985 204.119ZM779.834 204.119C780.191 204.119 780.576 204.063 780.94 203.93V202.866C780.653 202.95 780.38 202.992 780.198 202.992C779.575 202.992 779.372 202.565 779.372 201.781V198.162H780.94V197.098H779.372V194.564L777.986 195.334V197.098H776.614V198.162H777.986V202.152C777.986 203.566 778.805 204.119 779.834 204.119ZM785.341 204.119C787.294 204.119 788.722 202.614 788.722 200.542C788.722 198.47 787.308 196.979 785.341 196.979C783.346 196.979 781.939 198.47 781.939 200.542C781.939 202.628 783.374 204.119 785.341 204.119ZM783.304 200.542C783.304 199.093 784.088 198.176 785.341 198.176C786.58 198.176 787.35 199.086 787.35 200.542C787.35 201.991 786.58 202.908 785.341 202.908C784.088 202.908 783.304 201.991 783.304 200.542ZM796.709 204.119C797.619 204.119 798.368 203.776 798.844 203.048V204H800.202V194.242H798.844V198.078C798.396 197.378 797.633 196.979 796.709 196.979C795.008 196.979 793.636 198.344 793.636 200.542C793.636 202.579 794.854 204.119 796.709 204.119ZM795.015 200.542C795.015 199.17 795.82 198.225 796.996 198.225C798.165 198.225 798.963 199.17 798.963 200.542C798.963 201.914 798.165 202.859 796.996 202.859C795.82 202.859 795.015 201.921 795.015 200.542ZM805.095 204.119C806.25 204.119 807.104 203.734 807.867 202.922L806.915 202.082C806.411 202.635 805.851 202.88 805.109 202.88C803.919 202.88 803.233 202.166 803.17 200.983H808.056C808.084 200.766 808.098 200.458 808.098 200.353C808.098 198.582 807.118 196.979 804.983 196.979C802.82 196.979 801.805 198.715 801.805 200.598C801.805 202.488 802.848 204.119 805.095 204.119ZM803.156 199.968C803.24 198.981 803.856 198.12 805.018 198.12C806.18 198.12 806.789 198.974 806.789 199.842L806.782 199.968H803.156ZM811.144 204.119C811.431 204.119 811.816 204.056 812.159 203.916V202.754C811.949 202.817 811.753 202.859 811.592 202.859C811.242 202.859 811.018 202.656 811.018 202.166V194.242H809.653V202.432C809.653 203.601 810.269 204.119 811.144 204.119ZM814.985 204.119C815.272 204.119 815.657 204.056 816 203.916V202.754C815.79 202.817 815.594 202.859 815.433 202.859C815.083 202.859 814.859 202.656 814.859 202.166V194.242H813.494V202.432C813.494 203.601 814.11 204.119 814.985 204.119ZM816.568 198.176H817.478L819.291 194.242H817.702L816.568 198.176ZM820.812 204H822.24V194.242H820.812V204ZM826.565 204.119C828.182 204.119 829.253 203.244 829.253 201.914C829.253 200.339 827.839 200.003 826.691 199.73C825.746 199.506 825.298 199.303 825.298 198.82C825.298 198.33 825.795 198.05 826.439 198.05C827.111 198.05 827.685 198.365 828.021 198.904L828.994 198.267C828.483 197.427 827.573 196.979 826.481 196.979C825.025 196.979 824.031 197.763 824.031 198.953C824.031 200.241 825.165 200.647 826.299 200.941C827.167 201.172 827.909 201.368 827.909 202.061C827.909 202.628 827.398 202.992 826.579 202.992C825.641 202.992 824.969 202.474 824.619 201.83L823.674 202.642C824.143 203.377 825.109 204.119 826.565 204.119ZM833.414 204.119C833.771 204.119 834.156 204.063 834.52 203.93V202.866C834.233 202.95 833.96 202.992 833.778 202.992C833.155 202.992 832.952 202.565 832.952 201.781V198.162H834.52V197.098H832.952V194.564L831.566 195.334V197.098H830.194V198.162H831.566V202.152C831.566 203.566 832.385 204.119 833.414 204.119ZM835.978 204H837.357V200.857C837.357 200.08 837.399 199.772 837.483 199.478C837.749 198.666 838.4 198.337 839.037 198.337C839.324 198.337 839.667 198.428 839.884 198.547L840.556 197.315C840.136 197.07 839.751 196.979 839.352 196.979C838.631 196.979 837.812 197.385 837.357 198.071V197.098H835.978V204ZM841.748 204H843.113V197.098H841.748V204ZM841.65 195.908H843.204V194.242H841.65V195.908ZM849.51 204H850.77V199.66C850.77 197.966 849.706 196.979 847.872 196.979C846.689 196.979 845.625 197.378 844.848 198.281L845.835 199.114C846.451 198.414 847.067 198.162 847.774 198.162C848.845 198.162 849.412 198.715 849.412 199.66V199.884H847.326C846.654 199.884 846.031 199.996 845.555 200.29C845.044 200.605 844.701 201.144 844.701 201.914C844.701 203.244 845.737 204.119 847.298 204.119C848.194 204.119 848.964 203.783 849.44 203.069L849.51 204ZM846.073 201.928C846.073 201.592 846.199 201.34 846.43 201.172C846.724 200.969 847.144 200.913 847.522 200.913H849.412V201.116C849.412 202.208 848.516 203.006 847.452 203.006C846.605 203.006 846.073 202.586 846.073 201.928Z" fill="black"/>
<path d="M736 193C736.788 193 737.568 193.155 738.296 193.457C739.024 193.758 739.685 194.2 740.243 194.757C740.8 195.315 741.242 195.976 741.543 196.704C741.845 197.432 742 198.212 742 199C742 199.788 741.845 200.568 741.543 201.296C741.242 202.024 740.8 202.685 740.243 203.243C739.685 203.8 739.024 204.242 738.296 204.543C737.568 204.845 736.788 205 736 205L736 193Z" fill="#98A2A7"/>
<path d="M755.049 234H756.477V229.653H760.824V228.372H756.477V225.516H761.489V224.242H755.049V234ZM762.819 234H764.184V227.098H762.819V234ZM762.721 225.908H764.275V224.242H762.721V225.908ZM768.446 234.119C769.314 234.119 770.063 233.79 770.532 233.104V234H771.897V227.098H770.532V230.297C770.532 232.04 770.014 232.922 768.845 232.922C767.809 232.922 767.368 232.264 767.368 231.025V227.098H766.003V231.445C766.003 233.16 766.878 234.119 768.446 234.119ZM773.825 234H775.197V230.36C775.197 228.911 775.75 228.162 776.73 228.162C777.584 228.162 778.06 228.764 778.06 229.996V234H779.432V230.36C779.432 228.897 779.971 228.162 780.93 228.162C781.889 228.162 782.288 228.869 782.288 230.08V234H783.653V229.751C783.653 228.281 782.967 226.979 781.238 226.979C780.37 226.979 779.642 227.322 779.152 228.106C778.739 227.322 778.025 226.979 777.157 226.979C776.436 226.979 775.652 227.252 775.197 228.078V227.098H773.825V234ZM788.469 234.119C789.624 234.119 790.478 233.734 791.241 232.922L790.289 232.082C789.785 232.635 789.225 232.88 788.483 232.88C787.293 232.88 786.607 232.166 786.544 230.983H791.43C791.458 230.766 791.472 230.458 791.472 230.353C791.472 228.582 790.492 226.979 788.357 226.979C786.194 226.979 785.179 228.715 785.179 230.598C785.179 232.488 786.222 234.119 788.469 234.119ZM786.53 229.968C786.614 228.981 787.23 228.12 788.392 228.12C789.554 228.12 790.163 228.974 790.163 229.842L790.156 229.968H786.53ZM799.68 234.119C800.835 234.119 801.689 233.734 802.452 232.922L801.5 232.082C800.996 232.635 800.436 232.88 799.694 232.88C798.504 232.88 797.818 232.166 797.755 230.983H802.641C802.669 230.766 802.683 230.458 802.683 230.353C802.683 228.582 801.703 226.979 799.568 226.979C797.405 226.979 796.39 228.715 796.39 230.598C796.39 232.488 797.433 234.119 799.68 234.119ZM797.741 229.968C797.825 228.981 798.441 228.12 799.603 228.12C800.765 228.12 801.374 228.974 801.374 229.842L801.367 229.968H797.741ZM807.454 234H812.97V232.838H809.225L812.991 228.106V227.098H807.636V228.246H811.346L807.454 233.055V234ZM817.456 234.119C819.409 234.119 820.837 232.614 820.837 230.542C820.837 228.47 819.423 226.979 817.456 226.979C815.461 226.979 814.054 228.47 814.054 230.542C814.054 232.628 815.489 234.119 817.456 234.119ZM815.419 230.542C815.419 229.093 816.203 228.176 817.456 228.176C818.695 228.176 819.465 229.086 819.465 230.542C819.465 231.991 818.695 232.908 817.456 232.908C816.203 232.908 815.419 231.991 815.419 230.542ZM822.429 234H823.801V230.598C823.801 228.911 824.396 228.162 825.495 228.162C826.475 228.162 826.958 228.764 826.958 230.08V234H828.33V229.576C828.33 227.882 827.413 226.979 825.887 226.979C825.033 226.979 824.263 227.294 823.801 227.994V227.098H822.429V234ZM833.149 234.119C834.304 234.119 835.158 233.734 835.921 232.922L834.969 232.082C834.465 232.635 833.905 232.88 833.163 232.88C831.973 232.88 831.287 232.166 831.224 230.983H836.11C836.138 230.766 836.152 230.458 836.152 230.353C836.152 228.582 835.172 226.979 833.037 226.979C830.874 226.979 829.859 228.715 829.859 230.598C829.859 232.488 830.902 234.119 833.149 234.119ZM831.21 229.968C831.294 228.981 831.91 228.12 833.072 228.12C834.234 228.12 834.843 228.974 834.843 229.842L834.836 229.968H831.21ZM844.304 234.119C845.641 234.119 846.677 233.468 847.16 232.145L845.956 231.676C845.704 232.425 845.172 232.922 844.304 232.922C843.002 232.922 842.421 231.774 842.421 230.542C842.421 229.324 843.002 228.162 844.304 228.162C845.172 228.162 845.704 228.673 845.956 229.415L847.16 228.946C846.677 227.616 845.641 226.979 844.304 226.979C842.19 226.979 841.056 228.652 841.056 230.542C841.056 232.446 842.19 234.119 844.304 234.119ZM851.717 234.119C853.67 234.119 855.098 232.614 855.098 230.542C855.098 228.47 853.684 226.979 851.717 226.979C849.722 226.979 848.315 228.47 848.315 230.542C848.315 232.628 849.75 234.119 851.717 234.119ZM849.68 230.542C849.68 229.093 850.464 228.176 851.717 228.176C852.956 228.176 853.726 229.086 853.726 230.542C853.726 231.991 852.956 232.908 851.717 232.908C850.464 232.908 849.68 231.991 849.68 230.542ZM856.69 234H858.062V230.598C858.062 228.911 858.657 228.162 859.756 228.162C860.736 228.162 861.219 228.764 861.219 230.08V234H862.591V229.576C862.591 227.882 861.674 226.979 860.148 226.979C859.294 226.979 858.524 227.294 858.062 227.994V227.098H856.69V234ZM864.975 234H866.34V228.162H868.748V234H870.106V227.098H866.34V226.685C866.34 225.712 866.816 225.236 867.761 225.236C868.44 225.236 869 225.418 869.49 225.768L870.134 224.795C869.462 224.368 868.734 224.123 867.698 224.123C866.228 224.123 864.975 224.963 864.975 226.573V227.098H863.785V228.162H864.975V234ZM871.935 234H873.307V230.598C873.307 228.911 873.902 228.162 875.001 228.162C875.981 228.162 876.464 228.764 876.464 230.08V234H877.836V229.576C877.836 227.882 876.919 226.979 875.393 226.979C874.539 226.979 873.769 227.294 873.307 227.994V227.098H871.935V234ZM884.167 234H885.427V229.66C885.427 227.966 884.363 226.979 882.529 226.979C881.346 226.979 880.282 227.378 879.505 228.281L880.492 229.114C881.108 228.414 881.724 228.162 882.431 228.162C883.502 228.162 884.069 228.715 884.069 229.66V229.884H881.983C881.311 229.884 880.688 229.996 880.212 230.29C879.701 230.605 879.358 231.144 879.358 231.914C879.358 233.244 880.394 234.119 881.955 234.119C882.851 234.119 883.621 233.783 884.097 233.069L884.167 234ZM880.73 231.928C880.73 231.592 880.856 231.34 881.087 231.172C881.381 230.969 881.801 230.913 882.179 230.913H884.069V231.116C884.069 232.208 883.173 233.006 882.109 233.006C881.262 233.006 880.73 232.586 880.73 231.928ZM887.247 234H888.626V230.857C888.626 230.08 888.668 229.772 888.752 229.478C889.018 228.666 889.669 228.337 890.306 228.337C890.593 228.337 890.936 228.428 891.153 228.547L891.825 227.315C891.405 227.07 891.02 226.979 890.621 226.979C889.9 226.979 889.081 227.385 888.626 228.071V227.098H887.247V234ZM893.016 234H894.381V227.098H893.016V234ZM892.918 225.908H894.472V224.242H892.918V225.908ZM899.266 234.119C900.421 234.119 901.275 233.734 902.038 232.922L901.086 232.082C900.582 232.635 900.022 232.88 899.28 232.88C898.09 232.88 897.404 232.166 897.341 230.983H902.227C902.255 230.766 902.269 230.458 902.269 230.353C902.269 228.582 901.289 226.979 899.154 226.979C896.991 226.979 895.976 228.715 895.976 230.598C895.976 232.488 897.019 234.119 899.266 234.119ZM897.327 229.968C897.411 228.981 898.027 228.12 899.189 228.12C900.351 228.12 900.96 228.974 900.96 229.842L900.953 229.968H897.327Z" fill="black"/>
<path d="M736 223C737.591 223 739.117 223.632 740.243 224.757C741.368 225.883 742 227.409 742 229C742 230.591 741.368 232.117 740.243 233.243C739.117 234.368 737.591 235 736 235L736 223Z" fill="#CAD0D3"/>
<defs>
<linearGradient id="paint0_linear" x1="580" y1="399" x2="580" y2="658" gradientUnits="userSpaceOnUse">
<stop stop-color="#04171F"/>
<stop offset="1" stop-color="#04171F"/>
</linearGradient>
</defs>
</svg>
