<svg width="58" height="32" viewBox="0 0 58 32" fill="none" xmlns="http://www.w3.org/2000/svg">
<path d="M4.54086 9.42C2.75086 9.42 1.56086 8.59 1.56086 6.98C1.56086 5.36 2.75086 4.53 4.54086 4.53C5.61086 4.53 6.51086 4.89 7.00086 5.65L7.78086 5.26C7.20086 4.39 6.08086 3.75 4.55086 3.75C2.16086 3.75 0.70086 5.01 0.70086 6.98C0.70086 8.94 2.16086 10.2 4.52086 10.2C6.08086 10.2 7.20086 9.59 7.79086 8.7L7.01086 8.31C6.52086 9.08 5.61086 9.42 4.54086 9.42ZM15.0673 10H16.0173L12.5573 3.95H11.6173L8.14727 10H9.07727L9.96727 8.44H14.1873L15.0673 10ZM10.3873 7.69L12.0773 4.72L13.7573 7.69H10.3873ZM21.3588 3.95H17.1188V10H17.9588V7.83H21.3588C22.8388 7.83 23.8288 7.12 23.8288 5.89C23.8288 4.66 22.8388 3.95 21.3588 3.95ZM21.2988 7.09H17.9588V4.69H21.2988C22.3088 4.69 22.9688 5.04 22.9688 5.89C22.9688 6.75 22.3088 7.09 21.2988 7.09ZM26.0107 10V3.95H25.1707V10H26.0107ZM33.9478 3.95H27.1778V4.71H30.1378V10H30.9778V4.71H33.9478V3.95ZM38.1707 10.2C40.5807 10.2 42.0407 8.95 42.0407 6.98C42.0407 5 40.5807 3.75 38.1707 3.75C35.7507 3.75 34.2907 5 34.2907 6.98C34.2907 8.95 35.7507 10.2 38.1707 10.2ZM38.1707 9.42C36.3407 9.42 35.1507 8.54 35.1507 6.98C35.1507 5.41 36.3407 4.53 38.1707 4.53C39.9907 4.53 41.1807 5.41 41.1807 6.98C41.1807 8.54 39.9907 9.42 38.1707 9.42ZM44.4048 9.22V3.95H43.5648V10H49.2148V9.22H44.4048ZM53.425 10.2C55.835 10.2 57.295 8.95 57.295 6.98C57.295 5 55.835 3.75 53.425 3.75C51.005 3.75 49.545 5 49.545 6.98C49.545 8.95 51.005 10.2 53.425 10.2ZM53.425 9.42C51.595 9.42 50.405 8.54 50.405 6.98C50.405 5.41 51.595 4.53 53.425 4.53C55.245 4.53 56.435 5.41 56.435 6.98C56.435 8.54 55.245 9.42 53.425 9.42Z" fill="#040E14"/>
<rect x="4" y="16" width="16" height="16" rx="8" fill="#040E14"/>
<path d="M11.5588 27.5H12.9748V20.204H11.8948C11.1748 20.804 10.1788 21.332 9.21883 21.464V22.664C10.0948 22.532 10.8988 22.268 11.5588 21.788V27.5Z" fill="#FBF9F4"/>
<rect x="37.5" y="16.5" width="15" height="15" rx="7.5" stroke="#040E14"/>
<path d="M41.8719 25.316L40.8639 25.94C41.6799 27.02 43.1439 27.728 45.0039 27.728C47.2479 27.728 48.9879 26.948 48.9879 25.484C48.9879 24.308 47.8119 23.756 46.6959 23.624C47.7999 23.528 48.6879 22.892 48.6879 21.92C48.6879 20.636 46.8519 19.976 44.9559 19.976C43.1559 19.976 41.8359 20.6 41.0679 21.62L42.0639 22.28C42.7239 21.524 43.5999 21.116 44.8599 21.116C46.0719 21.116 47.2359 21.368 47.2359 22.1C47.2359 22.832 46.0959 23.12 44.8359 23.12H43.7679V24.188H44.8359C46.3479 24.188 47.4879 24.452 47.4879 25.328C47.4879 26.204 46.3239 26.6 44.9319 26.6C43.4919 26.6 42.6399 26.144 41.8719 25.316Z" fill="#040E14"/>
<line x1="32.2418" y1="16.6645" x2="25.9026" y2="30.2591" stroke="#040E14" stroke-linecap="round"/>
</svg>
