<svg width="70" height="39" viewBox="0 0 70 39" fill="none" xmlns="http://www.w3.org/2000/svg">
<path d="M5.64903 10.304C3.50103 10.304 2.07303 9.308 2.07303 7.376C2.07303 5.432 3.50103 4.436 5.64903 4.436C6.93303 4.436 8.01303 4.868 8.60103 5.78L9.53703 5.312C8.84103 4.268 7.49703 3.5 5.66103 3.5C2.79303 3.5 1.04103 5.012 1.04103 7.376C1.04103 9.728 2.79303 11.24 5.62503 11.24C7.49703 11.24 8.84103 10.508 9.54903 9.44L8.61303 8.972C8.02503 9.896 6.93303 10.304 5.64903 10.304ZM18.2807 11H19.4207L15.2687 3.74H14.1407L9.97672 11H11.0927L12.1607 9.128H17.2247L18.2807 11ZM12.6647 8.228L14.6927 4.664L16.7087 8.228H12.6647ZM25.8305 3.74H20.7425V11H21.7505V8.396H25.8305C27.6065 8.396 28.7945 7.544 28.7945 6.068C28.7945 4.592 27.6065 3.74 25.8305 3.74ZM25.7585 7.508H21.7505V4.628H25.7585C26.9705 4.628 27.7625 5.048 27.7625 6.068C27.7625 7.1 26.9705 7.508 25.7585 7.508ZM31.4128 11V3.74H30.4048V11H31.4128ZM40.9374 3.74H32.8134V4.652H36.3654V11H37.3734V4.652H40.9374V3.74ZM46.0048 11.24C48.8968 11.24 50.6488 9.74 50.6488 7.376C50.6488 5 48.8968 3.5 46.0048 3.5C43.1008 3.5 41.3488 5 41.3488 7.376C41.3488 9.74 43.1008 11.24 46.0048 11.24ZM46.0048 10.304C43.8088 10.304 42.3808 9.248 42.3808 7.376C42.3808 5.492 43.8088 4.436 46.0048 4.436C48.1888 4.436 49.6168 5.492 49.6168 7.376C49.6168 9.248 48.1888 10.304 46.0048 10.304ZM53.4858 10.064V3.74H52.4778V11H59.2578V10.064H53.4858ZM64.31 11.24C67.202 11.24 68.954 9.74 68.954 7.376C68.954 5 67.202 3.5 64.31 3.5C61.406 3.5 59.654 5 59.654 7.376C59.654 9.74 61.406 11.24 64.31 11.24ZM64.31 10.304C62.114 10.304 60.686 9.248 60.686 7.376C60.686 5.492 62.114 4.436 64.31 4.436C66.494 4.436 67.922 5.492 67.922 7.376C67.922 9.248 66.494 10.304 64.31 10.304Z" fill="#FBF9F4"/>
<rect x="7" y="21" width="19" height="18" rx="9" fill="#FBF9F4"/>
<path d="M11.5705 27.28L12.6625 28.092C13.4325 27.098 14.4545 26.538 15.9945 26.538C17.3945 26.538 18.6545 26.93 18.6545 27.784C18.6545 28.666 17.4645 29.016 15.8825 29.562C13.2645 30.402 11.6125 31.704 11.3465 33.258V34H20.5305V32.656H13.3485C13.6425 31.872 14.9585 31.354 16.8345 30.724C18.8925 30.052 20.3485 29.212 20.3485 27.77C20.3485 26.076 18.2345 25.222 16.0645 25.222C13.8665 25.222 12.2845 26.132 11.5705 27.28Z" fill="#040E14"/>
<rect x="44.5" y="21.5" width="18" height="17" rx="8.5" stroke="#FBF9F4"/>
<path d="M49.8506 31.452L48.6746 32.18C49.6266 33.44 51.3346 34.266 53.5046 34.266C56.1226 34.266 58.1526 33.356 58.1526 31.648C58.1526 30.276 56.7806 29.632 55.4786 29.478C56.7666 29.366 57.8026 28.624 57.8026 27.49C57.8026 25.992 55.6606 25.222 53.4486 25.222C51.3486 25.222 49.8086 25.95 48.9126 27.14L50.0746 27.91C50.8446 27.028 51.8666 26.552 53.3366 26.552C54.7506 26.552 56.1086 26.846 56.1086 27.7C56.1086 28.554 54.7786 28.89 53.3086 28.89H52.0626V30.136H53.3086C55.0726 30.136 56.4026 30.444 56.4026 31.466C56.4026 32.488 55.0446 32.95 53.4206 32.95C51.7406 32.95 50.7466 32.418 49.8506 31.452Z" fill="#FBF9F4"/>
<line x1="39.2418" y1="21.6645" x2="32.0573" y2="37.0717" stroke="#FBF9F4" stroke-linecap="round"/>
</svg>
