<svg width="2" height="351" viewBox="0 0 2 351" fill="none" xmlns="http://www.w3.org/2000/svg">
<path d="M0.249999 14.625L0.249999 15.375L1.75 15.375L1.75 14.625L0.249999 14.625ZM1.75 43.875L1.75 43.125L0.249998 43.125L0.249998 43.875L1.75 43.875ZM0.249997 73.125L0.249997 73.875L1.75 73.875L1.75 73.125L0.249997 73.125ZM1.75 102.375L1.75 101.625L0.249996 101.625L0.249996 102.375L1.75 102.375ZM0.249994 131.625L0.249994 132.375L1.74999 132.375L1.74999 131.625L0.249994 131.625ZM1.74999 160.875L1.74999 160.125L0.249993 160.125L0.249993 160.875L1.74999 160.875ZM0.249992 190.125L0.249992 190.875L1.74999 190.875L1.74999 190.125L0.249992 190.125ZM1.74999 219.375L1.74999 218.625L0.249991 218.625L0.249991 219.375L1.74999 219.375ZM0.249989 248.625L0.249989 249.375L1.74999 249.375L1.74999 248.625L0.249989 248.625ZM1.74999 277.875L1.74999 277.125L0.249988 277.125L0.249988 277.875L1.74999 277.875ZM0.249987 307.125L0.249987 307.875L1.74999 307.875L1.74999 307.125L0.249987 307.125ZM1.74999 336.375L1.74999 335.625L0.249986 335.625L0.249986 336.375L1.74999 336.375ZM0.25 -3.21297e-08L0.249999 14.625L1.75 14.625L1.75 3.21297e-08L0.25 -3.21297e-08ZM0.249998 43.875L0.249997 73.125L1.75 73.125L1.75 43.875L0.249998 43.875ZM0.249996 102.375L0.249994 131.625L1.74999 131.625L1.75 102.375L0.249996 102.375ZM0.249993 160.875L0.249992 190.125L1.74999 190.125L1.74999 160.875L0.249993 160.875ZM0.249991 219.375L0.249989 248.625L1.74999 248.625L1.74999 219.375L0.249991 219.375ZM0.249988 277.875L0.249987 307.125L1.74999 307.125L1.74999 277.875L0.249988 277.875ZM0.249986 336.375L0.249985 351L1.74998 351L1.74999 336.375L0.249986 336.375Z" fill="#0038FF"/>
</svg>
