<svg width="23" height="18" viewBox="0 0 23 18" fill="none" xmlns="http://www.w3.org/2000/svg">
<path d="M22.2698 2.1238C21.4455 2.49159 20.6176 2.76923 19.7001 2.86298C20.6176 2.30769 21.3523 1.38462 21.7179 0.367789C20.8004 0.923077 19.8829 1.29087 18.8758 1.47837C17.9583 0.555289 16.7648 0 15.4818 0C13.0017 0 10.9839 2.03005 10.9839 4.52164C10.9839 4.89303 10.9839 5.26082 11.0771 5.53846C7.31396 5.35457 4.01315 3.59856 1.80902 0.829327C1.35027 1.47837 1.16749 2.30769 1.16749 3.13702C1.16749 4.70914 1.9918 6.09375 3.18525 6.92308C2.45055 6.82933 1.71942 6.64543 1.16749 6.36779C1.16749 6.36779 1.16749 6.36779 1.16749 6.46154C1.16749 8.67548 2.72651 10.5216 4.74427 10.893C4.37871 10.9832 4.01315 11.0769 3.5544 11.0769C3.27844 11.0769 3.00247 11.0769 2.72651 10.9832C3.27844 12.8293 4.93064 14.1238 6.9484 14.1238C5.38938 15.3245 3.46122 16.0601 1.35027 16.0601C0.984709 16.0601 0.615563 16.0601 0.25 15.97C2.26776 17.2608 4.65467 18 7.13118 18C15.4818 18 19.9761 11.0769 19.9761 5.07692C19.9761 4.89303 19.9761 4.70914 19.9761 4.52164C20.8935 3.8762 21.6283 3.04687 22.2698 2.1238Z" fill="#FBF9F4"/>
</svg>
