<svg width="20" height="17" viewBox="0 0 20 17" fill="none" xmlns="http://www.w3.org/2000/svg">
<path d="M20.3223 1.90266C19.5929 2.2308 18.8603 2.47852 18.0484 2.56216C18.8603 2.06673 19.5104 1.24316 19.8339 0.335953C19.022 0.83138 18.2101 1.15952 17.319 1.32681C16.5071 0.50324 15.451 0.0078125 14.3156 0.0078125C12.121 0.0078125 10.3354 1.81902 10.3354 4.04201C10.3354 4.37336 10.3354 4.70151 10.4179 4.94922C7.08785 4.78515 4.16694 3.21844 2.2165 0.747737C1.81055 1.32681 1.64881 2.06673 1.64881 2.80666C1.64881 4.2093 2.37824 5.44465 3.43434 6.18457C2.78419 6.10093 2.13721 5.93686 1.64881 5.68914C1.64881 5.68914 1.64881 5.68914 1.64881 5.77279C1.64881 7.74806 3.02839 9.3952 4.81392 9.72656C4.49043 9.80698 4.16694 9.89063 3.761 9.89063C3.51679 9.89063 3.27259 9.89063 3.02839 9.80698C3.51679 11.4541 4.97883 12.609 6.76436 12.609C5.38478 13.6803 3.67854 14.3366 1.81055 14.3366C1.48706 14.3366 1.1604 14.3366 0.836914 14.2562C2.62244 15.4079 4.73463 16.0674 6.92611 16.0674C14.3156 16.0674 18.2926 9.89063 18.2926 4.53744C18.2926 4.37336 18.2926 4.2093 18.2926 4.04201C19.1045 3.46615 19.7546 2.72623 20.3223 1.90266Z" fill="#F7F7F7"/>
</svg>
