<svg width="20" height="17" viewBox="0 0 20 17" fill="none" xmlns="http://www.w3.org/2000/svg">
<path d="M20.3223 1.90242C19.5929 2.23056 18.8603 2.47827 18.0484 2.56192C18.8603 2.06649 19.5104 1.24292 19.8339 0.335709C19.022 0.831136 18.2101 1.15928 17.319 1.32656C16.5071 0.502996 15.451 0.00756836 14.3156 0.00756836C12.121 0.00756836 10.3354 1.81877 10.3354 4.04176C10.3354 4.37312 10.3354 4.70126 10.4179 4.94898C7.08785 4.7849 4.16694 3.2182 2.2165 0.747493C1.81055 1.32656 1.64881 2.06649 1.64881 2.80641C1.64881 4.20905 2.37824 5.4444 3.43434 6.18433C2.78419 6.10068 2.13721 5.93661 1.64881 5.6889C1.64881 5.6889 1.64881 5.6889 1.64881 5.77254C1.64881 7.74782 3.02839 9.39495 4.81392 9.72631C4.49043 9.80674 4.16694 9.89038 3.761 9.89038C3.51679 9.89038 3.27259 9.89038 3.02839 9.80674C3.51679 11.4539 4.97883 12.6088 6.76436 12.6088C5.38478 13.6801 3.67854 14.3364 1.81055 14.3364C1.48706 14.3364 1.1604 14.3364 0.836914 14.2559C2.62244 15.4076 4.73463 16.0671 6.92611 16.0671C14.3156 16.0671 18.2926 9.89038 18.2926 4.53719C18.2926 4.37312 18.2926 4.20905 18.2926 4.04176C19.1045 3.46591 19.7546 2.72599 20.3223 1.90242Z" fill="#3A504B"/>
</svg>
