<svg width="1440" height="163" viewBox="0 0 1440 163" fill="none" xmlns="http://www.w3.org/2000/svg">
<g clip-path="url(#clip0_4340_336)">
<rect width="1440" height="163" transform="matrix(-1 0 0 1 1440 0)" fill="#3A64F3"/>
<path d="M1440 0H0.00012207V68.4967C0.00012207 68.4967 242.999 -90.5754 958.5 109.497C1393 230.995 1440 68.4967 1440 68.4967V0Z" fill="#CFD9FC"/>
<path fill-rule="evenodd" clip-rule="evenodd" d="M101.851 31.6082C208.498 6.34053 406.327 -11.9984 729.547 53.8304C680.976 107.258 562.254 145 423.5 145C266.192 145 134.63 96.4894 101.851 31.6082ZM94 0C94 -80.0813 241.522 -145 423.5 -145C605.478 -145 753 -80.0813 753 0H94Z" fill="#CCFC82"/>
</g>
<defs>
<clipPath id="clip0_4340_336">
<rect width="1440" height="163" fill="white" transform="matrix(-1 0 0 1 1440 0)"/>
</clipPath>
</defs>
</svg>
