<svg width="274" height="542" viewBox="0 0 274 542" fill="none" xmlns="http://www.w3.org/2000/svg">
<path d="M27.5 515L27.5 515.5L28 515.5L52 515.5L52.5 515.5L52.5 515L52.5 13C52.5 6.09643 46.9035 0.499998 40 0.499999C33.0964 0.5 27.5 6.09644 27.5 13L27.5 515Z" fill="#F8D448" stroke="#332827"/>
<path d="M95.5 515.267L95.5 515.767L96 515.767L120 515.767L120.5 515.767L120.5 515.267L120.5 61.0002C120.5 54.0966 114.904 48.5002 108 48.5002C101.096 48.5002 95.5 54.0966 95.5 61.0001L95.5 515.267Z" fill="#F8D448" stroke="#332827"/>
<path d="M163.5 515.298L163.5 515.798L164 515.798L188 515.798L188.5 515.798L188.5 515.298L188.5 128.135C188.5 121.231 182.904 115.635 176 115.635C169.096 115.635 163.5 121.231 163.5 128.135L163.5 515.298Z" fill="#F8D448" stroke="#332827"/>
<path d="M15.5 515.191L15.5 515.691L16 515.691L40 515.691L40.5 515.691L40.5 515.191L40.5 62.9998C40.5 56.0962 34.9035 50.4998 28 50.4998C21.0964 50.4998 15.5 56.0962 15.5 62.9998L15.5 515.191Z" fill="#332827" stroke="#F3F2EF"/>
<path d="M83.5 515.355L83.5 515.855L84 515.855L108 515.855L108.5 515.855L108.5 515.355L108.5 77.0002C108.5 70.0966 102.904 64.5002 96 64.5002C89.0964 64.5002 83.5 70.0966 83.5 77.0002L83.5 515.355Z" fill="#332827" stroke="#F3F2EF"/>
<path d="M151.5 515.382L151.5 515.882L152 515.882L176 515.882L176.5 515.882L176.5 515.382L176.5 113C176.5 106.097 170.904 100.5 164 100.5C157.096 100.5 151.5 106.097 151.5 113L151.5 515.382Z" fill="#332827" stroke="#F3F2EF"/>
<path d="M231.5 515.642L231.5 516.142L232 516.142L256 516.142L256.5 516.142L256.5 515.642L256.5 152C256.5 145.097 250.904 139.5 244 139.5C237.096 139.5 231.5 145.097 231.5 152L231.5 515.642Z" fill="#F8D448" stroke="#332827"/>
<path d="M219.5 515.409L219.5 515.909L220 515.909L244 515.909L244.5 515.909L244.5 515.409L244.5 149C244.5 142.096 238.904 136.5 232 136.5C225.096 136.5 219.5 142.096 219.5 149L219.5 515.409Z" fill="#332827" stroke="#F3F2EF"/>
<rect x="84" y="515" width="37" height="2" fill="#332827"/>
<rect x="152" y="515" width="37" height="2" fill="#332827"/>
<rect x="220" y="515" width="37" height="2" fill="#332827"/>
<path d="M23.62 81.005C23.62 80.2303 23.7833 79.5863 24.11 79.073C24.4273 78.5503 24.936 78.1583 25.636 77.897L26.392 79.521C25.608 79.7637 25.216 80.3003 25.216 81.131C25.216 81.523 25.3513 81.873 25.622 82.181C25.8833 82.489 26.252 82.7317 26.728 82.909C27.204 83.077 27.75 83.161 28.366 83.161L28.604 83.161L28.604 83.119C28.1467 82.9697 27.8013 82.6803 27.568 82.251C27.3347 81.8217 27.218 81.327 27.218 80.767C27.218 80.179 27.3393 79.6563 27.582 79.199C27.8153 78.7417 28.1513 78.387 28.59 78.135C29.0287 77.8737 29.542 77.743 30.13 77.743C31.054 77.743 31.7867 78.0463 32.328 78.653C32.8693 79.2597 33.14 80.095 33.14 81.159C33.14 82.3537 32.7247 83.2777 31.894 83.931C31.054 84.575 29.8827 84.897 28.38 84.897C27.344 84.897 26.4713 84.729 25.762 84.393C25.0433 84.057 24.5067 83.5997 24.152 83.021C23.7973 82.433 23.62 81.761 23.62 81.005ZM28.632 81.131C28.632 81.607 28.7673 81.9897 29.038 82.279C29.3087 82.5683 29.6633 82.713 30.102 82.713C30.5593 82.713 30.9233 82.5683 31.194 82.279C31.4647 81.9897 31.6 81.607 31.6 81.131C31.6 80.6363 31.4693 80.2537 31.208 79.983C30.9467 79.703 30.578 79.563 30.102 79.563C29.6447 79.563 29.2853 79.703 29.024 79.983C28.7627 80.2537 28.632 80.6363 28.632 81.131ZM23.76 69.4185L25.23 69.4185C26.35 70.5385 27.54 71.3411 28.8 71.8265C30.06 72.3118 31.46 72.5545 33 72.5545L33 74.4865C30.0787 74.4865 27.526 73.4411 25.342 71.3505L25.342 76.7405L23.76 76.7405L23.76 69.4185ZM23.76 64.1863L33 64.1863L33 66.0623L26.112 66.0623C25.9627 66.0623 25.846 66.0576 25.762 66.0483C26.07 66.3843 26.3313 66.7483 26.546 67.1403C26.7607 67.5229 26.9053 67.9103 26.98 68.3023L25.356 68.5543C25.3093 68.1249 25.118 67.6116 24.782 67.0143C24.4367 66.4076 24.096 65.9876 23.76 65.7543L23.76 64.1863Z" fill="#F3F2EF"/>
<path d="M91.62 95.0733C91.62 94.2987 91.7833 93.6547 92.11 93.1413C92.4273 92.6187 92.936 92.2267 93.636 91.9653L94.392 93.5893C93.608 93.832 93.216 94.3687 93.216 95.1993C93.216 95.5913 93.3513 95.9413 93.622 96.2493C93.8833 96.5573 94.252 96.8 94.728 96.9773C95.204 97.1453 95.75 97.2293 96.366 97.2293L96.604 97.2293L96.604 97.1873C96.1467 97.038 95.8013 96.7487 95.568 96.3193C95.3347 95.89 95.218 95.3953 95.218 94.8353C95.218 94.2473 95.3393 93.7247 95.582 93.2673C95.8153 92.81 96.1513 92.4553 96.59 92.2033C97.0287 91.942 97.542 91.8113 98.13 91.8113C99.054 91.8113 99.7867 92.1147 100.328 92.7213C100.869 93.328 101.14 94.1633 101.14 95.2273C101.14 96.422 100.725 97.346 99.894 97.9993C99.054 98.6433 97.8827 98.9653 96.38 98.9653C95.344 98.9653 94.4713 98.7973 93.762 98.4613C93.0433 98.1253 92.5067 97.668 92.152 97.0893C91.7973 96.5013 91.62 95.8293 91.62 95.0733ZM96.632 95.1993C96.632 95.6753 96.7673 96.058 97.038 96.3473C97.3087 96.6367 97.6633 96.7813 98.102 96.7813C98.5593 96.7813 98.9233 96.6367 99.194 96.3473C99.4647 96.058 99.6 95.6753 99.6 95.1993C99.6 94.7047 99.4693 94.322 99.208 94.0513C98.9467 93.7713 98.578 93.6313 98.102 93.6313C97.6447 93.6313 97.2853 93.7713 97.024 94.0513C96.7627 94.322 96.632 94.7047 96.632 95.1993ZM95.05 86.5447C95.05 85.6487 95.316 84.9441 95.848 84.4307C96.3707 83.9081 97.0613 83.6467 97.92 83.6467C98.956 83.6467 99.754 83.9641 100.314 84.5987C100.865 85.2241 101.14 86.0501 101.14 87.0767C101.14 87.9074 100.986 88.6074 100.678 89.1767C100.361 89.7367 99.866 90.1941 99.194 90.5487L98.228 88.8127C98.6853 88.6914 99.0307 88.5047 99.264 88.2527C99.488 87.9914 99.6 87.6041 99.6 87.0907C99.6 86.5774 99.4647 86.1761 99.194 85.8867C98.9233 85.5881 98.5407 85.4387 98.046 85.4387C97.542 85.4481 97.1593 85.5881 96.898 85.8587C96.6273 86.1294 96.492 86.5261 96.492 87.0487C96.492 87.8234 96.716 88.3881 97.164 88.7427L96.996 90.2547L91.76 89.6807L91.76 84.1227L93.314 84.1227L93.314 88.2247L95.484 88.4907L95.75 88.5327L95.75 88.5187C95.526 88.3134 95.3533 88.0427 95.232 87.7067C95.1107 87.3614 95.05 86.9741 95.05 86.5447ZM91.76 78.1863L101 78.1863L101 80.0623L94.112 80.0623C93.9627 80.0623 93.846 80.0576 93.762 80.0483C94.07 80.3843 94.3313 80.7483 94.546 81.1403C94.7607 81.5229 94.9053 81.9103 94.98 82.3023L93.356 82.5543C93.3093 82.1249 93.118 81.6116 92.782 81.0143C92.4367 80.4076 92.096 79.9876 91.76 79.7543L91.76 78.1863Z" fill="#F3F2EF"/>
<path d="M163.05 145.951C163.05 145.055 163.316 144.35 163.848 143.837C164.371 143.314 165.061 143.053 165.92 143.053C166.956 143.053 167.754 143.37 168.314 144.005C168.865 144.63 169.14 145.456 169.14 146.483C169.14 147.314 168.986 148.014 168.678 148.583C168.361 149.143 167.866 149.6 167.194 149.955L166.228 148.219C166.685 148.098 167.031 147.911 167.264 147.659C167.488 147.398 167.6 147.01 167.6 146.497C167.6 145.984 167.465 145.582 167.194 145.293C166.923 144.994 166.541 144.845 166.046 144.845C165.542 144.854 165.159 144.994 164.898 145.265C164.627 145.536 164.492 145.932 164.492 146.455C164.492 147.23 164.716 147.794 165.164 148.149L164.996 149.661L159.76 149.087L159.76 143.529L161.314 143.529L161.314 147.631L163.484 147.897L163.75 147.939L163.75 147.925C163.526 147.72 163.353 147.449 163.232 147.113C163.111 146.768 163.05 146.38 163.05 145.951ZM159.62 138.237C159.62 137.042 160.04 136.123 160.88 135.479C161.711 134.825 162.887 134.499 164.408 134.499C165.995 134.499 167.18 134.825 167.964 135.479C168.748 136.132 169.14 137.065 169.14 138.279C169.14 139.128 168.972 139.828 168.636 140.379C168.3 140.92 167.787 141.331 167.096 141.611L166.34 139.833C166.76 139.721 167.077 139.553 167.292 139.329C167.497 139.095 167.6 138.741 167.6 138.265C167.6 137.565 167.329 137.056 166.788 136.739C166.247 136.412 165.467 136.249 164.45 136.249L164.254 136.249L164.254 136.305C164.73 136.426 165.085 136.706 165.318 137.145C165.551 137.583 165.668 138.083 165.668 138.643C165.668 139.221 165.547 139.739 165.304 140.197C165.061 140.654 164.716 141.018 164.268 141.289C163.82 141.55 163.297 141.681 162.7 141.681C161.748 141.681 160.997 141.377 160.446 140.771C159.895 140.155 159.62 139.31 159.62 138.237ZM161.202 138.265C161.202 138.769 161.333 139.156 161.594 139.427C161.855 139.697 162.224 139.833 162.7 139.833C163.167 139.833 163.531 139.697 163.792 139.427C164.053 139.156 164.184 138.769 164.184 138.265C164.184 137.789 164.049 137.411 163.778 137.131C163.507 136.841 163.148 136.697 162.7 136.697C162.243 136.697 161.879 136.841 161.608 137.131C161.337 137.411 161.202 137.789 161.202 138.265ZM159.62 129.582C159.62 128.388 160.04 127.468 160.88 126.824C161.711 126.171 162.887 125.844 164.408 125.844C165.995 125.844 167.18 126.171 167.964 126.824C168.748 127.478 169.14 128.411 169.14 129.624C169.14 130.474 168.972 131.174 168.636 131.724C168.3 132.266 167.787 132.676 167.096 132.956L166.34 131.178C166.76 131.066 167.077 130.898 167.292 130.674C167.497 130.441 167.6 130.086 167.6 129.61C167.6 128.91 167.329 128.402 166.788 128.084C166.247 127.758 165.467 127.594 164.45 127.594L164.254 127.594L164.254 127.65C164.73 127.772 165.085 128.052 165.318 128.49C165.551 128.929 165.668 129.428 165.668 129.988C165.668 130.567 165.547 131.085 165.304 131.542C165.061 132 164.716 132.364 164.268 132.634C163.82 132.896 163.297 133.026 162.7 133.026C161.748 133.026 160.997 132.723 160.446 132.116C159.895 131.5 159.62 130.656 159.62 129.582ZM161.202 129.61C161.202 130.114 161.333 130.502 161.594 130.772C161.855 131.043 162.224 131.178 162.7 131.178C163.167 131.178 163.531 131.043 163.792 130.772C164.053 130.502 164.184 130.114 164.184 129.61C164.184 129.134 164.049 128.756 163.778 128.476C163.507 128.187 163.148 128.042 162.7 128.042C162.243 128.042 161.879 128.187 161.608 128.476C161.337 128.756 161.202 129.134 161.202 129.61ZM166.858 123.263C166.858 122.834 167.012 122.502 167.32 122.269C167.619 122.036 168.011 121.919 168.496 121.919C169.065 121.919 169.583 122.073 170.05 122.381C170.526 122.68 170.895 123.123 171.156 123.711L170.484 124.593C170.325 124.182 170.12 123.837 169.868 123.557C169.616 123.277 169.331 123.09 169.014 122.997L168.972 123.053C169.065 123.146 169.112 123.282 169.112 123.459C169.112 123.73 169.019 123.968 168.832 124.173C168.645 124.378 168.379 124.481 168.034 124.481C167.67 124.481 167.385 124.369 167.18 124.145C166.965 123.921 166.858 123.627 166.858 123.263ZM167.684 120.361C166.928 119.232 166.265 118.336 165.696 117.673C165.127 117.011 164.599 116.53 164.114 116.231C163.629 115.933 163.148 115.783 162.672 115.783C162.233 115.783 161.879 115.919 161.608 116.189C161.337 116.451 161.202 116.815 161.202 117.281C161.202 117.795 161.379 118.201 161.734 118.499C162.089 118.798 162.593 118.961 163.246 118.989L162.616 120.655C161.683 120.59 160.95 120.245 160.418 119.619C159.886 118.994 159.62 118.177 159.62 117.169C159.62 116.451 159.755 115.844 160.026 115.349C160.297 114.845 160.656 114.467 161.104 114.215C161.543 113.963 162.028 113.837 162.56 113.837C163.428 113.837 164.249 114.164 165.024 114.817C165.789 115.471 166.611 116.511 167.488 117.939L167.502 117.939C167.465 117.398 167.446 116.833 167.446 116.245L167.446 113.697L169 113.697L169 120.361L167.684 120.361Z" fill="#F3F2EF"/>
<path d="M231.05 176.373C231.05 175.477 231.316 174.772 231.848 174.259C232.371 173.736 233.061 173.475 233.92 173.475C234.956 173.475 235.754 173.792 236.314 174.427C236.865 175.052 237.14 175.878 237.14 176.905C237.14 177.736 236.986 178.436 236.678 179.005C236.361 179.565 235.866 180.022 235.194 180.377L234.228 178.641C234.685 178.52 235.031 178.333 235.264 178.081C235.488 177.82 235.6 177.432 235.6 176.919C235.6 176.406 235.465 176.004 235.194 175.715C234.923 175.416 234.541 175.267 234.046 175.267C233.542 175.276 233.159 175.416 232.898 175.687C232.627 175.958 232.492 176.354 232.492 176.877C232.492 177.652 232.716 178.216 233.164 178.571L232.996 180.083L227.76 179.509L227.76 173.951L229.314 173.951L229.314 178.053L231.484 178.319L231.75 178.361L231.75 178.347C231.526 178.142 231.353 177.871 231.232 177.535C231.111 177.19 231.05 176.802 231.05 176.373ZM234.83 164.444L234.83 165.942L237 165.942L237 167.692L234.83 167.692L234.83 172.298L233.808 172.298L227.76 168.252L227.76 165.942L233.43 165.942L233.43 164.444L234.83 164.444ZM233.43 170.436L233.43 167.692L230.602 167.692L229.09 167.65L229.09 167.678C229.566 167.884 230.075 168.164 230.616 168.518L233.43 170.436ZM227.76 156.758L229.23 156.758C230.35 157.878 231.54 158.681 232.8 159.166C234.06 159.652 235.46 159.894 237 159.894L237 161.826C234.079 161.826 231.526 160.781 229.342 158.69L229.342 164.08L227.76 164.08L227.76 156.758ZM234.858 155.695C234.858 155.265 235.012 154.934 235.32 154.701C235.619 154.467 236.011 154.351 236.496 154.351C237.065 154.351 237.583 154.505 238.05 154.813C238.526 155.111 238.895 155.555 239.156 156.143L238.484 157.025C238.325 156.614 238.12 156.269 237.868 155.989C237.616 155.709 237.331 155.522 237.014 155.429L236.972 155.485C237.065 155.578 237.112 155.713 237.112 155.891C237.112 156.161 237.019 156.399 236.832 156.605C236.645 156.81 236.379 156.913 236.034 156.913C235.67 156.913 235.385 156.801 235.18 156.577C234.965 156.353 234.858 156.059 234.858 155.695ZM227.76 150.186L237 150.186L237 152.062L230.112 152.062C229.963 152.062 229.846 152.058 229.762 152.048C230.07 152.384 230.331 152.748 230.546 153.14C230.761 153.523 230.905 153.91 230.98 154.302L229.356 154.554C229.309 154.125 229.118 153.612 228.782 153.014C228.437 152.408 228.096 151.988 227.76 151.754L227.76 150.186Z" fill="#F3F2EF"/>
<path d="M125.62 82.296C125.62 81.5213 125.783 80.8773 126.11 80.364C126.427 79.8413 126.936 79.4493 127.636 79.188L128.392 80.812C127.608 81.0547 127.216 81.5913 127.216 82.422C127.216 82.814 127.351 83.164 127.622 83.472C127.883 83.78 128.252 84.0227 128.728 84.2C129.204 84.368 129.75 84.452 130.366 84.452L130.604 84.452L130.604 84.41C130.147 84.2607 129.801 83.9713 129.568 83.542C129.335 83.1127 129.218 82.618 129.218 82.058C129.218 81.47 129.339 80.9473 129.582 80.49C129.815 80.0327 130.151 79.678 130.59 79.426C131.029 79.1647 131.542 79.034 132.13 79.034C133.054 79.034 133.787 79.3373 134.328 79.944C134.869 80.5507 135.14 81.386 135.14 82.45C135.14 83.6447 134.725 84.5687 133.894 85.222C133.054 85.866 131.883 86.188 130.38 86.188C129.344 86.188 128.471 86.02 127.762 85.684C127.043 85.348 126.507 84.8907 126.152 84.312C125.797 83.724 125.62 83.052 125.62 82.296ZM130.632 82.422C130.632 82.898 130.767 83.2807 131.038 83.57C131.309 83.8593 131.663 84.004 132.102 84.004C132.559 84.004 132.923 83.8593 133.194 83.57C133.465 83.2807 133.6 82.898 133.6 82.422C133.6 81.9273 133.469 81.5447 133.208 81.274C132.947 80.994 132.578 80.854 132.102 80.854C131.645 80.854 131.285 80.994 131.024 81.274C130.763 81.5447 130.632 81.9273 130.632 82.422ZM125.76 70.7095L127.23 70.7095C128.35 71.8295 129.54 72.6321 130.8 73.1175C132.06 73.6028 133.46 73.8455 135 73.8455L135 75.7775C132.079 75.7775 129.526 74.7321 127.342 72.6415L127.342 78.0315L125.76 78.0315L125.76 70.7095ZM132.83 63.001L132.83 64.499L135 64.499L135 66.249L132.83 66.249L132.83 70.855L131.808 70.855L125.76 66.809L125.76 64.499L131.43 64.499L131.43 63.001L132.83 63.001ZM131.43 68.993L131.43 66.249L128.602 66.249L127.09 66.207L127.09 66.235C127.566 66.4404 128.075 66.7204 128.616 67.075L131.43 68.993ZM132.858 60.6634C132.858 60.234 133.012 59.9027 133.32 59.6694C133.619 59.436 134.011 59.3194 134.496 59.3194C135.065 59.3194 135.583 59.4734 136.05 59.7814C136.526 60.08 136.895 60.5234 137.156 61.1114L136.484 61.9934C136.325 61.5827 136.12 61.2374 135.868 60.9574C135.616 60.6774 135.331 60.4907 135.014 60.3974L134.972 60.4534C135.065 60.5467 135.112 60.682 135.112 60.8594C135.112 61.13 135.019 61.368 134.832 61.5734C134.645 61.7787 134.379 61.8814 134.034 61.8814C133.67 61.8814 133.385 61.7694 133.18 61.5454C132.965 61.3214 132.858 61.0274 132.858 60.6634ZM132.83 50.3819L132.83 51.8799L135 51.8799L135 53.6299L132.83 53.6299L132.83 58.2359L131.808 58.2359L125.76 54.1899L125.76 51.8799L131.43 51.8799L131.43 50.3819L132.83 50.3819ZM131.43 56.3739L131.43 53.6299L128.602 53.6299L127.09 53.5879L127.09 53.6159C127.566 53.8212 128.075 54.1012 128.616 54.4559L131.43 56.3739Z" fill="#F3F2EF"/>
<path d="M197.05 154.408C197.05 153.512 197.316 152.807 197.848 152.294C198.371 151.771 199.061 151.51 199.92 151.51C200.956 151.51 201.754 151.827 202.314 152.462C202.865 153.087 203.14 153.913 203.14 154.94C203.14 155.771 202.986 156.471 202.678 157.04C202.361 157.6 201.866 158.057 201.194 158.412L200.228 156.676C200.685 156.555 201.031 156.368 201.264 156.116C201.488 155.855 201.6 155.467 201.6 154.954C201.6 154.441 201.465 154.039 201.194 153.75C200.923 153.451 200.541 153.302 200.046 153.302C199.542 153.311 199.159 153.451 198.898 153.722C198.627 153.993 198.492 154.389 198.492 154.912C198.492 155.687 198.716 156.251 199.164 156.606L198.996 158.118L193.76 157.544L193.76 151.986L195.314 151.986L195.314 156.088L197.484 156.354L197.75 156.396L197.75 156.382C197.526 156.177 197.353 155.906 197.232 155.57C197.111 155.225 197.05 154.837 197.05 154.408ZM193.76 143.215L195.23 143.215C196.35 144.335 197.54 145.138 198.8 145.623C200.06 146.109 201.46 146.351 203 146.351L203 148.283C200.079 148.283 197.526 147.238 195.342 145.147L195.342 150.537L193.76 150.537L193.76 143.215ZM193.76 134.889L195.23 134.889C196.35 136.009 197.54 136.812 198.8 137.297C200.06 137.782 201.46 138.025 203 138.025L203 139.957C200.079 139.957 197.526 138.912 195.342 136.821L195.342 142.211L193.76 142.211L193.76 134.889ZM200.858 133.825C200.858 133.396 201.012 133.065 201.32 132.831C201.619 132.598 202.011 132.481 202.496 132.481C203.065 132.481 203.583 132.635 204.05 132.943C204.526 133.242 204.895 133.685 205.156 134.273L204.484 135.155C204.325 134.745 204.12 134.399 203.868 134.119C203.616 133.839 203.331 133.653 203.014 133.559L202.972 133.615C203.065 133.709 203.112 133.844 203.112 134.021C203.112 134.292 203.019 134.53 202.832 134.735C202.645 134.941 202.379 135.043 202.034 135.043C201.67 135.043 201.385 134.931 201.18 134.707C200.965 134.483 200.858 134.189 200.858 133.825ZM193.62 127.676C193.62 126.481 194.04 125.562 194.88 124.918C195.711 124.265 196.887 123.938 198.408 123.938C199.995 123.938 201.18 124.265 201.964 124.918C202.748 125.571 203.14 126.505 203.14 127.718C203.14 128.567 202.972 129.267 202.636 129.818C202.3 130.359 201.787 130.77 201.096 131.05L200.34 129.272C200.76 129.16 201.077 128.992 201.292 128.768C201.497 128.535 201.6 128.18 201.6 127.704C201.6 127.004 201.329 126.495 200.788 126.178C200.247 125.851 199.467 125.688 198.45 125.688L198.254 125.688L198.254 125.744C198.73 125.865 199.085 126.145 199.318 126.584C199.551 127.023 199.668 127.522 199.668 128.082C199.668 128.661 199.547 129.179 199.304 129.636C199.061 130.093 198.716 130.457 198.268 130.728C197.82 130.989 197.297 131.12 196.7 131.12C195.748 131.12 194.997 130.817 194.446 130.21C193.895 129.594 193.62 128.749 193.62 127.676ZM195.202 127.704C195.202 128.208 195.333 128.595 195.594 128.866C195.855 129.137 196.224 129.272 196.7 129.272C197.167 129.272 197.531 129.137 197.792 128.866C198.053 128.595 198.184 128.208 198.184 127.704C198.184 127.228 198.049 126.85 197.778 126.57C197.507 126.281 197.148 126.136 196.7 126.136C196.243 126.136 195.879 126.281 195.608 126.57C195.337 126.85 195.202 127.228 195.202 127.704Z" fill="#F3F2EF"/>
<path d="M265.05 161.408C265.05 160.512 265.316 159.807 265.848 159.294C266.371 158.771 267.061 158.51 267.92 158.51C268.956 158.51 269.754 158.827 270.314 159.462C270.865 160.087 271.14 160.913 271.14 161.94C271.14 162.771 270.986 163.471 270.678 164.04C270.361 164.6 269.866 165.057 269.194 165.412L268.228 163.676C268.685 163.555 269.031 163.368 269.264 163.116C269.488 162.855 269.6 162.467 269.6 161.954C269.6 161.441 269.465 161.039 269.194 160.75C268.923 160.451 268.541 160.302 268.046 160.302C267.542 160.311 267.159 160.451 266.898 160.722C266.627 160.993 266.492 161.389 266.492 161.912C266.492 162.687 266.716 163.251 267.164 163.606L266.996 165.118L261.76 164.544L261.76 158.986L263.314 158.986L263.314 163.088L265.484 163.354L265.75 163.396L265.75 163.382C265.526 163.177 265.353 162.906 265.232 162.57C265.111 162.225 265.05 161.837 265.05 161.408ZM268.83 149.48L268.83 150.978L271 150.978L271 152.728L268.83 152.728L268.83 157.334L267.808 157.334L261.76 153.288L261.76 150.978L267.43 150.978L267.43 149.48L268.83 149.48ZM267.43 155.472L267.43 152.728L264.602 152.728L263.09 152.686L263.09 152.714C263.566 152.919 264.075 153.199 264.616 153.554L267.43 155.472ZM261.62 144.848C261.62 143.859 261.853 143.089 262.32 142.538C262.787 141.978 263.393 141.698 264.14 141.698C264.597 141.698 264.994 141.792 265.33 141.978C265.657 142.165 265.904 142.394 266.072 142.664C266.24 142.935 266.324 143.192 266.324 143.434L266.366 143.434C266.366 143.126 266.445 142.828 266.604 142.538C266.763 142.24 267.005 141.997 267.332 141.81C267.649 141.614 268.037 141.516 268.494 141.516C269.007 141.516 269.465 141.666 269.866 141.964C270.267 142.254 270.58 142.66 270.804 143.182C271.028 143.705 271.14 144.302 271.14 144.974C271.14 145.88 270.958 146.622 270.594 147.2C270.221 147.77 269.647 148.185 268.872 148.446L268.088 146.696C268.601 146.594 268.979 146.407 269.222 146.136C269.465 145.856 269.586 145.464 269.586 144.96C269.586 144.484 269.469 144.106 269.236 143.826C268.993 143.546 268.671 143.406 268.27 143.406C267.841 143.406 267.533 143.542 267.346 143.812C267.15 144.074 267.052 144.489 267.052 145.058L267.052 145.52L265.708 145.52L265.708 145.128C265.708 144.12 265.283 143.616 264.434 143.616C264.023 143.616 263.711 143.733 263.496 143.966C263.281 144.19 263.174 144.512 263.174 144.932C263.174 145.362 263.286 145.707 263.51 145.968C263.734 146.23 264.061 146.393 264.49 146.458L263.86 148.18C263.123 148.003 262.567 147.62 262.194 147.032C261.811 146.435 261.62 145.707 261.62 144.848Z" fill="#F3F2EF"/>
<path d="M35.76 42.0317L37.23 42.0317C38.35 43.1517 39.54 43.9544 40.8 44.4397C42.06 44.9251 43.46 45.1677 45 45.1677L45 47.0997C42.0787 47.0997 39.526 46.0544 37.342 43.9637L37.342 49.3537L35.76 49.3537L35.76 42.0317ZM42.83 34.3233L42.83 35.8213L45 35.8213L45 37.5713L42.83 37.5713L42.83 42.1773L41.808 42.1773L35.76 38.1313L35.76 35.8213L41.43 35.8213L41.43 34.3233L42.83 34.3233ZM41.43 40.3153L41.43 37.5713L38.602 37.5713L37.09 37.5293L37.09 37.5573C37.566 37.7626 38.0747 38.0426 38.616 38.3973L41.43 40.3153ZM35.62 29.6919C35.62 28.7026 35.8533 27.9326 36.32 27.3819C36.7867 26.8219 37.3933 26.5419 38.14 26.5419C38.5973 26.5419 38.994 26.6353 39.33 26.8219C39.6567 27.0086 39.904 27.2373 40.072 27.5079C40.24 27.7786 40.324 28.0353 40.324 28.2779L40.366 28.2779C40.366 27.9699 40.4453 27.6713 40.604 27.3819C40.7627 27.0833 41.0053 26.8406 41.332 26.6539C41.6493 26.4579 42.0367 26.3599 42.494 26.3599C43.0073 26.3599 43.4647 26.5093 43.866 26.8079C44.2673 27.0973 44.58 27.5033 44.804 28.0259C45.028 28.5486 45.14 29.1459 45.14 29.8179C45.14 30.7233 44.958 31.4653 44.594 32.0439C44.2207 32.6133 43.6467 33.0286 42.872 33.2899L42.088 31.5399C42.6013 31.4373 42.9793 31.2506 43.222 30.9799C43.4647 30.6999 43.586 30.3079 43.586 29.8039C43.586 29.3279 43.4693 28.9499 43.236 28.6699C42.9933 28.3899 42.6713 28.2499 42.27 28.2499C41.8407 28.2499 41.5327 28.3853 41.346 28.6559C41.15 28.9173 41.052 29.3326 41.052 29.9019L41.052 30.3639L39.708 30.3639L39.708 29.9719C39.708 28.9639 39.2833 28.4599 38.434 28.4599C38.0233 28.4599 37.7107 28.5766 37.496 28.8099C37.2813 29.0339 37.174 29.3559 37.174 29.7759C37.174 30.2053 37.286 30.5506 37.51 30.8119C37.734 31.0733 38.0607 31.2366 38.49 31.3019L37.86 33.0239C37.1227 32.8466 36.5673 32.4639 36.194 31.8759C35.8113 31.2786 35.62 30.5506 35.62 29.6919ZM42.858 23.6458C42.858 23.2165 43.012 22.8851 43.32 22.6518C43.6187 22.4185 44.0107 22.3018 44.496 22.3018C45.0653 22.3018 45.5833 22.4558 46.05 22.7638C46.526 23.0625 46.8947 23.5058 47.156 24.0938L46.484 24.9758C46.3253 24.5651 46.12 24.2198 45.868 23.9398C45.616 23.6598 45.3313 23.4731 45.014 23.3798L44.972 23.4358C45.0653 23.5291 45.112 23.6645 45.112 23.8418C45.112 24.1125 45.0187 24.3505 44.832 24.5558C44.6453 24.7611 44.3793 24.8638 44.034 24.8638C43.67 24.8638 43.3853 24.7518 43.18 24.5278C42.9653 24.3038 42.858 24.0098 42.858 23.6458ZM35.62 17.4963C35.62 16.3016 36.04 15.3823 36.88 14.7383C37.7107 14.085 38.8867 13.7583 40.408 13.7583C41.9947 13.7583 43.18 14.085 43.964 14.7383C44.748 15.3916 45.14 16.325 45.14 17.5383C45.14 18.3876 44.972 19.0876 44.636 19.6383C44.3 20.1796 43.7867 20.5903 43.096 20.8703L42.34 19.0923C42.76 18.9803 43.0773 18.8123 43.292 18.5883C43.4973 18.355 43.6 18.0003 43.6 17.5243C43.6 16.8243 43.3293 16.3156 42.788 15.9983C42.2467 15.6716 41.4673 15.5083 40.45 15.5083L40.254 15.5083L40.254 15.5643C40.73 15.6856 41.0847 15.9656 41.318 16.4043C41.5513 16.843 41.668 17.3423 41.668 17.9023C41.668 18.481 41.5467 18.999 41.304 19.4563C41.0613 19.9136 40.716 20.2776 40.268 20.5483C39.82 20.8096 39.2973 20.9403 38.7 20.9403C37.748 20.9403 36.9967 20.637 36.446 20.0303C35.8953 19.4143 35.62 18.5696 35.62 17.4963ZM37.202 17.5243C37.202 18.0283 37.3327 18.4156 37.594 18.6863C37.8553 18.957 38.224 19.0923 38.7 19.0923C39.1667 19.0923 39.5307 18.957 39.792 18.6863C40.0533 18.4156 40.184 18.0283 40.184 17.5243C40.184 17.0483 40.0487 16.6703 39.778 16.3903C39.5073 16.101 39.148 15.9563 38.7 15.9563C38.2427 15.9563 37.8787 16.101 37.608 16.3903C37.3373 16.6703 37.202 17.0483 37.202 17.5243Z" fill="#332827"/>
<path d="M16.8134 529.62C17.672 529.62 18.4094 529.765 19.0254 530.054C19.6414 530.334 20.1827 530.782 20.6494 531.398L19.3194 532.7C19.0767 532.196 18.7547 531.823 18.3534 531.58C17.952 531.328 17.4434 531.202 16.8274 531.202C16.2674 531.202 15.8334 531.309 15.5254 531.524C15.2267 531.729 15.0774 532.005 15.0774 532.35C15.0774 532.667 15.2314 532.919 15.5394 533.106C15.8474 533.293 16.4027 533.456 17.2054 533.596C18.0454 533.755 18.7127 533.951 19.2074 534.184C19.702 534.417 20.0614 534.711 20.2854 535.066C20.5187 535.411 20.6354 535.845 20.6354 536.368C20.6354 536.937 20.472 537.432 20.1454 537.852C19.828 538.263 19.38 538.58 18.8014 538.804C18.232 539.028 17.5787 539.14 16.8414 539.14C15.824 539.14 14.9887 539 14.3354 538.72C13.6914 538.431 13.1687 537.997 12.7674 537.418L13.9154 536.046C14.2607 536.615 14.6574 537.012 15.1054 537.236C15.5534 537.451 16.1087 537.558 16.7714 537.558C17.3687 537.558 17.8214 537.465 18.1294 537.278C18.4467 537.091 18.6054 536.825 18.6054 536.48C18.6054 536.228 18.456 536.018 18.1574 535.85C17.868 535.682 17.3454 535.523 16.5894 535.374C15.7214 535.197 15.026 534.987 14.5034 534.744C13.99 534.501 13.6167 534.203 13.3834 533.848C13.15 533.493 13.0334 533.055 13.0334 532.532C13.0334 531.981 13.1827 531.487 13.4814 531.048C13.78 530.6 14.214 530.25 14.7834 529.998C15.362 529.746 16.0387 529.62 16.8134 529.62ZM29.4837 531.314H26.3897V539H24.4577V531.314H21.3497V529.76H29.4837V531.314ZM38.1884 537.446V539H31.0624L31.0624 529.76H37.9924V531.314H32.9944V533.61H36.9284V535.094H32.9944V537.446H38.1884ZM43.7998 529.76C44.8731 529.76 45.7084 530.021 46.3058 530.544C46.9031 531.057 47.2018 531.785 47.2018 532.728C47.2018 533.643 46.9031 534.357 46.3058 534.87C45.7084 535.383 44.8731 535.64 43.7998 535.64H41.8538V539H39.9218V529.76H43.7998ZM43.5058 534.142C44.1031 534.142 44.5418 534.025 44.8218 533.792C45.1018 533.549 45.2418 533.19 45.2418 532.714C45.2418 532.238 45.1018 531.883 44.8218 531.65C44.5418 531.417 44.1031 531.3 43.5058 531.3H41.8538V534.142H43.5058ZM52.3466 529.62C53.2052 529.62 53.9426 529.765 54.5586 530.054C55.1746 530.334 55.7159 530.782 56.1826 531.398L54.8526 532.7C54.6099 532.196 54.2879 531.823 53.8866 531.58C53.4852 531.328 52.9766 531.202 52.3606 531.202C51.8006 531.202 51.3666 531.309 51.0586 531.524C50.7599 531.729 50.6106 532.005 50.6106 532.35C50.6106 532.667 50.7646 532.919 51.0726 533.106C51.3806 533.293 51.9359 533.456 52.7386 533.596C53.5786 533.755 54.2459 533.951 54.7406 534.184C55.2352 534.417 55.5946 534.711 55.8186 535.066C56.0519 535.411 56.1686 535.845 56.1686 536.368C56.1686 536.937 56.0052 537.432 55.6786 537.852C55.3612 538.263 54.9132 538.58 54.3346 538.804C53.7652 539.028 53.1119 539.14 52.3746 539.14C51.3572 539.14 50.5219 539 49.8686 538.72C49.2246 538.431 48.7019 537.997 48.3006 537.418L49.4486 536.046C49.7939 536.615 50.1906 537.012 50.6386 537.236C51.0866 537.451 51.6419 537.558 52.3046 537.558C52.9019 537.558 53.3546 537.465 53.6626 537.278C53.9799 537.091 54.1386 536.825 54.1386 536.48C54.1386 536.228 53.9892 536.018 53.6906 535.85C53.4012 535.682 52.8786 535.523 52.1226 535.374C51.2546 535.197 50.5592 534.987 50.0366 534.744C49.5232 534.501 49.1499 534.203 48.9166 533.848C48.6832 533.493 48.5666 533.055 48.5666 532.532C48.5666 531.981 48.7159 531.487 49.0146 531.048C49.3132 530.6 49.7472 530.25 50.3166 529.998C50.8952 529.746 51.5719 529.62 52.3466 529.62Z" fill="#F3F2EF"/>
<path d="M94.7343 536.746H91.1783L90.4223 539H88.4483L91.8223 529.76H94.1323L97.5063 539H95.5043L94.7343 536.746ZM94.2583 535.318L93.3903 532.714L92.9703 531.314H92.9423L92.5503 532.686L91.6543 535.318H94.2583ZM102.755 529.76C103.828 529.76 104.664 530.021 105.261 530.544C105.858 531.057 106.157 531.785 106.157 532.728C106.157 533.643 105.858 534.357 105.261 534.87C104.664 535.383 103.828 535.64 102.755 535.64H100.809V539H98.8769V529.76H102.755ZM102.461 534.142C103.058 534.142 103.497 534.025 103.777 533.792C104.057 533.549 104.197 533.19 104.197 532.714C104.197 532.238 104.057 531.883 103.777 531.65C103.497 531.417 103.058 531.3 102.461 531.3H100.809V534.142H102.461ZM111.302 529.62C112.16 529.62 112.898 529.765 113.514 530.054C114.13 530.334 114.671 530.782 115.138 531.398L113.808 532.7C113.565 532.196 113.243 531.823 112.842 531.58C112.44 531.328 111.932 531.202 111.316 531.202C110.756 531.202 110.322 531.309 110.014 531.524C109.715 531.729 109.566 532.005 109.566 532.35C109.566 532.667 109.72 532.919 110.028 533.106C110.336 533.293 110.891 533.456 111.694 533.596C112.534 533.755 113.201 533.951 113.696 534.184C114.19 534.417 114.55 534.711 114.774 535.066C115.007 535.411 115.124 535.845 115.124 536.368C115.124 536.937 114.96 537.432 114.634 537.852C114.316 538.263 113.868 538.58 113.29 538.804C112.72 539.028 112.067 539.14 111.33 539.14C110.312 539.14 109.477 539 108.824 538.72C108.18 538.431 107.657 537.997 107.256 537.418L108.404 536.046C108.749 536.615 109.146 537.012 109.594 537.236C110.042 537.451 110.597 537.558 111.26 537.558C111.857 537.558 112.31 537.465 112.618 537.278C112.935 537.091 113.094 536.825 113.094 536.48C113.094 536.228 112.944 536.018 112.646 535.85C112.356 535.682 111.834 535.523 111.078 535.374C110.21 535.197 109.514 534.987 108.992 534.744C108.478 534.501 108.105 534.203 107.872 533.848C107.638 533.493 107.522 533.055 107.522 532.532C107.522 531.981 107.671 531.487 107.97 531.048C108.268 530.6 108.702 530.25 109.272 529.998C109.85 529.746 110.527 529.62 111.302 529.62Z" fill="#F3F2EF"/>
<path d="M160.578 529.62C161.437 529.62 162.174 529.765 162.79 530.054C163.406 530.334 163.947 530.782 164.414 531.398L163.084 532.7C162.841 532.196 162.519 531.823 162.118 531.58C161.717 531.328 161.208 531.202 160.592 531.202C160.032 531.202 159.598 531.309 159.29 531.524C158.991 531.729 158.842 532.005 158.842 532.35C158.842 532.667 158.996 532.919 159.304 533.106C159.612 533.293 160.167 533.456 160.97 533.596C161.81 533.755 162.477 533.951 162.972 534.184C163.467 534.417 163.826 534.711 164.05 535.066C164.283 535.411 164.4 535.845 164.4 536.368C164.4 536.937 164.237 537.432 163.91 537.852C163.593 538.263 163.145 538.58 162.566 538.804C161.997 539.028 161.343 539.14 160.606 539.14C159.589 539.14 158.753 539 158.1 538.72C157.456 538.431 156.933 537.997 156.532 537.418L157.68 536.046C158.025 536.615 158.422 537.012 158.87 537.236C159.318 537.451 159.873 537.558 160.536 537.558C161.133 537.558 161.586 537.465 161.894 537.278C162.211 537.091 162.37 536.825 162.37 536.48C162.37 536.228 162.221 536.018 161.922 535.85C161.633 535.682 161.11 535.523 160.354 535.374C159.486 535.197 158.791 534.987 158.268 534.744C157.755 534.501 157.381 534.203 157.148 533.848C156.915 533.493 156.798 533.055 156.798 532.532C156.798 531.981 156.947 531.487 157.246 531.048C157.545 530.6 157.979 530.25 158.548 529.998C159.127 529.746 159.803 529.62 160.578 529.62ZM169.77 529.76C171.217 529.76 172.337 530.161 173.13 530.964C173.923 531.767 174.32 532.905 174.32 534.38C174.32 535.855 173.923 536.993 173.13 537.796C172.337 538.599 171.217 539 169.77 539H166.2V529.76H169.77ZM169.672 537.46C170.549 537.46 171.207 537.199 171.646 536.676C172.094 536.144 172.318 535.379 172.318 534.38C172.318 533.381 172.094 532.621 171.646 532.098C171.207 531.566 170.549 531.3 169.672 531.3H168.132V537.46H169.672ZM179.582 529.62C180.441 529.62 181.178 529.765 181.794 530.054C182.41 530.334 182.951 530.782 183.418 531.398L182.088 532.7C181.845 532.196 181.523 531.823 181.122 531.58C180.721 531.328 180.212 531.202 179.596 531.202C179.036 531.202 178.602 531.309 178.294 531.524C177.995 531.729 177.846 532.005 177.846 532.35C177.846 532.667 178 532.919 178.308 533.106C178.616 533.293 179.171 533.456 179.974 533.596C180.814 533.755 181.481 533.951 181.976 534.184C182.471 534.417 182.83 534.711 183.054 535.066C183.287 535.411 183.404 535.845 183.404 536.368C183.404 536.937 183.241 537.432 182.914 537.852C182.597 538.263 182.149 538.58 181.57 538.804C181.001 539.028 180.347 539.14 179.61 539.14C178.593 539.14 177.757 539 177.104 538.72C176.46 538.431 175.937 537.997 175.536 537.418L176.684 536.046C177.029 536.615 177.426 537.012 177.874 537.236C178.322 537.451 178.877 537.558 179.54 537.558C180.137 537.558 180.59 537.465 180.898 537.278C181.215 537.091 181.374 536.825 181.374 536.48C181.374 536.228 181.225 536.018 180.926 535.85C180.637 535.682 180.114 535.523 179.358 535.374C178.49 535.197 177.795 534.987 177.272 534.744C176.759 534.501 176.385 534.203 176.152 533.848C175.919 533.493 175.802 533.055 175.802 532.532C175.802 531.981 175.951 531.487 176.25 531.048C176.549 530.6 176.983 530.25 177.552 529.998C178.131 529.746 178.807 529.62 179.582 529.62Z" fill="#F3F2EF"/>
<circle cx="178" cy="45" r="3.5" fill="#332827" stroke="#332827"/>
<circle cx="178" cy="63" r="3.5" fill="#F8D448" stroke="#332827"/>
<path d="M187.143 47.872C188.111 47.224 188.879 46.656 189.447 46.168C190.015 45.68 190.427 45.228 190.683 44.812C190.939 44.396 191.067 43.984 191.067 43.576C191.067 43.2 190.951 42.896 190.719 42.664C190.495 42.432 190.183 42.316 189.783 42.316C189.343 42.316 188.995 42.468 188.739 42.772C188.483 43.076 188.343 43.508 188.319 44.068L186.891 43.528C186.947 42.728 187.243 42.1 187.779 41.644C188.315 41.188 189.015 40.96 189.879 40.96C190.495 40.96 191.015 41.076 191.439 41.308C191.871 41.54 192.195 41.848 192.411 42.232C192.627 42.608 192.735 43.024 192.735 43.48C192.735 44.224 192.455 44.928 191.895 45.592C191.335 46.248 190.443 46.952 189.219 47.704V47.716C189.683 47.684 190.167 47.668 190.671 47.668H192.855V49H187.143V47.872ZM197.269 49.12C196.221 49.12 195.429 48.776 194.893 48.088C194.365 47.4 194.101 46.384 194.101 45.04C194.101 43.696 194.365 42.68 194.893 41.992C195.429 41.304 196.221 40.96 197.269 40.96C198.317 40.96 199.105 41.304 199.633 41.992C200.169 42.68 200.437 43.696 200.437 45.04C200.437 46.384 200.169 47.4 199.633 48.088C199.105 48.776 198.317 49.12 197.269 49.12ZM197.269 47.788C197.781 47.788 198.161 47.564 198.409 47.116C198.657 46.668 198.781 45.976 198.781 45.04C198.781 44.104 198.657 43.412 198.409 42.964C198.161 42.516 197.781 42.292 197.269 42.292C196.757 42.292 196.377 42.516 196.129 42.964C195.881 43.412 195.757 44.104 195.757 45.04C195.757 45.976 195.881 46.668 196.129 47.116C196.377 47.564 196.757 47.788 197.269 47.788ZM204.493 40.96C205.341 40.96 206.001 41.16 206.473 41.56C206.953 41.96 207.193 42.48 207.193 43.12C207.193 43.512 207.113 43.852 206.953 44.14C206.793 44.42 206.597 44.632 206.365 44.776C206.133 44.92 205.913 44.992 205.705 44.992V45.028C205.969 45.028 206.225 45.096 206.473 45.232C206.729 45.368 206.937 45.576 207.097 45.856C207.265 46.128 207.349 46.46 207.349 46.852C207.349 47.292 207.221 47.684 206.965 48.028C206.717 48.372 206.369 48.64 205.921 48.832C205.473 49.024 204.961 49.12 204.385 49.12C203.609 49.12 202.973 48.964 202.477 48.652C201.989 48.332 201.633 47.84 201.409 47.176L202.909 46.504C202.997 46.944 203.157 47.268 203.389 47.476C203.629 47.684 203.965 47.788 204.397 47.788C204.805 47.788 205.129 47.688 205.369 47.488C205.609 47.28 205.729 47.004 205.729 46.66C205.729 46.292 205.613 46.028 205.381 45.868C205.157 45.7 204.801 45.616 204.313 45.616H203.917V44.464H204.253C205.117 44.464 205.549 44.1 205.549 43.372C205.549 43.02 205.449 42.752 205.249 42.568C205.057 42.384 204.781 42.292 204.421 42.292C204.053 42.292 203.757 42.388 203.533 42.58C203.309 42.772 203.169 43.052 203.113 43.42L201.637 42.88C201.789 42.248 202.117 41.772 202.621 41.452C203.133 41.124 203.757 40.96 204.493 40.96ZM211.824 49.12C210.776 49.12 209.984 48.776 209.448 48.088C208.92 47.4 208.656 46.384 208.656 45.04C208.656 43.696 208.92 42.68 209.448 41.992C209.984 41.304 210.776 40.96 211.824 40.96C212.872 40.96 213.66 41.304 214.188 41.992C214.724 42.68 214.992 43.696 214.992 45.04C214.992 46.384 214.724 47.4 214.188 48.088C213.66 48.776 212.872 49.12 211.824 49.12ZM211.824 47.788C212.336 47.788 212.716 47.564 212.964 47.116C213.212 46.668 213.336 45.976 213.336 45.04C213.336 44.104 213.212 43.412 212.964 42.964C212.716 42.516 212.336 42.292 211.824 42.292C211.312 42.292 210.932 42.516 210.684 42.964C210.436 43.412 210.312 44.104 210.312 45.04C210.312 45.976 210.436 46.668 210.684 47.116C210.932 47.564 211.312 47.788 211.824 47.788Z" fill="#F3F2EF"/>
<path d="M186.78 65.872C187.748 65.224 188.516 64.656 189.084 64.168C189.652 63.68 190.064 63.228 190.32 62.812C190.576 62.396 190.704 61.984 190.704 61.576C190.704 61.2 190.588 60.896 190.356 60.664C190.132 60.432 189.82 60.316 189.42 60.316C188.98 60.316 188.632 60.468 188.376 60.772C188.12 61.076 187.98 61.508 187.956 62.068L186.528 61.528C186.584 60.728 186.88 60.1 187.416 59.644C187.952 59.188 188.652 58.96 189.516 58.96C190.132 58.96 190.652 59.076 191.076 59.308C191.508 59.54 191.832 59.848 192.048 60.232C192.264 60.608 192.372 61.024 192.372 61.48C192.372 62.224 192.092 62.928 191.532 63.592C190.972 64.248 190.08 64.952 188.856 65.704V65.716C189.32 65.684 189.804 65.668 190.308 65.668H192.492V67H186.78V65.872ZM196.906 67.12C195.858 67.12 195.066 66.776 194.53 66.088C194.002 65.4 193.738 64.384 193.738 63.04C193.738 61.696 194.002 60.68 194.53 59.992C195.066 59.304 195.858 58.96 196.906 58.96C197.954 58.96 198.742 59.304 199.27 59.992C199.806 60.68 200.074 61.696 200.074 63.04C200.074 64.384 199.806 65.4 199.27 66.088C198.742 66.776 197.954 67.12 196.906 67.12ZM196.906 65.788C197.418 65.788 197.798 65.564 198.046 65.116C198.294 64.668 198.418 63.976 198.418 63.04C198.418 62.104 198.294 61.412 198.046 60.964C197.798 60.516 197.418 60.292 196.906 60.292C196.394 60.292 196.014 60.516 195.766 60.964C195.518 61.412 195.394 62.104 195.394 63.04C195.394 63.976 195.518 64.668 195.766 65.116C196.014 65.564 196.394 65.788 196.906 65.788ZM204.608 61.9C205.376 61.9 205.98 62.128 206.42 62.584C206.868 63.032 207.092 63.624 207.092 64.36C207.092 65.248 206.82 65.932 206.276 66.412C205.74 66.884 205.032 67.12 204.152 67.12C203.44 67.12 202.84 66.988 202.352 66.724C201.872 66.452 201.48 66.028 201.176 65.452L202.664 64.624C202.768 65.016 202.928 65.312 203.144 65.512C203.368 65.704 203.7 65.8 204.14 65.8C204.58 65.8 204.924 65.684 205.172 65.452C205.428 65.22 205.556 64.892 205.556 64.468C205.548 64.036 205.428 63.708 205.196 63.484C204.964 63.252 204.624 63.136 204.176 63.136C203.512 63.136 203.028 63.328 202.724 63.712L201.428 63.568L201.92 59.08H206.684V60.412H203.168L202.94 62.272L202.904 62.5H202.916C203.092 62.308 203.324 62.16 203.612 62.056C203.908 61.952 204.24 61.9 204.608 61.9ZM211.472 67.12C210.424 67.12 209.632 66.776 209.096 66.088C208.568 65.4 208.304 64.384 208.304 63.04C208.304 61.696 208.568 60.68 209.096 59.992C209.632 59.304 210.424 58.96 211.472 58.96C212.52 58.96 213.308 59.304 213.836 59.992C214.372 60.68 214.64 61.696 214.64 63.04C214.64 64.384 214.372 65.4 213.836 66.088C213.308 66.776 212.52 67.12 211.472 67.12ZM211.472 65.788C211.984 65.788 212.364 65.564 212.612 65.116C212.86 64.668 212.984 63.976 212.984 63.04C212.984 62.104 212.86 61.412 212.612 60.964C212.364 60.516 211.984 60.292 211.472 60.292C210.96 60.292 210.58 60.516 210.332 60.964C210.084 61.412 209.96 62.104 209.96 63.04C209.96 63.976 210.084 64.668 210.332 65.116C210.58 65.564 210.96 65.788 211.472 65.788Z" fill="#F3F2EF"/>
<path d="M232.608 539H230.396L227.162 533.568L226.364 532.014H226.35L226.406 533.652V539H224.67V529.76H226.868L230.102 535.178L230.9 536.746H230.928L230.872 535.108V529.76H232.608V539ZM242.117 537.46V539H234.431V537.544L239.821 531.3H234.543V529.76H241.949V531.216L236.559 537.46H242.117ZM251.005 537.446V539H243.879V529.76H250.809V531.314H245.811V533.61H249.745V535.094H245.811V537.446H251.005Z" fill="#F3F2EF"/>
<rect x="237" y="517" width="1" height="8" fill="#F3F2EF"/>
<rect x="170" y="517" width="1" height="8" fill="#F3F2EF"/>
<rect x="101" y="517" width="1" height="8" fill="#F3F2EF"/>
<rect x="33" y="517" width="1" height="8" fill="#F3F2EF"/>
<rect y="515" width="273" height="2" fill="#F3F2EF"/>
</svg>
