<svg width="199" height="80" viewBox="0 0 199 80" fill="none" xmlns="http://www.w3.org/2000/svg">
<g clip-path="url(#clip0_4326_227)">
<path d="M148.605 0C149.188 0.31218 149.83 0.563875 150.371 0.948246C151.579 1.80479 152.087 3.04571 152.33 4.49539C152.474 5.34413 152.977 6.13238 153.326 6.946C153.563 7.49622 153.814 8.04253 154.053 8.59275C154.09 8.6786 154.084 8.78786 154.119 8.87371C154.598 10.019 154.979 11.2151 155.59 12.2882C156.2 13.3613 157.488 13.4062 158.577 13.654C159.183 13.7596 159.793 13.8332 160.406 13.8744C162.269 14.091 163.109 15.0237 162.831 16.8772C162.538 18.8284 162.094 20.7541 161.627 22.6701C161.026 25.1539 160.46 27.6591 159.643 30.0727C159.077 31.737 158.214 33.3291 157.294 34.8373C155.856 37.1923 153.514 37.9299 150.898 38.0508C149.083 38.1108 147.311 38.6209 145.74 39.5356C145.381 39.7484 145.053 40.0112 144.767 40.3161C145.672 39.9454 146.545 39.4283 147.49 39.2391C148.811 38.962 150.158 38.8312 151.507 38.8488C155.23 38.923 158.214 36.9699 159.902 33.2023C160.165 32.6169 160.41 32.0316 160.733 31.2746C160.976 31.5926 161.17 31.7585 161.254 31.9692C162.538 35.21 163.024 38.5328 162.102 41.9531C161.195 45.3246 158.714 46.7704 155.489 47.1977C153.664 47.4396 151.834 47.6777 150 47.783C148.198 47.8825 146.386 47.8045 144.287 47.8045C145.94 48.0699 147.327 48.3898 148.727 48.4932C152.45 48.7508 156.165 48.6884 159.789 47.6152C160.19 47.4962 160.649 47.4201 160.956 47.1567C161.952 46.3177 162.917 46.6124 163.821 47.1996C167.538 49.6132 171.357 51.896 174.908 54.5378C183.159 60.68 190.619 67.6923 196.829 75.9475C197.584 76.9504 198.279 77.9981 199 79.0244V80H198.222C194.246 76.6226 190.28 73.2335 186.283 69.8795C185.546 69.261 184.682 68.7947 183.875 68.2562L183.595 68.5332C183.708 68.8337 183.813 69.1361 183.934 69.4327C184.398 70.5683 184.906 71.6902 185.309 72.8452C185.404 73.1145 185.19 73.4911 185.114 73.8208C184.817 73.7408 184.447 73.7486 184.237 73.5671C183.494 72.9424 182.791 72.2712 182.132 71.5575C176.019 64.7773 168.639 60.0946 159.704 58.0947C157.482 57.603 155.166 57.4587 152.884 57.3513C150.369 57.2323 147.827 57.4431 145.32 57.3201C143.299 57.2206 141.235 57.0567 139.29 56.5397C135.339 55.4744 132.891 52.0248 132.871 47.9255C132.871 47.2114 132.892 46.4953 132.928 45.7792C133.013 43.9686 133.886 42.5891 135.277 41.4868C135.633 41.2058 135.919 40.8253 136.298 40.5892C138.243 39.3834 138.858 37.5162 139.097 35.3739C139.708 29.9322 140.406 24.4983 141.025 19.0586C141.284 16.7797 142.114 15.6909 144.31 15.0237C144.747 14.9127 145.178 14.7779 145.6 14.6198C146.23 14.3486 146.485 13.8257 146.224 13.1896C145.963 12.5535 145.466 12.4638 144.863 12.7389C143.112 13.5369 143.192 12.9008 142.641 11.4316C142.406 10.7975 142.264 10.2415 141.583 9.93317C141.389 9.84342 141.256 9.42588 141.229 9.15272C141.097 7.77133 141.05 6.38018 140.895 5.00073C140.7 3.30911 140.994 1.76577 142.935 1.09848C143.873 0.774596 144.783 0.376567 145.707 0.0117067L148.605 0ZM143.326 35.2061C145.174 34.4256 146.162 33.2081 146.092 31.1887C146.034 29.4991 145.95 27.8582 144.565 26.7011L144.223 26.7402C143.925 29.54 143.627 32.3457 143.326 35.2061Z" fill="#F7F7F5"/>
<path d="M0 15.2186C0.900576 15.2498 2.06374 14.9513 2.62781 15.4137C3.19189 15.8761 3.15493 17.0604 3.34166 17.9502C3.96214 20.8905 4.56512 23.8367 5.14865 26.6502L7.00232 17.7824C7.04122 17.5872 7.08985 17.4058 7.13458 17.2165C7.61891 15.1132 7.93985 14.8752 10.0911 15.2654C10.3206 15.3064 10.6046 15.7005 10.661 15.9717C11.3515 19.3296 12.0051 22.6972 12.6722 26.061C12.7284 26.2456 12.7986 26.4257 12.8823 26.5995C13.6604 22.7499 14.4209 19.0155 15.1795 15.2713H17.9804C16.7589 20.4808 15.5529 25.6122 14.3489 30.7515C14.2432 30.7867 14.1344 30.8122 14.0241 30.8276C11.2815 30.9173 11.2815 30.9173 10.698 28.2072C10.1145 25.4971 9.564 22.828 8.9474 19.9208C8.19466 23.6279 7.47886 27.177 6.7514 30.769H3.6023C2.52861 26.2177 1.45752 21.6846 0.389018 17.1697C0.293708 16.7795 0.130321 16.3893 0 15.999V15.2186Z" fill="#F7F7F5"/>
<path d="M0 40.193C0.194509 39.553 0.367622 38.8994 0.612703 38.275C2.12015 34.4313 6.6522 33.007 9.85382 35.4361L8.8093 36.9795C8.12463 36.7356 7.51387 36.4078 6.86422 36.3122C5.09613 36.0488 3.71123 36.9151 3.14521 38.7023C2.4866 40.7231 2.49479 42.9029 3.16855 44.9186C3.861 46.9946 6.07451 47.8219 8.09157 46.8697C8.37944 46.7332 8.6537 46.5654 9.01937 46.3663L10.1145 47.8024C7.47497 50.4578 2.42552 49.3477 0.778035 45.7751C0.445425 45.0532 0.252861 44.265 0 43.5079V40.193Z" fill="#F7F7F5"/>
<path d="M42.6993 15.2735H45.0568V30.783C44.2515 30.783 43.4754 30.8416 42.7226 30.7518C42.4659 30.7206 42.1644 30.3616 42.0321 30.0826C40.443 26.7169 38.8811 23.3375 37.3114 19.9621C37.2453 19.8236 37.1519 19.6967 37.0799 19.5719V30.705H34.6855V15.2306C35.5258 15.2306 36.3642 15.1682 37.185 15.2657C37.4651 15.2989 37.788 15.6852 37.9377 15.9877C39.5599 19.2597 41.151 22.5473 42.6993 25.7296V15.2735Z" fill="#F7F7F5"/>
<path d="M49.2559 30.7829V15.2558C51.7145 15.2909 54.2139 14.8656 56.5772 15.929C58.3044 16.7094 59.3664 18.122 59.8527 19.9327C60.408 21.9468 60.408 24.0743 59.8527 26.0885C59.0494 29.0327 57.1082 30.5878 53.9416 30.7712C52.4166 30.8551 50.8936 30.7829 49.2559 30.7829ZM51.9479 28.5254H53.3308C55.5677 28.5254 56.6375 27.745 57.0265 25.5246C57.258 24.2017 57.2385 22.8164 57.184 21.4663C57.0576 18.3288 55.0775 16.846 51.9556 17.484L51.9479 28.5254Z" fill="#F7F7F5"/>
<path d="M81.7217 24.0221L86.0456 30.7827C84.8942 30.7827 83.9994 30.8354 83.128 30.7496C82.8693 30.7242 82.5989 30.3359 82.4219 30.0589C81.3833 28.418 80.3893 26.742 79.3312 25.1186C79.0686 24.7147 78.6212 24.4299 78.2595 24.0884L77.9657 24.2036V25.7859C77.9657 27.1829 77.9366 28.5819 77.9774 29.9789C77.9969 30.6364 77.7557 30.8432 77.1313 30.7964C76.5594 30.7554 75.9818 30.7964 75.3496 30.7964V15.3825C77.46 15.3825 79.5413 15.1874 81.5739 15.4332C83.838 15.6986 85.0964 17.3727 85.1626 19.5989C85.2229 21.6671 84.0325 23.2904 81.9785 23.9441L81.7217 24.0221ZM78.0124 22.0476C79.905 22.4027 81.2977 22.1022 81.9026 21.232C82.42 20.4847 82.525 19.0272 81.9901 18.3872C80.932 17.1229 79.4615 17.4117 78.0163 17.3707L78.0124 22.0476Z" fill="#F7F7F5"/>
<path d="M31.9944 23.1031C31.6346 24.5684 31.4284 26.0942 30.878 27.4834C30.0182 29.657 28.2677 30.8433 25.9316 30.9954C23.4244 31.1613 21.2517 30.375 20.0283 28.059C18.3127 24.8182 18.3166 21.4252 19.8999 18.1434C21.0669 15.7337 23.5956 14.6314 26.3751 15.0567C28.9621 15.4469 30.8857 17.3766 31.4771 20.2447C31.6716 21.1618 31.7163 22.1061 31.8311 23.0388L31.9944 23.1031ZM21.5824 22.9471C21.8508 24.2816 22.0064 25.6786 22.4285 26.9781C22.8953 28.4161 23.9379 28.9546 25.5406 28.9155C26.8905 28.8824 27.7814 28.258 28.2346 26.8259C29.0317 24.3414 29.0208 21.6671 28.2035 19.1892C27.7386 17.7317 26.7816 17.1327 25.2858 17.1308C23.7901 17.1288 22.802 17.7161 22.3507 19.1736C21.9617 20.3618 21.8391 21.6242 21.5921 22.9471H21.5824Z" fill="#F7F7F5"/>
<path d="M113.889 38.6636V48.9265H111.648V34.5506C112.454 34.5506 113.259 34.4921 114.047 34.5838C114.294 34.6131 114.568 35.0072 114.708 35.294C116.13 38.2383 117.528 41.1962 118.935 44.1482C118.994 44.2515 119.059 44.3512 119.129 44.4467V34.6092H121.298V48.9733C120.602 48.9733 119.89 49.0416 119.201 48.9402C118.917 48.8992 118.589 48.5499 118.448 48.2495C116.9 45.0711 115.408 41.881 113.889 38.6636Z" fill="#F7F7F5"/>
<path d="M50.9866 48.9421H48.6934V34.5448C49.4442 34.5448 50.1872 34.4824 50.9088 34.576C51.08 34.6226 51.2397 34.7044 51.3777 34.8163C51.5156 34.9281 51.6289 35.0676 51.7102 35.2257C53.1476 38.1622 54.5442 41.1181 55.9544 44.0682C55.9913 44.1463 56.0458 44.2185 56.1217 44.3433V34.6307H58.3293V48.9734C57.6447 48.9734 56.9347 49.0436 56.2461 48.9421C55.9563 48.8992 55.614 48.5519 55.4681 48.2534C54.0735 45.2994 52.7119 42.3395 51.3231 39.368C51.2589 39.2334 51.1753 39.1085 50.9866 38.7826V48.9421Z" fill="#F7F7F5"/>
<path d="M98.6428 15.2637H101.339V16.3056C101.339 19.521 101.339 22.7443 101.339 25.9519C101.339 28.1938 102.823 29.2688 104.972 28.625C105.384 28.5163 105.755 28.2909 106.042 27.9756C106.33 27.6603 106.52 27.2686 106.59 26.8475C106.685 26.3379 106.73 25.8204 106.725 25.3022C106.736 21.9853 106.725 18.682 106.725 15.3007H109.314C109.337 15.5954 109.378 15.8861 109.378 16.1592C109.378 19.5035 109.391 22.8496 109.378 26.1939C109.366 28.9918 107.769 30.7673 104.97 30.98C103.939 31.0518 102.903 30.9862 101.889 30.7849C100.026 30.42 98.7225 29.0425 98.6739 27.1382C98.5727 23.2184 98.6428 19.2908 98.6428 15.2637Z" fill="#F7F7F5"/>
<path d="M11.1543 41.5258C11.3196 40.6088 11.411 39.4342 11.7534 38.3377C12.5567 35.7642 14.5699 34.3398 17.1996 34.3398C19.9519 34.3398 21.8678 35.6861 22.747 38.3221C23.467 40.4571 23.5072 42.7639 22.8618 44.9227C22.004 47.9099 19.9441 49.2952 16.6492 49.1664C14.1809 49.0689 12.1191 47.1704 11.5161 44.3706C11.3332 43.5218 11.2924 42.6419 11.1543 41.5258ZM20.6094 41.6878C20.374 40.5171 20.2204 39.2274 19.8313 38.008C19.4423 36.7885 18.4698 36.2734 17.2016 36.2793C15.9334 36.2851 14.9861 36.8548 14.5601 38.0353C13.6852 40.4303 13.6942 43.0605 14.5854 45.4495C15.0756 46.8153 15.9898 47.2992 17.4642 47.2563C18.7401 47.2212 19.6038 46.6261 19.9928 45.2525C20.3098 44.1423 20.3993 42.9736 20.6172 41.6878H20.6094Z" fill="#F7F7F5"/>
<path d="M72.1254 28.465V30.7888H64.1039C63.6021 30.7888 63.2403 30.7752 63.2442 30.0903C63.2695 25.2476 63.2656 20.4049 63.2733 15.5642C63.2908 15.4749 63.3182 15.3878 63.355 15.3047H71.9134C71.8609 15.7613 71.7967 16.2256 71.7559 16.6919C71.7092 17.2441 71.4524 17.4548 70.8748 17.4412C69.2642 17.4041 67.6517 17.4295 65.9945 17.4295V21.5015H70.6063V23.7804H66.0684V28.4631L72.1254 28.465Z" fill="#F7F7F5"/>
<path d="M96.9183 35.9281C96.4962 36.4529 96.1169 36.929 95.7006 37.4519C94.6289 36.7222 93.526 36.2403 92.2403 36.3905C90.9935 36.5349 90.1143 37.1944 89.6903 38.3553C88.8419 40.5556 88.8116 42.9887 89.6047 45.2096C90.2155 46.9266 92.6099 47.8085 94.234 46.9656C94.3387 46.906 94.429 46.8241 94.4986 46.7257C94.5681 46.6272 94.6153 46.5146 94.6367 46.3959C94.6756 45.3325 94.6542 44.2672 94.6542 43.1394H92.2384C92.1197 42.4741 92.0069 41.8536 91.8824 41.161H97.1497C97.1731 41.4498 97.212 41.7288 97.212 42.0058C97.212 43.6975 97.1847 45.3891 97.2314 47.0788C97.2489 47.7265 97.0369 48.0836 96.4534 48.347C94.9445 49.0435 93.2733 49.3088 91.6237 49.1138C89.2001 48.8114 87.5877 47.387 86.8252 45.114C86.083 42.9416 86.1008 40.5805 86.8758 38.4197C88.3463 34.2443 93.4113 32.9546 96.9183 35.9281Z" fill="#F7F7F5"/>
<path d="M69.4798 42.3841H64.6035V48.9009H62.2246V34.6089H64.5587V40.2671H69.4078V34.6089H71.8645V48.9028H69.4798V42.3841Z" fill="#F7F7F5"/>
<path d="M77.2952 45.2269C76.9062 46.4951 76.5366 47.6677 76.1535 48.9047H73.5879C74.2998 46.7058 75.002 44.5303 75.708 42.3548C76.4764 39.99 77.2641 37.6272 78.011 35.2547C78.1802 34.7162 78.4331 34.5132 79.0225 34.5171C81.0959 34.5308 81.1018 34.5015 81.7456 36.4956C82.9853 40.3744 84.2171 44.2539 85.4413 48.134C85.5191 48.3779 85.5735 48.6277 85.6358 48.8618C85.5657 48.9028 85.5405 48.9301 85.5132 48.9321C83.043 49.1779 83.043 49.1779 82.333 46.8639C82.2339 46.5901 82.1539 46.3098 82.0938 46.0249C81.9907 45.4142 81.6911 45.18 81.0434 45.2093C79.82 45.2659 78.5907 45.2269 77.2952 45.2269ZM79.6293 37.3053C79.0186 39.4164 78.4954 41.2232 77.9624 43.0611H81.2204L79.6293 37.3053Z" fill="#F7F7F5"/>
<path d="M28.3767 43.5098V48.9066H25.9512V34.4683C28.0908 34.5658 30.2304 34.5268 32.3174 34.798C34.1128 35.0321 35.3498 36.792 35.3907 38.6651C35.4393 40.9479 34.2761 42.7137 32.2785 43.2873C31.7476 43.4201 31.2034 43.4921 30.6563 43.502C29.9289 43.5273 29.1917 43.5098 28.3767 43.5098ZM28.4175 36.5501V41.5157C29.7791 41.3811 31.2224 41.9177 32.2533 40.6221C32.8368 39.8826 32.8485 38.349 32.298 37.5705C31.2963 36.1482 29.82 36.6672 28.4078 36.5404L28.4175 36.5501Z" fill="#F7F7F5"/>
<path d="M37.6074 34.5874H45.5473C45.45 35.2371 45.3625 35.8283 45.2555 36.5385H40.0874V40.3588H44.3491V42.466H40.1283V46.7995H45.6912V48.9145H37.6074V34.5874Z" fill="#F7F7F5"/>
<path d="M103.089 42.4661V46.7937H108.64V48.9224H100.561V34.6265H108.45C108.474 34.689 108.488 34.7548 108.493 34.8216C108.269 36.5503 108.267 36.5503 106.534 36.5503C105.561 36.5503 104.589 36.5132 103.616 36.5795C103.472 36.6161 103.338 36.689 103.23 36.7914C103.121 36.8938 103.04 37.0223 102.994 37.1649C102.918 37.9687 102.961 38.7863 102.965 39.5979C102.965 39.8204 102.986 40.0428 103.004 40.3784H107.302V42.468L103.089 42.4661Z" fill="#F7F7F5"/>
<path d="M91.097 21.5015C92.2893 21.5015 93.3591 21.5639 94.4192 21.4819C95.3139 21.4137 95.5862 21.7551 95.4676 22.5863C95.4228 22.9004 95.4345 23.2223 95.4151 23.677C94.248 23.677 93.1199 23.7199 91.9995 23.6613C91.2487 23.6204 91.0678 23.9013 91.0814 24.6115C91.1242 26.6212 91.097 28.6328 91.097 30.7147H88.5684V15.3008H96.6696C96.6224 15.9048 96.536 16.505 96.411 17.0978C96.3682 17.2597 95.9675 17.4158 95.7282 17.4217C94.4639 17.4529 93.1996 17.4607 91.9373 17.4217C91.3304 17.406 91.0503 17.5602 91.0814 18.2314C91.132 19.2655 91.097 20.3015 91.097 21.5015Z" fill="#F7F7F5"/>
<path d="M113.398 15.2617H116.017V28.4864H121.737C121.578 29.3079 121.447 29.9869 121.305 30.7244H113.398V15.2617Z" fill="#F7F7F5"/>
<path d="M121.331 16.893C121.32 17.3375 121.135 17.7598 120.815 18.0675C120.495 18.3753 120.067 18.5437 119.623 18.5358C119.407 18.5331 119.193 18.4877 118.994 18.4022C118.796 18.3166 118.615 18.1926 118.464 18.0373C118.159 17.7235 117.991 17.301 117.996 16.8627C118.002 16.4244 118.18 16.0062 118.493 15.7001C118.806 15.3941 119.227 15.2252 119.664 15.2306C120.104 15.2331 120.525 15.4088 120.837 15.7197C121.148 16.0306 121.326 16.452 121.331 16.893Z" fill="#F7F7F5"/>
</g>
<defs>
<clipPath id="clip0_4326_227">
<rect width="199" height="80" fill="white"/>
</clipPath>
</defs>
</svg>
