<svg width="286" height="32" viewBox="0 0 286 32" fill="none" xmlns="http://www.w3.org/2000/svg">
<g clip-path="url(#clip0_4859_1003)">
<path d="M68.0781 27.7111C66.756 27.5202 65.1769 27.0359 65.0132 26.771C64.9741 26.7077 64.8941 26.7806 64.8025 26.9632C64.5258 27.515 64.649 27.5036 59.8349 27.4227C57.4293 27.3823 54.0151 27.3492 52.2477 27.3492C50.4803 27.3492 48.9841 27.3167 48.9227 27.277C48.7437 27.1611 48.794 26.9544 49.012 26.9104C49.1225 26.888 49.4597 26.8481 49.7614 26.8217C50.7509 26.7351 50.965 26.5365 51.1949 25.4919C51.3167 24.9383 51.3414 23.6672 51.3742 16.2548C51.4154 6.97713 51.3929 6.34711 51.0024 5.83513C50.7783 5.5413 50.154 5.25718 49.7325 5.25718H49.5252L49.524 6.93082C49.5226 8.84592 49.4985 9.00613 49.212 9.00613C48.9781 9.00613 48.9004 8.85561 48.9004 8.40219C48.9004 7.85379 48.5831 7.33648 48.0653 7.04077C47.2649 6.58365 46.5662 6.47923 43.6029 6.37396L42.2775 6.32688L42.3212 15.3206C42.3653 24.3869 42.401 25.3937 42.699 25.97C42.9843 26.5216 43.2706 26.6285 44.7934 26.7522C45.4365 26.8044 45.5559 26.839 45.5832 26.9815C45.6009 27.0738 45.5715 27.1764 45.518 27.2095C45.3811 27.2941 35.4912 27.2707 35.3551 27.1854C35.1928 27.0838 35.2185 26.8773 35.3997 26.8266C35.4856 26.8025 35.9829 26.7561 36.5048 26.7234C37.6375 26.6526 37.9374 26.5109 38.197 25.9241C38.5347 25.1606 38.5618 24.4605 38.6091 15.2781L38.6552 6.33102L37.5072 6.37937C35.4288 6.46692 33.9541 6.58673 33.6368 6.69382C33.0916 6.87784 32.7696 7.19057 32.4732 7.82387C32.3182 8.15501 32.1607 8.48619 32.1233 8.55983C32.0859 8.63347 31.9793 8.69372 31.8865 8.69372C31.6605 8.69372 31.5989 8.25472 31.5904 6.58227L31.5838 5.27417L31.2045 5.3226C30.4984 5.41275 30.072 5.76293 29.8858 6.40558C29.7497 6.87544 29.7198 7.97192 29.5683 18.051C29.4931 23.0502 29.3947 27.2377 29.3496 27.3565C29.2472 27.6256 29.0076 27.6333 28.683 27.378C28.4579 27.201 21.9696 20.1562 16.4689 14.1163C15.2506 12.7785 14.2402 11.684 14.2236 11.684C14.2071 11.684 14.2114 12.5375 14.2333 13.5808C14.2551 14.624 14.3116 17.4658 14.3587 19.896C14.4058 22.3261 14.4863 24.5755 14.5376 24.8946C14.5888 25.2137 14.7306 25.6815 14.8527 25.9342C15.1397 26.5282 15.4668 26.6892 16.5072 26.7485C17.4022 26.7995 17.5734 26.8652 17.4262 27.1012C17.3323 27.2518 16.8871 27.259 8.78869 27.242C4.09251 27.2321 0.208487 27.1982 0.157528 27.1667C0.106569 27.1352 0.0774748 27.044 0.092879 26.964C0.114275 26.8529 0.304641 26.7943 0.900424 26.7153C1.32917 26.6585 1.78408 26.5438 1.91132 26.4604C2.54589 26.0446 2.58969 25.2658 2.55659 14.9866C2.52947 6.56378 2.52915 6.55085 2.33694 6.135C2.07547 5.56929 1.8209 5.42747 0.851768 5.30768C0.218837 5.22943 0.0249894 5.17318 0.00348651 5.06152C-0.011844 4.98191 0.0248355 4.88636 0.0849928 4.84918C0.251788 4.7461 8.63702 4.76839 8.74082 4.87219C8.95353 5.08491 8.71992 5.2354 8.08059 5.29753C7.19214 5.38387 6.75307 5.59249 6.54733 6.02606C6.41437 6.30625 6.36698 6.73219 6.3002 8.24731C6.19729 10.5823 6.28551 24.5774 6.40735 25.245C6.51171 25.8168 6.84578 26.2732 7.35427 26.5388C7.63265 26.6841 7.91434 26.7295 8.69694 26.7551C10.2631 26.8062 10.9342 26.5966 11.5104 25.8764C12.0592 25.1904 12.0421 25.4503 12.5668 9.87639C12.6706 6.79662 12.7816 4.56112 12.8358 4.45984C12.9488 4.2488 13.2263 4.15188 13.5122 4.22364C13.7251 4.27707 16.0712 6.82053 23.2341 14.7635C25.0935 16.8254 26.8539 18.7735 27.1462 19.0926L27.6775 19.6728L27.629 13.2907C27.5969 9.05024 27.5472 6.7767 27.4811 6.51576C27.2674 5.67185 26.8329 5.37372 25.688 5.28543C25.1856 5.24669 24.9474 5.19069 24.9139 5.10343C24.7947 4.79275 25.0149 4.77119 28.3329 4.7687L31.594 4.76622L31.7597 4.54653C31.9195 4.33478 31.9412 4.33088 32.3614 4.43859C33.2868 4.67576 34.6136 4.71847 41.1026 4.72C46.8081 4.72134 47.9191 4.70081 48.543 4.58246C49.22 4.45403 49.2891 4.45472 49.4402 4.59147C49.5897 4.7268 50.1644 4.73883 56.0863 4.73059C61.4764 4.72309 62.6769 4.69903 63.2102 4.58776C63.563 4.51417 63.8975 4.45392 63.9536 4.45388C64.1188 4.45388 64.1523 4.66202 64.0622 5.13029C64.0157 5.37189 63.9231 6.28729 63.8563 7.16451C63.7321 8.79551 63.6516 9.07788 63.3443 8.95999C63.2488 8.92331 63.1904 8.72898 63.1522 8.3201C63.0903 7.6572 62.8261 7.0328 62.5237 6.83464C61.9646 6.46827 61.4358 6.40309 58.3621 6.32161C55.6148 6.24878 55.3628 6.25446 55.2603 6.39163C55.0912 6.61777 55.0995 14.1711 55.269 14.403C55.3843 14.5605 55.535 14.5639 58.8171 14.4825C62.5258 14.3905 62.617 14.3773 63.0976 13.8658C63.2103 13.7458 63.3801 13.6477 63.4749 13.6477C63.6253 13.6477 63.6414 13.6959 63.6015 14.027C63.5764 14.2357 63.4857 15.3102 63.4 16.4148C63.2386 18.4941 63.1635 18.8008 62.8742 18.5607C62.7981 18.4976 62.7358 18.3122 62.7358 18.1488C62.7358 17.6239 62.5475 16.9523 62.3265 16.6898C61.8865 16.1668 61.6407 16.1268 58.3621 16.0458C55.5806 15.9771 55.3637 15.9827 55.2556 16.1264C55.1634 16.2489 55.1449 17.0559 55.1663 20.0298C55.1907 23.4129 55.209 23.8136 55.354 24.1358C55.5842 24.6472 55.9839 25.0229 56.5842 25.2923C57.4989 25.7028 58.3008 25.8137 60.4151 25.8221C62.6691 25.831 63.1852 25.7302 63.8403 25.1536C64.4308 24.6339 64.6386 24.014 64.9198 21.9339C65.0163 21.2201 65.4902 21.0794 65.6177 21.7267C65.9642 23.485 66.263 24.1537 67.0567 24.9474C67.9665 25.8572 69.0305 26.2834 70.637 26.3818C73.7952 26.5751 75.9662 24.7391 75.5095 22.2613C75.2317 20.754 74.1451 19.5382 71.4834 17.7566C69.2887 16.2876 68.5649 15.7352 67.5691 14.7696C65.8145 13.068 65.1184 11.6504 65.1117 9.76483C65.1066 8.31448 65.5081 7.36817 66.5766 6.31188C67.1498 5.74529 67.4311 5.54812 68.1942 5.17807C69.8451 4.37753 71.2102 4.1366 73.6703 4.21161C75.2663 4.26028 77.2464 4.52405 77.7317 4.75266L77.9548 4.85778L77.9787 7.02409C77.9941 8.41634 77.969 9.25317 77.9086 9.36604C77.8545 9.46721 77.7221 9.54167 77.5963 9.54167C77.3708 9.54167 77.3543 9.50803 77.2459 8.82759C77.1553 8.25907 76.68 7.40293 76.1886 6.92331C75.2525 6.00959 74.114 5.58986 72.5545 5.58363C71.0888 5.57773 70.0464 5.91652 69.3011 6.6409C68.713 7.21245 68.494 7.75221 68.5045 8.60443C68.5237 10.1672 69.2999 11.05 72.5099 13.1596C75.3224 15.008 76.9999 16.4048 77.8709 17.6235C78.2559 18.1622 78.892 19.3922 78.892 19.598C78.892 19.6579 78.9287 19.7295 78.9735 19.7572C79.048 19.8032 83.3338 14.0741 87.9511 7.75646C90.1509 4.74649 90.2493 4.63233 90.6453 4.63233C91.1933 4.63233 91.1689 4.47129 91.6558 11.2889C92.5482 23.7843 92.6137 24.4861 93.0045 25.7514C93.3063 26.7286 93.7524 27.0331 94.8857 27.0358C95.1504 27.0365 95.3562 27.0897 95.4478 27.1813C95.5809 27.3144 95.5806 27.3387 95.4438 27.4898C95.3622 27.58 95.1293 27.6769 94.9264 27.7051C94.7234 27.7334 92.9305 27.7251 90.9422 27.6868L87.3271 27.617L87.2986 27.4158C87.2697 27.2124 87.3086 27.1841 87.75 27.0875C88.2736 26.9728 88.2755 26.9538 88.1335 23.3923C88.0627 21.6143 87.9804 20.1204 87.9507 20.0724C87.9173 20.0183 86.7321 19.9852 84.8325 19.9852C82.0409 19.9852 81.7524 19.9991 81.5914 20.1414C81.2244 20.4657 77.0176 26.6726 77.0176 26.8896C77.0176 27.1537 77.1593 27.2153 77.7665 27.2153C78.2873 27.2153 78.6502 27.3994 78.4767 27.5756C78.4048 27.6485 77.7042 27.6871 76.1559 27.7033C74.9361 27.7161 72.8134 27.751 71.4388 27.781C69.5331 27.8224 68.7349 27.8058 68.0781 27.711L68.0781 27.7111ZM87.862 18.469C87.9149 18.3833 87.6835 13.0938 87.5854 12.1475C87.5583 11.887 87.5011 11.6861 87.4582 11.7012C87.3244 11.7482 82.7367 18.406 82.7846 18.4836C82.8511 18.591 87.7954 18.5768 87.862 18.469ZM150.524 27.7428C149.024 27.5385 147.525 27.0638 147.301 26.7228C147.184 26.5438 147.168 26.1527 147.192 24.066C147.223 21.4957 147.25 21.3241 147.631 21.3241C147.832 21.3241 147.98 21.5813 147.98 21.933C147.98 22.3813 148.38 23.6036 148.701 24.1375C149.559 25.565 151.299 26.4147 153.354 26.4104C155.338 26.4063 156.972 25.5696 157.621 24.2251C158.027 23.3845 157.954 22.1577 157.437 21.1456C156.88 20.054 156.031 19.2705 153.737 17.7303C151.619 16.3078 150.872 15.7356 149.866 14.7662C148.128 13.0909 147.417 11.622 147.423 9.72022C147.431 7.10729 149.314 5.19408 152.616 4.44355C154.43 4.03111 157.855 4.15991 159.93 4.71864L160.298 4.81775V7.03853C160.298 8.25996 160.274 9.32285 160.244 9.40051C160.171 9.59057 159.788 9.58024 159.688 9.38549C159.644 9.29958 159.586 9.05607 159.559 8.84435C159.439 7.90372 158.517 6.7169 157.486 6.17739C156.683 5.75674 155.953 5.60005 154.814 5.60336C153.307 5.60778 152.451 5.8905 151.637 6.65224C151.065 7.18681 150.816 7.77992 150.816 8.60877C150.816 10.1367 151.658 11.091 154.853 13.1871C157.06 14.6352 158.055 15.4047 159.188 16.5402C160.797 18.1525 161.359 19.3256 161.435 21.2349C161.485 22.4911 161.34 23.1965 160.831 24.1754C160.191 25.4045 158.833 26.5498 157.324 27.1315C155.967 27.6551 155.277 27.7641 153.112 27.7976C152.032 27.8142 150.867 27.7896 150.524 27.7428ZM237.218 27.7418C235.573 27.5601 234.025 27.0387 232.682 26.2146C231.688 25.6046 230.288 24.2157 229.604 23.1617C226.468 18.3279 226.987 11.4215 230.79 7.39117C232.794 5.26672 235.525 4.18647 238.892 4.18692C241.405 4.18759 243.312 4.66666 245.229 5.77996C246.246 6.37008 247.747 7.88445 248.375 8.95455C249.557 10.9652 250.081 13.2678 249.98 16.0131C249.83 20.1027 248.187 23.545 245.378 25.6532C243.208 27.2817 240.146 28.0654 237.218 27.7418ZM241.331 25.9109C243.97 25.0378 245.417 22.4051 245.718 17.931C246.056 12.8927 244.528 8.70304 241.67 6.83162C240.769 6.24184 240.261 6.02788 239.297 5.83257C237.293 5.42673 235.284 6.03642 233.928 7.46136C232.981 8.45671 232.266 10.0467 231.929 11.9071C231.73 13.0019 231.654 15.7649 231.79 16.9509C232.323 21.6047 234.444 24.8498 237.625 25.8773C238.857 26.2753 240.193 26.2875 241.331 25.9109ZM272.856 27.7867C271.068 27.5794 270.027 27.3149 268.874 26.7744C267.87 26.3039 267.135 25.7896 266.273 24.9531C265.869 24.5603 265.524 24.2559 265.507 24.2767C265.491 24.2974 265.429 24.6897 265.37 25.1484C265.21 26.3955 265.095 26.8424 264.866 27.1086L264.659 27.3492L261.639 27.3412C251.835 27.3153 249.56 27.2804 249.456 27.154C249.276 26.9378 249.515 26.824 250.287 26.7576C251.184 26.6805 251.419 26.5276 251.637 25.8805C251.931 25.0065 251.979 23.3265 251.951 14.8527L251.924 6.64071L251.725 6.23709C251.616 6.01509 251.415 5.76873 251.279 5.68962C250.973 5.51148 250.213 5.34642 249.699 5.34642C249.283 5.34642 249.073 5.19728 249.2 4.99221C249.265 4.88753 250.074 4.86618 254.162 4.86131C259.135 4.85542 259.387 4.87138 259.266 5.18568C259.229 5.28345 259.001 5.33376 258.403 5.37618C257.194 5.462 256.847 5.65396 256.599 6.37292C256.422 6.88772 256.418 22.9324 256.594 23.868C256.756 24.7223 256.918 25.0235 257.381 25.3305C257.9 25.6743 258.35 25.7324 260.404 25.7214C262.261 25.7115 263.138 25.5842 263.779 25.2318C264.188 25.0069 264.671 24.3632 264.83 23.8317C264.925 23.5169 264.907 23.4602 264.477 22.7098C263.283 20.6279 262.736 18.5233 262.736 16.0131C262.736 12.6182 263.869 9.57646 265.943 7.40589C268.02 5.23154 270.648 4.18604 274.036 4.18604C279.98 4.18604 283.935 7.33689 284.955 12.8853C285.075 13.5351 285.095 14.0871 285.061 15.8309C285.016 18.1476 284.914 18.7824 284.321 20.4315C282.948 24.2494 279.919 26.8658 276.018 27.6042C275.289 27.7422 273.408 27.8507 272.856 27.7867ZM276.243 25.9977C277.144 25.7447 277.771 25.3584 278.539 24.5819C279.152 23.9626 279.342 23.6962 279.724 22.9129C280.258 21.8209 280.642 20.4071 280.801 18.9476C280.966 17.4405 280.877 14.4827 280.629 13.2588C279.953 9.92048 278.332 7.49419 276.025 6.3683C273.75 5.25827 271.099 5.57336 269.409 7.15484C268.189 8.29564 267.535 9.62492 267.093 11.8625C266.865 13.0172 266.816 16.0756 267.004 17.4235C267.616 21.8113 269.683 24.8506 272.75 25.873C273.843 26.2371 275.216 26.2861 276.243 25.9977ZM194.277 27.193C193.875 26.8156 189.06 21.6 183.109 15.0967C181.394 13.222 179.978 11.7005 179.963 11.7155C179.948 11.7305 179.98 14.1472 180.034 17.0859L180.131 22.429L181.034 23.5405C182.18 24.9512 183.157 25.9904 183.667 26.3414C183.988 26.5625 184.184 26.6245 184.671 26.6594C185.193 26.6967 185.283 26.7286 185.327 26.8921C185.356 27.0027 185.326 27.1203 185.253 27.1748C185.169 27.2376 183.58 27.2632 180.412 27.2527C177.818 27.2442 175.648 27.2323 175.59 27.2263C175.431 27.2098 175.354 26.8675 175.476 26.7201C175.551 26.629 175.773 26.5904 176.22 26.5902C177.033 26.5895 177.462 26.3693 177.419 25.9743C177.4 25.795 176.654 24.8134 174.911 22.6736L172.431 19.6282H169.052H165.673L165.607 21.2075C165.523 23.2261 165.594 25.2719 165.765 25.7422C166.032 26.4778 166.511 26.7467 167.633 26.7904C168.281 26.8157 168.363 26.8521 168.316 27.0946C168.287 27.2468 168.077 27.2558 164.518 27.2578C161.053 27.2597 160.738 27.2475 160.595 27.1044C160.367 26.8763 160.516 26.7994 161.312 26.7362C162.243 26.6621 162.636 26.4424 162.937 25.8269C163.159 25.3736 163.174 25.1983 163.882 15.0255C164.277 9.33811 164.635 4.59379 164.678 4.48254C164.764 4.25549 165.105 4.13608 165.408 4.22694C165.564 4.27385 172.431 12.7533 177.684 19.3865L177.952 19.725L178.011 18.36C178.044 17.6092 178.161 14.1875 178.272 10.7562L178.475 4.5175L178.688 4.34488C178.809 4.24643 178.987 4.1887 179.101 4.21052C179.517 4.29007 179.197 3.95306 186.365 11.8538C188.797 14.5342 191.388 17.3874 192.122 18.1943L193.458 19.6614L193.464 16.9446C193.467 15.4504 193.447 12.5208 193.419 10.4343L193.369 6.6407L193.146 6.19904C192.821 5.55636 192.596 5.42968 191.569 5.31094C190.787 5.22053 190.691 5.19001 190.691 5.03245C190.691 4.75807 191.096 4.73882 195.601 4.79885C197.859 4.82894 201.675 4.86088 204.08 4.86982C208.071 4.88467 208.542 4.90223 209.459 5.0701C210.598 5.27868 211.838 5.71343 212.416 6.10677C213.375 6.75868 214.166 7.96244 214.414 9.14644C214.645 10.2452 214.439 11.9452 213.918 13.2424C213.323 14.7231 212.32 15.7952 210.864 16.5066C209.563 17.1422 208.955 17.2627 207.053 17.2627C205.439 17.2627 205.199 17.215 205.313 16.9166C205.368 16.7751 205.597 16.7228 206.503 16.6451C208.247 16.4955 209.826 14.9884 210.353 12.9706C210.547 12.2281 210.536 10.4613 210.332 9.67557C210.113 8.82891 209.667 8.03272 209.079 7.43786C208.45 6.8021 207.777 6.45409 206.808 6.26382C205.989 6.10309 204.284 6.13261 204.107 6.31059C204.013 6.4045 203.994 8.1594 204.007 15.4598C204.017 21.2232 204.056 24.7137 204.116 25.1029C204.301 26.3116 204.75 26.745 205.725 26.6566C206.829 26.5565 207.402 26.0439 209.257 23.4988C209.847 22.6904 212.337 19.3165 214.792 16.0011C217.246 12.6857 220.158 8.74494 221.263 7.2438C222.368 5.74265 223.379 4.43521 223.509 4.3384C223.757 4.15491 224.131 4.16198 224.323 4.35381C224.438 4.46846 224.438 4.47004 225.042 12.8443C225.84 23.9027 225.881 24.3191 226.285 25.4747C226.462 25.9827 226.95 26.4742 227.333 26.5316C227.505 26.5573 227.886 26.6112 228.181 26.6513C228.631 26.7128 228.716 26.7526 228.716 26.9017C228.716 27.2789 228.475 27.2994 224.438 27.266C221.343 27.2404 220.601 27.2114 220.539 27.1133C220.416 26.9181 220.495 26.8227 220.9 26.6801C221.135 26.5972 221.322 26.4606 221.389 26.3227C221.546 26.0014 221.306 19.8191 221.131 19.6391C221.03 19.5362 220.502 19.5289 217.909 19.5944L214.808 19.6728L212.498 23.0127C211.227 24.8497 210.199 26.412 210.213 26.4844C210.257 26.7031 210.509 26.8025 211.12 26.8413C211.706 26.8787 211.859 26.9782 211.707 27.2234C211.644 27.3237 211.424 27.3409 210.621 27.3084C209.275 27.2537 202.102 27.2014 200.421 27.234C197.184 27.2967 196.876 27.2686 197.009 26.9227C197.042 26.8369 197.277 26.778 197.744 26.7385C198.585 26.6674 198.855 26.5462 199.068 26.1432C199.413 25.4946 199.439 24.7386 199.439 15.4775C199.439 6.72805 199.435 6.5445 199.26 6.20016C199.162 6.00696 198.979 5.77365 198.853 5.68171C198.36 5.32212 196.632 5.23673 196.156 5.54846C196.032 5.62964 195.856 5.88852 195.766 6.12375C195.577 6.61129 195.528 8.30781 195.353 20.2976C195.299 23.9305 195.232 27.0196 195.203 27.1622C195.151 27.4179 194.985 27.582 194.784 27.5756C194.727 27.5738 194.499 27.4017 194.277 27.193H194.277ZM171.083 18.0192C171.015 17.8146 165.966 11.6935 165.915 11.7532C165.842 11.8377 165.637 17.9219 165.703 18.0288C165.775 18.1465 171.122 18.137 171.083 18.0192ZM221.114 18.0438C221.135 18.0069 221.079 16.571 220.989 14.8527C220.898 13.1344 220.823 11.6181 220.821 11.4831C220.818 11.3481 220.782 11.2376 220.74 11.2376C220.66 11.2376 216.131 17.7102 216.034 17.9642C215.982 18.0979 216.2 18.1107 218.526 18.1107C219.927 18.1107 221.092 18.0806 221.114 18.0438Z" fill="#006A33"/>
<path d="M138.367 0H106.367V32H138.367V0Z" fill="#EC6D2D"/>
<path d="M136.626 1.74072H108.107V30.2596H136.626V1.74072Z" fill="white"/>
<path d="M133.486 9.70254C133.462 9.67836 132.341 9.61843 130.994 9.56933C129.648 9.52025 127.984 9.443 127.297 9.39767C125.335 9.26832 121.798 9.24909 115.506 9.33359C110.126 9.40583 109.691 9.40061 109.638 9.26311C109.607 9.18144 109.626 9.04358 109.68 8.95677C109.772 8.80995 110.228 8.79098 116.217 8.68497C119.758 8.62229 123.499 8.59636 124.53 8.62736C125.561 8.65834 128.273 8.6958 130.557 8.71059C133.547 8.72994 134.766 8.76719 134.909 8.84345C135.189 8.99317 135.177 9.4126 134.887 9.60234C134.68 9.73765 133.599 9.81503 133.486 9.70254Z" fill="#E3B228"/>
<path d="M127.888 23.162C127.828 23.0167 127.772 22.2386 127.753 21.2989C127.735 20.3673 127.68 19.6083 127.624 19.5031C127.57 19.4028 127.555 19.2921 127.59 19.2569C127.625 19.2218 127.658 18.6441 127.663 17.9732C127.681 15.6351 127.828 14.4003 128.167 13.7474C128.569 12.9725 129.847 12.034 130.727 11.8678C132.071 11.6139 133.246 12.0011 133.929 12.9224C134.135 13.2008 134.304 13.4959 134.304 13.5781C134.304 13.6602 134.341 13.7656 134.387 13.8123C134.686 14.1163 134.958 17.9101 134.893 20.8594C134.871 21.8413 134.85 22.7953 134.846 22.9794C134.839 23.3334 134.723 23.3881 134.247 23.2606C134.038 23.2043 133.887 22.6457 134.034 22.4686C134.079 22.4146 134.105 21.9612 134.092 21.461C134.078 20.9607 134.103 20.5397 134.146 20.5253C134.191 20.5104 134.19 20.4069 134.145 20.2841C134.1 20.1642 134.098 19.8947 134.139 19.6751C134.179 19.4585 134.179 19.2145 134.138 19.1331C134.097 19.0516 134.059 18.3824 134.053 17.646C134.047 16.9096 134.013 16.1063 133.978 15.8608C133.942 15.6154 133.922 15.3802 133.933 15.3382C133.944 15.2962 133.908 15.2076 133.853 15.1413C133.798 15.0749 133.777 14.9817 133.806 14.9342C133.835 14.8866 133.824 14.7543 133.78 14.6402C133.737 14.526 133.63 14.2117 133.542 13.9417C133.324 13.2691 133.143 13.036 132.638 12.7821C132.063 12.4927 132.029 12.4845 131.358 12.4739C130.171 12.4551 129.176 13.0789 128.73 14.1211C128.369 14.9622 128.282 16.0781 128.28 19.8762C128.279 23.0027 128.264 23.3588 128.135 23.3838C128.047 23.4009 127.951 23.3151 127.888 23.162H127.888Z" fill="#EC6D2D"/>
<path d="M119.167 23.0929C119.04 22.8998 119.009 22.5817 118.985 21.2122C118.968 20.2649 118.915 19.4874 118.86 19.3842C118.807 19.2854 118.791 19.1606 118.824 19.107C118.87 19.0319 118.883 17.8606 118.848 16.9321C118.83 16.4777 119.098 14.4922 119.237 14.0519C119.499 13.216 120.107 12.5343 121 12.0745C121.389 11.8742 121.813 11.7103 121.941 11.7103C122.07 11.7103 122.243 11.6761 122.326 11.6344C122.573 11.5096 123.69 11.667 124.168 11.8937C125.061 12.3185 125.629 13.1679 125.874 14.4466C125.941 14.7986 126.037 15.8433 126.088 16.7681C126.186 18.5696 126.212 22.6091 126.127 22.9259C126.06 23.1755 125.578 23.2636 125.355 23.0672C125.177 22.9106 125.158 22.6171 125.293 22.1303C125.344 21.9456 125.355 21.7447 125.317 21.684C125.222 21.5325 125.281 20.428 125.387 20.3623C125.442 20.3283 125.442 20.228 125.387 20.0832C125.334 19.943 125.332 19.7199 125.383 19.4958C125.443 19.2264 125.431 19.0716 125.336 18.8876C125.265 18.7519 125.231 18.6039 125.258 18.5588C125.307 18.4806 125.303 17.8236 125.245 16.3519C125.23 15.9837 125.211 15.6824 125.201 15.6824C125.192 15.6824 125.172 15.6021 125.158 15.5039C124.856 13.4411 124.53 12.8471 123.493 12.4743C123.003 12.2979 122.035 12.2724 121.844 12.4308C121.785 12.4798 121.702 12.5123 121.66 12.5029C121.53 12.4738 121.049 12.7242 120.696 13.0046C120.499 13.1619 120.24 13.5118 120.07 13.8526C119.657 14.6794 119.539 16.055 119.534 20.0931C119.53 23.3921 119.504 23.6079 119.167 23.0929H119.167Z" fill="#006A32"/>
<path d="M110.254 23.058C110.159 22.8749 110.116 22.3687 110.09 21.1643C110.071 20.218 110.015 19.4438 109.959 19.3397C109.902 19.2334 109.893 19.1028 109.938 19.0229C109.979 18.9481 110.009 18.3667 110.004 17.7309C109.999 17.0951 110.023 16.2937 110.057 15.9501C110.091 15.6064 110.139 15.0842 110.164 14.7897C110.315 13.0015 112.081 11.5684 114.073 11.6179C114.617 11.6315 115.323 11.8612 115.746 12.1625C115.881 12.2589 116.129 12.528 116.296 12.7604C117.053 13.815 117.187 14.8114 117.2 19.4719L117.21 23.083L116.933 23.14C116.776 23.1723 116.597 23.1537 116.519 23.0967C116.371 22.9886 116.248 22.3581 116.362 22.2882C116.451 22.233 116.531 21.8161 116.465 21.75C116.401 21.6863 116.387 20.3685 116.45 20.3685C116.475 20.3685 116.485 20.0572 116.471 19.6767C116.457 19.2962 116.431 18.4226 116.412 17.7353C116.374 16.3149 116.282 15.0998 116.204 14.9735C116.175 14.9265 116.142 14.8056 116.131 14.7049C116.091 14.3399 115.919 13.798 115.698 13.3426C115.497 12.9276 115.408 12.8464 114.878 12.5907C114.365 12.3431 114.199 12.3063 113.661 12.3207C113.319 12.3299 112.993 12.366 112.938 12.4008C112.882 12.4357 112.796 12.4677 112.747 12.472C112.533 12.4907 112.007 12.7964 111.707 13.0773C111.346 13.4139 110.897 14.2832 110.868 14.7004C110.857 14.8477 110.803 15.3699 110.747 15.8608C110.689 16.377 110.649 18.0709 110.653 19.8775C110.657 21.5958 110.658 23.0476 110.655 23.1037C110.643 23.3326 110.381 23.3027 110.254 23.058H110.254Z" fill="#295493"/>
</g>
<defs>
<clipPath id="clip0_4859_1003">
<rect width="285.076" height="32" fill="white"/>
</clipPath>
</defs>
</svg>
