<svg width="559" height="227" viewBox="0 0 559 227" fill="none" xmlns="http://www.w3.org/2000/svg">
<path d="M268.45 149.61V143.47H299.91V149.61H268.45Z" fill="white"/>
<path d="M284.18 162.34H294.1V152.79H274.3V162.34H284.22" fill="white"/>
<path d="M274.3 140.29C274.3 135.02 272.9 129.88 268.69 126.38H299.75C295.54 129.88 294.17 135.02 294.14 140.29H274.3Z" fill="white"/>
<path d="M247.99 116.24V111.71H320.37V116.24H247.99Z" fill="white"/>
<path d="M251.23 132.59C255.648 131.605 259.724 129.461 263.04 126.38H250.46L251.23 132.59Z" fill="white"/>
<path d="M317.13 132.59C312.706 131.604 308.624 129.461 305.3 126.38H317.89L317.13 132.59Z" fill="white"/>
<path d="M246.77 101.76C242.77 78.27 235.15 53.76 226.72 37.76C235.773 42.64 245.5 50.4134 255.9 61.08C251.62 59.9311 247.28 59.0164 242.9 58.34C248.8 72.5388 253.976 87.0273 258.41 101.75L246.77 101.76Z" fill="white"/>
<path d="M321.59 101.76C325.59 78.27 333.21 53.76 341.59 37.76C332.577 42.64 322.87 50.4134 312.47 61.08C316.73 59.9329 321.05 59.0182 325.41 58.34C319.518 72.5406 314.344 87.029 309.91 101.75L321.59 101.76Z" fill="white"/>
<path d="M244.16 109.35V104.75H324.16V109.35H244.16Z" fill="white"/>
<path d="M516.99 219.73C520.657 212.357 524.323 204.98 527.99 197.6H515.99C512.83 203.96 509.667 210.327 506.5 216.7C506.082 217.669 505.369 218.481 504.462 219.02C503.555 219.559 502.501 219.797 501.45 219.7H472.39C476.33 211.84 480.253 203.967 484.16 196.08C485.81 192.75 486.44 192.51 490.32 192.51H493.79C497.19 192.51 498.79 191.6 500.13 188.89C500.67 187.8 501.21 186.71 501.76 185.62H489.35L494.69 174.87H486.86C483.46 174.87 481.86 175.78 480.53 178.46L476.97 185.62H470.46L467.04 192.51H473.55L461.55 216.72C461.145 217.688 460.442 218.501 459.542 219.041C458.643 219.58 457.594 219.818 456.55 219.72H430.63L444.37 194.6H434.88C432.67 194.6 431.72 195.32 430.33 196.97C430.33 195.16 429.67 194.6 427.94 194.6H421.35C410.55 194.6 404.52 197.94 399.83 206.51L394.24 216.73C393.813 217.681 393.105 218.479 392.211 219.015C391.317 219.552 390.28 219.801 389.24 219.73H372.56C366.56 219.73 364.16 218.86 363.49 215.73C362.77 212.32 364.3 209.56 372.38 204.2L376.95 201.2C379.08 199.79 379.95 199.05 379.65 197.53C379.4 196.16 378.57 194.65 371.97 194.65H340.65C337.33 194.65 335.79 195.53 334.29 198.27L324.16 216.8C323.735 217.753 323.028 218.552 322.133 219.089C321.239 219.626 320.201 219.874 319.16 219.8H268.86L271.01 213.5H296.11C301.06 213.5 303.11 212.21 304.9 208.01L307.3 202.37C307.9 200.95 308.4 198.94 307.39 197.37C306.2 195.58 303.17 194.64 298.61 194.64H274.5C266.8 194.64 263.28 196.79 260.58 203.16L255.58 214.94C253.87 218.94 251.16 219.77 247.34 219.77H230.09L231.17 218.14C234.58 213.02 233.93 207.31 229.37 202.49C224.81 197.67 218.97 196.09 213.71 194.63H200.3L191.08 211.49C187.23 218.49 183.08 219.76 175.68 219.76H159.45L173.2 194.63H163.67C161.46 194.63 160.51 195.35 159.12 197C159.12 195.19 158.46 194.63 156.73 194.63H150.18C139.38 194.63 133.34 197.97 128.65 206.54L123.06 216.76C122.645 217.72 121.94 218.526 121.043 219.064C120.146 219.603 119.102 219.846 118.06 219.76H93.3L114.3 181.42C114.586 180.903 114.731 180.32 114.72 179.73C114.71 179.14 114.544 178.562 114.24 178.056C113.937 177.549 113.505 177.132 112.989 176.845C112.473 176.558 111.89 176.411 111.3 176.42H13.1C6.43999 176.42 3.09999 178.11 -0.0100098 183.47H42.44C34.5467 197.89 26.66 212.31 18.78 226.73H31L54.66 183.48H71.66L48 226.72H60.22L83.88 183.48H100.88L81.35 219.18C80.46 220.81 79.6 223.09 80.54 224.67C81.33 226.01 83.31 226.67 86.28 226.67H118.5C119.141 226.701 119.78 226.561 120.349 226.264C120.918 225.967 121.398 225.524 121.74 224.98C121.74 226.27 122.83 226.67 124.06 226.67H179.45C190.45 226.67 196.27 223.46 201 214.83L208.3 201.59L209.05 201.73C217.78 203.39 222.21 206.63 222.58 211.62C222.672 212.597 222.554 213.582 222.235 214.51C221.916 215.437 221.403 216.286 220.73 217C219.837 217.908 218.768 218.623 217.588 219.103C216.408 219.583 215.143 219.817 213.87 219.79C208.29 219.79 206.05 221.97 203.87 226.79H250.76C251.403 226.821 252.042 226.681 252.613 226.384C253.184 226.087 253.666 225.644 254.01 225.1C254.01 226.39 255.09 226.79 256.33 226.79H325.68C330.36 226.79 332.39 225.56 334.73 221.29L342.85 206.44C344.7 203.05 347 201.73 351.05 201.73H363.3C361.114 203.236 359.066 204.933 357.18 206.8C354.417 209.429 352.65 212.935 352.18 216.72C351.987 218.027 352.076 219.36 352.441 220.63C352.807 221.9 353.441 223.076 354.3 224.08C355.191 225.004 356.27 225.726 357.463 226.199C358.657 226.672 359.938 226.883 361.22 226.82H389.73C390.371 226.851 391.01 226.711 391.579 226.414C392.148 226.117 392.628 225.674 392.97 225.13C392.97 226.42 394.06 226.82 395.29 226.82H455.29C455.932 226.852 456.57 226.712 457.14 226.415C457.709 226.118 458.189 225.675 458.53 225.13C458.53 226.42 459.62 226.82 460.86 226.82H549.58C554.92 226.82 557.64 225.08 558.65 221.01C558.75 220.59 558.85 220.18 558.96 219.76L516.99 219.73ZM273.99 204.85C275.2 201.39 277.99 201.1 280.52 201.1H294.19C293.88 202.03 293.56 202.95 293.25 203.88C292.14 207.14 289.63 207.41 287.36 207.41H273.07C273.36 206.56 273.66 205.7 273.96 204.85H273.99ZM149.62 215.08C147.73 218.53 145.51 219.82 141.43 219.81H134.67C137.103 215.35 139.54 210.893 141.98 206.44C143.83 203.06 146.13 201.74 150.17 201.74H156.92L149.62 215.08ZM420.8 215.08C418.91 218.53 416.69 219.82 412.6 219.81H405.84C408.28 215.35 410.717 210.893 413.15 206.44C415.01 203.06 417.3 201.74 421.34 201.74H428.1C425.66 206.153 423.227 210.6 420.8 215.08Z" fill="white"/>
<path d="M270.69 35.24C276.87 24.61 282.18 12.52 284.18 0C286.18 12.52 291.49 24.61 297.67 35.24L290.56 32.08C288.32 31.08 287.37 31.67 287.44 33.98C288.19 56.56 291.51 82.24 303.29 101.79H289.41C287.299 96.7891 285.551 91.6424 284.18 86.39C282.809 91.6424 281.061 96.7891 278.95 101.79H265.07C276.86 82.24 280.18 56.56 280.92 33.98C281 31.67 280.04 31.09 277.81 32.08L270.69 35.24Z" fill="white"/>
<path d="M244.16 123.2V118.61H324.16V123.2H244.16Z" fill="white"/>
</svg>
