<svg width="184" height="36" viewBox="0 0 184 36" fill="none" xmlns="http://www.w3.org/2000/svg">
<g clip-path="url(#clip0_4455_557)">
<path d="M161.067 35.9998C160.7 35.998 160.337 35.9209 160.002 35.7732C158.155 34.9381 156.505 34.0869 155.038 33.2196C153.344 32.2148 152.034 31.2503 151.978 31.2106C148.663 28.833 146.076 26.1424 144.317 23.231C143.096 21.2658 142.349 18.9951 142.319 18.8991C140.277 12.9107 143.219 6.42764 149.026 4.17192C152.179 2.94917 155.783 3.27125 158.776 5.02314L158.831 5.05592C158.923 5.11343 159.314 5.36247 159.828 5.74437C162.308 2.21873 166.325 0.000976562 170.573 0.000976562C171.991 0.551997 173.498 0.834031 175.019 0.832635C178.234 2.07265 180.767 4.53886 182.154 7.77463C183.544 11.0161 183.601 14.6338 182.314 17.9622C182.314 17.9622 181.993 18.7932 181.88 19.0595C181.751 19.3845 181.035 21.107 179.557 23.3179C176.033 28.3084 170.187 32.4776 162.15 35.7606C161.776 35.7629 161.407 35.8444 161.067 35.9998" fill="#F7F7F5"/>
<path d="M156.759 28.6324L156.202 31.4794C157.577 32.2921 159.139 33.1002 160.893 33.8939C160.941 33.9146 160.997 33.9399 161.067 33.9399C161.121 33.9367 161.173 33.9224 161.221 33.8979C170.615 30.0732 175.258 25.6687 177.655 22.2759H157.992L156.759 28.6324ZM157.621 7.2273C155.282 5.85846 152.475 5.51912 149.855 6.53483C145.272 8.31547 142.838 13.5562 144.496 18.4196H155.473L156.871 11.1239L157.621 7.2273ZM174.194 3.19554C168.811 1.10949 162.682 4.00074 160.419 9.65038L159.793 12.8884L158.731 18.4196H179.762C179.948 17.9871 180.085 17.5868 180.181 17.3659C182.405 11.6087 179.608 5.28619 174.193 3.19611L174.194 3.19554ZM153.339 29.597L153.845 26.8644L154.734 22.2754H146.276C147.508 24.3137 149.623 26.9329 153.339 29.597" fill="#DF0921"/>
<path opacity="0.2" d="M151.582 11.5938C153.256 10.6782 155.193 10.5741 156.869 11.1239L157.621 7.22734C155.282 5.85849 152.475 5.51916 149.855 6.53486C145.272 8.31551 142.838 13.5574 144.496 18.4196H148.041C147.779 15.6843 149.122 12.95 151.582 11.5938V11.5938ZM149.462 22.276H146.275C147.507 24.3143 149.623 26.9335 153.338 29.5976L153.844 26.8651C151.407 25.1109 150.125 23.4119 149.462 22.276ZM162.79 30.925C162.749 30.9323 162.71 30.9459 162.673 30.9653C162.636 30.9489 162.596 30.9416 162.556 30.944C160.271 30.2498 158.339 29.4618 156.758 28.6325L156.202 31.4794C157.577 32.2921 159.139 33.1002 160.893 33.895C160.941 33.914 160.997 33.9411 161.067 33.9411C161.121 33.937 161.173 33.9224 161.221 33.8979C170.615 30.0732 175.258 25.6693 177.655 22.276H172.911C171.188 24.8106 168.173 27.8491 162.79 30.925ZM174.193 3.19615C168.81 1.10953 162.68 4.0002 160.419 9.65042L159.792 12.8885C160.922 8.43687 165.225 5.67272 169.447 6.69993C173.697 7.72484 176.424 12.169 175.319 16.6304C175.238 17.0226 175.121 17.615 174.859 18.4191H179.762C179.948 17.9871 180.084 17.5868 180.18 17.366C182.404 11.6088 179.608 5.28623 174.193 3.19615" fill="#010101"/>
<path d="M14.3803 15.2986L8.44657 28.9191H5.95504L0 15.2986H2.74401L7.27787 25.8065L11.8514 15.2986H14.3803ZM16.6176 28.9197H19.0499V18.5292H16.6171L16.6176 28.9197ZM16.6953 16.2907C16.4232 15.9991 16.2869 15.6678 16.2869 15.298C16.2869 14.3835 17.0651 13.9165 17.8818 13.9165C18.6611 13.9165 19.4002 14.3835 19.4002 15.279C19.4002 15.6874 19.2449 16.0382 18.9723 16.2907H16.6953ZM22.9799 28.7253C22.1822 28.5119 21.5403 28.2192 21.0532 27.8885L21.9878 26.0405C22.9218 26.6629 24.3418 27.0712 25.6071 27.0712C27.0663 27.0712 27.7869 26.6824 27.7869 25.9238C27.7869 25.2031 27.0853 25.0082 25.4519 24.7551C24.5949 24.6194 23.8949 24.4831 23.3698 24.3071C22.2788 23.9775 21.3649 23.1602 21.3649 21.6614C21.3649 20.6693 21.7732 19.8911 22.6101 19.2872C23.4279 18.704 24.5368 18.4118 25.9379 18.4118C27.3579 18.4118 28.9154 18.7621 29.8293 19.3068L28.8952 21.1553C28.0199 20.6302 27.0272 20.3771 25.9183 20.3771C24.4977 20.3771 23.7391 20.8447 23.7391 21.5446C23.7391 22.3228 24.5172 22.5373 26.1719 22.8295C27.0076 22.9652 27.6892 23.1016 28.2143 23.2776C29.2852 23.6077 30.1606 24.3657 30.1606 25.8456C30.1606 26.8176 29.7315 27.5963 28.8952 28.1807C28.059 28.7644 26.911 29.0566 25.4513 29.0566C24.6454 28.839 23.8146 28.7277 22.9799 28.7253V28.7253ZM32.261 28.9197H34.6938V18.5292H32.261V28.9197ZM32.3392 16.2907C32.0672 15.9991 31.9309 15.6678 31.9309 15.298C31.9309 14.3835 32.709 13.9165 33.5257 13.9165C34.305 13.9165 35.0441 14.3835 35.0441 15.279C35.0441 15.6874 34.8888 16.0382 34.6162 16.2907H32.3392ZM44.1314 28.3561C43.5666 28.8219 42.7108 29.0566 41.7963 29.0566C39.5193 29.0566 38.2155 27.8292 38.2155 25.554V20.5525H36.5032V18.6074H38.2155V16.232H40.6483V18.6074H43.4309L43.0415 20.5525H40.6483V25.4959C40.6483 26.5076 41.1544 27.0516 42.0885 27.0516C42.6326 27.0516 43.0806 26.9153 43.4504 26.6237L44.1314 28.3561ZM52.2064 26.779C55.2414 26.779 57.2067 24.9305 57.2067 22.1089C57.2067 19.2866 55.2414 17.4387 52.207 17.4387H48.8982V26.779H52.2064ZM46.3675 15.298H52.3214C56.6621 15.2399 59.8138 18.0811 59.7558 22.1077C59.8133 26.1372 56.6615 28.9784 52.3214 28.9197H46.3675V15.298ZM63.7639 22.8876H69.6586C69.4458 21.3894 68.2972 20.357 66.7213 20.357C65.165 20.357 63.9969 21.3502 63.7628 22.8876H63.7639ZM71.9356 24.502H63.7823C64.0745 26.0405 65.3582 26.9936 67.1492 26.9936C68.2972 26.9936 69.2307 26.6237 69.9697 25.8657L71.2742 27.3634C70.3401 28.4728 68.8816 29.0566 67.0906 29.0566C63.6472 29.0566 61.3506 26.817 61.3506 23.7244C61.2914 20.7084 63.6662 18.3532 66.7207 18.4124C69.7748 18.4124 71.9741 20.5721 71.9741 23.7825C71.9741 23.9585 71.9551 24.1909 71.9362 24.5015L71.9356 24.502ZM84.5456 22.9652V28.9197H82.1128V23.2764C82.1128 21.467 81.2167 20.533 79.6408 20.533C77.8509 20.533 76.7421 21.6418 76.7421 23.6652V28.9197H74.3092V18.5292H76.6247V19.871C77.4219 18.918 78.6676 18.4118 80.2056 18.4118C82.8323 18.4118 84.5445 19.9486 84.5445 22.9652H84.5456ZM105.014 22.9652V28.9197H102.582V23.2764C102.582 21.467 101.745 20.533 100.246 20.533C98.6131 20.533 97.5433 21.6418 97.5433 23.6462V28.9203H95.1104V23.2758C95.1104 21.4664 94.273 20.5324 92.7754 20.5324C91.1212 20.5324 90.0705 21.6217 90.0705 23.6456V28.9197H87.6382V18.5286H89.9531V19.8514C90.7319 18.9174 91.938 18.4113 93.358 18.4113C94.9149 18.4113 96.1612 18.9945 96.8612 20.1424C97.7181 19.0537 99.1186 18.4113 100.753 18.4113C103.38 18.4113 105.015 19.9296 105.015 22.9647L105.014 22.9652ZM114.392 25.6702V24.4629H111.882C110.481 24.4629 109.781 24.9299 109.781 25.8456C109.781 26.7198 110.52 27.2846 111.765 27.2846C112.992 27.2846 114.003 26.7014 114.392 25.6702ZM116.825 22.8289V28.9197H114.529V27.6544C113.925 28.5695 112.816 29.056 111.259 29.056C108.905 29.056 107.387 27.7522 107.387 25.9422C107.387 24.0741 108.729 22.8479 111.707 22.8479H114.393V22.6926C114.393 21.2329 113.517 20.4358 111.805 20.4358C110.637 20.4358 109.43 20.8251 108.653 21.467L107.698 19.6956C108.787 18.8587 110.384 18.4118 112.096 18.4118C115.151 18.4118 116.825 19.871 116.825 22.8289V22.8289ZM122.253 20.0458C122.954 18.9565 124.179 18.4118 125.951 18.4118V20.7279C125.761 20.7256 125.572 20.7058 125.386 20.6687C123.499 20.6687 122.369 21.796 122.369 23.8797V28.9191H119.937V18.5292H122.253V20.0458ZM132.352 24.4629L130.542 26.1751V28.9209H128.109V14.4807H130.542V23.1999L135.58 18.528H138.501L134.16 22.887L138.909 28.9203H135.951L132.352 24.4629Z" fill="#F7F7F5"/>
</g>
<defs>
<clipPath id="clip0_4455_557">
<rect width="183.242" height="36" fill="white"/>
</clipPath>
</defs>
</svg>
