<svg width="644" height="760" viewBox="0 0 644 760" fill="none" xmlns="http://www.w3.org/2000/svg">
<path d="M315.843 393.135L315.727 393.02L315.622 393.051L315.443 393.093L315.274 393.367L315.243 393.43L315.306 393.515L315.369 393.494L315.643 393.557L315.853 393.472L315.875 393.409L315.832 393.325V393.135H315.843Z" stroke="white"/>
<path d="M313.273 246.392L317.307 246.844L317.718 245.433L318.919 243.79L318.582 239.84L314.684 242.452L312.936 242.484L313.231 246.286L313.273 246.392V246.392Z" stroke="white"/>
<path d="M151.971 312.564L154.162 314.407L153.509 316.156L154.478 318.083L155.763 327.701L154.289 331.229L153.256 337.528L157.238 344.396L158.017 347.304L158.502 355.383L157.881 359.48L159.376 365.895L159.092 377.43L158.808 378.883L151.392 389.744L151.487 392.493L150.591 395.2L151.086 399.35L150.433 400.878L151.192 403.206L151.097 407.029L150.802 408.451L149.275 409.515L150.159 411.095L149.169 412.549L148.327 413.992L145.809 413.149V414.003L144.355 414.803L144.714 417.015L146.367 414.845L149.053 415.814L147.737 418.142L143.976 420.196L144.566 421.144L143.713 422.419L144.756 422.798L144.566 423.967L143.586 424.505L144.229 424.947L141.237 426.506L141.459 428.318L140.879 428.897L141.206 429.276L143.534 427.538L143.218 428.581L141.132 431.973L138.909 432.141L137.677 430.129L134.243 430.003L135.612 426.527L132.969 426.411L131.325 425.526L130.546 425.2L128.292 424.294L127.07 422.956L124.879 423.198L123.288 421.25L122.498 420.67L120.697 421.134L121.287 419.038L119.559 419.248L117.695 418.395L117.431 417.637L117 415.793L117.842 415.456L117.884 413.149L118.653 412.222L119.443 413.097L121.181 411.748L122.309 411.854L122.814 410.116L124.615 409.399L124.499 408.662L120.665 408.241L119.033 407.008L117.389 408.051L117.021 405.07L113.355 406.482L113.229 405.217L110.753 405.133L110.848 404.438L112.144 404.68L114.629 402.542L114.914 401.067L115.63 399.993H116.852L117.495 398.497L117.747 397.201L117.21 394.863L118.537 393.957L117.421 391.977L116.431 392.156L115.335 392.303L113.997 393.041L109.826 392.883L107.983 394.073L108.815 391.092L107.172 388.911L110.184 388.659L111.301 387.626L110.521 386.436L110.827 385.488L115.535 382.791L115.019 381.643L114.019 381.791L112.986 378.241L110.785 379.094L110.09 377.577L108.236 376.608L106.54 377.093L107.235 375.976L106.771 375.386L105.286 375.818L105.455 373.943L106.75 373.395L106.54 371.457L105.739 371.51L104.949 369.909L104.338 369.15L112.702 367.023L110.837 364.431L109.742 364.663L108.962 363.704L107.814 364.2L107.456 363.22L109.089 362.272L108.457 361.039L107.13 360.755L105.339 362.282L105.297 360.239L104.507 359.67L104.738 358.838L105.918 359.586L106.318 358.564L108.078 358.322L107.899 356.141L110.585 356.215L111.29 354.066L111.922 352.307L110.237 351.601L111.206 348.894L113.576 347.419L114.24 345.903L113.997 344.912L113.355 344.965L114.408 343.859L114.503 345.566L115.999 344.828L116.231 345.734L117.821 346.134L119.001 343.512L118.537 342.574L122.045 342.142L122.688 340.625L124.436 340.646L125.058 339.856L130.051 339.751L132.495 338.287L133.032 336.043L133.874 334.368L135.971 333.136L138.267 332.767L139.931 333.642L141.216 332.862L141.775 333.958L143.155 334.147L143.765 335.348L144.608 337.244L145.356 337.149L147.842 332.809L147.716 328.491L145.925 325.689L147.589 323.287L146.599 320.78L148.727 319.021L148.063 318.621L148.6 317.483L147.6 313.88L148.527 312.911L151.971 312.564V312.564Z" stroke="white"/>
<path d="M394.814 321.391L396.246 328.069L398.606 333.873L405.21 345.65L412.594 353.771L421.274 360.25L422.19 362.704L426.056 366.422L426.404 367.844L432.261 371.742L437.696 373.669L437.917 378.778L441.53 381.338L440.298 383.287L441.256 384.171L438.265 386.236L435.842 389.228L434.978 392.493L432.492 394.242L430.681 398.171L425.667 403.574L423.518 403.185L424.35 402.51L423.223 397.992L422.064 396.864L419.494 395.158L418.388 396.548L417.787 396.317L416.755 394.01L415.449 394.147L414.459 392.82L411.393 395.327L409.887 397.665L407.549 397.823L407.106 398.771L408.423 402.51L410.024 403.448L409.582 404.533L408.686 404.396L408.423 403.332L407.717 404.638L405.621 404.691L404.957 407.472L404.125 405.291L402.903 405.386L401.987 407.914L400.586 407.967L400.291 409.505L398.321 408.472L396.109 409.02L393.486 405.576L391.422 405.776L388.894 404.291L387.809 404.975L386.408 404.554L384.564 401.067L383.174 401.836L382.047 400.593L380.172 400.077L379.055 402.279L374.789 403.701L373.23 402.721L372.461 400.815L370.523 400.362L368.964 398.855L367.142 398.118L365.667 399.55L364.614 395.727L365.962 393.315L364.909 391.829L363.845 392.019L361.759 389.617L360.811 390.007L352.753 385.277L350.614 384.519L350.593 385.825L348.086 385.151L346.601 382.781L346.759 377.598L347.581 377.978L349.772 376.103L349.824 373.585L351.647 373.448L358.557 377.167L359.863 376.355L361.643 377.009L362.77 374.66L364.35 374.354L363.792 373.606L365.72 373.259L363.687 371.973L363.371 370.256L360.811 369.372L358.093 366.696L357.409 363.241L353.469 360.629L355.66 358.174L351.457 354.235L354.807 351.686L354.702 349.179L353.648 347.219L354.733 346.609L355.534 343.701L358.43 344.797L359.073 344.028H360.495L361.106 345.06L362.686 344.249L365.067 344.575L366.489 343.343L367.289 339.73L365.193 339.066L363.982 337.623L364.55 335.854L366.299 336.359L368.279 334.958L368.88 335.443L369.512 332.946L372.008 332.536L372.324 329.913L373.736 328.343L373.989 326.826L376.18 328.017L378.676 326.847L379.382 327.838L380.804 327.658L382.921 326.668L383.406 324.34L384.122 323.94L387.05 323.751L389.273 322.265L394.529 321.138L394.814 321.391V321.391Z" stroke="white"/>
<path d="M482.411 454.231L482.064 452.935L483.475 451.639L485.529 451.239L490.427 452.061L493.071 451.113L494.599 452.219L496.379 451.26L496.21 450.259L497.969 449.806L497.78 449.006L498.643 449.311L500.139 448.416L502.562 450.154L504.395 450.47L504.648 451.555L505.975 451.871L506.617 454.346L507.27 453.904L509.209 455.484L508.535 456.58L508.851 458.212L506.965 460.372L505.374 460.087L506.017 461.278L511.905 463.785L513.58 465.375L515.834 463.311L517.941 463.995L521.038 470.8L527.948 477.173L528.77 479.006L530.381 479.448L534.047 475.192L536.196 477.794L536.133 475.803L537.154 475.53L538.05 476.931L538.166 475.098L539.946 475.867L541.01 475.192L541.189 476.235L542.421 476.973L542.99 476.193L546.066 478.532L544.981 479.069L546.266 480.554L545.318 484.367L546.287 486.527L545.623 487.011L545.17 490.055L546.182 491.119L545.718 491.973L546.94 492.899L545.929 495.09L546.835 496.081L548.625 495.628L550.49 496.755L550.88 498.461L552.713 500.01L553.534 501.969L549.384 507.91L544.317 518.823L541.905 520.582L539.04 519.581L535.753 520.603L532.509 519.528L530.497 519.918L529.802 518.749L529.138 520.297L529.37 523.289L528.285 525.627L528.559 527.734L525.346 533.464L526.515 534.665L526.052 536.056L523.798 533.538L521.691 533.349L518.605 534.044L518.584 535.887L515.655 534.549L514.56 535.687L509.504 535.961L507.871 534.128L508.261 533.475L507.365 531.79L508.671 529.441L507.45 529.104L505.88 529.999L505.153 528.988L503.204 528.672L501.698 529.967L501.045 529.051L500.065 529.567L499.117 528.577L497.348 528.766L494.872 531.431L493.872 534.17L491.986 530.431L489.774 528.408L489.627 526.849L487.857 525.817L489.637 524.753L488.299 523.3L489.574 522.941L491.217 520.708L490.88 517.643L492.587 515.905L492.439 514.852L496.094 513.293L495.547 511.997L496.526 511.123L496.484 509.627L495.841 508.416L492.755 507.52L492.608 506.13L490.88 504.539L490.827 501.843L488.615 501.042L486.93 498.788L484.76 497.703L484.255 495.881L481.969 494.079L482.727 492.942L481.305 489.56L482.042 488.697L477.46 485.926L478.229 483.798L479.967 482.735L480.031 481.881L473.784 477.826L473.963 472.717L473.099 472.643L473.331 471.4L471.161 470.063L473.373 469.905L473.5 467.65L472.425 467.103L472.878 466.407L477.924 467.545L478.598 467.176L478.356 465.954L481.474 464.596L483.854 458.412L482.411 454.231V454.231Z" stroke="white"/>
<path d="M493.872 534.17L494.872 531.431L497.348 528.777L499.117 528.587L500.065 529.567L501.045 529.051L501.698 529.967L503.204 528.672L505.164 528.988L505.89 529.999L507.46 529.103L508.682 529.43L507.376 531.779L508.271 533.464L507.881 534.117L509.514 535.95L514.57 535.676L515.666 534.539L518.594 535.866L518.615 534.023L521.701 533.338L523.808 533.527L526.062 536.035L526.526 534.644L525.367 533.443L528.58 527.713L528.295 525.596L529.38 523.268L529.159 520.276L529.823 518.738L530.518 519.897L532.53 519.507L535.785 520.582L539.071 519.56L541.937 520.561L539.925 523.131L539.566 525.901L540.999 532L536.154 538.141L533.52 543.018L533.562 546.094L535.68 548.538L535.1 552.183L540.451 555.353L548.92 555.48L553.892 561.094L558.832 564.117L562.488 565.055L563.309 567.225L565.563 569.395L569.693 570.817L567.207 577.01L566.943 580.897L569.229 584.247L567.165 591.146L568.681 593.127L568.355 594.127L569.113 595.328L572.337 596.856L570.061 598.92L570.325 601.87L566.301 606.083L566.016 604.924L564.531 604.387L562.309 605.188L560.054 602.902L555.114 603.681L549.089 605.925L539.872 611.634L536.027 618.534L537.239 620.683L538.618 635.072L538.134 638.042L532.182 644.236L524.556 647.459L516.129 658.119L515.065 665.261L512.39 670.349L510.61 672.561L507.091 673.13L502.846 672.139L494.219 672.951L489.753 670.412L487.467 666.125L488.594 664.524L487.256 660.953L488.584 657.898L487.404 654.359L487.457 651.494L491.775 649.724L493.766 649.661L496.484 648.123L497.801 645.837L498.285 642.487L499.497 641.392L500.339 638.506L501.888 637.094L502.657 635.051L503.447 629.921L497.843 624.907L498.348 622.99L500.255 621.178L504.7 619.703L506.533 617.775L509.124 617.459L512.727 618.534L514.549 618.007L517.098 616.006L519.184 609.18L518.878 603.787L515.624 602.207L512.442 596.329L510.736 588.671L509.914 577.653L507.018 568.099L503.173 562.095L500.392 560.104L498.159 552.362L497.2 551.572L495.726 542.313L494.714 540.532L495.926 538.489L493.872 534.17V534.17Z" stroke="white"/>
<path d="M411.32 489.444L413.437 489.697L412.71 490.666L409.624 491.098L409.761 489.381L411.32 489.444V489.444ZM392.033 475.256L396.678 476.52L397.236 477.331L396.51 479.511L393.539 479.543L393.213 480.175L391.127 479.079L391.085 477.11L392.033 475.256V475.256ZM397.932 425.042L399.533 425.853L399.238 427.454L401.408 430.035L403.672 429.529L405.042 430.435L404.757 427.886L403.314 426.127L405.632 421.882L408.044 423.894L408.455 422.44L412.089 422.503L412.31 423.399H414.174L414.459 424.484L416.597 425.632L425.035 428.097L425.435 429.772L426.688 430.73L430.207 430.182L431.492 432.036L433.799 429.982L434.905 429.919L434.863 428.929L436.938 428.676L437.928 429.456L439.908 428.845L441.72 425.8L445.944 427.591L447.598 425.916L450.389 425.684L453.528 423.472L455.435 426.464L458.447 427.307L458.647 428.149L457.784 428.971L458.352 430.235L457.236 430.425L456.351 431.657L457.004 434.417L460.133 435.533L460.354 437.819L463.956 437.672L465.052 439.231L466.758 438.894L468.086 440.4L466.39 441.474L467.285 443.981L465.157 445.245L464.304 447.342L465.958 448.153L466.727 450.144L468.844 451.66L470.003 450.712L472.984 451.966L474.774 450.607L476.986 452.503L478.64 452.356L482.432 454.252L483.875 458.433L481.495 464.617L478.377 465.976L478.619 467.197L477.945 467.566L472.899 466.418L472.436 467.124L473.51 467.661L473.384 469.926L471.172 470.084L473.342 471.421L473.11 472.654L473.984 472.728L473.805 477.836L480.052 481.892L479.989 482.745L478.24 483.798L477.471 485.926L482.053 488.697L481.326 489.56L482.748 492.942L481.99 494.079L484.265 495.881L484.781 497.703L486.951 498.788L488.637 501.042L490.849 501.843L490.901 504.539L492.639 506.13L492.787 507.52L495.873 508.416L496.516 509.627L496.558 511.133L495.578 512.008L496.126 513.303L492.471 514.852L492.618 515.905L490.922 517.643L491.259 520.708L489.616 522.941L488.352 523.3L489.69 524.743L487.899 525.807L486.993 523.742L484.065 523.342L480.294 524.332L475.828 529.462L472.257 528.861L470.119 526.776L467.791 527.355L467.59 526.691L468.496 526.007L467.77 523.658L464.283 520.308L462.724 520.076L460.08 516.885L455.15 516.948L452.359 513.472L448.482 512.271L447.829 511.154L449.915 509.574L450.02 505.35L452.77 503.77V500.673L446.407 487.443L440.793 481.544L437.917 481.987L436.485 484.23L432.966 483.209L430.112 485.737L427.636 486.169L425.077 484.768L416.587 488.844L417.408 484.525L420.737 483.862L421.19 482.313L424.961 479.722L423.823 476.383L420.558 475.351L416.829 471.253L413.922 469.315L411.13 470.484L409.192 472.991L407.644 472.759L408.465 472.359L407.717 471.285L404.189 470.273L403.03 471.095L403.925 473.928L401.555 473.128V468.367L400.365 464.227L397.573 459.771L397.51 459.613L394.972 456.875L393.497 451.787L389.747 445.656L386.387 442.275L386.966 440.885L390.126 440.274L390.653 439.462L389.968 439.21L390.074 438.125L393.349 436.955L392.265 432.247L393.128 430.667L391.738 428.328L394.003 427.939L397.215 425.021L397.932 425.042V425.042Z" stroke="white"/>
<path d="M331.654 241.493L330.422 244.748L330.664 249.099L328.009 250.142L327.441 252.354L324.365 251.974L324.565 250.879L323.722 250.552L322.995 247.908L320.13 249.099V246.845L317.739 245.454L318.929 243.811L318.592 239.861L314.695 242.473L312.946 242.515L313.241 246.307L314.516 248.646H312.809L312.451 247.772L310.355 248.604L309.291 252.259L306.552 254.46L306.342 256.746L306.3 256.715L304.572 257.652L302.434 257.262L301.56 259.337L299.927 256.904L298.41 257.747L296.925 257.578L295.113 258.526L293.944 257.189L292.975 257.452L291.437 256.504L290.32 256.946L288.603 255.84L288.382 254.819L286.96 254.629L286.412 253.27L281.504 253.049L279.397 250.51L275.626 248.404L275.91 245.18L273.993 243.895L274.341 242.178L272.055 239.987L272.318 238.776L273.024 238.871L272.813 237.722L274.583 237.048L275.036 234.952L277.174 232.645L277.532 229.812L271.77 230.97L268.979 230.591L270.506 228.379L270.306 227.284L267.568 226.725L266.483 227.779L265.219 227.505L263.396 225.43L261.932 225.029L261.574 222.775L260.173 221.511L257.582 224.029L254.959 224.303L254.748 225.43L252.346 227.61L248.144 227.758L248.028 228.748L251.114 230.539L251.377 231.676L248.702 231.845L245.447 230.907L241.929 232.435L239.021 232.097L237.389 230.886L238.042 229.791L237.62 228.832L232.501 234.583L231.806 234.267L232.143 233.267L231.427 232.308L229.025 231.781L223.79 227.536L217.923 227.399L216.869 228.695L216.943 230.117L215.184 230.56L211.581 227.347L211.328 225.714L209.496 224.029L209.548 222.575L208.263 221.869L206.504 222.175L203.397 218.973L201.711 218.941L199.404 217.645L196.897 218.899L190.967 212.631L188.397 213.169L183.888 210.072L182.698 208.744L183.267 205.985L182.161 205.763L181.634 204.457L179.075 203.541L173.439 204.162L169.847 209.819L166.055 212.02L164.559 208.523L161.715 206.427L160.609 207.112L159.124 206.195L158.755 207.207L155.827 207.491L154.837 208.681L154.563 207.449L152.825 207.86L154.447 203.109L155.837 202.888L156.343 199.285L155.437 197.084L152.035 195.914L151.203 194.092L148.632 195.978L145.314 193.292L144.851 194.398L142.639 194.029L142.997 193.144L142.375 192.481L139.995 192.944L139.963 187.593L140.479 187.793L142.323 187.677L141.986 185.549L143.366 188.193L146.768 187.298L146.02 185.834L146.958 184.738L146.8 183.453L144.967 182.474L144.651 181.315L148.706 177.228L147.579 173.804L146.557 172.941L145.788 173.362L143.945 171.666L145.262 169.939L144.63 168.864L146.378 168.422L147.821 164.156L149.549 162.312L149.422 160.016L151.582 158.078L151.466 157.372L152.762 157.562L153.099 156.708L156.09 155.95L157.744 157.909L158.934 156.824L158.271 153.949L159.04 153.822L160.725 156.076L162.073 155.508L162.758 153.496L163.727 154.812L163.569 157.446L167.972 159.331L169.679 157.835L170.205 156.772L169.415 155.623L170.332 155.339L171.206 156.961L173.155 157.962L173.544 159.921L174.524 156.54L175.577 156.571L176.641 158.13L177.568 157.72L177.779 156.498L176.589 154.823L178.485 153.285L179.254 153.927L178.853 156.234L181.887 153.906L182.825 154.001L184.805 156.582L184.341 158.151L185.942 159.447L186.016 160.732L187.586 160.364L188.428 162.196L191.936 160.553L192.494 161.533L194.833 161.47L197.993 163.966L199.678 164.008L202.659 166.399L205.24 164.988L206.789 168.064L211.602 170.413L215.753 170.234L217.28 169.349L220.293 165.009L220.767 166.715L222.663 164.535L223.684 167.821L228.33 168.58L229.12 169.412L230.047 169.243L230.131 170.033L231.543 169.854L231.332 170.465L232.87 169.517L234.292 169.749L234.534 168.538L236.978 167.284L240.264 167.558L241.244 166.726L244.035 167.4L245.32 169.033L245.9 168.348L249.997 168.021L250.377 167.326L251.936 168.432L253.695 166.757L260.257 167.727L260.426 169.296L266.43 168.906L268.642 170.392L269.095 172.098L269.843 172.361L271.149 172.235L273.277 170.234L276.637 169.296L277.416 166.958L280.492 165.525L287.097 165.609L289.425 164.788L296.482 165.915L298.894 169.159L300.453 168.137L301.307 169.243L303.571 169.422L305.109 168.064H306.247L307.121 169.191L306.458 170.497L306.805 173.541L307.479 174.542L309.576 175.079L310.208 177.375L309.523 177.554L308.269 175.616L307.016 175.237L305.194 177.639L306.521 177.112L304.772 181.715L304.151 186.961L304.656 190.448L306.721 194.482L306.605 203.794L308.47 208.808L308.691 212.379L310.85 219.91L312.704 223.628L319.772 231.866L322.427 233.646L328.715 240.419L331.654 241.493V241.493ZM300.664 253.407L300.38 254.597L301.823 256.272L304.119 255.092L303.803 253.934L303.582 253.439L300.664 253.407V253.407Z" stroke="white"/>
<path d="M334.108 37.2465L336.141 37.9206V39.4269L336.879 39.8167L341.208 39.5006L347.686 40.7541L349.73 40.1853L354.122 41.2598L357.978 44.167L359.768 43.4192L362.454 44.167L363.697 42.8187L365.098 42.9767L365.214 42.0182L367.152 42.5659L367.047 43.4086L368.058 43.7352L372.166 42.9978L372.977 44.5147L375.305 44.167L375.937 45.2415L378.465 44.936L383.711 46.5898L382.131 53.0153L380.13 52.3306L377.054 53.1101L375.611 56.1122L370.47 59.0195L368.817 59.0932L368.838 61.9057L365.298 64.0967L367.9 68.9105L367.289 70.7118L369.217 70.5222L369.143 69.5531L371.05 69.6163L372.093 70.3642L373.599 70.1114L375.274 71.2174L375.948 72.7764L379.319 72.2497L380.814 73.1029L379.729 76.4947L375.969 80.1288L371.998 82.6464L372.314 85.0375L370.66 86.7334L373.873 89.7355L375.6 89.4932L377.001 87.9237L379.719 88.2819L379.424 91.9476L376.116 98.3309L377.212 101.765L378.613 102.702L381.12 102.302L385.312 105.852L387.967 106.558L391.759 113.183L394.698 115.322L390.358 119.198L388.083 119.346L385.481 117.976L383.901 118.366L383.806 117.386L384.628 116.944L387.482 117.839L388.757 116.828L387.25 116.881L386.766 115.237L385.702 115.469L385.081 114.774L386.376 113.784L385.618 111.614L379.14 104.672L376.506 103.903L375.316 104.293L374.726 103.45L373.283 105.009L373.083 106.758L374.937 108.254L371.397 109.96L370.555 109.676L368.322 111.846L365.772 112.088L360.369 109.181L358.43 108.865H358.104L358.009 108.791L353.553 109.971L350.52 114.626L349.393 113.994L349.519 113.352L348.487 113.478L348.666 112.088L347.602 111.245L347.992 110.402L347.16 110.192L346.559 107.379L345.537 108.127L345.906 106.895L345.221 105.525L345.737 105.252L343.599 103.219L344.747 102.544L343.884 102.186L344.073 101.322L343.662 100.933L343.704 100.606L343.094 98.9419L342.472 99.1947L342.946 100.69L341.313 101.217L340.797 100.069L339.196 101.059L337.879 99.8583L338.301 98.6996L337.627 98.6259L335.341 99.774L334.761 100.87L334.098 100.101L334.551 99.0472L333.36 98.1624L331.275 100.374L330.569 99.6687L326.482 103.45L326.429 101.744L325.25 101.196L325.123 100.259L323.817 99.5634L323.101 101.259L320.994 100.153L321.226 98.8892L319.762 97.562L318.434 92.7902H316.875L315.78 91.1891L314.274 91.147L314.252 87.4918L313.505 84.7531L312.535 83.9104L314.4 80.9505L317.455 78.8859L317.929 75.1148L315.38 73.0608L315.064 70.8171L313.136 70.9224L312.862 69.2581L310.671 69.2792L308.438 66.2771L310.334 64.2968L310.292 62.2006L311.387 61.3158L313.399 61.6002L313.747 59.4724L315.674 58.4928L315.485 57.8608L316.117 58.1452L315.78 56.6915L317.887 54.8376L318.181 52.9942L319.74 50.8454L320.172 51.2983L321.826 49.9816L323.775 50.8138L324.87 49.9816L326.787 50.8032L326.377 48.9704L325.081 48.1277L325.207 47.1375L328.852 44.8412L331.538 44.778L330.611 43.5561L331.349 41.165L330.327 39.4164L330.527 37.5203L332.265 36.5618L334.108 37.2465V37.2465Z" stroke="white"/>
<path d="M343.304 464.227L343.041 465.617L343.641 465.818L342.588 467.029L342.398 464.058L344.758 462.995L343.304 464.227ZM397.668 422.788L398.732 423.683L397.931 425.052L397.141 425.021L393.939 427.939L391.674 428.328L393.065 430.667L392.212 432.247L393.297 436.955L390.021 438.135L389.915 439.22L390.6 439.473L390.073 440.284L386.913 440.895L386.334 442.285L383.374 440.158L382.089 440.79L379.129 439.578L376.021 441.327L376.137 442.865L377.085 443.497L374.936 443.571L365.519 438.083L360.948 436.987L359.22 438.04L356.776 437.914L353.701 438.894L350.214 442.212L347.675 442.012L344.589 434.922L340.734 430.825L336.942 428.729L333.392 428.371L332.539 429.034L327.461 425.632L325.671 425.927L325.523 426.675L324.607 426.285L321.11 420.112L313.652 411.211L309.775 407.925L303.234 404.944L302.254 398.729L298.957 392.672L293.87 389.691L292.5 387.648L289.804 386.615L289.203 385.341L286.738 383.782L282.241 384.445L280.481 380.348L277.279 376.124L277.09 374.143L274.856 369.646L272.486 366.317L266.756 361.651L261.352 359.07L263.312 354.698L270.475 354.614L270.38 351.001L267.441 348.989L268.884 346.946L268.41 345.092L269.063 344.744L270.264 345.85L270.97 344.913L271.823 345.155L273.656 344.228L273.877 343.09L275.457 341.921L276.816 342.184L277.774 339.93L279.217 340.13L280.692 339.161L280.608 338.024L279.502 337.518L279.07 334.758H280.366L281.461 332.283L277.479 329.165L278.701 326.595L279.976 327.09L280.713 328.48L281.25 326.363L282.967 325.236L285.58 325.383L287.286 329.481L290.215 331.377L289.151 333.463L287.202 334.558L288.561 336.781L292.922 339.477L296.798 338.097L297.862 339.224L297.988 338.434L298.694 338.666L300.148 337.413L301.865 338.129L303.624 340.299L304.203 345.007L305.962 345.829L305.741 347.894L306.837 348.789L306.047 349.495L307.648 350.337L306.921 350.822L308.891 350.601L310.186 351.928L312.293 350.222L313.841 350.39L313.578 352.349L314.358 353.066L313.641 353.308V355.478L316.043 356.321L315.021 357.816L318.855 357.269L318.803 359.038L319.719 360.092L324.28 356.552L324.512 352.465L325.765 352.381L326.703 354.34L327.978 354.288L331.127 352.212L329.684 350.064L332.907 349.137L333.086 347.736L335.246 347.841L337.194 346.124L339.396 345.418L338.743 342.732L339.354 341.5L341.482 342.543L342.324 341.521L345.748 341.563L346.496 339.951L348.666 341.089L351.615 339.277L351.668 338.456L353.374 339.13L354.775 337.781L355.565 333.094L359.02 333.926L359.589 332.694L360.737 332.588L364.614 335.917L364.045 337.697L365.256 339.13L367.352 339.793L366.552 343.417L365.13 344.649L362.749 344.312L361.169 345.123L360.558 344.102H359.136L358.493 344.86L355.597 343.775L354.796 346.682L353.711 347.283L354.765 349.242L354.87 351.749L351.52 354.298L355.723 358.238L353.522 360.703L357.461 363.304L358.146 366.77L360.864 369.445L363.413 370.32L363.729 372.037L365.772 373.322L363.845 373.669L364.392 374.407L362.823 374.712L361.696 377.061L359.915 376.408L358.609 377.219L351.699 373.501L349.877 373.638L349.824 376.166L347.633 378.041L346.822 377.662L346.664 382.844L348.139 385.214L350.656 385.888L350.678 384.582L352.816 385.341L360.874 390.07L361.812 389.681L363.897 392.082L364.972 391.882L366.025 393.367L364.677 395.78L365.73 399.603L367.205 398.171L369.027 398.908L370.586 400.414L372.524 400.867L373.304 402.774L374.863 403.753L379.129 402.321L380.256 400.119L382.12 400.636L383.247 401.878L384.648 401.11L386.492 404.596L387.893 405.017L388.967 404.322L391.495 405.818L393.56 405.618L396.193 409.062L398.289 410.874L399.764 414.656L399.87 416.099L399.153 416.773L400.596 418.364L400.365 419.364L399.469 419.554L400.754 420.67L397.668 422.788V422.788ZM315.874 393.409L315.832 393.325V393.136L315.727 393.02L315.632 393.051L315.453 393.093L315.285 393.367L315.253 393.431L315.327 393.515L315.39 393.494L315.664 393.557L315.874 393.473V393.409V393.409Z" stroke="white"/>
<path d="M175.23 235.615L174.808 236.658L174.155 235.615H175.23ZM59.5388 234.383L60.3709 234.667L62.0037 232.908L60.6238 232.929L59.6652 231.413L60.1603 229.79L62.2038 228.663L71.6841 231.697L73.4116 230.781L75.4762 231.507L75.9396 230.738L75.3498 229.822L73.9699 229.179L75.908 227.578L77.5197 228.653L79.0155 228.137L80.2584 226.514L80.2058 224.471L78.6678 223.123L79.4368 221.332L78.5309 220.173L79.8476 218.878L78.5098 217.498V216.444L78.9628 215.875L80.5007 216.56L80.8167 214.274L82.1755 214.443L83.2078 212.747L82.955 210.651L86.3153 208.797L87.1053 206.764L85.6622 203.309L87.1158 202.835L87.0737 200.833L88.7064 199.527L89.7387 201.139L91.6874 201.339L94.9318 204.088L96.3117 203.34L96.9016 201.023L97.7548 200.623L99.3032 201.729L100.504 199.928L100.873 200.833L104.243 200.707L105.297 201.497L108.183 198.305L107.351 197.347L108.647 195.314L112.397 195.524L114.103 195.777L115.988 198.874L115.672 199.822L116.578 199.78L116.979 202.097L118.316 201.613L117.937 200.054L119.77 198.516L119.749 196.968L122.151 196.662L123.078 197.905L124.594 197.094L124.278 193.175L122.762 191.532L124.405 190.205L125.079 188.456L126.775 188.204L127.533 189.278L129.935 189.015L131.62 192.628L133.137 192.322L134.675 193.218L134.622 194.777L136.339 196.051L140.047 194.513L139.984 192.975L142.365 192.512L142.997 193.175L142.639 194.06L144.851 194.429L145.314 193.323L148.632 196.009L151.202 194.124L152.035 195.946L155.437 197.115L156.343 199.317L155.837 202.919L154.447 203.14L152.825 207.891L154.563 207.48L154.836 208.713L155.827 207.522L158.755 207.238L159.124 206.227L160.619 207.143L161.725 206.458L164.57 208.555L166.065 212.052L167.456 211.852L168.52 214.569L172.765 217.866L175.493 218.983L175.588 221.69L176.441 222.427L175.988 225.303L178.179 223.46L179.727 224.534L178.937 224.597L177.631 226.683L181.771 226.546L181.982 229.032L182.972 230.496L182.456 231.792L184.331 230.212L186.827 231.76L186.543 233.214L184.204 235.9L182.54 235.615L181.286 236.532L178.179 234.214L178.232 233.245H176.81L174.713 231.128L173.355 231.96L174.724 233.667L174.471 234.288L175.261 234.151L174.155 235.626L169.141 232.35L167.14 229.759L164.57 228.41L163.39 229.274L161.968 226.578L159.819 225.63L158.86 223.849L156.627 223.007L155.648 221.511L153.162 221.427L151.687 219.899L150.992 220.394L149.285 217.455L141.88 213.284L140.732 214.38L140.858 216.918L137.024 215.138L137.572 213.263L136.845 212.252L125.606 209.408L124.921 208.291L124.3 208.755L124.731 209.46L119.949 208.165L121.182 207.944L120.212 207.554L117.705 207.438L117.99 207.986L115.82 207.48L113.639 208.323L112.028 209.871L110.1 210.24L108.552 211.862L102.295 215.043L101.484 216.107L102.221 215.96L99.0609 218.856L99.8615 219.92L97.839 222.606L98.2393 224.755L89.8124 228.969L87.7162 232.613L87.4318 236.132L84.1243 239.85L83.8925 241.335L84.672 242.768L80.1531 245.812L79.1945 247.571L76.7613 248.098L72.3371 250.995L67.6602 251.943L66.1434 253.217L64.5212 252.733L61.0135 254.797L59.1069 254.481L57.4953 256.156L52.555 255.029L51.2488 256.093L50.1744 255.861L47.9097 250.415L48.0045 248.793L48.7945 247.803L51.3752 247.013L51.7755 243.674L56.3787 241.261L57.2109 239.418L56.9475 237.185L59.2333 236.205L59.5388 234.383V234.383Z" stroke="white"/>
<path d="M196.602 38.6897L197.15 39.3006L196.191 40.8175L196.465 41.9972L198.646 42.3975L199.151 44.0302L201.511 44.6517L202.206 43.5878L204.555 44.5148L205.714 44.0092L207.726 45.5681L208.937 48.4122L212.908 48.7282L215.689 50.5927L216.774 52.0252L216.532 54.3321L217.417 55.7963L215.847 57.4395L213.772 57.5554L211.054 60.2415L213.835 61.5792L214.467 63.707L213.53 65.0448L214.383 65.5399L214.931 67.7941L212.529 72.1761L213.656 73.8509L212.666 78.5173L209.158 82.8045L209.537 84.8059L208.284 85.796L207.684 87.7237L207.736 88.7771L209.569 89.1141L209.401 91.2525L210.77 93.3486L209.811 95.5607L210.359 100.101L212.729 101.101L211.981 102.544L212.424 103.461L213.814 103.598L216.068 102.197L218.154 102.123L218.649 99.8584L222.873 99.0052L224.211 100.037L224.622 99.1316L228.803 99.9427L217.122 117.323L218.312 129.7L217.891 131.786L218.775 131.975L219.513 131.122L222.104 132.313L221.093 135.02L222.104 135.81L220.735 136.842L221.788 138.411L221.072 140.423L222.641 140.834L223.179 141.877L225.717 139.77L227.782 141.803L228.961 144.279L231.742 144.9L231.858 145.616L233.786 146.122L233.681 147.491L236.704 148.861L237.546 150.146L237.146 151.947L238.842 151.61L239.758 152.189L238.747 154.17L241.191 156.224L242.455 156.456L242.708 155.118L244.14 155.887L245.12 154.117L248.28 155.297L246.942 156.371L247.374 157.435L246.753 159.142L250.05 160.364L251.556 159.468V162.059L259.972 166.568L260.215 167.653L253.652 166.684L251.893 168.359L250.334 167.253L249.955 167.948L245.857 168.274L245.278 168.959L243.993 167.337L241.202 166.663L240.222 167.495L236.935 167.221L234.492 168.474L234.249 169.696L232.827 169.465L231.289 170.413L231.5 169.802L230.089 169.981L230.004 169.191L229.077 169.359L228.287 168.527L223.642 167.779L222.62 164.493L220.724 166.673L220.25 164.967L217.248 169.307L215.721 170.191L211.57 170.371L206.757 168.022L205.208 164.946L202.627 166.357L199.646 163.966L197.961 163.924L194.801 161.427L192.462 161.501L191.904 160.532L188.396 162.175L187.564 160.353L185.995 160.722L185.921 159.437L184.32 158.141L184.783 156.571L182.803 153.991L181.866 153.896L178.832 156.234L179.232 153.928L178.463 153.285L176.567 154.823L177.758 156.498L177.557 157.72L176.63 158.13L175.567 156.571L174.513 156.54L173.534 159.921L173.144 157.962L171.195 156.961L170.331 155.339L169.415 155.623L170.205 156.772L169.678 157.835L167.972 159.331L163.569 157.446L163.727 154.812L162.758 153.496L162.073 155.508L160.725 156.076L159.039 153.822L158.27 153.949L158.934 156.824L157.744 157.909L156.09 155.95L153.109 156.708L152.772 157.562L151.476 157.372L151.592 158.078L149.443 160.016L149.57 162.312L147.853 164.156L146.409 168.422L144.661 168.864L145.293 169.939L143.976 171.666L145.82 173.362L146.589 172.941L147.61 173.804L148.737 177.228L144.682 181.315L144.998 182.474L146.831 183.453L146.989 184.738L146.051 185.834L146.799 187.309L143.397 188.214L142.017 185.571L142.354 187.698L140.511 187.814L140.121 184.812L140.785 182.705L138.393 180.936L137.898 177.849L135.033 178.639L134.559 177.818L133.021 177.691L133.148 176.701L131.926 175.469L132.916 174.405L132.147 172.319L131.073 172.446L129.303 170.876L127.67 168.19L127.923 166.368L127.154 165.009L126.659 164.545L125.268 165.198L123.91 163.355L123.604 159.984L120.539 160.227L118.832 161.923L117.105 162.112L116.842 163.197L115.493 163.018L115.314 161.965L114.134 162.133L113.724 160.911L113.239 162.765L109.742 160.743L109.436 157.035L107.941 155.666L108.309 154.296L107.13 153.97L106.508 152.4L105.002 151.947L104.422 150.915L106.308 148.208L104.022 149.219L103.495 148.808L104.749 148.355L103.432 147.123L104.422 146.227L103.822 145.796L105.149 145.627L103.453 145.069L103.432 144.553L104.454 144.69L104.128 142.825L102.01 141.73L102.779 140.16L104.201 139.676L103.569 137.79L105.149 136.336L106.392 137.39L109.321 137.274V138.232L110.511 139.012L111.027 141.698L112.575 141.582L113.734 140.961L114.324 138.749L116.304 137.485L114.019 135.041L115.609 135.336L116.842 134.493L118.495 134.956L120.739 133.819L119.759 130.88L118.822 130.943L117.611 126.835L113.913 124.928L112.554 119.746L113.018 117.945L110.985 116.217L110.648 114.89L112.249 115.216L111.396 113.278L111.785 112.225L109.647 111.804L110.226 109.002L107.014 108.043L104.886 104.019L104.949 102.45L107.14 99.9743L105.792 94.7602L114.271 85.5327L113.207 80.7399L113.871 79.044L115.146 77.643L116.041 79.1177L117.368 79.8024L118.653 79.2547L121.139 81.2876L121.171 82.4569L120.065 83.1205L117.453 87.7974L119.928 87.829L121.971 89.9779L123.467 90.3255L123.509 92.0951L126.111 97.2356L124.268 100.006L126.712 99.0895L128.924 99.9111L128.566 100.964L131.02 101.049L131.799 97.1934L133.948 94.9076L133.169 94.8023L132.305 93.1169L130.135 92.5481L129.861 90.1675L128.576 89.4301L130.567 87.6078L129.377 84.1633L129.945 83.0678L133.137 81.9197L133.769 80.2027L132.937 77.6535L135.486 76.4L137.74 73.8298L138.857 73.7561L140.995 68.8158L142.533 68.6578L142.712 66.1403L145.177 61.5371L145.061 59.3777L143.924 58.1031L144.208 54.7008L142.459 52.5098L143.871 51.309L144.06 48.2647L148.695 47.2219L149.348 49.1074L151.329 50.4873L152.656 47.9593L154.183 47.2114L153.93 48.7493L153.204 49.0232L154.236 49.6446L154.11 57.7029L156.1 58.3665L157.154 61.5371L158.755 63.4542L159.239 63.0539L163.316 64.6972L165.57 63.4226L167.466 64.2232L168.951 59.7148L171.174 60.8735L178.147 57.3131L179.159 58.4718L180.623 57.4185L183.003 59.5778L182.192 61.8426L183.288 62.5483L183.161 64.8552L186.237 66.4247L185.679 69.1213L186.964 70.0167L188.123 69.2056L189.84 69.5111L192.747 67.0251L191.599 64.2653L188.902 61.1158L189.039 59.5357L190.177 58.8089L190.724 56.9444L191.978 56.6916L192.199 55.0905L191.251 54.8799L190.872 53.5737L187.585 54.153L185.373 52.3307L186.111 50.7401L185.51 49.6341L186.153 46.4635L185.616 44.894L188.649 41.618L188.755 39.3322L190.24 39.7325L193.432 38.0998L194.811 38.7739L196.107 37.4678L196.602 38.6897V38.6897Z" stroke="white"/>
<path d="M378.96 272.799L376.043 271.103L374.8 268.66L372.609 266.837L371.724 268.438L369.554 268.175L361.59 263.74L340.007 244.811L334.224 241.757L331.664 241.504L330.432 244.759L330.674 249.109L328.02 250.152L327.451 252.364L324.375 251.985L324.575 250.889L323.733 250.563L323.006 247.919L320.141 249.109V246.855L317.749 245.465L317.328 246.887L313.304 246.434L313.262 246.328L314.537 248.667H312.83L312.472 247.792L310.376 248.625L309.312 252.28L306.573 254.481L306.363 256.767L306.5 256.872L308.764 257.778L311.177 261.023L308.964 261.044L309.28 263.34L308.311 263.277L307.669 259.358L307.205 262.645L305.91 263.34L304.372 263.045L304.582 263.898L303.592 265.004L301.159 265.879L302.686 268.228L303.434 269.46L306.689 269.418L307.058 270.008L309.249 268.238L311.229 268.112L310.692 268.933L311.198 270.45L308.122 273.294L309.554 274.79L311.061 274.021L312.398 275.844L313.894 273.642L314.937 273.779L315.811 275.275L316.78 275.327L317.086 274.421L318.044 274.864L324.744 282.543L326.987 281.184L329.336 282.048L330.727 279.214L332.918 279.804L332.528 281.921L333.476 282.806L331.58 284.586L331.633 285.471L334.024 288.589L334.424 291.654L333.771 292.392L335.751 293.803L336.457 297.406L337.921 298.133L337.774 301.187L336.067 302.82L336.773 304.442L338.954 304.885L339.554 306.686L339.301 309.604L340.091 311.826L339.175 312.522L340.165 314.576L339.575 316.145L342.409 317.841L342.619 318.758L343.789 318.894L343.915 323.15L345.19 321.717L345.211 319.916L346.58 320.727L348.055 319.263L351.225 321.686L353.859 325.836L356.671 325.194L357.988 323.276L359.473 327.09L359.21 329.007L358.241 331.008L357.84 330.197L355.818 331.019L355.555 333.125L359.01 333.958L359.579 332.725L360.727 332.62L364.603 335.948L366.362 336.465L368.342 335.064L368.932 335.548L369.564 333.041L372.061 332.63L372.377 330.007L373.778 328.448L374.041 326.921L376.232 328.122L378.718 326.953L379.424 327.953L380.846 327.774L382.963 326.784L383.448 324.456L384.164 324.056L387.092 323.856L389.325 322.371L394.582 321.243L392.264 314.186L390.642 305.622L378.781 276.223L378.96 272.799V272.799ZM314.516 269.386L313.736 269.113L313.536 269.049L313.873 268.312L314.474 268.66L314.579 269.218L314.516 269.386V269.386Z" stroke="white"/>
<path d="M442.004 381.748L447.735 384.793L452.991 385.772L457.173 390.344L460.501 391.64L460.723 395.084L458.479 398.318L459.343 401.404L458.331 403.079L459.385 404.364L458.595 404.912L459.648 406.481L461.607 407.377L459.448 408.451L458.732 410.031L457.921 409.22L457.889 410.084L455.687 411.042L454.297 413.592L450.884 412.012L449.567 413.613L450.526 414.455L449.778 420.333L451.421 421.039L453.518 423.462L450.378 425.674L447.587 425.895L445.923 427.58L441.699 425.779L439.887 428.834L437.907 429.445L436.917 428.665L434.841 428.907L434.884 429.898L433.778 429.971L431.471 432.025L430.186 430.172L426.667 430.719L425.414 429.761L425.014 428.086L416.576 425.621L414.438 424.473L414.164 423.409H412.289L412.078 422.514L408.444 422.44L408.033 423.893L405.621 421.882L403.304 426.127L404.757 427.886L405.042 430.435L403.672 429.529L401.408 430.035L399.238 427.454L399.533 425.853L397.932 425.042L398.732 423.683L397.668 422.787L400.681 420.618L399.396 419.501L400.291 419.311L400.512 418.311L399.069 416.72L399.785 416.056L399.68 414.613L398.205 410.832L396.109 409.02L398.321 408.472L400.291 409.505L400.586 407.967L401.987 407.914L402.903 405.386L404.125 405.291L404.957 407.472L405.621 404.691L407.717 404.638L408.423 403.332L408.686 404.396L409.582 404.533L410.024 403.448L408.423 402.51L407.106 398.771L407.549 397.823L409.887 397.665L411.394 395.326L414.459 392.819L415.449 394.147L416.755 394.01L417.787 396.316L418.388 396.548L419.494 395.158L422.064 396.864L423.223 397.991L424.35 402.51L423.518 403.184L425.667 403.574L430.681 398.17L432.492 394.241L434.978 392.493L435.842 389.227L438.265 386.236L441.256 384.171L440.298 383.286L441.53 381.338L442.004 381.748V381.748Z" stroke="white"/>
<path d="M98.7977 50.793L100.43 52.4467L99.7774 54.0479L100.557 56.123L100.178 61.1159L98.1236 63.802L99.7036 66.4249L99.0084 67.6678L100.504 69.0056L103.717 70.059L106.034 74.2619L107.593 74.9255L107.267 76.0421L108.067 77.4957L109.974 77.4325L112.102 79.0652L113.829 78.9283L113.166 80.6242L114.229 85.417L105.75 94.6444L107.098 99.8691L104.907 102.345L104.844 103.925L106.972 107.948L110.185 108.907L109.605 111.698L111.744 112.12L111.354 113.173L112.207 115.122L110.595 114.785L110.932 116.123L112.965 117.839L112.502 119.641L113.861 124.823L117.558 126.73L118.769 130.838L119.707 130.775L120.687 133.714L118.443 134.851L116.779 134.398L115.546 135.241L113.956 134.936L116.241 137.379L114.261 138.643L113.671 140.855L112.513 141.477L110.964 141.593L110.448 138.907L109.258 138.127V137.169L106.34 137.285L105.086 136.231L103.517 137.685L104.149 139.57L102.716 140.055L101.958 141.624L104.075 142.72L104.402 144.584L103.369 144.447L103.39 144.953L105.097 145.511L103.77 145.68L104.37 146.122L103.369 147.018L104.686 148.25L103.433 148.703L103.959 149.114L106.245 148.103L104.359 150.81L104.939 151.842L106.445 152.306L107.067 153.875L108.246 154.202L107.867 155.571L109.374 156.93L109.679 160.648L113.166 162.66L113.65 160.817L114.071 162.028L115.251 161.859L115.441 162.923L116.789 163.092L117.053 162.018L118.78 161.828L120.486 160.132L123.552 159.879L123.857 163.26L125.216 165.104L126.607 164.451L127.091 164.914L127.86 166.273L127.607 168.095L129.24 170.781L131.01 172.351L132.084 172.225L132.842 174.321L131.852 175.385L133.074 176.617L132.948 177.607L134.475 177.744L134.949 178.566L137.814 177.776L138.309 180.862L140.7 182.632L140.047 184.739L140.437 187.741L139.91 187.54L139.942 192.892L140.005 194.419L136.297 195.967L134.591 194.693L134.644 193.134L133.106 192.238L131.589 192.544L129.904 188.931L127.502 189.194L126.743 188.12L125.048 188.373L124.384 190.121L122.73 191.448L124.247 193.092L124.563 197.01L123.046 197.832L122.13 196.578L119.728 196.894L119.76 198.443L117.927 199.981L118.306 201.54L116.968 202.035L116.557 199.717L115.652 199.749L115.968 198.801L114.082 195.704L112.376 195.462L108.636 195.241L107.341 197.274L108.173 198.232L105.286 201.434L104.233 200.644L100.852 200.771L100.494 199.865L99.2928 201.666L97.7444 200.571L96.9017 200.971L96.3118 203.288L94.9319 204.036L91.6875 201.287L89.7388 201.087L88.7065 199.486L87.0738 200.792L87.116 202.783L85.6623 203.267L87.1054 206.712L86.3154 208.745L82.9657 210.599L83.208 212.705L82.1757 214.401L80.8169 214.233L80.5008 216.529L78.9629 215.844L78.5205 216.413V217.467L79.8583 218.846L78.5416 220.142L79.4475 221.301L78.668 223.102L80.2059 224.44L80.2586 226.483L79.0156 228.116L77.5198 228.632L75.9082 227.558L73.97 229.148L75.3499 229.801L75.9398 230.718L75.4868 231.487L73.4117 230.76L71.6947 231.687L62.2145 228.653L60.1709 229.791L59.6759 231.413L60.6344 232.93L62.0143 232.909L60.3816 234.668L59.5389 234.384L59.6021 232.814L57.0319 229.348L57.98 226.072L55.3676 225.967L54.4407 227.979L51.3859 227.473L45.9295 229.78L44.2968 229.412L43.9597 230.781L42.2322 229.801L40.3045 230.528L39.5461 228.232L36.1122 228.632L34.195 226.304L32.7941 226.536L31.1614 224.092L29.7709 223.629L28.7702 224.176L25.568 222.006L22.745 222.417L21.4178 221.511L20.7647 218.172L18.7106 216.982L18.9002 215.908L17.1306 214.275L16.8883 212.863L14.9712 211.989L15.2661 207.533L18.2787 206.943L14.4761 203.12L13.2963 199.296L14.4866 197.505L16.172 197.326L17.415 196.104L18.3419 192.755L19.3216 192.67L18.2893 190.142L19.0372 188.32L20.396 187.288L25.2204 187.593L24.7148 185.613L22.7661 184.465L22.1867 181.073L21.0701 179.851L22.292 177.249L21.3862 176.048L17.6151 174.31L16.2457 175.68L13.7177 175.195L10.4733 172.994L10.3048 172.056L7.63977 171.013L7.85045 168.822L7.2395 168.454L8.37713 166.831L6.90242 164.535L7.62924 163.956L7.2711 162.734L3.44739 162.302L2.79431 158.352L1.82521 158.078L0.898254 155.771L3.40526 154.212L3.8266 153.074L7.16576 153.264L8.54566 151.621L12.8434 153.422L12.9382 154.096L15.3188 153.369V150.947L18.1629 150.841L18.6053 149.251L21.1439 147.018L22.5027 147.239L23.7983 146.459L24.8201 147.65L27.0743 144.89L27.8433 144.995L28.4015 142.225L27.0638 138.77L28.0961 138.58L28.5279 136.958L29.9184 136.231V134.683L31.2351 132.787L27.2955 130.669L26.6424 128.089L28.5069 124.339L28.8861 127.341L29.8341 126.625L33.0679 127.752L35.5855 124.581L38.5349 124.507L40.5152 123.57L41.5264 124.276L45.2553 121.284L46.235 119.63L47.5306 119.219L49.4793 119.714L51.6703 118.524L53.7876 119.841L53.9245 120.757L55.4098 120.062L57.4849 121.431L59.9287 121.031L60.645 121.674L65.7959 118.019L68.5768 117.808L69.6407 118.493L70.4096 115.29L71.6737 115.038L69.7565 111.108L71.5051 108.127L71.1259 106.863L69.4195 106.231L67.6182 102.966L68.3556 97.6465L67.6182 93.3699L68.3766 92.6536L68.482 88.8299L70.0304 87.1656L74.4019 87.292L75.5711 86.0595L75.6975 84.4584L76.9194 83.5841L76.2137 81.3615L76.7825 79.2654L80.701 78.3489L81.2909 76.8426L83.3028 75.7893L83.1764 74.2197L84.0085 73.0189L82.5654 69.5639L81.017 67.6573L79.2157 66.8146L82.576 63.4755L84.1033 63.9389L86.4102 63.0225L87.1897 60.9895L89.2121 60.0942L89.2437 58.6721L91.7507 57.6293L92.2458 56.0492L90.7184 55.3119L91.5401 54.0057L92.5934 53.9215L94.6896 51.899L98.7977 50.793V50.793Z" stroke="white"/>
<path d="M508.019 390.018L512.074 390.808L517.246 394.747L516.54 396.369L517.868 398.887L517.783 400.572L517.372 402.647L515.94 404.08L510.957 407.409L510.652 408.546L501.814 414.076L501.972 420.07L504.606 425.052L508.25 427.696L518.12 432.268L521.259 434.733L529.792 437.946L538.671 443.307L549.131 446.636L550.88 448.142L552.776 448.195L553.25 448.985L554.24 448.553L554.503 449.322L558.917 451.239L566.133 453.599L576.287 460.245L580.111 464.912L582.217 465.87L587.021 470.389L599.461 475.382L605.992 479.912L611.901 480.617L613.081 482.566L612.565 483.461L616.346 483.588L615.999 484.736L617.642 486.769L617.073 488.918L619.443 491.846L621.95 494.132L628.144 497.587L638.025 508.184L640.131 512.882L639.889 514.736L641.522 518.549L643.018 519.465L642.48 519.971L643.102 521.709L641.29 523.373L640.774 525.88L638.678 527.334L637.161 530.673L636.234 535.476L636.265 541.797L635.096 543.44L633.822 543.777L629.787 540.659L624.415 539.532L617.642 534.023L614.777 529.03L616.051 528.503L615.862 526.449L613.671 525.269L615.261 524.1L615.693 521.467L610.837 515.431L611.185 513.419L610.11 511.112L607.456 508.911L597.902 507.51L588.653 508.226L585.335 505.824L582.491 505.519L573.348 500.231L572.168 500.262L572.484 499.304L574.507 498.419L574.739 496.86L573.316 495.133L570.904 495.248L570.293 493.542L567.291 492.415L563.267 493.015L559.581 495.017L555.82 498.345L553.576 502.043L552.755 500.083L550.912 498.535L550.532 496.829L548.668 495.701L546.877 496.165L545.971 495.164L546.982 492.973L545.761 492.046L546.224 491.193L545.213 490.129L545.666 487.085L546.329 486.6L545.36 484.43L546.308 480.628L545.023 479.143L546.098 478.605L543.022 476.267L542.464 477.057L541.231 476.32L541.052 475.277L539.999 475.951L538.218 475.182L538.103 477.015L537.207 475.614L536.186 475.888L536.259 477.879L534.11 475.277L530.434 479.532L528.822 479.09L528.011 477.257L521.091 470.895L517.994 464.09L515.887 463.405L513.644 465.47L511.969 463.879L506.08 461.372L505.448 460.182L507.039 460.466L508.935 458.307L508.608 456.674L509.283 455.579L507.344 453.999L506.702 454.441L506.059 451.966L504.732 451.65L504.479 450.575L502.646 450.259L500.224 448.521L498.728 449.417L497.875 449.111L498.064 449.912L496.305 450.365L496.463 451.365L494.694 452.334L493.156 451.218L490.512 452.166L485.614 451.344L483.57 451.745L482.148 453.04L482.496 454.336L478.704 452.44L477.05 452.587L474.838 450.691L473.047 452.05L470.066 450.797L468.907 451.745L466.79 450.228L466.021 448.237L464.367 447.426L465.231 445.33L467.359 444.066L466.463 441.559L468.159 440.484L466.832 438.978L465.126 439.315L464.03 437.756L460.428 437.903L460.206 435.618L457.078 434.501L456.425 431.741L457.31 430.509L458.426 430.319L457.857 429.055L458.721 428.234L458.532 427.391L455.53 426.548L453.623 423.557L451.527 421.134L449.884 420.428L450.642 414.55L449.673 413.697L450.99 412.096L454.402 413.676L455.793 411.137L457.994 410.179L458.026 409.305L458.837 410.116L459.553 408.536L461.723 407.461L459.764 406.576L458.711 404.996L459.49 404.449L458.447 403.164L459.459 401.489L458.595 398.402L460.838 395.179L460.617 391.735L471.604 392.409L472.921 393.483L476.281 393.61L486.741 391.661L490.291 392.662L494.641 392.44L508.019 390.018V390.018Z" stroke="white"/>
<path d="M95.1317 590.746L95.7111 591.758L98.0917 591.073L100.325 594.833L99.124 600.753L97.4807 601.691L94.5313 596.055L93.9414 593.053L95.1317 590.746ZM91.7715 585.975L91.6346 591.726L89.9281 592.126L88.5061 591.126L88.5588 589.345L86.9366 588.387L89.5068 586.027L91.7715 585.975ZM168.667 463.964L169.246 464.501L166.623 466.176L166.065 465.744L168.972 463.353L168.667 463.964V463.964ZM87.4317 459.866L86.8418 460.467L86.7786 459.413L87.4317 459.866ZM92.4983 449.701L92.7827 450.892L94.0889 451.766L93.3199 452.545L93.1409 454.61L90.2652 453.272L87.9689 456.464L88.6641 456.264L89.5278 457.97L89.0328 459.413L86.61 459.108L87.6529 456.506L86.9892 456.411L87.1578 455.231L88.7168 454.578L89.6332 452.893L90.6444 452.777L90.0756 450.723L92.4983 449.701V449.701ZM154.689 440.927L155.595 442.538L154.289 444.729L155.194 444.972L152.772 445.34L153.92 440.79L154.689 440.927ZM147.6 440.242L148.621 440.885L147.505 441.875L147.6 440.242ZM141.627 439.757L144.282 441.938L143.492 443.918L144.608 445.087L147.189 444.908L147.473 443.56L148.79 443.413L149.359 445.33L149.959 445.488L152.045 445.509L151.013 446.847L152.34 447.078L153.288 448.532L153.109 451.608L154.678 449.227L154.383 448.016L157.006 448.163L157.333 446.952L158.302 448.258L157.712 448.606L158.744 448.669L158.46 449.965L159.861 449.901L160.135 451.081L159.081 452.682L158.502 451.976L158.091 452.366L158.397 453.883L157.522 454.431L156.711 457.57L157.522 457.528L157.701 456.106L159.555 455.547L158.997 457.917L160.388 457.981L160.345 457.117L160.83 457.433L161.346 456.601L165.086 458.528L164.348 459.308L162.062 458.139L160.609 459.392L161.22 460.488L159.861 462.31L160.208 463.29L157.343 462.868L156.385 463.3L157.333 463.795L159.566 463.848L160.472 464.217L160.072 464.648L161.093 465.849L162.652 463.69L163.98 463.943L162.421 465.923L164.78 467.092L164.222 468.525L165.981 468.135L168.193 469.662L167.424 470.252L166.371 469.873L165.939 470.895L166.539 471.706L165.612 472.191L165.465 473.518L167.951 475.983L167.782 478.848L169.889 481.492L169.246 484.188L169.92 486.874L171.859 488.686L172.154 490.593L173.902 491.688L170.595 501.348L166.444 504.887L163.031 510.722V514.336L164.475 518.602L166.602 521.456L168.772 522.72L168.751 524.469L166.255 530.599L166.423 532.833L167.719 533.159L167.94 533.949L166.012 535.898L166.792 539.237L165.349 544.156L165.823 549.065L164.095 553.31L164.654 559.114L163.337 563.791L164.095 566.614L161.494 574.514L161.82 576.737L163.379 578.011L161.736 578.559L160.609 580.287L159.555 585.164L160.451 586.512L159.313 589.651H158.239L157.27 590.841L157.407 592.211L156.353 591.326V589.798L155.352 589.419L152.803 590.283L145.177 583.994L140.5 583.015L138.256 584.374L137.751 586.175L135.054 584.005L132.811 584.995L130.135 588.324L130.082 592.695L131.631 594.855L130.314 599.837L129.735 599.258L128.966 599.647L121.497 607.168L120.17 607.116L119.117 605.736L118.432 606.631L117.084 604.482L114.155 602.807L113.976 603.903L111.069 604.619L111.375 605.715L110.226 606.294L110.753 607.695L109.847 608L110.153 605.883L107.993 605.999L108.762 602.523L106.087 600.09L105.634 595.602L103.885 594.591L100.809 594.528L101.294 592.579L100.546 590.947L99.8719 590.315L98.7132 590.936L98.671 587.871L95.0053 583.942L94.9 582.909L98.0496 579.96L98.6078 578.506L97.7967 575.652L96.3431 575.136L96.1324 573.334L95.2687 572.618L97.3543 569.321L97.3017 568.078L95.7321 567.046L95.9534 565.992L99.5453 560.683L100.504 556.807L99.3452 554.542L99.8087 552.415L99.1556 551.224L99.6928 549.539L99.1661 546.031L99.8824 545.146L101.757 548.38L102.579 548.317L102.937 546.137L104.644 543.229L105.065 538.721L103.464 535.803L100.925 535.645L98.9133 537.71L96.6064 535.529L96.3431 530.8L97.4281 527.692L95.5109 526.576L96.8803 525.438L97.407 526.175L99.6612 525.48L101.599 523.416L101.684 521.825L99.8192 516.642L101.22 508.911L99.9772 506.53L97.8915 505.319L95.8375 505.203L95.6479 503.686L96.8487 500.147L95.3424 494.48L93.4358 493.805L91.3923 487.443L88.5377 488.012L88.3902 488.981L86.2414 489.034L86.2203 487.18L87.0103 486.632L85.8621 485.431L83.9556 488.433L83.3657 488.244L83.0602 485.094L85.2196 484.104L86.3572 480.754L84.714 480.049L82.4387 477.457L84.2821 474.982L83.9872 472.938L85.4197 471.695L87.3579 466.365L84.8298 462.847L86.3046 460.319L88.1163 461.625L87.853 464.638L92.2034 469.304L95.4161 469.947L97.8178 469.547L99.8613 471.042L105.592 470.2L112.786 464.385L118.063 463.606L122.424 458.644L122.308 457.264L125.553 455.316L129.882 449.438L131.62 448.5L132.305 449.269L135.033 448.743L135.676 447.278L137.445 447.205L138.309 446.236L137.509 444.224L138.214 441.927L136.855 441.696L137.013 440.705L138.119 441.453L139.636 440.642L139.699 441.611L141.627 439.757V439.757ZM151.824 439.062L153.362 441.548L152.909 442.76L149.791 443.244L149.317 441.917L150.876 440.737L150.739 439.578L151.466 440.358L151.824 439.062V439.062Z" stroke="white"/>
<path d="M315.284 678.028L314.294 674.573L315.685 673.825L315.284 678.028ZM483.285 646.849L485.834 648.555L488.721 649.25L485.813 650.051L484.223 651.368L483.412 654.412L484.296 654.233L479.957 662.228L469.676 675.637L469.644 677.375L467.896 678.565L468.106 679.534L464.63 684.022L464.23 685.202L464.999 687.013L463.924 690.784L462.639 692.428L462.713 696.136L459.427 699.243L457.804 702.266L458.426 713.432L461.944 715.612L463.535 716.012L464.251 715.307L467.032 718.709L466.453 719.51L465.452 718.814L465.252 720.573L464.767 718.604L463.556 719.025L463.208 722.406L464.262 724.871L465.705 724.397L466.305 725.271L465.473 724.924L465.073 725.514L465.778 727.231L467.285 728.084L469.118 728L469.223 731.223L468.085 730.791L467.99 732.466L468.728 732.929L469.75 732.329L471.266 734.952L469.381 734.109L468.022 734.657L467.253 736.932L464.43 737.606L461.386 740.967L458.268 748.656L460.701 756.335L460.217 757.547L459.363 757.02L457.488 758.8L454.118 755.229L450.863 755.819L448.493 753.797L446.533 753.291L441.319 755.092L439.286 753.976H436.411L433.577 751.279L430.923 750.226L425.793 749.562L423.928 747.55L423.065 743.884L419.683 737.817L413.342 731.392L408.086 728.916L402.914 727.768L397.373 727.894L394.002 728.79L392.412 728.337L389.568 725.44L385.681 725.092L380.814 722.08L379.813 719.847L375.105 715.981L373.504 716.392L372.703 715.507L369.438 715.412L366.899 712.758L362.602 710.63L361.211 708.976L359.863 708.881L358.746 706.364L354.08 701.834L349.277 701.023L346.211 701.75L343.093 697.062L340.671 696.23L333.234 695.967L327.577 697.368L323.975 691.89L321.689 690.437L319.245 690.595L316.907 687.888L316.707 684.843L314.136 680.978L316.19 679.798L317.391 675.995L315.895 673.73L318.076 670.676L317.865 668.558L319.171 667.979L317.612 666.294L319.203 665.893L322.005 662.712L323.785 663.039L325.671 662.291L326.945 661.016L326.819 659.837L329.536 659.942L330.959 657.888L329.789 655.581L330.643 654.464L331.001 655.36L332.665 655.17L332.718 657.077L333.855 658.193L333.813 659.879L335.003 661.996L339.807 665.714L344.547 664.408L349.371 661.406L348.023 657.93L349.055 657.688L349.751 656.371L349.329 655.655L351.036 654.212L355.523 655.802L357.746 654.896L358.209 653.464L360.052 653.738L362.349 652.052L363.044 653.822L365.014 655.002L365.551 657.266L364.771 658.467L365.877 660.016L369.343 660.985L371.713 660.405L372.651 659.226L374.22 659.668L374.252 662.828L375.884 664.703L383.721 668.938L386.65 669.391L391.843 667.979L396.393 665.293L400.459 664.492L402.819 666.051L405.105 666.294L407.096 665.282L414.69 666.799L419.304 666.199L422.211 664.566L425.076 664.998L433.735 662.228L439.634 655.929L441.909 656.887L447.302 655.455L448.598 654.127L451.653 656.813H455.635L456.519 658.488L458.584 658.91L462.682 656.655L465.052 653.969L466.252 650.62L465.336 648.692L466.221 648.629L466.958 650.24L466.389 652.463L468.759 653.127L474.806 651.473L481.442 646.996L483.285 646.849Z" stroke="white"/>
<path d="M200.12 360.86L201.026 362.756L200.226 363.525L199.162 363.346L198.993 361.081L200.12 360.86V360.86ZM231.016 357.964L233.091 360.102L232.859 363.283L230.784 360.713L229.92 360.576L231.016 357.964V357.964ZM187.501 341.236L188.639 343.459L187.954 345.018L185.616 343.985L187.122 343.28L187.501 341.236V341.236ZM205.756 323.045L207.157 324.519L206.346 326.763L206.683 329.575L204.028 331.008L206.609 332.799L206.03 334.779L203.428 333.936L202.459 331.061L201.648 330.671L200.363 330.924L200.436 332.683L199.488 330.997L198.614 332.746L196.265 331.703L196.033 333.441L193.168 332.662L191.43 332.936L191.63 333.494L189.724 332.325L188.639 330.481L188.744 328.817L190.682 327.332L193.684 327.258L196.36 328.891L196.539 328.059L197.666 327.764L197.287 327.163L197.972 326.668L197.329 325.783L201.153 326.7L200.352 327.721L202.354 328.08L205.166 322.802L205.756 323.045V323.045ZM174.071 308.561L174.798 310.646L172.87 313.196L171.901 311.795L172.438 309.372L173.734 308.003L174.071 308.561V308.561ZM303.729 253.754L303.813 253.923L304.129 255.082L301.833 256.272L300.39 254.597L300.674 253.417L303.592 253.438L303.729 253.754V253.754ZM166.002 211.989L169.794 209.787L173.386 204.141L179.022 203.52L181.592 204.436L182.119 205.742L183.225 205.974L182.656 208.744L183.846 210.071L188.354 213.168L190.925 212.631L196.855 218.909L199.362 217.656L201.669 218.951L203.354 218.983L206.462 222.185L208.221 221.88L209.506 222.585L209.453 224.039L211.286 225.724L211.539 227.357L215.141 230.57L216.901 230.127L216.827 228.716L217.88 227.42L223.747 227.557L228.983 231.802L231.384 232.34L232.101 233.298L231.763 234.299L232.459 234.615L237.578 228.863L237.999 229.822L237.357 230.917L238.99 232.129L241.897 232.466L245.415 230.939L248.67 231.876L251.345 231.708L251.082 230.57L247.996 228.779L248.112 227.789L252.315 227.642L254.716 225.461L254.927 224.334L257.55 224.06L260.141 221.543L261.542 222.817L261.9 225.082L263.375 225.482L265.197 227.557L266.472 227.831L267.557 226.778L270.295 227.336L270.506 228.432L268.979 230.644L271.781 231.023L277.543 229.864L277.184 232.698L275.046 235.005L274.593 237.101L272.824 237.775L273.034 238.923L272.328 238.828L272.065 240.04L274.351 242.231L274.003 243.948L275.92 245.233L275.636 248.456L279.407 250.563L281.514 253.101L286.433 253.323L286.981 254.692L288.403 254.881L288.624 255.903L290.352 257.009L291.468 256.567L293.006 257.515L293.975 257.252L295.144 258.589L296.956 257.641L298.452 257.81L299.969 256.967L301.601 259.4L302.476 257.325L304.625 257.726L306.352 256.788L306.531 256.925L308.796 257.831L311.208 261.075L308.996 261.096L309.312 263.393L308.343 263.329L307.7 259.411L307.237 262.697L305.941 263.393L304.403 263.098L304.614 263.951L303.624 265.057L301.191 265.931L302.718 268.28L300.106 271.577L299.295 274.305L296.988 274.116L296.408 274.706L296.229 276.56L298.979 278.119L298.873 278.709L296.63 279.657L295.566 281.447L294.417 281.089L292.616 282.922L292.964 283.975L295.218 283.744L295.334 286.546L296.84 285.977L297.525 286.609L298.589 289.021L297.967 290.822L298.389 291.77L300.738 292.655L301.686 290.306L303.308 291.633L296.282 296.036L293.965 294.741L293.101 295.13L293.627 296.531L292.585 299.407L287.128 302.62L286.612 304.01L287.539 306.581L287.191 307.866L288.024 309.519L288.908 308.413L290.246 309.846L287.697 320.222L288.845 321.012L289.003 322.918L287.655 323.002L285.601 325.467L282.988 325.32L281.282 326.447L280.745 328.564L280.007 327.174L278.743 326.679L277.522 329.249L281.503 332.367L280.408 334.853H279.112L279.544 337.602L280.65 338.108L280.734 339.245L279.26 340.214L277.817 340.014L276.858 342.268L275.499 342.005L273.919 343.174L273.708 344.312L271.876 345.239L271.022 344.997L270.317 345.934L269.116 344.828L268.463 345.176L268.937 347.03L267.494 349.073L270.432 351.085L270.527 354.698L263.364 354.782L261.416 359.154L252.599 357.1L251.367 356.099L248.491 356.857L248.628 358.416L247.585 358.922L247.343 360.207L245.426 360.365L243.993 358.574L242.287 358.037L241.823 355.32L242.855 354.024L243.751 354.94L246.11 354.74L247.174 352.57L247.501 349.284L245.678 345.523L243.824 345.903L242.792 342.869L241.633 341.742L241.855 340.709L237.494 338.845L236.514 334.926L234.186 332.514L229.52 330.639L225.949 330.218L222.705 328.09L224.643 326.9L224.79 323.055L225.728 321.696L225.032 320.148L223.147 318.736L219.776 317.167L216.764 316.84L212.835 317.451L212.424 319.316L209.99 318.494L209.369 314.344L211.149 313.501L212.329 306.96L211.634 295.246L210.401 292.192L208.126 289.811L206.198 284.07L205.061 283.965L203.849 280.636L201.09 278.551L199.383 273.989L199.72 271.504L197.761 263.372L198.393 262.445L198.13 258.221L196.191 249.025L190.882 240.924L186.543 237.08L184.267 235.984L186.616 233.309L186.901 231.855L184.404 230.307L182.529 231.887L183.045 230.591L182.055 229.127L181.855 226.641L177.715 226.788L179.022 224.703L179.812 224.639L178.263 223.565L176.072 225.408L176.525 222.533L175.672 221.795L175.577 219.088L172.849 217.972L168.604 214.675L167.54 211.957L166.002 211.989V211.989Z" stroke="white"/>
<path d="M302.076 1.88511L303.898 3.31768L302.676 4.18144L302.107 6.46724L298.979 6.79378L297.588 8.13155L298.484 12.1343L300.169 13.7354L298.8 15.7579L301.191 16.2108L302.708 18.6546L304.151 17.5275L306.005 17.9594L307.669 21.3512L306.479 23.3L306.416 25.7438L310.229 26.4285L311.672 30.9158L316.981 33.9811L314.39 34.9502L312.63 36.9199L311.703 36.7093L312.104 38.1102L311.567 38.5948L310.239 38.658L309.46 37.7205L306.31 38.7107L305.036 37.9101L301.517 40.7015L301.402 38.3209L299.769 37.2886L298.895 37.5941L294.755 34.3603L295.071 36.8146L293.48 39.6376L293.659 41.2071L291.068 45.3363L290.457 44.5252L289.235 44.5884L287.992 45.8314L286.339 45.4943L281.209 48.0856L281.082 49.8131L284.316 50.2555L284.948 51.7197L282.525 54.5848L282.241 58.4401L281.388 57.6606L278.902 59.1669L281.967 61.7372L282.578 63.2119L281.872 65.2133L282.704 65.9506L284.98 65.4239L285.443 67.4674L286.117 67.0356L287.392 67.6571L286.56 69.7322L289.119 72.0706L288.477 73.756L287.318 73.2925L285.517 77.4533L281.103 78.9912L278.754 78.7384L277.964 79.56L277.269 78.749L274.383 79.6654V81.7932L275.352 83.4048L273.182 84.0474L273.962 84.7637L273.193 85.6169L274.393 87.7447L273.435 89.7145L269 89.3984L268.431 86.4385L266.441 85.8065L264.176 86.112L261.29 88.5031L257.476 88.2608L257.877 91.2629L256.518 91.4314L255.802 93.0536L256.17 94.0964L253.558 92.6849L253.484 91.8633L253.505 93.2959L250.956 93.1063L250.05 98.2783L247.575 101.259L248.207 103.745L246.574 103.587L246.711 107.379L244.078 110.929L242.392 110.708L240.359 108.77L238.632 109.697L238.168 108.464L236.23 111.256L235.714 110.16L234.134 111.94L232.564 110.961L233.249 109.76L231.09 108.696H228.783L231.09 104.44L230.268 102.85L231.616 101.691L228.793 99.9426L224.622 99.1315L224.211 100.048L222.873 99.0051L218.649 99.8583L218.144 102.123L216.069 102.186L213.804 103.598L212.414 103.461L211.982 102.544L212.708 101.08L210.338 100.069L209.791 95.529L210.749 93.317L209.38 91.2208L209.548 89.0824L207.716 88.7454L207.663 87.692L208.263 85.7643L209.527 84.7637L209.148 82.7623L212.656 78.4751L213.635 73.8192L212.519 72.1444L214.91 67.7624L214.373 65.5187L213.52 65.0236L214.447 63.6859L213.815 61.5581L211.034 60.2203L213.762 57.5448L215.837 57.4184L217.406 55.7751L216.522 54.3215L216.764 52.0041L215.679 50.5715L212.898 48.7071L208.927 48.3911L207.726 45.5575L208.779 44.62L209.717 39.2795L207.315 37.0885L204.903 37.415L204.018 33.5702L205.64 31.5583L204.85 29.7149L207.157 27.8821L205.872 25.1749L207.389 24.3323L208.927 19.9713L210.107 20.9194L213.056 20.7087L212.666 21.6357L219.081 18.6441L220.514 19.4552V20.5191L223.843 21.8779L224.317 22.7311L222.473 25.512L223.885 25.7543L225.602 24.8905L227.076 26.4917L228.319 25.9755L230.932 27.5029L232.68 26.5865L238.21 27.1763L239.201 24.1637L241.613 22.8997L240.96 20.3295L242.466 17.5697L242.319 15.6736L243.267 14.3043L244.646 14.4939L245.889 13.5669L246.037 11.5128L247.354 11.1231L248.323 11.7656L254.401 9.41665L255.296 10.0276L256.423 9.53252L258.941 11.5866L260.91 10.7544L263.017 7.88927L266.103 10.1224L270.528 7.76287L272.929 9.36398L275.457 9.42718L276.374 10.923L277.459 11.2284L279.334 9.49039L282.273 9.35345L286.507 6.08803L288.203 6.00376L289.709 4.79239L292.058 4.99253L293.112 3.83383L295.039 4.03397L296.24 2.51713L297.367 2.92794L300.928 1.42163L302.076 1.88511V1.88511Z" stroke="white"/>
<path d="M314.284 269.724L313.736 269.113L313.536 269.05L313.789 268.333L314.484 268.66L314.589 269.218L314.284 269.724V269.724ZM302.665 268.165L303.413 269.397L306.668 269.355L307.037 269.945L309.228 268.175L311.208 268.049L310.671 268.87L311.176 270.387L308.101 273.231L309.533 274.727L311.04 273.958L312.377 275.781L313.873 273.579L314.916 273.716L315.79 275.212L316.759 275.264L317.065 274.358L318.023 274.801L324.723 282.48L326.966 281.121L329.315 281.985L330.706 279.151L332.897 279.741L332.507 281.858L333.455 282.743L331.559 284.523L331.612 285.408L334.003 288.526L334.403 291.591L333.75 292.329L335.73 293.74L336.436 297.343L337.9 298.07L337.753 301.124L336.046 302.757L336.752 304.379L338.933 304.822L339.533 306.623L339.28 309.541L340.07 311.763L339.154 312.459L340.144 314.513L339.554 316.082L342.388 317.778L342.598 318.695L343.768 318.831L343.894 323.087L345.168 321.654L345.19 319.853L346.559 320.664L348.034 319.2L351.204 321.623L353.838 325.773L356.65 325.131L357.967 323.213L359.452 327.027L359.189 328.944L358.22 330.945L357.819 330.134L355.797 330.956L355.534 333.062L354.744 337.76L353.343 339.109L351.636 338.435L351.583 339.256L348.634 341.068L346.464 339.93L345.716 341.542L342.293 341.5L341.461 342.522L339.343 341.479L338.732 342.711L339.386 345.397L337.184 346.103L335.235 347.82L333.076 347.715L332.897 349.116L329.674 350.043L331.117 352.191L327.967 354.267L326.703 354.319L325.766 352.371L324.512 352.455L324.28 356.542L319.719 360.081L318.803 359.028L318.855 357.258L315.021 357.816L316.043 356.321L313.631 355.488L313.652 353.319L314.368 353.076L313.589 352.36L313.852 350.401L312.304 350.232L310.197 351.939L308.901 350.611L306.931 350.843L307.658 350.359L306.057 349.516L306.847 348.81L305.752 347.915L305.973 345.861L304.214 345.039L303.634 340.331L301.875 338.161L300.169 337.444L298.715 338.698L298.009 338.477L297.883 339.267L296.819 338.14L292.943 339.519L288.582 336.823L287.223 334.6L289.172 333.505L290.236 331.419L287.307 329.534L285.601 325.447L287.655 322.982L289.003 322.897L288.845 320.991L287.697 320.201L290.246 309.825L288.908 308.393L288.024 309.499L287.202 307.845L287.55 306.56L286.623 304L287.139 302.61L292.595 299.397L293.649 296.521L293.122 295.131L293.996 294.752L296.314 296.047L303.339 291.644L301.717 290.317L300.769 292.666L298.42 291.781L298.009 290.833L298.631 289.032L297.567 286.62L296.882 285.988L295.387 286.556L295.271 283.754L293.017 283.986L292.669 282.933L294.47 281.1L295.618 281.458L296.682 279.667L298.926 278.719L299.031 278.13L296.282 276.571L296.461 274.717L297.04 274.127L299.347 274.316L300.158 271.588L302.665 268.165V268.165Z" stroke="white"/>
<path d="M52.26 87.9871L52.8709 89.2195L56.8948 88.6507L57.8533 90.2097L59.2438 90.7785L59.9179 92.8115L61.6033 91.6001L64.2051 93.296L65.4375 92.6008L67.618 93.3697L68.3553 97.6464L67.618 102.966L69.4192 106.231L71.1257 106.863L71.5049 108.127L69.7563 111.108L71.6734 115.037L70.4094 115.29L69.6404 118.492L68.5766 117.808L65.7957 118.018L60.6447 121.674L59.9284 121.031L57.4846 121.431L55.4095 120.062L53.9243 120.757L53.7873 119.841L51.6701 118.524L49.4791 119.714L47.5304 119.219L46.2347 119.63L45.2551 121.284L41.5262 124.275L40.515 123.57L38.5347 124.507L35.5852 124.581L33.0677 127.751L29.8339 126.624L28.8859 127.341L28.5066 124.339L26.6422 128.089L23.777 127.678L24.0615 125.961L21.1226 125.16L20.8803 119.83L19.8796 118.777L21.112 114.785L19.2792 113.679L16.5405 113.868L15.9927 112.341L13.412 111.372L10.7575 108.306L11.1472 107.042L10.3467 103.935L11.4106 99.574L12.6641 99.2159L13.7069 99.8901L14.4759 98.6366L16.3614 99.2896L17.9309 98.7946L18.4892 97.7096L20.9224 96.8564L21.2595 94.6864L23.4294 92.8536L26.7581 97.9097L29.4652 96.277L31.4245 97.8571L32.7306 95.6345L34.9743 95.5713L36.9019 93.0221L41.8738 94.9603L46.5613 92.0109L46.5191 90.9681L47.9412 89.862L50.2796 90.3045L50.5957 88.0608L52.26 87.9871V87.9871Z" stroke="white"/>
<path d="M320.689 166.989L319.267 167.8L320.257 166.694L319.309 166.304L320.994 166.115L320.689 166.989ZM318.961 164.777L320.215 165.725L317.718 166.283L318.371 164.44L318.961 164.777ZM318.571 34.0759L321.563 36.13L327.399 35.5401L329.579 36.3196L330.517 37.4678L330.316 39.3638L331.338 41.1124L330.601 43.5035L331.528 44.7254L328.842 44.7886L325.197 47.0849L325.071 48.0751L326.366 48.9178L326.788 50.7507L324.871 49.929L323.775 50.7612L321.826 49.929L320.173 51.2457L319.741 50.7928L318.182 52.9416L317.887 54.785L315.78 56.6389L316.117 58.1031L315.485 57.8187L315.675 58.4507L313.747 59.4304L313.399 61.5581L311.388 61.2737L310.292 62.1586L310.334 64.2548L308.438 66.2456L310.671 69.2477H312.862L313.136 70.9015L315.074 70.7961L315.39 73.0398L317.939 75.0939L317.465 78.8649L314.411 80.9295L312.546 83.8894L313.515 84.7321L314.263 87.4709L314.284 91.126L315.791 91.1682L316.897 92.7587H318.456L319.783 97.541L321.247 98.8682L321.026 100.132L323.132 101.238L323.849 99.5529L325.155 100.248L325.281 101.196L326.461 101.744L326.514 103.45L330.601 99.6688L331.307 100.385L333.392 98.173L334.583 99.0578L334.13 100.111L334.793 100.88L335.373 99.7847L337.658 98.647L338.333 98.7208L337.911 99.8795L339.228 101.08L340.829 100.09L341.345 101.238L342.978 100.712L342.504 99.2264L343.125 98.9736L343.736 100.638L343.694 100.964L344.115 101.354L343.936 102.218L344.8 102.587L343.652 103.261L345.79 105.294L345.274 105.568L345.959 106.937L345.59 108.169L346.612 107.422L347.212 110.234L348.045 110.445L347.655 111.287L348.719 112.141L348.54 113.531L349.572 113.405L349.445 114.047L350.573 114.679L349.983 115.49L344.8 115.848L344.895 115.058L343.936 114.69L343.431 116.122L340.271 116.533L339.27 117.892L332.676 122.011L315.906 129.816L314.295 131.891L312.536 131.006L310.513 133.724L308.996 136.684L308.891 137.822L309.765 138.232L308.628 138.654L306.984 145.49L308.417 145.932L307.279 147.06L307.88 149.714L309.228 151.241L308.923 156.824L310.439 158.109L312.104 161.375L311.567 161.017L310.724 162.017L311.682 162.607L312.588 161.944L312.336 163.113L312.873 163.26L313.452 162.934L312.989 161.08L313.505 161.111L318.034 166.768L317.339 171.477L316.212 172.509L316.254 175.511L314.569 174.932L314.927 171.919L313.852 171.455L312.883 171.856L312.093 173.667L313.01 174.816L312.609 176.996L313.431 177.691L314.116 177.217L314.179 177.976L312.788 177.839L312.673 179.356L310.134 177.333L309.502 175.037L307.406 174.5L306.732 173.499L306.384 170.455L307.048 169.149L306.173 168.011H305.036L303.498 169.38L301.233 169.201L300.38 168.095L298.821 169.117L296.409 165.873L289.351 164.746L287.034 165.567L280.429 165.483L277.353 166.915L276.574 169.254L273.214 170.202L271.096 172.203L269.79 172.33L269.042 172.077L268.589 170.37L266.377 168.885L260.373 169.286L260.205 167.716L259.962 166.631L251.557 162.123V159.531L250.061 160.427L246.764 159.205L247.385 157.498L246.953 156.434L248.291 155.36L245.131 154.18L244.151 155.95L242.719 155.181L242.466 156.519L241.202 156.287L238.758 154.233L239.769 152.253L238.853 151.673L237.157 152.01L237.557 150.209L236.725 148.924L233.702 147.555L233.807 146.185L231.89 145.68L231.774 144.963L228.993 144.342L227.814 141.866L225.749 139.844L223.211 141.961L222.673 140.918L221.104 140.518L221.82 138.506L220.777 136.937L222.147 135.915L221.135 135.125L222.147 132.418L219.555 131.228L218.818 132.081L217.944 131.891L218.376 129.805L217.185 117.428L228.867 100.048L231.69 101.797L230.342 102.955L231.153 104.556L228.857 108.801H231.153L233.312 109.886L232.628 111.077L234.197 112.056L235.767 110.276L236.283 111.382L238.231 108.58L238.695 109.813L240.422 108.886L242.455 110.824L244.141 111.045L246.774 107.495L246.637 103.703L248.27 103.861L247.638 101.365L250.113 98.3837L251.03 93.2222L253.579 93.4118L253.558 91.9793L253.632 92.8009L256.244 94.2124L255.875 93.1801L256.592 91.5579L257.95 91.3894L257.561 88.3978L261.374 88.6401L264.26 86.2595L266.525 85.954L268.516 86.586L269.084 89.546L273.519 89.862L274.478 87.8922L273.277 85.7644L274.046 84.9217L273.277 84.2054L275.447 83.5734L274.467 81.9512V79.8235L277.364 78.907L278.07 79.7181L278.849 78.907L281.209 79.1598L285.612 77.6219L287.413 73.4611L288.572 73.9246L289.204 72.2392L286.655 69.9008L287.487 67.8257L286.212 67.2147L285.538 67.6466L285.075 65.6031L282.799 66.1297L281.967 65.3924L282.683 63.4015L282.072 61.9163L278.997 59.3566L281.483 57.8398L282.336 58.6193L282.62 54.764L285.043 51.9094L284.421 50.4452L281.177 50.0028L281.303 48.2647L286.433 45.6734L288.087 46.0211L289.32 44.7781L290.541 44.7044L291.152 45.5154L293.754 41.3863L293.575 39.8273L295.176 36.9937L294.85 34.5394L299 37.7838L299.874 37.4783L301.507 38.5106L301.623 40.8912L305.141 38.0998L306.416 38.9003L309.555 37.9102L310.345 38.8477L311.672 38.7845L312.209 38.2999L311.809 36.9095L312.725 37.1201L314.484 35.1398L317.086 34.1707L318.571 34.0759V34.0759Z" stroke="white"/>
</svg>
