<svg width="21" height="17" viewBox="0 0 21 17" fill="none" xmlns="http://www.w3.org/2000/svg">
<path d="M20.1569 2.55677C19.4242 2.88369 18.6883 3.13048 17.8727 3.21382C18.6883 2.72023 19.3413 1.89971 19.6663 0.995869C18.8507 1.48946 18.0352 1.81638 17.14 1.98305C16.3244 1.16254 15.2636 0.668945 14.1231 0.668945C11.9186 0.668945 10.125 2.47343 10.125 4.68818C10.125 5.0183 10.125 5.34523 10.2078 5.59202C6.86282 5.42856 3.92876 3.86766 1.96953 1.40613C1.56176 1.98305 1.39929 2.72023 1.39929 3.45741C1.39929 4.85484 2.13201 6.08561 3.19286 6.82279C2.53978 6.73946 1.88989 6.576 1.39929 6.3292C1.39929 6.3292 1.39929 6.3292 1.39929 6.41254C1.39929 8.38048 2.78508 10.0215 4.57865 10.3516C4.2537 10.4318 3.92876 10.5151 3.52099 10.5151C3.27568 10.5151 3.03038 10.5151 2.78508 10.4318C3.27568 12.0728 4.74431 13.2234 6.53787 13.2234C5.15208 14.2907 3.43816 14.9446 1.56176 14.9446C1.23682 14.9446 0.908685 14.9446 0.58374 14.8645C2.37731 16.0119 4.499 16.6689 6.70035 16.6689C14.1231 16.6689 18.118 10.5151 18.118 5.18177C18.118 5.0183 18.118 4.85484 18.118 4.68818C18.9336 4.11446 19.5866 3.37728 20.1569 2.55677Z" fill="white"/>
</svg>
