<svg width="22" height="16" viewBox="0 0 22 16" fill="none" xmlns="http://www.w3.org/2000/svg">
<path d="M20.5956 1.88782C19.8629 2.21474 19.127 2.46154 18.3114 2.54487C19.127 2.05128 19.7801 1.23077 20.105 0.326923C19.2894 0.820513 18.4739 1.14744 17.5787 1.3141C16.7632 0.49359 15.7023 0 14.5618 0C12.3573 0 10.5637 1.80449 10.5637 4.01923C10.5637 4.34936 10.5637 4.67628 10.6466 4.92308C7.30154 4.75962 4.36748 3.19872 2.40825 0.73718C2.00048 1.3141 1.83801 2.05128 1.83801 2.78846C1.83801 4.1859 2.57073 5.41667 3.63158 6.15385C2.9785 6.07051 2.32861 5.90705 1.83801 5.66026C1.83801 5.66026 1.83801 5.66026 1.83801 5.74359C1.83801 7.71154 3.2238 9.35256 5.01737 9.68269C4.69242 9.76282 4.36748 9.84616 3.95971 9.84616C3.7144 9.84616 3.4691 9.84616 3.2238 9.76282C3.7144 11.4038 5.18303 12.5545 6.97659 12.5545C5.5908 13.6218 3.87688 14.2756 2.00048 14.2756C1.67554 14.2756 1.34741 14.2756 1.02246 14.1955C2.81603 15.3429 4.93773 16 7.13907 16C14.5618 16 18.5567 9.84616 18.5567 4.51282C18.5567 4.34936 18.5567 4.1859 18.5567 4.01923C19.3723 3.44551 20.0254 2.70833 20.5956 1.88782Z" fill="#282928"/>
</svg>
