<svg width="19" height="14" viewBox="0 0 19 14" fill="none" xmlns="http://www.w3.org/2000/svg">
<g clip-path="url(#clip0_4314_237)">
<path d="M17.9214 1.65184C17.2803 1.9379 16.6364 2.15385 15.9228 2.22676C16.6364 1.79487 17.2078 1.07692 17.4921 0.286058C16.7785 0.717949 16.0649 1.00401 15.2816 1.14984C14.568 0.431891 13.6398 0 12.6419 0C10.7129 0 9.14353 1.57893 9.14353 3.51683C9.14353 3.80569 9.14353 4.09175 9.21601 4.30769C6.28912 4.16466 3.72181 2.79888 2.00749 0.645032C1.65069 1.14984 1.50853 1.79487 1.50853 2.4399C1.50853 3.66266 2.14965 4.73958 3.0779 5.38462C2.50646 5.3117 1.9378 5.16867 1.50853 4.95272C1.50853 4.95272 1.50853 4.95272 1.50853 5.02564C1.50853 6.7476 2.7211 8.18349 4.29047 8.47236C4.00614 8.54247 3.72181 8.61539 3.36501 8.61539C3.15037 8.61539 2.93573 8.61539 2.7211 8.54247C3.15037 9.97837 4.43542 10.9852 6.00479 10.9852C4.79222 11.9191 3.29254 12.4912 1.65069 12.4912C1.36636 12.4912 1.07925 12.4912 0.794922 12.4211C2.36429 13.4251 4.22078 14 6.14695 14C12.6419 14 16.1374 8.61539 16.1374 3.94872C16.1374 3.80569 16.1374 3.66266 16.1374 3.51683C16.851 3.01482 17.4225 2.36979 17.9214 1.65184Z" fill="#F3F2EF"/>
</g>
<defs>
<clipPath id="clip0_4314_237">
<rect width="17.8889" height="14" fill="white" transform="translate(0.599609)"/>
</clipPath>
</defs>
</svg>
