<svg width="16" height="12" viewBox="0 0 16 12" fill="none" xmlns="http://www.w3.org/2000/svg">
<g clip-path="url(#clip0_4859_858)">
<path d="M15.2472 1.41587C14.6977 1.66106 14.1458 1.84615 13.5341 1.90865C14.1458 1.53846 14.6356 0.923077 14.8793 0.245193C14.2676 0.615385 13.656 0.860577 12.9846 0.985577C12.3729 0.370193 11.5773 0 10.7219 0C9.06851 0 7.72333 1.35337 7.72333 3.01442C7.72333 3.26202 7.72333 3.50721 7.78546 3.69231C5.27669 3.56971 3.07615 2.39904 1.60673 0.552885C1.3009 0.985577 1.17904 1.53846 1.17904 2.09135C1.17904 3.13942 1.72858 4.0625 2.52422 4.61538C2.03441 4.55289 1.547 4.43029 1.17904 4.24519C1.17904 4.24519 1.17904 4.24519 1.17904 4.30769C1.17904 5.78365 2.21839 7.01442 3.56356 7.26202C3.31986 7.32212 3.07615 7.38462 2.77032 7.38462C2.58634 7.38462 2.40236 7.38462 2.21839 7.32212C2.58634 8.55289 3.68781 9.41586 5.03298 9.41586C3.99364 10.2163 2.70819 10.7067 1.3009 10.7067C1.05719 10.7067 0.811092 10.7067 0.567383 10.6466C1.91256 11.5072 3.50383 12 5.15484 12C10.7219 12 13.7181 7.38462 13.7181 3.38462C13.7181 3.26202 13.7181 3.13942 13.7181 3.01442C14.3297 2.58413 14.8196 2.03125 15.2472 1.41587Z" fill="#374F35"/>
</g>
<defs>
<clipPath id="clip0_4859_858">
<rect width="15.3333" height="12" fill="white" transform="translate(0.400391)"/>
</clipPath>
</defs>
</svg>
