<svg width="91" height="76" viewBox="0 0 91 76" fill="none" xmlns="http://www.w3.org/2000/svg">
<path d="M13.2655 31.9042C14.087 30.4249 13.9259 29.1579 12.8328 28.5556C11.7188 27.9417 10.9002 28.7237 10.2963 29.5145L9.68198 30.2994C9.36841 30.7158 9.03256 31.024 8.57012 30.7692C8.09717 30.5086 8.06631 29.9709 8.47994 29.2261C8.95183 28.3763 9.55145 28.0627 10.0346 27.959L9.71729 26.9484C8.90747 27.1461 8.19019 27.6963 7.63091 28.7034C6.8619 30.0882 6.9378 31.3357 8.04135 31.9438C9.15541 32.5577 9.99035 31.771 10.5884 30.9907L11.2027 30.2057C11.5221 29.7789 11.8521 29.4812 12.3146 29.736C12.8506 30.0314 12.8127 30.6681 12.4049 31.4025C11.9563 32.2103 11.3521 32.6309 10.5749 32.8193L10.8152 33.8696C11.7313 33.7031 12.6189 33.0687 13.2655 31.9042Z" fill="#F7F7F7"/>
<path d="M17.8766 25.2871C18.7411 24.3216 18.8199 23.3161 18.4382 22.4472L17.3582 22.7719C17.6146 23.385 17.5895 23.9887 17.0772 24.5608C16.3968 25.3207 15.5182 25.2946 14.7916 24.649L14.0201 23.9636C13.2845 23.31 13.1753 22.4425 13.8317 21.7094C14.312 21.173 14.8853 21.0724 15.46 21.2941L15.7277 20.1675C14.8257 19.8797 13.8728 20.0445 13.0244 20.9921C11.8076 22.351 12.0131 24.0104 13.4933 25.3255C14.9735 26.6405 16.6439 26.6639 17.8766 25.2871Z" fill="#F7F7F7"/>
<path d="M21.2522 21.6329L25.4824 18.6156L24.866 17.7581L23.0391 19.0612L21.6873 17.1807C21.183 16.4791 21.2289 15.5767 22.0984 14.9565L23.0949 14.2458L22.3665 13.2324L21.7608 13.6644C20.735 14.3961 20.7506 15.343 21.0595 16.184L21.0009 16.2258L20.0413 14.8909L17.6381 16.6051L18.2544 17.4625L19.5928 16.5079L21.9743 19.8208L20.6358 20.7754L21.2522 21.6329Z" fill="#F7F7F7"/>
<path d="M30.3514 16.24C32.0347 15.5375 32.5761 13.9463 31.8086 12.1211C31.041 10.2959 29.5226 9.56426 27.8393 10.2667C26.156 10.9692 25.6145 12.5604 26.3821 14.3856C27.1497 16.2108 28.6681 16.9424 30.3514 16.24ZM29.9513 15.2887C29.0764 15.6538 28.2726 15.3521 27.826 14.2902L27.4632 13.4273C27.0166 12.3654 27.3645 11.5831 28.2394 11.218C29.1143 10.8529 29.9181 11.1546 30.3647 12.2165L30.7275 13.0793C31.1741 14.1413 30.8262 14.9236 29.9513 15.2887Z" fill="#F7F7F7"/>
<path d="M35.1619 14.2486L40.4924 13.3133L40.3085 12.2734L38.2874 12.6281L36.925 4.92361L33.6156 5.5043L33.7995 6.54417L35.8206 6.18953L36.9991 12.8541L34.978 13.2088L35.1619 14.2486Z" fill="#F7F7F7"/>
<path d="M42.9825 13.0284L48.3878 13.2976L48.4408 12.243L46.3913 12.1409L46.7835 4.32673L43.4277 4.15959L43.3748 5.21426L45.4242 5.31634L45.0849 12.0758L43.0355 11.9738L42.9825 13.0284Z" fill="#F7F7F7"/>
<path d="M62.0732 17.7876L63.2257 18.4061L67.4497 10.595L66.2971 9.97656L64.5162 13.2699L64.4528 13.2358C64.4894 12.4112 64.1776 11.7264 63.374 11.2952C62.0946 10.6086 60.739 11.1477 59.7287 13.0161C58.7183 14.8844 59.0123 16.3086 60.2917 16.9951C61.0953 17.4264 61.8409 17.3089 62.512 16.8247L62.5755 16.8588L62.0732 17.7876ZM61.2755 16.311C60.4085 15.8458 60.2254 14.9986 60.7049 14.1119L61.1844 13.2252C61.6639 12.3386 62.4748 12.0247 63.3418 12.4899C64.008 12.8474 64.3963 13.4915 64.0367 14.1565L63.055 15.9721C62.6953 16.6371 61.9417 16.6685 61.2755 16.311Z" fill="#F7F7F7"/>
<path d="M67.3658 21.6227C68.743 22.8187 70.4154 22.6022 71.7194 21.1122C73.0233 19.6222 73.0105 17.9423 71.6333 16.7463C70.2561 15.5504 68.5836 15.7669 67.2797 17.2569C65.9757 18.7469 65.9886 20.4268 67.3658 21.6227ZM68.0454 20.8461C67.3297 20.2246 67.2457 19.3729 68.0044 18.506L68.6208 17.8017C69.3795 16.9347 70.2378 16.9014 70.9536 17.523C71.6694 18.1445 71.7533 18.9961 70.9947 19.8631L70.3783 20.5674C69.6196 21.4343 68.7612 21.4677 68.0454 20.8461Z" fill="#F7F7F7"/>
<path d="M71.4197 25.2258L72.3689 26.5238L76.7497 24.3829L76.8135 24.4701L73.4172 27.9574L74.3663 29.2554L79.888 26.3164L79.2576 25.4543L74.6811 28.0188L74.6173 27.9316L78.2943 24.1369L77.5435 23.1101L72.7828 25.4228L72.7191 25.3356L76.5802 21.7927L75.9214 20.8919L71.4197 25.2258Z" fill="#F7F7F7"/>
<path d="M76.4489 32.8099L80.3029 31.1407C80.9636 30.8546 81.5518 31.3322 81.8206 31.9481C82.1566 32.7179 81.8828 33.3204 80.9798 33.7114L77.5002 35.2185L78.0234 36.4173L81.6792 34.8339C83.0557 34.2378 83.5015 33.1293 83.0023 31.9855C82.5942 31.0507 81.8861 30.8082 81.1859 30.8237L81.1619 30.7687L82.1309 30.3491L81.6076 29.1503L75.9256 31.6111L76.4489 32.8099Z" fill="#F7F7F7"/>
<path d="M44.5 74.9488C59.1356 74.9488 71 63.1302 71 48.5513C71 33.9724 59.1356 22.1538 44.5 22.1538C29.8645 22.1538 18 33.9724 18 48.5513C18 63.1302 29.8645 74.9488 44.5 74.9488Z" fill="#F7F7F7" stroke="#3A504B" stroke-width="2"/>
<path d="M38.9902 32.9664C38.9902 32.7063 38.8849 32.4568 38.6973 32.2729C38.5098 32.0889 38.2555 31.9856 37.9902 31.9856C37.725 31.9856 37.4707 32.0889 37.2831 32.2729C37.0956 32.4568 36.9902 32.7063 36.9902 32.9664H38.9902ZM48.2902 63.5766C48.4776 63.7593 48.731 63.8618 48.9952 63.8618C49.2594 63.8618 49.5129 63.7593 49.7002 63.5766L56.0702 57.329C56.2565 57.1453 56.361 56.8967 56.361 56.6376C56.361 56.3785 56.2565 56.1299 56.0702 55.9461C55.9773 55.8542 55.8667 55.7812 55.7448 55.7314C55.6229 55.6816 55.4922 55.656 55.3602 55.656C55.2282 55.656 55.0975 55.6816 54.9757 55.7314C54.8538 55.7812 54.7432 55.8542 54.6502 55.9461L48.9902 61.4974L43.3402 55.9461C43.2473 55.8542 43.1367 55.7812 43.0148 55.7314C42.893 55.6816 42.7622 55.656 42.6302 55.656C42.4982 55.656 42.3675 55.6816 42.2457 55.7314C42.1238 55.7812 42.0132 55.8542 41.9202 55.9461C41.734 56.1299 41.6294 56.3785 41.6294 56.6376C41.6294 56.8967 41.734 57.1453 41.9202 57.329L48.2902 63.5766ZM36.9902 32.9664V43.9119H38.9902V32.9664H36.9902ZM38.9902 45.8735H47.9902V43.9119H38.9902V45.8735ZM47.9902 45.8735V62.8803H49.9902V45.8735H47.9902ZM47.9902 45.8735H49.9902C49.9902 45.3532 49.7795 44.8543 49.4044 44.4864C49.0294 44.1186 48.5207 43.9119 47.9902 43.9119V45.8735ZM36.9902 43.9119C36.9902 44.4322 37.2009 44.9311 37.576 45.299C37.9511 45.6668 38.4598 45.8735 38.9902 45.8735V43.9119H36.9902Z" fill="#3A504B"/>
</svg>
