<svg width="683" height="427" viewBox="0 0 683 427" fill="none" xmlns="http://www.w3.org/2000/svg">
<g id="Group 456">
<g id="Group 418">
<path id="Rectangle 102" d="M0 12C0 5.37258 5.37258 0 12 0H615.5C621.851 0 627 5.14873 627 11.5C627 17.8513 621.851 23 615.5 23H0V12Z" fill="#FCFCF3"/>
<path id="48%" d="M652.72 18V15.24H654.44V12.74H652.72V4.66H648.8L643.5 13V15.24H649.88V18H652.72ZM649.88 12.74H646.28L649.88 7.18V12.74ZM655.634 14.54C655.634 17.04 658.194 18.24 660.994 18.24C663.794 18.24 666.354 17.02 666.354 14.54C666.354 12.92 665.074 11.68 663.474 11.12C664.954 10.62 666.134 9.64 666.134 7.98C666.134 5.48 663.454 4.46 660.994 4.46C658.514 4.46 655.854 5.48 655.854 7.98C655.854 9.64 657.014 10.62 658.494 11.12C656.894 11.68 655.634 12.92 655.634 14.54ZM663.234 8.42C663.234 9.46 661.814 9.92 660.994 10.04C660.174 9.92 658.734 9.46 658.734 8.42C658.734 7.48 659.674 6.9 660.994 6.9C662.294 6.9 663.234 7.48 663.234 8.42ZM663.474 14.2C663.474 15.18 662.354 15.8 660.994 15.8C659.594 15.8 658.514 15.18 658.514 14.2C658.514 13.04 660.154 12.48 660.994 12.38C661.814 12.48 663.474 13.04 663.474 14.2ZM667.583 7.82C667.583 9.68 668.923 11.1 670.963 11.1C673.023 11.1 674.363 9.68 674.363 7.82C674.363 5.94 673.023 4.46 670.963 4.46C668.923 4.46 667.583 5.94 667.583 7.82ZM671.163 18L679.703 4.66H678.183L669.663 18H671.163ZM672.543 7.82C672.543 8.86 671.883 9.54 670.963 9.54C670.063 9.54 669.383 8.86 669.383 7.82C669.383 6.7 670.063 6.04 670.963 6.04C671.883 6.04 672.543 6.7 672.543 7.82ZM674.923 14.94C674.923 16.8 676.263 18.24 678.303 18.24C680.343 18.24 681.703 16.8 681.703 14.94C681.703 13.06 680.343 11.58 678.303 11.58C676.263 11.58 674.923 13.06 674.923 14.94ZM679.903 14.94C679.903 16.02 679.223 16.68 678.303 16.68C677.383 16.68 676.723 16.02 676.723 14.94C676.723 13.84 677.383 13.16 678.303 13.16C679.223 13.16 679.903 13.84 679.903 14.94Z" fill="#FCFCF3"/>
<path id="Trasporto pubblico" d="M29.808 16V7.328H32.912V5.328H24.4V7.328H27.52V16H29.808ZM35.2588 16V10.896C35.5948 10.4 36.4908 10.032 37.1628 10.032C37.3868 10.032 37.5788 10.048 37.7228 10.08V8.096C36.7628 8.096 35.8028 8.64 35.2588 9.328V8.272H33.2268V16H35.2588ZM45.6644 16V11.008C45.6644 8.784 44.0484 8.08 42.2884 8.08C41.0724 8.08 39.8564 8.464 38.9124 9.296L39.6804 10.656C40.3364 10.048 41.1044 9.744 41.9364 9.744C42.9604 9.744 43.6324 10.256 43.6324 11.04V12.112C43.1204 11.488 42.2084 11.168 41.1844 11.168C39.9524 11.168 38.4964 11.824 38.4964 13.632C38.4964 15.36 39.9524 16.192 41.1844 16.192C42.1924 16.192 43.1044 15.824 43.6324 15.2V16H45.6644ZM43.6324 14.144C43.2964 14.592 42.6564 14.816 42.0004 14.816C41.2004 14.816 40.5444 14.4 40.5444 13.68C40.5444 12.944 41.2004 12.512 42.0004 12.512C42.6564 12.512 43.2964 12.736 43.6324 13.184V14.144ZM47.0079 14.992C47.8239 15.744 49.1199 16.192 50.4639 16.192C52.6079 16.192 53.8079 15.136 53.8079 13.712C53.8079 11.792 52.0319 11.44 50.7039 11.184C49.8399 11.008 49.2319 10.832 49.2319 10.352C49.2319 9.904 49.7119 9.632 50.4479 9.632C51.3919 9.632 52.2719 10.032 52.7359 10.528L53.5359 9.136C52.7839 8.528 51.7439 8.08 50.4319 8.08C48.3999 8.08 47.2639 9.216 47.2639 10.512C47.2639 12.352 48.9759 12.672 50.3039 12.928C51.1839 13.104 51.8559 13.296 51.8559 13.84C51.8559 14.32 51.4399 14.624 50.5599 14.624C49.5999 14.624 48.4479 14.096 47.8879 13.568L47.0079 14.992ZM57.3369 15.008C57.9609 15.808 58.8089 16.192 59.7209 16.192C61.7049 16.192 63.1449 14.704 63.1449 12.128C63.1449 9.552 61.7049 8.08 59.7209 8.08C58.7769 8.08 57.9289 8.496 57.3369 9.248V8.272H55.3049V18.944H57.3369V15.008ZM61.0329 12.128C61.0329 13.472 60.2489 14.384 59.0809 14.384C58.4249 14.384 57.6729 13.984 57.3369 13.504V10.768C57.6729 10.272 58.4249 9.888 59.0809 9.888C60.2489 9.888 61.0329 10.8 61.0329 12.128ZM68.2483 16.192C70.8083 16.192 72.3443 14.336 72.3443 12.128C72.3443 9.936 70.8083 8.08 68.2483 8.08C65.7043 8.08 64.1683 9.936 64.1683 12.128C64.1683 14.336 65.7043 16.192 68.2483 16.192ZM68.2483 14.384C66.9843 14.384 66.2803 13.344 66.2803 12.128C66.2803 10.928 66.9843 9.888 68.2483 9.888C69.5123 9.888 70.2323 10.928 70.2323 12.128C70.2323 13.344 69.5123 14.384 68.2483 14.384ZM75.8838 16V10.896C76.2198 10.4 77.1158 10.032 77.7878 10.032C78.0118 10.032 78.2038 10.048 78.3478 10.08V8.096C77.3878 8.096 76.4278 8.64 75.8838 9.328V8.272H73.8518V16H75.8838ZM82.2094 16.192C83.0574 16.192 83.6014 15.968 83.9054 15.696L83.4734 14.16C83.3614 14.272 83.0734 14.384 82.7694 14.384C82.3214 14.384 82.0654 14.016 82.0654 13.536V10.048H83.6334V8.272H82.0654V6.16H80.0174V8.272H78.7374V10.048H80.0174V14.08C80.0174 15.456 80.7854 16.192 82.2094 16.192ZM88.6076 16.192C91.1676 16.192 92.7036 14.336 92.7036 12.128C92.7036 9.936 91.1676 8.08 88.6076 8.08C86.0636 8.08 84.5276 9.936 84.5276 12.128C84.5276 14.336 86.0636 16.192 88.6076 16.192ZM88.6076 14.384C87.3436 14.384 86.6396 13.344 86.6396 12.128C86.6396 10.928 87.3436 9.888 88.6076 9.888C89.8716 9.888 90.5916 10.928 90.5916 12.128C90.5916 13.344 89.8716 14.384 88.6076 14.384ZM100.337 15.008C100.961 15.808 101.809 16.192 102.721 16.192C104.705 16.192 106.145 14.704 106.145 12.128C106.145 9.552 104.705 8.08 102.721 8.08C101.777 8.08 100.929 8.496 100.337 9.248V8.272H98.3049V18.944H100.337V15.008ZM104.033 12.128C104.033 13.472 103.249 14.384 102.081 14.384C101.425 14.384 100.673 13.984 100.337 13.504V10.768C100.673 10.272 101.425 9.888 102.081 9.888C103.249 9.888 104.033 10.8 104.033 12.128ZM114.912 16V8.272H112.88V13.504C112.528 13.952 111.904 14.384 111.12 14.384C110.256 14.384 109.696 14.032 109.696 12.96V8.272H107.664V13.76C107.664 15.264 108.464 16.192 110.16 16.192C111.424 16.192 112.352 15.616 112.88 15.024V16H114.912ZM118.962 16V15.024C119.57 15.776 120.418 16.192 121.346 16.192C123.298 16.192 124.77 14.72 124.77 12.144C124.77 9.616 123.314 8.08 121.346 8.08C120.434 8.08 119.57 8.48 118.962 9.264V5.328H116.93V16H118.962ZM118.962 10.784C119.298 10.272 120.05 9.888 120.706 9.888C121.89 9.888 122.674 10.8 122.674 12.144C122.674 13.488 121.89 14.384 120.706 14.384C120.05 14.384 119.298 14.016 118.962 13.52V10.784ZM128.337 16V15.024C128.945 15.776 129.793 16.192 130.721 16.192C132.673 16.192 134.145 14.72 134.145 12.144C134.145 9.616 132.689 8.08 130.721 8.08C129.809 8.08 128.945 8.48 128.337 9.264V5.328H126.305V16H128.337ZM128.337 10.784C128.673 10.272 129.425 9.888 130.081 9.888C131.265 9.888 132.049 10.8 132.049 12.144C132.049 13.488 131.265 14.384 130.081 14.384C129.425 14.384 128.673 14.016 128.337 13.52V10.784ZM137.712 16V5.328H135.68V16H137.712ZM140.735 7.136C141.407 7.136 141.951 6.592 141.951 5.92C141.951 5.248 141.407 4.704 140.735 4.704C140.079 4.704 139.519 5.248 139.519 5.92C139.519 6.592 140.079 7.136 140.735 7.136ZM141.759 16V8.272H139.727V16H141.759ZM143.278 12.128C143.278 14.512 144.99 16.192 147.374 16.192C148.958 16.192 149.918 15.504 150.43 14.784L149.102 13.552C148.734 14.064 148.174 14.384 147.47 14.384C146.238 14.384 145.374 13.472 145.374 12.128C145.374 10.784 146.238 9.888 147.47 9.888C148.174 9.888 148.734 10.192 149.102 10.72L150.43 9.488C149.918 8.768 148.958 8.08 147.374 8.08C144.99 8.08 143.278 9.76 143.278 12.128ZM155.342 16.192C157.902 16.192 159.438 14.336 159.438 12.128C159.438 9.936 157.902 8.08 155.342 8.08C152.798 8.08 151.262 9.936 151.262 12.128C151.262 14.336 152.798 16.192 155.342 16.192ZM155.342 14.384C154.078 14.384 153.374 13.344 153.374 12.128C153.374 10.928 154.078 9.888 155.342 9.888C156.606 9.888 157.326 10.928 157.326 12.128C157.326 13.344 156.606 14.384 155.342 14.384Z" fill="#387267"/>
</g>
<g id="Group 419">
<path id="Rectangle 101" d="M0 43C0 36.3726 5.37258 31 12 31H600.5C606.851 31 612 36.1487 612 42.5C612 48.8513 606.851 54 600.5 54H0V43Z" fill="#FCFCF3"/>
<path id="Spazi verdi" d="M24.32 45.496C25.328 46.504 26.8 47.192 28.848 47.192C31.728 47.192 33.12 45.72 33.12 43.768C33.12 41.4 30.88 40.872 29.12 40.472C27.888 40.184 26.992 39.96 26.992 39.24C26.992 38.6 27.536 38.152 28.56 38.152C29.6 38.152 30.752 38.52 31.616 39.32L32.88 37.656C31.824 36.68 30.416 36.168 28.72 36.168C26.208 36.168 24.672 37.608 24.672 39.384C24.672 41.768 26.912 42.248 28.656 42.648C29.888 42.936 30.816 43.208 30.816 44.008C30.816 44.616 30.208 45.208 28.96 45.208C27.488 45.208 26.32 44.552 25.568 43.768L24.32 45.496ZM36.6338 46.008C37.2578 46.808 38.1058 47.192 39.0178 47.192C41.0018 47.192 42.4418 45.704 42.4418 43.128C42.4418 40.552 41.0018 39.08 39.0178 39.08C38.0738 39.08 37.2258 39.496 36.6338 40.248V39.272H34.6018V49.944H36.6338V46.008ZM40.3298 43.128C40.3298 44.472 39.5458 45.384 38.3778 45.384C37.7218 45.384 36.9698 44.984 36.6338 44.504V41.768C36.9698 41.272 37.7218 40.888 38.3778 40.888C39.5458 40.888 40.3298 41.8 40.3298 43.128ZM50.6331 47V42.008C50.6331 39.784 49.0171 39.08 47.2571 39.08C46.0411 39.08 44.8251 39.464 43.8811 40.296L44.6491 41.656C45.3051 41.048 46.0731 40.744 46.9051 40.744C47.9291 40.744 48.6011 41.256 48.6011 42.04V43.112C48.0891 42.488 47.1771 42.168 46.1531 42.168C44.9211 42.168 43.4651 42.824 43.4651 44.632C43.4651 46.36 44.9211 47.192 46.1531 47.192C47.1611 47.192 48.0731 46.824 48.6011 46.2V47H50.6331ZM48.6011 45.144C48.2651 45.592 47.6251 45.816 46.9691 45.816C46.1691 45.816 45.5131 45.4 45.5131 44.68C45.5131 43.944 46.1691 43.512 46.9691 43.512C47.6251 43.512 48.2651 43.736 48.6011 44.184V45.144ZM58.6166 47V45.224H55.0166L58.5526 40.744V39.272H52.3126V41.048H55.8006L52.3126 45.48V47H58.6166ZM61.3129 38.136C61.9849 38.136 62.5289 37.592 62.5289 36.92C62.5289 36.248 61.9849 35.704 61.3129 35.704C60.6569 35.704 60.0969 36.248 60.0969 36.92C60.0969 37.592 60.6569 38.136 61.3129 38.136ZM62.3369 47V39.272H60.3049V47H62.3369ZM72.6375 47L75.7415 39.272H73.5495L71.5335 44.648L69.5175 39.272H67.3415L70.4455 47H72.6375ZM76.1526 43.128C76.1526 45.608 77.9286 47.192 80.2806 47.192C81.4806 47.192 82.6806 46.84 83.4646 46.12L82.5686 44.808C82.0726 45.288 81.2246 45.576 80.5046 45.576C79.1926 45.576 78.4086 44.76 78.2806 43.784H84.0246V43.336C84.0246 40.808 82.4566 39.08 80.1526 39.08C77.8006 39.08 76.1526 40.888 76.1526 43.128ZM80.1526 40.696C81.4966 40.696 82.0086 41.672 82.0566 42.408H78.2486C78.3446 41.64 78.8886 40.696 80.1526 40.696ZM87.5244 47V41.896C87.8604 41.4 88.7564 41.032 89.4284 41.032C89.6524 41.032 89.8444 41.048 89.9884 41.08V39.096C89.0284 39.096 88.0684 39.64 87.5244 40.328V39.272H85.4924V47H87.5244ZM98.618 47V36.328H96.57V40.264C95.962 39.48 95.098 39.08 94.186 39.08C92.218 39.08 90.762 40.616 90.762 43.144C90.762 45.72 92.234 47.192 94.186 47.192C95.114 47.192 95.962 46.776 96.57 46.024V47H98.618ZM96.57 44.504C96.218 45.016 95.498 45.384 94.81 45.384C93.658 45.384 92.858 44.472 92.858 43.144C92.858 41.8 93.658 40.888 94.81 40.888C95.498 40.888 96.218 41.256 96.57 41.768V44.504ZM101.641 38.136C102.313 38.136 102.857 37.592 102.857 36.92C102.857 36.248 102.313 35.704 101.641 35.704C100.985 35.704 100.425 36.248 100.425 36.92C100.425 37.592 100.985 38.136 101.641 38.136ZM102.665 47V39.272H100.633V47H102.665Z" fill="#387267"/>
<path id="47%" d="M642.72 49V46.24H644.44V43.74H642.72V35.66H638.8L633.5 44V46.24H639.88V49H642.72ZM639.88 43.74H636.28L639.88 38.18V43.74ZM650.474 49L655.434 37.64V35.66H645.414V38.16H652.134L647.354 49H650.474ZM656.352 38.82C656.352 40.68 657.692 42.1 659.732 42.1C661.792 42.1 663.132 40.68 663.132 38.82C663.132 36.94 661.792 35.46 659.732 35.46C657.692 35.46 656.352 36.94 656.352 38.82ZM659.932 49L668.472 35.66H666.952L658.432 49H659.932ZM661.312 38.82C661.312 39.86 660.652 40.54 659.732 40.54C658.832 40.54 658.152 39.86 658.152 38.82C658.152 37.7 658.832 37.04 659.732 37.04C660.652 37.04 661.312 37.7 661.312 38.82ZM663.692 45.94C663.692 47.8 665.032 49.24 667.072 49.24C669.112 49.24 670.472 47.8 670.472 45.94C670.472 44.06 669.112 42.58 667.072 42.58C665.032 42.58 663.692 44.06 663.692 45.94ZM668.672 45.94C668.672 47.02 667.992 47.68 667.072 47.68C666.152 47.68 665.492 47.02 665.492 45.94C665.492 44.84 666.152 44.16 667.072 44.16C667.992 44.16 668.672 44.84 668.672 45.94Z" fill="#FCFCF3"/>
</g>
<g id="Group 420">
<path id="Rectangle 103" d="M0 74C0 67.3726 5.37258 62 12 62H510.5C516.851 62 522 67.1487 522 73.5C522 79.8513 516.851 85 510.5 85H0V74Z" fill="#FCFCF3"/>
<path id="Smaltimento rifiuti" d="M24.32 76.496C25.328 77.504 26.8 78.192 28.848 78.192C31.728 78.192 33.12 76.72 33.12 74.768C33.12 72.4 30.88 71.872 29.12 71.472C27.888 71.184 26.992 70.96 26.992 70.24C26.992 69.6 27.536 69.152 28.56 69.152C29.6 69.152 30.752 69.52 31.616 70.32L32.88 68.656C31.824 67.68 30.416 67.168 28.72 67.168C26.208 67.168 24.672 68.608 24.672 70.384C24.672 72.768 26.912 73.248 28.656 73.648C29.888 73.936 30.816 74.208 30.816 75.008C30.816 75.616 30.208 76.208 28.96 76.208C27.488 76.208 26.32 75.552 25.568 74.768L24.32 76.496ZM46.2338 78V72.416C46.2338 70.832 45.3858 70.08 43.9618 70.08C42.7778 70.08 41.7538 70.784 41.3058 71.488C41.0178 70.608 40.2978 70.08 39.1618 70.08C37.9778 70.08 36.9538 70.816 36.6338 71.28V70.272H34.6018V78H36.6338V72.8C36.9378 72.368 37.5298 71.888 38.2338 71.888C39.0658 71.888 39.3858 72.4 39.3858 73.12V78H41.4338V72.784C41.7218 72.368 42.3138 71.888 43.0338 71.888C43.8658 71.888 44.1858 72.4 44.1858 73.12V78H46.2338ZM54.8988 78V73.008C54.8988 70.784 53.2828 70.08 51.5228 70.08C50.3068 70.08 49.0908 70.464 48.1468 71.296L48.9148 72.656C49.5707 72.048 50.3388 71.744 51.1708 71.744C52.1948 71.744 52.8668 72.256 52.8668 73.04V74.112C52.3548 73.488 51.4427 73.168 50.4188 73.168C49.1868 73.168 47.7308 73.824 47.7308 75.632C47.7308 77.36 49.1868 78.192 50.4188 78.192C51.4268 78.192 52.3388 77.824 52.8668 77.2V78H54.8988ZM52.8668 76.144C52.5308 76.592 51.8908 76.816 51.2348 76.816C50.4348 76.816 49.7788 76.4 49.7788 75.68C49.7788 74.944 50.4348 74.512 51.2348 74.512C51.8908 74.512 52.5308 74.736 52.8668 75.184V76.144ZM58.9463 78V67.328H56.9143V78H58.9463ZM63.5531 78.192C64.4011 78.192 64.9451 77.968 65.2491 77.696L64.8171 76.16C64.7051 76.272 64.4171 76.384 64.1131 76.384C63.6651 76.384 63.4091 76.016 63.4091 75.536V72.048H64.9771V70.272H63.4091V68.16H61.3611V70.272H60.0811V72.048H61.3611V76.08C61.3611 77.456 62.1291 78.192 63.5531 78.192ZM67.3754 69.136C68.0474 69.136 68.5914 68.592 68.5914 67.92C68.5914 67.248 68.0474 66.704 67.3754 66.704C66.7194 66.704 66.1594 67.248 66.1594 67.92C66.1594 68.592 66.7194 69.136 67.3754 69.136ZM68.3994 78V70.272H66.3674V78H68.3994ZM82.0463 78V72.416C82.0463 70.832 81.1983 70.08 79.7743 70.08C78.5903 70.08 77.5663 70.784 77.1183 71.488C76.8303 70.608 76.1103 70.08 74.9743 70.08C73.7903 70.08 72.7663 70.816 72.4463 71.28V70.272H70.4143V78H72.4463V72.8C72.7503 72.368 73.3423 71.888 74.0463 71.888C74.8783 71.888 75.1983 72.4 75.1983 73.12V78H77.2463V72.784C77.5343 72.368 78.1263 71.888 78.8463 71.888C79.6783 71.888 79.9983 72.4 79.9983 73.12V78H82.0463ZM83.5433 74.128C83.5433 76.608 85.3193 78.192 87.6713 78.192C88.8713 78.192 90.0713 77.84 90.8553 77.12L89.9593 75.808C89.4633 76.288 88.6153 76.576 87.8953 76.576C86.5833 76.576 85.7993 75.76 85.6713 74.784H91.4153V74.336C91.4153 71.808 89.8473 70.08 87.5433 70.08C85.1913 70.08 83.5433 71.888 83.5433 74.128ZM87.5433 71.696C88.8873 71.696 89.3993 72.672 89.4473 73.408H85.6393C85.7353 72.64 86.2793 71.696 87.5433 71.696ZM100.131 78V72.544C100.131 71.04 99.315 70.08 97.619 70.08C96.355 70.08 95.411 70.688 94.915 71.28V70.272H92.883V78H94.915V72.8C95.251 72.336 95.875 71.888 96.675 71.888C97.539 71.888 98.099 72.256 98.099 73.328V78H100.131ZM104.741 78.192C105.589 78.192 106.133 77.968 106.437 77.696L106.005 76.16C105.893 76.272 105.605 76.384 105.301 76.384C104.853 76.384 104.597 76.016 104.597 75.536V72.048H106.165V70.272H104.597V68.16H102.549V70.272H101.269V72.048H102.549V76.08C102.549 77.456 103.317 78.192 104.741 78.192ZM111.139 78.192C113.699 78.192 115.235 76.336 115.235 74.128C115.235 71.936 113.699 70.08 111.139 70.08C108.595 70.08 107.059 71.936 107.059 74.128C107.059 76.336 108.595 78.192 111.139 78.192ZM111.139 76.384C109.875 76.384 109.171 75.344 109.171 74.128C109.171 72.928 109.875 71.888 111.139 71.888C112.403 71.888 113.123 72.928 113.123 74.128C113.123 75.344 112.403 76.384 111.139 76.384ZM122.868 78V72.896C123.204 72.4 124.1 72.032 124.772 72.032C124.996 72.032 125.188 72.048 125.332 72.08V70.096C124.372 70.096 123.412 70.64 122.868 71.328V70.272H120.836V78H122.868ZM127.61 69.136C128.282 69.136 128.826 68.592 128.826 67.92C128.826 67.248 128.282 66.704 127.61 66.704C126.954 66.704 126.394 67.248 126.394 67.92C126.394 68.592 126.954 69.136 127.61 69.136ZM128.634 78V70.272H126.602V78H128.634ZM136.889 69.136C137.561 69.136 138.105 68.592 138.105 67.92C138.105 67.248 137.561 66.704 136.889 66.704C136.233 66.704 135.673 67.248 135.673 67.92C135.673 68.592 136.233 69.136 136.889 69.136ZM133.145 72.048H134.713V70.272H133.145V69.856C133.145 69.152 133.529 68.768 134.105 68.768C134.377 68.768 134.601 68.848 134.761 68.96L135.177 67.488C134.809 67.296 134.281 67.168 133.705 67.168C132.185 67.168 131.097 68.176 131.097 69.856V70.272H129.817V72.048H131.097V78H133.145V72.048ZM137.913 78V70.272H135.881V78H137.913ZM147.178 78V70.272H145.146V75.504C144.794 75.952 144.17 76.384 143.386 76.384C142.522 76.384 141.962 76.032 141.962 74.96V70.272H139.93V75.76C139.93 77.264 140.73 78.192 142.426 78.192C143.69 78.192 144.618 77.616 145.146 77.024V78H147.178ZM151.788 78.192C152.636 78.192 153.18 77.968 153.484 77.696L153.052 76.16C152.94 76.272 152.652 76.384 152.348 76.384C151.9 76.384 151.644 76.016 151.644 75.536V72.048H153.212V70.272H151.644V68.16H149.596V70.272H148.316V72.048H149.596V76.08C149.596 77.456 150.364 78.192 151.788 78.192ZM155.61 69.136C156.282 69.136 156.826 68.592 156.826 67.92C156.826 67.248 156.282 66.704 155.61 66.704C154.954 66.704 154.394 67.248 154.394 67.92C154.394 68.592 154.954 69.136 155.61 69.136ZM156.634 78V70.272H154.602V78H156.634Z" fill="#387267"/>
<path id="40%" d="M547.72 80V77.24H549.44V74.74H547.72V66.66H543.8L538.5 75V77.24H544.88V80H547.72ZM544.88 74.74H541.28L544.88 69.18V74.74ZM550.614 73.34C550.614 76.78 552.314 80.24 556.134 80.24C559.934 80.24 561.654 76.78 561.654 73.34C561.654 69.9 559.934 66.46 556.134 66.46C552.314 66.46 550.614 69.9 550.614 73.34ZM558.754 73.34C558.754 75.8 558.034 77.72 556.134 77.72C554.214 77.72 553.494 75.8 553.494 73.34C553.494 70.88 554.214 68.98 556.134 68.98C558.034 68.98 558.754 70.88 558.754 73.34ZM562.856 69.82C562.856 71.68 564.196 73.1 566.236 73.1C568.296 73.1 569.636 71.68 569.636 69.82C569.636 67.94 568.296 66.46 566.236 66.46C564.196 66.46 562.856 67.94 562.856 69.82ZM566.436 80L574.976 66.66H573.456L564.936 80H566.436ZM567.816 69.82C567.816 70.86 567.156 71.54 566.236 71.54C565.336 71.54 564.656 70.86 564.656 69.82C564.656 68.7 565.336 68.04 566.236 68.04C567.156 68.04 567.816 68.7 567.816 69.82ZM570.196 76.94C570.196 78.8 571.536 80.24 573.576 80.24C575.616 80.24 576.976 78.8 576.976 76.94C576.976 75.06 575.616 73.58 573.576 73.58C571.536 73.58 570.196 75.06 570.196 76.94ZM575.176 76.94C575.176 78.02 574.496 78.68 573.576 78.68C572.656 78.68 571.996 78.02 571.996 76.94C571.996 75.84 572.656 75.16 573.576 75.16C574.496 75.16 575.176 75.84 575.176 76.94Z" fill="#FCFCF3"/>
</g>
<g id="Group 426">
<path id="Rectangle 107" d="M0 198C0 191.373 5.37258 186 12 186H354.5C360.851 186 366 191.149 366 197.5C366 203.851 360.851 209 354.5 209H0V198Z" fill="#FCFCF3"/>
<path id="Raccolta differenziata" d="M33.696 202L31.296 197.936C32.448 197.664 33.632 196.656 33.632 194.768C33.632 192.784 32.272 191.328 30.048 191.328H25.056V202H27.328V198.176H28.992L31.088 202H33.696ZM31.312 194.752C31.312 195.648 30.624 196.224 29.712 196.224H27.328V193.28H29.712C30.624 193.28 31.312 193.856 31.312 194.752ZM41.6488 202V197.008C41.6488 194.784 40.0328 194.08 38.2728 194.08C37.0568 194.08 35.8408 194.464 34.8968 195.296L35.6648 196.656C36.3207 196.048 37.0888 195.744 37.9208 195.744C38.9448 195.744 39.6168 196.256 39.6168 197.04V198.112C39.1048 197.488 38.1927 197.168 37.1688 197.168C35.9368 197.168 34.4808 197.824 34.4808 199.632C34.4808 201.36 35.9368 202.192 37.1688 202.192C38.1768 202.192 39.0888 201.824 39.6168 201.2V202H41.6488ZM39.6168 200.144C39.2808 200.592 38.6408 200.816 37.9848 200.816C37.1848 200.816 36.5288 200.4 36.5288 199.68C36.5288 198.944 37.1848 198.512 37.9848 198.512C38.6408 198.512 39.2808 198.736 39.6168 199.184V200.144ZM43.1683 198.128C43.1683 200.512 44.8803 202.192 47.2643 202.192C48.8483 202.192 49.8083 201.504 50.3203 200.784L48.9923 199.552C48.6243 200.064 48.0643 200.384 47.3602 200.384C46.1283 200.384 45.2643 199.472 45.2643 198.128C45.2643 196.784 46.1283 195.888 47.3602 195.888C48.0643 195.888 48.6243 196.192 48.9923 196.72L50.3203 195.488C49.8083 194.768 48.8483 194.08 47.2643 194.08C44.8803 194.08 43.1683 195.76 43.1683 198.128ZM51.1526 198.128C51.1526 200.512 52.8646 202.192 55.2486 202.192C56.8326 202.192 57.7926 201.504 58.3046 200.784L56.9766 199.552C56.6086 200.064 56.0486 200.384 55.3446 200.384C54.1126 200.384 53.2486 199.472 53.2486 198.128C53.2486 196.784 54.1126 195.888 55.3446 195.888C56.0486 195.888 56.6086 196.192 56.9766 196.72L58.3046 195.488C57.7926 194.768 56.8326 194.08 55.2486 194.08C52.8646 194.08 51.1526 195.76 51.1526 198.128ZM63.217 202.192C65.777 202.192 67.313 200.336 67.313 198.128C67.313 195.936 65.777 194.08 63.217 194.08C60.673 194.08 59.137 195.936 59.137 198.128C59.137 200.336 60.673 202.192 63.217 202.192ZM63.217 200.384C61.953 200.384 61.249 199.344 61.249 198.128C61.249 196.928 61.953 195.888 63.217 195.888C64.481 195.888 65.201 196.928 65.201 198.128C65.201 199.344 64.481 200.384 63.217 200.384ZM70.8525 202V191.328H68.8205V202H70.8525ZM75.4594 202.192C76.3074 202.192 76.8514 201.968 77.1554 201.696L76.7234 200.16C76.6114 200.272 76.3234 200.384 76.0194 200.384C75.5714 200.384 75.3154 200.016 75.3154 199.536V196.048H76.8834V194.272H75.3154V192.16H73.2674V194.272H71.9874V196.048H73.2674V200.08C73.2674 201.456 74.0354 202.192 75.4594 202.192ZM84.9456 202V197.008C84.9456 194.784 83.3296 194.08 81.5696 194.08C80.3536 194.08 79.1376 194.464 78.1936 195.296L78.9616 196.656C79.6176 196.048 80.3856 195.744 81.2176 195.744C82.2416 195.744 82.9136 196.256 82.9136 197.04V198.112C82.4016 197.488 81.4896 197.168 80.4656 197.168C79.2336 197.168 77.7776 197.824 77.7776 199.632C77.7776 201.36 79.2336 202.192 80.4656 202.192C81.4736 202.192 82.3856 201.824 82.9136 201.2V202H84.9456ZM82.9136 200.144C82.5776 200.592 81.9376 200.816 81.2816 200.816C80.4816 200.816 79.8256 200.4 79.8256 199.68C79.8256 198.944 80.4816 198.512 81.2816 198.512C81.9376 198.512 82.5776 198.736 82.9136 199.184V200.144ZM98.4149 202V191.328H96.3669V195.264C95.7589 194.48 94.8949 194.08 93.9829 194.08C92.0149 194.08 90.5589 195.616 90.5589 198.144C90.5589 200.72 92.0309 202.192 93.9829 202.192C94.9109 202.192 95.7589 201.776 96.3669 201.024V202H98.4149ZM96.3669 199.504C96.0149 200.016 95.2949 200.384 94.6069 200.384C93.4549 200.384 92.6549 199.472 92.6549 198.144C92.6549 196.8 93.4549 195.888 94.6069 195.888C95.2949 195.888 96.0149 196.256 96.3669 196.768V199.504ZM101.438 193.136C102.11 193.136 102.654 192.592 102.654 191.92C102.654 191.248 102.11 190.704 101.438 190.704C100.782 190.704 100.222 191.248 100.222 191.92C100.222 192.592 100.782 193.136 101.438 193.136ZM102.462 202V194.272H100.43V202H102.462ZM106.973 202V196.048H108.541V194.272H106.973V193.888C106.973 193.152 107.357 192.768 107.933 192.768C108.173 192.768 108.413 192.816 108.589 192.928L109.005 191.488C108.637 191.296 108.109 191.168 107.533 191.168C106.013 191.168 104.925 192.176 104.925 193.856V194.272H103.645V196.048H104.925V202H106.973ZM112.205 202V196.048H113.773V194.272H112.205V193.888C112.205 193.152 112.589 192.768 113.165 192.768C113.405 192.768 113.645 192.816 113.821 192.928L114.237 191.488C113.869 191.296 113.341 191.168 112.765 191.168C111.245 191.168 110.157 192.176 110.157 193.856V194.272H108.877V196.048H110.157V202H112.205ZM114.45 198.128C114.45 200.608 116.226 202.192 118.578 202.192C119.778 202.192 120.978 201.84 121.762 201.12L120.866 199.808C120.37 200.288 119.522 200.576 118.802 200.576C117.49 200.576 116.706 199.76 116.578 198.784H122.322V198.336C122.322 195.808 120.754 194.08 118.45 194.08C116.098 194.08 114.45 195.888 114.45 198.128ZM118.45 195.696C119.794 195.696 120.306 196.672 120.354 197.408H116.546C116.642 196.64 117.186 195.696 118.45 195.696ZM125.821 202V196.896C126.157 196.4 127.053 196.032 127.725 196.032C127.949 196.032 128.141 196.048 128.285 196.08V194.096C127.325 194.096 126.365 194.64 125.821 195.328V194.272H123.789V202H125.821ZM129.059 198.128C129.059 200.608 130.835 202.192 133.187 202.192C134.387 202.192 135.587 201.84 136.371 201.12L135.475 199.808C134.979 200.288 134.131 200.576 133.411 200.576C132.099 200.576 131.315 199.76 131.187 198.784H136.931V198.336C136.931 195.808 135.363 194.08 133.059 194.08C130.707 194.08 129.059 195.888 129.059 198.128ZM133.059 195.696C134.403 195.696 134.915 196.672 134.963 197.408H131.155C131.251 196.64 131.795 195.696 133.059 195.696ZM145.647 202V196.544C145.647 195.04 144.831 194.08 143.135 194.08C141.871 194.08 140.927 194.688 140.431 195.28V194.272H138.399V202H140.431V196.8C140.767 196.336 141.391 195.888 142.191 195.888C143.055 195.888 143.615 196.256 143.615 197.328V202H145.647ZM153.632 202V200.224H150.032L153.568 195.744V194.272H147.328V196.048H150.816L147.328 200.48V202H153.632ZM156.329 193.136C157.001 193.136 157.545 192.592 157.545 191.92C157.545 191.248 157.001 190.704 156.329 190.704C155.673 190.704 155.113 191.248 155.113 191.92C155.113 192.592 155.673 193.136 156.329 193.136ZM157.353 202V194.272H155.321V202H157.353ZM166.039 202V197.008C166.039 194.784 164.423 194.08 162.663 194.08C161.447 194.08 160.231 194.464 159.287 195.296L160.055 196.656C160.711 196.048 161.479 195.744 162.311 195.744C163.335 195.744 164.007 196.256 164.007 197.04V198.112C163.495 197.488 162.583 197.168 161.559 197.168C160.327 197.168 158.871 197.824 158.871 199.632C158.871 201.36 160.327 202.192 161.559 202.192C162.567 202.192 163.479 201.824 164.007 201.2V202H166.039ZM164.007 200.144C163.671 200.592 163.031 200.816 162.375 200.816C161.575 200.816 160.919 200.4 160.919 199.68C160.919 198.944 161.575 198.512 162.375 198.512C163.031 198.512 163.671 198.736 164.007 199.184V200.144ZM170.647 202.192C171.495 202.192 172.039 201.968 172.343 201.696L171.911 200.16C171.799 200.272 171.511 200.384 171.207 200.384C170.759 200.384 170.503 200.016 170.503 199.536V196.048H172.071V194.272H170.503V192.16H168.455V194.272H167.175V196.048H168.455V200.08C168.455 201.456 169.223 202.192 170.647 202.192ZM180.133 202V197.008C180.133 194.784 178.517 194.08 176.757 194.08C175.541 194.08 174.325 194.464 173.381 195.296L174.149 196.656C174.805 196.048 175.573 195.744 176.405 195.744C177.429 195.744 178.101 196.256 178.101 197.04V198.112C177.589 197.488 176.677 197.168 175.653 197.168C174.421 197.168 172.965 197.824 172.965 199.632C172.965 201.36 174.421 202.192 175.653 202.192C176.661 202.192 177.573 201.824 178.101 201.2V202H180.133ZM178.101 200.144C177.765 200.592 177.125 200.816 176.469 200.816C175.669 200.816 175.013 200.4 175.013 199.68C175.013 198.944 175.669 198.512 176.469 198.512C177.125 198.512 177.765 198.736 178.101 199.184V200.144Z" fill="#387267"/>
<path id="28%" d="M392.98 204V201.5H387.42C391 198.98 392.88 197 392.88 194.72C392.88 192.06 390.62 190.46 387.78 190.46C385.92 190.46 383.94 191.14 382.64 192.64L384.26 194.52C385.16 193.58 386.32 192.98 387.82 192.98C388.94 192.98 390 193.56 390 194.72C390 196.36 388.4 197.74 382.94 201.76V204H392.98ZM394.692 200.54C394.692 203.04 397.252 204.24 400.052 204.24C402.852 204.24 405.412 203.02 405.412 200.54C405.412 198.92 404.132 197.68 402.532 197.12C404.012 196.62 405.192 195.64 405.192 193.98C405.192 191.48 402.512 190.46 400.052 190.46C397.572 190.46 394.912 191.48 394.912 193.98C394.912 195.64 396.072 196.62 397.552 197.12C395.952 197.68 394.692 198.92 394.692 200.54ZM402.292 194.42C402.292 195.46 400.872 195.92 400.052 196.04C399.232 195.92 397.792 195.46 397.792 194.42C397.792 193.48 398.732 192.9 400.052 192.9C401.352 192.9 402.292 193.48 402.292 194.42ZM402.532 200.2C402.532 201.18 401.412 201.8 400.052 201.8C398.652 201.8 397.572 201.18 397.572 200.2C397.572 199.04 399.212 198.48 400.052 198.38C400.872 198.48 402.532 199.04 402.532 200.2ZM406.641 193.82C406.641 195.68 407.981 197.1 410.021 197.1C412.081 197.1 413.421 195.68 413.421 193.82C413.421 191.94 412.081 190.46 410.021 190.46C407.981 190.46 406.641 191.94 406.641 193.82ZM410.221 204L418.761 190.66H417.241L408.721 204H410.221ZM411.601 193.82C411.601 194.86 410.941 195.54 410.021 195.54C409.121 195.54 408.441 194.86 408.441 193.82C408.441 192.7 409.121 192.04 410.021 192.04C410.941 192.04 411.601 192.7 411.601 193.82ZM413.981 200.94C413.981 202.8 415.321 204.24 417.361 204.24C419.401 204.24 420.761 202.8 420.761 200.94C420.761 199.06 419.401 197.58 417.361 197.58C415.321 197.58 413.981 199.06 413.981 200.94ZM418.961 200.94C418.961 202.02 418.281 202.68 417.361 202.68C416.441 202.68 415.781 202.02 415.781 200.94C415.781 199.84 416.441 199.16 417.361 199.16C418.281 199.16 418.961 199.84 418.961 200.94Z" fill="#FCFCF3"/>
</g>
<g id="Group 427">
<path id="Rectangle 108" d="M0 229C0 222.373 5.37258 217 12 217H339.5C345.851 217 351 222.149 351 228.5C351 234.851 345.851 240 339.5 240H0V229Z" fill="#FCFCF3"/>
<path id="Meno inquinamento" d="M36.624 233V222.328H33.424L30.832 228.984L28.24 222.328H25.056V233H27.328V225.32L30.336 233H31.328L34.336 225.32V233H36.624ZM38.1995 229.128C38.1995 231.608 39.9755 233.192 42.3275 233.192C43.5275 233.192 44.7275 232.84 45.5115 232.12L44.6155 230.808C44.1195 231.288 43.2715 231.576 42.5515 231.576C41.2395 231.576 40.4555 230.76 40.3275 229.784H46.0715V229.336C46.0715 226.808 44.5035 225.08 42.1995 225.08C39.8475 225.08 38.1995 226.888 38.1995 229.128ZM42.1995 226.696C43.5435 226.696 44.0555 227.672 44.1035 228.408H40.2955C40.3915 227.64 40.9355 226.696 42.1995 226.696ZM54.7873 233V227.544C54.7873 226.04 53.9713 225.08 52.2753 225.08C51.0113 225.08 50.0673 225.688 49.5713 226.28V225.272H47.5393V233H49.5713V227.8C49.9073 227.336 50.5312 226.888 51.3313 226.888C52.1953 226.888 52.7553 227.256 52.7553 228.328V233H54.7873ZM60.3889 233.192C62.9489 233.192 64.4849 231.336 64.4849 229.128C64.4849 226.936 62.9489 225.08 60.3889 225.08C57.8449 225.08 56.3089 226.936 56.3089 229.128C56.3089 231.336 57.8449 233.192 60.3889 233.192ZM60.3889 231.384C59.1249 231.384 58.4209 230.344 58.4209 229.128C58.4209 227.928 59.1249 226.888 60.3889 226.888C61.6529 226.888 62.3729 227.928 62.3729 229.128C62.3729 230.344 61.6529 231.384 60.3889 231.384ZM71.0941 224.136C71.7661 224.136 72.3101 223.592 72.3101 222.92C72.3101 222.248 71.7661 221.704 71.0941 221.704C70.4381 221.704 69.8781 222.248 69.8781 222.92C69.8781 223.592 70.4381 224.136 71.0941 224.136ZM72.1181 233V225.272H70.0861V233H72.1181ZM81.381 233V227.544C81.381 226.04 80.565 225.08 78.869 225.08C77.605 225.08 76.661 225.688 76.165 226.28V225.272H74.133V233H76.165V227.8C76.501 227.336 77.125 226.888 77.925 226.888C78.789 226.888 79.349 227.256 79.349 228.328V233H81.381ZM90.7426 225.272H88.6946V226.248C88.1186 225.496 87.2546 225.08 86.3106 225.08C84.3426 225.08 82.9026 226.552 82.9026 229.128C82.9026 231.704 84.3426 233.192 86.3106 233.192C87.2386 233.192 88.0706 232.808 88.6946 232.008V235.944H90.7426V225.272ZM88.6946 230.504C88.3586 230.984 87.6226 231.384 86.9506 231.384C85.7986 231.384 84.9986 230.472 84.9986 229.128C84.9986 227.8 85.7986 226.888 86.9506 226.888C87.6226 226.888 88.3586 227.272 88.6946 227.768V230.504ZM100.006 233V225.272H97.974V230.504C97.622 230.952 96.998 231.384 96.214 231.384C95.35 231.384 94.79 231.032 94.79 229.96V225.272H92.758V230.76C92.758 232.264 93.558 233.192 95.254 233.192C96.518 233.192 97.446 232.616 97.974 232.024V233H100.006ZM103.032 224.136C103.704 224.136 104.248 223.592 104.248 222.92C104.248 222.248 103.704 221.704 103.032 221.704C102.376 221.704 101.816 222.248 101.816 222.92C101.816 223.592 102.376 224.136 103.032 224.136ZM104.056 233V225.272H102.024V233H104.056ZM113.319 233V227.544C113.319 226.04 112.503 225.08 110.807 225.08C109.543 225.08 108.599 225.688 108.103 226.28V225.272H106.071V233H108.103V227.8C108.439 227.336 109.062 226.888 109.863 226.888C110.727 226.888 111.287 227.256 111.287 228.328V233H113.319ZM122.008 233V228.008C122.008 225.784 120.392 225.08 118.632 225.08C117.416 225.08 116.2 225.464 115.256 226.296L116.024 227.656C116.68 227.048 117.448 226.744 118.28 226.744C119.304 226.744 119.976 227.256 119.976 228.04V229.112C119.464 228.488 118.552 228.168 117.528 228.168C116.296 228.168 114.84 228.824 114.84 230.632C114.84 232.36 116.296 233.192 117.528 233.192C118.536 233.192 119.448 232.824 119.976 232.2V233H122.008ZM119.976 231.144C119.64 231.592 119 231.816 118.344 231.816C117.544 231.816 116.888 231.4 116.888 230.68C116.888 229.944 117.544 229.512 118.344 229.512C119 229.512 119.64 229.736 119.976 230.184V231.144ZM135.656 233V227.416C135.656 225.832 134.808 225.08 133.384 225.08C132.2 225.08 131.176 225.784 130.728 226.488C130.44 225.608 129.72 225.08 128.584 225.08C127.4 225.08 126.376 225.816 126.056 226.28V225.272H124.024V233H126.056V227.8C126.36 227.368 126.952 226.888 127.656 226.888C128.488 226.888 128.808 227.4 128.808 228.12V233H130.856V227.784C131.144 227.368 131.736 226.888 132.456 226.888C133.288 226.888 133.608 227.4 133.608 228.12V233H135.656ZM137.153 229.128C137.153 231.608 138.929 233.192 141.281 233.192C142.481 233.192 143.681 232.84 144.465 232.12L143.569 230.808C143.073 231.288 142.225 231.576 141.505 231.576C140.193 231.576 139.409 230.76 139.281 229.784H145.025V229.336C145.025 226.808 143.457 225.08 141.153 225.08C138.801 225.08 137.153 226.888 137.153 229.128ZM141.153 226.696C142.497 226.696 143.009 227.672 143.057 228.408H139.249C139.345 227.64 139.889 226.696 141.153 226.696ZM153.74 233V227.544C153.74 226.04 152.924 225.08 151.228 225.08C149.964 225.08 149.02 225.688 148.524 226.28V225.272H146.492V233H148.524V227.8C148.86 227.336 149.484 226.888 150.284 226.888C151.148 226.888 151.708 227.256 151.708 228.328V233H153.74ZM158.35 233.192C159.198 233.192 159.742 232.968 160.046 232.696L159.614 231.16C159.502 231.272 159.214 231.384 158.91 231.384C158.462 231.384 158.206 231.016 158.206 230.536V227.048H159.774V225.272H158.206V223.16H156.158V225.272H154.878V227.048H156.158V231.08C156.158 232.456 156.926 233.192 158.35 233.192ZM164.748 233.192C167.308 233.192 168.844 231.336 168.844 229.128C168.844 226.936 167.308 225.08 164.748 225.08C162.204 225.08 160.668 226.936 160.668 229.128C160.668 231.336 162.204 233.192 164.748 233.192ZM164.748 231.384C163.484 231.384 162.78 230.344 162.78 229.128C162.78 227.928 163.484 226.888 164.748 226.888C166.012 226.888 166.732 227.928 166.732 229.128C166.732 230.344 166.012 231.384 164.748 231.384Z" fill="#387267"/>
<path id="27%" d="M377.98 235V232.5H372.42C376 229.98 377.88 228 377.88 225.72C377.88 223.06 375.62 221.46 372.78 221.46C370.92 221.46 368.94 222.14 367.64 223.64L369.26 225.52C370.16 224.58 371.32 223.98 372.82 223.98C373.94 223.98 375 224.56 375 225.72C375 227.36 373.4 228.74 367.94 232.76V235H377.98ZM384.532 235L389.492 223.64V221.66H379.472V224.16H386.192L381.412 235H384.532ZM390.411 224.82C390.411 226.68 391.751 228.1 393.791 228.1C395.851 228.1 397.191 226.68 397.191 224.82C397.191 222.94 395.851 221.46 393.791 221.46C391.751 221.46 390.411 222.94 390.411 224.82ZM393.991 235L402.531 221.66H401.011L392.491 235H393.991ZM395.371 224.82C395.371 225.86 394.711 226.54 393.791 226.54C392.891 226.54 392.211 225.86 392.211 224.82C392.211 223.7 392.891 223.04 393.791 223.04C394.711 223.04 395.371 223.7 395.371 224.82ZM397.751 231.94C397.751 233.8 399.091 235.24 401.131 235.24C403.171 235.24 404.531 233.8 404.531 231.94C404.531 230.06 403.171 228.58 401.131 228.58C399.091 228.58 397.751 230.06 397.751 231.94ZM402.731 231.94C402.731 233.02 402.051 233.68 401.131 233.68C400.211 233.68 399.551 233.02 399.551 231.94C399.551 230.84 400.211 230.16 401.131 230.16C402.051 230.16 402.731 230.84 402.731 231.94Z" fill="#FCFCF3"/>
</g>
<g id="Group 428">
<path id="Rectangle 109" d="M0 260C0 253.373 5.37258 248 12 248H327.5C333.851 248 339 253.149 339 259.5C339 265.851 333.851 271 327.5 271H0V260Z" fill="#FCFCF3"/>
<path id="Mezzi ecologici" d="M36.624 264V253.328H33.424L30.832 259.984L28.24 253.328H25.056V264H27.328V256.32L30.336 264H31.328L34.336 256.32V264H36.624ZM38.1995 260.128C38.1995 262.608 39.9755 264.192 42.3275 264.192C43.5275 264.192 44.7275 263.84 45.5115 263.12L44.6155 261.808C44.1195 262.288 43.2715 262.576 42.5515 262.576C41.2395 262.576 40.4555 261.76 40.3275 260.784H46.0715V260.336C46.0715 257.808 44.5035 256.08 42.1995 256.08C39.8475 256.08 38.1995 257.888 38.1995 260.128ZM42.1995 257.696C43.5435 257.696 44.0555 258.672 44.1035 259.408H40.2955C40.3915 258.64 40.9355 257.696 42.1995 257.696ZM53.5073 264V262.224H49.9073L53.4433 257.744V256.272H47.2033V258.048H50.6913L47.2033 262.48V264H53.5073ZM61.1635 264V262.224H57.5635L61.0995 257.744V256.272H54.8595V258.048H58.3475L54.8595 262.48V264H61.1635ZM63.8598 255.136C64.5318 255.136 65.0758 254.592 65.0758 253.92C65.0758 253.248 64.5318 252.704 63.8598 252.704C63.2038 252.704 62.6438 253.248 62.6438 253.92C62.6438 254.592 63.2038 255.136 63.8598 255.136ZM64.8838 264V256.272H62.8518V264H64.8838ZM70.4964 260.128C70.4964 262.608 72.2724 264.192 74.6244 264.192C75.8244 264.192 77.0244 263.84 77.8084 263.12L76.9124 261.808C76.4164 262.288 75.5684 262.576 74.8484 262.576C73.5364 262.576 72.7524 261.76 72.6244 260.784H78.3684V260.336C78.3684 257.808 76.8004 256.08 74.4964 256.08C72.1444 256.08 70.4964 257.888 70.4964 260.128ZM74.4964 257.696C75.8404 257.696 76.3524 258.672 76.4004 259.408H72.5924C72.6884 258.64 73.2324 257.696 74.4964 257.696ZM79.3401 260.128C79.3401 262.512 81.0521 264.192 83.4361 264.192C85.0201 264.192 85.9801 263.504 86.4921 262.784L85.1641 261.552C84.7961 262.064 84.2361 262.384 83.5321 262.384C82.3001 262.384 81.4361 261.472 81.4361 260.128C81.4361 258.784 82.3001 257.888 83.5321 257.888C84.2361 257.888 84.7961 258.192 85.1641 258.72L86.4921 257.488C85.9801 256.768 85.0201 256.08 83.4361 256.08C81.0521 256.08 79.3401 257.76 79.3401 260.128ZM91.4045 264.192C93.9645 264.192 95.5005 262.336 95.5005 260.128C95.5005 257.936 93.9645 256.08 91.4045 256.08C88.8605 256.08 87.3245 257.936 87.3245 260.128C87.3245 262.336 88.8605 264.192 91.4045 264.192ZM91.4045 262.384C90.1405 262.384 89.4365 261.344 89.4365 260.128C89.4365 258.928 90.1405 257.888 91.4045 257.888C92.6685 257.888 93.3885 258.928 93.3885 260.128C93.3885 261.344 92.6685 262.384 91.4045 262.384ZM99.04 264V253.328H97.008V264H99.04ZM104.639 264.192C107.199 264.192 108.735 262.336 108.735 260.128C108.735 257.936 107.199 256.08 104.639 256.08C102.095 256.08 100.559 257.936 100.559 260.128C100.559 262.336 102.095 264.192 104.639 264.192ZM104.639 262.384C103.375 262.384 102.671 261.344 102.671 260.128C102.671 258.928 103.375 257.888 104.639 257.888C105.903 257.888 106.623 258.928 106.623 260.128C106.623 261.344 105.903 262.384 104.639 262.384ZM110.082 265.984C111.042 266.832 112.082 267.136 113.41 267.136C115.314 267.136 117.586 266.416 117.586 263.472V256.272H115.538V257.264C114.914 256.48 114.082 256.08 113.154 256.08C111.202 256.08 109.746 257.488 109.746 260.016C109.746 262.592 111.218 263.952 113.154 263.952C114.098 263.952 114.93 263.504 115.538 262.736V263.52C115.538 265.04 114.386 265.472 113.41 265.472C112.434 265.472 111.618 265.2 110.994 264.512L110.082 265.984ZM115.538 261.264C115.202 261.76 114.466 262.144 113.794 262.144C112.642 262.144 111.842 261.344 111.842 260.016C111.842 258.688 112.642 257.888 113.794 257.888C114.466 257.888 115.202 258.256 115.538 258.768V261.264ZM120.61 255.136C121.282 255.136 121.826 254.592 121.826 253.92C121.826 253.248 121.282 252.704 120.61 252.704C119.954 252.704 119.394 253.248 119.394 253.92C119.394 254.592 119.954 255.136 120.61 255.136ZM121.634 264V256.272H119.602V264H121.634ZM123.153 260.128C123.153 262.512 124.865 264.192 127.249 264.192C128.833 264.192 129.793 263.504 130.305 262.784L128.977 261.552C128.609 262.064 128.049 262.384 127.345 262.384C126.113 262.384 125.249 261.472 125.249 260.128C125.249 258.784 126.113 257.888 127.345 257.888C128.049 257.888 128.609 258.192 128.977 258.72L130.305 257.488C129.793 256.768 128.833 256.08 127.249 256.08C124.865 256.08 123.153 257.76 123.153 260.128ZM132.641 255.136C133.313 255.136 133.857 254.592 133.857 253.92C133.857 253.248 133.313 252.704 132.641 252.704C131.985 252.704 131.425 253.248 131.425 253.92C131.425 254.592 131.985 255.136 132.641 255.136ZM133.665 264V256.272H131.633V264H133.665Z" fill="#387267"/>
<path id="26%" d="M365.98 266V263.5H360.42C364 260.98 365.88 259 365.88 256.72C365.88 254.06 363.62 252.46 360.78 252.46C358.92 252.46 356.94 253.14 355.64 254.64L357.26 256.52C358.16 255.58 359.32 254.98 360.82 254.98C361.94 254.98 363 255.56 363 256.72C363 258.36 361.4 259.74 355.94 263.76V266H365.98ZM367.672 259.36C367.672 263.12 369.372 266.24 373.432 266.24C376.472 266.24 378.532 264.26 378.532 261.66C378.532 258.82 376.392 257.36 373.992 257.36C372.532 257.36 371.192 258.16 370.572 259.06C370.552 258.98 370.552 258.88 370.552 258.78C370.552 256.66 371.872 254.92 373.892 254.92C375.072 254.92 375.832 255.3 376.552 255.98L377.832 253.84C376.872 253.02 375.512 252.46 373.892 252.46C369.952 252.46 367.672 255.32 367.672 259.36ZM375.652 261.78C375.652 262.72 374.832 263.76 373.292 263.76C371.412 263.76 370.692 262.28 370.572 261C371.212 260.22 372.172 259.72 373.172 259.72C374.472 259.72 375.652 260.34 375.652 261.78ZM379.68 255.82C379.68 257.68 381.02 259.1 383.06 259.1C385.12 259.1 386.46 257.68 386.46 255.82C386.46 253.94 385.12 252.46 383.06 252.46C381.02 252.46 379.68 253.94 379.68 255.82ZM383.26 266L391.8 252.66H390.28L381.76 266H383.26ZM384.64 255.82C384.64 256.86 383.98 257.54 383.06 257.54C382.16 257.54 381.48 256.86 381.48 255.82C381.48 254.7 382.16 254.04 383.06 254.04C383.98 254.04 384.64 254.7 384.64 255.82ZM387.02 262.94C387.02 264.8 388.36 266.24 390.4 266.24C392.44 266.24 393.8 264.8 393.8 262.94C393.8 261.06 392.44 259.58 390.4 259.58C388.36 259.58 387.02 261.06 387.02 262.94ZM392 262.94C392 264.02 391.32 264.68 390.4 264.68C389.48 264.68 388.82 264.02 388.82 262.94C388.82 261.84 389.48 261.16 390.4 261.16C391.32 261.16 392 261.84 392 262.94Z" fill="#FCFCF3"/>
</g>
<g id="Group 429">
<path id="Rectangle 110" d="M0 291C0 284.373 5.37258 279 12 279H314.5C320.851 279 326 284.149 326 290.5C326 296.851 320.851 302 314.5 302H0V291Z" fill="#FCFCF3"/>
<path id="Educazione ambientale" d="M32.608 295V293.032H27.328V290.552H32.496V288.6H27.328V286.28H32.608V284.328H25.056V295H32.608ZM41.6961 295V284.328H39.6481V288.264C39.0401 287.48 38.1761 287.08 37.2641 287.08C35.2961 287.08 33.8401 288.616 33.8401 291.144C33.8401 293.72 35.3121 295.192 37.2641 295.192C38.1921 295.192 39.0401 294.776 39.6481 294.024V295H41.6961ZM39.6481 292.504C39.2961 293.016 38.5761 293.384 37.8881 293.384C36.7361 293.384 35.9361 292.472 35.9361 291.144C35.9361 289.8 36.7361 288.888 37.8881 288.888C38.5761 288.888 39.2961 289.256 39.6481 289.768V292.504ZM50.9591 295V287.272H48.9271V292.504C48.5751 292.952 47.9511 293.384 47.1671 293.384C46.3031 293.384 45.7431 293.032 45.7431 291.96V287.272H43.7111V292.76C43.7111 294.264 44.5111 295.192 46.2071 295.192C47.4711 295.192 48.3991 294.616 48.9271 294.024V295H50.9591ZM52.4808 291.128C52.4808 293.512 54.1928 295.192 56.5768 295.192C58.1608 295.192 59.1208 294.504 59.6328 293.784L58.3048 292.552C57.9368 293.064 57.3768 293.384 56.6727 293.384C55.4408 293.384 54.5768 292.472 54.5768 291.128C54.5768 289.784 55.4408 288.888 56.6727 288.888C57.3768 288.888 57.9368 289.192 58.3048 289.72L59.6328 288.488C59.1208 287.768 58.1608 287.08 56.5768 287.08C54.1928 287.08 52.4808 288.76 52.4808 291.128ZM67.6331 295V290.008C67.6331 287.784 66.0171 287.08 64.2571 287.08C63.0411 287.08 61.8251 287.464 60.8811 288.296L61.6491 289.656C62.3051 289.048 63.0731 288.744 63.9051 288.744C64.9291 288.744 65.6011 289.256 65.6011 290.04V291.112C65.0891 290.488 64.1771 290.168 63.1531 290.168C61.9211 290.168 60.4651 290.824 60.4651 292.632C60.4651 294.36 61.9211 295.192 63.1531 295.192C64.1611 295.192 65.0731 294.824 65.6011 294.2V295H67.6331ZM65.6011 293.144C65.2651 293.592 64.6251 293.816 63.9691 293.816C63.1691 293.816 62.5131 293.4 62.5131 292.68C62.5131 291.944 63.1691 291.512 63.9691 291.512C64.6251 291.512 65.2651 291.736 65.6011 292.184V293.144ZM75.6166 295V293.224H72.0166L75.5526 288.744V287.272H69.3126V289.048H72.8006L69.3126 293.48V295H75.6166ZM78.3129 286.136C78.9849 286.136 79.5289 285.592 79.5289 284.92C79.5289 284.248 78.9849 283.704 78.3129 283.704C77.6569 283.704 77.0969 284.248 77.0969 284.92C77.0969 285.592 77.6569 286.136 78.3129 286.136ZM79.3369 295V287.272H77.3049V295H79.3369ZM84.9358 295.192C87.4958 295.192 89.0318 293.336 89.0318 291.128C89.0318 288.936 87.4958 287.08 84.9358 287.08C82.3918 287.08 80.8558 288.936 80.8558 291.128C80.8558 293.336 82.3918 295.192 84.9358 295.192ZM84.9358 293.384C83.6718 293.384 82.9678 292.344 82.9678 291.128C82.9678 289.928 83.6718 288.888 84.9358 288.888C86.1998 288.888 86.9198 289.928 86.9198 291.128C86.9198 292.344 86.1998 293.384 84.9358 293.384ZM97.7873 295V289.544C97.7873 288.04 96.9713 287.08 95.2753 287.08C94.0113 287.08 93.0673 287.688 92.5713 288.28V287.272H90.5393V295H92.5713V289.8C92.9073 289.336 93.5312 288.888 94.3313 288.888C95.1953 288.888 95.7553 289.256 95.7553 290.328V295H97.7873ZM99.3089 291.128C99.3089 293.608 101.085 295.192 103.437 295.192C104.637 295.192 105.837 294.84 106.621 294.12L105.725 292.808C105.229 293.288 104.381 293.576 103.661 293.576C102.349 293.576 101.565 292.76 101.437 291.784H107.181V291.336C107.181 288.808 105.613 287.08 103.309 287.08C100.957 287.08 99.3089 288.888 99.3089 291.128ZM103.309 288.696C104.653 288.696 105.165 289.672 105.213 290.408H101.405C101.501 289.64 102.045 288.696 103.309 288.696ZM119.414 295V290.008C119.414 287.784 117.798 287.08 116.038 287.08C114.822 287.08 113.606 287.464 112.662 288.296L113.43 289.656C114.086 289.048 114.854 288.744 115.686 288.744C116.71 288.744 117.382 289.256 117.382 290.04V291.112C116.87 290.488 115.958 290.168 114.934 290.168C113.702 290.168 112.246 290.824 112.246 292.632C112.246 294.36 113.702 295.192 114.934 295.192C115.942 295.192 116.854 294.824 117.382 294.2V295H119.414ZM117.382 293.144C117.046 293.592 116.406 293.816 115.75 293.816C114.95 293.816 114.294 293.4 114.294 292.68C114.294 291.944 114.95 291.512 115.75 291.512C116.406 291.512 117.046 291.736 117.382 292.184V293.144ZM133.062 295V289.416C133.062 287.832 132.214 287.08 130.79 287.08C129.606 287.08 128.582 287.784 128.134 288.488C127.846 287.608 127.126 287.08 125.99 287.08C124.806 287.08 123.782 287.816 123.462 288.28V287.272H121.43V295H123.462V289.8C123.766 289.368 124.358 288.888 125.062 288.888C125.894 288.888 126.214 289.4 126.214 290.12V295H128.262V289.784C128.55 289.368 129.142 288.888 129.862 288.888C130.694 288.888 131.014 289.4 131.014 290.12V295H133.062ZM137.087 295V294.024C137.695 294.776 138.543 295.192 139.471 295.192C141.423 295.192 142.895 293.72 142.895 291.144C142.895 288.616 141.439 287.08 139.471 287.08C138.559 287.08 137.695 287.48 137.087 288.264V284.328H135.055V295H137.087ZM137.087 289.784C137.423 289.272 138.175 288.888 138.831 288.888C140.015 288.888 140.799 289.8 140.799 291.144C140.799 292.488 140.015 293.384 138.831 293.384C138.175 293.384 137.423 293.016 137.087 292.52V289.784ZM145.438 286.136C146.11 286.136 146.654 285.592 146.654 284.92C146.654 284.248 146.11 283.704 145.438 283.704C144.782 283.704 144.222 284.248 144.222 284.92C144.222 285.592 144.782 286.136 145.438 286.136ZM146.462 295V287.272H144.43V295H146.462ZM147.981 291.128C147.981 293.608 149.757 295.192 152.109 295.192C153.309 295.192 154.509 294.84 155.293 294.12L154.397 292.808C153.901 293.288 153.053 293.576 152.333 293.576C151.021 293.576 150.237 292.76 150.109 291.784H155.853V291.336C155.853 288.808 154.285 287.08 151.981 287.08C149.629 287.08 147.981 288.888 147.981 291.128ZM151.981 288.696C153.325 288.696 153.837 289.672 153.885 290.408H150.077C150.173 289.64 150.717 288.696 151.981 288.696ZM164.569 295V289.544C164.569 288.04 163.753 287.08 162.057 287.08C160.793 287.08 159.849 287.688 159.353 288.28V287.272H157.321V295H159.353V289.8C159.689 289.336 160.312 288.888 161.113 288.888C161.977 288.888 162.537 289.256 162.537 290.328V295H164.569ZM169.178 295.192C170.026 295.192 170.57 294.968 170.874 294.696L170.442 293.16C170.33 293.272 170.042 293.384 169.738 293.384C169.29 293.384 169.034 293.016 169.034 292.536V289.048H170.602V287.272H169.034V285.16H166.986V287.272H165.706V289.048H166.986V293.08C166.986 294.456 167.754 295.192 169.178 295.192ZM178.664 295V290.008C178.664 287.784 177.048 287.08 175.288 287.08C174.072 287.08 172.856 287.464 171.912 288.296L172.68 289.656C173.336 289.048 174.104 288.744 174.936 288.744C175.96 288.744 176.632 289.256 176.632 290.04V291.112C176.12 290.488 175.208 290.168 174.184 290.168C172.952 290.168 171.496 290.824 171.496 292.632C171.496 294.36 172.952 295.192 174.184 295.192C175.192 295.192 176.104 294.824 176.632 294.2V295H178.664ZM176.632 293.144C176.296 293.592 175.656 293.816 175 293.816C174.2 293.816 173.544 293.4 173.544 292.68C173.544 291.944 174.2 291.512 175 291.512C175.656 291.512 176.296 291.736 176.632 292.184V293.144ZM182.712 295V284.328H180.68V295H182.712ZM184.231 291.128C184.231 293.608 186.007 295.192 188.359 295.192C189.559 295.192 190.759 294.84 191.543 294.12L190.647 292.808C190.151 293.288 189.303 293.576 188.583 293.576C187.271 293.576 186.487 292.76 186.359 291.784H192.103V291.336C192.103 288.808 190.535 287.08 188.231 287.08C185.879 287.08 184.231 288.888 184.231 291.128ZM188.231 288.696C189.575 288.696 190.087 289.672 190.135 290.408H186.327C186.423 289.64 186.967 288.696 188.231 288.696Z" fill="#387267"/>
<path id="25%" d="M352.98 297V294.5H347.42C351 291.98 352.88 290 352.88 287.72C352.88 285.06 350.62 283.46 347.78 283.46C345.92 283.46 343.94 284.14 342.64 285.64L344.26 287.52C345.16 286.58 346.32 285.98 347.82 285.98C348.94 285.98 350 286.56 350 287.72C350 289.36 348.4 290.74 342.94 294.76V297H352.98ZM354.972 295.24C356.112 296.48 357.792 297.24 360.112 297.24C363.332 297.24 365.452 295.46 365.452 292.64C365.452 289.94 363.432 288.34 361.172 288.34C359.952 288.34 358.872 288.82 358.172 289.44V286.1H364.552V283.66H355.392V291.28L357.372 291.82C358.172 291.06 359.072 290.72 360.172 290.72C361.692 290.72 362.572 291.54 362.572 292.76C362.572 293.86 361.672 294.76 360.092 294.76C358.692 294.76 357.452 294.26 356.532 293.32L354.972 295.24ZM366.68 286.82C366.68 288.68 368.02 290.1 370.06 290.1C372.12 290.1 373.46 288.68 373.46 286.82C373.46 284.94 372.12 283.46 370.06 283.46C368.02 283.46 366.68 284.94 366.68 286.82ZM370.26 297L378.8 283.66H377.28L368.76 297H370.26ZM371.64 286.82C371.64 287.86 370.98 288.54 370.06 288.54C369.16 288.54 368.48 287.86 368.48 286.82C368.48 285.7 369.16 285.04 370.06 285.04C370.98 285.04 371.64 285.7 371.64 286.82ZM374.02 293.94C374.02 295.8 375.36 297.24 377.4 297.24C379.44 297.24 380.8 295.8 380.8 293.94C380.8 292.06 379.44 290.58 377.4 290.58C375.36 290.58 374.02 292.06 374.02 293.94ZM379 293.94C379 295.02 378.32 295.68 377.4 295.68C376.48 295.68 375.82 295.02 375.82 293.94C375.82 292.84 376.48 292.16 377.4 292.16C378.32 292.16 379 292.84 379 293.94Z" fill="#FCFCF3"/>
</g>
<g id="Group 430">
<path id="Rectangle 111" d="M0 322C0 315.373 5.37258 310 12 310H289.5C295.851 310 301 315.149 301 321.5C301 327.851 295.851 333 289.5 333H0V322Z" fill="#FCFCF3"/>
<path id="Zone pedonali" d="M32.8 326V324H27.648L32.688 317.152V315.328H24.672V317.328H29.712L24.672 324.16V326H32.8ZM38.0608 326.192C40.6208 326.192 42.1568 324.336 42.1568 322.128C42.1568 319.936 40.6208 318.08 38.0608 318.08C35.5168 318.08 33.9808 319.936 33.9808 322.128C33.9808 324.336 35.5168 326.192 38.0608 326.192ZM38.0608 324.384C36.7968 324.384 36.0928 323.344 36.0928 322.128C36.0928 320.928 36.7968 319.888 38.0608 319.888C39.3248 319.888 40.0448 320.928 40.0448 322.128C40.0448 323.344 39.3248 324.384 38.0608 324.384ZM50.9123 326V320.544C50.9123 319.04 50.0963 318.08 48.4003 318.08C47.1363 318.08 46.1923 318.688 45.6963 319.28V318.272H43.6643V326H45.6963V320.8C46.0323 320.336 46.6562 319.888 47.4563 319.888C48.3203 319.888 48.8803 320.256 48.8803 321.328V326H50.9123ZM52.4339 322.128C52.4339 324.608 54.2099 326.192 56.5619 326.192C57.7619 326.192 58.9619 325.84 59.7459 325.12L58.8499 323.808C58.3539 324.288 57.5059 324.576 56.7859 324.576C55.4739 324.576 54.6899 323.76 54.5619 322.784H60.3059V322.336C60.3059 319.808 58.7379 318.08 56.4339 318.08C54.0819 318.08 52.4339 319.888 52.4339 322.128ZM56.4339 319.696C57.7779 319.696 58.2899 320.672 58.3379 321.408H54.5299C54.6259 320.64 55.1699 319.696 56.4339 319.696ZM67.8994 325.008C68.5234 325.808 69.3714 326.192 70.2834 326.192C72.2674 326.192 73.7074 324.704 73.7074 322.128C73.7074 319.552 72.2674 318.08 70.2834 318.08C69.3394 318.08 68.4914 318.496 67.8994 319.248V318.272H65.8674V328.944H67.8994V325.008ZM71.5954 322.128C71.5954 323.472 70.8114 324.384 69.6434 324.384C68.9874 324.384 68.2354 323.984 67.8994 323.504V320.768C68.2354 320.272 68.9874 319.888 69.6434 319.888C70.8114 319.888 71.5954 320.8 71.5954 322.128ZM74.7308 322.128C74.7308 324.608 76.5068 326.192 78.8588 326.192C80.0588 326.192 81.2588 325.84 82.0428 325.12L81.1468 323.808C80.6508 324.288 79.8028 324.576 79.0828 324.576C77.7708 324.576 76.9868 323.76 76.8588 322.784H82.6028V322.336C82.6028 319.808 81.0348 318.08 78.7308 318.08C76.3788 318.08 74.7308 319.888 74.7308 322.128ZM78.7308 319.696C80.0748 319.696 80.5868 320.672 80.6348 321.408H76.8268C76.9228 320.64 77.4668 319.696 78.7308 319.696ZM91.4305 326V315.328H89.3825V319.264C88.7745 318.48 87.9105 318.08 86.9985 318.08C85.0305 318.08 83.5745 319.616 83.5745 322.144C83.5745 324.72 85.0465 326.192 86.9985 326.192C87.9265 326.192 88.7745 325.776 89.3825 325.024V326H91.4305ZM89.3825 323.504C89.0305 324.016 88.3105 324.384 87.6225 324.384C86.4705 324.384 85.6705 323.472 85.6705 322.144C85.6705 320.8 86.4705 319.888 87.6225 319.888C88.3105 319.888 89.0305 320.256 89.3825 320.768V323.504ZM97.0295 326.192C99.5895 326.192 101.126 324.336 101.126 322.128C101.126 319.936 99.5895 318.08 97.0295 318.08C94.4855 318.08 92.9495 319.936 92.9495 322.128C92.9495 324.336 94.4855 326.192 97.0295 326.192ZM97.0295 324.384C95.7655 324.384 95.0615 323.344 95.0615 322.128C95.0615 320.928 95.7655 319.888 97.0295 319.888C98.2935 319.888 99.0135 320.928 99.0135 322.128C99.0135 323.344 98.2935 324.384 97.0295 324.384ZM109.881 326V320.544C109.881 319.04 109.065 318.08 107.369 318.08C106.105 318.08 105.161 318.688 104.665 319.28V318.272H102.633V326H104.665V320.8C105.001 320.336 105.625 319.888 106.425 319.888C107.289 319.888 107.849 320.256 107.849 321.328V326H109.881ZM118.571 326V321.008C118.571 318.784 116.955 318.08 115.195 318.08C113.979 318.08 112.763 318.464 111.819 319.296L112.587 320.656C113.243 320.048 114.011 319.744 114.843 319.744C115.867 319.744 116.539 320.256 116.539 321.04V322.112C116.027 321.488 115.115 321.168 114.091 321.168C112.859 321.168 111.403 321.824 111.403 323.632C111.403 325.36 112.859 326.192 114.091 326.192C115.099 326.192 116.011 325.824 116.539 325.2V326H118.571ZM116.539 324.144C116.203 324.592 115.563 324.816 114.907 324.816C114.107 324.816 113.451 324.4 113.451 323.68C113.451 322.944 114.107 322.512 114.907 322.512C115.563 322.512 116.203 322.736 116.539 323.184V324.144ZM122.618 326V315.328H120.586V326H122.618ZM125.641 317.136C126.313 317.136 126.857 316.592 126.857 315.92C126.857 315.248 126.313 314.704 125.641 314.704C124.985 314.704 124.425 315.248 124.425 315.92C124.425 316.592 124.985 317.136 125.641 317.136ZM126.665 326V318.272H124.633V326H126.665Z" fill="#387267"/>
<path id="23%" d="M327.98 328V325.5H322.42C326 322.98 327.88 321 327.88 318.72C327.88 316.06 325.62 314.46 322.78 314.46C320.92 314.46 318.94 315.14 317.64 316.64L319.26 318.52C320.16 317.58 321.32 316.98 322.82 316.98C323.94 316.98 325 317.56 325 318.72C325 320.36 323.4 321.74 317.94 325.76V328H327.98ZM329.392 326.1C330.372 327.3 332.192 328.24 334.652 328.24C337.852 328.24 339.912 326.62 339.912 324.32C339.912 322.32 338.152 321.26 336.792 321.12C338.272 320.86 339.712 319.76 339.712 318.08C339.712 315.86 337.792 314.46 334.672 314.46C332.332 314.46 330.652 315.36 329.572 316.58L330.972 318.34C331.912 317.44 333.072 316.94 334.372 316.94C335.772 316.94 336.852 317.48 336.852 318.54C336.852 319.54 335.872 320.02 334.392 320.02C333.872 320.02 332.972 320.02 332.732 320V322.48C332.932 322.46 333.832 322.46 334.392 322.46C336.252 322.46 337.072 322.96 337.072 324.04C337.072 325.06 336.172 325.76 334.552 325.76C333.252 325.76 331.792 325.2 330.872 324.24L329.392 326.1ZM341.25 317.82C341.25 319.68 342.59 321.1 344.63 321.1C346.69 321.1 348.03 319.68 348.03 317.82C348.03 315.94 346.69 314.46 344.63 314.46C342.59 314.46 341.25 315.94 341.25 317.82ZM344.83 328L353.37 314.66H351.85L343.33 328H344.83ZM346.21 317.82C346.21 318.86 345.55 319.54 344.63 319.54C343.73 319.54 343.05 318.86 343.05 317.82C343.05 316.7 343.73 316.04 344.63 316.04C345.55 316.04 346.21 316.7 346.21 317.82ZM348.59 324.94C348.59 326.8 349.93 328.24 351.97 328.24C354.01 328.24 355.37 326.8 355.37 324.94C355.37 323.06 354.01 321.58 351.97 321.58C349.93 321.58 348.59 323.06 348.59 324.94ZM353.57 324.94C353.57 326.02 352.89 326.68 351.97 326.68C351.05 326.68 350.39 326.02 350.39 324.94C350.39 323.84 351.05 323.16 351.97 323.16C352.89 323.16 353.57 323.84 353.57 324.94Z" fill="#FCFCF3"/>
</g>
<g id="Group 431">
<path id="Rectangle 112" d="M0 353C0 346.373 5.37258 341 12 341H196.5C202.851 341 208 346.149 208 352.5C208 358.851 202.851 364 196.5 364H0V353Z" fill="#FCFCF3"/>
<path id="Inquinamento acustico" d="M27.328 357V346.328H25.056V357H27.328ZM36.6466 357V351.544C36.6466 350.04 35.8306 349.08 34.1346 349.08C32.8706 349.08 31.9266 349.688 31.4306 350.28V349.272H29.3986V357H31.4306V351.8C31.7666 351.336 32.3906 350.888 33.1906 350.888C34.0546 350.888 34.6146 351.256 34.6146 352.328V357H36.6466ZM46.0083 349.272H43.9603V350.248C43.3843 349.496 42.5203 349.08 41.5763 349.08C39.6083 349.08 38.1683 350.552 38.1683 353.128C38.1683 355.704 39.6083 357.192 41.5763 357.192C42.5043 357.192 43.3363 356.808 43.9603 356.008V359.944H46.0083V349.272ZM43.9603 354.504C43.6243 354.984 42.8883 355.384 42.2163 355.384C41.0643 355.384 40.2643 354.472 40.2643 353.128C40.2643 351.8 41.0643 350.888 42.2163 350.888C42.8883 350.888 43.6243 351.272 43.9603 351.768V354.504ZM55.2716 357V349.272H53.2396V354.504C52.8876 354.952 52.2636 355.384 51.4796 355.384C50.6156 355.384 50.0556 355.032 50.0556 353.96V349.272H48.0236V354.76C48.0236 356.264 48.8236 357.192 50.5196 357.192C51.7836 357.192 52.7116 356.616 53.2396 356.024V357H55.2716ZM58.2973 348.136C58.9693 348.136 59.5133 347.592 59.5133 346.92C59.5133 346.248 58.9693 345.704 58.2973 345.704C57.6413 345.704 57.0813 346.248 57.0813 346.92C57.0813 347.592 57.6413 348.136 58.2973 348.136ZM59.3213 357V349.272H57.2893V357H59.3213ZM68.5841 357V351.544C68.5841 350.04 67.7681 349.08 66.0721 349.08C64.8081 349.08 63.8641 349.688 63.3681 350.28V349.272H61.3361V357H63.3681V351.8C63.7041 351.336 64.3281 350.888 65.1281 350.888C65.9921 350.888 66.5521 351.256 66.5521 352.328V357H68.5841ZM77.2738 357V352.008C77.2738 349.784 75.6578 349.08 73.8978 349.08C72.6818 349.08 71.4658 349.464 70.5218 350.296L71.2898 351.656C71.9457 351.048 72.7138 350.744 73.5458 350.744C74.5698 350.744 75.2418 351.256 75.2418 352.04V353.112C74.7298 352.488 73.8177 352.168 72.7938 352.168C71.5618 352.168 70.1058 352.824 70.1058 354.632C70.1058 356.36 71.5618 357.192 72.7938 357.192C73.8018 357.192 74.7138 356.824 75.2418 356.2V357H77.2738ZM75.2418 355.144C74.9058 355.592 74.2658 355.816 73.6098 355.816C72.8098 355.816 72.1538 355.4 72.1538 354.68C72.1538 353.944 72.8098 353.512 73.6098 353.512C74.2658 353.512 74.9058 353.736 75.2418 354.184V355.144ZM90.9213 357V351.416C90.9213 349.832 90.0733 349.08 88.6493 349.08C87.4653 349.08 86.4413 349.784 85.9933 350.488C85.7053 349.608 84.9853 349.08 83.8493 349.08C82.6653 349.08 81.6413 349.816 81.3213 350.28V349.272H79.2893V357H81.3213V351.8C81.6253 351.368 82.2173 350.888 82.9213 350.888C83.7533 350.888 84.0733 351.4 84.0733 352.12V357H86.1213V351.784C86.4093 351.368 87.0013 350.888 87.7213 350.888C88.5533 350.888 88.8733 351.4 88.8733 352.12V357H90.9213ZM92.4183 353.128C92.4183 355.608 94.1943 357.192 96.5463 357.192C97.7463 357.192 98.9463 356.84 99.7303 356.12L98.8343 354.808C98.3383 355.288 97.4903 355.576 96.7703 355.576C95.4583 355.576 94.6743 354.76 94.5463 353.784H100.29V353.336C100.29 350.808 98.7223 349.08 96.4183 349.08C94.0663 349.08 92.4183 350.888 92.4183 353.128ZM96.4183 350.696C97.7623 350.696 98.2743 351.672 98.3223 352.408H94.5143C94.6103 351.64 95.1543 350.696 96.4183 350.696ZM109.006 357V351.544C109.006 350.04 108.19 349.08 106.494 349.08C105.23 349.08 104.286 349.688 103.79 350.28V349.272H101.758V357H103.79V351.8C104.126 351.336 104.75 350.888 105.55 350.888C106.414 350.888 106.974 351.256 106.974 352.328V357H109.006ZM113.616 357.192C114.464 357.192 115.008 356.968 115.312 356.696L114.88 355.16C114.768 355.272 114.48 355.384 114.176 355.384C113.728 355.384 113.472 355.016 113.472 354.536V351.048H115.04V349.272H113.472V347.16H111.424V349.272H110.144V351.048H111.424V355.08C111.424 356.456 112.192 357.192 113.616 357.192ZM120.014 357.192C122.574 357.192 124.11 355.336 124.11 353.128C124.11 350.936 122.574 349.08 120.014 349.08C117.47 349.08 115.934 350.936 115.934 353.128C115.934 355.336 117.47 357.192 120.014 357.192ZM120.014 355.384C118.75 355.384 118.046 354.344 118.046 353.128C118.046 351.928 118.75 350.888 120.014 350.888C121.278 350.888 121.998 351.928 121.998 353.128C121.998 354.344 121.278 355.384 120.014 355.384ZM136.383 357V352.008C136.383 349.784 134.767 349.08 133.007 349.08C131.791 349.08 130.575 349.464 129.631 350.296L130.399 351.656C131.055 351.048 131.823 350.744 132.655 350.744C133.679 350.744 134.351 351.256 134.351 352.04V353.112C133.839 352.488 132.927 352.168 131.903 352.168C130.671 352.168 129.215 352.824 129.215 354.632C129.215 356.36 130.671 357.192 131.903 357.192C132.911 357.192 133.823 356.824 134.351 356.2V357H136.383ZM134.351 355.144C134.015 355.592 133.375 355.816 132.719 355.816C131.919 355.816 131.263 355.4 131.263 354.68C131.263 353.944 131.919 353.512 132.719 353.512C133.375 353.512 134.015 353.736 134.351 354.184V355.144ZM137.903 353.128C137.903 355.512 139.615 357.192 141.999 357.192C143.583 357.192 144.543 356.504 145.055 355.784L143.727 354.552C143.359 355.064 142.799 355.384 142.095 355.384C140.863 355.384 139.999 354.472 139.999 353.128C139.999 351.784 140.863 350.888 142.095 350.888C142.799 350.888 143.359 351.192 143.727 351.72L145.055 350.488C144.543 349.768 143.583 349.08 141.999 349.08C139.615 349.08 137.903 350.76 137.903 353.128ZM153.631 357V349.272H151.599V354.504C151.247 354.952 150.623 355.384 149.839 355.384C148.975 355.384 148.415 355.032 148.415 353.96V349.272H146.383V354.76C146.383 356.264 147.183 357.192 148.879 357.192C150.143 357.192 151.071 356.616 151.599 356.024V357H153.631ZM154.977 355.992C155.793 356.744 157.089 357.192 158.433 357.192C160.577 357.192 161.777 356.136 161.777 354.712C161.777 352.792 160.001 352.44 158.673 352.184C157.809 352.008 157.201 351.832 157.201 351.352C157.201 350.904 157.681 350.632 158.417 350.632C159.361 350.632 160.241 351.032 160.705 351.528L161.505 350.136C160.753 349.528 159.713 349.08 158.401 349.08C156.369 349.08 155.233 350.216 155.233 351.512C155.233 353.352 156.945 353.672 158.273 353.928C159.153 354.104 159.825 354.296 159.825 354.84C159.825 355.32 159.409 355.624 158.529 355.624C157.569 355.624 156.417 355.096 155.857 354.568L154.977 355.992ZM165.866 357.192C166.714 357.192 167.258 356.968 167.562 356.696L167.13 355.16C167.018 355.272 166.73 355.384 166.426 355.384C165.978 355.384 165.722 355.016 165.722 354.536V351.048H167.29V349.272H165.722V347.16H163.674V349.272H162.394V351.048H163.674V355.08C163.674 356.456 164.442 357.192 165.866 357.192ZM169.688 348.136C170.36 348.136 170.904 347.592 170.904 346.92C170.904 346.248 170.36 345.704 169.688 345.704C169.032 345.704 168.472 346.248 168.472 346.92C168.472 347.592 169.032 348.136 169.688 348.136ZM170.712 357V349.272H168.68V357H170.712ZM172.231 353.128C172.231 355.512 173.943 357.192 176.327 357.192C177.911 357.192 178.871 356.504 179.383 355.784L178.055 354.552C177.687 355.064 177.127 355.384 176.423 355.384C175.191 355.384 174.327 354.472 174.327 353.128C174.327 351.784 175.191 350.888 176.423 350.888C177.127 350.888 177.687 351.192 178.055 351.72L179.383 350.488C178.871 349.768 177.911 349.08 176.327 349.08C173.943 349.08 172.231 350.76 172.231 353.128ZM184.295 357.192C186.855 357.192 188.391 355.336 188.391 353.128C188.391 350.936 186.855 349.08 184.295 349.08C181.751 349.08 180.215 350.936 180.215 353.128C180.215 355.336 181.751 357.192 184.295 357.192ZM184.295 355.384C183.031 355.384 182.327 354.344 182.327 353.128C182.327 351.928 183.031 350.888 184.295 350.888C185.559 350.888 186.279 351.928 186.279 353.128C186.279 354.344 185.559 355.384 184.295 355.384Z" fill="#387267"/>
<path id="16%" d="M230.9 359V345.66H228.42L224.22 349.88L225.84 351.58L228.04 349.32V359H230.9ZM232.903 352.36C232.903 356.12 234.603 359.24 238.663 359.24C241.703 359.24 243.763 357.26 243.763 354.66C243.763 351.82 241.623 350.36 239.223 350.36C237.763 350.36 236.423 351.16 235.803 352.06C235.783 351.98 235.783 351.88 235.783 351.78C235.783 349.66 237.103 347.92 239.123 347.92C240.303 347.92 241.063 348.3 241.783 348.98L243.063 346.84C242.103 346.02 240.743 345.46 239.123 345.46C235.183 345.46 232.903 348.32 232.903 352.36ZM240.883 354.78C240.883 355.72 240.063 356.76 238.523 356.76C236.643 356.76 235.923 355.28 235.803 354C236.443 353.22 237.403 352.72 238.403 352.72C239.703 352.72 240.883 353.34 240.883 354.78ZM244.911 348.82C244.911 350.68 246.251 352.1 248.291 352.1C250.351 352.1 251.691 350.68 251.691 348.82C251.691 346.94 250.351 345.46 248.291 345.46C246.251 345.46 244.911 346.94 244.911 348.82ZM248.491 359L257.031 345.66H255.511L246.991 359H248.491ZM249.871 348.82C249.871 349.86 249.211 350.54 248.291 350.54C247.391 350.54 246.711 349.86 246.711 348.82C246.711 347.7 247.391 347.04 248.291 347.04C249.211 347.04 249.871 347.7 249.871 348.82ZM252.251 355.94C252.251 357.8 253.591 359.24 255.631 359.24C257.671 359.24 259.031 357.8 259.031 355.94C259.031 354.06 257.671 352.58 255.631 352.58C253.591 352.58 252.251 354.06 252.251 355.94ZM257.231 355.94C257.231 357.02 256.551 357.68 255.631 357.68C254.711 357.68 254.051 357.02 254.051 355.94C254.051 354.84 254.711 354.16 255.631 354.16C256.551 354.16 257.231 354.84 257.231 355.94Z" fill="#FCFCF3"/>
</g>
<g id="Group 432">
<path id="Rectangle 113" d="M0 384C0 377.373 5.37258 372 12 372H171.5C177.851 372 183 377.149 183 383.5C183 389.851 177.851 395 171.5 395H0V384Z" fill="#FCFCF3"/>
<path id="Ampliamento ZTL" d="M35.008 388L30.896 377.328H28.048L23.92 388H26.416L27.088 386.16H31.856L32.528 388H35.008ZM31.232 384.192H27.696L29.472 379.296L31.232 384.192ZM47.5775 388V382.416C47.5775 380.832 46.7295 380.08 45.3055 380.08C44.1215 380.08 43.0975 380.784 42.6495 381.488C42.3615 380.608 41.6415 380.08 40.5055 380.08C39.3215 380.08 38.2975 380.816 37.9775 381.28V380.272H35.9455V388H37.9775V382.8C38.2815 382.368 38.8735 381.888 39.5775 381.888C40.4095 381.888 40.7295 382.4 40.7295 383.12V388H42.7775V382.784C43.0655 382.368 43.6575 381.888 44.3775 381.888C45.2095 381.888 45.5295 382.4 45.5295 383.12V388H47.5775ZM51.6025 387.008C52.2265 387.808 53.0745 388.192 53.9865 388.192C55.9705 388.192 57.4105 386.704 57.4105 384.128C57.4105 381.552 55.9705 380.08 53.9865 380.08C53.0425 380.08 52.1945 380.496 51.6025 381.248V380.272H49.5705V390.944H51.6025V387.008ZM55.2985 384.128C55.2985 385.472 54.5145 386.384 53.3465 386.384C52.6905 386.384 51.9385 385.984 51.6025 385.504V382.768C51.9385 382.272 52.6905 381.888 53.3465 381.888C54.5145 381.888 55.2985 382.8 55.2985 384.128ZM60.9619 388V377.328H58.9299V388H60.9619ZM63.9848 379.136C64.6568 379.136 65.2008 378.592 65.2008 377.92C65.2008 377.248 64.6568 376.704 63.9848 376.704C63.3288 376.704 62.7688 377.248 62.7688 377.92C62.7688 378.592 63.3288 379.136 63.9848 379.136ZM65.0088 388V380.272H62.9768V388H65.0088ZM73.6956 388V383.008C73.6956 380.784 72.0796 380.08 70.3196 380.08C69.1036 380.08 67.8876 380.464 66.9436 381.296L67.7116 382.656C68.3676 382.048 69.1356 381.744 69.9676 381.744C70.9916 381.744 71.6636 382.256 71.6636 383.04V384.112C71.1516 383.488 70.2396 383.168 69.2156 383.168C67.9836 383.168 66.5276 383.824 66.5276 385.632C66.5276 387.36 67.9836 388.192 69.2156 388.192C70.2236 388.192 71.1356 387.824 71.6636 387.2V388H73.6956ZM71.6636 386.144C71.3276 386.592 70.6876 386.816 70.0316 386.816C69.2316 386.816 68.5756 386.4 68.5756 385.68C68.5756 384.944 69.2316 384.512 70.0316 384.512C70.6876 384.512 71.3276 384.736 71.6636 385.184V386.144ZM87.3431 388V382.416C87.3431 380.832 86.4951 380.08 85.0711 380.08C83.8871 380.08 82.8631 380.784 82.4151 381.488C82.1271 380.608 81.4071 380.08 80.2711 380.08C79.0871 380.08 78.0631 380.816 77.7431 381.28V380.272H75.7111V388H77.7431V382.8C78.0471 382.368 78.6391 381.888 79.3431 381.888C80.1751 381.888 80.4951 382.4 80.4951 383.12V388H82.5431V382.784C82.8311 382.368 83.4231 381.888 84.1431 381.888C84.9751 381.888 85.2951 382.4 85.2951 383.12V388H87.3431ZM88.8401 384.128C88.8401 386.608 90.6161 388.192 92.9681 388.192C94.1681 388.192 95.3681 387.84 96.1521 387.12L95.2561 385.808C94.7601 386.288 93.9121 386.576 93.1921 386.576C91.8801 386.576 91.0961 385.76 90.9681 384.784H96.7121V384.336C96.7121 381.808 95.1441 380.08 92.8401 380.08C90.4881 380.08 88.8401 381.888 88.8401 384.128ZM92.8401 381.696C94.1841 381.696 94.6961 382.672 94.7441 383.408H90.9361C91.0321 382.64 91.5761 381.696 92.8401 381.696ZM105.428 388V382.544C105.428 381.04 104.612 380.08 102.916 380.08C101.652 380.08 100.708 380.688 100.212 381.28V380.272H98.1799V388H100.212V382.8C100.548 382.336 101.172 381.888 101.972 381.888C102.836 381.888 103.396 382.256 103.396 383.328V388H105.428ZM110.038 388.192C110.886 388.192 111.43 387.968 111.734 387.696L111.302 386.16C111.19 386.272 110.902 386.384 110.598 386.384C110.15 386.384 109.894 386.016 109.894 385.536V382.048H111.462V380.272H109.894V378.16H107.846V380.272H106.566V382.048H107.846V386.08C107.846 387.456 108.614 388.192 110.038 388.192ZM116.436 388.192C118.996 388.192 120.532 386.336 120.532 384.128C120.532 381.936 118.996 380.08 116.436 380.08C113.892 380.08 112.356 381.936 112.356 384.128C112.356 386.336 113.892 388.192 116.436 388.192ZM116.436 386.384C115.172 386.384 114.468 385.344 114.468 384.128C114.468 382.928 115.172 381.888 116.436 381.888C117.7 381.888 118.42 382.928 118.42 384.128C118.42 385.344 117.7 386.384 116.436 386.384ZM133.925 388V386H128.773L133.813 379.152V377.328H125.797V379.328H130.837L125.797 386.16V388H133.925ZM140.402 388V379.328H143.506V377.328H134.994V379.328H138.114V388H140.402ZM151.746 388V386H147.234V377.328H144.962V388H151.746Z" fill="#387267"/>
<path id="14%" d="M205.9 390V376.66H203.42L199.22 380.88L200.84 382.58L203.04 380.32V390H205.9ZM216.943 390V387.24H218.663V384.74H216.943V376.66H213.023L207.723 385V387.24H214.103V390H216.943ZM214.103 384.74H210.503L214.103 379.18V384.74ZM219.676 379.82C219.676 381.68 221.016 383.1 223.056 383.1C225.116 383.1 226.456 381.68 226.456 379.82C226.456 377.94 225.116 376.46 223.056 376.46C221.016 376.46 219.676 377.94 219.676 379.82ZM223.256 390L231.796 376.66H230.276L221.756 390H223.256ZM224.636 379.82C224.636 380.86 223.976 381.54 223.056 381.54C222.156 381.54 221.476 380.86 221.476 379.82C221.476 378.7 222.156 378.04 223.056 378.04C223.976 378.04 224.636 378.7 224.636 379.82ZM227.016 386.94C227.016 388.8 228.356 390.24 230.396 390.24C232.436 390.24 233.796 388.8 233.796 386.94C233.796 385.06 232.436 383.58 230.396 383.58C228.356 383.58 227.016 385.06 227.016 386.94ZM231.996 386.94C231.996 388.02 231.316 388.68 230.396 388.68C229.476 388.68 228.816 388.02 228.816 386.94C228.816 385.84 229.476 385.16 230.396 385.16C231.316 385.16 231.996 385.84 231.996 386.94Z" fill="#FCFCF3"/>
</g>
<g id="Group 433">
<path id="Rectangle 114" d="M0 415C0 408.373 5.37258 403 12 403H118.5C124.851 403 130 408.149 130 414.5C130 420.851 124.851 426 118.5 426H0V415Z" fill="#FCFCF3"/>
<path id="Car sharing" d="M30.144 419.192C32.576 419.192 33.92 417.896 34.688 416.568L32.736 415.624C32.288 416.504 31.328 417.176 30.144 417.176C28.288 417.176 26.88 415.688 26.88 413.672C26.88 411.656 28.288 410.168 30.144 410.168C31.328 410.168 32.288 410.856 32.736 411.72L34.688 410.76C33.936 409.432 32.576 408.152 30.144 408.152C27.024 408.152 24.544 410.392 24.544 413.672C24.544 416.952 27.024 419.192 30.144 419.192ZM42.6644 419V414.008C42.6644 411.784 41.0484 411.08 39.2884 411.08C38.0724 411.08 36.8564 411.464 35.9124 412.296L36.6804 413.656C37.3364 413.048 38.1044 412.744 38.9364 412.744C39.9604 412.744 40.6324 413.256 40.6324 414.04V415.112C40.1204 414.488 39.2084 414.168 38.1844 414.168C36.9524 414.168 35.4964 414.824 35.4964 416.632C35.4964 418.36 36.9524 419.192 38.1844 419.192C39.1924 419.192 40.1044 418.824 40.6324 418.2V419H42.6644ZM40.6324 417.144C40.2964 417.592 39.6564 417.816 39.0004 417.816C38.2004 417.816 37.5444 417.4 37.5444 416.68C37.5444 415.944 38.2004 415.512 39.0004 415.512C39.6564 415.512 40.2964 415.736 40.6324 416.184V417.144ZM46.7119 419V413.896C47.0479 413.4 47.9439 413.032 48.6159 413.032C48.8399 413.032 49.0319 413.048 49.1759 413.08V411.096C48.2159 411.096 47.2559 411.64 46.7119 412.328V411.272H44.6799V419H46.7119ZM53.8673 417.992C54.6833 418.744 55.9793 419.192 57.3233 419.192C59.4673 419.192 60.6673 418.136 60.6673 416.712C60.6673 414.792 58.8913 414.44 57.5633 414.184C56.6993 414.008 56.0913 413.832 56.0913 413.352C56.0913 412.904 56.5713 412.632 57.3073 412.632C58.2513 412.632 59.1313 413.032 59.5953 413.528L60.3953 412.136C59.6433 411.528 58.6033 411.08 57.2913 411.08C55.2593 411.08 54.1233 412.216 54.1233 413.512C54.1233 415.352 55.8353 415.672 57.1633 415.928C58.0433 416.104 58.7153 416.296 58.7153 416.84C58.7153 417.32 58.2993 417.624 57.4193 417.624C56.4593 417.624 55.3073 417.096 54.7473 416.568L53.8673 417.992ZM69.4283 419V413.512C69.4283 412.008 68.6123 411.08 66.9163 411.08C65.6523 411.08 64.6923 411.688 64.1963 412.28V408.328H62.1643V419H64.1963V413.8C64.5483 413.336 65.1723 412.888 65.9563 412.888C66.8363 412.888 67.3963 413.224 67.3963 414.296V419H69.4283ZM78.1175 419V414.008C78.1175 411.784 76.5015 411.08 74.7415 411.08C73.5255 411.08 72.3095 411.464 71.3655 412.296L72.1335 413.656C72.7895 413.048 73.5575 412.744 74.3895 412.744C75.4135 412.744 76.0855 413.256 76.0855 414.04V415.112C75.5735 414.488 74.6615 414.168 73.6375 414.168C72.4055 414.168 70.9495 414.824 70.9495 416.632C70.9495 418.36 72.4055 419.192 73.6375 419.192C74.6455 419.192 75.5575 418.824 76.0855 418.2V419H78.1175ZM76.0855 417.144C75.7495 417.592 75.1095 417.816 74.4535 417.816C73.6535 417.816 72.9975 417.4 72.9975 416.68C72.9975 415.944 73.6535 415.512 74.4535 415.512C75.1095 415.512 75.7495 415.736 76.0855 416.184V417.144ZM82.165 419V413.896C82.501 413.4 83.397 413.032 84.069 413.032C84.293 413.032 84.485 413.048 84.629 413.08V411.096C83.669 411.096 82.709 411.64 82.165 412.328V411.272H80.133V419H82.165ZM86.9066 410.136C87.5786 410.136 88.1226 409.592 88.1226 408.92C88.1226 408.248 87.5786 407.704 86.9066 407.704C86.2506 407.704 85.6906 408.248 85.6906 408.92C85.6906 409.592 86.2506 410.136 86.9066 410.136ZM87.9306 419V411.272H85.8986V419H87.9306ZM97.1935 419V413.544C97.1935 412.04 96.3775 411.08 94.6815 411.08C93.4175 411.08 92.4735 411.688 91.9775 412.28V411.272H89.9455V419H91.9775V413.8C92.3135 413.336 92.9375 412.888 93.7375 412.888C94.6015 412.888 95.1615 413.256 95.1615 414.328V419H97.1935ZM99.0511 420.984C100.011 421.832 101.051 422.136 102.379 422.136C104.283 422.136 106.555 421.416 106.555 418.472V411.272H104.507V412.264C103.883 411.48 103.051 411.08 102.123 411.08C100.171 411.08 98.7151 412.488 98.7151 415.016C98.7151 417.592 100.187 418.952 102.123 418.952C103.067 418.952 103.899 418.504 104.507 417.736V418.52C104.507 420.04 103.355 420.472 102.379 420.472C101.403 420.472 100.587 420.2 99.9631 419.512L99.0511 420.984ZM104.507 416.264C104.171 416.76 103.435 417.144 102.763 417.144C101.611 417.144 100.811 416.344 100.811 415.016C100.811 413.688 101.611 412.888 102.763 412.888C103.435 412.888 104.171 413.256 104.507 413.768V416.264Z" fill="#387267"/>
<path id="10%" d="M152.9 421V407.66H150.42L146.22 411.88L147.84 413.58L150.04 411.32V421H152.9ZM154.903 414.34C154.903 417.78 156.603 421.24 160.423 421.24C164.223 421.24 165.943 417.78 165.943 414.34C165.943 410.9 164.223 407.46 160.423 407.46C156.603 407.46 154.903 410.9 154.903 414.34ZM163.043 414.34C163.043 416.8 162.323 418.72 160.423 418.72C158.503 418.72 157.783 416.8 157.783 414.34C157.783 411.88 158.503 409.98 160.423 409.98C162.323 409.98 163.043 411.88 163.043 414.34ZM167.145 410.82C167.145 412.68 168.485 414.1 170.525 414.1C172.585 414.1 173.925 412.68 173.925 410.82C173.925 408.94 172.585 407.46 170.525 407.46C168.485 407.46 167.145 408.94 167.145 410.82ZM170.725 421L179.265 407.66H177.745L169.225 421H170.725ZM172.105 410.82C172.105 411.86 171.445 412.54 170.525 412.54C169.625 412.54 168.945 411.86 168.945 410.82C168.945 409.7 169.625 409.04 170.525 409.04C171.445 409.04 172.105 409.7 172.105 410.82ZM174.485 417.94C174.485 419.8 175.825 421.24 177.865 421.24C179.905 421.24 181.265 419.8 181.265 417.94C181.265 416.06 179.905 414.58 177.865 414.58C175.825 414.58 174.485 416.06 174.485 417.94ZM179.465 417.94C179.465 419.02 178.785 419.68 177.865 419.68C176.945 419.68 176.285 419.02 176.285 417.94C176.285 416.84 176.945 416.16 177.865 416.16C178.785 416.16 179.465 416.84 179.465 417.94Z" fill="#FCFCF3"/>
</g>
<g id="Group 425">
<g id="Group 421">
<path id="Rectangle 104" d="M0 105C0 98.3726 5.37258 93 12 93H379.5C385.851 93 391 98.1487 391 104.5C391 110.851 385.851 116 379.5 116H0V105Z" fill="#FCFCF3"/>
<path id="Nuovi parcheggi" d="M34.608 109V98.328H32.336V105.24L27.392 98.328H25.056V109H27.328V101.832L32.416 109H34.608ZM43.9123 109V101.272H41.8803V106.504C41.5283 106.952 40.9043 107.384 40.1203 107.384C39.2563 107.384 38.6963 107.032 38.6963 105.96V101.272H36.6643V106.76C36.6643 108.264 37.4643 109.192 39.1603 109.192C40.4243 109.192 41.3523 108.616 41.8803 108.024V109H43.9123ZM49.5139 109.192C52.0739 109.192 53.6099 107.336 53.6099 105.128C53.6099 102.936 52.0739 101.08 49.5139 101.08C46.9699 101.08 45.4339 102.936 45.4339 105.128C45.4339 107.336 46.9699 109.192 49.5139 109.192ZM49.5139 107.384C48.2499 107.384 47.5459 106.344 47.5459 105.128C47.5459 103.928 48.2499 102.888 49.5139 102.888C50.7779 102.888 51.4979 103.928 51.4979 105.128C51.4979 106.344 50.7779 107.384 49.5139 107.384ZM59.3094 109L62.4134 101.272H60.2214L58.2054 106.648L56.1894 101.272H54.0134L57.1174 109H59.3094ZM64.3285 100.136C65.0005 100.136 65.5445 99.592 65.5445 98.92C65.5445 98.248 65.0005 97.704 64.3285 97.704C63.6725 97.704 63.1125 98.248 63.1125 98.92C63.1125 99.592 63.6725 100.136 64.3285 100.136ZM65.3525 109V101.272H63.3205V109H65.3525ZM73.4931 108.008C74.1171 108.808 74.9651 109.192 75.8771 109.192C77.8611 109.192 79.3011 107.704 79.3011 105.128C79.3011 102.552 77.8611 101.08 75.8771 101.08C74.9331 101.08 74.0851 101.496 73.4931 102.248V101.272H71.4611V111.944H73.4931V108.008ZM77.1891 105.128C77.1891 106.472 76.4051 107.384 75.2371 107.384C74.5811 107.384 73.8291 106.984 73.4931 106.504V103.768C73.8291 103.272 74.5811 102.888 75.2371 102.888C76.4051 102.888 77.1891 103.8 77.1891 105.128ZM87.4925 109V104.008C87.4925 101.784 85.8765 101.08 84.1165 101.08C82.9005 101.08 81.6845 101.464 80.7405 102.296L81.5085 103.656C82.1645 103.048 82.9325 102.744 83.7645 102.744C84.7885 102.744 85.4605 103.256 85.4605 104.04V105.112C84.9485 104.488 84.0365 104.168 83.0125 104.168C81.7805 104.168 80.3245 104.824 80.3245 106.632C80.3245 108.36 81.7805 109.192 83.0125 109.192C84.0205 109.192 84.9325 108.824 85.4605 108.2V109H87.4925ZM85.4605 107.144C85.1245 107.592 84.4845 107.816 83.8285 107.816C83.0285 107.816 82.3725 107.4 82.3725 106.68C82.3725 105.944 83.0285 105.512 83.8285 105.512C84.4845 105.512 85.1245 105.736 85.4605 106.184V107.144ZM91.54 109V103.896C91.876 103.4 92.772 103.032 93.444 103.032C93.668 103.032 93.86 103.048 94.004 103.08V101.096C93.044 101.096 92.084 101.64 91.54 102.328V101.272H89.508V109H91.54ZM94.7776 105.128C94.7776 107.512 96.4896 109.192 98.8736 109.192C100.458 109.192 101.418 108.504 101.93 107.784L100.602 106.552C100.234 107.064 99.6736 107.384 98.9696 107.384C97.7376 107.384 96.8736 106.472 96.8736 105.128C96.8736 103.784 97.7376 102.888 98.9696 102.888C99.6736 102.888 100.234 103.192 100.602 103.72L101.93 102.488C101.418 101.768 100.458 101.08 98.8736 101.08C96.4896 101.08 94.7776 102.76 94.7776 105.128ZM110.522 109V103.512C110.522 102.008 109.706 101.08 108.01 101.08C106.746 101.08 105.786 101.688 105.29 102.28V98.328H103.258V109H105.29V103.8C105.642 103.336 106.266 102.888 107.05 102.888C107.93 102.888 108.49 103.224 108.49 104.296V109H110.522ZM112.043 105.128C112.043 107.608 113.819 109.192 116.171 109.192C117.371 109.192 118.571 108.84 119.355 108.12L118.459 106.808C117.963 107.288 117.115 107.576 116.395 107.576C115.083 107.576 114.299 106.76 114.171 105.784H119.915V105.336C119.915 102.808 118.347 101.08 116.043 101.08C113.691 101.08 112.043 102.888 112.043 105.128ZM116.043 102.696C117.387 102.696 117.899 103.672 117.947 104.408H114.139C114.235 103.64 114.779 102.696 116.043 102.696ZM121.223 110.984C122.183 111.832 123.223 112.136 124.551 112.136C126.455 112.136 128.727 111.416 128.727 108.472V101.272H126.679V102.264C126.055 101.48 125.223 101.08 124.295 101.08C122.343 101.08 120.887 102.488 120.887 105.016C120.887 107.592 122.359 108.952 124.295 108.952C125.239 108.952 126.071 108.504 126.679 107.736V108.52C126.679 110.04 125.527 110.472 124.551 110.472C123.575 110.472 122.759 110.2 122.135 109.512L121.223 110.984ZM126.679 106.264C126.343 106.76 125.607 107.144 124.935 107.144C123.783 107.144 122.983 106.344 122.983 105.016C122.983 103.688 123.783 102.888 124.935 102.888C125.607 102.888 126.343 103.256 126.679 103.768V106.264ZM130.582 110.984C131.542 111.832 132.582 112.136 133.91 112.136C135.814 112.136 138.086 111.416 138.086 108.472V101.272H136.038V102.264C135.414 101.48 134.582 101.08 133.654 101.08C131.702 101.08 130.246 102.488 130.246 105.016C130.246 107.592 131.718 108.952 133.654 108.952C134.598 108.952 135.43 108.504 136.038 107.736V108.52C136.038 110.04 134.886 110.472 133.91 110.472C132.934 110.472 132.118 110.2 131.494 109.512L130.582 110.984ZM136.038 106.264C135.702 106.76 134.966 107.144 134.294 107.144C133.142 107.144 132.342 106.344 132.342 105.016C132.342 103.688 133.142 102.888 134.294 102.888C134.966 102.888 135.702 103.256 136.038 103.768V106.264ZM141.11 100.136C141.782 100.136 142.326 99.592 142.326 98.92C142.326 98.248 141.782 97.704 141.11 97.704C140.454 97.704 139.894 98.248 139.894 98.92C139.894 99.592 140.454 100.136 141.11 100.136ZM142.134 109V101.272H140.102V109H142.134Z" fill="#387267"/>
</g>
<g id="Group 422">
<path id="Rectangle 105" d="M0 136C0 129.373 5.37258 124 12 124H379.5C385.851 124 391 129.149 391 135.5C391 141.851 385.851 147 379.5 147H0V136Z" fill="#FCFCF3"/>
<path id="Energie rinnovabili" d="M32.608 140V138.032H27.328V135.552H32.496V133.6H27.328V131.28H32.608V129.328H25.056V140H32.608ZM41.5841 140V134.544C41.5841 133.04 40.7681 132.08 39.0721 132.08C37.8081 132.08 36.8641 132.688 36.3681 133.28V132.272H34.3361V140H36.3681V134.8C36.7041 134.336 37.3281 133.888 38.1281 133.888C38.9921 133.888 39.5521 134.256 39.5521 135.328V140H41.5841ZM43.1058 136.128C43.1058 138.608 44.8818 140.192 47.2338 140.192C48.4338 140.192 49.6338 139.84 50.4178 139.12L49.5218 137.808C49.0258 138.288 48.1778 138.576 47.4578 138.576C46.1458 138.576 45.3618 137.76 45.2338 136.784H50.9778V136.336C50.9778 133.808 49.4098 132.08 47.1058 132.08C44.7538 132.08 43.1058 133.888 43.1058 136.128ZM47.1058 133.696C48.4498 133.696 48.9618 134.672 49.0098 135.408H45.2018C45.2978 134.64 45.8418 133.696 47.1058 133.696ZM54.4775 140V134.896C54.8135 134.4 55.7095 134.032 56.3815 134.032C56.6055 134.032 56.7975 134.048 56.9415 134.08V132.096C55.9815 132.096 55.0215 132.64 54.4775 133.328V132.272H52.4455V140H54.4775ZM58.0511 141.984C59.0111 142.832 60.0511 143.136 61.3791 143.136C63.2831 143.136 65.5551 142.416 65.5551 139.472V132.272H63.5071V133.264C62.8831 132.48 62.0511 132.08 61.1231 132.08C59.1711 132.08 57.7151 133.488 57.7151 136.016C57.7151 138.592 59.1871 139.952 61.1231 139.952C62.0671 139.952 62.8991 139.504 63.5071 138.736V139.52C63.5071 141.04 62.3551 141.472 61.3791 141.472C60.4031 141.472 59.5871 141.2 58.9631 140.512L58.0511 141.984ZM63.5071 137.264C63.1711 137.76 62.4351 138.144 61.7631 138.144C60.6111 138.144 59.8111 137.344 59.8111 136.016C59.8111 134.688 60.6111 133.888 61.7631 133.888C62.4351 133.888 63.1711 134.256 63.5071 134.768V137.264ZM68.5785 131.136C69.2505 131.136 69.7945 130.592 69.7945 129.92C69.7945 129.248 69.2505 128.704 68.5785 128.704C67.9225 128.704 67.3625 129.248 67.3625 129.92C67.3625 130.592 67.9225 131.136 68.5785 131.136ZM69.6025 140V132.272H67.5705V140H69.6025ZM71.1214 136.128C71.1214 138.608 72.8974 140.192 75.2494 140.192C76.4494 140.192 77.6494 139.84 78.4334 139.12L77.5374 137.808C77.0414 138.288 76.1934 138.576 75.4734 138.576C74.1614 138.576 73.3774 137.76 73.2494 136.784H78.9934V136.336C78.9934 133.808 77.4254 132.08 75.1214 132.08C72.7694 132.08 71.1214 133.888 71.1214 136.128ZM75.1214 133.696C76.4654 133.696 76.9774 134.672 77.0254 135.408H73.2174C73.3134 134.64 73.8574 133.696 75.1214 133.696ZM86.5869 140V134.896C86.9229 134.4 87.8189 134.032 88.4909 134.032C88.7149 134.032 88.9069 134.048 89.0509 134.08V132.096C88.0909 132.096 87.1309 132.64 86.5869 133.328V132.272H84.5549V140H86.5869ZM91.3285 131.136C92.0005 131.136 92.5445 130.592 92.5445 129.92C92.5445 129.248 92.0005 128.704 91.3285 128.704C90.6725 128.704 90.1125 129.248 90.1125 129.92C90.1125 130.592 90.6725 131.136 91.3285 131.136ZM92.3525 140V132.272H90.3205V140H92.3525ZM101.615 140V134.544C101.615 133.04 100.799 132.08 99.1034 132.08C97.8394 132.08 96.8954 132.688 96.3994 133.28V132.272H94.3674V140H96.3994V134.8C96.7354 134.336 97.3594 133.888 98.1594 133.888C99.0234 133.888 99.5834 134.256 99.5834 135.328V140H101.615ZM110.881 140V134.544C110.881 133.04 110.065 132.08 108.369 132.08C107.105 132.08 106.161 132.688 105.665 133.28V132.272H103.633V140H105.665V134.8C106.001 134.336 106.625 133.888 107.425 133.888C108.289 133.888 108.849 134.256 108.849 135.328V140H110.881ZM116.483 140.192C119.043 140.192 120.579 138.336 120.579 136.128C120.579 133.936 119.043 132.08 116.483 132.08C113.939 132.08 112.403 133.936 112.403 136.128C112.403 138.336 113.939 140.192 116.483 140.192ZM116.483 138.384C115.219 138.384 114.515 137.344 114.515 136.128C114.515 134.928 115.219 133.888 116.483 133.888C117.747 133.888 118.467 134.928 118.467 136.128C118.467 137.344 117.747 138.384 116.483 138.384ZM126.278 140L129.382 132.272H127.19L125.174 137.648L123.158 132.272H120.982L124.086 140H126.278ZM136.961 140V135.008C136.961 132.784 135.345 132.08 133.585 132.08C132.369 132.08 131.153 132.464 130.209 133.296L130.977 134.656C131.633 134.048 132.401 133.744 133.233 133.744C134.257 133.744 134.929 134.256 134.929 135.04V136.112C134.417 135.488 133.505 135.168 132.481 135.168C131.249 135.168 129.793 135.824 129.793 137.632C129.793 139.36 131.249 140.192 132.481 140.192C133.489 140.192 134.401 139.824 134.929 139.2V140H136.961ZM134.929 138.144C134.593 138.592 133.953 138.816 133.297 138.816C132.497 138.816 131.841 138.4 131.841 137.68C131.841 136.944 132.497 136.512 133.297 136.512C133.953 136.512 134.593 136.736 134.929 137.184V138.144ZM141.009 140V139.024C141.617 139.776 142.465 140.192 143.393 140.192C145.345 140.192 146.817 138.72 146.817 136.144C146.817 133.616 145.361 132.08 143.393 132.08C142.481 132.08 141.617 132.48 141.009 133.264V129.328H138.977V140H141.009ZM141.009 134.784C141.345 134.272 142.097 133.888 142.753 133.888C143.937 133.888 144.721 134.8 144.721 136.144C144.721 137.488 143.937 138.384 142.753 138.384C142.097 138.384 141.345 138.016 141.009 137.52V134.784ZM149.36 131.136C150.032 131.136 150.576 130.592 150.576 129.92C150.576 129.248 150.032 128.704 149.36 128.704C148.704 128.704 148.144 129.248 148.144 129.92C148.144 130.592 148.704 131.136 149.36 131.136ZM150.384 140V132.272H148.352V140H150.384ZM154.431 140V129.328H152.399V140H154.431ZM157.454 131.136C158.126 131.136 158.67 130.592 158.67 129.92C158.67 129.248 158.126 128.704 157.454 128.704C156.798 128.704 156.238 129.248 156.238 129.92C156.238 130.592 156.798 131.136 157.454 131.136ZM158.478 140V132.272H156.446V140H158.478Z" fill="#387267"/>
</g>
<g id="Group 423">
<path id="Rectangle 106" d="M0 167C0 160.373 5.37258 155 12 155H379.5C385.851 155 391 160.149 391 166.5C391 172.851 385.851 178 379.5 178H0V167Z" fill="#FCFCF3"/>
<path id="Piste ciclabili" d="M27.328 171V167.176H30.048C32.352 167.176 33.632 165.624 33.632 163.768C33.632 161.896 32.368 160.328 30.048 160.328H25.056V171H27.328ZM31.312 163.752C31.312 164.648 30.64 165.224 29.744 165.224H27.328V162.28H29.744C30.64 162.28 31.312 162.872 31.312 163.752ZM36.0004 162.136C36.6724 162.136 37.2164 161.592 37.2164 160.92C37.2164 160.248 36.6724 159.704 36.0004 159.704C35.3444 159.704 34.7844 160.248 34.7844 160.92C34.7844 161.592 35.3444 162.136 36.0004 162.136ZM37.0244 171V163.272H34.9924V171H37.0244ZM38.3673 169.992C39.1833 170.744 40.4793 171.192 41.8233 171.192C43.9673 171.192 45.1673 170.136 45.1673 168.712C45.1673 166.792 43.3913 166.44 42.0633 166.184C41.1993 166.008 40.5913 165.832 40.5913 165.352C40.5913 164.904 41.0713 164.632 41.8073 164.632C42.7513 164.632 43.6313 165.032 44.0953 165.528L44.8953 164.136C44.1433 163.528 43.1033 163.08 41.7913 163.08C39.7593 163.08 38.6233 164.216 38.6233 165.512C38.6233 167.352 40.3353 167.672 41.6633 167.928C42.5433 168.104 43.2153 168.296 43.2153 168.84C43.2153 169.32 42.7993 169.624 41.9193 169.624C40.9593 169.624 39.8073 169.096 39.2473 168.568L38.3673 169.992ZM49.2563 171.192C50.1043 171.192 50.6483 170.968 50.9523 170.696L50.5203 169.16C50.4083 169.272 50.1203 169.384 49.8163 169.384C49.3683 169.384 49.1123 169.016 49.1123 168.536V165.048H50.6803V163.272H49.1123V161.16H47.0643V163.272H45.7843V165.048H47.0643V169.08C47.0643 170.456 47.8323 171.192 49.2563 171.192ZM51.5745 167.128C51.5745 169.608 53.3505 171.192 55.7025 171.192C56.9025 171.192 58.1025 170.84 58.8865 170.12L57.9905 168.808C57.4945 169.288 56.6465 169.576 55.9265 169.576C54.6145 169.576 53.8305 168.76 53.7025 167.784H59.4465V167.336C59.4465 164.808 57.8785 163.08 55.5745 163.08C53.2225 163.08 51.5745 164.888 51.5745 167.128ZM55.5745 164.696C56.9185 164.696 57.4305 165.672 57.4785 166.408H53.6705C53.7665 165.64 54.3105 164.696 55.5745 164.696ZM64.512 167.128C64.512 169.512 66.224 171.192 68.608 171.192C70.192 171.192 71.152 170.504 71.664 169.784L70.336 168.552C69.968 169.064 69.408 169.384 68.704 169.384C67.472 169.384 66.608 168.472 66.608 167.128C66.608 165.784 67.472 164.888 68.704 164.888C69.408 164.888 69.968 165.192 70.336 165.72L71.664 164.488C71.152 163.768 70.192 163.08 68.608 163.08C66.224 163.08 64.512 164.76 64.512 167.128ZM74.0004 162.136C74.6724 162.136 75.2164 161.592 75.2164 160.92C75.2164 160.248 74.6724 159.704 74.0004 159.704C73.3444 159.704 72.7844 160.248 72.7844 160.92C72.7844 161.592 73.3444 162.136 74.0004 162.136ZM75.0244 171V163.272H72.9924V171H75.0244ZM76.5433 167.128C76.5433 169.512 78.2553 171.192 80.6393 171.192C82.2233 171.192 83.1833 170.504 83.6953 169.784L82.3673 168.552C81.9993 169.064 81.4393 169.384 80.7352 169.384C79.5033 169.384 78.6393 168.472 78.6393 167.128C78.6393 165.784 79.5033 164.888 80.7352 164.888C81.4393 164.888 81.9993 165.192 82.3673 165.72L83.6953 164.488C83.1833 163.768 82.2233 163.08 80.6393 163.08C78.2553 163.08 76.5433 164.76 76.5433 167.128ZM87.0556 171V160.328H85.0236V171H87.0556ZM95.7425 171V166.008C95.7425 163.784 94.1265 163.08 92.3665 163.08C91.1505 163.08 89.9345 163.464 88.9905 164.296L89.7585 165.656C90.4145 165.048 91.1825 164.744 92.0145 164.744C93.0385 164.744 93.7105 165.256 93.7105 166.04V167.112C93.1985 166.488 92.2865 166.168 91.2625 166.168C90.0305 166.168 88.5745 166.824 88.5745 168.632C88.5745 170.36 90.0305 171.192 91.2625 171.192C92.2705 171.192 93.1825 170.824 93.7105 170.2V171H95.7425ZM93.7105 169.144C93.3745 169.592 92.7345 169.816 92.0785 169.816C91.2785 169.816 90.6225 169.4 90.6225 168.68C90.6225 167.944 91.2785 167.512 92.0785 167.512C92.7345 167.512 93.3745 167.736 93.7105 168.184V169.144ZM99.79 171V170.024C100.398 170.776 101.246 171.192 102.174 171.192C104.126 171.192 105.598 169.72 105.598 167.144C105.598 164.616 104.142 163.08 102.174 163.08C101.262 163.08 100.398 163.48 99.79 164.264V160.328H97.758V171H99.79ZM99.79 165.784C100.126 165.272 100.878 164.888 101.534 164.888C102.718 164.888 103.502 165.8 103.502 167.144C103.502 168.488 102.718 169.384 101.534 169.384C100.878 169.384 100.126 169.016 99.79 168.52V165.784ZM108.141 162.136C108.813 162.136 109.357 161.592 109.357 160.92C109.357 160.248 108.813 159.704 108.141 159.704C107.485 159.704 106.925 160.248 106.925 160.92C106.925 161.592 107.485 162.136 108.141 162.136ZM109.165 171V163.272H107.133V171H109.165ZM113.212 171V160.328H111.18V171H113.212ZM116.235 162.136C116.907 162.136 117.451 161.592 117.451 160.92C117.451 160.248 116.907 159.704 116.235 159.704C115.579 159.704 115.019 160.248 115.019 160.92C115.019 161.592 115.579 162.136 116.235 162.136ZM117.259 171V163.272H115.227V171H117.259Z" fill="#387267"/>
</g>
<g id="Group 424">
<path id="30%" d="M407.4 140.1C408.38 141.3 410.2 142.24 412.66 142.24C415.86 142.24 417.92 140.62 417.92 138.32C417.92 136.32 416.16 135.26 414.8 135.12C416.28 134.86 417.72 133.76 417.72 132.08C417.72 129.86 415.8 128.46 412.68 128.46C410.34 128.46 408.66 129.36 407.58 130.58L408.98 132.34C409.92 131.44 411.08 130.94 412.38 130.94C413.78 130.94 414.86 131.48 414.86 132.54C414.86 133.54 413.88 134.02 412.4 134.02C411.88 134.02 410.98 134.02 410.74 134V136.48C410.94 136.46 411.84 136.46 412.4 136.46C414.26 136.46 415.08 136.96 415.08 138.04C415.08 139.06 414.18 139.76 412.56 139.76C411.26 139.76 409.8 139.2 408.88 138.24L407.4 140.1ZM419.418 135.34C419.418 138.78 421.118 142.24 424.938 142.24C428.738 142.24 430.458 138.78 430.458 135.34C430.458 131.9 428.738 128.46 424.938 128.46C421.118 128.46 419.418 131.9 419.418 135.34ZM427.558 135.34C427.558 137.8 426.838 139.72 424.938 139.72C423.018 139.72 422.298 137.8 422.298 135.34C422.298 132.88 423.018 130.98 424.938 130.98C426.838 130.98 427.558 132.88 427.558 135.34ZM431.661 131.82C431.661 133.68 433.001 135.1 435.041 135.1C437.101 135.1 438.441 133.68 438.441 131.82C438.441 129.94 437.101 128.46 435.041 128.46C433.001 128.46 431.661 129.94 431.661 131.82ZM435.241 142L443.781 128.66H442.261L433.741 142H435.241ZM436.621 131.82C436.621 132.86 435.961 133.54 435.041 133.54C434.141 133.54 433.461 132.86 433.461 131.82C433.461 130.7 434.141 130.04 435.041 130.04C435.961 130.04 436.621 130.7 436.621 131.82ZM439.001 138.94C439.001 140.8 440.341 142.24 442.381 142.24C444.421 142.24 445.781 140.8 445.781 138.94C445.781 137.06 444.421 135.58 442.381 135.58C440.341 135.58 439.001 137.06 439.001 138.94ZM443.981 138.94C443.981 140.02 443.301 140.68 442.381 140.68C441.461 140.68 440.801 140.02 440.801 138.94C440.801 137.84 441.461 137.16 442.381 137.16C443.301 137.16 443.981 137.84 443.981 138.94Z" fill="#FCFCF3"/>
<g id="Group 376">
<path id="Vector 2" d="M408 105H423V117" stroke="#FCFCF3" stroke-width="2" stroke-linecap="round" stroke-linejoin="round"/>
</g>
<g id="Group 380">
<path id="Vector 2_2" d="M408 167H423V155" stroke="#FCFCF3" stroke-width="2" stroke-linecap="round" stroke-linejoin="round"/>
</g>
</g>
</g>
</g>
</svg>
