<svg width="483" height="429" viewBox="0 0 483 429" fill="none" xmlns="http://www.w3.org/2000/svg">
<g id="Group 457">
<g id="Group 434">
<path id="34" d="M459.4 16.1C460.38 17.3 462.2 18.24 464.66 18.24C467.86 18.24 469.92 16.62 469.92 14.32C469.92 12.32 468.16 11.26 466.8 11.12C468.28 10.86 469.72 9.76 469.72 8.08C469.72 5.86 467.8 4.46 464.68 4.46C462.34 4.46 460.66 5.36 459.58 6.58L460.98 8.34C461.92 7.44 463.08 6.94 464.38 6.94C465.78 6.94 466.86 7.48 466.86 8.54C466.86 9.54 465.88 10.02 464.4 10.02C463.88 10.02 462.98 10.02 462.74 10V12.48C462.94 12.46 463.84 12.46 464.4 12.46C466.26 12.46 467.08 12.96 467.08 14.04C467.08 15.06 466.18 15.76 464.56 15.76C463.26 15.76 461.8 15.2 460.88 14.24L459.4 16.1ZM480.458 18V15.24H482.178V12.74H480.458V4.66H476.538L471.238 13V15.24H477.618V18H480.458ZM477.618 12.74H474.018L477.618 7.18V12.74Z" fill="#FCFCF3"/>
<path id="Rectangle 116" d="M0 12C0 5.37258 5.37258 0 12 0H431.5C437.851 0 443 5.14873 443 11.5C443 17.8513 437.851 23 431.5 23H0V12Z" fill="#FCFCF3"/>
<path id="Territorio urbano" d="M29.808 16V7.328H32.912V5.328H24.4V7.328H27.52V16H29.808ZM32.262 12.128C32.262 14.608 34.038 16.192 36.39 16.192C37.59 16.192 38.79 15.84 39.574 15.12L38.678 13.808C38.182 14.288 37.334 14.576 36.614 14.576C35.302 14.576 34.518 13.76 34.39 12.784H40.134V12.336C40.134 9.808 38.566 8.08 36.262 8.08C33.91 8.08 32.262 9.888 32.262 12.128ZM36.262 9.696C37.606 9.696 38.118 10.672 38.166 11.408H34.358C34.454 10.64 34.998 9.696 36.262 9.696ZM43.6338 16V10.896C43.9698 10.4 44.8658 10.032 45.5378 10.032C45.7618 10.032 45.9538 10.048 46.0978 10.08V8.096C45.1378 8.096 44.1778 8.64 43.6338 9.328V8.272H41.6018V16H43.6338ZM49.3994 16V10.896C49.7354 10.4 50.6314 10.032 51.3034 10.032C51.5274 10.032 51.7194 10.048 51.8634 10.08V8.096C50.9034 8.096 49.9434 8.64 49.3994 9.328V8.272H47.3674V16H49.3994ZM54.141 7.136C54.813 7.136 55.357 6.592 55.357 5.92C55.357 5.248 54.813 4.704 54.141 4.704C53.485 4.704 52.925 5.248 52.925 5.92C52.925 6.592 53.485 7.136 54.141 7.136ZM55.165 16V8.272H53.133V16H55.165ZM59.7719 16.192C60.6199 16.192 61.1639 15.968 61.4679 15.696L61.0359 14.16C60.9239 14.272 60.6359 14.384 60.3319 14.384C59.8839 14.384 59.6279 14.016 59.6279 13.536V10.048H61.1959V8.272H59.6279V6.16H57.5799V8.272H56.2999V10.048H57.5799V14.08C57.5799 15.456 58.3479 16.192 59.7719 16.192ZM66.1701 16.192C68.7301 16.192 70.2661 14.336 70.2661 12.128C70.2661 9.936 68.7301 8.08 66.1701 8.08C63.6261 8.08 62.0901 9.936 62.0901 12.128C62.0901 14.336 63.6261 16.192 66.1701 16.192ZM66.1701 14.384C64.9061 14.384 64.2021 13.344 64.2021 12.128C64.2021 10.928 64.9061 9.888 66.1701 9.888C67.4341 9.888 68.1541 10.928 68.1541 12.128C68.1541 13.344 67.4341 14.384 66.1701 14.384ZM73.8056 16V10.896C74.1416 10.4 75.0376 10.032 75.7096 10.032C75.9336 10.032 76.1256 10.048 76.2696 10.08V8.096C75.3096 8.096 74.3496 8.64 73.8056 9.328V8.272H71.7736V16H73.8056ZM78.5473 7.136C79.2193 7.136 79.7633 6.592 79.7633 5.92C79.7633 5.248 79.2193 4.704 78.5473 4.704C77.8913 4.704 77.3313 5.248 77.3313 5.92C77.3313 6.592 77.8913 7.136 78.5473 7.136ZM79.5713 16V8.272H77.5393V16H79.5713ZM85.1701 16.192C87.7301 16.192 89.2661 14.336 89.2661 12.128C89.2661 9.936 87.7301 8.08 85.1701 8.08C82.6261 8.08 81.0901 9.936 81.0901 12.128C81.0901 14.336 82.6261 16.192 85.1701 16.192ZM85.1701 14.384C83.9061 14.384 83.2021 13.344 83.2021 12.128C83.2021 10.928 83.9061 9.888 85.1701 9.888C86.4341 9.888 87.1541 10.928 87.1541 12.128C87.1541 13.344 86.4341 14.384 85.1701 14.384ZM102.115 16V8.272H100.083V13.504C99.7314 13.952 99.1074 14.384 98.3234 14.384C97.4594 14.384 96.8994 14.032 96.8994 12.96V8.272H94.8674V13.76C94.8674 15.264 95.6674 16.192 97.3634 16.192C98.6274 16.192 99.5554 15.616 100.083 15.024V16H102.115ZM106.165 16V10.896C106.501 10.4 107.397 10.032 108.069 10.032C108.293 10.032 108.485 10.048 108.629 10.08V8.096C107.669 8.096 106.709 8.64 106.165 9.328V8.272H104.133V16H106.165ZM111.931 16V15.024C112.539 15.776 113.387 16.192 114.315 16.192C116.267 16.192 117.739 14.72 117.739 12.144C117.739 9.616 116.283 8.08 114.315 8.08C113.403 8.08 112.539 8.48 111.931 9.264V5.328H109.899V16H111.931ZM111.931 10.784C112.267 10.272 113.019 9.888 113.675 9.888C114.859 9.888 115.643 10.8 115.643 12.144C115.643 13.488 114.859 14.384 113.675 14.384C113.019 14.384 112.267 14.016 111.931 13.52V10.784ZM125.946 16V11.008C125.946 8.784 124.33 8.08 122.57 8.08C121.354 8.08 120.138 8.464 119.194 9.296L119.962 10.656C120.618 10.048 121.386 9.744 122.218 9.744C123.242 9.744 123.914 10.256 123.914 11.04V12.112C123.402 11.488 122.49 11.168 121.466 11.168C120.234 11.168 118.778 11.824 118.778 13.632C118.778 15.36 120.234 16.192 121.466 16.192C122.474 16.192 123.386 15.824 123.914 15.2V16H125.946ZM123.914 14.144C123.578 14.592 122.938 14.816 122.282 14.816C121.482 14.816 120.826 14.4 120.826 13.68C120.826 12.944 121.482 12.512 122.282 12.512C122.938 12.512 123.578 12.736 123.914 13.184V14.144ZM135.209 16V10.544C135.209 9.04 134.393 8.08 132.697 8.08C131.433 8.08 130.489 8.688 129.993 9.28V8.272H127.961V16H129.993V10.8C130.329 10.336 130.953 9.888 131.753 9.888C132.617 9.888 133.177 10.256 133.177 11.328V16H135.209ZM140.811 16.192C143.371 16.192 144.907 14.336 144.907 12.128C144.907 9.936 143.371 8.08 140.811 8.08C138.267 8.08 136.731 9.936 136.731 12.128C136.731 14.336 138.267 16.192 140.811 16.192ZM140.811 14.384C139.547 14.384 138.843 13.344 138.843 12.128C138.843 10.928 139.547 9.888 140.811 9.888C142.075 9.888 142.795 10.928 142.795 12.128C142.795 13.344 142.075 14.384 140.811 14.384Z" fill="#387267"/>
</g>
<g id="Group 435">
<path id="31" d="M420.4 61.1C421.38 62.3 423.2 63.24 425.66 63.24C428.86 63.24 430.92 61.62 430.92 59.32C430.92 57.32 429.16 56.26 427.8 56.12C429.28 55.86 430.72 54.76 430.72 53.08C430.72 50.86 428.8 49.46 425.68 49.46C423.34 49.46 421.66 50.36 420.58 51.58L421.98 53.34C422.92 52.44 424.08 51.94 425.38 51.94C426.78 51.94 427.86 52.48 427.86 53.54C427.86 54.54 426.88 55.02 425.4 55.02C424.88 55.02 423.98 55.02 423.74 55V57.48C423.94 57.46 424.84 57.46 425.4 57.46C427.26 57.46 428.08 57.96 428.08 59.04C428.08 60.06 427.18 60.76 425.56 60.76C424.26 60.76 422.8 60.2 421.88 59.24L420.4 61.1ZM438.638 63V49.66H436.158L431.958 53.88L433.578 55.58L435.778 53.32V63H438.638Z" fill="#FCFCF3"/>
<path id="Rectangle 118" d="M0 57C0 50.3726 5.37258 45 12 45H392.5C398.851 45 404 50.1487 404 56.5C404 62.8513 398.851 68 392.5 68H0V57Z" fill="#FCFCF3"/>
<path id="Slmatimento rifiuti" d="M24.32 59.496C25.328 60.504 26.8 61.192 28.848 61.192C31.728 61.192 33.12 59.72 33.12 57.768C33.12 55.4 30.88 54.872 29.12 54.472C27.888 54.184 26.992 53.96 26.992 53.24C26.992 52.6 27.536 52.152 28.56 52.152C29.6 52.152 30.752 52.52 31.616 53.32L32.88 51.656C31.824 50.68 30.416 50.168 28.72 50.168C26.208 50.168 24.672 51.608 24.672 53.384C24.672 55.768 26.912 56.248 28.656 56.648C29.888 56.936 30.816 57.208 30.816 58.008C30.816 58.616 30.208 59.208 28.96 59.208C27.488 59.208 26.32 58.552 25.568 57.768L24.32 59.496ZM36.6338 61V50.328H34.6018V61H36.6338ZM50.2806 61V55.416C50.2806 53.832 49.4326 53.08 48.0086 53.08C46.8246 53.08 45.8006 53.784 45.3526 54.488C45.0646 53.608 44.3446 53.08 43.2086 53.08C42.0246 53.08 41.0006 53.816 40.6806 54.28V53.272H38.6486V61H40.6806V55.8C40.9846 55.368 41.5766 54.888 42.2806 54.888C43.1126 54.888 43.4326 55.4 43.4326 56.12V61H45.4806V55.784C45.7686 55.368 46.3606 54.888 47.0806 54.888C47.9126 54.888 48.2326 55.4 48.2326 56.12V61H50.2806ZM58.9456 61V56.008C58.9456 53.784 57.3296 53.08 55.5696 53.08C54.3536 53.08 53.1376 53.464 52.1936 54.296L52.9616 55.656C53.6176 55.048 54.3856 54.744 55.2176 54.744C56.2416 54.744 56.9136 55.256 56.9136 56.04V57.112C56.4016 56.488 55.4896 56.168 54.4656 56.168C53.2336 56.168 51.7776 56.824 51.7776 58.632C51.7776 60.36 53.2336 61.192 54.4656 61.192C55.4736 61.192 56.3856 60.824 56.9136 60.2V61H58.9456ZM56.9136 59.144C56.5776 59.592 55.9376 59.816 55.2816 59.816C54.4816 59.816 53.8256 59.4 53.8256 58.68C53.8256 57.944 54.4816 57.512 55.2816 57.512C55.9376 57.512 56.5776 57.736 56.9136 58.184V59.144ZM63.5531 61.192C64.4011 61.192 64.9451 60.968 65.2491 60.696L64.8171 59.16C64.7051 59.272 64.4171 59.384 64.1131 59.384C63.6651 59.384 63.4091 59.016 63.4091 58.536V55.048H64.9771V53.272H63.4091V51.16H61.3611V53.272H60.0811V55.048H61.3611V59.08C61.3611 60.456 62.1291 61.192 63.5531 61.192ZM67.3754 52.136C68.0474 52.136 68.5914 51.592 68.5914 50.92C68.5914 50.248 68.0474 49.704 67.3754 49.704C66.7194 49.704 66.1594 50.248 66.1594 50.92C66.1594 51.592 66.7194 52.136 67.3754 52.136ZM68.3994 61V53.272H66.3674V61H68.3994ZM82.0463 61V55.416C82.0463 53.832 81.1983 53.08 79.7743 53.08C78.5903 53.08 77.5663 53.784 77.1183 54.488C76.8303 53.608 76.1103 53.08 74.9743 53.08C73.7903 53.08 72.7663 53.816 72.4463 54.28V53.272H70.4143V61H72.4463V55.8C72.7503 55.368 73.3423 54.888 74.0463 54.888C74.8783 54.888 75.1983 55.4 75.1983 56.12V61H77.2463V55.784C77.5343 55.368 78.1263 54.888 78.8463 54.888C79.6783 54.888 79.9983 55.4 79.9983 56.12V61H82.0463ZM83.5433 57.128C83.5433 59.608 85.3193 61.192 87.6713 61.192C88.8713 61.192 90.0713 60.84 90.8553 60.12L89.9593 58.808C89.4633 59.288 88.6153 59.576 87.8953 59.576C86.5833 59.576 85.7993 58.76 85.6713 57.784H91.4153V57.336C91.4153 54.808 89.8473 53.08 87.5433 53.08C85.1913 53.08 83.5433 54.888 83.5433 57.128ZM87.5433 54.696C88.8873 54.696 89.3993 55.672 89.4473 56.408H85.6393C85.7353 55.64 86.2793 54.696 87.5433 54.696ZM100.131 61V55.544C100.131 54.04 99.315 53.08 97.619 53.08C96.355 53.08 95.411 53.688 94.915 54.28V53.272H92.883V61H94.915V55.8C95.251 55.336 95.875 54.888 96.675 54.888C97.539 54.888 98.099 55.256 98.099 56.328V61H100.131ZM104.741 61.192C105.589 61.192 106.133 60.968 106.437 60.696L106.005 59.16C105.893 59.272 105.605 59.384 105.301 59.384C104.853 59.384 104.597 59.016 104.597 58.536V55.048H106.165V53.272H104.597V51.16H102.549V53.272H101.269V55.048H102.549V59.08C102.549 60.456 103.317 61.192 104.741 61.192ZM111.139 61.192C113.699 61.192 115.235 59.336 115.235 57.128C115.235 54.936 113.699 53.08 111.139 53.08C108.595 53.08 107.059 54.936 107.059 57.128C107.059 59.336 108.595 61.192 111.139 61.192ZM111.139 59.384C109.875 59.384 109.171 58.344 109.171 57.128C109.171 55.928 109.875 54.888 111.139 54.888C112.403 54.888 113.123 55.928 113.123 57.128C113.123 58.344 112.403 59.384 111.139 59.384ZM122.868 61V55.896C123.204 55.4 124.1 55.032 124.772 55.032C124.996 55.032 125.188 55.048 125.332 55.08V53.096C124.372 53.096 123.412 53.64 122.868 54.328V53.272H120.836V61H122.868ZM127.61 52.136C128.282 52.136 128.826 51.592 128.826 50.92C128.826 50.248 128.282 49.704 127.61 49.704C126.954 49.704 126.394 50.248 126.394 50.92C126.394 51.592 126.954 52.136 127.61 52.136ZM128.634 61V53.272H126.602V61H128.634ZM136.889 52.136C137.561 52.136 138.105 51.592 138.105 50.92C138.105 50.248 137.561 49.704 136.889 49.704C136.233 49.704 135.673 50.248 135.673 50.92C135.673 51.592 136.233 52.136 136.889 52.136ZM133.145 55.048H134.713V53.272H133.145V52.856C133.145 52.152 133.529 51.768 134.105 51.768C134.377 51.768 134.601 51.848 134.761 51.96L135.177 50.488C134.809 50.296 134.281 50.168 133.705 50.168C132.185 50.168 131.097 51.176 131.097 52.856V53.272H129.817V55.048H131.097V61H133.145V55.048ZM137.913 61V53.272H135.881V61H137.913ZM147.178 61V53.272H145.146V58.504C144.794 58.952 144.17 59.384 143.386 59.384C142.522 59.384 141.962 59.032 141.962 57.96V53.272H139.93V58.76C139.93 60.264 140.73 61.192 142.426 61.192C143.69 61.192 144.618 60.616 145.146 60.024V61H147.178ZM151.788 61.192C152.636 61.192 153.18 60.968 153.484 60.696L153.052 59.16C152.94 59.272 152.652 59.384 152.348 59.384C151.9 59.384 151.644 59.016 151.644 58.536V55.048H153.212V53.272H151.644V51.16H149.596V53.272H148.316V55.048H149.596V59.08C149.596 60.456 150.364 61.192 151.788 61.192ZM155.61 52.136C156.282 52.136 156.826 51.592 156.826 50.92C156.826 50.248 156.282 49.704 155.61 49.704C154.954 49.704 154.394 50.248 154.394 50.92C154.394 51.592 154.954 52.136 155.61 52.136ZM156.634 61V53.272H154.602V61H156.634Z" fill="#387267"/>
</g>
<g id="Group 436">
<path id="29" d="M404.98 108V105.5H399.42C403 102.98 404.88 101 404.88 98.72C404.88 96.06 402.62 94.46 399.78 94.46C397.92 94.46 395.94 95.14 394.64 96.64L396.26 98.52C397.16 97.58 398.32 96.98 399.82 96.98C400.94 96.98 402 97.56 402 98.72C402 100.36 400.4 101.74 394.94 105.76V108H404.98ZM407.332 106.84C408.272 107.68 409.632 108.22 411.252 108.22C415.192 108.22 417.452 105.36 417.452 101.34C417.452 97.56 415.752 94.44 411.712 94.44C408.672 94.44 406.592 96.42 406.592 99.02C406.592 101.86 408.752 103.34 411.152 103.34C412.612 103.34 413.952 102.52 414.592 101.62V101.9C414.592 103.92 413.392 105.74 411.252 105.74C410.072 105.74 409.312 105.38 408.592 104.72L407.332 106.84ZM414.552 99.7C413.932 100.48 412.952 100.94 411.952 100.94C410.672 100.94 409.492 100.32 409.492 98.9C409.492 97.96 410.312 96.9 411.832 96.9C413.732 96.9 414.452 98.42 414.552 99.7Z" fill="#FCFCF3"/>
<path id="Rectangle 120" d="M0 102C0 95.3726 5.37258 90 12 90H366.5C372.851 90 378 95.1487 378 101.5C378 107.851 372.851 113 366.5 113H0V102Z" fill="#FCFCF3"/>
<path id="Edilizia sostenibile" d="M32.608 106V104.032H27.328V101.552H32.496V99.6H27.328V97.28H32.608V95.328H25.056V106H32.608ZM41.6961 106V95.328H39.6481V99.264C39.0401 98.48 38.1761 98.08 37.2641 98.08C35.2961 98.08 33.8401 99.616 33.8401 102.144C33.8401 104.72 35.3121 106.192 37.2641 106.192C38.1921 106.192 39.0401 105.776 39.6481 105.024V106H41.6961ZM39.6481 103.504C39.2961 104.016 38.5761 104.384 37.8881 104.384C36.7361 104.384 35.9361 103.472 35.9361 102.144C35.9361 100.8 36.7361 99.888 37.8881 99.888C38.5761 99.888 39.2961 100.256 39.6481 100.768V103.504ZM44.7191 97.136C45.3911 97.136 45.9351 96.592 45.9351 95.92C45.9351 95.248 45.3911 94.704 44.7191 94.704C44.0631 94.704 43.5031 95.248 43.5031 95.92C43.5031 96.592 44.0631 97.136 44.7191 97.136ZM45.7431 106V98.272H43.7111V106H45.7431ZM49.79 106V95.328H47.758V106H49.79ZM52.8129 97.136C53.4849 97.136 54.0289 96.592 54.0289 95.92C54.0289 95.248 53.4849 94.704 52.8129 94.704C52.1569 94.704 51.5969 95.248 51.5969 95.92C51.5969 96.592 52.1569 97.136 52.8129 97.136ZM53.8369 106V98.272H51.8049V106H53.8369ZM61.8198 106V104.224H58.2198L61.7558 99.744V98.272H55.5158V100.048H59.0038L55.5158 104.48V106H61.8198ZM64.516 97.136C65.188 97.136 65.732 96.592 65.732 95.92C65.732 95.248 65.188 94.704 64.516 94.704C63.86 94.704 63.3 95.248 63.3 95.92C63.3 96.592 63.86 97.136 64.516 97.136ZM65.54 106V98.272H63.508V106H65.54ZM74.2269 106V101.008C74.2269 98.784 72.6109 98.08 70.8509 98.08C69.6349 98.08 68.4189 98.464 67.4749 99.296L68.2429 100.656C68.8989 100.048 69.6669 99.744 70.4989 99.744C71.5229 99.744 72.1949 100.256 72.1949 101.04V102.112C71.6829 101.488 70.7709 101.168 69.7469 101.168C68.5149 101.168 67.0589 101.824 67.0589 103.632C67.0589 105.36 68.5149 106.192 69.7469 106.192C70.7549 106.192 71.6669 105.824 72.1949 105.2V106H74.2269ZM72.1949 104.144C71.8589 104.592 71.2189 104.816 70.5629 104.816C69.7629 104.816 69.1069 104.4 69.1069 103.68C69.1069 102.944 69.7629 102.512 70.5629 102.512C71.2189 102.512 71.8589 102.736 72.1949 103.184V104.144ZM79.6641 104.992C80.4801 105.744 81.7761 106.192 83.1201 106.192C85.2641 106.192 86.4641 105.136 86.4641 103.712C86.4641 101.792 84.6881 101.44 83.3601 101.184C82.4961 101.008 81.8881 100.832 81.8881 100.352C81.8881 99.904 82.3681 99.632 83.1041 99.632C84.0481 99.632 84.9281 100.032 85.3921 100.528L86.1921 99.136C85.4401 98.528 84.4001 98.08 83.0881 98.08C81.0561 98.08 79.9201 99.216 79.9201 100.512C79.9201 102.352 81.6321 102.672 82.9601 102.928C83.8401 103.104 84.5121 103.296 84.5121 103.84C84.5121 104.32 84.0961 104.624 83.2161 104.624C82.2561 104.624 81.1041 104.096 80.5441 103.568L79.6641 104.992ZM91.5451 106.192C94.1051 106.192 95.6411 104.336 95.6411 102.128C95.6411 99.936 94.1051 98.08 91.5451 98.08C89.0011 98.08 87.4651 99.936 87.4651 102.128C87.4651 104.336 89.0011 106.192 91.5451 106.192ZM91.5451 104.384C90.2811 104.384 89.5771 103.344 89.5771 102.128C89.5771 100.928 90.2811 99.888 91.5451 99.888C92.8091 99.888 93.5291 100.928 93.5291 102.128C93.5291 103.344 92.8091 104.384 91.5451 104.384ZM96.4766 104.992C97.2926 105.744 98.5886 106.192 99.9326 106.192C102.077 106.192 103.277 105.136 103.277 103.712C103.277 101.792 101.501 101.44 100.173 101.184C99.3086 101.008 98.7006 100.832 98.7006 100.352C98.7006 99.904 99.1806 99.632 99.9166 99.632C100.861 99.632 101.741 100.032 102.205 100.528L103.005 99.136C102.253 98.528 101.213 98.08 99.9006 98.08C97.8686 98.08 96.7326 99.216 96.7326 100.512C96.7326 102.352 98.4446 102.672 99.7726 102.928C100.653 103.104 101.325 103.296 101.325 103.84C101.325 104.32 100.909 104.624 100.029 104.624C99.0686 104.624 97.9166 104.096 97.3566 103.568L96.4766 104.992ZM107.366 106.192C108.214 106.192 108.758 105.968 109.062 105.696L108.63 104.16C108.518 104.272 108.23 104.384 107.926 104.384C107.478 104.384 107.222 104.016 107.222 103.536V100.048H108.79V98.272H107.222V96.16H105.174V98.272H103.894V100.048H105.174V104.08C105.174 105.456 105.942 106.192 107.366 106.192ZM109.684 102.128C109.684 104.608 111.46 106.192 113.812 106.192C115.012 106.192 116.212 105.84 116.996 105.12L116.1 103.808C115.604 104.288 114.756 104.576 114.036 104.576C112.724 104.576 111.94 103.76 111.812 102.784H117.556V102.336C117.556 99.808 115.988 98.08 113.684 98.08C111.332 98.08 109.684 99.888 109.684 102.128ZM113.684 99.696C115.028 99.696 115.54 100.672 115.588 101.408H111.78C111.876 100.64 112.42 99.696 113.684 99.696ZM126.272 106V100.544C126.272 99.04 125.456 98.08 123.76 98.08C122.496 98.08 121.552 98.688 121.056 99.28V98.272H119.024V106H121.056V100.8C121.392 100.336 122.016 99.888 122.816 99.888C123.68 99.888 124.24 100.256 124.24 101.328V106H126.272ZM129.297 97.136C129.969 97.136 130.513 96.592 130.513 95.92C130.513 95.248 129.969 94.704 129.297 94.704C128.641 94.704 128.081 95.248 128.081 95.92C128.081 96.592 128.641 97.136 129.297 97.136ZM130.321 106V98.272H128.289V106H130.321ZM134.368 106V105.024C134.976 105.776 135.824 106.192 136.752 106.192C138.704 106.192 140.176 104.72 140.176 102.144C140.176 99.616 138.72 98.08 136.752 98.08C135.84 98.08 134.976 98.48 134.368 99.264V95.328H132.336V106H134.368ZM134.368 100.784C134.704 100.272 135.456 99.888 136.112 99.888C137.296 99.888 138.08 100.8 138.08 102.144C138.08 103.488 137.296 104.384 136.112 104.384C135.456 104.384 134.704 104.016 134.368 103.52V100.784ZM142.719 97.136C143.391 97.136 143.935 96.592 143.935 95.92C143.935 95.248 143.391 94.704 142.719 94.704C142.063 94.704 141.503 95.248 141.503 95.92C141.503 96.592 142.063 97.136 142.719 97.136ZM143.743 106V98.272H141.711V106H143.743ZM147.79 106V95.328H145.758V106H147.79ZM149.309 102.128C149.309 104.608 151.085 106.192 153.437 106.192C154.637 106.192 155.837 105.84 156.621 105.12L155.725 103.808C155.229 104.288 154.381 104.576 153.661 104.576C152.349 104.576 151.565 103.76 151.437 102.784H157.181V102.336C157.181 99.808 155.613 98.08 153.309 98.08C150.957 98.08 149.309 99.888 149.309 102.128ZM153.309 99.696C154.653 99.696 155.165 100.672 155.213 101.408H151.405C151.501 100.64 152.045 99.696 153.309 99.696Z" fill="#387267"/>
</g>
<g id="Group 442">
<path id="25" d="M352.98 288V285.5H347.42C351 282.98 352.88 281 352.88 278.72C352.88 276.06 350.62 274.46 347.78 274.46C345.92 274.46 343.94 275.14 342.64 276.64L344.26 278.52C345.16 277.58 346.32 276.98 347.82 276.98C348.94 276.98 350 277.56 350 278.72C350 280.36 348.4 281.74 342.94 285.76V288H352.98ZM354.972 286.24C356.112 287.48 357.792 288.24 360.112 288.24C363.332 288.24 365.452 286.46 365.452 283.64C365.452 280.94 363.432 279.34 361.172 279.34C359.952 279.34 358.872 279.82 358.172 280.44V277.1H364.552V274.66H355.392V282.28L357.372 282.82C358.172 282.06 359.072 281.72 360.172 281.72C361.692 281.72 362.572 282.54 362.572 283.76C362.572 284.86 361.672 285.76 360.092 285.76C358.692 285.76 357.452 285.26 356.532 284.32L354.972 286.24Z" fill="#FCFCF3"/>
<path id="Rectangle 124" d="M0 282C0 275.373 5.37258 270 12 270H314.5C320.851 270 326 275.149 326 281.5C326 287.851 320.851 293 314.5 293H0V282Z" fill="#FCFCF3"/>
<path id="Aziende energetiche" d="M35.008 286L30.896 275.328H28.048L23.92 286H26.416L27.088 284.16H31.856L32.528 286H35.008ZM31.232 282.192H27.696L29.472 277.296L31.232 282.192ZM41.9135 286V284.224H38.3135L41.8495 279.744V278.272H35.6095V280.048H39.0975L35.6095 284.48V286H41.9135ZM44.6098 277.136C45.2818 277.136 45.8258 276.592 45.8258 275.92C45.8258 275.248 45.2818 274.704 44.6098 274.704C43.9538 274.704 43.3938 275.248 43.3938 275.92C43.3938 276.592 43.9538 277.136 44.6098 277.136ZM45.6338 286V278.272H43.6018V286H45.6338ZM47.1526 282.128C47.1526 284.608 48.9286 286.192 51.2806 286.192C52.4806 286.192 53.6806 285.84 54.4646 285.12L53.5686 283.808C53.0726 284.288 52.2246 284.576 51.5046 284.576C50.1926 284.576 49.4086 283.76 49.2806 282.784H55.0246V282.336C55.0246 279.808 53.4566 278.08 51.1526 278.08C48.8006 278.08 47.1526 279.888 47.1526 282.128ZM51.1526 279.696C52.4966 279.696 53.0086 280.672 53.0566 281.408H49.2486C49.3446 280.64 49.8886 279.696 51.1526 279.696ZM63.7404 286V280.544C63.7404 279.04 62.9244 278.08 61.2284 278.08C59.9644 278.08 59.0204 278.688 58.5244 279.28V278.272H56.4924V286H58.5244V280.8C58.8604 280.336 59.4844 279.888 60.2844 279.888C61.1484 279.888 61.7084 280.256 61.7084 281.328V286H63.7404ZM73.118 286V275.328H71.07V279.264C70.462 278.48 69.598 278.08 68.686 278.08C66.718 278.08 65.262 279.616 65.262 282.144C65.262 284.72 66.734 286.192 68.686 286.192C69.614 286.192 70.462 285.776 71.07 285.024V286H73.118ZM71.07 283.504C70.718 284.016 69.998 284.384 69.31 284.384C68.158 284.384 67.358 283.472 67.358 282.144C67.358 280.8 68.158 279.888 69.31 279.888C69.998 279.888 70.718 280.256 71.07 280.768V283.504ZM74.637 282.128C74.637 284.608 76.413 286.192 78.765 286.192C79.965 286.192 81.165 285.84 81.949 285.12L81.053 283.808C80.557 284.288 79.709 284.576 78.989 284.576C77.677 284.576 76.893 283.76 76.765 282.784H82.509V282.336C82.509 279.808 80.941 278.08 78.637 278.08C76.285 278.08 74.637 279.888 74.637 282.128ZM78.637 279.696C79.981 279.696 80.493 280.672 80.541 281.408H76.733C76.829 280.64 77.373 279.696 78.637 279.696ZM87.5745 282.128C87.5745 284.608 89.3505 286.192 91.7025 286.192C92.9025 286.192 94.1025 285.84 94.8865 285.12L93.9905 283.808C93.4945 284.288 92.6465 284.576 91.9265 284.576C90.6145 284.576 89.8305 283.76 89.7025 282.784H95.4465V282.336C95.4465 279.808 93.8785 278.08 91.5745 278.08C89.2225 278.08 87.5745 279.888 87.5745 282.128ZM91.5745 279.696C92.9185 279.696 93.4305 280.672 93.4785 281.408H89.6705C89.7665 280.64 90.3105 279.696 91.5745 279.696ZM104.162 286V280.544C104.162 279.04 103.346 278.08 101.65 278.08C100.386 278.08 99.4423 278.688 98.9463 279.28V278.272H96.9143V286H98.9463V280.8C99.2823 280.336 99.9062 279.888 100.706 279.888C101.57 279.888 102.13 280.256 102.13 281.328V286H104.162ZM105.684 282.128C105.684 284.608 107.46 286.192 109.812 286.192C111.012 286.192 112.212 285.84 112.996 285.12L112.1 283.808C111.604 284.288 110.756 284.576 110.036 284.576C108.724 284.576 107.94 283.76 107.812 282.784H113.556V282.336C113.556 279.808 111.988 278.08 109.684 278.08C107.332 278.08 105.684 279.888 105.684 282.128ZM109.684 279.696C111.028 279.696 111.54 280.672 111.588 281.408H107.78C107.876 280.64 108.42 279.696 109.684 279.696ZM117.056 286V280.896C117.392 280.4 118.288 280.032 118.96 280.032C119.184 280.032 119.376 280.048 119.52 280.08V278.096C118.56 278.096 117.6 278.64 117.056 279.328V278.272H115.024V286H117.056ZM120.629 287.984C121.589 288.832 122.629 289.136 123.957 289.136C125.861 289.136 128.133 288.416 128.133 285.472V278.272H126.085V279.264C125.461 278.48 124.629 278.08 123.701 278.08C121.749 278.08 120.293 279.488 120.293 282.016C120.293 284.592 121.765 285.952 123.701 285.952C124.645 285.952 125.477 285.504 126.085 284.736V285.52C126.085 287.04 124.933 287.472 123.957 287.472C122.981 287.472 122.165 287.2 121.541 286.512L120.629 287.984ZM126.085 283.264C125.749 283.76 125.013 284.144 124.341 284.144C123.189 284.144 122.389 283.344 122.389 282.016C122.389 280.688 123.189 279.888 124.341 279.888C125.013 279.888 125.749 280.256 126.085 280.768V283.264ZM129.653 282.128C129.653 284.608 131.429 286.192 133.781 286.192C134.981 286.192 136.181 285.84 136.965 285.12L136.069 283.808C135.573 284.288 134.725 284.576 134.005 284.576C132.693 284.576 131.909 283.76 131.781 282.784H137.525V282.336C137.525 279.808 135.957 278.08 133.653 278.08C131.301 278.08 129.653 279.888 129.653 282.128ZM133.653 279.696C134.997 279.696 135.509 280.672 135.557 281.408H131.749C131.845 280.64 132.389 279.696 133.653 279.696ZM141.584 286.192C142.432 286.192 142.976 285.968 143.28 285.696L142.848 284.16C142.736 284.272 142.448 284.384 142.144 284.384C141.696 284.384 141.44 284.016 141.44 283.536V280.048H143.008V278.272H141.44V276.16H139.392V278.272H138.112V280.048H139.392V284.08C139.392 285.456 140.16 286.192 141.584 286.192ZM145.407 277.136C146.079 277.136 146.623 276.592 146.623 275.92C146.623 275.248 146.079 274.704 145.407 274.704C144.751 274.704 144.191 275.248 144.191 275.92C144.191 276.592 144.751 277.136 145.407 277.136ZM146.431 286V278.272H144.399V286H146.431ZM147.95 282.128C147.95 284.512 149.662 286.192 152.046 286.192C153.63 286.192 154.59 285.504 155.102 284.784L153.774 283.552C153.406 284.064 152.846 284.384 152.141 284.384C150.91 284.384 150.046 283.472 150.046 282.128C150.046 280.784 150.91 279.888 152.141 279.888C152.846 279.888 153.406 280.192 153.774 280.72L155.102 279.488C154.59 278.768 153.63 278.08 152.046 278.08C149.662 278.08 147.95 279.76 147.95 282.128ZM163.694 286V280.512C163.694 279.008 162.878 278.08 161.182 278.08C159.918 278.08 158.958 278.688 158.462 279.28V275.328H156.43V286H158.462V280.8C158.814 280.336 159.438 279.888 160.222 279.888C161.102 279.888 161.662 280.224 161.662 281.296V286H163.694ZM165.215 282.128C165.215 284.608 166.991 286.192 169.343 286.192C170.543 286.192 171.743 285.84 172.527 285.12L171.631 283.808C171.135 284.288 170.287 284.576 169.567 284.576C168.255 284.576 167.471 283.76 167.343 282.784H173.087V282.336C173.087 279.808 171.519 278.08 169.215 278.08C166.863 278.08 165.215 279.888 165.215 282.128ZM169.215 279.696C170.559 279.696 171.071 280.672 171.119 281.408H167.311C167.407 280.64 167.951 279.696 169.215 279.696Z" fill="#387267"/>
</g>
<g id="Group 443">
<path id="23" d="M326.98 333V330.5H321.42C325 327.98 326.88 326 326.88 323.72C326.88 321.06 324.62 319.46 321.78 319.46C319.92 319.46 317.94 320.14 316.64 321.64L318.26 323.52C319.16 322.58 320.32 321.98 321.82 321.98C322.94 321.98 324 322.56 324 323.72C324 325.36 322.4 326.74 316.94 330.76V333H326.98ZM328.392 331.1C329.372 332.3 331.192 333.24 333.652 333.24C336.852 333.24 338.912 331.62 338.912 329.32C338.912 327.32 337.152 326.26 335.792 326.12C337.272 325.86 338.712 324.76 338.712 323.08C338.712 320.86 336.792 319.46 333.672 319.46C331.332 319.46 329.652 320.36 328.572 321.58L329.972 323.34C330.912 322.44 332.072 321.94 333.372 321.94C334.772 321.94 335.852 322.48 335.852 323.54C335.852 324.54 334.872 325.02 333.392 325.02C332.872 325.02 331.972 325.02 331.732 325V327.48C331.932 327.46 332.832 327.46 333.392 327.46C335.252 327.46 336.072 327.96 336.072 329.04C336.072 330.06 335.172 330.76 333.552 330.76C332.252 330.76 330.792 330.2 329.872 329.24L328.392 331.1Z" fill="#FCFCF3"/>
<path id="Rectangle 125" d="M0 327C0 320.373 5.37258 315 12 315H288.5C294.851 315 300 320.149 300 326.5C300 332.851 294.851 338 288.5 338H0V327Z" fill="#FCFCF3"/>
<path id="Grande distribuzione" d="M24.544 325.672C24.544 329.032 27.104 331.208 30.224 331.208C32.16 331.208 33.68 330.408 34.768 329.192V325.112H29.68V327.064H32.528V328.36C32.064 328.776 31.2 329.176 30.224 329.176C28.288 329.176 26.88 327.688 26.88 325.672C26.88 323.656 28.288 322.168 30.224 322.168C31.344 322.168 32.256 322.76 32.752 323.512L34.64 322.488C33.824 321.224 32.432 320.152 30.224 320.152C27.104 320.152 24.544 322.296 24.544 325.672ZM38.5556 331V325.896C38.8916 325.4 39.7876 325.032 40.4596 325.032C40.6836 325.032 40.8756 325.048 41.0196 325.08V323.096C40.0596 323.096 39.0996 323.64 38.5556 324.328V323.272H36.5236V331H38.5556ZM48.9613 331V326.008C48.9613 323.784 47.3453 323.08 45.5853 323.08C44.3693 323.08 43.1533 323.464 42.2093 324.296L42.9773 325.656C43.6332 325.048 44.4013 324.744 45.2333 324.744C46.2573 324.744 46.9293 325.256 46.9293 326.04V327.112C46.4173 326.488 45.5052 326.168 44.4813 326.168C43.2493 326.168 41.7933 326.824 41.7933 328.632C41.7933 330.36 43.2493 331.192 44.4813 331.192C45.4893 331.192 46.4013 330.824 46.9293 330.2V331H48.9613ZM46.9293 329.144C46.5933 329.592 45.9533 329.816 45.2973 329.816C44.4973 329.816 43.8413 329.4 43.8413 328.68C43.8413 327.944 44.4973 327.512 45.2973 327.512C45.9533 327.512 46.5933 327.736 46.9293 328.184V329.144ZM58.2248 331V325.544C58.2248 324.04 57.4088 323.08 55.7128 323.08C54.4488 323.08 53.5048 323.688 53.0088 324.28V323.272H50.9768V331H53.0088V325.8C53.3448 325.336 53.9688 324.888 54.7688 324.888C55.6328 324.888 56.1928 325.256 56.1928 326.328V331H58.2248ZM67.6024 331V320.328H65.5544V324.264C64.9464 323.48 64.0824 323.08 63.1704 323.08C61.2024 323.08 59.7464 324.616 59.7464 327.144C59.7464 329.72 61.2184 331.192 63.1704 331.192C64.0984 331.192 64.9464 330.776 65.5544 330.024V331H67.6024ZM65.5544 328.504C65.2024 329.016 64.4824 329.384 63.7944 329.384C62.6424 329.384 61.8424 328.472 61.8424 327.144C61.8424 325.8 62.6424 324.888 63.7944 324.888C64.4824 324.888 65.2024 325.256 65.5544 325.768V328.504ZM69.1214 327.128C69.1214 329.608 70.8974 331.192 73.2494 331.192C74.4494 331.192 75.6494 330.84 76.4334 330.12L75.5374 328.808C75.0414 329.288 74.1934 329.576 73.4734 329.576C72.1614 329.576 71.3774 328.76 71.2494 327.784H76.9934V327.336C76.9934 324.808 75.4254 323.08 73.1214 323.08C70.7694 323.08 69.1214 324.888 69.1214 327.128ZM73.1214 324.696C74.4654 324.696 74.9774 325.672 75.0254 326.408H71.2174C71.3134 325.64 71.8574 324.696 73.1214 324.696ZM89.9149 331V320.328H87.8669V324.264C87.2589 323.48 86.3949 323.08 85.4829 323.08C83.5149 323.08 82.0589 324.616 82.0589 327.144C82.0589 329.72 83.5309 331.192 85.4829 331.192C86.4109 331.192 87.2589 330.776 87.8669 330.024V331H89.9149ZM87.8669 328.504C87.5149 329.016 86.7949 329.384 86.1069 329.384C84.9549 329.384 84.1549 328.472 84.1549 327.144C84.1549 325.8 84.9549 324.888 86.1069 324.888C86.7949 324.888 87.5149 325.256 87.8669 325.768V328.504ZM92.9379 322.136C93.6099 322.136 94.1539 321.592 94.1539 320.92C94.1539 320.248 93.6099 319.704 92.9379 319.704C92.2819 319.704 91.7219 320.248 91.7219 320.92C91.7219 321.592 92.2819 322.136 92.9379 322.136ZM93.9619 331V323.272H91.9299V331H93.9619ZM95.3048 329.992C96.1208 330.744 97.4168 331.192 98.7608 331.192C100.905 331.192 102.105 330.136 102.105 328.712C102.105 326.792 100.329 326.44 99.0008 326.184C98.1368 326.008 97.5288 325.832 97.5288 325.352C97.5288 324.904 98.0088 324.632 98.7448 324.632C99.6888 324.632 100.569 325.032 101.033 325.528L101.833 324.136C101.081 323.528 100.041 323.08 98.7288 323.08C96.6968 323.08 95.5608 324.216 95.5608 325.512C95.5608 327.352 97.2728 327.672 98.6008 327.928C99.4808 328.104 100.153 328.296 100.153 328.84C100.153 329.32 99.7368 329.624 98.8568 329.624C97.8968 329.624 96.7448 329.096 96.1848 328.568L95.3048 329.992ZM106.194 331.192C107.042 331.192 107.586 330.968 107.89 330.696L107.458 329.16C107.346 329.272 107.058 329.384 106.754 329.384C106.306 329.384 106.05 329.016 106.05 328.536V325.048H107.618V323.272H106.05V321.16H104.002V323.272H102.722V325.048H104.002V329.08C104.002 330.456 104.77 331.192 106.194 331.192ZM111.04 331V325.896C111.376 325.4 112.272 325.032 112.944 325.032C113.168 325.032 113.36 325.048 113.504 325.08V323.096C112.544 323.096 111.584 323.64 111.04 324.328V323.272H109.008V331H111.04ZM115.782 322.136C116.454 322.136 116.998 321.592 116.998 320.92C116.998 320.248 116.454 319.704 115.782 319.704C115.126 319.704 114.566 320.248 114.566 320.92C114.566 321.592 115.126 322.136 115.782 322.136ZM116.806 331V323.272H114.774V331H116.806ZM120.853 331V330.024C121.461 330.776 122.309 331.192 123.237 331.192C125.189 331.192 126.661 329.72 126.661 327.144C126.661 324.616 125.205 323.08 123.237 323.08C122.325 323.08 121.461 323.48 120.853 324.264V320.328H118.821V331H120.853ZM120.853 325.784C121.189 325.272 121.941 324.888 122.597 324.888C123.781 324.888 124.565 325.8 124.565 327.144C124.565 328.488 123.781 329.384 122.597 329.384C121.941 329.384 121.189 329.016 120.853 328.52V325.784ZM135.444 331V323.272H133.412V328.504C133.06 328.952 132.436 329.384 131.652 329.384C130.788 329.384 130.228 329.032 130.228 327.96V323.272H128.196V328.76C128.196 330.264 128.996 331.192 130.692 331.192C131.956 331.192 132.884 330.616 133.412 330.024V331H135.444ZM143.429 331V329.224H139.829L143.365 324.744V323.272H137.125V325.048H140.613L137.125 329.48V331H143.429ZM146.125 322.136C146.797 322.136 147.341 321.592 147.341 320.92C147.341 320.248 146.797 319.704 146.125 319.704C145.469 319.704 144.909 320.248 144.909 320.92C144.909 321.592 145.469 322.136 146.125 322.136ZM147.149 331V323.272H145.117V331H147.149ZM152.748 331.192C155.308 331.192 156.844 329.336 156.844 327.128C156.844 324.936 155.308 323.08 152.748 323.08C150.204 323.08 148.668 324.936 148.668 327.128C148.668 329.336 150.204 331.192 152.748 331.192ZM152.748 329.384C151.484 329.384 150.78 328.344 150.78 327.128C150.78 325.928 151.484 324.888 152.748 324.888C154.012 324.888 154.732 325.928 154.732 327.128C154.732 328.344 154.012 329.384 152.748 329.384ZM165.6 331V325.544C165.6 324.04 164.784 323.08 163.088 323.08C161.824 323.08 160.88 323.688 160.384 324.28V323.272H158.352V331H160.384V325.8C160.72 325.336 161.344 324.888 162.144 324.888C163.008 324.888 163.568 325.256 163.568 326.328V331H165.6ZM167.121 327.128C167.121 329.608 168.897 331.192 171.249 331.192C172.449 331.192 173.649 330.84 174.433 330.12L173.537 328.808C173.041 329.288 172.193 329.576 171.473 329.576C170.161 329.576 169.377 328.76 169.249 327.784H174.993V327.336C174.993 324.808 173.425 323.08 171.121 323.08C168.769 323.08 167.121 324.888 167.121 327.128ZM171.121 324.696C172.465 324.696 172.977 325.672 173.025 326.408H169.217C169.313 325.64 169.857 324.696 171.121 324.696Z" fill="#387267"/>
</g>
<g id="Group 444">
<path id="21" d="M300.98 378V375.5H295.42C299 372.98 300.88 371 300.88 368.72C300.88 366.06 298.62 364.46 295.78 364.46C293.92 364.46 291.94 365.14 290.64 366.64L292.26 368.52C293.16 367.58 294.32 366.98 295.82 366.98C296.94 366.98 298 367.56 298 368.72C298 370.36 296.4 371.74 290.94 375.76V378H300.98ZM308.892 378V364.66H306.412L302.212 368.88L303.832 370.58L306.032 368.32V378H308.892Z" fill="#FCFCF3"/>
<path id="Rectangle 126" d="M0 372C0 365.373 5.37258 360 12 360H262.5C268.851 360 274 365.149 274 371.5C274 377.851 268.851 383 262.5 383H0V372Z" fill="#FCFCF3"/>
<path id="Elettronica di consumo" d="M32.608 376V374.032H27.328V371.552H32.496V369.6H27.328V367.28H32.608V365.328H25.056V376H32.608ZM36.3681 376V365.328H34.3361V376H36.3681ZM37.887 372.128C37.887 374.608 39.663 376.192 42.015 376.192C43.215 376.192 44.415 375.84 45.199 375.12L44.303 373.808C43.807 374.288 42.959 374.576 42.239 374.576C40.927 374.576 40.143 373.76 40.015 372.784H45.759V372.336C45.759 369.808 44.191 368.08 41.887 368.08C39.535 368.08 37.887 369.888 37.887 372.128ZM41.887 369.696C43.231 369.696 43.743 370.672 43.791 371.408H39.983C40.079 370.64 40.623 369.696 41.887 369.696ZM49.8188 376.192C50.6668 376.192 51.2108 375.968 51.5148 375.696L51.0828 374.16C50.9708 374.272 50.6828 374.384 50.3788 374.384C49.9308 374.384 49.6748 374.016 49.6748 373.536V370.048H51.2428V368.272H49.6748V366.16H47.6268V368.272H46.3468V370.048H47.6268V374.08C47.6268 375.456 48.3948 376.192 49.8188 376.192ZM55.225 376.192C56.073 376.192 56.617 375.968 56.921 375.696L56.489 374.16C56.377 374.272 56.089 374.384 55.785 374.384C55.337 374.384 55.081 374.016 55.081 373.536V370.048H56.649V368.272H55.081V366.16H53.033V368.272H51.753V370.048H53.033V374.08C53.033 375.456 53.801 376.192 55.225 376.192ZM60.0713 376V370.896C60.4073 370.4 61.3033 370.032 61.9753 370.032C62.1993 370.032 62.3913 370.048 62.5353 370.08V368.096C61.5753 368.096 60.6153 368.64 60.0713 369.328V368.272H58.0393V376H60.0713ZM67.3889 376.192C69.9489 376.192 71.4849 374.336 71.4849 372.128C71.4849 369.936 69.9489 368.08 67.3889 368.08C64.8449 368.08 63.3089 369.936 63.3089 372.128C63.3089 374.336 64.8449 376.192 67.3889 376.192ZM67.3889 374.384C66.1249 374.384 65.4209 373.344 65.4209 372.128C65.4209 370.928 66.1249 369.888 67.3889 369.888C68.6529 369.888 69.3729 370.928 69.3729 372.128C69.3729 373.344 68.6529 374.384 67.3889 374.384ZM80.2404 376V370.544C80.2404 369.04 79.4244 368.08 77.7284 368.08C76.4644 368.08 75.5204 368.688 75.0244 369.28V368.272H72.9924V376H75.0244V370.8C75.3604 370.336 75.9844 369.888 76.7844 369.888C77.6484 369.888 78.2084 370.256 78.2084 371.328V376H80.2404ZM83.266 367.136C83.938 367.136 84.482 366.592 84.482 365.92C84.482 365.248 83.938 364.704 83.266 364.704C82.61 364.704 82.05 365.248 82.05 365.92C82.05 366.592 82.61 367.136 83.266 367.136ZM84.29 376V368.272H82.258V376H84.29ZM85.8089 372.128C85.8089 374.512 87.5209 376.192 89.9049 376.192C91.4889 376.192 92.4489 375.504 92.9609 374.784L91.6329 373.552C91.2649 374.064 90.7049 374.384 90.0009 374.384C88.7689 374.384 87.9049 373.472 87.9049 372.128C87.9049 370.784 88.7689 369.888 90.0009 369.888C90.7049 369.888 91.2649 370.192 91.6329 370.72L92.9609 369.488C92.4489 368.768 91.4889 368.08 89.9049 368.08C87.5209 368.08 85.8089 369.76 85.8089 372.128ZM100.961 376V371.008C100.961 368.784 99.3453 368.08 97.5853 368.08C96.3693 368.08 95.1533 368.464 94.2093 369.296L94.9773 370.656C95.6332 370.048 96.4013 369.744 97.2333 369.744C98.2573 369.744 98.9293 370.256 98.9293 371.04V372.112C98.4173 371.488 97.5052 371.168 96.4813 371.168C95.2493 371.168 93.7933 371.824 93.7933 373.632C93.7933 375.36 95.2493 376.192 96.4813 376.192C97.4893 376.192 98.4013 375.824 98.9293 375.2V376H100.961ZM98.9293 374.144C98.5933 374.592 97.9533 374.816 97.2973 374.816C96.4973 374.816 95.8413 374.4 95.8413 373.68C95.8413 372.944 96.4973 372.512 97.2973 372.512C97.9533 372.512 98.5933 372.736 98.9293 373.184V374.144ZM114.431 376V365.328H112.383V369.264C111.775 368.48 110.911 368.08 109.999 368.08C108.031 368.08 106.575 369.616 106.575 372.144C106.575 374.72 108.047 376.192 109.999 376.192C110.927 376.192 111.775 375.776 112.383 375.024V376H114.431ZM112.383 373.504C112.031 374.016 111.311 374.384 110.623 374.384C109.471 374.384 108.671 373.472 108.671 372.144C108.671 370.8 109.471 369.888 110.623 369.888C111.311 369.888 112.031 370.256 112.383 370.768V373.504ZM117.454 367.136C118.126 367.136 118.67 366.592 118.67 365.92C118.67 365.248 118.126 364.704 117.454 364.704C116.798 364.704 116.238 365.248 116.238 365.92C116.238 366.592 116.798 367.136 117.454 367.136ZM118.478 376V368.272H116.446V376H118.478ZM124.09 372.128C124.09 374.512 125.802 376.192 128.186 376.192C129.77 376.192 130.73 375.504 131.242 374.784L129.914 373.552C129.546 374.064 128.986 374.384 128.282 374.384C127.05 374.384 126.186 373.472 126.186 372.128C126.186 370.784 127.05 369.888 128.282 369.888C128.986 369.888 129.546 370.192 129.914 370.72L131.242 369.488C130.73 368.768 129.77 368.08 128.186 368.08C125.802 368.08 124.09 369.76 124.09 372.128ZM136.155 376.192C138.715 376.192 140.251 374.336 140.251 372.128C140.251 369.936 138.715 368.08 136.155 368.08C133.611 368.08 132.075 369.936 132.075 372.128C132.075 374.336 133.611 376.192 136.155 376.192ZM136.155 374.384C134.891 374.384 134.187 373.344 134.187 372.128C134.187 370.928 134.891 369.888 136.155 369.888C137.419 369.888 138.139 370.928 138.139 372.128C138.139 373.344 137.419 374.384 136.155 374.384ZM149.006 376V370.544C149.006 369.04 148.19 368.08 146.494 368.08C145.23 368.08 144.286 368.688 143.79 369.28V368.272H141.758V376H143.79V370.8C144.126 370.336 144.75 369.888 145.55 369.888C146.414 369.888 146.974 370.256 146.974 371.328V376H149.006ZM150.352 374.992C151.168 375.744 152.464 376.192 153.808 376.192C155.952 376.192 157.152 375.136 157.152 373.712C157.152 371.792 155.376 371.44 154.048 371.184C153.184 371.008 152.576 370.832 152.576 370.352C152.576 369.904 153.056 369.632 153.792 369.632C154.736 369.632 155.616 370.032 156.08 370.528L156.88 369.136C156.128 368.528 155.088 368.08 153.776 368.08C151.744 368.08 150.608 369.216 150.608 370.512C150.608 372.352 152.32 372.672 153.648 372.928C154.528 373.104 155.2 373.296 155.2 373.84C155.2 374.32 154.784 374.624 153.904 374.624C152.944 374.624 151.792 374.096 151.232 373.568L150.352 374.992ZM165.897 376V368.272H163.865V373.504C163.513 373.952 162.889 374.384 162.105 374.384C161.241 374.384 160.681 374.032 160.681 372.96V368.272H158.649V373.76C158.649 375.264 159.449 376.192 161.145 376.192C162.409 376.192 163.337 375.616 163.865 375.024V376H165.897ZM179.546 376V370.416C179.546 368.832 178.698 368.08 177.274 368.08C176.09 368.08 175.066 368.784 174.618 369.488C174.33 368.608 173.61 368.08 172.474 368.08C171.29 368.08 170.266 368.816 169.946 369.28V368.272H167.914V376H169.946V370.8C170.25 370.368 170.842 369.888 171.546 369.888C172.378 369.888 172.698 370.4 172.698 371.12V376H174.746V370.784C175.034 370.368 175.626 369.888 176.346 369.888C177.178 369.888 177.498 370.4 177.498 371.12V376H179.546ZM185.123 376.192C187.683 376.192 189.219 374.336 189.219 372.128C189.219 369.936 187.683 368.08 185.123 368.08C182.579 368.08 181.043 369.936 181.043 372.128C181.043 374.336 182.579 376.192 185.123 376.192ZM185.123 374.384C183.859 374.384 183.155 373.344 183.155 372.128C183.155 370.928 183.859 369.888 185.123 369.888C186.387 369.888 187.107 370.928 187.107 372.128C187.107 373.344 186.387 374.384 185.123 374.384Z" fill="#387267"/>
</g>
<g id="Group 445">
<path id="21_2" d="M287.98 423V420.5H282.42C286 417.98 287.88 416 287.88 413.72C287.88 411.06 285.62 409.46 282.78 409.46C280.92 409.46 278.94 410.14 277.64 411.64L279.26 413.52C280.16 412.58 281.32 411.98 282.82 411.98C283.94 411.98 285 412.56 285 413.72C285 415.36 283.4 416.74 277.94 420.76V423H287.98ZM295.892 423V409.66H293.412L289.212 413.88L290.832 415.58L293.032 413.32V423H295.892Z" fill="#FCFCF3"/>
<path id="Rectangle 127" d="M0 417C0 410.373 5.37258 405 12 405H249.5C255.851 405 261 410.149 261 416.5C261 422.851 255.851 428 249.5 428H0V417Z" fill="#FCFCF3"/>
<path id="Produzione imballaggi" d="M27.328 421V417.176H30.048C32.352 417.176 33.632 415.624 33.632 413.768C33.632 411.896 32.368 410.328 30.048 410.328H25.056V421H27.328ZM31.312 413.752C31.312 414.648 30.64 415.224 29.744 415.224H27.328V412.28H29.744C30.64 412.28 31.312 412.872 31.312 413.752ZM37.0244 421V415.896C37.3604 415.4 38.2564 415.032 38.9284 415.032C39.1524 415.032 39.3444 415.048 39.4884 415.08V413.096C38.5284 413.096 37.5684 413.64 37.0244 414.328V413.272H34.9924V421H37.0244ZM44.342 421.192C46.902 421.192 48.438 419.336 48.438 417.128C48.438 414.936 46.902 413.08 44.342 413.08C41.798 413.08 40.262 414.936 40.262 417.128C40.262 419.336 41.798 421.192 44.342 421.192ZM44.342 419.384C43.078 419.384 42.374 418.344 42.374 417.128C42.374 415.928 43.078 414.888 44.342 414.888C45.606 414.888 46.326 415.928 46.326 417.128C46.326 418.344 45.606 419.384 44.342 419.384ZM57.3055 421V410.328H55.2575V414.264C54.6495 413.48 53.7855 413.08 52.8735 413.08C50.9055 413.08 49.4495 414.616 49.4495 417.144C49.4495 419.72 50.9215 421.192 52.8735 421.192C53.8015 421.192 54.6495 420.776 55.2575 420.024V421H57.3055ZM55.2575 418.504C54.9055 419.016 54.1855 419.384 53.4975 419.384C52.3455 419.384 51.5455 418.472 51.5455 417.144C51.5455 415.8 52.3455 414.888 53.4975 414.888C54.1855 414.888 54.9055 415.256 55.2575 415.768V418.504ZM66.5685 421V413.272H64.5365V418.504C64.1845 418.952 63.5605 419.384 62.7765 419.384C61.9125 419.384 61.3525 419.032 61.3525 417.96V413.272H59.3205V418.76C59.3205 420.264 60.1205 421.192 61.8165 421.192C63.0805 421.192 64.0085 420.616 64.5365 420.024V421H66.5685ZM74.5541 421V419.224H70.9541L74.4901 414.744V413.272H68.2501V415.048H71.7381L68.2501 419.48V421H74.5541ZM77.2504 412.136C77.9224 412.136 78.4664 411.592 78.4664 410.92C78.4664 410.248 77.9224 409.704 77.2504 409.704C76.5944 409.704 76.0344 410.248 76.0344 410.92C76.0344 411.592 76.5944 412.136 77.2504 412.136ZM78.2744 421V413.272H76.2424V421H78.2744ZM83.8733 421.192C86.4333 421.192 87.9693 419.336 87.9693 417.128C87.9693 414.936 86.4333 413.08 83.8733 413.08C81.3293 413.08 79.7933 414.936 79.7933 417.128C79.7933 419.336 81.3293 421.192 83.8733 421.192ZM83.8733 419.384C82.6093 419.384 81.9053 418.344 81.9053 417.128C81.9053 415.928 82.6093 414.888 83.8733 414.888C85.1373 414.888 85.8573 415.928 85.8573 417.128C85.8573 418.344 85.1373 419.384 83.8733 419.384ZM96.7248 421V415.544C96.7248 414.04 95.9088 413.08 94.2128 413.08C92.9488 413.08 92.0048 413.688 91.5088 414.28V413.272H89.4768V421H91.5088V415.8C91.8448 415.336 92.4688 414.888 93.2688 414.888C94.1328 414.888 94.6928 415.256 94.6928 416.328V421H96.7248ZM98.2464 417.128C98.2464 419.608 100.022 421.192 102.374 421.192C103.574 421.192 104.774 420.84 105.558 420.12L104.662 418.808C104.166 419.288 103.318 419.576 102.598 419.576C101.286 419.576 100.502 418.76 100.374 417.784H106.118V417.336C106.118 414.808 104.55 413.08 102.246 413.08C99.8944 413.08 98.2464 414.888 98.2464 417.128ZM102.246 414.696C103.59 414.696 104.102 415.672 104.15 416.408H100.342C100.438 415.64 100.982 414.696 102.246 414.696ZM112.688 412.136C113.36 412.136 113.904 411.592 113.904 410.92C113.904 410.248 113.36 409.704 112.688 409.704C112.032 409.704 111.472 410.248 111.472 410.92C111.472 411.592 112.032 412.136 112.688 412.136ZM113.712 421V413.272H111.68V421H113.712ZM127.359 421V415.416C127.359 413.832 126.511 413.08 125.087 413.08C123.903 413.08 122.879 413.784 122.431 414.488C122.143 413.608 121.423 413.08 120.287 413.08C119.103 413.08 118.079 413.816 117.759 414.28V413.272H115.727V421H117.759V415.8C118.063 415.368 118.655 414.888 119.359 414.888C120.191 414.888 120.511 415.4 120.511 416.12V421H122.559V415.784C122.847 415.368 123.439 414.888 124.159 414.888C124.991 414.888 125.311 415.4 125.311 416.12V421H127.359ZM131.384 421V420.024C131.992 420.776 132.84 421.192 133.768 421.192C135.72 421.192 137.192 419.72 137.192 417.144C137.192 414.616 135.736 413.08 133.768 413.08C132.856 413.08 131.992 413.48 131.384 414.264V410.328H129.352V421H131.384ZM131.384 415.784C131.72 415.272 132.472 414.888 133.128 414.888C134.312 414.888 135.096 415.8 135.096 417.144C135.096 418.488 134.312 419.384 133.128 419.384C132.472 419.384 131.72 419.016 131.384 418.52V415.784ZM145.399 421V416.008C145.399 413.784 143.783 413.08 142.023 413.08C140.807 413.08 139.591 413.464 138.647 414.296L139.415 415.656C140.071 415.048 140.839 414.744 141.671 414.744C142.695 414.744 143.367 415.256 143.367 416.04V417.112C142.855 416.488 141.943 416.168 140.919 416.168C139.687 416.168 138.231 416.824 138.231 418.632C138.231 420.36 139.687 421.192 140.919 421.192C141.927 421.192 142.839 420.824 143.367 420.2V421H145.399ZM143.367 419.144C143.031 419.592 142.391 419.816 141.735 419.816C140.935 419.816 140.279 419.4 140.279 418.68C140.279 417.944 140.935 417.512 141.735 417.512C142.391 417.512 143.031 417.736 143.367 418.184V419.144ZM149.446 421V410.328H147.414V421H149.446ZM153.493 421V410.328H151.461V421H153.493ZM162.18 421V416.008C162.18 413.784 160.564 413.08 158.804 413.08C157.588 413.08 156.372 413.464 155.428 414.296L156.196 415.656C156.852 415.048 157.62 414.744 158.452 414.744C159.476 414.744 160.148 415.256 160.148 416.04V417.112C159.636 416.488 158.724 416.168 157.7 416.168C156.468 416.168 155.012 416.824 155.012 418.632C155.012 420.36 156.468 421.192 157.7 421.192C158.708 421.192 159.62 420.824 160.148 420.2V421H162.18ZM160.148 419.144C159.812 419.592 159.172 419.816 158.516 419.816C157.716 419.816 157.06 419.4 157.06 418.68C157.06 417.944 157.716 417.512 158.516 417.512C159.172 417.512 159.812 417.736 160.148 418.184V419.144ZM164.036 422.984C164.996 423.832 166.036 424.136 167.364 424.136C169.268 424.136 171.54 423.416 171.54 420.472V413.272H169.492V414.264C168.868 413.48 168.036 413.08 167.108 413.08C165.156 413.08 163.7 414.488 163.7 417.016C163.7 419.592 165.172 420.952 167.108 420.952C168.052 420.952 168.884 420.504 169.492 419.736V420.52C169.492 422.04 168.34 422.472 167.364 422.472C166.388 422.472 165.572 422.2 164.948 421.512L164.036 422.984ZM169.492 418.264C169.156 418.76 168.42 419.144 167.748 419.144C166.596 419.144 165.796 418.344 165.796 417.016C165.796 415.688 166.596 414.888 167.748 414.888C168.42 414.888 169.156 415.256 169.492 415.768V418.264ZM173.395 422.984C174.355 423.832 175.395 424.136 176.723 424.136C178.627 424.136 180.899 423.416 180.899 420.472V413.272H178.851V414.264C178.227 413.48 177.395 413.08 176.467 413.08C174.515 413.08 173.059 414.488 173.059 417.016C173.059 419.592 174.531 420.952 176.467 420.952C177.411 420.952 178.243 420.504 178.851 419.736V420.52C178.851 422.04 177.699 422.472 176.723 422.472C175.747 422.472 174.931 422.2 174.307 421.512L173.395 422.984ZM178.851 418.264C178.515 418.76 177.779 419.144 177.107 419.144C175.955 419.144 175.155 418.344 175.155 417.016C175.155 415.688 175.955 414.888 177.107 414.888C177.779 414.888 178.515 415.256 178.851 415.768V418.264ZM183.922 412.136C184.594 412.136 185.138 411.592 185.138 410.92C185.138 410.248 184.594 409.704 183.922 409.704C183.266 409.704 182.706 410.248 182.706 410.92C182.706 411.592 183.266 412.136 183.922 412.136ZM184.946 421V413.272H182.914V421H184.946Z" fill="#387267"/>
</g>
<g id="Group 441">
<g id="Group 437">
<path id="Rectangle 121" d="M0 147C0 140.373 5.37258 135 12 135H353.5C359.851 135 365 140.149 365 146.5C365 152.851 359.851 158 353.5 158H0V147Z" fill="#FCFCF3"/>
<path id="Trasporto pubblico" d="M29.808 151V142.328H32.912V140.328H24.4V142.328H27.52V151H29.808ZM35.2588 151V145.896C35.5948 145.4 36.4908 145.032 37.1628 145.032C37.3868 145.032 37.5788 145.048 37.7228 145.08V143.096C36.7628 143.096 35.8028 143.64 35.2588 144.328V143.272H33.2268V151H35.2588ZM45.6644 151V146.008C45.6644 143.784 44.0484 143.08 42.2884 143.08C41.0724 143.08 39.8564 143.464 38.9124 144.296L39.6804 145.656C40.3364 145.048 41.1044 144.744 41.9364 144.744C42.9604 144.744 43.6324 145.256 43.6324 146.04V147.112C43.1204 146.488 42.2084 146.168 41.1844 146.168C39.9524 146.168 38.4964 146.824 38.4964 148.632C38.4964 150.36 39.9524 151.192 41.1844 151.192C42.1924 151.192 43.1044 150.824 43.6324 150.2V151H45.6644ZM43.6324 149.144C43.2964 149.592 42.6564 149.816 42.0004 149.816C41.2004 149.816 40.5444 149.4 40.5444 148.68C40.5444 147.944 41.2004 147.512 42.0004 147.512C42.6564 147.512 43.2964 147.736 43.6324 148.184V149.144ZM47.0079 149.992C47.8239 150.744 49.1199 151.192 50.4639 151.192C52.6079 151.192 53.8079 150.136 53.8079 148.712C53.8079 146.792 52.0319 146.44 50.7039 146.184C49.8399 146.008 49.2319 145.832 49.2319 145.352C49.2319 144.904 49.7119 144.632 50.4479 144.632C51.3919 144.632 52.2719 145.032 52.7359 145.528L53.5359 144.136C52.7839 143.528 51.7439 143.08 50.4319 143.08C48.3999 143.08 47.2639 144.216 47.2639 145.512C47.2639 147.352 48.9759 147.672 50.3039 147.928C51.1839 148.104 51.8559 148.296 51.8559 148.84C51.8559 149.32 51.4399 149.624 50.5599 149.624C49.5999 149.624 48.4479 149.096 47.8879 148.568L47.0079 149.992ZM57.3369 150.008C57.9609 150.808 58.8089 151.192 59.7209 151.192C61.7049 151.192 63.1449 149.704 63.1449 147.128C63.1449 144.552 61.7049 143.08 59.7209 143.08C58.7769 143.08 57.9289 143.496 57.3369 144.248V143.272H55.3049V153.944H57.3369V150.008ZM61.0329 147.128C61.0329 148.472 60.2489 149.384 59.0809 149.384C58.4249 149.384 57.6729 148.984 57.3369 148.504V145.768C57.6729 145.272 58.4249 144.888 59.0809 144.888C60.2489 144.888 61.0329 145.8 61.0329 147.128ZM68.2483 151.192C70.8083 151.192 72.3443 149.336 72.3443 147.128C72.3443 144.936 70.8083 143.08 68.2483 143.08C65.7043 143.08 64.1683 144.936 64.1683 147.128C64.1683 149.336 65.7043 151.192 68.2483 151.192ZM68.2483 149.384C66.9843 149.384 66.2803 148.344 66.2803 147.128C66.2803 145.928 66.9843 144.888 68.2483 144.888C69.5123 144.888 70.2323 145.928 70.2323 147.128C70.2323 148.344 69.5123 149.384 68.2483 149.384ZM75.8838 151V145.896C76.2198 145.4 77.1158 145.032 77.7878 145.032C78.0118 145.032 78.2038 145.048 78.3478 145.08V143.096C77.3878 143.096 76.4278 143.64 75.8838 144.328V143.272H73.8518V151H75.8838ZM82.2094 151.192C83.0574 151.192 83.6014 150.968 83.9054 150.696L83.4734 149.16C83.3614 149.272 83.0734 149.384 82.7694 149.384C82.3214 149.384 82.0654 149.016 82.0654 148.536V145.048H83.6334V143.272H82.0654V141.16H80.0174V143.272H78.7374V145.048H80.0174V149.08C80.0174 150.456 80.7854 151.192 82.2094 151.192ZM88.6076 151.192C91.1676 151.192 92.7036 149.336 92.7036 147.128C92.7036 144.936 91.1676 143.08 88.6076 143.08C86.0636 143.08 84.5276 144.936 84.5276 147.128C84.5276 149.336 86.0636 151.192 88.6076 151.192ZM88.6076 149.384C87.3436 149.384 86.6396 148.344 86.6396 147.128C86.6396 145.928 87.3436 144.888 88.6076 144.888C89.8716 144.888 90.5916 145.928 90.5916 147.128C90.5916 148.344 89.8716 149.384 88.6076 149.384ZM100.337 150.008C100.961 150.808 101.809 151.192 102.721 151.192C104.705 151.192 106.145 149.704 106.145 147.128C106.145 144.552 104.705 143.08 102.721 143.08C101.777 143.08 100.929 143.496 100.337 144.248V143.272H98.3049V153.944H100.337V150.008ZM104.033 147.128C104.033 148.472 103.249 149.384 102.081 149.384C101.425 149.384 100.673 148.984 100.337 148.504V145.768C100.673 145.272 101.425 144.888 102.081 144.888C103.249 144.888 104.033 145.8 104.033 147.128ZM114.912 151V143.272H112.88V148.504C112.528 148.952 111.904 149.384 111.12 149.384C110.256 149.384 109.696 149.032 109.696 147.96V143.272H107.664V148.76C107.664 150.264 108.464 151.192 110.16 151.192C111.424 151.192 112.352 150.616 112.88 150.024V151H114.912ZM118.962 151V150.024C119.57 150.776 120.418 151.192 121.346 151.192C123.298 151.192 124.77 149.72 124.77 147.144C124.77 144.616 123.314 143.08 121.346 143.08C120.434 143.08 119.57 143.48 118.962 144.264V140.328H116.93V151H118.962ZM118.962 145.784C119.298 145.272 120.05 144.888 120.706 144.888C121.89 144.888 122.674 145.8 122.674 147.144C122.674 148.488 121.89 149.384 120.706 149.384C120.05 149.384 119.298 149.016 118.962 148.52V145.784ZM128.337 151V150.024C128.945 150.776 129.793 151.192 130.721 151.192C132.673 151.192 134.145 149.72 134.145 147.144C134.145 144.616 132.689 143.08 130.721 143.08C129.809 143.08 128.945 143.48 128.337 144.264V140.328H126.305V151H128.337ZM128.337 145.784C128.673 145.272 129.425 144.888 130.081 144.888C131.265 144.888 132.049 145.8 132.049 147.144C132.049 148.488 131.265 149.384 130.081 149.384C129.425 149.384 128.673 149.016 128.337 148.52V145.784ZM137.712 151V140.328H135.68V151H137.712ZM140.735 142.136C141.407 142.136 141.951 141.592 141.951 140.92C141.951 140.248 141.407 139.704 140.735 139.704C140.079 139.704 139.519 140.248 139.519 140.92C139.519 141.592 140.079 142.136 140.735 142.136ZM141.759 151V143.272H139.727V151H141.759ZM143.278 147.128C143.278 149.512 144.99 151.192 147.374 151.192C148.958 151.192 149.918 150.504 150.43 149.784L149.102 148.552C148.734 149.064 148.174 149.384 147.47 149.384C146.238 149.384 145.374 148.472 145.374 147.128C145.374 145.784 146.238 144.888 147.47 144.888C148.174 144.888 148.734 145.192 149.102 145.72L150.43 144.488C149.918 143.768 148.958 143.08 147.374 143.08C144.99 143.08 143.278 144.76 143.278 147.128ZM155.342 151.192C157.902 151.192 159.438 149.336 159.438 147.128C159.438 144.936 157.902 143.08 155.342 143.08C152.798 143.08 151.262 144.936 151.262 147.128C151.262 149.336 152.798 151.192 155.342 151.192ZM155.342 149.384C154.078 149.384 153.374 148.344 153.374 147.128C153.374 145.928 154.078 144.888 155.342 144.888C156.606 144.888 157.326 145.928 157.326 147.128C157.326 148.344 156.606 149.384 155.342 149.384Z" fill="#387267"/>
</g>
<g id="Group 438">
<path id="Rectangle 122" d="M0 192C0 185.373 5.37258 180 12 180H353.5C359.851 180 365 185.149 365 191.5C365 197.851 359.851 203 353.5 203H0V192Z" fill="#FCFCF3"/>
<path id="Case automobilistiche" d="M30.144 196.192C32.576 196.192 33.92 194.896 34.688 193.568L32.736 192.624C32.288 193.504 31.328 194.176 30.144 194.176C28.288 194.176 26.88 192.688 26.88 190.672C26.88 188.656 28.288 187.168 30.144 187.168C31.328 187.168 32.288 187.856 32.736 188.72L34.688 187.76C33.936 186.432 32.576 185.152 30.144 185.152C27.024 185.152 24.544 187.392 24.544 190.672C24.544 193.952 27.024 196.192 30.144 196.192ZM42.6644 196V191.008C42.6644 188.784 41.0484 188.08 39.2884 188.08C38.0724 188.08 36.8564 188.464 35.9124 189.296L36.6804 190.656C37.3364 190.048 38.1044 189.744 38.9364 189.744C39.9604 189.744 40.6324 190.256 40.6324 191.04V192.112C40.1204 191.488 39.2084 191.168 38.1844 191.168C36.9524 191.168 35.4964 191.824 35.4964 193.632C35.4964 195.36 36.9524 196.192 38.1844 196.192C39.1924 196.192 40.1044 195.824 40.6324 195.2V196H42.6644ZM40.6324 194.144C40.2964 194.592 39.6564 194.816 39.0004 194.816C38.2004 194.816 37.5444 194.4 37.5444 193.68C37.5444 192.944 38.2004 192.512 39.0004 192.512C39.6564 192.512 40.2964 192.736 40.6324 193.184V194.144ZM44.0079 194.992C44.8239 195.744 46.1199 196.192 47.4639 196.192C49.6079 196.192 50.8079 195.136 50.8079 193.712C50.8079 191.792 49.0319 191.44 47.7039 191.184C46.8399 191.008 46.2319 190.832 46.2319 190.352C46.2319 189.904 46.7119 189.632 47.4479 189.632C48.3919 189.632 49.2719 190.032 49.7359 190.528L50.5359 189.136C49.7839 188.528 48.7439 188.08 47.4319 188.08C45.3999 188.08 44.2639 189.216 44.2639 190.512C44.2639 192.352 45.9759 192.672 47.3039 192.928C48.1839 193.104 48.8559 193.296 48.8559 193.84C48.8559 194.32 48.4399 194.624 47.5599 194.624C46.5999 194.624 45.4479 194.096 44.8879 193.568L44.0079 194.992ZM51.8089 192.128C51.8089 194.608 53.5849 196.192 55.9369 196.192C57.1369 196.192 58.3369 195.84 59.1209 195.12L58.2249 193.808C57.7289 194.288 56.8809 194.576 56.1609 194.576C54.8489 194.576 54.0649 193.76 53.9369 192.784H59.6809V192.336C59.6809 189.808 58.1129 188.08 55.8089 188.08C53.4569 188.08 51.8089 189.888 51.8089 192.128ZM55.8089 189.696C57.1529 189.696 57.6649 190.672 57.7129 191.408H53.9049C54.0009 190.64 54.5449 189.696 55.8089 189.696ZM71.9144 196V191.008C71.9144 188.784 70.2984 188.08 68.5384 188.08C67.3224 188.08 66.1064 188.464 65.1624 189.296L65.9304 190.656C66.5864 190.048 67.3544 189.744 68.1864 189.744C69.2104 189.744 69.8824 190.256 69.8824 191.04V192.112C69.3704 191.488 68.4584 191.168 67.4344 191.168C66.2024 191.168 64.7464 191.824 64.7464 193.632C64.7464 195.36 66.2024 196.192 67.4344 196.192C68.4424 196.192 69.3544 195.824 69.8824 195.2V196H71.9144ZM69.8824 194.144C69.5464 194.592 68.9064 194.816 68.2504 194.816C67.4504 194.816 66.7944 194.4 66.7944 193.68C66.7944 192.944 67.4504 192.512 68.2504 192.512C68.9064 192.512 69.5464 192.736 69.8824 193.184V194.144ZM81.1779 196V188.272H79.1459V193.504C78.7939 193.952 78.1699 194.384 77.3859 194.384C76.5219 194.384 75.9619 194.032 75.9619 192.96V188.272H73.9299V193.76C73.9299 195.264 74.7299 196.192 76.4259 196.192C77.6899 196.192 78.6179 195.616 79.1459 195.024V196H81.1779ZM85.7875 196.192C86.6355 196.192 87.1795 195.968 87.4835 195.696L87.0515 194.16C86.9395 194.272 86.6515 194.384 86.3475 194.384C85.8995 194.384 85.6435 194.016 85.6435 193.536V190.048H87.2115V188.272H85.6435V186.16H83.5955V188.272H82.3155V190.048H83.5955V194.08C83.5955 195.456 84.3635 196.192 85.7875 196.192ZM92.1858 196.192C94.7458 196.192 96.2818 194.336 96.2818 192.128C96.2818 189.936 94.7458 188.08 92.1858 188.08C89.6418 188.08 88.1058 189.936 88.1058 192.128C88.1058 194.336 89.6418 196.192 92.1858 196.192ZM92.1858 194.384C90.9218 194.384 90.2178 193.344 90.2178 192.128C90.2178 190.928 90.9218 189.888 92.1858 189.888C93.4498 189.888 94.1698 190.928 94.1698 192.128C94.1698 193.344 93.4498 194.384 92.1858 194.384ZM109.421 196V190.416C109.421 188.832 108.573 188.08 107.149 188.08C105.965 188.08 104.941 188.784 104.493 189.488C104.205 188.608 103.485 188.08 102.349 188.08C101.165 188.08 100.141 188.816 99.8213 189.28V188.272H97.7893V196H99.8213V190.8C100.125 190.368 100.717 189.888 101.421 189.888C102.253 189.888 102.573 190.4 102.573 191.12V196H104.621V190.784C104.909 190.368 105.501 189.888 106.221 189.888C107.053 189.888 107.373 190.4 107.373 191.12V196H109.421ZM114.998 196.192C117.558 196.192 119.094 194.336 119.094 192.128C119.094 189.936 117.558 188.08 114.998 188.08C112.454 188.08 110.918 189.936 110.918 192.128C110.918 194.336 112.454 196.192 114.998 196.192ZM114.998 194.384C113.734 194.384 113.03 193.344 113.03 192.128C113.03 190.928 113.734 189.888 114.998 189.888C116.262 189.888 116.982 190.928 116.982 192.128C116.982 193.344 116.262 194.384 114.998 194.384ZM122.634 196V195.024C123.242 195.776 124.09 196.192 125.018 196.192C126.97 196.192 128.442 194.72 128.442 192.144C128.442 189.616 126.986 188.08 125.018 188.08C124.106 188.08 123.242 188.48 122.634 189.264V185.328H120.602V196H122.634ZM122.634 190.784C122.97 190.272 123.722 189.888 124.378 189.888C125.562 189.888 126.346 190.8 126.346 192.144C126.346 193.488 125.562 194.384 124.378 194.384C123.722 194.384 122.97 194.016 122.634 193.52V190.784ZM130.985 187.136C131.657 187.136 132.201 186.592 132.201 185.92C132.201 185.248 131.657 184.704 130.985 184.704C130.329 184.704 129.769 185.248 129.769 185.92C129.769 186.592 130.329 187.136 130.985 187.136ZM132.009 196V188.272H129.977V196H132.009ZM136.056 196V185.328H134.024V196H136.056ZM139.079 187.136C139.751 187.136 140.295 186.592 140.295 185.92C140.295 185.248 139.751 184.704 139.079 184.704C138.423 184.704 137.863 185.248 137.863 185.92C137.863 186.592 138.423 187.136 139.079 187.136ZM140.103 196V188.272H138.071V196H140.103ZM141.445 194.992C142.261 195.744 143.557 196.192 144.901 196.192C147.045 196.192 148.245 195.136 148.245 193.712C148.245 191.792 146.469 191.44 145.141 191.184C144.277 191.008 143.669 190.832 143.669 190.352C143.669 189.904 144.149 189.632 144.885 189.632C145.829 189.632 146.709 190.032 147.173 190.528L147.973 189.136C147.221 188.528 146.181 188.08 144.869 188.08C142.837 188.08 141.701 189.216 141.701 190.512C141.701 192.352 143.413 192.672 144.741 192.928C145.621 193.104 146.293 193.296 146.293 193.84C146.293 194.32 145.877 194.624 144.997 194.624C144.037 194.624 142.885 194.096 142.325 193.568L141.445 194.992ZM152.334 196.192C153.182 196.192 153.726 195.968 154.03 195.696L153.598 194.16C153.486 194.272 153.198 194.384 152.894 194.384C152.446 194.384 152.19 194.016 152.19 193.536V190.048H153.758V188.272H152.19V186.16H150.142V188.272H148.862V190.048H150.142V194.08C150.142 195.456 150.91 196.192 152.334 196.192ZM156.157 187.136C156.829 187.136 157.373 186.592 157.373 185.92C157.373 185.248 156.829 184.704 156.157 184.704C155.501 184.704 154.941 185.248 154.941 185.92C154.941 186.592 155.501 187.136 156.157 187.136ZM157.181 196V188.272H155.149V196H157.181ZM158.7 192.128C158.7 194.512 160.412 196.192 162.796 196.192C164.38 196.192 165.34 195.504 165.852 194.784L164.524 193.552C164.156 194.064 163.596 194.384 162.891 194.384C161.66 194.384 160.796 193.472 160.796 192.128C160.796 190.784 161.66 189.888 162.891 189.888C163.596 189.888 164.156 190.192 164.524 190.72L165.852 189.488C165.34 188.768 164.38 188.08 162.796 188.08C160.412 188.08 158.7 189.76 158.7 192.128ZM174.444 196V190.512C174.444 189.008 173.628 188.08 171.932 188.08C170.668 188.08 169.708 188.688 169.212 189.28V185.328H167.18V196H169.212V190.8C169.564 190.336 170.188 189.888 170.972 189.888C171.852 189.888 172.412 190.224 172.412 191.296V196H174.444ZM175.965 192.128C175.965 194.608 177.741 196.192 180.093 196.192C181.293 196.192 182.493 195.84 183.277 195.12L182.381 193.808C181.885 194.288 181.037 194.576 180.317 194.576C179.005 194.576 178.221 193.76 178.093 192.784H183.837V192.336C183.837 189.808 182.269 188.08 179.965 188.08C177.613 188.08 175.965 189.888 175.965 192.128ZM179.965 189.696C181.309 189.696 181.821 190.672 181.869 191.408H178.061C178.157 190.64 178.701 189.696 179.965 189.696Z" fill="#387267"/>
</g>
<g id="Group 439">
<path id="Rectangle 123" d="M0 237C0 230.373 5.37258 225 12 225H353.5C359.851 225 365 230.149 365 236.5C365 242.851 359.851 248 353.5 248H0V237Z" fill="#FCFCF3"/>
<path id="Detersivi" d="M29.264 241C32.608 241 34.928 238.888 34.928 235.672C34.928 232.456 32.608 230.328 29.264 230.328H25.056V241H29.264ZM27.328 232.328H29.264C31.456 232.328 32.608 233.784 32.608 235.672C32.608 237.48 31.376 239 29.264 239H27.328V232.328ZM35.9964 237.128C35.9964 239.608 37.7724 241.192 40.1244 241.192C41.3244 241.192 42.5244 240.84 43.3084 240.12L42.4124 238.808C41.9164 239.288 41.0684 239.576 40.3484 239.576C39.0364 239.576 38.2524 238.76 38.1244 237.784H43.8684V237.336C43.8684 234.808 42.3004 233.08 39.9964 233.08C37.6444 233.08 35.9964 234.888 35.9964 237.128ZM39.9964 234.696C41.3404 234.696 41.8524 235.672 41.9004 236.408H38.0924C38.1884 235.64 38.7324 234.696 39.9964 234.696ZM47.9281 241.192C48.7761 241.192 49.3201 240.968 49.6241 240.696L49.1921 239.16C49.0801 239.272 48.7921 239.384 48.4881 239.384C48.0401 239.384 47.7841 239.016 47.7841 238.536V235.048H49.3521V233.272H47.7841V231.16H45.7361V233.272H44.4561V235.048H45.7361V239.08C45.7361 240.456 46.5041 241.192 47.9281 241.192ZM50.2464 237.128C50.2464 239.608 52.0224 241.192 54.3744 241.192C55.5744 241.192 56.7744 240.84 57.5584 240.12L56.6624 238.808C56.1664 239.288 55.3184 239.576 54.5984 239.576C53.2864 239.576 52.5024 238.76 52.3744 237.784H58.1184V237.336C58.1184 234.808 56.5504 233.08 54.2464 233.08C51.8944 233.08 50.2464 234.888 50.2464 237.128ZM54.2464 234.696C55.5904 234.696 56.1024 235.672 56.1504 236.408H52.3424C52.4384 235.64 52.9824 234.696 54.2464 234.696ZM61.6181 241V235.896C61.9541 235.4 62.8501 235.032 63.5221 235.032C63.7461 235.032 63.9381 235.048 64.0821 235.08V233.096C63.1221 233.096 62.1621 233.64 61.6181 234.328V233.272H59.5861V241H61.6181ZM64.6798 239.992C65.4958 240.744 66.7918 241.192 68.1358 241.192C70.2798 241.192 71.4798 240.136 71.4798 238.712C71.4798 236.792 69.7038 236.44 68.3758 236.184C67.5118 236.008 66.9038 235.832 66.9038 235.352C66.9038 234.904 67.3838 234.632 68.1198 234.632C69.0638 234.632 69.9438 235.032 70.4078 235.528L71.2078 234.136C70.4558 233.528 69.4158 233.08 68.1038 233.08C66.0718 233.08 64.9358 234.216 64.9358 235.512C64.9358 237.352 66.6478 237.672 67.9758 237.928C68.8558 238.104 69.5278 238.296 69.5278 238.84C69.5278 239.32 69.1118 239.624 68.2318 239.624C67.2718 239.624 66.1198 239.096 65.5598 238.568L64.6798 239.992ZM73.9848 232.136C74.6568 232.136 75.2008 231.592 75.2008 230.92C75.2008 230.248 74.6568 229.704 73.9848 229.704C73.3288 229.704 72.7688 230.248 72.7688 230.92C72.7688 231.592 73.3288 232.136 73.9848 232.136ZM75.0088 241V233.272H72.9768V241H75.0088ZM81.2156 241L84.3196 233.272H82.1276L80.1116 238.648L78.0956 233.272H75.9196L79.0236 241H81.2156ZM86.2348 232.136C86.9068 232.136 87.4508 231.592 87.4508 230.92C87.4508 230.248 86.9068 229.704 86.2348 229.704C85.5788 229.704 85.0188 230.248 85.0188 230.92C85.0188 231.592 85.5788 232.136 86.2348 232.136ZM87.2588 241V233.272H85.2268V241H87.2588Z" fill="#387267"/>
</g>
<g id="Group 440">
<path id="28" d="M391.977 198V195.5H386.417C389.997 192.98 391.877 191 391.877 188.72C391.877 186.06 389.617 184.46 386.777 184.46C384.917 184.46 382.937 185.14 381.637 186.64L383.257 188.52C384.157 187.58 385.317 186.98 386.817 186.98C387.937 186.98 388.997 187.56 388.997 188.72C388.997 190.36 387.397 191.74 381.937 195.76V198H391.977ZM393.689 194.54C393.689 197.04 396.249 198.24 399.049 198.24C401.849 198.24 404.409 197.02 404.409 194.54C404.409 192.92 403.129 191.68 401.529 191.12C403.009 190.62 404.189 189.64 404.189 187.98C404.189 185.48 401.509 184.46 399.049 184.46C396.569 184.46 393.909 185.48 393.909 187.98C393.909 189.64 395.069 190.62 396.549 191.12C394.949 191.68 393.689 192.92 393.689 194.54ZM401.289 188.42C401.289 189.46 399.869 189.92 399.049 190.04C398.229 189.92 396.789 189.46 396.789 188.42C396.789 187.48 397.729 186.9 399.049 186.9C400.349 186.9 401.289 187.48 401.289 188.42ZM401.529 194.2C401.529 195.18 400.409 195.8 399.049 195.8C397.649 195.8 396.569 195.18 396.569 194.2C396.569 193.04 398.209 192.48 399.049 192.38C399.869 192.48 401.529 193.04 401.529 194.2Z" fill="#FCFCF3"/>
<g id="Group 378">
<path id="Rectangle 128" d="M377 148C377 147.448 377.448 147 378 147H391C392.105 147 393 147.895 393 149H378C377.448 149 377 148.552 377 148Z" fill="#FCFCF3"/>
<path id="Rectangle 130" d="M393 149L393 172C393 172.552 392.552 173 392 173C391.448 173 391 172.552 391 172L391 149L393 149Z" fill="#FCFCF3"/>
</g>
<g id="Group 379">
<path id="Rectangle 128_2" d="M377 236C377 236.552 377.448 237 378 237H391C392.105 237 393 236.105 393 235H378C377.448 235 377 235.448 377 236Z" fill="#FCFCF3"/>
<path id="Rectangle 130_2" d="M393 235L393 212C393 211.448 392.552 211 392 211C391.448 211 391 211.448 391 212L391 235L393 235Z" fill="#FCFCF3"/>
</g>
</g>
</g>
</g>
</svg>
