<svg width="375" height="375" viewBox="0 0 375 375" fill="none" xmlns="http://www.w3.org/2000/svg">
<g clip-path="url(#clip0_1382:145)">
<rect x="375" width="375" height="375" transform="rotate(90 375 0)" fill="#0038FF"/>
<path d="M342.54 43.7057L-36.07 -34.277C-36.27 -34.3268 -36.4699 -34.2603 -36.6865 -34.277C-36.7698 -34.277 -36.8365 -34.3767 -36.9198 -34.3767H-43.8345C-46.1339 -34.3767 -48 -32.5148 -48 -30.2207V310.918C-48 313.212 -46.1339 315.074 -43.8345 315.074H-36.9198C-36.7698 315.074 -36.6199 315.074 -36.4699 315.058L-19.9746 313.279V316.853C-19.9746 318.033 -19.4747 319.164 -18.5916 319.962C-17.8252 320.643 -16.8421 321.009 -15.8091 321.009C-15.6591 321.009 -15.4925 320.992 -15.3425 320.976L-3.51254 319.646C-1.41314 319.413 0.186413 317.634 0.186413 315.523V311.101L44.0407 306.363L87.2785 320.444C87.7117 320.593 88.1449 320.66 88.5782 320.66C90.3277 320.66 91.9605 319.546 92.5437 317.784C93.2435 315.606 92.0605 313.262 89.8778 312.564L64.2184 304.219L273.393 281.644L317.264 290.803C317.547 290.853 317.83 290.887 318.113 290.887C320.046 290.887 321.779 289.54 322.196 287.578C322.662 285.334 321.213 283.123 318.963 282.658L300.252 278.751L342.157 274.229C344.256 273.98 345.872 272.218 345.872 270.09V47.7786C345.856 45.8004 344.473 44.1047 342.54 43.7057ZM337.525 266.35L-15.6758 304.468C-15.7258 304.468 -15.7591 304.418 -15.8091 304.418C-15.8924 304.418 -15.959 304.501 -16.0423 304.518L-32.7543 306.314V-25.1006L337.525 51.1699V266.35Z" fill="white"/>
<rect width="366.109" height="135.008" transform="matrix(0.989992 -0.141124 0.00249406 0.999997 -3.78149 344.016)" fill="white"/>
</g>
<defs>
<clipPath id="clip0_1382:145">
<rect width="375" height="375" fill="white"/>
</clipPath>
</defs>
</svg>
