<svg width="957" height="267" viewBox="0 0 957 267" fill="none" xmlns="http://www.w3.org/2000/svg">
<rect y="27" width="957" height="1" fill="#0038FF"/>
<rect y="250" width="957" height="1" fill="#0038FF"/>
<path d="M713.5 39L675.5 54.5L520.5 20L559 8.5" stroke="#0038FF" stroke-linejoin="bevel"/>
<path d="M778.5 51.5L520.5 1L110 96L363.5 266.5L778.5 51.5Z" fill="white" stroke="#0038FF" stroke-linejoin="bevel"/>
<path d="M191 135.5L191.272 135.08L190.5 135.5H191ZM216.5 152H217V151.728L216.772 151.58L216.5 152ZM191.5 150.5V135.5H190.5V150.5H191.5ZM190.728 135.92L216.228 152.42L216.772 151.58L191.272 135.08L190.728 135.92ZM216 152V167.5H217V152H216Z" fill="#0038FF"/>
<path d="M644.5 25V14L617 9V20" stroke="#0038FF" stroke-linejoin="bevel"/>
<path d="M364.5 37L641.5 122.5" stroke="#0038FF"/>
<path d="M526.5 73C526.5 75.0593 525.248 77.1007 522.801 79.0298C520.358 80.9545 516.793 82.7097 512.344 84.1929C503.449 87.1577 491.13 89 477.5 89C463.87 89 451.551 87.1577 442.656 84.1929C438.207 82.7097 434.642 80.9545 432.199 79.0298C429.752 77.1007 428.5 75.0593 428.5 73C428.5 70.9407 429.752 68.8993 432.199 66.9702C434.642 65.0455 438.207 63.2903 442.656 61.8071C451.551 58.8423 463.87 57 477.5 57C491.13 57 503.449 58.8423 512.344 61.8071C516.793 63.2903 520.358 65.0455 522.801 66.9702C525.248 68.8993 526.5 70.9407 526.5 73Z" fill="white" stroke="#0038FF"/>
<path d="M240 183L277.5 169.5L212 129.5L176.5 140.5M288.5 215.5L398 169L244 93L145 119.5" stroke="#0038FF" stroke-linejoin="bevel"/>
<path d="M340 140.331C342.571 137.785 344 134.966 344 132C344 120.678 323.181 111.5 297.5 111.5C292.621 111.5 287.918 111.831 283.5 112.445" stroke="#0038FF"/>
<path d="M664.5 29.5L654 34L585 20L597.5 16" stroke="#0038FF" stroke-linejoin="bevel"/>
</svg>
