<svg width="375" height="375" viewBox="0 0 375 375" fill="none" xmlns="http://www.w3.org/2000/svg">
<g clip-path="url(#clip0_1382:106)">
<rect x="375" width="375" height="375" transform="rotate(90 375 0)" fill="#0038FF"/>
<circle r="76.2804" transform="matrix(0.902585 0.430511 -0.646257 0.76312 187.419 187.404)" stroke="white" stroke-width="4"/>
<rect width="587.103" height="3.91402" transform="matrix(0.902585 0.430511 -0.646257 0.76312 -76.5241 59.8325)" fill="white"/>
<circle r="4.69682" transform="matrix(0.902585 0.430511 -0.646257 0.76312 187.42 187.404)" fill="white"/>
<rect x="0.512656" y="2.38726" width="340.434" height="136.905" transform="matrix(0.902585 0.430511 -0.646257 0.76312 -178.903 364.504)" stroke="white" stroke-width="4"/>
<mask id="path-6-inside-1_1382:106" fill="white">
<path fill-rule="evenodd" clip-rule="evenodd" d="M49.4288 478.022C57.3566 446.707 42.4225 415.134 7.92898 398.681C-26.5645 382.229 -70.9954 385.486 -105.408 404.168L49.4288 478.022Z"/>
</mask>
<path d="M49.4288 478.022L46.8438 481.074L52.4167 483.732L53.7804 478.346L49.4288 478.022ZM-105.408 404.168L-107.646 401.349L-113.566 404.563L-107.993 407.221L-105.408 404.168ZM5.34395 401.734C38.3631 417.483 52.6695 447.708 45.0772 477.698L53.7804 478.346C62.0437 445.706 46.4819 412.785 10.514 395.629L5.34395 401.734ZM-103.169 406.988C-70.2133 389.096 -27.6751 385.985 5.34395 401.734L10.514 395.629C-25.4538 378.473 -71.7775 381.876 -107.646 401.349L-103.169 406.988ZM-107.993 407.221L46.8438 481.074L52.0138 474.969L-102.823 401.116L-107.993 407.221Z" fill="white" mask="url(#path-6-inside-1_1382:106)"/>
<rect x="0.512656" y="2.38726" width="340.434" height="136.905" transform="matrix(0.902585 0.430511 -0.646257 0.76312 337.107 -244.816)" stroke="white" stroke-width="4"/>
<mask id="path-9-inside-2_1382:106" fill="white">
<path fill-rule="evenodd" clip-rule="evenodd" d="M324.704 -103.55C316.776 -72.2355 331.71 -40.6625 366.204 -24.21C400.697 -7.75749 445.128 -11.0149 479.54 -29.6968L324.704 -103.55Z"/>
</mask>
<path d="M324.704 -103.55L327.289 -106.602L321.716 -109.261L320.352 -103.874L324.704 -103.55ZM479.54 -29.6968L481.778 -26.8775L487.698 -30.0911L482.125 -32.7493L479.54 -29.6968ZM368.789 -27.2625C335.77 -43.0117 321.463 -73.2368 329.055 -103.226L320.352 -103.874C312.089 -71.2343 327.651 -38.3133 363.619 -21.1575L368.789 -27.2625ZM477.302 -32.5161C444.346 -14.6248 401.808 -11.5132 368.789 -27.2625L363.619 -21.1575C399.586 -4.00178 445.91 -7.40501 481.778 -26.8775L477.302 -32.5161ZM482.125 -32.7493L327.289 -106.602L322.119 -100.497L476.955 -26.6443L482.125 -32.7493Z" fill="white" mask="url(#path-9-inside-2_1382:106)"/>
<rect x="0.512656" y="2.38726" width="583.103" height="935.365" transform="matrix(0.902585 0.430511 -0.646257 0.76312 227.593 -297.05)" stroke="white" stroke-width="4"/>
</g>
<defs>
<clipPath id="clip0_1382:106">
<rect width="375" height="375" fill="white"/>
</clipPath>
</defs>
</svg>
