<svg width="664" height="20" viewBox="0 0 664 20" fill="none" xmlns="http://www.w3.org/2000/svg">
<path d="M39.968 15V4.328H37.68L34.576 11.992L31.472 4.328H29.184V15H30.784V6.52L34.24 15H34.912L38.368 6.52V15H39.968ZM45.7323 15.192C48.1483 15.192 49.6363 13.368 49.6363 11.128C49.6363 8.904 48.1483 7.08 45.7323 7.08C43.3323 7.08 41.8283 8.904 41.8283 11.128C41.8283 13.368 43.3323 15.192 45.7323 15.192ZM45.7323 13.912C44.1963 13.912 43.3323 12.6 43.3323 11.128C43.3323 9.672 44.1963 8.36 45.7323 8.36C47.2843 8.36 48.1323 9.672 48.1323 11.128C48.1323 12.6 47.2843 13.912 45.7323 13.912ZM52.9045 15V4.328H51.4645V15H52.9045ZM57.3269 15.192C58.0789 15.192 58.5269 14.984 58.8309 14.696L58.4629 13.608C58.3189 13.768 58.0149 13.912 57.6789 13.912C57.1829 13.912 56.9269 13.512 56.9269 12.968V8.536H58.4949V7.272H56.9269V5.16H55.4869V7.272H54.2069V8.536H55.4869V13.288C55.4869 14.504 56.1109 15.192 57.3269 15.192ZM60.7935 5.976C61.3055 5.976 61.7215 5.576 61.7215 5.064C61.7215 4.552 61.3055 4.136 60.7935 4.136C60.2975 4.136 59.8655 4.552 59.8655 5.064C59.8655 5.576 60.2975 5.976 60.7935 5.976ZM61.5295 15V7.272H60.0895V15H61.5295ZM63.1519 13.992C63.9359 14.792 65.0719 15.192 66.3679 15.192C68.3999 15.192 69.4879 14.152 69.4879 12.824C69.4879 11.048 67.8879 10.68 66.5439 10.376C65.5839 10.152 64.7519 9.928 64.7519 9.256C64.7519 8.632 65.3599 8.248 66.3359 8.248C67.3119 8.248 68.1759 8.648 68.6239 9.192L69.2639 8.184C68.6079 7.56 67.6479 7.08 66.3199 7.08C64.4319 7.08 63.3759 8.136 63.3759 9.368C63.3759 11.032 64.9119 11.384 66.2239 11.688C67.2159 11.912 68.0959 12.168 68.0959 12.936C68.0959 13.592 67.5199 14.04 66.4319 14.04C65.3919 14.04 64.3679 13.512 63.8399 12.936L63.1519 13.992ZM70.6363 13.992C71.4203 14.792 72.5563 15.192 73.8523 15.192C75.8843 15.192 76.9723 14.152 76.9723 12.824C76.9723 11.048 75.3723 10.68 74.0283 10.376C73.0683 10.152 72.2363 9.928 72.2363 9.256C72.2363 8.632 72.8443 8.248 73.8203 8.248C74.7963 8.248 75.6603 8.648 76.1083 9.192L76.7483 8.184C76.0923 7.56 75.1323 7.08 73.8043 7.08C71.9163 7.08 70.8603 8.136 70.8603 9.368C70.8603 11.032 72.3963 11.384 73.7083 11.688C74.7003 11.912 75.5803 12.168 75.5803 12.936C75.5803 13.592 75.0043 14.04 73.9163 14.04C72.8763 14.04 71.8523 13.512 71.3243 12.936L70.6363 13.992ZM79.4966 5.976C80.0086 5.976 80.4246 5.576 80.4246 5.064C80.4246 4.552 80.0086 4.136 79.4966 4.136C79.0006 4.136 78.5686 4.552 78.5686 5.064C78.5686 5.576 79.0006 5.976 79.4966 5.976ZM80.2326 15V7.272H78.7926V15H80.2326ZM93.359 15V9.416C93.359 7.864 92.591 7.08 91.167 7.08C90.031 7.08 89.007 7.8 88.559 8.52C88.319 7.688 87.631 7.08 86.463 7.08C85.311 7.08 84.287 7.88 83.967 8.36V7.272H82.527V15H83.967V9.48C84.351 8.92 85.103 8.36 85.855 8.36C86.831 8.36 87.215 8.952 87.215 9.848V15H88.655V9.464C89.023 8.904 89.791 8.36 90.575 8.36C91.519 8.36 91.919 8.952 91.919 9.848V15H93.359ZM99.076 15.192C101.492 15.192 102.98 13.368 102.98 11.128C102.98 8.904 101.492 7.08 99.076 7.08C96.676 7.08 95.172 8.904 95.172 11.128C95.172 13.368 96.676 15.192 99.076 15.192ZM99.076 13.912C97.54 13.912 96.676 12.6 96.676 11.128C96.676 9.672 97.54 8.36 99.076 8.36C100.628 8.36 101.476 9.672 101.476 11.128C101.476 12.6 100.628 13.912 99.076 13.912Z" fill="#FCFCF3"/>
<circle cx="10" cy="10" r="10" fill="#493C3C"/>
<path d="M168.224 15V4.328H165.584L162.672 11.512L159.776 4.328H157.136V15H159.008V6.92L162.272 15H163.072L166.352 6.92V15H168.224ZM173.935 15.192C176.415 15.192 177.919 13.352 177.919 11.128C177.919 8.92 176.415 7.08 173.935 7.08C171.487 7.08 169.967 8.92 169.967 11.128C169.967 13.352 171.487 15.192 173.935 15.192ZM173.935 13.704C172.511 13.704 171.711 12.504 171.711 11.128C171.711 9.768 172.511 8.568 173.935 8.568C175.375 8.568 176.175 9.768 176.175 11.128C176.175 12.504 175.375 13.704 173.935 13.704ZM181.299 15V4.328H179.619V15H181.299ZM185.799 15.192C186.583 15.192 187.079 14.984 187.383 14.696L186.983 13.432C186.855 13.576 186.551 13.704 186.231 13.704C185.751 13.704 185.495 13.32 185.495 12.792V8.744H187.063V7.272H185.495V5.16H183.815V7.272H182.535V8.744H183.815V13.208C183.815 14.488 184.503 15.192 185.799 15.192ZM192.076 15.192C194.556 15.192 196.06 13.352 196.06 11.128C196.06 8.92 194.556 7.08 192.076 7.08C189.628 7.08 188.108 8.92 188.108 11.128C188.108 13.352 189.628 15.192 192.076 15.192ZM192.076 13.704C190.652 13.704 189.852 12.504 189.852 11.128C189.852 9.768 190.652 8.568 192.076 8.568C193.516 8.568 194.316 9.768 194.316 11.128C194.316 12.504 193.516 13.704 192.076 13.704Z" fill="#FCFCF3"/>
<circle cx="138" cy="10" r="10" fill="#58E1DB"/>
<path d="M259.736 15L255.544 4.328H253.208L249.016 15H251.064L251.848 12.952H256.904L257.688 15H259.736ZM256.376 11.304H252.376L254.376 5.912L256.376 11.304ZM262.534 15V13.944C263.126 14.712 264.006 15.192 265.014 15.192C266.982 15.192 268.438 13.688 268.438 11.144C268.438 8.648 266.998 7.08 265.014 7.08C264.038 7.08 263.142 7.528 262.534 8.344V4.328H260.854V15H262.534ZM262.534 9.624C262.902 9.048 263.734 8.568 264.518 8.568C265.862 8.568 266.71 9.64 266.71 11.144C266.71 12.648 265.862 13.704 264.518 13.704C263.734 13.704 262.902 13.256 262.534 12.68V9.624ZM271.831 15V13.944C272.423 14.712 273.303 15.192 274.311 15.192C276.279 15.192 277.735 13.688 277.735 11.144C277.735 8.648 276.295 7.08 274.311 7.08C273.335 7.08 272.439 7.528 271.831 8.344V4.328H270.151V15H271.831ZM271.831 9.624C272.199 9.048 273.031 8.568 273.815 8.568C275.159 8.568 276.007 9.64 276.007 11.144C276.007 12.648 275.159 13.704 273.815 13.704C273.031 13.704 272.199 13.256 271.831 12.68V9.624ZM285.847 15V9.88C285.847 7.8 284.343 7.08 282.631 7.08C281.399 7.08 280.279 7.48 279.383 8.328L280.071 9.496C280.743 8.84 281.495 8.52 282.359 8.52C283.431 8.52 284.167 9.064 284.167 9.96V11.112C283.607 10.456 282.711 10.12 281.671 10.12C280.407 10.12 278.983 10.856 278.983 12.632C278.983 14.344 280.407 15.192 281.671 15.192C282.695 15.192 283.591 14.824 284.167 14.168V15H285.847ZM284.167 13.24C283.783 13.768 283.063 14.04 282.327 14.04C281.383 14.04 280.679 13.496 280.679 12.664C280.679 11.816 281.383 11.272 282.327 11.272C283.063 11.272 283.783 11.544 284.167 12.072V13.24ZM287.354 13.992C288.154 14.776 289.354 15.192 290.666 15.192C292.746 15.192 293.882 14.152 293.882 12.792C293.882 10.968 292.234 10.584 290.89 10.296C289.978 10.088 289.21 9.88 289.21 9.288C289.21 8.744 289.77 8.424 290.65 8.424C291.61 8.424 292.474 8.824 292.938 9.352L293.642 8.168C292.938 7.544 291.946 7.08 290.634 7.08C288.682 7.08 287.594 8.168 287.594 9.432C287.594 11.16 289.178 11.512 290.506 11.8C291.45 12.008 292.266 12.248 292.266 12.92C292.266 13.496 291.754 13.864 290.746 13.864C289.738 13.864 288.666 13.336 288.122 12.776L287.354 13.992ZM297.892 15.192C298.676 15.192 299.172 14.984 299.476 14.696L299.076 13.432C298.948 13.576 298.644 13.704 298.324 13.704C297.844 13.704 297.588 13.32 297.588 12.792V8.744H299.156V7.272H297.588V5.16H295.908V7.272H294.628V8.744H295.908V13.208C295.908 14.488 296.596 15.192 297.892 15.192ZM307.082 15V9.88C307.082 7.8 305.578 7.08 303.866 7.08C302.634 7.08 301.514 7.48 300.618 8.328L301.306 9.496C301.978 8.84 302.73 8.52 303.594 8.52C304.666 8.52 305.402 9.064 305.402 9.96V11.112C304.842 10.456 303.946 10.12 302.906 10.12C301.642 10.12 300.218 10.856 300.218 12.632C300.218 14.344 301.642 15.192 302.906 15.192C303.93 15.192 304.826 14.824 305.402 14.168V15H307.082ZM305.402 13.24C305.018 13.768 304.298 14.04 303.562 14.04C302.618 14.04 301.914 13.496 301.914 12.664C301.914 11.816 302.618 11.272 303.562 11.272C304.298 11.272 305.018 11.544 305.402 12.072V13.24ZM316.156 15V9.56C316.156 7.976 315.324 7.08 313.66 7.08C312.444 7.08 311.452 7.72 310.94 8.328V7.272H309.26V15H310.94V9.608C311.324 9.08 312.06 8.568 312.924 8.568C313.868 8.568 314.476 8.968 314.476 10.168V15H316.156ZM324.114 15V13.544H320.194L324.05 8.504V7.272H317.986V8.744H321.81L317.986 13.736V15H324.114ZM332.347 15V9.88C332.347 7.8 330.843 7.08 329.131 7.08C327.899 7.08 326.779 7.48 325.883 8.328L326.571 9.496C327.243 8.84 327.995 8.52 328.859 8.52C329.931 8.52 330.667 9.064 330.667 9.96V11.112C330.107 10.456 329.211 10.12 328.171 10.12C326.907 10.12 325.483 10.856 325.483 12.632C325.483 14.344 326.907 15.192 328.171 15.192C329.195 15.192 330.091 14.824 330.667 14.168V15H332.347ZM330.667 13.24C330.283 13.768 329.563 14.04 328.827 14.04C327.883 14.04 327.179 13.496 327.179 12.664C327.179 11.816 327.883 11.272 328.827 11.272C329.563 11.272 330.283 11.544 330.667 12.072V13.24Z" fill="#FCFCF3"/>
<circle cx="231" cy="10" r="10" fill="#7DBF90"/>
<path d="M392.176 15.192C394.416 15.192 395.728 14.072 396.544 12.792L394.944 11.976C394.432 12.872 393.408 13.528 392.176 13.528C390.144 13.528 388.576 11.912 388.576 9.672C388.576 7.432 390.144 5.816 392.176 5.816C393.408 5.816 394.432 6.488 394.944 7.368L396.544 6.552C395.744 5.272 394.416 4.152 392.176 4.152C389.104 4.152 386.656 6.392 386.656 9.672C386.656 12.952 389.104 15.192 392.176 15.192ZM401.482 15.192C403.962 15.192 405.466 13.352 405.466 11.128C405.466 8.92 403.962 7.08 401.482 7.08C399.034 7.08 397.514 8.92 397.514 11.128C397.514 13.352 399.034 15.192 401.482 15.192ZM401.482 13.704C400.058 13.704 399.258 12.504 399.258 11.128C399.258 9.768 400.058 8.568 401.482 8.568C402.922 8.568 403.722 9.768 403.722 11.128C403.722 12.504 402.922 13.704 401.482 13.704ZM406.494 13.992C407.294 14.776 408.494 15.192 409.806 15.192C411.886 15.192 413.022 14.152 413.022 12.792C413.022 10.968 411.374 10.584 410.03 10.296C409.118 10.088 408.35 9.88 408.35 9.288C408.35 8.744 408.91 8.424 409.79 8.424C410.75 8.424 411.614 8.824 412.078 9.352L412.782 8.168C412.078 7.544 411.086 7.08 409.774 7.08C407.822 7.08 406.734 8.168 406.734 9.432C406.734 11.16 408.318 11.512 409.646 11.8C410.59 12.008 411.406 12.248 411.406 12.92C411.406 13.496 410.894 13.864 409.886 13.864C408.878 13.864 407.806 13.336 407.262 12.776L406.494 13.992ZM416.137 6.104L413.897 3.8H412.297L414.937 6.104H416.137ZM416.393 15V7.272H414.713V15H416.393ZM422.202 11.128C422.202 13.48 423.85 15.192 426.202 15.192C427.706 15.192 428.618 14.552 429.162 13.816L428.058 12.792C427.626 13.384 427.034 13.704 426.282 13.704C424.874 13.704 423.946 12.632 423.946 11.128C423.946 9.624 424.874 8.568 426.282 8.568C427.034 8.568 427.626 8.872 428.058 9.48L429.162 8.456C428.618 7.72 427.706 7.08 426.202 7.08C423.85 7.08 422.202 8.792 422.202 11.128ZM434.123 15.192C436.603 15.192 438.107 13.352 438.107 11.128C438.107 8.92 436.603 7.08 434.123 7.08C431.675 7.08 430.155 8.92 430.155 11.128C430.155 13.352 431.675 15.192 434.123 15.192ZM434.123 13.704C432.699 13.704 431.899 12.504 431.899 11.128C431.899 9.768 432.699 8.568 434.123 8.568C435.563 8.568 436.363 9.768 436.363 11.128C436.363 12.504 435.563 13.704 434.123 13.704ZM439.135 13.992C439.935 14.776 441.135 15.192 442.447 15.192C444.527 15.192 445.663 14.152 445.663 12.792C445.663 10.968 444.015 10.584 442.671 10.296C441.759 10.088 440.991 9.88 440.991 9.288C440.991 8.744 441.551 8.424 442.431 8.424C443.391 8.424 444.255 8.824 444.719 9.352L445.423 8.168C444.719 7.544 443.727 7.08 442.415 7.08C440.463 7.08 439.375 8.168 439.375 9.432C439.375 11.16 440.959 11.512 442.287 11.8C443.231 12.008 444.047 12.248 444.047 12.92C444.047 13.496 443.535 13.864 442.527 13.864C441.519 13.864 440.447 13.336 439.903 12.776L439.135 13.992ZM448.778 6.104L446.538 3.8H444.938L447.578 6.104H448.778ZM449.034 15V7.272H447.354V15H449.034Z" fill="#FCFCF3"/>
<circle cx="368" cy="10" r="10" fill="#93A2BF"/>
<path d="M506.008 15V11.016H508.824C511.048 11.016 512.312 9.48 512.312 7.672C512.312 5.864 511.064 4.328 508.824 4.328H504.136V15H506.008ZM510.392 7.672C510.392 8.696 509.624 9.368 508.568 9.368H506.008V5.976H508.568C509.624 5.976 510.392 6.648 510.392 7.672ZM517.076 15.192C519.556 15.192 521.06 13.352 521.06 11.128C521.06 8.92 519.556 7.08 517.076 7.08C514.628 7.08 513.108 8.92 513.108 11.128C513.108 13.352 514.628 15.192 517.076 15.192ZM517.076 13.704C515.652 13.704 514.852 12.504 514.852 11.128C514.852 9.768 515.652 8.568 517.076 8.568C518.516 8.568 519.316 9.768 519.316 11.128C519.316 12.504 518.516 13.704 517.076 13.704ZM522.28 11.128C522.28 13.48 523.928 15.192 526.28 15.192C527.784 15.192 528.696 14.552 529.24 13.816L528.136 12.792C527.704 13.384 527.112 13.704 526.36 13.704C524.952 13.704 524.024 12.632 524.024 11.128C524.024 9.624 524.952 8.568 526.36 8.568C527.112 8.568 527.704 8.872 528.136 9.48L529.24 8.456C528.696 7.72 527.784 7.08 526.28 7.08C523.928 7.08 522.28 8.792 522.28 11.128ZM534.201 15.192C536.681 15.192 538.185 13.352 538.185 11.128C538.185 8.92 536.681 7.08 534.201 7.08C531.753 7.08 530.233 8.92 530.233 11.128C530.233 13.352 531.753 15.192 534.201 15.192ZM534.201 13.704C532.777 13.704 531.977 12.504 531.977 11.128C531.977 9.768 532.777 8.568 534.201 8.568C535.641 8.568 536.441 9.768 536.441 11.128C536.441 12.504 535.641 13.704 534.201 13.704Z" fill="#FCFCF3"/>
<circle cx="485" cy="10" r="10" fill="#D6E3A2"/>
<path d="M594.008 15V11.016H596.824C599.048 11.016 600.312 9.48 600.312 7.672C600.312 5.864 599.064 4.328 596.824 4.328H592.136V15H594.008ZM598.392 7.672C598.392 8.696 597.624 9.368 596.568 9.368H594.008V5.976H596.568C597.624 5.976 598.392 6.648 598.392 7.672ZM601.108 11.128C601.108 13.576 602.836 15.192 605.156 15.192C606.388 15.192 607.524 14.808 608.292 14.072L607.524 12.968C606.98 13.512 606.084 13.816 605.332 13.816C603.876 13.816 602.996 12.856 602.868 11.688H608.836V11.288C608.836 8.856 607.348 7.08 605.028 7.08C602.74 7.08 601.108 8.888 601.108 11.128ZM605.028 8.456C606.548 8.456 607.172 9.592 607.204 10.504H602.852C602.932 9.56 603.588 8.456 605.028 8.456ZM612.174 15V9.736C612.51 9.192 613.454 8.712 614.158 8.712C614.366 8.712 614.542 8.728 614.686 8.76V7.096C613.678 7.096 612.75 7.672 612.174 8.408V7.272H610.494V15H612.174ZM627.047 15V9.56C627.047 7.976 626.215 7.08 624.551 7.08C623.335 7.08 622.343 7.72 621.831 8.328V7.272H620.151V15H621.831V9.608C622.215 9.08 622.951 8.568 623.815 8.568C624.759 8.568 625.367 8.968 625.367 10.168V15H627.047ZM630.061 5.992C630.637 5.992 631.101 5.528 631.101 4.952C631.101 4.376 630.637 3.912 630.061 3.912C629.501 3.912 629.021 4.376 629.021 4.952C629.021 5.528 629.501 5.992 630.061 5.992ZM630.909 15V7.272H629.229V15H630.909ZM632.608 11.128C632.608 13.576 634.336 15.192 636.656 15.192C637.888 15.192 639.024 14.808 639.792 14.072L639.024 12.968C638.48 13.512 637.584 13.816 636.832 13.816C635.376 13.816 634.496 12.856 634.368 11.688H640.336V11.288C640.336 8.856 638.848 7.08 636.528 7.08C634.24 7.08 632.608 8.888 632.608 11.128ZM636.528 8.456C638.048 8.456 638.672 9.592 638.704 10.504H634.352C634.432 9.56 635.088 8.456 636.528 8.456ZM648.89 15V9.56C648.89 7.976 648.058 7.08 646.394 7.08C645.178 7.08 644.186 7.72 643.674 8.328V7.272H641.994V15H643.674V9.608C644.058 9.08 644.794 8.568 645.658 8.568C646.602 8.568 647.21 8.968 647.21 10.168V15H648.89ZM653.392 15.192C654.176 15.192 654.672 14.984 654.976 14.696L654.576 13.432C654.448 13.576 654.144 13.704 653.824 13.704C653.344 13.704 653.088 13.32 653.088 12.792V8.744H654.656V7.272H653.088V5.16H651.408V7.272H650.128V8.744H651.408V13.208C651.408 14.488 652.096 15.192 653.392 15.192ZM655.702 11.128C655.702 13.576 657.43 15.192 659.75 15.192C660.982 15.192 662.118 14.808 662.886 14.072L662.118 12.968C661.574 13.512 660.678 13.816 659.926 13.816C658.47 13.816 657.59 12.856 657.462 11.688H663.43V11.288C663.43 8.856 661.942 7.08 659.622 7.08C657.334 7.08 655.702 8.888 655.702 11.128ZM659.622 8.456C661.142 8.456 661.766 9.592 661.798 10.504H657.446C657.526 9.56 658.182 8.456 659.622 8.456Z" fill="#FCFCF3"/>
<circle cx="573" cy="10" r="10" fill="#FCFCF3"/>
</svg>
