<svg width="665" height="20" viewBox="0 0 665 20" fill="none" xmlns="http://www.w3.org/2000/svg">
<path d="M40.224 15V4.328H37.584L34.672 11.512L31.776 4.328H29.136V15H31.008V6.92L34.272 15H35.072L38.352 6.92V15H40.224ZM45.9354 15.192C48.4154 15.192 49.9194 13.352 49.9194 11.128C49.9194 8.92 48.4154 7.08 45.9354 7.08C43.4874 7.08 41.9674 8.92 41.9674 11.128C41.9674 13.352 43.4874 15.192 45.9354 15.192ZM45.9354 13.704C44.5114 13.704 43.7114 12.504 43.7114 11.128C43.7114 9.768 44.5114 8.568 45.9354 8.568C47.3754 8.568 48.1754 9.768 48.1754 11.128C48.1754 12.504 47.3754 13.704 45.9354 13.704ZM53.2993 15V4.328H51.6193V15H53.2993ZM57.7986 15.192C58.5826 15.192 59.0786 14.984 59.3826 14.696L58.9826 13.432C58.8546 13.576 58.5506 13.704 58.2306 13.704C57.7506 13.704 57.4946 13.32 57.4946 12.792V8.744H59.0626V7.272H57.4946V5.16H55.8146V7.272H54.5346V8.744H55.8146V13.208C55.8146 14.488 56.5026 15.192 57.7986 15.192ZM61.42 5.992C61.996 5.992 62.46 5.528 62.46 4.952C62.46 4.376 61.996 3.912 61.42 3.912C60.86 3.912 60.38 4.376 60.38 4.952C60.38 5.528 60.86 5.992 61.42 5.992ZM62.268 15V7.272H60.588V15H62.268ZM63.7754 13.992C64.5754 14.776 65.7754 15.192 67.0874 15.192C69.1674 15.192 70.3034 14.152 70.3034 12.792C70.3034 10.968 68.6554 10.584 67.3114 10.296C66.3994 10.088 65.6314 9.88 65.6314 9.288C65.6314 8.744 66.1914 8.424 67.0714 8.424C68.0314 8.424 68.8954 8.824 69.3594 9.352L70.0634 8.168C69.3594 7.544 68.3674 7.08 67.0554 7.08C65.1034 7.08 64.0154 8.168 64.0154 9.432C64.0154 11.16 65.5994 11.512 66.9274 11.8C67.8714 12.008 68.6874 12.248 68.6874 12.92C68.6874 13.496 68.1754 13.864 67.1674 13.864C66.1594 13.864 65.0874 13.336 64.5434 12.776L63.7754 13.992ZM71.3223 13.992C72.1223 14.776 73.3223 15.192 74.6343 15.192C76.7143 15.192 77.8503 14.152 77.8503 12.792C77.8503 10.968 76.2023 10.584 74.8583 10.296C73.9463 10.088 73.1783 9.88 73.1783 9.288C73.1783 8.744 73.7383 8.424 74.6183 8.424C75.5783 8.424 76.4423 8.824 76.9063 9.352L77.6103 8.168C76.9063 7.544 75.9143 7.08 74.6023 7.08C72.6503 7.08 71.5623 8.168 71.5623 9.432C71.5623 11.16 73.1463 11.512 74.4743 11.8C75.4183 12.008 76.2343 12.248 76.2343 12.92C76.2343 13.496 75.7223 13.864 74.7143 13.864C73.7063 13.864 72.6343 13.336 72.0903 12.776L71.3223 13.992ZM80.3731 5.992C80.9491 5.992 81.4131 5.528 81.4131 4.952C81.4131 4.376 80.9491 3.912 80.3731 3.912C79.8131 3.912 79.3331 4.376 79.3331 4.952C79.3331 5.528 79.8131 5.992 80.3731 5.992ZM81.2211 15V7.272H79.5411V15H81.2211ZM94.5525 15V9.416C94.5525 7.848 93.7525 7.08 92.3285 7.08C91.1765 7.08 90.1525 7.8 89.7045 8.504C89.4485 7.656 88.7445 7.08 87.5925 7.08C86.4245 7.08 85.4005 7.848 85.0805 8.328V7.272H83.4005V15H85.0805V9.608C85.4325 9.096 86.1205 8.568 86.8565 8.568C87.7685 8.568 88.1365 9.128 88.1365 9.96V15H89.8165V9.592C90.1525 9.096 90.8565 8.568 91.6085 8.568C92.5045 8.568 92.8725 9.128 92.8725 9.96V15H94.5525ZM100.217 15.192C102.697 15.192 104.201 13.352 104.201 11.128C104.201 8.92 102.697 7.08 100.217 7.08C97.7686 7.08 96.2486 8.92 96.2486 11.128C96.2486 13.352 97.7686 15.192 100.217 15.192ZM100.217 13.704C98.7926 13.704 97.9926 12.504 97.9926 11.128C97.9926 9.768 98.7926 8.568 100.217 8.568C101.657 8.568 102.457 9.768 102.457 11.128C102.457 12.504 101.657 13.704 100.217 13.704Z" fill="#FCFCF3"/>
<circle cx="10" cy="10" r="10" fill="#493C3C"/>
<path d="M169.224 15V4.328H166.584L163.672 11.512L160.776 4.328H158.136V15H160.008V6.92L163.272 15H164.072L167.352 6.92V15H169.224ZM174.935 15.192C177.415 15.192 178.919 13.352 178.919 11.128C178.919 8.92 177.415 7.08 174.935 7.08C172.487 7.08 170.967 8.92 170.967 11.128C170.967 13.352 172.487 15.192 174.935 15.192ZM174.935 13.704C173.511 13.704 172.711 12.504 172.711 11.128C172.711 9.768 173.511 8.568 174.935 8.568C176.375 8.568 177.175 9.768 177.175 11.128C177.175 12.504 176.375 13.704 174.935 13.704ZM182.299 15V4.328H180.619V15H182.299ZM186.799 15.192C187.583 15.192 188.079 14.984 188.383 14.696L187.983 13.432C187.855 13.576 187.551 13.704 187.231 13.704C186.751 13.704 186.495 13.32 186.495 12.792V8.744H188.063V7.272H186.495V5.16H184.815V7.272H183.535V8.744H184.815V13.208C184.815 14.488 185.503 15.192 186.799 15.192ZM193.076 15.192C195.556 15.192 197.06 13.352 197.06 11.128C197.06 8.92 195.556 7.08 193.076 7.08C190.628 7.08 189.108 8.92 189.108 11.128C189.108 13.352 190.628 15.192 193.076 15.192ZM193.076 13.704C191.652 13.704 190.852 12.504 190.852 11.128C190.852 9.768 191.652 8.568 193.076 8.568C194.516 8.568 195.316 9.768 195.316 11.128C195.316 12.504 194.516 13.704 193.076 13.704Z" fill="#FCFCF3"/>
<circle cx="139" cy="10" r="10" fill="#58E1DB"/>
<path d="M260.736 15L256.544 4.328H254.208L250.016 15H252.064L252.848 12.952H257.904L258.688 15H260.736ZM257.376 11.304H253.376L255.376 5.912L257.376 11.304ZM263.534 15V13.944C264.126 14.712 265.006 15.192 266.014 15.192C267.982 15.192 269.438 13.688 269.438 11.144C269.438 8.648 267.998 7.08 266.014 7.08C265.038 7.08 264.142 7.528 263.534 8.344V4.328H261.854V15H263.534ZM263.534 9.624C263.902 9.048 264.734 8.568 265.518 8.568C266.862 8.568 267.71 9.64 267.71 11.144C267.71 12.648 266.862 13.704 265.518 13.704C264.734 13.704 263.902 13.256 263.534 12.68V9.624ZM272.831 15V13.944C273.423 14.712 274.303 15.192 275.311 15.192C277.279 15.192 278.735 13.688 278.735 11.144C278.735 8.648 277.295 7.08 275.311 7.08C274.335 7.08 273.439 7.528 272.831 8.344V4.328H271.151V15H272.831ZM272.831 9.624C273.199 9.048 274.031 8.568 274.815 8.568C276.159 8.568 277.007 9.64 277.007 11.144C277.007 12.648 276.159 13.704 274.815 13.704C274.031 13.704 273.199 13.256 272.831 12.68V9.624ZM286.847 15V9.88C286.847 7.8 285.343 7.08 283.631 7.08C282.399 7.08 281.279 7.48 280.383 8.328L281.071 9.496C281.743 8.84 282.495 8.52 283.359 8.52C284.431 8.52 285.167 9.064 285.167 9.96V11.112C284.607 10.456 283.711 10.12 282.671 10.12C281.407 10.12 279.983 10.856 279.983 12.632C279.983 14.344 281.407 15.192 282.671 15.192C283.695 15.192 284.591 14.824 285.167 14.168V15H286.847ZM285.167 13.24C284.783 13.768 284.063 14.04 283.327 14.04C282.383 14.04 281.679 13.496 281.679 12.664C281.679 11.816 282.383 11.272 283.327 11.272C284.063 11.272 284.783 11.544 285.167 12.072V13.24ZM288.354 13.992C289.154 14.776 290.354 15.192 291.666 15.192C293.746 15.192 294.882 14.152 294.882 12.792C294.882 10.968 293.234 10.584 291.89 10.296C290.978 10.088 290.21 9.88 290.21 9.288C290.21 8.744 290.77 8.424 291.65 8.424C292.61 8.424 293.474 8.824 293.938 9.352L294.642 8.168C293.938 7.544 292.946 7.08 291.634 7.08C289.682 7.08 288.594 8.168 288.594 9.432C288.594 11.16 290.178 11.512 291.506 11.8C292.45 12.008 293.266 12.248 293.266 12.92C293.266 13.496 292.754 13.864 291.746 13.864C290.738 13.864 289.666 13.336 289.122 12.776L288.354 13.992ZM298.892 15.192C299.676 15.192 300.172 14.984 300.476 14.696L300.076 13.432C299.948 13.576 299.644 13.704 299.324 13.704C298.844 13.704 298.588 13.32 298.588 12.792V8.744H300.156V7.272H298.588V5.16H296.908V7.272H295.628V8.744H296.908V13.208C296.908 14.488 297.596 15.192 298.892 15.192ZM308.082 15V9.88C308.082 7.8 306.578 7.08 304.866 7.08C303.634 7.08 302.514 7.48 301.618 8.328L302.306 9.496C302.978 8.84 303.73 8.52 304.594 8.52C305.666 8.52 306.402 9.064 306.402 9.96V11.112C305.842 10.456 304.946 10.12 303.906 10.12C302.642 10.12 301.218 10.856 301.218 12.632C301.218 14.344 302.642 15.192 303.906 15.192C304.93 15.192 305.826 14.824 306.402 14.168V15H308.082ZM306.402 13.24C306.018 13.768 305.298 14.04 304.562 14.04C303.618 14.04 302.914 13.496 302.914 12.664C302.914 11.816 303.618 11.272 304.562 11.272C305.298 11.272 306.018 11.544 306.402 12.072V13.24ZM317.156 15V9.56C317.156 7.976 316.324 7.08 314.66 7.08C313.444 7.08 312.452 7.72 311.94 8.328V7.272H310.26V15H311.94V9.608C312.324 9.08 313.06 8.568 313.924 8.568C314.868 8.568 315.476 8.968 315.476 10.168V15H317.156ZM325.114 15V13.544H321.194L325.05 8.504V7.272H318.986V8.744H322.81L318.986 13.736V15H325.114ZM333.347 15V9.88C333.347 7.8 331.843 7.08 330.131 7.08C328.899 7.08 327.779 7.48 326.883 8.328L327.571 9.496C328.243 8.84 328.995 8.52 329.859 8.52C330.931 8.52 331.667 9.064 331.667 9.96V11.112C331.107 10.456 330.211 10.12 329.171 10.12C327.907 10.12 326.483 10.856 326.483 12.632C326.483 14.344 327.907 15.192 329.171 15.192C330.195 15.192 331.091 14.824 331.667 14.168V15H333.347ZM331.667 13.24C331.283 13.768 330.563 14.04 329.827 14.04C328.883 14.04 328.179 13.496 328.179 12.664C328.179 11.816 328.883 11.272 329.827 11.272C330.563 11.272 331.283 11.544 331.667 12.072V13.24Z" fill="#FCFCF3"/>
<circle cx="232" cy="10" r="10" fill="#7DBF90"/>
<path d="M393.176 15.192C395.416 15.192 396.728 14.072 397.544 12.792L395.944 11.976C395.432 12.872 394.408 13.528 393.176 13.528C391.144 13.528 389.576 11.912 389.576 9.672C389.576 7.432 391.144 5.816 393.176 5.816C394.408 5.816 395.432 6.488 395.944 7.368L397.544 6.552C396.744 5.272 395.416 4.152 393.176 4.152C390.104 4.152 387.656 6.392 387.656 9.672C387.656 12.952 390.104 15.192 393.176 15.192ZM402.482 15.192C404.962 15.192 406.466 13.352 406.466 11.128C406.466 8.92 404.962 7.08 402.482 7.08C400.034 7.08 398.514 8.92 398.514 11.128C398.514 13.352 400.034 15.192 402.482 15.192ZM402.482 13.704C401.058 13.704 400.258 12.504 400.258 11.128C400.258 9.768 401.058 8.568 402.482 8.568C403.922 8.568 404.722 9.768 404.722 11.128C404.722 12.504 403.922 13.704 402.482 13.704ZM407.494 13.992C408.294 14.776 409.494 15.192 410.806 15.192C412.886 15.192 414.022 14.152 414.022 12.792C414.022 10.968 412.374 10.584 411.03 10.296C410.118 10.088 409.35 9.88 409.35 9.288C409.35 8.744 409.91 8.424 410.79 8.424C411.75 8.424 412.614 8.824 413.078 9.352L413.782 8.168C413.078 7.544 412.086 7.08 410.774 7.08C408.822 7.08 407.734 8.168 407.734 9.432C407.734 11.16 409.318 11.512 410.646 11.8C411.59 12.008 412.406 12.248 412.406 12.92C412.406 13.496 411.894 13.864 410.886 13.864C409.878 13.864 408.806 13.336 408.262 12.776L407.494 13.992ZM417.137 6.104L414.897 3.8H413.297L415.937 6.104H417.137ZM417.393 15V7.272H415.713V15H417.393ZM423.202 11.128C423.202 13.48 424.85 15.192 427.202 15.192C428.706 15.192 429.618 14.552 430.162 13.816L429.058 12.792C428.626 13.384 428.034 13.704 427.282 13.704C425.874 13.704 424.946 12.632 424.946 11.128C424.946 9.624 425.874 8.568 427.282 8.568C428.034 8.568 428.626 8.872 429.058 9.48L430.162 8.456C429.618 7.72 428.706 7.08 427.202 7.08C424.85 7.08 423.202 8.792 423.202 11.128ZM435.123 15.192C437.603 15.192 439.107 13.352 439.107 11.128C439.107 8.92 437.603 7.08 435.123 7.08C432.675 7.08 431.155 8.92 431.155 11.128C431.155 13.352 432.675 15.192 435.123 15.192ZM435.123 13.704C433.699 13.704 432.899 12.504 432.899 11.128C432.899 9.768 433.699 8.568 435.123 8.568C436.563 8.568 437.363 9.768 437.363 11.128C437.363 12.504 436.563 13.704 435.123 13.704ZM440.135 13.992C440.935 14.776 442.135 15.192 443.447 15.192C445.527 15.192 446.663 14.152 446.663 12.792C446.663 10.968 445.015 10.584 443.671 10.296C442.759 10.088 441.991 9.88 441.991 9.288C441.991 8.744 442.551 8.424 443.431 8.424C444.391 8.424 445.255 8.824 445.719 9.352L446.423 8.168C445.719 7.544 444.727 7.08 443.415 7.08C441.463 7.08 440.375 8.168 440.375 9.432C440.375 11.16 441.959 11.512 443.287 11.8C444.231 12.008 445.047 12.248 445.047 12.92C445.047 13.496 444.535 13.864 443.527 13.864C442.519 13.864 441.447 13.336 440.903 12.776L440.135 13.992ZM449.778 6.104L447.538 3.8H445.938L448.578 6.104H449.778ZM450.034 15V7.272H448.354V15H450.034Z" fill="#FCFCF3"/>
<circle cx="369" cy="10" r="10" fill="#93A2BF"/>
<path d="M507.008 15V11.016H509.824C512.048 11.016 513.312 9.48 513.312 7.672C513.312 5.864 512.064 4.328 509.824 4.328H505.136V15H507.008ZM511.392 7.672C511.392 8.696 510.624 9.368 509.568 9.368H507.008V5.976H509.568C510.624 5.976 511.392 6.648 511.392 7.672ZM518.076 15.192C520.556 15.192 522.06 13.352 522.06 11.128C522.06 8.92 520.556 7.08 518.076 7.08C515.628 7.08 514.108 8.92 514.108 11.128C514.108 13.352 515.628 15.192 518.076 15.192ZM518.076 13.704C516.652 13.704 515.852 12.504 515.852 11.128C515.852 9.768 516.652 8.568 518.076 8.568C519.516 8.568 520.316 9.768 520.316 11.128C520.316 12.504 519.516 13.704 518.076 13.704ZM523.28 11.128C523.28 13.48 524.928 15.192 527.28 15.192C528.784 15.192 529.696 14.552 530.24 13.816L529.136 12.792C528.704 13.384 528.112 13.704 527.36 13.704C525.952 13.704 525.024 12.632 525.024 11.128C525.024 9.624 525.952 8.568 527.36 8.568C528.112 8.568 528.704 8.872 529.136 9.48L530.24 8.456C529.696 7.72 528.784 7.08 527.28 7.08C524.928 7.08 523.28 8.792 523.28 11.128ZM535.201 15.192C537.681 15.192 539.185 13.352 539.185 11.128C539.185 8.92 537.681 7.08 535.201 7.08C532.753 7.08 531.233 8.92 531.233 11.128C531.233 13.352 532.753 15.192 535.201 15.192ZM535.201 13.704C533.777 13.704 532.977 12.504 532.977 11.128C532.977 9.768 533.777 8.568 535.201 8.568C536.641 8.568 537.441 9.768 537.441 11.128C537.441 12.504 536.641 13.704 535.201 13.704Z" fill="#FCFCF3"/>
<circle cx="486" cy="10" r="10" fill="#D6E3A2"/>
<path d="M595.008 15V11.016H597.824C600.048 11.016 601.312 9.48 601.312 7.672C601.312 5.864 600.064 4.328 597.824 4.328H593.136V15H595.008ZM599.392 7.672C599.392 8.696 598.624 9.368 597.568 9.368H595.008V5.976H597.568C598.624 5.976 599.392 6.648 599.392 7.672ZM602.108 11.128C602.108 13.576 603.836 15.192 606.156 15.192C607.388 15.192 608.524 14.808 609.292 14.072L608.524 12.968C607.98 13.512 607.084 13.816 606.332 13.816C604.876 13.816 603.996 12.856 603.868 11.688H609.836V11.288C609.836 8.856 608.348 7.08 606.028 7.08C603.74 7.08 602.108 8.888 602.108 11.128ZM606.028 8.456C607.548 8.456 608.172 9.592 608.204 10.504H603.852C603.932 9.56 604.588 8.456 606.028 8.456ZM613.174 15V9.736C613.51 9.192 614.454 8.712 615.158 8.712C615.366 8.712 615.542 8.728 615.686 8.76V7.096C614.678 7.096 613.75 7.672 613.174 8.408V7.272H611.494V15H613.174ZM628.047 15V9.56C628.047 7.976 627.215 7.08 625.551 7.08C624.335 7.08 623.343 7.72 622.831 8.328V7.272H621.151V15H622.831V9.608C623.215 9.08 623.951 8.568 624.815 8.568C625.759 8.568 626.367 8.968 626.367 10.168V15H628.047ZM631.061 5.992C631.637 5.992 632.101 5.528 632.101 4.952C632.101 4.376 631.637 3.912 631.061 3.912C630.501 3.912 630.021 4.376 630.021 4.952C630.021 5.528 630.501 5.992 631.061 5.992ZM631.909 15V7.272H630.229V15H631.909ZM633.608 11.128C633.608 13.576 635.336 15.192 637.656 15.192C638.888 15.192 640.024 14.808 640.792 14.072L640.024 12.968C639.48 13.512 638.584 13.816 637.832 13.816C636.376 13.816 635.496 12.856 635.368 11.688H641.336V11.288C641.336 8.856 639.848 7.08 637.528 7.08C635.24 7.08 633.608 8.888 633.608 11.128ZM637.528 8.456C639.048 8.456 639.672 9.592 639.704 10.504H635.352C635.432 9.56 636.088 8.456 637.528 8.456ZM649.89 15V9.56C649.89 7.976 649.058 7.08 647.394 7.08C646.178 7.08 645.186 7.72 644.674 8.328V7.272H642.994V15H644.674V9.608C645.058 9.08 645.794 8.568 646.658 8.568C647.602 8.568 648.21 8.968 648.21 10.168V15H649.89ZM654.392 15.192C655.176 15.192 655.672 14.984 655.976 14.696L655.576 13.432C655.448 13.576 655.144 13.704 654.824 13.704C654.344 13.704 654.088 13.32 654.088 12.792V8.744H655.656V7.272H654.088V5.16H652.408V7.272H651.128V8.744H652.408V13.208C652.408 14.488 653.096 15.192 654.392 15.192ZM656.702 11.128C656.702 13.576 658.43 15.192 660.75 15.192C661.982 15.192 663.118 14.808 663.886 14.072L663.118 12.968C662.574 13.512 661.678 13.816 660.926 13.816C659.47 13.816 658.59 12.856 658.462 11.688H664.43V11.288C664.43 8.856 662.942 7.08 660.622 7.08C658.334 7.08 656.702 8.888 656.702 11.128ZM660.622 8.456C662.142 8.456 662.766 9.592 662.798 10.504H658.446C658.526 9.56 659.182 8.456 660.622 8.456Z" fill="#FCFCF3"/>
<circle cx="574" cy="10" r="10" fill="#FCFCF3"/>
</svg>
