<svg width="207" height="170" viewBox="0 0 207 170" fill="none" xmlns="http://www.w3.org/2000/svg">
<path d="M51.19 83.693C51.3389 83.844 51.3853 84.0527 51.3077 84.2226C46.4349 94.898 46.0234 109.116 51.6053 123.869C56.6529 137.21 65.4907 148.313 75.6772 155.485C85.8634 162.656 97.3687 165.879 107.804 163.54L107.848 163.53L107.892 163.52L107.937 163.51L107.981 163.5L108.025 163.49L108.07 163.48L108.114 163.47L108.159 163.46L108.203 163.45L108.248 163.44L108.293 163.43L108.338 163.42L108.383 163.41L108.428 163.4L108.473 163.39L108.518 163.38L108.563 163.37L108.608 163.359L108.654 163.349L108.699 163.339L108.745 163.329L108.791 163.319L108.836 163.308L108.882 163.298L108.928 163.288L108.974 163.277L109.02 163.267L109.066 163.257L109.112 163.246L109.158 163.236L109.205 163.226L109.251 163.215L109.298 163.205L109.344 163.194L109.391 163.184L109.437 163.174L109.484 163.163L109.531 163.153L109.578 163.142L109.625 163.131L109.672 163.121L109.719 163.11L109.766 163.1L109.814 163.089L109.861 163.079L109.908 163.068L109.956 163.057L110.003 163.047L110.051 163.036L110.099 163.025L110.147 163.014L110.195 163.004L110.242 162.993L110.29 162.982L110.339 162.971L110.387 162.961L110.435 162.95L110.483 162.939L110.532 162.928L110.58 162.917L110.628 162.906L110.677 162.896L110.726 162.885L110.774 162.874L110.823 162.863L110.872 162.852L110.921 162.841L110.97 162.83L111.019 162.819L111.068 162.808L111.117 162.797L111.167 162.786L111.216 162.775L111.265 162.764L111.315 162.753L111.365 162.741L111.414 162.73L111.464 162.719L111.514 162.708L111.563 162.697L111.613 162.686L111.663 162.674L111.713 162.663L111.763 162.652L111.814 162.641L111.864 162.629L111.914 162.618L111.965 162.607L112.015 162.596L112.066 162.584L112.116 162.573L112.167 162.562L112.217 162.55L112.268 162.539L112.319 162.527L112.37 162.516L112.421 162.505L112.472 162.493L112.523 162.482L112.574 162.47L112.626 162.459L112.677 162.447L112.728 162.436L112.78 162.424L112.831 162.413L112.883 162.401L112.934 162.389L112.986 162.378L113.038 162.366L113.09 162.355L113.142 162.343L113.194 162.331L113.246 162.32L113.298 162.308L113.35 162.296L113.402 162.285L113.454 162.273L113.507 162.261L113.559 162.249L113.612 162.238L113.664 162.226L113.717 162.214L113.769 162.202L113.822 162.19L113.875 162.179L113.928 162.167L113.981 162.155L114.034 162.143L114.087 162.131L114.14 162.119L114.193 162.107L114.246 162.095L114.299 162.083L114.353 162.071L114.406 162.059L114.46 162.047L114.513 162.035L114.567 162.023L114.621 162.011L114.674 161.999L114.728 161.987L114.782 161.975L114.836 161.963L114.89 161.951L114.944 161.939L114.998 161.927L115.052 161.915L115.106 161.903L115.16 161.89L115.215 161.878L115.269 161.866L115.324 161.854L115.378 161.842L115.433 161.829L115.487 161.817L115.542 161.805L115.597 161.793L115.651 161.78L115.706 161.768L115.761 161.756L115.816 161.743L115.871 161.731L115.926 161.719L115.981 161.706L116.037 161.694L116.092 161.682L116.147 161.669L116.203 161.657L116.258 161.644L116.313 161.632L116.369 161.619L116.425 161.607L116.48 161.594L116.536 161.582L116.592 161.569L116.648 161.557L116.703 161.544L116.759 161.532L116.815 161.519L116.871 161.507L116.927 161.494L116.984 161.482L117.04 161.469L117.096 161.456L117.152 161.444L117.209 161.431L117.265 161.418L117.322 161.406L117.378 161.393L117.435 161.38L117.492 161.368L117.548 161.355L117.605 161.342L117.662 161.33L117.719 161.317L117.776 161.304L117.833 161.291L117.89 161.278L117.947 161.266L118.004 161.253L118.061 161.24L118.118 161.227L118.176 161.214L118.233 161.201L118.29 161.189L118.348 161.176L118.405 161.163L118.463 161.15L118.52 161.137L118.578 161.124L118.636 161.111L118.694 161.098L118.751 161.085L118.809 161.072L118.867 161.059L118.925 161.046L118.983 161.033L119.041 161.02L119.099 161.007L119.158 160.994L119.216 160.981L119.274 160.968L119.332 160.955L119.391 160.942L119.449 160.929L119.508 160.916L119.566 160.903L119.625 160.889L119.683 160.876L119.742 160.863L119.801 160.85L119.86 160.837L119.918 160.824L119.977 160.81L120.036 160.797L120.095 160.784L120.154 160.771L120.213 160.757L120.272 160.744L120.332 160.731L120.391 160.718L120.45 160.704L120.509 160.691L120.569 160.678L120.628 160.664L120.687 160.651L120.747 160.638L120.806 160.624L120.866 160.611L120.926 160.598L120.985 160.584L121.045 160.571L121.105 160.558L121.165 160.544L121.225 160.531L121.284 160.517L121.344 160.504L121.404 160.49L121.465 160.477L121.525 160.463L121.585 160.45L121.645 160.436L121.705 160.423L121.765 160.409L121.826 160.396L121.886 160.382L121.947 160.369L122.007 160.355L122.067 160.342L122.128 160.328L122.189 160.315L122.249 160.301L122.31 160.287L122.371 160.274L122.431 160.26L122.492 160.247L122.553 160.233L122.614 160.219L122.675 160.206L122.736 160.192L122.797 160.178L122.858 160.165L122.919 160.151L122.98 160.137L123.041 160.123L123.103 160.11L123.164 160.096L123.225 160.082L123.287 160.068L123.348 160.055L123.409 160.041L123.471 160.027L123.532 160.013L123.594 159.999L123.656 159.986L123.717 159.972L123.779 159.958L123.841 159.944L123.902 159.93L123.964 159.916L124.026 159.903L124.088 159.889L124.15 159.875L124.212 159.861L124.274 159.847L124.336 159.833L124.398 159.819L124.46 159.805L124.522 159.791L124.584 159.777L124.647 159.763L124.709 159.749L124.771 159.735L124.834 159.722L124.896 159.708L124.959 159.694L125.021 159.68L125.084 159.666L125.146 159.651L125.209 159.637L125.271 159.623L125.334 159.609L125.397 159.595L125.459 159.581L125.522 159.567L125.585 159.553L125.648 159.539L125.711 159.525L125.774 159.511L125.837 159.497L125.9 159.483L125.963 159.468L126.026 159.454L126.089 159.44L126.152 159.426L126.215 159.412L126.278 159.398L126.342 159.383L126.405 159.369L126.468 159.355L126.532 159.341L126.595 159.327L126.658 159.312L126.722 159.298L126.785 159.284L126.849 159.27L126.912 159.255L126.976 159.241L127.04 159.227L127.103 159.213L127.167 159.198L127.231 159.184L127.294 159.17L127.358 159.155L127.422 159.141L127.486 159.127L127.55 159.113L127.614 159.098L127.678 159.084L127.742 159.07L127.806 159.055L127.87 159.041L127.934 159.026L127.998 159.012L128.062 158.998L128.126 158.983L128.191 158.969L128.255 158.954L128.319 158.94L128.383 158.926L128.448 158.911L128.512 158.897L128.577 158.882L128.641 158.868L128.705 158.853L128.77 158.839L128.834 158.825L128.899 158.81L128.964 158.796L129.028 158.781L129.093 158.767L129.158 158.752L129.222 158.738L129.287 158.723L129.352 158.709L129.417 158.694L129.481 158.679L129.546 158.665L129.611 158.65L129.676 158.636L129.741 158.621L129.806 158.607L129.871 158.592L129.936 158.578L130.001 158.563L130.066 158.548L130.131 158.534L130.196 158.519L130.262 158.505L130.327 158.49L130.392 158.475L130.457 158.461L130.523 158.446L130.588 158.431L130.653 158.417L130.719 158.402L130.784 158.387L130.849 158.373L130.915 158.358L130.98 158.343L131.046 158.329L131.111 158.314L131.177 158.299L131.242 158.285L131.308 158.27L131.374 158.255L131.439 158.241L131.505 158.226L131.571 158.211L131.636 158.196L131.702 158.182L131.768 158.167L131.834 158.152L131.899 158.137L131.965 158.123L132.031 158.108L132.097 158.093L132.163 158.078L132.229 158.063L132.295 158.049L132.361 158.034L132.427 158.019L132.493 158.004L132.559 157.989L132.625 157.975L132.691 157.96L132.757 157.945L132.823 157.93L132.889 157.915L132.956 157.901L133.022 157.886L133.088 157.871L133.154 157.856L133.221 157.841L133.287 157.826L133.353 157.811L133.42 157.796L133.486 157.782L133.552 157.767L133.619 157.752L133.685 157.737L133.752 157.722L133.818 157.707L133.884 157.692L133.951 157.677L134.018 157.662L134.084 157.647L134.151 157.633L134.217 157.618L134.284 157.603L134.35 157.588L134.417 157.573L134.484 157.558L134.55 157.543L134.617 157.528L134.684 157.513L134.751 157.498L134.817 157.483L134.884 157.468L134.951 157.453L135.018 157.438L135.085 157.423L135.151 157.408L135.218 157.393L135.285 157.378L135.352 157.363L135.419 157.348L135.486 157.333L135.553 157.318L135.62 157.303L135.687 157.288L135.754 157.273L135.821 157.258L135.888 157.243L135.955 157.228L136.022 157.213L136.089 157.198L136.156 157.183L136.223 157.168L136.291 157.153L136.358 157.138L136.425 157.123L136.492 157.108L136.559 157.093L136.627 157.077L136.694 157.062L136.761 157.047L136.828 157.032L136.896 157.017L136.963 157.002L137.03 156.987L137.098 156.972L137.165 156.957L137.232 156.942L137.3 156.927L137.367 156.911L137.434 156.896L137.502 156.881L137.569 156.866L137.637 156.851L137.704 156.836L137.772 156.821C137.909 156.79 138.061 156.816 138.191 156.893C138.32 156.97 138.415 157.09 138.451 157.225C138.496 157.391 138.533 157.562 138.567 157.718C138.579 157.773 138.59 157.825 138.602 157.876C138.647 158.08 138.695 158.265 138.763 158.446C141.69 166.182 151.389 170.912 160.474 168.875C169.559 166.838 174.45 158.837 171.523 151.101C171.426 150.845 171.306 150.632 171.167 150.385C171.093 150.255 171.015 150.116 170.931 149.955C170.864 149.826 170.857 149.683 170.911 149.561C170.966 149.44 171.077 149.353 171.217 149.322L171.242 149.316L171.266 149.311L171.291 149.305L171.316 149.3L171.341 149.294L171.365 149.289L171.39 149.283L171.415 149.278L171.439 149.272L171.464 149.267L171.489 149.261L171.513 149.255L171.538 149.25L171.563 149.244L171.587 149.239L171.612 149.233L171.636 149.228L171.661 149.222L171.686 149.217L171.71 149.211L171.735 149.206L171.759 149.2L171.784 149.195L171.809 149.189L171.833 149.184L171.858 149.178L171.882 149.173L171.907 149.167L171.931 149.162L171.956 149.156L171.98 149.151L172.005 149.145L172.03 149.14L172.054 149.134L172.079 149.129L172.103 149.123L172.128 149.118L172.152 149.112L172.176 149.107L172.201 149.101L172.225 149.096L172.25 149.09L172.274 149.085L172.299 149.079L172.323 149.074L172.348 149.068L172.372 149.063L172.396 149.057L172.421 149.052L172.445 149.047L172.47 149.041L172.494 149.036L172.518 149.03L172.543 149.025L172.567 149.019L172.592 149.014L172.616 149.008L172.64 149.003L172.665 148.997L172.689 148.992L172.713 148.986L172.737 148.981L172.762 148.976L172.786 148.97L172.81 148.965L172.835 148.959L172.859 148.954L172.883 148.948L172.907 148.943L172.932 148.937L172.956 148.932L172.98 148.927L173.004 148.921L173.029 148.916L173.053 148.91L173.077 148.905L173.101 148.899L173.125 148.894L173.15 148.889L173.174 148.883L173.198 148.878L173.222 148.872L173.246 148.867L173.27 148.862L173.295 148.856L173.319 148.851L173.343 148.845L173.367 148.84L173.391 148.834L173.415 148.829L173.439 148.824L173.463 148.818L173.487 148.813L173.511 148.807L173.536 148.802L173.56 148.797L173.584 148.791L173.608 148.786L173.632 148.781L173.656 148.775L173.68 148.77L173.704 148.764L173.728 148.759L173.752 148.754L173.776 148.748L173.8 148.743L173.824 148.738L173.847 148.732L173.871 148.727L173.895 148.721L173.919 148.716L173.943 148.711L173.967 148.705L173.991 148.7L174.015 148.695L174.039 148.689L174.063 148.684L174.087 148.679L174.11 148.673L174.134 148.668L174.158 148.663L174.182 148.657L174.206 148.652L174.23 148.646L174.253 148.641L174.277 148.636L174.301 148.63L174.325 148.625L174.348 148.62L174.372 148.615L174.396 148.609L174.42 148.604L174.443 148.599L174.467 148.593L174.491 148.588L174.515 148.583L174.538 148.577L174.562 148.572L174.586 148.567L174.609 148.561L174.633 148.556L174.657 148.551L174.68 148.545L174.704 148.54L174.727 148.535L174.751 148.53L174.775 148.524L174.798 148.519L174.822 148.514L174.845 148.508L174.869 148.503L174.893 148.498L174.916 148.493L174.94 148.487L174.963 148.482L174.987 148.477L175.01 148.471L175.034 148.466L175.057 148.461L175.081 148.456L175.104 148.45L175.128 148.445L175.151 148.44L175.175 148.435L175.198 148.429L175.221 148.424L175.245 148.419L175.268 148.414L175.292 148.408L175.315 148.403L175.338 148.398L175.362 148.393L175.385 148.387L175.408 148.382L175.432 148.377L175.455 148.372L175.478 148.366L175.502 148.361L175.525 148.356L175.548 148.351L175.572 148.346L175.595 148.34L175.618 148.335L175.641 148.33L175.665 148.325L175.688 148.32L175.711 148.314L175.734 148.309L175.757 148.304L175.781 148.299L175.804 148.294L175.827 148.288L175.85 148.283L175.873 148.278L175.896 148.273L175.92 148.268L175.943 148.262L175.966 148.257L175.989 148.252L176.012 148.247L176.035 148.242L176.058 148.237L176.081 148.231L176.104 148.226L176.127 148.221L176.15 148.216L176.173 148.211L176.196 148.206L176.219 148.2L176.242 148.195L176.265 148.19L176.288 148.185L176.311 148.18L176.334 148.175L176.357 148.17L176.38 148.164L176.403 148.159L176.426 148.154L176.448 148.149L176.471 148.144L176.494 148.139L176.517 148.134L176.54 148.128L176.563 148.123L176.585 148.118L176.608 148.113L176.631 148.108L176.654 148.103L176.677 148.098L176.699 148.093L176.722 148.088L176.745 148.083L176.768 148.077L176.79 148.072L176.813 148.067L176.836 148.062L176.858 148.057L176.881 148.052L176.904 148.047L176.926 148.042L176.949 148.037L176.972 148.032L176.994 148.027L177.017 148.022L177.039 148.016L177.062 148.011L177.085 148.006L177.107 148.001L177.13 147.996L177.152 147.991L177.175 147.986L177.197 147.981L177.22 147.976L177.242 147.971L177.265 147.966L177.287 147.961L177.31 147.956L177.332 147.951L177.354 147.946L177.377 147.941L177.399 147.936L177.422 147.931L177.444 147.926L177.466 147.921L177.489 147.916L177.511 147.911L177.533 147.906L177.556 147.901L177.578 147.896L177.6 147.891L177.623 147.886L177.645 147.881L177.667 147.876L177.689 147.871L177.712 147.866L177.734 147.861L177.756 147.856L177.778 147.851L177.8 147.846L177.823 147.841L177.845 147.836L177.867 147.831L177.889 147.826L177.911 147.821L177.933 147.816L177.955 147.811L177.978 147.806L178 147.801L178.022 147.796L178.044 147.791L178.066 147.786L178.088 147.781L178.11 147.776L178.132 147.772L178.154 147.767L178.176 147.762L178.198 147.757L178.22 147.752L178.242 147.747L178.264 147.742L178.285 147.737L178.307 147.732L178.329 147.727L178.351 147.722L178.373 147.717L178.395 147.713L178.417 147.708L178.439 147.703L178.46 147.698L178.482 147.693L178.504 147.688L178.526 147.683L178.547 147.678L178.569 147.673L178.591 147.669L178.613 147.664L178.634 147.659L178.656 147.654L178.678 147.649L178.699 147.644L178.721 147.639L178.743 147.635L178.764 147.63L178.786 147.625L178.808 147.62L178.829 147.615L178.851 147.61L178.872 147.606L178.894 147.601L178.915 147.596L178.937 147.591L178.958 147.586L178.98 147.581L179.001 147.577L179.023 147.572L179.044 147.567L179.066 147.562L179.087 147.557L179.109 147.553L179.13 147.548L179.151 147.543L179.173 147.538L179.194 147.533L179.215 147.529L179.237 147.524L179.258 147.519L179.279 147.514L179.301 147.509L179.322 147.505L179.343 147.5L179.365 147.495L179.386 147.49L179.407 147.486L179.428 147.481L179.449 147.476L179.471 147.471L179.492 147.467L179.513 147.462L179.534 147.457L179.555 147.452L179.576 147.448L179.597 147.443L179.618 147.438L179.64 147.434L179.661 147.429L179.682 147.424L179.703 147.419L179.724 147.415L179.745 147.41L179.766 147.405L179.787 147.401L179.808 147.396L179.829 147.391L179.849 147.386L179.87 147.382L179.891 147.377L179.912 147.372L179.933 147.368L179.954 147.363L179.975 147.358L179.996 147.354L180.016 147.349L180.037 147.344L180.058 147.34L180.079 147.335L180.1 147.33L180.12 147.326L180.141 147.321L180.162 147.316L180.182 147.312L180.203 147.307L180.224 147.303L180.244 147.298L180.265 147.293L180.286 147.289L180.306 147.284L180.327 147.279L180.347 147.275L180.368 147.27L180.389 147.266L180.409 147.261L180.43 147.256L180.45 147.252L180.471 147.247L180.491 147.243L180.512 147.238L180.532 147.233L180.552 147.229L180.573 147.224L180.593 147.22L180.614 147.215L180.634 147.211L180.654 147.206L180.675 147.201L180.695 147.197L180.715 147.192L180.736 147.188L180.756 147.183L180.776 147.179L180.796 147.174L180.817 147.17L180.837 147.165L180.857 147.161L180.877 147.156L180.897 147.151L180.918 147.147L180.938 147.142L180.958 147.138L180.978 147.133L180.998 147.129L181.018 147.124L181.038 147.12L181.058 147.115L181.078 147.111L181.098 147.106L181.118 147.102L181.138 147.097L181.158 147.093L181.178 147.089L181.198 147.084L181.218 147.08L181.238 147.075L181.258 147.071L181.278 147.066L181.298 147.062L181.317 147.057L181.337 147.053L181.357 147.048L181.377 147.044L181.397 147.04L181.416 147.035L181.436 147.031L181.456 147.026L181.476 147.022L181.495 147.017L181.515 147.013L181.535 147.009L181.554 147.004L181.574 147L181.593 146.995L181.613 146.991L181.633 146.987L181.652 146.982L181.672 146.978L181.691 146.973L181.711 146.969L181.73 146.965L181.75 146.96L181.769 146.956L181.789 146.952L181.808 146.947L181.828 146.943L181.847 146.939L181.866 146.934L181.886 146.93L181.905 146.926L181.924 146.921L181.944 146.917L181.963 146.913L181.982 146.908L182.002 146.904L182.021 146.9L182.04 146.895L182.059 146.891L182.079 146.887L182.098 146.882L182.117 146.878L182.136 146.874L182.155 146.869L182.174 146.865L182.193 146.861L182.213 146.857L182.232 146.852L182.251 146.848L182.27 146.844L182.289 146.84L182.308 146.835L182.327 146.831L182.346 146.827L182.365 146.823L182.384 146.818L182.402 146.814L182.421 146.81L182.44 146.806L182.459 146.801L182.478 146.797L182.497 146.793L182.516 146.789L182.534 146.784L182.553 146.78L182.572 146.776L182.591 146.772C193.026 144.432 200.48 136.958 204.067 126.698C207.655 116.439 207.362 103.42 202.314 90.0786C198.744 80.6413 193.357 72.4097 186.863 65.8099C186.782 65.7282 186.679 65.6391 186.554 65.5302L186.548 65.5253C186.433 65.4259 186.298 65.3083 186.181 65.1901C185.646 64.6672 185.105 64.2017 184.547 63.7205C184.224 63.443 183.896 63.1604 183.56 62.8585C166.089 47.2113 136.964 31.6127 112.154 19.9111C99.7591 14.0649 88.4587 9.19952 80.2571 5.79572C76.1565 4.09389 72.831 2.75761 70.5311 1.84697C69.3812 1.39166 68.4877 1.04277 67.882 0.807812C67.5791 0.690334 67.3482 0.601341 67.1931 0.54177L67.1225 0.514682L2.17122 15.0774L0.649342 32.4334L51.19 83.693ZM164.156 150.907C164.395 150.854 164.662 150.974 164.786 151.191C164.856 151.314 164.937 151.422 165.041 151.561C165.074 151.604 165.108 151.65 165.145 151.7C165.291 151.897 165.458 152.14 165.571 152.437C167.48 157.483 164.296 162.564 158.574 163.847C152.851 165.13 146.62 162.158 144.712 157.114C144.599 156.817 144.572 156.543 144.557 156.317C144.554 156.26 144.551 156.208 144.548 156.159C144.539 155.998 144.532 155.872 144.506 155.739C144.458 155.504 144.599 155.292 144.839 155.238L144.877 155.23L144.916 155.221L144.955 155.212L144.994 155.204L145.033 155.195L145.071 155.186L145.11 155.177L145.149 155.169L145.188 155.16L145.226 155.151L145.265 155.143L145.304 155.134L145.343 155.125L145.382 155.117L145.42 155.108L145.459 155.099L145.498 155.09L145.537 155.082L145.575 155.073L145.614 155.064L145.653 155.056L145.692 155.047L145.731 155.038L145.769 155.03L145.808 155.021L145.847 155.012L145.886 155.004L145.924 154.995L145.963 154.986L146.002 154.977L146.041 154.969L146.079 154.96L146.118 154.951L146.157 154.943L146.196 154.934L146.234 154.925L146.273 154.917L146.312 154.908L146.35 154.899L146.389 154.891L146.428 154.882L146.467 154.873L146.505 154.865L146.544 154.856L146.583 154.847L146.622 154.839L146.66 154.83L146.699 154.821L146.738 154.812L146.776 154.804L146.815 154.795L146.854 154.786L146.893 154.778L146.931 154.769L146.97 154.76L147.009 154.752L147.047 154.743L147.086 154.734L147.125 154.726L147.164 154.717L147.202 154.708L147.241 154.7L147.28 154.691L147.318 154.682L147.357 154.674L147.396 154.665L147.434 154.656L147.473 154.648L147.512 154.639L147.55 154.63L147.589 154.622L147.628 154.613L147.666 154.604L147.705 154.596L147.744 154.587L147.782 154.578L147.821 154.57L147.86 154.561L147.898 154.552L147.937 154.544L147.976 154.535L148.014 154.526L148.053 154.518L148.091 154.509L148.13 154.5L148.169 154.492L148.207 154.483L148.246 154.474L148.285 154.466L148.323 154.457L148.362 154.448L148.4 154.44L148.439 154.431L148.478 154.422L148.516 154.414L148.555 154.405L148.593 154.396L148.632 154.388L148.671 154.379L148.709 154.37L148.748 154.362L148.786 154.353L148.825 154.345L148.864 154.336L148.902 154.327L148.941 154.319L148.979 154.31L149.018 154.301L149.056 154.293L149.095 154.284L149.133 154.275L149.172 154.267L149.211 154.258L149.249 154.249L149.288 154.241L149.326 154.232L149.365 154.223L149.403 154.215L149.442 154.206L149.48 154.198L149.519 154.189L149.557 154.18L149.596 154.172L149.634 154.163L149.673 154.154L149.711 154.146L149.75 154.137L149.788 154.128L149.827 154.12L149.865 154.111L149.904 154.103L149.942 154.094L149.981 154.085L150.019 154.077L150.058 154.068L150.096 154.059L150.135 154.051L150.173 154.042L150.212 154.034L150.25 154.025L150.289 154.016L150.327 154.008L150.366 153.999L150.404 153.99L150.442 153.982L150.481 153.973L150.519 153.965L150.558 153.956L150.596 153.947L150.635 153.939L150.673 153.93L150.711 153.922L150.75 153.913L150.788 153.904L150.827 153.896L150.865 153.887L150.903 153.878L150.942 153.87L150.98 153.861L151.019 153.853L151.057 153.844L151.095 153.835L151.134 153.827L151.172 153.818L151.21 153.81L151.249 153.801L151.287 153.792L151.326 153.784L151.364 153.775L151.402 153.767L151.441 153.758L151.479 153.749L151.517 153.741L151.556 153.732L151.594 153.724L151.632 153.715L151.67 153.707L151.709 153.698L151.747 153.689L151.785 153.681L151.824 153.672L151.862 153.664L151.9 153.655L151.939 153.646L151.977 153.638L152.015 153.629L152.053 153.621L152.092 153.612L152.13 153.604L152.168 153.595L152.206 153.586L152.245 153.578L152.283 153.569L152.321 153.561L152.359 153.552L152.398 153.543L152.436 153.535L152.474 153.526L152.512 153.518L152.55 153.509L152.589 153.501L152.627 153.492L152.665 153.484L152.703 153.475L152.741 153.466L152.78 153.458L152.818 153.449L152.856 153.441L152.894 153.432L152.932 153.424L152.97 153.415L153.009 153.406L153.047 153.398L153.085 153.389L153.123 153.381L153.161 153.372L153.199 153.364L153.237 153.355L153.276 153.347L153.314 153.338L153.352 153.33L153.39 153.321L153.428 153.312L153.466 153.304L153.504 153.295L153.542 153.287L153.58 153.278L153.618 153.27L153.656 153.261L153.694 153.253L153.733 153.244L153.771 153.236L153.809 153.227L153.847 153.219L153.885 153.21L153.923 153.202L153.961 153.193L153.999 153.184L154.037 153.176L154.075 153.167L154.113 153.159L154.151 153.15L154.189 153.142L154.227 153.133L154.265 153.125L154.303 153.116L154.341 153.108L154.379 153.099L154.417 153.091L154.455 153.082L154.493 153.074L154.531 153.065L154.568 153.057L154.606 153.048L154.644 153.04L154.682 153.031L154.72 153.023L154.758 153.014L154.796 153.006L154.834 152.997L154.872 152.989L154.91 152.98L154.948 152.972L154.985 152.963L155.023 152.955L155.061 152.946L155.099 152.938L155.137 152.929L155.175 152.921L155.213 152.912L155.25 152.904L155.288 152.895L155.326 152.887L155.364 152.878L155.402 152.87L155.439 152.861L155.477 152.853L155.515 152.845L155.553 152.836L155.591 152.828L155.628 152.819L155.666 152.811L155.704 152.802L155.742 152.794L155.779 152.785L155.817 152.777L155.855 152.768L155.893 152.76L155.93 152.751L155.968 152.743L156.006 152.734L156.044 152.726L156.081 152.718L156.119 152.709L156.157 152.701L156.194 152.692L156.232 152.684L156.27 152.675L156.307 152.667L156.345 152.658L156.383 152.65L156.42 152.642L156.458 152.633L156.496 152.625L156.533 152.616L156.571 152.608L156.608 152.599L156.646 152.591L156.684 152.583L156.721 152.574L156.759 152.566L156.796 152.557L156.834 152.549L156.871 152.54L156.909 152.532L156.947 152.524L156.984 152.515L157.022 152.507L157.059 152.498L157.097 152.49L157.134 152.481L157.172 152.473L157.209 152.465L157.247 152.456L157.284 152.448L157.322 152.439L157.359 152.431L157.397 152.423L157.434 152.414L157.472 152.406L157.509 152.397L157.546 152.389L157.584 152.381L157.621 152.372L157.659 152.364L157.696 152.355L157.734 152.347L157.771 152.339L157.808 152.33L157.846 152.322L157.883 152.314L157.921 152.305L157.958 152.297L157.995 152.288L158.033 152.28L158.07 152.272L158.107 152.263L158.145 152.255L158.182 152.247L158.219 152.238L158.257 152.23L158.294 152.221L158.331 152.213L158.368 152.205L158.406 152.196L158.443 152.188L158.48 152.18L158.517 152.171L158.555 152.163L158.592 152.155L158.629 152.146L158.666 152.138L158.704 152.13L158.741 152.121L158.778 152.113L158.815 152.105L158.852 152.096L158.89 152.088L158.927 152.08L158.964 152.071L159.001 152.063L159.038 152.055L159.075 152.046L159.113 152.038L159.15 152.03L159.187 152.021L159.224 152.013L159.261 152.005L159.298 151.996L159.335 151.988L159.372 151.98L159.409 151.971L159.446 151.963L159.483 151.955L159.521 151.946L159.558 151.938L159.595 151.93L159.632 151.922L159.669 151.913L159.706 151.905L159.743 151.897L159.78 151.888L159.817 151.88L159.854 151.872L159.891 151.863L159.928 151.855L159.965 151.847L160.001 151.839L160.038 151.83L160.075 151.822L160.112 151.814L160.149 151.806L160.186 151.797L160.223 151.789L160.26 151.781L160.297 151.772L160.334 151.764L160.37 151.756L160.407 151.748L160.444 151.739L160.481 151.731L160.518 151.723L160.555 151.715L160.591 151.706L160.628 151.698L160.665 151.69L160.702 151.682L160.739 151.673L160.775 151.665L160.812 151.657L160.849 151.649L160.886 151.64L160.922 151.632L160.959 151.624L160.996 151.616L161.033 151.607L161.069 151.599L161.106 151.591L161.143 151.583L161.179 151.575L161.216 151.566L161.253 151.558L161.289 151.55L161.326 151.542L161.363 151.533L161.399 151.525L161.436 151.517L161.472 151.509L161.509 151.501L161.546 151.492L161.582 151.484L161.619 151.476L161.655 151.468L161.692 151.46L161.728 151.451L161.765 151.443L161.802 151.435L161.838 151.427L161.875 151.419L161.911 151.41L161.948 151.402L161.984 151.394L162.021 151.386L162.057 151.378L162.093 151.37L162.13 151.361L162.166 151.353L162.203 151.345L162.239 151.337L162.276 151.329L162.312 151.321L162.348 151.312L162.385 151.304L162.421 151.296L162.457 151.288L162.494 151.28L162.53 151.272L162.567 151.264L162.603 151.255L162.639 151.247L162.675 151.239L162.712 151.231L162.748 151.223L162.784 151.215L162.821 151.207L162.857 151.198L162.893 151.19L162.929 151.182L162.966 151.174L163.002 151.166L163.038 151.158L163.074 151.15L163.11 151.142L163.147 151.133L163.183 151.125L163.219 151.117L163.255 151.109L163.291 151.101L163.327 151.093L163.364 151.085L163.4 151.077L163.436 151.069L163.472 151.061L163.508 151.052L163.544 151.044L163.58 151.036L163.616 151.028L163.652 151.02L163.688 151.012L163.724 151.004L163.76 150.996L163.796 150.988L163.832 150.98L163.868 150.972L163.904 150.964L163.94 150.956L163.976 150.947L164.012 150.939L164.048 150.931L164.084 150.923L164.12 150.915L164.156 150.907ZM129.507 43.3395C129.705 43.4367 129.831 43.6298 129.826 43.8257C129.821 44.0216 129.685 44.1803 129.484 44.2254L75.0679 56.4261C74.9466 56.4533 74.8132 56.4362 74.6938 56.3781L58.9977 48.7423C58.799 48.6457 58.6712 48.4521 58.676 48.2553C58.6809 48.0585 58.8175 47.8992 59.0196 47.8546L113.85 35.7605C113.972 35.7337 114.106 35.7514 114.225 35.8103L129.507 43.3395ZM99.9394 152.266C93.0928 153.802 85.2937 151.097 78.3577 145.699C71.4151 140.296 65.2719 132.152 61.6787 122.655C58.0883 113.165 57.5922 103.762 59.6822 96.3399C61.7702 88.9244 66.4642 83.4224 73.3118 81.8871C80.1592 80.3518 87.9581 83.0528 94.8931 88.4452C101.835 93.8427 107.976 101.98 111.566 111.469C115.159 120.967 115.657 130.377 113.567 137.805C111.48 145.226 106.786 150.731 99.9394 152.266Z" fill="white" stroke="#0038FF" stroke-miterlimit="2.5593" stroke-linejoin="round"/>
</svg>
