<svg width="193" height="144" viewBox="0 0 193 144" fill="none" xmlns="http://www.w3.org/2000/svg">
<g clip-path="url(#clip0_1382:97)">
<path d="M48.6525 71.826C48.8016 71.9771 48.8482 72.186 48.7705 72.3559C44.7674 81.1141 44.4277 92.783 49.0165 104.895C53.1663 115.849 60.431 124.962 68.7999 130.845C77.1683 136.729 86.6116 139.368 95.1713 137.451L95.2076 137.443L95.2439 137.435L95.2803 137.427L95.3167 137.419L95.3532 137.411L95.3898 137.403L95.4264 137.394L95.4631 137.386L95.4998 137.378L95.5366 137.37L95.5735 137.361L95.6105 137.353L95.6475 137.345L95.6846 137.337L95.7217 137.328L95.7589 137.32L95.7962 137.312L95.8335 137.303L95.8709 137.295L95.9083 137.286L95.9458 137.278L95.9834 137.27L96.0211 137.261L96.0588 137.253L96.0965 137.244L96.1344 137.236L96.1722 137.227L96.2102 137.219L96.2482 137.21L96.2863 137.202L96.3244 137.193L96.3626 137.185L96.4009 137.176L96.4392 137.168L96.4776 137.159L96.516 137.15L96.5545 137.142L96.5931 137.133L96.6317 137.124L96.6704 137.116L96.7092 137.107L96.748 137.098L96.7868 137.09L96.8258 137.081L96.8648 137.072L96.9038 137.064L96.9429 137.055L96.9821 137.046L97.0213 137.037L97.0606 137.028L97.1 137.02L97.1394 137.011L97.1788 137.002L97.2184 136.993L97.2579 136.984L97.2976 136.975L97.3373 136.967L97.3771 136.958L97.4169 136.949L97.4568 136.94L97.4967 136.931L97.5367 136.922L97.5768 136.913L97.6169 136.904L97.657 136.895L97.6973 136.886L97.7376 136.877L97.7779 136.868L97.8183 136.859L97.8588 136.85L97.8993 136.841L97.9399 136.832L97.9805 136.822L98.0212 136.813L98.0619 136.804L98.1027 136.795L98.1436 136.786L98.1845 136.777L98.2255 136.768L98.2665 136.758L98.3076 136.749L98.3487 136.74L98.39 136.731L98.4312 136.722L98.4725 136.712L98.5139 136.703L98.5553 136.694L98.5968 136.685L98.6383 136.675L98.6799 136.666L98.7216 136.657L98.7633 136.647L98.805 136.638L98.8468 136.629L98.8887 136.619L98.9306 136.61L98.9726 136.6L99.0146 136.591L99.0567 136.582L99.0989 136.572L99.141 136.563L99.1833 136.553L99.2256 136.544L99.268 136.534L99.3104 136.525L99.3528 136.515L99.3953 136.506L99.4379 136.496L99.4805 136.487L99.5232 136.477L99.5659 136.467L99.6087 136.458L99.6516 136.448L99.6945 136.439L99.7374 136.429L99.7804 136.419L99.8234 136.41L99.8665 136.4L99.9097 136.391L99.9529 136.381L99.9962 136.371L100.039 136.361L100.083 136.352L100.126 136.342L100.17 136.332L100.213 136.323L100.257 136.313L100.3 136.303L100.344 136.293L100.388 136.283L100.432 136.274L100.475 136.264L100.519 136.254L100.563 136.244L100.607 136.234L100.651 136.224L100.695 136.215L100.739 136.205L100.784 136.195L100.828 136.185L100.872 136.175L100.916 136.165L100.961 136.155L101.005 136.145L101.05 136.135L101.094 136.125L101.139 136.115L101.183 136.105L101.228 136.095L101.273 136.085L101.318 136.075L101.362 136.065L101.407 136.055L101.452 136.045L101.497 136.035L101.542 136.025L101.587 136.015L101.632 136.005L101.678 135.995L101.723 135.985L101.768 135.974L101.813 135.964L101.859 135.954L101.904 135.944L101.95 135.934L101.995 135.924L102.041 135.913L102.086 135.903L102.132 135.893L102.177 135.883L102.223 135.873L102.269 135.862L102.315 135.852L102.361 135.842L102.407 135.831L102.453 135.821L102.499 135.811L102.545 135.801L102.591 135.79L102.637 135.78L102.683 135.77L102.729 135.759L102.776 135.749L102.822 135.738L102.868 135.728L102.915 135.718L102.961 135.707L103.008 135.697L103.054 135.686L103.101 135.676L103.148 135.666L103.194 135.655L103.241 135.645L103.288 135.634L103.335 135.624L103.381 135.613L103.428 135.603L103.475 135.592L103.522 135.582L103.569 135.571L103.616 135.561L103.664 135.55L103.711 135.539L103.758 135.529L103.805 135.518L103.853 135.508L103.9 135.497L103.947 135.486L103.995 135.476L104.042 135.465L104.09 135.455L104.137 135.444L104.185 135.433L104.233 135.423L104.28 135.412L104.328 135.401L104.376 135.391L104.424 135.38L104.471 135.369L104.519 135.358L104.567 135.348L104.615 135.337L104.663 135.326L104.711 135.315L104.759 135.305L104.808 135.294L104.856 135.283L104.904 135.272L104.952 135.261L105.001 135.251L105.049 135.24L105.097 135.229L105.146 135.218L105.194 135.207L105.243 135.196L105.291 135.186L105.34 135.175L105.388 135.164L105.437 135.153L105.486 135.142L105.535 135.131L105.583 135.12L105.632 135.109L105.681 135.098L105.73 135.087L105.779 135.076L105.828 135.065L105.877 135.054L105.926 135.043L105.975 135.032L106.024 135.021L106.073 135.01L106.123 134.999L106.172 134.988L106.221 134.977L106.271 134.966L106.32 134.955L106.369 134.944L106.419 134.933L106.468 134.922L106.518 134.911L106.567 134.9L106.617 134.889L106.666 134.878L106.716 134.866L106.766 134.855L106.816 134.844L106.865 134.833L106.915 134.822L106.965 134.811L107.015 134.8L107.065 134.788L107.115 134.777L107.165 134.766L107.215 134.755L107.265 134.744L107.315 134.732L107.365 134.721L107.415 134.71L107.466 134.699L107.516 134.687L107.566 134.676L107.616 134.665L107.667 134.654L107.717 134.642L107.767 134.631L107.818 134.62L107.868 134.608L107.919 134.597L107.969 134.586L108.02 134.575L108.071 134.563L108.121 134.552L108.172 134.541L108.223 134.529L108.274 134.518L108.324 134.506L108.375 134.495L108.426 134.484L108.477 134.472L108.528 134.461L108.579 134.449L108.63 134.438L108.681 134.427L108.732 134.415L108.783 134.404L108.834 134.392L108.885 134.381L108.936 134.369L108.988 134.358L109.039 134.346L109.09 134.335L109.141 134.323L109.193 134.312L109.244 134.3L109.296 134.289L109.347 134.277L109.399 134.266L109.45 134.254L109.502 134.243L109.553 134.231L109.605 134.22L109.656 134.208L109.708 134.197L109.76 134.185L109.811 134.173L109.863 134.162L109.915 134.15L109.967 134.139L110.019 134.127L110.07 134.115L110.122 134.104L110.174 134.092L110.226 134.081L110.278 134.069L110.33 134.057L110.382 134.046L110.434 134.034L110.486 134.022L110.539 134.011L110.591 133.999L110.643 133.987L110.695 133.976L110.747 133.964L110.8 133.952L110.852 133.94L110.904 133.929L110.957 133.917L111.009 133.905L111.061 133.894L111.114 133.882L111.166 133.87L111.219 133.858L111.271 133.847L111.324 133.835L111.377 133.823L111.429 133.811L111.482 133.799L111.534 133.788L111.587 133.776L111.64 133.764L111.693 133.752L111.745 133.74L111.798 133.729L111.851 133.717L111.904 133.705L111.957 133.693L112.01 133.681L112.063 133.669L112.116 133.658L112.169 133.646L112.222 133.634L112.275 133.622L112.328 133.61L112.381 133.598L112.434 133.586L112.487 133.574L112.54 133.562L112.593 133.551L112.646 133.539L112.7 133.527L112.753 133.515L112.806 133.503L112.86 133.491L112.913 133.479L112.966 133.467L113.02 133.455L113.073 133.443L113.126 133.431L113.18 133.419L113.233 133.407L113.287 133.395L113.34 133.383L113.394 133.371L113.447 133.359L113.501 133.347L113.555 133.335L113.608 133.323L113.662 133.311L113.716 133.299L113.769 133.287L113.823 133.275L113.877 133.263L113.931 133.251L113.984 133.239L114.038 133.227L114.092 133.215L114.146 133.203L114.2 133.191L114.254 133.179L114.308 133.167L114.362 133.155L114.415 133.143L114.469 133.13L114.523 133.118L114.577 133.106L114.632 133.094L114.686 133.082L114.74 133.07L114.794 133.058L114.848 133.046L114.902 133.034L114.956 133.021L115.01 133.009L115.065 132.997L115.119 132.985L115.173 132.973L115.227 132.961L115.282 132.949L115.336 132.936L115.39 132.924L115.445 132.912L115.499 132.9L115.553 132.888L115.608 132.876L115.662 132.863L115.717 132.851L115.771 132.839L115.826 132.827L115.88 132.815L115.935 132.802L115.989 132.79L116.044 132.778L116.098 132.766L116.153 132.754L116.207 132.741L116.262 132.729L116.317 132.717L116.371 132.705L116.426 132.692L116.481 132.68L116.535 132.668L116.59 132.656L116.645 132.643L116.7 132.631L116.754 132.619L116.809 132.607L116.864 132.594L116.919 132.582L116.974 132.57L117.029 132.557L117.083 132.545L117.138 132.533L117.193 132.521L117.248 132.508L117.303 132.496L117.358 132.484L117.413 132.471L117.468 132.459L117.523 132.447L117.578 132.434L117.633 132.422L117.688 132.41L117.743 132.397L117.798 132.385L117.853 132.373L117.908 132.36L117.964 132.348L118.019 132.336L118.074 132.323L118.129 132.311L118.184 132.299L118.239 132.286L118.295 132.274L118.35 132.262L118.405 132.249L118.46 132.237L118.516 132.225L118.571 132.212L118.626 132.2L118.681 132.187L118.737 132.175L118.792 132.163L118.847 132.15L118.903 132.138L118.958 132.125L119.013 132.113L119.069 132.101L119.124 132.088L119.18 132.076L119.235 132.063L119.29 132.051L119.346 132.039L119.401 132.026L119.457 132.014L119.512 132.001L119.568 131.989L119.623 131.976L119.679 131.964L119.734 131.952L119.79 131.939L119.845 131.927C119.983 131.896 120.135 131.922 120.265 131.999C120.394 132.076 120.489 132.197 120.525 132.331C120.563 132.47 120.594 132.613 120.622 132.743C120.632 132.787 120.641 132.83 120.65 132.87C120.688 133.036 120.726 133.184 120.78 133.327C123.169 139.634 131.096 143.505 138.538 141.839C145.98 140.172 149.97 133.633 147.58 127.326C147.503 127.121 147.409 126.956 147.297 126.757C147.236 126.65 147.17 126.532 147.098 126.393C147.03 126.264 147.023 126.121 147.078 126C147.132 125.879 147.244 125.792 147.383 125.761L147.404 125.756L147.424 125.752L147.444 125.747L147.465 125.742L147.485 125.738L147.505 125.733L147.526 125.729L147.546 125.724L147.566 125.72L147.587 125.715L147.607 125.711L147.627 125.706L147.648 125.702L147.668 125.697L147.688 125.692L147.708 125.688L147.729 125.683L147.749 125.679L147.769 125.674L147.79 125.67L147.81 125.665L147.83 125.661L147.85 125.656L147.87 125.652L147.891 125.647L147.911 125.643L147.931 125.638L147.951 125.634L147.972 125.629L147.992 125.624L148.012 125.62L148.032 125.615L148.052 125.611L148.073 125.606L148.093 125.602L148.113 125.597L148.133 125.593L148.153 125.588L148.173 125.584L148.194 125.579L148.214 125.575L148.234 125.57L148.254 125.566L148.274 125.561L148.294 125.557L148.314 125.552L148.334 125.548L148.354 125.543L148.375 125.539L148.395 125.534L148.415 125.53L148.435 125.525L148.455 125.521L148.475 125.516L148.495 125.512L148.515 125.507L148.535 125.503L148.555 125.498L148.575 125.494L148.595 125.489L148.615 125.485L148.635 125.48L148.655 125.476L148.675 125.471L148.695 125.467L148.715 125.462L148.735 125.458L148.755 125.454L148.775 125.449L148.795 125.445L148.815 125.44L148.835 125.436L148.855 125.431L148.875 125.427L148.895 125.422L148.915 125.418L148.935 125.413L148.955 125.409L148.975 125.404L148.995 125.4L149.014 125.396L149.034 125.391L149.054 125.387L149.074 125.382L149.094 125.378L149.114 125.373L149.134 125.369L149.154 125.364L149.173 125.36L149.193 125.355L149.213 125.351L149.233 125.347L149.253 125.342L149.273 125.338L149.292 125.333L149.312 125.329L149.332 125.324L149.352 125.32L149.371 125.316L149.391 125.311L149.411 125.307L149.431 125.302L149.451 125.298L149.47 125.293L149.49 125.289L149.51 125.285L149.529 125.28L149.549 125.276L149.569 125.271L149.589 125.267L149.608 125.263L149.628 125.258L149.648 125.254L149.667 125.249L149.687 125.245L149.707 125.241L149.726 125.236L149.746 125.232L149.766 125.227L149.785 125.223L149.805 125.219L149.825 125.214L149.844 125.21L149.864 125.205L149.883 125.201L149.903 125.197L149.923 125.192L149.942 125.188L149.962 125.183L149.981 125.179L150.001 125.175L150.02 125.17L150.04 125.166L150.059 125.162L150.079 125.157L150.098 125.153L150.118 125.148L150.137 125.144L150.157 125.14L150.176 125.135L150.196 125.131L150.215 125.127L150.235 125.122L150.254 125.118L150.274 125.114L150.293 125.109L150.313 125.105L150.332 125.1L150.352 125.096L150.371 125.092L150.39 125.087L150.41 125.083L150.429 125.079L150.448 125.074L150.468 125.07L150.487 125.066L150.507 125.061L150.526 125.057L150.545 125.053L150.565 125.048L150.584 125.044L150.603 125.04L150.623 125.035L150.642 125.031L150.661 125.027L150.68 125.022L150.7 125.018L150.719 125.014L150.738 125.01L150.758 125.005L150.777 125.001L150.796 124.997L150.815 124.992L150.834 124.988L150.854 124.984L150.873 124.979L150.892 124.975L150.911 124.971L150.93 124.967L150.95 124.962L150.969 124.958L150.988 124.954L151.007 124.949L151.026 124.945L151.045 124.941L151.064 124.936L151.084 124.932L151.103 124.928L151.122 124.924L151.141 124.919L151.16 124.915L151.179 124.911L151.198 124.907L151.217 124.902L151.236 124.898L151.255 124.894L151.274 124.89L151.293 124.885L151.312 124.881L151.331 124.877L151.35 124.872L151.369 124.868L151.388 124.864L151.407 124.86L151.426 124.855L151.445 124.851L151.464 124.847L151.483 124.843L151.502 124.839L151.521 124.834L151.54 124.83L151.559 124.826L151.578 124.822L151.596 124.817L151.615 124.813L151.634 124.809L151.653 124.805L151.672 124.8L151.691 124.796L151.71 124.792L151.728 124.788L151.747 124.784L151.766 124.779L151.785 124.775L151.804 124.771L151.822 124.767L151.841 124.763L151.86 124.758L151.879 124.754L151.897 124.75L151.916 124.746L151.935 124.742L151.954 124.737L151.972 124.733L151.991 124.729L152.01 124.725L152.028 124.721L152.047 124.717L152.066 124.712L152.084 124.708L152.103 124.704L152.122 124.7L152.14 124.696L152.159 124.691L152.177 124.687L152.196 124.683L152.215 124.679L152.233 124.675L152.252 124.671L152.27 124.667L152.289 124.662L152.307 124.658L152.326 124.654L152.344 124.65L152.363 124.646L152.381 124.642L152.4 124.638L152.418 124.633L152.437 124.629L152.455 124.625L152.474 124.621L152.492 124.617L152.51 124.613L152.529 124.609L152.547 124.604L152.566 124.6L152.584 124.596L152.602 124.592L152.621 124.588L152.639 124.584L152.658 124.58L152.676 124.576L152.694 124.572L152.713 124.567L152.731 124.563L152.749 124.559L152.767 124.555L152.786 124.551L152.804 124.547L152.822 124.543L152.84 124.539L152.859 124.535L152.877 124.531L152.895 124.527L152.913 124.523L152.932 124.518L152.95 124.514L152.968 124.51L152.986 124.506L153.004 124.502L153.022 124.498L153.041 124.494L153.059 124.49L153.077 124.486L153.095 124.482L153.113 124.478L153.131 124.474L153.149 124.47L153.167 124.466L153.185 124.462L153.203 124.458L153.221 124.454L153.239 124.45L153.257 124.445L153.275 124.441L153.293 124.437L153.311 124.433L153.329 124.429L153.347 124.425L153.365 124.421L153.383 124.417L153.401 124.413L153.419 124.409L153.437 124.405L153.455 124.401L153.473 124.397L153.491 124.393L153.508 124.389L153.526 124.385L153.544 124.381L153.562 124.377L153.58 124.373L153.598 124.369L153.615 124.365L153.633 124.361L153.651 124.357L153.669 124.353L153.686 124.349L153.704 124.345L153.722 124.341L153.74 124.337L153.757 124.334L153.775 124.33L153.793 124.326L153.81 124.322L153.828 124.318L153.846 124.314L153.863 124.31L153.881 124.306L153.899 124.302L153.916 124.298L153.934 124.294L153.951 124.29L153.969 124.286L153.987 124.282L154.004 124.278L154.022 124.274L154.039 124.27L154.057 124.266L154.074 124.263L154.092 124.259L154.109 124.255L154.127 124.251L154.144 124.247L154.162 124.243L154.179 124.239L154.197 124.235L154.214 124.231L154.231 124.227L154.249 124.224L154.266 124.22L154.283 124.216L154.301 124.212L154.318 124.208L154.336 124.204L154.353 124.2L154.37 124.196L154.387 124.192L154.405 124.189L154.422 124.185L154.439 124.181L154.457 124.177L154.474 124.173L154.491 124.169L154.508 124.165L154.525 124.162L154.543 124.158L154.56 124.154L154.577 124.15L154.594 124.146L154.611 124.142L154.628 124.138L154.646 124.135L154.663 124.131L154.68 124.127L154.697 124.123L154.714 124.119L154.731 124.116L154.748 124.112L154.765 124.108L154.782 124.104L154.799 124.1L154.816 124.096L154.833 124.093L154.85 124.089L154.867 124.085L154.884 124.081L154.901 124.077L154.918 124.074L154.935 124.07L154.952 124.066L154.969 124.062L154.986 124.059L155.002 124.055L155.019 124.051L155.036 124.047L155.053 124.043L155.07 124.04L155.087 124.036L155.103 124.032L155.12 124.028L155.137 124.025L155.154 124.021L155.17 124.017L155.187 124.013L155.204 124.01L155.221 124.006L155.237 124.002L155.254 123.998L155.271 123.995L155.287 123.991L155.304 123.987L155.321 123.983L155.337 123.98L155.354 123.976L155.37 123.972L155.387 123.969L155.404 123.965L155.42 123.961L155.437 123.958L155.453 123.954L155.47 123.95L155.486 123.946L155.503 123.943L155.519 123.939L155.536 123.935L155.552 123.932L155.569 123.928L155.585 123.924L155.601 123.921L155.618 123.917L155.634 123.913L155.651 123.91L155.667 123.906L155.683 123.902L155.7 123.899L155.716 123.895L155.732 123.891L155.749 123.888L155.765 123.884L155.781 123.88L155.797 123.877L155.814 123.873L155.83 123.869L155.846 123.866L155.862 123.862L155.879 123.859L155.895 123.855L155.911 123.851L155.927 123.848L155.943 123.844L155.959 123.84L155.975 123.837L155.991 123.833L156.008 123.83L156.024 123.826L156.04 123.822L156.056 123.819L156.072 123.815L156.088 123.812L156.104 123.808L156.12 123.805L156.136 123.801L156.152 123.797L156.168 123.794L156.184 123.79L156.2 123.787L156.215 123.783L156.231 123.78L156.247 123.776L156.263 123.772L156.279 123.769L156.295 123.765L156.311 123.762L156.326 123.758L156.342 123.755L156.358 123.751L156.374 123.748L156.39 123.744L156.405 123.741L156.421 123.737L156.437 123.734L156.452 123.73L156.468 123.727L156.484 123.723L156.499 123.72L156.515 123.716L156.531 123.713L156.546 123.709L156.562 123.706L156.578 123.702L156.593 123.699L156.609 123.695L156.624 123.692L156.64 123.688L156.655 123.685L156.671 123.681L156.686 123.678L156.702 123.674L156.717 123.671L156.733 123.667L156.748 123.664C165.308 121.747 171.428 115.623 174.375 107.206C177.322 98.7888 177.083 88.1029 172.933 77.1494C169.998 69.4012 165.57 62.6443 160.233 57.228C160.17 57.1643 160.089 57.0939 159.985 57.0037L159.979 56.9987C159.885 56.9178 159.771 56.819 159.672 56.7191C159.234 56.2914 158.794 55.9129 158.336 55.5192C158.07 55.2908 157.799 55.0572 157.518 54.8059C143.146 41.9511 119.179 29.1306 98.7511 19.5088C88.5473 14.7026 79.2446 10.7027 72.4928 7.90434C69.1171 6.50524 66.3795 5.40669 64.4864 4.65809C63.5398 4.2838 62.8044 3.99701 62.3058 3.8039C62.0566 3.70735 61.8666 3.63421 61.739 3.58527L61.7098 3.57411L8.31467 15.5298L7.06974 29.7082L48.6525 71.826ZM141.569 127.064C141.808 127.011 142.075 127.131 142.199 127.348C142.254 127.444 142.316 127.526 142.401 127.639C142.428 127.675 142.457 127.714 142.489 127.757C142.61 127.921 142.755 128.129 142.852 128.386C144.445 132.589 141.787 136.807 137.036 137.871C132.286 138.934 127.097 136.472 125.505 132.27C125.408 132.013 125.384 131.778 125.372 131.59C125.369 131.541 125.367 131.496 125.364 131.455C125.357 131.325 125.352 131.229 125.331 131.126C125.284 130.891 125.425 130.679 125.664 130.626L125.696 130.618L125.728 130.611L125.76 130.604L125.792 130.597L125.824 130.59L125.856 130.583L125.888 130.576L125.92 130.568L125.952 130.561L125.984 130.554L126.015 130.547L126.047 130.54L126.079 130.533L126.111 130.525L126.143 130.518L126.175 130.511L126.207 130.504L126.239 130.497L126.271 130.49L126.303 130.483L126.335 130.475L126.367 130.468L126.399 130.461L126.43 130.454L126.462 130.447L126.494 130.44L126.526 130.433L126.558 130.425L126.59 130.418L126.622 130.411L126.654 130.404L126.686 130.397L126.718 130.39L126.75 130.383L126.781 130.375L126.813 130.368L126.845 130.361L126.877 130.354L126.909 130.347L126.941 130.34L126.973 130.333L127.005 130.325L127.037 130.318L127.069 130.311L127.1 130.304L127.132 130.297L127.164 130.29L127.196 130.283L127.228 130.275L127.26 130.268L127.292 130.261L127.324 130.254L127.355 130.247L127.387 130.24L127.419 130.233L127.451 130.225L127.483 130.218L127.515 130.211L127.547 130.204L127.578 130.197L127.61 130.19L127.642 130.183L127.674 130.176L127.706 130.168L127.738 130.161L127.77 130.154L127.801 130.147L127.833 130.14L127.865 130.133L127.897 130.126L127.929 130.118L127.961 130.111L127.992 130.104L128.024 130.097L128.056 130.09L128.088 130.083L128.12 130.076L128.152 130.069L128.183 130.061L128.215 130.054L128.247 130.047L128.279 130.04L128.311 130.033L128.342 130.026L128.374 130.019L128.406 130.012L128.438 130.004L128.47 129.997L128.502 129.99L128.533 129.983L128.565 129.976L128.597 129.969L128.629 129.962L128.66 129.955L128.692 129.948L128.724 129.94L128.756 129.933L128.788 129.926L128.819 129.919L128.851 129.912L128.883 129.905L128.915 129.898L128.946 129.891L128.978 129.884L129.01 129.876L129.042 129.869L129.073 129.862L129.105 129.855L129.137 129.848L129.169 129.841L129.2 129.834L129.232 129.827L129.264 129.82L129.296 129.812L129.327 129.805L129.359 129.798L129.391 129.791L129.423 129.784L129.454 129.777L129.486 129.77L129.518 129.763L129.55 129.756L129.581 129.748L129.613 129.741L129.645 129.734L129.676 129.727L129.708 129.72L129.74 129.713L129.771 129.706L129.803 129.699L129.835 129.692L129.867 129.685L129.898 129.678L129.93 129.67L129.962 129.663L129.993 129.656L130.025 129.649L130.057 129.642L130.088 129.635L130.12 129.628L130.152 129.621L130.183 129.614L130.215 129.607L130.247 129.6L130.278 129.592L130.31 129.585L130.342 129.578L130.373 129.571L130.405 129.564L130.436 129.557L130.468 129.55L130.5 129.543L130.531 129.536L130.563 129.529L130.595 129.522L130.626 129.515L130.658 129.507L130.689 129.5L130.721 129.493L130.753 129.486L130.784 129.479L130.816 129.472L130.847 129.465L130.879 129.458L130.911 129.451L130.942 129.444L130.974 129.437L131.005 129.43L131.037 129.423L131.068 129.415L131.1 129.408L131.132 129.401L131.163 129.394L131.195 129.387L131.226 129.38L131.258 129.373L131.289 129.366L131.321 129.359L131.352 129.352L131.384 129.345L131.416 129.338L131.447 129.331L131.479 129.324L131.51 129.317L131.542 129.31L131.573 129.302L131.605 129.295L131.636 129.288L131.668 129.281L131.699 129.274L131.731 129.267L131.762 129.26L131.794 129.253L131.825 129.246L131.857 129.239L131.888 129.232L131.92 129.225L131.951 129.218L131.982 129.211L132.014 129.204L132.045 129.197L132.077 129.19L132.108 129.183L132.14 129.176L132.171 129.169L132.203 129.162L132.234 129.155L132.265 129.147L132.297 129.14L132.328 129.133L132.36 129.126L132.391 129.119L132.423 129.112L132.454 129.105L132.485 129.098L132.517 129.091L132.548 129.084L132.58 129.077L132.611 129.07L132.642 129.063L132.674 129.056L132.705 129.049L132.736 129.042L132.768 129.035L132.799 129.028L132.83 129.021L132.862 129.014L132.893 129.007L132.925 129L132.956 128.993L132.987 128.986L133.019 128.979L133.05 128.972L133.081 128.965L133.113 128.958L133.144 128.951L133.175 128.944L133.206 128.937L133.238 128.93L133.269 128.923L133.3 128.916L133.332 128.909L133.363 128.902L133.394 128.895L133.425 128.888L133.457 128.881L133.488 128.874L133.519 128.867L133.55 128.86L133.582 128.853L133.613 128.846L133.644 128.839L133.675 128.832L133.707 128.825L133.738 128.818L133.769 128.811L133.8 128.804L133.832 128.797L133.863 128.79L133.894 128.783L133.925 128.776L133.956 128.769L133.988 128.762L134.019 128.755L134.05 128.748L134.081 128.741L134.112 128.734L134.143 128.727L134.175 128.72L134.206 128.713L134.237 128.706L134.268 128.699L134.299 128.692L134.33 128.685L134.361 128.678L134.393 128.671L134.424 128.664L134.455 128.657L134.486 128.65L134.517 128.643L134.548 128.636L134.579 128.629L134.61 128.622L134.641 128.615L134.673 128.609L134.704 128.602L134.735 128.595L134.766 128.588L134.797 128.581L134.828 128.574L134.859 128.567L134.89 128.56L134.921 128.553L134.952 128.546L134.983 128.539L135.014 128.532L135.045 128.525L135.076 128.518L135.107 128.511L135.138 128.504L135.169 128.497L135.2 128.49L135.231 128.483L135.262 128.476L135.293 128.47L135.324 128.463L135.355 128.456L135.386 128.449L135.417 128.442L135.448 128.435L135.479 128.428L135.51 128.421L135.541 128.414L135.572 128.407L135.603 128.4L135.634 128.393L135.664 128.386L135.695 128.379L135.726 128.373L135.757 128.366L135.788 128.359L135.819 128.352L135.85 128.345L135.881 128.338L135.912 128.331L135.942 128.324L135.973 128.317L136.004 128.31L136.035 128.303L136.066 128.297L136.097 128.29L136.127 128.283L136.158 128.276L136.189 128.269L136.22 128.262L136.251 128.255L136.282 128.248L136.312 128.241L136.343 128.234L136.374 128.228L136.405 128.221L136.435 128.214L136.466 128.207L136.497 128.2L136.528 128.193L136.558 128.186L136.589 128.179L136.62 128.172L136.651 128.166L136.681 128.159L136.712 128.152L136.743 128.145L136.774 128.138L136.804 128.131L136.835 128.124L136.866 128.117L136.896 128.111L136.927 128.104L136.958 128.097L136.988 128.09L137.019 128.083L137.05 128.076L137.08 128.069L137.111 128.063L137.142 128.056L137.172 128.049L137.203 128.042L137.233 128.035L137.264 128.028L137.295 128.021L137.325 128.015L137.356 128.008L137.386 128.001L137.417 127.994L137.448 127.987L137.478 127.98L137.509 127.973L137.539 127.967L137.57 127.96L137.6 127.953L137.631 127.946L137.661 127.939L137.692 127.932L137.722 127.926L137.753 127.919L137.783 127.912L137.814 127.905L137.844 127.898L137.875 127.891L137.905 127.885L137.936 127.878L137.966 127.871L137.997 127.864L138.027 127.857L138.058 127.851L138.088 127.844L138.118 127.837L138.149 127.83L138.179 127.823L138.21 127.817L138.24 127.81L138.27 127.803L138.301 127.796L138.331 127.789L138.362 127.782L138.392 127.776L138.422 127.769L138.453 127.762L138.483 127.755L138.513 127.749L138.544 127.742L138.574 127.735L138.604 127.728L138.635 127.721L138.665 127.715L138.695 127.708L138.726 127.701L138.756 127.694L138.786 127.687L138.816 127.681L138.847 127.674L138.877 127.667L138.907 127.66L138.937 127.654L138.968 127.647L138.998 127.64L139.028 127.633L139.058 127.627L139.088 127.62L139.119 127.613L139.149 127.606L139.179 127.599L139.209 127.593L139.239 127.586L139.27 127.579L139.3 127.572L139.33 127.566L139.36 127.559L139.39 127.552L139.42 127.545L139.45 127.539L139.48 127.532L139.511 127.525L139.541 127.518L139.571 127.512L139.601 127.505L139.631 127.498L139.661 127.492L139.691 127.485L139.721 127.478L139.751 127.471L139.781 127.465L139.811 127.458L139.841 127.451L139.871 127.444L139.901 127.438L139.931 127.431L139.961 127.424L139.991 127.418L140.021 127.411L140.051 127.404L140.081 127.397L140.111 127.391L140.141 127.384L140.171 127.377L140.201 127.371L140.231 127.364L140.261 127.357L140.291 127.351L140.321 127.344L140.351 127.337L140.38 127.33L140.41 127.324L140.44 127.317L140.47 127.31L140.5 127.304L140.53 127.297L140.56 127.29L140.589 127.284L140.619 127.277L140.649 127.27L140.679 127.264L140.709 127.257L140.738 127.25L140.768 127.244L140.798 127.237L140.828 127.23L140.858 127.224L140.887 127.217L140.917 127.21L140.947 127.204L140.977 127.197L141.006 127.19L141.036 127.184L141.066 127.177L141.095 127.17L141.125 127.164L141.155 127.157L141.184 127.15L141.214 127.144L141.244 127.137L141.273 127.131L141.303 127.124L141.333 127.117L141.362 127.111L141.392 127.104L141.421 127.097L141.451 127.091L141.481 127.084L141.51 127.077L141.54 127.071L141.569 127.064ZM113.107 38.6237C113.305 38.7209 113.432 38.914 113.427 39.1099C113.422 39.3059 113.286 39.4646 113.085 39.5096L68.2802 49.5418C68.1589 49.569 68.0256 49.5519 67.9063 49.4939L54.9826 43.2152C54.7838 43.1186 54.6557 42.925 54.6604 42.7282C54.6651 42.5314 54.8017 42.3722 55.0039 42.3276L100.149 32.3831C100.271 32.3562 100.405 32.374 100.524 32.4327L113.107 38.6237ZM88.7586 128.348C83.0832 129.619 76.6298 127.378 70.9037 122.927C65.1712 118.472 60.1025 111.76 57.1383 103.936C54.1763 96.1174 53.7659 88.3684 55.4916 82.2478C57.2154 76.1341 61.0953 71.5823 66.7713 70.3114C72.4473 69.0405 78.9005 71.2785 84.6258 75.7243C90.3574 80.1751 95.4245 86.8815 98.3864 94.6997C101.351 102.524 101.762 110.279 100.037 116.404C98.3136 122.522 94.4339 127.077 88.7586 128.348Z" fill="white" stroke="#0038FF" stroke-miterlimit="2.5593" stroke-linejoin="round"/>
</g>
<defs>
<clipPath id="clip0_1382:97">
<rect width="192" height="144" fill="white" transform="translate(0.5)"/>
</clipPath>
</defs>
</svg>
