<svg width="127" height="13" viewBox="0 0 127 13" fill="none" xmlns="http://www.w3.org/2000/svg">
<path id="Fonte: Intesa Sanpaolo" d="M0.924 10H2.148L2.148 5.872L6.216 5.872V4.828L2.148 4.828L2.148 2.152L7.032 2.152L7.032 1.072L0.924 1.072L0.924 10ZM10.5018 10.18C12.4458 10.18 13.6338 8.668 13.6338 6.784C13.6338 4.912 12.4458 3.4 10.5018 3.4C8.55778 3.4 7.34578 4.912 7.34578 6.784C7.34578 8.668 8.55778 10.18 10.5018 10.18ZM10.4898 9.268C9.16978 9.268 8.48578 8.176 8.48578 6.784C8.48578 5.392 9.16978 4.288 10.4898 4.288C11.8098 4.288 12.4938 5.392 12.4938 6.784C12.4938 8.176 11.8098 9.268 10.4898 9.268ZM15.9228 3.556H14.8188L14.8188 10H15.9348V6.076C15.9348 5.044 16.6548 4.336 17.6508 4.336C18.5268 4.336 19.0668 4.804 19.0668 5.632V10H20.1708V5.5C20.1708 4.156 19.3428 3.4 17.9988 3.4C17.0628 3.4 16.4268 3.82 15.9588 4.468H15.9228V3.556ZM21.1611 4.42H22.1691V8.74C22.1691 9.688 22.7691 10.036 23.6331 10.048C23.9211 10.048 24.2331 10.012 24.5331 9.94V9.004H24.4971C24.3771 9.04 24.1251 9.088 23.9331 9.088C23.5251 9.088 23.2731 8.956 23.2731 8.488V4.42H24.6051V3.556H23.2731V1.528H22.1691V3.556H21.1611V4.42ZM28.5015 10.18C29.9895 10.18 31.0215 9.364 31.3095 8.164H30.2175C30.0135 8.848 29.4015 9.268 28.5135 9.268C27.2655 9.268 26.5815 8.308 26.4975 7.048L31.4415 7.048C31.4415 5.956 31.1775 5.032 30.6495 4.396C30.1455 3.772 29.4015 3.4 28.4415 3.4C26.5935 3.4 25.3575 4.912 25.3575 6.784C25.3575 8.668 26.5215 10.18 28.5015 10.18ZM28.4415 4.264C29.5575 4.264 30.1935 5.008 30.2535 6.244H26.5215C26.6655 5.104 27.2775 4.264 28.4415 4.264ZM32.5473 6.208H33.8433V4.888H32.5473V6.208ZM32.5473 10H33.8433V8.68H32.5473V10ZM38.6589 10L39.8829 10V1.072H38.6589V10ZM42.7001 3.556H41.5961V10H42.7121V6.076C42.7121 5.044 43.4321 4.336 44.4281 4.336C45.3041 4.336 45.8441 4.804 45.8441 5.632V10H46.9481V5.5C46.9481 4.156 46.1201 3.4 44.7761 3.4C43.8401 3.4 43.2041 3.82 42.7361 4.468H42.7001V3.556ZM47.9384 4.42H48.9464V8.74C48.9464 9.688 49.5464 10.036 50.4104 10.048C50.6984 10.048 51.0104 10.012 51.3104 9.94V9.004H51.2744C51.1544 9.04 50.9024 9.088 50.7104 9.088C50.3024 9.088 50.0504 8.956 50.0504 8.488V4.42H51.3824V3.556H50.0504V1.528H48.9464V3.556H47.9384V4.42ZM55.2788 10.18C56.7668 10.18 57.7988 9.364 58.0868 8.164H56.9948C56.7908 8.848 56.1788 9.268 55.2908 9.268C54.0428 9.268 53.3588 8.308 53.2748 7.048H58.2188C58.2188 5.956 57.9548 5.032 57.4268 4.396C56.9228 3.772 56.1788 3.4 55.2188 3.4C53.3708 3.4 52.1348 4.912 52.1348 6.784C52.1348 8.668 53.2988 10.18 55.2788 10.18ZM55.2188 4.264C56.3348 4.264 56.9708 5.008 57.0308 6.244H53.2988C53.4428 5.104 54.0548 4.264 55.2188 4.264ZM61.8806 10.192C63.3926 10.192 64.4726 9.52 64.4726 8.212C64.4726 6.712 63.3686 6.424 62.0846 6.172C60.9926 5.956 60.3686 5.824 60.3686 5.152C60.3686 4.66 60.7406 4.252 61.6166 4.252C62.5406 4.252 62.9966 4.624 63.0926 5.284L64.2086 5.284C64.0646 4.168 63.2606 3.412 61.6406 3.412C60.1406 3.412 59.2766 4.108 59.2766 5.212C59.2766 6.628 60.4166 6.892 61.6766 7.156C62.8166 7.384 63.3566 7.564 63.3566 8.272C63.3566 8.848 62.9246 9.292 61.9046 9.292C60.9806 9.292 60.2606 8.98 60.1286 8.044H59.0006C59.0966 9.352 60.1046 10.192 61.8806 10.192ZM67.6568 10.132C68.7488 10.132 69.4088 9.616 69.8168 9.052H69.8288C69.9488 9.736 70.2848 10.06 70.9688 10.06C71.2328 10.06 71.4128 10.012 71.5688 9.964V9.184H71.5208C70.9568 9.304 70.8368 9.028 70.8368 8.512V5.5C70.8368 4.636 70.5128 4.072 69.9728 3.748C69.5648 3.508 69.0248 3.4 68.4128 3.4C66.6728 3.4 65.8448 4.372 65.7968 5.464H66.8768C66.9128 4.696 67.4048 4.216 68.4248 4.216C69.3128 4.216 69.8048 4.648 69.8048 5.344C69.8048 6.004 69.1928 6.16 68.2448 6.268C66.5768 6.472 65.4728 6.796 65.4728 8.296C65.4728 9.532 66.4328 10.132 67.6568 10.132ZM67.9328 9.316C67.2848 9.316 66.6488 9.112 66.6488 8.284C66.6488 7.396 67.3448 7.204 68.4008 7.024C68.9288 6.928 69.4928 6.772 69.8168 6.568V7.624C69.8168 8.368 69.2168 9.316 67.9328 9.316ZM79.0945 10.18C81.0265 10.18 82.4185 9.232 82.4185 7.54C82.4185 5.548 80.8465 5.104 79.1185 4.756C77.7745 4.48 76.8025 4.204 76.8025 3.232C76.8025 2.344 77.5705 1.864 78.7465 1.864C80.0065 1.864 80.7865 2.452 80.9425 3.532H82.1305C81.9145 2.008 80.9305 0.904 78.7345 0.904C76.8985 0.904 75.6385 1.792 75.6385 3.292C75.6385 5.008 76.9945 5.464 78.5905 5.8C80.1505 6.148 81.1825 6.424 81.1825 7.588C81.1825 8.668 80.3185 9.196 79.1305 9.196C77.5105 9.196 76.6225 8.452 76.4785 7.108H75.2665C75.3625 8.812 76.5985 10.18 79.0945 10.18ZM85.645 10.132C86.737 10.132 87.397 9.616 87.805 9.052H87.817C87.937 9.736 88.273 10.06 88.957 10.06C89.221 10.06 89.401 10.012 89.557 9.964V9.184H89.509C88.945 9.304 88.825 9.028 88.825 8.512V5.5C88.825 4.636 88.501 4.072 87.961 3.748C87.553 3.508 87.013 3.4 86.401 3.4C84.661 3.4 83.833 4.372 83.785 5.464H84.865C84.901 4.696 85.393 4.216 86.413 4.216C87.301 4.216 87.793 4.648 87.793 5.344C87.793 6.004 87.181 6.16 86.233 6.268C84.565 6.472 83.461 6.796 83.461 8.296C83.461 9.532 84.421 10.132 85.645 10.132ZM85.921 9.316C85.273 9.316 84.637 9.112 84.637 8.284C84.637 7.396 85.333 7.204 86.389 7.024C86.917 6.928 87.481 6.772 87.805 6.568V7.624C87.805 8.368 87.205 9.316 85.921 9.316ZM91.5673 3.556L90.4633 3.556V10H91.5793V6.076C91.5793 5.044 92.2993 4.336 93.2953 4.336C94.1713 4.336 94.7113 4.804 94.7113 5.632V10H95.8153V5.5C95.8153 4.156 94.9873 3.4 93.6433 3.4C92.7073 3.4 92.0713 3.82 91.6033 4.468H91.5673V3.556ZM97.3188 12.184H98.4348V10.228C98.4348 9.736 98.4228 9.376 98.4108 9.148H98.4468C98.8908 9.832 99.5988 10.192 100.475 10.192C102.215 10.192 103.283 8.86 103.283 6.796C103.283 4.672 102.155 3.4 100.511 3.4C99.5868 3.4 98.9388 3.832 98.4588 4.564H98.4228V3.556H97.3188V12.184ZM100.355 9.268C98.9268 9.268 98.3748 8.176 98.3748 6.82C98.3748 5.452 98.9988 4.348 100.367 4.348C101.555 4.348 102.143 5.404 102.143 6.82C102.143 8.224 101.543 9.268 100.355 9.268ZM106.387 10.132C107.479 10.132 108.139 9.616 108.547 9.052H108.559C108.679 9.736 109.015 10.06 109.699 10.06C109.963 10.06 110.143 10.012 110.299 9.964V9.184H110.251C109.687 9.304 109.567 9.028 109.567 8.512V5.5C109.567 4.636 109.243 4.072 108.703 3.748C108.295 3.508 107.755 3.4 107.143 3.4C105.403 3.4 104.575 4.372 104.527 5.464H105.607C105.643 4.696 106.135 4.216 107.155 4.216C108.043 4.216 108.535 4.648 108.535 5.344C108.535 6.004 107.923 6.16 106.975 6.268C105.307 6.472 104.203 6.796 104.203 8.296C104.203 9.532 105.163 10.132 106.387 10.132ZM106.663 9.316C106.015 9.316 105.379 9.112 105.379 8.284C105.379 7.396 106.075 7.204 107.131 7.024C107.659 6.928 108.223 6.772 108.547 6.568V7.624C108.547 8.368 107.947 9.316 106.663 9.316ZM114.014 10.18C115.958 10.18 117.146 8.668 117.146 6.784C117.146 4.912 115.958 3.4 114.014 3.4C112.07 3.4 110.858 4.912 110.858 6.784C110.858 8.668 112.07 10.18 114.014 10.18ZM114.002 9.268C112.682 9.268 111.998 8.176 111.998 6.784C111.998 5.392 112.682 4.288 114.002 4.288C115.322 4.288 116.006 5.392 116.006 6.784C116.006 8.176 115.322 9.268 114.002 9.268ZM118.367 10H119.483V1.072H118.367V10ZM123.857 10.18C125.801 10.18 126.989 8.668 126.989 6.784C126.989 4.912 125.801 3.4 123.857 3.4C121.913 3.4 120.701 4.912 120.701 6.784C120.701 8.668 121.913 10.18 123.857 10.18ZM123.845 9.268C122.525 9.268 121.841 8.176 121.841 6.784C121.841 5.392 122.525 4.288 123.845 4.288C125.165 4.288 125.849 5.392 125.849 6.784C125.849 8.176 125.165 9.268 123.845 9.268Z" fill="#131313"/>
</svg>
