<svg width="227" height="206" viewBox="0 0 227 206" fill="none" xmlns="http://www.w3.org/2000/svg">
<path d="M27.5188 187.652C17.8139 174.426 15.0919 159.998 21.0176 144.367C26.4075 130.178 36.7925 121.469 51.3847 117.577C60.0267 115.264 68.4951 115.947 76.8718 118.691C80.3587 119.843 83.8161 121.135 87.3576 122.179C89.1856 122.757 91.074 123.122 92.9856 123.269C94.9989 123.448 97.014 122.944 98.7063 121.839C100.399 120.734 101.669 119.091 102.314 117.175C103.176 115.098 103.594 112.864 103.542 110.616C103.395 107.107 103.341 103.587 103.23 100.075C102.696 84.0595 113.91 70.0851 127.693 65.9192C134.597 63.7748 141.977 63.6999 148.923 65.7034C150.773 66.2202 152.625 66.7087 154.464 67.2598C156.943 67.9321 159.527 68.1226 162.078 67.821C164.256 67.7318 166.351 66.9665 168.074 65.6315C169.797 64.2965 171.061 62.458 171.691 60.3715C172.438 58.0847 172.968 55.7328 173.276 53.3469C173.85 49.5544 174.135 45.7372 175.387 42.055C176.508 38.7101 178.321 35.6388 180.708 33.0415C183.096 30.4442 186.003 28.379 189.242 26.9805C192.481 25.5821 195.978 24.8818 199.505 24.9253C203.033 24.9687 206.512 25.755 209.715 27.2328C212.918 28.7106 215.774 30.8468 218.097 33.5022C220.419 36.1576 222.156 39.2726 223.194 42.6441C224.232 46.0157 224.548 49.5681 224.122 53.07C223.695 56.5718 222.535 59.9445 220.718 62.9682C215.077 72.0786 206.801 75.7129 196.404 75.1654C193.54 75.0136 190.691 74.5291 187.822 74.3554C186.226 74.2372 184.622 74.3333 183.052 74.6411C178.132 75.7141 174.598 78.4833 173.534 83.5522C173.122 85.9051 172.924 88.2904 172.942 90.679C172.85 94.3538 173.177 98.0392 172.916 101.695C171.426 122.588 151.426 136.698 133.198 133.431C129.43 132.76 125.731 131.726 121.959 130.906C119.789 130.37 117.584 129.996 115.359 129.787C109.521 129.443 105.42 132.769 104.724 138.504C104.47 141.204 104.457 143.922 104.684 146.624C104.855 149.332 105.407 152.003 105.679 154.708C107.062 168.569 103.064 180.77 93.3646 190.685C84.3451 199.914 73.1299 204.342 60.0671 203.906C49.8827 203.56 41.127 199.736 33.3544 193.445C31.3024 191.625 29.3541 189.691 27.5188 187.652Z" fill="white"/>
</svg>
