<svg width="91" height="117" viewBox="0 0 91 117" fill="none" xmlns="http://www.w3.org/2000/svg">
<g id="Frame 474">
<g id="Frame 352">
<circle id="Ellipse 16" cx="7" cy="8.92188" r="7" fill="#493C3C"/>
<path id="Moltissimo" d="M31.932 12.9219V4.25087H29.787L27.421 10.0879L25.068 4.25087H22.923V12.9219H24.444V6.35688L27.096 12.9219H27.746L30.411 6.35688V12.9219H31.932ZM36.5725 13.0779C38.5875 13.0779 39.8095 11.5829 39.8095 9.77587C39.8095 7.98187 38.5875 6.48687 36.5725 6.48687C34.5835 6.48687 33.3485 7.98187 33.3485 9.77587C33.3485 11.5829 34.5835 13.0779 36.5725 13.0779ZM36.5725 11.8689C35.4155 11.8689 34.7655 10.8939 34.7655 9.77587C34.7655 8.67087 35.4155 7.69587 36.5725 7.69587C37.7425 7.69587 38.3925 8.67087 38.3925 9.77587C38.3925 10.8939 37.7425 11.8689 36.5725 11.8689ZM42.5556 12.9219V4.25087H41.1906V12.9219H42.5556ZM46.2114 13.0779C46.8484 13.0779 47.2514 12.9089 47.4984 12.6749L47.1734 11.6479C47.0694 11.7649 46.8224 11.8689 46.5624 11.8689C46.1724 11.8689 45.9644 11.5569 45.9644 11.1279V7.83887H47.2384V6.64287H45.9644V4.92687H44.5994V6.64287H43.5594V7.83887H44.5994V11.4659C44.5994 12.5059 45.1584 13.0779 46.2114 13.0779ZM49.1538 5.60287C49.6218 5.60287 49.9988 5.22587 49.9988 4.75787C49.9988 4.28987 49.6218 3.91287 49.1538 3.91287C48.6988 3.91287 48.3088 4.28987 48.3088 4.75787C48.3088 5.22587 48.6988 5.60287 49.1538 5.60287ZM49.8428 12.9219V6.64287H48.4778V12.9219H49.8428ZM51.0675 12.1029C51.7175 12.7399 52.6925 13.0779 53.7585 13.0779C55.4485 13.0779 56.3715 12.2329 56.3715 11.1279C56.3715 9.64587 55.0325 9.33387 53.9405 9.09988C53.1995 8.93087 52.5755 8.76187 52.5755 8.28087C52.5755 7.83887 53.0305 7.57887 53.7455 7.57887C54.5255 7.57887 55.2275 7.90387 55.6045 8.33287L56.1765 7.37087C55.6045 6.86387 54.7985 6.48687 53.7325 6.48687C52.1465 6.48687 51.2625 7.37087 51.2625 8.39787C51.2625 9.80187 52.5495 10.0879 53.6285 10.3219C54.3955 10.4909 55.0585 10.6859 55.0585 11.2319C55.0585 11.6999 54.6425 11.9989 53.8235 11.9989C53.0045 11.9989 52.1335 11.5699 51.6915 11.1149L51.0675 12.1029ZM57.1993 12.1029C57.8493 12.7399 58.8243 13.0779 59.8903 13.0779C61.5803 13.0779 62.5033 12.2329 62.5033 11.1279C62.5033 9.64587 61.1643 9.33387 60.0723 9.09988C59.3313 8.93087 58.7073 8.76187 58.7073 8.28087C58.7073 7.83887 59.1623 7.57887 59.8773 7.57887C60.6573 7.57887 61.3593 7.90387 61.7363 8.33287L62.3083 7.37087C61.7363 6.86387 60.9303 6.48687 59.8643 6.48687C58.2783 6.48687 57.3943 7.37087 57.3943 8.39787C57.3943 9.80187 58.6813 10.0879 59.7603 10.3219C60.5273 10.4909 61.1903 10.6859 61.1903 11.2319C61.1903 11.6999 60.7743 11.9989 59.9553 11.9989C59.1363 11.9989 58.2653 11.5699 57.8233 11.1149L57.1993 12.1029ZM64.5532 5.60287C65.0212 5.60287 65.3982 5.22587 65.3982 4.75787C65.3982 4.28987 65.0212 3.91287 64.5532 3.91287C64.0982 3.91287 63.7082 4.28987 63.7082 4.75787C63.7082 5.22587 64.0982 5.60287 64.5532 5.60287ZM65.2422 12.9219V6.64287H63.8772V12.9219H65.2422ZM76.0739 12.9219V8.38487C76.0739 7.11087 75.4239 6.48687 74.2669 6.48687C73.3309 6.48687 72.4989 7.07187 72.1349 7.64387C71.9269 6.95487 71.3549 6.48687 70.4189 6.48687C69.4699 6.48687 68.6379 7.11087 68.3779 7.50087V6.64287H67.0129V12.9219H68.3779V8.54087C68.6639 8.12487 69.2229 7.69587 69.8209 7.69587C70.5619 7.69587 70.8609 8.15087 70.8609 8.82687V12.9219H72.2259V8.52787C72.4989 8.12487 73.0709 7.69587 73.6819 7.69587C74.4099 7.69587 74.7089 8.15087 74.7089 8.82687V12.9219H76.0739ZM80.676 13.0779C82.691 13.0779 83.913 11.5829 83.913 9.77587C83.913 7.98187 82.691 6.48687 80.676 6.48687C78.687 6.48687 77.452 7.98187 77.452 9.77587C77.452 11.5829 78.687 13.0779 80.676 13.0779ZM80.676 11.8689C79.519 11.8689 78.869 10.8939 78.869 9.77587C78.869 8.67087 79.519 7.69587 80.676 7.69587C81.846 7.69587 82.496 8.67087 82.496 9.77587C82.496 10.8939 81.846 11.8689 80.676 11.8689Z" fill="#FCFCF3"/>
</g>
<g id="Frame 469">
<circle id="Ellipse 16_2" cx="7" cy="28.9219" r="7" fill="#58E1DB"/>
<path id="Molto" d="M31.932 32.9219V24.2509H29.787L27.421 30.0879L25.068 24.2509H22.923V32.9219H24.444V26.3569L27.096 32.9219H27.746L30.411 26.3569V32.9219H31.932ZM36.5725 33.0779C38.5875 33.0779 39.8095 31.5829 39.8095 29.7759C39.8095 27.9819 38.5875 26.4869 36.5725 26.4869C34.5835 26.4869 33.3485 27.9819 33.3485 29.7759C33.3485 31.5829 34.5835 33.0779 36.5725 33.0779ZM36.5725 31.8689C35.4155 31.8689 34.7655 30.8939 34.7655 29.7759C34.7655 28.6709 35.4155 27.6959 36.5725 27.6959C37.7425 27.6959 38.3925 28.6709 38.3925 29.7759C38.3925 30.8939 37.7425 31.8689 36.5725 31.8689ZM42.5556 32.9219V24.2509H41.1906V32.9219H42.5556ZM46.2114 33.0779C46.8484 33.0779 47.2514 32.9089 47.4984 32.6749L47.1734 31.6479C47.0694 31.7649 46.8224 31.8689 46.5624 31.8689C46.1724 31.8689 45.9644 31.5569 45.9644 31.1279V27.8389H47.2384V26.6429H45.9644V24.9269H44.5994V26.6429H43.5594V27.8389H44.5994V31.4659C44.5994 32.5059 45.1584 33.0779 46.2114 33.0779ZM51.3118 33.0779C53.3268 33.0779 54.5488 31.5829 54.5488 29.7759C54.5488 27.9819 53.3268 26.4869 51.3118 26.4869C49.3228 26.4869 48.0878 27.9819 48.0878 29.7759C48.0878 31.5829 49.3228 33.0779 51.3118 33.0779ZM51.3118 31.8689C50.1548 31.8689 49.5047 30.8939 49.5047 29.7759C49.5047 28.6709 50.1548 27.6959 51.3118 27.6959C52.4818 27.6959 53.1318 28.6709 53.1318 29.7759C53.1318 30.8939 52.4818 31.8689 51.3118 31.8689Z" fill="#FCFCF3"/>
</g>
<g id="Frame 470">
<circle id="Ellipse 16_3" cx="7" cy="48.9219" r="7" fill="#7DBF90"/>
<path id="Abbastanza" d="M30.723 52.9219L27.317 44.2509H25.419L22.013 52.9219H23.677L24.314 51.2579H28.422L29.059 52.9219H30.723ZM27.993 49.9189H24.743L26.368 45.5379L27.993 49.9189ZM32.9961 52.9219V52.0639C33.4771 52.6879 34.1921 53.0779 35.0111 53.0779C36.6101 53.0779 37.7931 51.8559 37.7931 49.7889C37.7931 47.7609 36.6231 46.4869 35.0111 46.4869C34.2181 46.4869 33.4901 46.8509 32.9961 47.5139V44.2509H31.6311V52.9219H32.9961ZM32.9961 48.5539C33.2951 48.0859 33.9711 47.6959 34.6081 47.6959C35.7001 47.6959 36.3891 48.5669 36.3891 49.7889C36.3891 51.0109 35.7001 51.8689 34.6081 51.8689C33.9711 51.8689 33.2951 51.5049 32.9961 51.0369V48.5539ZM40.5498 52.9219V52.0639C41.0308 52.6879 41.7458 53.0779 42.5648 53.0779C44.1638 53.0779 45.3468 51.8559 45.3468 49.7889C45.3468 47.7609 44.1768 46.4869 42.5648 46.4869C41.7718 46.4869 41.0438 46.8509 40.5498 47.5139V44.2509H39.1848V52.9219H40.5498ZM40.5498 48.5539C40.8488 48.0859 41.5248 47.6959 42.1618 47.6959C43.2538 47.6959 43.9428 48.5669 43.9428 49.7889C43.9428 51.0109 43.2538 51.8689 42.1618 51.8689C41.5248 51.8689 40.8488 51.5049 40.5498 51.0369V48.5539ZM51.9385 52.9219V48.7619C51.9385 47.0719 50.7165 46.4869 49.3255 46.4869C48.3245 46.4869 47.4145 46.8119 46.6865 47.5009L47.2455 48.4499C47.7915 47.9169 48.4025 47.6569 49.1045 47.6569C49.9755 47.6569 50.5735 48.0989 50.5735 48.8269V49.7629C50.1185 49.2299 49.3905 48.9569 48.5455 48.9569C47.5185 48.9569 46.3615 49.5549 46.3615 50.9979C46.3615 52.3889 47.5185 53.0779 48.5455 53.0779C49.3775 53.0779 50.1055 52.7789 50.5735 52.2459V52.9219H51.9385ZM50.5735 51.4919C50.2615 51.9209 49.6765 52.1419 49.0785 52.1419C48.3115 52.1419 47.7395 51.6999 47.7395 51.0239C47.7395 50.3349 48.3115 49.8929 49.0785 49.8929C49.6765 49.8929 50.2615 50.1139 50.5735 50.5429V51.4919ZM53.1622 52.1029C53.8122 52.7399 54.7872 53.0779 55.8532 53.0779C57.5432 53.0779 58.4662 52.2329 58.4662 51.1279C58.4662 49.6459 57.1272 49.3339 56.0352 49.0999C55.2942 48.9309 54.6702 48.7619 54.6702 48.2809C54.6702 47.8389 55.1252 47.5789 55.8402 47.5789C56.6202 47.5789 57.3222 47.9039 57.6992 48.3329L58.2712 47.3709C57.6992 46.8639 56.8932 46.4869 55.8272 46.4869C54.2412 46.4869 53.3572 47.3709 53.3572 48.3979C53.3572 49.8019 54.6442 50.0879 55.7232 50.3219C56.4902 50.4909 57.1532 50.6859 57.1532 51.2319C57.1532 51.6999 56.7372 51.9989 55.9182 51.9989C55.0992 51.9989 54.2282 51.5699 53.7862 51.1149L53.1622 52.1029ZM61.7251 53.0779C62.3621 53.0779 62.7651 52.9089 63.0121 52.6749L62.6871 51.6479C62.5831 51.7649 62.3361 51.8689 62.0761 51.8689C61.6861 51.8689 61.4781 51.5569 61.4781 51.1279V47.8389H62.7521V46.6429H61.4781V44.9269H60.1131V46.6429H59.0731V47.8389H60.1131V51.4659C60.1131 52.5059 60.6721 53.0779 61.7251 53.0779ZM69.1914 52.9219V48.7619C69.1914 47.0719 67.9694 46.4869 66.5784 46.4869C65.5774 46.4869 64.6674 46.8119 63.9394 47.5009L64.4984 48.4499C65.0444 47.9169 65.6554 47.6569 66.3574 47.6569C67.2284 47.6569 67.8264 48.0989 67.8264 48.8269V49.7629C67.3714 49.2299 66.6434 48.9569 65.7984 48.9569C64.7714 48.9569 63.6144 49.5549 63.6144 50.9979C63.6144 52.3889 64.7714 53.0779 65.7984 53.0779C66.6304 53.0779 67.3584 52.7789 67.8264 52.2459V52.9219H69.1914ZM67.8264 51.4919C67.5144 51.9209 66.9294 52.1419 66.3314 52.1419C65.5644 52.1419 64.9924 51.6999 64.9924 51.0239C64.9924 50.3349 65.5644 49.8929 66.3314 49.8929C66.9294 49.8929 67.5144 50.1139 67.8264 50.5429V51.4919ZM76.5641 52.9219V48.5019C76.5641 47.2149 75.8881 46.4869 74.5361 46.4869C73.5481 46.4869 72.7421 47.0069 72.3261 47.5009V46.6429H70.9611V52.9219H72.3261V48.5409C72.6381 48.1119 73.2361 47.6959 73.9381 47.6959C74.7051 47.6959 75.1991 48.0209 75.1991 48.9959V52.9219H76.5641ZM83.0301 52.9219V51.7389H79.8451L82.9781 47.6439V46.6429H78.0511V47.8389H81.1581L78.0511 51.8949V52.9219H83.0301ZM89.7197 52.9219V48.7619C89.7197 47.0719 88.4977 46.4869 87.1067 46.4869C86.1057 46.4869 85.1957 46.8119 84.4677 47.5009L85.0267 48.4499C85.5727 47.9169 86.1837 47.6569 86.8857 47.6569C87.7567 47.6569 88.3547 48.0989 88.3547 48.8269V49.7629C87.8997 49.2299 87.1717 48.9569 86.3267 48.9569C85.2997 48.9569 84.1427 49.5549 84.1427 50.9979C84.1427 52.3889 85.2997 53.0779 86.3267 53.0779C87.1587 53.0779 87.8867 52.7789 88.3547 52.2459V52.9219H89.7197ZM88.3547 51.4919C88.0427 51.9209 87.4577 52.1419 86.8597 52.1419C86.0927 52.1419 85.5207 51.6999 85.5207 51.0239C85.5207 50.3349 86.0927 49.8929 86.8597 49.8929C87.4577 49.8929 88.0427 50.1139 88.3547 50.5429V51.4919Z" fill="#FCFCF3"/>
</g>
<g id="Frame 471">
<circle id="Ellipse 16_4" cx="7" cy="68.9219" r="7" fill="#93A2BF"/>
<path id="Cos&#195;&#172; cos&#195;&#172;" d="M27.018 73.0779C28.838 73.0779 29.904 72.1679 30.567 71.1279L29.267 70.4649C28.851 71.1929 28.019 71.7259 27.018 71.7259C25.367 71.7259 24.093 70.4129 24.093 68.5929C24.093 66.7729 25.367 65.4599 27.018 65.4599C28.019 65.4599 28.851 66.0059 29.267 66.7209L30.567 66.0579C29.917 65.0179 28.838 64.1079 27.018 64.1079C24.522 64.1079 22.533 65.9279 22.533 68.5929C22.533 71.2579 24.522 73.0779 27.018 73.0779ZM34.5793 73.0779C36.5943 73.0779 37.8163 71.5829 37.8163 69.7759C37.8163 67.9819 36.5943 66.4869 34.5793 66.4869C32.5903 66.4869 31.3553 67.9819 31.3553 69.7759C31.3553 71.5829 32.5903 73.0779 34.5793 73.0779ZM34.5793 71.8689C33.4223 71.8689 32.7723 70.8939 32.7723 69.7759C32.7723 68.6709 33.4223 67.6959 34.5793 67.6959C35.7493 67.6959 36.3993 68.6709 36.3993 69.7759C36.3993 70.8939 35.7493 71.8689 34.5793 71.8689ZM38.6515 72.1029C39.3015 72.7399 40.2765 73.0779 41.3425 73.0779C43.0325 73.0779 43.9555 72.2329 43.9555 71.1279C43.9555 69.6459 42.6165 69.3339 41.5245 69.0999C40.7835 68.9309 40.1595 68.7619 40.1595 68.2809C40.1595 67.8389 40.6145 67.5789 41.3295 67.5789C42.1095 67.5789 42.8115 67.9039 43.1885 68.3329L43.7605 67.3709C43.1885 66.8639 42.3825 66.4869 41.3165 66.4869C39.7305 66.4869 38.8465 67.3709 38.8465 68.3979C38.8465 69.8019 40.1335 70.0879 41.2125 70.3219C41.9795 70.4909 42.6425 70.6859 42.6425 71.2319C42.6425 71.6999 42.2265 71.9989 41.4075 71.9989C40.5885 71.9989 39.7175 71.5699 39.2755 71.1149L38.6515 72.1029ZM46.4863 65.6939L44.6663 63.8219H43.3663L45.5113 65.6939H46.4863ZM46.6943 72.9219V66.6429H45.3293V72.9219H46.6943ZM51.4139 69.7759C51.4139 71.6869 52.7529 73.0779 54.6639 73.0779C55.8859 73.0779 56.6269 72.5579 57.0689 71.9599L56.1719 71.1279C55.8209 71.6089 55.3399 71.8689 54.7289 71.8689C53.5849 71.8689 52.8309 70.9979 52.8309 69.7759C52.8309 68.5539 53.5849 67.6959 54.7289 67.6959C55.3399 67.6959 55.8209 67.9429 56.1719 68.4369L57.0689 67.6049C56.6269 67.0069 55.8859 66.4869 54.6639 66.4869C52.7529 66.4869 51.4139 67.8779 51.4139 69.7759ZM61.0998 73.0779C63.1148 73.0779 64.3368 71.5829 64.3368 69.7759C64.3368 67.9819 63.1148 66.4869 61.0998 66.4869C59.1108 66.4869 57.8758 67.9819 57.8758 69.7759C57.8758 71.5829 59.1108 73.0779 61.0998 73.0779ZM61.0998 71.8689C59.9428 71.8689 59.2928 70.8939 59.2928 69.7759C59.2928 68.6709 59.9428 67.6959 61.0998 67.6959C62.2698 67.6959 62.9198 68.6709 62.9198 69.7759C62.9198 70.8939 62.2698 71.8689 61.0998 71.8689ZM65.172 72.1029C65.822 72.7399 66.797 73.0779 67.863 73.0779C69.553 73.0779 70.476 72.2329 70.476 71.1279C70.476 69.6459 69.137 69.3339 68.045 69.0999C67.304 68.9309 66.68 68.7619 66.68 68.2809C66.68 67.8389 67.135 67.5789 67.85 67.5789C68.63 67.5789 69.332 67.9039 69.709 68.3329L70.281 67.3709C69.709 66.8639 68.903 66.4869 67.837 66.4869C66.251 66.4869 65.367 67.3709 65.367 68.3979C65.367 69.8019 66.654 70.0879 67.733 70.3219C68.5 70.4909 69.163 70.6859 69.163 71.2319C69.163 71.6999 68.747 71.9989 67.928 71.9989C67.109 71.9989 66.238 71.5699 65.796 71.1149L65.172 72.1029ZM73.0068 65.6939L71.1868 63.8219H69.8868L72.0318 65.6939H73.0068ZM73.2148 72.9219V66.6429H71.8498V72.9219H73.2148Z" fill="#FCFCF3"/>
</g>
<g id="Frame 472">
<circle id="Ellipse 16_5" cx="7" cy="88.9219" r="7" fill="#D6E3A2"/>
<path id="Poco" d="M24.444 92.9219V89.6849H26.732C28.539 89.6849 29.566 88.4369 29.566 86.9679C29.566 85.4989 28.552 84.2509 26.732 84.2509H22.923V92.9219H24.444ZM28.006 86.9679C28.006 87.7999 27.382 88.3459 26.524 88.3459H24.444V85.5899H26.524C27.382 85.5899 28.006 86.1359 28.006 86.9679ZM33.4368 93.0779C35.4518 93.0779 36.6738 91.5829 36.6738 89.7759C36.6738 87.9819 35.4518 86.4869 33.4368 86.4869C31.4478 86.4869 30.2128 87.9819 30.2128 89.7759C30.2128 91.5829 31.4478 93.0779 33.4368 93.0779ZM33.4368 91.8689C32.2798 91.8689 31.6297 90.8939 31.6297 89.7759C31.6297 88.6709 32.2798 87.6959 33.4368 87.6959C34.6068 87.6959 35.2568 88.6709 35.2568 89.7759C35.2568 90.8939 34.6068 91.8689 33.4368 91.8689ZM37.6649 89.7759C37.6649 91.6869 39.0039 93.0779 40.9149 93.0779C42.1369 93.0779 42.8779 92.5579 43.3199 91.9599L42.4229 91.1279C42.0719 91.6089 41.5909 91.8689 40.9799 91.8689C39.8359 91.8689 39.0819 90.9979 39.0819 89.7759C39.0819 88.5539 39.8359 87.6959 40.9799 87.6959C41.5909 87.6959 42.0719 87.9429 42.4229 88.4369L43.3199 87.6049C42.8779 87.0069 42.1369 86.4869 40.9149 86.4869C39.0039 86.4869 37.6649 87.8779 37.6649 89.7759ZM47.3508 93.0779C49.3658 93.0779 50.5878 91.5829 50.5878 89.7759C50.5878 87.9819 49.3658 86.4869 47.3508 86.4869C45.3618 86.4869 44.1268 87.9819 44.1268 89.7759C44.1268 91.5829 45.3618 93.0779 47.3508 93.0779ZM47.3508 91.8689C46.1938 91.8689 45.5438 90.8939 45.5438 89.7759C45.5438 88.6709 46.1938 87.6959 47.3508 87.6959C48.5208 87.6959 49.1708 88.6709 49.1708 89.7759C49.1708 90.8939 48.5208 91.8689 47.3508 91.8689Z" fill="#FCFCF3"/>
</g>
<g id="Frame 473">
<circle id="Ellipse 16_6" cx="7" cy="108.922" r="7" fill="#FCFCF3"/>
<path id="Per niente" d="M24.444 112.922V109.685H26.732C28.539 109.685 29.566 108.437 29.566 106.968C29.566 105.499 28.552 104.251 26.732 104.251H22.923V112.922H24.444ZM28.006 106.968C28.006 107.8 27.382 108.346 26.524 108.346H24.444V105.59H26.524C27.382 105.59 28.006 106.136 28.006 106.968ZM30.2128 109.776C30.2128 111.765 31.6168 113.078 33.5018 113.078C34.5028 113.078 35.4258 112.766 36.0498 112.168L35.4258 111.271C34.9838 111.713 34.2558 111.96 33.6448 111.96C32.4618 111.96 31.7468 111.18 31.6428 110.231H36.4918V109.906C36.4918 107.93 35.2828 106.487 33.3978 106.487C31.5388 106.487 30.2128 107.956 30.2128 109.776ZM33.3978 107.605C34.6328 107.605 35.1398 108.528 35.1658 109.269H31.6297C31.6948 108.502 32.2278 107.605 33.3978 107.605ZM39.2041 112.922V108.645C39.4771 108.203 40.2441 107.813 40.8161 107.813C40.9851 107.813 41.1281 107.826 41.2451 107.852V106.5C40.4261 106.5 39.6721 106.968 39.2041 107.566V106.643H37.8391V112.922H39.2041ZM51.2878 112.922V108.502C51.2878 107.215 50.6118 106.487 49.2598 106.487C48.2718 106.487 47.4658 107.007 47.0498 107.501V106.643H45.6848V112.922H47.0498V108.541C47.3618 108.112 47.9598 107.696 48.6618 107.696C49.4288 107.696 49.9228 108.021 49.9228 108.996V112.922H51.2878ZM53.7368 105.603C54.2048 105.603 54.5818 105.226 54.5818 104.758C54.5818 104.29 54.2048 103.913 53.7368 103.913C53.2818 103.913 52.8918 104.29 52.8918 104.758C52.8918 105.226 53.2818 105.603 53.7368 105.603ZM54.4258 112.922V106.643H53.0608V112.922H54.4258ZM55.8065 109.776C55.8065 111.765 57.2105 113.078 59.0955 113.078C60.0965 113.078 61.0195 112.766 61.6435 112.168L61.0195 111.271C60.5775 111.713 59.8495 111.96 59.2385 111.96C58.0555 111.96 57.3405 111.18 57.2365 110.231H62.0855V109.906C62.0855 107.93 60.8765 106.487 58.9915 106.487C57.1325 106.487 55.8065 107.956 55.8065 109.776ZM58.9915 107.605C60.2265 107.605 60.7335 108.528 60.7595 109.269H57.2235C57.2885 108.502 57.8215 107.605 58.9915 107.605ZM69.0358 112.922V108.502C69.0358 107.215 68.3598 106.487 67.0078 106.487C66.0198 106.487 65.2138 107.007 64.7978 107.501V106.643H63.4328V112.922H64.7978V108.541C65.1098 108.112 65.7078 107.696 66.4098 107.696C67.1768 107.696 67.6708 108.021 67.6708 108.996V112.922H69.0358ZM72.6938 113.078C73.3308 113.078 73.7338 112.909 73.9808 112.675L73.6558 111.648C73.5518 111.765 73.3048 111.869 73.0448 111.869C72.6548 111.869 72.4468 111.557 72.4468 111.128V107.839H73.7208V106.643H72.4468V104.927H71.0818V106.643H70.0418V107.839H71.0818V111.466C71.0818 112.506 71.6408 113.078 72.6938 113.078ZM74.5702 109.776C74.5702 111.765 75.9742 113.078 77.8592 113.078C78.8602 113.078 79.7832 112.766 80.4072 112.168L79.7832 111.271C79.3412 111.713 78.6132 111.96 78.0022 111.96C76.8192 111.96 76.1042 111.18 76.0002 110.231H80.8492V109.906C80.8492 107.93 79.6402 106.487 77.7552 106.487C75.8962 106.487 74.5702 107.956 74.5702 109.776ZM77.7552 107.605C78.9902 107.605 79.4972 108.528 79.5232 109.269H75.9872C76.0522 108.502 76.5852 107.605 77.7552 107.605Z" fill="#FCFCF3"/>
</g>
</g>
</svg>
