<svg width="160" height="161" viewBox="0 0 160 161" fill="none" xmlns="http://www.w3.org/2000/svg">
<g id="Group 467">
<path id="Le relazioni con il territorio e la comunit&#195;&#160;" d="M31.9948 68.9102V67.1602H28.0468V59.5722H26.0588V68.9102H31.9948ZM32.7605 65.5222C32.7605 67.6922 34.3145 69.0782 36.3725 69.0782C37.4225 69.0782 38.4725 68.7702 39.1585 68.1402L38.3745 66.9922C37.9405 67.4122 37.1985 67.6642 36.5685 67.6642C35.4205 67.6642 34.7345 66.9502 34.6225 66.0962H39.6485V65.7042C39.6485 63.4922 38.2765 61.9802 36.2605 61.9802C34.2025 61.9802 32.7605 63.5622 32.7605 65.5222ZM36.2605 63.3942C37.4365 63.3942 37.8845 64.2482 37.9265 64.8922H34.5945C34.6785 64.2202 35.1545 63.3942 36.2605 63.3942ZM46.2928 68.9102V64.4442C46.5868 64.0102 47.3708 63.6882 47.9588 63.6882C48.1548 63.6882 48.3228 63.7022 48.4488 63.7302V61.9942C47.6088 61.9942 46.7688 62.4702 46.2928 63.0722V62.1482H44.5148V68.9102H46.2928ZM49.1257 65.5222C49.1257 67.6922 50.6797 69.0782 52.7377 69.0782C53.7877 69.0782 54.8377 68.7702 55.5237 68.1402L54.7397 66.9922C54.3057 67.4122 53.5637 67.6642 52.9337 67.6642C51.7857 67.6642 51.0997 66.9502 50.9877 66.0962H56.0137V65.7042C56.0137 63.4922 54.6417 61.9802 52.6257 61.9802C50.5677 61.9802 49.1257 63.5622 49.1257 65.5222ZM52.6257 63.3942C53.8017 63.3942 54.2497 64.2482 54.2917 64.8922H50.9597C51.0437 64.2202 51.5197 63.3942 52.6257 63.3942ZM59.076 68.9102V59.5722H57.298V68.9102H59.076ZM66.677 68.9102V64.5422C66.677 62.5962 65.263 61.9802 63.723 61.9802C62.659 61.9802 61.595 62.3162 60.769 63.0442L61.441 64.2342C62.015 63.7022 62.687 63.4362 63.415 63.4362C64.311 63.4362 64.899 63.8842 64.899 64.5702V65.5082C64.451 64.9622 63.653 64.6822 62.757 64.6822C61.679 64.6822 60.405 65.2562 60.405 66.8382C60.405 68.3502 61.679 69.0782 62.757 69.0782C63.639 69.0782 64.437 68.7562 64.899 68.2102V68.9102H66.677ZM64.899 67.2862C64.605 67.6782 64.045 67.8742 63.471 67.8742C62.771 67.8742 62.197 67.5102 62.197 66.8802C62.197 66.2362 62.771 65.8582 63.471 65.8582C64.045 65.8582 64.605 66.0542 64.899 66.4462V67.2862ZM73.6626 68.9102V67.3562H70.5126L73.6066 63.4362V62.1482H68.1466V63.7022H71.1986L68.1466 67.5802V68.9102H73.6626ZM76.0218 61.1542C76.6098 61.1542 77.0858 60.6782 77.0858 60.0902C77.0858 59.5022 76.6098 59.0262 76.0218 59.0262C75.4478 59.0262 74.9578 59.5022 74.9578 60.0902C74.9578 60.6782 75.4478 61.1542 76.0218 61.1542ZM76.9178 68.9102V62.1482H75.1398V68.9102H76.9178ZM81.8168 69.0782C84.0568 69.0782 85.4008 67.4542 85.4008 65.5222C85.4008 63.6042 84.0568 61.9802 81.8168 61.9802C79.5908 61.9802 78.2468 63.6042 78.2468 65.5222C78.2468 67.4542 79.5908 69.0782 81.8168 69.0782ZM81.8168 67.4962C80.7108 67.4962 80.0948 66.5862 80.0948 65.5222C80.0948 64.4722 80.7108 63.5622 81.8168 63.5622C82.9228 63.5622 83.5528 64.4722 83.5528 65.5222C83.5528 66.5862 82.9228 67.4962 81.8168 67.4962ZM93.0619 68.9102V64.1362C93.0619 62.8202 92.3479 61.9802 90.8639 61.9802C89.7579 61.9802 88.9319 62.5122 88.4979 63.0302V62.1482H86.7199V68.9102H88.4979V64.3602C88.7919 63.9542 89.3379 63.5622 90.0379 63.5622C90.7939 63.5622 91.2839 63.8842 91.2839 64.8222V68.9102H93.0619ZM95.7093 61.1542C96.2973 61.1542 96.7733 60.6782 96.7733 60.0902C96.7733 59.5022 96.2973 59.0262 95.7093 59.0262C95.1353 59.0262 94.6453 59.5022 94.6453 60.0902C94.6453 60.6782 95.1353 61.1542 95.7093 61.1542ZM96.6053 68.9102V62.1482H94.8273V68.9102H96.6053ZM101.516 65.5222C101.516 67.6082 103.014 69.0782 105.1 69.0782C106.486 69.0782 107.326 68.4762 107.774 67.8462L106.612 66.7682C106.29 67.2162 105.8 67.4962 105.184 67.4962C104.106 67.4962 103.35 66.6982 103.35 65.5222C103.35 64.3462 104.106 63.5622 105.184 63.5622C105.8 63.5622 106.29 63.8282 106.612 64.2902L107.774 63.2122C107.326 62.5822 106.486 61.9802 105.1 61.9802C103.014 61.9802 101.516 63.4502 101.516 65.5222ZM112.073 69.0782C114.313 69.0782 115.657 67.4542 115.657 65.5222C115.657 63.6042 114.313 61.9802 112.073 61.9802C109.847 61.9802 108.503 63.6042 108.503 65.5222C108.503 67.4542 109.847 69.0782 112.073 69.0782ZM112.073 67.4962C110.967 67.4962 110.351 66.5862 110.351 65.5222C110.351 64.4722 110.967 63.5622 112.073 63.5622C113.179 63.5622 113.809 64.4722 113.809 65.5222C113.809 66.5862 113.179 67.4962 112.073 67.4962ZM123.318 68.9102V64.1362C123.318 62.8202 122.604 61.9802 121.12 61.9802C120.014 61.9802 119.188 62.5122 118.754 63.0302V62.1482H116.976V68.9102H118.754V64.3602C119.048 63.9542 119.594 63.5622 120.294 63.5622C121.05 63.5622 121.54 63.8842 121.54 64.8222V68.9102H123.318ZM129.547 61.1542C130.135 61.1542 130.611 60.6782 130.611 60.0902C130.611 59.5022 130.135 59.0262 129.547 59.0262C128.973 59.0262 128.483 59.5022 128.483 60.0902C128.483 60.6782 128.973 61.1542 129.547 61.1542ZM130.443 68.9102V62.1482H128.665V68.9102H130.443ZM133.984 68.9102V59.5722H132.206V68.9102H133.984ZM42.3805 85.0782C43.1225 85.0782 43.5985 84.8822 43.8645 84.6442L43.4865 83.3002C43.3885 83.3982 43.1365 83.4962 42.8705 83.4962C42.4785 83.4962 42.2545 83.1742 42.2545 82.7542V79.7022H43.6265V78.1482H42.2545V76.3002H40.4625V78.1482H39.3425V79.7022H40.4625V83.2302C40.4625 84.4342 41.1345 85.0782 42.3805 85.0782ZM44.4089 81.5222C44.4089 83.6922 45.9629 85.0782 48.0209 85.0782C49.0709 85.0782 50.1209 84.7702 50.8069 84.1402L50.0229 82.9922C49.5889 83.4122 48.8469 83.6642 48.2169 83.6642C47.0689 83.6642 46.3829 82.9502 46.2709 82.0962H51.2969V81.7042C51.2969 79.4922 49.9249 77.9802 47.9089 77.9802C45.8509 77.9802 44.4089 79.5622 44.4089 81.5222ZM47.9089 79.3942C49.0849 79.3942 49.5329 80.2482 49.5749 80.8922H46.2429C46.3269 80.2202 46.8029 79.3942 47.9089 79.3942ZM54.3592 84.9102V80.4442C54.6532 80.0102 55.4372 79.6882 56.0252 79.6882C56.2212 79.6882 56.3892 79.7022 56.5152 79.7302V77.9942C55.6752 77.9942 54.8352 78.4702 54.3592 79.0722V78.1482H52.5812V84.9102H54.3592ZM59.4041 84.9102V80.4442C59.6981 80.0102 60.4821 79.6882 61.0701 79.6882C61.2661 79.6882 61.4341 79.7022 61.5601 79.7302V77.9942C60.7201 77.9942 59.8801 78.4702 59.4041 79.0722V78.1482H57.6261V84.9102H59.4041ZM63.5531 77.1542C64.1411 77.1542 64.6171 76.6782 64.6171 76.0902C64.6171 75.5022 64.1411 75.0262 63.5531 75.0262C62.9791 75.0262 62.4891 75.5022 62.4891 76.0902C62.4891 76.6782 62.9791 77.1542 63.5531 77.1542ZM64.4491 84.9102V78.1482H62.6711V84.9102H64.4491ZM68.4801 85.0782C69.2221 85.0782 69.6981 84.8822 69.9641 84.6442L69.5861 83.3002C69.4881 83.3982 69.2361 83.4962 68.9701 83.4962C68.5781 83.4962 68.3541 83.1742 68.3541 82.7542V79.7022H69.7261V78.1482H68.3541V76.3002H66.5621V78.1482H65.4421V79.7022H66.5621V83.2302C66.5621 84.4342 67.2341 85.0782 68.4801 85.0782ZM74.0785 85.0782C76.3185 85.0782 77.6625 83.4542 77.6625 81.5222C77.6625 79.6042 76.3185 77.9802 74.0785 77.9802C71.8525 77.9802 70.5085 79.6042 70.5085 81.5222C70.5085 83.4542 71.8525 85.0782 74.0785 85.0782ZM74.0785 83.4962C72.9725 83.4962 72.3565 82.5862 72.3565 81.5222C72.3565 80.4722 72.9725 79.5622 74.0785 79.5622C75.1845 79.5622 75.8145 80.4722 75.8145 81.5222C75.8145 82.5862 75.1845 83.4962 74.0785 83.4962ZM80.7596 84.9102V80.4442C81.0536 80.0102 81.8376 79.6882 82.4256 79.6882C82.6216 79.6882 82.7896 79.7022 82.9156 79.7302V77.9942C82.0756 77.9942 81.2356 78.4702 80.7596 79.0722V78.1482H78.9816V84.9102H80.7596ZM84.9085 77.1542C85.4965 77.1542 85.9725 76.6782 85.9725 76.0902C85.9725 75.5022 85.4965 75.0262 84.9085 75.0262C84.3345 75.0262 83.8445 75.5022 83.8445 76.0902C83.8445 76.6782 84.3345 77.1542 84.9085 77.1542ZM85.8045 84.9102V78.1482H84.0265V84.9102H85.8045ZM90.7035 85.0782C92.9435 85.0782 94.2875 83.4542 94.2875 81.5222C94.2875 79.6042 92.9435 77.9802 90.7035 77.9802C88.4775 77.9802 87.1335 79.6042 87.1335 81.5222C87.1335 83.4542 88.4775 85.0782 90.7035 85.0782ZM90.7035 83.4962C89.5975 83.4962 88.9815 82.5862 88.9815 81.5222C88.9815 80.4722 89.5975 79.5622 90.7035 79.5622C91.8095 79.5622 92.4395 80.4722 92.4395 81.5222C92.4395 82.5862 91.8095 83.4962 90.7035 83.4962ZM98.7546 81.5222C98.7546 83.6922 100.309 85.0782 102.367 85.0782C103.417 85.0782 104.467 84.7702 105.153 84.1402L104.369 82.9922C103.935 83.4122 103.193 83.6642 102.563 83.6642C101.415 83.6642 100.729 82.9502 100.617 82.0962H105.643V81.7042C105.643 79.4922 104.271 77.9802 102.255 77.9802C100.197 77.9802 98.7546 79.5622 98.7546 81.5222ZM102.255 79.3942C103.431 79.3942 103.879 80.2482 103.921 80.8922H100.589C100.673 80.2202 101.149 79.3942 102.255 79.3942ZM112.287 84.9102V75.5722H110.509V84.9102H112.287ZM119.888 84.9102V80.5422C119.888 78.5962 118.474 77.9802 116.934 77.9802C115.87 77.9802 114.806 78.3162 113.98 79.0442L114.652 80.2342C115.226 79.7022 115.898 79.4362 116.626 79.4362C117.522 79.4362 118.11 79.8842 118.11 80.5702V81.5082C117.662 80.9622 116.864 80.6822 115.968 80.6822C114.89 80.6822 113.616 81.2562 113.616 82.8382C113.616 84.3502 114.89 85.0782 115.968 85.0782C116.85 85.0782 117.648 84.7562 118.11 84.2102V84.9102H119.888ZM118.11 83.2862C117.816 83.6782 117.256 83.8742 116.682 83.8742C115.982 83.8742 115.408 83.5102 115.408 82.8802C115.408 82.2362 115.982 81.8582 116.682 81.8582C117.256 81.8582 117.816 82.0542 118.11 82.4462V83.2862ZM50.9304 97.5222C50.9304 99.6082 52.4284 101.078 54.5144 101.078C55.9004 101.078 56.7404 100.476 57.1884 99.8462L56.0264 98.7682C55.7044 99.2162 55.2144 99.4962 54.5984 99.4962C53.5204 99.4962 52.7644 98.6982 52.7644 97.5222C52.7644 96.3462 53.5204 95.5622 54.5984 95.5622C55.2144 95.5622 55.7044 95.8282 56.0264 96.2902L57.1884 95.2122C56.7404 94.5822 55.9004 93.9802 54.5144 93.9802C52.4284 93.9802 50.9304 95.4502 50.9304 97.5222ZM61.4868 101.078C63.7268 101.078 65.0708 99.4542 65.0708 97.5222C65.0708 95.6042 63.7268 93.9802 61.4868 93.9802C59.2608 93.9802 57.9168 95.6042 57.9168 97.5222C57.9168 99.4542 59.2608 101.078 61.4868 101.078ZM61.4868 99.4962C60.3808 99.4962 59.7648 98.5862 59.7648 97.5222C59.7648 96.4722 60.3808 95.5622 61.4868 95.5622C62.5928 95.5622 63.2228 96.4722 63.2228 97.5222C63.2228 98.5862 62.5928 99.4962 61.4868 99.4962ZM76.5678 100.91V96.0242C76.5678 94.6382 75.8258 93.9802 74.5798 93.9802C73.5438 93.9802 72.6478 94.5962 72.2558 95.2122C72.0038 94.4422 71.3738 93.9802 70.3798 93.9802C69.3438 93.9802 68.4478 94.6242 68.1678 95.0302V94.1482H66.3898V100.91H68.1678V96.3602C68.4338 95.9822 68.9518 95.5622 69.5678 95.5622C70.2958 95.5622 70.5758 96.0102 70.5758 96.6402V100.91H72.3678V96.3462C72.6198 95.9822 73.1378 95.5622 73.7678 95.5622C74.4958 95.5622 74.7758 96.0102 74.7758 96.6402V100.91H76.5678ZM84.6537 100.91V94.1482H82.8757V98.7262C82.5677 99.1182 82.0217 99.4962 81.3357 99.4962C80.5797 99.4962 80.0897 99.1882 80.0897 98.2502V94.1482H78.3117V98.9502C78.3117 100.266 79.0117 101.078 80.4957 101.078C81.6017 101.078 82.4137 100.574 82.8757 100.056V100.91H84.6537ZM92.7611 100.91V96.1362C92.7611 94.8202 92.0471 93.9802 90.5631 93.9802C89.4571 93.9802 88.6311 94.5122 88.1971 95.0302V94.1482H86.4191V100.91H88.1971V96.3602C88.4911 95.9542 89.0371 95.5622 89.7371 95.5622C90.4931 95.5622 90.9831 95.8842 90.9831 96.8222V100.91H92.7611ZM95.4085 93.1542C95.9965 93.1542 96.4725 92.6782 96.4725 92.0902C96.4725 91.5022 95.9965 91.0262 95.4085 91.0262C94.8345 91.0262 94.3445 91.5022 94.3445 92.0902C94.3445 92.6782 94.8345 93.1542 95.4085 93.1542ZM96.3045 100.91V94.1482H94.5265V100.91H96.3045ZM100.336 101.078C101.078 101.078 101.554 100.882 101.82 100.644L101.442 99.3002C101.344 99.3982 101.092 99.4962 100.826 99.4962C100.434 99.4962 100.21 99.1742 100.21 98.7542V95.7022H101.582V94.1482H100.21V92.3002H98.4175V94.1482H97.2975V95.7022H98.4175V99.2302C98.4175 100.434 99.0895 101.078 100.336 101.078ZM106.34 93.1262L104.464 91.1102H102.826L105.094 93.1262H106.34ZM108.636 100.91V96.5422C108.636 94.5962 107.222 93.9802 105.682 93.9802C104.618 93.9802 103.554 94.3162 102.728 95.0442L103.4 96.2342C103.974 95.7022 104.646 95.4362 105.374 95.4362C106.27 95.4362 106.858 95.8842 106.858 96.5702V97.5082C106.41 96.9622 105.612 96.6822 104.716 96.6822C103.638 96.6822 102.364 97.2562 102.364 98.8382C102.364 100.35 103.638 101.078 104.716 101.078C105.598 101.078 106.396 100.756 106.858 100.21V100.91H108.636ZM106.858 99.2862C106.564 99.6782 106.004 99.8742 105.43 99.8742C104.73 99.8742 104.156 99.5102 104.156 98.8802C104.156 98.2362 104.73 97.8582 105.43 97.8582C106.004 97.8582 106.564 98.0542 106.858 98.4462V99.2862Z" fill="#FCFCF3"/>
<g id="Group">
<path id="point-0-0" d="M80 4.9245C80 4.38113 80.1106 3.84345 80.325 3.34422C80.5393 2.84499 80.8531 2.39467 81.247 2.02069C81.641 1.64672 82.1069 1.35692 82.6164 1.16896C83.1259 0.981006 83.6683 0.898824 84.2105 0.927423C103.36 1.93735 121.51 9.79668 135.354 23.0739C135.746 23.4499 136.058 23.9018 136.27 24.4021C136.482 24.9024 136.589 25.4407 136.587 25.984C136.584 26.5274 136.471 27.0645 136.254 27.5626C136.037 28.0608 135.721 28.5095 135.325 28.8814C134.578 29.5832 133.591 29.9714 132.566 29.9662C131.542 29.961 130.559 29.5627 129.819 28.8534C117.359 16.9039 101.024 9.83052 83.7895 8.92159C82.7665 8.86763 81.8031 8.42299 81.0981 7.67931C80.393 6.93562 80 5.9496 80 4.9245V4.9245Z" fill="#493C3C"/>
<path id="point-0-1" d="M135.325 28.8813C135.721 28.5094 136.188 28.222 136.698 28.0366C137.209 27.8512 137.752 27.7718 138.294 27.8032C138.836 27.8345 139.366 27.976 139.852 28.219C140.337 28.462 140.769 28.8014 141.119 29.2165C153.221 43.5554 159.903 61.6934 159.999 80.4617C160.094 99.2299 153.597 117.435 141.641 131.896C129.685 146.358 113.032 156.156 94.5904 159.579C76.1488 163.002 57.0916 159.832 40.7483 150.624C40.2751 150.357 39.8611 149.997 39.5316 149.565C39.2021 149.133 38.9639 148.639 38.8315 148.112C38.6991 147.585 38.6754 147.036 38.7617 146.5C38.848 145.963 39.0426 145.45 39.3335 144.991C39.8824 144.126 40.7423 143.504 41.7358 143.254C42.7293 143.004 43.7808 143.145 44.6734 143.648C59.3824 151.936 76.534 154.789 93.1314 151.708C109.729 148.627 124.717 139.809 135.477 126.794C146.237 113.778 152.085 97.3938 151.999 80.5024C151.913 63.611 145.899 47.2868 135.007 34.3818C134.346 33.5986 134.01 32.5915 134.07 31.5681C134.129 30.5448 134.578 29.5831 135.325 28.8813Z" fill="#58E1DB"/>
<path id="point-0-2" d="M39.3336 144.991C39.0426 145.45 38.6614 145.845 38.213 146.151C37.7647 146.458 37.2587 146.67 36.7258 146.774C36.1929 146.879 35.6444 146.874 35.1135 146.759C34.5827 146.645 34.0807 146.423 33.6382 146.109C23.2374 138.708 14.757 128.924 8.90519 117.575C3.05339 106.225 0 93.6399 0 80.8691C0 68.0983 3.05339 55.5128 8.90519 44.1635C14.757 32.8143 23.2374 23.0307 33.6382 15.6297C34.0807 15.3148 34.5827 15.0934 35.1135 14.9789C35.6444 14.8644 36.1929 14.8593 36.7258 14.9638C37.2587 15.0683 37.7647 15.2803 38.213 15.5869C38.6614 15.8935 39.0426 16.2882 39.3336 16.747C39.8825 17.6125 40.0787 18.6557 39.8816 19.6617C39.6845 20.6676 39.1092 21.5596 38.2744 22.1536C28.9136 28.8145 21.2813 37.6198 16.0147 47.8341C10.748 58.0484 8 69.3754 8 80.8691C8 92.3628 10.748 103.69 16.0147 113.904C21.2813 124.118 28.9136 132.924 38.2744 139.585C39.1092 140.179 39.6845 141.071 39.8816 142.077C40.0787 143.082 39.8825 144.126 39.3336 144.991Z" fill="#7DBF90"/>
<path id="point-0-3" d="M39.3335 16.7468C39.0426 16.288 38.848 15.7748 38.7617 15.2383C38.6754 14.7018 38.6991 14.1534 38.8315 13.6264C38.9639 13.0994 39.2021 12.605 39.5316 12.1731C39.8611 11.7412 40.2751 11.381 40.7483 11.1144C44.1426 9.20182 47.6721 7.5399 51.3084 6.14189C51.8153 5.94701 52.3565 5.85745 52.8991 5.87866C53.4417 5.89987 53.9743 6.03142 54.4645 6.26527C54.9546 6.49913 55.3921 6.8304 55.7501 7.2389C56.1082 7.64741 56.3794 8.12458 56.5472 8.64136C56.8638 9.61628 56.7944 10.6756 56.3536 11.6009C55.9127 12.5262 55.1338 13.247 54.1775 13.6146C50.9048 14.8728 47.7284 16.3685 44.6734 18.0898C43.7808 18.5928 42.7293 18.7339 41.7358 18.484C40.7423 18.2341 39.8824 17.6123 39.3335 16.7468Z" fill="#93A2BF"/>
<path id="point-0-4" d="M56.5472 8.64182C56.3794 8.12504 56.3185 7.57949 56.3682 7.0384C56.4179 6.49731 56.5772 5.97201 56.8364 5.49453C57.0956 5.01704 57.4492 4.59736 57.8757 4.26105C58.3022 3.92475 58.7927 3.67887 59.3173 3.53839C61.4604 2.96444 63.6265 2.47995 65.8098 2.08617C66.3442 1.98979 66.8927 2.0033 67.4217 2.12588C67.9507 2.24846 68.4492 2.47753 68.8869 2.79915C69.3246 3.12077 69.6923 3.52819 69.9675 3.9966C70.2427 4.46501 70.4197 4.98459 70.4878 5.52367C70.6162 6.54069 70.3498 7.56822 69.7434 8.39447C69.1371 9.22071 68.237 9.78267 67.2288 9.9645C65.2638 10.3189 63.3144 10.7549 61.3855 11.2715C60.3959 11.5365 59.3425 11.4115 58.4423 10.9222C57.542 10.433 56.8637 9.61674 56.5472 8.64182Z" fill="#D6E3A2"/>
<path id="point-0-5" d="M70.4879 5.52335C70.4198 4.98426 70.4622 4.43695 70.6123 3.91477C70.7625 3.39259 71.0174 2.90647 71.3614 2.48604C71.7054 2.0656 72.1313 1.71966 72.6132 1.46929C73.0952 1.21891 73.623 1.06936 74.1646 1.02972C74.7058 0.990107 75.2475 0.956006 75.7895 0.927423C76.3317 0.898824 76.8742 0.981006 77.3836 1.16896C77.8931 1.35692 78.3591 1.64672 78.753 2.02069C79.1469 2.39467 79.4607 2.84499 79.6751 3.34422C79.8894 3.84345 80 4.38113 80 4.9245C80 5.9496 79.607 6.93562 78.9019 7.67931C78.1969 8.42299 77.2335 8.86763 76.2105 8.92159C75.7228 8.94731 75.2353 8.97801 74.7481 9.01366C73.7264 9.08843 72.715 8.7681 71.9224 8.11871C71.1297 7.46932 70.6163 6.54036 70.4879 5.52335Z" fill="#FCFCF3"/>
</g>
</g>
</svg>
