<svg width="337" height="161" viewBox="0 0 337 161" fill="none" xmlns="http://www.w3.org/2000/svg">
<g id="Group 471">
<g id="Group 348">
<path id="La riduzione&#226;&#128;&#168;del rischio d&#226;&#128;&#153;impresa" d="M47.228 73.7251V71.9751H43.28V64.3871H41.292V73.7251H47.228ZM54.3205 73.7251V69.3571C54.3205 67.4111 52.9065 66.7951 51.3665 66.7951C50.3025 66.7951 49.2385 67.1311 48.4125 67.8591L49.0845 69.0491C49.6585 68.5171 50.3305 68.2511 51.0585 68.2511C51.9545 68.2511 52.5425 68.6991 52.5425 69.3851V70.3231C52.0945 69.7771 51.2965 69.4971 50.4005 69.4971C49.3225 69.4971 48.0485 70.0711 48.0485 71.6531C48.0485 73.1651 49.3225 73.8931 50.4005 73.8931C51.2825 73.8931 52.0805 73.5711 52.5425 73.0251V73.7251H54.3205ZM52.5425 72.1011C52.2485 72.4931 51.6885 72.6891 51.1145 72.6891C50.4145 72.6891 49.8405 72.3251 49.8405 71.6951C49.8405 71.0511 50.4145 70.6731 51.1145 70.6731C51.6885 70.6731 52.2485 70.8691 52.5425 71.2611V72.1011ZM61.4441 73.7251V69.2591C61.7381 68.8251 62.5221 68.5031 63.1101 68.5031C63.3061 68.5031 63.4741 68.5171 63.6001 68.5451V66.8091C62.7601 66.8091 61.9201 67.2851 61.4441 67.8871V66.9631H59.6661V73.7251H61.4441ZM65.593 65.9691C66.181 65.9691 66.657 65.4931 66.657 64.9051C66.657 64.3171 66.181 63.8411 65.593 63.8411C65.019 63.8411 64.529 64.3171 64.529 64.9051C64.529 65.4931 65.019 65.9691 65.593 65.9691ZM66.489 73.7251V66.9631H64.711V73.7251H66.489ZM74.692 73.7251V64.3871H72.9V67.8311C72.368 67.1451 71.612 66.7951 70.814 66.7951C69.092 66.7951 67.818 68.1391 67.818 70.3511C67.818 72.6051 69.106 73.8931 70.814 73.8931C71.626 73.8931 72.368 73.5291 72.9 72.8711V73.7251H74.692ZM72.9 71.5411C72.592 71.9891 71.962 72.3111 71.36 72.3111C70.352 72.3111 69.652 71.5131 69.652 70.3511C69.652 69.1751 70.352 68.3771 71.36 68.3771C71.962 68.3771 72.592 68.6991 72.9 69.1471V71.5411ZM82.7971 73.7251V66.9631H81.0191V71.5411C80.7111 71.9331 80.1651 72.3111 79.4791 72.3111C78.7231 72.3111 78.2331 72.0031 78.2331 71.0651V66.9631H76.4551V71.7651C76.4551 73.0811 77.1551 73.8931 78.6391 73.8931C79.7451 73.8931 80.5571 73.3891 81.0191 72.8711V73.7251H82.7971ZM89.7845 73.7251V72.1711H86.6345L89.7285 68.2511V66.9631H84.2685V68.5171H87.3205L84.2685 72.3951V73.7251H89.7845ZM92.1438 65.9691C92.7318 65.9691 93.2078 65.4931 93.2078 64.9051C93.2078 64.3171 92.7318 63.8411 92.1438 63.8411C91.5698 63.8411 91.0798 64.3171 91.0798 64.9051C91.0798 65.4931 91.5698 65.9691 92.1438 65.9691ZM93.0398 73.7251V66.9631H91.2618V73.7251H93.0398ZM97.9388 73.8931C100.179 73.8931 101.523 72.2691 101.523 70.3371C101.523 68.4191 100.179 66.7951 97.9388 66.7951C95.7128 66.7951 94.3688 68.4191 94.3688 70.3371C94.3688 72.2691 95.7128 73.8931 97.9388 73.8931ZM97.9388 72.3111C96.8328 72.3111 96.2168 71.4011 96.2168 70.3371C96.2168 69.2871 96.8328 68.3771 97.9388 68.3771C99.0448 68.3771 99.6748 69.2871 99.6748 70.3371C99.6748 71.4011 99.0448 72.3111 97.9388 72.3111ZM109.184 73.7251V68.9511C109.184 67.6351 108.47 66.7951 106.986 66.7951C105.88 66.7951 105.054 67.3271 104.62 67.8451V66.9631H102.842V73.7251H104.62V69.1751C104.914 68.7691 105.46 68.3771 106.16 68.3771C106.916 68.3771 107.406 68.6991 107.406 69.6371V73.7251H109.184ZM110.515 70.3371C110.515 72.5071 112.069 73.8931 114.127 73.8931C115.177 73.8931 116.227 73.5851 116.913 72.9551L116.129 71.8071C115.695 72.2271 114.953 72.4791 114.323 72.4791C113.175 72.4791 112.489 71.7651 112.377 70.9111H117.403V70.5191C117.403 68.3071 116.031 66.7951 114.015 66.7951C111.957 66.7951 110.515 68.3771 110.515 70.3371ZM114.015 68.2091C115.191 68.2091 115.639 69.0631 115.681 69.7071H112.349C112.433 69.0351 112.909 68.2091 114.015 68.2091ZM20.8727 89.7251V80.3871H19.0807V83.8311C18.5487 83.1451 17.7927 82.7951 16.9947 82.7951C15.2727 82.7951 13.9987 84.1391 13.9987 86.3511C13.9987 88.6051 15.2867 89.8931 16.9947 89.8931C17.8067 89.8931 18.5487 89.5291 19.0807 88.8711V89.7251H20.8727ZM19.0807 87.5411C18.7727 87.9891 18.1427 88.3111 17.5407 88.3111C16.5327 88.3111 15.8327 87.5131 15.8327 86.3511C15.8327 85.1751 16.5327 84.3771 17.5407 84.3771C18.1427 84.3771 18.7727 84.6991 19.0807 85.1471V87.5411ZM22.2018 86.3371C22.2018 88.5071 23.7558 89.8931 25.8138 89.8931C26.8638 89.8931 27.9138 89.5851 28.5998 88.9551L27.8158 87.8071C27.3818 88.2271 26.6398 88.4791 26.0098 88.4791C24.8618 88.4791 24.1758 87.7651 24.0638 86.9111H29.0898V86.5191C29.0898 84.3071 27.7178 82.7951 25.7018 82.7951C23.6438 82.7951 22.2018 84.3771 22.2018 86.3371ZM25.7018 84.2091C26.8778 84.2091 27.3258 85.0631 27.3678 85.7071H24.0358C24.1198 85.0351 24.5958 84.2091 25.7018 84.2091ZM32.1521 89.7251V80.3871H30.3741V89.7251H32.1521ZM39.2751 89.7251V85.2591C39.5691 84.8251 40.3531 84.5031 40.9411 84.5031C41.1371 84.5031 41.3051 84.5171 41.4311 84.5451V82.8091C40.5911 82.8091 39.7511 83.2851 39.2751 83.8871V82.9631H37.4971V89.7251H39.2751ZM43.424 81.9691C44.012 81.9691 44.488 81.4931 44.488 80.9051C44.488 80.3171 44.012 79.8411 43.424 79.8411C42.85 79.8411 42.36 80.3171 42.36 80.9051C42.36 81.4931 42.85 81.9691 43.424 81.9691ZM44.32 89.7251V82.9631H42.542V89.7251H44.32ZM45.4951 88.8431C46.2091 89.5011 47.3431 89.8931 48.5191 89.8931C50.3951 89.8931 51.4451 88.9691 51.4451 87.7231C51.4451 86.0431 49.8911 85.7351 48.7291 85.5111C47.9731 85.3571 47.4411 85.2031 47.4411 84.7831C47.4411 84.3911 47.8611 84.1531 48.5051 84.1531C49.3311 84.1531 50.1011 84.5031 50.5071 84.9371L51.2071 83.7191C50.5491 83.1871 49.6391 82.7951 48.4911 82.7951C46.7131 82.7951 45.7191 83.7891 45.7191 84.9231C45.7191 86.5331 47.2171 86.8131 48.3791 87.0371C49.1491 87.1911 49.7371 87.3591 49.7371 87.8351C49.7371 88.2551 49.3731 88.5211 48.6031 88.5211C47.7631 88.5211 46.7551 88.0591 46.2651 87.5971L45.4951 88.8431ZM52.3209 86.3371C52.3209 88.4231 53.8189 89.8931 55.9049 89.8931C57.2909 89.8931 58.1309 89.2911 58.5789 88.6611L57.4169 87.5831C57.0949 88.0311 56.6049 88.3111 55.9889 88.3111C54.9109 88.3111 54.1549 87.5131 54.1549 86.3371C54.1549 85.1611 54.9109 84.3771 55.9889 84.3771C56.6049 84.3771 57.0949 84.6431 57.4169 85.1051L58.5789 84.0271C58.1309 83.3971 57.2909 82.7951 55.9049 82.7951C53.8189 82.7951 52.3209 84.2651 52.3209 86.3371ZM66.0973 89.7251V84.9231C66.0973 83.6071 65.3833 82.7951 63.8993 82.7951C62.7933 82.7951 61.9533 83.3271 61.5193 83.8451V80.3871H59.7413V89.7251H61.5193V85.1751C61.8273 84.7691 62.3733 84.3771 63.0593 84.3771C63.8293 84.3771 64.3193 84.6711 64.3193 85.6091V89.7251H66.0973ZM68.7444 81.9691C69.3324 81.9691 69.8084 81.4931 69.8084 80.9051C69.8084 80.3171 69.3324 79.8411 68.7444 79.8411C68.1704 79.8411 67.6804 80.3171 67.6804 80.9051C67.6804 81.4931 68.1704 81.9691 68.7444 81.9691ZM69.6404 89.7251V82.9631H67.8624V89.7251H69.6404ZM74.5394 89.8931C76.7794 89.8931 78.1234 88.2691 78.1234 86.3371C78.1234 84.4191 76.7794 82.7951 74.5394 82.7951C72.3134 82.7951 70.9694 84.4191 70.9694 86.3371C70.9694 88.2691 72.3134 89.8931 74.5394 89.8931ZM74.5394 88.3111C73.4334 88.3111 72.8174 87.4011 72.8174 86.3371C72.8174 85.2871 73.4334 84.3771 74.5394 84.3771C75.6454 84.3771 76.2754 85.2871 76.2754 86.3371C76.2754 87.4011 75.6454 88.3111 74.5394 88.3111ZM89.4645 89.7251V80.3871H87.6725V83.8311C87.1405 83.1451 86.3845 82.7951 85.5865 82.7951C83.8645 82.7951 82.5905 84.1391 82.5905 86.3511C82.5905 88.6051 83.8785 89.8931 85.5865 89.8931C86.3985 89.8931 87.1405 89.5291 87.6725 88.8711V89.7251H89.4645ZM87.6725 87.5411C87.3645 87.9891 86.7345 88.3111 86.1325 88.3111C85.1245 88.3111 84.4245 87.5131 84.4245 86.3511C84.4245 85.1751 85.1245 84.3771 86.1325 84.3771C86.7345 84.3771 87.3645 84.6991 87.6725 85.1471V87.5411ZM91.9136 84.2791C92.7676 83.6631 93.3556 82.7251 93.3556 81.6751C93.3556 80.7651 92.7536 80.2471 92.0956 80.2471C91.5076 80.2471 91.0036 80.7511 91.0036 81.3671C91.0036 81.9551 91.4236 82.3751 91.9556 82.3751C92.0536 82.3751 92.1796 82.3471 92.2216 82.3191C92.1096 82.8231 91.5916 83.4111 91.1436 83.6491L91.9136 84.2791ZM95.6779 81.9691C96.2659 81.9691 96.7419 81.4931 96.7419 80.9051C96.7419 80.3171 96.2659 79.8411 95.6779 79.8411C95.1039 79.8411 94.6139 80.3171 94.6139 80.9051C94.6139 81.4931 95.1039 81.9691 95.6779 81.9691ZM96.5739 89.7251V82.9631H94.7959V89.7251H96.5739ZM108.515 89.7251V84.8391C108.515 83.4531 107.773 82.7951 106.527 82.7951C105.491 82.7951 104.595 83.4111 104.203 84.0271C103.951 83.2571 103.321 82.7951 102.327 82.7951C101.291 82.7951 100.395 83.4391 100.115 83.8451V82.9631H98.337V89.7251H100.115V85.1751C100.381 84.7971 100.899 84.3771 101.515 84.3771C102.243 84.3771 102.523 84.8251 102.523 85.4551V89.7251H104.315V85.1611C104.567 84.7971 105.085 84.3771 105.715 84.3771C106.443 84.3771 106.723 84.8251 106.723 85.4551V89.7251H108.515ZM112.037 88.8571C112.583 89.5571 113.325 89.8931 114.123 89.8931C115.859 89.8931 117.119 88.5911 117.119 86.3371C117.119 84.0831 115.859 82.7951 114.123 82.7951C113.297 82.7951 112.555 83.1591 112.037 83.8171V82.9631H110.259V92.3011H112.037V88.8571ZM115.271 86.3371C115.271 87.5131 114.585 88.3111 113.563 88.3111C112.989 88.3111 112.331 87.9611 112.037 87.5411V85.1471C112.331 84.7131 112.989 84.3771 113.563 84.3771C114.585 84.3771 115.271 85.1751 115.271 86.3371ZM120.226 89.7251V85.2591C120.52 84.8251 121.304 84.5031 121.892 84.5031C122.088 84.5031 122.256 84.5171 122.382 84.5451V82.8091C121.542 82.8091 120.702 83.2851 120.226 83.8871V82.9631H118.448V89.7251H120.226ZM123.059 86.3371C123.059 88.5071 124.613 89.8931 126.671 89.8931C127.721 89.8931 128.771 89.5851 129.457 88.9551L128.673 87.8071C128.239 88.2271 127.497 88.4791 126.867 88.4791C125.719 88.4791 125.033 87.7651 124.921 86.9111H129.947V86.5191C129.947 84.3071 128.575 82.7951 126.559 82.7951C124.501 82.7951 123.059 84.3771 123.059 86.3371ZM126.559 84.2091C127.735 84.2091 128.183 85.0631 128.225 85.7071H124.893C124.977 85.0351 125.453 84.2091 126.559 84.2091ZM130.643 88.8431C131.357 89.5011 132.491 89.8931 133.667 89.8931C135.543 89.8931 136.593 88.9691 136.593 87.7231C136.593 86.0431 135.039 85.7351 133.877 85.5111C133.121 85.3571 132.589 85.2031 132.589 84.7831C132.589 84.3911 133.009 84.1531 133.653 84.1531C134.479 84.1531 135.249 84.5031 135.655 84.9371L136.355 83.7191C135.697 83.1871 134.787 82.7951 133.639 82.7951C131.861 82.7951 130.867 83.7891 130.867 84.9231C130.867 86.5331 132.365 86.8131 133.527 87.0371C134.297 87.1911 134.885 87.3591 134.885 87.8351C134.885 88.2551 134.521 88.5211 133.751 88.5211C132.911 88.5211 131.903 88.0591 131.413 87.5971L130.643 88.8431ZM143.741 89.7251V85.3571C143.741 83.4111 142.327 82.7951 140.787 82.7951C139.723 82.7951 138.659 83.1311 137.833 83.8591L138.505 85.0491C139.079 84.5171 139.751 84.2511 140.479 84.2511C141.375 84.2511 141.963 84.6991 141.963 85.3851V86.3231C141.515 85.7771 140.717 85.4971 139.821 85.4971C138.743 85.4971 137.469 86.0711 137.469 87.6531C137.469 89.1651 138.743 89.8931 139.821 89.8931C140.703 89.8931 141.501 89.5711 141.963 89.0251V89.7251H143.741ZM141.963 88.1011C141.669 88.4931 141.109 88.6891 140.535 88.6891C139.835 88.6891 139.261 88.3251 139.261 87.6951C139.261 87.0511 139.835 86.6731 140.535 86.6731C141.109 86.6731 141.669 86.8691 141.963 87.2611V88.1011Z" fill="#FCFCF3"/>
<g id="data-points">
<g id="Group">
<path id="point-0-0" d="M80 3.3588C80 3.03233 80.0656 2.7092 80.1928 2.40858C80.3201 2.10795 80.5065 1.83597 80.7409 1.60878C80.9752 1.38159 81.2529 1.20382 81.5573 1.08603C81.8617 0.968235 82.1866 0.912823 82.5129 0.923078C82.8391 0.933332 83.1599 1.00904 83.4563 1.14572C83.7527 1.2824 84.0187 1.47726 84.2383 1.71872C84.458 1.96018 84.6269 2.24333 84.735 2.55135C84.8432 2.85938 84.8883 3.18599 84.8679 3.51181L84.6652 6.73337C84.6271 7.33888 84.355 7.9058 83.9063 8.31412C83.4577 8.72244 82.8678 8.94011 82.2616 8.92105C81.6553 8.902 81.0803 8.6477 80.6582 8.21201C80.236 7.77632 80 7.19343 80 6.58673L80 3.3588Z" fill="#493C3C"/>
<path id="point-0-1" d="M84.7656 5.13988C84.7997 4.5978 84.9437 4.06835 85.189 3.58378C85.4343 3.0992 85.7757 2.66966 86.1923 2.32133C86.609 1.97299 87.0921 1.71315 87.6124 1.55764C88.1327 1.40213 88.6792 1.3542 89.2186 1.41679C105.424 3.29715 120.668 10.0883 132.905 20.8797C145.142 31.671 153.789 45.9468 157.685 61.7927C157.815 62.3201 157.836 62.8685 157.747 63.4043C157.658 63.9401 157.461 64.4521 157.167 64.9092C156.874 65.3663 156.491 65.7589 156.041 66.0631C155.591 66.3672 155.084 66.5765 154.55 66.6783C153.544 66.8703 152.503 66.6688 151.64 66.1154C150.778 65.562 150.161 64.6988 149.917 63.7037C146.41 49.4424 138.628 36.5942 127.615 26.882C116.601 17.1698 102.882 11.0577 88.2967 9.36541C87.2791 9.24733 86.3456 8.74325 85.6886 7.95706C85.0316 7.17088 84.7012 6.16252 84.7656 5.13988Z" fill="#58E1DB"/>
<path id="point-0-2" d="M154.55 66.6778C155.084 66.576 155.632 66.5839 156.162 66.7011C156.693 66.8182 157.194 67.0421 157.634 67.3591C158.075 67.6761 158.447 68.0796 158.727 68.545C159.007 69.0104 159.189 69.5279 159.263 70.0661C161.107 83.5569 159.478 97.2951 154.531 109.981C149.584 122.666 141.483 133.879 130.994 142.558C120.505 151.238 107.975 157.096 94.5905 159.58C81.2058 162.063 67.409 161.089 54.5058 156.75C53.9911 156.577 53.517 156.301 53.1124 155.938C52.7078 155.576 52.3813 155.135 52.1526 154.642C51.9239 154.15 51.7978 153.616 51.7822 153.073C51.7665 152.53 51.8615 151.989 52.0614 151.484C52.4385 150.532 53.1667 149.76 54.0958 149.329C55.0249 148.897 56.0842 148.838 57.0552 149.165C68.6681 153.07 81.0853 153.947 93.1315 151.712C105.178 149.477 116.454 144.204 125.895 136.393C135.335 128.581 142.626 118.49 147.078 107.073C151.53 95.6559 152.996 83.2915 151.337 71.1497C151.198 70.1345 151.454 69.1047 152.052 68.2727C152.65 67.4407 153.544 66.8698 154.55 66.6778Z" fill="#7DBF90"/>
<path id="point-0-3" d="M52.0614 151.485C51.8615 151.99 51.5609 152.449 51.1779 152.834C50.7949 153.219 50.3375 153.522 49.8337 153.725C49.3298 153.927 48.79 154.025 48.2471 154.012C47.7043 153.999 47.1697 153.876 46.6761 153.649C30.2819 146.136 16.9065 133.302 8.71957 117.231C0.532681 101.159 -1.98543 82.7925 1.57373 65.1097C1.6809 64.5773 1.89534 64.0722 2.20398 63.6253C2.51262 63.1785 2.90899 62.7991 3.36895 62.5104C3.82891 62.2217 4.34282 62.0297 4.87936 61.9461C5.41591 61.8625 5.96385 61.8891 6.4898 62.0241C7.48204 62.279 8.33871 62.9049 8.88322 63.7728C9.42772 64.6407 9.61855 65.6845 9.41636 66.6891C6.21312 82.6035 8.47941 99.1337 15.8476 113.598C23.2158 128.062 35.2537 139.613 50.0085 146.375C50.9398 146.802 51.6719 147.57 52.0538 148.52C52.4358 149.471 52.4385 150.532 52.0614 151.485Z" fill="#93A2BF"/>
<path id="point-0-4" d="M6.4898 62.0242C5.96384 61.8891 5.47089 61.6483 5.04098 61.3165C4.61106 60.9847 4.2532 60.5688 3.98918 60.0942C3.72516 59.6196 3.56053 59.0962 3.5053 58.5558C3.45007 58.0155 3.50541 57.4696 3.66795 56.9514C7.35733 45.1879 13.7143 34.4362 22.2429 25.5353C22.6186 25.1432 23.0702 24.8317 23.5702 24.6198C24.0702 24.4079 24.6081 24.3 25.1511 24.3028C25.6941 24.3055 26.2308 24.4189 26.7286 24.6358C27.2265 24.8528 27.6749 25.1689 28.0466 25.5648C28.7479 26.3118 29.1359 27.2994 29.1307 28.3241C29.1255 29.3487 28.7274 30.3323 28.0186 31.0721C20.3429 39.0829 14.6216 48.7594 11.3012 59.3465C10.9945 60.3242 10.3246 61.1469 9.42938 61.6451C8.53419 62.1433 7.48203 62.279 6.4898 62.0242Z" fill="#D6E3A2"/>
<path id="point-0-5" d="M28.0466 25.565C27.6749 25.1691 27.3877 24.7016 27.2024 24.191C27.0172 23.6804 26.9378 23.1375 26.9692 22.5952C27.0005 22.053 27.1419 21.5228 27.3847 21.037C27.6275 20.5512 27.9667 20.1199 28.3816 19.7695C41.714 8.50674 58.3626 1.9135 75.7895 0.994803C76.3318 0.966217 76.8742 1.04836 77.3837 1.23624C77.8932 1.42412 78.3591 1.7138 78.753 2.08762C79.147 2.46144 79.4607 2.91157 79.6751 3.41059C79.8895 3.90961 80 4.44707 80 4.99022C80 6.01488 79.607 7.0005 78.902 7.74387C78.1969 8.48724 77.2336 8.9317 76.2106 8.98563C60.5263 9.81246 45.5426 15.7464 33.5434 25.8828C32.7608 26.544 31.7544 26.8796 30.7316 26.8204C29.7089 26.7613 28.7479 26.3119 28.0466 25.565Z" fill="#FCFCF3"/>
</g>
</g>
</g>
<g id="Group 349">
<path id="Le performance&#226;&#128;&#168;economico&#226;&#128;&#147;&#226;&#128;&#168;finanziarie&#226;&#128;&#168;e la redditivit&#195;&#160;" d="M213.574 57.2312V55.4812H209.626V47.8932H207.638V57.2312H213.574ZM214.34 53.8432C214.34 56.0132 215.894 57.3992 217.952 57.3992C219.002 57.3992 220.052 57.0912 220.738 56.4612L219.954 55.3132C219.52 55.7332 218.778 55.9852 218.148 55.9852C217 55.9852 216.314 55.2712 216.202 54.4172H221.228V54.0252C221.228 51.8132 219.856 50.3012 217.84 50.3012C215.782 50.3012 214.34 51.8832 214.34 53.8432ZM217.84 51.7152C219.016 51.7152 219.464 52.5692 219.506 53.2132H216.174C216.258 52.5412 216.734 51.7152 217.84 51.7152ZM227.872 56.3632C228.418 57.0632 229.16 57.3992 229.958 57.3992C231.694 57.3992 232.954 56.0972 232.954 53.8432C232.954 51.5892 231.694 50.3012 229.958 50.3012C229.132 50.3012 228.39 50.6652 227.872 51.3232V50.4692H226.094V59.8072H227.872V56.3632ZM231.106 53.8432C231.106 55.0192 230.42 55.8172 229.398 55.8172C228.824 55.8172 228.166 55.4672 227.872 55.0472V52.6532C228.166 52.2192 228.824 51.8832 229.398 51.8832C230.42 51.8832 231.106 52.6812 231.106 53.8432ZM233.85 53.8432C233.85 56.0132 235.404 57.3992 237.462 57.3992C238.512 57.3992 239.562 57.0912 240.248 56.4612L239.464 55.3132C239.03 55.7332 238.288 55.9852 237.658 55.9852C236.51 55.9852 235.824 55.2712 235.712 54.4172H240.738V54.0252C240.738 51.8132 239.366 50.3012 237.35 50.3012C235.292 50.3012 233.85 51.8832 233.85 53.8432ZM237.35 51.7152C238.526 51.7152 238.974 52.5692 239.016 53.2132H235.684C235.768 52.5412 236.244 51.7152 237.35 51.7152ZM243.8 57.2312V52.7652C244.094 52.3312 244.878 52.0092 245.466 52.0092C245.662 52.0092 245.83 52.0232 245.956 52.0512V50.3152C245.116 50.3152 244.276 50.7912 243.8 51.3932V50.4692H242.022V57.2312H243.8ZM250.623 52.0232V50.4692H249.251V50.1332C249.251 49.4892 249.587 49.1532 250.091 49.1532C250.301 49.1532 250.511 49.1952 250.665 49.2932L251.029 48.0332C250.707 47.8652 250.245 47.7532 249.741 47.7532C248.411 47.7532 247.459 48.6352 247.459 50.1052V50.4692H246.339V52.0232H247.459V57.2312H249.251V52.0232H250.623ZM254.783 57.3992C257.023 57.3992 258.367 55.7752 258.367 53.8432C258.367 51.9252 257.023 50.3012 254.783 50.3012C252.557 50.3012 251.213 51.9252 251.213 53.8432C251.213 55.7752 252.557 57.3992 254.783 57.3992ZM254.783 55.8172C253.677 55.8172 253.061 54.9072 253.061 53.8432C253.061 52.7932 253.677 51.8832 254.783 51.8832C255.889 51.8832 256.519 52.7932 256.519 53.8432C256.519 54.9072 255.889 55.8172 254.783 55.8172ZM261.464 57.2312V52.7652C261.758 52.3312 262.542 52.0092 263.13 52.0092C263.326 52.0092 263.494 52.0232 263.62 52.0512V50.3152C262.78 50.3152 261.94 50.7912 261.464 51.3932V50.4692H259.686V57.2312H261.464ZM274.909 57.2312V52.3452C274.909 50.9592 274.167 50.3012 272.921 50.3012C271.885 50.3012 270.989 50.9172 270.597 51.5332C270.345 50.7632 269.715 50.3012 268.721 50.3012C267.685 50.3012 266.789 50.9452 266.509 51.3512V50.4692H264.731V57.2312H266.509V52.6812C266.775 52.3032 267.293 51.8832 267.909 51.8832C268.637 51.8832 268.917 52.3312 268.917 52.9612V57.2312H270.709V52.6672C270.961 52.3032 271.479 51.8832 272.109 51.8832C272.837 51.8832 273.117 52.3312 273.117 52.9612V57.2312H274.909ZM282.491 57.2312V52.8632C282.491 50.9172 281.077 50.3012 279.537 50.3012C278.473 50.3012 277.409 50.6372 276.583 51.3652L277.255 52.5552C277.829 52.0232 278.501 51.7572 279.229 51.7572C280.125 51.7572 280.713 52.2052 280.713 52.8912V53.8292C280.265 53.2832 279.467 53.0032 278.571 53.0032C277.493 53.0032 276.219 53.5772 276.219 55.1592C276.219 56.6712 277.493 57.3992 278.571 57.3992C279.453 57.3992 280.251 57.0772 280.713 56.5312V57.2312H282.491ZM280.713 55.6072C280.419 55.9992 279.859 56.1952 279.285 56.1952C278.585 56.1952 278.011 55.8312 278.011 55.2012C278.011 54.5572 278.585 54.1792 279.285 54.1792C279.859 54.1792 280.419 54.3752 280.713 54.7672V55.6072ZM290.597 57.2312V52.4572C290.597 51.1412 289.883 50.3012 288.399 50.3012C287.293 50.3012 286.467 50.8332 286.033 51.3512V50.4692H284.255V57.2312H286.033V52.6812C286.327 52.2752 286.873 51.8832 287.573 51.8832C288.329 51.8832 288.819 52.2052 288.819 53.1432V57.2312H290.597ZM291.928 53.8432C291.928 55.9292 293.426 57.3992 295.512 57.3992C296.898 57.3992 297.738 56.7972 298.186 56.1672L297.024 55.0892C296.702 55.5372 296.212 55.8172 295.596 55.8172C294.518 55.8172 293.762 55.0192 293.762 53.8432C293.762 52.6672 294.518 51.8832 295.596 51.8832C296.212 51.8832 296.702 52.1492 297.024 52.6112L298.186 51.5332C297.738 50.9032 296.898 50.3012 295.512 50.3012C293.426 50.3012 291.928 51.7712 291.928 53.8432ZM298.914 53.8432C298.914 56.0132 300.468 57.3992 302.526 57.3992C303.576 57.3992 304.626 57.0912 305.312 56.4612L304.528 55.3132C304.094 55.7332 303.352 55.9852 302.722 55.9852C301.574 55.9852 300.888 55.2712 300.776 54.4172H305.802V54.0252C305.802 51.8132 304.43 50.3012 302.414 50.3012C300.356 50.3012 298.914 51.8832 298.914 53.8432ZM302.414 51.7152C303.59 51.7152 304.038 52.5692 304.08 53.2132H300.748C300.832 52.5412 301.308 51.7152 302.414 51.7152ZM218.059 69.8432C218.059 72.0132 219.613 73.3992 221.671 73.3992C222.721 73.3992 223.771 73.0912 224.457 72.4612L223.673 71.3132C223.239 71.7332 222.497 71.9852 221.867 71.9852C220.719 71.9852 220.033 71.2712 219.921 70.4172H224.947V70.0252C224.947 67.8132 223.575 66.3012 221.559 66.3012C219.501 66.3012 218.059 67.8832 218.059 69.8432ZM221.559 67.7152C222.735 67.7152 223.183 68.5692 223.225 69.2132H219.893C219.977 68.5412 220.453 67.7152 221.559 67.7152ZM225.797 69.8432C225.797 71.9292 227.295 73.3992 229.381 73.3992C230.767 73.3992 231.607 72.7972 232.055 72.1672L230.893 71.0892C230.571 71.5372 230.081 71.8172 229.465 71.8172C228.387 71.8172 227.631 71.0192 227.631 69.8432C227.631 68.6672 228.387 67.8832 229.465 67.8832C230.081 67.8832 230.571 68.1492 230.893 68.6112L232.055 67.5332C231.607 66.9032 230.767 66.3012 229.381 66.3012C227.295 66.3012 225.797 67.7712 225.797 69.8432ZM236.353 73.3992C238.593 73.3992 239.937 71.7752 239.937 69.8432C239.937 67.9252 238.593 66.3012 236.353 66.3012C234.127 66.3012 232.783 67.9252 232.783 69.8432C232.783 71.7752 234.127 73.3992 236.353 73.3992ZM236.353 71.8172C235.247 71.8172 234.631 70.9072 234.631 69.8432C234.631 68.7932 235.247 67.8832 236.353 67.8832C237.459 67.8832 238.089 68.7932 238.089 69.8432C238.089 70.9072 237.459 71.8172 236.353 71.8172ZM247.598 73.2312V68.4572C247.598 67.1412 246.884 66.3012 245.4 66.3012C244.294 66.3012 243.468 66.8332 243.034 67.3512V66.4692H241.256V73.2312H243.034V68.6812C243.328 68.2752 243.874 67.8832 244.574 67.8832C245.33 67.8832 245.82 68.2052 245.82 69.1432V73.2312H247.598ZM252.5 73.3992C254.74 73.3992 256.084 71.7752 256.084 69.8432C256.084 67.9252 254.74 66.3012 252.5 66.3012C250.274 66.3012 248.93 67.9252 248.93 69.8432C248.93 71.7752 250.274 73.3992 252.5 73.3992ZM252.5 71.8172C251.394 71.8172 250.778 70.9072 250.778 69.8432C250.778 68.7932 251.394 67.8832 252.5 67.8832C253.606 67.8832 254.236 68.7932 254.236 69.8432C254.236 70.9072 253.606 71.8172 252.5 71.8172ZM267.581 73.2312V68.3452C267.581 66.9592 266.839 66.3012 265.593 66.3012C264.557 66.3012 263.661 66.9172 263.269 67.5332C263.017 66.7632 262.387 66.3012 261.393 66.3012C260.357 66.3012 259.461 66.9452 259.181 67.3512V66.4692H257.403V73.2312H259.181V68.6812C259.447 68.3032 259.965 67.8832 260.581 67.8832C261.309 67.8832 261.589 68.3312 261.589 68.9612V73.2312H263.381V68.6672C263.633 68.3032 264.151 67.8832 264.781 67.8832C265.509 67.8832 265.789 68.3312 265.789 68.9612V73.2312H267.581ZM270.207 65.4752C270.795 65.4752 271.271 64.9992 271.271 64.4112C271.271 63.8232 270.795 63.3472 270.207 63.3472C269.633 63.3472 269.143 63.8232 269.143 64.4112C269.143 64.9992 269.633 65.4752 270.207 65.4752ZM271.103 73.2312V66.4692H269.325V73.2312H271.103ZM272.432 69.8432C272.432 71.9292 273.93 73.3992 276.016 73.3992C277.402 73.3992 278.242 72.7972 278.69 72.1672L277.528 71.0892C277.206 71.5372 276.716 71.8172 276.1 71.8172C275.022 71.8172 274.266 71.0192 274.266 69.8432C274.266 68.6672 275.022 67.8832 276.1 67.8832C276.716 67.8832 277.206 68.1492 277.528 68.6112L278.69 67.5332C278.242 66.9032 277.402 66.3012 276.016 66.3012C273.93 66.3012 272.432 67.7712 272.432 69.8432ZM282.988 73.3992C285.228 73.3992 286.572 71.7752 286.572 69.8432C286.572 67.9252 285.228 66.3012 282.988 66.3012C280.762 66.3012 279.418 67.9252 279.418 69.8432C279.418 71.7752 280.762 73.3992 282.988 73.3992ZM282.988 71.8172C281.882 71.8172 281.266 70.9072 281.266 69.8432C281.266 68.7932 281.882 67.8832 282.988 67.8832C284.094 67.8832 284.724 68.7932 284.724 69.8432C284.724 70.9072 284.094 71.8172 282.988 71.8172ZM294.891 70.5992V69.0872H287.429V70.5992H294.891ZM229.75 81.4752C230.338 81.4752 230.814 80.9992 230.814 80.4112C230.814 79.8232 230.338 79.3472 229.75 79.3472C229.176 79.3472 228.686 79.8232 228.686 80.4112C228.686 80.9992 229.176 81.4752 229.75 81.4752ZM226.474 84.0232H227.846V82.4692H226.474V82.1052C226.474 81.4892 226.81 81.1532 227.314 81.1532C227.552 81.1532 227.748 81.2232 227.888 81.3212L228.252 80.0332C227.93 79.8652 227.468 79.7532 226.964 79.7532C225.634 79.7532 224.682 80.6352 224.682 82.1052V82.4692H223.562V84.0232H224.682V89.2312H226.474V84.0232ZM230.646 89.2312V82.4692H228.868V89.2312H230.646ZM238.753 89.2312V84.4572C238.753 83.1412 238.039 82.3012 236.555 82.3012C235.449 82.3012 234.623 82.8332 234.189 83.3512V82.4692H232.411V89.2312H234.189V84.6812C234.483 84.2752 235.029 83.8832 235.729 83.8832C236.485 83.8832 236.975 84.2052 236.975 85.1432V89.2312H238.753ZM246.356 89.2312V84.8632C246.356 82.9172 244.942 82.3012 243.402 82.3012C242.338 82.3012 241.274 82.6372 240.448 83.3652L241.12 84.5552C241.694 84.0232 242.366 83.7572 243.094 83.7572C243.99 83.7572 244.578 84.2052 244.578 84.8912V85.8292C244.13 85.2832 243.332 85.0032 242.436 85.0032C241.358 85.0032 240.084 85.5772 240.084 87.1592C240.084 88.6712 241.358 89.3992 242.436 89.3992C243.318 89.3992 244.116 89.0772 244.578 88.5312V89.2312H246.356ZM244.578 87.6072C244.284 87.9992 243.724 88.1952 243.15 88.1952C242.45 88.1952 241.876 87.8312 241.876 87.2012C241.876 86.5572 242.45 86.1792 243.15 86.1792C243.724 86.1792 244.284 86.3752 244.578 86.7672V87.6072ZM254.462 89.2312V84.4572C254.462 83.1412 253.748 82.3012 252.264 82.3012C251.158 82.3012 250.332 82.8332 249.898 83.3512V82.4692H248.12V89.2312H249.898V84.6812C250.192 84.2752 250.738 83.8832 251.438 83.8832C252.194 83.8832 252.684 84.2052 252.684 85.1432V89.2312H254.462ZM261.449 89.2312V87.6772H258.299L261.393 83.7572V82.4692H255.933V84.0232H258.985L255.933 87.9012V89.2312H261.449ZM263.808 81.4752C264.396 81.4752 264.872 80.9992 264.872 80.4112C264.872 79.8232 264.396 79.3472 263.808 79.3472C263.234 79.3472 262.744 79.8232 262.744 80.4112C262.744 80.9992 263.234 81.4752 263.808 81.4752ZM264.704 89.2312V82.4692H262.926V89.2312H264.704ZM272.305 89.2312V84.8632C272.305 82.9172 270.891 82.3012 269.351 82.3012C268.287 82.3012 267.223 82.6372 266.397 83.3652L267.069 84.5552C267.643 84.0232 268.315 83.7572 269.043 83.7572C269.939 83.7572 270.527 84.2052 270.527 84.8912V85.8292C270.079 85.2832 269.281 85.0032 268.385 85.0032C267.307 85.0032 266.033 85.5772 266.033 87.1592C266.033 88.6712 267.307 89.3992 268.385 89.3992C269.267 89.3992 270.065 89.0772 270.527 88.5312V89.2312H272.305ZM270.527 87.6072C270.233 87.9992 269.673 88.1952 269.099 88.1952C268.399 88.1952 267.825 87.8312 267.825 87.2012C267.825 86.5572 268.399 86.1792 269.099 86.1792C269.673 86.1792 270.233 86.3752 270.527 86.7672V87.6072ZM275.847 89.2312V84.7652C276.141 84.3312 276.925 84.0092 277.513 84.0092C277.709 84.0092 277.877 84.0232 278.003 84.0512V82.3152C277.163 82.3152 276.323 82.7912 275.847 83.3932V82.4692H274.069V89.2312H275.847ZM279.996 81.4752C280.584 81.4752 281.06 80.9992 281.06 80.4112C281.06 79.8232 280.584 79.3472 279.996 79.3472C279.422 79.3472 278.932 79.8232 278.932 80.4112C278.932 80.9992 279.422 81.4752 279.996 81.4752ZM280.892 89.2312V82.4692H279.114V89.2312H280.892ZM282.221 85.8432C282.221 88.0132 283.775 89.3992 285.833 89.3992C286.883 89.3992 287.933 89.0912 288.619 88.4612L287.835 87.3132C287.401 87.7332 286.659 87.9852 286.029 87.9852C284.881 87.9852 284.195 87.2712 284.083 86.4172H289.109V86.0252C289.109 83.8132 287.737 82.3012 285.721 82.3012C283.663 82.3012 282.221 83.8832 282.221 85.8432ZM285.721 83.7152C286.897 83.7152 287.345 84.5692 287.387 85.2132H284.055C284.139 84.5412 284.615 83.7152 285.721 83.7152ZM211.859 101.843C211.859 104.013 213.413 105.399 215.471 105.399C216.521 105.399 217.571 105.091 218.257 104.461L217.473 103.313C217.039 103.733 216.297 103.985 215.667 103.985C214.519 103.985 213.833 103.271 213.721 102.417H218.747V102.025C218.747 99.8132 217.375 98.3012 215.359 98.3012C213.301 98.3012 211.859 99.8832 211.859 101.843ZM215.359 99.7152C216.535 99.7152 216.983 100.569 217.025 101.213H213.693C213.777 100.541 214.253 99.7152 215.359 99.7152ZM225.391 105.231V95.8932H223.613V105.231H225.391ZM232.992 105.231V100.863C232.992 98.9172 231.578 98.3012 230.038 98.3012C228.974 98.3012 227.91 98.6372 227.084 99.3652L227.756 100.555C228.33 100.023 229.002 99.7572 229.73 99.7572C230.626 99.7572 231.214 100.205 231.214 100.891V101.829C230.766 101.283 229.968 101.003 229.072 101.003C227.994 101.003 226.72 101.577 226.72 103.159C226.72 104.671 227.994 105.399 229.072 105.399C229.954 105.399 230.752 105.077 231.214 104.531V105.231H232.992ZM231.214 103.607C230.92 103.999 230.36 104.195 229.786 104.195C229.086 104.195 228.512 103.831 228.512 103.201C228.512 102.557 229.086 102.179 229.786 102.179C230.36 102.179 230.92 102.375 231.214 102.767V103.607ZM240.116 105.231V100.765C240.41 100.331 241.194 100.009 241.782 100.009C241.978 100.009 242.146 100.023 242.272 100.051V98.3152C241.432 98.3152 240.592 98.7912 240.116 99.3932V98.4692H238.338V105.231H240.116ZM242.948 101.843C242.948 104.013 244.502 105.399 246.56 105.399C247.61 105.399 248.66 105.091 249.346 104.461L248.562 103.313C248.128 103.733 247.386 103.985 246.756 103.985C245.608 103.985 244.922 103.271 244.81 102.417H249.836V102.025C249.836 99.8132 248.464 98.3012 246.448 98.3012C244.39 98.3012 242.948 99.8832 242.948 101.843ZM246.448 99.7152C247.624 99.7152 248.072 100.569 248.114 101.213H244.782C244.866 100.541 245.342 99.7152 246.448 99.7152ZM257.561 105.231V95.8932H255.769V99.3372C255.237 98.6512 254.481 98.3012 253.683 98.3012C251.961 98.3012 250.687 99.6452 250.687 101.857C250.687 104.111 251.975 105.399 253.683 105.399C254.495 105.399 255.237 105.035 255.769 104.377V105.231H257.561ZM255.769 103.047C255.461 103.495 254.831 103.817 254.229 103.817C253.221 103.817 252.521 103.019 252.521 101.857C252.521 100.681 253.221 99.8832 254.229 99.8832C254.831 99.8832 255.461 100.205 255.769 100.653V103.047ZM265.764 105.231V95.8932H263.972V99.3372C263.44 98.6512 262.684 98.3012 261.886 98.3012C260.164 98.3012 258.89 99.6452 258.89 101.857C258.89 104.111 260.178 105.399 261.886 105.399C262.698 105.399 263.44 105.035 263.972 104.377V105.231H265.764ZM263.972 103.047C263.664 103.495 263.034 103.817 262.432 103.817C261.424 103.817 260.724 103.019 260.724 101.857C260.724 100.681 261.424 99.8832 262.432 99.8832C263.034 99.8832 263.664 100.205 263.972 100.653V103.047ZM268.409 97.4752C268.997 97.4752 269.473 96.9992 269.473 96.4112C269.473 95.8232 268.997 95.3472 268.409 95.3472C267.835 95.3472 267.345 95.8232 267.345 96.4112C267.345 96.9992 267.835 97.4752 268.409 97.4752ZM269.305 105.231V98.4692H267.527V105.231H269.305ZM273.336 105.399C274.078 105.399 274.554 105.203 274.82 104.965L274.442 103.621C274.344 103.719 274.092 103.817 273.826 103.817C273.434 103.817 273.21 103.495 273.21 103.075V100.023H274.582V98.4692H273.21V96.6212H271.418V98.4692H270.298V100.023H271.418V103.551C271.418 104.755 272.09 105.399 273.336 105.399ZM276.68 97.4752C277.268 97.4752 277.744 96.9992 277.744 96.4112C277.744 95.8232 277.268 95.3472 276.68 95.3472C276.106 95.3472 275.616 95.8232 275.616 96.4112C275.616 96.9992 276.106 97.4752 276.68 97.4752ZM277.576 105.231V98.4692H275.798V105.231H277.576ZM283.008 105.231L285.724 98.4692H283.806L282.042 103.173L280.278 98.4692H278.374L281.09 105.231H283.008ZM287.399 97.4752C287.987 97.4752 288.463 96.9992 288.463 96.4112C288.463 95.8232 287.987 95.3472 287.399 95.3472C286.825 95.3472 286.335 95.8232 286.335 96.4112C286.335 96.9992 286.825 97.4752 287.399 97.4752ZM288.295 105.231V98.4692H286.517V105.231H288.295ZM292.326 105.399C293.068 105.399 293.544 105.203 293.81 104.965L293.432 103.621C293.334 103.719 293.082 103.817 292.816 103.817C292.424 103.817 292.2 103.495 292.2 103.075V100.023H293.572V98.4692H292.2V96.6212H290.408V98.4692H289.288V100.023H290.408V103.551C290.408 104.755 291.08 105.399 292.326 105.399ZM298.331 97.4472L296.455 95.4312H294.817L297.085 97.4472H298.331ZM300.627 105.231V100.863C300.627 98.9172 299.213 98.3012 297.673 98.3012C296.609 98.3012 295.545 98.6372 294.719 99.3652L295.391 100.555C295.965 100.023 296.637 99.7572 297.365 99.7572C298.261 99.7572 298.849 100.205 298.849 100.891V101.829C298.401 101.283 297.603 101.003 296.707 101.003C295.629 101.003 294.355 101.577 294.355 103.159C294.355 104.671 295.629 105.399 296.707 105.399C297.589 105.399 298.387 105.077 298.849 104.531V105.231H300.627ZM298.849 103.607C298.555 103.999 297.995 104.195 297.421 104.195C296.721 104.195 296.147 103.831 296.147 103.201C296.147 102.557 296.721 102.179 297.421 102.179C297.995 102.179 298.555 102.375 298.849 102.767V103.607Z" fill="#FCFCF3"/>
<g id="data-points_2">
<g id="Group_2">
<path id="point-0-0_2" d="M257 4.92535C257 4.38187 257.111 3.84407 257.325 3.34473C257.539 2.8454 257.853 2.39498 258.247 2.02093C258.641 1.64687 259.107 1.35701 259.616 1.16902C260.126 0.981018 260.668 0.89882 261.21 0.927424C263.426 1.04429 265.636 1.25334 267.834 1.55404C268.372 1.62765 268.889 1.81012 269.354 2.09034C269.82 2.37056 270.223 2.74266 270.54 3.18397C270.857 3.62528 271.081 4.12656 271.198 4.65726C271.315 5.18796 271.323 5.73697 271.221 6.27083C271.029 7.27798 270.459 8.17303 269.627 8.77146C268.795 9.3699 267.765 9.6261 266.75 9.48725C264.772 9.21662 262.783 9.02847 260.789 8.92328C259.766 8.86932 258.803 8.42458 258.098 7.68074C257.393 6.9369 257 5.95067 257 4.92535V4.92535Z" fill="#493C3C"/>
<path id="point-0-1_2" d="M271.221 6.27064C271.323 5.73678 271.532 5.22924 271.836 4.77896C272.14 4.32867 272.533 3.94507 272.99 3.65152C273.447 3.35798 273.959 3.16063 274.494 3.07152C275.03 2.9824 275.578 3.00339 276.106 3.13318C289.459 6.42004 301.74 13.0963 311.764 22.5176C321.788 31.939 329.216 43.7873 333.332 56.9192C333.495 57.4377 333.55 57.984 333.495 58.5247C333.439 59.0653 333.275 59.5891 333.011 60.064C332.747 60.5389 332.389 60.9551 331.959 61.2871C331.529 61.6191 331.036 61.86 330.51 61.9952C329.518 62.2502 328.466 62.1144 327.571 61.6159C326.675 61.1174 326.005 60.2941 325.699 59.3158C321.994 47.4971 315.309 36.8337 306.287 28.3545C297.266 19.8752 286.213 13.8666 274.195 10.9084C273.2 10.6636 272.337 10.046 271.784 9.18316C271.231 8.32026 271.029 7.27779 271.221 6.27064Z" fill="#58E1DB"/>
<path id="point-0-2_2" d="M330.51 61.9954C331.036 61.8602 331.584 61.8337 332.121 61.9173C332.657 62.001 333.171 62.1931 333.631 62.482C334.091 62.7709 334.487 63.1505 334.796 63.5976C335.105 64.0448 335.319 64.5502 335.426 65.083C338.197 78.8577 337.297 93.1197 332.818 106.436C328.338 119.753 320.436 131.655 309.905 140.947C299.374 150.239 286.586 156.594 272.824 159.374C259.063 162.153 244.813 161.259 231.506 156.781C230.991 156.608 230.517 156.332 230.112 155.969C229.708 155.607 229.381 155.165 229.153 154.672C228.924 154.18 228.798 153.645 228.782 153.102C228.766 152.559 228.861 152.018 229.061 151.513C229.438 150.559 230.167 149.787 231.096 149.355C232.025 148.923 233.084 148.865 234.055 149.192C246.031 153.222 258.856 154.026 271.242 151.525C283.627 149.023 295.137 143.304 304.614 134.941C314.092 126.578 321.204 115.866 325.236 103.881C329.268 91.8963 330.077 79.0605 327.584 66.6633C327.382 65.6581 327.572 64.6136 328.117 63.7452C328.661 62.8767 329.518 62.2504 330.51 61.9954Z" fill="#7DBF90"/>
<path id="point-0-3_2" d="M229.061 151.513C228.861 152.018 228.561 152.477 228.178 152.862C227.795 153.248 227.337 153.551 226.834 153.754C226.33 153.956 225.79 154.054 225.247 154.041C224.704 154.028 224.17 153.905 223.676 153.678C213.231 148.888 203.939 141.902 196.433 133.196C188.926 124.49 183.382 114.268 180.177 103.225C176.971 92.1818 176.18 80.5774 177.856 69.201C179.533 57.8246 183.639 46.9431 189.893 37.2969C190.189 36.841 190.574 36.4501 191.026 36.1481C191.477 35.8461 191.985 35.6392 192.519 35.54C193.053 35.4409 193.602 35.4516 194.131 35.5716C194.661 35.6915 195.161 35.918 195.6 36.2375C196.429 36.8402 196.995 37.7381 197.182 38.7462C197.369 39.7543 197.162 40.7958 196.604 41.6558C190.975 50.3374 187.28 60.1307 185.771 70.3695C184.262 80.6083 184.974 91.0523 187.859 100.991C190.744 110.93 195.734 120.13 202.489 127.965C209.245 135.801 217.608 142.088 227.008 146.399C227.94 146.826 228.672 147.595 229.054 148.546C229.436 149.497 229.438 150.559 229.061 151.513Z" fill="#93A2BF"/>
<path id="point-0-4_2" d="M195.6 36.2376C195.161 35.9181 194.791 35.5125 194.513 35.0454C194.236 34.5783 194.056 34.0595 193.985 33.5207C193.914 32.9818 193.954 32.4342 194.101 31.9111C194.249 31.3881 194.501 30.9006 194.843 30.4783C202.603 20.8933 212.47 13.2326 223.676 8.09384C224.17 7.86745 224.704 7.74404 225.247 7.73111C225.79 7.71819 226.33 7.81602 226.834 8.01866C227.337 8.2213 227.795 8.5245 228.178 8.90978C228.561 9.29506 228.861 9.75436 229.061 10.2597C229.438 11.213 229.436 12.2748 229.054 13.2262C228.672 14.1775 227.94 14.946 227.008 15.3731C216.923 19.998 208.043 26.8926 201.059 35.5191C200.414 36.3157 199.488 36.8343 198.473 36.968C197.457 37.1017 196.429 36.8402 195.6 36.2376Z" fill="#D6E3A2"/>
<path id="point-0-5_2" d="M229.061 10.2596C228.861 9.75426 228.766 9.21349 228.782 8.67023C228.798 8.12697 228.924 7.59259 229.153 7.09966C229.381 6.60672 229.708 6.16556 230.112 5.80304C230.517 5.44052 230.991 5.16425 231.506 4.99105C238.383 2.67673 245.544 1.30965 252.79 0.927424C253.332 0.89882 253.874 0.981018 254.384 1.16902C254.893 1.35701 255.359 1.64687 255.753 2.02093C256.147 2.39498 256.461 2.84539 256.675 3.34473C256.889 3.84407 257 4.38187 257 4.92535C257 5.95066 256.607 6.9369 255.902 7.68074C255.197 8.42458 254.234 8.86932 253.211 8.92328C246.689 9.26729 240.245 10.4977 234.055 12.5806C233.084 12.9073 232.025 12.8487 231.096 12.4169C230.167 11.9851 229.438 11.2129 229.061 10.2596Z" fill="#FCFCF3"/>
</g>
</g>
</g>
</g>
</svg>
