<svg width="337" height="161" viewBox="0 0 337 161" fill="none" xmlns="http://www.w3.org/2000/svg">
<g id="Group 468">
<g id="Group 466">
<path id="La reputazione" d="M39.8834 84.9219V83.1719H35.9354V75.5839H33.9474V84.9219H39.8834ZM46.9759 84.9219V80.5539C46.9759 78.6079 45.5619 77.9919 44.0219 77.9919C42.9579 77.9919 41.8939 78.3279 41.0679 79.0559L41.7399 80.2459C42.3139 79.7139 42.9859 79.4479 43.7139 79.4479C44.6099 79.4479 45.1979 79.8959 45.1979 80.5819V81.5199C44.7499 80.9739 43.9519 80.6939 43.0559 80.6939C41.9779 80.6939 40.7039 81.2679 40.7039 82.8499C40.7039 84.3619 41.9779 85.0899 43.0559 85.0899C43.9379 85.0899 44.7359 84.7679 45.1979 84.2219V84.9219H46.9759ZM45.1979 83.2979C44.9039 83.6899 44.3439 83.8859 43.7699 83.8859C43.0699 83.8859 42.4959 83.5219 42.4959 82.8919C42.4959 82.2479 43.0699 81.8699 43.7699 81.8699C44.3439 81.8699 44.9039 82.0659 45.1979 82.4579V83.2979ZM54.0995 84.9219V80.4559C54.3935 80.0219 55.1775 79.6999 55.7655 79.6999C55.9615 79.6999 56.1295 79.7139 56.2555 79.7419V78.0059C55.4155 78.0059 54.5755 78.4819 54.0995 79.0839V78.1599H52.3215V84.9219H54.0995ZM56.9324 81.5339C56.9324 83.7039 58.4864 85.0899 60.5444 85.0899C61.5944 85.0899 62.6444 84.7819 63.3304 84.1519L62.5464 83.0039C62.1124 83.4239 61.3704 83.6759 60.7404 83.6759C59.5924 83.6759 58.9064 82.9619 58.7944 82.1079H63.8204V81.7159C63.8204 79.5039 62.4484 77.9919 60.4324 77.9919C58.3744 77.9919 56.9324 79.5739 56.9324 81.5339ZM60.4324 79.4059C61.6084 79.4059 62.0564 80.2599 62.0984 80.9039H58.7664C58.8504 80.2319 59.3264 79.4059 60.4324 79.4059ZM66.8827 84.0539C67.4287 84.7539 68.1707 85.0899 68.9687 85.0899C70.7047 85.0899 71.9647 83.7879 71.9647 81.5339C71.9647 79.2799 70.7047 77.9919 68.9687 77.9919C68.1427 77.9919 67.4007 78.3559 66.8827 79.0139V78.1599H65.1047V87.4979H66.8827V84.0539ZM70.1167 81.5339C70.1167 82.7099 69.4307 83.5079 68.4087 83.5079C67.8347 83.5079 67.1767 83.1579 66.8827 82.7379V80.3439C67.1767 79.9099 67.8347 79.5739 68.4087 79.5739C69.4307 79.5739 70.1167 80.3719 70.1167 81.5339ZM79.6361 84.9219V78.1599H77.8581V82.7379C77.5501 83.1299 77.0041 83.5079 76.3181 83.5079C75.5621 83.5079 75.0721 83.1999 75.0721 82.2619V78.1599H73.2941V82.9619C73.2941 84.2779 73.9941 85.0899 75.4781 85.0899C76.5841 85.0899 77.3961 84.5859 77.8581 84.0679V84.9219H79.6361ZM83.6695 85.0899C84.4115 85.0899 84.8875 84.8939 85.1535 84.6559L84.7755 83.3119C84.6775 83.4099 84.4255 83.5079 84.1595 83.5079C83.7675 83.5079 83.5435 83.1859 83.5435 82.7659V79.7139H84.9155V78.1599H83.5435V76.3119H81.7515V78.1599H80.6315V79.7139H81.7515V83.2419C81.7515 84.4459 82.4235 85.0899 83.6695 85.0899ZM91.97 84.9219V80.5539C91.97 78.6079 90.556 77.9919 89.016 77.9919C87.952 77.9919 86.888 78.3279 86.062 79.0559L86.734 80.2459C87.308 79.7139 87.98 79.4479 88.708 79.4479C89.604 79.4479 90.192 79.8959 90.192 80.5819V81.5199C89.744 80.9739 88.946 80.6939 88.05 80.6939C86.972 80.6939 85.698 81.2679 85.698 82.8499C85.698 84.3619 86.972 85.0899 88.05 85.0899C88.932 85.0899 89.73 84.7679 90.192 84.2219V84.9219H91.97ZM90.192 83.2979C89.898 83.6899 89.338 83.8859 88.764 83.8859C88.064 83.8859 87.49 83.5219 87.49 82.8919C87.49 82.2479 88.064 81.8699 88.764 81.8699C89.338 81.8699 89.898 82.0659 90.192 82.4579V83.2979ZM98.9556 84.9219V83.3679H95.8056L98.8996 79.4479V78.1599H93.4396V79.7139H96.4916L93.4396 83.5919V84.9219H98.9556ZM101.315 77.1659C101.903 77.1659 102.379 76.6899 102.379 76.1019C102.379 75.5139 101.903 75.0379 101.315 75.0379C100.741 75.0379 100.251 75.5139 100.251 76.1019C100.251 76.6899 100.741 77.1659 101.315 77.1659ZM102.211 84.9219V78.1599H100.433V84.9219H102.211ZM107.11 85.0899C109.35 85.0899 110.694 83.4659 110.694 81.5339C110.694 79.6159 109.35 77.9919 107.11 77.9919C104.884 77.9919 103.54 79.6159 103.54 81.5339C103.54 83.4659 104.884 85.0899 107.11 85.0899ZM107.11 83.5079C106.004 83.5079 105.388 82.5979 105.388 81.5339C105.388 80.4839 106.004 79.5739 107.11 79.5739C108.216 79.5739 108.846 80.4839 108.846 81.5339C108.846 82.5979 108.216 83.5079 107.11 83.5079ZM118.355 84.9219V80.1479C118.355 78.8319 117.641 77.9919 116.157 77.9919C115.051 77.9919 114.225 78.5239 113.791 79.0419V78.1599H112.013V84.9219H113.791V80.3719C114.085 79.9659 114.631 79.5739 115.331 79.5739C116.087 79.5739 116.577 79.8959 116.577 80.8339V84.9219H118.355ZM119.686 81.5339C119.686 83.7039 121.24 85.0899 123.298 85.0899C124.348 85.0899 125.398 84.7819 126.084 84.1519L125.3 83.0039C124.866 83.4239 124.124 83.6759 123.494 83.6759C122.346 83.6759 121.66 82.9619 121.548 82.1079H126.574V81.7159C126.574 79.5039 125.202 77.9919 123.186 77.9919C121.128 77.9919 119.686 79.5739 119.686 81.5339ZM123.186 79.4059C124.362 79.4059 124.81 80.2599 124.852 80.9039H121.52C121.604 80.2319 122.08 79.4059 123.186 79.4059Z" fill="#FCFCF3"/>
<g id="Group 342">
<g id="data-points">
<g id="Group">
<path id="point-0-0" d="M80 4.9245C80 4.38113 80.1106 3.84345 80.325 3.34422C80.5393 2.84499 80.8531 2.39467 81.247 2.02069C81.641 1.64672 82.1069 1.35692 82.6164 1.16896C83.1259 0.981006 83.6683 0.898824 84.2105 0.927423C105.092 2.02871 124.713 11.2677 138.872 26.666C139.239 27.0658 139.522 27.5364 139.702 28.049C139.882 28.5617 139.956 29.1056 139.919 29.6478C139.882 30.1899 139.735 30.7188 139.488 31.2023C139.24 31.6859 138.896 32.1138 138.478 32.4602C137.689 33.1136 136.679 33.4391 135.657 33.3695C134.635 33.2999 133.678 32.8406 132.985 32.0863C120.242 18.2278 102.583 9.91275 83.7895 8.92159C82.7665 8.86763 81.8031 8.42299 81.0981 7.67931C80.393 6.93562 80 5.9496 80 4.9245V4.9245Z" fill="#493C3C"/>
<path id="point-0-1" d="M138.478 32.4603C138.896 32.1139 139.381 31.8565 139.902 31.7035C140.423 31.5506 140.97 31.5055 141.509 31.5708C142.048 31.6362 142.568 31.8107 143.037 32.0837C143.507 32.3567 143.916 32.7225 144.239 33.1589C154.904 47.5368 160.443 65.0773 159.972 82.9766C159.501 100.876 153.047 118.1 141.641 131.897C130.235 145.693 114.536 155.265 97.054 159.082C79.5716 162.899 61.3151 160.741 45.2028 152.952C44.7139 152.716 44.2781 152.383 43.9221 151.972C43.5662 151.562 43.2974 151.083 43.1322 150.566C42.9671 150.048 42.9089 149.502 42.9614 148.961C43.0139 148.421 43.1759 147.896 43.4375 147.42C43.931 146.522 44.7501 145.847 45.726 145.535C46.7019 145.223 47.7601 145.298 48.6825 145.744C63.1836 152.753 79.6145 154.696 95.3486 151.26C111.083 147.825 125.212 139.211 135.477 126.794C145.742 114.377 151.551 98.8752 151.975 82.7658C152.399 66.6565 147.413 50.8701 137.816 37.9299C137.205 37.1068 136.933 36.0806 137.057 35.0629C137.18 34.0453 137.688 33.1137 138.478 32.4603Z" fill="#58E1DB"/>
<path id="point-0-2" d="M43.4375 147.42C43.1759 147.896 42.8201 148.314 42.3919 148.648C41.9637 148.982 41.472 149.226 40.9467 149.363C40.4214 149.501 39.8736 149.53 39.3367 149.45C38.7997 149.369 38.2848 149.179 37.8234 148.893C26.6175 141.936 17.3041 132.314 10.7121 120.885C4.11999 109.456 0.453711 96.5733 0.0394811 83.3836C-0.374749 70.1939 2.47592 57.1063 8.3378 45.2855C14.1997 33.4646 22.891 23.2772 33.6382 15.6297C34.0807 15.3148 34.5827 15.0934 35.1135 14.9789C35.6444 14.8644 36.1929 14.8593 36.7258 14.9638C37.2587 15.0683 37.7647 15.2803 38.213 15.5869C38.6614 15.8935 39.0426 16.2882 39.3336 16.747C39.8825 17.6125 40.0787 18.6557 39.8816 19.6617C39.6845 20.6676 39.1092 21.5596 38.2744 22.1536C28.6019 29.0364 20.7797 38.2051 15.504 48.8438C10.2283 59.4826 7.66273 71.2614 8.03553 83.1321C8.40834 95.0029 11.708 106.597 17.6409 116.884C23.5737 127.17 31.9558 135.829 42.0411 142.09C42.9116 142.631 43.5417 143.485 43.8015 144.476C44.0613 145.468 43.931 146.522 43.4375 147.42Z" fill="#7DBF90"/>
<path id="point-0-3" d="M39.3336 16.7468C39.0427 16.288 38.8481 15.7748 38.7618 15.2383C38.6755 14.7018 38.6992 14.1534 38.8316 13.6264C38.964 13.0994 39.2022 12.605 39.5317 12.1731C39.8612 11.7412 40.2752 11.381 40.7484 11.1144C44.1427 9.20182 47.6721 7.5399 51.3085 6.14189C51.8154 5.94701 52.3566 5.85745 52.8992 5.87866C53.4418 5.89987 53.9744 6.03142 54.4646 6.26527C54.9547 6.49913 55.3921 6.8304 55.7502 7.2389C56.1083 7.64741 56.3795 8.12458 56.5473 8.64136C56.8638 9.61628 56.7945 10.6756 56.3536 11.6009C55.9128 12.5262 55.1339 13.247 54.1776 13.6146C50.9049 14.8728 47.7284 16.3685 44.6735 18.0898C43.7809 18.5928 42.7294 18.7339 41.7359 18.484C40.7424 18.2341 39.8825 17.6123 39.3336 16.7468Z" fill="#93A2BF"/>
<path id="point-0-4" d="M56.5472 8.6417C56.3794 8.12492 56.3185 7.57937 56.3682 7.03828C56.4179 6.49719 56.5772 5.97189 56.8364 5.4944C57.0956 5.01692 57.4492 4.59724 57.8757 4.26093C58.3022 3.92463 58.7927 3.67874 59.3173 3.53826C61.4604 2.96432 63.6265 2.47983 65.8098 2.08605C66.3442 1.98967 66.8927 2.00318 67.4217 2.12576C67.9507 2.24833 68.4492 2.47741 68.8869 2.79903C69.3246 3.12065 69.6922 3.52807 69.9675 3.99648C70.2427 4.46488 70.4197 4.98446 70.4878 5.52355C70.6162 6.54056 70.3498 7.5681 69.7434 8.39434C69.1371 9.22059 68.237 9.78255 67.2288 9.96438C65.2638 10.3188 63.3144 10.7548 61.3855 11.2714C60.3959 11.5364 59.3425 11.4114 58.4423 10.9221C57.542 10.4328 56.8637 9.61662 56.5472 8.6417Z" fill="#D6E3A2"/>
<path id="point-0-5" d="M70.4878 5.52335C70.4198 4.98426 70.4621 4.43695 70.6123 3.91477C70.7625 3.39259 71.0173 2.90647 71.3613 2.48604C71.7053 2.0656 72.1313 1.71966 72.6132 1.46929C73.0951 1.21891 73.623 1.06936 74.1645 1.02972C74.7058 0.990107 75.2475 0.956006 75.7894 0.927423C76.3317 0.898824 76.8741 0.981006 77.3836 1.16896C77.8931 1.35692 78.359 1.64672 78.753 2.02069C79.1469 2.39467 79.4606 2.84499 79.675 3.34422C79.8894 3.84345 80 4.38113 80 4.9245C80 5.9496 79.6069 6.93562 78.9019 7.67931C78.1968 8.42299 77.2335 8.86763 76.2105 8.92159C75.7227 8.94731 75.2352 8.97801 74.7481 9.01366C73.7264 9.08843 72.715 8.7681 71.9223 8.11871C71.1297 7.46932 70.6162 6.54036 70.4878 5.52335Z" fill="#FCFCF3"/>
</g>
</g>
</g>
</g>
<g id="Group 343">
<path id="Le relazioni&#226;&#128;&#168;con gli stakeholder" d="M228.184 74.1179V72.3679H224.236V64.7799H222.248V74.1179H228.184ZM228.95 70.7299C228.95 72.8999 230.504 74.2859 232.562 74.2859C233.612 74.2859 234.662 73.9779 235.348 73.3479L234.564 72.1999C234.13 72.6199 233.388 72.8719 232.758 72.8719C231.61 72.8719 230.924 72.1579 230.812 71.3039H235.838V70.9119C235.838 68.6999 234.466 67.1879 232.45 67.1879C230.392 67.1879 228.95 68.7699 228.95 70.7299ZM232.45 68.6019C233.626 68.6019 234.074 69.4559 234.116 70.0999H230.784C230.868 69.4279 231.344 68.6019 232.45 68.6019ZM242.482 74.1179V69.6519C242.776 69.2179 243.56 68.8959 244.148 68.8959C244.344 68.8959 244.512 68.9099 244.638 68.9379V67.2019C243.798 67.2019 242.958 67.6779 242.482 68.2799V67.3559H240.704V74.1179H242.482ZM245.315 70.7299C245.315 72.8999 246.869 74.2859 248.927 74.2859C249.977 74.2859 251.027 73.9779 251.713 73.3479L250.929 72.1999C250.495 72.6199 249.753 72.8719 249.123 72.8719C247.975 72.8719 247.289 72.1579 247.177 71.3039H252.203V70.9119C252.203 68.6999 250.831 67.1879 248.815 67.1879C246.757 67.1879 245.315 68.7699 245.315 70.7299ZM248.815 68.6019C249.991 68.6019 250.439 69.4559 250.481 70.0999H247.149C247.233 69.4279 247.709 68.6019 248.815 68.6019ZM255.265 74.1179V64.7799H253.487V74.1179H255.265ZM262.866 74.1179V69.7499C262.866 67.8039 261.452 67.1879 259.912 67.1879C258.848 67.1879 257.784 67.5239 256.958 68.2519L257.63 69.4419C258.204 68.9099 258.876 68.6439 259.604 68.6439C260.5 68.6439 261.088 69.0919 261.088 69.7779V70.7159C260.64 70.1699 259.842 69.8899 258.946 69.8899C257.868 69.8899 256.594 70.4639 256.594 72.0459C256.594 73.5579 257.868 74.2859 258.946 74.2859C259.828 74.2859 260.626 73.9639 261.088 73.4179V74.1179H262.866ZM261.088 72.4939C260.794 72.8859 260.234 73.0819 259.66 73.0819C258.96 73.0819 258.386 72.7179 258.386 72.0879C258.386 71.4439 258.96 71.0659 259.66 71.0659C260.234 71.0659 260.794 71.2619 261.088 71.6539V72.4939ZM269.852 74.1179V72.5639H266.702L269.796 68.6439V67.3559H264.336V68.9099H267.388L264.336 72.7879V74.1179H269.852ZM272.211 66.3619C272.799 66.3619 273.275 65.8859 273.275 65.2979C273.275 64.7099 272.799 64.2339 272.211 64.2339C271.637 64.2339 271.147 64.7099 271.147 65.2979C271.147 65.8859 271.637 66.3619 272.211 66.3619ZM273.107 74.1179V67.3559H271.329V74.1179H273.107ZM278.006 74.2859C280.246 74.2859 281.59 72.6619 281.59 70.7299C281.59 68.8119 280.246 67.1879 278.006 67.1879C275.78 67.1879 274.436 68.8119 274.436 70.7299C274.436 72.6619 275.78 74.2859 278.006 74.2859ZM278.006 72.7039C276.9 72.7039 276.284 71.7939 276.284 70.7299C276.284 69.6799 276.9 68.7699 278.006 68.7699C279.112 68.7699 279.742 69.6799 279.742 70.7299C279.742 71.7939 279.112 72.7039 278.006 72.7039ZM289.251 74.1179V69.3439C289.251 68.0279 288.537 67.1879 287.053 67.1879C285.947 67.1879 285.121 67.7199 284.687 68.2379V67.3559H282.909V74.1179H284.687V69.5679C284.981 69.1619 285.527 68.7699 286.227 68.7699C286.983 68.7699 287.473 69.0919 287.473 70.0299V74.1179H289.251ZM291.899 66.3619C292.487 66.3619 292.963 65.8859 292.963 65.2979C292.963 64.7099 292.487 64.2339 291.899 64.2339C291.325 64.2339 290.835 64.7099 290.835 65.2979C290.835 65.8859 291.325 66.3619 291.899 66.3619ZM292.795 74.1179V67.3559H291.017V74.1179H292.795ZM197.853 86.7299C197.853 88.8159 199.351 90.2859 201.437 90.2859C202.823 90.2859 203.663 89.6839 204.111 89.0539L202.949 87.9759C202.627 88.4239 202.137 88.7039 201.521 88.7039C200.443 88.7039 199.687 87.9059 199.687 86.7299C199.687 85.5539 200.443 84.7699 201.521 84.7699C202.137 84.7699 202.627 85.0359 202.949 85.4979L204.111 84.4199C203.663 83.7899 202.823 83.1879 201.437 83.1879C199.351 83.1879 197.853 84.6579 197.853 86.7299ZM208.41 90.2859C210.65 90.2859 211.994 88.6619 211.994 86.7299C211.994 84.8119 210.65 83.1879 208.41 83.1879C206.184 83.1879 204.84 84.8119 204.84 86.7299C204.84 88.6619 206.184 90.2859 208.41 90.2859ZM208.41 88.7039C207.304 88.7039 206.688 87.7939 206.688 86.7299C206.688 85.6799 207.304 84.7699 208.41 84.7699C209.516 84.7699 210.146 85.6799 210.146 86.7299C210.146 87.7939 209.516 88.7039 208.41 88.7039ZM219.655 90.1179V85.3439C219.655 84.0279 218.941 83.1879 217.457 83.1879C216.351 83.1879 215.525 83.7199 215.091 84.2379V83.3559H213.313V90.1179H215.091V85.5679C215.385 85.1619 215.931 84.7699 216.631 84.7699C217.387 84.7699 217.877 85.0919 217.877 86.0299V90.1179H219.655ZM224.862 91.8539C225.702 92.5959 226.612 92.8619 227.774 92.8619C229.44 92.8619 231.428 92.2319 231.428 89.6559V83.3559H229.636V84.2239C229.09 83.5379 228.362 83.1879 227.55 83.1879C225.842 83.1879 224.568 84.4199 224.568 86.6319C224.568 88.8859 225.856 90.0759 227.55 90.0759C228.376 90.0759 229.104 89.6839 229.636 89.0119V89.6979C229.636 91.0279 228.628 91.4059 227.774 91.4059C226.92 91.4059 226.206 91.1679 225.66 90.5659L224.862 91.8539ZM229.636 87.7239C229.342 88.1579 228.698 88.4939 228.11 88.4939C227.102 88.4939 226.402 87.7939 226.402 86.6319C226.402 85.4699 227.102 84.7699 228.11 84.7699C228.698 84.7699 229.342 85.0919 229.636 85.5399V87.7239ZM234.97 90.1179V80.7799H233.192V90.1179H234.97ZM237.615 82.3619C238.203 82.3619 238.679 81.8859 238.679 81.2979C238.679 80.7099 238.203 80.2339 237.615 80.2339C237.041 80.2339 236.551 80.7099 236.551 81.2979C236.551 81.8859 237.041 82.3619 237.615 82.3619ZM238.511 90.1179V83.3559H236.733V90.1179H238.511ZM243.268 89.2359C243.982 89.8939 245.116 90.2859 246.292 90.2859C248.168 90.2859 249.218 89.3619 249.218 88.1159C249.218 86.4359 247.664 86.1279 246.502 85.9039C245.746 85.7499 245.214 85.5959 245.214 85.1759C245.214 84.7839 245.634 84.5459 246.278 84.5459C247.104 84.5459 247.874 84.8959 248.28 85.3299L248.98 84.1119C248.322 83.5799 247.412 83.1879 246.264 83.1879C244.486 83.1879 243.492 84.1819 243.492 85.3159C243.492 86.9259 244.99 87.2059 246.152 87.4299C246.922 87.5839 247.51 87.7519 247.51 88.2279C247.51 88.6479 247.146 88.9139 246.376 88.9139C245.536 88.9139 244.528 88.4519 244.038 87.9899L243.268 89.2359ZM252.796 90.2859C253.538 90.2859 254.014 90.0899 254.28 89.8519L253.902 88.5079C253.804 88.6059 253.552 88.7039 253.286 88.7039C252.894 88.7039 252.67 88.3819 252.67 87.9619V84.9099H254.042V83.3559H252.67V81.5079H250.878V83.3559H249.758V84.9099H250.878V88.4379C250.878 89.6419 251.55 90.2859 252.796 90.2859ZM261.096 90.1179V85.7499C261.096 83.8039 259.682 83.1879 258.142 83.1879C257.078 83.1879 256.014 83.5239 255.188 84.2519L255.86 85.4419C256.434 84.9099 257.106 84.6439 257.834 84.6439C258.73 84.6439 259.318 85.0919 259.318 85.7779V86.7159C258.87 86.1699 258.072 85.8899 257.176 85.8899C256.098 85.8899 254.824 86.4639 254.824 88.0459C254.824 89.5579 256.098 90.2859 257.176 90.2859C258.058 90.2859 258.856 89.9639 259.318 89.4179V90.1179H261.096ZM259.318 88.4939C259.024 88.8859 258.464 89.0819 257.89 89.0819C257.19 89.0819 256.616 88.7179 256.616 88.0879C256.616 87.4439 257.19 87.0659 257.89 87.0659C258.464 87.0659 259.024 87.2619 259.318 87.6539V88.4939ZM269.468 90.1179L266.71 86.4219L269.384 83.3559H267.2L264.638 86.3659V80.7799H262.86V90.1179H264.638V88.3819L265.45 87.5139L267.242 90.1179H269.468ZM269.617 86.7299C269.617 88.8999 271.171 90.2859 273.229 90.2859C274.279 90.2859 275.329 89.9779 276.015 89.3479L275.231 88.1999C274.797 88.6199 274.055 88.8719 273.425 88.8719C272.277 88.8719 271.591 88.1579 271.479 87.3039H276.505V86.9119C276.505 84.6999 275.133 83.1879 273.117 83.1879C271.059 83.1879 269.617 84.7699 269.617 86.7299ZM273.117 84.6019C274.293 84.6019 274.741 85.4559 274.783 86.0999H271.451C271.535 85.4279 272.011 84.6019 273.117 84.6019ZM284.145 90.1179V85.3159C284.145 83.9999 283.431 83.1879 281.947 83.1879C280.841 83.1879 280.001 83.7199 279.567 84.2379V80.7799H277.789V90.1179H279.567V85.5679C279.875 85.1619 280.421 84.7699 281.107 84.7699C281.877 84.7699 282.367 85.0639 282.367 86.0019V90.1179H284.145ZM289.046 90.2859C291.286 90.2859 292.63 88.6619 292.63 86.7299C292.63 84.8119 291.286 83.1879 289.046 83.1879C286.82 83.1879 285.476 84.8119 285.476 86.7299C285.476 88.6619 286.82 90.2859 289.046 90.2859ZM289.046 88.7039C287.94 88.7039 287.324 87.7939 287.324 86.7299C287.324 85.6799 287.94 84.7699 289.046 84.7699C290.152 84.7699 290.782 85.6799 290.782 86.7299C290.782 87.7939 290.152 88.7039 289.046 88.7039ZM295.727 90.1179V80.7799H293.949V90.1179H295.727ZM303.93 90.1179V80.7799H302.138V84.2239C301.606 83.5379 300.85 83.1879 300.052 83.1879C298.33 83.1879 297.056 84.5319 297.056 86.7439C297.056 88.9979 298.344 90.2859 300.052 90.2859C300.864 90.2859 301.606 89.9219 302.138 89.2639V90.1179H303.93ZM302.138 87.9339C301.83 88.3819 301.2 88.7039 300.598 88.7039C299.59 88.7039 298.89 87.9059 298.89 86.7439C298.89 85.5679 299.59 84.7699 300.598 84.7699C301.2 84.7699 301.83 85.0919 302.138 85.5399V87.9339ZM305.26 86.7299C305.26 88.8999 306.814 90.2859 308.872 90.2859C309.922 90.2859 310.972 89.9779 311.658 89.3479L310.874 88.1999C310.44 88.6199 309.698 88.8719 309.068 88.8719C307.92 88.8719 307.234 88.1579 307.122 87.3039H312.148V86.9119C312.148 84.6999 310.776 83.1879 308.76 83.1879C306.702 83.1879 305.26 84.7699 305.26 86.7299ZM308.76 84.6019C309.936 84.6019 310.384 85.4559 310.426 86.0999H307.094C307.178 85.4279 307.654 84.6019 308.76 84.6019ZM315.21 90.1179V85.6519C315.504 85.2179 316.288 84.8959 316.876 84.8959C317.072 84.8959 317.24 84.9099 317.366 84.9379V83.2019C316.526 83.2019 315.686 83.6779 315.21 84.2799V83.3559H313.432V90.1179H315.21Z" fill="#FCFCF3"/>
<g id="Group_2">
<path id="point-0-0_2" d="M257 4.98985C257 4.4467 257.11 3.90924 257.325 3.41022C257.539 2.9112 257.853 2.46107 258.247 2.08725C258.641 1.71343 259.107 1.42375 259.616 1.23588C260.126 1.048 260.668 0.965851 261.21 0.994437C266.777 1.28789 272.298 2.16249 277.683 3.60398C278.207 3.74441 278.698 3.99019 279.124 4.32635C279.551 4.66251 279.904 5.08202 280.163 5.55931C280.423 6.03659 280.582 6.56167 280.632 7.10253C280.681 7.6434 280.62 8.18872 280.453 8.70528C280.136 9.6798 279.458 10.4957 278.558 10.9847C277.657 11.4738 276.604 11.5988 275.614 11.3339C270.768 10.0365 265.799 9.24937 260.789 8.98526C259.766 8.93133 258.803 8.48686 258.098 7.74349C257.393 7.00012 257 6.01451 257 4.98985V4.98985Z" fill="#493C3C"/>
<path id="point-0-1_2" d="M280.453 8.70527C280.621 8.18871 280.892 7.71173 281.25 7.3034C281.608 6.89507 282.045 6.56393 282.535 6.33017C283.026 6.09641 283.558 5.96493 284.101 5.94372C284.643 5.92252 285.185 6.01205 285.692 6.20684C299.992 11.7024 312.414 21.1892 321.481 33.5398C330.549 45.8904 335.88 60.5854 336.842 75.8782C337.804 91.171 334.356 106.418 326.908 119.808C319.459 133.198 308.324 144.168 294.825 151.413C294.346 151.669 293.821 151.826 293.28 151.873C292.739 151.92 292.194 151.856 291.678 151.686C291.163 151.515 290.687 151.242 290.281 150.882C289.874 150.521 289.546 150.082 289.314 149.591C288.878 148.663 288.814 147.604 289.136 146.631C289.457 145.658 290.14 144.846 291.042 144.362C303.191 137.841 313.213 127.969 319.917 115.918C326.62 103.867 329.724 90.1441 328.858 76.3806C327.992 62.6171 323.194 49.3916 315.033 38.2761C306.872 27.1605 295.693 18.6224 282.822 13.6764C281.866 13.3089 281.087 12.5885 280.646 11.6636C280.206 10.7386 280.136 9.67978 280.453 8.70527Z" fill="#58E1DB"/>
<path id="point-0-2_2" d="M289.314 149.591C289.546 150.082 289.674 150.616 289.693 151.158C289.711 151.701 289.619 152.242 289.422 152.748C289.224 153.254 288.926 153.715 288.545 154.102C288.164 154.489 287.708 154.794 287.205 154.999C271.035 161.594 253.151 162.716 236.283 158.192C219.415 153.669 204.491 143.749 193.788 129.947C183.084 116.145 177.19 99.219 177.005 81.7525C176.819 64.2861 182.353 47.2386 192.76 33.2124C193.084 32.7762 193.493 32.4106 193.963 32.1377C194.432 31.8648 194.952 31.6903 195.491 31.625C196.03 31.5597 196.577 31.6048 197.098 31.7577C197.619 31.9105 198.104 32.1679 198.522 32.5141C199.311 33.1673 199.82 34.0984 199.943 35.1157C200.067 36.1329 199.795 37.1586 199.184 37.9814C189.817 50.6051 184.837 65.9477 185.004 81.6676C185.171 97.3874 190.476 112.621 200.109 125.043C209.742 137.464 223.174 146.392 238.355 150.463C253.536 154.534 269.631 153.525 284.185 147.589C285.133 147.203 286.194 147.194 287.149 147.567C288.103 147.939 288.878 148.664 289.314 149.591Z" fill="#7DBF90"/>
<path id="point-0-3_2" d="M198.522 32.514C198.104 32.1678 197.76 31.74 197.512 31.2567C197.265 30.7734 197.118 30.2446 197.081 29.7028C197.044 29.1609 197.118 28.6171 197.298 28.1047C197.478 27.5923 197.761 27.1219 198.128 26.7222C205.326 18.8971 214.011 12.5856 223.676 8.15623C224.17 7.92999 224.704 7.80665 225.247 7.79373C225.79 7.78082 226.33 7.87859 226.834 8.0811C227.337 8.28362 227.795 8.58662 228.178 8.97166C228.561 9.3567 228.861 9.8157 229.061 10.3207C229.438 11.2734 229.436 12.3345 229.054 13.2853C228.672 14.2361 227.94 15.0041 227.008 15.4309C218.31 19.4173 210.494 25.0977 204.015 32.1402C203.322 32.8943 202.365 33.3534 201.343 33.4229C200.321 33.4925 199.311 33.1672 198.522 32.514Z" fill="#93A2BF"/>
<path id="point-0-4_2" d="M229.061 10.3207C228.861 9.81569 228.766 9.27527 228.782 8.73235C228.798 8.18943 228.924 7.65539 229.152 7.16277C229.381 6.67014 229.708 6.22925 230.112 5.86697C230.517 5.50468 230.991 5.22858 231.506 5.05549C236.789 3.27865 242.244 2.05903 247.782 1.41654C248.321 1.35396 248.867 1.40188 249.388 1.55739C249.908 1.7129 250.391 1.97274 250.808 2.32108C251.224 2.66942 251.566 3.09896 251.811 3.58353C252.056 4.0681 252.2 4.59755 252.235 5.13963C252.299 6.16227 251.968 7.17062 251.311 7.95681C250.654 8.74299 249.721 9.24708 248.703 9.36515C243.72 9.9434 238.81 11.041 234.055 12.6402C233.084 12.9667 232.025 12.9082 231.096 12.4766C230.167 12.0451 229.438 11.2734 229.061 10.3207Z" fill="#D6E3A2"/>
<path id="point-0-5_2" d="M252.132 3.51181C252.112 3.18599 252.157 2.85937 252.265 2.55135C252.373 2.24333 252.542 1.96018 252.762 1.71872C252.981 1.47725 253.247 1.2824 253.544 1.14572C253.84 1.00904 254.161 0.933332 254.487 0.923078C254.813 0.912823 255.138 0.968235 255.443 1.08603C255.747 1.20382 256.025 1.38159 256.259 1.60878C256.493 1.83597 256.68 2.10795 256.807 2.40857C256.934 2.7092 257 3.03233 257 3.35879V6.58672C257 7.19342 256.764 7.77631 256.342 8.212C255.92 8.64769 255.345 8.90199 254.738 8.92104C254.132 8.9401 253.542 8.72243 253.094 8.31411C252.645 7.90579 252.373 7.33887 252.335 6.73337L252.132 3.51181Z" fill="#FCFCF3"/>
</g>
</g>
</g>
</svg>
