<svg width="336" height="161" viewBox="0 0 336 161" fill="none" xmlns="http://www.w3.org/2000/svg">
<g id="Group 470">
<g id="Group 346">
<path id="L&#226;&#128;&#153;attrattivit&#195;&#160; verso&#226;&#128;&#168;i giovani talenti" d="M30.3014 73.7057V71.9557H26.3534V64.3677H24.3654V73.7057H30.3014ZM30.4372 68.2597C31.2912 67.6437 31.8792 66.7057 31.8792 65.6557C31.8792 64.7457 31.2772 64.2277 30.6192 64.2277C30.0312 64.2277 29.5272 64.7317 29.5272 65.3477C29.5272 65.9357 29.9472 66.3557 30.4792 66.3557C30.5772 66.3557 30.7032 66.3277 30.7452 66.2997C30.6332 66.8037 30.1152 67.3917 29.6672 67.6297L30.4372 68.2597ZM39.1575 73.7057V69.3377C39.1575 67.3917 37.7435 66.7757 36.2035 66.7757C35.1395 66.7757 34.0755 67.1117 33.2495 67.8397L33.9215 69.0297C34.4955 68.4977 35.1675 68.2317 35.8955 68.2317C36.7915 68.2317 37.3795 68.6797 37.3795 69.3657V70.3037C36.9315 69.7577 36.1335 69.4777 35.2375 69.4777C34.1595 69.4777 32.8855 70.0517 32.8855 71.6337C32.8855 73.1457 34.1595 73.8737 35.2375 73.8737C36.1195 73.8737 36.9175 73.5517 37.3795 73.0057V73.7057H39.1575ZM37.3795 72.0817C37.0855 72.4737 36.5255 72.6697 35.9515 72.6697C35.2515 72.6697 34.6775 72.3057 34.6775 71.6757C34.6775 71.0317 35.2515 70.6537 35.9515 70.6537C36.5255 70.6537 37.0855 70.8497 37.3795 71.2417V72.0817ZM43.1891 73.8737C43.9311 73.8737 44.4071 73.6777 44.6731 73.4397L44.2951 72.0957C44.1971 72.1937 43.9451 72.2917 43.6791 72.2917C43.2871 72.2917 43.0631 71.9697 43.0631 71.5497V68.4977H44.4351V66.9437H43.0631V65.0957H41.2711V66.9437H40.1511V68.4977H41.2711V72.0257C41.2711 73.2297 41.9431 73.8737 43.1891 73.8737ZM47.9196 73.8737C48.6616 73.8737 49.1376 73.6777 49.4036 73.4397L49.0256 72.0957C48.9276 72.1937 48.6756 72.2917 48.4096 72.2917C48.0176 72.2917 47.7936 71.9697 47.7936 71.5497V68.4977H49.1656V66.9437H47.7936V65.0957H46.0016V66.9437H44.8816V68.4977H46.0016V72.0257C46.0016 73.2297 46.6736 73.8737 47.9196 73.8737ZM52.16 73.7057V69.2397C52.454 68.8057 53.238 68.4837 53.826 68.4837C54.022 68.4837 54.19 68.4977 54.316 68.5257V66.7897C53.476 66.7897 52.636 67.2657 52.16 67.8677V66.9437H50.382V73.7057H52.16ZM61.265 73.7057V69.3377C61.265 67.3917 59.851 66.7757 58.311 66.7757C57.247 66.7757 56.183 67.1117 55.357 67.8397L56.029 69.0297C56.603 68.4977 57.275 68.2317 58.003 68.2317C58.899 68.2317 59.487 68.6797 59.487 69.3657V70.3037C59.039 69.7577 58.241 69.4777 57.345 69.4777C56.267 69.4777 54.993 70.0517 54.993 71.6337C54.993 73.1457 56.267 73.8737 57.345 73.8737C58.227 73.8737 59.025 73.5517 59.487 73.0057V73.7057H61.265ZM59.487 72.0817C59.193 72.4737 58.633 72.6697 58.059 72.6697C57.359 72.6697 56.785 72.3057 56.785 71.6757C56.785 71.0317 57.359 70.6537 58.059 70.6537C58.633 70.6537 59.193 70.8497 59.487 71.2417V72.0817ZM65.2965 73.8737C66.0385 73.8737 66.5145 73.6777 66.7805 73.4397L66.4025 72.0957C66.3045 72.1937 66.0525 72.2917 65.7865 72.2917C65.3945 72.2917 65.1705 71.9697 65.1705 71.5497V68.4977H66.5425V66.9437H65.1705V65.0957H63.3785V66.9437H62.2585V68.4977H63.3785V72.0257C63.3785 73.2297 64.0505 73.8737 65.2965 73.8737ZM70.027 73.8737C70.769 73.8737 71.245 73.6777 71.511 73.4397L71.133 72.0957C71.035 72.1937 70.783 72.2917 70.517 72.2917C70.125 72.2917 69.901 71.9697 69.901 71.5497V68.4977H71.273V66.9437H69.901V65.0957H68.109V66.9437H66.989V68.4977H68.109V72.0257C68.109 73.2297 68.781 73.8737 70.027 73.8737ZM73.3715 65.9497C73.9595 65.9497 74.4355 65.4737 74.4355 64.8857C74.4355 64.2977 73.9595 63.8217 73.3715 63.8217C72.7975 63.8217 72.3075 64.2977 72.3075 64.8857C72.3075 65.4737 72.7975 65.9497 73.3715 65.9497ZM74.2675 73.7057V66.9437H72.4895V73.7057H74.2675ZM79.6985 73.7057L82.4145 66.9437H80.4965L78.7325 71.6477L76.9685 66.9437H75.0645L77.7805 73.7057H79.6985ZM84.0902 65.9497C84.6782 65.9497 85.1542 65.4737 85.1542 64.8857C85.1542 64.2977 84.6782 63.8217 84.0902 63.8217C83.5162 63.8217 83.0262 64.2977 83.0262 64.8857C83.0262 65.4737 83.5162 65.9497 84.0902 65.9497ZM84.9862 73.7057V66.9437H83.2082V73.7057H84.9862ZM89.0172 73.8737C89.7592 73.8737 90.2352 73.6777 90.5012 73.4397L90.1232 72.0957C90.0252 72.1937 89.7732 72.2917 89.5072 72.2917C89.1152 72.2917 88.8912 71.9697 88.8912 71.5497V68.4977H90.2632V66.9437H88.8912V65.0957H87.0992V66.9437H85.9792V68.4977H87.0992V72.0257C87.0992 73.2297 87.7712 73.8737 89.0172 73.8737ZM95.0217 65.9217L93.1457 63.9057H91.5077L93.7757 65.9217H95.0217ZM97.3177 73.7057V69.3377C97.3177 67.3917 95.9037 66.7757 94.3637 66.7757C93.2997 66.7757 92.2357 67.1117 91.4097 67.8397L92.0817 69.0297C92.6557 68.4977 93.3277 68.2317 94.0557 68.2317C94.9517 68.2317 95.5397 68.6797 95.5397 69.3657V70.3037C95.0917 69.7577 94.2937 69.4777 93.3977 69.4777C92.3197 69.4777 91.0457 70.0517 91.0457 71.6337C91.0457 73.1457 92.3197 73.8737 93.3977 73.8737C94.2797 73.8737 95.0777 73.5517 95.5397 73.0057V73.7057H97.3177ZM95.5397 72.0817C95.2457 72.4737 94.6857 72.6697 94.1117 72.6697C93.4117 72.6697 92.8377 72.3057 92.8377 71.6757C92.8377 71.0317 93.4117 70.6537 94.1117 70.6537C94.6857 70.6537 95.2457 70.8497 95.5397 71.2417V72.0817ZM106.331 73.7057L109.047 66.9437H107.129L105.365 71.6477L103.601 66.9437H101.697L104.413 73.7057H106.331ZM109.407 70.3177C109.407 72.4877 110.961 73.8737 113.019 73.8737C114.069 73.8737 115.119 73.5657 115.805 72.9357L115.021 71.7877C114.587 72.2077 113.845 72.4597 113.215 72.4597C112.067 72.4597 111.381 71.7457 111.269 70.8917H116.295V70.4997C116.295 68.2877 114.923 66.7757 112.907 66.7757C110.849 66.7757 109.407 68.3577 109.407 70.3177ZM112.907 68.1897C114.083 68.1897 114.531 69.0437 114.573 69.6877H111.241C111.325 69.0157 111.801 68.1897 112.907 68.1897ZM119.357 73.7057V69.2397C119.651 68.8057 120.435 68.4837 121.023 68.4837C121.219 68.4837 121.387 68.4977 121.513 68.5257V66.7897C120.673 66.7897 119.833 67.2657 119.357 67.8677V66.9437H117.579V73.7057H119.357ZM122.036 72.8237C122.75 73.4817 123.884 73.8737 125.06 73.8737C126.936 73.8737 127.986 72.9497 127.986 71.7037C127.986 70.0237 126.432 69.7157 125.27 69.4917C124.514 69.3377 123.982 69.1837 123.982 68.7637C123.982 68.3717 124.402 68.1337 125.046 68.1337C125.872 68.1337 126.642 68.4837 127.048 68.9177L127.748 67.6997C127.09 67.1677 126.18 66.7757 125.032 66.7757C123.254 66.7757 122.26 67.7697 122.26 68.9037C122.26 70.5137 123.758 70.7937 124.92 71.0177C125.69 71.1717 126.278 71.3397 126.278 71.8157C126.278 72.2357 125.914 72.5017 125.144 72.5017C124.304 72.5017 123.296 72.0397 122.806 71.5777L122.036 72.8237ZM132.432 73.8737C134.672 73.8737 136.016 72.2497 136.016 70.3177C136.016 68.3997 134.672 66.7757 132.432 66.7757C130.206 66.7757 128.862 68.3997 128.862 70.3177C128.862 72.2497 130.206 73.8737 132.432 73.8737ZM132.432 72.2917C131.326 72.2917 130.71 71.3817 130.71 70.3177C130.71 69.2677 131.326 68.3577 132.432 68.3577C133.538 68.3577 134.168 69.2677 134.168 70.3177C134.168 71.3817 133.538 72.2917 132.432 72.2917ZM33.265 81.9497C33.853 81.9497 34.329 81.4737 34.329 80.8857C34.329 80.2977 33.853 79.8217 33.265 79.8217C32.691 79.8217 32.201 80.2977 32.201 80.8857C32.201 81.4737 32.691 81.9497 33.265 81.9497ZM34.161 89.7057V82.9437H32.383V89.7057H34.161ZM39.3661 91.4417C40.2061 92.1837 41.1161 92.4497 42.2781 92.4497C43.9441 92.4497 45.9321 91.8197 45.9321 89.2437V82.9437H44.1401V83.8117C43.5941 83.1257 42.8661 82.7757 42.0541 82.7757C40.3461 82.7757 39.0721 84.0077 39.0721 86.2197C39.0721 88.4737 40.3601 89.6637 42.0541 89.6637C42.8801 89.6637 43.6081 89.2717 44.1401 88.5997V89.2857C44.1401 90.6157 43.1321 90.9937 42.2781 90.9937C41.4241 90.9937 40.7101 90.7557 40.1641 90.1537L39.3661 91.4417ZM44.1401 87.3117C43.8461 87.7457 43.2021 88.0817 42.6141 88.0817C41.6061 88.0817 40.9061 87.3817 40.9061 86.2197C40.9061 85.0577 41.6061 84.3577 42.6141 84.3577C43.2021 84.3577 43.8461 84.6797 44.1401 85.1277V87.3117ZM48.5775 81.9497C49.1655 81.9497 49.6415 81.4737 49.6415 80.8857C49.6415 80.2977 49.1655 79.8217 48.5775 79.8217C48.0035 79.8217 47.5135 80.2977 47.5135 80.8857C47.5135 81.4737 48.0035 81.9497 48.5775 81.9497ZM49.4735 89.7057V82.9437H47.6955V89.7057H49.4735ZM54.3725 89.8737C56.6125 89.8737 57.9565 88.2497 57.9565 86.3177C57.9565 84.3997 56.6125 82.7757 54.3725 82.7757C52.1465 82.7757 50.8025 84.3997 50.8025 86.3177C50.8025 88.2497 52.1465 89.8737 54.3725 89.8737ZM54.3725 88.2917C53.2665 88.2917 52.6505 87.3817 52.6505 86.3177C52.6505 85.2677 53.2665 84.3577 54.3725 84.3577C55.4785 84.3577 56.1085 85.2677 56.1085 86.3177C56.1085 87.3817 55.4785 88.2917 54.3725 88.2917ZM62.9436 89.7057L65.6596 82.9437H63.7416L61.9776 87.6477L60.2136 82.9437H58.3096L61.0256 89.7057H62.9436ZM72.2913 89.7057V85.3377C72.2913 83.3917 70.8773 82.7757 69.3373 82.7757C68.2733 82.7757 67.2093 83.1117 66.3833 83.8397L67.0553 85.0297C67.6293 84.4977 68.3013 84.2317 69.0293 84.2317C69.9253 84.2317 70.5133 84.6797 70.5133 85.3657V86.3037C70.0653 85.7577 69.2673 85.4777 68.3713 85.4777C67.2933 85.4777 66.0193 86.0517 66.0193 87.6337C66.0193 89.1457 67.2933 89.8737 68.3713 89.8737C69.2533 89.8737 70.0513 89.5517 70.5133 89.0057V89.7057H72.2913ZM70.5133 88.0817C70.2193 88.4737 69.6593 88.6697 69.0853 88.6697C68.3853 88.6697 67.8113 88.3057 67.8113 87.6757C67.8113 87.0317 68.3853 86.6537 69.0853 86.6537C69.6593 86.6537 70.2193 86.8497 70.5133 87.2417V88.0817ZM80.3969 89.7057V84.9317C80.3969 83.6157 79.6829 82.7757 78.1989 82.7757C77.0929 82.7757 76.2669 83.3077 75.8329 83.8257V82.9437H74.0549V89.7057H75.8329V85.1557C76.1269 84.7497 76.6729 84.3577 77.3729 84.3577C78.1289 84.3577 78.6189 84.6797 78.6189 85.6177V89.7057H80.3969ZM83.0443 81.9497C83.6323 81.9497 84.1083 81.4737 84.1083 80.8857C84.1083 80.2977 83.6323 79.8217 83.0443 79.8217C82.4703 79.8217 81.9803 80.2977 81.9803 80.8857C81.9803 81.4737 82.4703 81.9497 83.0443 81.9497ZM83.9403 89.7057V82.9437H82.1623V89.7057H83.9403ZM91.5534 89.8737C92.2954 89.8737 92.7714 89.6777 93.0374 89.4397L92.6594 88.0957C92.5614 88.1937 92.3094 88.2917 92.0434 88.2917C91.6514 88.2917 91.4274 87.9697 91.4274 87.5497V84.4977H92.7994V82.9437H91.4274V81.0957H89.6354V82.9437H88.5154V84.4977H89.6354V88.0257C89.6354 89.2297 90.3074 89.8737 91.5534 89.8737ZM99.8538 89.7057V85.3377C99.8538 83.3917 98.4398 82.7757 96.8998 82.7757C95.8358 82.7757 94.7718 83.1117 93.9458 83.8397L94.6178 85.0297C95.1918 84.4977 95.8638 84.2317 96.5918 84.2317C97.4878 84.2317 98.0758 84.6797 98.0758 85.3657V86.3037C97.6278 85.7577 96.8298 85.4777 95.9338 85.4777C94.8558 85.4777 93.5818 86.0517 93.5818 87.6337C93.5818 89.1457 94.8558 89.8737 95.9338 89.8737C96.8158 89.8737 97.6138 89.5517 98.0758 89.0057V89.7057H99.8538ZM98.0758 88.0817C97.7818 88.4737 97.2218 88.6697 96.6478 88.6697C95.9478 88.6697 95.3738 88.3057 95.3738 87.6757C95.3738 87.0317 95.9478 86.6537 96.6478 86.6537C97.2218 86.6537 97.7818 86.8497 98.0758 87.2417V88.0817ZM103.395 89.7057V80.3677H101.617V89.7057H103.395ZM104.724 86.3177C104.724 88.4877 106.278 89.8737 108.336 89.8737C109.386 89.8737 110.436 89.5657 111.122 88.9357L110.338 87.7877C109.904 88.2077 109.162 88.4597 108.532 88.4597C107.384 88.4597 106.698 87.7457 106.586 86.8917H111.612V86.4997C111.612 84.2877 110.24 82.7757 108.224 82.7757C106.166 82.7757 104.724 84.3577 104.724 86.3177ZM108.224 84.1897C109.4 84.1897 109.848 85.0437 109.89 85.6877H106.558C106.642 85.0157 107.118 84.1897 108.224 84.1897ZM119.239 89.7057V84.9317C119.239 83.6157 118.525 82.7757 117.041 82.7757C115.935 82.7757 115.109 83.3077 114.675 83.8257V82.9437H112.897V89.7057H114.675V85.1557C114.969 84.7497 115.515 84.3577 116.215 84.3577C116.971 84.3577 117.461 84.6797 117.461 85.6177V89.7057H119.239ZM123.272 89.8737C124.014 89.8737 124.49 89.6777 124.756 89.4397L124.378 88.0957C124.28 88.1937 124.028 88.2917 123.762 88.2917C123.37 88.2917 123.146 87.9697 123.146 87.5497V84.4977H124.518V82.9437H123.146V81.0957H121.354V82.9437H120.234V84.4977H121.354V88.0257C121.354 89.2297 122.026 89.8737 123.272 89.8737ZM126.617 81.9497C127.205 81.9497 127.681 81.4737 127.681 80.8857C127.681 80.2977 127.205 79.8217 126.617 79.8217C126.043 79.8217 125.553 80.2977 125.553 80.8857C125.553 81.4737 126.043 81.9497 126.617 81.9497ZM127.513 89.7057V82.9437H125.735V89.7057H127.513Z" fill="#FCFCF3"/>
<g id="data-points">
<g id="Group">
<path id="point-0-0" d="M79.9999 4.92451C79.9999 4.38113 80.1105 3.84345 80.3249 3.34422C80.5392 2.84499 80.853 2.39467 81.2469 2.02069C81.6409 1.64672 82.1068 1.35692 82.6163 1.16896C83.1258 0.981006 83.6682 0.898824 84.2104 0.927423C89.777 1.221 95.2977 2.09597 100.683 3.53806C101.207 3.67854 101.698 3.92443 102.124 4.26073C102.551 4.59704 102.904 5.01672 103.163 5.49421C103.423 5.97169 103.582 6.49699 103.632 7.03808C103.681 7.57917 103.62 8.12472 103.453 8.6415C103.136 9.61642 102.458 10.4327 101.558 10.9219C100.657 11.4112 99.6039 11.5362 98.6143 11.2712C93.7679 9.97328 88.7993 9.18581 83.7894 8.92159C82.7664 8.86764 81.8031 8.42299 81.098 7.67931C80.3929 6.93563 79.9999 5.9496 79.9999 4.92451V4.92451Z" fill="#493C3C"/>
<path id="point-0-1" d="M103.453 8.64149C103.621 8.12471 103.892 7.64753 104.25 7.23903C104.608 6.83052 105.045 6.49925 105.536 6.26539C106.026 6.03154 106.558 5.9 107.101 5.87878C107.643 5.85757 108.185 5.94713 108.692 6.14201C119.021 10.1134 128.415 16.186 136.28 23.9761C144.145 31.7661 150.308 41.1041 154.382 51.3998C158.456 61.6954 160.351 72.7248 159.947 83.7907C159.543 94.8566 156.849 105.718 152.036 115.689C151.8 116.178 151.466 116.615 151.056 116.971C150.646 117.327 150.168 117.596 149.651 117.761C149.133 117.926 148.588 117.985 148.047 117.932C147.507 117.88 146.983 117.717 146.507 117.456C145.609 116.962 144.935 116.142 144.624 115.166C144.312 114.189 144.387 113.13 144.832 112.207C149.164 103.233 151.589 93.4578 151.952 83.4985C152.316 73.5392 150.61 63.6128 146.944 54.3467C143.278 45.0806 137.73 36.6764 130.652 29.6654C123.574 22.6543 115.119 17.1889 105.822 13.6147C104.866 13.2471 104.087 12.5263 103.646 11.601C103.206 10.6757 103.136 9.61641 103.453 8.64149Z" fill="#58E1DB"/>
<path id="point-0-2" d="M146.507 117.456C146.983 117.718 147.4 118.074 147.734 118.502C148.068 118.931 148.311 119.423 148.449 119.948C148.587 120.474 148.616 121.022 148.535 121.559C148.454 122.097 148.265 122.612 147.979 123.074C141.026 134.287 131.411 143.606 119.99 150.203C108.568 156.799 95.6938 160.468 82.5128 160.882C69.3318 161.297 56.2528 158.444 44.4397 152.579C32.6267 146.713 22.4459 138.016 14.8035 127.262C14.4888 126.819 14.2675 126.317 14.1531 125.785C14.0387 125.254 14.0335 124.705 14.138 124.172C14.2425 123.639 14.4543 123.132 14.7607 122.684C15.0671 122.235 15.4615 121.854 15.92 121.562C16.7849 121.013 17.8275 120.817 18.8328 121.014C19.8381 121.211 20.7294 121.787 21.3231 122.622C28.2013 132.301 37.364 140.129 47.9958 145.408C58.6275 150.687 70.3986 153.254 82.2615 152.881C94.1244 152.508 105.711 149.206 115.991 143.27C126.27 137.333 134.924 128.945 141.181 118.853C141.721 117.982 142.574 117.352 143.565 117.092C144.556 116.832 145.609 116.962 146.507 117.456Z" fill="#7DBF90"/>
<path id="point-0-3" d="M15.92 121.562C15.4615 121.853 14.9486 122.048 14.4125 122.135C13.8764 122.221 13.3283 122.197 12.8017 122.065C12.275 121.932 11.7809 121.694 11.3493 121.364C10.9177 121.034 10.5577 120.62 10.2913 120.147C3.54444 108.157 0 94.6291 0 80.8691C0 67.1092 3.54444 53.5815 10.2913 41.5916C10.5577 41.1181 10.9177 40.7039 11.3493 40.3742C11.7809 40.0444 12.275 39.806 12.8017 39.6736C13.3283 39.5411 13.8764 39.5174 14.4125 39.6037C14.9486 39.6901 15.4615 39.8848 15.92 40.176C16.785 40.7252 17.4063 41.5856 17.656 42.5798C17.9058 43.574 17.7648 44.6261 17.2621 45.5194C11.19 56.3103 8 68.4852 8 80.8691C8 93.2531 11.19 105.428 17.2621 116.219C17.7648 117.112 17.9058 118.164 17.656 119.158C17.4063 120.153 16.785 121.013 15.92 121.562Z" fill="#93A2BF"/>
<path id="point-0-4" d="M15.92 40.1754C15.4615 39.8843 15.0671 39.5028 14.7607 39.0541C14.4543 38.6055 14.2425 38.0991 14.138 37.5659C14.0335 37.0327 14.0387 36.4838 14.1531 35.9526C14.2675 35.4214 14.4888 34.9191 14.8035 34.4763C26.9217 17.4237 45.2307 5.79683 65.8098 2.08532C66.3443 1.98894 66.8927 2.00245 67.4217 2.12503C67.9507 2.2476 68.4493 2.47668 68.8869 2.7983C69.3246 3.11991 69.6923 3.52734 69.9675 3.99575C70.2427 4.46415 70.4198 4.98373 70.4878 5.52282C70.6162 6.53983 70.3498 7.56737 69.7434 8.39362C69.1371 9.21986 68.237 9.78182 67.2289 9.96365C48.7076 13.304 32.2295 23.7682 21.3231 39.1155C20.7294 39.9509 19.8381 40.5266 18.8328 40.7238C17.8275 40.921 16.7849 40.7247 15.92 40.1754Z" fill="#D6E3A2"/>
<path id="point-0-5" d="M70.4879 5.52335C70.4198 4.98427 70.4622 4.43695 70.6124 3.91477C70.7625 3.39259 71.0174 2.90647 71.3614 2.48604C71.7054 2.0656 72.1313 1.71966 72.6132 1.46929C73.0952 1.21891 73.623 1.06936 74.1646 1.02972C74.7059 0.990107 75.2475 0.956006 75.7895 0.927423C76.3318 0.898824 76.8742 0.981006 77.3837 1.16896C77.8931 1.35692 78.3591 1.64672 78.753 2.02069C79.147 2.39467 79.4607 2.84499 79.6751 3.34422C79.8895 3.84345 80 4.38113 80 4.92451C80 5.9496 79.607 6.93563 78.9019 7.67931C78.1969 8.42299 77.2335 8.86764 76.2105 8.92159C75.7228 8.94732 75.2353 8.97801 74.7481 9.01366C73.7264 9.08844 72.715 8.76811 71.9224 8.11871C71.1297 7.46932 70.6163 6.54037 70.4879 5.52335Z" fill="#FCFCF3"/>
</g>
</g>
</g>
<g id="Group 347">
<path id="La competitivit&#195;&#160;&#226;&#128;&#168;nel mercato" d="M212.418 73.7191V71.9691H208.47V64.3811H206.482V73.7191H212.418ZM219.51 73.7191V69.3511C219.51 67.4051 218.096 66.7891 216.556 66.7891C215.492 66.7891 214.428 67.1251 213.602 67.8531L214.274 69.0431C214.848 68.5111 215.52 68.2451 216.248 68.2451C217.144 68.2451 217.732 68.6931 217.732 69.3791V70.3171C217.284 69.7711 216.486 69.4911 215.59 69.4911C214.512 69.4911 213.238 70.0651 213.238 71.6471C213.238 73.1591 214.512 73.8871 215.59 73.8871C216.472 73.8871 217.27 73.5651 217.732 73.0191V73.7191H219.51ZM217.732 72.0951C217.438 72.4871 216.878 72.6831 216.304 72.6831C215.604 72.6831 215.03 72.3191 215.03 71.6891C215.03 71.0451 215.604 70.6671 216.304 70.6671C216.878 70.6671 217.438 70.8631 217.732 71.2551V72.0951ZM224.422 70.3311C224.422 72.4171 225.92 73.8871 228.006 73.8871C229.392 73.8871 230.232 73.2851 230.68 72.6551L229.518 71.5771C229.196 72.0251 228.706 72.3051 228.09 72.3051C227.012 72.3051 226.256 71.5071 226.256 70.3311C226.256 69.1551 227.012 68.3711 228.09 68.3711C228.706 68.3711 229.196 68.6371 229.518 69.0991L230.68 68.0211C230.232 67.3911 229.392 66.7891 228.006 66.7891C225.92 66.7891 224.422 68.2591 224.422 70.3311ZM234.978 73.8871C237.218 73.8871 238.562 72.2631 238.562 70.3311C238.562 68.4131 237.218 66.7891 234.978 66.7891C232.752 66.7891 231.408 68.4131 231.408 70.3311C231.408 72.2631 232.752 73.8871 234.978 73.8871ZM234.978 72.3051C233.872 72.3051 233.256 71.3951 233.256 70.3311C233.256 69.2811 233.872 68.3711 234.978 68.3711C236.084 68.3711 236.714 69.2811 236.714 70.3311C236.714 71.3951 236.084 72.3051 234.978 72.3051ZM250.059 73.7191V68.8331C250.059 67.4471 249.317 66.7891 248.071 66.7891C247.035 66.7891 246.139 67.4051 245.747 68.0211C245.495 67.2511 244.865 66.7891 243.871 66.7891C242.835 66.7891 241.939 67.4331 241.659 67.8391V66.9571H239.881V73.7191H241.659V69.1691C241.925 68.7911 242.443 68.3711 243.059 68.3711C243.787 68.3711 244.067 68.8191 244.067 69.4491V73.7191H245.859V69.1551C246.111 68.7911 246.629 68.3711 247.259 68.3711C247.987 68.3711 248.267 68.8191 248.267 69.4491V73.7191H250.059ZM253.581 72.8511C254.127 73.5511 254.869 73.8871 255.667 73.8871C257.403 73.8871 258.663 72.5851 258.663 70.3311C258.663 68.0771 257.403 66.7891 255.667 66.7891C254.841 66.7891 254.099 67.1531 253.581 67.8111V66.9571H251.803V76.2951H253.581V72.8511ZM256.815 70.3311C256.815 71.5071 256.129 72.3051 255.107 72.3051C254.533 72.3051 253.875 71.9551 253.581 71.5351V69.1411C253.875 68.7071 254.533 68.3711 255.107 68.3711C256.129 68.3711 256.815 69.1691 256.815 70.3311ZM259.558 70.3311C259.558 72.5011 261.112 73.8871 263.17 73.8871C264.22 73.8871 265.27 73.5791 265.956 72.9491L265.172 71.8011C264.738 72.2211 263.996 72.4731 263.366 72.4731C262.218 72.4731 261.532 71.7591 261.42 70.9051H266.446V70.5131C266.446 68.3011 265.074 66.7891 263.058 66.7891C261 66.7891 259.558 68.3711 259.558 70.3311ZM263.058 68.2031C264.234 68.2031 264.682 69.0571 264.724 69.7011H261.392C261.476 69.0291 261.952 68.2031 263.058 68.2031ZM269.999 73.8871C270.741 73.8871 271.217 73.6911 271.483 73.4531L271.105 72.1091C271.007 72.2071 270.755 72.3051 270.489 72.3051C270.097 72.3051 269.873 71.9831 269.873 71.5631V68.5111H271.245V66.9571H269.873V65.1091H268.081V66.9571H266.961V68.5111H268.081V72.0391C268.081 73.2431 268.753 73.8871 269.999 73.8871ZM273.343 65.9631C273.931 65.9631 274.407 65.4871 274.407 64.8991C274.407 64.3111 273.931 63.8351 273.343 63.8351C272.769 63.8351 272.279 64.3111 272.279 64.8991C272.279 65.4871 272.769 65.9631 273.343 65.9631ZM274.239 73.7191V66.9571H272.461V73.7191H274.239ZM278.27 73.8871C279.012 73.8871 279.488 73.6911 279.754 73.4531L279.376 72.1091C279.278 72.2071 279.026 72.3051 278.76 72.3051C278.368 72.3051 278.144 71.9831 278.144 71.5631V68.5111H279.516V66.9571H278.144V65.1091H276.352V66.9571H275.232V68.5111H276.352V72.0391C276.352 73.2431 277.024 73.8871 278.27 73.8871ZM281.615 65.9631C282.203 65.9631 282.679 65.4871 282.679 64.8991C282.679 64.3111 282.203 63.8351 281.615 63.8351C281.041 63.8351 280.551 64.3111 280.551 64.8991C280.551 65.4871 281.041 65.9631 281.615 65.9631ZM282.511 73.7191V66.9571H280.733V73.7191H282.511ZM287.942 73.7191L290.658 66.9571H288.74L286.976 71.6611L285.212 66.9571H283.308L286.024 73.7191H287.942ZM292.333 65.9631C292.921 65.9631 293.397 65.4871 293.397 64.8991C293.397 64.3111 292.921 63.8351 292.333 63.8351C291.759 63.8351 291.269 64.3111 291.269 64.8991C291.269 65.4871 291.759 65.9631 292.333 65.9631ZM293.229 73.7191V66.9571H291.451V73.7191H293.229ZM297.26 73.8871C298.002 73.8871 298.478 73.6911 298.744 73.4531L298.366 72.1091C298.268 72.2071 298.016 72.3051 297.75 72.3051C297.358 72.3051 297.134 71.9831 297.134 71.5631V68.5111H298.506V66.9571H297.134V65.1091H295.342V66.9571H294.222V68.5111H295.342V72.0391C295.342 73.2431 296.014 73.8871 297.26 73.8871ZM303.265 65.9351L301.389 63.9191H299.751L302.019 65.9351H303.265ZM305.561 73.7191V69.3511C305.561 67.4051 304.147 66.7891 302.607 66.7891C301.543 66.7891 300.479 67.1251 299.653 67.8531L300.325 69.0431C300.899 68.5111 301.571 68.2451 302.299 68.2451C303.195 68.2451 303.783 68.6931 303.783 69.3791V70.3171C303.335 69.7711 302.537 69.4911 301.641 69.4911C300.563 69.4911 299.289 70.0651 299.289 71.6471C299.289 73.1591 300.563 73.8871 301.641 73.8871C302.523 73.8871 303.321 73.5651 303.783 73.0191V73.7191H305.561ZM303.783 72.0951C303.489 72.4871 302.929 72.6831 302.355 72.6831C301.655 72.6831 301.081 72.3191 301.081 71.6891C301.081 71.0451 301.655 70.6671 302.355 70.6671C302.929 70.6671 303.489 70.8631 303.783 71.2551V72.0951ZM225.708 89.7191V84.9451C225.708 83.6291 224.994 82.7891 223.51 82.7891C222.404 82.7891 221.578 83.3211 221.144 83.8391V82.9571H219.366V89.7191H221.144V85.1691C221.438 84.7631 221.984 84.3711 222.684 84.3711C223.44 84.3711 223.93 84.6931 223.93 85.6311V89.7191H225.708ZM227.04 86.3311C227.04 88.5011 228.594 89.8871 230.652 89.8871C231.702 89.8871 232.752 89.5791 233.438 88.9491L232.654 87.8011C232.22 88.2211 231.478 88.4731 230.848 88.4731C229.7 88.4731 229.014 87.7591 228.902 86.9051H233.928V86.5131C233.928 84.3011 232.556 82.7891 230.54 82.7891C228.482 82.7891 227.04 84.3711 227.04 86.3311ZM230.54 84.2031C231.716 84.2031 232.164 85.0571 232.206 85.7011H228.874C228.958 85.0291 229.434 84.2031 230.54 84.2031ZM236.99 89.7191V80.3811H235.212V89.7191H236.99ZM252.513 89.7191V84.8331C252.513 83.4471 251.771 82.7891 250.525 82.7891C249.489 82.7891 248.593 83.4051 248.201 84.0211C247.949 83.2511 247.319 82.7891 246.325 82.7891C245.289 82.7891 244.393 83.4331 244.113 83.8391V82.9571H242.335V89.7191H244.113V85.1691C244.379 84.7911 244.897 84.3711 245.513 84.3711C246.241 84.3711 246.521 84.8191 246.521 85.4491V89.7191H248.313V85.1551C248.565 84.7911 249.083 84.3711 249.713 84.3711C250.441 84.3711 250.721 84.8191 250.721 85.4491V89.7191H252.513ZM253.823 86.3311C253.823 88.5011 255.377 89.8871 257.435 89.8871C258.485 89.8871 259.535 89.5791 260.221 88.9491L259.437 87.8011C259.003 88.2211 258.261 88.4731 257.631 88.4731C256.483 88.4731 255.797 87.7591 255.685 86.9051H260.711V86.5131C260.711 84.3011 259.339 82.7891 257.323 82.7891C255.265 82.7891 253.823 84.3711 253.823 86.3311ZM257.323 84.2031C258.499 84.2031 258.947 85.0571 258.989 85.7011H255.657C255.741 85.0291 256.217 84.2031 257.323 84.2031ZM263.773 89.7191V85.2531C264.067 84.8191 264.851 84.4971 265.439 84.4971C265.635 84.4971 265.803 84.5111 265.929 84.5391V82.8031C265.089 82.8031 264.249 83.2791 263.773 83.8811V82.9571H261.995V89.7191H263.773ZM266.606 86.3311C266.606 88.4171 268.104 89.8871 270.19 89.8871C271.576 89.8871 272.416 89.2851 272.864 88.6551L271.702 87.5771C271.38 88.0251 270.89 88.3051 270.274 88.3051C269.196 88.3051 268.44 87.5071 268.44 86.3311C268.44 85.1551 269.196 84.3711 270.274 84.3711C270.89 84.3711 271.38 84.6371 271.702 85.0991L272.864 84.0211C272.416 83.3911 271.576 82.7891 270.19 82.7891C268.104 82.7891 266.606 84.2591 266.606 86.3311ZM279.864 89.7191V85.3511C279.864 83.4051 278.45 82.7891 276.91 82.7891C275.846 82.7891 274.782 83.1251 273.956 83.8531L274.628 85.0431C275.202 84.5111 275.874 84.2451 276.602 84.2451C277.498 84.2451 278.086 84.6931 278.086 85.3791V86.3171C277.638 85.7711 276.84 85.4911 275.944 85.4911C274.866 85.4911 273.592 86.0651 273.592 87.6471C273.592 89.1591 274.866 89.8871 275.944 89.8871C276.826 89.8871 277.624 89.5651 278.086 89.0191V89.7191H279.864ZM278.086 88.0951C277.792 88.4871 277.232 88.6831 276.658 88.6831C275.958 88.6831 275.384 88.3191 275.384 87.6891C275.384 87.0451 275.958 86.6671 276.658 86.6671C277.232 86.6671 277.792 86.8631 278.086 87.2551V88.0951ZM283.896 89.8871C284.638 89.8871 285.114 89.6911 285.38 89.4531L285.002 88.1091C284.904 88.2071 284.652 88.3051 284.386 88.3051C283.994 88.3051 283.77 87.9831 283.77 87.5631V84.5111H285.142V82.9571H283.77V81.1091H281.978V82.9571H280.858V84.5111H281.978V88.0391C281.978 89.2431 282.65 89.8871 283.896 89.8871ZM289.495 89.8871C291.735 89.8871 293.079 88.2631 293.079 86.3311C293.079 84.4131 291.735 82.7891 289.495 82.7891C287.269 82.7891 285.925 84.4131 285.925 86.3311C285.925 88.2631 287.269 89.8871 289.495 89.8871ZM289.495 88.3051C288.389 88.3051 287.773 87.3951 287.773 86.3311C287.773 85.2811 288.389 84.3711 289.495 84.3711C290.601 84.3711 291.231 85.2811 291.231 86.3311C291.231 87.3951 290.601 88.3051 289.495 88.3051Z" fill="#FCFCF3"/>
<g id="data-points_2">
<g id="Group_2">
<path id="point-0-0_2" d="M256 4.92451C256 4.38113 256.11 3.84345 256.325 3.34422C256.539 2.84499 256.853 2.39467 257.247 2.0207C257.641 1.64672 258.107 1.35692 258.616 1.16896C259.126 0.981006 259.668 0.898824 260.21 0.927423C260.752 0.956006 261.294 0.990107 261.835 1.02972C262.377 1.06936 262.905 1.21891 263.387 1.46929C263.869 1.71966 264.295 2.0656 264.639 2.48604C264.983 2.90647 265.237 3.39259 265.388 3.91477C265.538 4.43695 265.58 4.98427 265.512 5.52336C265.384 6.54037 264.87 7.46932 264.078 8.11872C263.285 8.76811 262.273 9.08844 261.252 9.01366C260.765 8.97801 260.277 8.94732 259.789 8.92159C258.766 8.86764 257.803 8.42299 257.098 7.67931C256.393 6.93563 256 5.9496 256 4.92451V4.92451Z" fill="#493C3C"/>
<path id="point-0-1_2" d="M265.512 5.52343C265.58 4.98434 265.757 4.46476 266.032 3.99636C266.308 3.52795 266.675 3.12053 267.113 2.79891C267.551 2.47729 268.049 2.24821 268.578 2.12564C269.107 2.00306 269.656 1.98955 270.19 2.08593C289.638 5.59343 307.1 16.1796 319.212 31.8044C331.324 47.4292 337.228 66.9869 335.787 86.7085C335.747 87.2505 335.598 87.7786 335.347 88.2609C335.097 88.7431 334.752 89.1694 334.331 89.5136C333.911 89.8578 333.425 90.1128 332.904 90.2631C332.382 90.4134 331.835 90.4557 331.296 90.3876C330.28 90.2592 329.351 89.7454 328.702 88.9522C328.053 88.159 327.733 87.1469 327.808 86.1246C329.105 68.3751 323.792 50.7732 312.891 36.7109C301.99 22.6485 286.274 13.121 268.771 9.96426C267.763 9.78244 266.863 9.22047 266.256 8.39423C265.65 7.56799 265.384 6.54045 265.512 5.52343Z" fill="#58E1DB"/>
<path id="point-0-2_2" d="M331.296 90.3877C331.835 90.4558 332.354 90.6329 332.822 90.9083C333.29 91.1837 333.697 91.5516 334.019 91.9896C334.34 92.4276 334.569 92.9264 334.692 93.4558C334.814 93.9852 334.828 94.5339 334.731 95.0687C332.09 109.734 325.41 123.371 315.443 134.444C305.477 145.517 292.62 153.586 278.319 157.743C264.018 161.901 248.842 161.981 234.498 157.976C220.154 153.971 207.212 146.039 197.128 135.072C196.761 134.673 196.478 134.202 196.298 133.689C196.118 133.177 196.044 132.633 196.081 132.091C196.118 131.549 196.265 131.02 196.512 130.536C196.76 130.053 197.104 129.625 197.522 129.278C198.311 128.625 199.321 128.299 200.343 128.369C201.365 128.438 202.322 128.898 203.015 129.652C212.09 139.522 223.738 146.661 236.648 150.266C249.558 153.87 263.217 153.798 276.087 150.056C288.958 146.314 300.529 139.052 309.499 129.086C318.469 119.121 324.481 106.848 326.858 93.6488C327.04 92.6399 327.601 91.7393 328.427 91.1325C329.253 90.5258 330.28 90.2592 331.296 90.3877Z" fill="#7DBF90"/>
<path id="point-0-3_2" d="M197.522 129.278C197.104 129.624 196.619 129.882 196.098 130.035C195.577 130.188 195.03 130.233 194.491 130.168C193.952 130.102 193.432 129.928 192.963 129.655C192.493 129.382 192.084 129.016 191.76 128.58C182.037 115.471 176.552 99.7006 176.039 83.3837C175.527 67.0668 180.012 50.9831 188.893 37.2892C189.189 36.8334 189.574 36.4426 190.026 36.1406C190.477 35.8387 190.985 35.6318 191.519 35.5327C192.053 35.4336 192.602 35.4443 193.131 35.5642C193.661 35.6841 194.161 35.9106 194.6 36.23C195.429 36.8325 195.995 37.7303 196.182 38.7382C196.369 39.7461 196.162 40.7873 195.604 41.6472C187.611 53.9717 183.574 68.447 184.036 83.1322C184.497 97.8174 189.434 112.011 198.184 123.808C198.795 124.632 199.067 125.658 198.943 126.675C198.82 127.693 198.311 128.625 197.522 129.278Z" fill="#93A2BF"/>
<path id="point-0-4_2" d="M194.6 36.2302C194.161 35.9108 193.791 35.5052 193.513 35.0382C193.236 34.5712 193.056 34.0525 192.985 33.5138C192.914 32.9751 192.954 32.4276 193.102 31.9046C193.249 31.3817 193.501 30.8943 193.843 30.4721C200.536 22.2069 208.808 15.3595 218.175 10.3298C218.654 10.0729 219.179 9.91614 219.72 9.86913C220.261 9.82213 220.806 9.88583 221.322 10.0564C221.837 10.2269 222.313 10.5007 222.719 10.8611C223.126 11.2215 223.454 11.6609 223.686 12.1525C224.122 13.0801 224.186 14.1397 223.864 15.113C223.543 16.0863 222.86 16.8991 221.958 17.3837C213.527 21.9104 206.082 28.0732 200.059 35.5118C199.414 36.3083 198.488 36.8268 197.473 36.9604C196.457 37.0941 195.429 36.8327 194.6 36.2302Z" fill="#D6E3A2"/>
<path id="point-0-5_2" d="M223.686 12.1524C223.454 11.6607 223.326 11.1271 223.307 10.584C223.289 10.041 223.381 9.49986 223.578 8.99363C223.776 8.4874 224.074 8.02668 224.455 7.63954C224.836 7.2524 225.292 6.94693 225.795 6.74177C234.074 3.36367 242.861 1.39832 251.789 0.927423C252.332 0.898824 252.874 0.981006 253.384 1.16896C253.893 1.35692 254.359 1.64672 254.753 2.0207C255.147 2.39467 255.461 2.84499 255.675 3.34422C255.889 3.84345 256 4.38113 256 4.92451C256 5.9496 255.607 6.93563 254.902 7.67931C254.197 8.42299 253.233 8.86764 252.21 8.92159C244.175 9.3454 236.267 11.1142 228.815 14.1545C227.867 14.5416 226.806 14.5497 225.851 14.1771C224.897 13.8046 224.122 13.0799 223.686 12.1524Z" fill="#FCFCF3"/>
</g>
</g>
</g>
</g>
</svg>
