<svg width="337" height="161" viewBox="0 0 337 161" fill="none" xmlns="http://www.w3.org/2000/svg">
<g id="Group 469">
<g id="Group 344">
<path id="Il clima interno" d="M36.1884 74.9087V65.5707H34.2004V74.9087H36.1884ZM39.7782 74.9087V65.5707H38.0002V74.9087H39.7782ZM44.6892 71.5207C44.6892 73.6067 46.1872 75.0767 48.2732 75.0767C49.6592 75.0767 50.4992 74.4747 50.9472 73.8447L49.7852 72.7667C49.4632 73.2147 48.9732 73.4947 48.3572 73.4947C47.2792 73.4947 46.5232 72.6967 46.5232 71.5207C46.5232 70.3447 47.2792 69.5607 48.3572 69.5607C48.9732 69.5607 49.4632 69.8267 49.7852 70.2887L50.9472 69.2107C50.4992 68.5807 49.6592 67.9787 48.2732 67.9787C46.1872 67.9787 44.6892 69.4487 44.6892 71.5207ZM53.8875 74.9087V65.5707H52.1095V74.9087H53.8875ZM56.5326 67.1527C57.1206 67.1527 57.5966 66.6767 57.5966 66.0887C57.5966 65.5007 57.1206 65.0247 56.5326 65.0247C55.9586 65.0247 55.4686 65.5007 55.4686 66.0887C55.4686 66.6767 55.9586 67.1527 56.5326 67.1527ZM57.4286 74.9087V68.1467H55.6506V74.9087H57.4286ZM69.3696 74.9087V70.0227C69.3696 68.6367 68.6276 67.9787 67.3816 67.9787C66.3456 67.9787 65.4496 68.5947 65.0576 69.2107C64.8056 68.4407 64.1756 67.9787 63.1816 67.9787C62.1456 67.9787 61.2496 68.6227 60.9696 69.0287V68.1467H59.1916V74.9087H60.9696V70.3587C61.2356 69.9807 61.7536 69.5607 62.3696 69.5607C63.0976 69.5607 63.3776 70.0087 63.3776 70.6387V74.9087H65.1696V70.3447C65.4216 69.9807 65.9396 69.5607 66.5696 69.5607C67.2976 69.5607 67.5776 70.0087 67.5776 70.6387V74.9087H69.3696ZM76.9514 74.9087V70.5407C76.9514 68.5947 75.5374 67.9787 73.9974 67.9787C72.9334 67.9787 71.8694 68.3147 71.0434 69.0427L71.7154 70.2327C72.2894 69.7007 72.9614 69.4347 73.6894 69.4347C74.5854 69.4347 75.1734 69.8827 75.1734 70.5687V71.5067C74.7254 70.9607 73.9274 70.6807 73.0314 70.6807C71.9534 70.6807 70.6794 71.2547 70.6794 72.8367C70.6794 74.3487 71.9534 75.0767 73.0314 75.0767C73.9134 75.0767 74.7114 74.7547 75.1734 74.2087V74.9087H76.9514ZM75.1734 73.2847C74.8794 73.6767 74.3194 73.8727 73.7454 73.8727C73.0454 73.8727 72.4714 73.5087 72.4714 72.8787C72.4714 72.2347 73.0454 71.8567 73.7454 71.8567C74.3194 71.8567 74.8794 72.0527 75.1734 72.4447V73.2847ZM83.179 67.1527C83.767 67.1527 84.243 66.6767 84.243 66.0887C84.243 65.5007 83.767 65.0247 83.179 65.0247C82.605 65.0247 82.115 65.5007 82.115 66.0887C82.115 66.6767 82.605 67.1527 83.179 67.1527ZM84.075 74.9087V68.1467H82.297V74.9087H84.075ZM92.1801 74.9087V70.1347C92.1801 68.8187 91.4661 67.9787 89.9821 67.9787C88.8761 67.9787 88.0501 68.5107 87.6161 69.0287V68.1467H85.8381V74.9087H87.6161V70.3587C87.9101 69.9527 88.4561 69.5607 89.1561 69.5607C89.9121 69.5607 90.4021 69.8827 90.4021 70.8207V74.9087H92.1801ZM96.2135 75.0767C96.9555 75.0767 97.4315 74.8807 97.6975 74.6427L97.3195 73.2987C97.2215 73.3967 96.9695 73.4947 96.7035 73.4947C96.3115 73.4947 96.0875 73.1727 96.0875 72.7527V69.7007H97.4595V68.1467H96.0875V66.2987H94.2955V68.1467H93.1755V69.7007H94.2955V73.2287C94.2955 74.4327 94.9675 75.0767 96.2135 75.0767ZM98.2419 71.5207C98.2419 73.6907 99.7959 75.0767 101.854 75.0767C102.904 75.0767 103.954 74.7687 104.64 74.1387L103.856 72.9907C103.422 73.4107 102.68 73.6627 102.05 73.6627C100.902 73.6627 100.216 72.9487 100.104 72.0947H105.13V71.7027C105.13 69.4907 103.758 67.9787 101.742 67.9787C99.6839 67.9787 98.2419 69.5607 98.2419 71.5207ZM101.742 69.3927C102.918 69.3927 103.366 70.2467 103.408 70.8907H100.076C100.16 70.2187 100.636 69.3927 101.742 69.3927ZM108.192 74.9087V70.4427C108.486 70.0087 109.27 69.6867 109.858 69.6867C110.054 69.6867 110.222 69.7007 110.348 69.7287V67.9927C109.508 67.9927 108.668 68.4687 108.192 69.0707V68.1467H106.414V74.9087H108.192ZM117.801 74.9087V70.1347C117.801 68.8187 117.087 67.9787 115.603 67.9787C114.497 67.9787 113.671 68.5107 113.237 69.0287V68.1467H111.459V74.9087H113.237V70.3587C113.531 69.9527 114.077 69.5607 114.777 69.5607C115.533 69.5607 116.023 69.8827 116.023 70.8207V74.9087H117.801ZM122.703 75.0767C124.943 75.0767 126.287 73.4527 126.287 71.5207C126.287 69.6027 124.943 67.9787 122.703 67.9787C120.477 67.9787 119.133 69.6027 119.133 71.5207C119.133 73.4527 120.477 75.0767 122.703 75.0767ZM122.703 73.4947C121.597 73.4947 120.981 72.5847 120.981 71.5207C120.981 70.4707 121.597 69.5607 122.703 69.5607C123.809 69.5607 124.439 70.4707 124.439 71.5207C124.439 72.5847 123.809 73.4947 122.703 73.4947Z" fill="#FCFCF3"/>
<g id="data-points">
<g id="Group">
<path id="point-0-0" d="M80 4.92451C80 4.38113 80.1106 3.84345 80.325 3.34422C80.5393 2.84499 80.8531 2.39467 81.247 2.02069C81.641 1.64672 82.1069 1.35692 82.6164 1.16896C83.1259 0.981006 83.6683 0.898824 84.2105 0.927423C86.426 1.04427 88.6357 1.25327 90.8338 1.55391C91.3718 1.6275 91.8892 1.80993 92.3545 2.09009C92.8197 2.37025 93.2231 2.74228 93.5401 3.18349C93.857 3.62471 94.0809 4.12588 94.198 4.65647C94.3151 5.18705 94.323 5.73595 94.2212 6.26969C94.0293 7.27663 93.4586 8.17149 92.6267 8.7698C91.7949 9.36811 90.7654 9.62426 89.7504 9.48544C87.7721 9.21486 85.7834 9.02675 83.7895 8.92159C82.7665 8.86764 81.8031 8.42299 81.0981 7.67931C80.393 6.93563 80 5.9496 80 4.92451V4.92451Z" fill="#493C3C"/>
<path id="point-0-1" d="M94.2212 6.27019C94.3229 5.73644 94.5322 5.22902 94.8363 4.77883C95.1404 4.32864 95.5329 3.94512 95.9899 3.65163C96.4469 3.35815 96.9588 3.16085 97.4945 3.07175C98.0301 2.98265 98.5783 3.00363 99.1056 3.1334C111.086 6.08185 122.223 11.7632 131.646 19.7334C141.068 27.7035 148.52 37.7464 153.42 49.0769C158.32 60.4074 160.535 72.7184 159.891 85.0474C159.247 97.3765 155.762 109.389 149.709 120.147C149.442 120.621 149.082 121.035 148.651 121.365C148.219 121.694 147.725 121.933 147.198 122.065C146.672 122.198 146.124 122.221 145.587 122.135C145.051 122.049 144.538 121.854 144.08 121.563C143.215 121.014 142.594 120.153 142.344 119.159C142.094 118.165 142.235 117.113 142.738 116.219C148.186 106.537 151.322 95.7258 151.902 84.6296C152.481 73.5335 150.488 62.4536 146.078 52.2562C141.668 42.0587 134.961 33.0201 126.481 25.847C118.001 18.6739 107.978 13.5606 97.1951 10.907C96.2003 10.6622 95.3373 10.0448 94.784 9.1821C94.2307 8.31939 94.0292 7.27713 94.2212 6.27019Z" fill="#58E1DB"/>
<path id="point-0-2" d="M144.08 121.562C144.539 121.853 144.933 122.235 145.24 122.684C145.546 123.132 145.758 123.639 145.862 124.172C145.967 124.705 145.962 125.254 145.847 125.785C145.733 126.316 145.511 126.819 145.197 127.261C136.071 140.103 123.361 149.964 108.659 155.609C93.9566 161.254 77.9167 162.431 62.5488 158.994C47.1809 155.556 33.1686 147.657 22.2676 136.286C11.3667 124.914 4.06197 110.576 1.26881 95.0686C1.17249 94.5338 1.18599 93.985 1.30849 93.4557C1.43099 92.9263 1.65991 92.4274 1.98132 91.9895C2.30272 91.5515 2.70988 91.1836 3.17798 90.9082C3.64608 90.6328 4.16532 90.4556 4.70405 90.3875C5.72039 90.2591 6.74726 90.5257 7.57296 91.1324C8.39865 91.7392 8.96025 92.6398 9.14196 93.6486C11.6558 107.605 18.23 120.51 28.0409 130.744C37.8518 140.978 50.4628 148.088 64.2939 151.181C78.125 154.275 92.561 153.215 105.793 148.135C119.025 143.055 130.464 134.18 138.677 122.622C139.271 121.787 140.162 121.211 141.167 121.014C142.173 120.817 143.215 121.013 144.08 121.562Z" fill="#7DBF90"/>
<path id="point-0-3" d="M4.7038 90.3875C4.16507 90.4556 3.61812 90.4132 3.09628 90.263C2.57444 90.1127 2.08864 89.8577 1.66849 89.5135C1.24833 89.1692 0.902611 88.743 0.652402 88.2608C0.402193 87.7785 0.252736 87.2503 0.213127 86.7084C-0.727843 73.8342 1.45641 60.9233 6.57965 49.0764C11.7029 37.2295 19.6131 26.798 29.636 18.6714C30.0579 18.3294 30.545 18.0768 31.0676 17.9292C31.5902 17.7816 32.1373 17.742 32.6757 17.8129C33.2141 17.8837 33.7324 18.0635 34.1991 18.3413C34.6658 18.6191 35.0711 18.989 35.3903 19.4286C35.9924 20.258 36.2536 21.2868 36.12 22.3032C35.9865 23.3195 35.4683 24.2459 34.6724 24.8912C25.6518 32.2051 18.5326 41.5934 13.9217 52.2557C9.31077 62.9179 7.34494 74.5377 8.19182 86.1245C8.26654 87.1468 7.94642 88.1589 7.29746 88.9521C6.64849 89.7453 5.72015 90.259 4.7038 90.3875Z" fill="#93A2BF"/>
<path id="point-0-4" d="M35.3902 19.4288C35.071 18.9892 34.8446 18.4892 34.7248 17.9592C34.605 17.4292 34.5943 16.8804 34.6934 16.3461C34.7924 15.8119 34.9991 15.3034 35.3009 14.8517C35.6027 14.3999 35.9932 14.0144 36.4487 13.7186C45.3662 7.92749 55.3477 3.97294 65.8099 2.08605C66.3443 1.98967 66.8927 2.00318 67.4217 2.12576C67.9508 2.24833 68.4493 2.47741 68.887 2.79903C69.3247 3.12065 69.6923 3.52807 69.9675 3.99648C70.2428 4.46488 70.4198 4.98447 70.4879 5.52355C70.6163 6.54057 70.3498 7.5681 69.7435 8.39435C69.1371 9.22059 68.2371 9.78255 67.2289 9.96438C57.8129 11.6626 48.8296 15.2217 40.8038 20.4337C39.9445 20.9917 38.904 21.1986 37.8968 21.0117C36.8895 20.8247 35.9924 20.2582 35.3902 19.4288Z" fill="#D6E3A2"/>
<path id="point-0-5" d="M70.4879 5.52335C70.4198 4.98426 70.4622 4.43695 70.6124 3.91477C70.7625 3.39259 71.0174 2.90647 71.3614 2.48604C71.7054 2.0656 72.1313 1.71966 72.6133 1.46929C73.0952 1.21891 73.623 1.06936 74.1646 1.02972C74.7059 0.990107 75.2475 0.956006 75.7895 0.927423C76.3318 0.898824 76.8742 0.981006 77.3837 1.16896C77.8932 1.35692 78.3591 1.64672 78.753 2.02069C79.147 2.39467 79.4607 2.84499 79.6751 3.34422C79.8895 3.84345 80 4.38113 80 4.92451C80 5.9496 79.607 6.93563 78.9019 7.67931C78.1969 8.42299 77.2336 8.86764 76.2106 8.92159C75.7228 8.94731 75.2353 8.97801 74.7481 9.01366C73.7264 9.08844 72.715 8.76811 71.9224 8.11871C71.1297 7.46932 70.6163 6.54036 70.4879 5.52335Z" fill="#FCFCF3"/>
</g>
</g>
</g>
<g id="Group 345">
<path id="La coeasione&#226;&#128;&#168;sociale" d="M222.38 73.1921V71.4421H218.432V63.8541H216.444V73.1921H222.38ZM229.472 73.1921V68.8241C229.472 66.8781 228.058 66.2621 226.518 66.2621C225.454 66.2621 224.39 66.5981 223.564 67.3261L224.236 68.5161C224.81 67.9841 225.482 67.7181 226.21 67.7181C227.106 67.7181 227.694 68.1661 227.694 68.8521V69.7901C227.246 69.2441 226.448 68.9641 225.552 68.9641C224.474 68.9641 223.2 69.5381 223.2 71.1201C223.2 72.6321 224.474 73.3601 225.552 73.3601C226.434 73.3601 227.232 73.0381 227.694 72.4921V73.1921H229.472ZM227.694 71.5681C227.4 71.9601 226.84 72.1561 226.266 72.1561C225.566 72.1561 224.992 71.7921 224.992 71.1621C224.992 70.5181 225.566 70.1401 226.266 70.1401C226.84 70.1401 227.4 70.3361 227.694 70.7281V71.5681ZM234.384 69.8041C234.384 71.8901 235.882 73.3601 237.968 73.3601C239.354 73.3601 240.194 72.7581 240.642 72.1281L239.48 71.0501C239.158 71.4981 238.668 71.7781 238.052 71.7781C236.974 71.7781 236.218 70.9801 236.218 69.8041C236.218 68.6281 236.974 67.8441 238.052 67.8441C238.668 67.8441 239.158 68.1101 239.48 68.5721L240.642 67.4941C240.194 66.8641 239.354 66.2621 237.968 66.2621C235.882 66.2621 234.384 67.7321 234.384 69.8041ZM244.94 73.3601C247.18 73.3601 248.524 71.7361 248.524 69.8041C248.524 67.8861 247.18 66.2621 244.94 66.2621C242.714 66.2621 241.37 67.8861 241.37 69.8041C241.37 71.7361 242.714 73.3601 244.94 73.3601ZM244.94 71.7781C243.834 71.7781 243.218 70.8681 243.218 69.8041C243.218 68.7541 243.834 67.8441 244.94 67.8441C246.046 67.8441 246.676 68.7541 246.676 69.8041C246.676 70.8681 246.046 71.7781 244.94 71.7781ZM249.409 69.8041C249.409 71.9741 250.963 73.3601 253.021 73.3601C254.071 73.3601 255.121 73.0521 255.807 72.4221L255.023 71.2741C254.589 71.6941 253.847 71.9461 253.217 71.9461C252.069 71.9461 251.383 71.2321 251.271 70.3781H256.297V69.9861C256.297 67.7741 254.925 66.2621 252.909 66.2621C250.851 66.2621 249.409 67.8441 249.409 69.8041ZM252.909 67.6761C254.085 67.6761 254.533 68.5301 254.575 69.1741H251.243C251.327 68.5021 251.803 67.6761 252.909 67.6761ZM263.42 73.1921V68.8241C263.42 66.8781 262.006 66.2621 260.466 66.2621C259.402 66.2621 258.338 66.5981 257.512 67.3261L258.184 68.5161C258.758 67.9841 259.43 67.7181 260.158 67.7181C261.054 67.7181 261.642 68.1661 261.642 68.8521V69.7901C261.194 69.2441 260.396 68.9641 259.5 68.9641C258.422 68.9641 257.148 69.5381 257.148 71.1201C257.148 72.6321 258.422 73.3601 259.5 73.3601C260.382 73.3601 261.18 73.0381 261.642 72.4921V73.1921H263.42ZM261.642 71.5681C261.348 71.9601 260.788 72.1561 260.214 72.1561C259.514 72.1561 258.94 71.7921 258.94 71.1621C258.94 70.5181 259.514 70.1401 260.214 70.1401C260.788 70.1401 261.348 70.3361 261.642 70.7281V71.5681ZM264.595 72.3101C265.309 72.9681 266.443 73.3601 267.619 73.3601C269.495 73.3601 270.545 72.4361 270.545 71.1901C270.545 69.5101 268.991 69.2021 267.829 68.9781C267.073 68.8241 266.541 68.6701 266.541 68.2501C266.541 67.8581 266.961 67.6201 267.605 67.6201C268.431 67.6201 269.201 67.9701 269.607 68.4041L270.307 67.1861C269.649 66.6541 268.739 66.2621 267.591 66.2621C265.813 66.2621 264.819 67.2561 264.819 68.3901C264.819 70.0001 266.317 70.2801 267.479 70.5041C268.249 70.6581 268.837 70.8261 268.837 71.3021C268.837 71.7221 268.473 71.9881 267.703 71.9881C266.863 71.9881 265.855 71.5261 265.365 71.0641L264.595 72.3101ZM272.737 65.4361C273.325 65.4361 273.801 64.9601 273.801 64.3721C273.801 63.7841 273.325 63.3081 272.737 63.3081C272.163 63.3081 271.673 63.7841 271.673 64.3721C271.673 64.9601 272.163 65.4361 272.737 65.4361ZM273.633 73.1921V66.4301H271.855V73.1921H273.633ZM278.532 73.3601C280.772 73.3601 282.116 71.7361 282.116 69.8041C282.116 67.8861 280.772 66.2621 278.532 66.2621C276.306 66.2621 274.962 67.8861 274.962 69.8041C274.962 71.7361 276.306 73.3601 278.532 73.3601ZM278.532 71.7781C277.426 71.7781 276.81 70.8681 276.81 69.8041C276.81 68.7541 277.426 67.8441 278.532 67.8441C279.638 67.8441 280.268 68.7541 280.268 69.8041C280.268 70.8681 279.638 71.7781 278.532 71.7781ZM289.777 73.1921V68.4181C289.777 67.1021 289.063 66.2621 287.579 66.2621C286.473 66.2621 285.647 66.7941 285.213 67.3121V66.4301H283.435V73.1921H285.213V68.6421C285.507 68.2361 286.053 67.8441 286.753 67.8441C287.509 67.8441 287.999 68.1661 287.999 69.1041V73.1921H289.777ZM291.109 69.8041C291.109 71.9741 292.663 73.3601 294.721 73.3601C295.771 73.3601 296.821 73.0521 297.507 72.4221L296.723 71.2741C296.289 71.6941 295.547 71.9461 294.917 71.9461C293.769 71.9461 293.083 71.2321 292.971 70.3781H297.997V69.9861C297.997 67.7741 296.625 66.2621 294.609 66.2621C292.551 66.2621 291.109 67.8441 291.109 69.8041ZM294.609 67.6761C295.785 67.6761 296.233 68.5301 296.275 69.1741H292.943C293.027 68.5021 293.503 67.6761 294.609 67.6761ZM235.194 88.3101C235.908 88.9681 237.042 89.3601 238.218 89.3601C240.094 89.3601 241.144 88.4361 241.144 87.1901C241.144 85.5101 239.59 85.2021 238.428 84.9781C237.672 84.8241 237.14 84.6701 237.14 84.2501C237.14 83.8581 237.56 83.6201 238.204 83.6201C239.03 83.6201 239.8 83.9701 240.206 84.4041L240.906 83.1861C240.248 82.6541 239.338 82.2621 238.19 82.2621C236.412 82.2621 235.418 83.2561 235.418 84.3901C235.418 86.0001 236.916 86.2801 238.078 86.5041C238.848 86.6581 239.436 86.8261 239.436 87.3021C239.436 87.7221 239.072 87.9881 238.302 87.9881C237.462 87.9881 236.454 87.5261 235.964 87.0641L235.194 88.3101ZM245.59 89.3601C247.83 89.3601 249.174 87.7361 249.174 85.8041C249.174 83.8861 247.83 82.2621 245.59 82.2621C243.364 82.2621 242.02 83.8861 242.02 85.8041C242.02 87.7361 243.364 89.3601 245.59 89.3601ZM245.59 87.7781C244.484 87.7781 243.868 86.8681 243.868 85.8041C243.868 84.7541 244.484 83.8441 245.59 83.8441C246.696 83.8441 247.326 84.7541 247.326 85.8041C247.326 86.8681 246.696 87.7781 245.59 87.7781ZM250.059 85.8041C250.059 87.8901 251.557 89.3601 253.643 89.3601C255.029 89.3601 255.869 88.7581 256.317 88.1281L255.155 87.0501C254.833 87.4981 254.343 87.7781 253.727 87.7781C252.649 87.7781 251.893 86.9801 251.893 85.8041C251.893 84.6281 252.649 83.8441 253.727 83.8441C254.343 83.8441 254.833 84.1101 255.155 84.5721L256.317 83.4941C255.869 82.8641 255.029 82.2621 253.643 82.2621C251.557 82.2621 250.059 83.7321 250.059 85.8041ZM258.361 81.4361C258.949 81.4361 259.425 80.9601 259.425 80.3721C259.425 79.7841 258.949 79.3081 258.361 79.3081C257.787 79.3081 257.297 79.7841 257.297 80.3721C257.297 80.9601 257.787 81.4361 258.361 81.4361ZM259.257 89.1921V82.4301H257.479V89.1921H259.257ZM266.858 89.1921V84.8241C266.858 82.8781 265.444 82.2621 263.904 82.2621C262.84 82.2621 261.776 82.5981 260.95 83.3261L261.622 84.5161C262.196 83.9841 262.868 83.7181 263.596 83.7181C264.492 83.7181 265.08 84.1661 265.08 84.8521V85.7901C264.632 85.2441 263.834 84.9641 262.938 84.9641C261.86 84.9641 260.586 85.5381 260.586 87.1201C260.586 88.6321 261.86 89.3601 262.938 89.3601C263.82 89.3601 264.618 89.0381 265.08 88.4921V89.1921H266.858ZM265.08 87.5681C264.786 87.9601 264.226 88.1561 263.652 88.1561C262.952 88.1561 262.378 87.7921 262.378 87.1621C262.378 86.5181 262.952 86.1401 263.652 86.1401C264.226 86.1401 264.786 86.3361 265.08 86.7281V87.5681ZM270.4 89.1921V79.8541H268.622V89.1921H270.4ZM271.729 85.8041C271.729 87.9741 273.283 89.3601 275.341 89.3601C276.391 89.3601 277.441 89.0521 278.127 88.4221L277.343 87.2741C276.909 87.6941 276.167 87.9461 275.537 87.9461C274.389 87.9461 273.703 87.2321 273.591 86.3781H278.617V85.9861C278.617 83.7741 277.245 82.2621 275.229 82.2621C273.171 82.2621 271.729 83.8441 271.729 85.8041ZM275.229 83.6761C276.405 83.6761 276.853 84.5301 276.895 85.1741H273.563C273.647 84.5021 274.123 83.6761 275.229 83.6761Z" fill="#FCFCF3"/>
<g id="data-points_2">
<g id="Group_2">
<path id="point-0-0_2" d="M256.947 4.92451C256.947 4.38113 257.058 3.84345 257.272 3.34422C257.487 2.84499 257.801 2.39467 258.195 2.0207C258.589 1.64672 259.056 1.35692 259.565 1.16896C260.075 0.981006 260.618 0.898824 261.161 0.927423C266.731 1.221 272.255 2.09597 277.644 3.53806C278.168 3.67854 278.659 3.92443 279.086 4.26073C279.513 4.59704 279.867 5.01672 280.126 5.49421C280.385 5.97169 280.545 6.49699 280.595 7.03808C280.644 7.57917 280.583 8.12472 280.415 8.6415C280.099 9.61643 279.42 10.4327 278.519 10.9219C277.618 11.4112 276.564 11.5362 275.574 11.2712C270.724 9.97329 265.753 9.18581 260.739 8.92159C259.716 8.86764 258.752 8.42299 258.046 7.67931C257.341 6.93563 256.947 5.9496 256.947 4.92451V4.92451Z" fill="#493C3C"/>
<path id="point-0-1_2" d="M280.416 8.64136C280.583 8.12459 280.855 7.64741 281.213 7.23891C281.571 6.8304 282.009 6.49913 282.5 6.26527C282.99 6.03142 283.523 5.89987 284.066 5.87866C284.609 5.85745 285.151 5.94701 285.658 6.14189C296.39 10.2653 306.108 16.652 314.151 24.8676C322.194 33.0831 328.373 42.9347 332.267 53.7521C336.162 64.5695 337.681 76.0989 336.72 87.5558C335.76 99.0128 332.343 110.128 326.702 120.147C326.435 120.62 326.075 121.034 325.643 121.364C325.211 121.694 324.717 121.932 324.19 122.065C323.663 122.197 323.115 122.221 322.578 122.134C322.042 122.048 321.528 121.853 321.07 121.562C320.204 121.013 319.582 120.153 319.332 119.158C319.082 118.164 319.224 117.112 319.727 116.219C324.803 107.202 327.879 97.1984 328.743 86.8872C329.607 76.5759 328.24 66.1995 324.735 56.4638C321.23 46.7282 315.669 37.8617 308.431 30.4677C301.192 23.0737 292.446 17.3256 282.787 13.6146C281.83 13.247 281.05 12.5262 280.609 11.6009C280.168 10.6756 280.099 9.61629 280.416 8.64136Z" fill="#58E1DB"/>
<path id="point-0-2_2" d="M321.07 121.562C321.528 121.853 321.923 122.235 322.23 122.684C322.536 123.132 322.748 123.639 322.853 124.172C322.957 124.705 322.952 125.254 322.838 125.785C322.723 126.316 322.502 126.819 322.187 127.261C312.558 140.802 298.954 151.011 283.263 156.473C267.571 161.935 250.569 162.379 234.613 157.743C218.658 153.108 204.54 143.622 194.218 130.603C183.896 117.583 177.88 101.674 177.006 85.0823C176.977 84.5397 177.059 83.9969 177.247 83.4871C177.435 82.9773 177.725 82.5111 178.099 82.1169C178.473 81.7226 178.923 81.4087 179.422 81.1942C179.922 80.9797 180.459 80.869 181.003 80.869V80.869C182.028 80.869 183.014 81.2623 183.757 81.9678C184.501 82.6734 184.946 83.6373 185 84.661C185.787 99.5939 191.201 113.912 200.491 125.629C209.781 137.347 222.487 145.884 236.847 150.056C251.207 154.228 266.509 153.828 280.631 148.912C294.754 143.997 306.997 134.809 315.663 122.622C316.257 121.787 317.149 121.211 318.155 121.014C319.161 120.817 320.204 121.013 321.07 121.562Z" fill="#7DBF90"/>
<path id="point-0-3_2" d="M181.003 80.8694C180.459 80.8694 179.922 80.7587 179.422 80.5442C178.923 80.3297 178.473 80.0157 178.099 79.6215C177.725 79.2273 177.435 78.7611 177.247 78.2513C177.059 77.7415 176.977 77.1987 177.006 76.6561C177.834 60.9325 183.281 45.8024 192.665 33.159C192.989 32.7227 193.399 32.3568 193.868 32.0838C194.338 31.8108 194.859 31.6363 195.398 31.5709C195.938 31.5056 196.485 31.5507 197.006 31.7037C197.527 31.8566 198.012 32.1141 198.431 32.4604C199.221 33.1138 199.73 34.0454 199.853 35.0631C199.976 36.0807 199.705 37.1069 199.094 37.93C190.648 49.3091 185.746 62.9262 185 77.0774C184.946 78.1011 184.501 79.065 183.757 79.7705C183.014 80.4761 182.028 80.8694 181.003 80.8694Z" fill="#93A2BF"/>
<path id="point-0-4_2" d="M198.431 32.4607C198.012 32.1144 197.668 31.6864 197.421 31.2029C197.173 30.7193 197.026 30.1904 196.989 29.6483C196.952 29.1062 197.026 28.5622 197.206 28.0496C197.386 27.5369 197.669 27.0663 198.037 26.6665C208.698 15.0795 222.539 6.89373 237.829 3.1334C238.357 3.00363 238.905 2.98265 239.441 3.07175C239.977 3.16085 240.49 3.35815 240.947 3.65163C241.404 3.94512 241.797 4.32864 242.101 4.77883C242.405 5.22902 242.615 5.73645 242.717 6.27019C242.909 7.27713 242.707 8.31939 242.154 9.1821C241.6 10.0448 240.736 10.6622 239.741 10.907C225.98 14.2913 213.523 21.6585 203.928 32.0868C203.234 32.8412 202.277 33.3005 201.254 33.37C200.231 33.4396 199.221 33.1141 198.431 32.4607Z" fill="#D6E3A2"/>
<path id="point-0-5_2" d="M242.717 6.2697C242.615 5.73595 242.623 5.18706 242.74 4.65647C242.857 4.12588 243.081 3.62471 243.398 3.1835C243.715 2.74228 244.119 2.37025 244.585 2.09009C245.05 1.80993 245.568 1.6275 246.106 1.55391C248.306 1.25327 250.517 1.04427 252.734 0.927423C253.277 0.898824 253.819 0.981006 254.329 1.16896C254.839 1.35692 255.305 1.64672 255.699 2.0207C256.094 2.39467 256.408 2.84499 256.622 3.34422C256.837 3.84345 256.947 4.38114 256.947 4.92451C256.947 5.9496 256.554 6.93563 255.848 7.67931C255.143 8.42299 254.179 8.86764 253.155 8.92159C251.16 9.02675 249.17 9.21486 247.19 9.48544C246.175 9.62426 245.145 9.36811 244.312 8.7698C243.48 8.1715 242.909 7.27664 242.717 6.2697Z" fill="#FCFCF3"/>
</g>
</g>
</g>
</g>
</svg>
