<svg width="392" height="387" viewBox="0 0 392 387" fill="none" xmlns="http://www.w3.org/2000/svg">
<g id="Group 336">
<rect id="Rectangle 122" width="1" height="387" rx="0.5" fill="#24262F"/>
<rect id="Rectangle 123" x="391" width="1" height="387" rx="0.5" fill="#24262F"/>
<path id="Et&#195;&#160; dei partecipanti" d="M17.928 12.8V24H25.384V22.08H20.04V19.312H24.84V17.392H20.04V14.72H25.288V12.8H17.928ZM25.8921 17.696H27.8761V22.208C27.8761 23.296 28.5801 24 29.6361 24H31.8761V22.368H30.3401C30.0521 22.368 29.8921 22.208 29.8921 21.888V17.696H32.0681V16.064H29.8921V13.6H27.8761V16.064H25.8921V17.696ZM37.2356 12.8H34.9636L36.3716 14.88H38.0996L37.2356 12.8ZM33.3156 18.08L35.1716 18.704C35.3156 17.984 35.7956 17.44 36.8036 17.44C37.8276 17.44 38.2756 18.016 38.2756 18.752V19.2H36.0996C34.3076 19.2 33.0276 20.048 33.0276 21.68C33.0276 23.312 34.3076 24.224 35.9396 24.224C37.4116 24.224 37.9396 23.424 38.0836 23.072H38.3076V24H40.2276V18.896C40.2276 16.912 38.9156 15.84 36.8356 15.84C34.7716 15.84 33.6996 16.88 33.3156 18.08ZM35.0436 21.632C35.0436 21.088 35.4916 20.704 36.2436 20.704H38.2756V20.832C38.2756 21.888 37.4756 22.592 36.3556 22.592C35.4916 22.592 35.0436 22.192 35.0436 21.632ZM54.1118 12.8H52.0958V17.088H51.9358C51.4878 16.448 50.7198 15.84 49.3438 15.84C47.4557 15.84 45.7598 17.44 45.7598 20.032C45.7598 22.624 47.4557 24.224 49.3438 24.224C50.7198 24.224 51.4878 23.616 51.9678 22.928H52.1278V24H54.1118V12.8ZM49.9518 17.568C51.1998 17.568 52.1278 18.464 52.1278 20.032C52.1278 21.6 51.1998 22.496 49.9518 22.496C48.7038 22.496 47.7758 21.6 47.7758 20.032C47.7758 18.464 48.7038 17.568 49.9518 17.568ZM55.416 20.032C55.416 22.56 57.064 24.224 59.432 24.224C61.608 24.224 62.552 22.992 63 22.144L61.352 21.28C61.08 21.888 60.616 22.496 59.496 22.496C58.376 22.496 57.528 21.712 57.48 20.624H63.256V19.936C63.256 17.504 61.736 15.84 59.4 15.84C57.064 15.84 55.416 17.504 55.416 20.032ZM57.496 19.12C57.624 18.24 58.296 17.568 59.384 17.568C60.424 17.568 61.112 18.208 61.208 19.12H57.496ZM64.0894 13.76C64.0894 14.576 64.7134 15.136 65.5134 15.136C66.3134 15.136 66.9374 14.576 66.9374 13.76C66.9374 12.944 66.3134 12.384 65.5134 12.384C64.7134 12.384 64.0894 12.944 64.0894 13.76ZM66.5214 16.064H64.5054V24H66.5214V16.064ZM72.6148 27.2H74.6308V22.976H74.7908C75.2388 23.616 76.0068 24.224 77.3828 24.224C79.2708 24.224 80.9668 22.624 80.9668 20.032C80.9668 17.44 79.2708 15.84 77.3828 15.84C76.0068 15.84 75.2388 16.448 74.7588 17.136H74.5988V16.064H72.6148V27.2ZM76.7748 22.496C75.5268 22.496 74.5988 21.6 74.5988 20.032C74.5988 18.464 75.5268 17.568 76.7748 17.568C78.0228 17.568 78.9508 18.464 78.9508 20.032C78.9508 21.6 78.0228 22.496 76.7748 22.496ZM82.175 18.08L84.031 18.704C84.175 17.984 84.655 17.44 85.663 17.44C86.687 17.44 87.135 18.016 87.135 18.752V19.2H84.959C83.167 19.2 81.887 20.048 81.887 21.68C81.887 23.312 83.167 24.224 84.799 24.224C86.271 24.224 86.799 23.424 86.943 23.072H87.167V24H89.087V18.896C89.087 16.912 87.775 15.84 85.695 15.84C83.631 15.84 82.559 16.88 82.175 18.08ZM83.903 21.632C83.903 21.088 84.351 20.704 85.103 20.704H87.135V20.832C87.135 21.888 86.335 22.592 85.215 22.592C84.351 22.592 83.903 22.192 83.903 21.632ZM92.7706 16.064H90.7866V24H92.8026V19.392C92.8026 18.272 93.5386 17.728 94.5626 17.728H95.7466V16.032H94.9146C93.9066 16.032 93.2346 16.336 92.9306 17.184H92.7706V16.064ZM96.1734 17.696H98.1574V22.208C98.1574 23.296 98.8614 24 99.9174 24H102.157V22.368H100.621C100.333 22.368 100.173 22.208 100.173 21.888V17.696H102.349V16.064H100.173V13.6H98.1574V16.064H96.1734V17.696ZM103.057 20.032C103.057 22.56 104.705 24.224 107.073 24.224C109.249 24.224 110.193 22.992 110.641 22.144L108.993 21.28C108.721 21.888 108.257 22.496 107.137 22.496C106.017 22.496 105.169 21.712 105.121 20.624H110.897V19.936C110.897 17.504 109.377 15.84 107.041 15.84C104.705 15.84 103.057 17.504 103.057 20.032ZM105.137 19.12C105.265 18.24 105.937 17.568 107.025 17.568C108.065 17.568 108.753 18.208 108.849 19.12H105.137ZM111.666 20.032C111.666 22.496 113.49 24.224 115.794 24.224C118.018 24.224 119.314 22.928 119.762 21.184L117.81 20.72C117.634 21.744 117.042 22.464 115.826 22.464C114.61 22.464 113.682 21.568 113.682 20.032C113.682 18.496 114.61 17.6 115.826 17.6C117.042 17.6 117.634 18.368 117.746 19.328L119.698 18.912C119.346 17.136 118.002 15.84 115.794 15.84C113.49 15.84 111.666 17.568 111.666 20.032ZM120.589 13.76C120.589 14.576 121.213 15.136 122.013 15.136C122.813 15.136 123.437 14.576 123.437 13.76C123.437 12.944 122.813 12.384 122.013 12.384C121.213 12.384 120.589 12.944 120.589 13.76ZM123.021 16.064H121.005V24H123.021V16.064ZM124.818 27.2H126.834V22.976H126.994C127.442 23.616 128.21 24.224 129.586 24.224C131.474 24.224 133.17 22.624 133.17 20.032C133.17 17.44 131.474 15.84 129.586 15.84C128.21 15.84 127.442 16.448 126.962 17.136H126.802V16.064H124.818V27.2ZM128.978 22.496C127.73 22.496 126.802 21.6 126.802 20.032C126.802 18.464 127.73 17.568 128.978 17.568C130.226 17.568 131.154 18.464 131.154 20.032C131.154 21.6 130.226 22.496 128.978 22.496ZM134.378 18.08L136.234 18.704C136.378 17.984 136.858 17.44 137.866 17.44C138.89 17.44 139.338 18.016 139.338 18.752V19.2H137.162C135.37 19.2 134.09 20.048 134.09 21.68C134.09 23.312 135.37 24.224 137.002 24.224C138.474 24.224 139.002 23.424 139.146 23.072H139.37V24H141.29V18.896C141.29 16.912 139.978 15.84 137.898 15.84C135.834 15.84 134.762 16.88 134.378 18.08ZM136.106 21.632C136.106 21.088 136.554 20.704 137.306 20.704H139.338V20.832C139.338 21.888 138.538 22.592 137.418 22.592C136.554 22.592 136.106 22.192 136.106 21.632ZM142.99 16.064V24H145.006V19.904C145.006 18.432 145.726 17.568 146.958 17.568C148.046 17.568 148.654 18.16 148.654 19.36V24H150.67V19.264C150.67 17.296 149.438 15.936 147.582 15.936C146.126 15.936 145.454 16.576 145.134 17.248H144.974V16.064H142.99ZM151.377 17.696H153.361V22.208C153.361 23.296 154.065 24 155.121 24H157.361V22.368H155.825C155.536 22.368 155.377 22.208 155.377 21.888V17.696H157.553V16.064H155.377V13.6H153.361V16.064H151.377V17.696ZM158.48 13.76C158.48 14.576 159.104 15.136 159.904 15.136C160.704 15.136 161.328 14.576 161.328 13.76C161.328 12.944 160.704 12.384 159.904 12.384C159.104 12.384 158.48 12.944 158.48 13.76ZM160.912 16.064H158.896V24H160.912V16.064Z" fill="#24262F"/>
<rect id="Rectangle 148" x="9" y="43" width="374" height="1" rx="0.5" fill="#24262F"/>
<rect id="Rectangle 149" x="9" y="92" width="374" height="1" rx="0.5" fill="#24262F"/>
<rect id="Rectangle 150" x="9" y="141" width="374" height="1" rx="0.5" fill="#24262F"/>
<rect id="Rectangle 151" x="9" y="190" width="374" height="1" rx="0.5" fill="#24262F"/>
<rect id="Rectangle 152" x="9" y="239" width="374" height="1" rx="0.5" fill="#24262F"/>
<rect id="Rectangle 153" x="9" y="288" width="374" height="1" rx="0.5" fill="#24262F"/>
<rect id="Rectangle 154" x="9" y="386" width="374" height="1" rx="0.5" fill="#24262F"/>
<rect id="Rectangle 157" x="9" y="337" width="374" height="1" rx="0.5" fill="#24262F"/>
<path id="+65" d="M18.414 66.4V67.8H20.612V70.026H22.068V67.8H24.266V66.4H22.068V64.174H20.612V66.4H18.414ZM33.3256 68.78C33.3256 66.89 31.9816 65.546 30.2036 65.546C28.8456 65.546 28.2436 66.176 27.9916 66.582H27.8236V65.378C27.8236 64.146 28.5516 63.446 29.8256 63.446C31.0156 63.446 31.6036 64.132 31.6036 65.084H33.2416C33.2416 63.208 31.8836 62.004 29.8256 62.004C27.7256 62.004 26.1996 63.236 26.1996 65.49V68.906C26.1996 70.852 27.7256 72.21 29.7416 72.182C31.8276 72.168 33.3256 70.81 33.3256 68.78ZM29.7696 66.82C30.9316 66.82 31.7156 67.59 31.7156 68.78C31.7156 69.97 30.9036 70.74 29.7696 70.74C28.6356 70.74 27.8236 69.998 27.8236 68.78C27.8236 67.59 28.6076 66.82 29.7696 66.82ZM34.435 62.2V67.576H36.591C36.773 67.226 37.165 66.764 38.005 66.764C39.013 66.764 39.713 67.464 39.713 68.626C39.713 69.928 38.957 70.754 37.711 70.754C36.451 70.754 35.709 69.97 35.709 68.71V68.528H34.099V68.822C34.099 70.866 35.583 72.196 37.753 72.196C39.909 72.196 41.337 70.726 41.337 68.556C41.337 66.582 39.979 65.392 38.411 65.392C37.053 65.392 36.479 66.092 36.213 66.526H36.045V63.67H41.015V62.2H34.435Z" fill="#24262F"/>
<path id="55 &#226;&#134;&#146; 64" d="M17.728 111.2V116.576H19.884C20.066 116.226 20.458 115.764 21.298 115.764C22.306 115.764 23.006 116.464 23.006 117.626C23.006 118.928 22.25 119.754 21.004 119.754C19.744 119.754 19.002 118.97 19.002 117.71V117.528H17.392V117.822C17.392 119.866 18.876 121.196 21.046 121.196C23.202 121.196 24.63 119.726 24.63 117.556C24.63 115.582 23.272 114.392 21.704 114.392C20.346 114.392 19.772 115.092 19.506 115.526H19.338V112.67H24.308V111.2H17.728ZM25.726 111.2V116.576H27.882C28.064 116.226 28.456 115.764 29.296 115.764C30.304 115.764 31.004 116.464 31.004 117.626C31.004 118.928 30.248 119.754 29.002 119.754C27.742 119.754 27 118.97 27 117.71V117.528H25.39V117.822C25.39 119.866 26.874 121.196 29.044 121.196C31.2 121.196 32.628 119.726 32.628 117.556C32.628 115.582 31.27 114.392 29.702 114.392C28.344 114.392 27.77 115.092 27.504 115.526H27.336V112.67H32.306V111.2H25.726ZM44.2129 113.58L43.1769 114.602L44.8849 116.31L45.3469 116.618L45.3049 116.744L44.7449 116.688H37.6609V118.186H44.7449L45.3049 118.13L45.3469 118.256L44.8849 118.564L43.1769 120.272L44.2129 121.308L47.4609 118.06V116.814L44.2129 113.58ZM59.767 117.78C59.767 115.89 58.423 114.546 56.645 114.546C55.287 114.546 54.685 115.176 54.433 115.582H54.265V114.378C54.265 113.146 54.993 112.446 56.267 112.446C57.457 112.446 58.045 113.132 58.045 114.084H59.683C59.683 112.208 58.325 111.004 56.267 111.004C54.167 111.004 52.641 112.236 52.641 114.49V117.906C52.641 119.852 54.167 121.21 56.183 121.182C58.269 121.168 59.767 119.81 59.767 117.78ZM56.211 115.82C57.373 115.82 58.157 116.59 58.157 117.78C58.157 118.97 57.345 119.74 56.211 119.74C55.077 119.74 54.265 118.998 54.265 117.78C54.265 116.59 55.049 115.82 56.211 115.82ZM64.3204 111.2L60.2744 117.64V119.054H65.2444V121H66.8684V119.054H68.4924V117.584H66.8684V111.2H64.3204ZM65.0764 112.614H65.2444V117.584H61.9684L65.0764 112.614Z" fill="#24262F"/>
<path id="45 &#226;&#134;&#146; 54" d="M21.172 160.2L17.126 166.64V168.054H22.096V170H23.72V168.054H25.344V166.584H23.72V160.2H21.172ZM21.928 161.614H22.096V166.584H18.82L21.928 161.614ZM26.1635 160.2V165.576H28.3195C28.5015 165.226 28.8935 164.764 29.7335 164.764C30.7415 164.764 31.4415 165.464 31.4415 166.626C31.4415 167.928 30.6855 168.754 29.4395 168.754C28.1795 168.754 27.4375 167.97 27.4375 166.71V166.528H25.8275V166.822C25.8275 168.866 27.3115 170.196 29.4815 170.196C31.6375 170.196 33.0655 168.726 33.0655 166.556C33.0655 164.582 31.7075 163.392 30.1395 163.392C28.7815 163.392 28.2075 164.092 27.9415 164.526H27.7735V161.67H32.7435V160.2H26.1635ZM44.6504 162.58L43.6144 163.602L45.3224 165.31L45.7844 165.618L45.7424 165.744L45.1824 165.688H38.0984V167.186H45.1824L45.7424 167.13L45.7844 167.256L45.3224 167.564L43.6144 169.272L44.6504 170.308L47.8984 167.06V165.814L44.6504 162.58ZM53.2885 160.2V165.576H55.4445C55.6265 165.226 56.0185 164.764 56.8585 164.764C57.8665 164.764 58.5665 165.464 58.5665 166.626C58.5665 167.928 57.8105 168.754 56.5645 168.754C55.3045 168.754 54.5625 167.97 54.5625 166.71V166.528H52.9525V166.822C52.9525 168.866 54.4365 170.196 56.6065 170.196C58.7625 170.196 60.1905 168.726 60.1905 166.556C60.1905 164.582 58.8325 163.392 57.2645 163.392C55.9065 163.392 55.3325 164.092 55.0665 164.526H54.8985V161.67H59.8685V160.2H53.2885ZM64.7306 160.2L60.6846 166.64V168.054H65.6546V170H67.2786V168.054H68.9026V166.584H67.2786V160.2H64.7306ZM65.4866 161.614H65.6546V166.584H62.3786L65.4866 161.614Z" fill="#24262F"/>
<path id="35 &#226;&#134;&#146; 44" d="M17.602 209.2V210.67H22.278L19.618 212.896V214.366H21.214C22.25 214.366 23.02 214.884 23.02 215.962C23.02 216.984 22.278 217.754 21.032 217.754C19.702 217.754 18.946 216.956 18.946 215.822V215.444H17.336V215.864C17.336 217.852 18.75 219.196 21.032 219.196C23.146 219.196 24.644 217.908 24.644 215.962C24.644 214.156 23.398 213.176 21.928 213.176H21.578V213.022L24.476 210.628V209.2H17.602ZM25.7671 209.2V214.576H27.9231C28.1051 214.226 28.4971 213.764 29.3371 213.764C30.3451 213.764 31.0451 214.464 31.0451 215.626C31.0451 216.928 30.2891 217.754 29.0431 217.754C27.7831 217.754 27.0411 216.97 27.0411 215.71V215.528H25.4311V215.822C25.4311 217.866 26.9151 219.196 29.0851 219.196C31.2411 219.196 32.6691 217.726 32.6691 215.556C32.6691 213.582 31.3111 212.392 29.7431 212.392C28.3851 212.392 27.8111 213.092 27.5451 213.526H27.3771V210.67H32.3471V209.2H25.7671ZM44.254 211.58L43.218 212.602L44.926 214.31L45.388 214.618L45.346 214.744L44.786 214.688H37.702V216.186H44.786L45.346 216.13L45.388 216.256L44.926 216.564L43.218 218.272L44.254 219.308L47.502 216.06V214.814L44.254 211.58ZM56.3361 209.2L52.2901 215.64V217.054H57.2601V219H58.8841V217.054H60.5081V215.584H58.8841V209.2H56.3361ZM57.0921 210.614H57.2601V215.584H53.9841L57.0921 210.614ZM64.7716 209.2L60.7256 215.64V217.054H65.6956V219H67.3196V217.054H68.9436V215.584H67.3196V209.2H64.7716ZM65.5276 210.614H65.6956V215.584H62.4196L65.5276 210.614Z" fill="#24262F"/>
<path id="25 &#226;&#134;&#146; 34" d="M17.476 261.448V261.784H19.086V261.476C19.086 260.104 19.996 259.446 21.13 259.446C22.236 259.446 22.978 260.09 22.978 261.182C22.978 262.386 22.11 262.918 20.626 263.31C18.778 263.786 17.49 264.626 17.49 266.474V268H24.56V266.53H19.114V266.334C19.114 265.242 19.926 264.934 21.396 264.556C23.44 264.038 24.602 263.128 24.602 261.224C24.602 259.236 23.02 258.004 21.102 258.004C19.128 258.004 17.476 259.194 17.476 261.448ZM25.603 258.2V263.576H27.759C27.941 263.226 28.333 262.764 29.173 262.764C30.181 262.764 30.881 263.464 30.881 264.626C30.881 265.928 30.125 266.754 28.879 266.754C27.619 266.754 26.877 265.97 26.877 264.71V264.528H25.267V264.822C25.267 266.866 26.751 268.196 28.921 268.196C31.077 268.196 32.505 266.726 32.505 264.556C32.505 262.582 31.147 261.392 29.579 261.392C28.221 261.392 27.647 262.092 27.381 262.526H27.213V259.67H32.183V258.2H25.603ZM44.0899 260.58L43.0539 261.602L44.7619 263.31L45.2239 263.618L45.1819 263.744L44.6219 263.688H37.5379V265.186H44.6219L45.1819 265.13L45.2239 265.256L44.7619 265.564L43.0539 267.272L44.0899 268.308L47.3379 265.06V263.814L44.0899 260.58ZM52.602 258.2V259.67H57.278L54.618 261.896V263.366H56.214C57.25 263.366 58.02 263.884 58.02 264.962C58.02 265.984 57.278 266.754 56.032 266.754C54.702 266.754 53.946 265.956 53.946 264.822V264.444H52.336V264.864C52.336 266.852 53.75 268.196 56.032 268.196C58.146 268.196 59.644 266.908 59.644 264.962C59.644 263.156 58.398 262.176 56.928 262.176H56.578V262.022L59.476 259.628V258.2H52.602ZM64.2111 258.2L60.1651 264.64V266.054H65.1351V268H66.7591V266.054H68.3831V264.584H66.7591V258.2H64.2111ZM64.9671 259.614H65.1351V264.584H61.8591L64.9671 259.614Z" fill="#24262F"/>
<path id="18 &#226;&#134;&#146; 24" d="M19.618 307.2L17.028 311.568H18.75L20.304 308.922H20.472V317H22.096V307.2H19.618ZM23.5066 309.664C23.5066 310.882 24.3046 311.526 25.1166 311.862V312.03C24.3186 312.24 23.3526 312.996 23.3526 314.368C23.3526 316.062 24.8646 317.196 26.9786 317.196C29.0926 317.196 30.6046 316.062 30.6046 314.368C30.6046 312.996 29.6386 312.24 28.8266 312.03V311.862C29.6386 311.526 30.4506 310.882 30.4506 309.664C30.4506 308.124 29.0506 307.004 26.9786 307.004C24.8926 307.004 23.5066 308.124 23.5066 309.664ZM25.1166 309.846C25.1166 308.964 25.8866 308.446 26.9786 308.446C28.0566 308.446 28.8266 308.964 28.8266 309.846C28.8266 310.728 28.0566 311.246 26.9786 311.246C25.8866 311.246 25.1166 310.728 25.1166 309.846ZM24.9626 314.214C24.9626 313.276 25.7186 312.688 26.9786 312.688C28.2386 312.688 28.9806 313.276 28.9806 314.214C28.9806 315.166 28.2386 315.754 26.9786 315.754C25.7186 315.754 24.9626 315.166 24.9626 314.214ZM42.1895 309.58L41.1535 310.602L42.8615 312.31L43.3235 312.618L43.2815 312.744L42.7215 312.688H35.6375V314.186H42.7215L43.2815 314.13L43.3235 314.256L42.8615 314.564L41.1535 316.272L42.1895 317.308L45.4375 314.06V312.814L42.1895 309.58ZM50.5756 310.448V310.784H52.1856V310.476C52.1856 309.104 53.0956 308.446 54.2296 308.446C55.3356 308.446 56.0776 309.09 56.0776 310.182C56.0776 311.386 55.2096 311.918 53.7256 312.31C51.8776 312.786 50.5896 313.626 50.5896 315.474V317H57.6596V315.53H52.2136V315.334C52.2136 314.242 53.0256 313.934 54.4956 313.556C56.5396 313.038 57.7016 312.128 57.7016 310.224C57.7016 308.236 56.1196 307.004 54.2016 307.004C52.2276 307.004 50.5756 308.194 50.5756 310.448ZM61.7228 307.2L57.6768 313.64V315.054H62.6468V317H64.2708V315.054H65.8948V313.584H64.2708V307.2H61.7228ZM62.4788 308.614H62.6468V313.584H59.3708L62.4788 308.614Z" fill="#24262F"/>
<path id="-18" d="M18.148 363.13H22.292V361.73H18.148V363.13ZM26.0575 356.2L23.4675 360.568H25.1895L26.7435 357.922H26.9115V366H28.5355V356.2H26.0575ZM29.9461 358.664C29.9461 359.882 30.7441 360.526 31.5561 360.862V361.03C30.7581 361.24 29.7921 361.996 29.7921 363.368C29.7921 365.062 31.3041 366.196 33.4181 366.196C35.5321 366.196 37.0441 365.062 37.0441 363.368C37.0441 361.996 36.0781 361.24 35.2661 361.03V360.862C36.0781 360.526 36.8901 359.882 36.8901 358.664C36.8901 357.124 35.4901 356.004 33.4181 356.004C31.3321 356.004 29.9461 357.124 29.9461 358.664ZM31.5561 358.846C31.5561 357.964 32.3261 357.446 33.4181 357.446C34.4961 357.446 35.2661 357.964 35.2661 358.846C35.2661 359.728 34.4961 360.246 33.4181 360.246C32.3261 360.246 31.5561 359.728 31.5561 358.846ZM31.4021 363.214C31.4021 362.276 32.1581 361.688 33.4181 361.688C34.6781 361.688 35.4201 362.276 35.4201 363.214C35.4201 364.166 34.6781 364.754 33.4181 364.754C32.1581 364.754 31.4021 364.166 31.4021 363.214Z" fill="#24262F"/>
<rect id="Rectangle 158" x="104" y="44" width="235" height="48" fill="#1880FF"/>
<rect id="Rectangle 159" x="104" y="93" width="146" height="48" fill="#1880FF"/>
<rect id="Rectangle 160" x="104" y="142" width="94" height="48" fill="#1880FF"/>
<rect id="Rectangle 161" x="104" y="191" width="47" height="48" fill="#1880FF"/>
<rect id="Rectangle 162" x="104" y="240" width="30" height="48" fill="#1880FF"/>
<rect id="Rectangle 163" x="104" y="289" width="23" height="48" fill="#1880FF"/>
<rect id="Rectangle 167" x="104" y="338" width="12" height="48" fill="#1880FF"/>
<path id="25%" d="M260.476 114.448V114.784H262.086V114.476C262.086 113.104 262.996 112.446 264.13 112.446C265.236 112.446 265.978 113.09 265.978 114.182C265.978 115.386 265.11 115.918 263.626 116.31C261.778 116.786 260.49 117.626 260.49 119.474V121H267.56V119.53H262.114V119.334C262.114 118.242 262.926 117.934 264.396 117.556C266.44 117.038 267.602 116.128 267.602 114.224C267.602 112.236 266.02 111.004 264.102 111.004C262.128 111.004 260.476 112.194 260.476 114.448ZM268.603 111.2V116.576H270.759C270.941 116.226 271.333 115.764 272.173 115.764C273.181 115.764 273.881 116.464 273.881 117.626C273.881 118.928 273.125 119.754 271.879 119.754C270.619 119.754 269.877 118.97 269.877 117.71V117.528H268.267V117.822C268.267 119.866 269.751 121.196 271.921 121.196C274.077 121.196 275.505 119.726 275.505 117.556C275.505 115.582 274.147 114.392 272.579 114.392C271.221 114.392 270.647 115.092 270.381 115.526H270.213V112.67H275.183V111.2H268.603ZM281.739 114.546L282.551 115.148L285.365 111.928L284.105 110.99L281.739 114.546ZM276.447 113.244V113.51C276.447 114.882 277.301 115.708 278.729 115.708C280.171 115.708 281.011 114.882 281.011 113.51V113.244C281.011 111.872 280.129 111.032 278.729 111.032C277.301 111.032 276.447 111.872 276.447 113.244ZM277.735 113.174C277.735 112.516 278.071 112.096 278.729 112.096C279.387 112.096 279.723 112.516 279.723 113.174V113.566C279.723 114.224 279.387 114.644 278.729 114.644C278.071 114.644 277.735 114.224 277.735 113.566V113.174ZM281.431 118.704V118.97C281.431 120.342 282.285 121.168 283.727 121.168C285.155 121.168 286.009 120.342 286.009 118.97V118.704C286.009 117.332 285.113 116.492 283.727 116.492C282.285 116.492 281.431 117.332 281.431 118.704ZM280.661 117.626L279.849 117.024L277.035 120.244L278.295 121.196L280.661 117.626ZM282.733 118.634C282.733 117.976 283.069 117.556 283.727 117.556C284.385 117.556 284.721 117.976 284.721 118.634V119.026C284.721 119.684 284.385 120.104 283.727 120.104C283.069 120.104 282.733 119.684 282.733 119.026V118.634Z" fill="#24262F"/>
<path id="40%" d="M351.172 62.2L347.126 68.64V70.054H352.096V72H353.72V70.054H355.344V68.584H353.72V62.2H351.172ZM351.928 63.614H352.096V68.584H348.82L351.928 63.614ZM355.954 65.966V68.234C355.954 70.824 357.41 72.196 359.65 72.196C361.89 72.196 363.346 70.824 363.346 68.234V65.966C363.346 63.446 361.89 62.004 359.65 62.004C357.41 62.004 355.954 63.446 355.954 65.966ZM357.578 65.882C357.578 64.426 358.32 63.446 359.65 63.446C360.952 63.446 361.722 64.384 361.722 65.882V68.318C361.722 69.802 361.078 70.754 359.65 70.754C358.264 70.754 357.578 69.844 357.578 68.318V65.882ZM369.723 65.546L370.535 66.148L373.349 62.928L372.089 61.99L369.723 65.546ZM364.431 64.244V64.51C364.431 65.882 365.285 66.708 366.713 66.708C368.155 66.708 368.995 65.882 368.995 64.51V64.244C368.995 62.872 368.113 62.032 366.713 62.032C365.285 62.032 364.431 62.872 364.431 64.244ZM365.719 64.174C365.719 63.516 366.055 63.096 366.713 63.096C367.371 63.096 367.707 63.516 367.707 64.174V64.566C367.707 65.224 367.371 65.644 366.713 65.644C366.055 65.644 365.719 65.224 365.719 64.566V64.174ZM369.415 69.704V69.97C369.415 71.342 370.269 72.168 371.711 72.168C373.139 72.168 373.993 71.342 373.993 69.97V69.704C373.993 68.332 373.097 67.492 371.711 67.492C370.269 67.492 369.415 68.332 369.415 69.704ZM368.645 68.626L367.833 68.024L365.019 71.244L366.279 72.196L368.645 68.626ZM370.717 69.634C370.717 68.976 371.053 68.556 371.711 68.556C372.369 68.556 372.705 68.976 372.705 69.634V70.026C372.705 70.684 372.369 71.104 371.711 71.104C371.053 71.104 370.717 70.684 370.717 70.026V69.634Z" fill="#24262F"/>
<path id="16%" d="M210.618 160.2L208.028 164.568H209.75L211.304 161.922H211.472V170H213.096V160.2H210.618ZM221.619 166.78C221.619 164.89 220.275 163.546 218.497 163.546C217.139 163.546 216.537 164.176 216.285 164.582H216.117V163.378C216.117 162.146 216.845 161.446 218.119 161.446C219.309 161.446 219.897 162.132 219.897 163.084H221.535C221.535 161.208 220.177 160.004 218.119 160.004C216.019 160.004 214.493 161.236 214.493 163.49V166.906C214.493 168.852 216.019 170.21 218.035 170.182C220.121 170.168 221.619 168.81 221.619 166.78ZM218.063 164.82C219.225 164.82 220.009 165.59 220.009 166.78C220.009 167.97 219.197 168.74 218.063 168.74C216.929 168.74 216.117 167.998 216.117 166.78C216.117 165.59 216.901 164.82 218.063 164.82ZM227.866 163.546L228.678 164.148L231.492 160.928L230.232 159.99L227.866 163.546ZM222.574 162.244V162.51C222.574 163.882 223.428 164.708 224.856 164.708C226.298 164.708 227.138 163.882 227.138 162.51V162.244C227.138 160.872 226.256 160.032 224.856 160.032C223.428 160.032 222.574 160.872 222.574 162.244ZM223.862 162.174C223.862 161.516 224.198 161.096 224.856 161.096C225.514 161.096 225.85 161.516 225.85 162.174V162.566C225.85 163.224 225.514 163.644 224.856 163.644C224.198 163.644 223.862 163.224 223.862 162.566V162.174ZM227.558 167.704V167.97C227.558 169.342 228.412 170.168 229.854 170.168C231.282 170.168 232.136 169.342 232.136 167.97V167.704C232.136 166.332 231.24 165.492 229.854 165.492C228.412 165.492 227.558 166.332 227.558 167.704ZM226.788 166.626L225.976 166.024L223.162 169.244L224.422 170.196L226.788 166.626ZM228.86 167.634C228.86 166.976 229.196 166.556 229.854 166.556C230.512 166.556 230.848 166.976 230.848 167.634V168.026C230.848 168.684 230.512 169.104 229.854 169.104C229.196 169.104 228.86 168.684 228.86 168.026V167.634Z" fill="#24262F"/>
<path id="8%" d="M162.532 211.664C162.532 212.882 163.33 213.526 164.142 213.862V214.03C163.344 214.24 162.378 214.996 162.378 216.368C162.378 218.062 163.89 219.196 166.004 219.196C168.118 219.196 169.63 218.062 169.63 216.368C169.63 214.996 168.664 214.24 167.852 214.03V213.862C168.664 213.526 169.476 212.882 169.476 211.664C169.476 210.124 168.076 209.004 166.004 209.004C163.918 209.004 162.532 210.124 162.532 211.664ZM164.142 211.846C164.142 210.964 164.912 210.446 166.004 210.446C167.082 210.446 167.852 210.964 167.852 211.846C167.852 212.728 167.082 213.246 166.004 213.246C164.912 213.246 164.142 212.728 164.142 211.846ZM163.988 216.214C163.988 215.276 164.744 214.688 166.004 214.688C167.264 214.688 168.006 215.276 168.006 216.214C168.006 217.166 167.264 217.754 166.004 217.754C164.744 217.754 163.988 217.166 163.988 216.214ZM175.864 212.546L176.676 213.148L179.49 209.928L178.23 208.99L175.864 212.546ZM170.572 211.244V211.51C170.572 212.882 171.426 213.708 172.854 213.708C174.296 213.708 175.136 212.882 175.136 211.51V211.244C175.136 209.872 174.254 209.032 172.854 209.032C171.426 209.032 170.572 209.872 170.572 211.244ZM171.86 211.174C171.86 210.516 172.196 210.096 172.854 210.096C173.512 210.096 173.848 210.516 173.848 211.174V211.566C173.848 212.224 173.512 212.644 172.854 212.644C172.196 212.644 171.86 212.224 171.86 211.566V211.174ZM175.556 216.704V216.97C175.556 218.342 176.41 219.168 177.852 219.168C179.28 219.168 180.134 218.342 180.134 216.97V216.704C180.134 215.332 179.238 214.492 177.852 214.492C176.41 214.492 175.556 215.332 175.556 216.704ZM174.786 215.626L173.974 215.024L171.16 218.244L172.42 219.196L174.786 215.626ZM176.858 216.634C176.858 215.976 177.194 215.556 177.852 215.556C178.51 215.556 178.846 215.976 178.846 216.634V217.026C178.846 217.684 178.51 218.104 177.852 218.104C177.194 218.104 176.858 217.684 176.858 217.026V216.634Z" fill="#24262F"/>
<path id="5%" d="M145.728 258.2V263.576H147.884C148.066 263.226 148.458 262.764 149.298 262.764C150.306 262.764 151.006 263.464 151.006 264.626C151.006 265.928 150.25 266.754 149.004 266.754C147.744 266.754 147.002 265.97 147.002 264.71V264.528H145.392V264.822C145.392 266.866 146.876 268.196 149.046 268.196C151.202 268.196 152.63 266.726 152.63 264.556C152.63 262.582 151.272 261.392 149.704 261.392C148.346 261.392 147.772 262.092 147.506 262.526H147.338V259.67H152.308V258.2H145.728ZM158.864 261.546L159.676 262.148L162.49 258.928L161.23 257.99L158.864 261.546ZM153.572 260.244V260.51C153.572 261.882 154.426 262.708 155.854 262.708C157.296 262.708 158.136 261.882 158.136 260.51V260.244C158.136 258.872 157.254 258.032 155.854 258.032C154.426 258.032 153.572 258.872 153.572 260.244ZM154.86 260.174C154.86 259.516 155.196 259.096 155.854 259.096C156.512 259.096 156.848 259.516 156.848 260.174V260.566C156.848 261.224 156.512 261.644 155.854 261.644C155.196 261.644 154.86 261.224 154.86 260.566V260.174ZM158.556 265.704V265.97C158.556 267.342 159.41 268.168 160.852 268.168C162.28 268.168 163.134 267.342 163.134 265.97V265.704C163.134 264.332 162.238 263.492 160.852 263.492C159.41 263.492 158.556 264.332 158.556 265.704ZM157.786 264.626L156.974 264.024L154.16 267.244L155.42 268.196L157.786 264.626ZM159.858 265.634C159.858 264.976 160.194 264.556 160.852 264.556C161.51 264.556 161.846 264.976 161.846 265.634V266.026C161.846 266.684 161.51 267.104 160.852 267.104C160.194 267.104 159.858 266.684 159.858 266.026V265.634Z" fill="#24262F"/>
<path id="4%" d="M143.172 307.2L139.126 313.64V315.054H144.096V317H145.72V315.054H147.344V313.584H145.72V307.2H143.172ZM143.928 308.614H144.096V313.584H140.82L143.928 308.614ZM153.302 310.546L154.114 311.148L156.928 307.928L155.668 306.99L153.302 310.546ZM148.01 309.244V309.51C148.01 310.882 148.864 311.708 150.292 311.708C151.734 311.708 152.574 310.882 152.574 309.51V309.244C152.574 307.872 151.692 307.032 150.292 307.032C148.864 307.032 148.01 307.872 148.01 309.244ZM149.298 309.174C149.298 308.516 149.634 308.096 150.292 308.096C150.95 308.096 151.286 308.516 151.286 309.174V309.566C151.286 310.224 150.95 310.644 150.292 310.644C149.634 310.644 149.298 310.224 149.298 309.566V309.174ZM152.994 314.704V314.97C152.994 316.342 153.848 317.168 155.29 317.168C156.718 317.168 157.572 316.342 157.572 314.97V314.704C157.572 313.332 156.676 312.492 155.29 312.492C153.848 312.492 152.994 313.332 152.994 314.704ZM152.224 313.626L151.412 313.024L148.598 316.244L149.858 317.196L152.224 313.626ZM154.296 314.634C154.296 313.976 154.632 313.556 155.29 313.556C155.948 313.556 156.284 313.976 156.284 314.634V315.026C156.284 315.684 155.948 316.104 155.29 316.104C154.632 316.104 154.296 315.684 154.296 315.026V314.634Z" fill="#24262F"/>
<path id="2%" d="M128.476 359.448V359.784H130.086V359.476C130.086 358.104 130.996 357.446 132.13 357.446C133.236 357.446 133.978 358.09 133.978 359.182C133.978 360.386 133.11 360.918 131.626 361.31C129.778 361.786 128.49 362.626 128.49 364.474V366H135.56V364.53H130.114V364.334C130.114 363.242 130.926 362.934 132.396 362.556C134.44 362.038 135.602 361.128 135.602 359.224C135.602 357.236 134.02 356.004 132.102 356.004C130.128 356.004 128.476 357.194 128.476 359.448ZM141.878 359.546L142.69 360.148L145.504 356.928L144.244 355.99L141.878 359.546ZM136.586 358.244V358.51C136.586 359.882 137.44 360.708 138.868 360.708C140.31 360.708 141.15 359.882 141.15 358.51V358.244C141.15 356.872 140.268 356.032 138.868 356.032C137.44 356.032 136.586 356.872 136.586 358.244ZM137.874 358.174C137.874 357.516 138.21 357.096 138.868 357.096C139.526 357.096 139.862 357.516 139.862 358.174V358.566C139.862 359.224 139.526 359.644 138.868 359.644C138.21 359.644 137.874 359.224 137.874 358.566V358.174ZM141.57 363.704V363.97C141.57 365.342 142.424 366.168 143.866 366.168C145.294 366.168 146.148 365.342 146.148 363.97V363.704C146.148 362.332 145.252 361.492 143.866 361.492C142.424 361.492 141.57 362.332 141.57 363.704ZM140.8 362.626L139.988 362.024L137.174 365.244L138.434 366.196L140.8 362.626ZM142.872 363.634C142.872 362.976 143.208 362.556 143.866 362.556C144.524 362.556 144.86 362.976 144.86 363.634V364.026C144.86 364.684 144.524 365.104 143.866 365.104C143.208 365.104 142.872 364.684 142.872 364.026V363.634Z" fill="#24262F"/>
</g>
</svg>
