<svg width="1016" height="773" viewBox="0 0 1016 773" fill="none" xmlns="http://www.w3.org/2000/svg">
  <g id="Group 326">
    <g id="Group 320">
      <g id="Group 267">
        <text id="Laurea" fill="#131313" xml:space="preserve" style="white-space: pre" font-family="Neue Haas Grotesk Text Pro" font-size="16" font-weight="500" letter-spacing="0em">
          <tspan x="0" y="584.864">Laurea</tspan>
        </text>
        <text id="ITS" fill="#131313" xml:space="preserve" style="white-space: pre" font-family="Neue Haas Grotesk Text Pro" font-size="16" font-weight="500" letter-spacing="0em">
          <tspan x="0" y="625.864">ITS</tspan>
        </text>
        <text id="Diploma" fill="#131313" xml:space="preserve" style="white-space: pre" font-family="Neue Haas Grotesk Text Pro" font-size="16" font-weight="500" letter-spacing="0em">
          <tspan x="0" y="666.864">Diploma</tspan>
        </text>
        <text id="Diploma profes." fill="#131313" xml:space="preserve" style="white-space: pre" font-family="Neue Haas Grotesk Text Pro" font-size="16" font-weight="500" letter-spacing="0em">
          <tspan x="0" y="707.864">Diploma profes.</tspan>
        </text>
        <text id="Nessun titolo" fill="#131313" xml:space="preserve" style="white-space: pre" font-family="Neue Haas Grotesk Text Pro" font-size="16" font-weight="500" letter-spacing="0em">
          <tspan x="0" y="748.864">Nessun titolo</tspan>
        </text>
      </g>
      <g id="Group 180">
        <path id="Rectangle 55" d="M136 561H240C243.314 561 246 563.686 246 567V595C246 598.314 243.314 601 240 601H136V561Z" fill="#004FED"/>
        <path id="Rectangle 56" d="M136 602H154C157.314 602 160 604.686 160 608V636C160 639.314 157.314 642 154 642H136V602Z" fill="#004FED"/>
        <path id="Rectangle 57" d="M136 643H406C409.314 643 412 645.686 412 649V677C412 680.314 409.314 683 406 683H136V643Z" fill="#004FED"/>
        <path id="Rectangle 58" d="M136 684H430C433.314 684 436 686.686 436 690V718C436 721.314 433.314 724 430 724H136V684Z" fill="#004FED"/>
        <path id="Rectangle 59" d="M136 725H216C219.314 725 222 727.686 222 731V759C222 762.314 219.314 765 216 765H136V725Z" fill="#004FED"/>
        <g id="Group 266">
          <text id="14%" fill="#131313" xml:space="preserve" style="white-space: pre" font-family="Neue Haas Grotesk Text Pro" font-size="16" font-weight="500" letter-spacing="0em">
            <tspan x="254" y="585.864">14%</tspan>
          </text>
          <text id="3%" fill="#131313" xml:space="preserve" style="white-space: pre" font-family="Neue Haas Grotesk Text Pro" font-size="16" font-weight="500" letter-spacing="0em">
            <tspan x="168" y="626.864">3%</tspan>
          </text>
          <text id="35%" fill="#131313" xml:space="preserve" style="white-space: pre" font-family="Neue Haas Grotesk Text Pro" font-size="16" font-weight="500" letter-spacing="0em">
            <tspan x="420" y="667.864">35%</tspan>
          </text>
          <text id="11%" fill="#131313" xml:space="preserve" style="white-space: pre" font-family="Neue Haas Grotesk Text Pro" font-size="16" font-weight="500" letter-spacing="0em">
            <tspan x="230" y="749.864">11%</tspan>
          </text>
          <text id="38%" fill="#131313" xml:space="preserve" style="white-space: pre" font-family="Neue Haas Grotesk Text Pro" font-size="16" font-weight="500" letter-spacing="0em">
            <tspan x="444" y="708.864">38%</tspan>
          </text>
        </g>
      </g>
      <g id="Group 268">
        <rect id="Rectangle 60" width="496" height="1" transform="matrix(1 0 0 -1 0 561)" fill="#131313"/>
        <rect id="Rectangle 61" width="496" height="1" transform="matrix(1 0 0 -1 0 602)" fill="#131313"/>
        <rect id="Rectangle 62" width="496" height="1" transform="matrix(1 0 0 -1 0 643)" fill="#131313"/>
        <rect id="Rectangle 63" width="496" height="1" transform="matrix(1 0 0 -1 0 684)" fill="#131313"/>
        <rect id="Rectangle 64" width="496" height="1" transform="matrix(1 0 0 -1 0 725)" fill="#131313"/>
        <rect id="Rectangle 65" width="496" height="1" transform="matrix(1 0 0 -1 0 766)" fill="#131313"/>
      </g>
      <text
        id="Posti di lavoro programmati nel 2020 &#226;&#128;&#168;dalle imprese per livello di istruzione."
        fill="#131313"
        xml:space="preserve"
        style="white-space: pre"
        font-family="Neue Haas Grotesk Text Pro"
        font-size="16"
        font-weight="500"
        letter-spacing="0em">
        <tspan x="0" y="516.864">Posti di lavoro programmati nel 2020 &#x2028;</tspan>
        <tspan x="0" y="538.864">dalle imprese per livello di istruzione.</tspan>
      </text>
    </g>
    <g id="Group 321">
      <text id="Fonte: Intesa Sanpaolo" transform="translate(520 759)" fill="#131313" xml:space="preserve" style="white-space: pre" font-family="Neue Haas Grotesk Text Pro" font-size="12" letter-spacing="0em">
        <tspan x="0" y="11.398">Fonte: Intesa Sanpaolo</tspan>
      </text>
      <text
        id="Fabbisogni di professioni nel periodo 2020&#226;&#128;&#147;2024 con competenze digitali&#226;&#128;&#168;(valori assoluti in migliaia)."
        fill="#131313"
        xml:space="preserve"
        style="white-space: pre"
        font-family="Neue Haas Grotesk Text Pro"
        font-size="16"
        font-weight="500"
        letter-spacing="0em">
        <tspan x="520" y="516.864">Fabbisogni di professioni nel periodo
        </tspan>
        <tspan x="520" y="538.864">2020&#x2013;2024 con competenze digitali&#x2028;</tspan>
        <tspan x="520" y="560.864">(valori assoluti in migliaia).</tspan>
      </text>
      <g id="Group 272">
        <rect id="Rectangle 124" width="360" height="1" transform="matrix(1 0 0 -1 656 766)" fill="#131313"/>
        <g id="Group 190">
          <g id="Group 187">
            <path id="Rectangle 51" d="M844 418C844 415.791 845.791 414 848 414H896C898.209 414 900 415.791 900 418V432C900 434.209 898.209 436 896 436H848C845.791 436 844 434.209 844 432V418Z" fill="#131313"/>
            <path id="Polygon 1" d="M872 441L867 436L877 436L872 441Z" fill="#131313"/>
            <text id="632" fill="white" xml:space="preserve" style="white-space: pre" font-family="Neue Haas Grotesk Text Pro" font-size="14" font-weight="500" letter-spacing="0em">
              <tspan x="859.423" y="430.131">632</tspan>
            </text>
          </g>
          <g id="Group 182">
            <rect id="Rectangle 149" x="832" y="765" width="230.5" height="79.9997" transform="rotate(-90 832 765)" fill="#004FED"/>
            <rect id="Rectangle 150" x="832.5" y="534" width="68.5" height="78.9997" transform="rotate(-90 832.5 534)" fill="white" stroke="#131313"/>
            <path id="Rectangle 151" d="M832 465L832 461C832 454.373 837.373 449 844 449L900 449C906.627 449 912 454.373 912 461L912 465L832 465Z" fill="#131313"/>
          </g>
          <text id="E-skill mix" transform="translate(886 757) rotate(-90)" fill="white" xml:space="preserve" style="white-space: pre" font-family="Neue Haas Grotesk Text Pro" font-size="16" font-weight="500" letter-spacing="0em">
            <tspan x="0" y="15.864">E-skill mix</tspan>
          </text>
        </g>
        <g id="Group 271">
          <g id="Group 269">
            <rect id="Rectangle 146" x="936" y="765" width="467" height="80" transform="rotate(-90 936 765)" fill="#004FED"/>
            <rect id="Rectangle 149_2" x="936.5" y="297.5" width="203.5" height="79" transform="rotate(-90 936.5 297.5)" fill="white" stroke="#131313"/>
            <path id="Rectangle 150_2" d="M936 93.5L936 51C936 42.1634 943.163 35 952 35L1000 35C1008.84 35 1016 42.1634 1016 51L1016 93.5L936 93.5Z" fill="#131313"/>
          </g>
          <text id="Competenze digitali di base" transform="translate(990 757) rotate(-90)" fill="white" xml:space="preserve" style="white-space: pre" font-family="Neue Haas Grotesk Text Pro" font-size="16" font-weight="500" letter-spacing="0em">
            <tspan x="0.03125" y="15.864">Competenze digitali di base</tspan>
          </text>
          <g id="Group 270">
            <path id="Rectangle 51_2" d="M948 4C948 1.79086 949.791 0 952 0H1000C1002.21 0 1004 1.79086 1004 4V18C1004 20.2091 1002.21 22 1000 22H952C949.791 22 948 20.2091 948 18V4Z" fill="#131313"/>
            <path id="Polygon 1_2" d="M976 27L971 22L981 22L976 27Z" fill="#131313"/>
            <text id="1460" fill="white" xml:space="preserve" style="white-space: pre" font-family="Neue Haas Grotesk Text Pro" font-size="14" font-weight="500" letter-spacing="0em">
              <tspan x="959.368" y="16.131">1460</tspan>
            </text>
          </g>
        </g>
      </g>
      <g id="Group 166">
        <text id="Professioni tecniche" fill="#131313" xml:space="preserve" style="white-space: pre" font-family="Neue Haas Grotesk Text Pro" font-size="16" font-weight="500" letter-spacing="0em">
          <tspan x="540" y="606.864">Professioni tecniche</tspan>
        </text>
        <circle id="Ellipse 129" cx="526" cy="601" r="6" fill="#004FED"/>
      </g>
      <g id="Group 167">
        <circle id="Ellipse 96" cx="526" cy="661" r="6" fill="#131313"/>
        <text id="Artigiani e operai" fill="#131313" xml:space="preserve" style="white-space: pre" font-family="Neue Haas Grotesk Text Pro" font-size="16" font-weight="500" letter-spacing="0em">
          <tspan x="540" y="666.864">Artigiani e operai</tspan>
        </text>
      </g>
      <g id="Group 165">
        <circle id="Ellipse 123" cx="526" cy="631" r="5.5" fill="white" stroke="#131313"/>
        <text id="Professioni impiegatizie" fill="#131313" xml:space="preserve" style="white-space: pre" font-family="Neue Haas Grotesk Text Pro" font-size="16" font-weight="500" letter-spacing="0em">
          <tspan x="540" y="636.864">Professioni impiegatizie</tspan>
        </text>
      </g>
      <path
        id="Arrow 4"
        d="M798.75 664.016C798.761 663.601 798.434 663.257 798.02 663.246L791.273 663.064C790.859 663.053 790.514 663.379 790.503 663.793C790.492 664.207 790.818 664.552 791.232 664.563L797.23 664.725L797.069 670.723C797.057 671.137 797.384 671.481 797.798 671.493C798.212 671.504 798.557 671.177 798.568 670.763L798.75 664.016ZM682.542 664.59C696.945 675.71 718.734 682.495 740.478 683.124C762.218 683.752 784.07 678.228 798.516 664.54L797.484 663.451C783.43 676.767 762.032 682.246 740.522 681.624C719.016 681.003 697.555 674.286 683.458 663.402L682.542 664.59Z"
        fill="#131313"/>
    </g>
  </g>
</svg>
