<svg width="375" height="338" viewBox="0 0 375 338" fill="none" xmlns="http://www.w3.org/2000/svg">
<rect y="106" width="375" height="231.466" fill="#E3E3E5"/>
<rect x="38.793" y="293.177" width="297.414" height="0.323276" fill="white"/>
<rect x="38.793" y="267.961" width="297.414" height="0.323276" fill="white"/>
<rect x="38.793" y="242.746" width="297.414" height="0.323276" fill="white"/>
<rect x="38.793" y="217.53" width="297.414" height="0.323276" fill="white"/>
<rect x="38.793" y="192.315" width="297.414" height="0.323276" fill="white"/>
<rect x="38.793" y="167.099" width="297.414" height="0.323276" fill="white"/>
<rect x="38.793" y="141.884" width="297.414" height="0.323276" fill="white"/>
<rect x="38.793" y="116.668" width="297.414" height="0.323276" fill="white"/>
<path d="M13.2089 298.505C14.7289 298.505 15.7639 297.61 15.7639 296.31C15.7639 295.395 15.1589 294.865 14.3989 294.635C14.9589 294.395 15.3739 293.935 15.3739 293.235C15.3739 292.135 14.4889 291.355 13.2389 291.355C11.9089 291.355 10.9589 292.205 10.9589 293.395L12.0539 293.465C12.0639 292.84 12.4839 292.42 13.1989 292.42C13.8439 292.42 14.2589 292.78 14.2589 293.345C14.2589 294.075 13.6289 294.335 12.8439 294.325V295.2C13.9339 295.2 14.6589 295.475 14.6589 296.3C14.6589 297.005 14.1239 297.435 13.2489 297.435C12.3389 297.435 11.7539 296.945 11.7539 296.17L10.6489 296.235C10.6489 297.595 11.6689 298.505 13.2089 298.505ZM16.6496 298.415H17.8696V297.15H16.6496V298.415ZM19.3869 298.415H20.6219L23.7619 292.265V291.445H18.7419V292.48H22.4419L19.3869 298.415ZM26.8276 298.505C28.3026 298.505 29.3526 297.325 29.3526 295.995C29.3526 294.735 28.3976 293.64 27.0076 293.64C26.6426 293.64 26.2376 293.72 25.8476 293.99L26.1276 292.48H29.0376V291.445H25.2176L24.5476 295.095L25.5976 295.37C25.8676 294.96 26.2826 294.685 26.8526 294.685C27.7526 294.685 28.1776 295.295 28.1776 295.995C28.1776 296.725 27.7276 297.445 26.8176 297.445C25.9876 297.445 25.5076 296.855 25.4226 296.23L24.3326 296.42C24.5176 297.615 25.5376 298.505 26.8276 298.505ZM32.4633 298.505C34.4933 298.505 34.8283 296.5 34.8283 294.905C34.8283 293.365 34.5133 291.345 32.4483 291.345C30.3433 291.345 30.0783 293.425 30.0783 294.895C30.0783 296.425 30.3633 298.505 32.4633 298.505ZM31.2183 294.935C31.2183 293.565 31.4283 292.41 32.4483 292.41C33.4333 292.41 33.6933 293.505 33.6933 294.94C33.6933 296.315 33.4433 297.435 32.4633 297.435C31.4283 297.435 31.2183 296.25 31.2183 294.935Z" fill="#04171F"/>
<path d="M45.0339 331.302H46.1439V324.332H45.0339V324.777C45.0339 325.262 44.7989 325.427 44.3589 325.427H43.2339V326.312H45.0339V331.302ZM49.4096 331.302H50.6896L52.7696 327.927C53.0096 327.537 53.1596 327.082 53.1596 326.632C53.1596 325.247 52.0196 324.242 50.6396 324.242C49.2696 324.242 48.1346 325.242 48.1346 326.642C48.1346 327.952 49.1596 328.977 50.4896 328.977C50.6396 328.977 50.7996 328.952 50.9546 328.907L49.4096 331.302ZM49.2646 326.647C49.2646 325.837 49.8796 325.297 50.6396 325.297C51.4046 325.297 52.0196 325.837 52.0196 326.642C52.0196 327.452 51.3996 327.992 50.6396 327.992C49.8696 327.992 49.2646 327.442 49.2646 326.647ZM56.7153 331.302H57.8253V329.652H58.9403V328.622H57.8253V324.332H56.8403L53.5553 328.792V329.652H56.7153V331.302ZM54.7653 328.622L56.7153 325.882V328.622H54.7653ZM61.786 331.392C63.306 331.392 64.341 330.497 64.341 329.197C64.341 328.282 63.736 327.752 62.976 327.522C63.536 327.282 63.951 326.822 63.951 326.122C63.951 325.022 63.066 324.242 61.816 324.242C60.486 324.242 59.536 325.092 59.536 326.282L60.631 326.352C60.641 325.727 61.061 325.307 61.776 325.307C62.421 325.307 62.836 325.667 62.836 326.232C62.836 326.962 62.206 327.222 61.421 327.212V328.087C62.511 328.087 63.236 328.362 63.236 329.187C63.236 329.892 62.701 330.322 61.826 330.322C60.916 330.322 60.331 329.832 60.331 329.057L59.226 329.122C59.226 330.482 60.246 331.392 61.786 331.392Z" fill="#04171F"/>
<path d="M94.8659 331.302H95.9759V324.332H94.8659V324.777C94.8659 325.262 94.6309 325.427 94.1909 325.427H93.0659V326.312H94.8659V331.302ZM99.2416 331.302H100.522L102.602 327.927C102.842 327.537 102.992 327.082 102.992 326.632C102.992 325.247 101.852 324.242 100.472 324.242C99.1016 324.242 97.9666 325.242 97.9666 326.642C97.9666 327.952 98.9916 328.977 100.322 328.977C100.472 328.977 100.632 328.952 100.787 328.907L99.2416 331.302ZM99.0966 326.647C99.0966 325.837 99.7116 325.297 100.472 325.297C101.237 325.297 101.852 325.837 101.852 326.642C101.852 327.452 101.232 327.992 100.472 327.992C99.7016 327.992 99.0966 327.442 99.0966 326.647ZM106.547 331.302H107.657V329.652H108.772V328.622H107.657V324.332H106.672L103.387 328.792V329.652H106.547V331.302ZM104.597 328.622L106.547 325.882V328.622H104.597ZM111.643 331.392C113.118 331.392 114.168 330.212 114.168 328.882C114.168 327.622 113.213 326.527 111.823 326.527C111.458 326.527 111.053 326.607 110.663 326.877L110.943 325.367H113.853V324.332H110.033L109.363 327.982L110.413 328.257C110.683 327.847 111.098 327.572 111.668 327.572C112.568 327.572 112.993 328.182 112.993 328.882C112.993 329.612 112.543 330.332 111.633 330.332C110.803 330.332 110.323 329.742 110.238 329.117L109.148 329.307C109.333 330.502 110.353 331.392 111.643 331.392Z" fill="#04171F"/>
<path d="M137.539 331.302H138.649V324.332H137.539V324.777C137.539 325.262 137.304 325.427 136.864 325.427H135.739V326.312H137.539V331.302ZM141.914 331.302H143.194L145.274 327.927C145.514 327.537 145.664 327.082 145.664 326.632C145.664 325.247 144.524 324.242 143.144 324.242C141.774 324.242 140.639 325.242 140.639 326.642C140.639 327.952 141.664 328.977 142.994 328.977C143.144 328.977 143.304 328.952 143.459 328.907L141.914 331.302ZM141.769 326.647C141.769 325.837 142.384 325.297 143.144 325.297C143.909 325.297 144.524 325.837 144.524 326.642C144.524 327.452 143.904 327.992 143.144 327.992C142.374 327.992 141.769 327.442 141.769 326.647ZM149.22 331.302H150.33V329.652H151.445V328.622H150.33V324.332H149.345L146.06 328.792V329.652H149.22V331.302ZM147.27 328.622L149.22 325.882V328.622H147.27ZM152.471 331.302H153.706L156.846 325.152V324.332H151.826V325.367H155.526L152.471 331.302Z" fill="#04171F"/>
<path d="M180.212 331.302H181.322V324.332H180.212V324.777C180.212 325.262 179.977 325.427 179.537 325.427H178.412V326.312H180.212V331.302ZM184.587 331.302H185.867L187.947 327.927C188.187 327.537 188.337 327.082 188.337 326.632C188.337 325.247 187.197 324.242 185.817 324.242C184.447 324.242 183.312 325.242 183.312 326.642C183.312 327.952 184.337 328.977 185.667 328.977C185.817 328.977 185.977 328.952 186.132 328.907L184.587 331.302ZM184.442 326.647C184.442 325.837 185.057 325.297 185.817 325.297C186.582 325.297 187.197 325.837 187.197 326.642C187.197 327.452 186.577 327.992 185.817 327.992C185.047 327.992 184.442 327.442 184.442 326.647ZM191.893 331.302H193.003V329.652H194.118V328.622H193.003V324.332H192.018L188.733 328.792V329.652H191.893V331.302ZM189.943 328.622L191.893 325.882V328.622H189.943ZM195.779 331.302H197.059L199.139 327.927C199.379 327.537 199.529 327.082 199.529 326.632C199.529 325.247 198.389 324.242 197.009 324.242C195.639 324.242 194.504 325.242 194.504 326.642C194.504 327.952 195.529 328.977 196.859 328.977C197.009 328.977 197.169 328.952 197.324 328.907L195.779 331.302ZM195.634 326.647C195.634 325.837 196.249 325.297 197.009 325.297C197.774 325.297 198.389 325.837 198.389 326.642C198.389 327.452 197.769 327.992 197.009 327.992C196.239 327.992 195.634 327.442 195.634 326.647Z" fill="#04171F"/>
<path d="M222.884 331.302H223.994V324.332H222.884V324.777C222.884 325.262 222.649 325.427 222.209 325.427H221.084V326.312H222.884V331.302ZM227.259 331.302H228.539L230.619 327.927C230.859 327.537 231.009 327.082 231.009 326.632C231.009 325.247 229.869 324.242 228.489 324.242C227.119 324.242 225.984 325.242 225.984 326.642C225.984 327.952 227.009 328.977 228.339 328.977C228.489 328.977 228.649 328.952 228.804 328.907L227.259 331.302ZM227.114 326.647C227.114 325.837 227.729 325.297 228.489 325.297C229.254 325.297 229.869 325.837 229.869 326.642C229.869 327.452 229.249 327.992 228.489 327.992C227.719 327.992 227.114 327.442 227.114 326.647ZM234.065 331.392C235.54 331.392 236.59 330.212 236.59 328.882C236.59 327.622 235.635 326.527 234.245 326.527C233.88 326.527 233.475 326.607 233.085 326.877L233.365 325.367H236.275V324.332H232.455L231.785 327.982L232.835 328.257C233.105 327.847 233.52 327.572 234.09 327.572C234.99 327.572 235.415 328.182 235.415 328.882C235.415 329.612 234.965 330.332 234.055 330.332C233.225 330.332 232.745 329.742 232.66 329.117L231.57 329.307C231.755 330.502 232.775 331.392 234.065 331.392ZM239.671 331.302H240.781V324.332H239.671V324.777C239.671 325.262 239.436 325.427 238.996 325.427H237.871V326.312H239.671V331.302Z" fill="#04171F"/>
<path d="M265.555 331.302H266.665V324.332H265.555V324.777C265.555 325.262 265.32 325.427 264.88 325.427H263.755V326.312H265.555V331.302ZM269.931 331.302H271.211L273.291 327.927C273.531 327.537 273.681 327.082 273.681 326.632C273.681 325.247 272.541 324.242 271.161 324.242C269.791 324.242 268.656 325.242 268.656 326.642C268.656 327.952 269.681 328.977 271.011 328.977C271.161 328.977 271.321 328.952 271.476 328.907L269.931 331.302ZM269.786 326.647C269.786 325.837 270.401 325.297 271.161 325.297C271.926 325.297 272.541 325.837 272.541 326.642C272.541 327.452 271.921 327.992 271.161 327.992C270.391 327.992 269.786 327.442 269.786 326.647ZM276.737 331.392C278.212 331.392 279.262 330.212 279.262 328.882C279.262 327.622 278.307 326.527 276.917 326.527C276.552 326.527 276.147 326.607 275.757 326.877L276.037 325.367H278.947V324.332H275.127L274.457 327.982L275.507 328.257C275.777 327.847 276.192 327.572 276.762 327.572C277.662 327.572 278.087 328.182 278.087 328.882C278.087 329.612 277.637 330.332 276.727 330.332C275.897 330.332 275.417 329.742 275.332 329.117L274.242 329.307C274.427 330.502 275.447 331.392 276.737 331.392ZM282.308 331.392C283.828 331.392 284.863 330.497 284.863 329.197C284.863 328.282 284.258 327.752 283.498 327.522C284.058 327.282 284.473 326.822 284.473 326.122C284.473 325.022 283.588 324.242 282.338 324.242C281.008 324.242 280.058 325.092 280.058 326.282L281.153 326.352C281.163 325.727 281.583 325.307 282.298 325.307C282.943 325.307 283.358 325.667 283.358 326.232C283.358 326.962 282.728 327.222 281.943 327.212V328.087C283.033 328.087 283.758 328.362 283.758 329.187C283.758 329.892 283.223 330.322 282.348 330.322C281.438 330.322 280.853 329.832 280.853 329.057L279.748 329.122C279.748 330.482 280.768 331.392 282.308 331.392Z" fill="#04171F"/>
<path d="M308.228 331.302H309.338V324.332H308.228V324.777C308.228 325.262 307.993 325.427 307.553 325.427H306.428V326.312H308.228V331.302ZM312.604 331.302H313.884L315.964 327.927C316.204 327.537 316.354 327.082 316.354 326.632C316.354 325.247 315.214 324.242 313.834 324.242C312.464 324.242 311.329 325.242 311.329 326.642C311.329 327.952 312.354 328.977 313.684 328.977C313.834 328.977 313.994 328.952 314.149 328.907L312.604 331.302ZM312.459 326.647C312.459 325.837 313.074 325.297 313.834 325.297C314.599 325.297 315.214 325.837 315.214 326.642C315.214 327.452 314.594 327.992 313.834 327.992C313.064 327.992 312.459 327.442 312.459 326.647ZM319.41 331.392C320.885 331.392 321.935 330.212 321.935 328.882C321.935 327.622 320.98 326.527 319.59 326.527C319.225 326.527 318.82 326.607 318.43 326.877L318.71 325.367H321.62V324.332H317.8L317.13 327.982L318.18 328.257C318.45 327.847 318.865 327.572 319.435 327.572C320.335 327.572 320.76 328.182 320.76 328.882C320.76 329.612 320.31 330.332 319.4 330.332C318.57 330.332 318.09 329.742 318.005 329.117L316.915 329.307C317.1 330.502 318.12 331.392 319.41 331.392ZM325.005 331.392C326.48 331.392 327.53 330.212 327.53 328.882C327.53 327.622 326.575 326.527 325.185 326.527C324.82 326.527 324.415 326.607 324.025 326.877L324.305 325.367H327.215V324.332H323.395L322.725 327.982L323.775 328.257C324.045 327.847 324.46 327.572 325.03 327.572C325.93 327.572 326.355 328.182 326.355 328.882C326.355 329.612 325.905 330.332 324.995 330.332C324.165 330.332 323.685 329.742 323.6 329.117L322.51 329.307C322.695 330.502 323.715 331.392 325.005 331.392Z" fill="#04171F"/>
<path d="M11.3889 273.2H12.6239L15.7639 267.05V266.23H10.7439V267.265H14.4439L11.3889 273.2ZM16.6496 273.2H17.8696V271.935H16.6496V273.2ZM21.2319 273.29C22.7069 273.29 23.7569 272.11 23.7569 270.78C23.7569 269.52 22.8019 268.425 21.4119 268.425C21.0469 268.425 20.6419 268.505 20.2519 268.775L20.5319 267.265H23.4419V266.23H19.6219L18.9519 269.88L20.0019 270.155C20.2719 269.745 20.6869 269.47 21.2569 269.47C22.1569 269.47 22.5819 270.08 22.5819 270.78C22.5819 271.51 22.1319 272.23 21.2219 272.23C20.3919 272.23 19.9119 271.64 19.8269 271.015L18.7369 271.205C18.9219 272.4 19.9419 273.29 21.2319 273.29ZM26.8676 273.29C28.8976 273.29 29.2326 271.285 29.2326 269.69C29.2326 268.15 28.9176 266.13 26.8526 266.13C24.7476 266.13 24.4826 268.21 24.4826 269.68C24.4826 271.21 24.7676 273.29 26.8676 273.29ZM25.6226 269.72C25.6226 268.35 25.8326 267.195 26.8526 267.195C27.8376 267.195 28.0976 268.29 28.0976 269.725C28.0976 271.1 27.8476 272.22 26.8676 272.22C25.8326 272.22 25.6226 271.035 25.6226 269.72ZM32.4633 273.29C34.4933 273.29 34.8283 271.285 34.8283 269.69C34.8283 268.15 34.5133 266.13 32.4483 266.13C30.3433 266.13 30.0783 268.21 30.0783 269.68C30.0783 271.21 30.3633 273.29 32.4633 273.29ZM31.2183 269.72C31.2183 268.35 31.4283 267.195 32.4483 267.195C33.4333 267.195 33.6933 268.29 33.6933 269.725C33.6933 271.1 33.4433 272.22 32.4633 272.22C31.4283 272.22 31.2183 271.035 31.2183 269.72Z" fill="#04171F"/>
<path d="M7.82688 222.769H8.93688V215.799H7.82688V216.244C7.82688 216.729 7.59188 216.894 7.15188 216.894H6.02688V217.779H7.82688V222.769ZM13.4126 222.859C14.8876 222.859 15.9376 221.679 15.9376 220.349C15.9376 219.089 14.9826 217.994 13.5926 217.994C13.2276 217.994 12.8226 218.074 12.4326 218.344L12.7126 216.834H15.6226V215.799H11.8026L11.1326 219.449L12.1826 219.724C12.4526 219.314 12.8676 219.039 13.4376 219.039C14.3376 219.039 14.7626 219.649 14.7626 220.349C14.7626 221.079 14.3126 221.799 13.4026 221.799C12.5726 221.799 12.0926 221.209 12.0076 220.584L10.9176 220.774C11.1026 221.969 12.1226 222.859 13.4126 222.859ZM16.8283 222.769H18.0483V221.504H16.8283V222.769ZM21.4506 222.859C23.4806 222.859 23.8156 220.854 23.8156 219.259C23.8156 217.719 23.5006 215.699 21.4356 215.699C19.3306 215.699 19.0656 217.779 19.0656 219.249C19.0656 220.779 19.3506 222.859 21.4506 222.859ZM20.2056 219.289C20.2056 217.919 20.4156 216.764 21.4356 216.764C22.4206 216.764 22.6806 217.859 22.6806 219.294C22.6806 220.669 22.4306 221.789 21.4506 221.789C20.4156 221.789 20.2056 220.604 20.2056 219.289ZM27.0463 222.859C29.0763 222.859 29.4113 220.854 29.4113 219.259C29.4113 217.719 29.0963 215.699 27.0313 215.699C24.9263 215.699 24.6613 217.779 24.6613 219.249C24.6613 220.779 24.9463 222.859 27.0463 222.859ZM25.8013 219.289C25.8013 217.919 26.0113 216.764 27.0313 216.764C28.0163 216.764 28.2763 217.859 28.2763 219.294C28.2763 220.669 28.0263 221.789 27.0463 221.789C26.0113 221.789 25.8013 220.604 25.8013 219.289ZM32.642 222.859C34.672 222.859 35.007 220.854 35.007 219.259C35.007 217.719 34.692 215.699 32.627 215.699C30.522 215.699 30.257 217.779 30.257 219.249C30.257 220.779 30.542 222.859 32.642 222.859ZM31.397 219.289C31.397 217.919 31.607 216.764 32.627 216.764C33.612 216.764 33.872 217.859 33.872 219.294C33.872 220.669 33.622 221.789 32.642 221.789C31.607 221.789 31.397 220.604 31.397 219.289Z" fill="#04171F"/>
<path d="M7.79188 121.997C9.31188 121.997 10.3469 121.102 10.3469 119.802C10.3469 118.887 9.74188 118.357 8.98188 118.127C9.54188 117.887 9.95688 117.427 9.95688 116.727C9.95688 115.627 9.07188 114.847 7.82188 114.847C6.49188 114.847 5.54188 115.697 5.54188 116.887L6.63688 116.957C6.64688 116.332 7.06688 115.912 7.78188 115.912C8.42688 115.912 8.84188 116.272 8.84188 116.837C8.84188 117.567 8.21188 117.827 7.42688 117.817V118.692C8.51688 118.692 9.24188 118.967 9.24188 119.792C9.24188 120.497 8.70688 120.927 7.83188 120.927C6.92188 120.927 6.33688 120.437 6.33688 119.662L5.23188 119.727C5.23188 121.087 6.25188 121.997 7.79188 121.997ZM13.4526 121.997C15.4826 121.997 15.8176 119.992 15.8176 118.397C15.8176 116.857 15.5026 114.837 13.4376 114.837C11.3326 114.837 11.0676 116.917 11.0676 118.387C11.0676 119.917 11.3526 121.997 13.4526 121.997ZM12.2076 118.427C12.2076 117.057 12.4176 115.902 13.4376 115.902C14.4226 115.902 14.6826 116.997 14.6826 118.432C14.6826 119.807 14.4326 120.927 13.4526 120.927C12.4176 120.927 12.2076 119.742 12.2076 118.427ZM16.8283 121.907H18.0483V120.642H16.8283V121.907ZM21.4506 121.997C23.4806 121.997 23.8156 119.992 23.8156 118.397C23.8156 116.857 23.5006 114.837 21.4356 114.837C19.3306 114.837 19.0656 116.917 19.0656 118.387C19.0656 119.917 19.3506 121.997 21.4506 121.997ZM20.2056 118.427C20.2056 117.057 20.4156 115.902 21.4356 115.902C22.4206 115.902 22.6806 116.997 22.6806 118.432C22.6806 119.807 22.4306 120.927 21.4506 120.927C20.4156 120.927 20.2056 119.742 20.2056 118.427ZM27.0463 121.997C29.0763 121.997 29.4113 119.992 29.4113 118.397C29.4113 116.857 29.0963 114.837 27.0313 114.837C24.9263 114.837 24.6613 116.917 24.6613 118.387C24.6613 119.917 24.9463 121.997 27.0463 121.997ZM25.8013 118.427C25.8013 117.057 26.0113 115.902 27.0313 115.902C28.0163 115.902 28.2763 116.997 28.2763 118.432C28.2763 119.807 28.0263 120.927 27.0463 120.927C26.0113 120.927 25.8013 119.742 25.8013 118.427ZM32.642 121.997C34.672 121.997 35.007 119.992 35.007 118.397C35.007 116.857 34.692 114.837 32.627 114.837C30.522 114.837 30.257 116.917 30.257 118.387C30.257 119.917 30.542 121.997 32.642 121.997ZM31.397 118.427C31.397 117.057 31.607 115.902 32.627 115.902C33.612 115.902 33.872 116.997 33.872 118.432C33.872 119.807 33.622 120.927 32.642 120.927C31.607 120.927 31.397 119.742 31.397 118.427Z" fill="#04171F"/>
<path d="M53 318L96.5385 221.79C96.9437 220.894 98.3616 221.123 98.423 222.094L101.883 276.797C101.992 278.517 103.858 279.638 105.571 279.014C108.959 277.78 111.546 275.146 112.577 271.881L122.303 241.088C124.208 235.058 127.216 229.384 131.195 224.319L141.389 211.34C143.239 208.984 146.176 207.593 149.298 207.593H157.874C163.414 207.593 168.79 205.838 173.131 202.613L177.32 199.5C179.456 197.913 182.199 197.229 184.894 197.612L189.789 198.306C194.407 198.962 199.129 198.317 203.355 196.454L210.591 193.264C212.179 192.564 214.064 193.312 214.633 194.867L228.855 233.787C231.09 239.905 234.283 245.678 238.329 250.917L244.913 259.445C249.684 265.624 255.768 271.748 256.498 279.343L260.216 318H53Z" fill="#CAD0D3"/>
<path d="M52.5445 317.794L52.2249 318.5H53H260.216H260.766L260.713 317.952L256.996 279.295C256.619 275.378 254.865 271.866 252.635 268.582C251.174 266.43 249.481 264.34 247.822 262.292C246.963 261.23 246.113 260.181 245.309 259.139L238.724 250.612C234.71 245.412 231.542 239.685 229.324 233.616L215.103 194.696C214.427 192.846 212.219 191.999 210.389 192.806L203.154 195.996C199.013 197.822 194.386 198.454 189.859 197.811L184.964 197.117C182.142 196.716 179.266 197.431 177.022 199.098L172.832 202.211C168.581 205.37 163.309 207.093 157.874 207.093H149.298C146.03 207.093 142.945 208.549 140.995 211.031L130.801 224.01C126.787 229.121 123.749 234.849 121.826 240.938L112.1 271.73C111.118 274.838 108.651 277.36 105.4 278.544C103.96 279.069 102.467 278.111 102.382 276.766L98.922 222.063C98.8733 221.294 98.2787 220.844 97.6895 220.748C97.1013 220.653 96.3971 220.889 96.0829 221.583L52.5445 317.794Z" stroke="#04171F"/>
<path d="M130.284 262.908L82.1084 300.43H292.761V274.177H281.068C277.895 274.177 274.883 272.869 272.83 270.6L264.412 261.295C263.289 260.053 261.269 259.987 260.056 261.153L246.467 274.226C244.945 275.691 242.313 275.15 241.582 273.223L227.149 235.171C225.771 231.537 222.929 228.555 219.234 226.865L210.777 222.995C206.888 221.216 202.618 220.291 198.29 220.291H195.814C191.507 220.291 187.332 218.893 183.998 216.335L176.144 210.307C174.579 209.106 172.218 209.708 171.516 211.486L153.308 257.597H145.969C140.24 257.597 134.691 259.476 130.284 262.908Z" fill="#98A2A7"/>
<path d="M81.8012 300.035L80.6527 300.93H82.1084H292.761H293.261V300.43V274.177V273.677H292.761H281.068C278.03 273.677 275.155 272.425 273.201 270.265L264.783 260.959C263.469 259.506 261.124 259.433 259.71 260.793L246.121 273.866C244.841 275.097 242.646 274.617 242.05 273.046L227.616 234.993C226.189 231.231 223.251 228.153 219.442 226.41L210.985 222.541C207.03 220.731 202.688 219.791 198.29 219.791H195.814C191.614 219.791 187.547 218.428 184.303 215.938L176.449 209.911C174.638 208.521 171.883 209.194 171.051 211.303L152.968 257.097H145.969C140.132 257.097 134.474 259.011 129.977 262.514L81.8012 300.035Z" stroke="#04171F"/>
<path d="M109.188 285.701L86.9821 304.767L86 318H355.086V309.818C355.086 303.496 353.764 297.236 351.195 291.387L330.81 244.982C329.752 242.573 327.239 241 324.45 241H312.395C308.812 241 305.266 241.678 301.971 242.993L298.891 244.222C294.608 245.931 291.165 249.074 289.239 253.032L276.223 279.775C274.311 283.703 270.115 286.225 265.493 286.225H216.416C214.263 286.225 212.116 286.013 210.01 285.594C200.037 283.608 189.868 282.607 179.671 282.607H176.841L140.996 279.893H125.144C119.234 279.893 113.538 281.966 109.188 285.701Z" fill="#65747B"/>
<path d="M86.6564 304.388L86.4988 304.523L86.4834 304.73L85.5014 317.963L85.4615 318.5H86H355.086H355.586V318V309.818C355.586 303.426 354.249 297.097 351.652 291.186L331.268 244.781C330.124 242.177 327.422 240.5 324.45 240.5H312.395C308.749 240.5 305.14 241.19 301.786 242.529L298.706 243.758C294.313 245.511 290.773 248.738 288.789 252.814L275.773 279.556C273.951 283.3 269.938 285.725 265.493 285.725H216.416C214.296 285.725 212.181 285.517 210.107 285.104C200.102 283.111 189.901 282.107 179.671 282.107H176.86L141.033 279.395L141.015 279.393H140.996H125.144C119.118 279.393 113.306 281.507 108.862 285.322L86.6564 304.388Z" stroke="#04171F"/>
<path d="M96.2138 297.521L72 319H338.178L311.61 313.887L290.946 308.774L269.857 305.383C268.502 305.166 267.17 304.835 265.875 304.396L255.709 300.949C251.104 299.387 246.105 299.217 241.394 300.463C238.054 301.347 234.561 301.572 231.126 301.126L196.971 296.69H183.232C180.7 296.69 178.583 294.855 178.343 292.454L161.015 118.847C160.903 117.721 159.18 117.716 159.06 118.841L140.75 290.521C140.545 292.438 138.846 293.894 136.824 293.886L106.318 293.757C102.57 293.742 98.957 295.087 96.2138 297.521Z" fill="#34464E"/>
<path d="M311.49 314.373L311.503 314.376L311.516 314.378L332.934 318.5H73.3171L96.5456 297.895C99.1945 295.545 102.688 294.242 106.316 294.257L136.821 294.386C139.081 294.395 141.013 292.765 141.247 290.574L159.557 118.894C159.584 118.646 159.771 118.499 160.039 118.5C160.307 118.501 160.493 118.649 160.518 118.897L177.846 292.503C178.113 295.18 180.463 297.19 183.232 297.19H196.938L231.062 301.622C234.56 302.077 238.12 301.847 241.522 300.947C246.138 299.726 251.036 299.892 255.549 301.422L265.715 304.87C267.036 305.318 268.395 305.655 269.778 305.877L290.846 309.265L311.49 314.373Z" stroke="#04171F"/>
<path d="M51.7212 276.164L38 319H355.207L279.471 317.168H258.394C256.383 317.168 254.374 317.031 252.384 316.758L206.833 310.518C205.755 310.37 204.702 310.095 203.7 309.699L196.02 306.664C191.501 304.878 186.418 304.777 181.821 306.383C178.751 307.456 175.498 308.005 172.218 308.005H117.603C116.668 308.005 115.738 307.892 114.834 307.67L107.854 305.948C102.681 304.673 98.6549 300.888 97.333 296.057L81.277 237.381C80.8746 235.91 78.8375 235.507 77.8274 236.697L65.901 250.754C59.4896 258.311 54.6777 266.934 51.7212 276.164Z" fill="url(#paint0_linear)"/>
<path d="M313.871 318.5H38.6852L52.1974 276.317C55.1334 267.151 59.9125 258.586 66.2823 251.078L78.2087 237.021C78.9797 236.112 80.5069 236.461 80.7947 237.513L96.8508 296.189C98.2241 301.208 102.399 305.118 107.735 306.434L114.715 308.155C115.657 308.387 116.628 308.505 117.603 308.505H172.218C175.553 308.505 178.862 307.946 181.986 306.855C186.469 305.289 191.429 305.387 195.836 307.129L203.516 310.164C204.556 310.575 205.648 310.86 206.765 311.013L252.316 317.253C254.329 317.529 256.36 317.668 258.394 317.668H279.465H279.471L313.871 318.5Z" stroke="#04171F"/>
<rect width="1" height="1" transform="matrix(1 0 0 -1 60 319)" fill="white"/>
<rect width="1" height="1" transform="matrix(1 0 0 -1 81 319)" fill="white"/>
<rect width="1" height="1" transform="matrix(1 0 0 -1 103 319)" fill="white"/>
<rect width="1" height="1" transform="matrix(1 0 0 -1 124 319)" fill="white"/>
<rect width="1" height="1" transform="matrix(1 0 0 -1 145 319)" fill="white"/>
<rect width="1" height="1" transform="matrix(1 0 0 -1 166 319)" fill="white"/>
<rect width="1" height="1" transform="matrix(1 0 0 -1 188.008 319)" fill="white"/>
<rect width="1" height="1" transform="matrix(1 0 0 -1 209 319)" fill="white"/>
<rect width="1" height="1" transform="matrix(1 0 0 -1 230 319)" fill="white"/>
<rect width="1" height="1" transform="matrix(1 0 0 -1 252.017 319)" fill="white"/>
<rect width="1" height="1" transform="matrix(1 0 0 -1 273 319)" fill="white"/>
<rect width="1" height="1" transform="matrix(1 0 0 -1 294 319)" fill="white"/>
<rect width="1" height="1" transform="matrix(1 0 0 -1 316.025 319)" fill="white"/>
<rect x="20.5" y="0.5" width="335" height="93" fill="white" stroke="#04171F"/>
<path d="M39.178 22H41.012V13.859H44.022V12.242H36.154V13.859H39.178V22ZM45.0298 22H46.7798V18.689C46.7798 17.156 47.2768 16.47 48.2778 16.47C49.1458 16.47 49.5518 16.988 49.5518 18.136V22H51.2948V17.492C51.2948 15.889 50.3638 14.958 48.7958 14.958C48.0258 14.958 47.2418 15.238 46.7798 15.987V12.242H45.0298V22ZM56.0401 22.14C57.2231 22.14 58.1401 21.713 58.8821 20.894L57.6781 19.83C57.2301 20.348 56.6841 20.565 56.0541 20.565C55.0041 20.565 54.4441 19.998 54.3741 19.13H59.0851C59.1131 18.878 59.1271 18.633 59.1271 18.486C59.1271 16.533 58.0701 14.958 55.9281 14.958C53.6111 14.958 52.6381 16.792 52.6381 18.591C52.6381 20.425 53.6391 22.14 56.0401 22.14ZM54.3531 17.849C54.4371 17.128 54.9131 16.407 55.9631 16.407C56.8731 16.407 57.4681 17.037 57.4681 17.821V17.849H54.3531ZM67.8804 14.958C67.1244 14.958 66.3894 15.217 65.9064 16.008V15.098H64.1774V24.856H65.9064V21.083C66.3474 21.804 67.0824 22.14 67.8804 22.14C69.5114 22.14 70.8274 20.81 70.8274 18.556C70.8274 16.498 69.7074 14.958 67.8804 14.958ZM65.7524 18.556C65.7524 17.345 66.3964 16.554 67.4114 16.554C68.4264 16.554 69.0844 17.338 69.0844 18.556C69.0844 19.767 68.4264 20.544 67.4114 20.544C66.3964 20.544 65.7524 19.76 65.7524 18.556ZM73.8605 22.14C74.1545 22.14 74.5605 22.077 74.9455 21.923V20.446C74.7635 20.502 74.5955 20.53 74.4485 20.53C74.1545 20.53 73.9445 20.383 73.9445 19.998V12.242H72.2155V20.341C72.2155 21.594 72.9155 22.14 73.8605 22.14ZM80.6257 22H82.2217V17.639C82.2217 15.973 81.1017 14.958 79.1977 14.958C78.0077 14.958 76.8387 15.357 76.0197 16.26L77.2727 17.317C77.8887 16.673 78.4627 16.47 79.0717 16.47C79.9957 16.47 80.4857 16.918 80.4857 17.639V17.807H78.4977C77.8537 17.807 77.2657 17.919 76.8107 18.185C76.2577 18.5 75.9077 19.081 75.9077 19.865C75.9077 21.237 77.0207 22.14 78.5397 22.14C79.2817 22.14 80.0167 21.902 80.5137 21.181L80.6257 22ZM77.6507 19.872C77.6507 19.62 77.7487 19.424 77.9377 19.291C78.1477 19.144 78.4417 19.102 78.7497 19.102H80.4857V19.165C80.4857 20.075 79.7157 20.733 78.7917 20.733C78.0917 20.733 77.6507 20.397 77.6507 19.872ZM86.8962 22.14C88.2892 22.14 89.3602 21.468 89.8642 20.096L88.3382 19.501C88.1142 20.166 87.6802 20.621 86.8962 20.621C85.7482 20.621 85.2722 19.599 85.2722 18.542C85.2722 17.499 85.7482 16.47 86.8962 16.47C87.6802 16.47 88.1142 16.932 88.3382 17.59L89.8642 16.995C89.3602 15.623 88.2892 14.958 86.8962 14.958C84.6562 14.958 83.5362 16.701 83.5362 18.542C83.5362 20.397 84.6562 22.14 86.8962 22.14ZM94.2804 22.14C95.4634 22.14 96.3804 21.713 97.1224 20.894L95.9184 19.83C95.4704 20.348 94.9244 20.565 94.2944 20.565C93.2444 20.565 92.6844 19.998 92.6144 19.13H97.3254C97.3534 18.878 97.3674 18.633 97.3674 18.486C97.3674 16.533 96.3104 14.958 94.1684 14.958C91.8514 14.958 90.8784 16.792 90.8784 18.591C90.8784 20.425 91.8794 22.14 94.2804 22.14ZM92.5934 17.849C92.6774 17.128 93.1534 16.407 94.2034 16.407C95.1134 16.407 95.7084 17.037 95.7084 17.821V17.849H92.5934ZM101.168 22.14C102.862 22.14 103.989 21.209 103.989 19.823C103.989 18.206 102.519 17.856 101.406 17.583C100.51 17.366 100.174 17.212 100.174 16.855C100.174 16.498 100.566 16.274 101.091 16.274C101.693 16.274 102.253 16.568 102.589 17.065L103.716 16.232C103.191 15.406 102.253 14.958 101.14 14.958C99.5929 14.958 98.5499 15.784 98.5499 17.016C98.5499 18.43 99.8169 18.836 100.909 19.13C101.658 19.333 102.281 19.501 102.281 20.012C102.281 20.425 101.868 20.733 101.182 20.733C100.307 20.733 99.7329 20.201 99.3969 19.683L98.2139 20.719C98.6899 21.342 99.6279 22.14 101.168 22.14ZM112.164 22.14C114.159 22.14 115.629 20.614 115.629 18.542C115.629 16.463 114.173 14.958 112.164 14.958C110.141 14.958 108.692 16.463 108.692 18.542C108.692 20.628 110.162 22.14 112.164 22.14ZM110.428 18.542C110.428 17.254 111.072 16.484 112.164 16.484C113.249 16.484 113.886 17.247 113.886 18.542C113.886 19.83 113.249 20.607 112.164 20.607C111.079 20.607 110.428 19.83 110.428 18.542ZM117.664 22H119.407V16.449H120.877V15.098H119.407V14.377C119.407 13.887 119.575 13.551 120.023 13.551C120.233 13.551 120.443 13.628 120.625 13.726L121.185 12.403C120.793 12.221 120.401 12.102 119.827 12.102C118.665 12.102 117.678 12.592 117.678 14.37V15.098H116.411V16.449H117.664V22ZM128.425 22.14C128.824 22.14 129.223 22.07 129.601 21.93V20.593C129.328 20.67 129.083 20.712 128.901 20.712C128.278 20.712 128.103 20.292 128.103 19.494V16.449H129.601V15.098H128.103V12.543L126.339 13.495V15.098H125.079V16.449H126.339V19.977C126.339 21.566 127.312 22.14 128.425 22.14ZM130.958 22H132.708V18.689C132.708 17.156 133.205 16.47 134.206 16.47C135.074 16.47 135.48 16.988 135.48 18.136V22H137.223V17.492C137.223 15.889 136.292 14.958 134.724 14.958C133.954 14.958 133.17 15.238 132.708 15.987V12.242H130.958V22ZM141.968 22.14C143.151 22.14 144.068 21.713 144.81 20.894L143.606 19.83C143.158 20.348 142.612 20.565 141.982 20.565C140.932 20.565 140.372 19.998 140.302 19.13H145.013C145.041 18.878 145.055 18.633 145.055 18.486C145.055 16.533 143.998 14.958 141.856 14.958C139.539 14.958 138.566 16.792 138.566 18.591C138.566 20.425 139.567 22.14 141.968 22.14ZM140.281 17.849C140.365 17.128 140.841 16.407 141.891 16.407C142.801 16.407 143.396 17.037 143.396 17.821V17.849H140.281ZM153.206 22.14C154.389 22.14 155.306 21.713 156.048 20.894L154.844 19.83C154.396 20.348 153.85 20.565 153.22 20.565C152.17 20.565 151.61 19.998 151.54 19.13H156.251C156.279 18.878 156.293 18.633 156.293 18.486C156.293 16.533 155.236 14.958 153.094 14.958C150.777 14.958 149.804 16.792 149.804 18.591C149.804 20.425 150.805 22.14 153.206 22.14ZM151.519 17.849C151.603 17.128 152.079 16.407 153.129 16.407C154.039 16.407 154.634 17.037 154.634 17.821V17.849H151.519ZM156.921 22H158.958L160.435 19.676L161.884 22H163.949L161.569 18.521L163.949 15.098H161.898L160.435 17.38L158.979 15.098H156.921L159.273 18.521L156.921 22ZM167.809 22.14C169.804 22.14 171.274 20.614 171.274 18.542C171.274 16.463 169.818 14.958 167.809 14.958C165.786 14.958 164.337 16.463 164.337 18.542C164.337 20.628 165.807 22.14 167.809 22.14ZM166.073 18.542C166.073 17.254 166.717 16.484 167.809 16.484C168.894 16.484 169.531 17.247 169.531 18.542C169.531 19.83 168.894 20.607 167.809 20.607C166.724 20.607 166.073 19.83 166.073 18.542ZM175.33 22.14C176.086 22.14 176.821 21.881 177.304 21.09V22H179.033V12.242H177.304V16.015C176.863 15.294 176.128 14.958 175.33 14.958C173.699 14.958 172.383 16.288 172.383 18.542C172.383 20.6 173.503 22.14 175.33 22.14ZM174.126 18.542C174.126 17.331 174.784 16.554 175.799 16.554C176.814 16.554 177.458 17.338 177.458 18.542C177.458 19.753 176.814 20.544 175.799 20.544C174.784 20.544 174.126 19.76 174.126 18.542ZM183.186 22.14C184.005 22.14 184.726 21.846 185.188 21.132V22H186.924V15.098H185.188V17.842C185.188 19.529 184.929 20.621 183.704 20.621C182.682 20.621 182.409 19.935 182.409 18.976V15.098H180.666V19.41C180.666 21.076 181.485 22.14 183.186 22.14ZM191.047 22.14C192.741 22.14 193.868 21.209 193.868 19.823C193.868 18.206 192.398 17.856 191.285 17.583C190.389 17.366 190.053 17.212 190.053 16.855C190.053 16.498 190.445 16.274 190.97 16.274C191.572 16.274 192.132 16.568 192.468 17.065L193.595 16.232C193.07 15.406 192.132 14.958 191.019 14.958C189.472 14.958 188.429 15.784 188.429 17.016C188.429 18.43 189.696 18.836 190.788 19.13C191.537 19.333 192.16 19.501 192.16 20.012C192.16 20.425 191.747 20.733 191.061 20.733C190.186 20.733 189.612 20.201 189.276 19.683L188.093 20.719C188.569 21.342 189.507 22.14 191.047 22.14Z" fill="black"/>
<path d="M54.366 50H60.696V48.908H55.866L60.552 42.656V41.636H54.654V42.728H59.04L54.366 48.974V50ZM65.7521 50H66.8321V46.28C66.8321 44.828 65.9201 43.982 64.3481 43.982C63.3341 43.982 62.4221 44.324 61.7561 45.098L62.6021 45.812C63.1301 45.212 63.6581 44.996 64.2641 44.996C65.1821 44.996 65.6681 45.47 65.6681 46.28V46.472H63.8801C63.3041 46.472 62.7701 46.568 62.3621 46.82C61.9241 47.09 61.6301 47.552 61.6301 48.212C61.6301 49.352 62.5181 50.102 63.8561 50.102C64.6241 50.102 65.2841 49.814 65.6921 49.202L65.7521 50ZM62.8061 48.224C62.8061 47.936 62.9141 47.72 63.1121 47.576C63.3641 47.402 63.7241 47.354 64.0481 47.354H65.6681V47.528C65.6681 48.464 64.9001 49.148 63.9881 49.148C63.2621 49.148 62.8061 48.788 62.8061 48.224ZM68.392 50H69.574V47.306C69.574 46.64 69.61 46.376 69.682 46.124C69.91 45.428 70.468 45.146 71.014 45.146C71.26 45.146 71.554 45.224 71.74 45.326L72.316 44.27C71.956 44.06 71.626 43.982 71.284 43.982C70.666 43.982 69.964 44.33 69.574 44.918V44.084H68.392V50ZM77.0607 50H78.1407V46.28C78.1407 44.828 77.2287 43.982 75.6567 43.982C74.6427 43.982 73.7307 44.324 73.0647 45.098L73.9107 45.812C74.4387 45.212 74.9667 44.996 75.5727 44.996C76.4907 44.996 76.9767 45.47 76.9767 46.28V46.472H75.1887C74.6127 46.472 74.0787 46.568 73.6707 46.82C73.2327 47.09 72.9387 47.552 72.9387 48.212C72.9387 49.352 73.8267 50.102 75.1647 50.102C75.9327 50.102 76.5927 49.814 77.0007 49.202L77.0607 50ZM74.1147 48.224C74.1147 47.936 74.2227 47.72 74.4207 47.576C74.6727 47.402 75.0327 47.354 75.3567 47.354H76.9767V47.528C76.9767 48.464 76.2087 49.148 75.2967 49.148C74.5707 49.148 74.1147 48.788 74.1147 48.224Z" fill="black"/>
<path d="M36 41C36.7879 41 37.5681 41.1552 38.2961 41.4567C39.0241 41.7583 39.6855 42.2002 40.2426 42.7574C40.7998 43.3145 41.2417 43.9759 41.5433 44.7039C41.8448 45.4319 42 46.2121 42 47C42 47.7879 41.8448 48.5681 41.5433 49.2961C41.2417 50.0241 40.7998 50.6855 40.2426 51.2426C39.6855 51.7998 39.0241 52.2417 38.2961 52.5433C37.5681 52.8448 36.7879 53 36 53L36 41Z" fill="#04171F"/>
<path d="M137.899 50H139.111V46.448H140.485C142.297 46.448 143.293 45.59 143.293 44.018C143.293 42.452 142.309 41.636 140.485 41.636H137.899V50ZM139.111 45.362V42.728H140.359C141.475 42.728 142.069 43.13 142.069 44.036C142.069 44.966 141.433 45.362 140.359 45.362H139.111ZM146.777 50.102C148.451 50.102 149.675 48.812 149.675 47.036C149.675 45.26 148.463 43.982 146.777 43.982C145.067 43.982 143.861 45.26 143.861 47.036C143.861 48.824 145.091 50.102 146.777 50.102ZM145.031 47.036C145.031 45.794 145.703 45.008 146.777 45.008C147.839 45.008 148.499 45.788 148.499 47.036C148.499 48.278 147.839 49.064 146.777 49.064C145.703 49.064 145.031 48.278 145.031 47.036ZM152.288 50.102C152.534 50.102 152.864 50.048 153.158 49.928V48.932C152.978 48.986 152.81 49.022 152.672 49.022C152.372 49.022 152.18 48.848 152.18 48.428V41.636H151.01V48.656C151.01 49.658 151.538 50.102 152.288 50.102ZM158.185 50H159.265V46.28C159.265 44.828 158.353 43.982 156.781 43.982C155.767 43.982 154.855 44.324 154.189 45.098L155.035 45.812C155.563 45.212 156.091 44.996 156.697 44.996C157.615 44.996 158.101 45.47 158.101 46.28V46.472H156.313C155.737 46.472 155.203 46.568 154.795 46.82C154.357 47.09 154.063 47.552 154.063 48.212C154.063 49.352 154.951 50.102 156.289 50.102C157.057 50.102 157.717 49.814 158.125 49.202L158.185 50ZM155.239 48.224C155.239 47.936 155.347 47.72 155.545 47.576C155.797 47.402 156.157 47.354 156.481 47.354H158.101V47.528C158.101 48.464 157.333 49.148 156.421 49.148C155.695 49.148 155.239 48.788 155.239 48.224Z" fill="black"/>
<path d="M119 41C119.788 41 120.568 41.1552 121.296 41.4567C122.024 41.7583 122.685 42.2002 123.243 42.7574C123.8 43.3145 124.242 43.9759 124.543 44.7039C124.845 45.4319 125 46.2121 125 47C125 47.7879 124.845 48.5681 124.543 49.2961C124.242 50.0241 123.8 50.6855 123.243 51.2426C122.685 51.7998 122.024 52.2417 121.296 52.5433C120.568 52.8448 119.788 53 119 53L119 41Z" fill="#34464E"/>
<path d="M219.898 50H222.982C224.698 50 225.682 49.118 225.682 47.606C225.682 46.532 225.19 45.806 224.242 45.512C224.878 45.188 225.25 44.54 225.25 43.73C225.25 42.422 224.272 41.636 222.664 41.636H219.898V50ZM221.122 48.878V46.226H223.078C223.954 46.226 224.47 46.712 224.47 47.552C224.47 48.434 223.942 48.878 222.892 48.878H221.122ZM221.122 45.128V42.758H222.664C223.534 42.758 224.038 43.184 224.038 43.916C224.038 44.672 223.546 45.128 222.796 45.128H221.122ZM229.735 50H236.065V48.908H231.235L235.921 42.656V41.636H230.023V42.728H234.409L229.735 48.974V50ZM239.733 50.102C241.407 50.102 242.631 48.812 242.631 47.036C242.631 45.26 241.419 43.982 239.733 43.982C238.023 43.982 236.817 45.26 236.817 47.036C236.817 48.824 238.047 50.102 239.733 50.102ZM237.987 47.036C237.987 45.794 238.659 45.008 239.733 45.008C240.795 45.008 241.455 45.788 241.455 47.036C241.455 48.278 240.795 49.064 239.733 49.064C238.659 49.064 237.987 48.278 237.987 47.036ZM243.996 50H245.172V47.084C245.172 45.638 245.682 44.996 246.624 44.996C247.464 44.996 247.878 45.512 247.878 46.64V50H249.054V46.208C249.054 44.756 248.268 43.982 246.96 43.982C246.228 43.982 245.568 44.252 245.172 44.852V44.084H243.996V50ZM253.185 50.102C254.175 50.102 254.907 49.772 255.561 49.076L254.745 48.356C254.313 48.83 253.833 49.04 253.197 49.04C252.177 49.04 251.589 48.428 251.535 47.414H255.723C255.747 47.228 255.759 46.964 255.759 46.874C255.759 45.356 254.919 43.982 253.089 43.982C251.235 43.982 250.365 45.47 250.365 47.084C250.365 48.704 251.259 50.102 253.185 50.102ZM251.523 46.544C251.595 45.698 252.123 44.96 253.119 44.96C254.115 44.96 254.637 45.692 254.637 46.436L254.631 46.544H251.523Z" fill="black"/>
<path d="M200.999 41C202.59 41 204.116 41.6321 205.242 42.7574C206.367 43.8826 206.999 45.4087 206.999 47C206.999 48.5913 206.367 50.1174 205.242 51.2426C204.116 52.3679 202.59 53 200.999 53L200.999 41Z" fill="#65747B"/>
<path d="M54.9 74H56.124V70.424H56.922H57.468L59.532 74H60.942L58.716 70.262C59.748 69.938 60.294 69.17 60.294 68.012C60.294 66.542 59.436 65.636 57.486 65.636H54.9V74ZM56.124 69.344V66.728H57.36C58.332 66.728 59.07 67.04 59.07 68.024C59.07 69.008 58.356 69.344 57.36 69.344H56.124ZM64.3507 74.102C65.3407 74.102 66.0727 73.772 66.7267 73.076L65.9107 72.356C65.4787 72.83 64.9987 73.04 64.3627 73.04C63.3427 73.04 62.7547 72.428 62.7007 71.414H66.8887C66.9127 71.228 66.9247 70.964 66.9247 70.874C66.9247 69.356 66.0847 67.982 64.2547 67.982C62.4007 67.982 61.5307 69.47 61.5307 71.084C61.5307 72.704 62.4247 74.102 64.3507 74.102ZM62.6887 70.544C62.7607 69.698 63.2887 68.96 64.2847 68.96C65.2807 68.96 65.8027 69.692 65.8027 70.436L65.7967 70.544H62.6887ZM70.2728 74.102C71.6588 74.102 72.5768 73.352 72.5768 72.212C72.5768 70.862 71.3648 70.574 70.3808 70.34C69.5708 70.148 69.1868 69.974 69.1868 69.56C69.1868 69.14 69.6128 68.9 70.1648 68.9C70.7408 68.9 71.2328 69.17 71.5208 69.632L72.3548 69.086C71.9168 68.366 71.1368 67.982 70.2008 67.982C68.9528 67.982 68.1008 68.654 68.1008 69.674C68.1008 70.778 69.0728 71.126 70.0448 71.378C70.7888 71.576 71.4248 71.744 71.4248 72.338C71.4248 72.824 70.9868 73.136 70.2848 73.136C69.4808 73.136 68.9048 72.692 68.6048 72.14L67.7948 72.836C68.1968 73.466 69.0248 74.102 70.2728 74.102ZM76.1433 74.102C76.4493 74.102 76.7793 74.054 77.0913 73.94V73.028C76.8453 73.1 76.6113 73.136 76.4553 73.136C75.9213 73.136 75.7473 72.77 75.7473 72.098V68.996H77.0913V68.084H75.7473V65.912L74.5593 66.572V68.084H73.3833V68.996H74.5593V72.416C74.5593 73.628 75.2613 74.102 76.1433 74.102ZM84.0984 74.102C85.7724 74.102 86.9964 72.812 86.9964 71.036C86.9964 69.26 85.7844 67.982 84.0984 67.982C82.3884 67.982 81.1824 69.26 81.1824 71.036C81.1824 72.824 82.4124 74.102 84.0984 74.102ZM82.3524 71.036C82.3524 69.794 83.0244 69.008 84.0984 69.008C85.1604 69.008 85.8204 69.788 85.8204 71.036C85.8204 72.278 85.1604 73.064 84.0984 73.064C83.0244 73.064 82.3524 72.278 82.3524 71.036ZM88.8853 74H90.0673V68.996H91.4053V68.084H90.0673V67.364C90.0673 66.836 90.2713 66.512 90.7453 66.512C90.9493 66.512 91.1533 66.578 91.3273 66.668L91.7113 65.78C91.3993 65.624 91.0693 65.534 90.6193 65.534C89.6593 65.534 88.8973 65.96 88.8973 67.364V68.084H87.7153V68.996H88.8853V74ZM95.6813 74H96.9053V65.636H95.6813V74ZM100.613 74.102C101.999 74.102 102.917 73.352 102.917 72.212C102.917 70.862 101.705 70.574 100.721 70.34C99.9107 70.148 99.5267 69.974 99.5267 69.56C99.5267 69.14 99.9527 68.9 100.505 68.9C101.081 68.9 101.573 69.17 101.861 69.632L102.695 69.086C102.257 68.366 101.477 67.982 100.541 67.982C99.2927 67.982 98.4407 68.654 98.4407 69.674C98.4407 70.778 99.4127 71.126 100.385 71.378C101.129 71.576 101.765 71.744 101.765 72.338C101.765 72.824 101.327 73.136 100.625 73.136C99.8207 73.136 99.2447 72.692 98.9447 72.14L98.1347 72.836C98.5367 73.466 99.3647 74.102 100.613 74.102ZM106.483 74.102C106.789 74.102 107.119 74.054 107.431 73.94V73.028C107.185 73.1 106.951 73.136 106.795 73.136C106.261 73.136 106.087 72.77 106.087 72.098V68.996H107.431V68.084H106.087V65.912L104.899 66.572V68.084H103.723V68.996H104.899V72.416C104.899 73.628 105.601 74.102 106.483 74.102ZM108.681 74H109.863V71.306C109.863 70.64 109.899 70.376 109.971 70.124C110.199 69.428 110.757 69.146 111.303 69.146C111.549 69.146 111.843 69.224 112.029 69.326L112.605 68.27C112.245 68.06 111.915 67.982 111.573 67.982C110.955 67.982 110.253 68.33 109.863 68.918V68.084H108.681V74ZM113.626 74H114.796V68.084H113.626V74ZM113.542 67.064H114.874V65.636H113.542V67.064ZM120.279 74H121.359V70.28C121.359 68.828 120.447 67.982 118.875 67.982C117.861 67.982 116.949 68.324 116.283 69.098L117.129 69.812C117.657 69.212 118.185 68.996 118.791 68.996C119.709 68.996 120.195 69.47 120.195 70.28V70.472H118.407C117.831 70.472 117.297 70.568 116.889 70.82C116.451 71.09 116.157 71.552 116.157 72.212C116.157 73.352 117.045 74.102 118.383 74.102C119.151 74.102 119.811 73.814 120.219 73.202L120.279 74ZM117.333 72.224C117.333 71.936 117.441 71.72 117.639 71.576C117.891 71.402 118.251 71.354 118.575 71.354H120.195V71.528C120.195 72.464 119.427 73.148 118.515 73.148C117.789 73.148 117.333 72.788 117.333 72.224Z" fill="black"/>
<path d="M36 65C36.7879 65 37.5681 65.1552 38.2961 65.4567C39.0241 65.7583 39.6855 66.2002 40.2426 66.7574C40.7998 67.3145 41.2417 67.9759 41.5433 68.7039C41.8448 69.4319 42 70.2121 42 71C42 71.7879 41.8448 72.5681 41.5433 73.2961C41.2417 74.0241 40.7998 74.6855 40.2426 75.2426C39.6855 75.7998 39.0241 76.2417 38.2961 76.5433C37.5681 76.8448 36.7879 77 36 77L36 65Z" fill="#98A2A7"/>
<path d="M181.899 74H183.123V70.424H183.921H184.467L186.531 74H187.941L185.715 70.262C186.747 69.938 187.293 69.17 187.293 68.012C187.293 66.542 186.435 65.636 184.485 65.636H181.899V74ZM183.123 69.344V66.728H184.359C185.331 66.728 186.069 67.04 186.069 68.024C186.069 69.008 185.355 69.344 184.359 69.344H183.123ZM189.039 74H190.209V68.084H189.039V74ZM188.955 67.064H190.287V65.636H188.955V67.064ZM193.683 74H194.661L197.073 68.084H195.801L194.169 72.482L192.555 68.084H191.265L193.683 74ZM200.525 74.102C201.515 74.102 202.247 73.772 202.901 73.076L202.085 72.356C201.653 72.83 201.173 73.04 200.537 73.04C199.517 73.04 198.929 72.428 198.875 71.414H203.063C203.087 71.228 203.099 70.964 203.099 70.874C203.099 69.356 202.259 67.982 200.429 67.982C198.575 67.982 197.705 69.47 197.705 71.084C197.705 72.704 198.599 74.102 200.525 74.102ZM198.863 70.544C198.935 69.698 199.463 68.96 200.459 68.96C201.455 68.96 201.977 69.692 201.977 70.436L201.971 70.544H198.863ZM204.45 74H205.632V71.306C205.632 70.64 205.668 70.376 205.74 70.124C205.968 69.428 206.526 69.146 207.072 69.146C207.318 69.146 207.612 69.224 207.798 69.326L208.374 68.27C208.014 68.06 207.684 67.982 207.342 67.982C206.724 67.982 206.022 68.33 205.632 68.918V68.084H204.45V74ZM216.376 74H217.456V70.28C217.456 68.828 216.544 67.982 214.972 67.982C213.958 67.982 213.046 68.324 212.38 69.098L213.226 69.812C213.754 69.212 214.282 68.996 214.888 68.996C215.806 68.996 216.292 69.47 216.292 70.28V70.472H214.504C213.928 70.472 213.394 70.568 212.986 70.82C212.548 71.09 212.254 71.552 212.254 72.212C212.254 73.352 213.142 74.102 214.48 74.102C215.248 74.102 215.908 73.814 216.316 73.202L216.376 74ZM213.43 72.224C213.43 71.936 213.538 71.72 213.736 71.576C213.988 71.402 214.348 71.354 214.672 71.354H216.292V71.528C216.292 72.464 215.524 73.148 214.612 73.148C213.886 73.148 213.43 72.788 213.43 72.224ZM219.028 74H220.204V71.084C220.204 69.638 220.714 68.996 221.656 68.996C222.496 68.996 222.91 69.512 222.91 70.64V74H224.086V70.208C224.086 68.756 223.3 67.982 221.992 67.982C221.26 67.982 220.6 68.252 220.204 68.852V68.084H219.028V74ZM228.025 74.102C228.805 74.102 229.447 73.808 229.855 73.184V74H231.019V65.636H229.855V68.924C229.471 68.324 228.817 67.982 228.025 67.982C226.567 67.982 225.391 69.152 225.391 71.036C225.391 72.782 226.435 74.102 228.025 74.102ZM226.573 71.036C226.573 69.86 227.263 69.05 228.271 69.05C229.273 69.05 229.957 69.86 229.957 71.036C229.957 72.212 229.273 73.022 228.271 73.022C227.263 73.022 226.573 72.218 226.573 71.036ZM238.768 74.102C240.358 74.102 241.402 72.782 241.402 71.036C241.402 69.152 240.226 67.982 238.768 67.982C237.976 67.982 237.322 68.324 236.938 68.924V65.636H235.774V74H236.938V73.184C237.346 73.808 237.988 74.102 238.768 74.102ZM236.836 71.036C236.836 69.86 237.52 69.05 238.522 69.05C239.53 69.05 240.22 69.86 240.22 71.036C240.22 72.218 239.53 73.022 238.522 73.022C237.52 73.022 236.836 72.212 236.836 71.036ZM245.398 74.102C247.072 74.102 248.296 72.812 248.296 71.036C248.296 69.26 247.084 67.982 245.398 67.982C243.688 67.982 242.482 69.26 242.482 71.036C242.482 72.824 243.712 74.102 245.398 74.102ZM243.652 71.036C243.652 69.794 244.324 69.008 245.398 69.008C246.46 69.008 247.12 69.788 247.12 71.036C247.12 72.278 246.46 73.064 245.398 73.064C244.324 73.064 243.652 72.278 243.652 71.036ZM249.649 74H250.831V71.306C250.831 70.64 250.867 70.376 250.939 70.124C251.167 69.428 251.725 69.146 252.271 69.146C252.517 69.146 252.811 69.224 252.997 69.326L253.573 68.27C253.213 68.06 252.883 67.982 252.541 67.982C251.923 67.982 251.221 68.33 250.831 68.918V68.084H249.649V74ZM256.642 74.102C257.422 74.102 258.064 73.808 258.472 73.184V74H259.636V65.636H258.472V68.924C258.088 68.324 257.434 67.982 256.642 67.982C255.184 67.982 254.008 69.152 254.008 71.036C254.008 72.782 255.052 74.102 256.642 74.102ZM255.19 71.036C255.19 69.86 255.88 69.05 256.888 69.05C257.89 69.05 258.574 69.86 258.574 71.036C258.574 72.212 257.89 73.022 256.888 73.022C255.88 73.022 255.19 72.218 255.19 71.036ZM263.83 74.102C264.82 74.102 265.552 73.772 266.206 73.076L265.39 72.356C264.958 72.83 264.478 73.04 263.842 73.04C262.822 73.04 262.234 72.428 262.18 71.414H266.368C266.392 71.228 266.404 70.964 266.404 70.874C266.404 69.356 265.564 67.982 263.734 67.982C261.88 67.982 261.01 69.47 261.01 71.084C261.01 72.704 261.904 74.102 263.83 74.102ZM262.168 70.544C262.24 69.698 262.768 68.96 263.764 68.96C264.76 68.96 265.282 69.692 265.282 70.436L265.276 70.544H262.168ZM267.754 74H268.936V71.306C268.936 70.64 268.972 70.376 269.044 70.124C269.272 69.428 269.83 69.146 270.376 69.146C270.622 69.146 270.916 69.224 271.102 69.326L271.678 68.27C271.318 68.06 270.988 67.982 270.646 67.982C270.028 67.982 269.326 68.33 268.936 68.918V68.084H267.754V74ZM279.681 74H280.761V70.28C280.761 68.828 279.849 67.982 278.277 67.982C277.263 67.982 276.351 68.324 275.685 69.098L276.531 69.812C277.059 69.212 277.587 68.996 278.193 68.996C279.111 68.996 279.597 69.47 279.597 70.28V70.472H277.809C277.233 70.472 276.699 70.568 276.291 70.82C275.853 71.09 275.559 71.552 275.559 72.212C275.559 73.352 276.447 74.102 277.785 74.102C278.553 74.102 279.213 73.814 279.621 73.202L279.681 74ZM276.735 72.224C276.735 71.936 276.843 71.72 277.041 71.576C277.293 71.402 277.653 71.354 277.977 71.354H279.597V71.528C279.597 72.464 278.829 73.148 277.917 73.148C277.191 73.148 276.735 72.788 276.735 72.224ZM282.321 74H283.503V71.306C283.503 70.64 283.539 70.376 283.611 70.124C283.839 69.428 284.397 69.146 284.943 69.146C285.189 69.146 285.483 69.224 285.669 69.326L286.245 68.27C285.885 68.06 285.555 67.982 285.213 67.982C284.595 67.982 283.893 68.33 283.503 68.918V68.084H282.321V74ZM289.506 74.102C290.496 74.102 291.228 73.772 291.882 73.076L291.066 72.356C290.634 72.83 290.154 73.04 289.518 73.04C288.498 73.04 287.91 72.428 287.856 71.414H292.044C292.068 71.228 292.08 70.964 292.08 70.874C292.08 69.356 291.24 67.982 289.41 67.982C287.556 67.982 286.686 69.47 286.686 71.084C286.686 72.704 287.58 74.102 289.506 74.102ZM287.844 70.544C287.916 69.698 288.444 68.96 289.44 68.96C290.436 68.96 290.958 69.692 290.958 70.436L290.952 70.544H287.844ZM297.294 74H298.374V70.28C298.374 68.828 297.462 67.982 295.89 67.982C294.876 67.982 293.964 68.324 293.298 69.098L294.144 69.812C294.672 69.212 295.2 68.996 295.806 68.996C296.724 68.996 297.21 69.47 297.21 70.28V70.472H295.422C294.846 70.472 294.312 70.568 293.904 70.82C293.466 71.09 293.172 71.552 293.172 72.212C293.172 73.352 294.06 74.102 295.398 74.102C296.166 74.102 296.826 73.814 297.234 73.202L297.294 74ZM294.348 72.224C294.348 71.936 294.456 71.72 294.654 71.576C294.906 71.402 295.266 71.354 295.59 71.354H297.21V71.528C297.21 72.464 296.442 73.148 295.53 73.148C294.804 73.148 294.348 72.788 294.348 72.224ZM301.932 74.102C303.318 74.102 304.236 73.352 304.236 72.212C304.236 70.862 303.024 70.574 302.04 70.34C301.23 70.148 300.846 69.974 300.846 69.56C300.846 69.14 301.272 68.9 301.824 68.9C302.4 68.9 302.892 69.17 303.18 69.632L304.014 69.086C303.576 68.366 302.796 67.982 301.86 67.982C300.612 67.982 299.76 68.654 299.76 69.674C299.76 70.778 300.732 71.126 301.704 71.378C302.448 71.576 303.084 71.744 303.084 72.338C303.084 72.824 302.646 73.136 301.944 73.136C301.14 73.136 300.564 72.692 300.264 72.14L299.454 72.836C299.856 73.466 300.684 74.102 301.932 74.102Z" fill="black"/>
<path d="M163 65C164.591 65 166.117 65.6321 167.243 66.7574C168.368 67.8826 169 69.4087 169 71C169 72.5913 168.368 74.1174 167.243 75.2426C166.117 76.3679 164.591 77 163 77L163 65Z" fill="#CAD0D3"/>
<defs>
<linearGradient id="paint0_linear" x1="196.604" y1="236" x2="196.604" y2="319" gradientUnits="userSpaceOnUse">
<stop stop-color="#04171F"/>
<stop offset="1" stop-color="#04171F"/>
</linearGradient>
</defs>
</svg>
