<svg width="327" height="678" viewBox="0 0 327 678" fill="none" xmlns="http://www.w3.org/2000/svg">
<path d="M287 348L287 6C287 2.68631 289.686 -1.17422e-07 293 -2.62268e-07C296.314 -4.07115e-07 299 2.68631 299 6L299 348L287 348Z" fill="#004FED"/>
<path d="M235 348L235 8C235 4.68628 237.686 2.00003 241 2.00003C244.314 2.00003 247 4.68631 247 8.00003L247 348L235 348Z" fill="#004FED"/>
<path d="M241 678C237.686 678 235 675.314 235 672L235 349L247 349L247 672C247 675.314 244.314 678 241 678Z" fill="#131313"/>
<path d="M183 348L183 20C183 16.6863 185.686 14 189 14C192.314 14 195 16.6863 195 20L195 348L183 348Z" fill="#004FED"/>
<path d="M189 670C185.686 670 183 667.314 183 664L183 349L195 349L195 664C195 667.314 192.314 670 189 670Z" fill="#131313"/>
<path d="M131 348L131 37C131 33.6863 133.686 31 137 31C140.314 31 143 33.6863 143 37L143 348L131 348Z" fill="#004FED"/>
<path d="M137 678C133.686 678 131 675.314 131 672L131 349L143 349L143 672C143 675.314 140.314 678 137 678Z" fill="#131313"/>
<path d="M79 348L79 73C79 69.6863 81.6863 67 85 67C88.3137 67 91 69.6863 91 73L91 348L79 348Z" fill="#004FED"/>
<path d="M85 552C81.6863 552 79 549.314 79 546L79 349L91 349L91 546C91 549.314 88.3137 552 85 552Z" fill="#131313"/>
<path d="M27 348L27 218C27 214.686 29.6863 212 33 212C36.3137 212 39 214.686 39 218L39 348L27 348Z" fill="#004FED"/>
<path d="M39 349L39 402C39 405.314 36.3137 408 33 408C29.6863 408 27 405.314 27 402L27 349L39 349Z" fill="#131313"/>
<path d="M287 349H299V658C299 662.418 302.582 666 307 666C311.418 666 315 662.418 315 658V416C315 412.686 317.686 410 321 410C324.314 410 327 412.686 327 416V658C327 669.046 318.046 678 307 678C295.954 678 287 669.046 287 658V349Z" fill="#131313"/>
<path d="M5.4865 384.272C8.4305 384.272 10.2385 381.936 10.2385 378.304C10.2385 374.624 8.3825 372.352 5.5025 372.352C2.6705 372.352 0.7665 374.656 0.7665 378.304C0.7665 381.936 2.6225 384.272 5.4865 384.272ZM5.5025 382.544C3.7425 382.544 2.9425 380.864 2.9425 378.304C2.9425 375.728 3.7425 374.048 5.5025 374.048C7.2785 374.048 8.0625 375.744 8.0625 378.304C8.0625 380.896 7.3105 382.544 5.5025 382.544Z" fill="#131313"/>
<rect x="6" y="349" width="0.999987" height="293" transform="rotate(-90 6 349)" fill="#131313"/>
<rect x="5" y="348" width="1" height="16" fill="#131313"/>
<path d="M281.238 335.058C281.238 332.748 280.076 331.012 278.004 331.012C275.75 331.012 275.176 332.79 274.756 334.722C274.42 336.332 274.168 337.34 273.202 337.34C272.376 337.34 271.886 336.57 271.886 335.408C271.886 334.176 272.46 333.406 273.482 333.252L273.482 331.362C271.564 331.558 270.402 332.958 270.402 335.38C270.402 337.606 271.396 339.23 273.37 339.23C275.456 339.23 275.974 337.606 276.408 335.66C276.786 334.008 277.038 332.972 278.158 332.972C279.194 332.972 279.684 333.91 279.684 335.044C279.684 336.64 279.012 337.522 277.668 337.662L277.668 339.608C279.796 339.524 281.238 337.914 281.238 335.058ZM272.306 329.673L272.306 327.853L270.584 327.853L270.584 329.673L272.306 329.673ZM281 329.645L281 327.867L273.524 327.867L273.524 329.645L281 329.645ZM281.238 323.258C281.238 321.41 280.412 320.066 278.844 320.066C277.024 320.066 276.688 321.466 276.422 322.88C276.212 324.014 276.086 324.784 275.428 324.784C274.91 324.784 274.532 324.35 274.532 323.524C274.532 322.642 274.882 322.166 275.526 322.04L275.526 320.346C274.224 320.528 273.328 321.522 273.328 323.51C273.328 325.26 274.14 326.464 275.554 326.464C277.248 326.464 277.57 325.134 277.85 323.734C278.074 322.558 278.214 321.802 278.956 321.802C279.558 321.802 279.978 322.264 279.978 323.244C279.978 324.196 279.6 324.882 278.704 325.022L278.704 326.73C280.216 326.618 281.238 325.386 281.238 323.258ZM274.742 319.47L274.742 318.322L279.32 318.322C280.636 318.322 281.07 317.496 281.07 316.292C281.07 315.816 281.014 315.41 280.958 315.116L279.572 315.116L279.572 315.2C279.6 315.34 279.628 315.592 279.628 315.774C279.628 316.278 279.474 316.572 278.928 316.572L274.742 316.572L274.742 315.074L273.524 315.074L273.524 316.572L271.144 316.572L271.144 318.322L273.524 318.322L273.524 319.47L274.742 319.47ZM281.224 310.397C281.224 308.563 280.23 307.359 278.886 306.995L278.886 308.731C279.502 308.969 279.866 309.529 279.866 310.383C279.866 311.629 278.998 312.315 277.71 312.441L277.71 306.855C276.324 306.841 275.148 307.191 274.378 307.919C273.706 308.549 273.328 309.403 273.328 310.495C273.328 312.707 275.05 314.205 277.276 314.205C279.488 314.205 281.224 312.777 281.224 310.397ZM274.616 310.495C274.616 309.417 275.358 308.759 276.59 308.689L276.59 312.413C275.414 312.259 274.616 311.657 274.616 310.495ZM281 305.61L281 303.832L276.576 303.832C275.526 303.832 274.798 303.104 274.798 302.278C274.798 301.536 275.316 301.102 276.17 301.102L281 301.102L281 299.324L276.576 299.324C275.526 299.324 274.798 298.68 274.798 297.812C274.798 297.084 275.316 296.594 276.17 296.594L281 296.594L281 294.816L275.932 294.816C274.322 294.816 273.328 295.712 273.328 297.238C273.328 298.162 273.762 299.002 274.728 299.59L274.728 299.618C273.804 299.954 273.328 300.668 273.328 301.606C273.328 302.628 273.818 303.37 274.658 303.846L274.658 303.888L273.524 303.888L273.524 305.61L281 305.61ZM281 288.406L281 286.684L280.874 286.684C280.762 286.852 280.44 286.964 279.824 286.964L275.89 286.964C274.896 286.964 274.182 287.328 273.762 288.028C273.454 288.518 273.328 289.176 273.328 290.03C273.328 292.158 274.49 293.166 275.764 293.222L275.764 291.542C275.022 291.5 274.56 291.01 274.56 290.016C274.56 289.12 274.994 288.672 275.638 288.672C276.31 288.672 276.506 289.288 276.66 290.52C276.87 292.298 277.276 293.586 278.97 293.586C280.426 293.586 281.182 292.494 281.182 291.038C281.182 289.848 280.692 289.176 280.034 288.686L280.034 288.658C280.538 288.63 280.832 288.532 281 288.406ZM279.964 290.52C279.964 291.206 279.726 291.808 278.928 291.808C278.102 291.808 277.878 291.178 277.668 290.086C277.556 289.54 277.402 288.98 277.178 288.63L278.284 288.63C279.124 288.63 279.964 289.302 279.964 290.52ZM281 281.78L281 280.002L276.576 280.002C275.526 280.002 274.798 279.274 274.798 278.448C274.798 277.706 275.316 277.272 276.17 277.272L281 277.272L281 275.494L276.576 275.494C275.526 275.494 274.798 274.85 274.798 273.982C274.798 273.254 275.316 272.764 276.17 272.764L281 272.764L281 270.986L275.932 270.986C274.322 270.986 273.328 271.882 273.328 273.408C273.328 274.332 273.762 275.172 274.728 275.76L274.728 275.788C273.804 276.124 273.328 276.838 273.328 277.776C273.328 278.798 273.818 279.54 274.658 280.016L274.658 280.058L273.524 280.058L273.524 281.78L281 281.78ZM281.224 265.976C281.224 263.652 279.488 262.182 277.276 262.182C275.05 262.182 273.328 263.652 273.328 265.976C273.328 268.3 275.05 269.798 277.276 269.798C279.488 269.798 281.224 268.3 281.224 265.976ZM279.88 265.99C279.88 267.306 278.774 267.992 277.276 267.992C275.764 267.992 274.644 267.306 274.644 265.99C274.644 264.688 275.764 263.988 277.276 263.988C278.774 263.988 279.88 264.688 279.88 265.99ZM281.238 258.06C281.238 257.038 280.776 256.226 279.908 255.764L279.908 255.736L281 255.736L281 254.014L270.584 254.014L270.584 255.792L273.048 255.792C273.608 255.792 274.196 255.764 274.602 255.736L274.602 255.764C273.818 256.254 273.328 257.024 273.328 258.06C273.328 259.964 274.896 261.308 277.276 261.308C279.712 261.308 281.238 260.034 281.238 258.06ZM279.782 257.696C279.782 258.9 278.76 259.502 277.262 259.502C275.792 259.502 274.714 258.9 274.714 257.696C274.714 256.38 275.778 255.722 277.276 255.722C278.746 255.722 279.782 256.38 279.782 257.696ZM281 247.541L281 245.819L280.874 245.819C280.762 245.987 280.44 246.099 279.824 246.099L275.89 246.099C274.896 246.099 274.182 246.463 273.762 247.163C273.454 247.653 273.328 248.311 273.328 249.165C273.328 251.293 274.49 252.301 275.764 252.357L275.764 250.677C275.022 250.635 274.56 250.145 274.56 249.151C274.56 248.255 274.994 247.807 275.638 247.807C276.31 247.807 276.506 248.423 276.66 249.655C276.87 251.433 277.276 252.721 278.97 252.721C280.426 252.721 281.182 251.629 281.182 250.173C281.182 248.983 280.692 248.311 280.034 247.821L280.034 247.793C280.538 247.765 280.832 247.667 281 247.541ZM279.964 249.655C279.964 250.341 279.726 250.943 278.928 250.943C278.102 250.943 277.878 250.313 277.668 249.221C277.556 248.675 277.402 248.115 277.178 247.765L278.284 247.765C279.124 247.765 279.964 248.437 279.964 249.655Z" fill="#131313"/>
<path d="M229 339.02L229 337.06L225.08 337.06L225.08 334.428C225.08 332.23 223.806 330.984 221.846 330.984C220.922 330.984 220.166 331.306 219.564 331.866C218.934 332.44 218.584 333.336 218.584 334.512L218.584 339.02L229 339.02ZM220.25 337.06L220.25 334.708C220.25 333.574 220.824 332.93 221.874 332.93C222.882 332.93 223.526 333.546 223.526 334.736L223.526 337.06L220.25 337.06ZM221.524 328.114L221.524 329.836L229 329.836L229 328.058L225.248 328.058C223.806 328.058 223.008 327.176 223.022 326C223.022 325.818 223.036 325.678 223.078 325.51L223.078 325.454L221.482 325.454C221.426 325.58 221.412 325.72 221.412 325.93C221.412 326.882 221.902 327.596 222.868 328.072L222.868 328.114L221.524 328.114ZM229.224 321.047C229.224 318.723 227.488 317.253 225.276 317.253C223.05 317.253 221.328 318.723 221.328 321.047C221.328 323.371 223.05 324.869 225.276 324.869C227.488 324.869 229.224 323.371 229.224 321.047ZM227.88 321.061C227.88 322.377 226.774 323.063 225.276 323.063C223.764 323.063 222.644 322.377 222.644 321.061C222.644 319.759 223.764 319.059 225.276 319.059C226.774 319.059 227.88 319.759 227.88 321.061ZM229.238 313.13C229.238 312.108 228.776 311.296 227.908 310.834L227.908 310.806L229 310.806L229 309.084L218.584 309.084L218.584 310.862L221.048 310.862C221.608 310.862 222.196 310.834 222.602 310.806L222.602 310.834C221.818 311.324 221.328 312.094 221.328 313.13C221.328 315.034 222.896 316.378 225.276 316.378C227.712 316.378 229.238 315.104 229.238 313.13ZM227.782 312.766C227.782 313.97 226.76 314.572 225.262 314.572C223.792 314.572 222.714 313.97 222.714 312.766C222.714 311.45 223.778 310.792 225.276 310.792C226.746 310.792 227.782 311.45 227.782 312.766ZM229.224 304.012C229.224 301.688 227.488 300.218 225.276 300.218C223.05 300.218 221.328 301.688 221.328 304.012C221.328 306.336 223.05 307.834 225.276 307.834C227.488 307.834 229.224 306.336 229.224 304.012ZM227.88 304.026C227.88 305.342 226.774 306.028 225.276 306.028C223.764 306.028 222.644 305.342 222.644 304.026C222.644 302.724 223.764 302.024 225.276 302.024C226.774 302.024 227.88 302.724 227.88 304.026ZM222.742 299.55L222.742 298.402L227.32 298.402C228.636 298.402 229.07 297.576 229.07 296.372C229.07 295.896 229.014 295.49 228.958 295.196L227.572 295.196L227.572 295.28C227.6 295.42 227.628 295.672 227.628 295.854C227.628 296.358 227.474 296.652 226.928 296.652L222.742 296.652L222.742 295.154L221.524 295.154L221.524 296.652L219.144 296.652L219.144 298.402L221.524 298.402L221.524 299.55L222.742 299.55ZM222.742 294.491L222.742 293.343L227.32 293.343C228.636 293.343 229.07 292.517 229.07 291.313C229.07 290.837 229.014 290.431 228.958 290.137L227.572 290.137L227.572 290.221C227.6 290.361 227.628 290.613 227.628 290.795C227.628 291.299 227.474 291.593 226.928 291.593L222.742 291.593L222.742 290.095L221.524 290.095L221.524 291.593L219.144 291.593L219.144 293.343L221.524 293.343L221.524 294.491L222.742 294.491ZM220.306 288.876L220.306 287.056L218.584 287.056L218.584 288.876L220.306 288.876ZM229 288.848L229 287.07L221.524 287.07L221.524 288.848L229 288.848ZM220.306 281.945L220.306 280.125L218.584 280.125L218.584 281.945L220.306 281.945ZM229 281.917L229 280.139L221.524 280.139L221.524 281.917L229 281.917ZM221.524 276.79L221.524 278.526L229 278.526L229 276.748L224.618 276.748C223.554 276.748 222.798 276.048 222.798 275.054C222.798 274.144 223.344 273.626 224.226 273.626L229 273.626L229 271.848L223.932 271.848C222.322 271.848 221.328 272.814 221.328 274.424C221.328 275.474 221.79 276.258 222.616 276.748L222.616 276.79L221.524 276.79ZM229 266.741L229 264.963L224.576 264.963C223.526 264.963 222.798 264.235 222.798 263.409C222.798 262.667 223.316 262.233 224.17 262.233L229 262.233L229 260.455L224.576 260.455C223.526 260.455 222.798 259.811 222.798 258.943C222.798 258.215 223.316 257.725 224.17 257.725L229 257.725L229 255.947L223.932 255.947C222.322 255.947 221.328 256.843 221.328 258.369C221.328 259.293 221.762 260.133 222.728 260.721L222.728 260.749C221.804 261.085 221.328 261.799 221.328 262.737C221.328 263.759 221.818 264.501 222.658 264.977L222.658 265.019L221.524 265.019L221.524 266.741L229 266.741ZM229.224 250.951C229.224 249.117 228.23 247.913 226.886 247.549L226.886 249.285C227.502 249.523 227.866 250.083 227.866 250.937C227.866 252.183 226.998 252.869 225.71 252.995L225.71 247.409C224.324 247.395 223.148 247.745 222.378 248.473C221.706 249.103 221.328 249.957 221.328 251.049C221.328 253.261 223.05 254.759 225.276 254.759C227.488 254.759 229.224 253.331 229.224 250.951ZM222.616 251.049C222.616 249.971 223.358 249.313 224.59 249.243L224.59 252.967C223.414 252.813 222.616 252.211 222.616 251.049ZM222.742 246.749L222.742 245.601L227.32 245.601C228.636 245.601 229.07 244.775 229.07 243.571C229.07 243.095 229.014 242.689 228.958 242.395L227.572 242.395L227.572 242.479C227.6 242.619 227.628 242.871 227.628 243.053C227.628 243.557 227.474 243.851 226.928 243.851L222.742 243.851L222.742 242.353L221.524 242.353L221.524 243.851L219.144 243.851L219.144 245.601L221.524 245.601L221.524 246.749L222.742 246.749ZM229 236.194L229 234.472L228.874 234.472C228.762 234.64 228.44 234.752 227.824 234.752L223.89 234.752C222.896 234.752 222.182 235.116 221.762 235.816C221.454 236.306 221.328 236.964 221.328 237.818C221.328 239.946 222.49 240.954 223.764 241.01L223.764 239.33C223.022 239.288 222.56 238.798 222.56 237.804C222.56 236.908 222.994 236.46 223.638 236.46C224.31 236.46 224.506 237.076 224.66 238.308C224.87 240.086 225.276 241.374 226.97 241.374C228.426 241.374 229.182 240.282 229.182 238.826C229.182 237.636 228.692 236.964 228.034 236.474L228.034 236.446C228.538 236.418 228.832 236.32 229 236.194ZM227.964 238.308C227.964 238.994 227.726 239.596 226.928 239.596C226.102 239.596 225.878 238.966 225.668 237.874C225.556 237.328 225.402 236.768 225.178 236.418L226.284 236.418C227.124 236.418 227.964 237.09 227.964 238.308ZM229 233.08L229 231.288L218.584 231.288L218.584 233.08L229 233.08ZM229 229.621L229 227.829L218.584 227.829L218.584 229.621L229 229.621ZM229.224 222.746C229.224 220.422 227.488 218.952 225.276 218.952C223.05 218.952 221.328 220.422 221.328 222.746C221.328 225.07 223.05 226.568 225.276 226.568C227.488 226.568 229.224 225.07 229.224 222.746ZM227.88 222.76C227.88 224.076 226.774 224.762 225.276 224.762C223.764 224.762 222.644 224.076 222.644 222.76C222.644 221.458 223.764 220.758 225.276 220.758C226.774 220.758 227.88 221.458 227.88 222.76Z" fill="#131313"/>
<path d="M177 339.02L177 337.284L171.568 337.284C170.434 337.284 168.32 337.41 168.32 337.41L168.32 337.382C168.32 337.382 170.238 336.948 171.274 336.612L177 334.624L177 333.056L171.274 331.082C170.238 330.746 168.32 330.312 168.32 330.312L168.32 330.284C168.32 330.284 170.434 330.41 171.568 330.41L177 330.41L177 328.604L166.584 328.604L166.584 331.222L171.54 332.902C172.772 333.294 175.04 333.798 175.04 333.798L175.04 333.84C175.04 333.84 172.758 334.344 171.54 334.75L166.584 336.458L166.584 339.02L177 339.02ZM177.224 323.399C177.224 321.565 176.23 320.361 174.886 319.997L174.886 321.733C175.502 321.971 175.866 322.531 175.866 323.385C175.866 324.631 174.998 325.317 173.71 325.443L173.71 319.857C172.324 319.843 171.148 320.193 170.378 320.921C169.706 321.551 169.328 322.405 169.328 323.497C169.328 325.709 171.05 327.207 173.276 327.207C175.488 327.207 177.224 325.779 177.224 323.399ZM170.616 323.497C170.616 322.419 171.358 321.761 172.59 321.691L172.59 325.415C171.414 325.261 170.616 324.659 170.616 323.497ZM177.224 315.196C177.224 313.194 176.02 311.92 174.284 311.808L174.284 313.544C175.264 313.642 175.838 314.23 175.838 315.21C175.838 316.512 174.746 317.184 173.276 317.184C171.764 317.184 170.686 316.512 170.686 315.21C170.686 314.314 171.204 313.754 172.016 313.586L172.016 311.85C170.406 312.116 169.328 313.32 169.328 315.224C169.328 317.52 171.05 318.99 173.276 318.99C175.488 318.99 177.224 317.506 177.224 315.196ZM177.224 307.225C177.224 305.223 176.02 303.949 174.284 303.837L174.284 305.573C175.264 305.671 175.838 306.259 175.838 307.239C175.838 308.541 174.746 309.213 173.276 309.213C171.764 309.213 170.686 308.541 170.686 307.239C170.686 306.343 171.204 305.783 172.016 305.615L172.016 303.879C170.406 304.145 169.328 305.349 169.328 307.253C169.328 309.549 171.05 311.019 173.276 311.019C175.488 311.019 177.224 309.535 177.224 307.225ZM177 297.69L177 295.968L176.874 295.968C176.762 296.136 176.44 296.248 175.824 296.248L171.89 296.248C170.896 296.248 170.182 296.612 169.762 297.312C169.454 297.802 169.328 298.46 169.328 299.314C169.328 301.442 170.49 302.45 171.764 302.506L171.764 300.826C171.022 300.784 170.56 300.294 170.56 299.3C170.56 298.404 170.994 297.956 171.638 297.956C172.31 297.956 172.506 298.572 172.66 299.804C172.87 301.582 173.276 302.87 174.97 302.87C176.426 302.87 177.182 301.778 177.182 300.322C177.182 299.132 176.692 298.46 176.034 297.97L176.034 297.942C176.538 297.914 176.832 297.816 177 297.69ZM175.964 299.804C175.964 300.49 175.726 301.092 174.928 301.092C174.102 301.092 173.878 300.462 173.668 299.37C173.556 298.824 173.402 298.264 173.178 297.914L174.284 297.914C175.124 297.914 175.964 298.586 175.964 299.804ZM169.524 292.868L169.524 294.604L177 294.604L177 292.826L172.618 292.826C171.554 292.826 170.798 292.126 170.798 291.132C170.798 290.222 171.344 289.704 172.226 289.704L177 289.704L177 287.926L171.932 287.926C170.322 287.926 169.328 288.892 169.328 290.502C169.328 291.552 169.79 292.336 170.616 292.826L170.616 292.868L169.524 292.868ZM168.306 286.388L168.306 284.568L166.584 284.568L166.584 286.388L168.306 286.388ZM177 286.36L177 284.582L169.524 284.582L169.524 286.36L177 286.36ZM177.224 279.553C177.224 277.551 176.02 276.277 174.284 276.165L174.284 277.901C175.264 277.999 175.838 278.587 175.838 279.567C175.838 280.869 174.746 281.541 173.276 281.541C171.764 281.541 170.686 280.869 170.686 279.567C170.686 278.671 171.204 278.111 172.016 277.943L172.016 276.207C170.406 276.473 169.328 277.677 169.328 279.581C169.328 281.877 171.05 283.347 173.276 283.347C175.488 283.347 177.224 281.863 177.224 279.553ZM177 270.018L177 268.296L176.874 268.296C176.762 268.464 176.44 268.576 175.824 268.576L171.89 268.576C170.896 268.576 170.182 268.94 169.762 269.64C169.454 270.13 169.328 270.788 169.328 271.642C169.328 273.77 170.49 274.778 171.764 274.834L171.764 273.154C171.022 273.112 170.56 272.622 170.56 271.628C170.56 270.732 170.994 270.284 171.638 270.284C172.31 270.284 172.506 270.9 172.66 272.132C172.87 273.91 173.276 275.198 174.97 275.198C176.426 275.198 177.182 274.106 177.182 272.65C177.182 271.46 176.692 270.788 176.034 270.298L176.034 270.27C176.538 270.242 176.832 270.144 177 270.018ZM175.964 272.132C175.964 272.818 175.726 273.42 174.928 273.42C174.102 273.42 173.878 272.79 173.668 271.698C173.556 271.152 173.402 270.592 173.178 270.242L174.284 270.242C175.124 270.242 175.964 270.914 175.964 272.132Z" fill="#131313"/>
<path d="M116.25 339.594L116.25 336.346L125 336.346L125 334.4L116.25 334.4L116.25 331.138L114.584 331.138L114.584 339.594L116.25 339.594ZM125.224 328.101C125.224 325.777 123.488 324.307 121.276 324.307C119.05 324.307 117.328 325.777 117.328 328.101C117.328 330.425 119.05 331.923 121.276 331.923C123.488 331.923 125.224 330.425 125.224 328.101ZM123.88 328.115C123.88 329.431 122.774 330.117 121.276 330.117C119.764 330.117 118.644 329.431 118.644 328.115C118.644 326.813 119.764 326.113 121.276 326.113C122.774 326.113 123.88 326.813 123.88 328.115ZM118.742 323.64L118.742 322.492L123.32 322.492C124.636 322.492 125.07 321.666 125.07 320.462C125.07 319.986 125.014 319.58 124.958 319.286L123.572 319.286L123.572 319.37C123.6 319.51 123.628 319.762 123.628 319.944C123.628 320.448 123.474 320.742 122.928 320.742L118.742 320.742L118.742 319.244L117.524 319.244L117.524 320.742L115.144 320.742L115.144 322.492L117.524 322.492L117.524 323.64L118.742 323.64ZM125 313.084L125 311.362L124.874 311.362C124.762 311.53 124.44 311.642 123.824 311.642L119.89 311.642C118.896 311.642 118.182 312.006 117.762 312.706C117.454 313.196 117.328 313.854 117.328 314.708C117.328 316.836 118.49 317.844 119.764 317.9L119.764 316.22C119.022 316.178 118.56 315.688 118.56 314.694C118.56 313.798 118.994 313.35 119.638 313.35C120.31 313.35 120.506 313.966 120.66 315.198C120.87 316.976 121.276 318.264 122.97 318.264C124.426 318.264 125.182 317.172 125.182 315.716C125.182 314.526 124.692 313.854 124.034 313.364L124.034 313.336C124.538 313.308 124.832 313.21 125 313.084ZM123.964 315.198C123.964 315.884 123.726 316.486 122.928 316.486C122.102 316.486 121.878 315.856 121.668 314.764C121.556 314.218 121.402 313.658 121.178 313.308L122.284 313.308C123.124 313.308 123.964 313.98 123.964 315.198ZM125 309.971L125 308.179L114.584 308.179L114.584 309.971L125 309.971ZM125.224 303.11C125.224 301.276 124.23 300.072 122.886 299.708L122.886 301.444C123.502 301.682 123.866 302.242 123.866 303.096C123.866 304.342 122.998 305.028 121.71 305.154L121.71 299.568C120.324 299.554 119.148 299.904 118.378 300.632C117.706 301.262 117.328 302.116 117.328 303.208C117.328 305.42 119.05 306.918 121.276 306.918C123.488 306.918 125.224 305.49 125.224 303.11ZM118.616 303.208C118.616 302.13 119.358 301.472 120.59 301.402L120.59 305.126C119.414 304.972 118.616 304.37 118.616 303.208ZM125.238 291.912C125.238 290.89 124.776 290.078 123.908 289.616L123.908 289.588L125 289.588L125 287.866L114.584 287.866L114.584 289.644L117.048 289.644C117.608 289.644 118.196 289.616 118.602 289.588L118.602 289.616C117.818 290.106 117.328 290.876 117.328 291.912C117.328 293.816 118.896 295.16 121.276 295.16C123.712 295.16 125.238 293.886 125.238 291.912ZM123.782 291.548C123.782 292.752 122.76 293.354 121.262 293.354C119.792 293.354 118.714 292.752 118.714 291.548C118.714 290.232 119.778 289.574 121.276 289.574C122.746 289.574 123.782 290.232 123.782 291.548ZM116.306 286.265L116.306 284.445L114.584 284.445L114.584 286.265L116.306 286.265ZM125 286.237L125 284.459L117.524 284.459L117.524 286.237L125 286.237ZM125.238 279.85C125.238 278.002 124.412 276.658 122.844 276.658C121.024 276.658 120.688 278.058 120.422 279.472C120.212 280.606 120.086 281.376 119.428 281.376C118.91 281.376 118.532 280.942 118.532 280.116C118.532 279.234 118.882 278.758 119.526 278.632L119.526 276.938C118.224 277.12 117.328 278.114 117.328 280.102C117.328 281.852 118.14 283.056 119.554 283.056C121.248 283.056 121.57 281.726 121.85 280.326C122.074 279.15 122.214 278.394 122.956 278.394C123.558 278.394 123.978 278.856 123.978 279.836C123.978 280.788 123.6 281.474 122.704 281.614L122.704 283.322C124.216 283.21 125.238 281.978 125.238 279.85ZM118.742 276.062L118.742 274.914L123.32 274.914C124.636 274.914 125.07 274.088 125.07 272.884C125.07 272.408 125.014 272.002 124.958 271.708L123.572 271.708L123.572 271.792C123.6 271.932 123.628 272.184 123.628 272.366C123.628 272.87 123.474 273.164 122.928 273.164L118.742 273.164L118.742 271.666L117.524 271.666L117.524 273.164L115.144 273.164L115.144 274.914L117.524 274.914L117.524 276.062L118.742 276.062ZM117.524 268.696L117.524 270.418L125 270.418L125 268.64L121.248 268.64C119.806 268.64 119.008 267.758 119.022 266.582C119.022 266.4 119.036 266.26 119.078 266.092L119.078 266.036L117.482 266.036C117.426 266.162 117.412 266.302 117.412 266.512C117.412 267.464 117.902 268.178 118.868 268.654L118.868 268.696L117.524 268.696ZM125.224 261.643C125.224 259.809 124.23 258.605 122.886 258.241L122.886 259.977C123.502 260.215 123.866 260.775 123.866 261.629C123.866 262.875 122.998 263.561 121.71 263.687L121.71 258.101C120.324 258.087 119.148 258.437 118.378 259.165C117.706 259.795 117.328 260.649 117.328 261.741C117.328 263.953 119.05 265.451 121.276 265.451C123.488 265.451 125.224 264.023 125.224 261.643ZM118.616 261.741C118.616 260.663 119.358 260.005 120.59 259.935L120.59 263.659C119.414 263.505 118.616 262.903 118.616 261.741ZM118.742 257.441L118.742 256.293L123.32 256.293C124.636 256.293 125.07 255.467 125.07 254.263C125.07 253.787 125.014 253.381 124.958 253.087L123.572 253.087L123.572 253.171C123.6 253.311 123.628 253.563 123.628 253.745C123.628 254.249 123.474 254.543 122.928 254.543L118.742 254.543L118.742 253.045L117.524 253.045L117.524 254.543L115.144 254.543L115.144 256.293L117.524 256.293L117.524 257.441L118.742 257.441ZM118.742 252.382L118.742 251.234L123.32 251.234C124.636 251.234 125.07 250.408 125.07 249.204C125.07 248.728 125.014 248.322 124.958 248.028L123.572 248.028L123.572 248.112C123.6 248.252 123.628 248.504 123.628 248.686C123.628 249.19 123.474 249.484 122.928 249.484L118.742 249.484L118.742 247.986L117.524 247.986L117.524 249.484L115.144 249.484L115.144 251.234L117.524 251.234L117.524 252.382L118.742 252.382ZM116.306 246.767L116.306 244.947L114.584 244.947L114.584 246.767L116.306 246.767ZM125 246.739L125 244.961L117.524 244.961L117.524 246.739L125 246.739Z" fill="#131313"/>
<path d="M73 339.02L73 337.284L67.568 337.284C66.434 337.284 64.32 337.41 64.32 337.41L64.32 337.382C64.32 337.382 66.238 336.948 67.274 336.612L73 334.624L73 333.056L67.274 331.082C66.238 330.746 64.32 330.312 64.32 330.312L64.32 330.284C64.32 330.284 66.434 330.41 67.568 330.41L73 330.41L73 328.604L62.584 328.604L62.584 331.222L67.54 332.902C68.772 333.294 71.04 333.798 71.04 333.798L71.04 333.84C71.04 333.84 68.758 334.344 67.54 334.75L62.584 336.458L62.584 339.02L73 339.02ZM73.224 323.385C73.224 321.061 71.488 319.591 69.276 319.591C67.05 319.591 65.328 321.061 65.328 323.385C65.328 325.709 67.05 327.207 69.276 327.207C71.488 327.207 73.224 325.709 73.224 323.385ZM71.88 323.399C71.88 324.715 70.774 325.401 69.276 325.401C67.764 325.401 66.644 324.715 66.644 323.399C66.644 322.097 67.764 321.397 69.276 321.397C70.774 321.397 71.88 322.097 71.88 323.399ZM73.238 314.278C73.238 312.29 71.712 311.058 69.276 311.058C66.896 311.058 65.328 312.346 65.328 314.264C65.328 315.328 65.846 316.084 66.63 316.574L66.63 316.616C66.238 316.588 65.636 316.56 65.048 316.56L62.584 316.56L62.584 318.338L73 318.338L73 316.616L71.922 316.616L71.922 316.574C72.804 316.126 73.238 315.272 73.238 314.278ZM71.782 314.656C71.782 315.944 70.732 316.63 69.276 316.63C67.848 316.63 66.714 316.014 66.714 314.656C66.714 313.466 67.792 312.864 69.262 312.864C70.76 312.864 71.782 313.466 71.782 314.656ZM64.306 309.849L64.306 308.029L62.584 308.029L62.584 309.849L64.306 309.849ZM73 309.821L73 308.043L65.524 308.043L65.524 309.821L73 309.821ZM73 306.402L73 304.61L62.584 304.61L62.584 306.402L73 306.402ZM64.306 302.999L64.306 301.179L62.584 301.179L62.584 302.999L64.306 302.999ZM73 302.971L73 301.193L65.524 301.193L65.524 302.971L73 302.971Z" fill="#131313"/>
<path d="M21 339.804L21 337.844L18.522 337.004L18.522 333.056L21 332.23L21 330.158L10.584 333.952L10.584 336.024L21 339.804ZM14.686 335.702C13.692 335.366 12.18 335.016 12.18 335.016L12.18 334.988C12.18 334.988 13.454 334.736 14.686 334.33L17.094 333.532L17.094 336.528L14.686 335.702ZM21 329.111L21 327.319L10.584 327.319L10.584 329.111L21 329.111ZM12.306 325.708L12.306 323.888L10.584 323.888L10.584 325.708L12.306 325.708ZM21 325.68L21 323.902L13.524 323.902L13.524 325.68L21 325.68ZM21 322.29L21 320.512L16.576 320.512C15.526 320.512 14.798 319.784 14.798 318.958C14.798 318.216 15.316 317.782 16.17 317.782L21 317.782L21 316.004L16.576 316.004C15.526 316.004 14.798 315.36 14.798 314.492C14.798 313.764 15.316 313.274 16.17 313.274L21 313.274L21 311.496L15.932 311.496C14.322 311.496 13.328 312.392 13.328 313.918C13.328 314.842 13.762 315.682 14.728 316.27L14.728 316.298C13.804 316.634 13.328 317.348 13.328 318.286C13.328 319.308 13.818 320.05 14.658 320.526L14.658 320.568L13.524 320.568L13.524 322.29L21 322.29ZM21.224 306.5C21.224 304.666 20.23 303.462 18.886 303.098L18.886 304.834C19.502 305.072 19.866 305.632 19.866 306.486C19.866 307.732 18.998 308.418 17.71 308.544L17.71 302.958C16.324 302.944 15.148 303.294 14.378 304.022C13.706 304.652 13.328 305.506 13.328 306.598C13.328 308.81 15.05 310.308 17.276 310.308C19.488 310.308 21.224 308.88 21.224 306.5ZM14.616 306.598C14.616 305.52 15.358 304.862 16.59 304.792L16.59 308.516C15.414 308.362 14.616 307.76 14.616 306.598ZM13.524 299.977L13.524 301.713L21 301.713L21 299.935L16.618 299.935C15.554 299.935 14.798 299.235 14.798 298.241C14.798 297.331 15.344 296.813 16.226 296.813L21 296.813L21 295.035L15.932 295.035C14.322 295.035 13.328 296.001 13.328 297.611C13.328 298.661 13.79 299.445 14.616 299.935L14.616 299.977L13.524 299.977ZM14.742 294.054L14.742 292.906L19.32 292.906C20.636 292.906 21.07 292.08 21.07 290.876C21.07 290.4 21.014 289.994 20.958 289.7L19.572 289.7L19.572 289.784C19.6 289.924 19.628 290.176 19.628 290.358C19.628 290.862 19.474 291.156 18.928 291.156L14.742 291.156L14.742 289.658L13.524 289.658L13.524 291.156L11.144 291.156L11.144 292.906L13.524 292.906L13.524 294.054L14.742 294.054ZM21 283.498L21 281.776L20.874 281.776C20.762 281.944 20.44 282.056 19.824 282.056L15.89 282.056C14.896 282.056 14.182 282.42 13.762 283.12C13.454 283.61 13.328 284.268 13.328 285.122C13.328 287.25 14.49 288.258 15.764 288.314L15.764 286.634C15.022 286.592 14.56 286.102 14.56 285.108C14.56 284.212 14.994 283.764 15.638 283.764C16.31 283.764 16.506 284.38 16.66 285.612C16.87 287.39 17.276 288.678 18.97 288.678C20.426 288.678 21.182 287.586 21.182 286.13C21.182 284.94 20.692 284.268 20.034 283.778L20.034 283.75C20.538 283.722 20.832 283.624 21 283.498ZM19.964 285.612C19.964 286.298 19.726 286.9 18.928 286.9C18.102 286.9 17.878 286.27 17.668 285.178C17.556 284.632 17.402 284.072 17.178 283.722L18.284 283.722C19.124 283.722 19.964 284.394 19.964 285.612ZM13.524 278.691L13.524 280.413L21 280.413L21 278.635L17.248 278.635C15.806 278.635 15.008 277.753 15.022 276.577C15.022 276.395 15.036 276.255 15.078 276.087L15.078 276.031L13.482 276.031C13.426 276.157 13.412 276.297 13.412 276.507C13.412 277.459 13.902 278.173 14.868 278.649L14.868 278.691L13.524 278.691ZM21.224 271.637C21.224 269.803 20.23 268.599 18.886 268.235L18.886 269.971C19.502 270.209 19.866 270.769 19.866 271.623C19.866 272.869 18.998 273.555 17.71 273.681L17.71 268.095C16.324 268.081 15.148 268.431 14.378 269.159C13.706 269.789 13.328 270.643 13.328 271.735C13.328 273.947 15.05 275.445 17.276 275.445C19.488 275.445 21.224 274.017 21.224 271.637ZM14.616 271.735C14.616 270.657 15.358 269.999 16.59 269.929L16.59 273.653C15.414 273.499 14.616 272.897 14.616 271.735ZM22.876 268.024L22.876 266.344L10.024 261.486L10.024 263.166L22.876 268.024ZM21.238 256.515C21.238 254.527 19.712 253.295 17.276 253.295C14.896 253.295 13.328 254.583 13.328 256.501C13.328 257.565 13.846 258.321 14.63 258.811L14.63 258.853C14.238 258.825 13.636 258.797 13.048 258.797L10.584 258.797L10.584 260.575L21 260.575L21 258.853L19.922 258.853L19.922 258.811C20.804 258.363 21.238 257.509 21.238 256.515ZM19.782 256.893C19.782 258.181 18.732 258.867 17.276 258.867C15.848 258.867 14.714 258.251 14.714 256.893C14.714 255.703 15.792 255.101 17.262 255.101C18.76 255.101 19.782 255.703 19.782 256.893ZM21.224 248.627C21.224 246.793 20.23 245.589 18.886 245.225L18.886 246.961C19.502 247.199 19.866 247.759 19.866 248.613C19.866 249.859 18.998 250.545 17.71 250.671L17.71 245.085C16.324 245.071 15.148 245.421 14.378 246.149C13.706 246.779 13.328 247.633 13.328 248.725C13.328 250.937 15.05 252.435 17.276 252.435C19.488 252.435 21.224 251.007 21.224 248.627ZM14.616 248.725C14.616 247.647 15.358 246.989 16.59 246.919L16.59 250.643C15.414 250.489 14.616 249.887 14.616 248.725ZM21 242.197L21 240.251L13.524 237.605L13.524 239.411L17.01 240.545C18.018 240.867 19.516 241.161 19.516 241.161L19.516 241.203C19.516 241.203 18.018 241.511 17.01 241.833L13.524 242.925L13.524 244.787L21 242.197ZM21 232.147L21 230.425L20.874 230.425C20.762 230.593 20.44 230.705 19.824 230.705L15.89 230.705C14.896 230.705 14.182 231.069 13.762 231.769C13.454 232.259 13.328 232.917 13.328 233.771C13.328 235.899 14.49 236.907 15.764 236.963L15.764 235.283C15.022 235.241 14.56 234.751 14.56 233.757C14.56 232.861 14.994 232.413 15.638 232.413C16.31 232.413 16.506 233.029 16.66 234.261C16.87 236.039 17.276 237.327 18.97 237.327C20.426 237.327 21.182 236.235 21.182 234.779C21.182 233.589 20.692 232.917 20.034 232.427L20.034 232.399C20.538 232.371 20.832 232.273 21 232.147ZM19.964 234.261C19.964 234.947 19.726 235.549 18.928 235.549C18.102 235.549 17.878 234.919 17.668 233.827C17.556 233.281 17.402 232.721 17.178 232.371L18.284 232.371C19.124 232.371 19.964 233.043 19.964 234.261ZM13.524 227.325L13.524 229.061L21 229.061L21 227.283L16.618 227.283C15.554 227.283 14.798 226.583 14.798 225.589C14.798 224.679 15.344 224.161 16.226 224.161L21 224.161L21 222.383L15.932 222.383C14.322 222.383 13.328 223.349 13.328 224.959C13.328 226.009 13.79 226.793 14.616 227.283L14.616 227.325L13.524 227.325ZM21.238 217.947C21.238 216.925 20.776 216.113 19.908 215.651L19.908 215.623L21 215.623L21 213.901L10.584 213.901L10.584 215.679L13.048 215.679C13.608 215.679 14.196 215.651 14.602 215.623L14.602 215.651C13.818 216.141 13.328 216.911 13.328 217.947C13.328 219.851 14.896 221.195 17.276 221.195C19.712 221.195 21.238 219.921 21.238 217.947ZM19.782 217.583C19.782 218.787 18.76 219.389 17.262 219.389C15.792 219.389 14.714 218.787 14.714 217.583C14.714 216.267 15.778 215.609 17.276 215.609C18.746 215.609 19.782 216.267 19.782 217.583ZM21.224 208.842C21.224 207.008 20.23 205.804 18.886 205.44L18.886 207.176C19.502 207.414 19.866 207.974 19.866 208.828C19.866 210.074 18.998 210.76 17.71 210.886L17.71 205.3C16.324 205.286 15.148 205.636 14.378 206.364C13.706 206.994 13.328 207.848 13.328 208.94C13.328 211.152 15.05 212.65 17.276 212.65C19.488 212.65 21.224 211.222 21.224 208.842ZM14.616 208.94C14.616 207.862 15.358 207.204 16.59 207.134L16.59 210.858C15.414 210.704 14.616 210.102 14.616 208.94Z" fill="#131313"/>
<path d="M10 677.23L10 676.21L6.56 676.21L6.56 672.82L5.69 672.82L5.69 676.21L3.46 676.21L3.46 672.14L2.56 672.14L2.56 677.23L10 677.23ZM10.15 669.249C10.15 667.629 8.89 666.639 7.32 666.639C5.76 666.639 4.5 667.629 4.5 669.249C4.5 670.869 5.76 671.879 7.32 671.879C8.89 671.879 10.15 670.869 10.15 669.249ZM9.39 669.259C9.39 670.359 8.48 670.929 7.32 670.929C6.16 670.929 5.24 670.359 5.24 669.259C5.24 668.159 6.16 667.589 7.32 667.589C8.48 667.589 9.39 668.159 9.39 669.259ZM4.63 664.731L4.63 665.651L10 665.651L10 664.721L6.73 664.721C5.87 664.721 5.28 664.121 5.28 663.291C5.28 662.561 5.67 662.111 6.36 662.111L10 662.111L10 661.191L6.25 661.191C5.13 661.191 4.5 661.881 4.5 663.001C4.5 663.781 4.85 664.311 5.39 664.701L5.39 664.731L4.63 664.731ZM5.35 660.366L5.35 659.526L8.95 659.526C9.74 659.526 10.03 659.026 10.04 658.306C10.04 658.066 10.01 657.806 9.95 657.556L9.17 657.556L9.17 657.586C9.2 657.686 9.24 657.896 9.24 658.056C9.24 658.396 9.13 658.606 8.74 658.606L5.35 658.606L5.35 657.496L4.63 657.496L4.63 658.606L2.94 658.606L2.94 659.526L4.63 659.526L4.63 660.366L5.35 660.366ZM10.15 654.249C10.15 653.009 9.47 652.149 8.47 651.909L8.47 652.819C9.04 652.989 9.39 653.499 9.39 654.239C9.39 655.279 8.59 655.849 7.54 655.919L7.54 651.799C6.63 651.799 5.86 652.019 5.33 652.459C4.81 652.879 4.5 653.499 4.5 654.299C4.5 655.839 5.76 656.869 7.32 656.869C8.89 656.869 10.15 655.899 10.15 654.249ZM5.22 654.299C5.22 653.369 5.84 652.839 6.87 652.789L6.87 655.899C5.92 655.779 5.22 655.269 5.22 654.299ZM6.84 650.877L6.84 649.797L5.74 649.797L5.74 650.877L6.84 650.877ZM10 650.877L10 649.797L8.9 649.797L8.9 650.877L10 650.877ZM10 645.804L10 643.124C10 640.894 8.53 639.734 6.31 639.734C4.08 639.734 2.56 640.834 2.56 643.054L2.56 645.804L10 645.804ZM9.11 644.774L3.45 644.774L3.45 643.104C3.45 641.414 4.6 640.794 6.31 640.794C8.02 640.794 9.11 641.484 9.11 643.164L9.11 644.774ZM3.64 638.63L3.64 637.66L2.56 637.66L2.56 638.63L3.64 638.63ZM10 638.61L10 637.68L4.63 637.68L4.63 638.61L10 638.61ZM4.63 635.483L4.63 636.403L10 636.403L10 635.473L7.08 635.473C6.07 635.473 5.45 634.763 5.45 633.933C5.45 633.773 5.46 633.683 5.5 633.553L5.5 633.523L4.62 633.523C4.58 633.623 4.56 633.713 4.56 633.863C4.56 634.573 4.98 635.123 5.6 635.453L5.6 635.483L4.63 635.483ZM10.15 630.479C10.15 629.239 9.47 628.379 8.47 628.139L8.47 629.049C9.04 629.219 9.39 629.729 9.39 630.469C9.39 631.509 8.59 632.079 7.54 632.149L7.54 628.029C6.63 628.029 5.86 628.249 5.33 628.689C4.81 629.109 4.5 629.729 4.5 630.529C4.5 632.069 5.76 633.099 7.32 633.099C8.89 633.099 10.15 632.129 10.15 630.479ZM5.22 630.529C5.22 629.599 5.84 629.069 6.87 629.019L6.87 632.129C5.92 632.009 5.22 631.499 5.22 630.529ZM10 627.433L10 623.103L9.18 623.103L9.18 625.273C9.18 625.663 9.21 626.343 9.21 626.343L9.18 626.343C9.18 626.343 8.69 625.893 8.4 625.663L5.21 623.223L4.63 623.223L4.63 627.253L5.42 627.253L5.42 625.403C5.42 625.033 5.39 624.393 5.39 624.393L5.42 624.393C5.42 624.393 5.87 624.813 6.15 625.033L9.28 627.433L10 627.433ZM3.64 622.136L3.64 621.166L2.56 621.166L2.56 622.136L3.64 622.136ZM10 622.116L10 621.186L4.63 621.186L4.63 622.116L10 622.116ZM10.15 617.569C10.15 615.949 8.89 614.959 7.32 614.959C5.76 614.959 4.5 615.949 4.5 617.569C4.5 619.189 5.76 620.199 7.32 620.199C8.89 620.199 10.15 619.189 10.15 617.569ZM9.39 617.579C9.39 618.679 8.48 619.249 7.32 619.249C6.16 619.249 5.24 618.679 5.24 617.579C5.24 616.479 6.16 615.909 7.32 615.909C8.48 615.909 9.39 616.479 9.39 617.579ZM4.63 613.051L4.63 613.971L10 613.971L10 613.041L6.73 613.041C5.87 613.041 5.28 612.441 5.28 611.611C5.28 610.881 5.67 610.431 6.36 610.431L10 610.431L10 609.511L6.25 609.511C5.13 609.511 4.5 610.201 4.5 611.321C4.5 612.101 4.85 612.631 5.39 613.021L5.39 613.051L4.63 613.051ZM10.15 605.928C10.15 604.688 9.47 603.828 8.47 603.588L8.47 604.498C9.04 604.668 9.39 605.178 9.39 605.918C9.39 606.958 8.59 607.528 7.54 607.598L7.54 603.478C6.63 603.478 5.86 603.698 5.33 604.138C4.81 604.558 4.5 605.178 4.5 605.978C4.5 607.518 5.76 608.548 7.32 608.548C8.89 608.548 10.15 607.578 10.15 605.928ZM5.22 605.978C5.22 605.048 5.84 604.518 6.87 604.468L6.87 607.578C5.92 607.458 5.22 606.948 5.22 605.978ZM10.15 596.971C10.15 595.361 9.36 594.201 7.95 594.201C6.29 594.201 5.92 595.511 5.63 596.951C5.4 598.071 5.17 598.881 4.36 598.881C3.62 598.881 3.22 598.241 3.22 597.261C3.22 596.211 3.71 595.561 4.61 595.431L4.61 594.441C3.34 594.621 2.42 595.441 2.42 597.271C2.42 598.801 3.16 599.851 4.41 599.851C5.84 599.851 6.22 598.721 6.5 597.391C6.79 596.091 7.02 595.231 7.99 595.231C8.89 595.231 9.33 595.951 9.33 596.941C9.33 598.291 8.71 599.031 7.59 599.151L7.59 600.161C9.01 600.081 10.15 599.051 10.15 596.971ZM5.35 593.442L5.35 592.602L8.95 592.602C9.74 592.602 10.03 592.102 10.04 591.382C10.04 591.142 10.01 590.882 9.95 590.632L9.17 590.632L9.17 590.662C9.2 590.762 9.24 590.972 9.24 591.132C9.24 591.472 9.13 591.682 8.74 591.682L5.35 591.682L5.35 590.572L4.63 590.572L4.63 591.682L2.94 591.682L2.94 592.602L4.63 592.602L4.63 593.442L5.35 593.442ZM10 585.256L4.63 585.256L4.63 586.186L7.9 586.186C8.73 586.186 9.36 586.716 9.36 587.536C9.36 588.276 8.96 588.706 8.28 588.706L4.63 588.706L4.63 589.636L8.33 589.636C9.45 589.636 10.12 588.926 10.12 587.816C10.12 587.046 9.78 586.576 9.25 586.196L9.25 586.176L10 586.176L10 585.256ZM10.16 581.882C10.16 581.132 9.81 580.562 9.23 580.222L9.23 580.202L10 580.202L10 579.282L2.56 579.282L2.56 580.212L4.46 580.212C4.82 580.212 5.21 580.202 5.45 580.182L5.45 580.202C4.88 580.542 4.5 581.142 4.5 581.902C4.5 583.232 5.56 584.252 7.33 584.252C9.06 584.252 10.16 583.332 10.16 581.882ZM9.39 581.812C9.39 582.802 8.52 583.302 7.34 583.302C6.16 583.302 5.28 582.802 5.28 581.812C5.28 580.732 6.13 580.162 7.34 580.162C8.52 580.162 9.39 580.662 9.39 581.812ZM3.64 578.025L3.64 577.055L2.56 577.055L2.56 578.025L3.64 578.025ZM10 578.005L10 577.075L4.63 577.075L4.63 578.005L10 578.005ZM22.15 675.03C22.15 673.79 21.47 672.93 20.47 672.69L20.47 673.6C21.04 673.77 21.39 674.28 21.39 675.02C21.39 676.06 20.59 676.63 19.54 676.7L19.54 672.58C18.63 672.58 17.86 672.8 17.33 673.24C16.81 673.66 16.5 674.28 16.5 675.08C16.5 676.62 17.76 677.65 19.32 677.65C20.89 677.65 22.15 676.68 22.15 675.03ZM17.22 675.08C17.22 674.15 17.84 673.62 18.87 673.57L18.87 676.68C17.92 676.56 17.22 676.05 17.22 675.08ZM22 668.802L22 667.782L18.9 667.782L18.9 665.802C18.9 664.832 19.28 664.392 20.33 664.322C21.52 664.242 21.86 664.222 22 664.052L22 662.962L21.95 662.962C21.85 663.112 21.49 663.212 20.32 663.302C19.25 663.372 18.75 663.612 18.5 664.452L18.47 664.452C18.16 663.462 17.52 663.092 16.61 663.092C15.38 663.092 14.56 663.992 14.56 665.322L14.56 668.802L22 668.802ZM15.44 667.782L15.44 665.602C15.44 664.552 15.89 664.142 16.76 664.142C17.57 664.142 18.08 664.642 18.08 665.652L18.08 667.782L15.44 667.782ZM15.64 661.95L15.64 660.98L14.56 660.98L14.56 661.95L15.64 661.95ZM22 661.93L22 661L16.63 661L16.63 661.93L22 661.93ZM22.15 657.393C22.15 656.033 21.38 655.183 20.1 655.063L20.1 655.983C20.9 656.053 21.39 656.553 21.39 657.393C21.39 658.493 20.48 659.063 19.32 659.063C18.16 659.063 17.25 658.493 17.25 657.393C17.25 656.613 17.68 656.133 18.38 656.003L18.38 655.073C17.23 655.263 16.5 656.103 16.5 657.393C16.5 659.003 17.76 660.013 19.32 660.013C20.89 660.013 22.15 659.003 22.15 657.393ZM22.15 651.798C22.15 650.558 21.47 649.698 20.47 649.458L20.47 650.368C21.04 650.538 21.39 651.048 21.39 651.788C21.39 652.828 20.59 653.398 19.54 653.468L19.54 649.348C18.63 649.348 17.86 649.568 17.33 650.008C16.81 650.428 16.5 651.048 16.5 651.848C16.5 653.388 17.76 654.418 19.32 654.418C20.89 654.418 22.15 653.448 22.15 651.798ZM17.22 651.848C17.22 650.918 17.84 650.388 18.87 650.338L18.87 653.448C17.92 653.328 17.22 652.818 17.22 651.848ZM16.63 647.436L16.63 648.356L22 648.356L22 647.426L19.08 647.426C18.07 647.426 17.45 646.716 17.45 645.886C17.45 645.726 17.46 645.636 17.5 645.506L17.5 645.476L16.62 645.476C16.58 645.576 16.56 645.666 16.56 645.816C16.56 646.526 16.98 647.076 17.6 647.406L17.6 647.436L16.63 647.436ZM22.15 642.432C22.15 641.072 21.38 640.222 20.1 640.102L20.1 641.022C20.9 641.092 21.39 641.592 21.39 642.432C21.39 643.532 20.48 644.102 19.32 644.102C18.16 644.102 17.25 643.532 17.25 642.432C17.25 641.652 17.68 641.172 18.38 641.042L18.38 640.112C17.23 640.302 16.5 641.142 16.5 642.432C16.5 644.042 17.76 645.052 19.32 645.052C20.89 645.052 22.15 644.042 22.15 642.432ZM16.51 638.237L14.56 638.237L14.56 639.167L22 639.167L22 638.237L18.73 638.237C17.87 638.237 17.28 637.637 17.28 636.807C17.28 636.077 17.67 635.627 18.36 635.627L22 635.627L22 634.707L18.25 634.707C17.13 634.707 16.5 635.397 16.5 636.517C16.5 637.297 16.84 637.837 17.41 638.237L17.41 638.267C17.15 638.257 16.78 638.237 16.51 638.237ZM22.15 631.124C22.15 629.884 21.47 629.024 20.47 628.784L20.47 629.694C21.04 629.864 21.39 630.374 21.39 631.114C21.39 632.154 20.59 632.724 19.54 632.794L19.54 628.674C18.63 628.674 17.86 628.894 17.33 629.334C16.81 629.754 16.5 630.374 16.5 631.174C16.5 632.714 17.76 633.744 19.32 633.744C20.89 633.744 22.15 632.774 22.15 631.124ZM17.22 631.174C17.22 630.244 17.84 629.714 18.87 629.664L18.87 632.774C17.92 632.654 17.22 632.144 17.22 631.174ZM22.16 622.946C22.16 622.196 21.81 621.626 21.23 621.286L21.23 621.266L22 621.266L22 620.346L14.56 620.346L14.56 621.276L16.46 621.276C16.82 621.276 17.21 621.266 17.45 621.246L17.45 621.266C16.88 621.606 16.5 622.206 16.5 622.966C16.5 624.296 17.56 625.316 19.33 625.316C21.06 625.316 22.16 624.396 22.16 622.946ZM21.39 622.876C21.39 623.866 20.52 624.366 19.34 624.366C18.16 624.366 17.28 623.866 17.28 622.876C17.28 621.796 18.13 621.226 19.34 621.226C20.52 621.226 21.39 621.726 21.39 622.876ZM15.64 619.089L15.64 618.119L14.56 618.119L14.56 619.089L15.64 619.089ZM22 619.069L22 618.139L16.63 618.139L16.63 619.069L22 619.069ZM22 614.056L22 613.036L14.56 613.036L14.56 614.056L22 614.056ZM16.63 610.688L16.63 611.608L22 611.608L22 610.678L18.73 610.678C17.87 610.678 17.28 610.078 17.28 609.248C17.28 608.518 17.67 608.068 18.36 608.068L22 608.068L22 607.148L18.25 607.148C17.13 607.148 16.5 607.838 16.5 608.958C16.5 609.738 16.85 610.268 17.39 610.658L17.39 610.688L16.63 610.688ZM17.35 606.323L17.35 605.483L20.95 605.483C21.74 605.483 22.03 604.983 22.04 604.263C22.04 604.023 22.01 603.763 21.95 603.513L21.17 603.513L21.17 603.543C21.2 603.643 21.24 603.853 21.24 604.013C21.24 604.353 21.13 604.563 20.74 604.563L17.35 604.563L17.35 603.453L16.63 603.453L16.63 604.563L14.94 604.563L14.94 605.483L16.63 605.483L16.63 606.323L17.35 606.323ZM22.15 600.206C22.15 598.966 21.47 598.106 20.47 597.866L20.47 598.776C21.04 598.946 21.39 599.456 21.39 600.196C21.39 601.236 20.59 601.806 19.54 601.876L19.54 597.756C18.63 597.756 17.86 597.976 17.33 598.416C16.81 598.836 16.5 599.456 16.5 600.256C16.5 601.796 17.76 602.826 19.32 602.826C20.89 602.826 22.15 601.856 22.15 600.206ZM17.22 600.256C17.22 599.326 17.84 598.796 18.87 598.746L18.87 601.856C17.92 601.736 17.22 601.226 17.22 600.256ZM22.16 594.704C22.16 593.444 21.6 592.544 20.51 592.544C19.26 592.544 19.02 593.464 18.81 594.534C18.63 595.444 18.52 595.964 17.96 595.964C17.55 595.964 17.21 595.654 17.21 594.924C17.21 594.154 17.52 593.774 18.07 593.694L18.07 592.764C17.14 592.884 16.51 593.554 16.51 594.904C16.51 596.154 17.09 596.874 18.01 596.874C19.19 596.874 19.41 595.924 19.63 594.874C19.82 593.924 19.97 593.474 20.56 593.474C21.04 593.474 21.41 593.834 21.41 594.684C21.41 595.454 21.15 596.054 20.37 596.164L20.37 597.104C21.46 597.024 22.16 596.184 22.16 594.704ZM22.11 589.891C22.11 588.981 21.68 588.431 21.21 588.091L21.21 588.081C21.78 587.981 22.05 587.701 22.05 587.131C22.05 586.911 22.01 586.761 21.97 586.631L21.32 586.631L21.32 586.671C21.42 587.141 21.19 587.241 20.76 587.241L18.25 587.241C17.53 587.241 17.06 587.511 16.79 587.961C16.59 588.301 16.5 588.751 16.5 589.261C16.5 590.711 17.31 591.401 18.22 591.441L18.22 590.541C17.58 590.511 17.18 590.101 17.18 589.251C17.18 588.511 17.54 588.101 18.12 588.101C18.67 588.101 18.8 588.611 18.89 589.401C19.06 590.791 19.33 591.711 20.58 591.711C21.61 591.711 22.11 590.911 22.11 589.891ZM21.43 589.661C21.43 590.201 21.26 590.731 20.57 590.731C19.83 590.731 19.67 590.151 19.52 589.271C19.44 588.831 19.31 588.361 19.14 588.091L20.02 588.091C20.64 588.091 21.43 588.591 21.43 589.661ZM22.15 580.359C22.15 578.749 21.36 577.589 19.95 577.589C18.29 577.589 17.92 578.899 17.63 580.339C17.4 581.459 17.17 582.269 16.36 582.269C15.62 582.269 15.22 581.629 15.22 580.649C15.22 579.599 15.71 578.949 16.61 578.819L16.61 577.829C15.34 578.009 14.42 578.829 14.42 580.659C14.42 582.189 15.16 583.239 16.41 583.239C17.84 583.239 18.22 582.109 18.5 580.779C18.79 579.479 19.02 578.619 19.99 578.619C20.89 578.619 21.33 579.339 21.33 580.329C21.33 581.679 20.71 582.419 19.59 582.539L19.59 583.549C21.01 583.469 22.15 582.439 22.15 580.359ZM22.11 574.901C22.11 573.991 21.68 573.441 21.21 573.101L21.21 573.091C21.78 572.991 22.05 572.711 22.05 572.141C22.05 571.921 22.01 571.771 21.97 571.641L21.32 571.641L21.32 571.681C21.42 572.151 21.19 572.251 20.76 572.251L18.25 572.251C17.53 572.251 17.06 572.521 16.79 572.971C16.59 573.311 16.5 573.761 16.5 574.271C16.5 575.721 17.31 576.411 18.22 576.451L18.22 575.551C17.58 575.521 17.18 575.111 17.18 574.261C17.18 573.521 17.54 573.111 18.12 573.111C18.67 573.111 18.8 573.621 18.89 574.411C19.06 575.801 19.33 576.721 20.58 576.721C21.61 576.721 22.11 575.921 22.11 574.901ZM21.43 574.671C21.43 575.211 21.26 575.741 20.57 575.741C19.83 575.741 19.67 575.161 19.52 574.281C19.44 573.841 19.31 573.371 19.14 573.101L20.02 573.101C20.64 573.101 21.43 573.601 21.43 574.671ZM16.63 569.965L16.63 570.885L22 570.885L22 569.955L18.73 569.955C17.87 569.955 17.28 569.355 17.28 568.525C17.28 567.795 17.67 567.345 18.36 567.345L22 567.345L22 566.425L18.25 566.425C17.13 566.425 16.5 567.115 16.5 568.235C16.5 569.015 16.85 569.545 17.39 569.935L17.39 569.965L16.63 569.965ZM23.82 565.172L23.82 564.242L22.19 564.242C21.78 564.242 21.48 564.252 21.29 564.262L21.29 564.232C21.86 563.862 22.16 563.272 22.16 562.542C22.16 561.092 21.05 560.202 19.33 560.202C17.56 560.202 16.5 561.142 16.5 562.512C16.5 563.282 16.86 563.822 17.47 564.222L17.47 564.252L16.63 564.252L16.63 565.172L23.82 565.172ZM21.39 562.642C21.39 563.832 20.48 564.292 19.35 564.292C18.21 564.292 17.29 563.772 17.29 562.632C17.29 561.642 18.17 561.152 19.35 561.152C20.52 561.152 21.39 561.652 21.39 562.642ZM22.11 557.615C22.11 556.705 21.68 556.155 21.21 555.815L21.21 555.805C21.78 555.705 22.05 555.425 22.05 554.855C22.05 554.635 22.01 554.485 21.97 554.355L21.32 554.355L21.32 554.395C21.42 554.865 21.19 554.965 20.76 554.965L18.25 554.965C17.53 554.965 17.06 555.235 16.79 555.685C16.59 556.025 16.5 556.475 16.5 556.985C16.5 558.435 17.31 559.125 18.22 559.165L18.22 558.265C17.58 558.235 17.18 557.825 17.18 556.975C17.18 556.235 17.54 555.825 18.12 555.825C18.67 555.825 18.8 556.335 18.89 557.125C19.06 558.515 19.33 559.435 20.58 559.435C21.61 559.435 22.11 558.635 22.11 557.615ZM21.43 557.385C21.43 557.925 21.26 558.455 20.57 558.455C19.83 558.455 19.67 557.875 19.52 556.995C19.44 556.555 19.31 556.085 19.14 555.815L20.02 555.815C20.64 555.815 21.43 556.315 21.43 557.385ZM22.15 551.26C22.15 549.64 20.89 548.65 19.32 548.65C17.76 548.65 16.5 549.64 16.5 551.26C16.5 552.88 17.76 553.89 19.32 553.89C20.89 553.89 22.15 552.88 22.15 551.26ZM21.39 551.27C21.39 552.37 20.48 552.94 19.32 552.94C18.16 552.94 17.24 552.37 17.24 551.27C17.24 550.17 18.16 549.6 19.32 549.6C20.48 549.6 21.39 550.17 21.39 551.27ZM22 547.633L22 546.703L14.56 546.703L14.56 547.633L22 547.633ZM22.15 543.057C22.15 541.437 20.89 540.447 19.32 540.447C17.76 540.447 16.5 541.437 16.5 543.057C16.5 544.677 17.76 545.687 19.32 545.687C20.89 545.687 22.15 544.677 22.15 543.057ZM21.39 543.067C21.39 544.167 20.48 544.737 19.32 544.737C18.16 544.737 17.24 544.167 17.24 543.067C17.24 541.967 18.16 541.397 19.32 541.397C20.48 541.397 21.39 541.967 21.39 543.067Z" fill="#131313"/>
<path d="M16.42 12H22.708V10.632H18.484V10.572C19 9.708 20.236 9.12 21.124 8.436C22.06 7.812 22.78 7.212 22.78 5.952C22.78 4.428 21.664 3.276 19.792 3.276C18.652 3.276 17.776 3.66 17.26 4.296C16.816 4.848 16.588 5.496 16.588 6.408H18.136C18.136 5.796 18.268 5.34 18.568 5.016C18.832 4.716 19.204 4.56 19.708 4.56C20.62 4.56 21.172 5.136 21.172 5.988C21.172 6.768 20.704 7.176 19.912 7.68C19.072 8.232 18.052 8.832 17.332 9.636C16.792 10.248 16.456 10.956 16.42 12ZM27.3688 12.204C29.5768 12.204 30.9328 10.452 30.9328 7.728C30.9328 4.968 29.5408 3.264 27.3808 3.264C25.2568 3.264 23.8288 4.992 23.8288 7.728C23.8288 10.452 25.2208 12.204 27.3688 12.204ZM27.3808 10.908C26.0608 10.908 25.4608 9.648 25.4608 7.728C25.4608 5.796 26.0608 4.536 27.3808 4.536C28.7128 4.536 29.3008 5.808 29.3008 7.728C29.3008 9.672 28.7368 10.908 27.3808 10.908ZM31.7598 12H38.0478V10.632H33.8238V10.572C34.3398 9.708 35.5758 9.12 36.4638 8.436C37.3998 7.812 38.1198 7.212 38.1198 5.952C38.1198 4.428 37.0038 3.276 35.1318 3.276C33.9918 3.276 33.1158 3.66 32.5998 4.296C32.1558 4.848 31.9278 5.496 31.9278 6.408H33.4758C33.4758 5.796 33.6078 5.34 33.9078 5.016C34.1718 4.716 34.5438 4.56 35.0478 4.56C35.9598 4.56 36.5118 5.136 36.5118 5.988C36.5118 6.768 36.0438 7.176 35.2518 7.68C34.4118 8.232 33.3918 8.832 32.6718 9.636C32.1318 10.248 31.7958 10.956 31.7598 12ZM42.7086 12.204C44.9166 12.204 46.2726 10.452 46.2726 7.728C46.2726 4.968 44.8806 3.264 42.7206 3.264C40.5966 3.264 39.1686 4.992 39.1686 7.728C39.1686 10.452 40.5606 12.204 42.7086 12.204ZM42.7206 10.908C41.4006 10.908 40.8006 9.648 40.8006 7.728C40.8006 5.796 41.4006 4.536 42.7206 4.536C44.0526 4.536 44.6406 5.808 44.6406 7.728C44.6406 9.672 44.0766 10.908 42.7206 10.908Z" fill="#131313"/>
<circle cx="4" cy="8" r="4" fill="#131313"/>
<path d="M16.42 32H22.708V30.632H18.484V30.572C19 29.708 20.236 29.12 21.124 28.436C22.06 27.812 22.78 27.212 22.78 25.952C22.78 24.428 21.664 23.276 19.792 23.276C18.652 23.276 17.776 23.66 17.26 24.296C16.816 24.848 16.588 25.496 16.588 26.408H18.136C18.136 25.796 18.268 25.34 18.568 25.016C18.832 24.716 19.204 24.56 19.708 24.56C20.62 24.56 21.172 25.136 21.172 25.988C21.172 26.768 20.704 27.176 19.912 27.68C19.072 28.232 18.052 28.832 17.332 29.636C16.792 30.248 16.456 30.956 16.42 32ZM27.3688 32.204C29.5768 32.204 30.9328 30.452 30.9328 27.728C30.9328 24.968 29.5408 23.264 27.3808 23.264C25.2568 23.264 23.8288 24.992 23.8288 27.728C23.8288 30.452 25.2208 32.204 27.3688 32.204ZM27.3808 30.908C26.0608 30.908 25.4608 29.648 25.4608 27.728C25.4608 25.796 26.0608 24.536 27.3808 24.536C28.7128 24.536 29.3008 25.808 29.3008 27.728C29.3008 29.672 28.7368 30.908 27.3808 30.908ZM31.7598 32H38.0478V30.632H33.8238V30.572C34.3398 29.708 35.5758 29.12 36.4638 28.436C37.3998 27.812 38.1198 27.212 38.1198 25.952C38.1198 24.428 37.0038 23.276 35.1318 23.276C33.9918 23.276 33.1158 23.66 32.5998 24.296C32.1558 24.848 31.9278 25.496 31.9278 26.408H33.4758C33.4758 25.796 33.6078 25.34 33.9078 25.016C34.1718 24.716 34.5438 24.56 35.0478 24.56C35.9598 24.56 36.5118 25.136 36.5118 25.988C36.5118 26.768 36.0438 27.176 35.2518 27.68C34.4118 28.232 33.3918 28.832 32.6718 29.636C32.1318 30.248 31.7958 30.956 31.7598 32ZM41.0646 32H42.6486V23.384H41.4126C41.2206 24.596 40.2606 25.064 39.0846 25.1V26.156H41.0646V32Z" fill="#131313"/>
<circle cx="4" cy="28" r="4" fill="#004FED"/>
<path d="M16.94 194.895L16.94 192.235L19.74 192.235L19.74 190.723L16.94 190.723L16.94 188.063L15.526 188.063L15.526 190.723L12.726 190.723L12.726 192.235L15.526 192.235L15.526 194.895L16.94 194.895ZM21.224 183.016C21.224 180.818 19.852 179.208 17.696 179.208C15.554 179.208 14.266 180.804 14.266 182.554C14.266 183.562 14.574 184.22 15.12 184.738L15.12 184.766L12.558 184.22L12.558 179.824L11.032 179.824L11.032 185.536L16.478 186.6L16.478 184.85C16.058 184.514 15.694 183.898 15.694 183.002C15.694 181.938 16.436 181.084 17.682 181.084C18.886 181.084 19.698 181.882 19.698 183.072C19.698 184.22 19.11 184.878 18.242 185.06L18.242 186.88C20.006 186.74 21.224 185.2 21.224 183.016ZM21 178.013L21 176.067L19.054 176.067L19.054 178.013L21 178.013ZM21 173.82L21 171.972L10.948 171.972L10.948 173.414C12.362 173.638 12.908 174.758 12.95 176.13L14.182 176.13L14.182 173.82L21 173.82ZM16.604 167.829C16.604 166.359 15.47 165.337 13.706 165.337C11.914 165.337 10.808 166.373 10.808 167.829C10.808 169.271 11.942 170.335 13.706 170.335C15.47 170.335 16.604 169.285 16.604 167.829ZM21 167.773L21 166.597L11.032 161.039L11.032 162.229L21 167.773ZM21.238 160.997C21.238 159.513 20.09 158.477 18.326 158.477C16.548 158.477 15.428 159.527 15.428 160.997C15.428 162.425 16.562 163.503 18.326 163.503C20.09 163.503 21.238 162.453 21.238 160.997ZM15.526 167.829C15.526 168.543 14.756 168.879 13.706 168.879C12.628 168.879 11.858 168.543 11.858 167.829C11.858 167.115 12.656 166.751 13.706 166.751C14.77 166.751 15.526 167.101 15.526 167.829ZM20.146 160.983C20.146 161.697 19.376 162.047 18.326 162.047C17.262 162.047 16.478 161.697 16.478 160.983C16.478 160.297 17.276 159.919 18.326 159.919C19.39 159.919 20.146 160.255 20.146 160.983Z" fill="#004FED"/>
<path d="M68.94 113.985L68.94 111.325L71.74 111.325L71.74 109.813L68.94 109.813L68.94 107.153L67.526 107.153L67.526 109.813L64.726 109.813L64.726 111.325L67.526 111.325L67.526 113.985L68.94 113.985ZM73 103.725L73 101.877L62.948 101.877L62.948 103.319C64.362 103.543 64.908 104.663 64.95 106.035L66.182 106.035L66.182 103.725L73 103.725ZM73.238 95.9688C73.238 93.3928 71.194 91.8108 68.016 91.8108C64.796 91.8108 62.808 93.4348 62.808 95.9548C62.808 98.4328 64.824 100.099 68.016 100.099C71.194 100.099 73.238 98.4748 73.238 95.9688ZM71.726 95.9548C71.726 97.4948 70.256 98.1948 68.016 98.1948C65.762 98.1948 64.292 97.4948 64.292 95.9548C64.292 94.4008 65.776 93.7148 68.016 93.7148C70.284 93.7148 71.726 94.3728 71.726 95.9548ZM73 90.7867L73 88.8407L71.054 88.8407L71.054 90.7867L73 90.7867ZM73.224 83.9221C73.224 81.7241 71.852 80.1141 69.696 80.1141C67.554 80.1141 66.266 81.7101 66.266 83.4601C66.266 84.4681 66.574 85.1261 67.12 85.6441L67.12 85.6721L64.558 85.1261L64.558 80.7301L63.032 80.7301L63.032 86.4421L68.478 87.5061L68.478 85.7561C68.058 85.4201 67.694 84.8041 67.694 83.9081C67.694 82.8441 68.436 81.9901 69.682 81.9901C70.886 81.9901 71.698 82.7881 71.698 83.9781C71.698 85.1261 71.11 85.7841 70.242 85.9661L70.242 87.7861C72.006 87.6461 73.224 86.1061 73.224 83.9221ZM68.604 76.8285C68.604 75.3585 67.47 74.3365 65.706 74.3365C63.914 74.3365 62.808 75.3725 62.808 76.8285C62.808 78.2705 63.942 79.3345 65.706 79.3345C67.47 79.3345 68.604 78.2845 68.604 76.8285ZM73 76.7725L73 75.5965L63.032 70.0385L63.032 71.2285L73 76.7725ZM73.238 69.9965C73.238 68.5125 72.09 67.4765 70.326 67.4765C68.548 67.4765 67.428 68.5265 67.428 69.9965C67.428 71.4245 68.562 72.5025 70.326 72.5025C72.09 72.5025 73.238 71.4525 73.238 69.9965ZM67.526 76.8285C67.526 77.5425 66.756 77.8785 65.706 77.8785C64.628 77.8785 63.858 77.5425 63.858 76.8285C63.858 76.1145 64.656 75.7505 65.706 75.7505C66.77 75.7505 67.526 76.1005 67.526 76.8285ZM72.146 69.9825C72.146 70.6965 71.376 71.0465 70.326 71.0465C69.262 71.0465 68.478 70.6965 68.478 69.9825C68.478 69.2965 69.276 68.9185 70.326 68.9185C71.39 68.9185 72.146 69.2545 72.146 69.9825Z" fill="#004FED"/>
<path d="M120.94 75.1548L120.94 72.4948L123.74 72.4948L123.74 70.9828L120.94 70.9828L120.94 68.3228L119.526 68.3228L119.526 70.9828L116.726 70.9828L116.726 72.4948L119.526 72.4948L119.526 75.1548L120.94 75.1548ZM125 64.8947L125 63.0467L114.948 63.0467L114.948 64.4887C116.362 64.7127 116.908 65.8327 116.95 67.2047L118.182 67.2047L118.182 64.8947L125 64.8947ZM125 59.0568L125 57.2088L114.948 57.2088L114.948 58.6508C116.362 58.8748 116.908 59.9948 116.95 61.3668L118.182 61.3668L118.182 59.0568L125 59.0568ZM125 55.3609L125 53.4149L123.054 53.4149L123.054 55.3609L125 55.3609ZM125.238 48.2443C125.238 46.0883 124.216 44.2963 122.116 44.2963C120.87 44.2963 119.918 45.0523 119.582 46.3543L119.54 46.3543C119.19 45.3043 118.434 44.7583 117.468 44.7583C115.83 44.7583 114.808 46.1863 114.808 48.2723C114.808 50.3443 115.872 51.7863 117.496 51.7863C118.476 51.7863 119.218 51.2403 119.568 50.1763L119.61 50.1763C119.974 51.4503 120.87 52.2483 122.158 52.2483C124.216 52.2483 125.238 50.4003 125.238 48.2443ZM118.994 48.2723C118.994 49.3783 118.448 50.0363 117.58 50.0363C116.712 50.0363 116.152 49.3783 116.152 48.2723C116.152 47.1663 116.712 46.5223 117.58 46.5223C118.448 46.5223 118.994 47.1663 118.994 48.2723ZM123.81 48.2443C123.81 49.5743 123.152 50.3723 122.074 50.3723C120.968 50.3723 120.268 49.5743 120.268 48.2583C120.268 46.9423 120.968 46.1583 122.074 46.1583C123.138 46.1583 123.81 46.9703 123.81 48.2443ZM120.604 40.8285C120.604 39.3585 119.47 38.3365 117.706 38.3365C115.914 38.3365 114.808 39.3725 114.808 40.8285C114.808 42.2705 115.942 43.3345 117.706 43.3345C119.47 43.3345 120.604 42.2845 120.604 40.8285ZM125 40.7725L125 39.5965L115.032 34.0385L115.032 35.2285L125 40.7725ZM125.238 33.9965C125.238 32.5125 124.09 31.4765 122.326 31.4765C120.548 31.4765 119.428 32.5265 119.428 33.9965C119.428 35.4245 120.562 36.5025 122.326 36.5025C124.09 36.5025 125.238 35.4525 125.238 33.9965ZM119.526 40.8285C119.526 41.5425 118.756 41.8785 117.706 41.8785C116.628 41.8785 115.858 41.5425 115.858 40.8285C115.858 40.1145 116.656 39.7505 117.706 39.7505C118.77 39.7505 119.526 40.1005 119.526 40.8285ZM124.146 33.9825C124.146 34.6965 123.376 35.0465 122.326 35.0465C121.262 35.0465 120.478 34.6965 120.478 33.9825C120.478 33.2965 121.276 32.9185 122.326 32.9185C123.39 32.9185 124.146 33.2545 124.146 33.9825Z" fill="#004FED"/>
<path d="M172.94 60.2329L172.94 57.5729L175.74 57.5729L175.74 56.0609L172.94 56.0609L172.94 53.4009L171.526 53.4009L171.526 56.0609L168.726 56.0609L168.726 57.5729L171.526 57.5729L171.526 60.2329L172.94 60.2329ZM177 49.9728L177 48.1248L166.948 48.1248L166.948 49.5668C168.362 49.7908 168.908 50.9108 168.95 52.2828L170.182 52.2828L170.182 49.9728L177 49.9728ZM177 46.4729L177 39.1369L175.404 39.1369L175.404 44.0649L175.334 44.0649C174.326 43.4629 173.64 42.0209 172.842 40.9849C172.114 39.8929 171.414 39.0529 169.944 39.0529C168.166 39.0529 166.822 40.3549 166.822 42.5389C166.822 43.8689 167.27 44.8909 168.012 45.4929C168.656 46.0109 169.412 46.2769 170.476 46.2769L170.476 44.4709C169.762 44.4709 169.23 44.3169 168.852 43.9669C168.502 43.6589 168.32 43.2249 168.32 42.6369C168.32 41.5729 168.992 40.9289 169.986 40.9289C170.896 40.9289 171.372 41.4749 171.96 42.3989C172.604 43.3789 173.304 44.5689 174.242 45.4089C174.956 46.0389 175.782 46.4309 177 46.4729ZM177 37.8277L177 35.8817L175.054 35.8817L175.054 37.8277L177 37.8277ZM177 29.9922L177 28.2002L174.662 28.2002L174.662 26.6602L173.276 26.6602L173.276 28.2002L166.92 28.2002L166.92 29.8802L173.024 34.7382L174.662 34.7382L174.662 29.9922L177 29.9922ZM173.346 33.4222L173.318 33.4222C173.318 33.4222 172.562 32.7082 172.072 32.3022L170.266 30.8742C169.748 30.4682 168.922 29.9502 168.922 29.9502L168.922 29.9222C168.922 29.9222 169.86 29.9922 170.42 29.9922L173.276 29.9922L173.276 31.9662C173.276 32.5262 173.346 33.4222 173.346 33.4222ZM172.604 23.8285C172.604 22.3585 171.47 21.3365 169.706 21.3365C167.914 21.3365 166.808 22.3725 166.808 23.8285C166.808 25.2705 167.942 26.3345 169.706 26.3345C171.47 26.3345 172.604 25.2845 172.604 23.8285ZM177 23.7725L177 22.5965L167.032 17.0385L167.032 18.2285L177 23.7725ZM177.238 16.9965C177.238 15.5125 176.09 14.4765 174.326 14.4765C172.548 14.4765 171.428 15.5265 171.428 16.9965C171.428 18.4245 172.562 19.5025 174.326 19.5025C176.09 19.5025 177.238 18.4525 177.238 16.9965ZM171.526 23.8285C171.526 24.5425 170.756 24.8785 169.706 24.8785C168.628 24.8785 167.858 24.5425 167.858 23.8285C167.858 23.1145 168.656 22.7505 169.706 22.7505C170.77 22.7505 171.526 23.1005 171.526 23.8285ZM176.146 16.9825C176.146 17.6965 175.376 18.0465 174.326 18.0465C173.262 18.0465 172.478 17.6965 172.478 16.9825C172.478 16.2965 173.276 15.9185 174.326 15.9185C175.39 15.9185 176.146 16.2545 176.146 16.9825Z" fill="#004FED"/>
<path d="M224.94 46.6704L224.94 44.0104L227.74 44.0104L227.74 42.4984L224.94 42.4984L224.94 39.8384L223.526 39.8384L223.526 42.4984L220.726 42.4984L220.726 44.0104L223.526 44.0104L223.526 46.6704L224.94 46.6704ZM229 36.4103L229 34.5623L218.948 34.5623L218.948 36.0043C220.362 36.2283 220.908 37.3483 220.95 38.7203L222.182 38.7203L222.182 36.4103L229 36.4103ZM229 32.9104L229 25.5744L227.404 25.5744L227.404 30.5024L227.334 30.5024C226.326 29.9004 225.64 28.4584 224.842 27.4224C224.114 26.3304 223.414 25.4904 221.944 25.4904C220.166 25.4904 218.822 26.7924 218.822 28.9764C218.822 30.3064 219.27 31.3284 220.012 31.9304C220.656 32.4484 221.412 32.7144 222.476 32.7144L222.476 30.9084C221.762 30.9084 221.23 30.7544 220.852 30.4044C220.502 30.0964 220.32 29.6624 220.32 29.0744C220.32 28.0104 220.992 27.3664 221.986 27.3664C222.896 27.3664 223.372 27.9124 223.96 28.8364C224.604 29.8164 225.304 31.0064 226.242 31.8464C226.956 32.4764 227.782 32.8684 229 32.9104ZM229 24.2652L229 22.3192L227.054 22.3192L227.054 24.2652L229 24.2652ZM229.238 17.3973C229.238 16.2353 228.874 15.3253 228.202 14.6813C227.306 13.7853 225.836 13.4213 224.002 13.4213C221.944 13.4213 220.544 13.8273 219.69 14.8633C219.144 15.5073 218.808 16.3893 218.808 17.4673C218.808 19.6373 220.292 21.2193 222.28 21.2193C224.282 21.2193 225.738 19.6653 225.738 17.7333C225.738 16.6273 225.248 15.8013 224.45 15.1853L224.45 15.1573C225.682 15.2133 226.55 15.4233 227.082 15.8433C227.6 16.2213 227.838 16.7393 227.838 17.4393C227.838 18.5033 227.208 19.0633 226.578 19.1893L226.578 20.9953C228.048 20.8133 229.238 19.4553 229.238 17.3973ZM224.324 17.4393C224.324 18.6293 223.456 19.4833 222.266 19.4833C221.076 19.4833 220.222 18.6433 220.222 17.4253C220.222 16.2493 221.062 15.3393 222.266 15.3393C223.484 15.3393 224.324 16.1793 224.324 17.4393ZM224.604 9.82855C224.604 8.35855 223.47 7.33655 221.706 7.33655C219.914 7.33655 218.808 8.37255 218.808 9.82855C218.808 11.2705 219.942 12.3345 221.706 12.3345C223.47 12.3345 224.604 11.2845 224.604 9.82855ZM229 9.77255L229 8.59655L219.032 3.03855L219.032 4.22855L229 9.77255ZM229.238 2.99655C229.238 1.51255 228.09 0.476546 226.326 0.476546C224.548 0.476546 223.428 1.52655 223.428 2.99655C223.428 4.42455 224.562 5.50255 226.326 5.50255C228.09 5.50255 229.238 4.45255 229.238 2.99655ZM223.526 9.82855C223.526 10.5425 222.756 10.8785 221.706 10.8785C220.628 10.8785 219.858 10.5425 219.858 9.82855C219.858 9.11455 220.656 8.75055 221.706 8.75055C222.77 8.75055 223.526 9.10055 223.526 9.82855ZM228.146 2.98255C228.146 3.69655 227.376 4.04655 226.326 4.04655C225.262 4.04655 224.478 3.69655 224.478 2.98255C224.478 2.29655 225.276 1.91855 226.326 1.91855C227.39 1.91855 228.146 2.25455 228.146 2.98255Z" fill="#004FED"/>
<path d="M276.94 34.8989L276.94 32.2389L279.74 32.2389L279.74 30.7269L276.94 30.7269L276.94 28.0669L275.526 28.0669L275.526 30.7269L272.726 30.7269L272.726 32.2389L275.526 32.2389L275.526 34.8989L276.94 34.8989ZM281 24.6388L281 22.7908L270.948 22.7908L270.948 24.2328C272.362 24.4568 272.908 25.5768 272.95 26.9488L274.182 26.9488L274.182 24.6388L281 24.6388ZM281.238 17.1629C281.238 15.1049 280.202 13.3969 278.172 13.3969C276.856 13.3969 276.016 14.0829 275.652 15.3989L275.624 15.3989C275.288 14.3909 274.658 13.7189 273.58 13.7189C271.844 13.7189 270.808 15.2169 270.808 17.2189C270.808 19.5709 272.18 20.9289 274.028 20.9569L274.028 19.2069C273.034 19.1789 272.208 18.5209 272.208 17.2609C272.208 16.2669 272.754 15.5389 273.65 15.5389C274.56 15.5389 275.092 16.2249 275.092 17.4709L275.092 18.0449L276.422 18.0449L276.422 17.4289C276.422 16.0569 276.968 15.2729 278.032 15.2729C279.166 15.2729 279.768 16.0429 279.768 17.2329C279.768 18.6889 278.942 19.4449 277.738 19.5009L277.738 21.2649C278.816 21.2509 279.74 20.8309 280.356 20.0749C280.93 19.3469 281.238 18.3809 281.238 17.1629ZM276.604 9.82855C276.604 8.35855 275.47 7.33655 273.706 7.33655C271.914 7.33655 270.808 8.37255 270.808 9.82855C270.808 11.2705 271.942 12.3345 273.706 12.3345C275.47 12.3345 276.604 11.2845 276.604 9.82855ZM281 9.77255L281 8.59655L271.032 3.03855L271.032 4.22855L281 9.77255ZM281.238 2.99655C281.238 1.51255 280.09 0.476546 278.326 0.476546C276.548 0.476546 275.428 1.52655 275.428 2.99655C275.428 4.42455 276.562 5.50255 278.326 5.50255C280.09 5.50255 281.238 4.45255 281.238 2.99655ZM275.526 9.82855C275.526 10.5425 274.756 10.8785 273.706 10.8785C272.628 10.8785 271.858 10.5425 271.858 9.82855C271.858 9.11455 272.656 8.75055 273.706 8.75055C274.77 8.75055 275.526 9.10055 275.526 9.82855ZM280.146 2.98255C280.146 3.69655 279.376 4.04655 278.326 4.04655C277.262 4.04655 276.478 3.69655 276.478 2.98255C276.478 2.29655 277.276 1.91855 278.326 1.91855C279.39 1.91855 280.146 2.25455 280.146 2.98255Z" fill="#004FED"/>
<path d="M18.06 437L18.06 430L16.534 430L16.534 437L18.06 437ZM21 429.647L21 422.311L19.404 422.311L19.404 427.239L19.334 427.239C18.326 426.637 17.64 425.195 16.842 424.159C16.114 423.067 15.414 422.227 13.944 422.227C12.166 422.227 10.822 423.529 10.822 425.713C10.822 427.043 11.27 428.065 12.012 428.667C12.656 429.185 13.412 429.451 14.476 429.451L14.476 427.645C13.762 427.645 13.23 427.491 12.852 427.141C12.502 426.833 12.32 426.399 12.32 425.811C12.32 424.747 12.992 424.103 13.986 424.103C14.896 424.103 15.372 424.649 15.96 425.573C16.604 426.553 17.304 427.743 18.242 428.583C18.956 429.213 19.782 429.605 21 429.647ZM21 421.001L21 419.055L19.054 419.055L19.054 421.001L21 421.001ZM21 417.889L21 410.553L19.404 410.553L19.404 415.481L19.334 415.481C18.326 414.879 17.64 413.437 16.842 412.401C16.114 411.309 15.414 410.469 13.944 410.469C12.166 410.469 10.822 411.771 10.822 413.955C10.822 415.285 11.27 416.307 12.012 416.909C12.656 417.427 13.412 417.693 14.476 417.693L14.476 415.887C13.762 415.887 13.23 415.733 12.852 415.383C12.502 415.075 12.32 414.641 12.32 414.053C12.32 412.989 12.992 412.345 13.986 412.345C14.896 412.345 15.372 412.891 15.96 413.815C16.604 414.795 17.304 415.985 18.242 416.825C18.956 417.455 19.782 417.847 21 417.889ZM16.604 406.592C16.604 405.122 15.47 404.1 13.706 404.1C11.914 404.1 10.808 405.136 10.808 406.592C10.808 408.034 11.942 409.098 13.706 409.098C15.47 409.098 16.604 408.048 16.604 406.592ZM21 406.536L21 405.36L11.032 399.802L11.032 400.992L21 406.536ZM21.238 399.76C21.238 398.276 20.09 397.24 18.326 397.24C16.548 397.24 15.428 398.29 15.428 399.76C15.428 401.188 16.562 402.266 18.326 402.266C20.09 402.266 21.238 401.216 21.238 399.76ZM15.526 406.592C15.526 407.306 14.756 407.642 13.706 407.642C12.628 407.642 11.858 407.306 11.858 406.592C11.858 405.878 12.656 405.514 13.706 405.514C14.77 405.514 15.526 405.864 15.526 406.592ZM20.146 399.746C20.146 400.46 19.376 400.81 18.326 400.81C17.262 400.81 16.478 400.46 16.478 399.746C16.478 399.06 17.276 398.682 18.326 398.682C19.39 398.682 20.146 399.018 20.146 399.746Z" fill="#131313"/>
<path d="M70.06 552L70.06 545L68.534 545L68.534 552L70.06 552ZM73 543.755L73 541.809C69.304 541.655 66.252 539.863 64.474 537.959L63.032 537.959L63.032 545.141L64.614 545.141L64.614 541.893C64.614 540.801 64.544 539.765 64.544 539.765L64.572 539.765C66.21 541.697 69.444 543.573 73 543.755ZM73 537.861L73 535.915L71.054 535.915L71.054 537.861L73 537.861ZM73.238 530.848C73.238 528.762 71.74 527.166 69.738 527.18C67.764 527.194 66.294 528.734 66.294 530.61C66.294 531.758 66.77 532.584 67.694 533.186L67.694 533.214C65.44 533.13 64.194 532.416 64.194 530.834C64.194 529.854 64.81 529.364 65.384 529.252L65.384 527.46C64.026 527.698 62.808 528.818 62.808 530.862C62.808 532.22 63.284 533.186 64.152 533.886C65.09 534.628 66.434 534.978 68.016 534.964C69.794 534.964 71.124 534.6 72.062 533.718C72.79 533.06 73.238 532.108 73.238 530.848ZM71.824 530.904C71.824 532.094 70.97 533.018 69.766 533.018C68.548 533.018 67.722 532.164 67.722 530.918C67.722 529.784 68.562 528.916 69.78 528.916C70.97 528.916 71.824 529.77 71.824 530.904ZM68.604 523.657C68.604 522.187 67.47 521.165 65.706 521.165C63.914 521.165 62.808 522.201 62.808 523.657C62.808 525.099 63.942 526.163 65.706 526.163C67.47 526.163 68.604 525.113 68.604 523.657ZM73 523.601L73 522.425L63.032 516.867L63.032 518.057L73 523.601ZM73.238 516.825C73.238 515.341 72.09 514.305 70.326 514.305C68.548 514.305 67.428 515.355 67.428 516.825C67.428 518.253 68.562 519.331 70.326 519.331C72.09 519.331 73.238 518.281 73.238 516.825ZM67.526 523.657C67.526 524.371 66.756 524.707 65.706 524.707C64.628 524.707 63.858 524.371 63.858 523.657C63.858 522.943 64.656 522.579 65.706 522.579C66.77 522.579 67.526 522.929 67.526 523.657ZM72.146 516.811C72.146 517.525 71.376 517.875 70.326 517.875C69.262 517.875 68.478 517.525 68.478 516.811C68.478 516.125 69.276 515.747 70.326 515.747C71.39 515.747 72.146 516.083 72.146 516.811Z" fill="#131313"/>
<path d="M122.06 678L122.06 671L120.534 671L120.534 678L122.06 678ZM125 669.088L125 667.24L114.948 667.24L114.948 668.682C116.362 668.906 116.908 670.026 116.95 671.398L118.182 671.398L118.182 669.088L125 669.088ZM125 665.588L125 658.252L123.404 658.252L123.404 663.18L123.334 663.18C122.326 662.578 121.64 661.136 120.842 660.1C120.114 659.008 119.414 658.168 117.944 658.168C116.166 658.168 114.822 659.47 114.822 661.654C114.822 662.984 115.27 664.006 116.012 664.608C116.656 665.126 117.412 665.392 118.476 665.392L118.476 663.586C117.762 663.586 117.23 663.432 116.852 663.082C116.502 662.774 116.32 662.34 116.32 661.752C116.32 660.688 116.992 660.044 117.986 660.044C118.896 660.044 119.372 660.59 119.96 661.514C120.604 662.494 121.304 663.684 122.242 664.524C122.956 665.154 123.782 665.546 125 665.588ZM125 656.943L125 654.997L123.054 654.997L123.054 656.943L125 656.943ZM125 653.83L125 646.494L123.404 646.494L123.404 651.422L123.334 651.422C122.326 650.82 121.64 649.378 120.842 648.342C120.114 647.25 119.414 646.41 117.944 646.41C116.166 646.41 114.822 647.712 114.822 649.896C114.822 651.226 115.27 652.248 116.012 652.85C116.656 653.368 117.412 653.634 118.476 653.634L118.476 651.828C117.762 651.828 117.23 651.674 116.852 651.324C116.502 651.016 116.32 650.582 116.32 649.994C116.32 648.93 116.992 648.286 117.986 648.286C118.896 648.286 119.372 648.832 119.96 649.756C120.604 650.736 121.304 651.926 122.242 652.766C122.956 653.396 123.782 653.788 125 653.83ZM120.604 642.534C120.604 641.064 119.47 640.042 117.706 640.042C115.914 640.042 114.808 641.078 114.808 642.534C114.808 643.976 115.942 645.04 117.706 645.04C119.47 645.04 120.604 643.99 120.604 642.534ZM125 642.478L125 641.302L115.032 635.744L115.032 636.934L125 642.478ZM125.238 635.702C125.238 634.218 124.09 633.182 122.326 633.182C120.548 633.182 119.428 634.232 119.428 635.702C119.428 637.13 120.562 638.208 122.326 638.208C124.09 638.208 125.238 637.158 125.238 635.702ZM119.526 642.534C119.526 643.248 118.756 643.584 117.706 643.584C116.628 643.584 115.858 643.248 115.858 642.534C115.858 641.82 116.656 641.456 117.706 641.456C118.77 641.456 119.526 641.806 119.526 642.534ZM124.146 635.688C124.146 636.402 123.376 636.752 122.326 636.752C121.262 636.752 120.478 636.402 120.478 635.688C120.478 635.002 121.276 634.624 122.326 634.624C123.39 634.624 124.146 634.96 124.146 635.688Z" fill="#131313"/>
<path d="M174.06 670L174.06 663L172.534 663L172.534 670L174.06 670ZM177 661.088L177 659.24L166.948 659.24L166.948 660.682C168.362 660.906 168.908 662.026 168.95 663.398L170.182 663.398L170.182 661.088L177 661.088ZM177 655.25L177 653.402L166.948 653.402L166.948 654.844C168.362 655.068 168.908 656.188 168.95 657.56L170.182 657.56L170.182 655.25L177 655.25ZM177 651.554L177 649.608L175.054 649.608L175.054 651.554L177 651.554ZM177.238 644.686C177.238 643.524 176.874 642.614 176.202 641.97C175.306 641.074 173.836 640.71 172.002 640.71C169.944 640.71 168.544 641.116 167.69 642.152C167.144 642.796 166.808 643.678 166.808 644.756C166.808 646.926 168.292 648.508 170.28 648.508C172.282 648.508 173.738 646.954 173.738 645.022C173.738 643.916 173.248 643.09 172.45 642.474L172.45 642.446C173.682 642.502 174.55 642.712 175.082 643.132C175.6 643.51 175.838 644.028 175.838 644.728C175.838 645.792 175.208 646.352 174.578 646.478L174.578 648.284C176.048 648.102 177.238 646.744 177.238 644.686ZM172.324 644.728C172.324 645.918 171.456 646.772 170.266 646.772C169.076 646.772 168.222 645.932 168.222 644.714C168.222 643.538 169.062 642.628 170.266 642.628C171.484 642.628 172.324 643.468 172.324 644.728ZM172.604 637.118C172.604 635.648 171.47 634.626 169.706 634.626C167.914 634.626 166.808 635.662 166.808 637.118C166.808 638.56 167.942 639.624 169.706 639.624C171.47 639.624 172.604 638.574 172.604 637.118ZM177 637.062L177 635.886L167.032 630.328L167.032 631.518L177 637.062ZM177.238 630.286C177.238 628.802 176.09 627.766 174.326 627.766C172.548 627.766 171.428 628.816 171.428 630.286C171.428 631.714 172.562 632.792 174.326 632.792C176.09 632.792 177.238 631.742 177.238 630.286ZM171.526 637.118C171.526 637.832 170.756 638.168 169.706 638.168C168.628 638.168 167.858 637.832 167.858 637.118C167.858 636.404 168.656 636.04 169.706 636.04C170.77 636.04 171.526 636.39 171.526 637.118ZM176.146 630.272C176.146 630.986 175.376 631.336 174.326 631.336C173.262 631.336 172.478 630.986 172.478 630.272C172.478 629.586 173.276 629.208 174.326 629.208C175.39 629.208 176.146 629.544 176.146 630.272Z" fill="#131313"/>
<path d="M226.06 678L226.06 671L224.534 671L224.534 678L226.06 678ZM229 669.088L229 667.24L218.948 667.24L218.948 668.682C220.362 668.906 220.908 670.026 220.95 671.398L222.182 671.398L222.182 669.088L229 669.088ZM229 665.588L229 658.252L227.404 658.252L227.404 663.18L227.334 663.18C226.326 662.578 225.64 661.136 224.842 660.1C224.114 659.008 223.414 658.168 221.944 658.168C220.166 658.168 218.822 659.47 218.822 661.654C218.822 662.984 219.27 664.006 220.012 664.608C220.656 665.126 221.412 665.392 222.476 665.392L222.476 663.586C221.762 663.586 221.23 663.432 220.852 663.082C220.502 662.774 220.32 662.34 220.32 661.752C220.32 660.688 220.992 660.044 221.986 660.044C222.896 660.044 223.372 660.59 223.96 661.514C224.604 662.494 225.304 663.684 226.242 664.524C226.956 665.154 227.782 665.546 229 665.588ZM229 656.943L229 654.997L227.054 654.997L227.054 656.943L229 656.943ZM229 653.83L229 646.494L227.404 646.494L227.404 651.422L227.334 651.422C226.326 650.82 225.64 649.378 224.842 648.342C224.114 647.25 223.414 646.41 221.944 646.41C220.166 646.41 218.822 647.712 218.822 649.896C218.822 651.226 219.27 652.248 220.012 652.85C220.656 653.368 221.412 653.634 222.476 653.634L222.476 651.828C221.762 651.828 221.23 651.674 220.852 651.324C220.502 651.016 220.32 650.582 220.32 649.994C220.32 648.93 220.992 648.286 221.986 648.286C222.896 648.286 223.372 648.832 223.96 649.756C224.604 650.736 225.304 651.926 226.242 652.766C226.956 653.396 227.782 653.788 229 653.83ZM224.604 642.534C224.604 641.064 223.47 640.042 221.706 640.042C219.914 640.042 218.808 641.078 218.808 642.534C218.808 643.976 219.942 645.04 221.706 645.04C223.47 645.04 224.604 643.99 224.604 642.534ZM229 642.478L229 641.302L219.032 635.744L219.032 636.934L229 642.478ZM229.238 635.702C229.238 634.218 228.09 633.182 226.326 633.182C224.548 633.182 223.428 634.232 223.428 635.702C223.428 637.13 224.562 638.208 226.326 638.208C228.09 638.208 229.238 637.158 229.238 635.702ZM223.526 642.534C223.526 643.248 222.756 643.584 221.706 643.584C220.628 643.584 219.858 643.248 219.858 642.534C219.858 641.82 220.656 641.456 221.706 641.456C222.77 641.456 223.526 641.806 223.526 642.534ZM228.146 635.688C228.146 636.402 227.376 636.752 226.326 636.752C225.262 636.752 224.478 636.402 224.478 635.688C224.478 635.002 225.276 634.624 226.326 634.624C227.39 634.624 228.146 634.96 228.146 635.688Z" fill="#131313"/>
<path d="M321.06 402.729L321.06 395.729L319.534 395.729L319.534 402.729L321.06 402.729ZM324 391.698L324 384.362L322.404 384.362L322.404 389.29L322.334 389.29C321.326 388.688 320.64 387.246 319.842 386.21C319.114 385.118 318.414 384.278 316.944 384.278C315.166 384.278 313.822 385.58 313.822 387.764C313.822 389.094 314.27 390.116 315.012 390.718C315.656 391.236 316.412 391.502 317.476 391.502L317.476 389.696C316.762 389.696 316.23 389.542 315.852 389.192C315.502 388.884 315.32 388.45 315.32 387.862C315.32 386.798 315.992 386.154 316.986 386.154C317.896 386.154 318.372 386.7 318.96 387.624C319.604 388.604 320.304 389.794 321.242 390.634C321.956 391.264 322.782 391.656 324 391.698ZM324.238 379.273C324.238 377.215 323.202 375.507 321.172 375.507C319.856 375.507 319.016 376.193 318.652 377.509L318.624 377.509C318.288 376.501 317.658 375.829 316.58 375.829C314.844 375.829 313.808 377.327 313.808 379.329C313.808 381.681 315.18 383.039 317.028 383.067L317.028 381.317C316.034 381.289 315.208 380.631 315.208 379.371C315.208 378.377 315.754 377.649 316.65 377.649C317.56 377.649 318.092 378.335 318.092 379.581L318.092 380.155L319.422 380.155L319.422 379.539C319.422 378.167 319.968 377.383 321.032 377.383C322.166 377.383 322.768 378.153 322.768 379.343C322.768 380.799 321.942 381.555 320.738 381.611L320.738 383.375C321.816 383.361 322.74 382.941 323.356 382.185C323.93 381.457 324.238 380.491 324.238 379.273ZM324 374.303L324 372.357L322.054 372.357L322.054 374.303L324 374.303ZM324.238 367.29C324.238 365.204 322.74 363.608 320.738 363.622C318.764 363.636 317.294 365.176 317.294 367.052C317.294 368.2 317.77 369.026 318.694 369.628L318.694 369.656C316.44 369.572 315.194 368.858 315.194 367.276C315.194 366.296 315.81 365.806 316.384 365.694L316.384 363.902C315.026 364.14 313.808 365.26 313.808 367.304C313.808 368.662 314.284 369.628 315.152 370.328C316.09 371.07 317.434 371.42 319.016 371.406C320.794 371.406 322.124 371.042 323.062 370.16C323.79 369.502 324.238 368.55 324.238 367.29ZM322.824 367.346C322.824 368.536 321.97 369.46 320.766 369.46C319.548 369.46 318.722 368.606 318.722 367.36C318.722 366.226 319.562 365.358 320.78 365.358C321.97 365.358 322.824 366.212 322.824 367.346ZM319.604 360.099C319.604 358.629 318.47 357.607 316.706 357.607C314.914 357.607 313.808 358.643 313.808 360.099C313.808 361.541 314.942 362.605 316.706 362.605C318.47 362.605 319.604 361.555 319.604 360.099ZM324 360.043L324 358.867L314.032 353.309L314.032 354.499L324 360.043ZM324.238 353.267C324.238 351.783 323.09 350.747 321.326 350.747C319.548 350.747 318.428 351.797 318.428 353.267C318.428 354.695 319.562 355.773 321.326 355.773C323.09 355.773 324.238 354.723 324.238 353.267ZM318.526 360.099C318.526 360.813 317.756 361.149 316.706 361.149C315.628 361.149 314.858 360.813 314.858 360.099C314.858 359.385 315.656 359.021 316.706 359.021C317.77 359.021 318.526 359.371 318.526 360.099ZM323.146 353.253C323.146 353.967 322.376 354.317 321.326 354.317C320.262 354.317 319.478 353.967 319.478 353.253C319.478 352.567 320.276 352.189 321.326 352.189C322.39 352.189 323.146 352.525 323.146 353.253Z" fill="#131313"/>
</svg>
