<svg width="808" height="1022" viewBox="0 0 808 1022" fill="none" xmlns="http://www.w3.org/2000/svg">
  <g id="Group 318">
    <text id="Fonte: Ipson &#226;&#128;&#147; Osservatorio imprese" transform="translate(204 4)" fill="#131313" xml:space="preserve" style="white-space: pre" font-family="Neue Haas Grotesk Text Pro" font-size="12" letter-spacing="0em">
      <tspan x="0" y="11.398">Fonte: Ipson &#x2013; Osservatorio imprese</tspan>
    </text>
    <g id="Group 126">
      <text id="2021" fill="#131313" xml:space="preserve" style="white-space: pre" font-family="Neue Haas Grotesk Text Pro" font-size="14" font-weight="500" letter-spacing="0em">
        <tspan x="19" y="14.131">2021</tspan>
      </text>
      <text id="2020" fill="#131313" xml:space="preserve" style="white-space: pre" font-family="Neue Haas Grotesk Text Pro" font-size="14" font-weight="500" letter-spacing="0em">
        <tspan x="86" y="14.131">2020</tspan>
      </text>
      <text id="n.d." fill="#131313" xml:space="preserve" style="white-space: pre" font-family="Neue Haas Grotesk Text Pro" font-size="14" font-weight="500" letter-spacing="0em">
        <tspan x="156" y="14.131">n.d.</tspan>
      </text>
      <circle id="Ellipse 96" cx="6" cy="9" r="5" fill="#004FED"/>
      <circle id="Ellipse 97" cx="73" cy="9" r="5" fill="#131313"/>
      <circle id="Ellipse 98" cx="143" cy="9" r="4.25" stroke="black" stroke-width="1.5"/>
    </g>
    <g id="Group 292">
      <path class="rect-animation" id="Rectangle 157" d="M2 44L799 44C803.971 44 808 48.0294 808 53C808 57.9706 803.971 62 799 62L2 62L2 44Z" fill="#131313"/>
      <path class="rect-animation"  id="Rectangle 158" d="M2 26L660 26C664.971 26 669 30.0294 669 35C669 39.9706 664.971 44 660 44L2 44L2 26Z" fill="#004FED"/>
      <text id="Controllo sui costi" fill="white" xml:space="preserve" style="white-space: pre" font-family="Neue Haas Grotesk Text Pro" font-size="14" font-weight="500" letter-spacing="0em">
        <tspan x="680.016" y="58.131">Controllo sui costi</tspan>
      </text>
      <text id="48%" fill="#004FED" xml:space="preserve" style="white-space: pre" font-family="Neue Haas Grotesk Text Pro" font-size="14" font-weight="500" letter-spacing="0em">
        <tspan x="677.238" y="40.131">48%</tspan>
      </text>
      <text id="58%" fill="#131313" xml:space="preserve" style="white-space: pre" font-family="Neue Haas Grotesk Text Pro" font-size="14" font-weight="500" letter-spacing="0em">
        <tspan x="716" y="40.131">58%</tspan>
      </text>
    </g>
    <g id="Group 311">
      <g id="Group 293">
        <path class="rect-animation"  id="Rectangle 157_2" d="M2 104L270 104C274.971 104 279 108.029 279 113C279 117.971 274.971 122 270 122L2 122L2 104Z" fill="#131313"/>
        <path class="rect-animation"  id="Rectangle 158_2" d="M2 86L562 86C566.971 86 571 90.0294 571 95C571 99.9706 566.971 104 562 104L2 104L2 86Z" fill="#004FED"/>
        <text id="Investimenti in tecnologia" fill="#131313" xml:space="preserve" style="white-space: pre" font-family="Neue Haas Grotesk Text Pro" font-size="14" font-weight="500" letter-spacing="0em">
          <tspan x="630.961" y="117.131">Investimenti in tecnologia</tspan>
        </text>
        <text id="41%" fill="#004FED" xml:space="preserve" style="white-space: pre" font-family="Neue Haas Grotesk Text Pro" font-size="14" font-weight="500" letter-spacing="0em">
          <tspan x="579.752" y="100.131">41%</tspan>
        </text>
        <text id="20%" fill="#131313" xml:space="preserve" style="white-space: pre" font-family="Neue Haas Grotesk Text Pro" font-size="14" font-weight="500" letter-spacing="0em">
          <tspan x="286.156" y="118.131">20%</tspan>
        </text>
        <rect id="Rectangle 162" y="121" width="808" height="1" fill="#131313"/>
      </g>
    </g>
    <g id="Group 312">
      <g id="Group 309">
        <path class="rect-animation"  id="Rectangle 158_3" d="M2 146L493 146C497.971 146 502 150.029 502 155C502 159.971 497.971 164 493 164L2 164L2 146Z" fill="#004FED"/>
        <text id="36%" fill="#004FED" xml:space="preserve" style="white-space: pre" font-family="Neue Haas Grotesk Text Pro" font-size="14" font-weight="500" letter-spacing="0em">
          <tspan x="507.484" y="169.131">36%</tspan>
        </text>
        <path class="rect-animation"  id="Rectangle 157_3" d="M2 164L493 164C497.971 164 502 168.029 502 173C502 177.971 497.971 182 493 182L2 182L2 164Z" fill="#131313"/>
        <text id="Opportunit&#195;&#160;" fill="#131313" xml:space="preserve" style="white-space: pre" font-family="Neue Haas Grotesk Text Pro" font-size="14" font-weight="500" letter-spacing="0em">
          <tspan x="719" y="177.131">Opportunit&#xe0;</tspan>
        </text>
        <rect id="Rectangle 163" y="181" width="808" height="1" fill="#131313"/>
      </g>
    </g>
    <g id="Group 310">
      <text id="26%" fill="#004FED" xml:space="preserve" style="white-space: pre" font-family="Neue Haas Grotesk Text Pro" font-size="14" font-weight="500" letter-spacing="0em">
        <tspan x="370" y="220.131">26%</tspan>
      </text>
      <text id="38%" fill="#131313" xml:space="preserve" style="white-space: pre" font-family="Neue Haas Grotesk Text Pro" font-size="14" font-weight="500" letter-spacing="0em">
        <tspan x="537" y="238.131">38%</tspan>
      </text>
      <path class="rect-animation"  id="Rectangle 158_4" d="M2 206L353 206C357.971 206 362 210.029 362 215C362 219.971 357.971 224 353 224L2 224L2 206Z" fill="#004FED"/>
      <path id="Rectangle 157_4" d="M2 224L520 224C524.971 224 529 228.029 529 233C529 237.971 524.971 242 520 242L2 242L2 224Z" fill="#131313"/>
      <text id="Crisi diffusa" fill="#131313" xml:space="preserve" style="white-space: pre" font-family="Neue Haas Grotesk Text Pro" font-size="14" font-weight="500" letter-spacing="0em">
        <tspan x="721" y="237.131">Crisi diffusa</tspan>
      </text>
      <rect class="rect-animation"  id="Rectangle 164" y="241" width="808" height="1" fill="#131313"/>
    </g>
    <g id="Group 296">
      <text id="25%" fill="#004FED" xml:space="preserve" style="white-space: pre" font-family="Neue Haas Grotesk Text Pro" font-size="14" font-weight="500" letter-spacing="0em">
        <tspan x="356" y="280.131">25%</tspan>
      </text>
      <text id="26%_2" fill="#131313" xml:space="preserve" style="white-space: pre" font-family="Neue Haas Grotesk Text Pro" font-size="14" font-weight="500" letter-spacing="0em">
        <tspan x="370" y="298.131">26%</tspan>
      </text>
      <path class="rect-animation"  id="Rectangle 157_5" d="M2 284L353 284C357.971 284 362 288.029 362 293C362 297.971 357.971 302 353 302L2 302L2 284Z" fill="#131313"/>
      <path class="rect-animation"  id="Rectangle 158_5" d="M2 266L339 266C343.971 266 348 270.029 348 275C348 279.971 343.971 284 339 284L2 284L2 266Z" fill="#004FED"/>
      <text id="Cambiamento mezzi di comunicazione" fill="#131313" xml:space="preserve" style="white-space: pre" font-family="Neue Haas Grotesk Text Pro" font-size="14" font-weight="500" letter-spacing="0em">
        <tspan x="545.553" y="297.131">Cambiamento mezzi di comunicazione</tspan>
      </text>
      <rect id="Rectangle 165" y="301" width="808" height="1" fill="#131313"/>
    </g>
    <g id="Group 297">
      <text id="22%" fill="#004FED" xml:space="preserve" style="white-space: pre" font-family="Neue Haas Grotesk Text Pro" font-size="14" font-weight="500" letter-spacing="0em">
        <tspan x="315" y="349.131">22%</tspan>
      </text>
      <path class="rect-animation"  id="Rectangle 157_6" d="M2 344L297 344C301.971 344 306 348.029 306 353C306 357.971 301.971 362 297 362L2 362L2 344Z" fill="#131313"/>
      <path class="rect-animation"  id="Rectangle 158_6" d="M2 326L297 326C301.971 326 306 330.029 306 335C306 339.971 301.971 344 297 344L2 344L2 326Z" fill="#004FED"/>
      <text id="Innovazioni di prodotto / servizio" fill="#131313" xml:space="preserve" style="white-space: pre" font-family="Neue Haas Grotesk Text Pro" font-size="14" font-weight="500" letter-spacing="0em">
        <tspan x="583.574" y="357.131">Innovazioni di prodotto / servizio</tspan>
      </text>
      <rect id="Rectangle 166" y="361" width="808" height="1" fill="#131313"/>
    </g>
    <g id="Group 298">
      <text id="19%" fill="#004FED" xml:space="preserve" style="white-space: pre" font-family="Neue Haas Grotesk Text Pro" font-size="14" font-weight="500" letter-spacing="0em">
        <tspan x="273" y="409.131">19%</tspan>
      </text>
      <path id="Rectangle 157_7" d="M1.5 404.5L256 404.5C260.694 404.5 264.5 408.306 264.5 413C264.5 417.694 260.694 421.5 256 421.5L1.5 421.5L1.5 404.5Z" stroke="black"/>
      <path id="Rectangle 158_7" d="M2 386L256 386C260.971 386 265 390.029 265 395C265 399.971 260.971 404 256 404L2 404L2 386Z" fill="#004FED"/>
      <text id="Miglioramento imprese maggiori" fill="#131313" xml:space="preserve" style="white-space: pre" font-family="Neue Haas Grotesk Text Pro" font-size="14" font-weight="500" letter-spacing="0em">
        <tspan x="586.049" y="417.131">Miglioramento imprese maggiori</tspan>
      </text>
      <rect id="Rectangle 167" y="421" width="808" height="1" fill="#131313"/>
    </g>
    <g id="Group 299">
      <text id="18%" fill="#004FED" xml:space="preserve" style="white-space: pre" font-family="Neue Haas Grotesk Text Pro" font-size="14" font-weight="500" letter-spacing="0em">
        <tspan x="259" y="460.131">18%</tspan>
      </text>
      <text id="26%_3" fill="#131313" xml:space="preserve" style="white-space: pre" font-family="Neue Haas Grotesk Text Pro" font-size="14" font-weight="500" letter-spacing="0em">
        <tspan x="370" y="478.131">26%</tspan>
      </text>
      <text id="Momento di stasi" fill="#131313" xml:space="preserve" style="white-space: pre" font-family="Neue Haas Grotesk Text Pro" font-size="14" font-weight="500" letter-spacing="0em">
        <tspan x="686.51" y="477.131">Momento di stasi</tspan>
      </text>
      <path id="Rectangle 157_8" d="M2 464L353 464C357.971 464 362 468.029 362 473C362 477.971 357.971 482 353 482L2 482L2 464Z" fill="#131313"/>
      <path id="Rectangle 158_8" d="M2 446L242 446C246.971 446 251 450.029 251 455C251 459.971 246.971 464 242 464L2 464L2 446Z" fill="#004FED"/>
      <rect id="Rectangle 168" y="481" width="808" height="1" fill="#131313"/>
    </g>
    <g id="Group 300">
      <text id="18%_2" fill="#004FED" xml:space="preserve" style="white-space: pre" font-family="Neue Haas Grotesk Text Pro" font-size="14" font-weight="500" letter-spacing="0em">
        <tspan x="259" y="520.131">18%</tspan>
      </text>
      <text id="23%" fill="#131313" xml:space="preserve" style="white-space: pre" font-family="Neue Haas Grotesk Text Pro" font-size="14" font-weight="500" letter-spacing="0em">
        <tspan x="328.922" y="537.131">23%</tspan>
      </text>
      <path id="Rectangle 157_9" d="M2 524L311 524C315.971 524 320 528.029 320 533C320 537.971 315.971 542 311 542L2 542L2 524Z" fill="#131313"/>
      <text id="Cambio modelli distributivi" fill="#131313" xml:space="preserve" style="white-space: pre" font-family="Neue Haas Grotesk Text Pro" font-size="14" font-weight="500" letter-spacing="0em">
        <tspan x="624.494" y="537.131">Cambio modelli distributivi</tspan>
      </text>
      <path id="Rectangle 158_9" d="M2 506L242 506C246.971 506 251 510.029 251 515C251 519.971 246.971 524 242 524L2 524L2 506Z" fill="#004FED"/>
      <rect id="Rectangle 169" y="541" width="808" height="1" fill="#131313"/>
    </g>
    <g id="Group 301">
      <text id="16%" fill="#004FED" xml:space="preserve" style="white-space: pre" font-family="Neue Haas Grotesk Text Pro" font-size="14" font-weight="500" letter-spacing="0em">
        <tspan x="231" y="580.131">16%</tspan>
      </text>
      <text id="13%" fill="#131313" xml:space="preserve" style="white-space: pre" font-family="Neue Haas Grotesk Text Pro" font-size="14" font-weight="500" letter-spacing="0em">
        <tspan x="189" y="598.131">13%</tspan>
      </text>
      <path id="Rectangle 157_10" d="M2 584L172 584C176.971 584 181 588.029 181 593C181 597.971 176.971 602 172 602L2 602L2 584Z" fill="#131313"/>
      <path id="Rectangle 158_10" d="M2 566L214 566C218.971 566 223 570.029 223 575C223 579.971 218.971 584 214 584L2 584L2 566Z" fill="#004FED"/>
      <text id="Partnership tra player" fill="#131313" xml:space="preserve" style="white-space: pre" font-family="Neue Haas Grotesk Text Pro" font-size="14" font-weight="500" letter-spacing="0em">
        <tspan x="656.145" y="597.131">Partnership tra player</tspan>
      </text>
      <rect id="Rectangle 170" y="601" width="808" height="1" fill="#131313"/>
    </g>
    <g id="Group 302">
      <text id="13%_2" fill="#004FED" xml:space="preserve" style="white-space: pre" font-family="Neue Haas Grotesk Text Pro" font-size="14" font-weight="500" letter-spacing="0em">
        <tspan x="189" y="640.131">13%</tspan>
      </text>
      <text id="9%" fill="#131313" xml:space="preserve" style="white-space: pre" font-family="Neue Haas Grotesk Text Pro" font-size="14" font-weight="500" letter-spacing="0em">
        <tspan x="133" y="658.131">9%</tspan>
      </text>
      <path id="Rectangle 157_11" d="M2 644L116 644C120.971 644 125 648.029 125 653C125 657.971 120.971 662 116 662L2 662L2 644Z" fill="#131313"/>
      <path id="Rectangle 158_11" d="M2 626L172 626C176.971 626 181 630.029 181 635C181 639.971 176.971 644 172 644L2 644L2 626Z" fill="#004FED"/>
      <text id="Investimenti in comunicazione" fill="#131313" xml:space="preserve" style="white-space: pre" font-family="Neue Haas Grotesk Text Pro" font-size="14" font-weight="500" letter-spacing="0em">
        <tspan x="600.459" y="657.131">Investimenti in comunicazione</tspan>
      </text>
      <rect id="Rectangle 171" y="661" width="808" height="1" fill="#131313"/>
    </g>
    <g id="Group 303">
      <text id="11%" fill="#004FED" xml:space="preserve" style="white-space: pre" font-family="Neue Haas Grotesk Text Pro" font-size="14" font-weight="500" letter-spacing="0em">
        <tspan x="164.514" y="700.131">11%</tspan>
      </text>
      <text id="7%" fill="#131313" xml:space="preserve" style="white-space: pre" font-family="Neue Haas Grotesk Text Pro" font-size="14" font-weight="500" letter-spacing="0em">
        <tspan x="106" y="718.131">7%</tspan>
      </text>
      <path id="Rectangle 157_12" d="M2 704L89 704C93.9706 704 98 708.029 98 713C98 717.971 93.9706 722 89 722L2 722L2 704Z" fill="#131313"/>
      <path id="Rectangle 158_12" d="M2 686L144 686C148.971 686 153 690.029 153 695C153 699.971 148.971 704 144 704L2 704L2 686Z" fill="#004FED"/>
      <text id="Ingresso di nuovi player" fill="#131313" xml:space="preserve" style="white-space: pre" font-family="Neue Haas Grotesk Text Pro" font-size="14" font-weight="500" letter-spacing="0em">
        <tspan x="643.402" y="717.131">Ingresso di nuovi player</tspan>
      </text>
      <rect id="Rectangle 172" y="721" width="808" height="1" fill="#131313"/>
    </g>
    <g id="Group 304">
      <text id="9%_2" fill="#004FED" xml:space="preserve" style="white-space: pre" font-family="Neue Haas Grotesk Text Pro" font-size="14" font-weight="500" letter-spacing="0em">
        <tspan x="133" y="769.131">9%</tspan>
      </text>
      <path id="Rectangle 157_13" d="M1.5 764.5L116 764.5C120.694 764.5 124.5 768.306 124.5 773C124.5 777.694 120.694 781.5 116 781.5L1.5 781.5L1.5 764.5Z" stroke="black"/>
      <path id="Rectangle 158_13" d="M2 746L116 746C120.971 746 125 750.029 125 755C125 759.971 120.971 764 116 764L2 764L2 746Z" fill="#004FED"/>
      <text id="Un recupero dell&#226;&#128;&#153;economia europea" fill="#131313" xml:space="preserve" style="white-space: pre" font-family="Neue Haas Grotesk Text Pro" font-size="14" font-weight="500" letter-spacing="0em">
        <tspan x="564.939" y="777.131">Un recupero dell&#x2019;economia europea</tspan>
      </text>
      <rect id="Rectangle 173" y="781" width="808" height="1" fill="#131313"/>
    </g>
    <g id="Group 305">
      <text id="8%" fill="#004FED" xml:space="preserve" style="white-space: pre" font-family="Neue Haas Grotesk Text Pro" font-size="14" font-weight="500" letter-spacing="0em">
        <tspan x="119" y="820.131">8%</tspan>
      </text>
      <text id="12%" fill="#131313" xml:space="preserve" style="white-space: pre" font-family="Neue Haas Grotesk Text Pro" font-size="14" font-weight="500" letter-spacing="0em">
        <tspan x="175" y="838.131">12%</tspan>
      </text>
      <path id="Rectangle 157_14" d="M2 824L158 824C162.971 824 167 828.029 167 833C167 837.971 162.971 842 158 842L2 842L2 824Z" fill="#131313"/>
      <path id="Rectangle 158_14" d="M2 806L102 806C106.971 806 111 810.029 111 815C111 819.971 106.971 824 102 824L2 824L2 806Z" fill="#004FED"/>
      <text id="Taglio dei prezzi" fill="#131313" xml:space="preserve" style="white-space: pre" font-family="Neue Haas Grotesk Text Pro" font-size="14" font-weight="500" letter-spacing="0em">
        <tspan x="693.332" y="837.131">Taglio dei prezzi</tspan>
      </text>
      <rect id="Rectangle 174" y="841" width="808" height="1" fill="#131313"/>
    </g>
    <g id="Group 306">
      <text id="8%_2" fill="#004FED" xml:space="preserve" style="white-space: pre" font-family="Neue Haas Grotesk Text Pro" font-size="14" font-weight="500" letter-spacing="0em">
        <tspan x="119" y="889.131">8%</tspan>
      </text>
      <path id="Rectangle 157_15" d="M2 884L102 884C106.971 884 111 888.029 111 893C111 897.971 106.971 902 102 902L2 902L2 884Z" fill="#131313"/>
      <path id="Rectangle 158_15" d="M2 866L102 866C106.971 866 111 870.029 111 875C111 879.971 106.971 884 102 884L2 884L2 866Z" fill="#004FED"/>
      <text id="Aumento della regolamentazione" fill="#131313" xml:space="preserve" style="white-space: pre" font-family="Neue Haas Grotesk Text Pro" font-size="14" font-weight="500" letter-spacing="0em">
        <tspan x="581.496" y="897.131">Aumento della regolamentazione</tspan>
      </text>
      <rect id="Rectangle 175" y="901" width="808" height="1" fill="#131313"/>
    </g>
    <g id="Group 307">
      <text id="7%_2" fill="#004FED" xml:space="preserve" style="white-space: pre" font-family="Neue Haas Grotesk Text Pro" font-size="14" font-weight="500" letter-spacing="0em">
        <tspan x="107.986" y="940.131">7%</tspan>
      </text>
      <path id="Rectangle 158_16" d="M2 926L89 926C93.9706 926 98 930.029 98 935C98 939.971 93.9706 944 89 944L2 944L2 926Z" fill="#004FED"/>
      <path id="Rectangle 158_17" d="M1.5 961.5L89 961.5C93.6944 961.5 97.5 957.694 97.5 953C97.5 948.306 93.6944 944.5 89 944.5L1.5 944.5L1.5 961.5Z" stroke="black"/>
      <text id="Vantaggi per le imprese pi&#195;&#185; piccole" fill="#131313" xml:space="preserve" style="white-space: pre" font-family="Neue Haas Grotesk Text Pro" font-size="14" font-weight="500" letter-spacing="0em">
        <tspan x="564.385" y="957.131">Vantaggi per le imprese pi&#xf9; piccole</tspan>
      </text>
      <rect id="Rectangle 176" y="961" width="804" height="1" fill="#131313"/>
    </g>
    <g id="Group 308">
      <text id="2%" fill="#004FED" xml:space="preserve" style="white-space: pre" font-family="Neue Haas Grotesk Text Pro" font-size="14" font-weight="500" letter-spacing="0em">
        <tspan x="36.3848" y="1009.13">2%</tspan>
      </text>
      <path id="Rectangle 157_16" d="M2 1004H19C23.9706 1004 28 1008.03 28 1013C28 1017.97 23.9706 1022 19 1022H2L2 1004Z" fill="#131313"/>
      <path id="Rectangle 158_18" d="M2 986H19C23.9706 986 28 990.029 28 995C28 999.971 23.9706 1004 19 1004H2L2 986Z" fill="#004FED"/>
      <text id="Niente di tutto questo" fill="#131313" xml:space="preserve" style="white-space: pre" font-family="Neue Haas Grotesk Text Pro" font-size="14" font-weight="500" letter-spacing="0em">
        <tspan x="655.898" y="1017.13">Niente di tutto questo</tspan>
      </text>
      <rect id="Rectangle 177" y="1021" width="808" height="1" fill="#131313"/>
    </g>
    <rect id="Rectangle 178" width="2" height="996" transform="matrix(-1 0 0 1 2 26)" fill="#131313"/>
  </g>
</svg>
