<svg width="600" height="626" viewBox="0 0 600 626" fill="none" xmlns="http://www.w3.org/2000/svg">
<g id="Group 335">
<g id="Group 122">
<g id="Group 117">
<path id="Rectangle 20" d="M90 59L542 89.0024V206.002L90 236L90 59Z" fill="url(#paint0_linear)"/>
<circle id="Ellipse 16" cx="541.5" cy="147.5" r="58" fill="white" stroke="#24262F"/>
<circle id="Ellipse 15" cx="88.5" cy="147.5" r="88" fill="#1880FF" stroke="white"/>
</g>
<path id="Classe d&#226;&#128;&#153;et&#195;&#160; 16 &#226;&#134;&#146; 24" d="M225.639 147.68C225.639 150.592 227.399 152.224 230.183 152.224C232.935 152.224 234.535 150.64 234.535 148.208V147.824H232.695V148.24C232.695 149.552 231.863 150.576 230.183 150.576C228.519 150.576 227.495 149.488 227.495 147.712V145.088C227.495 143.312 228.503 142.224 230.183 142.224C231.831 142.224 232.695 143.264 232.695 144.576V144.88H234.535V144.608C234.535 142.16 232.967 140.576 230.183 140.576C227.399 140.576 225.639 142.208 225.639 145.12V147.68ZM237.783 140.8H236.039V152H237.783V140.8ZM239.629 146.16L241.261 146.704C241.421 145.888 241.981 145.296 243.085 145.296C244.189 145.296 244.717 145.92 244.717 146.768V147.248H242.381C240.621 147.248 239.357 148.08 239.357 149.712C239.357 151.312 240.621 152.224 242.253 152.224C243.757 152.224 244.317 151.44 244.541 151.008H244.749V152H246.429V146.896C246.429 144.96 245.149 143.872 243.101 143.872C241.069 143.872 240.013 144.928 239.629 146.16ZM241.117 149.664C241.117 149.008 241.645 148.608 242.493 148.608H244.717V148.752C244.717 150 243.837 150.784 242.589 150.784C241.645 150.784 241.117 150.336 241.117 149.664ZM248.161 146.272C248.161 147.776 249.409 148.368 251.009 148.656L251.553 148.752C252.593 148.944 253.121 149.2 253.121 149.808C253.121 150.416 252.561 150.864 251.553 150.864C250.529 150.864 249.697 150.448 249.473 149.152L247.84 149.552C248.113 151.312 249.521 152.224 251.553 152.224C253.537 152.224 254.817 151.296 254.817 149.68C254.817 148.064 253.521 147.6 251.793 147.28L251.249 147.184C250.385 147.024 249.857 146.768 249.857 146.16C249.857 145.584 250.369 145.232 251.233 145.232C252.097 145.232 252.721 145.6 252.913 146.56L254.513 146.08C254.161 144.752 253.009 143.888 251.233 143.888C249.377 143.888 248.161 144.752 248.161 146.272ZM256.067 146.272C256.067 147.776 257.315 148.368 258.915 148.656L259.459 148.752C260.499 148.944 261.027 149.2 261.027 149.808C261.027 150.416 260.467 150.864 259.459 150.864C258.435 150.864 257.603 150.448 257.379 149.152L255.747 149.552C256.019 151.312 257.427 152.224 259.459 152.224C261.443 152.224 262.723 151.296 262.723 149.68C262.723 148.064 261.427 147.6 259.699 147.28L259.155 147.184C258.291 147.024 257.763 146.768 257.763 146.16C257.763 145.584 258.275 145.232 259.139 145.232C260.003 145.232 260.627 145.6 260.819 146.56L262.419 146.08C262.067 144.752 260.915 143.888 259.139 143.888C257.283 143.888 256.067 144.752 256.067 146.272ZM263.73 148.016C263.73 150.496 265.362 152.224 267.762 152.224C269.938 152.224 270.866 150.976 271.33 150.144L269.874 149.36C269.554 150.048 268.994 150.704 267.794 150.704C266.53 150.704 265.602 149.824 265.538 148.608H271.522V147.888C271.522 145.472 269.986 143.872 267.698 143.872C265.378 143.872 263.73 145.552 263.73 148.016ZM265.554 147.248C265.698 146.144 266.466 145.392 267.682 145.392C268.85 145.392 269.634 146.112 269.73 147.248H265.554ZM285.22 140.8H283.46V145.216H283.3C282.852 144.544 282.052 143.888 280.596 143.888C278.66 143.888 276.98 145.488 276.98 148.048C276.98 150.624 278.66 152.224 280.596 152.224C282.052 152.224 282.852 151.568 283.332 150.832H283.492V152H285.22V140.8ZM281.108 145.392C282.484 145.392 283.492 146.384 283.492 148.048C283.492 149.712 282.484 150.704 281.108 150.704C279.732 150.704 278.74 149.728 278.74 148.048C278.74 146.384 279.732 145.392 281.108 145.392ZM286.971 141.904C286.971 142.64 287.547 143.184 288.331 143.184H288.555V143.36C288.555 143.856 288.283 144.16 287.755 144.16H287.195V145.152H287.707C289.067 145.152 289.691 144.336 289.691 143.168V141.952C289.691 141.104 289.115 140.56 288.331 140.56C287.547 140.56 286.971 141.104 286.971 141.904ZM290.949 148.016C290.949 150.496 292.581 152.224 294.981 152.224C297.157 152.224 298.085 150.976 298.549 150.144L297.093 149.36C296.773 150.048 296.213 150.704 295.013 150.704C293.749 150.704 292.821 149.824 292.757 148.608H298.741V147.888C298.741 145.472 297.205 143.872 294.917 143.872C292.597 143.872 290.949 145.552 290.949 148.016ZM292.773 147.248C292.917 146.144 293.685 145.392 294.901 145.392C296.069 145.392 296.853 146.112 296.949 147.248H292.773ZM299.19 145.536H301.318V150.368C301.318 151.36 301.958 152 302.918 152H305.142V150.56H303.526C303.238 150.56 303.078 150.4 303.078 150.08V145.536H305.382V144.112H303.078V141.536H301.318V144.112H299.19V145.536ZM310.403 140.8H308.387L309.779 142.88H311.331L310.403 140.8ZM306.723 146.16L308.355 146.704C308.515 145.888 309.075 145.296 310.179 145.296C311.283 145.296 311.811 145.92 311.811 146.768V147.248H309.475C307.715 147.248 306.451 148.08 306.451 149.712C306.451 151.312 307.715 152.224 309.347 152.224C310.851 152.224 311.411 151.44 311.635 151.008H311.843V152H313.523V146.896C313.523 144.96 312.243 143.872 310.195 143.872C308.163 143.872 307.107 144.928 306.723 146.16ZM308.211 149.664C308.211 149.008 308.739 148.608 309.587 148.608H311.811V148.752C311.811 150 310.931 150.784 309.683 150.784C308.739 150.784 308.211 150.336 308.211 149.664ZM321.93 140.8L318.97 145.792H320.938L322.714 142.768H322.906V152H324.762V140.8H321.93ZM334.502 148.32C334.502 146.16 332.966 144.624 330.934 144.624C329.382 144.624 328.694 145.344 328.406 145.808H328.214V144.432C328.214 143.024 329.046 142.224 330.502 142.224C331.862 142.224 332.534 143.008 332.534 144.096H334.406C334.406 141.952 332.854 140.576 330.502 140.576C328.102 140.576 326.358 141.984 326.358 144.56V148.464C326.358 150.688 328.102 152.24 330.406 152.208C332.79 152.192 334.502 150.64 334.502 148.32ZM330.438 146.08C331.766 146.08 332.662 146.96 332.662 148.32C332.662 149.68 331.734 150.56 330.438 150.56C329.142 150.56 328.214 149.712 328.214 148.32C328.214 146.96 329.11 146.08 330.438 146.08ZM347.757 143.52L346.573 144.688L348.525 146.64L349.053 146.992L349.005 147.136L348.365 147.072H340.269V148.784H348.365L349.005 148.72L349.053 148.864L348.525 149.216L346.573 151.168L347.757 152.352L351.469 148.64V147.216L347.757 143.52ZM357.341 144.512V144.896H359.181V144.544C359.181 142.976 360.221 142.224 361.517 142.224C362.781 142.224 363.629 142.96 363.629 144.208C363.629 145.584 362.637 146.192 360.941 146.64C358.829 147.184 357.357 148.144 357.357 150.256V152H365.437V150.32H359.213V150.096C359.213 148.848 360.141 148.496 361.821 148.064C364.157 147.472 365.485 146.432 365.485 144.256C365.485 141.984 363.677 140.576 361.485 140.576C359.229 140.576 357.341 141.936 357.341 144.512ZM370.081 140.8L365.457 148.16V149.776H371.137V152H372.993V149.776H374.849V148.096H372.993V140.8H370.081ZM370.945 142.416H371.137V148.096H367.393L370.945 142.416Z" fill="#24262F"/>
<g id="59">
<path d="M78.04 140V147.68H81.12C81.38 147.18 81.94 146.52 83.14 146.52C84.58 146.52 85.58 147.52 85.58 149.18C85.58 151.04 84.5 152.22 82.72 152.22C80.92 152.22 79.86 151.1 79.86 149.3V149.04H77.56V149.46C77.56 152.38 79.68 154.28 82.78 154.28C85.86 154.28 87.9 152.18 87.9 149.08C87.9 146.26 85.96 144.56 83.72 144.56C81.78 144.56 80.96 145.56 80.58 146.18H80.34V142.1H87.44V140H78.04ZM88.9858 144.58C88.9858 147.28 90.9058 149.2 93.4658 149.2C95.3858 149.2 96.2458 148.3 96.6258 147.72H96.8658V149.44C96.8658 151.2 95.8058 152.2 93.9858 152.2C92.2858 152.2 91.4458 151.2 91.4458 149.86H89.1058C89.1058 152.54 91.0458 154.26 93.9858 154.26C97.0058 154.26 99.1658 152.5 99.1658 149.28V144.4C99.1658 141.62 97.0058 139.68 94.1058 139.72C91.1458 139.76 88.9858 141.68 88.9858 144.58ZM94.0858 147.38C92.4258 147.38 91.2858 146.28 91.2858 144.58C91.2858 142.88 92.4458 141.78 94.0858 141.78C95.7058 141.78 96.8658 142.84 96.8658 144.58C96.8658 146.28 95.7258 147.38 94.0858 147.38Z" fill="white"/>
<path d="M77 156H99.9058V157H77V156Z" fill="white"/>
</g>
<g id="39">
<path d="M530.86 140V142.1H537.54L533.74 145.28V147.38H536.02C537.5 147.38 538.6 148.12 538.6 149.66C538.6 151.12 537.54 152.22 535.76 152.22C533.86 152.22 532.78 151.08 532.78 149.46V148.92H530.48V149.52C530.48 152.36 532.5 154.28 535.76 154.28C538.78 154.28 540.92 152.44 540.92 149.66C540.92 147.08 539.14 145.68 537.04 145.68H536.54V145.46L540.68 142.04V140H530.86ZM542.044 144.58C542.044 147.28 543.964 149.2 546.524 149.2C548.444 149.2 549.304 148.3 549.684 147.72H549.924V149.44C549.924 151.2 548.864 152.2 547.044 152.2C545.344 152.2 544.504 151.2 544.504 149.86H542.164C542.164 152.54 544.104 154.26 547.044 154.26C550.064 154.26 552.224 152.5 552.224 149.28V144.4C552.224 141.62 550.064 139.68 547.164 139.72C544.204 139.76 542.044 141.68 542.044 144.58ZM547.144 147.38C545.484 147.38 544.344 146.28 544.344 144.58C544.344 142.88 545.504 141.78 547.144 141.78C548.764 141.78 549.924 142.84 549.924 144.58C549.924 146.28 548.784 147.38 547.144 147.38Z" fill="#24262F"/>
<path d="M530 156H552.964V157H530V156Z" fill="#24262F"/>
</g>
</g>
<g id="Group 120">
<g id="Group 118">
<path id="Rectangle 20_2" d="M90 316L542 333V414L90 430V316Z" fill="url(#paint1_linear)"/>
<circle id="Ellipse 16_2" cx="541.5" cy="373.5" r="40" fill="white" stroke="#24262F"/>
<circle id="Ellipse 15_2" cx="90" cy="373" r="56.5" fill="#1880FF" stroke="white"/>
</g>
<g id="38">
<path d="M78.86 366V368.1H85.54L81.74 371.28V373.38H84.02C85.5 373.38 86.6 374.12 86.6 375.66C86.6 377.12 85.54 378.22 83.76 378.22C81.86 378.22 80.78 377.08 80.78 375.46V374.92H78.48V375.52C78.48 378.36 80.5 380.28 83.76 380.28C86.78 380.28 88.92 378.44 88.92 375.66C88.92 373.08 87.14 371.68 85.04 371.68H84.54V371.46L88.68 368.04V366H78.86ZM90.2444 369.52C90.2444 371.26 91.3844 372.18 92.5444 372.66V372.9C91.4044 373.2 90.0244 374.28 90.0244 376.24C90.0244 378.66 92.1844 380.28 95.2044 380.28C98.2244 380.28 100.384 378.66 100.384 376.24C100.384 374.28 99.0044 373.2 97.8444 372.9V372.66C99.0044 372.18 100.164 371.26 100.164 369.52C100.164 367.32 98.1644 365.72 95.2044 365.72C92.2244 365.72 90.2444 367.32 90.2444 369.52ZM92.5444 369.78C92.5444 368.52 93.6444 367.78 95.2044 367.78C96.7444 367.78 97.8444 368.52 97.8444 369.78C97.8444 371.04 96.7444 371.78 95.2044 371.78C93.6444 371.78 92.5444 371.04 92.5444 369.78ZM92.3244 376.02C92.3244 374.68 93.4044 373.84 95.2044 373.84C97.0044 373.84 98.0644 374.68 98.0644 376.02C98.0644 377.38 97.0044 378.22 95.2044 378.22C93.4044 378.22 92.3244 377.38 92.3244 376.02Z" fill="white"/>
<path d="M78 382H100.904V383H78V382Z" fill="white"/>
</g>
<g id="27">
<path d="M531.68 370.64V371.12H533.98V370.68C533.98 368.72 535.28 367.78 536.9 367.78C538.48 367.78 539.54 368.7 539.54 370.26C539.54 371.98 538.3 372.74 536.18 373.3C533.54 373.98 531.7 375.18 531.7 377.82V380H541.8V377.9H534.02V377.62C534.02 376.06 535.18 375.62 537.28 375.08C540.2 374.34 541.86 373.04 541.86 370.32C541.86 367.48 539.6 365.72 536.86 365.72C534.04 365.72 531.68 367.42 531.68 370.64ZM542.39 366V368.1H550.13L544.55 380H547.13L552.75 368.02V366H542.39Z" fill="#24262F"/>
<path d="M531 382H552.89V383H531V382Z" fill="#24262F"/>
</g>
<path id="Classe d&#226;&#128;&#153;et&#195;&#160; 25 &#226;&#134;&#146; 54" d="M231.756 373.68C231.756 376.592 233.516 378.224 236.3 378.224C239.052 378.224 240.652 376.64 240.652 374.208V373.824H238.812V374.24C238.812 375.552 237.98 376.576 236.3 376.576C234.636 376.576 233.612 375.488 233.612 373.712V371.088C233.612 369.312 234.62 368.224 236.3 368.224C237.948 368.224 238.812 369.264 238.812 370.576V370.88H240.652V370.608C240.652 368.16 239.084 366.576 236.3 366.576C233.516 366.576 231.756 368.208 231.756 371.12V373.68ZM243.9 366.8H242.156V378H243.9V366.8ZM245.746 372.16L247.378 372.704C247.538 371.888 248.098 371.296 249.202 371.296C250.306 371.296 250.834 371.92 250.834 372.768V373.248H248.498C246.738 373.248 245.474 374.08 245.474 375.712C245.474 377.312 246.738 378.224 248.37 378.224C249.874 378.224 250.434 377.44 250.658 377.008H250.866V378H252.546V372.896C252.546 370.96 251.266 369.872 249.218 369.872C247.186 369.872 246.13 370.928 245.746 372.16ZM247.234 375.664C247.234 375.008 247.762 374.608 248.61 374.608H250.834V374.752C250.834 376 249.954 376.784 248.706 376.784C247.762 376.784 247.234 376.336 247.234 375.664ZM254.278 372.272C254.278 373.776 255.526 374.368 257.126 374.656L257.67 374.752C258.71 374.944 259.238 375.2 259.238 375.808C259.238 376.416 258.678 376.864 257.67 376.864C256.646 376.864 255.814 376.448 255.59 375.152L253.958 375.552C254.23 377.312 255.638 378.224 257.67 378.224C259.654 378.224 260.934 377.296 260.934 375.68C260.934 374.064 259.638 373.6 257.91 373.28L257.366 373.184C256.502 373.024 255.974 372.768 255.974 372.16C255.974 371.584 256.486 371.232 257.35 371.232C258.214 371.232 258.838 371.6 259.03 372.56L260.63 372.08C260.278 370.752 259.126 369.888 257.35 369.888C255.494 369.888 254.278 370.752 254.278 372.272ZM262.184 372.272C262.184 373.776 263.432 374.368 265.032 374.656L265.576 374.752C266.616 374.944 267.144 375.2 267.144 375.808C267.144 376.416 266.584 376.864 265.576 376.864C264.552 376.864 263.72 376.448 263.496 375.152L261.864 375.552C262.136 377.312 263.544 378.224 265.576 378.224C267.56 378.224 268.84 377.296 268.84 375.68C268.84 374.064 267.544 373.6 265.816 373.28L265.272 373.184C264.408 373.024 263.88 372.768 263.88 372.16C263.88 371.584 264.392 371.232 265.256 371.232C266.12 371.232 266.744 371.6 266.936 372.56L268.536 372.08C268.184 370.752 267.032 369.888 265.256 369.888C263.4 369.888 262.184 370.752 262.184 372.272ZM269.848 374.016C269.848 376.496 271.48 378.224 273.88 378.224C276.056 378.224 276.984 376.976 277.448 376.144L275.992 375.36C275.672 376.048 275.112 376.704 273.912 376.704C272.648 376.704 271.72 375.824 271.656 374.608H277.64V373.888C277.64 371.472 276.104 369.872 273.816 369.872C271.496 369.872 269.848 371.552 269.848 374.016ZM271.672 373.248C271.816 372.144 272.584 371.392 273.8 371.392C274.968 371.392 275.752 372.112 275.848 373.248H271.672ZM291.338 366.8H289.578V371.216H289.418C288.97 370.544 288.17 369.888 286.714 369.888C284.778 369.888 283.098 371.488 283.098 374.048C283.098 376.624 284.778 378.224 286.714 378.224C288.17 378.224 288.97 377.568 289.45 376.832H289.61V378H291.338V366.8ZM287.226 371.392C288.602 371.392 289.61 372.384 289.61 374.048C289.61 375.712 288.602 376.704 287.226 376.704C285.85 376.704 284.858 375.728 284.858 374.048C284.858 372.384 285.85 371.392 287.226 371.392ZM293.088 367.904C293.088 368.64 293.664 369.184 294.448 369.184H294.672V369.36C294.672 369.856 294.4 370.16 293.872 370.16H293.312V371.152H293.824C295.184 371.152 295.808 370.336 295.808 369.168V367.952C295.808 367.104 295.232 366.56 294.448 366.56C293.664 366.56 293.088 367.104 293.088 367.904ZM297.066 374.016C297.066 376.496 298.698 378.224 301.098 378.224C303.274 378.224 304.202 376.976 304.666 376.144L303.21 375.36C302.89 376.048 302.33 376.704 301.13 376.704C299.866 376.704 298.938 375.824 298.874 374.608H304.858V373.888C304.858 371.472 303.322 369.872 301.034 369.872C298.714 369.872 297.066 371.552 297.066 374.016ZM298.89 373.248C299.034 372.144 299.802 371.392 301.018 371.392C302.186 371.392 302.97 372.112 303.066 373.248H298.89ZM305.307 371.536H307.435V376.368C307.435 377.36 308.075 378 309.035 378H311.259V376.56H309.643C309.355 376.56 309.195 376.4 309.195 376.08V371.536H311.499V370.112H309.195V367.536H307.435V370.112H305.307V371.536ZM316.52 366.8H314.504L315.896 368.88H317.448L316.52 366.8ZM312.84 372.16L314.472 372.704C314.632 371.888 315.192 371.296 316.296 371.296C317.4 371.296 317.928 371.92 317.928 372.768V373.248H315.592C313.832 373.248 312.568 374.08 312.568 375.712C312.568 377.312 313.832 378.224 315.464 378.224C316.968 378.224 317.528 377.44 317.752 377.008H317.96V378H319.64V372.896C319.64 370.96 318.36 369.872 316.312 369.872C314.28 369.872 313.224 370.928 312.84 372.16ZM314.328 375.664C314.328 375.008 314.856 374.608 315.704 374.608H317.928V374.752C317.928 376 317.048 376.784 315.8 376.784C314.856 376.784 314.328 376.336 314.328 375.664ZM325.599 370.512V370.896H327.439V370.544C327.439 368.976 328.479 368.224 329.775 368.224C331.039 368.224 331.887 368.96 331.887 370.208C331.887 371.584 330.895 372.192 329.199 372.64C327.087 373.184 325.615 374.144 325.615 376.256V378H333.695V376.32H327.471V376.096C327.471 374.848 328.399 374.496 330.079 374.064C332.415 373.472 333.743 372.432 333.743 370.256C333.743 367.984 331.935 366.576 329.743 366.576C327.487 366.576 325.599 367.936 325.599 370.512ZM334.887 366.8V372.944H337.351C337.559 372.544 338.007 372.016 338.967 372.016C340.119 372.016 340.919 372.816 340.919 374.144C340.919 375.632 340.055 376.576 338.631 376.576C337.191 376.576 336.343 375.68 336.343 374.24V374.032H334.503V374.368C334.503 376.704 336.199 378.224 338.679 378.224C341.143 378.224 342.775 376.544 342.775 374.064C342.775 371.808 341.223 370.448 339.431 370.448C337.879 370.448 337.223 371.248 336.919 371.744H336.727V368.48H342.407V366.8H334.887ZM356.015 369.52L354.831 370.688L356.783 372.64L357.311 372.992L357.263 373.136L356.623 373.072H348.527V374.784H356.623L357.263 374.72L357.311 374.864L356.783 375.216L354.831 377.168L356.015 378.352L359.727 374.64V373.216L356.015 369.52ZM365.887 366.8V372.944H368.351C368.559 372.544 369.007 372.016 369.967 372.016C371.119 372.016 371.919 372.816 371.919 374.144C371.919 375.632 371.055 376.576 369.631 376.576C368.191 376.576 367.343 375.68 367.343 374.24V374.032H365.503V374.368C365.503 376.704 367.199 378.224 369.679 378.224C372.143 378.224 373.775 376.544 373.775 374.064C373.775 371.808 372.223 370.448 370.431 370.448C368.879 370.448 368.223 371.248 367.919 371.744H367.727V368.48H373.407V366.8H365.887ZM378.963 366.8L374.339 374.16V375.776H380.019V378H381.875V375.776H383.731V374.096H381.875V366.8H378.963ZM379.827 368.416H380.019V374.096H376.275L379.827 368.416Z" fill="#24262F"/>
</g>
<g id="Group 121">
<g id="Group 119">
<path id="Rectangle 20_3" d="M89 510L541 516V540L89 549V510Z" fill="url(#paint2_linear)"/>
<circle id="Ellipse 16_3" cx="541" cy="528" r="11.5" fill="white" stroke="#24262F"/>
<circle id="Ellipse 15_3" cx="89.5" cy="529.5" r="19" fill="#1880FF" stroke="white"/>
</g>
<g id="13">
<path d="M82.74 522L79.04 528.24H81.5L83.72 524.46H83.96V536H86.28V522H82.74ZM88.3952 522V524.1H95.0752L91.2752 527.28V529.38H93.5552C95.0352 529.38 96.1352 530.12 96.1352 531.66C96.1352 533.12 95.0752 534.22 93.2952 534.22C91.3952 534.22 90.3152 533.08 90.3152 531.46V530.92H88.0152V531.52C88.0152 534.36 90.0352 536.28 93.2952 536.28C96.3152 536.28 98.4552 534.44 98.4552 531.66C98.4552 529.08 96.6752 527.68 94.5752 527.68H94.0752V527.46L98.2152 524.04V522H88.3952Z" fill="white"/>
<path d="M79 538H99.0152V539H79V538Z" fill="white"/>
</g>
<g id="8">
<path d="M561.76 525.52C561.76 527.26 562.9 528.18 564.06 528.66V528.9C562.92 529.2 561.54 530.28 561.54 532.24C561.54 534.66 563.7 536.28 566.72 536.28C569.74 536.28 571.9 534.66 571.9 532.24C571.9 530.28 570.52 529.2 569.36 528.9V528.66C570.52 528.18 571.68 527.26 571.68 525.52C571.68 523.32 569.68 521.72 566.72 521.72C563.74 521.72 561.76 523.32 561.76 525.52ZM564.06 525.78C564.06 524.52 565.16 523.78 566.72 523.78C568.26 523.78 569.36 524.52 569.36 525.78C569.36 527.04 568.26 527.78 566.72 527.78C565.16 527.78 564.06 527.04 564.06 525.78ZM563.84 532.02C563.84 530.68 564.92 529.84 566.72 529.84C568.52 529.84 569.58 530.68 569.58 532.02C569.58 533.38 568.52 534.22 566.72 534.22C564.92 534.22 563.84 533.38 563.84 532.02Z" fill="white"/>
<path d="M561 538H572.42V539H561V538Z" fill="white"/>
</g>
<path id="Classe d&#226;&#128;&#153;et&#195;&#160; 55 &#226;&#134;&#146; 74" d="M236.975 529.68C236.975 532.592 238.735 534.224 241.519 534.224C244.271 534.224 245.871 532.64 245.871 530.208V529.824H244.031V530.24C244.031 531.552 243.199 532.576 241.519 532.576C239.855 532.576 238.831 531.488 238.831 529.712V527.088C238.831 525.312 239.839 524.224 241.519 524.224C243.167 524.224 244.031 525.264 244.031 526.576V526.88H245.871V526.608C245.871 524.16 244.303 522.576 241.519 522.576C238.735 522.576 236.975 524.208 236.975 527.12V529.68ZM249.119 522.8H247.375V534H249.119V522.8ZM250.965 528.16L252.597 528.704C252.757 527.888 253.317 527.296 254.421 527.296C255.525 527.296 256.053 527.92 256.053 528.768V529.248H253.717C251.957 529.248 250.693 530.08 250.693 531.712C250.693 533.312 251.957 534.224 253.589 534.224C255.093 534.224 255.653 533.44 255.877 533.008H256.085V534H257.765V528.896C257.765 526.96 256.485 525.872 254.437 525.872C252.405 525.872 251.349 526.928 250.965 528.16ZM252.453 531.664C252.453 531.008 252.981 530.608 253.829 530.608H256.053V530.752C256.053 532 255.173 532.784 253.925 532.784C252.981 532.784 252.453 532.336 252.453 531.664ZM259.496 528.272C259.496 529.776 260.744 530.368 262.344 530.656L262.888 530.752C263.928 530.944 264.456 531.2 264.456 531.808C264.456 532.416 263.896 532.864 262.888 532.864C261.864 532.864 261.032 532.448 260.808 531.152L259.176 531.552C259.448 533.312 260.856 534.224 262.888 534.224C264.872 534.224 266.152 533.296 266.152 531.68C266.152 530.064 264.856 529.6 263.128 529.28L262.584 529.184C261.72 529.024 261.192 528.768 261.192 528.16C261.192 527.584 261.704 527.232 262.568 527.232C263.432 527.232 264.056 527.6 264.248 528.56L265.848 528.08C265.496 526.752 264.344 525.888 262.568 525.888C260.712 525.888 259.496 526.752 259.496 528.272ZM267.403 528.272C267.403 529.776 268.651 530.368 270.251 530.656L270.795 530.752C271.835 530.944 272.363 531.2 272.363 531.808C272.363 532.416 271.803 532.864 270.795 532.864C269.771 532.864 268.939 532.448 268.715 531.152L267.083 531.552C267.355 533.312 268.763 534.224 270.795 534.224C272.779 534.224 274.059 533.296 274.059 531.68C274.059 530.064 272.763 529.6 271.035 529.28L270.491 529.184C269.627 529.024 269.099 528.768 269.099 528.16C269.099 527.584 269.611 527.232 270.475 527.232C271.339 527.232 271.963 527.6 272.155 528.56L273.755 528.08C273.403 526.752 272.251 525.888 270.475 525.888C268.619 525.888 267.403 526.752 267.403 528.272ZM275.066 530.016C275.066 532.496 276.698 534.224 279.098 534.224C281.274 534.224 282.202 532.976 282.666 532.144L281.21 531.36C280.89 532.048 280.33 532.704 279.13 532.704C277.866 532.704 276.938 531.824 276.874 530.608H282.858V529.888C282.858 527.472 281.322 525.872 279.034 525.872C276.714 525.872 275.066 527.552 275.066 530.016ZM276.89 529.248C277.034 528.144 277.802 527.392 279.018 527.392C280.186 527.392 280.97 528.112 281.066 529.248H276.89ZM296.556 522.8H294.796V527.216H294.636C294.188 526.544 293.388 525.888 291.932 525.888C289.996 525.888 288.316 527.488 288.316 530.048C288.316 532.624 289.996 534.224 291.932 534.224C293.388 534.224 294.188 533.568 294.668 532.832H294.828V534H296.556V522.8ZM292.444 527.392C293.82 527.392 294.828 528.384 294.828 530.048C294.828 531.712 293.82 532.704 292.444 532.704C291.068 532.704 290.076 531.728 290.076 530.048C290.076 528.384 291.068 527.392 292.444 527.392ZM298.307 523.904C298.307 524.64 298.883 525.184 299.667 525.184H299.891V525.36C299.891 525.856 299.619 526.16 299.091 526.16H298.531V527.152H299.043C300.403 527.152 301.027 526.336 301.027 525.168V523.952C301.027 523.104 300.451 522.56 299.667 522.56C298.883 522.56 298.307 523.104 298.307 523.904ZM302.285 530.016C302.285 532.496 303.917 534.224 306.317 534.224C308.493 534.224 309.421 532.976 309.885 532.144L308.429 531.36C308.109 532.048 307.549 532.704 306.349 532.704C305.085 532.704 304.157 531.824 304.093 530.608H310.077V529.888C310.077 527.472 308.541 525.872 306.253 525.872C303.933 525.872 302.285 527.552 302.285 530.016ZM304.109 529.248C304.253 528.144 305.021 527.392 306.237 527.392C307.405 527.392 308.189 528.112 308.285 529.248H304.109ZM310.526 527.536H312.654V532.368C312.654 533.36 313.294 534 314.254 534H316.478V532.56H314.862C314.574 532.56 314.414 532.4 314.414 532.08V527.536H316.718V526.112H314.414V523.536H312.654V526.112H310.526V527.536ZM321.739 522.8H319.723L321.115 524.88H322.667L321.739 522.8ZM318.059 528.16L319.691 528.704C319.851 527.888 320.411 527.296 321.515 527.296C322.619 527.296 323.147 527.92 323.147 528.768V529.248H320.811C319.051 529.248 317.787 530.08 317.787 531.712C317.787 533.312 319.051 534.224 320.683 534.224C322.187 534.224 322.747 533.44 322.971 533.008H323.179V534H324.859V528.896C324.859 526.96 323.579 525.872 321.531 525.872C319.499 525.872 318.443 526.928 318.059 528.16ZM319.547 531.664C319.547 531.008 320.075 530.608 320.923 530.608H323.147V530.752C323.147 532 322.267 532.784 321.019 532.784C320.075 532.784 319.547 532.336 319.547 531.664ZM331.105 522.8V528.944H333.569C333.777 528.544 334.225 528.016 335.185 528.016C336.337 528.016 337.137 528.816 337.137 530.144C337.137 531.632 336.273 532.576 334.849 532.576C333.409 532.576 332.561 531.68 332.561 530.24V530.032H330.721V530.368C330.721 532.704 332.417 534.224 334.897 534.224C337.361 534.224 338.993 532.544 338.993 530.064C338.993 527.808 337.441 526.448 335.649 526.448C334.097 526.448 333.441 527.248 333.137 527.744H332.945V524.48H338.625V522.8H331.105ZM340.246 522.8V528.944H342.71C342.918 528.544 343.366 528.016 344.326 528.016C345.478 528.016 346.278 528.816 346.278 530.144C346.278 531.632 345.414 532.576 343.99 532.576C342.55 532.576 341.702 531.68 341.702 530.24V530.032H339.862V530.368C339.862 532.704 341.558 534.224 344.038 534.224C346.502 534.224 348.134 532.544 348.134 530.064C348.134 527.808 346.582 526.448 344.79 526.448C343.238 526.448 342.582 527.248 342.278 527.744H342.086V524.48H347.766V522.8H340.246ZM361.374 525.52L360.19 526.688L362.142 528.64L362.67 528.992L362.622 529.136L361.982 529.072H353.886V530.784H361.982L362.622 530.72L362.67 530.864L362.142 531.216L360.19 533.168L361.374 534.352L365.086 530.64V529.216L361.374 525.52ZM370.526 522.8V524.48H376.718L372.254 534H374.318L378.814 524.416V522.8H370.526ZM382.745 522.8L378.121 530.16V531.776H383.801V534H385.657V531.776H387.513V530.096H385.657V522.8H382.745ZM383.609 524.416H383.801V530.096H380.057L383.609 524.416Z" fill="#24262F"/>
</g>
<g id="Group 126">
<g id="Group 125">
<path id="Punteggio italiano" d="M325.882 4.2V14H327.506V10.29H329.816C331.594 10.29 332.938 9.1 332.938 7.252C332.938 5.39 331.636 4.2 329.816 4.2H325.882ZM327.506 5.67H329.648C330.67 5.67 331.314 6.272 331.314 7.252C331.314 8.218 330.67 8.82 329.648 8.82H327.506V5.67ZM340.61 14V7.098H339.084V10.64C339.084 12.054 338.342 12.852 337.194 12.852C336.172 12.852 335.57 12.306 335.57 11.158V7.098H334.03V11.242C334.03 12.992 335.15 14.112 336.732 14.112C338.048 14.112 338.664 13.538 338.972 12.922H339.112V14H340.61ZM342.343 7.098V14H343.869V10.458C343.869 9.03 344.611 8.232 345.759 8.232C346.781 8.232 347.383 8.778 347.383 9.94V14H348.923V9.856C348.923 8.092 347.803 6.972 346.221 6.972C344.905 6.972 344.289 7.56 343.981 8.162H343.841V7.098H342.343ZM349.652 8.344H351.514V12.572C351.514 13.44 352.074 14 352.914 14H354.86V12.74H353.446C353.194 12.74 353.054 12.6 353.054 12.32V8.344H355.07V7.098H353.054V4.844H351.514V7.098H349.652V8.344ZM355.786 10.514C355.786 12.684 357.214 14.196 359.314 14.196C361.218 14.196 362.03 13.104 362.436 12.376L361.162 11.69C360.882 12.292 360.392 12.866 359.342 12.866C358.236 12.866 357.424 12.096 357.368 11.032H362.604V10.402C362.604 8.288 361.26 6.888 359.258 6.888C357.228 6.888 355.786 8.358 355.786 10.514ZM357.382 9.842C357.508 8.876 358.18 8.218 359.244 8.218C360.266 8.218 360.952 8.848 361.036 9.842H357.382ZM369.112 7.098V8.106H368.972C368.552 7.476 367.852 6.902 366.578 6.902C364.884 6.902 363.414 8.288 363.414 10.444C363.414 12.6 364.884 14 366.578 14C367.852 14 368.552 13.412 368.944 12.824H369.084V13.566C369.084 14.994 368.244 15.694 366.998 15.694C365.752 15.694 365.136 14.994 364.884 14.196L363.512 14.784C363.862 15.806 364.912 16.996 367.026 16.996C369.196 16.996 370.624 15.806 370.624 13.608V7.098H369.112ZM367.026 12.67C365.822 12.67 364.954 11.816 364.954 10.444C364.954 9.072 365.822 8.218 367.026 8.218C368.23 8.218 369.112 9.086 369.112 10.444C369.112 11.816 368.23 12.67 367.026 12.67ZM377.616 7.098V8.106H377.476C377.056 7.476 376.356 6.902 375.082 6.902C373.388 6.902 371.918 8.288 371.918 10.444C371.918 12.6 373.388 14 375.082 14C376.356 14 377.056 13.412 377.448 12.824H377.588V13.566C377.588 14.994 376.748 15.694 375.502 15.694C374.256 15.694 373.64 14.994 373.388 14.196L372.016 14.784C372.366 15.806 373.416 16.996 375.53 16.996C377.7 16.996 379.128 15.806 379.128 13.608V7.098H377.616ZM375.53 12.67C374.326 12.67 373.458 11.816 373.458 10.444C373.458 9.072 374.326 8.218 375.53 8.218C376.734 8.218 377.616 9.086 377.616 10.444C377.616 11.816 376.734 12.67 375.53 12.67ZM380.478 5.04C380.478 5.684 380.968 6.132 381.612 6.132C382.256 6.132 382.746 5.684 382.746 5.04C382.746 4.382 382.256 3.934 381.612 3.934C380.968 3.934 380.478 4.382 380.478 5.04ZM382.382 7.098H380.856V14H382.382V7.098ZM383.69 10.542C383.69 12.782 385.216 14.196 387.288 14.196C389.36 14.196 390.872 12.782 390.872 10.542C390.872 8.316 389.36 6.902 387.288 6.902C385.216 6.902 383.69 8.316 383.69 10.542ZM385.23 10.542C385.23 9.128 386.07 8.246 387.288 8.246C388.492 8.246 389.332 9.114 389.332 10.542C389.332 11.97 388.492 12.852 387.288 12.852C386.07 12.852 385.23 11.984 385.23 10.542ZM395.763 5.04C395.763 5.684 396.253 6.132 396.897 6.132C397.541 6.132 398.031 5.684 398.031 5.04C398.031 4.382 397.541 3.934 396.897 3.934C396.253 3.934 395.763 4.382 395.763 5.04ZM397.667 7.098H396.141V14H397.667V7.098ZM398.625 8.344H400.487V12.572C400.487 13.44 401.047 14 401.887 14H403.833V12.74H402.419C402.167 12.74 402.027 12.6 402.027 12.32V8.344H404.043V7.098H402.027V4.844H400.487V7.098H398.625V8.344ZM405.217 8.89L406.645 9.366C406.785 8.652 407.275 8.134 408.241 8.134C409.207 8.134 409.669 8.68 409.669 9.422V9.842H407.625C406.085 9.842 404.979 10.57 404.979 11.998C404.979 13.398 406.085 14.196 407.513 14.196C408.829 14.196 409.319 13.51 409.515 13.132H409.697V14H411.167V9.534C411.167 7.84 410.047 6.888 408.255 6.888C406.477 6.888 405.553 7.812 405.217 8.89ZM406.519 11.956C406.519 11.382 406.981 11.032 407.723 11.032H409.669V11.158C409.669 12.25 408.899 12.936 407.807 12.936C406.981 12.936 406.519 12.544 406.519 11.956ZM414.333 4.2H412.807V14H414.333V4.2ZM415.697 5.04C415.697 5.684 416.187 6.132 416.831 6.132C417.475 6.132 417.965 5.684 417.965 5.04C417.965 4.382 417.475 3.934 416.831 3.934C416.187 3.934 415.697 4.382 415.697 5.04ZM417.601 7.098H416.075V14H417.601V7.098ZM419.217 8.89L420.645 9.366C420.785 8.652 421.275 8.134 422.241 8.134C423.207 8.134 423.669 8.68 423.669 9.422V9.842H421.625C420.085 9.842 418.979 10.57 418.979 11.998C418.979 13.398 420.085 14.196 421.513 14.196C422.829 14.196 423.319 13.51 423.515 13.132H423.697V14H425.167V9.534C425.167 7.84 424.047 6.888 422.255 6.888C420.477 6.888 419.553 7.812 419.217 8.89ZM420.519 11.956C420.519 11.382 420.981 11.032 421.723 11.032H423.669V11.158C423.669 12.25 422.899 12.936 421.807 12.936C420.981 12.936 420.519 12.544 420.519 11.956ZM426.807 7.098V14H428.333V10.458C428.333 9.03 429.075 8.232 430.223 8.232C431.245 8.232 431.847 8.778 431.847 9.94V14H433.387V9.856C433.387 8.092 432.267 6.972 430.685 6.972C429.369 6.972 428.753 7.56 428.445 8.162H428.305V7.098H426.807ZM434.604 10.542C434.604 12.782 436.13 14.196 438.202 14.196C440.274 14.196 441.786 12.782 441.786 10.542C441.786 8.316 440.274 6.902 438.202 6.902C436.13 6.902 434.604 8.316 434.604 10.542ZM436.144 10.542C436.144 9.128 436.984 8.246 438.202 8.246C439.406 8.246 440.246 9.114 440.246 10.542C440.246 11.97 439.406 12.852 438.202 12.852C436.984 12.852 436.144 11.984 436.144 10.542Z" fill="white"/>
<circle id="Ellipse 18" cx="161" cy="9" r="4" fill="#1880FF"/>
<circle id="Ellipse 19" cx="315" cy="9" r="4" fill="white"/>
<path id="Punteggio europeo" d="M171.882 4.2V14H173.506V10.29H175.816C177.594 10.29 178.938 9.1 178.938 7.252C178.938 5.39 177.636 4.2 175.816 4.2H171.882ZM173.506 5.67H175.648C176.67 5.67 177.314 6.272 177.314 7.252C177.314 8.218 176.67 8.82 175.648 8.82H173.506V5.67ZM186.61 14V7.098H185.084V10.64C185.084 12.054 184.342 12.852 183.194 12.852C182.172 12.852 181.57 12.306 181.57 11.158V7.098H180.03V11.242C180.03 12.992 181.15 14.112 182.732 14.112C184.048 14.112 184.664 13.538 184.972 12.922H185.112V14H186.61ZM188.343 7.098V14H189.869V10.458C189.869 9.03 190.611 8.232 191.759 8.232C192.781 8.232 193.383 8.778 193.383 9.94V14H194.923V9.856C194.923 8.092 193.803 6.972 192.221 6.972C190.905 6.972 190.289 7.56 189.981 8.162H189.841V7.098H188.343ZM195.652 8.344H197.514V12.572C197.514 13.44 198.074 14 198.914 14H200.86V12.74H199.446C199.194 12.74 199.054 12.6 199.054 12.32V8.344H201.07V7.098H199.054V4.844H197.514V7.098H195.652V8.344ZM201.786 10.514C201.786 12.684 203.214 14.196 205.314 14.196C207.218 14.196 208.03 13.104 208.436 12.376L207.162 11.69C206.882 12.292 206.392 12.866 205.342 12.866C204.236 12.866 203.424 12.096 203.368 11.032H208.604V10.402C208.604 8.288 207.26 6.888 205.258 6.888C203.228 6.888 201.786 8.358 201.786 10.514ZM203.382 9.842C203.508 8.876 204.18 8.218 205.244 8.218C206.266 8.218 206.952 8.848 207.036 9.842H203.382ZM215.112 7.098V8.106H214.972C214.552 7.476 213.852 6.902 212.578 6.902C210.884 6.902 209.414 8.288 209.414 10.444C209.414 12.6 210.884 14 212.578 14C213.852 14 214.552 13.412 214.944 12.824H215.084V13.566C215.084 14.994 214.244 15.694 212.998 15.694C211.752 15.694 211.136 14.994 210.884 14.196L209.512 14.784C209.862 15.806 210.912 16.996 213.026 16.996C215.196 16.996 216.624 15.806 216.624 13.608V7.098H215.112ZM213.026 12.67C211.822 12.67 210.954 11.816 210.954 10.444C210.954 9.072 211.822 8.218 213.026 8.218C214.23 8.218 215.112 9.086 215.112 10.444C215.112 11.816 214.23 12.67 213.026 12.67ZM223.616 7.098V8.106H223.476C223.056 7.476 222.356 6.902 221.082 6.902C219.388 6.902 217.918 8.288 217.918 10.444C217.918 12.6 219.388 14 221.082 14C222.356 14 223.056 13.412 223.448 12.824H223.588V13.566C223.588 14.994 222.748 15.694 221.502 15.694C220.256 15.694 219.64 14.994 219.388 14.196L218.016 14.784C218.366 15.806 219.416 16.996 221.53 16.996C223.7 16.996 225.128 15.806 225.128 13.608V7.098H223.616ZM221.53 12.67C220.326 12.67 219.458 11.816 219.458 10.444C219.458 9.072 220.326 8.218 221.53 8.218C222.734 8.218 223.616 9.086 223.616 10.444C223.616 11.816 222.734 12.67 221.53 12.67ZM226.478 5.04C226.478 5.684 226.968 6.132 227.612 6.132C228.256 6.132 228.746 5.684 228.746 5.04C228.746 4.382 228.256 3.934 227.612 3.934C226.968 3.934 226.478 4.382 226.478 5.04ZM228.382 7.098H226.856V14H228.382V7.098ZM229.69 10.542C229.69 12.782 231.216 14.196 233.288 14.196C235.36 14.196 236.872 12.782 236.872 10.542C236.872 8.316 235.36 6.902 233.288 6.902C231.216 6.902 229.69 8.316 229.69 10.542ZM231.23 10.542C231.23 9.128 232.07 8.246 233.288 8.246C234.492 8.246 235.332 9.114 235.332 10.542C235.332 11.97 234.492 12.852 233.288 12.852C232.07 12.852 231.23 11.984 231.23 10.542ZM241.707 10.514C241.707 12.684 243.135 14.196 245.235 14.196C247.139 14.196 247.951 13.104 248.357 12.376L247.083 11.69C246.803 12.292 246.313 12.866 245.263 12.866C244.157 12.866 243.345 12.096 243.289 11.032H248.525V10.402C248.525 8.288 247.181 6.888 245.179 6.888C243.149 6.888 241.707 8.358 241.707 10.514ZM243.303 9.842C243.429 8.876 244.101 8.218 245.165 8.218C246.187 8.218 246.873 8.848 246.957 9.842H243.303ZM256.35 14V7.098H254.824V10.64C254.824 12.054 254.082 12.852 252.934 12.852C251.912 12.852 251.31 12.306 251.31 11.158V7.098H249.77V11.242C249.77 12.992 250.89 14.112 252.472 14.112C253.788 14.112 254.404 13.538 254.712 12.922H254.852V14H256.35ZM259.581 7.098H258.083V14H259.609V9.912C259.609 8.862 260.267 8.372 261.191 8.372H262.255V7.07H261.457C260.561 7.07 260.001 7.336 259.721 8.05H259.581V7.098ZM262.598 10.542C262.598 12.782 264.124 14.196 266.196 14.196C268.268 14.196 269.78 12.782 269.78 10.542C269.78 8.316 268.268 6.902 266.196 6.902C264.124 6.902 262.598 8.316 262.598 10.542ZM264.138 10.542C264.138 9.128 264.978 8.246 266.196 8.246C267.4 8.246 268.24 9.114 268.24 10.542C268.24 11.97 267.4 12.852 266.196 12.852C264.978 12.852 264.138 11.984 264.138 10.542ZM271.085 16.8H272.611V13.02H272.751C273.143 13.622 273.843 14.196 275.117 14.196C276.811 14.196 278.281 12.796 278.281 10.542C278.281 8.302 276.811 6.902 275.117 6.902C273.843 6.902 273.143 7.476 272.723 8.106H272.583V7.098H271.085V16.8ZM274.669 12.866C273.479 12.866 272.597 11.998 272.597 10.542C272.597 9.086 273.479 8.218 274.669 8.218C275.873 8.218 276.741 9.086 276.741 10.542C276.741 12.012 275.873 12.866 274.669 12.866ZM279.155 10.514C279.155 12.684 280.583 14.196 282.683 14.196C284.587 14.196 285.399 13.104 285.805 12.376L284.531 11.69C284.251 12.292 283.761 12.866 282.711 12.866C281.605 12.866 280.793 12.096 280.737 11.032H285.973V10.402C285.973 8.288 284.629 6.888 282.627 6.888C280.597 6.888 279.155 8.358 279.155 10.514ZM280.751 9.842C280.877 8.876 281.549 8.218 282.613 8.218C283.635 8.218 284.321 8.848 284.405 9.842H280.751ZM286.784 10.542C286.784 12.782 288.31 14.196 290.382 14.196C292.454 14.196 293.966 12.782 293.966 10.542C293.966 8.316 292.454 6.902 290.382 6.902C288.31 6.902 286.784 8.316 286.784 10.542ZM288.324 10.542C288.324 9.128 289.164 8.246 290.382 8.246C291.586 8.246 292.426 9.114 292.426 10.542C292.426 11.97 291.586 12.852 290.382 12.852C289.164 12.852 288.324 11.984 288.324 10.542Z" fill="white"/>
</g>
</g>
<path id="Fonte: Digital Economy and Society Index (DESI)" d="M144.882 611.2V621H146.506V616.814H150.776V615.358H146.506V612.67H151.056V611.2H144.882ZM151.817 617.542C151.817 619.782 153.343 621.196 155.415 621.196C157.487 621.196 158.999 619.782 158.999 617.542C158.999 615.316 157.487 613.902 155.415 613.902C153.343 613.902 151.817 615.316 151.817 617.542ZM153.357 617.542C153.357 616.128 154.197 615.246 155.415 615.246C156.619 615.246 157.459 616.114 157.459 617.542C157.459 618.97 156.619 619.852 155.415 619.852C154.197 619.852 153.357 618.984 153.357 617.542ZM160.304 614.098V621H161.83V617.458C161.83 616.03 162.572 615.232 163.72 615.232C164.742 615.232 165.344 615.778 165.344 616.94V621H166.884V616.856C166.884 615.092 165.764 613.972 164.182 613.972C162.866 613.972 162.25 614.56 161.942 615.162H161.802V614.098H160.304ZM167.613 615.344H169.475V619.572C169.475 620.44 170.035 621 170.875 621H172.821V619.74H171.407C171.155 619.74 171.015 619.6 171.015 619.32V615.344H173.031V614.098H171.015V611.844H169.475V614.098H167.613V615.344ZM173.747 617.514C173.747 619.684 175.175 621.196 177.275 621.196C179.179 621.196 179.991 620.104 180.397 619.376L179.123 618.69C178.843 619.292 178.353 619.866 177.303 619.866C176.197 619.866 175.385 619.096 175.329 618.032H180.565V617.402C180.565 615.288 179.221 613.888 177.219 613.888C175.189 613.888 173.747 615.358 173.747 617.514ZM175.343 616.842C175.469 615.876 176.141 615.218 177.205 615.218C178.227 615.218 178.913 615.848 178.997 616.842H175.343ZM181.613 615.064C181.613 615.778 182.131 616.282 182.831 616.282C183.517 616.282 184.035 615.778 184.035 615.064C184.035 614.364 183.517 613.86 182.831 613.86C182.131 613.86 181.613 614.364 181.613 615.064ZM181.613 619.978C181.613 620.692 182.131 621.196 182.831 621.196C183.517 621.196 184.035 620.692 184.035 619.978C184.035 619.278 183.517 618.774 182.831 618.774C182.131 618.774 181.613 619.278 181.613 619.978ZM189.548 611.2V621H192.768C195.386 621 196.8 619.67 196.8 617.01V615.19C196.8 612.53 195.386 611.2 192.768 611.2H189.548ZM191.172 612.67H192.782C194.406 612.67 195.19 613.51 195.19 615.134V617.066C195.19 618.69 194.42 619.53 192.782 619.53H191.172V612.67ZM197.824 612.04C197.824 612.684 198.314 613.132 198.958 613.132C199.602 613.132 200.092 612.684 200.092 612.04C200.092 611.382 199.602 610.934 198.958 610.934C198.314 610.934 197.824 611.382 197.824 612.04ZM199.728 614.098H198.202V621H199.728V614.098ZM206.734 614.098V615.106H206.594C206.174 614.476 205.474 613.902 204.2 613.902C202.506 613.902 201.036 615.288 201.036 617.444C201.036 619.6 202.506 621 204.2 621C205.474 621 206.174 620.412 206.566 619.824H206.706V620.566C206.706 621.994 205.866 622.694 204.62 622.694C203.374 622.694 202.758 621.994 202.506 621.196L201.134 621.784C201.484 622.806 202.534 623.996 204.648 623.996C206.818 623.996 208.246 622.806 208.246 620.608V614.098H206.734ZM204.648 619.67C203.444 619.67 202.576 618.816 202.576 617.444C202.576 616.072 203.444 615.218 204.648 615.218C205.852 615.218 206.734 616.086 206.734 617.444C206.734 618.816 205.852 619.67 204.648 619.67ZM209.595 612.04C209.595 612.684 210.085 613.132 210.729 613.132C211.373 613.132 211.863 612.684 211.863 612.04C211.863 611.382 211.373 610.934 210.729 610.934C210.085 610.934 209.595 611.382 209.595 612.04ZM211.499 614.098H209.973V621H211.499V614.098ZM212.457 615.344H214.319V619.572C214.319 620.44 214.879 621 215.719 621H217.665V619.74H216.251C215.999 619.74 215.859 619.6 215.859 619.32V615.344H217.875V614.098H215.859V611.844H214.319V614.098H212.457V615.344ZM219.049 615.89L220.477 616.366C220.617 615.652 221.107 615.134 222.073 615.134C223.039 615.134 223.501 615.68 223.501 616.422V616.842H221.457C219.917 616.842 218.811 617.57 218.811 618.998C218.811 620.398 219.917 621.196 221.345 621.196C222.661 621.196 223.151 620.51 223.347 620.132H223.529V621H224.999V616.534C224.999 614.84 223.879 613.888 222.087 613.888C220.309 613.888 219.385 614.812 219.049 615.89ZM220.351 618.956C220.351 618.382 220.813 618.032 221.555 618.032H223.501V618.158C223.501 619.25 222.731 619.936 221.639 619.936C220.813 619.936 220.351 619.544 220.351 618.956ZM228.165 611.2H226.639V621H228.165V611.2ZM233.886 611.2V621H240.312V619.53H235.51V616.8H239.836V615.33H235.51V612.67H240.228V611.2H233.886ZM241.19 617.542C241.19 619.684 242.772 621.196 244.788 621.196C246.692 621.196 247.826 620.062 248.19 618.55L246.692 618.2C246.538 619.166 245.95 619.852 244.802 619.852C243.626 619.852 242.73 618.97 242.73 617.542C242.73 616.128 243.626 615.246 244.802 615.246C245.922 615.246 246.538 615.946 246.65 616.87L248.134 616.562C247.854 615.036 246.678 613.902 244.774 613.902C242.772 613.902 241.19 615.4 241.19 617.542ZM248.997 617.542C248.997 619.782 250.523 621.196 252.595 621.196C254.667 621.196 256.179 619.782 256.179 617.542C256.179 615.316 254.667 613.902 252.595 613.902C250.523 613.902 248.997 615.316 248.997 617.542ZM250.537 617.542C250.537 616.128 251.377 615.246 252.595 615.246C253.799 615.246 254.639 616.114 254.639 617.542C254.639 618.97 253.799 619.852 252.595 619.852C251.377 619.852 250.537 618.984 250.537 617.542ZM257.483 614.098V621H259.009V617.458C259.009 616.03 259.751 615.232 260.899 615.232C261.921 615.232 262.523 615.778 262.523 616.94V621H264.063V616.856C264.063 615.092 262.943 613.972 261.361 613.972C260.045 613.972 259.429 614.56 259.121 615.162H258.981V614.098H257.483ZM265.28 617.542C265.28 619.782 266.806 621.196 268.878 621.196C270.95 621.196 272.462 619.782 272.462 617.542C272.462 615.316 270.95 613.902 268.878 613.902C266.806 613.902 265.28 615.316 265.28 617.542ZM266.82 617.542C266.82 616.128 267.66 615.246 268.878 615.246C270.082 615.246 270.922 616.114 270.922 617.542C270.922 618.97 270.082 619.852 268.878 619.852C267.66 619.852 266.82 618.984 266.82 617.542ZM273.766 614.098V621H275.292V616.856C275.292 615.806 275.838 615.232 276.706 615.232C277.504 615.232 277.966 615.694 277.966 616.492V621H279.506V616.856C279.506 615.806 280.052 615.232 280.92 615.232C281.704 615.232 282.18 615.694 282.18 616.492V621H283.72V616.408C283.72 614.812 282.698 613.972 281.396 613.972C280.276 613.972 279.716 614.476 279.366 615.12H279.226C278.904 614.434 278.302 613.972 277.28 613.972C276.258 613.972 275.698 614.406 275.404 614.966H275.264V614.098H273.766ZM290.167 614.098L288.193 619.292H288.053L286.079 614.098H284.399L287.311 621.35L286.275 623.8H287.941L291.847 614.098H290.167ZM296.664 615.89L298.092 616.366C298.232 615.652 298.722 615.134 299.688 615.134C300.654 615.134 301.116 615.68 301.116 616.422V616.842H299.072C297.532 616.842 296.426 617.57 296.426 618.998C296.426 620.398 297.532 621.196 298.96 621.196C300.276 621.196 300.766 620.51 300.962 620.132H301.144V621H302.614V616.534C302.614 614.84 301.494 613.888 299.702 613.888C297.924 613.888 297 614.812 296.664 615.89ZM297.966 618.956C297.966 618.382 298.428 618.032 299.17 618.032H301.116V618.158C301.116 619.25 300.346 619.936 299.254 619.936C298.428 619.936 297.966 619.544 297.966 618.956ZM304.255 614.098V621H305.781V617.458C305.781 616.03 306.523 615.232 307.671 615.232C308.693 615.232 309.295 615.778 309.295 616.94V621H310.835V616.856C310.835 615.092 309.715 613.972 308.133 613.972C306.817 613.972 306.201 614.56 305.893 615.162H305.753V614.098H304.255ZM319.261 611.2H317.721V615.064H317.581C317.189 614.476 316.489 613.902 315.215 613.902C313.521 613.902 312.051 615.302 312.051 617.542C312.051 619.796 313.521 621.196 315.215 621.196C316.489 621.196 317.189 620.622 317.609 619.978H317.749V621H319.261V611.2ZM315.663 615.218C316.867 615.218 317.749 616.086 317.749 617.542C317.749 618.998 316.867 619.866 315.663 619.866C314.459 619.866 313.591 619.012 313.591 617.542C313.591 616.086 314.459 615.218 315.663 615.218ZM328.188 611.004C326.13 611.004 324.786 612.054 324.786 613.804C324.786 615.54 325.934 616.226 327.88 616.66L328.342 616.758C329.616 617.052 330.344 617.374 330.344 618.27C330.344 619.152 329.63 619.768 328.286 619.768C326.928 619.768 326.074 619.124 326.074 617.78V617.654H324.478V617.78C324.478 619.978 326.06 621.196 328.286 621.196C330.512 621.196 331.94 619.992 331.94 618.228C331.94 616.464 330.624 615.75 328.664 615.33L328.202 615.218C326.97 614.938 326.382 614.588 326.382 613.748C326.382 612.922 327.012 612.432 328.188 612.432C329.392 612.432 330.176 612.922 330.176 614.14V614.448H331.772V614.14C331.772 612.054 330.246 611.004 328.188 611.004ZM332.805 617.542C332.805 619.782 334.331 621.196 336.403 621.196C338.475 621.196 339.987 619.782 339.987 617.542C339.987 615.316 338.475 613.902 336.403 613.902C334.331 613.902 332.805 615.316 332.805 617.542ZM334.345 617.542C334.345 616.128 335.185 615.246 336.403 615.246C337.607 615.246 338.447 616.114 338.447 617.542C338.447 618.97 337.607 619.852 336.403 619.852C335.185 619.852 334.345 618.984 334.345 617.542ZM340.858 617.542C340.858 619.684 342.44 621.196 344.456 621.196C346.36 621.196 347.494 620.062 347.858 618.55L346.36 618.2C346.206 619.166 345.618 619.852 344.47 619.852C343.294 619.852 342.398 618.97 342.398 617.542C342.398 616.128 343.294 615.246 344.47 615.246C345.59 615.246 346.206 615.946 346.318 616.87L347.802 616.562C347.522 615.036 346.346 613.902 344.442 613.902C342.44 613.902 340.858 615.4 340.858 617.542ZM348.72 612.04C348.72 612.684 349.21 613.132 349.854 613.132C350.498 613.132 350.988 612.684 350.988 612.04C350.988 611.382 350.498 610.934 349.854 610.934C349.21 610.934 348.72 611.382 348.72 612.04ZM350.624 614.098H349.098V621H350.624V614.098ZM351.932 617.514C351.932 619.684 353.36 621.196 355.46 621.196C357.364 621.196 358.176 620.104 358.582 619.376L357.308 618.69C357.028 619.292 356.538 619.866 355.488 619.866C354.382 619.866 353.57 619.096 353.514 618.032H358.75V617.402C358.75 615.288 357.406 613.888 355.404 613.888C353.374 613.888 351.932 615.358 351.932 617.514ZM353.528 616.842C353.654 615.876 354.326 615.218 355.39 615.218C356.412 615.218 357.098 615.848 357.182 616.842H353.528ZM359.143 615.344H361.005V619.572C361.005 620.44 361.565 621 362.405 621H364.351V619.74H362.937C362.685 619.74 362.545 619.6 362.545 619.32V615.344H364.561V614.098H362.545V611.844H361.005V614.098H359.143V615.344ZM370.872 614.098L368.898 619.292H368.758L366.784 614.098H365.104L368.016 621.35L366.98 623.8H368.646L372.552 614.098H370.872ZM377.509 611.2V621H379.133V611.2H377.509ZM380.886 614.098V621H382.412V617.458C382.412 616.03 383.154 615.232 384.302 615.232C385.324 615.232 385.926 615.778 385.926 616.94V621H387.466V616.856C387.466 615.092 386.346 613.972 384.764 613.972C383.448 613.972 382.832 614.56 382.524 615.162H382.384V614.098H380.886ZM395.892 611.2H394.352V615.064H394.212C393.82 614.476 393.12 613.902 391.846 613.902C390.152 613.902 388.682 615.302 388.682 617.542C388.682 619.796 390.152 621.196 391.846 621.196C393.12 621.196 393.82 620.622 394.24 619.978H394.38V621H395.892V611.2ZM392.294 615.218C393.498 615.218 394.38 616.086 394.38 617.542C394.38 618.998 393.498 619.866 392.294 619.866C391.09 619.866 390.222 619.012 390.222 617.542C390.222 616.086 391.09 615.218 392.294 615.218ZM397.186 617.514C397.186 619.684 398.614 621.196 400.714 621.196C402.618 621.196 403.43 620.104 403.836 619.376L402.562 618.69C402.282 619.292 401.792 619.866 400.742 619.866C399.636 619.866 398.824 619.096 398.768 618.032H404.004V617.402C404.004 615.288 402.66 613.888 400.658 613.888C398.628 613.888 397.186 615.358 397.186 617.514ZM398.782 616.842C398.908 615.876 399.58 615.218 400.644 615.218C401.666 615.218 402.352 615.848 402.436 616.842H398.782ZM404.443 614.098L406.949 617.514L404.401 621H406.235L408.027 618.452H408.167L409.959 621H411.793L409.245 617.514L411.751 614.098H409.945L408.167 616.576H408.027L406.249 614.098H404.443ZM417.723 620.454C417.723 623.296 419.291 624.472 421.587 624.472V623.058C420.019 623.03 419.249 622.148 419.249 620.3V613.86C419.249 612.012 420.019 611.13 421.587 611.102V609.688C419.291 609.688 417.723 610.864 417.723 613.706V620.454ZM422.749 611.2V621H425.969C428.587 621 430.001 619.67 430.001 617.01V615.19C430.001 612.53 428.587 611.2 425.969 611.2H422.749ZM424.373 612.67H425.983C427.607 612.67 428.391 613.51 428.391 615.134V617.066C428.391 618.69 427.621 619.53 425.983 619.53H424.373V612.67ZM431.417 611.2V621H437.843V619.53H433.041V616.8H437.367V615.33H433.041V612.67H437.759V611.2H431.417ZM442.389 611.004C440.331 611.004 438.987 612.054 438.987 613.804C438.987 615.54 440.135 616.226 442.081 616.66L442.543 616.758C443.817 617.052 444.545 617.374 444.545 618.27C444.545 619.152 443.831 619.768 442.487 619.768C441.129 619.768 440.275 619.124 440.275 617.78V617.654H438.679V617.78C438.679 619.978 440.261 621.196 442.487 621.196C444.713 621.196 446.141 619.992 446.141 618.228C446.141 616.464 444.825 615.75 442.865 615.33L442.403 615.218C441.171 614.938 440.583 614.588 440.583 613.748C440.583 612.922 441.213 612.432 442.389 612.432C443.593 612.432 444.377 612.922 444.377 614.14V614.448H445.973V614.14C445.973 612.054 444.447 611.004 442.389 611.004ZM447.454 611.2V621H449.078V611.2H447.454ZM454.121 620.454V613.706C454.121 610.864 452.539 609.688 450.243 609.688V611.102C451.811 611.13 452.581 612.012 452.581 613.86V620.3C452.581 622.148 451.811 623.03 450.243 623.058V624.472C452.539 624.472 454.121 623.296 454.121 620.454Z" fill="white"/>
</g>
<defs>
<linearGradient id="paint0_linear" x1="542" y1="146" x2="90" y2="146" gradientUnits="userSpaceOnUse">
<stop stop-color="white"/>
<stop offset="1" stop-color="#1880FF"/>
</linearGradient>
<linearGradient id="paint1_linear" x1="585" y1="372.991" x2="90.0001" y2="372.991" gradientUnits="userSpaceOnUse">
<stop stop-color="white"/>
<stop offset="1" stop-color="#1880FF"/>
</linearGradient>
<linearGradient id="paint2_linear" x1="599" y1="528" x2="70.9997" y2="528" gradientUnits="userSpaceOnUse">
<stop stop-color="white"/>
<stop offset="1" stop-color="#1880FF"/>
</linearGradient>
</defs>
</svg>
