<svg width="927" height="572" viewBox="0 0 927 572" fill="none" xmlns="http://www.w3.org/2000/svg">
<path d="M501.696 547.727H499.787V567.522L491.878 559.613L490.56 560.954L500.741 571.136L510.946 560.954L509.594 559.613L501.696 567.522V547.727Z" fill="#131313"/>
<path d="M106 135.076L106 133.852L101.872 133.852L101.872 129.784L100.828 129.784L100.828 133.852L98.152 133.852L98.152 128.968L97.072 128.968L97.072 135.076L106 135.076ZM106.18 125.498C106.18 123.554 104.668 122.366 102.784 122.366C100.912 122.366 99.4 123.554 99.4 125.498C99.4 127.442 100.912 128.654 102.784 128.654C104.668 128.654 106.18 127.442 106.18 125.498ZM105.268 125.51C105.268 126.83 104.176 127.514 102.784 127.514C101.392 127.514 100.288 126.83 100.288 125.51C100.288 124.19 101.392 123.506 102.784 123.506C104.176 123.506 105.268 124.19 105.268 125.51ZM99.556 120.077L99.556 121.181L106 121.181L106 120.065L102.076 120.065C101.044 120.065 100.336 119.345 100.336 118.349C100.336 117.473 100.804 116.933 101.632 116.933L106 116.933L106 115.829L101.5 115.829C100.156 115.829 99.4 116.657 99.4 118.001C99.4 118.937 99.82 119.573 100.468 120.041L100.468 120.077L99.556 120.077ZM100.42 114.839L100.42 113.831L104.74 113.831C105.688 113.831 106.036 113.231 106.048 112.367C106.048 112.079 106.012 111.767 105.94 111.467L105.004 111.467L105.004 111.503C105.04 111.623 105.088 111.875 105.088 112.067C105.088 112.475 104.956 112.727 104.488 112.727L100.42 112.727L100.42 111.395L99.556 111.395L99.556 112.727L97.528 112.727L97.528 113.831L99.556 113.831L99.556 114.839L100.42 114.839ZM106.18 107.498C106.18 106.01 105.364 104.978 104.164 104.69L104.164 105.782C104.848 105.986 105.268 106.598 105.268 107.486C105.268 108.734 104.308 109.418 103.048 109.502L103.048 104.558C101.956 104.558 101.032 104.822 100.396 105.35C99.772 105.854 99.4 106.598 99.4 107.558C99.4 109.406 100.912 110.642 102.784 110.642C104.668 110.642 106.18 109.478 106.18 107.498ZM100.264 107.558C100.264 106.442 101.008 105.806 102.244 105.746L102.244 109.478C101.104 109.334 100.264 108.722 100.264 107.558ZM102.208 103.453L102.208 102.157L100.888 102.157L100.888 103.453L102.208 103.453ZM106 103.453L106 102.157L104.68 102.157L104.68 103.453L106 103.453ZM106 98.0611L106 96.8011L103.396 95.8891L103.396 92.3731L106 91.4851L106 90.1411L97.072 93.4291L97.072 94.7971L106 98.0611ZM99.94 94.6771C99.112 94.3891 98.044 94.1251 98.044 94.1251L98.044 94.0891C98.044 94.0891 99.076 93.8491 99.94 93.5491L102.436 92.6971L102.436 95.5531L99.94 94.6771ZM99.556 88.0382L99.556 89.1422L106 89.1422L106 88.0262L102.076 88.0262C101.044 88.0262 100.336 87.3062 100.336 86.3102C100.336 85.4342 100.804 84.8942 101.632 84.8942L106 84.8942L106 83.7902L101.5 83.7902C100.156 83.7902 99.4 84.6182 99.4 85.9622C99.4 86.8982 99.82 87.5342 100.468 88.0022L100.468 88.0382L99.556 88.0382ZM98.368 82.3107L98.368 81.1467L97.072 81.1467L97.072 82.3107L98.368 82.3107ZM106 82.2867L106 81.1707L99.556 81.1707L99.556 82.2867L106 82.2867ZM100.42 80.0342L100.42 79.0262L104.74 79.0262C105.688 79.0262 106.036 78.4262 106.048 77.5622C106.048 77.2742 106.012 76.9622 105.94 76.6622L105.004 76.6622L105.004 76.6982C105.04 76.8182 105.088 77.0702 105.088 77.2622C105.088 77.6702 104.956 77.9222 104.488 77.9222L100.42 77.9222L100.42 76.5902L99.556 76.5902L99.556 77.9222L97.528 77.9222L97.528 79.0262L99.556 79.0262L99.556 80.0342L100.42 80.0342ZM106.18 72.6938C106.18 71.2058 105.364 70.1738 104.164 69.8858L104.164 70.9778C104.848 71.1818 105.268 71.7938 105.268 72.6818C105.268 73.9298 104.308 74.6138 103.048 74.6978L103.048 69.7538C101.956 69.7538 101.032 70.0178 100.396 70.5458C99.772 71.0498 99.4 71.7938 99.4 72.7538C99.4 74.6018 100.912 75.8378 102.784 75.8378C104.668 75.8378 106.18 74.6738 106.18 72.6938ZM100.264 72.7538C100.264 71.6378 101.008 71.0018 102.244 70.9418L102.244 74.6738C101.104 74.5298 100.264 73.9178 100.264 72.7538ZM106.18 65.768C106.18 64.136 105.256 63.116 103.72 62.972L103.72 64.076C104.68 64.16 105.268 64.76 105.268 65.768C105.268 67.088 104.176 67.772 102.784 67.772C101.392 67.772 100.3 67.088 100.3 65.768C100.3 64.832 100.816 64.256 101.656 64.1L101.656 62.984C100.276 63.212 99.4 64.22 99.4 65.768C99.4 67.7 100.912 68.912 102.784 68.912C104.668 68.912 106.18 67.7 106.18 65.768ZM103.3 62.6172L103.3 56.6172L102.34 56.6172L102.34 62.6172L103.3 62.6172ZM106 56.6236L106 55.3636L103.396 54.4516L103.396 50.9356L106 50.0476L106 48.7036L97.072 51.9916L97.072 53.3596L106 56.6236ZM99.94 53.2396C99.112 52.9516 98.044 52.6876 98.044 52.6876L98.044 52.6516C98.044 52.6516 99.076 52.4116 99.94 52.1116L102.436 51.2596L102.436 54.1156L99.94 53.2396ZM106.192 45.2912C106.192 43.7792 105.52 42.6992 104.212 42.6992C102.712 42.6992 102.424 43.8032 102.172 45.0872C101.956 46.1792 101.824 46.8032 101.152 46.8032C100.66 46.8032 100.252 46.4312 100.252 45.5552C100.252 44.6312 100.624 44.1752 101.284 44.0792L101.284 42.9632C100.168 43.1072 99.412 43.9112 99.412 45.5312C99.412 47.0312 100.108 47.8952 101.212 47.8952C102.628 47.8952 102.892 46.7552 103.156 45.4952C103.384 44.3552 103.564 43.8152 104.272 43.8152C104.848 43.8152 105.292 44.2472 105.292 45.2672C105.292 46.1912 104.98 46.9112 104.044 47.0432L104.044 48.1712C105.352 48.0752 106.192 47.0672 106.192 45.2912ZM106.192 39.0217C106.192 37.5097 105.52 36.4297 104.212 36.4297C102.712 36.4297 102.424 37.5337 102.172 38.8177C101.956 39.9097 101.824 40.5337 101.152 40.5337C100.66 40.5337 100.252 40.1617 100.252 39.2857C100.252 38.3617 100.624 37.9057 101.284 37.8097L101.284 36.6937C100.168 36.8377 99.412 37.6417 99.412 39.2617C99.412 40.7617 100.108 41.6257 101.212 41.6257C102.628 41.6257 102.892 40.4857 103.156 39.2257C103.384 38.0857 103.564 37.5457 104.272 37.5457C104.848 37.5457 105.292 37.9777 105.292 38.9977C105.292 39.9217 104.98 40.6417 104.044 40.7737L104.044 41.9017C105.352 41.8057 106.192 40.7977 106.192 39.0217ZM98.368 35.2482L98.368 34.0842L97.072 34.0842L97.072 35.2482L98.368 35.2482ZM106 35.2242L106 34.1082L99.556 34.1082L99.556 35.2242L106 35.2242ZM99.556 31.4717L99.556 32.5757L106 32.5757L106 31.4597L102.076 31.4597C101.044 31.4597 100.336 30.7397 100.336 29.7437C100.336 28.8677 100.804 28.3277 101.632 28.3277L106 28.3277L106 27.2237L101.5 27.2237C100.156 27.2237 99.4 28.0517 99.4 29.3957C99.4 30.3317 99.82 30.9677 100.468 31.4357L100.468 31.4717L99.556 31.4717ZM100.432 26.1749L100.432 25.1789L106 25.1789L106 24.0629L100.432 24.0629L100.432 22.7429L99.556 22.7429L99.556 24.0629L98.716 24.0629C98.056 24.0629 97.888 23.7869 97.96 22.7309L97.036 22.7309C97.024 22.9349 97.012 23.1389 97.012 23.3069C97.012 23.9309 97.12 24.4109 97.384 24.7229C97.648 25.0229 98.068 25.1789 98.668 25.1789L99.556 25.1789L99.556 26.1749L100.432 26.1749ZM106.18 18.9513C106.18 17.0073 104.668 15.8193 102.784 15.8193C100.912 15.8193 99.4 17.0073 99.4 18.9513C99.4 20.8953 100.912 22.1073 102.784 22.1073C104.668 22.1073 106.18 20.8953 106.18 18.9513ZM105.268 18.9633C105.268 20.2833 104.176 20.9673 102.784 20.9673C101.392 20.9673 100.288 20.2833 100.288 18.9633C100.288 17.6433 101.392 16.9593 102.784 16.9593C104.176 16.9593 105.268 17.6433 105.268 18.9633ZM99.556 13.5303L99.556 14.6343L106 14.6343L106 13.5183L102.496 13.5183C101.284 13.5183 100.54 12.6663 100.54 11.6703C100.54 11.4783 100.552 11.3703 100.6 11.2143L100.6 11.1783L99.544 11.1783C99.496 11.2983 99.472 11.4063 99.472 11.5863C99.472 12.4383 99.976 13.0983 100.72 13.4943L100.72 13.5303L99.556 13.5303ZM106 10.0875L106 8.97147L102.028 8.97147C101.044 8.97147 100.336 8.14347 100.336 7.37547C100.336 6.71547 100.804 6.27147 101.596 6.27147L106 6.27147L106 5.16747L102.028 5.16747C101.044 5.16747 100.336 4.45947 100.336 3.64347C100.336 2.99547 100.804 2.47947 101.596 2.47947L106 2.47947L106 1.36347L101.5 1.36347C100.156 1.36347 99.4 2.17947 99.4 3.35547C99.4 4.13547 99.796 4.89147 100.6 5.34747L100.6 5.37147C99.808 5.63547 99.4 6.25947 99.4 7.03947C99.4 7.86747 99.82 8.55147 100.516 8.94747L100.516 8.98347L99.556 8.98347L99.556 10.0875L106 10.0875Z" fill="#131313"/>
<path d="M378 17C378 8.16343 385.163 1 394 1H604C612.837 1 620 8.16344 620 17V487H378V17Z" fill="url(#paint0_linear)"/>
<path d="M661 126C661 117.163 668.163 110 677 110H887C895.837 110 903 117.163 903 126V487H661V126Z" fill="url(#paint1_linear)"/>
<path d="M95 386C95 377.163 102.163 370 111 370H321C329.837 370 337 377.163 337 386V487H95V386Z" fill="url(#paint2_linear)"/>
<path d="M197.896 513H206.28V511.176H200.648V511.096C201.336 509.944 202.984 509.16 204.168 508.248C205.416 507.416 206.376 506.616 206.376 504.936C206.376 502.904 204.888 501.368 202.392 501.368C200.872 501.368 199.704 501.88 199.016 502.728C198.424 503.464 198.12 504.328 198.12 505.544H200.184C200.184 504.728 200.36 504.12 200.76 503.688C201.112 503.288 201.608 503.08 202.28 503.08C203.496 503.08 204.232 503.848 204.232 504.984C204.232 506.024 203.608 506.568 202.552 507.24C201.432 507.976 200.072 508.776 199.112 509.848C198.392 510.664 197.944 511.608 197.896 513ZM212.494 513.272C215.438 513.272 217.246 510.936 217.246 507.304C217.246 503.624 215.39 501.352 212.51 501.352C209.678 501.352 207.774 503.656 207.774 507.304C207.774 510.936 209.63 513.272 212.494 513.272ZM212.51 511.544C210.75 511.544 209.95 509.864 209.95 507.304C209.95 504.728 210.75 503.048 212.51 503.048C214.286 503.048 215.07 504.744 215.07 507.304C215.07 509.896 214.318 511.544 212.51 511.544ZM221.021 513H223.133V501.512H221.485C221.229 503.128 219.949 503.752 218.381 503.8V505.208H221.021V513ZM229.597 513.272C232.061 513.272 234.109 512.104 234.109 509.704C234.109 508.28 233.245 507.192 231.757 506.808V506.76C232.957 506.36 233.581 505.496 233.581 504.392C233.581 502.52 231.949 501.352 229.565 501.352C227.197 501.352 225.549 502.568 225.549 504.424C225.549 505.544 226.173 506.392 227.389 506.792V506.84C225.933 507.256 225.021 508.28 225.021 509.752C225.021 512.104 227.133 513.272 229.597 513.272ZM229.565 506.136C228.301 506.136 227.549 505.512 227.549 504.52C227.549 503.528 228.301 502.888 229.565 502.888C230.829 502.888 231.565 503.528 231.565 504.52C231.565 505.512 230.829 506.136 229.565 506.136ZM229.597 511.64C228.077 511.64 227.165 510.888 227.165 509.656C227.165 508.392 228.077 507.592 229.581 507.592C231.085 507.592 231.981 508.392 231.981 509.656C231.981 510.872 231.053 511.64 229.597 511.64Z" fill="#131313"/>
<path d="M480.873 513H489.257V511.176H483.625V511.096C484.312 509.944 485.961 509.16 487.145 508.248C488.392 507.416 489.352 506.616 489.352 504.936C489.352 502.904 487.865 501.368 485.369 501.368C483.849 501.368 482.681 501.88 481.993 502.728C481.401 503.464 481.097 504.328 481.097 505.544H483.161C483.161 504.728 483.337 504.12 483.737 503.688C484.089 503.288 484.585 503.08 485.257 503.08C486.473 503.08 487.209 503.848 487.209 504.984C487.209 506.024 486.585 506.568 485.529 507.24C484.409 507.976 483.049 508.776 482.089 509.848C481.368 510.664 480.921 511.608 480.873 513ZM495.471 513.272C498.415 513.272 500.223 510.936 500.223 507.304C500.223 503.624 498.367 501.352 495.487 501.352C492.655 501.352 490.751 503.656 490.751 507.304C490.751 510.936 492.607 513.272 495.471 513.272ZM495.487 511.544C493.727 511.544 492.927 509.864 492.927 507.304C492.927 504.728 493.727 503.048 495.487 503.048C497.263 503.048 498.047 504.744 498.047 507.304C498.047 509.896 497.295 511.544 495.487 511.544ZM503.998 513H506.11V501.512H504.462C504.206 503.128 502.926 503.752 501.358 503.8V505.208H503.998V513ZM512.446 513.272C513.774 513.272 514.814 512.856 515.55 512.088C516.574 511.064 516.99 509.384 516.99 507.288C516.99 504.936 516.526 503.336 515.342 502.36C514.606 501.736 513.598 501.352 512.366 501.352C509.886 501.352 508.078 503.048 508.078 505.32C508.078 507.608 509.854 509.272 512.062 509.272C513.326 509.272 514.27 508.712 514.974 507.8H515.006C514.942 509.208 514.702 510.2 514.222 510.808C513.79 511.4 513.198 511.672 512.398 511.672C511.182 511.672 510.542 510.952 510.398 510.232H508.334C508.542 511.912 510.094 513.272 512.446 513.272ZM512.398 507.656C511.038 507.656 510.062 506.664 510.062 505.304C510.062 503.944 511.022 502.968 512.414 502.968C513.758 502.968 514.798 503.928 514.798 505.304C514.798 506.696 513.838 507.656 512.398 507.656Z" fill="#131313"/>
<path d="M762.029 513H770.413V511.176H764.781V511.096C765.469 509.944 767.117 509.16 768.301 508.248C769.549 507.416 770.509 506.616 770.509 504.936C770.509 502.904 769.021 501.368 766.525 501.368C765.005 501.368 763.837 501.88 763.149 502.728C762.557 503.464 762.253 504.328 762.253 505.544H764.317C764.317 504.728 764.493 504.12 764.893 503.688C765.245 503.288 765.741 503.08 766.413 503.08C767.629 503.08 768.365 503.848 768.365 504.984C768.365 506.024 767.741 506.568 766.685 507.24C765.565 507.976 764.205 508.776 763.245 509.848C762.525 510.664 762.077 511.608 762.029 513ZM776.627 513.272C779.571 513.272 781.379 510.936 781.379 507.304C781.379 503.624 779.523 501.352 776.643 501.352C773.811 501.352 771.907 503.656 771.907 507.304C771.907 510.936 773.763 513.272 776.627 513.272ZM776.643 511.544C774.883 511.544 774.083 509.864 774.083 507.304C774.083 504.728 774.883 503.048 776.643 503.048C778.419 503.048 779.203 504.744 779.203 507.304C779.203 509.896 778.451 511.544 776.643 511.544ZM782.482 513H790.866V511.176H785.234V511.096C785.922 509.944 787.57 509.16 788.754 508.248C790.002 507.416 790.962 506.616 790.962 504.936C790.962 502.904 789.474 501.368 786.978 501.368C785.458 501.368 784.29 501.88 783.602 502.728C783.01 503.464 782.706 504.328 782.706 505.544H784.77C784.77 504.728 784.946 504.12 785.346 503.688C785.698 503.288 786.194 503.08 786.866 503.08C788.082 503.08 788.818 503.848 788.818 504.984C788.818 506.024 788.194 506.568 787.138 507.24C786.018 507.976 784.658 508.776 783.698 509.848C782.978 510.664 782.53 511.608 782.482 513ZM797.08 513.272C800.024 513.272 801.832 510.936 801.832 507.304C801.832 503.624 799.976 501.352 797.096 501.352C794.264 501.352 792.36 503.656 792.36 507.304C792.36 510.936 794.216 513.272 797.08 513.272ZM797.096 511.544C795.336 511.544 794.536 509.864 794.536 507.304C794.536 504.728 795.336 503.048 797.096 503.048C798.872 503.048 799.656 504.744 799.656 507.304C799.656 509.896 798.904 511.544 797.096 511.544Z" fill="#131313"/>
<path d="M2.48588 494H4.70988C4.88588 489.776 6.93388 486.288 9.10988 484.256V482.608H0.901875L0.901875 484.416H4.61388C5.86188 484.416 7.04588 484.336 7.04588 484.336V484.368C4.83788 486.24 2.69388 489.936 2.48588 494ZM14.5959 494.272C17.5399 494.272 19.3479 491.936 19.3479 488.304C19.3479 484.624 17.4919 482.352 14.6119 482.352C11.7799 482.352 9.87588 484.656 9.87588 488.304C9.87588 491.936 11.7319 494.272 14.5959 494.272ZM14.6119 492.544C12.8519 492.544 12.0519 490.864 12.0519 488.304C12.0519 485.728 12.8519 484.048 14.6119 484.048C16.3879 484.048 17.1719 485.744 17.1719 488.304C17.1719 490.896 16.4199 492.544 14.6119 492.544ZM21.1669 494H23.3749V489.712L24.7829 488.288L28.7829 494H31.3749L26.3669 486.864L31.0389 482.096H28.3509L23.2949 487.376C23.3269 486.752 23.3749 485.792 23.3749 484.848V482.096H21.1669V494ZM36.62 494H38.604V487.792C38.604 486.496 38.46 484.08 38.46 484.08H38.492C38.492 484.08 38.988 486.272 39.372 487.456L41.644 494H43.436L45.692 487.456C46.076 486.272 46.572 484.08 46.572 484.08H46.604C46.604 484.08 46.46 486.496 46.46 487.792V494H48.524V482.096H45.532L43.612 487.76C43.164 489.168 42.588 491.76 42.588 491.76H42.54C42.54 491.76 41.964 489.152 41.5 487.76L39.548 482.096H36.62V494ZM50.585 494H52.633V482.096H50.585V494ZM56.4901 485.456H54.5061V494H56.5381V488.992C56.5381 487.776 57.3381 486.912 58.4741 486.912C59.5141 486.912 60.1061 487.536 60.1061 488.544V494H62.1381V488.208C62.1381 486.368 61.0341 485.232 59.1941 485.232C57.9941 485.232 57.0981 485.76 56.5381 486.704H56.4901V485.456Z" fill="#131313"/>
<path d="M706.158 62.0059C706.158 64.215 704.367 66.0059 702.158 66.0059L653.999 66.0059C651.79 66.0059 649.999 64.215 649.999 62.0059L649.999 48.0059C649.999 45.7967 651.79 44.0059 653.999 44.0059L702.158 44.0059C704.367 44.0059 706.158 45.7967 706.158 48.0059L706.158 62.0059Z" fill="#131313"/>
<path d="M645 55.0059L650 50.0059L650 60.0059L645 55.0059Z" fill="#131313"/>
<path d="M658.158 57.06H665.158V55.534H658.158V57.06ZM673.445 60.238C676.021 60.238 677.603 58.194 677.603 55.016C677.603 51.796 675.979 49.808 673.459 49.808C670.981 49.808 669.315 51.824 669.315 55.016C669.315 58.194 670.939 60.238 673.445 60.238ZM673.459 58.726C671.919 58.726 671.219 57.256 671.219 55.016C671.219 52.762 671.919 51.292 673.459 51.292C675.013 51.292 675.699 52.776 675.699 55.016C675.699 57.284 675.041 58.726 673.459 58.726ZM678.641 62.366C679.789 62.24 680.573 61.512 680.573 59.986V58.054H678.627V60H679.537V60.084C679.537 60.938 679.173 61.344 678.641 61.498V62.366ZM685.641 60.238C687.727 60.238 689.323 58.74 689.309 56.738C689.295 54.764 687.755 53.294 685.879 53.294C684.731 53.294 683.905 53.77 683.303 54.694H683.275C683.359 52.44 684.073 51.194 685.655 51.194C686.635 51.194 687.125 51.81 687.237 52.384H689.029C688.791 51.026 687.671 49.808 685.627 49.808C684.269 49.808 683.303 50.284 682.603 51.152C681.861 52.09 681.511 53.434 681.525 55.016C681.525 56.794 681.889 58.124 682.771 59.062C683.429 59.79 684.381 60.238 685.641 60.238ZM685.585 58.824C684.395 58.824 683.471 57.97 683.471 56.766C683.471 55.548 684.325 54.722 685.571 54.722C686.705 54.722 687.573 55.562 687.573 56.78C687.573 57.97 686.719 58.824 685.585 58.824ZM692.832 55.604C694.302 55.604 695.324 54.47 695.324 52.706C695.324 50.914 694.288 49.808 692.832 49.808C691.39 49.808 690.326 50.942 690.326 52.706C690.326 54.47 691.376 55.604 692.832 55.604ZM692.888 60H694.064L699.622 50.032H698.432L692.888 60ZM699.664 60.238C701.148 60.238 702.184 59.09 702.184 57.326C702.184 55.548 701.134 54.428 699.664 54.428C698.236 54.428 697.158 55.562 697.158 57.326C697.158 59.09 698.208 60.238 699.664 60.238ZM692.832 54.526C692.118 54.526 691.782 53.756 691.782 52.706C691.782 51.628 692.118 50.858 692.832 50.858C693.546 50.858 693.91 51.656 693.91 52.706C693.91 53.77 693.56 54.526 692.832 54.526ZM699.678 59.146C698.964 59.146 698.614 58.376 698.614 57.326C698.614 56.262 698.964 55.478 699.678 55.478C700.364 55.478 700.742 56.276 700.742 57.326C700.742 58.39 700.406 59.146 699.678 59.146Z" fill="white"/>
<path d="M636.47 110.53C636.763 110.823 637.237 110.823 637.53 110.53L642.303 105.757C642.596 105.464 642.596 104.99 642.303 104.697C642.01 104.404 641.536 104.404 641.243 104.697L637 108.939L632.757 104.697C632.464 104.404 631.99 104.404 631.697 104.697C631.404 104.99 631.404 105.464 631.697 105.757L636.47 110.53ZM636.25 1L636.25 110L637.75 110L637.75 1L636.25 1Z" fill="#131313"/>
<path d="M292 179C292 176.791 293.791 175 296 175H344C346.209 175 348 176.791 348 179V193C348 195.209 346.209 197 344 197H296C293.791 197 292 195.209 292 193V179Z" fill="#131313"/>
<path d="M353 186L348 191L348 181L353 186Z" fill="#131313"/>
<path d="M298.812 186.94H301.472V189.74H302.984V186.94H305.644V185.526H302.984V182.726H301.472V185.526H298.812V186.94ZM310.48 191H317.816V189.404H312.888V189.334C313.49 188.326 314.932 187.64 315.968 186.842C317.06 186.114 317.9 185.414 317.9 183.944C317.9 182.166 316.598 180.822 314.414 180.822C313.084 180.822 312.062 181.27 311.46 182.012C310.942 182.656 310.676 183.412 310.676 184.476H312.482C312.482 183.762 312.636 183.23 312.986 182.852C313.294 182.502 313.728 182.32 314.316 182.32C315.38 182.32 316.024 182.992 316.024 183.986C316.024 184.896 315.478 185.372 314.554 185.96C313.574 186.604 312.384 187.304 311.544 188.242C310.914 188.956 310.522 189.782 310.48 191ZM319.139 193.366C320.287 193.24 321.071 192.512 321.071 190.986V189.054H319.125V191H320.035V191.084C320.035 191.938 319.671 192.344 319.139 192.498V193.366ZM323.318 191H325.166V180.948H323.724C323.5 182.362 322.38 182.908 321.008 182.95V184.182H323.318V191ZM329.31 186.604C330.78 186.604 331.802 185.47 331.802 183.706C331.802 181.914 330.766 180.808 329.31 180.808C327.868 180.808 326.804 181.942 326.804 183.706C326.804 185.47 327.854 186.604 329.31 186.604ZM329.366 191H330.542L336.1 181.032H334.91L329.366 191ZM336.142 191.238C337.626 191.238 338.662 190.09 338.662 188.326C338.662 186.548 337.612 185.428 336.142 185.428C334.714 185.428 333.636 186.562 333.636 188.326C333.636 190.09 334.686 191.238 336.142 191.238ZM329.31 185.526C328.596 185.526 328.26 184.756 328.26 183.706C328.26 182.628 328.596 181.858 329.31 181.858C330.024 181.858 330.388 182.656 330.388 183.706C330.388 184.77 330.038 185.526 329.31 185.526ZM336.156 190.146C335.442 190.146 335.092 189.376 335.092 188.326C335.092 187.262 335.442 186.478 336.156 186.478C336.842 186.478 337.22 187.276 337.22 188.326C337.22 189.39 336.884 190.146 336.156 190.146Z" fill="white"/>
<path d="M361.53 0.469666C361.237 0.176788 360.763 0.176788 360.47 0.469666L355.697 5.24265C355.404 5.53552 355.404 6.01041 355.697 6.30331C355.99 6.59619 356.464 6.59619 356.757 6.30331L361 2.06067L365.243 6.30331C365.536 6.59619 366.01 6.59619 366.303 6.30331C366.596 6.01041 366.596 5.53552 366.303 5.24265L361.53 0.469666ZM361.75 370L361.75 1L360.25 1L360.25 370L361.75 370Z" fill="#131313"/>
<rect x="78" y="487" width="849" height="2" fill="#131313"/>
<circle cx="75" cy="488" r="4" fill="#131313"/>
<path d="M185.275 394H187.499C187.675 389.776 189.723 386.288 191.899 384.256V382.608H183.691V384.416H187.403C188.651 384.416 189.835 384.336 189.835 384.336V384.368C187.627 386.24 185.483 389.936 185.275 394ZM197.385 394.272C200.329 394.272 202.137 391.936 202.137 388.304C202.137 384.624 200.281 382.352 197.401 382.352C194.569 382.352 192.665 384.656 192.665 388.304C192.665 391.936 194.521 394.272 197.385 394.272ZM197.401 392.544C195.641 392.544 194.841 390.864 194.841 388.304C194.841 385.728 195.641 384.048 197.401 384.048C199.177 384.048 199.961 385.744 199.961 388.304C199.961 390.896 199.209 392.544 197.401 392.544ZM203.307 394H205.531V391.776H203.307V394ZM212.262 394H214.31V391.328H216.07V389.744H214.31V382.48H212.39L206.838 389.456V391.328H212.262V394ZM208.342 389.824V389.792C208.342 389.792 209.158 388.928 209.622 388.368L211.254 386.304C211.718 385.712 212.31 384.768 212.31 384.768H212.342C212.342 384.768 212.262 385.84 212.262 386.48V389.744H210.006C209.366 389.744 208.342 389.824 208.342 389.824ZM218.134 394H220.358C220.534 389.776 222.582 386.288 224.758 384.256V382.608H216.55V384.416H220.262C221.51 384.416 222.694 384.336 222.694 384.336V384.368C220.486 386.24 218.342 389.936 218.134 394ZM230.081 394.272C232.433 394.272 234.385 393.088 234.385 390.768C234.385 389.264 233.601 388.304 232.097 387.888V387.856C233.249 387.472 234.017 386.752 234.017 385.52C234.017 383.536 232.305 382.352 230.017 382.352C227.329 382.352 225.777 383.92 225.745 386.032H227.745C227.777 384.896 228.529 383.952 229.969 383.952C231.105 383.952 231.937 384.576 231.937 385.6C231.937 386.64 231.153 387.248 229.729 387.248H229.073V388.768H229.777C231.345 388.768 232.241 389.392 232.241 390.608C232.241 391.904 231.361 392.592 230.001 392.592C228.337 392.592 227.473 391.648 227.409 390.272H225.393C225.409 391.504 225.889 392.56 226.753 393.264C227.585 393.92 228.689 394.272 230.081 394.272ZM239.487 387.744H240.303C240.287 387.936 240.287 388.128 240.287 388.32C240.287 388.544 240.287 388.752 240.303 388.96H239.487V389.952H240.431C240.959 392.624 242.767 394.256 245.183 394.256C247.711 394.256 249.231 392.496 249.343 390.192H247.343C247.199 391.52 246.495 392.512 245.167 392.512C243.807 392.512 242.943 391.616 242.623 389.952H245.535V388.96H242.495C242.479 388.752 242.479 388.544 242.479 388.32C242.479 388.128 242.479 387.936 242.495 387.744H245.535V386.752H242.607C242.895 385.104 243.695 384.064 245.055 384.064C246.255 384.064 246.927 384.816 247.151 386H249.215C248.991 383.888 247.519 382.352 245.103 382.352C242.671 382.352 240.911 384.112 240.431 386.752H239.487V387.744Z" fill="white"/>
<path d="M470.525 25H472.749C472.925 20.776 474.973 17.288 477.149 15.256V13.608H468.941V15.416H472.653C473.901 15.416 475.085 15.336 475.085 15.336V15.368C472.877 17.24 470.733 20.936 470.525 25ZM480.755 25H482.867V13.512H481.219C480.963 15.128 479.683 15.752 478.115 15.8V17.208H480.755V25ZM484.979 25H487.203V22.776H484.979V25ZM492.828 25.272C494.156 25.272 495.196 24.856 495.932 24.088C496.956 23.064 497.372 21.384 497.372 19.288C497.372 16.936 496.908 15.336 495.724 14.36C494.988 13.736 493.98 13.352 492.748 13.352C490.268 13.352 488.46 15.048 488.46 17.32C488.46 19.608 490.236 21.272 492.444 21.272C493.708 21.272 494.652 20.712 495.356 19.8H495.388C495.324 21.208 495.084 22.2 494.604 22.808C494.172 23.4 493.58 23.672 492.78 23.672C491.564 23.672 490.924 22.952 490.78 22.232H488.716C488.924 23.912 490.476 25.272 492.828 25.272ZM492.78 19.656C491.42 19.656 490.444 18.664 490.444 17.304C490.444 15.944 491.404 14.968 492.796 14.968C494.14 14.968 495.18 15.928 495.18 17.304C495.18 18.696 494.22 19.656 492.78 19.656ZM503.174 25.272C505.526 25.272 507.478 24.088 507.478 21.768C507.478 20.264 506.694 19.304 505.19 18.888V18.856C506.342 18.472 507.11 17.752 507.11 16.52C507.11 14.536 505.398 13.352 503.11 13.352C500.422 13.352 498.87 14.92 498.838 17.032H500.838C500.87 15.896 501.622 14.952 503.062 14.952C504.198 14.952 505.03 15.576 505.03 16.6C505.03 17.64 504.246 18.248 502.822 18.248H502.166V19.768H502.87C504.438 19.768 505.334 20.392 505.334 21.608C505.334 22.904 504.454 23.592 503.094 23.592C501.43 23.592 500.566 22.648 500.502 21.272H498.486C498.502 22.504 498.982 23.56 499.846 24.264C500.678 24.92 501.782 25.272 503.174 25.272ZM508.63 25H517.014V23.176H511.382V23.096C512.07 21.944 513.718 21.16 514.902 20.248C516.15 19.416 517.11 18.616 517.11 16.936C517.11 14.904 515.622 13.368 513.126 13.368C511.606 13.368 510.438 13.88 509.75 14.728C509.158 15.464 508.854 16.328 508.854 17.544H510.918C510.918 16.728 511.094 16.12 511.494 15.688C511.846 15.288 512.342 15.08 513.014 15.08C514.23 15.08 514.966 15.848 514.966 16.984C514.966 18.024 514.342 18.568 513.286 19.24C512.166 19.976 510.806 20.776 509.846 21.848C509.126 22.664 508.678 23.608 508.63 25ZM522.237 18.744H523.053C523.037 18.936 523.037 19.128 523.037 19.32C523.037 19.544 523.037 19.752 523.053 19.96H522.237V20.952H523.181C523.709 23.624 525.517 25.256 527.933 25.256C530.461 25.256 531.981 23.496 532.093 21.192H530.093C529.949 22.52 529.245 23.512 527.917 23.512C526.557 23.512 525.693 22.616 525.373 20.952H528.285V19.96H525.245C525.229 19.752 525.229 19.544 525.229 19.32C525.229 19.128 525.229 18.936 525.245 18.744H528.285V17.752H525.357C525.645 16.104 526.445 15.064 527.805 15.064C529.005 15.064 529.677 15.816 529.901 17H531.965C531.741 14.888 530.269 13.352 527.853 13.352C525.421 13.352 523.661 15.112 523.181 17.752H522.237V18.744Z" fill="white"/>
<path d="M751.455 134H753.679C753.855 129.776 755.903 126.288 758.079 124.256V122.608H749.871V124.416H753.583C754.831 124.416 756.015 124.336 756.015 124.336V124.368C753.807 126.24 751.663 129.936 751.455 134ZM761.685 134H763.797V122.512H762.149C761.893 124.128 760.613 124.752 759.045 124.8V126.208H761.685V134ZM765.909 134H768.133V131.776H765.909V134ZM773.754 134.256C776.266 134.256 778.106 132.688 778.106 130.224C778.106 127.776 776.282 126.304 774.282 126.304C773.13 126.304 772.378 126.656 771.786 127.28H771.754L772.378 124.352H777.402V122.608H770.874L769.658 128.832H771.658C772.042 128.352 772.746 127.936 773.77 127.936C774.986 127.936 775.962 128.784 775.962 130.208C775.962 131.584 775.05 132.512 773.69 132.512C772.378 132.512 771.626 131.84 771.418 130.848H769.338C769.498 132.864 771.258 134.256 773.754 134.256ZM784.112 134.272C787.056 134.272 788.864 131.936 788.864 128.304C788.864 124.624 787.008 122.352 784.128 122.352C781.296 122.352 779.392 124.656 779.392 128.304C779.392 131.936 781.248 134.272 784.112 134.272ZM784.128 132.544C782.368 132.544 781.568 130.864 781.568 128.304C781.568 125.728 782.368 124.048 784.128 124.048C785.904 124.048 786.688 125.744 786.688 128.304C786.688 130.896 785.936 132.544 784.128 132.544ZM795.755 134H797.803V131.328H799.562V129.744H797.803V122.48H795.883L790.331 129.456V131.328H795.755V134ZM791.835 129.824V129.792C791.835 129.792 792.651 128.928 793.115 128.368L794.747 126.304C795.211 125.712 795.803 124.768 795.803 124.768H795.835C795.835 124.768 795.755 125.84 795.755 126.48V129.744H793.499C792.859 129.744 791.835 129.824 791.835 129.824ZM804.308 127.744H805.124C805.108 127.936 805.108 128.128 805.108 128.32C805.108 128.544 805.108 128.752 805.124 128.96H804.308V129.952H805.252C805.78 132.624 807.588 134.256 810.004 134.256C812.532 134.256 814.052 132.496 814.164 130.192H812.164C812.02 131.52 811.316 132.512 809.988 132.512C808.628 132.512 807.764 131.616 807.444 129.952H810.356V128.96H807.316C807.3 128.752 807.3 128.544 807.3 128.32C807.3 128.128 807.3 127.936 807.316 127.744H810.356V126.752H807.428C807.716 125.104 808.516 124.064 809.876 124.064C811.076 124.064 811.748 124.816 811.972 126H814.036C813.812 123.888 812.34 122.352 809.924 122.352C807.492 122.352 805.732 124.112 805.252 126.752H804.308V127.744Z" fill="white"/>
<defs>
<linearGradient id="paint0_linear" x1="499" y1="1" x2="499" y2="487" gradientUnits="userSpaceOnUse">
<stop stop-color="#004FED"/>
<stop offset="1" stop-color="#A6D9DB" stop-opacity="0"/>
</linearGradient>
<linearGradient id="paint1_linear" x1="782" y1="110" x2="782" y2="487" gradientUnits="userSpaceOnUse">
<stop stop-color="#004FED"/>
<stop offset="1" stop-color="#A6D9DB" stop-opacity="0"/>
</linearGradient>
<linearGradient id="paint2_linear" x1="216" y1="370" x2="216" y2="487" gradientUnits="userSpaceOnUse">
<stop stop-color="#004FED"/>
<stop offset="1" stop-color="#A6D9DB" stop-opacity="0"/>
</linearGradient>
</defs>
</svg>
