<svg width="392" height="534" viewBox="0 0 392 534" fill="none" xmlns="http://www.w3.org/2000/svg">
<g id="Group 283">
<rect id="Rectangle 120" width="1" height="534" rx="0.5" fill="#24262F"/>
<rect id="Rectangle 121" x="391" width="1" height="534" rx="0.5" fill="#24262F"/>
<path id="Professione dei partecipanti" d="M17.928 12.8V24H20.04V19.904H22.536C24.6 19.904 26.12 18.496 26.12 16.352C26.12 14.208 24.648 12.8 22.536 12.8H17.928ZM20.04 14.72H22.328C23.336 14.72 24.008 15.36 24.008 16.352C24.008 17.344 23.336 17.984 22.328 17.984H20.04V14.72ZM29.1925 16.064H27.2085V24H29.2245V19.392C29.2245 18.272 29.9605 17.728 30.9845 17.728H32.1685V16.032H31.3365C30.3285 16.032 29.6565 16.336 29.3525 17.184H29.1925V16.064ZM32.4785 20.032C32.4785 22.624 34.2705 24.224 36.6385 24.224C39.0065 24.224 40.7985 22.624 40.7985 20.032C40.7985 17.44 39.0065 15.84 36.6385 15.84C34.2705 15.84 32.4785 17.44 32.4785 20.032ZM34.4945 20.032C34.4945 18.496 35.3905 17.6 36.6385 17.6C37.8865 17.6 38.7825 18.496 38.7825 20.032C38.7825 21.568 37.8865 22.464 36.6385 22.464C35.3905 22.464 34.4945 21.568 34.4945 20.032ZM41.3966 16.064V17.696H43.4126V24H45.4286V17.696H47.5086V16.064H45.4286V14.912C45.4286 14.592 45.5886 14.432 45.8766 14.432H47.2526V12.8H45.1726C44.1166 12.8 43.4126 13.504 43.4126 14.592V16.064H41.3966ZM48.1348 20.032C48.1348 22.56 49.7828 24.224 52.1508 24.224C54.3268 24.224 55.2708 22.992 55.7188 22.144L54.0708 21.28C53.7988 21.888 53.3348 22.496 52.2148 22.496C51.0948 22.496 50.2468 21.712 50.1988 20.624H55.9748V19.936C55.9748 17.504 54.4548 15.84 52.1188 15.84C49.7828 15.84 48.1348 17.504 48.1348 20.032ZM50.2148 19.12C50.3428 18.24 51.0148 17.568 52.1028 17.568C53.1428 17.568 53.8308 18.208 53.9268 19.12H50.2148ZM57.0961 18.288C57.0961 19.856 58.4081 20.432 60.0721 20.752L60.4881 20.832C61.4801 21.024 61.9281 21.264 61.9281 21.776C61.9281 22.288 61.4801 22.688 60.5521 22.688C59.6241 22.688 58.8721 22.304 58.6641 21.152L56.8081 21.632C57.0801 23.296 58.4721 24.224 60.5521 24.224C62.5681 24.224 63.8801 23.28 63.8801 21.616C63.8801 19.952 62.5361 19.504 60.7441 19.152L60.3281 19.072C59.4961 18.912 59.0481 18.688 59.0481 18.16C59.0481 17.68 59.4641 17.376 60.2321 17.376C61.0001 17.376 61.5441 17.696 61.7361 18.56L63.5601 18C63.1761 16.72 62.0081 15.84 60.2321 15.84C58.3441 15.84 57.0961 16.72 57.0961 18.288ZM65.018 18.288C65.018 19.856 66.33 20.432 67.994 20.752L68.41 20.832C69.402 21.024 69.85 21.264 69.85 21.776C69.85 22.288 69.402 22.688 68.474 22.688C67.546 22.688 66.794 22.304 66.586 21.152L64.73 21.632C65.002 23.296 66.394 24.224 68.474 24.224C70.49 24.224 71.802 23.28 71.802 21.616C71.802 19.952 70.458 19.504 68.666 19.152L68.25 19.072C67.418 18.912 66.97 18.688 66.97 18.16C66.97 17.68 67.386 17.376 68.154 17.376C68.922 17.376 69.466 17.696 69.658 18.56L71.482 18C71.098 16.72 69.93 15.84 68.154 15.84C66.266 15.84 65.018 16.72 65.018 18.288ZM72.73 13.76C72.73 14.576 73.354 15.136 74.154 15.136C74.954 15.136 75.578 14.576 75.578 13.76C75.578 12.944 74.954 12.384 74.154 12.384C73.354 12.384 72.73 12.944 72.73 13.76ZM75.162 16.064H73.146V24H75.162V16.064ZM76.4785 20.032C76.4785 22.624 78.2705 24.224 80.6385 24.224C83.0065 24.224 84.7985 22.624 84.7985 20.032C84.7985 17.44 83.0065 15.84 80.6385 15.84C78.2705 15.84 76.4785 17.44 76.4785 20.032ZM78.4945 20.032C78.4945 18.496 79.3905 17.6 80.6385 17.6C81.8865 17.6 82.7825 18.496 82.7825 20.032C82.7825 21.568 81.8865 22.464 80.6385 22.464C79.3905 22.464 78.4945 21.568 78.4945 20.032ZM86.1148 16.064V24H88.1308V19.904C88.1308 18.432 88.8508 17.568 90.0828 17.568C91.1708 17.568 91.7788 18.16 91.7788 19.36V24H93.7948V19.264C93.7948 17.296 92.5628 15.936 90.7068 15.936C89.2508 15.936 88.5788 16.576 88.2588 17.248H88.0988V16.064H86.1148ZM95.0098 20.032C95.0098 22.56 96.6578 24.224 99.0258 24.224C101.202 24.224 102.146 22.992 102.594 22.144L100.946 21.28C100.674 21.888 100.21 22.496 99.0898 22.496C97.9698 22.496 97.1218 21.712 97.0738 20.624H102.85V19.936C102.85 17.504 101.33 15.84 98.9938 15.84C96.6578 15.84 95.0098 17.504 95.0098 20.032ZM97.0898 19.12C97.2178 18.24 97.8898 17.568 98.9778 17.568C100.018 17.568 100.706 18.208 100.802 19.12H97.0898ZM116.284 12.8H114.268V17.088H114.108C113.66 16.448 112.892 15.84 111.516 15.84C109.628 15.84 107.932 17.44 107.932 20.032C107.932 22.624 109.628 24.224 111.516 24.224C112.892 24.224 113.66 23.616 114.14 22.928H114.3V24H116.284V12.8ZM112.124 17.568C113.372 17.568 114.3 18.464 114.3 20.032C114.3 21.6 113.372 22.496 112.124 22.496C110.876 22.496 109.948 21.6 109.948 20.032C109.948 18.464 110.876 17.568 112.124 17.568ZM117.588 20.032C117.588 22.56 119.236 24.224 121.604 24.224C123.78 24.224 124.724 22.992 125.172 22.144L123.524 21.28C123.252 21.888 122.788 22.496 121.668 22.496C120.548 22.496 119.7 21.712 119.652 20.624H125.428V19.936C125.428 17.504 123.908 15.84 121.572 15.84C119.236 15.84 117.588 17.504 117.588 20.032ZM119.668 19.12C119.796 18.24 120.468 17.568 121.556 17.568C122.596 17.568 123.284 18.208 123.38 19.12H119.668ZM126.261 13.76C126.261 14.576 126.885 15.136 127.685 15.136C128.485 15.136 129.109 14.576 129.109 13.76C129.109 12.944 128.485 12.384 127.685 12.384C126.885 12.384 126.261 12.944 126.261 13.76ZM128.693 16.064H126.677V24H128.693V16.064ZM134.787 27.2H136.803V22.976H136.963C137.411 23.616 138.179 24.224 139.555 24.224C141.443 24.224 143.139 22.624 143.139 20.032C143.139 17.44 141.443 15.84 139.555 15.84C138.179 15.84 137.411 16.448 136.931 17.136H136.771V16.064H134.787V27.2ZM138.947 22.496C137.699 22.496 136.771 21.6 136.771 20.032C136.771 18.464 137.699 17.568 138.947 17.568C140.195 17.568 141.123 18.464 141.123 20.032C141.123 21.6 140.195 22.496 138.947 22.496ZM144.347 18.08L146.203 18.704C146.347 17.984 146.827 17.44 147.835 17.44C148.859 17.44 149.307 18.016 149.307 18.752V19.2H147.131C145.339 19.2 144.059 20.048 144.059 21.68C144.059 23.312 145.339 24.224 146.971 24.224C148.443 24.224 148.971 23.424 149.115 23.072H149.339V24H151.259V18.896C151.259 16.912 149.947 15.84 147.867 15.84C145.803 15.84 144.731 16.88 144.347 18.08ZM146.075 21.632C146.075 21.088 146.523 20.704 147.275 20.704H149.307V20.832C149.307 21.888 148.507 22.592 147.387 22.592C146.523 22.592 146.075 22.192 146.075 21.632ZM154.943 16.064H152.959V24H154.975V19.392C154.975 18.272 155.711 17.728 156.735 17.728H157.919V16.032H157.087C156.079 16.032 155.407 16.336 155.103 17.184H154.943V16.064ZM158.345 17.696H160.329V22.208C160.329 23.296 161.033 24 162.089 24H164.329V22.368H162.793C162.505 22.368 162.345 22.208 162.345 21.888V17.696H164.521V16.064H162.345V13.6H160.329V16.064H158.345V17.696ZM165.229 20.032C165.229 22.56 166.877 24.224 169.245 24.224C171.421 24.224 172.365 22.992 172.812 22.144L171.165 21.28C170.893 21.888 170.429 22.496 169.309 22.496C168.189 22.496 167.341 21.712 167.293 20.624H173.069V19.936C173.069 17.504 171.549 15.84 169.213 15.84C166.877 15.84 165.229 17.504 165.229 20.032ZM167.309 19.12C167.437 18.24 168.109 17.568 169.197 17.568C170.237 17.568 170.925 18.208 171.021 19.12H167.309ZM173.838 20.032C173.838 22.496 175.662 24.224 177.966 24.224C180.19 24.224 181.486 22.928 181.934 21.184L179.982 20.72C179.806 21.744 179.214 22.464 177.998 22.464C176.782 22.464 175.854 21.568 175.854 20.032C175.854 18.496 176.782 17.6 177.998 17.6C179.214 17.6 179.806 18.368 179.918 19.328L181.87 18.912C181.518 17.136 180.174 15.84 177.966 15.84C175.662 15.84 173.838 17.568 173.838 20.032ZM182.761 13.76C182.761 14.576 183.385 15.136 184.185 15.136C184.985 15.136 185.609 14.576 185.609 13.76C185.609 12.944 184.985 12.384 184.185 12.384C183.385 12.384 182.761 12.944 182.761 13.76ZM185.193 16.064H183.177V24H185.193V16.064ZM186.99 27.2H189.006V22.976H189.166C189.614 23.616 190.382 24.224 191.758 24.224C193.646 24.224 195.342 22.624 195.342 20.032C195.342 17.44 193.646 15.84 191.758 15.84C190.382 15.84 189.614 16.448 189.134 17.136H188.974V16.064H186.99V27.2ZM191.15 22.496C189.902 22.496 188.974 21.6 188.974 20.032C188.974 18.464 189.902 17.568 191.15 17.568C192.398 17.568 193.326 18.464 193.326 20.032C193.326 21.6 192.398 22.496 191.15 22.496ZM196.55 18.08L198.406 18.704C198.55 17.984 199.03 17.44 200.038 17.44C201.062 17.44 201.51 18.016 201.51 18.752V19.2H199.334C197.542 19.2 196.262 20.048 196.262 21.68C196.262 23.312 197.542 24.224 199.174 24.224C200.646 24.224 201.174 23.424 201.318 23.072H201.542V24H203.462V18.896C203.462 16.912 202.15 15.84 200.07 15.84C198.006 15.84 196.934 16.88 196.55 18.08ZM198.278 21.632C198.278 21.088 198.726 20.704 199.478 20.704H201.51V20.832C201.51 21.888 200.71 22.592 199.59 22.592C198.726 22.592 198.278 22.192 198.278 21.632ZM205.162 16.064V24H207.178V19.904C207.178 18.432 207.898 17.568 209.13 17.568C210.218 17.568 210.826 18.16 210.826 19.36V24H212.842V19.264C212.842 17.296 211.61 15.936 209.754 15.936C208.298 15.936 207.626 16.576 207.306 17.248H207.146V16.064H205.162ZM213.548 17.696H215.532V22.208C215.532 23.296 216.236 24 217.292 24H219.532V22.368H217.996C217.708 22.368 217.548 22.208 217.548 21.888V17.696H219.724V16.064H217.548V13.6H215.532V16.064H213.548V17.696ZM220.652 13.76C220.652 14.576 221.276 15.136 222.076 15.136C222.876 15.136 223.5 14.576 223.5 13.76C223.5 12.944 222.876 12.384 222.076 12.384C221.276 12.384 220.652 12.944 220.652 13.76ZM223.084 16.064H221.068V24H223.084V16.064Z" fill="#24262F"/>
<rect id="Rectangle 126" x="9" y="43" width="374" height="1" rx="0.5" fill="#24262F"/>
<rect id="Rectangle 130" x="9" y="92" width="374" height="1" rx="0.5" fill="#24262F"/>
<rect id="Rectangle 132" x="9" y="141" width="374" height="1" rx="0.5" fill="#24262F"/>
<rect id="Rectangle 135" x="9" y="190" width="374" height="1" rx="0.5" fill="#24262F"/>
<rect id="Rectangle 136" x="9" y="239" width="374" height="1" rx="0.5" fill="#24262F"/>
<rect id="Rectangle 138" x="9" y="288" width="374" height="1" rx="0.5" fill="#24262F"/>
<rect id="Rectangle 142" x="9" y="386" width="374" height="1" rx="0.5" fill="#24262F"/>
<rect id="Rectangle 144" x="9" y="435" width="374" height="1" rx="0.5" fill="#24262F"/>
<rect id="Rectangle 146" x="9" y="484" width="374" height="1" rx="0.5" fill="#24262F"/>
<rect id="Rectangle 184" x="9" y="533" width="374" height="1" rx="0.5" fill="#24262F"/>
<rect id="Rectangle 140" x="9" y="337" width="374" height="1" rx="0.5" fill="#24262F"/>
<path id="Pensionato" d="M17.882 62.2V72H19.506V68.29H21.816C23.594 68.29 24.938 67.1 24.938 65.252C24.938 63.39 23.636 62.2 21.816 62.2H17.882ZM19.506 63.67H21.648C22.67 63.67 23.314 64.272 23.314 65.252C23.314 66.218 22.67 66.82 21.648 66.82H19.506V63.67ZM25.4594 68.514C25.4594 70.684 26.8874 72.196 28.9874 72.196C30.8914 72.196 31.7034 71.104 32.1094 70.376L30.8354 69.69C30.5554 70.292 30.0654 70.866 29.0154 70.866C27.9094 70.866 27.0974 70.096 27.0414 69.032H32.2774V68.402C32.2774 66.288 30.9334 64.888 28.9314 64.888C26.9014 64.888 25.4594 66.358 25.4594 68.514ZM27.0554 67.842C27.1814 66.876 27.8534 66.218 28.9174 66.218C29.9394 66.218 30.6254 66.848 30.7094 67.842H27.0554ZM33.5223 65.098V72H35.0483V68.458C35.0483 67.03 35.7903 66.232 36.9383 66.232C37.9603 66.232 38.5623 66.778 38.5623 67.94V72H40.1023V67.856C40.1023 66.092 38.9823 64.972 37.4003 64.972C36.0843 64.972 35.4683 65.56 35.1603 66.162H35.0203V65.098H33.5223ZM41.6268 66.988C41.6268 68.304 42.7188 68.822 44.1188 69.074L44.5948 69.158C45.5048 69.326 45.9668 69.55 45.9668 70.082C45.9668 70.614 45.4768 71.006 44.5948 71.006C43.6988 71.006 42.9708 70.642 42.7748 69.508L41.3468 69.858C41.5848 71.398 42.8168 72.196 44.5948 72.196C46.3308 72.196 47.4508 71.384 47.4508 69.97C47.4508 68.556 46.3168 68.15 44.8048 67.87L44.3288 67.786C43.5728 67.646 43.1108 67.422 43.1108 66.89C43.1108 66.386 43.5588 66.078 44.3148 66.078C45.0708 66.078 45.6168 66.4 45.7848 67.24L47.1848 66.82C46.8768 65.658 45.8688 64.902 44.3148 64.902C42.6908 64.902 41.6268 65.658 41.6268 66.988ZM48.3884 63.04C48.3884 63.684 48.8784 64.132 49.5224 64.132C50.1664 64.132 50.6564 63.684 50.6564 63.04C50.6564 62.382 50.1664 61.934 49.5224 61.934C48.8784 61.934 48.3884 62.382 48.3884 63.04ZM50.2924 65.098H48.7664V72H50.2924V65.098ZM51.6 68.542C51.6 70.782 53.126 72.196 55.198 72.196C57.27 72.196 58.782 70.782 58.782 68.542C58.782 66.316 57.27 64.902 55.198 64.902C53.126 64.902 51.6 66.316 51.6 68.542ZM53.14 68.542C53.14 67.128 53.98 66.246 55.198 66.246C56.402 66.246 57.242 67.114 57.242 68.542C57.242 69.97 56.402 70.852 55.198 70.852C53.98 70.852 53.14 69.984 53.14 68.542ZM60.0868 65.098V72H61.6128V68.458C61.6128 67.03 62.3548 66.232 63.5028 66.232C64.5248 66.232 65.1268 66.778 65.1268 67.94V72H66.6668V67.856C66.6668 66.092 65.5468 64.972 63.9648 64.972C62.6488 64.972 62.0328 65.56 61.7248 66.162H61.5848V65.098H60.0868ZM68.1912 66.89L69.6192 67.366C69.7592 66.652 70.2492 66.134 71.2152 66.134C72.1812 66.134 72.6432 66.68 72.6432 67.422V67.842H70.5992C69.0592 67.842 67.9532 68.57 67.9532 69.998C67.9532 71.398 69.0592 72.196 70.4872 72.196C71.8032 72.196 72.2932 71.51 72.4892 71.132H72.6712V72H74.1412V67.534C74.1412 65.84 73.0212 64.888 71.2292 64.888C69.4512 64.888 68.5272 65.812 68.1912 66.89ZM69.4932 69.956C69.4932 69.382 69.9552 69.032 70.6972 69.032H72.6432V69.158C72.6432 70.25 71.8732 70.936 70.7812 70.936C69.9552 70.936 69.4932 70.544 69.4932 69.956ZM74.8613 66.344H76.7233V70.572C76.7233 71.44 77.2833 72 78.1233 72H80.0693V70.74H78.6553C78.4033 70.74 78.2633 70.6 78.2633 70.32V66.344H80.2793V65.098H78.2633V62.844H76.7233V65.098H74.8613V66.344ZM80.9945 68.542C80.9945 70.782 82.5205 72.196 84.5925 72.196C86.6645 72.196 88.1765 70.782 88.1765 68.542C88.1765 66.316 86.6645 64.902 84.5925 64.902C82.5205 64.902 80.9945 66.316 80.9945 68.542ZM82.5345 68.542C82.5345 67.128 83.3745 66.246 84.5925 66.246C85.7965 66.246 86.6365 67.114 86.6365 68.542C86.6365 69.97 85.7965 70.852 84.5925 70.852C83.3745 70.852 82.5345 69.984 82.5345 68.542Z" fill="#24262F"/>
<path id="Non&#226;&#128;&#168;Occupato" d="M17.882 103.2V113H19.506V104.852H19.646L22.488 113H25.26V103.2H23.65V111.348H23.51L20.654 103.2H17.882ZM26.5805 109.542C26.5805 111.782 28.1065 113.196 30.1785 113.196C32.2505 113.196 33.7625 111.782 33.7625 109.542C33.7625 107.316 32.2505 105.902 30.1785 105.902C28.1065 105.902 26.5805 107.316 26.5805 109.542ZM28.1205 109.542C28.1205 108.128 28.9605 107.246 30.1785 107.246C31.3825 107.246 32.2225 108.114 32.2225 109.542C32.2225 110.97 31.3825 111.852 30.1785 111.852C28.9605 111.852 28.1205 110.984 28.1205 109.542ZM35.0672 106.098V113H36.5932V109.458C36.5932 108.03 37.3352 107.232 38.4832 107.232C39.5052 107.232 40.1072 107.778 40.1072 108.94V113H41.6472V108.856C41.6472 107.092 40.5272 105.972 38.9452 105.972C37.6292 105.972 37.0132 106.56 36.7052 107.162H36.5652V106.098H35.0672ZM17.518 122.938V125.262C17.518 127.796 19.072 129.196 21.494 129.196C23.916 129.196 25.456 127.796 25.456 125.262V122.938C25.456 120.404 23.916 119.004 21.494 119.004C19.072 119.004 17.518 120.404 17.518 122.938ZM19.142 122.882C19.142 121.398 20.01 120.446 21.494 120.446C22.964 120.446 23.832 121.398 23.832 122.882V125.318C23.832 126.802 22.964 127.754 21.494 127.754C20.01 127.754 19.142 126.802 19.142 125.318V122.882ZM26.4028 125.542C26.4028 127.684 27.9848 129.196 30.0008 129.196C31.9048 129.196 33.0387 128.062 33.4028 126.55L31.9048 126.2C31.7508 127.166 31.1628 127.852 30.0148 127.852C28.8388 127.852 27.9428 126.97 27.9428 125.542C27.9428 124.128 28.8388 123.246 30.0148 123.246C31.1348 123.246 31.7508 123.946 31.8628 124.87L33.3468 124.562C33.0668 123.036 31.8908 121.902 29.9868 121.902C27.9848 121.902 26.4028 123.4 26.4028 125.542ZM34.2094 125.542C34.2094 127.684 35.7914 129.196 37.8074 129.196C39.7114 129.196 40.8454 128.062 41.2094 126.55L39.7114 126.2C39.5574 127.166 38.9694 127.852 37.8214 127.852C36.6454 127.852 35.7494 126.97 35.7494 125.542C35.7494 124.128 36.6454 123.246 37.8214 123.246C38.9414 123.246 39.5574 123.946 39.6694 124.87L41.1534 124.562C40.8734 123.036 39.6974 121.902 37.7934 121.902C35.7914 121.902 34.2094 123.4 34.2094 125.542ZM49.03 129V122.098H47.504V125.64C47.504 127.054 46.762 127.852 45.614 127.852C44.592 127.852 43.99 127.306 43.99 126.158V122.098H42.45V126.242C42.45 127.992 43.57 129.112 45.152 129.112C46.468 129.112 47.084 128.538 47.392 127.922H47.532V129H49.03ZM50.7625 131.8H52.2885V128.02H52.4285C52.8205 128.622 53.5205 129.196 54.7945 129.196C56.4885 129.196 57.9585 127.796 57.9585 125.542C57.9585 123.302 56.4885 121.902 54.7945 121.902C53.5205 121.902 52.8205 122.476 52.4005 123.106H52.2605V122.098H50.7625V131.8ZM54.3465 127.866C53.1565 127.866 52.2745 126.998 52.2745 125.542C52.2745 124.086 53.1565 123.218 54.3465 123.218C55.5505 123.218 56.4185 124.086 56.4185 125.542C56.4185 127.012 55.5505 127.866 54.3465 127.866ZM59.1268 123.89L60.5548 124.366C60.6948 123.652 61.1848 123.134 62.1508 123.134C63.1168 123.134 63.5788 123.68 63.5788 124.422V124.842H61.5348C59.9948 124.842 58.8888 125.57 58.8888 126.998C58.8888 128.398 59.9948 129.196 61.4228 129.196C62.7388 129.196 63.2288 128.51 63.4248 128.132H63.6068V129H65.0768V124.534C65.0768 122.84 63.9568 121.888 62.1648 121.888C60.3868 121.888 59.4628 122.812 59.1268 123.89ZM60.4288 126.956C60.4288 126.382 60.8908 126.032 61.6328 126.032H63.5788V126.158C63.5788 127.25 62.8088 127.936 61.7168 127.936C60.8908 127.936 60.4288 127.544 60.4288 126.956ZM65.7969 123.344H67.6589V127.572C67.6589 128.44 68.2189 129 69.0589 129H71.0049V127.74H69.5909C69.3389 127.74 69.1989 127.6 69.1989 127.32V123.344H71.2149V122.098H69.1989V119.844H67.6589V122.098H65.7969V123.344ZM71.9301 125.542C71.9301 127.782 73.4561 129.196 75.5281 129.196C77.6001 129.196 79.1121 127.782 79.1121 125.542C79.1121 123.316 77.6001 121.902 75.5281 121.902C73.4561 121.902 71.9301 123.316 71.9301 125.542ZM73.4701 125.542C73.4701 124.128 74.3101 123.246 75.5281 123.246C76.7321 123.246 77.5721 124.114 77.5721 125.542C77.5721 126.97 76.7321 127.852 75.5281 127.852C74.3101 127.852 73.4701 126.984 73.4701 125.542Z" fill="#24262F"/>
<path id="Insegnante" d="M17.882 160.2V170H19.506V160.2H17.882ZM21.2586 163.098V170H22.7846V166.458C22.7846 165.03 23.5266 164.232 24.6746 164.232C25.6966 164.232 26.2986 164.778 26.2986 165.94V170H27.8386V165.856C27.8386 164.092 26.7186 162.972 25.1366 162.972C23.8206 162.972 23.2046 163.56 22.8966 164.162H22.7566V163.098H21.2586ZM29.3631 164.988C29.3631 166.304 30.4551 166.822 31.8551 167.074L32.3311 167.158C33.2411 167.326 33.7031 167.55 33.7031 168.082C33.7031 168.614 33.2131 169.006 32.3311 169.006C31.4351 169.006 30.7071 168.642 30.5111 167.508L29.0831 167.858C29.3211 169.398 30.5531 170.196 32.3311 170.196C34.0671 170.196 35.1871 169.384 35.1871 167.97C35.1871 166.556 34.0531 166.15 32.5411 165.87L32.0651 165.786C31.3091 165.646 30.8471 165.422 30.8471 164.89C30.8471 164.386 31.2951 164.078 32.0511 164.078C32.8071 164.078 33.3531 164.4 33.5211 165.24L34.9211 164.82C34.6131 163.658 33.6051 162.902 32.0511 162.902C30.4271 162.902 29.3631 163.658 29.3631 164.988ZM36.0688 166.514C36.0688 168.684 37.4968 170.196 39.5968 170.196C41.5008 170.196 42.3128 169.104 42.7188 168.376L41.4448 167.69C41.1648 168.292 40.6748 168.866 39.6248 168.866C38.5188 168.866 37.7068 168.096 37.6508 167.032H42.8868V166.402C42.8868 164.288 41.5428 162.888 39.5408 162.888C37.5108 162.888 36.0688 164.358 36.0688 166.514ZM37.6648 165.842C37.7908 164.876 38.4628 164.218 39.5268 164.218C40.5488 164.218 41.2348 164.848 41.3188 165.842H37.6648ZM49.3957 163.098V164.106H49.2557C48.8357 163.476 48.1357 162.902 46.8617 162.902C45.1677 162.902 43.6977 164.288 43.6977 166.444C43.6977 168.6 45.1677 170 46.8617 170C48.1357 170 48.8357 169.412 49.2277 168.824H49.3677V169.566C49.3677 170.994 48.5277 171.694 47.2817 171.694C46.0357 171.694 45.4197 170.994 45.1677 170.196L43.7957 170.784C44.1457 171.806 45.1957 172.996 47.3097 172.996C49.4797 172.996 50.9077 171.806 50.9077 169.608V163.098H49.3957ZM47.3097 168.67C46.1057 168.67 45.2377 167.816 45.2377 166.444C45.2377 165.072 46.1057 164.218 47.3097 164.218C48.5137 164.218 49.3957 165.086 49.3957 166.444C49.3957 167.816 48.5137 168.67 47.3097 168.67ZM52.6356 163.098V170H54.1616V166.458C54.1616 165.03 54.9036 164.232 56.0516 164.232C57.0736 164.232 57.6756 164.778 57.6756 165.94V170H59.2156V165.856C59.2156 164.092 58.0956 162.972 56.5136 162.972C55.1976 162.972 54.5816 163.56 54.2736 164.162H54.1336V163.098H52.6356ZM60.74 164.89L62.168 165.366C62.308 164.652 62.798 164.134 63.764 164.134C64.73 164.134 65.192 164.68 65.192 165.422V165.842H63.148C61.608 165.842 60.502 166.57 60.502 167.998C60.502 169.398 61.608 170.196 63.036 170.196C64.352 170.196 64.842 169.51 65.038 169.132H65.22V170H66.69V165.534C66.69 163.84 65.57 162.888 63.778 162.888C62 162.888 61.076 163.812 60.74 164.89ZM62.042 167.956C62.042 167.382 62.504 167.032 63.246 167.032H65.192V167.158C65.192 168.25 64.422 168.936 63.33 168.936C62.504 168.936 62.042 168.544 62.042 167.956ZM68.3309 163.098V170H69.8569V166.458C69.8569 165.03 70.5989 164.232 71.7469 164.232C72.7689 164.232 73.3709 164.778 73.3709 165.94V170H74.9109V165.856C74.9109 164.092 73.7909 162.972 72.2089 162.972C70.8929 162.972 70.2769 163.56 69.9689 164.162H69.8289V163.098H68.3309ZM75.6406 164.344H77.5026V168.572C77.5026 169.44 78.0626 170 78.9026 170H80.8486V168.74H79.4346C79.1826 168.74 79.0426 168.6 79.0426 168.32V164.344H81.0586V163.098H79.0426V160.844H77.5026V163.098H75.6406V164.344ZM81.7738 166.514C81.7738 168.684 83.2018 170.196 85.3018 170.196C87.2058 170.196 88.0178 169.104 88.4238 168.376L87.1498 167.69C86.8698 168.292 86.3798 168.866 85.3298 168.866C84.2238 168.866 83.4118 168.096 83.3558 167.032H88.5918V166.402C88.5918 164.288 87.2478 162.888 85.2458 162.888C83.2158 162.888 81.7738 164.358 81.7738 166.514ZM83.3698 165.842C83.4958 164.876 84.1678 164.218 85.2318 164.218C86.2538 164.218 86.9398 164.848 87.0238 165.842H83.3698Z" fill="#24262F"/>
<path id="Dipendente&#226;&#128;&#168;privato" d="M17.882 201.2V211H21.102C23.72 211 25.134 209.67 25.134 207.01V205.19C25.134 202.53 23.72 201.2 21.102 201.2H17.882ZM19.506 202.67H21.116C22.74 202.67 23.524 203.51 23.524 205.134V207.066C23.524 208.69 22.754 209.53 21.116 209.53H19.506V202.67ZM26.158 202.04C26.158 202.684 26.648 203.132 27.292 203.132C27.936 203.132 28.426 202.684 28.426 202.04C28.426 201.382 27.936 200.934 27.292 200.934C26.648 200.934 26.158 201.382 26.158 202.04ZM28.062 204.098H26.536V211H28.062V204.098ZM29.8035 213.8H31.3295V210.02H31.4695C31.8615 210.622 32.5615 211.196 33.8355 211.196C35.5295 211.196 36.9995 209.796 36.9995 207.542C36.9995 205.302 35.5295 203.902 33.8355 203.902C32.5615 203.902 31.8615 204.476 31.4415 205.106H31.3015V204.098H29.8035V213.8ZM33.3875 209.866C32.1975 209.866 31.3155 208.998 31.3155 207.542C31.3155 206.086 32.1975 205.218 33.3875 205.218C34.5915 205.218 35.4595 206.086 35.4595 207.542C35.4595 209.012 34.5915 209.866 33.3875 209.866ZM37.8735 207.514C37.8735 209.684 39.3015 211.196 41.4015 211.196C43.3055 211.196 44.1175 210.104 44.5235 209.376L43.2495 208.69C42.9695 209.292 42.4795 209.866 41.4295 209.866C40.3235 209.866 39.5115 209.096 39.4555 208.032H44.6915V207.402C44.6915 205.288 43.3475 203.888 41.3455 203.888C39.3155 203.888 37.8735 205.358 37.8735 207.514ZM39.4695 206.842C39.5955 205.876 40.2675 205.218 41.3315 205.218C42.3535 205.218 43.0395 205.848 43.1235 206.842H39.4695ZM45.9364 204.098V211H47.4624V207.458C47.4624 206.03 48.2044 205.232 49.3524 205.232C50.3744 205.232 50.9764 205.778 50.9764 206.94V211H52.5164V206.856C52.5164 205.092 51.3964 203.972 49.8144 203.972C48.4984 203.972 47.8824 204.56 47.5744 205.162H47.4344V204.098H45.9364ZM60.9428 201.2H59.4028V205.064H59.2628C58.8708 204.476 58.1708 203.902 56.8968 203.902C55.2028 203.902 53.7328 205.302 53.7328 207.542C53.7328 209.796 55.2028 211.196 56.8968 211.196C58.1708 211.196 58.8708 210.622 59.2908 209.978H59.4308V211H60.9428V201.2ZM57.3448 205.218C58.5488 205.218 59.4308 206.086 59.4308 207.542C59.4308 208.998 58.5488 209.866 57.3448 209.866C56.1408 209.866 55.2728 209.012 55.2728 207.542C55.2728 206.086 56.1408 205.218 57.3448 205.218ZM62.2367 207.514C62.2367 209.684 63.6647 211.196 65.7647 211.196C67.6687 211.196 68.4807 210.104 68.8867 209.376L67.6127 208.69C67.3327 209.292 66.8427 209.866 65.7927 209.866C64.6867 209.866 63.8747 209.096 63.8187 208.032H69.0547V207.402C69.0547 205.288 67.7107 203.888 65.7087 203.888C63.6787 203.888 62.2367 205.358 62.2367 207.514ZM63.8327 206.842C63.9587 205.876 64.6307 205.218 65.6947 205.218C66.7167 205.218 67.4027 205.848 67.4867 206.842H63.8327ZM70.2996 204.098V211H71.8256V207.458C71.8256 206.03 72.5676 205.232 73.7156 205.232C74.7376 205.232 75.3396 205.778 75.3396 206.94V211H76.8796V206.856C76.8796 205.092 75.7596 203.972 74.1776 203.972C72.8616 203.972 72.2456 204.56 71.9376 205.162H71.7976V204.098H70.2996ZM77.6094 205.344H79.4714V209.572C79.4714 210.44 80.0314 211 80.8714 211H82.8174V209.74H81.4034C81.1514 209.74 81.0114 209.6 81.0114 209.32V205.344H83.0274V204.098H81.0114V201.844H79.4714V204.098H77.6094V205.344ZM83.7426 207.514C83.7426 209.684 85.1706 211.196 87.2706 211.196C89.1746 211.196 89.9866 210.104 90.3926 209.376L89.1186 208.69C88.8386 209.292 88.3486 209.866 87.2986 209.866C86.1926 209.866 85.3806 209.096 85.3246 208.032H90.5606V207.402C90.5606 205.288 89.2166 203.888 87.2146 203.888C85.1846 203.888 83.7426 205.358 83.7426 207.514ZM85.3386 206.842C85.4646 205.876 86.1366 205.218 87.2006 205.218C88.2226 205.218 88.9086 205.848 88.9926 206.842H85.3386ZM17.868 229.8H19.394V226.02H19.534C19.926 226.622 20.626 227.196 21.9 227.196C23.594 227.196 25.064 225.796 25.064 223.542C25.064 221.302 23.594 219.902 21.9 219.902C20.626 219.902 19.926 220.476 19.506 221.106H19.366V220.098H17.868V229.8ZM21.452 225.866C20.262 225.866 19.38 224.998 19.38 223.542C19.38 222.086 20.262 221.218 21.452 221.218C22.656 221.218 23.524 222.086 23.524 223.542C23.524 225.012 22.656 225.866 21.452 225.866ZM27.8699 220.098H26.3719V227H27.8979V222.912C27.8979 221.862 28.5559 221.372 29.4799 221.372H30.5439V220.07H29.7459C28.8499 220.07 28.2899 220.336 28.0099 221.05H27.8699V220.098ZM31.1892 218.04C31.1892 218.684 31.6792 219.132 32.3232 219.132C32.9672 219.132 33.4572 218.684 33.4572 218.04C33.4572 217.382 32.9672 216.934 32.3232 216.934C31.6792 216.934 31.1892 217.382 31.1892 218.04ZM33.0932 220.098H31.5672V227H33.0932V220.098ZM34.0788 220.098L36.5568 227H38.8108L41.2748 220.098H39.6088L37.7468 225.684H37.6068L35.7448 220.098H34.0788ZM41.9959 221.89L43.4239 222.366C43.5639 221.652 44.0539 221.134 45.0199 221.134C45.9859 221.134 46.4479 221.68 46.4479 222.422V222.842H44.4039C42.8639 222.842 41.7579 223.57 41.7579 224.998C41.7579 226.398 42.8639 227.196 44.2919 227.196C45.6079 227.196 46.0979 226.51 46.2939 226.132H46.4759V227H47.9459V222.534C47.9459 220.84 46.8259 219.888 45.0339 219.888C43.2559 219.888 42.3319 220.812 41.9959 221.89ZM43.2979 224.956C43.2979 224.382 43.7599 224.032 44.5019 224.032H46.4479V224.158C46.4479 225.25 45.6779 225.936 44.5859 225.936C43.7599 225.936 43.2979 225.544 43.2979 224.956ZM48.666 221.344H50.528V225.572C50.528 226.44 51.088 227 51.928 227H53.874V225.74H52.46C52.208 225.74 52.068 225.6 52.068 225.32V221.344H54.084V220.098H52.068V217.844H50.528V220.098H48.666V221.344ZM54.7992 223.542C54.7992 225.782 56.3252 227.196 58.3972 227.196C60.4692 227.196 61.9812 225.782 61.9812 223.542C61.9812 221.316 60.4692 219.902 58.3972 219.902C56.3252 219.902 54.7992 221.316 54.7992 223.542ZM56.3392 223.542C56.3392 222.128 57.1792 221.246 58.3972 221.246C59.6012 221.246 60.4412 222.114 60.4412 223.542C60.4412 224.97 59.6012 225.852 58.3972 225.852C57.1792 225.852 56.3392 224.984 56.3392 223.542Z" fill="#24262F"/>
<path id="Libero&#226;&#128;&#168;profession." d="M17.882 250.2V260H24.21V258.53H19.506V250.2H17.882ZM24.9002 251.04C24.9002 251.684 25.3902 252.132 26.0342 252.132C26.6782 252.132 27.1682 251.684 27.1682 251.04C27.1682 250.382 26.6782 249.934 26.0342 249.934C25.3902 249.934 24.9002 250.382 24.9002 251.04ZM26.8042 253.098H25.2782V260H26.8042V253.098ZM28.5457 250.2V260H30.0437V258.978H30.1837C30.6037 259.622 31.3037 260.196 32.5777 260.196C34.2717 260.196 35.7417 258.796 35.7417 256.542C35.7417 254.302 34.2717 252.902 32.5777 252.902C31.3037 252.902 30.6037 253.476 30.2117 254.064H30.0717V250.2H28.5457ZM32.1297 254.218C33.3337 254.218 34.2017 255.086 34.2017 256.542C34.2017 258.012 33.3337 258.866 32.1297 258.866C30.9397 258.866 30.0577 257.998 30.0577 256.542C30.0577 255.086 30.9397 254.218 32.1297 254.218ZM36.6156 256.514C36.6156 258.684 38.0436 260.196 40.1436 260.196C42.0476 260.196 42.8596 259.104 43.2656 258.376L41.9916 257.69C41.7116 258.292 41.2216 258.866 40.1716 258.866C39.0656 258.866 38.2536 258.096 38.1976 257.032H43.4336V256.402C43.4336 254.288 42.0896 252.888 40.0876 252.888C38.0576 252.888 36.6156 254.358 36.6156 256.514ZM38.2116 255.842C38.3376 254.876 39.0096 254.218 40.0736 254.218C41.0956 254.218 41.7816 254.848 41.8656 255.842H38.2116ZM46.1765 253.098H44.6785V260H46.2045V255.912C46.2045 254.862 46.8625 254.372 47.7865 254.372H48.8505V253.07H48.0525C47.1565 253.07 46.5965 253.336 46.3165 254.05H46.1765V253.098ZM49.1938 256.542C49.1938 258.782 50.7198 260.196 52.7918 260.196C54.8638 260.196 56.3758 258.782 56.3758 256.542C56.3758 254.316 54.8638 252.902 52.7918 252.902C50.7198 252.902 49.1938 254.316 49.1938 256.542ZM50.7338 256.542C50.7338 255.128 51.5738 254.246 52.7918 254.246C53.9958 254.246 54.8358 255.114 54.8358 256.542C54.8358 257.97 53.9958 258.852 52.7918 258.852C51.5738 258.852 50.7338 257.984 50.7338 256.542ZM17.868 278.8H19.394V275.02H19.534C19.926 275.622 20.626 276.196 21.9 276.196C23.594 276.196 25.064 274.796 25.064 272.542C25.064 270.302 23.594 268.902 21.9 268.902C20.626 268.902 19.926 269.476 19.506 270.106H19.366V269.098H17.868V278.8ZM21.452 274.866C20.262 274.866 19.38 273.998 19.38 272.542C19.38 271.086 20.262 270.218 21.452 270.218C22.656 270.218 23.524 271.086 23.524 272.542C23.524 274.012 22.656 274.866 21.452 274.866ZM27.8699 269.098H26.3719V276H27.8979V271.912C27.8979 270.862 28.5559 270.372 29.4799 270.372H30.5439V269.07H29.7459C28.8499 269.07 28.2899 269.336 28.0099 270.05H27.8699V269.098ZM30.8871 272.542C30.8871 274.782 32.4131 276.196 34.4851 276.196C36.5571 276.196 38.0691 274.782 38.0691 272.542C38.0691 270.316 36.5571 268.902 34.4851 268.902C32.4131 268.902 30.8871 270.316 30.8871 272.542ZM32.4271 272.542C32.4271 271.128 33.2671 270.246 34.4851 270.246C35.6891 270.246 36.5291 271.114 36.5291 272.542C36.5291 273.97 35.6891 274.852 34.4851 274.852C33.2671 274.852 32.4271 273.984 32.4271 272.542ZM38.6895 269.098V270.344H40.5655V276H42.1055V270.344H44.0375V269.098H42.1055V267.88C42.1055 267.6 42.2455 267.46 42.4975 267.46H43.7855V266.2H41.9655C41.1255 266.2 40.5655 266.76 40.5655 267.628V269.098H38.6895ZM44.6957 272.514C44.6957 274.684 46.1237 276.196 48.2237 276.196C50.1277 276.196 50.9397 275.104 51.3457 274.376L50.0717 273.69C49.7917 274.292 49.3017 274.866 48.2517 274.866C47.1457 274.866 46.3337 274.096 46.2777 273.032H51.5137V272.402C51.5137 270.288 50.1697 268.888 48.1677 268.888C46.1377 268.888 44.6957 270.358 44.6957 272.514ZM46.2917 271.842C46.4177 270.876 47.0897 270.218 48.1537 270.218C49.1757 270.218 49.8617 270.848 49.9457 271.842H46.2917ZM52.6053 270.988C52.6053 272.304 53.6973 272.822 55.0973 273.074L55.5733 273.158C56.4833 273.326 56.9453 273.55 56.9453 274.082C56.9453 274.614 56.4553 275.006 55.5733 275.006C54.6773 275.006 53.9493 274.642 53.7533 273.508L52.3253 273.858C52.5633 275.398 53.7953 276.196 55.5733 276.196C57.3093 276.196 58.4293 275.384 58.4293 273.97C58.4293 272.556 57.2953 272.15 55.7833 271.87L55.3073 271.786C54.5513 271.646 54.0893 271.422 54.0893 270.89C54.0893 270.386 54.5373 270.078 55.2933 270.078C56.0493 270.078 56.5953 270.4 56.7633 271.24L58.1633 270.82C57.8553 269.658 56.8473 268.902 55.2933 268.902C53.6693 268.902 52.6053 269.658 52.6053 270.988ZM59.5233 270.988C59.5233 272.304 60.6153 272.822 62.0153 273.074L62.4913 273.158C63.4013 273.326 63.8633 273.55 63.8633 274.082C63.8633 274.614 63.3733 275.006 62.4913 275.006C61.5953 275.006 60.8673 274.642 60.6713 273.508L59.2432 273.858C59.4813 275.398 60.7133 276.196 62.4913 276.196C64.2273 276.196 65.3473 275.384 65.3473 273.97C65.3473 272.556 64.2133 272.15 62.7013 271.87L62.2253 271.786C61.4693 271.646 61.0073 271.422 61.0073 270.89C61.0073 270.386 61.4553 270.078 62.2113 270.078C62.9673 270.078 63.5133 270.4 63.6813 271.24L65.0813 270.82C64.7733 269.658 63.7653 268.902 62.2113 268.902C60.5873 268.902 59.5233 269.658 59.5233 270.988ZM66.2849 267.04C66.2849 267.684 66.7749 268.132 67.4189 268.132C68.0629 268.132 68.5529 267.684 68.5529 267.04C68.5529 266.382 68.0629 265.934 67.4189 265.934C66.7749 265.934 66.2849 266.382 66.2849 267.04ZM68.1889 269.098H66.6629V276H68.1889V269.098ZM69.4965 272.542C69.4965 274.782 71.0225 276.196 73.0945 276.196C75.1665 276.196 76.6785 274.782 76.6785 272.542C76.6785 270.316 75.1665 268.902 73.0945 268.902C71.0225 268.902 69.4965 270.316 69.4965 272.542ZM71.0365 272.542C71.0365 271.128 71.8765 270.246 73.0945 270.246C74.2985 270.246 75.1385 271.114 75.1385 272.542C75.1385 273.97 74.2985 274.852 73.0945 274.852C71.8765 274.852 71.0365 273.984 71.0365 272.542ZM77.9832 269.098V276H79.5092V272.458C79.5092 271.03 80.2512 270.232 81.3992 270.232C82.4212 270.232 83.0232 270.778 83.0232 271.94V276H84.5632V271.856C84.5632 270.092 83.4432 268.972 81.8612 268.972C80.5452 268.972 79.9292 269.56 79.6212 270.162H79.4812V269.098H77.9832ZM86.0177 274.978C86.0177 275.692 86.5357 276.196 87.2357 276.196C87.9217 276.196 88.4397 275.692 88.4397 274.978C88.4397 274.278 87.9217 273.774 87.2357 273.774C86.5357 273.774 86.0177 274.278 86.0177 274.978Z" fill="#24262F"/>
<path id="Studente" d="M21.102 307.004C19.044 307.004 17.7 308.054 17.7 309.804C17.7 311.54 18.848 312.226 20.794 312.66L21.256 312.758C22.53 313.052 23.258 313.374 23.258 314.27C23.258 315.152 22.544 315.768 21.2 315.768C19.842 315.768 18.988 315.124 18.988 313.78V313.654H17.392V313.78C17.392 315.978 18.974 317.196 21.2 317.196C23.426 317.196 24.854 315.992 24.854 314.228C24.854 312.464 23.538 311.75 21.578 311.33L21.116 311.218C19.884 310.938 19.296 310.588 19.296 309.748C19.296 308.922 19.926 308.432 21.102 308.432C22.306 308.432 23.09 308.922 23.09 310.14V310.448H24.686V310.14C24.686 308.054 23.16 307.004 21.102 307.004ZM25.3692 311.344H27.2312V315.572C27.2312 316.44 27.7912 317 28.6312 317H30.5772V315.74H29.1632C28.9112 315.74 28.7712 315.6 28.7712 315.32V311.344H30.7872V310.098H28.7712V307.844H27.2312V310.098H25.3692V311.344ZM38.6668 317V310.098H37.1408V313.64C37.1408 315.054 36.3988 315.852 35.2508 315.852C34.2288 315.852 33.6268 315.306 33.6268 314.158V310.098H32.0868V314.242C32.0868 315.992 33.2068 317.112 34.7888 317.112C36.1048 317.112 36.7208 316.538 37.0288 315.922H37.1688V317H38.6668ZM47.1753 307.2H45.6353V311.064H45.4953C45.1033 310.476 44.4033 309.902 43.1292 309.902C41.4353 309.902 39.9653 311.302 39.9653 313.542C39.9653 315.796 41.4353 317.196 43.1292 317.196C44.4033 317.196 45.1033 316.622 45.5233 315.978H45.6633V317H47.1753V307.2ZM43.5773 311.218C44.7813 311.218 45.6633 312.086 45.6633 313.542C45.6633 314.998 44.7813 315.866 43.5773 315.866C42.3733 315.866 41.5053 315.012 41.5053 313.542C41.5053 312.086 42.3733 311.218 43.5773 311.218ZM48.4692 313.514C48.4692 315.684 49.8972 317.196 51.9972 317.196C53.9012 317.196 54.7132 316.104 55.1192 315.376L53.8452 314.69C53.5652 315.292 53.0752 315.866 52.0252 315.866C50.9192 315.866 50.1072 315.096 50.0512 314.032H55.2872V313.402C55.2872 311.288 53.9432 309.888 51.9412 309.888C49.9112 309.888 48.4692 311.358 48.4692 313.514ZM50.0652 312.842C50.1912 311.876 50.8632 311.218 51.9272 311.218C52.9492 311.218 53.6352 311.848 53.7192 312.842H50.0652ZM56.5321 310.098V317H58.0581V313.458C58.0581 312.03 58.8001 311.232 59.9481 311.232C60.9701 311.232 61.5721 311.778 61.5721 312.94V317H63.1121V312.856C63.1121 311.092 61.9921 309.972 60.4101 309.972C59.0941 309.972 58.4781 310.56 58.1701 311.162H58.0301V310.098H56.5321ZM63.8418 311.344H65.7038V315.572C65.7038 316.44 66.2638 317 67.1038 317H69.0498V315.74H67.6358C67.3838 315.74 67.2438 315.6 67.2438 315.32V311.344H69.2598V310.098H67.2438V307.844H65.7038V310.098H63.8418V311.344ZM69.975 313.514C69.975 315.684 71.403 317.196 73.503 317.196C75.407 317.196 76.219 316.104 76.625 315.376L75.351 314.69C75.071 315.292 74.581 315.866 73.531 315.866C72.425 315.866 71.613 315.096 71.557 314.032H76.793V313.402C76.793 311.288 75.449 309.888 73.447 309.888C71.417 309.888 69.975 311.358 69.975 313.514ZM71.571 312.842C71.697 311.876 72.369 311.218 73.433 311.218C74.455 311.218 75.141 311.848 75.225 312.842H71.571Z" fill="#24262F"/>
<path id="Imprenditore" d="M17.882 405.2V415H19.506V405.2H17.882ZM21.2586 408.098V415H22.7846V410.856C22.7846 409.806 23.3306 409.232 24.1986 409.232C24.9966 409.232 25.4586 409.694 25.4586 410.492V415H26.9986V410.856C26.9986 409.806 27.5446 409.232 28.4126 409.232C29.1966 409.232 29.6726 409.694 29.6726 410.492V415H31.2126V410.408C31.2126 408.812 30.1906 407.972 28.8886 407.972C27.7686 407.972 27.2086 408.476 26.8586 409.12H26.7186C26.3966 408.434 25.7946 407.972 24.7726 407.972C23.7506 407.972 23.1906 408.406 22.8966 408.966H22.7566V408.098H21.2586ZM32.8524 417.8H34.3784V414.02H34.5184C34.9104 414.622 35.6104 415.196 36.8844 415.196C38.5784 415.196 40.0484 413.796 40.0484 411.542C40.0484 409.302 38.5784 407.902 36.8844 407.902C35.6104 407.902 34.9104 408.476 34.4904 409.106H34.3504V408.098H32.8524V417.8ZM36.4364 413.866C35.2464 413.866 34.3644 412.998 34.3644 411.542C34.3644 410.086 35.2464 409.218 36.4364 409.218C37.6404 409.218 38.5084 410.086 38.5084 411.542C38.5084 413.012 37.6404 413.866 36.4364 413.866ZM42.8543 408.098H41.3563V415H42.8823V410.912C42.8823 409.862 43.5403 409.372 44.4643 409.372H45.5283V408.07H44.7303C43.8343 408.07 43.2743 408.336 42.9943 409.05H42.8543V408.098ZM45.8715 411.514C45.8715 413.684 47.2995 415.196 49.3995 415.196C51.3035 415.196 52.1155 414.104 52.5215 413.376L51.2475 412.69C50.9675 413.292 50.4775 413.866 49.4275 413.866C48.3215 413.866 47.5095 413.096 47.4535 412.032H52.6895V411.402C52.6895 409.288 51.3455 407.888 49.3435 407.888C47.3135 407.888 45.8715 409.358 45.8715 411.514ZM47.4675 410.842C47.5935 409.876 48.2655 409.218 49.3295 409.218C50.3515 409.218 51.0375 409.848 51.1215 410.842H47.4675ZM53.9344 408.098V415H55.4604V411.458C55.4604 410.03 56.2024 409.232 57.3504 409.232C58.3724 409.232 58.9744 409.778 58.9744 410.94V415H60.5144V410.856C60.5144 409.092 59.3944 407.972 57.8124 407.972C56.4964 407.972 55.8804 408.56 55.5724 409.162H55.4324V408.098H53.9344ZM68.9409 405.2H67.4009V409.064H67.2609C66.8689 408.476 66.1689 407.902 64.8949 407.902C63.2009 407.902 61.7309 409.302 61.7309 411.542C61.7309 413.796 63.2009 415.196 64.8949 415.196C66.1689 415.196 66.8689 414.622 67.2889 413.978H67.4289V415H68.9409V405.2ZM65.3429 409.218C66.5469 409.218 67.4289 410.086 67.4289 411.542C67.4289 412.998 66.5469 413.866 65.3429 413.866C64.1389 413.866 63.2709 413.012 63.2709 411.542C63.2709 410.086 64.1389 409.218 65.3429 409.218ZM70.2908 406.04C70.2908 406.684 70.7808 407.132 71.4248 407.132C72.0688 407.132 72.5588 406.684 72.5588 406.04C72.5588 405.382 72.0688 404.934 71.4248 404.934C70.7808 404.934 70.2908 405.382 70.2908 406.04ZM72.1948 408.098H70.6688V415H72.1948V408.098ZM73.1524 409.344H75.0144V413.572C75.0144 414.44 75.5744 415 76.4144 415H78.3604V413.74H76.9464C76.6944 413.74 76.5544 413.6 76.5544 413.32V409.344H78.5704V408.098H76.5544V405.844H75.0144V408.098H73.1524V409.344ZM79.2856 411.542C79.2856 413.782 80.8116 415.196 82.8836 415.196C84.9556 415.196 86.4676 413.782 86.4676 411.542C86.4676 409.316 84.9556 407.902 82.8836 407.902C80.8116 407.902 79.2856 409.316 79.2856 411.542ZM80.8256 411.542C80.8256 410.128 81.6656 409.246 82.8836 409.246C84.0876 409.246 84.9276 410.114 84.9276 411.542C84.9276 412.97 84.0876 413.852 82.8836 413.852C81.6656 413.852 80.8256 412.984 80.8256 411.542ZM89.2703 408.098H87.7723V415H89.2983V410.912C89.2983 409.862 89.9563 409.372 90.8803 409.372H91.9443V408.07H91.1463C90.2503 408.07 89.6903 408.336 89.4103 409.05H89.2703V408.098ZM92.2875 411.514C92.2875 413.684 93.7155 415.196 95.8155 415.196C97.7195 415.196 98.5315 414.104 98.9375 413.376L97.6635 412.69C97.3835 413.292 96.8935 413.866 95.8435 413.866C94.7375 413.866 93.9255 413.096 93.8695 412.032H99.1055V411.402C99.1055 409.288 97.7615 407.888 95.7595 407.888C93.7295 407.888 92.2875 409.358 92.2875 411.514ZM93.8835 410.842C94.0095 409.876 94.6815 409.218 95.7455 409.218C96.7675 409.218 97.4535 409.848 97.5375 410.842H93.8835Z" fill="#24262F"/>
<path id="Operaio" d="M17.518 457.938V460.262C17.518 462.796 19.072 464.196 21.494 464.196C23.916 464.196 25.456 462.796 25.456 460.262V457.938C25.456 455.404 23.916 454.004 21.494 454.004C19.072 454.004 17.518 455.404 17.518 457.938ZM19.142 457.882C19.142 456.398 20.01 455.446 21.494 455.446C22.964 455.446 23.832 456.398 23.832 457.882V460.318C23.832 461.802 22.964 462.754 21.494 462.754C20.01 462.754 19.142 461.802 19.142 460.318V457.882ZM26.8368 466.8H28.3628V463.02H28.5028C28.8948 463.622 29.5948 464.196 30.8688 464.196C32.5628 464.196 34.0328 462.796 34.0328 460.542C34.0328 458.302 32.5628 456.902 30.8688 456.902C29.5948 456.902 28.8948 457.476 28.4748 458.106H28.3348V457.098H26.8368V466.8ZM30.4208 462.866C29.2308 462.866 28.3488 461.998 28.3488 460.542C28.3488 459.086 29.2308 458.218 30.4208 458.218C31.6248 458.218 32.4928 459.086 32.4928 460.542C32.4928 462.012 31.6248 462.866 30.4208 462.866ZM34.9067 460.514C34.9067 462.684 36.3347 464.196 38.4347 464.196C40.3387 464.196 41.1507 463.104 41.5567 462.376L40.2827 461.69C40.0027 462.292 39.5127 462.866 38.4627 462.866C37.3567 462.866 36.5447 462.096 36.4887 461.032H41.7247V460.402C41.7247 458.288 40.3807 456.888 38.3787 456.888C36.3487 456.888 34.9067 458.358 34.9067 460.514ZM36.5027 459.842C36.6287 458.876 37.3007 458.218 38.3647 458.218C39.3867 458.218 40.0727 458.848 40.1567 459.842H36.5027ZM44.4676 457.098H42.9696V464H44.4956V459.912C44.4956 458.862 45.1536 458.372 46.0776 458.372H47.1416V457.07H46.3436C45.4476 457.07 44.8876 457.336 44.6076 458.05H44.4676V457.098ZM47.9705 458.89L49.3985 459.366C49.5385 458.652 50.0285 458.134 50.9945 458.134C51.9605 458.134 52.4225 458.68 52.4225 459.422V459.842H50.3785C48.8385 459.842 47.7325 460.57 47.7325 461.998C47.7325 463.398 48.8385 464.196 50.2665 464.196C51.5825 464.196 52.0725 463.51 52.2685 463.132H52.4505V464H53.9205V459.534C53.9205 457.84 52.8005 456.888 51.0085 456.888C49.2305 456.888 48.3065 457.812 47.9705 458.89ZM49.2725 461.956C49.2725 461.382 49.7345 461.032 50.4765 461.032H52.4225V461.158C52.4225 462.25 51.6525 462.936 50.5605 462.936C49.7345 462.936 49.2725 462.544 49.2725 461.956ZM55.1834 455.04C55.1834 455.684 55.6734 456.132 56.3174 456.132C56.9614 456.132 57.4514 455.684 57.4514 455.04C57.4514 454.382 56.9614 453.934 56.3174 453.934C55.6734 453.934 55.1834 454.382 55.1834 455.04ZM57.0874 457.098H55.5614V464H57.0874V457.098ZM58.3949 460.542C58.3949 462.782 59.9209 464.196 61.9929 464.196C64.0649 464.196 65.5769 462.782 65.5769 460.542C65.5769 458.316 64.0649 456.902 61.9929 456.902C59.9209 456.902 58.3949 458.316 58.3949 460.542ZM59.9349 460.542C59.9349 459.128 60.7749 458.246 61.9929 458.246C63.1969 458.246 64.0369 459.114 64.0369 460.542C64.0369 461.97 63.1969 462.852 61.9929 462.852C60.7749 462.852 59.9349 461.984 59.9349 460.542Z" fill="#24262F"/>
<path id="Altro" d="M19.968 503.2L17.084 513H18.75L19.408 510.718H23.048L23.706 513H25.358L22.474 503.2H19.968ZM19.8 509.248L21.158 504.558H21.298L22.642 509.248H19.8ZM27.8295 503.2H26.3035V513H27.8295V503.2ZM28.7871 507.344H30.6491V511.572C30.6491 512.44 31.2091 513 32.0491 513H33.9951V511.74H32.5811C32.3291 511.74 32.1891 511.6 32.1891 511.32V507.344H34.2051V506.098H32.1891V503.844H30.6491V506.098H28.7871V507.344ZM37.0027 506.098H35.5047V513H37.0307V508.912C37.0307 507.862 37.6887 507.372 38.6127 507.372H39.6767V506.07H38.8787C37.9827 506.07 37.4227 506.336 37.1427 507.05H37.0027V506.098ZM40.0199 509.542C40.0199 511.782 41.5459 513.196 43.6179 513.196C45.6899 513.196 47.2019 511.782 47.2019 509.542C47.2019 507.316 45.6899 505.902 43.6179 505.902C41.5459 505.902 40.0199 507.316 40.0199 509.542ZM41.5599 509.542C41.5599 508.128 42.3999 507.246 43.6179 507.246C44.8219 507.246 45.6619 508.114 45.6619 509.542C45.6619 510.97 44.8219 511.852 43.6179 511.852C42.3999 511.852 41.5599 510.984 41.5599 509.542Z" fill="#24262F"/>
<path id="Dipendente&#226;&#128;&#168;pubblico" d="M17.882 348.2V358H21.102C23.72 358 25.134 356.67 25.134 354.01V352.19C25.134 349.53 23.72 348.2 21.102 348.2H17.882ZM19.506 349.67H21.116C22.74 349.67 23.524 350.51 23.524 352.134V354.066C23.524 355.69 22.754 356.53 21.116 356.53H19.506V349.67ZM26.158 349.04C26.158 349.684 26.648 350.132 27.292 350.132C27.936 350.132 28.426 349.684 28.426 349.04C28.426 348.382 27.936 347.934 27.292 347.934C26.648 347.934 26.158 348.382 26.158 349.04ZM28.062 351.098H26.536V358H28.062V351.098ZM29.8035 360.8H31.3295V357.02H31.4695C31.8615 357.622 32.5615 358.196 33.8355 358.196C35.5295 358.196 36.9995 356.796 36.9995 354.542C36.9995 352.302 35.5295 350.902 33.8355 350.902C32.5615 350.902 31.8615 351.476 31.4415 352.106H31.3015V351.098H29.8035V360.8ZM33.3875 356.866C32.1975 356.866 31.3155 355.998 31.3155 354.542C31.3155 353.086 32.1975 352.218 33.3875 352.218C34.5915 352.218 35.4595 353.086 35.4595 354.542C35.4595 356.012 34.5915 356.866 33.3875 356.866ZM37.8735 354.514C37.8735 356.684 39.3015 358.196 41.4015 358.196C43.3055 358.196 44.1175 357.104 44.5235 356.376L43.2495 355.69C42.9695 356.292 42.4795 356.866 41.4295 356.866C40.3235 356.866 39.5115 356.096 39.4555 355.032H44.6915V354.402C44.6915 352.288 43.3475 350.888 41.3455 350.888C39.3155 350.888 37.8735 352.358 37.8735 354.514ZM39.4695 353.842C39.5955 352.876 40.2675 352.218 41.3315 352.218C42.3535 352.218 43.0395 352.848 43.1235 353.842H39.4695ZM45.9364 351.098V358H47.4624V354.458C47.4624 353.03 48.2044 352.232 49.3524 352.232C50.3744 352.232 50.9764 352.778 50.9764 353.94V358H52.5164V353.856C52.5164 352.092 51.3964 350.972 49.8144 350.972C48.4984 350.972 47.8824 351.56 47.5744 352.162H47.4344V351.098H45.9364ZM60.9428 348.2H59.4028V352.064H59.2628C58.8708 351.476 58.1708 350.902 56.8968 350.902C55.2028 350.902 53.7328 352.302 53.7328 354.542C53.7328 356.796 55.2028 358.196 56.8968 358.196C58.1708 358.196 58.8708 357.622 59.2908 356.978H59.4308V358H60.9428V348.2ZM57.3448 352.218C58.5488 352.218 59.4308 353.086 59.4308 354.542C59.4308 355.998 58.5488 356.866 57.3448 356.866C56.1408 356.866 55.2728 356.012 55.2728 354.542C55.2728 353.086 56.1408 352.218 57.3448 352.218ZM62.2367 354.514C62.2367 356.684 63.6647 358.196 65.7647 358.196C67.6687 358.196 68.4807 357.104 68.8867 356.376L67.6127 355.69C67.3327 356.292 66.8427 356.866 65.7927 356.866C64.6867 356.866 63.8747 356.096 63.8187 355.032H69.0547V354.402C69.0547 352.288 67.7107 350.888 65.7087 350.888C63.6787 350.888 62.2367 352.358 62.2367 354.514ZM63.8327 353.842C63.9587 352.876 64.6307 352.218 65.6947 352.218C66.7167 352.218 67.4027 352.848 67.4867 353.842H63.8327ZM70.2996 351.098V358H71.8256V354.458C71.8256 353.03 72.5676 352.232 73.7156 352.232C74.7376 352.232 75.3396 352.778 75.3396 353.94V358H76.8796V353.856C76.8796 352.092 75.7596 350.972 74.1776 350.972C72.8616 350.972 72.2456 351.56 71.9376 352.162H71.7976V351.098H70.2996ZM77.6094 352.344H79.4714V356.572C79.4714 357.44 80.0314 358 80.8714 358H82.8174V356.74H81.4034C81.1514 356.74 81.0114 356.6 81.0114 356.32V352.344H83.0274V351.098H81.0114V348.844H79.4714V351.098H77.6094V352.344ZM83.7426 354.514C83.7426 356.684 85.1706 358.196 87.2706 358.196C89.1746 358.196 89.9866 357.104 90.3926 356.376L89.1186 355.69C88.8386 356.292 88.3486 356.866 87.2986 356.866C86.1926 356.866 85.3806 356.096 85.3246 355.032H90.5606V354.402C90.5606 352.288 89.2166 350.888 87.2146 350.888C85.1846 350.888 83.7426 352.358 83.7426 354.514ZM85.3386 353.842C85.4646 352.876 86.1366 352.218 87.2006 352.218C88.2226 352.218 88.9086 352.848 88.9926 353.842H85.3386ZM17.868 376.8H19.394V373.02H19.534C19.926 373.622 20.626 374.196 21.9 374.196C23.594 374.196 25.064 372.796 25.064 370.542C25.064 368.302 23.594 366.902 21.9 366.902C20.626 366.902 19.926 367.476 19.506 368.106H19.366V367.098H17.868V376.8ZM21.452 372.866C20.262 372.866 19.38 371.998 19.38 370.542C19.38 369.086 20.262 368.218 21.452 368.218C22.656 368.218 23.524 369.086 23.524 370.542C23.524 372.012 22.656 372.866 21.452 372.866ZM32.9519 374V367.098H31.4259V370.64C31.4259 372.054 30.6839 372.852 29.5359 372.852C28.5139 372.852 27.9119 372.306 27.9119 371.158V367.098H26.3719V371.242C26.3719 372.992 27.4919 374.112 29.0739 374.112C30.3899 374.112 31.0059 373.538 31.3139 372.922H31.4539V374H32.9519ZM34.6844 364.2V374H36.1824V372.978H36.3224C36.7424 373.622 37.4424 374.196 38.7164 374.196C40.4104 374.196 41.8804 372.796 41.8804 370.542C41.8804 368.302 40.4104 366.902 38.7164 366.902C37.4424 366.902 36.7424 367.476 36.3504 368.064H36.2104V364.2H34.6844ZM38.2684 368.218C39.4724 368.218 40.3404 369.086 40.3404 370.542C40.3404 372.012 39.4724 372.866 38.2684 372.866C37.0784 372.866 36.1964 371.998 36.1964 370.542C36.1964 369.086 37.0784 368.218 38.2684 368.218ZM43.1883 364.2V374H44.6863V372.978H44.8263C45.2463 373.622 45.9463 374.196 47.2203 374.196C48.9143 374.196 50.3843 372.796 50.3843 370.542C50.3843 368.302 48.9143 366.902 47.2203 366.902C45.9463 366.902 45.2463 367.476 44.8543 368.064H44.7143V364.2H43.1883ZM46.7723 368.218C47.9763 368.218 48.8443 369.086 48.8443 370.542C48.8443 372.012 47.9763 372.866 46.7723 372.866C45.5823 372.866 44.7003 371.998 44.7003 370.542C44.7003 369.086 45.5823 368.218 46.7723 368.218ZM53.2182 364.2H51.6922V374H53.2182V364.2ZM54.5818 365.04C54.5818 365.684 55.0718 366.132 55.7158 366.132C56.3598 366.132 56.8498 365.684 56.8498 365.04C56.8498 364.382 56.3598 363.934 55.7158 363.934C55.0718 363.934 54.5818 364.382 54.5818 365.04ZM56.4858 367.098H54.9598V374H56.4858V367.098ZM57.7934 370.542C57.7934 372.684 59.3754 374.196 61.3914 374.196C63.2954 374.196 64.4294 373.062 64.7934 371.55L63.2954 371.2C63.1414 372.166 62.5534 372.852 61.4054 372.852C60.2294 372.852 59.3334 371.97 59.3334 370.542C59.3334 369.128 60.2294 368.246 61.4054 368.246C62.5254 368.246 63.1414 368.946 63.2534 369.87L64.7374 369.562C64.4574 368.036 63.2814 366.902 61.3774 366.902C59.3754 366.902 57.7934 368.4 57.7934 370.542ZM65.6 370.542C65.6 372.782 67.126 374.196 69.198 374.196C71.27 374.196 72.782 372.782 72.782 370.542C72.782 368.316 71.27 366.902 69.198 366.902C67.126 366.902 65.6 368.316 65.6 370.542ZM67.14 370.542C67.14 369.128 67.98 368.246 69.198 368.246C70.402 368.246 71.242 369.114 71.242 370.542C71.242 371.97 70.402 372.852 69.198 372.852C67.98 372.852 67.14 371.984 67.14 370.542Z" fill="#24262F"/>
<rect id="Rectangle 129" x="104" y="44" width="257" height="48" fill="#1880FF"/>
<rect id="Rectangle 131" x="104" y="93" width="64" height="48" fill="#1880FF"/>
<rect id="Rectangle 133" x="104" y="142" width="41" height="48" fill="#1880FF"/>
<rect id="Rectangle 134" x="104" y="191" width="53" height="48" fill="#1880FF"/>
<rect id="Rectangle 137" x="104" y="240" width="41" height="48" fill="#1880FF"/>
<rect id="Rectangle 139" x="104" y="289" width="41" height="48" fill="#1880FF"/>
<rect id="Rectangle 143" x="104" y="387" width="12" height="48" fill="#1880FF"/>
<rect id="Rectangle 145" x="104" y="436" width="6" height="48" fill="#1880FF"/>
<rect id="Rectangle 147" x="104" y="485" width="36" height="48" fill="#1880FF"/>
<rect id="Rectangle 141" x="104" y="338" width="36" height="48" fill="#1880FF"/>
<path id="11%" d="M181.618 111.2L179.028 115.568H180.75L182.304 112.922H182.472V121H184.096V111.2H181.618ZM187.593 111.2L185.003 115.568H186.725L188.279 112.922H188.447V121H190.071V111.2H187.593ZM196.815 114.546L197.627 115.148L200.441 111.928L199.181 110.99L196.815 114.546ZM191.523 113.244V113.51C191.523 114.882 192.377 115.708 193.805 115.708C195.247 115.708 196.087 114.882 196.087 113.51V113.244C196.087 111.872 195.205 111.032 193.805 111.032C192.377 111.032 191.523 111.872 191.523 113.244ZM192.811 113.174C192.811 112.516 193.147 112.096 193.805 112.096C194.463 112.096 194.799 112.516 194.799 113.174V113.566C194.799 114.224 194.463 114.644 193.805 114.644C193.147 114.644 192.811 114.224 192.811 113.566V113.174ZM196.507 118.704V118.97C196.507 120.342 197.361 121.168 198.803 121.168C200.231 121.168 201.085 120.342 201.085 118.97V118.704C201.085 117.332 200.189 116.492 198.803 116.492C197.361 116.492 196.507 117.332 196.507 118.704ZM195.737 117.626L194.925 117.024L192.111 120.244L193.371 121.196L195.737 117.626ZM197.809 118.634C197.809 117.976 198.145 117.556 198.803 117.556C199.461 117.556 199.797 117.976 199.797 118.634V119.026C199.797 119.684 199.461 120.104 198.803 120.104C198.145 120.104 197.809 119.684 197.809 119.026V118.634Z" fill="#24262F"/>
<path id="7%" d="M156.098 160.2V161.67H161.516L157.61 170H159.416L163.35 161.614V160.2H156.098ZM169.317 163.546L170.129 164.148L172.943 160.928L171.683 159.99L169.317 163.546ZM164.025 162.244V162.51C164.025 163.882 164.879 164.708 166.307 164.708C167.749 164.708 168.589 163.882 168.589 162.51V162.244C168.589 160.872 167.707 160.032 166.307 160.032C164.879 160.032 164.025 160.872 164.025 162.244ZM165.313 162.174C165.313 161.516 165.649 161.096 166.307 161.096C166.965 161.096 167.301 161.516 167.301 162.174V162.566C167.301 163.224 166.965 163.644 166.307 163.644C165.649 163.644 165.313 163.224 165.313 162.566V162.174ZM169.009 167.704V167.97C169.009 169.342 169.863 170.168 171.305 170.168C172.733 170.168 173.587 169.342 173.587 167.97V167.704C173.587 166.332 172.691 165.492 171.305 165.492C169.863 165.492 169.009 166.332 169.009 167.704ZM168.239 166.626L167.427 166.024L164.613 169.244L165.873 170.196L168.239 166.626ZM170.311 167.634C170.311 166.976 170.647 166.556 171.305 166.556C171.963 166.556 172.299 166.976 172.299 167.634V168.026C172.299 168.684 171.963 169.104 171.305 169.104C170.647 169.104 170.311 168.684 170.311 168.026V167.634Z" fill="#24262F"/>
<path id="9%" d="M168.392 212.406C168.392 214.296 169.736 215.64 171.528 215.64C172.872 215.64 173.474 215.01 173.74 214.604H173.908V215.808C173.908 217.04 173.166 217.74 171.892 217.74C170.702 217.74 170.114 217.04 170.114 216.102H168.476C168.476 217.978 169.834 219.182 171.892 219.182C174.006 219.182 175.518 217.95 175.518 215.696V212.28C175.518 210.334 174.006 208.976 171.976 209.004C169.904 209.032 168.392 210.376 168.392 212.406ZM171.962 214.366C170.8 214.366 170.002 213.596 170.002 212.406C170.002 211.216 170.814 210.446 171.962 210.446C173.096 210.446 173.908 211.188 173.908 212.406C173.908 213.596 173.11 214.366 171.962 214.366ZM181.905 212.546L182.717 213.148L185.531 209.928L184.271 208.99L181.905 212.546ZM176.613 211.244V211.51C176.613 212.882 177.467 213.708 178.895 213.708C180.337 213.708 181.177 212.882 181.177 211.51V211.244C181.177 209.872 180.295 209.032 178.895 209.032C177.467 209.032 176.613 209.872 176.613 211.244ZM177.901 211.174C177.901 210.516 178.237 210.096 178.895 210.096C179.553 210.096 179.889 210.516 179.889 211.174V211.566C179.889 212.224 179.553 212.644 178.895 212.644C178.237 212.644 177.901 212.224 177.901 211.566V211.174ZM181.597 216.704V216.97C181.597 218.342 182.451 219.168 183.893 219.168C185.321 219.168 186.175 218.342 186.175 216.97V216.704C186.175 215.332 185.279 214.492 183.893 214.492C182.451 214.492 181.597 215.332 181.597 216.704ZM180.827 215.626L180.015 215.024L177.201 218.244L178.461 219.196L180.827 215.626ZM182.899 216.634C182.899 215.976 183.235 215.556 183.893 215.556C184.551 215.556 184.887 215.976 184.887 216.634V217.026C184.887 217.684 184.551 218.104 183.893 218.104C183.235 218.104 182.899 217.684 182.899 217.026V216.634Z" fill="#24262F"/>
<path id="7%_2" d="M156.098 258.2V259.67H161.516L157.61 268H159.416L163.35 259.614V258.2H156.098ZM169.317 261.546L170.129 262.148L172.943 258.928L171.683 257.99L169.317 261.546ZM164.025 260.244V260.51C164.025 261.882 164.879 262.708 166.307 262.708C167.749 262.708 168.589 261.882 168.589 260.51V260.244C168.589 258.872 167.707 258.032 166.307 258.032C164.879 258.032 164.025 258.872 164.025 260.244ZM165.313 260.174C165.313 259.516 165.649 259.096 166.307 259.096C166.965 259.096 167.301 259.516 167.301 260.174V260.566C167.301 261.224 166.965 261.644 166.307 261.644C165.649 261.644 165.313 261.224 165.313 260.566V260.174ZM169.009 265.704V265.97C169.009 267.342 169.863 268.168 171.305 268.168C172.733 268.168 173.587 267.342 173.587 265.97V265.704C173.587 264.332 172.691 263.492 171.305 263.492C169.863 263.492 169.009 264.332 169.009 265.704ZM168.239 264.626L167.427 264.024L164.613 267.244L165.873 268.196L168.239 264.626ZM170.311 265.634C170.311 264.976 170.647 264.556 171.305 264.556C171.963 264.556 172.299 264.976 172.299 265.634V266.026C172.299 266.684 171.963 267.104 171.305 267.104C170.647 267.104 170.311 266.684 170.311 266.026V265.634Z" fill="#24262F"/>
<path id="7%_3" d="M156.098 307.2V308.67H161.516L157.61 317H159.416L163.35 308.614V307.2H156.098ZM169.317 310.546L170.129 311.148L172.943 307.928L171.683 306.99L169.317 310.546ZM164.025 309.244V309.51C164.025 310.882 164.879 311.708 166.307 311.708C167.749 311.708 168.589 310.882 168.589 309.51V309.244C168.589 307.872 167.707 307.032 166.307 307.032C164.879 307.032 164.025 307.872 164.025 309.244ZM165.313 309.174C165.313 308.516 165.649 308.096 166.307 308.096C166.965 308.096 167.301 308.516 167.301 309.174V309.566C167.301 310.224 166.965 310.644 166.307 310.644C165.649 310.644 165.313 310.224 165.313 309.566V309.174ZM169.009 314.704V314.97C169.009 316.342 169.863 317.168 171.305 317.168C172.733 317.168 173.587 316.342 173.587 314.97V314.704C173.587 313.332 172.691 312.492 171.305 312.492C169.863 312.492 169.009 313.332 169.009 314.704ZM168.239 313.626L167.427 313.024L164.613 316.244L165.873 317.196L168.239 313.626ZM170.311 314.634C170.311 313.976 170.647 313.556 171.305 313.556C171.963 313.556 172.299 313.976 172.299 314.634V315.026C172.299 315.684 171.963 316.104 171.305 316.104C170.647 316.104 170.311 315.684 170.311 315.026V314.634Z" fill="#24262F"/>
<path id="6%" d="M158.644 362.78C158.644 360.89 157.3 359.546 155.522 359.546C154.164 359.546 153.562 360.176 153.31 360.582H153.142V359.378C153.142 358.146 153.87 357.446 155.144 357.446C156.334 357.446 156.922 358.132 156.922 359.084H158.56C158.56 357.208 157.202 356.004 155.144 356.004C153.044 356.004 151.518 357.236 151.518 359.49V362.906C151.518 364.852 153.044 366.21 155.06 366.182C157.146 366.168 158.644 364.81 158.644 362.78ZM155.088 360.82C156.25 360.82 157.034 361.59 157.034 362.78C157.034 363.97 156.222 364.74 155.088 364.74C153.954 364.74 153.142 363.998 153.142 362.78C153.142 361.59 153.926 360.82 155.088 360.82ZM164.891 359.546L165.703 360.148L168.517 356.928L167.257 355.99L164.891 359.546ZM159.599 358.244V358.51C159.599 359.882 160.453 360.708 161.881 360.708C163.323 360.708 164.163 359.882 164.163 358.51V358.244C164.163 356.872 163.281 356.032 161.881 356.032C160.453 356.032 159.599 356.872 159.599 358.244ZM160.887 358.174C160.887 357.516 161.223 357.096 161.881 357.096C162.539 357.096 162.875 357.516 162.875 358.174V358.566C162.875 359.224 162.539 359.644 161.881 359.644C161.223 359.644 160.887 359.224 160.887 358.566V358.174ZM164.583 363.704V363.97C164.583 365.342 165.437 366.168 166.879 366.168C168.307 366.168 169.161 365.342 169.161 363.97V363.704C169.161 362.332 168.265 361.492 166.879 361.492C165.437 361.492 164.583 362.332 164.583 363.704ZM163.813 362.626L163.001 362.024L160.187 365.244L161.447 366.196L163.813 362.626ZM165.885 363.634C165.885 362.976 166.221 362.556 166.879 362.556C167.537 362.556 167.873 362.976 167.873 363.634V364.026C167.873 364.684 167.537 365.104 166.879 365.104C166.221 365.104 165.885 364.684 165.885 364.026V363.634Z" fill="#24262F"/>
<path id="2%" d="M128.476 408.448V408.784H130.086V408.476C130.086 407.104 130.996 406.446 132.13 406.446C133.236 406.446 133.978 407.09 133.978 408.182C133.978 409.386 133.11 409.918 131.626 410.31C129.778 410.786 128.49 411.626 128.49 413.474V415H135.56V413.53H130.114V413.334C130.114 412.242 130.926 411.934 132.396 411.556C134.44 411.038 135.602 410.128 135.602 408.224C135.602 406.236 134.02 405.004 132.102 405.004C130.128 405.004 128.476 406.194 128.476 408.448ZM141.878 408.546L142.69 409.148L145.504 405.928L144.244 404.99L141.878 408.546ZM136.586 407.244V407.51C136.586 408.882 137.44 409.708 138.868 409.708C140.31 409.708 141.15 408.882 141.15 407.51V407.244C141.15 405.872 140.268 405.032 138.868 405.032C137.44 405.032 136.586 405.872 136.586 407.244ZM137.874 407.174C137.874 406.516 138.21 406.096 138.868 406.096C139.526 406.096 139.862 406.516 139.862 407.174V407.566C139.862 408.224 139.526 408.644 138.868 408.644C138.21 408.644 137.874 408.224 137.874 407.566V407.174ZM141.57 412.704V412.97C141.57 414.342 142.424 415.168 143.866 415.168C145.294 415.168 146.148 414.342 146.148 412.97V412.704C146.148 411.332 145.252 410.492 143.866 410.492C142.424 410.492 141.57 411.332 141.57 412.704ZM140.8 411.626L139.988 411.024L137.174 414.244L138.434 415.196L140.8 411.626ZM142.872 412.634C142.872 411.976 143.208 411.556 143.866 411.556C144.524 411.556 144.86 411.976 144.86 412.634V413.026C144.86 413.684 144.524 414.104 143.866 414.104C143.208 414.104 142.872 413.684 142.872 413.026V412.634Z" fill="#24262F"/>
<path id="1%" d="M124.618 453.2L122.028 457.568H123.75L125.304 454.922H125.472V463H127.096V453.2H124.618ZM133.841 456.546L134.653 457.148L137.467 453.928L136.207 452.99L133.841 456.546ZM128.549 455.244V455.51C128.549 456.882 129.403 457.708 130.831 457.708C132.273 457.708 133.113 456.882 133.113 455.51V455.244C133.113 453.872 132.231 453.032 130.831 453.032C129.403 453.032 128.549 453.872 128.549 455.244ZM129.837 455.174C129.837 454.516 130.173 454.096 130.831 454.096C131.489 454.096 131.825 454.516 131.825 455.174V455.566C131.825 456.224 131.489 456.644 130.831 456.644C130.173 456.644 129.837 456.224 129.837 455.566V455.174ZM133.533 460.704V460.97C133.533 462.342 134.387 463.168 135.829 463.168C137.257 463.168 138.111 462.342 138.111 460.97V460.704C138.111 459.332 137.215 458.492 135.829 458.492C134.387 458.492 133.533 459.332 133.533 460.704ZM132.763 459.626L131.951 459.024L129.137 462.244L130.397 463.196L132.763 459.626ZM134.835 460.634C134.835 459.976 135.171 459.556 135.829 459.556C136.487 459.556 136.823 459.976 136.823 460.634V461.026C136.823 461.684 136.487 462.104 135.829 462.104C135.171 462.104 134.835 461.684 134.835 461.026V460.634Z" fill="#24262F"/>
<path id="6%_2" d="M158.644 509.78C158.644 507.89 157.3 506.546 155.522 506.546C154.164 506.546 153.562 507.176 153.31 507.582H153.142V506.378C153.142 505.146 153.87 504.446 155.144 504.446C156.334 504.446 156.922 505.132 156.922 506.084H158.56C158.56 504.208 157.202 503.004 155.144 503.004C153.044 503.004 151.518 504.236 151.518 506.49V509.906C151.518 511.852 153.044 513.21 155.06 513.182C157.146 513.168 158.644 511.81 158.644 509.78ZM155.088 507.82C156.25 507.82 157.034 508.59 157.034 509.78C157.034 510.97 156.222 511.74 155.088 511.74C153.954 511.74 153.142 510.998 153.142 509.78C153.142 508.59 153.926 507.82 155.088 507.82ZM164.891 506.546L165.703 507.148L168.517 503.928L167.257 502.99L164.891 506.546ZM159.599 505.244V505.51C159.599 506.882 160.453 507.708 161.881 507.708C163.323 507.708 164.163 506.882 164.163 505.51V505.244C164.163 503.872 163.281 503.032 161.881 503.032C160.453 503.032 159.599 503.872 159.599 505.244ZM160.887 505.174C160.887 504.516 161.223 504.096 161.881 504.096C162.539 504.096 162.875 504.516 162.875 505.174V505.566C162.875 506.224 162.539 506.644 161.881 506.644C161.223 506.644 160.887 506.224 160.887 505.566V505.174ZM164.583 510.704V510.97C164.583 512.342 165.437 513.168 166.879 513.168C168.307 513.168 169.161 512.342 169.161 510.97V510.704C169.161 509.332 168.265 508.492 166.879 508.492C165.437 508.492 164.583 509.332 164.583 510.704ZM163.813 509.626L163.001 509.024L160.187 512.244L161.447 513.196L163.813 509.626ZM165.885 510.634C165.885 509.976 166.221 509.556 166.879 509.556C167.537 509.556 167.873 509.976 167.873 510.634V511.026C167.873 511.684 167.537 512.104 166.879 512.104C166.221 512.104 165.885 511.684 165.885 511.026V510.634Z" fill="#24262F"/>
<path id="44%" d="M329.596 62.2L325.55 68.64V70.054H330.52V72H332.144V70.054H333.768V68.584H332.144V62.2H329.596ZM330.352 63.614H330.52V68.584H327.244L330.352 63.614ZM338.031 62.2L333.985 68.64V70.054H338.955V72H340.579V70.054H342.203V68.584H340.579V62.2H338.031ZM338.787 63.614H338.955V68.584H335.679L338.787 63.614ZM348.161 65.546L348.973 66.148L351.787 62.928L350.527 61.99L348.161 65.546ZM342.869 64.244V64.51C342.869 65.882 343.723 66.708 345.151 66.708C346.593 66.708 347.433 65.882 347.433 64.51V64.244C347.433 62.872 346.551 62.032 345.151 62.032C343.723 62.032 342.869 62.872 342.869 64.244ZM344.157 64.174C344.157 63.516 344.493 63.096 345.151 63.096C345.809 63.096 346.145 63.516 346.145 64.174V64.566C346.145 65.224 345.809 65.644 345.151 65.644C344.493 65.644 344.157 65.224 344.157 64.566V64.174ZM347.853 69.704V69.97C347.853 71.342 348.707 72.168 350.149 72.168C351.577 72.168 352.431 71.342 352.431 69.97V69.704C352.431 68.332 351.535 67.492 350.149 67.492C348.707 67.492 347.853 68.332 347.853 69.704ZM347.083 68.626L346.271 68.024L343.457 71.244L344.717 72.196L347.083 68.626ZM349.155 69.634C349.155 68.976 349.491 68.556 350.149 68.556C350.807 68.556 351.143 68.976 351.143 69.634V70.026C351.143 70.684 350.807 71.104 350.149 71.104C349.491 71.104 349.155 70.684 349.155 70.026V69.634Z" fill="white"/>
</g>
</svg>
