<svg width="927" height="517" viewBox="0 0 927 517" fill="none" xmlns="http://www.w3.org/2000/svg">
<path d="M97.072 135.076L97.072 128.968L98.152 128.968L98.152 133.852L100.828 133.852L100.828 129.784L101.872 129.784L101.872 133.852L106 133.852L106 135.076L97.072 135.076ZM106.18 125.498C106.18 125.986 106.092 126.426 105.916 126.818C105.74 127.202 105.5 127.53 105.196 127.802C104.884 128.074 104.524 128.286 104.116 128.438C103.7 128.582 103.256 128.654 102.784 128.654C102.32 128.654 101.884 128.582 101.476 128.438C101.06 128.286 100.7 128.074 100.396 127.802C100.084 127.53 99.84 127.202 99.664 126.818C99.488 126.426 99.4 125.986 99.4 125.498C99.4 125.01 99.488 124.574 99.664 124.19C99.84 123.806 100.084 123.478 100.396 123.206C100.7 122.934 101.06 122.726 101.476 122.582C101.884 122.438 102.32 122.366 102.784 122.366C103.256 122.366 103.7 122.438 104.116 122.582C104.524 122.726 104.884 122.934 105.196 123.206C105.5 123.478 105.74 123.806 105.916 124.19C106.092 124.574 106.18 125.01 106.18 125.498ZM105.268 125.51C105.268 125.182 105.204 124.894 105.076 124.646C104.948 124.39 104.772 124.178 104.548 124.01C104.324 123.842 104.064 123.718 103.768 123.638C103.464 123.55 103.136 123.506 102.784 123.506C102.44 123.506 102.116 123.55 101.812 123.638C101.508 123.718 101.244 123.842 101.02 124.01C100.788 124.178 100.608 124.39 100.48 124.646C100.352 124.894 100.288 125.182 100.288 125.51C100.288 125.838 100.352 126.13 100.48 126.386C100.608 126.634 100.788 126.842 101.02 127.01C101.244 127.178 101.508 127.306 101.812 127.394C102.116 127.474 102.44 127.514 102.784 127.514C103.136 127.514 103.464 127.474 103.768 127.394C104.064 127.306 104.324 127.178 104.548 127.01C104.772 126.842 104.948 126.634 105.076 126.386C105.204 126.13 105.268 125.838 105.268 125.51ZM100.468 120.077L100.468 120.041C100.14 119.809 99.88 119.529 99.688 119.201C99.496 118.873 99.4 118.473 99.4 118.001C99.4 117.321 99.58 116.789 99.94 116.405C100.3 116.021 100.82 115.829 101.5 115.829L106 115.829L106 116.933L101.632 116.933C101.216 116.933 100.896 117.061 100.672 117.317C100.448 117.565 100.336 117.909 100.336 118.349C100.336 118.597 100.38 118.829 100.468 119.045C100.548 119.253 100.664 119.433 100.816 119.585C100.968 119.737 101.152 119.857 101.368 119.945C101.584 120.025 101.82 120.065 102.076 120.065L106 120.065L106 121.181L99.556 121.181L99.556 120.077L100.468 120.077ZM99.556 114.839L99.556 113.831L97.528 113.831L97.528 112.727L99.556 112.727L99.556 111.395L100.42 111.395L100.42 112.727L104.488 112.727C104.72 112.727 104.88 112.671 104.968 112.559C105.048 112.439 105.088 112.275 105.088 112.067C105.088 111.971 105.08 111.871 105.064 111.767C105.04 111.655 105.02 111.567 105.004 111.503L105.004 111.467L105.94 111.467C106.012 111.771 106.048 112.071 106.048 112.367C106.04 112.799 105.94 113.151 105.748 113.423C105.548 113.695 105.212 113.831 104.74 113.831L100.42 113.831L100.42 114.839L99.556 114.839ZM106.18 107.498C106.18 107.994 106.092 108.438 105.916 108.83C105.74 109.214 105.5 109.542 105.196 109.814C104.884 110.086 104.524 110.294 104.116 110.438C103.7 110.574 103.256 110.642 102.784 110.642C102.32 110.642 101.884 110.57 101.476 110.426C101.06 110.274 100.7 110.066 100.396 109.802C100.084 109.53 99.84 109.206 99.664 108.83C99.488 108.446 99.4 108.022 99.4 107.558C99.4 107.078 99.488 106.654 99.664 106.286C99.84 105.918 100.084 105.606 100.396 105.35C100.716 105.086 101.1 104.89 101.548 104.762C101.996 104.626 102.496 104.558 103.048 104.558L103.048 109.502C103.36 109.478 103.652 109.418 103.924 109.322C104.196 109.226 104.432 109.094 104.632 108.926C104.832 108.758 104.988 108.554 105.1 108.314C105.212 108.074 105.268 107.798 105.268 107.486C105.268 107.038 105.172 106.67 104.98 106.382C104.78 106.086 104.508 105.886 104.164 105.782L104.164 104.69C104.764 104.834 105.252 105.154 105.628 105.65C105.996 106.138 106.18 106.754 106.18 107.498ZM100.264 107.558C100.264 107.846 100.316 108.102 100.42 108.326C100.516 108.55 100.652 108.742 100.828 108.902C101.004 109.062 101.212 109.19 101.452 109.286C101.692 109.382 101.956 109.446 102.244 109.478L102.244 105.746C101.62 105.778 101.136 105.95 100.792 106.262C100.44 106.566 100.264 106.998 100.264 107.558ZM100.888 103.453L100.888 102.157L102.208 102.157L102.208 103.453L100.888 103.453ZM104.68 103.453L104.68 102.157L106 102.157L106 103.453L104.68 103.453ZM97.072 94.7971L97.072 93.4291L106 90.1411L106 91.4851L103.396 92.3731L103.396 95.8891L106 96.8011L106 98.0611L97.072 94.7971ZM102.436 95.5531L102.436 92.6971L99.94 93.5491C99.724 93.6291 99.504 93.7011 99.28 93.7651C99.056 93.8291 98.852 93.8851 98.668 93.9331C98.46 93.9891 98.252 94.0411 98.044 94.0891L98.044 94.1251C98.252 94.1811 98.464 94.2371 98.68 94.2931C98.864 94.3491 99.068 94.4091 99.292 94.4731C99.516 94.5371 99.732 94.6051 99.94 94.6771L102.436 95.5531ZM100.468 88.0382L100.468 88.0022C100.14 87.7702 99.88 87.4902 99.688 87.1622C99.496 86.8342 99.4 86.4342 99.4 85.9622C99.4 85.2822 99.58 84.7502 99.94 84.3662C100.3 83.9822 100.82 83.7902 101.5 83.7902L106 83.7902L106 84.8942L101.632 84.8942C101.216 84.8942 100.896 85.0222 100.672 85.2782C100.448 85.5262 100.336 85.8702 100.336 86.3102C100.336 86.5582 100.38 86.7902 100.468 87.0062C100.548 87.2142 100.664 87.3942 100.816 87.5462C100.968 87.6982 101.152 87.8182 101.368 87.9062C101.584 87.9862 101.82 88.0262 102.076 88.0262L106 88.0262L106 89.1422L99.556 89.1422L99.556 88.0382L100.468 88.0382ZM97.072 82.3107L97.072 81.1467L98.368 81.1467L98.368 82.3107L97.072 82.3107ZM99.556 82.2867L99.556 81.1707L106 81.1707L106 82.2867L99.556 82.2867ZM99.556 80.0342L99.556 79.0262L97.528 79.0262L97.528 77.9222L99.556 77.9222L99.556 76.5902L100.42 76.5902L100.42 77.9222L104.488 77.9222C104.72 77.9222 104.88 77.8662 104.968 77.7542C105.048 77.6342 105.088 77.4702 105.088 77.2622C105.088 77.1662 105.08 77.0662 105.064 76.9622C105.04 76.8502 105.02 76.7622 105.004 76.6982L105.004 76.6622L105.94 76.6622C106.012 76.9662 106.048 77.2662 106.048 77.5622C106.04 77.9942 105.94 78.3462 105.748 78.6182C105.548 78.8902 105.212 79.0262 104.74 79.0262L100.42 79.0262L100.42 80.0342L99.556 80.0342ZM106.18 72.6938C106.18 73.1898 106.092 73.6338 105.916 74.0258C105.74 74.4098 105.5 74.7378 105.196 75.0098C104.884 75.2818 104.524 75.4898 104.116 75.6338C103.7 75.7698 103.256 75.8378 102.784 75.8378C102.32 75.8378 101.884 75.7658 101.476 75.6218C101.06 75.4698 100.7 75.2618 100.396 74.9978C100.084 74.7258 99.84 74.4018 99.664 74.0258C99.488 73.6418 99.4 73.2178 99.4 72.7538C99.4 72.2738 99.488 71.8498 99.664 71.4818C99.84 71.1138 100.084 70.8018 100.396 70.5458C100.716 70.2818 101.1 70.0858 101.548 69.9578C101.996 69.8218 102.496 69.7538 103.048 69.7538L103.048 74.6978C103.36 74.6738 103.652 74.6138 103.924 74.5178C104.196 74.4218 104.432 74.2898 104.632 74.1218C104.832 73.9538 104.988 73.7498 105.1 73.5098C105.212 73.2698 105.268 72.9938 105.268 72.6818C105.268 72.2338 105.172 71.8658 104.98 71.5778C104.78 71.2818 104.508 71.0818 104.164 70.9778L104.164 69.8858C104.764 70.0298 105.252 70.3498 105.628 70.8458C105.996 71.3338 106.18 71.9498 106.18 72.6938ZM100.264 72.7538C100.264 73.0418 100.316 73.2978 100.42 73.5218C100.516 73.7458 100.652 73.9378 100.828 74.0978C101.004 74.2578 101.212 74.3858 101.452 74.4818C101.692 74.5778 101.956 74.6418 102.244 74.6738L102.244 70.9418C101.62 70.9738 101.136 71.1458 100.792 71.4578C100.44 71.7618 100.264 72.1938 100.264 72.7538ZM106.18 65.768C106.18 66.248 106.092 66.684 105.916 67.076C105.74 67.46 105.5 67.788 105.196 68.06C104.884 68.332 104.524 68.544 104.116 68.696C103.7 68.84 103.256 68.912 102.784 68.912C102.32 68.912 101.884 68.84 101.476 68.696C101.06 68.544 100.7 68.332 100.396 68.06C100.084 67.788 99.84 67.46 99.664 67.076C99.488 66.684 99.4 66.248 99.4 65.768C99.4 64.992 99.604 64.364 100.012 63.884C100.412 63.396 100.96 63.096 101.656 62.984L101.656 64.1C101.232 64.18 100.9 64.36 100.66 64.64C100.42 64.92 100.3 65.296 100.3 65.768C100.3 66.096 100.364 66.388 100.492 66.644C100.62 66.892 100.796 67.1 101.02 67.268C101.244 67.436 101.508 67.564 101.812 67.652C102.116 67.732 102.44 67.772 102.784 67.772C103.136 67.772 103.464 67.732 103.768 67.652C104.064 67.564 104.324 67.436 104.548 67.268C104.772 67.1 104.948 66.892 105.076 66.644C105.204 66.388 105.268 66.096 105.268 65.768C105.268 65.264 105.132 64.868 104.86 64.58C104.58 64.284 104.2 64.116 103.72 64.076L103.72 62.972C104.496 63.044 105.1 63.324 105.532 63.812C105.964 64.292 106.18 64.944 106.18 65.768ZM102.34 62.6172L102.34 56.6172L103.3 56.6172L103.3 62.6172L102.34 62.6172ZM97.072 53.3596L97.072 51.9916L106 48.7036L106 50.0476L103.396 50.9356L103.396 54.4516L106 55.3636L106 56.6236L97.072 53.3596ZM102.436 54.1156L102.436 51.2596L99.94 52.1116C99.724 52.1916 99.504 52.2636 99.28 52.3276C99.056 52.3916 98.852 52.4476 98.668 52.4956C98.46 52.5516 98.252 52.6036 98.044 52.6516L98.044 52.6876C98.252 52.7436 98.464 52.7996 98.68 52.8556C98.864 52.9116 99.068 52.9716 99.292 53.0356C99.516 53.0996 99.732 53.1676 99.94 53.2396L102.436 54.1156ZM106.192 45.2912C106.192 46.1872 106 46.8792 105.616 47.3672C105.224 47.8552 104.7 48.1232 104.044 48.1712L104.044 47.0432C104.276 47.0112 104.472 46.9432 104.632 46.8392C104.792 46.7352 104.92 46.6072 105.016 46.4552C105.112 46.2952 105.184 46.1152 105.232 45.9152C105.272 45.7152 105.292 45.4992 105.292 45.2672C105.292 44.7552 105.196 44.3872 105.004 44.1632C104.804 43.9312 104.56 43.8152 104.272 43.8152C103.92 43.8152 103.676 43.9552 103.54 44.2352C103.396 44.5072 103.268 44.9272 103.156 45.4952C103.092 45.8072 103.02 46.1112 102.94 46.4072C102.86 46.6952 102.752 46.9512 102.616 47.1752C102.48 47.3912 102.3 47.5672 102.076 47.7032C101.852 47.8312 101.564 47.8952 101.212 47.8952C100.66 47.8952 100.224 47.6912 99.904 47.2832C99.576 46.8672 99.412 46.2832 99.412 45.5312C99.412 44.7232 99.584 44.1112 99.928 43.6952C100.272 43.2792 100.724 43.0352 101.284 42.9632L101.284 44.0792C100.948 44.1272 100.692 44.2712 100.516 44.5112C100.34 44.7432 100.252 45.0912 100.252 45.5552C100.252 45.9952 100.34 46.3152 100.516 46.5152C100.692 46.7072 100.904 46.8032 101.152 46.8032C101.32 46.8032 101.46 46.7672 101.572 46.6952C101.676 46.6152 101.764 46.5032 101.836 46.3592C101.908 46.2072 101.968 46.0272 102.016 45.8192C102.064 45.6032 102.116 45.3592 102.172 45.0872C102.236 44.7672 102.308 44.4632 102.388 44.1752C102.468 43.8872 102.58 43.6352 102.724 43.4192C102.868 43.1952 103.06 43.0192 103.3 42.8912C103.532 42.7632 103.836 42.6992 104.212 42.6992C104.54 42.6992 104.828 42.7632 105.076 42.8912C105.324 43.0192 105.532 43.1992 105.7 43.4312C105.86 43.6552 105.98 43.9272 106.06 44.2472C106.148 44.5672 106.192 44.9152 106.192 45.2912ZM106.192 39.0217C106.192 39.9177 106 40.6097 105.616 41.0977C105.224 41.5857 104.7 41.8537 104.044 41.9017L104.044 40.7737C104.276 40.7417 104.472 40.6737 104.632 40.5697C104.792 40.4657 104.92 40.3377 105.016 40.1857C105.112 40.0257 105.184 39.8457 105.232 39.6457C105.272 39.4457 105.292 39.2297 105.292 38.9977C105.292 38.4857 105.196 38.1177 105.004 37.8937C104.804 37.6617 104.56 37.5457 104.272 37.5457C103.92 37.5457 103.676 37.6857 103.54 37.9657C103.396 38.2377 103.268 38.6577 103.156 39.2257C103.092 39.5377 103.02 39.8417 102.94 40.1377C102.86 40.4257 102.752 40.6817 102.616 40.9057C102.48 41.1217 102.3 41.2977 102.076 41.4337C101.852 41.5617 101.564 41.6257 101.212 41.6257C100.66 41.6257 100.224 41.4217 99.904 41.0137C99.576 40.5977 99.412 40.0137 99.412 39.2617C99.412 38.4537 99.584 37.8417 99.928 37.4257C100.272 37.0097 100.724 36.7657 101.284 36.6937L101.284 37.8097C100.948 37.8577 100.692 38.0017 100.516 38.2417C100.34 38.4737 100.252 38.8217 100.252 39.2857C100.252 39.7257 100.34 40.0457 100.516 40.2457C100.692 40.4377 100.904 40.5337 101.152 40.5337C101.32 40.5337 101.46 40.4977 101.572 40.4257C101.676 40.3457 101.764 40.2337 101.836 40.0897C101.908 39.9377 101.968 39.7577 102.016 39.5497C102.064 39.3337 102.116 39.0897 102.172 38.8177C102.236 38.4977 102.308 38.1937 102.388 37.9057C102.468 37.6177 102.58 37.3657 102.724 37.1497C102.868 36.9257 103.06 36.7497 103.3 36.6217C103.532 36.4937 103.836 36.4297 104.212 36.4297C104.54 36.4297 104.828 36.4937 105.076 36.6217C105.324 36.7497 105.532 36.9297 105.7 37.1617C105.86 37.3857 105.98 37.6577 106.06 37.9777C106.148 38.2977 106.192 38.6457 106.192 39.0217ZM97.072 35.2482L97.072 34.0842L98.368 34.0842L98.368 35.2482L97.072 35.2482ZM99.556 35.2242L99.556 34.1082L106 34.1082L106 35.2242L99.556 35.2242ZM100.468 31.4717L100.468 31.4357C100.14 31.2037 99.88 30.9237 99.688 30.5957C99.496 30.2677 99.4 29.8677 99.4 29.3957C99.4 28.7157 99.58 28.1837 99.94 27.7997C100.3 27.4157 100.82 27.2237 101.5 27.2237L106 27.2237L106 28.3277L101.632 28.3277C101.216 28.3277 100.896 28.4557 100.672 28.7117C100.448 28.9597 100.336 29.3037 100.336 29.7437C100.336 29.9917 100.38 30.2237 100.468 30.4397C100.548 30.6477 100.664 30.8277 100.816 30.9797C100.968 31.1317 101.152 31.2517 101.368 31.3397C101.584 31.4197 101.82 31.4597 102.076 31.4597L106 31.4597L106 32.5757L99.556 32.5757L99.556 31.4717L100.468 31.4717ZM99.556 26.1749L99.556 25.1789L98.668 25.1789C98.076 25.1789 97.648 25.0269 97.384 24.7229C97.248 24.5629 97.152 24.3669 97.096 24.1349C97.04 23.8949 97.012 23.6189 97.012 23.3069C97.012 23.2189 97.016 23.1269 97.024 23.0309C97.024 22.9349 97.028 22.8349 97.036 22.7309L97.96 22.7309C97.944 22.9949 97.944 23.2149 97.96 23.3909C97.968 23.5589 98.004 23.6949 98.068 23.7989C98.124 23.8949 98.204 23.9629 98.308 24.0029C98.412 24.0429 98.548 24.0629 98.716 24.0629L99.556 24.0629L99.556 22.7429L100.432 22.7429L100.432 24.0629L106 24.0629L106 25.1789L100.432 25.1789L100.432 26.1749L99.556 26.1749ZM106.18 18.9513C106.18 19.4393 106.092 19.8793 105.916 20.2713C105.74 20.6553 105.5 20.9833 105.196 21.2553C104.884 21.5273 104.524 21.7393 104.116 21.8913C103.7 22.0353 103.256 22.1073 102.784 22.1073C102.32 22.1073 101.884 22.0353 101.476 21.8913C101.06 21.7393 100.7 21.5273 100.396 21.2553C100.084 20.9833 99.84 20.6553 99.664 20.2713C99.488 19.8793 99.4 19.4393 99.4 18.9513C99.4 18.4633 99.488 18.0273 99.664 17.6433C99.84 17.2593 100.084 16.9313 100.396 16.6593C100.7 16.3873 101.06 16.1793 101.476 16.0353C101.884 15.8913 102.32 15.8193 102.784 15.8193C103.256 15.8193 103.7 15.8913 104.116 16.0353C104.524 16.1793 104.884 16.3873 105.196 16.6593C105.5 16.9313 105.74 17.2593 105.916 17.6433C106.092 18.0273 106.18 18.4633 106.18 18.9513ZM105.268 18.9633C105.268 18.6353 105.204 18.3473 105.076 18.0993C104.948 17.8433 104.772 17.6313 104.548 17.4633C104.324 17.2953 104.064 17.1713 103.768 17.0913C103.464 17.0033 103.136 16.9593 102.784 16.9593C102.44 16.9593 102.116 17.0033 101.812 17.0913C101.508 17.1713 101.244 17.2953 101.02 17.4633C100.788 17.6313 100.608 17.8433 100.48 18.0993C100.352 18.3473 100.288 18.6353 100.288 18.9633C100.288 19.2913 100.352 19.5833 100.48 19.8393C100.608 20.0873 100.788 20.2953 101.02 20.4633C101.244 20.6313 101.508 20.7593 101.812 20.8473C102.116 20.9273 102.44 20.9673 102.784 20.9673C103.136 20.9673 103.464 20.9273 103.768 20.8473C104.064 20.7593 104.324 20.6313 104.548 20.4633C104.772 20.2953 104.948 20.0873 105.076 19.8393C105.204 19.5833 105.268 19.2913 105.268 18.9633ZM100.72 13.5303L100.72 13.4943C100.344 13.2943 100.044 13.0343 99.82 12.7143C99.588 12.3943 99.472 12.0183 99.472 11.5863C99.472 11.4983 99.48 11.4263 99.496 11.3703C99.504 11.3063 99.52 11.2423 99.544 11.1783L100.6 11.1783L100.6 11.2143C100.576 11.2943 100.56 11.3663 100.552 11.4303C100.544 11.4943 100.54 11.5743 100.54 11.6703C100.54 11.9183 100.588 12.1543 100.684 12.3783C100.772 12.6023 100.9 12.7983 101.068 12.9663C101.236 13.1343 101.44 13.2703 101.68 13.3743C101.92 13.4703 102.192 13.5183 102.496 13.5183L106 13.5183L106 14.6343L99.556 14.6343L99.556 13.5303L100.72 13.5303ZM99.556 10.0875L99.556 8.98347L100.516 8.98347L100.516 8.94747C100.164 8.74747 99.892 8.48347 99.7 8.15547C99.5 7.82747 99.4 7.45547 99.4 7.03947C99.4 6.64747 99.5 6.30747 99.7 6.01947C99.9 5.72347 100.2 5.50747 100.6 5.37147L100.6 5.34747C100.192 5.11547 99.892 4.82347 99.7 4.47147C99.5 4.11947 99.4 3.74747 99.4 3.35547C99.4 2.76347 99.58 2.28347 99.94 1.91547C100.3 1.54747 100.82 1.36347 101.5 1.36347L106 1.36347L106 2.47947L101.596 2.47947C101.196 2.47947 100.888 2.59147 100.672 2.81547C100.448 3.03947 100.336 3.31547 100.336 3.64347C100.336 3.85147 100.38 4.04747 100.468 4.23147C100.548 4.41547 100.664 4.57547 100.816 4.71147C100.968 4.84747 101.148 4.95947 101.356 5.04747C101.556 5.12747 101.78 5.16747 102.028 5.16747L106 5.16747L106 6.27147L101.596 6.27147C101.196 6.27147 100.888 6.37147 100.672 6.57147C100.448 6.77147 100.336 7.03947 100.336 7.37547C100.336 7.56747 100.38 7.75947 100.468 7.95147C100.548 8.14347 100.664 8.31547 100.816 8.46747C100.968 8.61147 101.148 8.73147 101.356 8.82747C101.556 8.92347 101.78 8.97147 102.028 8.97147L106 8.97147L106 10.0875L99.556 10.0875Z" fill="#131313"/>
<path d="M378 17C378 8.16343 385.163 1 394 1H604C612.837 1 620 8.16344 620 17V487H378V17Z" fill="url(#paint0_linear)"/>
<path d="M661 126C661 117.163 668.163 110 677 110H887C895.837 110 903 117.163 903 126V487H661V126Z" fill="url(#paint1_linear)"/>
<path d="M95 386C95 377.163 102.163 370 111 370H321C329.837 370 337 377.163 337 386V487H95V386Z" fill="url(#paint2_linear)"/>
<path d="M197.896 513C197.917 512.296 198.035 511.699 198.248 511.208C198.461 510.707 198.749 510.253 199.112 509.848C199.592 509.315 200.141 508.84 200.76 508.424C201.389 508.008 201.987 507.613 202.552 507.24C202.819 507.069 203.053 506.909 203.256 506.76C203.469 506.6 203.645 506.435 203.784 506.264C203.933 506.083 204.045 505.891 204.12 505.688C204.195 505.475 204.232 505.24 204.232 504.984C204.232 504.408 204.056 503.949 203.704 503.608C203.363 503.256 202.888 503.08 202.28 503.08C201.619 503.08 201.112 503.283 200.76 503.688C200.376 504.104 200.184 504.723 200.184 505.544H198.12C198.12 504.936 198.195 504.408 198.344 503.96C198.493 503.512 198.717 503.101 199.016 502.728C199.357 502.301 199.811 501.971 200.376 501.736C200.952 501.491 201.624 501.368 202.392 501.368C203.011 501.368 203.565 501.459 204.056 501.64C204.557 501.821 204.979 502.072 205.32 502.392C205.661 502.712 205.923 503.091 206.104 503.528C206.285 503.955 206.376 504.424 206.376 504.936C206.376 505.352 206.317 505.72 206.2 506.04C206.093 506.36 205.939 506.648 205.736 506.904C205.544 507.16 205.309 507.4 205.032 507.624C204.765 507.837 204.477 508.045 204.168 508.248C203.869 508.472 203.549 508.696 203.208 508.92C202.877 509.133 202.547 509.357 202.216 509.592C201.896 509.816 201.597 510.051 201.32 510.296C201.043 510.541 200.819 510.808 200.648 511.096V511.176H206.28V513H197.896ZM212.494 513.272C211.78 513.272 211.129 513.133 210.542 512.856C209.966 512.568 209.47 512.168 209.054 511.656C208.649 511.133 208.334 510.504 208.11 509.768C207.886 509.032 207.774 508.211 207.774 507.304C207.774 506.397 207.886 505.576 208.11 504.84C208.345 504.104 208.67 503.48 209.086 502.968C209.502 502.445 209.998 502.045 210.574 501.768C211.161 501.491 211.806 501.352 212.51 501.352C213.225 501.352 213.876 501.491 214.462 501.768C215.049 502.045 215.545 502.44 215.95 502.952C216.366 503.464 216.686 504.088 216.91 504.824C217.134 505.56 217.246 506.387 217.246 507.304C217.246 508.211 217.134 509.032 216.91 509.768C216.697 510.504 216.382 511.133 215.966 511.656C215.561 512.168 215.065 512.568 214.478 512.856C213.892 513.133 213.23 513.272 212.494 513.272ZM212.51 511.544C212.958 511.544 213.342 511.448 213.662 511.256C213.993 511.053 214.26 510.771 214.462 510.408C214.676 510.035 214.83 509.587 214.926 509.064C215.022 508.541 215.07 507.955 215.07 507.304C215.07 506.664 215.017 506.083 214.91 505.56C214.814 505.037 214.66 504.589 214.446 504.216C214.244 503.843 213.982 503.555 213.662 503.352C213.342 503.149 212.958 503.048 212.51 503.048C212.073 503.048 211.689 503.149 211.358 503.352C211.038 503.555 210.772 503.843 210.558 504.216C210.356 504.579 210.201 505.027 210.094 505.56C209.998 506.083 209.95 506.664 209.95 507.304C209.95 507.944 209.998 508.525 210.094 509.048C210.201 509.571 210.356 510.019 210.558 510.392C210.772 510.755 211.038 511.037 211.358 511.24C211.689 511.443 212.073 511.544 212.51 511.544ZM221.021 505.208H218.381V503.8C218.776 503.789 219.144 503.741 219.485 503.656C219.837 503.56 220.146 503.421 220.413 503.24C220.69 503.059 220.92 502.829 221.101 502.552C221.293 502.264 221.421 501.917 221.485 501.512H223.133V513H221.021V505.208ZM229.597 513.272C228.978 513.272 228.392 513.197 227.837 513.048C227.282 512.909 226.797 512.696 226.381 512.408C225.965 512.109 225.634 511.741 225.389 511.304C225.144 510.856 225.021 510.339 225.021 509.752C225.021 509.016 225.229 508.403 225.645 507.912C226.072 507.411 226.653 507.053 227.389 506.84V506.792C226.781 506.589 226.322 506.285 226.013 505.88C225.704 505.475 225.549 504.989 225.549 504.424C225.549 503.965 225.645 503.549 225.837 503.176C226.04 502.792 226.317 502.467 226.669 502.2C227.021 501.923 227.442 501.715 227.933 501.576C228.424 501.427 228.968 501.352 229.565 501.352C230.162 501.352 230.706 501.421 231.197 501.56C231.688 501.699 232.109 501.901 232.461 502.168C232.813 502.435 233.085 502.755 233.277 503.128C233.48 503.501 233.581 503.923 233.581 504.392C233.581 504.947 233.426 505.432 233.117 505.848C232.818 506.253 232.365 506.557 231.757 506.76V506.808C232.504 507 233.08 507.352 233.485 507.864C233.901 508.376 234.109 508.989 234.109 509.704C234.109 510.301 233.986 510.824 233.741 511.272C233.506 511.72 233.181 512.093 232.765 512.392C232.36 512.691 231.885 512.909 231.341 513.048C230.797 513.197 230.216 513.272 229.597 513.272ZM229.565 506.136C230.205 506.136 230.696 505.992 231.037 505.704C231.389 505.416 231.565 505.021 231.565 504.52C231.565 504.019 231.389 503.624 231.037 503.336C230.696 503.037 230.205 502.888 229.565 502.888C228.925 502.888 228.429 503.037 228.077 503.336C227.725 503.624 227.549 504.019 227.549 504.52C227.549 505.021 227.725 505.416 228.077 505.704C228.429 505.992 228.925 506.136 229.565 506.136ZM229.597 511.64C230.333 511.64 230.914 511.464 231.341 511.112C231.768 510.749 231.981 510.264 231.981 509.656C231.981 509.016 231.768 508.515 231.341 508.152C230.925 507.779 230.338 507.592 229.581 507.592C228.824 507.592 228.232 507.779 227.805 508.152C227.378 508.515 227.165 509.016 227.165 509.656C227.165 510.275 227.378 510.76 227.805 511.112C228.232 511.464 228.829 511.64 229.597 511.64Z" fill="#131313"/>
<path d="M480.873 513C480.894 512.296 481.011 511.699 481.225 511.208C481.438 510.707 481.726 510.253 482.089 509.848C482.569 509.315 483.118 508.84 483.737 508.424C484.366 508.008 484.963 507.613 485.529 507.24C485.795 507.069 486.03 506.909 486.233 506.76C486.446 506.6 486.622 506.435 486.761 506.264C486.91 506.083 487.022 505.891 487.097 505.688C487.171 505.475 487.209 505.24 487.209 504.984C487.209 504.408 487.033 503.949 486.681 503.608C486.339 503.256 485.865 503.08 485.257 503.08C484.595 503.08 484.089 503.283 483.737 503.688C483.353 504.104 483.161 504.723 483.161 505.544H481.097C481.097 504.936 481.171 504.408 481.321 503.96C481.47 503.512 481.694 503.101 481.993 502.728C482.334 502.301 482.787 501.971 483.353 501.736C483.929 501.491 484.601 501.368 485.369 501.368C485.987 501.368 486.542 501.459 487.033 501.64C487.534 501.821 487.955 502.072 488.297 502.392C488.638 502.712 488.899 503.091 489.081 503.528C489.262 503.955 489.352 504.424 489.352 504.936C489.352 505.352 489.294 505.72 489.177 506.04C489.07 506.36 488.915 506.648 488.713 506.904C488.521 507.16 488.286 507.4 488.009 507.624C487.742 507.837 487.454 508.045 487.145 508.248C486.846 508.472 486.526 508.696 486.185 508.92C485.854 509.133 485.523 509.357 485.193 509.592C484.873 509.816 484.574 510.051 484.297 510.296C484.019 510.541 483.795 510.808 483.625 511.096V511.176H489.257V513H480.873ZM495.471 513.272C494.756 513.272 494.106 513.133 493.519 512.856C492.943 512.568 492.447 512.168 492.031 511.656C491.626 511.133 491.311 510.504 491.087 509.768C490.863 509.032 490.751 508.211 490.751 507.304C490.751 506.397 490.863 505.576 491.087 504.84C491.322 504.104 491.647 503.48 492.063 502.968C492.479 502.445 492.975 502.045 493.551 501.768C494.138 501.491 494.783 501.352 495.487 501.352C496.202 501.352 496.852 501.491 497.439 501.768C498.026 502.045 498.522 502.44 498.927 502.952C499.343 503.464 499.663 504.088 499.887 504.824C500.111 505.56 500.223 506.387 500.223 507.304C500.223 508.211 500.111 509.032 499.887 509.768C499.674 510.504 499.359 511.133 498.943 511.656C498.538 512.168 498.042 512.568 497.455 512.856C496.868 513.133 496.207 513.272 495.471 513.272ZM495.487 511.544C495.935 511.544 496.319 511.448 496.639 511.256C496.97 511.053 497.236 510.771 497.439 510.408C497.652 510.035 497.807 509.587 497.903 509.064C497.999 508.541 498.047 507.955 498.047 507.304C498.047 506.664 497.994 506.083 497.887 505.56C497.791 505.037 497.636 504.589 497.423 504.216C497.22 503.843 496.959 503.555 496.639 503.352C496.319 503.149 495.935 503.048 495.487 503.048C495.05 503.048 494.666 503.149 494.335 503.352C494.015 503.555 493.748 503.843 493.535 504.216C493.332 504.579 493.178 505.027 493.071 505.56C492.975 506.083 492.927 506.664 492.927 507.304C492.927 507.944 492.975 508.525 493.071 509.048C493.178 509.571 493.332 510.019 493.535 510.392C493.748 510.755 494.015 511.037 494.335 511.24C494.666 511.443 495.05 511.544 495.487 511.544ZM503.998 505.208H501.358V503.8C501.752 503.789 502.12 503.741 502.462 503.656C502.814 503.56 503.123 503.421 503.39 503.24C503.667 503.059 503.896 502.829 504.078 502.552C504.27 502.264 504.398 501.917 504.462 501.512H506.11V513H503.998V505.208ZM512.446 513.272C511.859 513.272 511.32 513.192 510.83 513.032C510.35 512.872 509.934 512.659 509.582 512.392C509.23 512.115 508.947 511.789 508.734 511.416C508.52 511.043 508.387 510.648 508.334 510.232H510.398C510.43 510.413 510.494 510.589 510.59 510.76C510.696 510.931 510.83 511.085 510.99 511.224C511.16 511.363 511.358 511.475 511.582 511.56C511.816 511.635 512.088 511.672 512.398 511.672C513.198 511.672 513.806 511.384 514.222 510.808C514.467 510.499 514.648 510.099 514.766 509.608C514.894 509.107 514.974 508.504 515.006 507.8H514.974C514.622 508.259 514.206 508.621 513.726 508.888C513.256 509.144 512.702 509.272 512.062 509.272C511.507 509.272 510.984 509.176 510.494 508.984C510.014 508.781 509.592 508.504 509.23 508.152C508.878 507.8 508.595 507.384 508.382 506.904C508.179 506.424 508.078 505.896 508.078 505.32C508.078 504.755 508.184 504.232 508.398 503.752C508.611 503.261 508.91 502.84 509.294 502.488C509.678 502.136 510.131 501.859 510.654 501.656C511.176 501.453 511.747 501.352 512.366 501.352C512.984 501.352 513.539 501.443 514.03 501.624C514.531 501.805 514.968 502.051 515.342 502.36C515.939 502.851 516.36 503.501 516.606 504.312C516.862 505.112 516.99 506.104 516.99 507.288C516.99 508.344 516.878 509.283 516.654 510.104C516.43 510.915 516.062 511.576 515.55 512.088C515.176 512.472 514.734 512.765 514.222 512.968C513.71 513.171 513.118 513.272 512.446 513.272ZM512.398 507.656C513.123 507.656 513.704 507.443 514.142 507.016C514.579 506.579 514.798 506.008 514.798 505.304C514.798 504.963 514.734 504.648 514.606 504.36C514.488 504.072 514.323 503.827 514.11 503.624C513.896 503.411 513.64 503.251 513.342 503.144C513.054 503.027 512.744 502.968 512.414 502.968C512.062 502.968 511.742 503.027 511.454 503.144C511.166 503.261 510.915 503.427 510.702 503.64C510.499 503.843 510.339 504.088 510.222 504.376C510.115 504.653 510.062 504.963 510.062 505.304C510.062 505.645 510.12 505.96 510.238 506.248C510.355 506.536 510.515 506.787 510.718 507C510.931 507.203 511.176 507.363 511.454 507.48C511.742 507.597 512.056 507.656 512.398 507.656Z" fill="#131313"/>
<path d="M762.029 513C762.05 512.296 762.167 511.699 762.381 511.208C762.594 510.707 762.882 510.253 763.245 509.848C763.725 509.315 764.274 508.84 764.893 508.424C765.522 508.008 766.119 507.613 766.685 507.24C766.951 507.069 767.186 506.909 767.389 506.76C767.602 506.6 767.778 506.435 767.917 506.264C768.066 506.083 768.178 505.891 768.253 505.688C768.327 505.475 768.365 505.24 768.365 504.984C768.365 504.408 768.189 503.949 767.837 503.608C767.495 503.256 767.021 503.08 766.413 503.08C765.751 503.08 765.245 503.283 764.893 503.688C764.509 504.104 764.317 504.723 764.317 505.544H762.253C762.253 504.936 762.327 504.408 762.477 503.96C762.626 503.512 762.85 503.101 763.149 502.728C763.49 502.301 763.943 501.971 764.509 501.736C765.085 501.491 765.757 501.368 766.525 501.368C767.143 501.368 767.698 501.459 768.189 501.64C768.69 501.821 769.111 502.072 769.453 502.392C769.794 502.712 770.055 503.091 770.237 503.528C770.418 503.955 770.509 504.424 770.509 504.936C770.509 505.352 770.45 505.72 770.333 506.04C770.226 506.36 770.071 506.648 769.869 506.904C769.677 507.16 769.442 507.4 769.165 507.624C768.898 507.837 768.61 508.045 768.301 508.248C768.002 508.472 767.682 508.696 767.341 508.92C767.01 509.133 766.679 509.357 766.349 509.592C766.029 509.816 765.73 510.051 765.453 510.296C765.175 510.541 764.951 510.808 764.781 511.096V511.176H770.413V513H762.029ZM776.627 513.272C775.912 513.272 775.262 513.133 774.675 512.856C774.099 512.568 773.603 512.168 773.187 511.656C772.782 511.133 772.467 510.504 772.243 509.768C772.019 509.032 771.907 508.211 771.907 507.304C771.907 506.397 772.019 505.576 772.243 504.84C772.478 504.104 772.803 503.48 773.219 502.968C773.635 502.445 774.131 502.045 774.707 501.768C775.294 501.491 775.939 501.352 776.643 501.352C777.358 501.352 778.008 501.491 778.595 501.768C779.182 502.045 779.678 502.44 780.083 502.952C780.499 503.464 780.819 504.088 781.043 504.824C781.267 505.56 781.379 506.387 781.379 507.304C781.379 508.211 781.267 509.032 781.043 509.768C780.83 510.504 780.515 511.133 780.099 511.656C779.694 512.168 779.198 512.568 778.611 512.856C778.024 513.133 777.363 513.272 776.627 513.272ZM776.643 511.544C777.091 511.544 777.475 511.448 777.795 511.256C778.126 511.053 778.392 510.771 778.595 510.408C778.808 510.035 778.963 509.587 779.059 509.064C779.155 508.541 779.203 507.955 779.203 507.304C779.203 506.664 779.15 506.083 779.043 505.56C778.947 505.037 778.792 504.589 778.579 504.216C778.376 503.843 778.115 503.555 777.795 503.352C777.475 503.149 777.091 503.048 776.643 503.048C776.206 503.048 775.822 503.149 775.491 503.352C775.171 503.555 774.904 503.843 774.691 504.216C774.488 504.579 774.334 505.027 774.227 505.56C774.131 506.083 774.083 506.664 774.083 507.304C774.083 507.944 774.131 508.525 774.227 509.048C774.334 509.571 774.488 510.019 774.691 510.392C774.904 510.755 775.171 511.037 775.491 511.24C775.822 511.443 776.206 511.544 776.643 511.544ZM782.482 513C782.503 512.296 782.621 511.699 782.834 511.208C783.047 510.707 783.335 510.253 783.698 509.848C784.178 509.315 784.727 508.84 785.346 508.424C785.975 508.008 786.573 507.613 787.138 507.24C787.405 507.069 787.639 506.909 787.842 506.76C788.055 506.6 788.231 506.435 788.37 506.264C788.519 506.083 788.631 505.891 788.706 505.688C788.781 505.475 788.818 505.24 788.818 504.984C788.818 504.408 788.642 503.949 788.29 503.608C787.949 503.256 787.474 503.08 786.866 503.08C786.205 503.08 785.698 503.283 785.346 503.688C784.962 504.104 784.77 504.723 784.77 505.544H782.706C782.706 504.936 782.781 504.408 782.93 503.96C783.079 503.512 783.303 503.101 783.602 502.728C783.943 502.301 784.397 501.971 784.962 501.736C785.538 501.491 786.21 501.368 786.978 501.368C787.597 501.368 788.151 501.459 788.642 501.64C789.143 501.821 789.565 502.072 789.906 502.392C790.247 502.712 790.509 503.091 790.69 503.528C790.871 503.955 790.962 504.424 790.962 504.936C790.962 505.352 790.903 505.72 790.786 506.04C790.679 506.36 790.525 506.648 790.322 506.904C790.13 507.16 789.895 507.4 789.618 507.624C789.351 507.837 789.063 508.045 788.754 508.248C788.455 508.472 788.135 508.696 787.794 508.92C787.463 509.133 787.133 509.357 786.802 509.592C786.482 509.816 786.183 510.051 785.906 510.296C785.629 510.541 785.405 510.808 785.234 511.096V511.176H790.866V513H782.482ZM797.08 513.272C796.366 513.272 795.715 513.133 795.128 512.856C794.552 512.568 794.056 512.168 793.64 511.656C793.235 511.133 792.92 510.504 792.696 509.768C792.472 509.032 792.36 508.211 792.36 507.304C792.36 506.397 792.472 505.576 792.696 504.84C792.931 504.104 793.256 503.48 793.672 502.968C794.088 502.445 794.584 502.045 795.16 501.768C795.747 501.491 796.392 501.352 797.096 501.352C797.811 501.352 798.462 501.491 799.048 501.768C799.635 502.045 800.131 502.44 800.536 502.952C800.952 503.464 801.272 504.088 801.496 504.824C801.72 505.56 801.832 506.387 801.832 507.304C801.832 508.211 801.72 509.032 801.496 509.768C801.283 510.504 800.968 511.133 800.552 511.656C800.147 512.168 799.651 512.568 799.064 512.856C798.478 513.133 797.816 513.272 797.08 513.272ZM797.096 511.544C797.544 511.544 797.928 511.448 798.248 511.256C798.579 511.053 798.846 510.771 799.048 510.408C799.262 510.035 799.416 509.587 799.512 509.064C799.608 508.541 799.656 507.955 799.656 507.304C799.656 506.664 799.603 506.083 799.496 505.56C799.4 505.037 799.246 504.589 799.032 504.216C798.83 503.843 798.568 503.555 798.248 503.352C797.928 503.149 797.544 503.048 797.096 503.048C796.659 503.048 796.275 503.149 795.944 503.352C795.624 503.555 795.358 503.843 795.144 504.216C794.942 504.579 794.787 505.027 794.68 505.56C794.584 506.083 794.536 506.664 794.536 507.304C794.536 507.944 794.584 508.525 794.68 509.048C794.787 509.571 794.942 510.019 795.144 510.392C795.358 510.755 795.624 511.037 795.944 511.24C796.275 511.443 796.659 511.544 797.096 511.544Z" fill="#131313"/>
<path d="M2.48588 494C2.53921 492.987 2.69921 492.005 2.96588 491.056C3.24321 490.096 3.58988 489.2 4.00588 488.368C4.43254 487.536 4.90721 486.779 5.42988 486.096C5.95254 485.413 6.49121 484.837 7.04588 484.368V484.336C6.81121 484.357 6.56054 484.373 6.29388 484.384C6.06988 484.395 5.80854 484.405 5.50988 484.416C5.22188 484.416 4.92321 484.416 4.61388 484.416H0.901875L0.901875 482.608H9.10988V484.256C8.56588 484.768 8.03788 485.365 7.52588 486.048C7.01388 486.731 6.55521 487.488 6.14988 488.32C5.75521 489.141 5.42454 490.032 5.15788 490.992C4.90188 491.941 4.75254 492.944 4.70988 494H2.48588ZM14.5959 494.272C13.8812 494.272 13.2305 494.133 12.6439 493.856C12.0679 493.568 11.5719 493.168 11.1559 492.656C10.7505 492.133 10.4359 491.504 10.2119 490.768C9.98788 490.032 9.87588 489.211 9.87588 488.304C9.87588 487.397 9.98788 486.576 10.2119 485.84C10.4465 485.104 10.7719 484.48 11.1879 483.968C11.6039 483.445 12.0999 483.045 12.6759 482.768C13.2625 482.491 13.9079 482.352 14.6119 482.352C15.3265 482.352 15.9772 482.491 16.5639 482.768C17.1505 483.045 17.6465 483.44 18.0519 483.952C18.4679 484.464 18.7879 485.088 19.0119 485.824C19.2359 486.56 19.3479 487.387 19.3479 488.304C19.3479 489.211 19.2359 490.032 19.0119 490.768C18.7985 491.504 18.4839 492.133 18.0679 492.656C17.6625 493.168 17.1665 493.568 16.5799 493.856C15.9932 494.133 15.3319 494.272 14.5959 494.272ZM14.6119 492.544C15.0599 492.544 15.4439 492.448 15.7639 492.256C16.0945 492.053 16.3612 491.771 16.5639 491.408C16.7772 491.035 16.9319 490.587 17.0279 490.064C17.1239 489.541 17.1719 488.955 17.1719 488.304C17.1719 487.664 17.1185 487.083 17.0119 486.56C16.9159 486.037 16.7612 485.589 16.5479 485.216C16.3452 484.843 16.0839 484.555 15.7639 484.352C15.4439 484.149 15.0599 484.048 14.6119 484.048C14.1745 484.048 13.7905 484.149 13.4599 484.352C13.1399 484.555 12.8732 484.843 12.6599 485.216C12.4572 485.579 12.3025 486.027 12.1959 486.56C12.0999 487.083 12.0519 487.664 12.0519 488.304C12.0519 488.944 12.0999 489.525 12.1959 490.048C12.3025 490.571 12.4572 491.019 12.6599 491.392C12.8732 491.755 13.1399 492.037 13.4599 492.24C13.7905 492.443 14.1745 492.544 14.6119 492.544ZM21.1669 482.096H23.3749V484.848C23.3749 485.328 23.3642 485.792 23.3429 486.24C23.3322 486.688 23.3162 487.067 23.2949 487.376L28.3509 482.096H31.0389L26.3669 486.864L31.3749 494H28.7829L24.7829 488.288L23.3749 489.712V494H21.1669V482.096ZM36.62 482.096H39.548L41.5 487.76C41.6173 488.112 41.7347 488.517 41.852 488.976C41.9693 489.435 42.0813 489.872 42.188 490.288C42.3053 490.779 42.4227 491.269 42.54 491.76H42.588C42.6947 491.269 42.8067 490.779 42.924 490.288C43.02 489.883 43.1267 489.451 43.244 488.992C43.372 488.523 43.4947 488.112 43.612 487.76L45.532 482.096H48.524V494H46.46V487.792C46.46 487.472 46.4653 487.099 46.476 486.672C46.4867 486.245 46.5027 485.84 46.524 485.456C46.5453 485.008 46.572 484.549 46.604 484.08H46.572C46.476 484.507 46.3747 484.923 46.268 485.328C46.1827 485.68 46.0867 486.048 45.98 486.432C45.884 486.816 45.788 487.157 45.692 487.456L43.436 494H41.644L39.372 487.456C39.276 487.157 39.1747 486.816 39.068 486.432C38.9613 486.048 38.8653 485.68 38.78 485.328C38.6733 484.923 38.5773 484.507 38.492 484.08H38.46C38.4813 484.549 38.5027 485.008 38.524 485.456C38.5453 485.84 38.5613 486.245 38.572 486.672C38.5933 487.099 38.604 487.472 38.604 487.792V494H36.62V482.096ZM50.585 482.096H52.633V494H50.585V482.096ZM56.4901 486.704H56.5381C56.8155 486.224 57.1728 485.861 57.6101 485.616C58.0581 485.36 58.5861 485.232 59.1941 485.232C60.1221 485.232 60.8421 485.499 61.3541 486.032C61.8768 486.555 62.1381 487.28 62.1381 488.208V494H60.1061V488.544C60.1061 488.032 59.9621 487.632 59.6741 487.344C59.3968 487.056 58.9968 486.912 58.4741 486.912C58.1861 486.912 57.9248 486.965 57.6901 487.072C57.4555 487.168 57.2528 487.312 57.0821 487.504C56.9115 487.685 56.7781 487.904 56.6821 488.16C56.5861 488.416 56.5381 488.693 56.5381 488.992V494H54.5061V485.456H56.4901V486.704Z" fill="#131313"/>
<path d="M706.159 62.0059C706.159 64.215 704.368 66.0059 702.159 66.0059L654 66.0059C651.791 66.0059 650 64.215 650 62.0059L650 48.0059C650 45.7967 651.791 44.0059 654 44.0059L702.159 44.0059C704.368 44.0059 706.159 45.7967 706.159 48.0059L706.159 62.0059Z" fill="#131313"/>
<path d="M645 55.0059L650 50.0059L650 60.0059L645 55.0059Z" fill="#131313"/>
<path d="M658.159 57.06H665.159V55.534H658.159V57.06ZM673.446 60.238C676.022 60.238 677.604 58.194 677.604 55.016C677.604 51.796 675.98 49.808 673.46 49.808C670.982 49.808 669.316 51.824 669.316 55.016C669.316 58.194 670.94 60.238 673.446 60.238ZM673.46 58.726C671.92 58.726 671.22 57.256 671.22 55.016C671.22 52.762 671.92 51.292 673.46 51.292C675.014 51.292 675.7 52.776 675.7 55.016C675.7 57.284 675.042 58.726 673.46 58.726ZM678.642 62.366C679.79 62.24 680.574 61.512 680.574 59.986V58.054H678.628V60H679.538V60.084C679.538 60.938 679.174 61.344 678.642 61.498V62.366ZM685.641 60.238C687.727 60.238 689.323 58.74 689.309 56.738C689.295 54.764 687.755 53.294 685.879 53.294C684.731 53.294 683.905 53.77 683.303 54.694H683.275C683.359 52.44 684.073 51.194 685.655 51.194C686.635 51.194 687.125 51.81 687.237 52.384H689.029C688.791 51.026 687.671 49.808 685.627 49.808C684.269 49.808 683.303 50.284 682.603 51.152C681.861 52.09 681.511 53.434 681.525 55.016C681.525 56.794 681.889 58.124 682.771 59.062C683.429 59.79 684.381 60.238 685.641 60.238ZM685.585 58.824C684.395 58.824 683.471 57.97 683.471 56.766C683.471 55.548 684.325 54.722 685.571 54.722C686.705 54.722 687.573 55.562 687.573 56.78C687.573 57.97 686.719 58.824 685.585 58.824ZM692.832 55.604C694.302 55.604 695.324 54.47 695.324 52.706C695.324 50.914 694.288 49.808 692.832 49.808C691.39 49.808 690.326 50.942 690.326 52.706C690.326 54.47 691.376 55.604 692.832 55.604ZM692.888 60H694.064L699.622 50.032H698.432L692.888 60ZM699.664 60.238C701.148 60.238 702.184 59.09 702.184 57.326C702.184 55.548 701.134 54.428 699.664 54.428C698.236 54.428 697.158 55.562 697.158 57.326C697.158 59.09 698.208 60.238 699.664 60.238ZM692.832 54.526C692.118 54.526 691.782 53.756 691.782 52.706C691.782 51.628 692.118 50.858 692.832 50.858C693.546 50.858 693.91 51.656 693.91 52.706C693.91 53.77 693.56 54.526 692.832 54.526ZM699.678 59.146C698.964 59.146 698.614 58.376 698.614 57.326C698.614 56.262 698.964 55.478 699.678 55.478C700.364 55.478 700.742 56.276 700.742 57.326C700.742 58.39 700.406 59.146 699.678 59.146Z" fill="white"/>
<path d="M636.47 110.53C636.763 110.823 637.237 110.823 637.53 110.53L642.303 105.757C642.596 105.464 642.596 104.99 642.303 104.697C642.01 104.404 641.536 104.404 641.243 104.697L637 108.939L632.757 104.697C632.464 104.404 631.99 104.404 631.697 104.697C631.404 104.99 631.404 105.464 631.697 105.757L636.47 110.53ZM636.25 1L636.25 110L637.75 110L637.75 1L636.25 1Z" fill="#131313"/>
<path d="M292 179C292 176.791 293.791 175 296 175H344C346.209 175 348 176.791 348 179V193C348 195.209 346.209 197 344 197H296C293.791 197 292 195.209 292 193V179Z" fill="#131313"/>
<path d="M353 186L348 191L348 181L353 186Z" fill="#131313"/>
<path d="M298.812 186.94H301.472V189.74H302.984V186.94H305.644V185.526H302.984V182.726H301.472V185.526H298.812V186.94ZM310.48 191H317.816V189.404H312.888V189.334C313.49 188.326 314.932 187.64 315.968 186.842C317.06 186.114 317.9 185.414 317.9 183.944C317.9 182.166 316.598 180.822 314.414 180.822C313.084 180.822 312.062 181.27 311.46 182.012C310.942 182.656 310.676 183.412 310.676 184.476H312.482C312.482 183.762 312.636 183.23 312.986 182.852C313.294 182.502 313.728 182.32 314.316 182.32C315.38 182.32 316.024 182.992 316.024 183.986C316.024 184.896 315.478 185.372 314.554 185.96C313.574 186.604 312.384 187.304 311.544 188.242C310.914 188.956 310.522 189.782 310.48 191ZM319.139 193.366C320.287 193.24 321.071 192.512 321.071 190.986V189.054H319.125V191H320.035V191.084C320.035 191.938 319.671 192.344 319.139 192.498V193.366ZM323.318 191H325.166V180.948H323.724C323.5 182.362 322.38 182.908 321.008 182.95V184.182H323.318V191ZM329.31 186.604C330.78 186.604 331.802 185.47 331.802 183.706C331.802 181.914 330.766 180.808 329.31 180.808C327.868 180.808 326.804 181.942 326.804 183.706C326.804 185.47 327.854 186.604 329.31 186.604ZM329.366 191H330.542L336.1 181.032H334.91L329.366 191ZM336.142 191.238C337.626 191.238 338.662 190.09 338.662 188.326C338.662 186.548 337.612 185.428 336.142 185.428C334.714 185.428 333.636 186.562 333.636 188.326C333.636 190.09 334.686 191.238 336.142 191.238ZM329.31 185.526C328.596 185.526 328.26 184.756 328.26 183.706C328.26 182.628 328.596 181.858 329.31 181.858C330.024 181.858 330.388 182.656 330.388 183.706C330.388 184.77 330.038 185.526 329.31 185.526ZM336.156 190.146C335.442 190.146 335.092 189.376 335.092 188.326C335.092 187.262 335.442 186.478 336.156 186.478C336.842 186.478 337.22 187.276 337.22 188.326C337.22 189.39 336.884 190.146 336.156 190.146Z" fill="white"/>
<path d="M361.53 0.46967C361.237 0.176777 360.763 0.176777 360.47 0.46967L355.697 5.24264C355.404 5.53553 355.404 6.01041 355.697 6.3033C355.99 6.59619 356.464 6.59619 356.757 6.3033L361 2.06066L365.243 6.3033C365.536 6.59619 366.01 6.59619 366.303 6.3033C366.596 6.01041 366.596 5.53553 366.303 5.24264L361.53 0.46967ZM361.75 370L361.75 1L360.25 1L360.25 370L361.75 370Z" fill="#131313"/>
<rect x="78" y="487" width="849" height="2" fill="#131313"/>
<circle cx="75" cy="488" r="4" fill="#131313"/>
<path d="M185.275 394H187.499C187.675 389.776 189.723 386.288 191.899 384.256V382.608H183.691V384.416H187.403C188.651 384.416 189.835 384.336 189.835 384.336V384.368C187.627 386.24 185.483 389.936 185.275 394ZM197.385 394.272C200.329 394.272 202.137 391.936 202.137 388.304C202.137 384.624 200.281 382.352 197.401 382.352C194.569 382.352 192.665 384.656 192.665 388.304C192.665 391.936 194.521 394.272 197.385 394.272ZM197.401 392.544C195.641 392.544 194.841 390.864 194.841 388.304C194.841 385.728 195.641 384.048 197.401 384.048C199.177 384.048 199.961 385.744 199.961 388.304C199.961 390.896 199.209 392.544 197.401 392.544ZM203.307 394H205.531V391.776H203.307V394ZM212.262 394H214.31V391.328H216.07V389.744H214.31V382.48H212.39L206.838 389.456V391.328H212.262V394ZM208.342 389.824V389.792C208.342 389.792 209.158 388.928 209.622 388.368L211.254 386.304C211.718 385.712 212.31 384.768 212.31 384.768H212.342C212.342 384.768 212.262 385.84 212.262 386.48V389.744H210.006C209.366 389.744 208.342 389.824 208.342 389.824ZM218.134 394H220.358C220.534 389.776 222.582 386.288 224.758 384.256V382.608H216.55V384.416H220.262C221.51 384.416 222.694 384.336 222.694 384.336V384.368C220.486 386.24 218.342 389.936 218.134 394ZM230.081 394.272C232.433 394.272 234.385 393.088 234.385 390.768C234.385 389.264 233.601 388.304 232.097 387.888V387.856C233.249 387.472 234.017 386.752 234.017 385.52C234.017 383.536 232.305 382.352 230.017 382.352C227.329 382.352 225.777 383.92 225.745 386.032H227.745C227.777 384.896 228.529 383.952 229.969 383.952C231.105 383.952 231.937 384.576 231.937 385.6C231.937 386.64 231.153 387.248 229.729 387.248H229.073V388.768H229.777C231.345 388.768 232.241 389.392 232.241 390.608C232.241 391.904 231.361 392.592 230.001 392.592C228.337 392.592 227.473 391.648 227.409 390.272H225.393C225.409 391.504 225.889 392.56 226.753 393.264C227.585 393.92 228.689 394.272 230.081 394.272ZM239.487 387.744H240.303C240.287 387.936 240.287 388.128 240.287 388.32C240.287 388.544 240.287 388.752 240.303 388.96H239.487V389.952H240.431C240.959 392.624 242.767 394.256 245.183 394.256C247.711 394.256 249.231 392.496 249.343 390.192H247.343C247.199 391.52 246.495 392.512 245.167 392.512C243.807 392.512 242.943 391.616 242.623 389.952H245.535V388.96H242.495C242.479 388.752 242.479 388.544 242.479 388.32C242.479 388.128 242.479 387.936 242.495 387.744H245.535V386.752H242.607C242.895 385.104 243.695 384.064 245.055 384.064C246.255 384.064 246.927 384.816 247.151 386H249.215C248.991 383.888 247.519 382.352 245.103 382.352C242.671 382.352 240.911 384.112 240.431 386.752H239.487V387.744Z" fill="white"/>
<path d="M470.525 25H472.749C472.925 20.776 474.973 17.288 477.149 15.256V13.608H468.941V15.416H472.653C473.901 15.416 475.085 15.336 475.085 15.336V15.368C472.877 17.24 470.733 20.936 470.525 25ZM480.755 25H482.867V13.512H481.219C480.963 15.128 479.683 15.752 478.115 15.8V17.208H480.755V25ZM484.979 25H487.203V22.776H484.979V25ZM492.828 25.272C494.156 25.272 495.196 24.856 495.932 24.088C496.956 23.064 497.372 21.384 497.372 19.288C497.372 16.936 496.908 15.336 495.724 14.36C494.988 13.736 493.98 13.352 492.748 13.352C490.268 13.352 488.46 15.048 488.46 17.32C488.46 19.608 490.236 21.272 492.444 21.272C493.708 21.272 494.652 20.712 495.356 19.8H495.388C495.324 21.208 495.084 22.2 494.604 22.808C494.172 23.4 493.58 23.672 492.78 23.672C491.564 23.672 490.924 22.952 490.78 22.232H488.716C488.924 23.912 490.476 25.272 492.828 25.272ZM492.78 19.656C491.42 19.656 490.444 18.664 490.444 17.304C490.444 15.944 491.404 14.968 492.796 14.968C494.14 14.968 495.18 15.928 495.18 17.304C495.18 18.696 494.22 19.656 492.78 19.656ZM503.174 25.272C505.526 25.272 507.478 24.088 507.478 21.768C507.478 20.264 506.694 19.304 505.19 18.888V18.856C506.342 18.472 507.11 17.752 507.11 16.52C507.11 14.536 505.398 13.352 503.11 13.352C500.422 13.352 498.87 14.92 498.838 17.032H500.838C500.87 15.896 501.622 14.952 503.062 14.952C504.198 14.952 505.03 15.576 505.03 16.6C505.03 17.64 504.246 18.248 502.822 18.248H502.166V19.768H502.87C504.438 19.768 505.334 20.392 505.334 21.608C505.334 22.904 504.454 23.592 503.094 23.592C501.43 23.592 500.566 22.648 500.502 21.272H498.486C498.502 22.504 498.982 23.56 499.846 24.264C500.678 24.92 501.782 25.272 503.174 25.272ZM508.63 25H517.014V23.176H511.382V23.096C512.07 21.944 513.718 21.16 514.902 20.248C516.15 19.416 517.11 18.616 517.11 16.936C517.11 14.904 515.622 13.368 513.126 13.368C511.606 13.368 510.438 13.88 509.75 14.728C509.158 15.464 508.854 16.328 508.854 17.544H510.918C510.918 16.728 511.094 16.12 511.494 15.688C511.846 15.288 512.342 15.08 513.014 15.08C514.23 15.08 514.966 15.848 514.966 16.984C514.966 18.024 514.342 18.568 513.286 19.24C512.166 19.976 510.806 20.776 509.846 21.848C509.126 22.664 508.678 23.608 508.63 25ZM522.237 18.744H523.053C523.037 18.936 523.037 19.128 523.037 19.32C523.037 19.544 523.037 19.752 523.053 19.96H522.237V20.952H523.181C523.709 23.624 525.517 25.256 527.933 25.256C530.461 25.256 531.981 23.496 532.093 21.192H530.093C529.949 22.52 529.245 23.512 527.917 23.512C526.557 23.512 525.693 22.616 525.373 20.952H528.285V19.96H525.245C525.229 19.752 525.229 19.544 525.229 19.32C525.229 19.128 525.229 18.936 525.245 18.744H528.285V17.752H525.357C525.645 16.104 526.445 15.064 527.805 15.064C529.005 15.064 529.677 15.816 529.901 17H531.965C531.741 14.888 530.269 13.352 527.853 13.352C525.421 13.352 523.661 15.112 523.181 17.752H522.237V18.744Z" fill="white"/>
<path d="M751.455 134H753.679C753.855 129.776 755.903 126.288 758.079 124.256V122.608H749.871V124.416H753.583C754.831 124.416 756.015 124.336 756.015 124.336V124.368C753.807 126.24 751.663 129.936 751.455 134ZM761.685 134H763.797V122.512H762.149C761.893 124.128 760.613 124.752 759.045 124.8V126.208H761.685V134ZM765.909 134H768.133V131.776H765.909V134ZM773.754 134.256C776.266 134.256 778.106 132.688 778.106 130.224C778.106 127.776 776.282 126.304 774.282 126.304C773.13 126.304 772.378 126.656 771.786 127.28H771.754L772.378 124.352H777.402V122.608H770.874L769.658 128.832H771.658C772.042 128.352 772.746 127.936 773.77 127.936C774.986 127.936 775.962 128.784 775.962 130.208C775.962 131.584 775.05 132.512 773.69 132.512C772.378 132.512 771.626 131.84 771.418 130.848H769.338C769.498 132.864 771.258 134.256 773.754 134.256ZM784.112 134.272C787.056 134.272 788.864 131.936 788.864 128.304C788.864 124.624 787.008 122.352 784.128 122.352C781.296 122.352 779.392 124.656 779.392 128.304C779.392 131.936 781.248 134.272 784.112 134.272ZM784.128 132.544C782.368 132.544 781.568 130.864 781.568 128.304C781.568 125.728 782.368 124.048 784.128 124.048C785.904 124.048 786.688 125.744 786.688 128.304C786.688 130.896 785.936 132.544 784.128 132.544ZM795.755 134H797.803V131.328H799.562V129.744H797.803V122.48H795.883L790.331 129.456V131.328H795.755V134ZM791.835 129.824V129.792C791.835 129.792 792.651 128.928 793.115 128.368L794.747 126.304C795.211 125.712 795.803 124.768 795.803 124.768H795.835C795.835 124.768 795.755 125.84 795.755 126.48V129.744H793.499C792.859 129.744 791.835 129.824 791.835 129.824ZM804.308 127.744H805.124C805.108 127.936 805.108 128.128 805.108 128.32C805.108 128.544 805.108 128.752 805.124 128.96H804.308V129.952H805.252C805.78 132.624 807.588 134.256 810.004 134.256C812.532 134.256 814.052 132.496 814.164 130.192H812.164C812.02 131.52 811.316 132.512 809.988 132.512C808.628 132.512 807.764 131.616 807.444 129.952H810.356V128.96H807.316C807.3 128.752 807.3 128.544 807.3 128.32C807.3 128.128 807.3 127.936 807.316 127.744H810.356V126.752H807.428C807.716 125.104 808.516 124.064 809.876 124.064C811.076 124.064 811.748 124.816 811.972 126H814.036C813.812 123.888 812.34 122.352 809.924 122.352C807.492 122.352 805.732 124.112 805.252 126.752H804.308V127.744Z" fill="white"/>
<defs>
<linearGradient id="paint0_linear" x1="499" y1="1" x2="499" y2="487" gradientUnits="userSpaceOnUse">
<stop stop-color="#004FED"/>
<stop offset="1" stop-color="#A6D9DB" stop-opacity="0"/>
</linearGradient>
<linearGradient id="paint1_linear" x1="782" y1="110" x2="782" y2="487" gradientUnits="userSpaceOnUse">
<stop stop-color="#004FED"/>
<stop offset="1" stop-color="#A6D9DB" stop-opacity="0"/>
</linearGradient>
<linearGradient id="paint2_linear" x1="216" y1="370" x2="216" y2="487" gradientUnits="userSpaceOnUse">
<stop stop-color="#004FED"/>
<stop offset="1" stop-color="#A6D9DB" stop-opacity="0"/>
</linearGradient>
</defs>
</svg>
