<svg width="392" height="386" viewBox="0 0 392 386" fill="none" xmlns="http://www.w3.org/2000/svg">
<g id="Group 337">
<g id="Group 281">
<rect id="Rectangle 124" width="1" height="338" rx="0.5" fill="#24262F"/>
<rect id="Rectangle 125" x="391" width="1" height="338" rx="0.5" fill="#24262F"/>
<path id="Titolo di studio dei partecipanti" d="M17.128 12.8V14.72H20.52V24H22.632V14.72H26.024V12.8H17.128ZM26.6363 13.76C26.6363 14.576 27.2603 15.136 28.0603 15.136C28.8603 15.136 29.4843 14.576 29.4843 13.76C29.4843 12.944 28.8603 12.384 28.0603 12.384C27.2603 12.384 26.6363 12.944 26.6363 13.76ZM29.0683 16.064H27.0523V24H29.0683V16.064ZM30.0328 17.696H32.0168V22.208C32.0168 23.296 32.7208 24 33.7768 24H36.0168V22.368H34.4808C34.1927 22.368 34.0328 22.208 34.0328 21.888V17.696H36.2088V16.064H34.0328V13.6H32.0168V16.064H30.0328V17.696ZM36.916 20.032C36.916 22.624 38.708 24.224 41.076 24.224C43.444 24.224 45.236 22.624 45.236 20.032C45.236 17.44 43.444 15.84 41.076 15.84C38.708 15.84 36.916 17.44 36.916 20.032ZM38.932 20.032C38.932 18.496 39.828 17.6 41.076 17.6C42.324 17.6 43.22 18.496 43.22 20.032C43.22 21.568 42.324 22.464 41.076 22.464C39.828 22.464 38.932 21.568 38.932 20.032ZM48.5683 12.8H46.5523V24H48.5683V12.8ZM49.8848 20.032C49.8848 22.624 51.6768 24.224 54.0448 24.224C56.4128 24.224 58.2048 22.624 58.2048 20.032C58.2048 17.44 56.4128 15.84 54.0448 15.84C51.6768 15.84 49.8848 17.44 49.8848 20.032ZM51.9008 20.032C51.9008 18.496 52.7968 17.6 54.0448 17.6C55.2928 17.6 56.1888 18.496 56.1888 20.032C56.1888 21.568 55.2928 22.464 54.0448 22.464C52.7968 22.464 51.9008 21.568 51.9008 20.032ZM71.7055 12.8H69.6895V17.088H69.5295C69.0815 16.448 68.3135 15.84 66.9375 15.84C65.0495 15.84 63.3535 17.44 63.3535 20.032C63.3535 22.624 65.0495 24.224 66.9375 24.224C68.3135 24.224 69.0815 23.616 69.5615 22.928H69.7215V24H71.7055V12.8ZM67.5455 17.568C68.7935 17.568 69.7215 18.464 69.7215 20.032C69.7215 21.6 68.7935 22.496 67.5455 22.496C66.2975 22.496 65.3695 21.6 65.3695 20.032C65.3695 18.464 66.2975 17.568 67.5455 17.568ZM73.0738 13.76C73.0738 14.576 73.6978 15.136 74.4978 15.136C75.2978 15.136 75.9218 14.576 75.9218 13.76C75.9218 12.944 75.2978 12.384 74.4978 12.384C73.6978 12.384 73.0738 12.944 73.0738 13.76ZM75.5058 16.064H73.4898V24H75.5058V16.064ZM81.4711 18.288C81.4711 19.856 82.7831 20.432 84.4471 20.752L84.8631 20.832C85.8551 21.024 86.3031 21.264 86.3031 21.776C86.3031 22.288 85.8551 22.688 84.9271 22.688C83.9991 22.688 83.2471 22.304 83.0391 21.152L81.1831 21.632C81.4551 23.296 82.8471 24.224 84.9271 24.224C86.9431 24.224 88.2551 23.28 88.2551 21.616C88.2551 19.952 86.9111 19.504 85.1191 19.152L84.7031 19.072C83.8711 18.912 83.4231 18.688 83.4231 18.16C83.4231 17.68 83.8391 17.376 84.6071 17.376C85.3751 17.376 85.9191 17.696 86.1111 18.56L87.9351 18C87.5511 16.72 86.3831 15.84 84.6071 15.84C82.7191 15.84 81.4711 16.72 81.4711 18.288ZM88.7671 17.696H90.7511V22.208C90.7511 23.296 91.4551 24 92.5111 24H94.7511V22.368H93.2151C92.9271 22.368 92.7671 22.208 92.7671 21.888V17.696H94.9431V16.064H92.7671V13.6H90.7511V16.064H88.7671V17.696ZM103.999 24V16.064H101.983V20.16C101.983 21.632 101.263 22.496 100.031 22.496C98.9426 22.496 98.3346 21.904 98.3346 20.704V16.064H96.3186V20.8C96.3186 22.768 97.5506 24.128 99.4066 24.128C100.863 24.128 101.535 23.488 101.855 22.816H102.015V24H103.999ZM113.659 12.8H111.643V17.088H111.483C111.035 16.448 110.267 15.84 108.891 15.84C107.003 15.84 105.307 17.44 105.307 20.032C105.307 22.624 107.003 24.224 108.891 24.224C110.267 24.224 111.035 23.616 111.515 22.928H111.675V24H113.659V12.8ZM109.499 17.568C110.747 17.568 111.675 18.464 111.675 20.032C111.675 21.6 110.747 22.496 109.499 22.496C108.251 22.496 107.323 21.6 107.323 20.032C107.323 18.464 108.251 17.568 109.499 17.568ZM115.027 13.76C115.027 14.576 115.651 15.136 116.451 15.136C117.251 15.136 117.875 14.576 117.875 13.76C117.875 12.944 117.251 12.384 116.451 12.384C115.651 12.384 115.027 12.944 115.027 13.76ZM117.459 16.064H115.443V24H117.459V16.064ZM118.775 20.032C118.775 22.624 120.567 24.224 122.935 24.224C125.303 24.224 127.095 22.624 127.095 20.032C127.095 17.44 125.303 15.84 122.935 15.84C120.567 15.84 118.775 17.44 118.775 20.032ZM120.791 20.032C120.791 18.496 121.687 17.6 122.935 17.6C124.183 17.6 125.079 18.496 125.079 20.032C125.079 21.568 124.183 22.464 122.935 22.464C121.687 22.464 120.791 21.568 120.791 20.032ZM140.596 12.8H138.58V17.088H138.42C137.972 16.448 137.204 15.84 135.828 15.84C133.94 15.84 132.244 17.44 132.244 20.032C132.244 22.624 133.94 24.224 135.828 24.224C137.204 24.224 137.972 23.616 138.452 22.928H138.612V24H140.596V12.8ZM136.436 17.568C137.684 17.568 138.612 18.464 138.612 20.032C138.612 21.6 137.684 22.496 136.436 22.496C135.188 22.496 134.26 21.6 134.26 20.032C134.26 18.464 135.188 17.568 136.436 17.568ZM141.9 20.032C141.9 22.56 143.548 24.224 145.916 24.224C148.092 24.224 149.036 22.992 149.484 22.144L147.836 21.28C147.564 21.888 147.1 22.496 145.98 22.496C144.86 22.496 144.012 21.712 143.964 20.624H149.74V19.936C149.74 17.504 148.22 15.84 145.884 15.84C143.548 15.84 141.9 17.504 141.9 20.032ZM143.98 19.12C144.108 18.24 144.78 17.568 145.868 17.568C146.908 17.568 147.596 18.208 147.692 19.12H143.98ZM150.574 13.76C150.574 14.576 151.198 15.136 151.998 15.136C152.798 15.136 153.422 14.576 153.422 13.76C153.422 12.944 152.798 12.384 151.998 12.384C151.198 12.384 150.574 12.944 150.574 13.76ZM153.006 16.064H150.99V24H153.006V16.064ZM159.099 27.2H161.115V22.976H161.275C161.723 23.616 162.491 24.224 163.867 24.224C165.755 24.224 167.451 22.624 167.451 20.032C167.451 17.44 165.755 15.84 163.867 15.84C162.491 15.84 161.723 16.448 161.243 17.136H161.083V16.064H159.099V27.2ZM163.259 22.496C162.011 22.496 161.083 21.6 161.083 20.032C161.083 18.464 162.011 17.568 163.259 17.568C164.507 17.568 165.435 18.464 165.435 20.032C165.435 21.6 164.507 22.496 163.259 22.496ZM168.659 18.08L170.515 18.704C170.659 17.984 171.139 17.44 172.147 17.44C173.171 17.44 173.619 18.016 173.619 18.752V19.2H171.443C169.651 19.2 168.371 20.048 168.371 21.68C168.371 23.312 169.651 24.224 171.283 24.224C172.755 24.224 173.283 23.424 173.427 23.072H173.651V24H175.571V18.896C175.571 16.912 174.259 15.84 172.179 15.84C170.115 15.84 169.043 16.88 168.659 18.08ZM170.387 21.632C170.387 21.088 170.835 20.704 171.587 20.704H173.619V20.832C173.619 21.888 172.819 22.592 171.699 22.592C170.835 22.592 170.387 22.192 170.387 21.632ZM179.255 16.064H177.271V24H179.287V19.392C179.287 18.272 180.023 17.728 181.047 17.728H182.231V16.032H181.399C180.391 16.032 179.719 16.336 179.415 17.184H179.255V16.064ZM182.658 17.696H184.642V22.208C184.642 23.296 185.346 24 186.402 24H188.642V22.368H187.106C186.818 22.368 186.658 22.208 186.658 21.888V17.696H188.834V16.064H186.658V13.6H184.642V16.064H182.658V17.696ZM189.541 20.032C189.541 22.56 191.189 24.224 193.557 24.224C195.733 24.224 196.677 22.992 197.125 22.144L195.477 21.28C195.205 21.888 194.741 22.496 193.621 22.496C192.501 22.496 191.653 21.712 191.605 20.624H197.381V19.936C197.381 17.504 195.861 15.84 193.525 15.84C191.189 15.84 189.541 17.504 189.541 20.032ZM191.621 19.12C191.749 18.24 192.421 17.568 193.509 17.568C194.549 17.568 195.237 18.208 195.333 19.12H191.621ZM198.15 20.032C198.15 22.496 199.974 24.224 202.278 24.224C204.502 24.224 205.798 22.928 206.246 21.184L204.294 20.72C204.118 21.744 203.526 22.464 202.31 22.464C201.094 22.464 200.166 21.568 200.166 20.032C200.166 18.496 201.094 17.6 202.31 17.6C203.526 17.6 204.118 18.368 204.23 19.328L206.182 18.912C205.83 17.136 204.486 15.84 202.278 15.84C199.974 15.84 198.15 17.568 198.15 20.032ZM207.074 13.76C207.074 14.576 207.698 15.136 208.498 15.136C209.298 15.136 209.922 14.576 209.922 13.76C209.922 12.944 209.298 12.384 208.498 12.384C207.698 12.384 207.074 12.944 207.074 13.76ZM209.506 16.064H207.49V24H209.506V16.064ZM211.302 27.2H213.318V22.976H213.478C213.926 23.616 214.694 24.224 216.07 24.224C217.958 24.224 219.654 22.624 219.654 20.032C219.654 17.44 217.958 15.84 216.07 15.84C214.694 15.84 213.926 16.448 213.446 17.136H213.286V16.064H211.302V27.2ZM215.462 22.496C214.214 22.496 213.286 21.6 213.286 20.032C213.286 18.464 214.214 17.568 215.462 17.568C216.71 17.568 217.638 18.464 217.638 20.032C217.638 21.6 216.71 22.496 215.462 22.496ZM220.863 18.08L222.719 18.704C222.863 17.984 223.343 17.44 224.351 17.44C225.375 17.44 225.823 18.016 225.823 18.752V19.2H223.647C221.855 19.2 220.575 20.048 220.575 21.68C220.575 23.312 221.855 24.224 223.487 24.224C224.959 24.224 225.487 23.424 225.631 23.072H225.855V24H227.775V18.896C227.775 16.912 226.463 15.84 224.383 15.84C222.319 15.84 221.247 16.88 220.863 18.08ZM222.591 21.632C222.591 21.088 223.039 20.704 223.791 20.704H225.823V20.832C225.823 21.888 225.023 22.592 223.903 22.592C223.039 22.592 222.591 22.192 222.591 21.632ZM229.474 16.064V24H231.49V19.904C231.49 18.432 232.21 17.568 233.442 17.568C234.53 17.568 235.138 18.16 235.138 19.36V24H237.154V19.264C237.154 17.296 235.922 15.936 234.066 15.936C232.61 15.936 231.938 16.576 231.618 17.248H231.458V16.064H229.474ZM237.861 17.696H239.845V22.208C239.845 23.296 240.549 24 241.605 24H243.845V22.368H242.309C242.021 22.368 241.861 22.208 241.861 21.888V17.696H244.037V16.064H241.861V13.6H239.845V16.064H237.861V17.696ZM244.964 13.76C244.964 14.576 245.588 15.136 246.388 15.136C247.188 15.136 247.812 14.576 247.812 13.76C247.812 12.944 247.188 12.384 246.388 12.384C245.588 12.384 244.964 12.944 244.964 13.76ZM247.396 16.064H245.38V24H247.396V16.064Z" fill="#24262F"/>
<rect id="Rectangle 168" x="9" y="43" width="374" height="1" rx="0.5" fill="#24262F"/>
<rect id="Rectangle 169" x="9" y="92" width="374" height="1" rx="0.5" fill="#24262F"/>
<rect id="Rectangle 170" x="9" y="141" width="374" height="1" rx="0.5" fill="#24262F"/>
<rect id="Rectangle 171" x="9" y="190" width="374" height="1" rx="0.5" fill="#24262F"/>
<rect id="Rectangle 172" x="9" y="239" width="374" height="1" rx="0.5" fill="#24262F"/>
<rect id="Rectangle 173" x="9" y="288" width="374" height="1" rx="0.5" fill="#24262F"/>
<rect id="Rectangle 177" x="9" y="337" width="374" height="1" rx="0.5" fill="#24262F"/>
<path id="Diploma" d="M17.882 62.2V72H21.102C23.72 72 25.134 70.67 25.134 68.01V66.19C25.134 63.53 23.72 62.2 21.102 62.2H17.882ZM19.506 63.67H21.116C22.74 63.67 23.524 64.51 23.524 66.134V68.066C23.524 69.69 22.754 70.53 21.116 70.53H19.506V63.67ZM26.158 63.04C26.158 63.684 26.648 64.132 27.292 64.132C27.936 64.132 28.426 63.684 28.426 63.04C28.426 62.382 27.936 61.934 27.292 61.934C26.648 61.934 26.158 62.382 26.158 63.04ZM28.062 65.098H26.536V72H28.062V65.098ZM29.8035 74.8H31.3295V71.02H31.4695C31.8615 71.622 32.5615 72.196 33.8355 72.196C35.5295 72.196 36.9995 70.796 36.9995 68.542C36.9995 66.302 35.5295 64.902 33.8355 64.902C32.5615 64.902 31.8615 65.476 31.4415 66.106H31.3015V65.098H29.8035V74.8ZM33.3875 70.866C32.1975 70.866 31.3155 69.998 31.3155 68.542C31.3155 67.086 32.1975 66.218 33.3875 66.218C34.5915 66.218 35.4595 67.086 35.4595 68.542C35.4595 70.012 34.5915 70.866 33.3875 70.866ZM39.8335 62.2H38.3075V72H39.8335V62.2ZM41.141 68.542C41.141 70.782 42.667 72.196 44.739 72.196C46.811 72.196 48.323 70.782 48.323 68.542C48.323 66.316 46.811 64.902 44.739 64.902C42.667 64.902 41.141 66.316 41.141 68.542ZM42.681 68.542C42.681 67.128 43.521 66.246 44.739 66.246C45.943 66.246 46.783 67.114 46.783 68.542C46.783 69.97 45.943 70.852 44.739 70.852C43.521 70.852 42.681 69.984 42.681 68.542ZM49.6278 65.098V72H51.1538V67.856C51.1538 66.806 51.6998 66.232 52.5678 66.232C53.3658 66.232 53.8278 66.694 53.8278 67.492V72H55.3678V67.856C55.3678 66.806 55.9138 66.232 56.7818 66.232C57.5658 66.232 58.0418 66.694 58.0418 67.492V72H59.5818V67.408C59.5818 65.812 58.5598 64.972 57.2578 64.972C56.1378 64.972 55.5778 65.476 55.2278 66.12H55.0878C54.7658 65.434 54.1638 64.972 53.1418 64.972C52.1198 64.972 51.5598 65.406 51.2658 65.966H51.1258V65.098H49.6278ZM61.0955 66.89L62.5235 67.366C62.6635 66.652 63.1535 66.134 64.1195 66.134C65.0855 66.134 65.5475 66.68 65.5475 67.422V67.842H63.5035C61.9635 67.842 60.8575 68.57 60.8575 69.998C60.8575 71.398 61.9635 72.196 63.3915 72.196C64.7075 72.196 65.1975 71.51 65.3935 71.132H65.5755V72H67.0455V67.534C67.0455 65.84 65.9255 64.888 64.1335 64.888C62.3555 64.888 61.4315 65.812 61.0955 66.89ZM62.3975 69.956C62.3975 69.382 62.8595 69.032 63.6015 69.032H65.5475V69.158C65.5475 70.25 64.7775 70.936 63.6855 70.936C62.8595 70.936 62.3975 70.544 62.3975 69.956Z" fill="#24262F"/>
<path id="Laurea" d="M17.882 111.2V121H24.21V119.53H19.506V111.2H17.882ZM25.1522 115.89L26.5802 116.366C26.7202 115.652 27.2102 115.134 28.1762 115.134C29.1422 115.134 29.6042 115.68 29.6042 116.422V116.842H27.5602C26.0202 116.842 24.9142 117.57 24.9142 118.998C24.9142 120.398 26.0202 121.196 27.4482 121.196C28.7642 121.196 29.2542 120.51 29.4502 120.132H29.6322V121H31.1022V116.534C31.1022 114.84 29.9822 113.888 28.1902 113.888C26.4122 113.888 25.4882 114.812 25.1522 115.89ZM26.4542 118.956C26.4542 118.382 26.9162 118.032 27.6582 118.032H29.6042V118.158C29.6042 119.25 28.8342 119.936 27.7422 119.936C26.9162 119.936 26.4542 119.544 26.4542 118.956ZM39.2683 121V114.098H37.7423V117.64C37.7423 119.054 37.0003 119.852 35.8523 119.852C34.8303 119.852 34.2283 119.306 34.2283 118.158V114.098H32.6883V118.242C32.6883 119.992 33.8083 121.112 35.3903 121.112C36.7063 121.112 37.3223 120.538 37.6303 119.922H37.7703V121H39.2683ZM42.4988 114.098H41.0008V121H42.5268V116.912C42.5268 115.862 43.1848 115.372 44.1088 115.372H45.1728V114.07H44.3748C43.4788 114.07 42.9188 114.336 42.6388 115.05H42.4988V114.098ZM45.516 117.514C45.516 119.684 46.944 121.196 49.044 121.196C50.948 121.196 51.76 120.104 52.166 119.376L50.892 118.69C50.612 119.292 50.122 119.866 49.072 119.866C47.966 119.866 47.154 119.096 47.098 118.032H52.334V117.402C52.334 115.288 50.99 113.888 48.988 113.888C46.958 113.888 45.516 115.358 45.516 117.514ZM47.112 116.842C47.238 115.876 47.91 115.218 48.974 115.218C49.996 115.218 50.682 115.848 50.766 116.842H47.112ZM53.4393 115.89L54.8673 116.366C55.0073 115.652 55.4973 115.134 56.4633 115.134C57.4293 115.134 57.8913 115.68 57.8913 116.422V116.842H55.8473C54.3073 116.842 53.2013 117.57 53.2013 118.998C53.2013 120.398 54.3073 121.196 55.7353 121.196C57.0513 121.196 57.5413 120.51 57.7373 120.132H57.9193V121H59.3893V116.534C59.3893 114.84 58.2693 113.888 56.4773 113.888C54.6993 113.888 53.7753 114.812 53.4393 115.89ZM54.7413 118.956C54.7413 118.382 55.2033 118.032 55.9453 118.032H57.8913V118.158C57.8913 119.25 57.1213 119.936 56.0293 119.936C55.2033 119.936 54.7413 119.544 54.7413 118.956Z" fill="#24262F"/>
<path id="Licenza&#226;&#128;&#168;media" d="M17.882 152.2V162H24.21V160.53H19.506V152.2H17.882ZM24.9002 153.04C24.9002 153.684 25.3902 154.132 26.0342 154.132C26.6782 154.132 27.1682 153.684 27.1682 153.04C27.1682 152.382 26.6782 151.934 26.0342 151.934C25.3902 151.934 24.9002 152.382 24.9002 153.04ZM26.8042 155.098H25.2782V162H26.8042V155.098ZM28.1117 158.542C28.1117 160.684 29.6937 162.196 31.7097 162.196C33.6137 162.196 34.7477 161.062 35.1117 159.55L33.6137 159.2C33.4597 160.166 32.8717 160.852 31.7237 160.852C30.5477 160.852 29.6517 159.97 29.6517 158.542C29.6517 157.128 30.5477 156.246 31.7237 156.246C32.8437 156.246 33.4597 156.946 33.5717 157.87L35.0557 157.562C34.7757 156.036 33.5997 154.902 31.6957 154.902C29.6937 154.902 28.1117 156.4 28.1117 158.542ZM35.9184 158.514C35.9184 160.684 37.3464 162.196 39.4464 162.196C41.3504 162.196 42.1624 161.104 42.5684 160.376L41.2944 159.69C41.0144 160.292 40.5244 160.866 39.4744 160.866C38.3684 160.866 37.5564 160.096 37.5004 159.032H42.7364V158.402C42.7364 156.288 41.3924 154.888 39.3904 154.888C37.3604 154.888 35.9184 156.358 35.9184 158.514ZM37.5144 157.842C37.6404 156.876 38.3124 156.218 39.3764 156.218C40.3984 156.218 41.0844 156.848 41.1684 157.842H37.5144ZM43.9813 155.098V162H45.5073V158.458C45.5073 157.03 46.2493 156.232 47.3973 156.232C48.4193 156.232 49.0213 156.778 49.0213 157.94V162H50.5613V157.856C50.5613 156.092 49.4413 154.972 47.8593 154.972C46.5433 154.972 45.9273 155.56 45.6193 156.162H45.4793V155.098H43.9813ZM52.0998 155.098V156.344H56.0338L51.9738 160.866V162H58.2178V160.74H54.0318L58.1058 156.218V155.098H52.0998ZM59.4822 156.89L60.9102 157.366C61.0502 156.652 61.5402 156.134 62.5062 156.134C63.4722 156.134 63.9342 156.68 63.9342 157.422V157.842H61.8902C60.3502 157.842 59.2442 158.57 59.2442 159.998C59.2442 161.398 60.3502 162.196 61.7782 162.196C63.0942 162.196 63.5842 161.51 63.7802 161.132H63.9622V162H65.4322V157.534C65.4322 155.84 64.3122 154.888 62.5202 154.888C60.7422 154.888 59.8182 155.812 59.4822 156.89ZM60.7842 159.956C60.7842 159.382 61.2462 159.032 61.9882 159.032H63.9342V159.158C63.9342 160.25 63.1642 160.936 62.0722 160.936C61.2462 160.936 60.7842 160.544 60.7842 159.956ZM17.868 171.098V178H19.394V173.856C19.394 172.806 19.94 172.232 20.808 172.232C21.606 172.232 22.068 172.694 22.068 173.492V178H23.608V173.856C23.608 172.806 24.154 172.232 25.022 172.232C25.806 172.232 26.282 172.694 26.282 173.492V178H27.822V173.408C27.822 171.812 26.8 170.972 25.498 170.972C24.378 170.972 23.818 171.476 23.468 172.12H23.328C23.006 171.434 22.404 170.972 21.382 170.972C20.36 170.972 19.8 171.406 19.506 171.966H19.366V171.098H17.868ZM29.0278 174.514C29.0278 176.684 30.4558 178.196 32.5558 178.196C34.4598 178.196 35.2718 177.104 35.6778 176.376L34.4038 175.69C34.1238 176.292 33.6338 176.866 32.5838 176.866C31.4778 176.866 30.6658 176.096 30.6098 175.032H35.8458V174.402C35.8458 172.288 34.5018 170.888 32.4998 170.888C30.4698 170.888 29.0278 172.358 29.0278 174.514ZM30.6238 173.842C30.7498 172.876 31.4218 172.218 32.4858 172.218C33.5078 172.218 34.1938 172.848 34.2778 173.842H30.6238ZM43.8667 168.2H42.3267V172.064H42.1867C41.7947 171.476 41.0947 170.902 39.8207 170.902C38.1267 170.902 36.6567 172.302 36.6567 174.542C36.6567 176.796 38.1267 178.196 39.8207 178.196C41.0947 178.196 41.7947 177.622 42.2147 176.978H42.3547V178H43.8667V168.2ZM40.2687 172.218C41.4727 172.218 42.3547 173.086 42.3547 174.542C42.3547 175.998 41.4727 176.866 40.2687 176.866C39.0647 176.866 38.1967 176.012 38.1967 174.542C38.1967 173.086 39.0647 172.218 40.2687 172.218ZM45.2166 169.04C45.2166 169.684 45.7066 170.132 46.3506 170.132C46.9946 170.132 47.4846 169.684 47.4846 169.04C47.4846 168.382 46.9946 167.934 46.3506 167.934C45.7066 167.934 45.2166 168.382 45.2166 169.04ZM47.1206 171.098H45.5946V178H47.1206V171.098ZM48.7361 172.89L50.1641 173.366C50.3041 172.652 50.7941 172.134 51.7601 172.134C52.7261 172.134 53.1881 172.68 53.1881 173.422V173.842H51.1441C49.6041 173.842 48.4981 174.57 48.4981 175.998C48.4981 177.398 49.6041 178.196 51.0321 178.196C52.3481 178.196 52.8381 177.51 53.0341 177.132H53.2161V178H54.6861V173.534C54.6861 171.84 53.5661 170.888 51.7741 170.888C49.9961 170.888 49.0721 171.812 48.7361 172.89ZM50.0381 175.956C50.0381 175.382 50.5001 175.032 51.2421 175.032H53.1881V175.158C53.1881 176.25 52.4181 176.936 51.3261 176.936C50.5001 176.936 50.0381 176.544 50.0381 175.956Z" fill="#24262F"/>
<path id="Specializzaz.&#226;&#128;&#168;post laurea" d="M21.102 201.004C19.044 201.004 17.7 202.054 17.7 203.804C17.7 205.54 18.848 206.226 20.794 206.66L21.256 206.758C22.53 207.052 23.258 207.374 23.258 208.27C23.258 209.152 22.544 209.768 21.2 209.768C19.842 209.768 18.988 209.124 18.988 207.78V207.654H17.392V207.78C17.392 209.978 18.974 211.196 21.2 211.196C23.426 211.196 24.854 209.992 24.854 208.228C24.854 206.464 23.538 205.75 21.578 205.33L21.116 205.218C19.884 204.938 19.296 204.588 19.296 203.748C19.296 202.922 19.926 202.432 21.102 202.432C22.306 202.432 23.09 202.922 23.09 204.14V204.448H24.686V204.14C24.686 202.054 23.16 201.004 21.102 201.004ZM26.1532 213.8H27.6792V210.02H27.8192C28.2112 210.622 28.9112 211.196 30.1852 211.196C31.8792 211.196 33.3492 209.796 33.3492 207.542C33.3492 205.302 31.8792 203.902 30.1852 203.902C28.9112 203.902 28.2112 204.476 27.7912 205.106H27.6512V204.098H26.1532V213.8ZM29.7372 209.866C28.5472 209.866 27.6652 208.998 27.6652 207.542C27.6652 206.086 28.5472 205.218 29.7372 205.218C30.9412 205.218 31.8092 206.086 31.8092 207.542C31.8092 209.012 30.9412 209.866 29.7372 209.866ZM34.2231 207.514C34.2231 209.684 35.6511 211.196 37.7511 211.196C39.6551 211.196 40.4671 210.104 40.8731 209.376L39.5991 208.69C39.3191 209.292 38.8291 209.866 37.7791 209.866C36.6731 209.866 35.8611 209.096 35.8051 208.032H41.0411V207.402C41.0411 205.288 39.6971 203.888 37.6951 203.888C35.6651 203.888 34.2231 205.358 34.2231 207.514ZM35.8191 206.842C35.9451 205.876 36.6171 205.218 37.6811 205.218C38.7031 205.218 39.3891 205.848 39.4731 206.842H35.8191ZM41.852 207.542C41.852 209.684 43.434 211.196 45.45 211.196C47.354 211.196 48.488 210.062 48.852 208.55L47.354 208.2C47.2 209.166 46.612 209.852 45.464 209.852C44.288 209.852 43.392 208.97 43.392 207.542C43.392 206.128 44.288 205.246 45.464 205.246C46.584 205.246 47.2 205.946 47.312 206.87L48.796 206.562C48.516 205.036 47.34 203.902 45.436 203.902C43.434 203.902 41.852 205.4 41.852 207.542ZM49.7146 202.04C49.7146 202.684 50.2046 203.132 50.8486 203.132C51.4926 203.132 51.9826 202.684 51.9826 202.04C51.9826 201.382 51.4926 200.934 50.8486 200.934C50.2046 200.934 49.7146 201.382 49.7146 202.04ZM51.6186 204.098H50.0926V211H51.6186V204.098ZM53.2342 205.89L54.6622 206.366C54.8022 205.652 55.2922 205.134 56.2582 205.134C57.2242 205.134 57.6862 205.68 57.6862 206.422V206.842H55.6422C54.1022 206.842 52.9962 207.57 52.9962 208.998C52.9962 210.398 54.1022 211.196 55.5302 211.196C56.8462 211.196 57.3362 210.51 57.5322 210.132H57.7142V211H59.1842V206.534C59.1842 204.84 58.0642 203.888 56.2722 203.888C54.4942 203.888 53.5702 204.812 53.2342 205.89ZM54.5362 208.956C54.5362 208.382 54.9982 208.032 55.7402 208.032H57.6862V208.158C57.6862 209.25 56.9162 209.936 55.8242 209.936C54.9982 209.936 54.5362 209.544 54.5362 208.956ZM62.351 201.2H60.825V211H62.351V201.2ZM63.7146 202.04C63.7146 202.684 64.2046 203.132 64.8486 203.132C65.4926 203.132 65.9826 202.684 65.9826 202.04C65.9826 201.382 65.4926 200.934 64.8486 200.934C64.2046 200.934 63.7146 201.382 63.7146 202.04ZM65.6186 204.098H64.0926V211H65.6186V204.098ZM67.2482 204.098V205.344H71.1822L67.1222 209.866V211H73.3662V209.74H69.1802L73.2542 205.218V204.098H67.2482ZM74.6447 204.098V205.344H78.5787L74.5187 209.866V211H80.7627V209.74H76.5767L80.6507 205.218V204.098H74.6447ZM82.0272 205.89L83.4552 206.366C83.5952 205.652 84.0852 205.134 85.0512 205.134C86.0172 205.134 86.4792 205.68 86.4792 206.422V206.842H84.4352C82.8952 206.842 81.7892 207.57 81.7892 208.998C81.7892 210.398 82.8952 211.196 84.3232 211.196C85.6392 211.196 86.1292 210.51 86.3252 210.132H86.5072V211H87.9772V206.534C87.9772 204.84 86.8572 203.888 85.0652 203.888C83.2872 203.888 82.3632 204.812 82.0272 205.89ZM83.3292 208.956C83.3292 208.382 83.7912 208.032 84.5332 208.032H86.4792V208.158C86.4792 209.25 85.7092 209.936 84.6172 209.936C83.7912 209.936 83.3292 209.544 83.3292 208.956ZM89.506 204.098V205.344H93.44L89.38 209.866V211H95.624V209.74H91.438L95.512 205.218V204.098H89.506ZM96.8185 209.978C96.8185 210.692 97.3365 211.196 98.0365 211.196C98.7225 211.196 99.2405 210.692 99.2405 209.978C99.2405 209.278 98.7225 208.774 98.0365 208.774C97.3365 208.774 96.8185 209.278 96.8185 209.978ZM17.868 229.8H19.394V226.02H19.534C19.926 226.622 20.626 227.196 21.9 227.196C23.594 227.196 25.064 225.796 25.064 223.542C25.064 221.302 23.594 219.902 21.9 219.902C20.626 219.902 19.926 220.476 19.506 221.106H19.366V220.098H17.868V229.8ZM21.452 225.866C20.262 225.866 19.38 224.998 19.38 223.542C19.38 222.086 20.262 221.218 21.452 221.218C22.656 221.218 23.524 222.086 23.524 223.542C23.524 225.012 22.656 225.866 21.452 225.866ZM25.9379 223.542C25.9379 225.782 27.4639 227.196 29.5359 227.196C31.6079 227.196 33.1199 225.782 33.1199 223.542C33.1199 221.316 31.6079 219.902 29.5359 219.902C27.4639 219.902 25.9379 221.316 25.9379 223.542ZM27.4779 223.542C27.4779 222.128 28.3179 221.246 29.5359 221.246C30.7399 221.246 31.5799 222.114 31.5799 223.542C31.5799 224.97 30.7399 225.852 29.5359 225.852C28.3179 225.852 27.4779 224.984 27.4779 223.542ZM34.2713 221.988C34.2713 223.304 35.3633 223.822 36.7633 224.074L37.2393 224.158C38.1493 224.326 38.6113 224.55 38.6113 225.082C38.6113 225.614 38.1213 226.006 37.2393 226.006C36.3433 226.006 35.6153 225.642 35.4193 224.508L33.9913 224.858C34.2293 226.398 35.4613 227.196 37.2393 227.196C38.9753 227.196 40.0953 226.384 40.0953 224.97C40.0953 223.556 38.9613 223.15 37.4493 222.87L36.9733 222.786C36.2173 222.646 35.7553 222.422 35.7553 221.89C35.7553 221.386 36.2033 221.078 36.9593 221.078C37.7153 221.078 38.2613 221.4 38.4293 222.24L39.8293 221.82C39.5213 220.658 38.5133 219.902 36.9593 219.902C35.3353 219.902 34.2713 220.658 34.2713 221.988ZM40.5996 221.344H42.4616V225.572C42.4616 226.44 43.0216 227 43.8616 227H45.8076V225.74H44.3936C44.1416 225.74 44.0016 225.6 44.0016 225.32V221.344H46.0176V220.098H44.0016V217.844H42.4616V220.098H40.5996V221.344ZM52.8081 217.2H51.2821V227H52.8081V217.2ZM54.4236 221.89L55.8516 222.366C55.9916 221.652 56.4816 221.134 57.4476 221.134C58.4136 221.134 58.8756 221.68 58.8756 222.422V222.842H56.8316C55.2916 222.842 54.1856 223.57 54.1856 224.998C54.1856 226.398 55.2916 227.196 56.7196 227.196C58.0356 227.196 58.5256 226.51 58.7216 226.132H58.9036V227H60.3736V222.534C60.3736 220.84 59.2536 219.888 57.4616 219.888C55.6836 219.888 54.7596 220.812 54.4236 221.89ZM55.7256 224.956C55.7256 224.382 56.1876 224.032 56.9296 224.032H58.8756V224.158C58.8756 225.25 58.1056 225.936 57.0136 225.936C56.1876 225.936 55.7256 225.544 55.7256 224.956ZM68.5398 227V220.098H67.0138V223.64C67.0138 225.054 66.2718 225.852 65.1238 225.852C64.1018 225.852 63.4998 225.306 63.4998 224.158V220.098H61.9598V224.242C61.9598 225.992 63.0798 227.112 64.6618 227.112C65.9778 227.112 66.5938 226.538 66.9018 225.922H67.0418V227H68.5398ZM71.7703 220.098H70.2723V227H71.7983V222.912C71.7983 221.862 72.4563 221.372 73.3803 221.372H74.4443V220.07H73.6463C72.7503 220.07 72.1903 220.336 71.9103 221.05H71.7703V220.098ZM74.7875 223.514C74.7875 225.684 76.2155 227.196 78.3155 227.196C80.2195 227.196 81.0315 226.104 81.4375 225.376L80.1635 224.69C79.8835 225.292 79.3935 225.866 78.3435 225.866C77.2375 225.866 76.4255 225.096 76.3695 224.032H81.6055V223.402C81.6055 221.288 80.2615 219.888 78.2595 219.888C76.2295 219.888 74.7875 221.358 74.7875 223.514ZM76.3835 222.842C76.5095 221.876 77.1815 221.218 78.2455 221.218C79.2675 221.218 79.9535 221.848 80.0375 222.842H76.3835ZM82.7108 221.89L84.1388 222.366C84.2788 221.652 84.7688 221.134 85.7348 221.134C86.7008 221.134 87.1628 221.68 87.1628 222.422V222.842H85.1188C83.5788 222.842 82.4728 223.57 82.4728 224.998C82.4728 226.398 83.5788 227.196 85.0068 227.196C86.3228 227.196 86.8128 226.51 87.0088 226.132H87.1908V227H88.6608V222.534C88.6608 220.84 87.5408 219.888 85.7488 219.888C83.9708 219.888 83.0468 220.812 82.7108 221.89ZM84.0128 224.956C84.0128 224.382 84.4748 224.032 85.2168 224.032H87.1628V224.158C87.1628 225.25 86.3928 225.936 85.3008 225.936C84.4748 225.936 84.0128 225.544 84.0128 224.956Z" fill="#24262F"/>
<path id="Studente" d="M21.102 258.004C19.044 258.004 17.7 259.054 17.7 260.804C17.7 262.54 18.848 263.226 20.794 263.66L21.256 263.758C22.53 264.052 23.258 264.374 23.258 265.27C23.258 266.152 22.544 266.768 21.2 266.768C19.842 266.768 18.988 266.124 18.988 264.78V264.654H17.392V264.78C17.392 266.978 18.974 268.196 21.2 268.196C23.426 268.196 24.854 266.992 24.854 265.228C24.854 263.464 23.538 262.75 21.578 262.33L21.116 262.218C19.884 261.938 19.296 261.588 19.296 260.748C19.296 259.922 19.926 259.432 21.102 259.432C22.306 259.432 23.09 259.922 23.09 261.14V261.448H24.686V261.14C24.686 259.054 23.16 258.004 21.102 258.004ZM25.3692 262.344H27.2312V266.572C27.2312 267.44 27.7912 268 28.6312 268H30.5772V266.74H29.1632C28.9112 266.74 28.7712 266.6 28.7712 266.32V262.344H30.7872V261.098H28.7712V258.844H27.2312V261.098H25.3692V262.344ZM38.6668 268V261.098H37.1408V264.64C37.1408 266.054 36.3988 266.852 35.2508 266.852C34.2288 266.852 33.6268 266.306 33.6268 265.158V261.098H32.0868V265.242C32.0868 266.992 33.2068 268.112 34.7888 268.112C36.1048 268.112 36.7208 267.538 37.0288 266.922H37.1688V268H38.6668ZM47.1753 258.2H45.6353V262.064H45.4953C45.1033 261.476 44.4033 260.902 43.1292 260.902C41.4353 260.902 39.9653 262.302 39.9653 264.542C39.9653 266.796 41.4353 268.196 43.1292 268.196C44.4033 268.196 45.1033 267.622 45.5233 266.978H45.6633V268H47.1753V258.2ZM43.5773 262.218C44.7813 262.218 45.6633 263.086 45.6633 264.542C45.6633 265.998 44.7813 266.866 43.5773 266.866C42.3733 266.866 41.5053 266.012 41.5053 264.542C41.5053 263.086 42.3733 262.218 43.5773 262.218ZM48.4692 264.514C48.4692 266.684 49.8972 268.196 51.9972 268.196C53.9012 268.196 54.7132 267.104 55.1192 266.376L53.8452 265.69C53.5652 266.292 53.0752 266.866 52.0252 266.866C50.9192 266.866 50.1072 266.096 50.0512 265.032H55.2872V264.402C55.2872 262.288 53.9432 260.888 51.9412 260.888C49.9112 260.888 48.4692 262.358 48.4692 264.514ZM50.0652 263.842C50.1912 262.876 50.8632 262.218 51.9272 262.218C52.9492 262.218 53.6352 262.848 53.7192 263.842H50.0652ZM56.5321 261.098V268H58.0581V264.458C58.0581 263.03 58.8001 262.232 59.9481 262.232C60.9701 262.232 61.5721 262.778 61.5721 263.94V268H63.1121V263.856C63.1121 262.092 61.9921 260.972 60.4101 260.972C59.0941 260.972 58.4781 261.56 58.1701 262.162H58.0301V261.098H56.5321ZM63.8418 262.344H65.7038V266.572C65.7038 267.44 66.2638 268 67.1038 268H69.0498V266.74H67.6358C67.3838 266.74 67.2438 266.6 67.2438 266.32V262.344H69.2598V261.098H67.2438V258.844H65.7038V261.098H63.8418V262.344ZM69.975 264.514C69.975 266.684 71.403 268.196 73.503 268.196C75.407 268.196 76.219 267.104 76.625 266.376L75.351 265.69C75.071 266.292 74.581 266.866 73.531 266.866C72.425 266.866 71.613 266.096 71.557 265.032H76.793V264.402C76.793 262.288 75.449 260.888 73.447 260.888C71.417 260.888 69.975 262.358 69.975 264.514ZM71.571 263.842C71.697 262.876 72.369 262.218 73.433 262.218C74.455 262.218 75.141 262.848 75.225 263.842H71.571Z" fill="#24262F"/>
<path id="Altro" d="M19.968 307.2L17.084 317H18.75L19.408 314.718H23.048L23.706 317H25.358L22.474 307.2H19.968ZM19.8 313.248L21.158 308.558H21.298L22.642 313.248H19.8ZM27.8295 307.2H26.3035V317H27.8295V307.2ZM28.7871 311.344H30.6491V315.572C30.6491 316.44 31.2091 317 32.0491 317H33.9951V315.74H32.5811C32.3291 315.74 32.1891 315.6 32.1891 315.32V311.344H34.2051V310.098H32.1891V307.844H30.6491V310.098H28.7871V311.344ZM37.0027 310.098H35.5047V317H37.0307V312.912C37.0307 311.862 37.6887 311.372 38.6127 311.372H39.6767V310.07H38.8787C37.9827 310.07 37.4227 310.336 37.1427 311.05H37.0027V310.098ZM40.0199 313.542C40.0199 315.782 41.5459 317.196 43.6179 317.196C45.6899 317.196 47.2019 315.782 47.2019 313.542C47.2019 311.316 45.6899 309.902 43.6179 309.902C41.5459 309.902 40.0199 311.316 40.0199 313.542ZM41.5599 313.542C41.5599 312.128 42.3999 311.246 43.6179 311.246C44.8219 311.246 45.6619 312.114 45.6619 313.542C45.6619 314.97 44.8219 315.852 43.6179 315.852C42.3999 315.852 41.5599 314.984 41.5599 313.542Z" fill="#24262F"/>
<rect id="Rectangle 178" x="104" y="44" width="279" height="48" fill="#1880FF"/>
<rect id="Rectangle 179" x="104" y="93" width="181" height="48" fill="#1880FF"/>
<rect id="Rectangle 180" x="104" y="142" width="81" height="48" fill="#1880FF"/>
<rect id="Rectangle 181" x="104" y="191" width="23" height="48" fill="#1880FF"/>
<rect id="Rectangle 182" x="104" y="240" width="3" height="48" fill="#1880FF"/>
<rect id="Rectangle 183" x="104" y="289" width="11" height="48" fill="#1880FF"/>
<path id="48%" d="M352.033 62.2L347.987 68.64V70.054H352.957V72H354.581V70.054H356.205V68.584H354.581V62.2H352.033ZM352.789 63.614H352.957V68.584H349.681L352.789 63.614ZM356.829 64.664C356.829 65.882 357.627 66.526 358.439 66.862V67.03C357.641 67.24 356.675 67.996 356.675 69.368C356.675 71.062 358.187 72.196 360.301 72.196C362.415 72.196 363.927 71.062 363.927 69.368C363.927 67.996 362.961 67.24 362.149 67.03V66.862C362.961 66.526 363.773 65.882 363.773 64.664C363.773 63.124 362.373 62.004 360.301 62.004C358.215 62.004 356.829 63.124 356.829 64.664ZM358.439 64.846C358.439 63.964 359.209 63.446 360.301 63.446C361.379 63.446 362.149 63.964 362.149 64.846C362.149 65.728 361.379 66.246 360.301 66.246C359.209 66.246 358.439 65.728 358.439 64.846ZM358.285 69.214C358.285 68.276 359.041 67.688 360.301 67.688C361.561 67.688 362.303 68.276 362.303 69.214C362.303 70.166 361.561 70.754 360.301 70.754C359.041 70.754 358.285 70.166 358.285 69.214ZM370.161 65.546L370.973 66.148L373.787 62.928L372.527 61.99L370.161 65.546ZM364.869 64.244V64.51C364.869 65.882 365.723 66.708 367.151 66.708C368.593 66.708 369.433 65.882 369.433 64.51V64.244C369.433 62.872 368.551 62.032 367.151 62.032C365.723 62.032 364.869 62.872 364.869 64.244ZM366.157 64.174C366.157 63.516 366.493 63.096 367.151 63.096C367.809 63.096 368.145 63.516 368.145 64.174V64.566C368.145 65.224 367.809 65.644 367.151 65.644C366.493 65.644 366.157 65.224 366.157 64.566V64.174ZM369.853 69.704V69.97C369.853 71.342 370.707 72.168 372.149 72.168C373.577 72.168 374.431 71.342 374.431 69.97V69.704C374.431 68.332 373.535 67.492 372.149 67.492C370.707 67.492 369.853 68.332 369.853 69.704ZM369.083 68.626L368.271 68.024L365.457 71.244L366.717 72.196L369.083 68.626ZM371.155 69.634C371.155 68.976 371.491 68.556 372.149 68.556C372.807 68.556 373.143 68.976 373.143 69.634V70.026C373.143 70.684 372.807 71.104 372.149 71.104C371.491 71.104 371.155 70.684 371.155 70.026V69.634Z" fill="white"/>
<path id="31%" d="M294.602 111.2V112.67H299.278L296.618 114.896V116.366H298.214C299.25 116.366 300.02 116.884 300.02 117.962C300.02 118.984 299.278 119.754 298.032 119.754C296.702 119.754 295.946 118.956 295.946 117.822V117.444H294.336V117.864C294.336 119.852 295.75 121.196 298.032 121.196C300.146 121.196 301.644 119.908 301.644 117.962C301.644 116.156 300.398 115.176 298.928 115.176H298.578V115.022L301.476 112.628V111.2H294.602ZM304.233 111.2L301.643 115.568H303.365L304.919 112.922H305.087V121H306.711V111.2H304.233ZM313.456 114.546L314.268 115.148L317.082 111.928L315.822 110.99L313.456 114.546ZM308.164 113.244V113.51C308.164 114.882 309.018 115.708 310.446 115.708C311.888 115.708 312.728 114.882 312.728 113.51V113.244C312.728 111.872 311.846 111.032 310.446 111.032C309.018 111.032 308.164 111.872 308.164 113.244ZM309.452 113.174C309.452 112.516 309.788 112.096 310.446 112.096C311.104 112.096 311.44 112.516 311.44 113.174V113.566C311.44 114.224 311.104 114.644 310.446 114.644C309.788 114.644 309.452 114.224 309.452 113.566V113.174ZM313.148 118.704V118.97C313.148 120.342 314.002 121.168 315.444 121.168C316.872 121.168 317.726 120.342 317.726 118.97V118.704C317.726 117.332 316.83 116.492 315.444 116.492C314.002 116.492 313.148 117.332 313.148 118.704ZM312.378 117.626L311.566 117.024L308.752 120.244L310.012 121.196L312.378 117.626ZM314.45 118.634C314.45 117.976 314.786 117.556 315.444 117.556C316.102 117.556 316.438 117.976 316.438 118.634V119.026C316.438 119.684 316.102 120.104 315.444 120.104C314.786 120.104 314.45 119.684 314.45 119.026V118.634Z" fill="#24262F"/>
<path id="14%" d="M198.618 160.2L196.028 164.568H197.75L199.304 161.922H199.472V170H201.096V160.2H198.618ZM206.147 160.2L202.101 166.64V168.054H207.071V170H208.695V168.054H210.319V166.584H208.695V160.2H206.147ZM206.903 161.614H207.071V166.584H203.795L206.903 161.614ZM216.276 163.546L217.088 164.148L219.902 160.928L218.642 159.99L216.276 163.546ZM210.984 162.244V162.51C210.984 163.882 211.838 164.708 213.266 164.708C214.708 164.708 215.548 163.882 215.548 162.51V162.244C215.548 160.872 214.666 160.032 213.266 160.032C211.838 160.032 210.984 160.872 210.984 162.244ZM212.272 162.174C212.272 161.516 212.608 161.096 213.266 161.096C213.924 161.096 214.26 161.516 214.26 162.174V162.566C214.26 163.224 213.924 163.644 213.266 163.644C212.608 163.644 212.272 163.224 212.272 162.566V162.174ZM215.968 167.704V167.97C215.968 169.342 216.822 170.168 218.264 170.168C219.692 170.168 220.546 169.342 220.546 167.97V167.704C220.546 166.332 219.65 165.492 218.264 165.492C216.822 165.492 215.968 166.332 215.968 167.704ZM215.198 166.626L214.386 166.024L211.572 169.244L212.832 170.196L215.198 166.626ZM217.27 167.634C217.27 166.976 217.606 166.556 218.264 166.556C218.922 166.556 219.258 166.976 219.258 167.634V168.026C219.258 168.684 218.922 169.104 218.264 169.104C217.606 169.104 217.27 168.684 217.27 168.026V167.634Z" fill="#24262F"/>
<path id="4%" d="M143.172 209.2L139.126 215.64V217.054H144.096V219H145.72V217.054H147.344V215.584H145.72V209.2H143.172ZM143.928 210.614H144.096V215.584H140.82L143.928 210.614ZM153.302 212.546L154.114 213.148L156.928 209.928L155.668 208.99L153.302 212.546ZM148.01 211.244V211.51C148.01 212.882 148.864 213.708 150.292 213.708C151.734 213.708 152.574 212.882 152.574 211.51V211.244C152.574 209.872 151.692 209.032 150.292 209.032C148.864 209.032 148.01 209.872 148.01 211.244ZM149.298 211.174C149.298 210.516 149.634 210.096 150.292 210.096C150.95 210.096 151.286 210.516 151.286 211.174V211.566C151.286 212.224 150.95 212.644 150.292 212.644C149.634 212.644 149.298 212.224 149.298 211.566V211.174ZM152.994 216.704V216.97C152.994 218.342 153.848 219.168 155.29 219.168C156.718 219.168 157.572 218.342 157.572 216.97V216.704C157.572 215.332 156.676 214.492 155.29 214.492C153.848 214.492 152.994 215.332 152.994 216.704ZM152.224 215.626L151.412 215.024L148.598 218.244L149.858 219.196L152.224 215.626ZM154.296 216.634C154.296 215.976 154.632 215.556 155.29 215.556C155.948 215.556 156.284 215.976 156.284 216.634V217.026C156.284 217.684 155.948 218.104 155.29 218.104C154.632 218.104 154.296 217.684 154.296 217.026V216.634Z" fill="#24262F"/>
<path id="&#60;1%" d="M123.4 264.066L129.28 266.18V264.668L124.912 263.212V262.988L129.28 261.532V260.02L123.4 262.134V264.066ZM133.3 258.2L130.71 262.568H132.432L133.986 259.922H134.154V268H135.778V258.2H133.3ZM142.522 261.546L143.334 262.148L146.148 258.928L144.888 257.99L142.522 261.546ZM137.23 260.244V260.51C137.23 261.882 138.084 262.708 139.512 262.708C140.954 262.708 141.794 261.882 141.794 260.51V260.244C141.794 258.872 140.912 258.032 139.512 258.032C138.084 258.032 137.23 258.872 137.23 260.244ZM138.518 260.174C138.518 259.516 138.854 259.096 139.512 259.096C140.17 259.096 140.506 259.516 140.506 260.174V260.566C140.506 261.224 140.17 261.644 139.512 261.644C138.854 261.644 138.518 261.224 138.518 260.566V260.174ZM142.214 265.704V265.97C142.214 267.342 143.068 268.168 144.51 268.168C145.938 268.168 146.792 267.342 146.792 265.97V265.704C146.792 264.332 145.896 263.492 144.51 263.492C143.068 263.492 142.214 264.332 142.214 265.704ZM141.444 264.626L140.632 264.024L137.818 267.244L139.078 268.196L141.444 264.626ZM143.516 265.634C143.516 264.976 143.852 264.556 144.51 264.556C145.168 264.556 145.504 264.976 145.504 265.634V266.026C145.504 266.684 145.168 267.104 144.51 267.104C143.852 267.104 143.516 266.684 143.516 266.026V265.634Z" fill="#24262F"/>
<path id="2%" d="M127.476 310.448V310.784H129.086V310.476C129.086 309.104 129.996 308.446 131.13 308.446C132.236 308.446 132.978 309.09 132.978 310.182C132.978 311.386 132.11 311.918 130.626 312.31C128.778 312.786 127.49 313.626 127.49 315.474V317H134.56V315.53H129.114V315.334C129.114 314.242 129.926 313.934 131.396 313.556C133.44 313.038 134.602 312.128 134.602 310.224C134.602 308.236 133.02 307.004 131.102 307.004C129.128 307.004 127.476 308.194 127.476 310.448ZM140.878 310.546L141.69 311.148L144.504 307.928L143.244 306.99L140.878 310.546ZM135.586 309.244V309.51C135.586 310.882 136.44 311.708 137.868 311.708C139.31 311.708 140.15 310.882 140.15 309.51V309.244C140.15 307.872 139.268 307.032 137.868 307.032C136.44 307.032 135.586 307.872 135.586 309.244ZM136.874 309.174C136.874 308.516 137.21 308.096 137.868 308.096C138.526 308.096 138.862 308.516 138.862 309.174V309.566C138.862 310.224 138.526 310.644 137.868 310.644C137.21 310.644 136.874 310.224 136.874 309.566V309.174ZM140.57 314.704V314.97C140.57 316.342 141.424 317.168 142.866 317.168C144.294 317.168 145.148 316.342 145.148 314.97V314.704C145.148 313.332 144.252 312.492 142.866 312.492C141.424 312.492 140.57 313.332 140.57 314.704ZM139.8 313.626L138.988 313.024L136.174 316.244L137.434 317.196L139.8 313.626ZM141.872 314.634C141.872 313.976 142.208 313.556 142.866 313.556C143.524 313.556 143.86 313.976 143.86 314.634V315.026C143.86 315.684 143.524 316.104 142.866 316.104C142.208 316.104 141.872 315.684 141.872 315.026V314.634Z" fill="#24262F"/>
</g>
<path id="Fonte: TIM" d="M315.495 371.2V381H317.119V376.814H321.389V375.358H317.119V372.67H321.669V371.2H315.495ZM322.43 377.542C322.43 379.782 323.956 381.196 326.028 381.196C328.1 381.196 329.612 379.782 329.612 377.542C329.612 375.316 328.1 373.902 326.028 373.902C323.956 373.902 322.43 375.316 322.43 377.542ZM323.97 377.542C323.97 376.128 324.81 375.246 326.028 375.246C327.232 375.246 328.072 376.114 328.072 377.542C328.072 378.97 327.232 379.852 326.028 379.852C324.81 379.852 323.97 378.984 323.97 377.542ZM330.917 374.098V381H332.443V377.458C332.443 376.03 333.185 375.232 334.333 375.232C335.355 375.232 335.957 375.778 335.957 376.94V381H337.497V376.856C337.497 375.092 336.377 373.972 334.795 373.972C333.479 373.972 332.863 374.56 332.555 375.162H332.415V374.098H330.917ZM338.227 375.344H340.089V379.572C340.089 380.44 340.649 381 341.489 381H343.435V379.74H342.021C341.769 379.74 341.629 379.6 341.629 379.32V375.344H343.645V374.098H341.629V371.844H340.089V374.098H338.227V375.344ZM344.36 377.514C344.36 379.684 345.788 381.196 347.888 381.196C349.792 381.196 350.604 380.104 351.01 379.376L349.736 378.69C349.456 379.292 348.966 379.866 347.916 379.866C346.81 379.866 345.998 379.096 345.942 378.032H351.178V377.402C351.178 375.288 349.834 373.888 347.832 373.888C345.802 373.888 344.36 375.358 344.36 377.514ZM345.956 376.842C346.082 375.876 346.754 375.218 347.818 375.218C348.84 375.218 349.526 375.848 349.61 376.842H345.956ZM352.227 375.064C352.227 375.778 352.745 376.282 353.445 376.282C354.131 376.282 354.649 375.778 354.649 375.064C354.649 374.364 354.131 373.86 353.445 373.86C352.745 373.86 352.227 374.364 352.227 375.064ZM352.227 379.978C352.227 380.692 352.745 381.196 353.445 381.196C354.131 381.196 354.649 380.692 354.649 379.978C354.649 379.278 354.131 378.774 353.445 378.774C352.745 378.774 352.227 379.278 352.227 379.978ZM359.433 371.2V372.67H362.499V381H364.109V372.67H367.175V371.2H359.433ZM368.214 371.2V381H369.838V371.2H368.214ZM371.605 371.2V381H373.173V372.88H373.313L375.721 381H378.003L380.397 372.88H380.537V381H382.119V371.2H379.333L376.925 379.362H376.785L374.391 371.2H371.605Z" fill="#24262F"/>
</g>
</svg>
