<svg width="937" height="184" viewBox="0 0 937 184" fill="none" xmlns="http://www.w3.org/2000/svg">
<path d="M855 24C855 21.7909 856.791 20 859 20H922C924.209 20 926 21.7909 926 24V38C926 40.2091 924.209 42 922 42H859C856.791 42 855 40.2091 855 38V24Z" fill="#131313"/>
<path d="M850 31L855 26L855 36L850 31Z" fill="#131313"/>
<path d="M862.806 36H864.752C864.906 32.304 866.698 29.252 868.602 27.474V26.032H861.42V27.614H864.668C865.76 27.614 866.796 27.544 866.796 27.544V27.572C864.864 29.21 862.988 32.444 862.806 36ZM873.402 36.238C875.978 36.238 877.56 34.194 877.56 31.016C877.56 27.796 875.936 25.808 873.416 25.808C870.938 25.808 869.272 27.824 869.272 31.016C869.272 34.194 870.896 36.238 873.402 36.238ZM873.416 34.726C871.876 34.726 871.176 33.256 871.176 31.016C871.176 28.762 871.876 27.292 873.416 27.292C874.97 27.292 875.656 28.776 875.656 31.016C875.656 33.284 874.998 34.726 873.416 34.726ZM878.584 36H880.53V34.054H878.584V36ZM886.42 36H888.212V33.662H889.752V32.276H888.212V25.92H886.532L881.674 32.024V33.662H886.42V36ZM882.99 32.346V32.318C882.99 32.318 883.704 31.562 884.11 31.072L885.538 29.266C885.944 28.748 886.462 27.922 886.462 27.922H886.49C886.49 27.922 886.42 28.86 886.42 29.42V32.276H884.446C883.886 32.276 882.99 32.346 882.99 32.346ZM891.558 36H893.504C893.658 32.304 895.45 29.252 897.354 27.474V26.032H890.172V27.614H893.42C894.512 27.614 895.548 27.544 895.548 27.544V27.572C893.616 29.21 891.74 32.444 891.558 36ZM902.011 36.238C904.069 36.238 905.777 35.202 905.777 33.172C905.777 31.856 905.091 31.016 903.775 30.652V30.624C904.783 30.288 905.455 29.658 905.455 28.58C905.455 26.844 903.957 25.808 901.955 25.808C899.603 25.808 898.245 27.18 898.217 29.028H899.967C899.995 28.034 900.653 27.208 901.913 27.208C902.907 27.208 903.635 27.754 903.635 28.65C903.635 29.56 902.949 30.092 901.703 30.092H901.129V31.422H901.745C903.117 31.422 903.901 31.968 903.901 33.032C903.901 34.166 903.131 34.768 901.941 34.768C900.485 34.768 899.729 33.942 899.673 32.738H897.909C897.923 33.816 898.343 34.74 899.099 35.356C899.827 35.93 900.793 36.238 902.011 36.238ZM910.242 30.526H910.956C910.942 30.694 910.942 30.862 910.942 31.03C910.942 31.226 910.942 31.408 910.956 31.59H910.242V32.458H911.068C911.53 34.796 913.112 36.224 915.226 36.224C917.438 36.224 918.768 34.684 918.866 32.668H917.116C916.99 33.83 916.374 34.698 915.212 34.698C914.022 34.698 913.266 33.914 912.986 32.458H915.534V31.59H912.874C912.86 31.408 912.86 31.226 912.86 31.03C912.86 30.862 912.86 30.694 912.874 30.526H915.534V29.658H912.972C913.224 28.216 913.924 27.306 915.114 27.306C916.164 27.306 916.752 27.964 916.948 29H918.754C918.558 27.152 917.27 25.808 915.156 25.808C913.028 25.808 911.488 27.348 911.068 29.658H910.242V30.526Z" fill="white"/>
<path d="M868 70C868 67.7909 869.791 66 872 66H933C935.209 66 937 67.7909 937 70V84C937 86.2091 935.209 88 933 88H872C869.791 88 868 86.2091 868 84V70Z" fill="#131313"/>
<path d="M863 77L868 72L868 82L863 77Z" fill="#131313"/>
<path d="M875.806 82H877.752C877.906 78.304 879.698 75.252 881.602 73.474V72.032H874.42V73.614H877.668C878.76 73.614 879.796 73.544 879.796 73.544V73.572C877.864 75.21 875.988 78.444 875.806 82ZM884.758 82H886.606V71.948H885.164C884.94 73.362 883.82 73.908 882.448 73.95V75.182H884.758V82ZM888.454 82H890.4V80.054H888.454V82ZM895.321 82.238C896.483 82.238 897.393 81.874 898.037 81.202C898.933 80.306 899.297 78.836 899.297 77.002C899.297 74.944 898.891 73.544 897.855 72.69C897.211 72.144 896.329 71.808 895.251 71.808C893.081 71.808 891.499 73.292 891.499 75.28C891.499 77.282 893.053 78.738 894.985 78.738C896.091 78.738 896.917 78.248 897.533 77.45H897.561C897.505 78.682 897.295 79.55 896.875 80.082C896.497 80.6 895.979 80.838 895.279 80.838C894.215 80.838 893.655 80.208 893.529 79.578H891.723C891.905 81.048 893.263 82.238 895.321 82.238ZM895.279 77.324C894.089 77.324 893.235 76.456 893.235 75.266C893.235 74.076 894.075 73.222 895.293 73.222C896.469 73.222 897.379 74.062 897.379 75.266C897.379 76.484 896.539 77.324 895.279 77.324ZM904.374 82.238C906.432 82.238 908.14 81.202 908.14 79.172C908.14 77.856 907.454 77.016 906.138 76.652V76.624C907.146 76.288 907.818 75.658 907.818 74.58C907.818 72.844 906.32 71.808 904.318 71.808C901.966 71.808 900.608 73.18 900.58 75.028H902.33C902.358 74.034 903.016 73.208 904.276 73.208C905.27 73.208 905.998 73.754 905.998 74.65C905.998 75.56 905.312 76.092 904.066 76.092H903.492V77.422H904.108C905.48 77.422 906.264 77.968 906.264 79.032C906.264 80.166 905.494 80.768 904.304 80.768C902.848 80.768 902.092 79.942 902.036 78.738H900.272C900.286 79.816 900.706 80.74 901.462 81.356C902.19 81.93 903.156 82.238 904.374 82.238ZM909.148 82H916.484V80.404H911.556V80.334C912.158 79.326 913.6 78.64 914.636 77.842C915.728 77.114 916.568 76.414 916.568 74.944C916.568 73.166 915.266 71.822 913.082 71.822C911.752 71.822 910.73 72.27 910.128 73.012C909.61 73.656 909.344 74.412 909.344 75.476H911.15C911.15 74.762 911.304 74.23 911.654 73.852C911.962 73.502 912.396 73.32 912.984 73.32C914.048 73.32 914.692 73.992 914.692 74.986C914.692 75.896 914.146 76.372 913.222 76.96C912.242 77.604 911.052 78.304 910.212 79.242C909.582 79.956 909.19 80.782 909.148 82ZM921.054 76.526H921.768C921.754 76.694 921.754 76.862 921.754 77.03C921.754 77.226 921.754 77.408 921.768 77.59H921.054V78.458H921.88C922.342 80.796 923.924 82.224 926.038 82.224C928.25 82.224 929.58 80.684 929.678 78.668H927.928C927.802 79.83 927.186 80.698 926.024 80.698C924.834 80.698 924.078 79.914 923.798 78.458H926.346V77.59H923.686C923.672 77.408 923.672 77.226 923.672 77.03C923.672 76.862 923.672 76.694 923.686 76.526H926.346V75.658H923.784C924.036 74.216 924.736 73.306 925.926 73.306C926.976 73.306 927.564 73.964 927.76 75H929.566C929.37 73.152 928.082 71.808 925.968 71.808C923.84 71.808 922.3 73.348 921.88 75.658H921.054V76.526Z" fill="white"/>
<path d="M863 116C863 113.791 864.791 112 867 112H929C931.209 112 933 113.791 933 116V130C933 132.209 931.209 134 929 134H867C864.791 134 863 132.209 863 130V116Z" fill="#131313"/>
<path d="M858 123L863 118L863 128L858 123Z" fill="#131313"/>
<path d="M870.806 128H872.752C872.906 124.304 874.698 121.252 876.602 119.474V118.032H869.42V119.614H872.668C873.76 119.614 874.796 119.544 874.796 119.544V119.572C872.864 121.21 870.988 124.444 870.806 128ZM879.758 128H881.606V117.948H880.164C879.94 119.362 878.82 119.908 877.448 119.95V121.182H879.758V128ZM883.454 128H885.4V126.054H883.454V128ZM890.318 128.224C892.516 128.224 894.126 126.852 894.126 124.696C894.126 122.554 892.53 121.266 890.78 121.266C889.772 121.266 889.114 121.574 888.596 122.12H888.568L889.114 119.558H893.51V118.032H887.798L886.734 123.478H888.484C888.82 123.058 889.436 122.694 890.332 122.694C891.396 122.694 892.25 123.436 892.25 124.682C892.25 125.886 891.452 126.698 890.262 126.698C889.114 126.698 888.456 126.11 888.274 125.242H886.454C886.594 127.006 888.134 128.224 890.318 128.224ZM899.381 128.238C901.957 128.238 903.539 126.194 903.539 123.016C903.539 119.796 901.915 117.808 899.395 117.808C896.917 117.808 895.251 119.824 895.251 123.016C895.251 126.194 896.875 128.238 899.381 128.238ZM899.395 126.726C897.855 126.726 897.155 125.256 897.155 123.016C897.155 120.762 897.855 119.292 899.395 119.292C900.949 119.292 901.635 120.776 901.635 123.016C901.635 125.284 900.977 126.726 899.395 126.726ZM909.568 128H911.36V125.662H912.9V124.276H911.36V117.92H909.68L904.822 124.024V125.662H909.568V128ZM906.138 124.346V124.318C906.138 124.318 906.852 123.562 907.258 123.072L908.686 121.266C909.092 120.748 909.61 119.922 909.61 119.922H909.638C909.638 119.922 909.568 120.86 909.568 121.42V124.276H907.594C907.034 124.276 906.138 124.346 906.138 124.346ZM917.052 122.526H917.766C917.752 122.694 917.752 122.862 917.752 123.03C917.752 123.226 917.752 123.408 917.766 123.59H917.052V124.458H917.878C918.34 126.796 919.922 128.224 922.036 128.224C924.248 128.224 925.578 126.684 925.676 124.668H923.926C923.8 125.83 923.184 126.698 922.022 126.698C920.832 126.698 920.076 125.914 919.796 124.458H922.344V123.59H919.684C919.67 123.408 919.67 123.226 919.67 123.03C919.67 122.862 919.67 122.694 919.684 122.526H922.344V121.658H919.782C920.034 120.216 920.734 119.306 921.924 119.306C922.974 119.306 923.562 119.964 923.758 121H925.564C925.368 119.152 924.08 117.808 921.966 117.808C919.838 117.808 918.298 119.348 917.878 121.658H917.052V122.526Z" fill="white"/>
<path d="M4.65895 36H11.9949V34.404H7.06695V34.334C7.66895 33.326 9.11095 32.64 10.1469 31.842C11.2389 31.114 12.0789 30.414 12.0789 28.944C12.0789 27.166 10.7769 25.822 8.59295 25.822C7.26295 25.822 6.24095 26.27 5.63895 27.012C5.12095 27.656 4.85495 28.412 4.85495 29.476H6.66095C6.66095 28.762 6.81495 28.23 7.16495 27.852C7.47295 27.502 7.90695 27.32 8.49495 27.32C9.55895 27.32 10.2029 27.992 10.2029 28.986C10.2029 29.896 9.65695 30.372 8.73295 30.96C7.75295 31.604 6.56295 32.304 5.72295 33.242C5.09295 33.956 4.70095 34.782 4.65895 36ZM17.4325 36.238C20.0085 36.238 21.5905 34.194 21.5905 31.016C21.5905 27.796 19.9665 25.808 17.4465 25.808C14.9685 25.808 13.3025 27.824 13.3025 31.016C13.3025 34.194 14.9265 36.238 17.4325 36.238ZM17.4465 34.726C15.9065 34.726 15.2065 33.256 15.2065 31.016C15.2065 28.762 15.9065 27.292 17.4465 27.292C19.0005 27.292 19.6865 28.776 19.6865 31.016C19.6865 33.284 19.0285 34.726 17.4465 34.726ZM24.8934 36H26.7414V25.948H25.2994C25.0754 27.362 23.9554 27.908 22.5834 27.95V29.182H24.8934V36ZM32.3973 36.238C34.5533 36.238 36.3453 35.216 36.3453 33.116C36.3453 31.87 35.5893 30.918 34.2873 30.582V30.54C35.3373 30.19 35.8833 29.434 35.8833 28.468C35.8833 26.83 34.4553 25.808 32.3693 25.808C30.2973 25.808 28.8553 26.872 28.8553 28.496C28.8553 29.476 29.4013 30.218 30.4653 30.568V30.61C29.1913 30.974 28.3933 31.87 28.3933 33.158C28.3933 35.216 30.2413 36.238 32.3973 36.238ZM32.3693 29.994C31.2633 29.994 30.6053 29.448 30.6053 28.58C30.6053 27.712 31.2633 27.152 32.3693 27.152C33.4753 27.152 34.1193 27.712 34.1193 28.58C34.1193 29.448 33.4753 29.994 32.3693 29.994ZM32.3973 34.81C31.0673 34.81 30.2693 34.152 30.2693 33.074C30.2693 31.968 31.0673 31.268 32.3833 31.268C33.6993 31.268 34.4833 31.968 34.4833 33.074C34.4833 34.138 33.6713 34.81 32.3973 34.81Z" fill="#131313"/>
<path d="M4.63844 82H11.9744V80.404H7.04644V80.334C7.64844 79.326 9.09044 78.64 10.1264 77.842C11.2184 77.114 12.0584 76.414 12.0584 74.944C12.0584 73.166 10.7564 71.822 8.57244 71.822C7.24244 71.822 6.22044 72.27 5.61844 73.012C5.10044 73.656 4.83444 74.412 4.83444 75.476H6.64044C6.64044 74.762 6.79444 74.23 7.14444 73.852C7.45244 73.502 7.88644 73.32 8.47444 73.32C9.53844 73.32 10.1824 73.992 10.1824 74.986C10.1824 75.896 9.63644 76.372 8.71244 76.96C7.73244 77.604 6.54244 78.304 5.70244 79.242C5.07244 79.956 4.68044 80.782 4.63844 82ZM17.412 82.238C19.988 82.238 21.57 80.194 21.57 77.016C21.57 73.796 19.946 71.808 17.426 71.808C14.948 71.808 13.282 73.824 13.282 77.016C13.282 80.194 14.906 82.238 17.412 82.238ZM17.426 80.726C15.886 80.726 15.186 79.256 15.186 77.016C15.186 74.762 15.886 73.292 17.426 73.292C18.98 73.292 19.666 74.776 19.666 77.016C19.666 79.284 19.008 80.726 17.426 80.726ZM24.8729 82H26.7209V71.948H25.2789C25.0549 73.362 23.9349 73.908 22.5629 73.95V75.182H24.8729V82ZM32.2648 82.238C33.4268 82.238 34.3368 81.874 34.9808 81.202C35.8768 80.306 36.2408 78.836 36.2408 77.002C36.2408 74.944 35.8348 73.544 34.7988 72.69C34.1548 72.144 33.2728 71.808 32.1948 71.808C30.0248 71.808 28.4428 73.292 28.4428 75.28C28.4428 77.282 29.9968 78.738 31.9288 78.738C33.0348 78.738 33.8608 78.248 34.4768 77.45H34.5048C34.4488 78.682 34.2388 79.55 33.8188 80.082C33.4408 80.6 32.9228 80.838 32.2228 80.838C31.1588 80.838 30.5988 80.208 30.4728 79.578H28.6668C28.8488 81.048 30.2068 82.238 32.2648 82.238ZM32.2228 77.324C31.0328 77.324 30.1788 76.456 30.1788 75.266C30.1788 74.076 31.0188 73.222 32.2368 73.222C33.4128 73.222 34.3228 74.062 34.3228 75.266C34.3228 76.484 33.4828 77.324 32.2228 77.324Z" fill="#131313"/>
<path d="M0.525156 128H7.86116V126.404H2.93316V126.334C3.53516 125.326 4.97716 124.64 6.01316 123.842C7.10516 123.114 7.94516 122.414 7.94516 120.944C7.94516 119.166 6.64316 117.822 4.45916 117.822C3.12916 117.822 2.10716 118.27 1.50516 119.012C0.987156 119.656 0.721156 120.412 0.721156 121.476H2.52716C2.52716 120.762 2.68116 120.23 3.03116 119.852C3.33916 119.502 3.77316 119.32 4.36116 119.32C5.42516 119.32 6.06916 119.992 6.06916 120.986C6.06916 121.896 5.52316 122.372 4.59916 122.96C3.61916 123.604 2.42916 124.304 1.58916 125.242C0.959156 125.956 0.567156 126.782 0.525156 128ZM13.2987 128.238C15.8747 128.238 17.4567 126.194 17.4567 123.016C17.4567 119.796 15.8327 117.808 13.3127 117.808C10.8347 117.808 9.16873 119.824 9.16873 123.016C9.16873 126.194 10.7927 128.238 13.2987 128.238ZM13.3127 126.726C11.7727 126.726 11.0727 125.256 11.0727 123.016C11.0727 120.762 11.7727 119.292 13.3127 119.292C14.8667 119.292 15.5527 120.776 15.5527 123.016C15.5527 125.284 14.8947 126.726 13.3127 126.726ZM18.4216 128H25.7576V126.404H20.8296V126.334C21.4316 125.326 22.8736 124.64 23.9096 123.842C25.0016 123.114 25.8416 122.414 25.8416 120.944C25.8416 119.166 24.5396 117.822 22.3556 117.822C21.0256 117.822 20.0036 118.27 19.4016 119.012C18.8836 119.656 18.6176 120.412 18.6176 121.476H20.4236C20.4236 120.762 20.5776 120.23 20.9276 119.852C21.2356 119.502 21.6696 119.32 22.2576 119.32C23.3216 119.32 23.9656 119.992 23.9656 120.986C23.9656 121.896 23.4196 122.372 22.4956 122.96C21.5156 123.604 20.3256 124.304 19.4856 125.242C18.8556 125.956 18.4636 126.782 18.4216 128ZM31.1952 128.238C33.7712 128.238 35.3532 126.194 35.3532 123.016C35.3532 119.796 33.7292 117.808 31.2092 117.808C28.7312 117.808 27.0652 119.824 27.0652 123.016C27.0652 126.194 28.6892 128.238 31.1952 128.238ZM31.2092 126.726C29.6692 126.726 28.9692 125.256 28.9692 123.016C28.9692 120.762 29.6692 119.292 31.2092 119.292C32.7632 119.292 33.4492 120.776 33.4492 123.016C33.4492 125.284 32.7912 126.726 31.2092 126.726Z" fill="#131313"/>
<circle cx="60" cy="174" r="6" fill="#131313"/>
<path d="M75.12 180H77.36V175.52H80.368C82.88 175.52 84.304 174.064 84.304 171.824C84.304 170.768 83.936 169.904 83.296 169.216C82.64 168.496 81.616 168.096 80.272 168.096H75.12V180ZM77.36 170H80.048C81.344 170 82.08 170.656 82.08 171.856C82.08 173.008 81.376 173.744 80.016 173.744H77.36V170ZM93.0875 180V171.456H91.0715V176.464C91.0715 177.648 90.3355 178.528 89.1835 178.528C88.1595 178.528 87.5835 177.936 87.5835 176.928V171.456H85.5515V177.216C85.5515 179.056 86.6395 180.224 88.5115 180.224C89.7115 180.224 90.4635 179.712 91.0875 178.784H91.1195V180H93.0875ZM99.5836 180.272C101.856 180.272 103.264 178.528 103.264 175.744C103.264 173.024 101.792 171.232 99.5996 171.232C98.3836 171.232 97.5196 171.824 96.9596 172.72H96.9116C96.9436 172.272 96.9756 171.584 96.9756 170.912V168.096H94.9436V180H96.9116V178.768H96.9596C97.4716 179.776 98.4476 180.272 99.5836 180.272ZM99.1516 178.608C97.6796 178.608 96.8956 177.408 96.8956 175.744C96.8956 174.112 97.5996 172.816 99.1516 172.816C100.512 172.816 101.2 174.048 101.2 175.728C101.2 177.44 100.512 178.608 99.1516 178.608ZM109.318 180.272C111.59 180.272 112.998 178.528 112.998 175.744C112.998 173.024 111.526 171.232 109.334 171.232C108.118 171.232 107.254 171.824 106.694 172.72H106.646C106.678 172.272 106.71 171.584 106.71 170.912V168.096H104.678V180H106.646V178.768H106.694C107.206 179.776 108.182 180.272 109.318 180.272ZM108.886 178.608C107.414 178.608 106.63 177.408 106.63 175.744C106.63 174.112 107.334 172.816 108.886 172.816C110.246 172.816 110.934 174.048 110.934 175.728C110.934 177.44 110.246 178.608 108.886 178.608ZM114.444 180H116.492V168.096H114.444V180ZM118.334 170.064H120.414V168.096H118.334V170.064ZM118.366 180H120.398V171.456H118.366V180ZM126.145 180.256C128.433 180.256 129.889 178.88 130.017 176.896H128.033C127.921 178.016 127.249 178.672 126.129 178.672C124.641 178.672 123.873 177.424 123.873 175.744C123.873 174.016 124.641 172.784 126.129 172.784C127.153 172.784 127.793 173.376 127.985 174.304H129.969C129.665 172.464 128.289 171.232 126.113 171.232C123.489 171.232 121.809 173.2 121.809 175.744C121.809 178.272 123.505 180.256 126.145 180.256ZM131.318 170.064H133.398V168.096H131.318V170.064ZM131.35 180H133.382V171.456H131.35V180ZM134.713 172.848H136.025V178.08C136.025 179.584 136.969 180.08 138.345 180.08C138.889 180.08 139.353 180.016 139.689 179.952V178.368H139.593C139.433 178.4 139.145 178.432 138.937 178.432C138.361 178.432 138.025 178.256 138.025 177.632V172.848H139.737V171.456H138.025V168.736H136.025V171.456H134.713V172.848ZM146.777 180H148.745V179.856C148.553 179.728 148.425 179.36 148.425 178.656V174.16C148.425 173.024 148.009 172.208 147.209 171.728C146.649 171.376 145.897 171.232 144.921 171.232C142.489 171.232 141.337 172.56 141.273 174.016H143.193C143.241 173.168 143.801 172.64 144.937 172.64C145.961 172.64 146.473 173.136 146.473 173.872C146.473 174.64 145.769 174.864 144.361 175.04C142.329 175.28 140.857 175.744 140.857 177.68C140.857 179.344 142.105 180.208 143.769 180.208C145.129 180.208 145.897 179.648 146.457 178.896H146.489C146.521 179.472 146.633 179.808 146.777 180ZM144.361 178.816C143.577 178.816 142.889 178.544 142.889 177.632C142.889 176.688 143.609 176.432 144.857 176.192C145.481 176.064 146.121 175.888 146.521 175.632V176.896C146.521 177.856 145.753 178.816 144.361 178.816ZM144.201 170.112H145.769L144.921 167.648H142.505L144.201 170.112ZM157.63 180.272C158.798 180.272 159.726 179.744 160.254 178.752H160.286V180H162.254V168.096H160.222V170.912C160.222 171.552 160.254 172.224 160.286 172.688H160.254C159.694 171.792 158.814 171.232 157.63 171.232C155.454 171.232 153.918 173.024 153.918 175.744C153.918 178.528 155.374 180.272 157.63 180.272ZM158.046 178.608C156.67 178.608 155.982 177.44 155.982 175.728C155.982 174.048 156.67 172.816 158.046 172.816C159.55 172.816 160.302 174.032 160.302 175.744C160.302 177.424 159.55 178.608 158.046 178.608ZM164.084 170.064H166.164V168.096H164.084V170.064ZM164.116 180H166.148V171.456H164.116V180ZM171.783 182.976C172.983 182.976 174.023 182.704 174.727 182.112C175.399 181.52 175.799 180.64 175.799 179.44V171.456H173.831V172.56H173.799C173.287 171.648 172.471 171.232 171.271 171.232C169.223 171.232 167.655 172.864 167.655 175.424C167.655 177.968 169.303 179.536 171.383 179.536C172.519 179.536 173.271 179.072 173.799 178.224H173.847C173.831 178.512 173.815 178.944 173.815 179.408V179.616C173.815 180.848 173.111 181.488 171.751 181.488C170.631 181.488 169.975 181.136 169.831 180.432H167.879C168.087 182.048 169.495 182.976 171.783 182.976ZM171.751 177.968C170.423 177.968 169.671 176.96 169.671 175.392C169.671 173.824 170.407 172.816 171.735 172.816C173.191 172.816 173.895 173.84 173.895 175.36C173.895 176.848 173.303 177.968 171.751 177.968ZM177.646 170.064H179.726V168.096H177.646V170.064ZM177.678 180H179.71V171.456H177.678V180ZM181.041 172.848H182.353V178.08C182.353 179.584 183.297 180.08 184.673 180.08C185.217 180.08 185.681 180.016 186.017 179.952V178.368H185.921C185.761 178.4 185.473 178.432 185.265 178.432C184.689 178.432 184.353 178.256 184.353 177.632V172.848H186.065V171.456H184.353V168.736H182.353V171.456H181.041V172.848ZM193.105 180H195.073V179.856C194.881 179.728 194.753 179.36 194.753 178.656V174.16C194.753 173.024 194.337 172.208 193.537 171.728C192.977 171.376 192.225 171.232 191.249 171.232C188.817 171.232 187.665 172.56 187.601 174.016H189.521C189.569 173.168 190.129 172.64 191.265 172.64C192.289 172.64 192.801 173.136 192.801 173.872C192.801 174.64 192.097 174.864 190.689 175.04C188.657 175.28 187.185 175.744 187.185 177.68C187.185 179.344 188.433 180.208 190.097 180.208C191.457 180.208 192.225 179.648 192.785 178.896H192.817C192.849 179.472 192.961 179.808 193.105 180ZM190.689 178.816C189.905 178.816 189.217 178.544 189.217 177.632C189.217 176.688 189.937 176.432 191.185 176.192C191.809 176.064 192.449 175.888 192.849 175.632V176.896C192.849 177.856 192.081 178.816 190.689 178.816ZM196.663 180H198.711V168.096H196.663V180ZM204.504 180.256C206.6 180.256 207.976 179.12 208.392 177.584H206.408C206.136 178.288 205.496 178.704 204.52 178.704C203.096 178.704 202.312 177.712 202.168 176.24H208.552C208.568 174.656 208.168 173.312 207.336 172.432C206.616 171.664 205.64 171.232 204.392 171.232C201.864 171.232 200.152 173.2 200.152 175.744C200.152 178.272 201.784 180.256 204.504 180.256ZM204.392 172.704C205.624 172.704 206.376 173.552 206.456 174.96H202.2C202.376 173.616 203.064 172.704 204.392 172.704Z" fill="#131313"/>
<circle cx="240" cy="174" r="6" fill="#99B2FB"/>
<circle cx="388" cy="174" r="6" fill="#6B93FB"/>
<circle cx="515" cy="174" r="6" fill="#4074FF"/>
<circle cx="744" cy="174" r="6" fill="#004FED"/>
<path d="M259.648 180.272C262.288 180.272 264.272 178.944 264.272 176.576C264.272 174 262.24 173.344 260.032 172.864C258.192 172.48 257.04 172.192 257.04 171.088C257.04 170.144 257.92 169.584 259.248 169.584C260.656 169.584 261.536 170.24 261.712 171.408H263.872C263.648 169.216 262.048 167.888 259.28 167.888C256.736 167.888 254.88 169.024 254.88 171.28C254.88 173.664 256.736 174.256 258.96 174.752C260.848 175.184 262.032 175.472 262.032 176.752C262.032 177.936 260.96 178.496 259.664 178.496C257.84 178.496 256.832 177.728 256.672 176.192H254.448C254.544 178.624 256.384 180.272 259.648 180.272ZM269.832 180.256C271.928 180.256 273.304 179.12 273.72 177.584H271.736C271.464 178.288 270.824 178.704 269.848 178.704C268.424 178.704 267.64 177.712 267.496 176.24H273.88C273.896 174.656 273.496 173.312 272.664 172.432C271.944 171.664 270.968 171.232 269.72 171.232C267.192 171.232 265.48 173.2 265.48 175.744C265.48 178.272 267.112 180.256 269.832 180.256ZM269.72 172.704C270.952 172.704 271.704 173.552 271.784 174.96H267.528C267.704 173.616 268.392 172.704 269.72 172.704ZM277.271 171.456H275.303V180H277.335V175.712C277.335 174.064 278.343 173.152 279.687 173.168C279.895 173.168 280.055 173.184 280.247 173.232H280.311V171.408C280.167 171.344 280.007 171.328 279.767 171.328C278.679 171.328 277.863 171.888 277.319 172.992H277.271V171.456ZM283.915 180H286.139L289.163 171.456H287.099L285.803 175.44C285.435 176.592 285.099 178.304 285.099 178.304H285.051C285.051 178.304 284.699 176.592 284.331 175.44L283.083 171.456H280.955L283.915 180ZM290.146 170.064H292.226V168.096H290.146V170.064ZM290.178 180H292.21V171.456H290.178V180ZM293.765 180H300.997V178.336H297.893C297.189 178.336 296.037 178.416 296.037 178.416V178.368C296.037 178.368 296.917 177.552 297.397 177.008L300.789 172.848V171.456H294.085V173.088H296.677C297.333 173.088 298.405 172.992 298.405 172.992V173.04C298.405 173.04 297.605 173.792 297.173 174.288L293.765 178.464V180ZM302.443 170.064H304.523V168.096H302.443V170.064ZM302.475 180H304.507V171.456H302.475V180ZM313.677 180.272C314.845 180.272 315.773 179.744 316.301 178.752H316.333V180H318.301V168.096H316.269V170.912C316.269 171.552 316.301 172.224 316.333 172.688H316.301C315.741 171.792 314.861 171.232 313.677 171.232C311.501 171.232 309.965 173.024 309.965 175.744C309.965 178.528 311.421 180.272 313.677 180.272ZM314.093 178.608C312.717 178.608 312.029 177.44 312.029 175.728C312.029 174.048 312.717 172.816 314.093 172.816C315.597 172.816 316.349 174.032 316.349 175.744C316.349 177.424 315.597 178.608 314.093 178.608ZM320.13 170.064H322.21V168.096H320.13V170.064ZM320.162 180H322.194V171.456H320.162V180ZM330.052 171.456H328.084V180H330.116V175.712C330.116 174.064 331.124 173.152 332.468 173.168C332.676 173.168 332.836 173.184 333.028 173.232H333.092V171.408C332.948 171.344 332.788 171.328 332.548 171.328C331.46 171.328 330.644 171.888 330.1 172.992H330.052V171.456ZM338.114 180.256C340.21 180.256 341.586 179.12 342.002 177.584H340.018C339.746 178.288 339.106 178.704 338.13 178.704C336.706 178.704 335.922 177.712 335.778 176.24H342.162C342.178 174.656 341.778 173.312 340.946 172.432C340.226 171.664 339.25 171.232 338.002 171.232C335.474 171.232 333.762 173.2 333.762 175.744C333.762 178.272 335.394 180.256 338.114 180.256ZM338.002 172.704C339.234 172.704 339.986 173.552 340.066 174.96H335.81C335.986 173.616 336.674 172.704 338.002 172.704ZM342.916 172.848H344.228V178.08C344.228 179.584 345.172 180.08 346.548 180.08C347.092 180.08 347.556 180.016 347.892 179.952V178.368H347.796C347.636 178.4 347.348 178.432 347.14 178.432C346.564 178.432 346.228 178.256 346.228 177.632V172.848H347.94V171.456H346.228V168.736H344.228V171.456H342.916V172.848ZM353.286 180.256C355.382 180.256 356.758 179.12 357.174 177.584H355.19C354.918 178.288 354.278 178.704 353.302 178.704C351.878 178.704 351.094 177.712 350.95 176.24H357.334C357.35 174.656 356.95 173.312 356.118 172.432C355.398 171.664 354.422 171.232 353.174 171.232C350.646 171.232 348.934 173.2 348.934 175.744C348.934 178.272 350.566 180.256 353.286 180.256ZM353.174 172.704C354.406 172.704 355.158 173.552 355.238 174.96H350.982C351.158 173.616 351.846 172.704 353.174 172.704Z" fill="#131313"/>
<path d="M408.398 180.272C411.038 180.272 413.022 178.944 413.022 176.576C413.022 174 410.99 173.344 408.782 172.864C406.942 172.48 405.79 172.192 405.79 171.088C405.79 170.144 406.67 169.584 407.998 169.584C409.406 169.584 410.286 170.24 410.462 171.408H412.622C412.398 169.216 410.798 167.888 408.03 167.888C405.486 167.888 403.63 169.024 403.63 171.28C403.63 173.664 405.486 174.256 407.71 174.752C409.598 175.184 410.782 175.472 410.782 176.752C410.782 177.936 409.71 178.496 408.414 178.496C406.59 178.496 405.582 177.728 405.422 176.192H403.198C403.294 178.624 405.134 180.272 408.398 180.272ZM418.582 180.256C420.678 180.256 422.054 179.12 422.47 177.584H420.486C420.214 178.288 419.574 178.704 418.598 178.704C417.174 178.704 416.39 177.712 416.246 176.24H422.63C422.646 174.656 422.246 173.312 421.414 172.432C420.694 171.664 419.718 171.232 418.47 171.232C415.942 171.232 414.23 173.2 414.23 175.744C414.23 178.272 415.862 180.256 418.582 180.256ZM418.47 172.704C419.702 172.704 420.454 173.552 420.534 174.96H416.278C416.454 173.616 417.142 172.704 418.47 172.704ZM426.021 171.456H424.053V180H426.085V175.712C426.085 174.064 427.093 173.152 428.437 173.168C428.645 173.168 428.805 173.184 428.997 173.232H429.061V171.408C428.917 171.344 428.757 171.328 428.517 171.328C427.429 171.328 426.613 171.888 426.069 172.992H426.021V171.456ZM432.665 180H434.889L437.913 171.456H435.849L434.553 175.44C434.185 176.592 433.849 178.304 433.849 178.304H433.801C433.801 178.304 433.449 176.592 433.081 175.44L431.833 171.456H429.705L432.665 180ZM438.896 170.064H440.976V168.096H438.896V170.064ZM438.928 180H440.96V171.456H438.928V180ZM442.515 180H449.747V178.336H446.643C445.939 178.336 444.787 178.416 444.787 178.416V178.368C444.787 178.368 445.667 177.552 446.147 177.008L449.539 172.848V171.456H442.835V173.088H445.427C446.083 173.088 447.155 172.992 447.155 172.992V173.04C447.155 173.04 446.355 173.792 445.923 174.288L442.515 178.464V180ZM451.193 170.064H453.273V168.096H451.193V170.064ZM451.225 180H453.257V171.456H451.225V180ZM459.339 180H461.563V168.096H459.339V180ZM469.071 180.256C470.671 180.256 471.887 179.808 472.751 178.944C473.583 178.144 474.143 176.944 474.191 175.76H471.967C471.839 177.2 470.863 178.384 469.087 178.384C466.959 178.384 465.599 176.608 465.599 174.08C465.599 171.6 466.799 169.744 469.071 169.744C470.639 169.744 471.647 170.64 471.855 171.92H474.063C473.919 170.672 473.343 169.6 472.383 168.848C471.567 168.224 470.447 167.872 469.087 167.872C465.551 167.872 463.343 170.544 463.343 174.08C463.343 177.648 465.631 180.256 469.071 180.256ZM474.886 170H478.598V180H480.822V170H484.55V168.096H474.886V170Z" fill="#131313"/>
<path d="M534.711 180.272C537.351 180.272 539.335 178.944 539.335 176.576C539.335 174 537.303 173.344 535.095 172.864C533.255 172.48 532.103 172.192 532.103 171.088C532.103 170.144 532.983 169.584 534.311 169.584C535.719 169.584 536.599 170.24 536.775 171.408H538.935C538.711 169.216 537.111 167.888 534.343 167.888C531.799 167.888 529.943 169.024 529.943 171.28C529.943 173.664 531.799 174.256 534.023 174.752C535.911 175.184 537.095 175.472 537.095 176.752C537.095 177.936 536.023 178.496 534.727 178.496C532.903 178.496 531.895 177.728 531.735 176.192H529.511C529.607 178.624 531.447 180.272 534.711 180.272ZM544.911 180.256C547.567 180.256 549.247 178.272 549.247 175.744C549.247 173.2 547.567 171.232 544.911 171.232C542.255 171.232 540.543 173.2 540.543 175.744C540.543 178.272 542.255 180.256 544.911 180.256ZM544.895 178.72C543.391 178.72 542.607 177.456 542.607 175.744C542.607 174.016 543.391 172.736 544.895 172.736C546.383 172.736 547.183 174.016 547.183 175.744C547.183 177.456 546.383 178.72 544.895 178.72ZM549.994 172.864H551.306V180H553.338V172.864H555.098V171.456H553.338V170.64C553.338 169.712 553.77 169.568 555.114 169.632V168.112C554.794 168.08 554.474 168.064 554.202 168.064C553.226 168.048 552.458 168.224 551.962 168.656C551.514 169.056 551.306 169.648 551.306 170.512V171.456H549.994V172.864ZM555.916 172.848H557.228V178.08C557.228 179.584 558.172 180.08 559.548 180.08C560.092 180.08 560.556 180.016 560.892 179.952V178.368H560.796C560.636 178.4 560.348 178.432 560.14 178.432C559.564 178.432 559.228 178.256 559.228 177.632V172.848H560.94V171.456H559.228V168.736H557.228V171.456H555.916V172.848ZM564.472 180H566.424L567.528 175.936C567.752 175.04 568.072 173.424 568.072 173.424H568.104C568.104 173.424 568.408 175.04 568.632 175.936L569.704 180H571.656L574.376 171.456H572.328L571.192 175.44C570.888 176.48 570.648 178.032 570.648 178.032H570.616C570.616 178.032 570.328 176.416 570.072 175.44L568.984 171.456H567.192L566.136 175.44C565.848 176.464 565.576 178.016 565.576 178.016H565.544C565.544 178.016 565.288 176.432 565.016 175.44L563.912 171.456H561.8L564.472 180ZM580.667 180H582.635V179.856C582.443 179.728 582.315 179.36 582.315 178.656V174.16C582.315 173.024 581.899 172.208 581.099 171.728C580.539 171.376 579.787 171.232 578.811 171.232C576.379 171.232 575.227 172.56 575.163 174.016H577.083C577.131 173.168 577.691 172.64 578.827 172.64C579.851 172.64 580.363 173.136 580.363 173.872C580.363 174.64 579.659 174.864 578.251 175.04C576.219 175.28 574.747 175.744 574.747 177.68C574.747 179.344 575.995 180.208 577.659 180.208C579.019 180.208 579.787 179.648 580.347 178.896H580.379C580.411 179.472 580.523 179.808 580.667 180ZM578.251 178.816C577.467 178.816 576.779 178.544 576.779 177.632C576.779 176.688 577.499 176.432 578.747 176.192C579.371 176.064 580.011 175.888 580.411 175.632V176.896C580.411 177.856 579.643 178.816 578.251 178.816ZM586.162 171.456H584.194V180H586.226V175.712C586.226 174.064 587.234 173.152 588.578 173.168C588.786 173.168 588.946 173.184 589.138 173.232H589.202V171.408C589.058 171.344 588.898 171.328 588.658 171.328C587.57 171.328 586.754 171.888 586.21 172.992H586.162V171.456ZM594.223 180.256C596.319 180.256 597.695 179.12 598.111 177.584H596.127C595.855 178.288 595.215 178.704 594.239 178.704C592.815 178.704 592.031 177.712 591.887 176.24H598.271C598.287 174.656 597.887 173.312 597.055 172.432C596.335 171.664 595.359 171.232 594.111 171.232C591.583 171.232 589.871 173.2 589.871 175.744C589.871 178.272 591.503 180.256 594.223 180.256ZM594.111 172.704C595.343 172.704 596.095 173.552 596.175 174.96H591.919C592.095 173.616 592.783 172.704 594.111 172.704ZM607.661 180.256C609.757 180.256 611.133 179.12 611.549 177.584H609.565C609.293 178.288 608.653 178.704 607.677 178.704C606.253 178.704 605.469 177.712 605.325 176.24H611.709C611.725 174.656 611.325 173.312 610.493 172.432C609.773 171.664 608.797 171.232 607.549 171.232C605.021 171.232 603.309 173.2 603.309 175.744C603.309 178.272 604.941 180.256 607.661 180.256ZM607.549 172.704C608.781 172.704 609.533 173.552 609.613 174.96H605.357C605.533 173.616 606.221 172.704 607.549 172.704ZM620.602 180.272C622.714 180.272 624.25 179.328 624.25 177.536C624.25 175.456 622.65 175.072 621.034 174.768C619.738 174.528 618.858 174.384 618.858 173.632C618.858 173.04 619.354 172.608 620.298 172.608C621.306 172.608 621.85 173.008 621.994 173.744H623.93C623.722 172.256 622.586 171.232 620.314 171.232C618.314 171.232 616.938 172.16 616.938 173.776C616.938 175.712 618.458 176.08 620.058 176.4C621.402 176.656 622.266 176.816 622.266 177.664C622.266 178.352 621.738 178.832 620.618 178.832C619.53 178.832 618.746 178.4 618.586 177.376H616.634C616.762 179.104 618.17 180.272 620.602 180.272ZM629.692 180.256C632.348 180.256 634.028 178.272 634.028 175.744C634.028 173.2 632.348 171.232 629.692 171.232C627.036 171.232 625.324 173.2 625.324 175.744C625.324 178.272 627.036 180.256 629.692 180.256ZM629.676 178.72C628.172 178.72 627.388 177.456 627.388 175.744C627.388 174.016 628.172 172.736 629.676 172.736C631.164 172.736 631.964 174.016 631.964 175.744C631.964 177.456 631.164 178.72 629.676 178.72ZM635.491 180H637.539V168.096H635.491V180ZM646.884 180V171.456H644.868V176.464C644.868 177.648 644.132 178.528 642.98 178.528C641.956 178.528 641.38 177.936 641.38 176.928V171.456H639.348V177.216C639.348 179.056 640.436 180.224 642.308 180.224C643.508 180.224 644.26 179.712 644.884 178.784H644.916V180H646.884ZM648.453 180H655.685V178.336H652.581C651.877 178.336 650.725 178.416 650.725 178.416V178.368C650.725 178.368 651.605 177.552 652.085 177.008L655.477 172.848V171.456H648.773V173.088H651.365C652.021 173.088 653.093 172.992 653.093 172.992V173.04C653.093 173.04 652.293 173.792 651.861 174.288L648.453 178.464V180ZM657.13 170.064H659.21V168.096H657.13V170.064ZM657.162 180H659.194V171.456H657.162V180ZM664.973 180.256C667.629 180.256 669.309 178.272 669.309 175.744C669.309 173.2 667.629 171.232 664.973 171.232C662.317 171.232 660.605 173.2 660.605 175.744C660.605 178.272 662.317 180.256 664.973 180.256ZM664.957 178.72C663.453 178.72 662.669 177.456 662.669 175.744C662.669 174.016 663.453 172.736 664.957 172.736C666.445 172.736 667.245 174.016 667.245 175.744C667.245 177.456 666.445 178.72 664.957 178.72ZM672.725 171.456H670.741V180H672.773V174.992C672.773 173.776 673.573 172.912 674.709 172.912C675.749 172.912 676.341 173.536 676.341 174.544V180H678.373V174.208C678.373 172.368 677.269 171.232 675.429 171.232C674.229 171.232 673.333 171.76 672.773 172.704H672.725V171.456ZM680.13 170.064H682.21V168.096H680.13V170.064ZM680.162 180H682.194V171.456H680.162V180ZM688.276 180H690.5V168.096H688.276V180ZM698.009 180.256C699.609 180.256 700.825 179.808 701.689 178.944C702.521 178.144 703.081 176.944 703.129 175.76H700.905C700.777 177.2 699.801 178.384 698.025 178.384C695.897 178.384 694.537 176.608 694.537 174.08C694.537 171.6 695.737 169.744 698.009 169.744C699.577 169.744 700.585 170.64 700.793 171.92H703.001C702.857 170.672 702.281 169.6 701.321 168.848C700.505 168.224 699.385 167.872 698.025 167.872C694.489 167.872 692.281 170.544 692.281 174.08C692.281 177.648 694.569 180.256 698.009 180.256ZM703.823 170H707.535V180H709.759V170H713.487V168.096H703.823V170Z" fill="#131313"/>
<path d="M759.136 180H763.696C767.296 180 769.232 177.664 769.232 174.112C769.232 170.496 767.264 168.096 763.824 168.096H759.136V180ZM761.36 178.112V169.984H763.616C765.952 169.984 766.96 171.632 766.96 174.112C766.96 176.608 765.904 178.112 763.552 178.112H761.36ZM770.755 170.064H772.835V168.096H770.755V170.064ZM770.787 180H772.819V171.456H770.787V180ZM778.086 180.272C780.198 180.272 781.734 179.328 781.734 177.536C781.734 175.456 780.134 175.072 778.518 174.768C777.222 174.528 776.342 174.384 776.342 173.632C776.342 173.04 776.838 172.608 777.782 172.608C778.79 172.608 779.334 173.008 779.478 173.744H781.414C781.206 172.256 780.07 171.232 777.798 171.232C775.798 171.232 774.422 172.16 774.422 173.776C774.422 175.712 775.942 176.08 777.542 176.4C778.886 176.656 779.75 176.816 779.75 177.664C779.75 178.352 779.222 178.832 778.102 178.832C777.014 178.832 776.23 178.4 776.07 177.376H774.118C774.246 179.104 775.654 180.272 778.086 180.272ZM783.162 182.864H785.194V180.576C785.194 179.776 785.162 179.232 785.13 178.912H785.178C785.706 179.776 786.634 180.272 787.77 180.272C790.074 180.272 791.514 178.496 791.514 175.744C791.514 173.024 790.058 171.232 787.834 171.232C786.634 171.232 785.786 171.744 785.178 172.72H785.13V171.456H783.162V182.864ZM787.386 178.656C785.818 178.656 785.114 177.408 785.114 175.792C785.114 174.176 785.834 172.88 787.37 172.88C788.762 172.88 789.45 174.096 789.45 175.792C789.45 177.472 788.73 178.656 787.386 178.656ZM796.88 180.256C799.536 180.256 801.216 178.272 801.216 175.744C801.216 173.2 799.536 171.232 796.88 171.232C794.224 171.232 792.512 173.2 792.512 175.744C792.512 178.272 794.224 180.256 796.88 180.256ZM796.864 178.72C795.36 178.72 794.576 177.456 794.576 175.744C794.576 174.016 795.36 172.736 796.864 172.736C798.352 172.736 799.152 174.016 799.152 175.744C799.152 177.456 798.352 178.72 796.864 178.72ZM806.071 180.272C808.183 180.272 809.719 179.328 809.719 177.536C809.719 175.456 808.119 175.072 806.503 174.768C805.207 174.528 804.327 174.384 804.327 173.632C804.327 173.04 804.823 172.608 805.767 172.608C806.775 172.608 807.319 173.008 807.463 173.744H809.399C809.191 172.256 808.055 171.232 805.783 171.232C803.783 171.232 802.407 172.16 802.407 173.776C802.407 175.712 803.927 176.08 805.527 176.4C806.871 176.656 807.735 176.816 807.735 177.664C807.735 178.352 807.207 178.832 806.087 178.832C804.999 178.832 804.215 178.4 804.055 177.376H802.103C802.231 179.104 803.639 180.272 806.071 180.272ZM811.115 170.064H813.195V168.096H811.115V170.064ZM811.147 180H813.179V171.456H811.147V180ZM814.51 172.848H815.822V178.08C815.822 179.584 816.766 180.08 818.142 180.08C818.686 180.08 819.15 180.016 819.486 179.952V178.368H819.39C819.23 178.4 818.942 178.432 818.734 178.432C818.158 178.432 817.822 178.256 817.822 177.632V172.848H819.534V171.456H817.822V168.736H815.822V171.456H814.51V172.848ZM820.927 170.064H823.007V168.096H820.927V170.064ZM820.959 180H822.991V171.456H820.959V180ZM826.946 180H829.17L832.194 171.456H830.13L828.834 175.44C828.466 176.592 828.13 178.304 828.13 178.304H828.082C828.082 178.304 827.73 176.592 827.362 175.44L826.114 171.456H823.986L826.946 180ZM833.177 170.064H835.257V168.096H833.177V170.064ZM833.209 180H835.241V171.456H833.209V180ZM845.051 180.256C847.147 180.256 848.523 179.12 848.939 177.584H846.955C846.683 178.288 846.043 178.704 845.067 178.704C843.643 178.704 842.859 177.712 842.715 176.24H849.099C849.115 174.656 848.715 173.312 847.883 172.432C847.163 171.664 846.187 171.232 844.939 171.232C842.411 171.232 840.699 173.2 840.699 175.744C840.699 178.272 842.331 180.256 845.051 180.256ZM844.939 172.704C846.171 172.704 846.923 173.552 847.003 174.96H842.747C842.923 173.616 843.611 172.704 844.939 172.704ZM857.993 180.272C860.105 180.272 861.641 179.328 861.641 177.536C861.641 175.456 860.041 175.072 858.425 174.768C857.129 174.528 856.249 174.384 856.249 173.632C856.249 173.04 856.745 172.608 857.689 172.608C858.697 172.608 859.241 173.008 859.385 173.744H861.321C861.113 172.256 859.977 171.232 857.705 171.232C855.705 171.232 854.329 172.16 854.329 173.776C854.329 175.712 855.849 176.08 857.449 176.4C858.793 176.656 859.657 176.816 859.657 177.664C859.657 178.352 859.129 178.832 858.009 178.832C856.921 178.832 856.137 178.4 855.977 177.376H854.025C854.153 179.104 855.561 180.272 857.993 180.272ZM863.037 170.064H865.117V168.096H863.037V170.064ZM863.069 180H865.101V171.456H863.069V180ZM870.368 180.272C872.48 180.272 874.016 179.328 874.016 177.536C874.016 175.456 872.416 175.072 870.8 174.768C869.504 174.528 868.624 174.384 868.624 173.632C868.624 173.04 869.12 172.608 870.064 172.608C871.072 172.608 871.616 173.008 871.76 173.744H873.696C873.488 172.256 872.352 171.232 870.08 171.232C868.08 171.232 866.704 172.16 866.704 173.776C866.704 175.712 868.224 176.08 869.824 176.4C871.168 176.656 872.032 176.816 872.032 177.664C872.032 178.352 871.504 178.832 870.384 178.832C869.296 178.832 868.512 178.4 868.352 177.376H866.4C866.528 179.104 867.936 180.272 870.368 180.272ZM874.697 172.848H876.009V178.08C876.009 179.584 876.953 180.08 878.329 180.08C878.873 180.08 879.337 180.016 879.673 179.952V178.368H879.577C879.417 178.4 879.129 178.432 878.921 178.432C878.345 178.432 878.009 178.256 878.009 177.632V172.848H879.721V171.456H878.009V168.736H876.009V171.456H874.697V172.848ZM885.067 180.256C887.163 180.256 888.539 179.12 888.955 177.584H886.971C886.699 178.288 886.059 178.704 885.083 178.704C883.659 178.704 882.875 177.712 882.731 176.24H889.115C889.131 174.656 888.731 173.312 887.899 172.432C887.179 171.664 886.203 171.232 884.955 171.232C882.427 171.232 880.715 173.2 880.715 175.744C880.715 178.272 882.347 180.256 885.067 180.256ZM884.955 172.704C886.187 172.704 886.939 173.552 887.019 174.96H882.763C882.939 173.616 883.627 172.704 884.955 172.704ZM890.537 180H892.569V174.944C892.569 173.744 893.401 172.912 894.345 172.912C895.193 172.912 895.689 173.504 895.689 174.48V180H897.721V174.944C897.721 173.744 898.457 172.912 899.449 172.912C900.281 172.912 900.841 173.504 900.841 174.48V180H902.873V174.208C902.873 172.368 901.849 171.232 900.105 171.232C899.049 171.232 898.089 171.728 897.417 172.832H897.385C897.001 171.776 896.185 171.232 895.113 171.232C893.945 171.232 893.097 171.792 892.553 172.752H892.505V171.456H890.537V180ZM904.63 170.064H906.71V168.096H904.63V170.064ZM904.662 180H906.694V171.456H904.662V180Z" fill="#131313"/>
<path opacity="0.9" fill-rule="evenodd" clip-rule="evenodd" d="M720 76.9988C720 70.9816 715.169 66.0928 709.173 66.0002L844 65.999C850.075 65.999 855 70.9238 855 76.999C855 83.074 850.075 87.9988 844 87.9989L707 88.0001V87.9988H709C715.075 87.9988 720 83.0739 720 76.9988Z" fill="#004FED"/>
<path opacity="0.9" fill-rule="evenodd" clip-rule="evenodd" d="M466 87.9999L478 87.9999C484.075 87.9999 489 83.0751 489 77C489 70.9249 484.075 66 478 66L466 66L709 66C715.075 66 720 70.9249 720 77C720 83.0751 715.075 88 709 88L466 88L466 87.9999Z" fill="#4074FF"/>
<path opacity="0.9" fill-rule="evenodd" clip-rule="evenodd" d="M341.05 87.9998L478 87.9999C484.075 87.9999 489 83.0751 489 77C489 70.9249 484.075 66 478 66L341 66C347.075 66 352 70.9249 352 77C352 83.0584 347.102 87.9728 341.05 87.9998Z" fill="#6B93FB"/>
<path opacity="0.9" fill-rule="evenodd" clip-rule="evenodd" d="M255.04 87.9999C261.097 87.9782 266 83.0617 266 77.0001C266 70.925 261.075 66.0002 255 66.0002L234 66L341 66.0001C347.075 66.0001 352 70.9249 352 77C352 83.0752 347.075 88 341 88L255.04 87.9999Z" fill="#99B2FB"/>
<path opacity="0.9" d="M266 77.0001C266 83.0752 261.075 88 255 88L55 87.9998L55 66L255 66.0002C261.075 66.0002 266 70.925 266 77.0001Z" fill="#131313"/>
<path opacity="0.9" fill-rule="evenodd" clip-rule="evenodd" d="M701 20L831 20C837.075 20 842 24.9249 842 31C842 37.0751 837.075 42 831 42L706.016 42C712.084 41.9915 717 37.0699 717 31C717 24.9249 712.075 20 706 20L701 20Z" fill="#004FED"/>
<path opacity="0.9" fill-rule="evenodd" clip-rule="evenodd" d="M706 42C712.075 42 717 37.0751 717 31C717 24.9249 712.075 20 706 20L461 20L461 20.0001L463 20.0001C469.075 20.0001 474 24.925 474 31.0001C474 37.0694 469.084 41.9907 463.017 42L706 42Z" fill="#4074FF"/>
<path opacity="0.9" fill-rule="evenodd" clip-rule="evenodd" d="M462.99 42C469.066 42 473.99 37.0752 473.99 31.0001C473.99 24.925 469.066 20.0001 462.99 20.0001L333 20C339.071 20.0052 343.99 24.9281 343.99 31C343.99 37.0581 339.093 41.9724 333.041 41.9999L462.99 42Z" fill="#6B93FB"/>
<path opacity="0.9" fill-rule="evenodd" clip-rule="evenodd" d="M254.012 42C260.082 41.9933 265 37.071 265 31C265 24.9249 260.075 20 254 20L244 20L333 20C339.075 20 344 24.9249 344 31C344 37.0751 339.075 42 333 42L254.012 42Z" fill="#98AEFF"/>
<path opacity="0.9" d="M265 31C265 37.0751 260.075 42 254 42L55 42L55 20L254 20C260.075 20 265 24.9249 265 31Z" fill="#131313"/>
<path opacity="0.9" fill-rule="evenodd" clip-rule="evenodd" d="M839 133C845.075 133 850 128.075 850 122C850 115.925 845.075 111 839 111L693 111L693 111L699 111C705.075 111 710 115.925 710 122C710 128.075 705.075 133 699 133L693 133L693 133L839 133Z" fill="#004FED"/>
<path opacity="0.9" fill-rule="evenodd" clip-rule="evenodd" d="M699 133C705.075 133 710 128.075 710 122C710 115.925 705.075 111 699 111L483 111L469 111L469 111L483 111C489.075 111 494 115.925 494 122C494 128.054 489.109 132.966 483.064 133L699 133Z" fill="#4074FF"/>
<path opacity="0.9" fill-rule="evenodd" clip-rule="evenodd" d="M343.046 133C349.094 132.969 353.988 128.056 353.988 122C353.988 115.929 349.07 111.007 343.001 111L482.988 111C489.063 111 493.988 115.925 493.988 122C493.988 128.075 489.063 133 482.988 133L343.046 133Z" fill="#6B93FB"/>
<path opacity="0.9" fill-rule="evenodd" clip-rule="evenodd" d="M343 133C349.075 133 354 128.075 354 122C354 115.925 349.075 111 343 111L242 111L242 111.001L259.741 111.001C265.816 111.001 270.74 115.925 270.74 121.999C270.74 128.074 265.816 132.998 259.741 132.998L242 132.998L242 133L343 133Z" fill="#9AB6F8"/>
<path opacity="0.9" d="M270.741 121.998C270.741 128.073 265.817 132.997 259.742 132.997L55.0005 132.997L55.0005 111L259.742 111C265.817 111 270.741 115.924 270.741 121.998Z" fill="#131313"/>
<path d="M221.135 82H222.983V71.948H221.541C221.317 73.362 220.197 73.908 218.825 73.95V75.182H221.135V82ZM228.527 82.238C229.689 82.238 230.599 81.874 231.243 81.202C232.139 80.306 232.503 78.836 232.503 77.002C232.503 74.944 232.097 73.544 231.061 72.69C230.417 72.144 229.535 71.808 228.457 71.808C226.287 71.808 224.705 73.292 224.705 75.28C224.705 77.282 226.259 78.738 228.191 78.738C229.297 78.738 230.123 78.248 230.739 77.45H230.767C230.711 78.682 230.501 79.55 230.081 80.082C229.703 80.6 229.185 80.838 228.485 80.838C227.421 80.838 226.861 80.208 226.735 79.578H224.929C225.111 81.048 226.469 82.238 228.527 82.238ZM228.485 77.324C227.295 77.324 226.441 76.456 226.441 75.266C226.441 74.076 227.281 73.222 228.499 73.222C229.675 73.222 230.585 74.062 230.585 75.266C230.585 76.484 229.745 77.324 228.485 77.324ZM233.663 82H235.609V80.054H233.663V82ZM237.855 82H239.703V71.948H238.261C238.037 73.362 236.917 73.908 235.545 73.95V75.182H237.855V82ZM241.355 82H248.691V80.404H243.763V80.334C244.365 79.326 245.807 78.64 246.843 77.842C247.935 77.114 248.775 76.414 248.775 74.944C248.775 73.166 247.473 71.822 245.289 71.822C243.959 71.822 242.937 72.27 242.335 73.012C241.817 73.656 241.551 74.412 241.551 75.476H243.357C243.357 74.762 243.511 74.23 243.861 73.852C244.169 73.502 244.603 73.32 245.191 73.32C246.255 73.32 246.899 73.992 246.899 74.986C246.899 75.896 246.353 76.372 245.429 76.96C244.449 77.604 243.259 78.304 242.419 79.242C241.789 79.956 241.397 80.782 241.355 82ZM254.527 82H256.319V79.662H257.859V78.276H256.319V71.92H254.639L249.781 78.024V79.662H254.527V82ZM251.097 78.346V78.318C251.097 78.318 251.811 77.562 252.217 77.072L253.645 75.266C254.051 74.748 254.569 73.922 254.569 73.922H254.597C254.597 73.922 254.527 74.86 254.527 75.42V78.276H252.553C251.993 78.276 251.097 78.346 251.097 78.346Z" fill="white"/>
<path d="M308.093 82H310.039C310.193 78.304 311.985 75.252 313.889 73.474V72.032H306.707V73.614H309.955C311.047 73.614 312.083 73.544 312.083 73.544V73.572C310.151 75.21 308.275 78.444 308.093 82ZM313.987 82H315.933V80.054H313.987V82ZM321 82.238C323.086 82.238 324.682 80.74 324.668 78.738C324.654 76.764 323.114 75.294 321.238 75.294C320.09 75.294 319.264 75.77 318.662 76.694H318.634C318.718 74.44 319.432 73.194 321.014 73.194C321.994 73.194 322.484 73.81 322.596 74.384H324.388C324.15 73.026 323.03 71.808 320.986 71.808C319.628 71.808 318.662 72.284 317.962 73.152C317.22 74.09 316.87 75.434 316.884 77.016C316.884 78.794 317.248 80.124 318.13 81.062C318.788 81.79 319.74 82.238 321 82.238ZM320.944 80.824C319.754 80.824 318.83 79.97 318.83 78.766C318.83 77.548 319.684 76.722 320.93 76.722C322.064 76.722 322.932 77.562 322.932 78.78C322.932 79.97 322.078 80.824 320.944 80.824ZM329.523 82.238C330.685 82.238 331.595 81.874 332.239 81.202C333.135 80.306 333.499 78.836 333.499 77.002C333.499 74.944 333.093 73.544 332.057 72.69C331.413 72.144 330.531 71.808 329.453 71.808C327.283 71.808 325.701 73.292 325.701 75.28C325.701 77.282 327.255 78.738 329.187 78.738C330.293 78.738 331.119 78.248 331.735 77.45H331.763C331.707 78.682 331.497 79.55 331.077 80.082C330.699 80.6 330.181 80.838 329.481 80.838C328.417 80.838 327.857 80.208 327.731 79.578H325.925C326.107 81.048 327.465 82.238 329.523 82.238ZM329.481 77.324C328.291 77.324 327.437 76.456 327.437 75.266C327.437 74.076 328.277 73.222 329.495 73.222C330.671 73.222 331.581 74.062 331.581 75.266C331.581 76.484 330.741 77.324 329.481 77.324ZM339.527 82H341.319V79.662H342.859V78.276H341.319V71.92H339.639L334.781 78.024V79.662H339.527V82ZM336.097 78.346V78.318C336.097 78.318 336.811 77.562 337.217 77.072L338.645 75.266C339.051 74.748 339.569 73.922 339.569 73.922H339.597C339.597 73.922 339.527 74.86 339.527 75.42V78.276H337.553C336.993 78.276 336.097 78.346 336.097 78.346Z" fill="white"/>
<path d="M438.719 82H440.567V71.948H439.125C438.901 73.362 437.781 73.908 436.409 73.95V75.182H438.719V82ZM442.219 82H449.555V80.404H444.627V80.334C445.229 79.326 446.671 78.64 447.707 77.842C448.799 77.114 449.639 76.414 449.639 74.944C449.639 73.166 448.337 71.822 446.153 71.822C444.823 71.822 443.801 72.27 443.199 73.012C442.681 73.656 442.415 74.412 442.415 75.476H444.221C444.221 74.762 444.375 74.23 444.725 73.852C445.033 73.502 445.467 73.32 446.055 73.32C447.119 73.32 447.763 73.992 447.763 74.986C447.763 75.896 447.217 76.372 446.293 76.96C445.313 77.604 444.123 78.304 443.283 79.242C442.653 79.956 442.261 80.782 442.219 82ZM450.864 82H452.81V80.054H450.864V82ZM457.952 82.238C460.01 82.238 461.718 81.202 461.718 79.172C461.718 77.856 461.032 77.016 459.716 76.652V76.624C460.724 76.288 461.396 75.658 461.396 74.58C461.396 72.844 459.898 71.808 457.896 71.808C455.544 71.808 454.186 73.18 454.158 75.028H455.908C455.936 74.034 456.594 73.208 457.854 73.208C458.848 73.208 459.576 73.754 459.576 74.65C459.576 75.56 458.89 76.092 457.644 76.092H457.07V77.422H457.686C459.058 77.422 459.842 77.968 459.842 79.032C459.842 80.166 459.072 80.768 457.882 80.768C456.426 80.768 455.67 79.942 455.614 78.738H453.85C453.864 79.816 454.284 80.74 455.04 81.356C455.768 81.93 456.734 82.238 457.952 82.238ZM466.982 82.238C469.558 82.238 471.14 80.194 471.14 77.016C471.14 73.796 469.516 71.808 466.996 71.808C464.518 71.808 462.852 73.824 462.852 77.016C462.852 80.194 464.476 82.238 466.982 82.238ZM466.996 80.726C465.456 80.726 464.756 79.256 464.756 77.016C464.756 74.762 465.456 73.292 466.996 73.292C468.55 73.292 469.236 74.776 469.236 77.016C469.236 79.284 468.578 80.726 466.996 80.726ZM472.105 82H479.441V80.404H474.513V80.334C475.115 79.326 476.557 78.64 477.593 77.842C478.685 77.114 479.525 76.414 479.525 74.944C479.525 73.166 478.223 71.822 476.039 71.822C474.709 71.822 473.687 72.27 473.085 73.012C472.567 73.656 472.301 74.412 472.301 75.476H474.107C474.107 74.762 474.261 74.23 474.611 73.852C474.919 73.502 475.353 73.32 475.941 73.32C477.005 73.32 477.649 73.992 477.649 74.986C477.649 75.896 477.103 76.372 476.179 76.96C475.199 77.604 474.009 78.304 473.169 79.242C472.539 79.956 472.147 80.782 472.105 82Z" fill="white"/>
<path d="M668.146 82H675.482V80.404H670.554V80.334C671.156 79.326 672.598 78.64 673.634 77.842C674.726 77.114 675.566 76.414 675.566 74.944C675.566 73.166 674.264 71.822 672.08 71.822C670.75 71.822 669.728 72.27 669.126 73.012C668.608 73.656 668.342 74.412 668.342 75.476H670.148C670.148 74.762 670.302 74.23 670.652 73.852C670.96 73.502 671.394 73.32 671.982 73.32C673.046 73.32 673.69 73.992 673.69 74.986C673.69 75.896 673.144 76.372 672.22 76.96C671.24 77.604 670.05 78.304 669.21 79.242C668.58 79.956 668.188 80.782 668.146 82ZM680.92 82.238C683.496 82.238 685.078 80.194 685.078 77.016C685.078 73.796 683.454 71.808 680.934 71.808C678.456 71.808 676.79 73.824 676.79 77.016C676.79 80.194 678.414 82.238 680.92 82.238ZM680.934 80.726C679.394 80.726 678.694 79.256 678.694 77.016C678.694 74.762 679.394 73.292 680.934 73.292C682.488 73.292 683.174 74.776 683.174 77.016C683.174 79.284 682.516 80.726 680.934 80.726ZM686.102 82H688.048V80.054H686.102V82ZM690.175 82H692.121C692.275 78.304 694.067 75.252 695.971 73.474V72.032H688.789V73.614H692.037C693.129 73.614 694.165 73.544 694.165 73.544V73.572C692.233 75.21 690.357 78.444 690.175 82ZM699.127 82H700.975V71.948H699.533C699.309 73.362 698.189 73.908 696.817 73.95V75.182H699.127V82ZM706.631 82.238C708.787 82.238 710.579 81.216 710.579 79.116C710.579 77.87 709.823 76.918 708.521 76.582V76.54C709.571 76.19 710.117 75.434 710.117 74.468C710.117 72.83 708.689 71.808 706.603 71.808C704.531 71.808 703.089 72.872 703.089 74.496C703.089 75.476 703.635 76.218 704.699 76.568V76.61C703.425 76.974 702.627 77.87 702.627 79.158C702.627 81.216 704.475 82.238 706.631 82.238ZM706.603 75.994C705.497 75.994 704.839 75.448 704.839 74.58C704.839 73.712 705.497 73.152 706.603 73.152C707.709 73.152 708.353 73.712 708.353 74.58C708.353 75.448 707.709 75.994 706.603 75.994ZM706.631 80.81C705.301 80.81 704.503 80.152 704.503 79.074C704.503 77.968 705.301 77.268 706.617 77.268C707.933 77.268 708.717 77.968 708.717 79.074C708.717 80.138 707.905 80.81 706.631 80.81Z" fill="white"/>
<path d="M805.773 82H807.621V71.948H806.179C805.955 73.362 804.835 73.908 803.463 73.95V75.182H805.773V82ZM809.273 82H816.609V80.404H811.681V80.334C812.283 79.326 813.725 78.64 814.761 77.842C815.853 77.114 816.693 76.414 816.693 74.944C816.693 73.166 815.391 71.822 813.207 71.822C811.877 71.822 810.855 72.27 810.253 73.012C809.735 73.656 809.469 74.412 809.469 75.476H811.275C811.275 74.762 811.429 74.23 811.779 73.852C812.087 73.502 812.521 73.32 813.109 73.32C814.173 73.32 814.817 73.992 814.817 74.986C814.817 75.896 814.271 76.372 813.347 76.96C812.367 77.604 811.177 78.304 810.337 79.242C809.707 79.956 809.315 80.782 809.273 82ZM817.918 82H819.864V80.054H817.918V82ZM825.014 82.238C827.59 82.238 829.172 80.194 829.172 77.016C829.172 73.796 827.548 71.808 825.028 71.808C822.55 71.808 820.884 73.824 820.884 77.016C820.884 80.194 822.508 82.238 825.014 82.238ZM825.028 80.726C823.488 80.726 822.788 79.256 822.788 77.016C822.788 74.762 823.488 73.292 825.028 73.292C826.582 73.292 827.268 74.776 827.268 77.016C827.268 79.284 826.61 80.726 825.028 80.726ZM834.165 82.238C835.327 82.238 836.237 81.874 836.881 81.202C837.777 80.306 838.141 78.836 838.141 77.002C838.141 74.944 837.735 73.544 836.699 72.69C836.055 72.144 835.173 71.808 834.095 71.808C831.925 71.808 830.343 73.292 830.343 75.28C830.343 77.282 831.897 78.738 833.829 78.738C834.935 78.738 835.761 78.248 836.377 77.45H836.405C836.349 78.682 836.139 79.55 835.719 80.082C835.341 80.6 834.823 80.838 834.123 80.838C833.059 80.838 832.499 80.208 832.373 79.578H830.567C830.749 81.048 832.107 82.238 834.165 82.238ZM834.123 77.324C832.933 77.324 832.079 76.456 832.079 75.266C832.079 74.076 832.919 73.222 834.137 73.222C835.313 73.222 836.223 74.062 836.223 75.266C836.223 76.484 835.383 77.324 834.123 77.324ZM839.105 82H846.441V80.404H841.513V80.334C842.115 79.326 843.557 78.64 844.593 77.842C845.685 77.114 846.525 76.414 846.525 74.944C846.525 73.166 845.223 71.822 843.039 71.822C841.709 71.822 840.687 72.27 840.085 73.012C839.567 73.656 839.301 74.412 839.301 75.476H841.107C841.107 74.762 841.261 74.23 841.611 73.852C841.919 73.502 842.353 73.32 842.941 73.32C844.005 73.32 844.649 73.992 844.649 74.986C844.649 75.896 844.103 76.372 843.179 76.96C842.199 77.604 841.009 78.304 840.169 79.242C839.539 79.956 839.147 80.782 839.105 82Z" fill="white"/>
<path d="M213.424 37H215.272V26.948H213.83C213.606 28.362 212.486 28.908 211.114 28.95V30.182H213.424V37ZM220.928 37.238C223.084 37.238 224.876 36.216 224.876 34.116C224.876 32.87 224.12 31.918 222.818 31.582V31.54C223.868 31.19 224.414 30.434 224.414 29.468C224.414 27.83 222.986 26.808 220.9 26.808C218.828 26.808 217.386 27.872 217.386 29.496C217.386 30.476 217.932 31.218 218.996 31.568V31.61C217.722 31.974 216.924 32.87 216.924 34.158C216.924 36.216 218.772 37.238 220.928 37.238ZM220.9 30.994C219.794 30.994 219.136 30.448 219.136 29.58C219.136 28.712 219.794 28.152 220.9 28.152C222.006 28.152 222.65 28.712 222.65 29.58C222.65 30.448 222.006 30.994 220.9 30.994ZM220.928 35.81C219.598 35.81 218.8 35.152 218.8 34.074C218.8 32.968 219.598 32.268 220.914 32.268C222.23 32.268 223.014 32.968 223.014 34.074C223.014 35.138 222.202 35.81 220.928 35.81ZM226.047 37H227.993V35.054H226.047V37ZM233.164 37.238C235.32 37.238 237.112 36.216 237.112 34.116C237.112 32.87 236.356 31.918 235.054 31.582V31.54C236.104 31.19 236.65 30.434 236.65 29.468C236.65 27.83 235.222 26.808 233.136 26.808C231.064 26.808 229.622 27.872 229.622 29.496C229.622 30.476 230.168 31.218 231.232 31.568V31.61C229.958 31.974 229.16 32.87 229.16 34.158C229.16 36.216 231.008 37.238 233.164 37.238ZM233.136 30.994C232.03 30.994 231.372 30.448 231.372 29.58C231.372 28.712 232.03 28.152 233.136 28.152C234.242 28.152 234.886 28.712 234.886 29.58C234.886 30.448 234.242 30.994 233.136 30.994ZM233.164 35.81C231.834 35.81 231.036 35.152 231.036 34.074C231.036 32.968 231.834 32.268 233.15 32.268C234.466 32.268 235.25 32.968 235.25 34.074C235.25 35.138 234.438 35.81 233.164 35.81ZM242.275 37.238C244.851 37.238 246.433 35.194 246.433 32.016C246.433 28.796 244.809 26.808 242.289 26.808C239.811 26.808 238.145 28.824 238.145 32.016C238.145 35.194 239.769 37.238 242.275 37.238ZM242.289 35.726C240.749 35.726 240.049 34.256 240.049 32.016C240.049 29.762 240.749 28.292 242.289 28.292C243.843 28.292 244.529 29.776 244.529 32.016C244.529 34.284 243.871 35.726 242.289 35.726ZM251.791 37.238C253.877 37.238 255.473 35.74 255.459 33.738C255.445 31.764 253.905 30.294 252.029 30.294C250.881 30.294 250.055 30.77 249.453 31.694H249.425C249.509 29.44 250.223 28.194 251.805 28.194C252.785 28.194 253.275 28.81 253.387 29.384H255.179C254.941 28.026 253.821 26.808 251.777 26.808C250.419 26.808 249.453 27.284 248.753 28.152C248.011 29.09 247.661 30.434 247.675 32.016C247.675 33.794 248.039 35.124 248.921 36.062C249.579 36.79 250.531 37.238 251.791 37.238ZM251.735 35.824C250.545 35.824 249.621 34.97 249.621 33.766C249.621 32.548 250.475 31.722 251.721 31.722C252.855 31.722 253.723 32.562 253.723 33.78C253.723 34.97 252.869 35.824 251.735 35.824Z" fill="white"/>
<path d="M305.199 36H307.145C307.299 32.304 309.091 29.252 310.995 27.474V26.032H303.813V27.614H307.061C308.153 27.614 309.189 27.544 309.189 27.544V27.572C307.257 29.21 305.381 32.444 305.199 36ZM311.092 36H313.038V34.054H311.092V36ZM315.285 36H317.133V25.948H315.691C315.467 27.362 314.347 27.908 312.975 27.95V29.182H315.285V36ZM322.761 36.238C324.819 36.238 326.527 35.202 326.527 33.172C326.527 31.856 325.841 31.016 324.525 30.652V30.624C325.533 30.288 326.205 29.658 326.205 28.58C326.205 26.844 324.707 25.808 322.705 25.808C320.353 25.808 318.995 27.18 318.967 29.028H320.717C320.745 28.034 321.403 27.208 322.663 27.208C323.657 27.208 324.385 27.754 324.385 28.65C324.385 29.56 323.699 30.092 322.453 30.092H321.879V31.422H322.495C323.867 31.422 324.651 31.968 324.651 33.032C324.651 34.166 323.881 34.768 322.691 34.768C321.235 34.768 320.479 33.942 320.423 32.738H318.659C318.673 33.816 319.093 34.74 319.849 35.356C320.577 35.93 321.543 36.238 322.761 36.238ZM331.791 36.238C333.877 36.238 335.473 34.74 335.459 32.738C335.445 30.764 333.905 29.294 332.029 29.294C330.881 29.294 330.055 29.77 329.453 30.694H329.425C329.509 28.44 330.223 27.194 331.805 27.194C332.785 27.194 333.275 27.81 333.387 28.384H335.179C334.941 27.026 333.821 25.808 331.777 25.808C330.419 25.808 329.453 26.284 328.753 27.152C328.011 28.09 327.661 29.434 327.675 31.016C327.675 32.794 328.039 34.124 328.921 35.062C329.579 35.79 330.531 36.238 331.791 36.238ZM331.735 34.824C330.545 34.824 329.621 33.97 329.621 32.766C329.621 31.548 330.475 30.722 331.721 30.722C332.855 30.722 333.723 31.562 333.723 32.78C333.723 33.97 332.869 34.824 331.735 34.824Z" fill="white"/>
<path d="M428.414 36H430.262V25.948H428.82C428.596 27.362 427.476 27.908 426.104 27.95V29.182H428.414V36ZM434.252 36H436.1V25.948H434.658C434.434 27.362 433.314 27.908 431.942 27.95V29.182H434.252V36ZM437.948 36H439.894V34.054H437.948V36ZM444.961 36.238C447.047 36.238 448.643 34.74 448.629 32.738C448.615 30.764 447.075 29.294 445.199 29.294C444.051 29.294 443.225 29.77 442.623 30.694H442.595C442.679 28.44 443.393 27.194 444.975 27.194C445.955 27.194 446.445 27.81 446.557 28.384H448.349C448.111 27.026 446.991 25.808 444.947 25.808C443.589 25.808 442.623 26.284 441.923 27.152C441.181 28.09 440.831 29.434 440.845 31.016C440.845 32.794 441.209 34.124 442.091 35.062C442.749 35.79 443.701 36.238 444.961 36.238ZM444.905 34.824C443.715 34.824 442.791 33.97 442.791 32.766C442.791 31.548 443.645 30.722 444.891 30.722C446.025 30.722 446.893 31.562 446.893 32.78C446.893 33.97 446.039 34.824 444.905 34.824ZM449.523 36H456.859V34.404H451.931V34.334C452.533 33.326 453.975 32.64 455.011 31.842C456.103 31.114 456.943 30.414 456.943 28.944C456.943 27.166 455.641 25.822 453.457 25.822C452.127 25.822 451.105 26.27 450.503 27.012C449.985 27.656 449.719 28.412 449.719 29.476H451.525C451.525 28.762 451.679 28.23 452.029 27.852C452.337 27.502 452.771 27.32 453.359 27.32C454.423 27.32 455.067 27.992 455.067 28.986C455.067 29.896 454.521 30.372 453.597 30.96C452.617 31.604 451.427 32.304 450.587 33.242C449.957 33.956 449.565 34.782 449.523 36ZM458.041 36H465.377V34.404H460.449V34.334C461.051 33.326 462.493 32.64 463.529 31.842C464.621 31.114 465.461 30.414 465.461 28.944C465.461 27.166 464.159 25.822 461.975 25.822C460.645 25.822 459.623 26.27 459.021 27.012C458.503 27.656 458.237 28.412 458.237 29.476H460.043C460.043 28.762 460.197 28.23 460.547 27.852C460.855 27.502 461.289 27.32 461.877 27.32C462.941 27.32 463.585 27.992 463.585 28.986C463.585 29.896 463.039 30.372 462.115 30.96C461.135 31.604 459.945 32.304 459.105 33.242C458.475 33.956 458.083 34.782 458.041 36Z" fill="white"/>
<path d="M667.586 36H674.922V34.404H669.994V34.334C670.596 33.326 672.038 32.64 673.074 31.842C674.166 31.114 675.006 30.414 675.006 28.944C675.006 27.166 673.704 25.822 671.52 25.822C670.19 25.822 669.168 26.27 668.566 27.012C668.048 27.656 667.782 28.412 667.782 29.476H669.588C669.588 28.762 669.742 28.23 670.092 27.852C670.4 27.502 670.834 27.32 671.422 27.32C672.486 27.32 673.13 27.992 673.13 28.986C673.13 29.896 672.584 30.372 671.66 30.96C670.68 31.604 669.49 32.304 668.65 33.242C668.02 33.956 667.628 34.782 667.586 36ZM678.441 36H680.289V25.948H678.847C678.623 27.362 677.503 27.908 676.131 27.95V29.182H678.441V36ZM682.137 36H684.083V34.054H682.137V36ZM686.21 36H688.156C688.31 32.304 690.102 29.252 692.006 27.474V26.032H684.824V27.614H688.072C689.164 27.614 690.2 27.544 690.2 27.544V27.572C688.268 29.21 686.392 32.444 686.21 36ZM696.303 36.224C698.501 36.224 700.111 34.852 700.111 32.696C700.111 30.554 698.515 29.266 696.765 29.266C695.757 29.266 695.099 29.574 694.581 30.12H694.553L695.099 27.558H699.495V26.032H693.783L692.719 31.478H694.469C694.805 31.058 695.421 30.694 696.317 30.694C697.381 30.694 698.235 31.436 698.235 32.682C698.235 33.886 697.437 34.698 696.247 34.698C695.099 34.698 694.441 34.11 694.259 33.242H692.439C692.579 35.006 694.119 36.224 696.303 36.224ZM701.041 36H708.377V34.404H703.449V34.334C704.051 33.326 705.493 32.64 706.529 31.842C707.621 31.114 708.461 30.414 708.461 28.944C708.461 27.166 707.159 25.822 704.975 25.822C703.645 25.822 702.623 26.27 702.021 27.012C701.503 27.656 701.237 28.412 701.237 29.476H703.043C703.043 28.762 703.197 28.23 703.547 27.852C703.855 27.502 704.289 27.32 704.877 27.32C705.941 27.32 706.585 27.992 706.585 28.986C706.585 29.896 706.039 30.372 705.115 30.96C704.135 31.604 702.945 32.304 702.105 33.242C701.475 33.956 701.083 34.782 701.041 36Z" fill="white"/>
<path d="M800.146 36H801.994V25.948H800.552C800.328 27.362 799.208 27.908 797.836 27.95V29.182H800.146V36ZM805.984 36H807.832V25.948H806.39C806.166 27.362 805.046 27.908 803.674 27.95V29.182H805.984V36ZM809.68 36H811.626V34.054H809.68V36ZM813.873 36H815.721V25.948H814.279C814.055 27.362 812.935 27.908 811.563 27.95V29.182H813.873V36ZM821.125 36.224C823.323 36.224 824.933 34.852 824.933 32.696C824.933 30.554 823.337 29.266 821.587 29.266C820.579 29.266 819.921 29.574 819.403 30.12H819.375L819.921 27.558H824.317V26.032H818.605L817.541 31.478H819.291C819.627 31.058 820.243 30.694 821.139 30.694C822.203 30.694 823.057 31.436 823.057 32.682C823.057 33.886 822.259 34.698 821.069 34.698C819.921 34.698 819.263 34.11 819.081 33.242H817.261C817.401 35.006 818.941 36.224 821.125 36.224ZM829.683 36.224C831.881 36.224 833.491 34.852 833.491 32.696C833.491 30.554 831.895 29.266 830.145 29.266C829.137 29.266 828.479 29.574 827.961 30.12H827.933L828.479 27.558H832.875V26.032H827.163L826.099 31.478H827.849C828.185 31.058 828.801 30.694 829.697 30.694C830.761 30.694 831.615 31.436 831.615 32.682C831.615 33.886 830.817 34.698 829.627 34.698C828.479 34.698 827.821 34.11 827.639 33.242H825.819C825.959 35.006 827.499 36.224 829.683 36.224Z" fill="white"/>
<path d="M220.321 126.998H222.169V116.946H220.727C220.503 118.36 219.383 118.906 218.011 118.948V120.18H220.321V126.998ZM227.713 127.236C228.875 127.236 229.785 126.872 230.429 126.2C231.325 125.304 231.689 123.834 231.689 122C231.689 119.942 231.283 118.542 230.247 117.688C229.603 117.142 228.721 116.806 227.643 116.806C225.473 116.806 223.891 118.29 223.891 120.278C223.891 122.28 225.445 123.736 227.377 123.736C228.483 123.736 229.309 123.246 229.925 122.448H229.953C229.897 123.68 229.687 124.548 229.267 125.08C228.889 125.598 228.371 125.836 227.671 125.836C226.607 125.836 226.047 125.206 225.921 124.576H224.115C224.297 126.046 225.655 127.236 227.713 127.236ZM227.671 122.322C226.481 122.322 225.627 121.454 225.627 120.264C225.627 119.074 226.467 118.22 227.685 118.22C228.861 118.22 229.771 119.06 229.771 120.264C229.771 121.482 228.931 122.322 227.671 122.322ZM232.849 126.998H234.795V125.052H232.849V126.998ZM239.937 127.236C241.995 127.236 243.703 126.2 243.703 124.17C243.703 122.854 243.017 122.014 241.701 121.65V121.622C242.709 121.286 243.381 120.656 243.381 119.578C243.381 117.842 241.883 116.806 239.881 116.806C237.529 116.806 236.171 118.178 236.143 120.026H237.893C237.921 119.032 238.579 118.206 239.839 118.206C240.833 118.206 241.561 118.752 241.561 119.648C241.561 120.558 240.875 121.09 239.629 121.09H239.055V122.42H239.671C241.043 122.42 241.827 122.966 241.827 124.03C241.827 125.164 241.057 125.766 239.867 125.766C238.411 125.766 237.655 124.94 237.599 123.736H235.835C235.849 124.814 236.269 125.738 237.025 126.354C237.753 126.928 238.719 127.236 239.937 127.236ZM248.967 127.236C251.053 127.236 252.649 125.738 252.635 123.736C252.621 121.762 251.081 120.292 249.205 120.292C248.057 120.292 247.231 120.768 246.629 121.692H246.601C246.685 119.438 247.399 118.192 248.981 118.192C249.961 118.192 250.451 118.808 250.563 119.382H252.355C252.117 118.024 250.997 116.806 248.953 116.806C247.595 116.806 246.629 117.282 245.929 118.15C245.187 119.088 244.837 120.432 244.851 122.014C244.851 123.792 245.215 125.122 246.097 126.06C246.755 126.788 247.707 127.236 248.967 127.236ZM248.911 125.822C247.721 125.822 246.797 124.968 246.797 123.764C246.797 122.546 247.651 121.72 248.897 121.72C250.031 121.72 250.899 122.56 250.899 123.778C250.899 124.968 250.045 125.822 248.911 125.822ZM257.67 127.236C259.826 127.236 261.618 126.214 261.618 124.114C261.618 122.868 260.862 121.916 259.56 121.58V121.538C260.61 121.188 261.156 120.432 261.156 119.466C261.156 117.828 259.728 116.806 257.642 116.806C255.57 116.806 254.128 117.87 254.128 119.494C254.128 120.474 254.674 121.216 255.738 121.566V121.608C254.464 121.972 253.666 122.868 253.666 124.156C253.666 126.214 255.514 127.236 257.67 127.236ZM257.642 120.992C256.536 120.992 255.878 120.446 255.878 119.578C255.878 118.71 256.536 118.15 257.642 118.15C258.748 118.15 259.392 118.71 259.392 119.578C259.392 120.446 258.748 120.992 257.642 120.992ZM257.67 125.808C256.34 125.808 255.542 125.15 255.542 124.072C255.542 122.966 256.34 122.266 257.656 122.266C258.972 122.266 259.756 122.966 259.756 124.072C259.756 125.136 258.944 125.808 257.67 125.808Z" fill="white"/>
<path d="M314.495 127H316.441C316.595 123.304 318.387 120.252 320.291 118.474V117.032H313.109V118.614H316.357C317.449 118.614 318.485 118.544 318.485 118.544V118.572C316.553 120.21 314.677 123.444 314.495 127ZM320.389 127H322.335V125.054H320.389V127ZM327.254 127.224C329.452 127.224 331.062 125.852 331.062 123.696C331.062 121.554 329.466 120.266 327.716 120.266C326.708 120.266 326.05 120.574 325.532 121.12H325.504L326.05 118.558H330.446V117.032H324.734L323.67 122.478H325.42C325.756 122.058 326.372 121.694 327.268 121.694C328.332 121.694 329.186 122.436 329.186 123.682C329.186 124.886 328.388 125.698 327.198 125.698C326.05 125.698 325.392 125.11 325.21 124.242H323.39C323.53 126.006 325.07 127.224 327.254 127.224ZM334.125 127H335.973V116.948H334.531C334.307 118.362 333.187 118.908 331.815 118.95V120.182H334.125V127ZM338.941 127H340.887C341.041 123.304 342.833 120.252 344.737 118.474V117.032H337.555V118.614H340.803C341.895 118.614 342.931 118.544 342.931 118.544V118.572C340.999 120.21 339.123 123.444 338.941 127Z" fill="white"/>
<path d="M448.779 127H450.627V116.948H449.185C448.961 118.362 447.841 118.908 446.469 118.95V120.182H448.779V127ZM452.279 127H459.615V125.404H454.687V125.334C455.289 124.326 456.731 123.64 457.767 122.842C458.859 122.114 459.699 121.414 459.699 119.944C459.699 118.166 458.397 116.822 456.213 116.822C454.883 116.822 453.861 117.27 453.259 118.012C452.741 118.656 452.475 119.412 452.475 120.476H454.281C454.281 119.762 454.435 119.23 454.785 118.852C455.093 118.502 455.527 118.32 456.115 118.32C457.179 118.32 457.823 118.992 457.823 119.986C457.823 120.896 457.277 121.372 456.353 121.96C455.373 122.604 454.183 123.304 453.343 124.242C452.713 124.956 452.321 125.782 452.279 127ZM460.924 127H462.87V125.054H460.924V127ZM464.997 127H466.943C467.097 123.304 468.889 120.252 470.793 118.474V117.032H463.611V118.614H466.859C467.951 118.614 468.987 118.544 468.987 118.544V118.572C467.055 120.21 465.179 123.444 464.997 127ZM475.594 127.238C478.17 127.238 479.752 125.194 479.752 122.016C479.752 118.796 478.128 116.808 475.608 116.808C473.13 116.808 471.464 118.824 471.464 122.016C471.464 125.194 473.088 127.238 475.594 127.238ZM475.608 125.726C474.068 125.726 473.368 124.256 473.368 122.016C473.368 119.762 474.068 118.292 475.608 118.292C477.162 118.292 477.848 119.776 477.848 122.016C477.848 124.284 477.19 125.726 475.608 125.726ZM483.055 127H484.903V116.948H483.461C483.237 118.362 482.117 118.908 480.745 118.95V120.182H483.055V127Z" fill="white"/>
<path d="M659.473 127H661.321V116.948H659.879C659.655 118.362 658.535 118.908 657.163 118.95V120.182H659.473V127ZM666.864 127.238C668.026 127.238 668.936 126.874 669.58 126.202C670.476 125.306 670.84 123.836 670.84 122.002C670.84 119.944 670.434 118.544 669.398 117.69C668.754 117.144 667.872 116.808 666.794 116.808C664.624 116.808 663.042 118.292 663.042 120.28C663.042 122.282 664.596 123.738 666.528 123.738C667.634 123.738 668.46 123.248 669.076 122.45H669.104C669.048 123.682 668.838 124.55 668.418 125.082C668.04 125.6 667.522 125.838 666.822 125.838C665.758 125.838 665.198 125.208 665.072 124.578H663.266C663.448 126.048 664.806 127.238 666.864 127.238ZM666.822 122.324C665.632 122.324 664.778 121.456 664.778 120.266C664.778 119.076 665.618 118.222 666.836 118.222C668.012 118.222 668.922 119.062 668.922 120.266C668.922 121.484 668.082 122.324 666.822 122.324ZM672 127H673.946V125.054H672V127ZM675.113 127H682.449V125.404H677.521V125.334C678.123 124.326 679.565 123.64 680.601 122.842C681.693 122.114 682.533 121.414 682.533 119.944C682.533 118.166 681.231 116.822 679.047 116.822C677.717 116.822 676.695 117.27 676.093 118.012C675.575 118.656 675.309 119.412 675.309 120.476H677.115C677.115 119.762 677.269 119.23 677.619 118.852C677.927 118.502 678.361 118.32 678.949 118.32C680.013 118.32 680.657 118.992 680.657 119.986C680.657 120.896 680.111 121.372 679.187 121.96C678.207 122.604 677.017 123.304 676.177 124.242C675.547 124.956 675.155 125.782 675.113 127ZM687.523 127.238C688.685 127.238 689.595 126.874 690.239 126.202C691.135 125.306 691.499 123.836 691.499 122.002C691.499 119.944 691.093 118.544 690.057 117.69C689.413 117.144 688.531 116.808 687.453 116.808C685.283 116.808 683.701 118.292 683.701 120.28C683.701 122.282 685.255 123.738 687.187 123.738C688.293 123.738 689.119 123.248 689.735 122.45H689.763C689.707 123.682 689.497 124.55 689.077 125.082C688.699 125.6 688.181 125.838 687.481 125.838C686.417 125.838 685.857 125.208 685.731 124.578H683.925C684.107 126.048 685.465 127.238 687.523 127.238ZM687.481 122.324C686.291 122.324 685.437 121.456 685.437 120.266C685.437 119.076 686.277 118.222 687.495 118.222C688.671 118.222 689.581 119.062 689.581 120.266C689.581 121.484 688.741 122.324 687.481 122.324ZM697.527 127H699.319V124.662H700.859V123.276H699.319V116.92H697.639L692.781 123.024V124.662H697.527V127ZM694.097 123.346V123.318C694.097 123.318 694.811 122.562 695.217 122.072L696.645 120.266C697.051 119.748 697.569 118.922 697.569 118.922H697.597C697.597 118.922 697.527 119.86 697.527 120.42V123.276H695.553C694.993 123.276 694.097 123.346 694.097 123.346Z" fill="white"/>
<path d="M801.635 127H803.483V116.948H802.041C801.817 118.362 800.697 118.908 799.325 118.95V120.182H801.635V127ZM805.135 127H812.471V125.404H807.543V125.334C808.145 124.326 809.587 123.64 810.623 122.842C811.715 122.114 812.555 121.414 812.555 119.944C812.555 118.166 811.253 116.822 809.069 116.822C807.739 116.822 806.717 117.27 806.115 118.012C805.597 118.656 805.331 119.412 805.331 120.476H807.137C807.137 119.762 807.291 119.23 807.641 118.852C807.949 118.502 808.383 118.32 808.971 118.32C810.035 118.32 810.679 118.992 810.679 119.986C810.679 120.896 810.133 121.372 809.209 121.96C808.229 122.604 807.039 123.304 806.199 124.242C805.569 124.956 805.177 125.782 805.135 127ZM813.78 127H815.726V125.054H813.78V127ZM820.793 127.238C822.879 127.238 824.475 125.74 824.461 123.738C824.447 121.764 822.907 120.294 821.031 120.294C819.883 120.294 819.057 120.77 818.455 121.694H818.427C818.511 119.44 819.225 118.194 820.807 118.194C821.787 118.194 822.277 118.81 822.389 119.384H824.181C823.943 118.026 822.823 116.808 820.779 116.808C819.421 116.808 818.455 117.284 817.755 118.152C817.013 119.09 816.663 120.434 816.677 122.016C816.677 123.794 817.041 125.124 817.923 126.062C818.581 126.79 819.533 127.238 820.793 127.238ZM820.737 125.824C819.547 125.824 818.623 124.97 818.623 123.766C818.623 122.548 819.477 121.722 820.723 121.722C821.857 121.722 822.725 122.562 822.725 123.78C822.725 124.97 821.871 125.824 820.737 125.824ZM825.355 127H832.691V125.404H827.763V125.334C828.365 124.326 829.807 123.64 830.843 122.842C831.935 122.114 832.775 121.414 832.775 119.944C832.775 118.166 831.473 116.822 829.289 116.822C827.959 116.822 826.937 117.27 826.335 118.012C825.817 118.656 825.551 119.412 825.551 120.476H827.357C827.357 119.762 827.511 119.23 827.861 118.852C828.169 118.502 828.603 118.32 829.191 118.32C830.255 118.32 830.899 118.992 830.899 119.986C830.899 120.896 830.353 121.372 829.429 121.96C828.449 122.604 827.259 123.304 826.419 124.242C825.789 124.956 825.397 125.782 825.355 127ZM837.78 127.238C839.838 127.238 841.546 126.202 841.546 124.172C841.546 122.856 840.86 122.016 839.544 121.652V121.624C840.552 121.288 841.224 120.658 841.224 119.58C841.224 117.844 839.726 116.808 837.724 116.808C835.372 116.808 834.014 118.18 833.986 120.028H835.736C835.764 119.034 836.422 118.208 837.682 118.208C838.676 118.208 839.404 118.754 839.404 119.65C839.404 120.56 838.718 121.092 837.472 121.092H836.898V122.422H837.514C838.886 122.422 839.67 122.968 839.67 124.032C839.67 125.166 838.9 125.768 837.71 125.768C836.254 125.768 835.498 124.942 835.442 123.738H833.678C833.692 124.816 834.112 125.74 834.868 126.356C835.596 126.93 836.562 127.238 837.78 127.238Z" fill="white"/>
<path d="M54.2304 15.238C56.8064 15.238 58.3884 13.194 58.3884 10.016C58.3884 6.796 56.7644 4.808 54.2444 4.808C51.7664 4.808 50.1004 6.824 50.1004 10.016C50.1004 13.194 51.7244 15.238 54.2304 15.238ZM54.2444 13.726C52.7044 13.726 52.0044 12.256 52.0044 10.016C52.0044 7.762 52.7044 6.292 54.2444 6.292C55.7984 6.292 56.4844 7.776 56.4844 10.016C56.4844 12.284 55.8264 13.726 54.2444 13.726Z" fill="#131313"/>
<rect x="53" y="20" width="2" height="113" fill="#131313"/>
</svg>
