<svg width="74" height="64" viewBox="0 0 74 64" fill="none" xmlns="http://www.w3.org/2000/svg">
<path d="M48.8751 31.9984C48.8751 49.1649 46.1964 55.6505 41.143 59.8455C38.1054 62.3293 33.6596 63.1297 29.5727 63.1297H19.3271C18.8854 63.1297 18.6918 63.0469 18.6918 62.771V1.1427C18.6918 0.977156 18.8575 0.784018 19.3271 0.784018H29.5727C33.6596 0.784018 38.1054 1.58444 41.143 4.06821C46.1967 8.2632 48.8751 16.9567 48.8751 31.9984ZM59.1208 31.9984C59.1199 14.5557 45.8654 0.425049 29.5727 0.425049H0.467581C0.30052 0.425049 0.30052 0.783733 0.467581 0.783733H8.39262C8.83433 0.783733 9.02786 0.94928 9.02786 1.14242V62.771C9.02786 63.0469 8.86222 63.1297 8.39262 63.1297H0.467581C0.301943 63.1297 0.301943 63.4884 0.467581 63.4884H29.5727C45.8375 63.4884 59.1199 49.3302 59.1199 31.9981L59.1208 31.9984ZM54.5839 63.71C55.0823 63.6953 55.5562 63.4909 55.9088 63.1385C56.2613 62.7862 56.4658 62.3125 56.4805 61.8144C56.4588 61.3238 56.2504 60.8601 55.8978 60.5181C55.5452 60.176 55.0752 59.9816 54.5839 59.9746C54.0926 59.9816 53.6226 60.176 53.27 60.5181C52.9174 60.8601 52.709 61.3238 52.6873 61.8144C52.702 62.3125 52.9065 62.7862 53.2591 63.1385C53.6116 63.4909 54.0855 63.6953 54.5839 63.71ZM60.9989 48.2112C61.4555 48.2115 61.8943 48.0342 62.2224 47.7168C62.5505 47.3995 62.7421 46.9669 62.7566 46.5107C62.7479 46.0503 62.5592 45.6115 62.2307 45.2884C61.9023 44.9653 61.4603 44.7837 60.9994 44.7825C60.543 44.7894 60.1072 44.9738 59.7844 45.2964C59.4616 45.619 59.2771 46.0545 59.2702 46.5107C59.283 46.9624 59.4701 47.3916 59.7923 47.7085C60.1145 48.0254 60.5468 48.2055 60.9989 48.2112ZM59.5206 51.612V62.6786C59.525 62.7286 59.5189 62.7789 59.5026 62.8264C59.4863 62.8738 59.4602 62.9174 59.426 62.9542C59.3919 62.9909 59.3504 63.0201 59.3042 63.0399C59.258 63.0596 59.2083 63.0695 59.158 63.0688H57.9587V63.4312H64.2342V63.0688H63.0628C63.0105 63.0726 62.958 63.0651 62.9088 63.0469C62.8597 63.0286 62.815 63 62.7779 62.963C62.7407 62.926 62.712 62.8815 62.6936 62.8324C62.6752 62.7833 62.6675 62.7309 62.6712 62.6786V50.9441C62.6712 50.7211 62.5875 50.6096 62.3365 50.6096C61.4127 50.8201 60.4661 50.9137 59.5189 50.8883H57.9587V51.2507H59.158C59.2065 51.2469 59.2553 51.2536 59.3009 51.2704C59.3466 51.2872 59.3881 51.3136 59.4225 51.3479C59.457 51.3823 59.4836 51.4236 59.5005 51.4692C59.5175 51.5148 59.5243 51.5635 59.5206 51.612ZM72.5736 60.8945L72.2389 60.783C71.9321 62.009 71.3743 62.9573 70.3424 62.9573C69.2825 62.9573 69.0594 62.0653 69.0594 60.3928V51.2496H72.2947V50.8872H69.0594V48.239C69.0594 48.016 68.9478 47.9045 68.7805 47.9045C68.6131 47.9045 68.5294 47.9614 68.4179 48.2112C68.0454 48.9302 67.5072 49.5504 66.8477 50.0207C66.1881 50.4909 65.4262 50.7977 64.6247 50.9156V51.2502H65.9077V59.9468C65.9077 62.1489 67.1349 63.71 69.3104 63.71C71.4859 63.71 72.2668 62.2326 72.5736 60.8945Z" fill="#FBF9F4"/>
</svg>
