<svg width="90" height="64" viewBox="0 0 90 64" fill="none" xmlns="http://www.w3.org/2000/svg">
<path d="M9.4209 4.14172V6.34465V8.57005V10.773V13.0012V15.2013V27.427V64H10.9817V27.427V16.758V14.5578V12.3296V10.1267V7.89849V5.69838V3.47017V2.22821V0H9.4209V4.14172Z" fill="white"/>
<path d="M6.28027 6.91786V7.63999V9.8682V12.0683V27.427V64H7.84111V27.427V13.625V11.4249V9.19665V6.99653V0H6.28027V6.91786Z" fill="white"/>
<path d="M3.1416 27.427V64H4.69962V27.427V10.4948V8.49137V0H3.1416V27.427Z" fill="white"/>
<path d="M0 0V64H1.56083V27.427V0H0.780416H0Z" fill="white"/>
<path d="M52.8828 0V18.5422V64H54.4437V0H53.6632H52.8828Z" fill="white"/>
<path d="M49.7412 8.37055V10.5735V18.5422V64H51.302V18.5422V9.01682V8.09799V0H49.7412V8.37055Z" fill="white"/>
<path d="M46.6025 3.41116V4.84699V7.07521V9.27532V11.5035V13.7036V18.5422V64H48.1634V18.5422V12.147V9.94688V7.71866V5.51855V0H46.6025V3.41116Z" fill="white"/>
<path d="M43.4609 1.34873V3.54884V5.77706V7.97717V10.2054V12.4083V14.6365V16.8366V18.5422V64H45.0218V18.5422V15.28V13.0799V10.8516V8.64872V6.42332V4.2204V1.99219V1.83483V0H43.4609V1.34873Z" fill="white"/>
<path d="M40.3728 0H40.3221V0.0505773L27.2607 13.0771L14.1486 0H12.5596V64H14.1204V19.8881L17.2759 23.0352L17.7154 23.4735L18.3775 24.1366L19.4819 23.0352L20.6004 21.9225L21.702 20.821L22.8205 19.7083L23.9249 18.6068L25.0406 17.4913L26.145 16.3899L27.2607 15.2744L28.3651 14.1729L28.6722 13.8666L40.3193 2.25069V4.4789L29.7625 15.0074L29.478 15.2912L28.3764 16.3927L27.2579 17.5054L26.1563 18.6068L25.0406 19.7195L23.9362 20.821L22.8205 21.9337L21.7161 23.0352L20.6004 24.1507L19.496 25.2493L20.6004 26.3508L21.702 25.2493L22.8205 24.1366L23.9249 23.0352L25.0406 21.9225L26.145 20.821L27.2607 19.7083L28.3651 18.6068L29.4808 17.4913L30.5852 16.3899L30.8472 16.1286L40.3221 6.67902V8.90723L31.9432 17.2665L31.7037 17.5054L30.5993 18.6068L29.4808 19.7195L28.3792 20.821L27.2607 21.9337L26.1591 23.0352L25.0434 24.1507L23.939 25.2493L22.8233 26.3648L21.7189 27.4635L22.8233 28.5621L23.9277 27.4635L25.0434 26.348L26.1478 25.2465L27.2635 24.1338L28.3679 23.0324L29.4836 21.9197L30.588 20.8182L31.7065 19.7055L32.8081 18.604L33.0251 18.3877L40.3249 11.1073V13.3356L34.121 19.5229L33.9266 19.7167L32.8222 20.8182L31.7065 21.9309L30.6021 23.0324L29.4836 24.1479L28.382 25.2465L27.2635 26.362L26.1619 27.4607L25.0462 28.5734L23.9418 29.6748L25.0462 30.7763L26.1506 29.6748L27.2663 28.5593L28.3707 27.4607L29.4864 26.3452L30.5908 25.2437L31.7093 24.131L32.8109 23.0295L33.9294 21.9168L35.0339 20.8154L35.2057 20.644L40.3277 15.5329V17.7611L36.2989 21.7792L36.1495 21.9281L35.0451 23.0295L33.9294 24.1451L32.825 25.2437L31.7093 26.3592L30.6049 27.4579L29.4864 28.5706L28.3848 29.672L27.2663 30.7847L26.1647 31.8862L26.7874 32.5072L27.2691 32.9877L40.3305 19.9612V64H41.8914V0H40.3813H40.3728ZM18.3775 21.9337L14.1204 17.688V15.4598L19.496 20.821L18.3775 21.9337ZM20.6004 19.7195L14.1204 13.2597V11.0315L21.7161 18.6068L20.6004 19.7195ZM22.8205 17.5054L14.1204 8.82856V6.60034L23.9362 16.3899L22.8205 17.5026V17.5054ZM25.0406 15.2912L14.1204 4.40023V2.17202L26.1563 14.1757L25.0406 15.2912Z" fill="white"/>
<path d="M57.5931 29.5512H66.0424C67.4877 29.554 68.8485 29.1859 70.0346 28.5369C70.646 28.2053 71.2067 27.7979 71.711 27.3286C72.1195 26.9521 72.4886 26.5334 72.8154 26.081C73.1422 25.6259 73.4239 25.1397 73.6578 24.6255C73.8719 24.1535 74.041 23.6561 74.1621 23.1448C74.3058 22.5294 74.3875 21.8887 74.3875 21.2312C74.3875 16.6428 70.6432 12.9085 66.0424 12.9085V12.9169H56.035V14.4735H66.0424C69.7811 14.4735 72.8238 17.5054 72.8238 21.2341C72.8238 21.7033 72.7759 22.1585 72.683 22.5996C72.5759 23.1167 72.4097 23.614 72.1899 24.0804C71.9448 24.6059 71.6349 25.0948 71.2686 25.5359C70.8742 26.0108 70.4122 26.4323 69.905 26.7863C68.8091 27.5478 67.4793 27.9946 66.0452 27.9946H57.5959V29.554L57.5931 29.5512ZM57.5931 51.0859H66.0396V51.0915C70.6432 51.0915 74.3847 47.3573 74.3847 42.7688C74.3847 42.1084 74.3058 41.4678 74.1593 40.8552C74.0381 40.341 73.8691 39.8465 73.655 39.3716C73.4211 38.8574 73.1394 38.3713 72.8126 37.9161C72.4858 37.4638 72.1167 37.0479 71.7082 36.6686C71.2038 36.2021 70.6404 35.7947 70.0318 35.4603C68.8457 34.8113 67.4849 34.446 66.0396 34.4432H57.5902V36.0026H66.0396C67.4708 36.0054 68.8006 36.4522 69.8994 37.2137C70.4065 37.5677 70.8686 37.9864 71.263 38.4613C71.6293 38.9024 71.9392 39.3913 72.1843 39.9168C72.404 40.386 72.5731 40.8805 72.6773 41.4004C72.7703 41.8415 72.8182 42.2995 72.8182 42.7659C72.8182 46.4918 69.7754 49.5265 66.0368 49.5265H57.5902V51.0831L57.5931 51.0859ZM57.5931 54.3144H66.0396V54.3201C72.4266 54.3201 77.6219 49.1387 77.6219 42.7688C77.6219 41.583 77.4415 40.4366 77.1063 39.3604C76.9457 38.849 76.7541 38.3545 76.5287 37.8768C76.292 37.371 76.0159 36.8877 75.7117 36.4241C75.4215 35.9858 75.1031 35.5699 74.7594 35.1765C74.3819 34.7466 73.9733 34.342 73.5338 33.9711C73.0971 33.6002 72.6294 33.2574 72.1392 32.9539C71.5335 32.5802 70.8911 32.2571 70.2178 31.9986C70.8883 31.7401 71.5335 31.417 72.1392 31.0432C72.6294 30.7398 73.0943 30.3998 73.5338 30.0261C73.9705 29.6552 74.379 29.2506 74.7594 28.8207C75.1031 28.4273 75.4215 28.0114 75.7117 27.5731C76.0159 27.1095 76.292 26.6262 76.5287 26.1204C76.7541 25.6427 76.9485 25.151 77.1063 24.6396C77.4387 23.5606 77.6219 22.417 77.6219 21.2312C77.6219 14.8613 72.4266 9.67994 66.0396 9.67994V9.68556H56.0322V11.2422H66.0396C71.5645 11.2422 76.0554 15.7211 76.0554 21.2284C76.0554 22.136 75.9314 23.0155 75.7032 23.8528C75.5623 24.3642 75.382 24.8616 75.1651 25.3364C74.9341 25.845 74.6636 26.3311 74.3537 26.7919C74.055 27.2331 73.7198 27.6489 73.3563 28.0367C72.945 28.4778 72.4914 28.8825 72.0068 29.2421C71.4771 29.6355 70.9108 29.9755 70.3079 30.2593C69.0119 30.8718 67.5638 31.2146 66.0396 31.2146H57.5902V32.7741H66.0396C67.5666 32.7769 69.0147 33.1225 70.3079 33.7323C70.908 34.0161 71.4771 34.3561 72.0068 34.7494C72.4914 35.1091 72.9422 35.5165 73.3563 35.9549C73.7198 36.3426 74.055 36.7585 74.3537 37.2024C74.6636 37.6604 74.9341 38.1494 75.1651 38.6551C75.382 39.1328 75.5623 39.6273 75.7032 40.1387C75.9314 40.9761 76.0554 41.8556 76.0554 42.7631C76.0554 48.2705 71.5617 52.7522 66.0396 52.7522H57.5931V54.3088V54.3144ZM57.5931 57.5401H66.0396V57.5458C74.21 57.5458 80.8562 50.9173 80.8562 42.7688C80.8562 40.8693 80.4956 39.0513 79.8363 37.3823C79.6363 36.8737 79.4081 36.3792 79.1545 35.9015C78.8897 35.3985 78.5967 34.9152 78.2783 34.4488C77.9825 34.0161 77.6613 33.6002 77.3232 33.2012C76.9626 32.7797 76.5794 32.3751 76.1709 31.9958C76.5766 31.6165 76.9598 31.2146 77.3232 30.7904C77.6613 30.3942 77.9825 29.9755 78.2783 29.5456C78.5967 29.0792 78.8897 28.5959 79.1545 28.0929C79.4081 27.6152 79.6335 27.1207 79.8363 26.6121C80.4928 24.9431 80.8562 23.1279 80.8562 21.2284C80.8562 13.0799 74.2072 6.45142 66.0396 6.45142V6.45704H56.0322V8.0137H66.0396C73.3479 8.0137 79.2897 13.9425 79.2897 21.2284C79.2897 22.757 79.0249 24.2265 78.5431 25.5949C78.3628 26.1035 78.1543 26.5981 77.9177 27.0757C77.6669 27.5787 77.3852 28.0648 77.0753 28.5284C76.7851 28.964 76.4695 29.377 76.1315 29.776C75.768 30.2003 75.3792 30.6049 74.9679 30.9814C74.5678 31.3467 74.1452 31.6839 73.7029 31.9958C74.1452 32.3105 74.5678 32.6477 74.9679 33.0101C75.382 33.3867 75.7708 33.7913 76.1315 34.2184C76.4695 34.6146 76.7851 35.0304 77.0753 35.4631C77.3852 35.9268 77.6669 36.4129 77.9177 36.9186C78.1543 37.3963 78.3628 37.8909 78.5431 38.3994C79.0249 39.7678 79.2897 41.2374 79.2897 42.7659C79.2897 50.0519 73.3451 55.9807 66.0396 55.9807H57.5931V57.5373V57.5401ZM57.5931 60.7659H66.0396V60.7715C75.9934 60.7715 84.0934 52.696 84.0934 42.7688C84.0934 39.9589 83.4454 37.3008 82.2903 34.9293C82.0423 34.4235 81.7719 33.9318 81.4817 33.4513C81.1774 32.9511 80.8506 32.4678 80.4984 32.0014C80.8478 31.535 81.1774 31.0517 81.4817 30.5515C81.7719 30.0738 82.0423 29.5793 82.2903 29.0735C83.4454 26.702 84.0934 24.0411 84.0934 21.2341C84.0934 11.3068 75.9962 3.23133 66.0396 3.23133H56.0322V4.7908H66.0396C75.1313 4.7908 82.5269 12.1695 82.5269 21.2341C82.5269 23.5775 82.0311 25.8057 81.1436 27.826C80.9182 28.3317 80.6703 28.8263 80.3998 29.3068C80.1152 29.8069 79.8081 30.293 79.4729 30.7595C79.1658 31.1894 78.8361 31.6052 78.4896 32.0042C78.839 32.4032 79.1658 32.8191 79.4729 33.2518C79.8081 33.7182 80.1152 34.2043 80.3998 34.7045C80.6703 35.1822 80.921 35.6767 81.1436 36.1853C82.0311 38.2027 82.5269 40.4338 82.5269 42.7772C82.5269 51.8418 75.1313 59.2176 66.0396 59.2176H57.5931V60.7743V60.7659ZM57.5931 63.9972V63.9916H66.0396V63.9972C77.7768 63.9972 87.3277 54.4746 87.3277 42.7659C87.3277 38.8378 86.2515 35.1569 84.3808 31.9958C86.2515 28.8375 87.3277 25.1566 87.3277 21.2284C87.3277 9.5254 77.7768 0 66.0396 0H56.0322V1.55947H66.0396C76.9147 1.56228 85.7613 10.3852 85.7613 21.2312C85.7613 24.589 84.9132 27.7529 83.4172 30.5206C83.1439 31.0292 82.8481 31.5209 82.5326 31.9986C82.8481 32.4791 83.1439 32.9708 83.4172 33.4766C84.9104 36.2443 85.7613 39.4082 85.7613 42.7688C85.7613 53.612 76.9147 62.4377 66.0396 62.4377H57.5931V64V63.9972Z" fill="white"/>
</svg>
