<svg width="132" height="24" viewBox="0 0 132 24" fill="none" xmlns="http://www.w3.org/2000/svg">
<g clip-path="url(#clip0_1144:82)">
<path d="M0 19.0573H5.93157V18.195C5.00476 18.1539 4.91208 17.8254 4.91208 17.0042V0.250488H3.98527L0 1.93407V2.46789L1.01949 3.33021V17.0042C1.01949 17.8254 0.973148 18.1539 0 18.195V19.0573Z" fill="white"/>
<path d="M12.3266 12.4866V16.1412C12.3266 16.9213 11.8169 17.5373 11.0754 17.5373C10.2877 17.5373 9.91693 16.9624 9.91693 15.7716C9.91693 14.3344 10.3803 13.7184 11.3071 13.1436L12.3266 12.4866ZM10.4267 7.68219C11.7706 7.68219 12.373 8.25707 12.373 9.69427V11.4189L10.0096 12.3634C7.41454 13.3899 6.30237 14.4165 6.30237 16.3054C6.30237 18.2764 7.78527 19.303 9.73157 19.303C10.8901 19.303 12.0486 18.6871 12.651 17.7015C12.9291 18.6871 13.7632 19.303 15.0144 19.303C16.0802 19.303 17.0534 18.8924 17.5168 18.3586V17.4962C17.3314 17.5784 17.1461 17.6605 16.9607 17.6605C16.5436 17.6605 16.3583 17.373 16.3583 16.6339V10.5155C16.3583 7.8875 14.5973 6.57349 11.1681 6.57349C8.48037 6.57349 6.71943 7.76431 6.71943 9.40683C6.71943 10.3102 7.41454 11.1725 8.66574 11.1725C9.77791 11.1725 10.3803 10.5155 10.3803 9.73533C10.3803 8.70876 9.36084 8.50344 9.36084 8.17494C9.26816 7.84644 9.77791 7.68219 10.4267 7.68219Z" fill="white"/>
<path d="M28.5456 1.89288H28.87C31.2334 1.89288 31.8358 3.00158 31.8358 5.67067C31.8358 8.33976 31.2334 9.11996 28.7773 9.11996H28.4993V1.89288H28.5456ZM31.6968 9.81803C34.9406 9.24315 36.4235 7.72382 36.4235 5.54748C36.4235 2.59095 34.1528 0.78418 29.5188 0.78418H22.5214V1.6465C23.9579 1.72863 24.0969 2.13926 24.0969 3.37115V16.4702C24.0969 17.6611 23.7726 18.0717 22.5214 18.1949V19.0572H30.0749V18.1949C28.8237 18.1127 28.4993 17.6611 28.4993 16.4702V10.2287H28.9163C29.8895 10.2287 30.6773 10.5572 30.9553 11.3374C31.3724 12.6103 31.3724 15.3205 31.9285 17.0862C32.4846 18.7287 33.8284 19.1393 35.543 19.1393C36.8869 19.1393 37.8137 18.7698 38.1844 18.5644L38.1381 17.7021C36.9796 17.9485 36.5162 17.5379 36.0064 14.6224C35.4967 11.4605 34.2918 10.3108 31.6968 9.81803Z" fill="white"/>
<path d="M40.7798 11.9527H47.8236V11.5421C47.8236 8.38025 45.8773 6.57349 43.2358 6.57349C40.131 6.57349 37.7213 9.07832 37.7213 13.1436C37.7213 17.0035 40.0383 19.3441 43.1895 19.3441C45.5065 19.3441 47.0358 18.2764 47.9626 16.1822L47.0821 15.6484C46.4333 16.5928 45.7846 17.0856 44.6724 17.0856C42.8188 17.0856 41.5212 15.2378 41.5212 11.2547C41.5212 8.46238 42.17 7.68219 43.0041 7.68219C43.6992 7.68219 44.2553 8.46238 44.2553 10.5155V10.8851H40.7798V11.9527Z" fill="white"/>
<path d="M53.2452 10.187C53.2452 9.20151 53.8476 8.50345 54.6817 8.50345C55.8402 8.50345 56.211 10.0638 56.211 13.7595C56.211 16.7571 55.9793 18.2354 54.589 18.2354C53.6159 18.2354 53.1988 17.5373 53.1988 16.3465V10.187H53.2452ZM48.2867 23.204H54.311V22.3417C53.2915 22.3006 53.2452 21.9721 53.2452 21.1508V19.0566C53.7549 19.2209 54.4037 19.3441 55.0525 19.3441C58.3426 19.3441 60.428 16.716 60.428 12.3634C60.428 8.50344 58.7597 6.61455 56.4427 6.61455C55.0525 6.61455 54.033 7.23049 53.2452 8.216V6.57349H52.3184L48.3331 8.01069V8.54451L49.3526 9.40683V21.1508C49.3526 21.9721 49.3062 22.3006 48.2867 22.3417V23.204Z" fill="white"/>
<path d="M65.5718 6.57349H64.645L60.6134 7.39474V8.13388C61.4939 8.25707 61.6329 8.83195 61.6329 9.98171V15.2788C61.6329 18.1122 63.0231 19.3441 65.0158 19.3441C66.3596 19.3441 67.4255 18.687 68.1206 17.6605V19.1387H68.9083L72.94 18.6049V17.7426C72.1059 17.5783 72.0132 17.373 72.0132 16.1411V6.57349H71.0864L67.2401 7.39474V8.13388C68.0279 8.42132 68.1206 8.95513 68.1206 9.98171V15.8126C68.1206 16.675 67.5181 17.373 66.6377 17.373C65.8499 17.373 65.5255 16.8803 65.5255 16.059V6.57349H65.5718Z" fill="white"/>
<path d="M77.8521 10.1877C77.8521 9.20221 78.4545 8.50414 79.2887 8.50414C80.4472 8.50414 80.8642 10.0645 80.8642 13.7602C80.8642 16.7578 80.6325 18.2361 79.2423 18.2361C78.2692 18.2361 77.8521 17.6612 77.8521 16.6346V10.1877ZM79.3813 19.3448C82.9032 19.3448 84.9885 16.7167 84.9885 12.3641C84.9885 8.50414 83.3203 6.61525 80.9569 6.61525C79.613 6.61525 78.5472 7.23119 77.8058 8.2167V0.250488H76.879L72.8937 1.93407V2.46789L73.9132 3.33021V17.6201C74.979 18.5646 76.879 19.3448 79.3813 19.3448Z" fill="white"/>
<path d="M89.8542 10.1877C89.8542 9.20221 90.4567 8.50414 91.2908 8.50414C92.4493 8.50414 92.82 10.0645 92.82 13.7602C92.82 16.7578 92.5883 18.2361 91.1981 18.2361C90.225 18.2361 89.8079 17.6612 89.8079 16.6346V10.1877H89.8542ZM91.4298 19.3448C94.9517 19.3448 97.037 16.7167 97.037 12.3641C97.037 8.50414 95.3688 6.61525 93.0054 6.61525C91.6615 6.61525 90.5957 7.23119 89.8542 8.2167V0.250488H88.9274L84.9421 1.93407V2.46789L85.9616 3.33021V17.6201C87.0275 18.5646 88.9274 19.3448 91.4298 19.3448Z" fill="white"/>
<path d="M97.5005 19.0573H103.432V18.195C102.505 18.1539 102.413 17.8254 102.413 17.0042V0.250488H101.486L97.5005 1.93407V2.46789L98.52 3.33021V17.0042C98.52 17.8254 98.4736 18.1539 97.5005 18.195V19.0573Z" fill="white"/>
<path d="M104.73 3.00144C104.73 4.02802 105.703 4.89034 106.908 4.89034C108.066 4.89034 109.086 4.06908 109.086 3.00144C109.086 1.93381 108.112 1.11255 106.908 1.11255C105.703 1.11255 104.73 1.97487 104.73 3.00144ZM103.896 19.0571H109.827V18.1947C108.9 18.1537 108.808 17.8252 108.808 17.0039V6.57392H107.881L103.896 8.01112V8.54494L104.915 9.40726V17.0039C104.915 17.8252 104.869 18.1537 103.896 18.1947V19.0571Z" fill="white"/>
<path d="M115.99 7.68214C116.639 7.68214 117.103 7.88745 117.103 8.21596C117.103 8.54446 116.129 8.74978 116.129 9.77635C116.129 10.5565 116.639 11.2136 117.798 11.2136C119.049 11.2136 119.698 10.3102 119.698 9.36572C119.698 7.68214 118.122 6.6145 115.898 6.6145C112.654 6.6145 109.966 8.8319 109.966 13.3899C109.966 16.9624 112.144 19.3851 115.342 19.3851C117.659 19.3851 118.771 17.9889 119.512 16.3054L118.215 15.6894C117.612 16.9213 117.103 17.5783 116.083 17.5783C114.461 17.5783 113.766 15.6894 113.766 11.7884C113.766 8.46234 114.693 7.68214 115.99 7.68214Z" fill="white"/>
<path d="M126.185 12.4866V16.1412C126.185 16.9213 125.675 17.5373 124.934 17.5373C124.146 17.5373 123.775 16.9624 123.775 15.7716C123.775 14.3344 124.239 13.7184 125.166 13.1436L126.185 12.4866ZM124.239 7.68219C125.583 7.68219 126.185 8.25707 126.185 9.69427V11.4189L123.822 12.3634C121.227 13.3899 120.115 14.4165 120.115 16.3054C120.115 18.2764 121.597 19.303 123.544 19.303C124.702 19.303 125.861 18.6871 126.463 17.7015C126.741 18.6871 127.575 19.303 128.827 19.303C129.892 19.303 130.866 18.8924 131.329 18.3586V17.4962C131.144 17.5784 130.958 17.6605 130.773 17.6605C130.356 17.6605 130.17 17.373 130.17 16.6339V10.5155C130.17 7.8875 128.409 6.57349 124.98 6.57349C122.293 6.57349 120.532 7.76431 120.532 9.40683C120.532 10.3102 121.227 11.1725 122.478 11.1725C123.59 11.1725 124.192 10.5155 124.192 9.73533C124.192 8.70876 123.173 8.50344 123.173 8.17494C123.08 7.84644 123.59 7.68219 124.239 7.68219Z" fill="white"/>
</g>
<defs>
<clipPath id="clip0_1144:82">
<rect width="131.329" height="22.9535" fill="white" transform="translate(0 0.250488)"/>
</clipPath>
</defs>
</svg>
