<svg width="112" height="22" viewBox="0 0 112 22" fill="none" xmlns="http://www.w3.org/2000/svg">
<path d="M15.0693 17.4701V15.7172H16.1557C16.7665 15.7172 16.9698 15.5153 16.9698 14.8412V5.87688C16.9698 5.20277 16.7665 5.0009 16.1557 5.0009H15.0693V3.24805H27.3554V8.84276H25.7262V7.69643C25.7262 5.87688 24.9112 5.00001 23.4863 5.00001H21.1783C20.5675 5.00001 20.3633 5.20188 20.3633 5.87599V9.3808H21.653C22.2638 9.3808 22.5352 8.90857 22.5352 8.16776V6.95473H24.0962V13.8301H22.5352V12.2124C22.5352 11.4707 22.1957 11.1336 21.5849 11.1336H20.3633V14.9079C20.3633 15.6496 20.5666 15.7839 21.1783 15.7839H23.2149C24.9802 15.7839 25.8624 15.1098 25.8624 12.6837V11.7402H27.5596V17.5367H15.0693V17.4701Z" fill="#FF382E"/>
<path d="M34.7543 3.18164C36.9942 3.18164 38.4881 3.65387 39.6416 4.52985C41.4069 5.81047 42.4924 7.96707 42.4924 10.3264C42.4924 12.6858 41.406 14.8424 39.6416 16.123C38.4881 16.999 36.9942 17.4712 34.7543 17.4712H30.2744V3.18164H34.7543ZM38.6914 7.22538C37.8764 6.21422 36.7228 5.60771 35.0937 5.60771H33.0571V14.9767H35.0937C36.7909 14.9767 37.9445 14.3702 38.6914 13.359C39.3703 12.5506 39.7097 11.4719 39.7097 10.2588C39.7097 9.11341 39.3022 8.03466 38.6914 7.22538Z" fill="white"/>
<path d="M47.448 3.18164H44.7324V17.4712H47.448V3.18164Z" fill="white"/>
<path d="M2.85074 10.2578C2.85074 13.0885 4.95543 15.1784 7.7381 15.1784C9.02778 15.1784 10.1142 14.7062 10.9283 14.0997V11.269H7.5339V8.84201H13.6429V14.9756C12.3532 16.5933 10.2485 17.7388 7.60196 17.7388C3.12211 17.7397 0 14.4367 0 10.3254C0 6.21407 3.12211 2.91113 7.53479 2.91113C9.63948 2.91113 11.4719 3.71952 12.7616 5.00103L10.9963 6.88817C10.1142 6.01219 8.95971 5.40568 7.53479 5.40568C4.88736 5.3372 2.85074 7.49469 2.85074 10.2578Z" fill="white"/>
<path d="M59.2799 17.0659H57.5898L52.7222 3.1543H54.0253L58.4236 15.9134H58.566L62.9644 3.1543H64.1663L59.2799 17.0659Z" fill="white"/>
<path d="M65.6323 3.1543H66.8745V17.0659H65.6323V3.1543Z" fill="white"/>
<path d="M76.507 3.68027V4.81237C75.9168 4.44864 74.7964 3.92305 73.3509 3.92305C71.376 3.92305 70.1947 4.87374 70.1947 6.3091C70.1947 8.0077 71.702 8.5742 73.3714 9.20028C75.306 9.90818 77.3014 10.8784 77.3014 13.4263C77.3014 15.8524 75.3875 17.3891 72.8421 17.3891C70.887 17.3891 69.4209 16.7221 68.708 16.1156V14.8617C69.5024 15.4682 70.9685 16.2775 72.8421 16.2775C74.7767 16.2775 76.0395 15.1854 76.0395 13.5073C76.0395 11.6263 74.3289 10.9193 72.8018 10.3324C70.6837 9.54356 68.9731 8.73516 68.9731 6.38914C68.9731 4.28589 70.724 2.83008 73.3714 2.83008C74.817 2.83097 75.9974 3.31654 76.507 3.68027Z" fill="white"/>
<path d="M88.0935 11.7282V3.1543H89.3152V11.7282C89.3152 15.5905 87.2785 17.3896 84.2648 17.3896C81.2511 17.3896 79.1938 15.5897 79.1938 11.7282V3.1543H80.4361V11.7282C80.4361 15.0036 82.024 16.278 84.2648 16.278C86.485 16.2771 88.0935 15.0036 88.0935 11.7282Z" fill="white"/>
<path d="M99.3748 13.3655H93.0007L91.7182 17.0659H90.4966L95.384 3.1543H97.074L101.961 17.0659H100.658L99.3748 13.3655ZM99.0085 12.2938L96.259 4.30686H96.1372L93.3679 12.2938H99.0085Z" fill="white"/>
<path d="M103.428 3.1543H104.67V15.9543H111.186V17.0668H103.428V3.1543Z" fill="white"/>
</svg>
