<svg width="121" height="42" viewBox="0 0 121 42" fill="none" xmlns="http://www.w3.org/2000/svg">
<path fill-rule="evenodd" clip-rule="evenodd" d="M90.7318 29.5098C89.7587 29.8705 88.7258 30.043 87.6883 30.0181H87.6754C87.7552 29.8723 87.8336 29.7285 87.911 29.5866C88.4142 28.6639 88.8748 27.8192 89.3934 26.9939C90.4254 25.2182 91.7731 23.6459 93.37 22.3545C93.9524 21.893 94.6038 21.526 95.3004 21.2671C96.3363 20.9003 97.0956 21.518 97.0956 22.6055C97.0575 23.5367 96.7612 24.439 96.2398 25.2115C94.9705 27.2511 93.0187 28.7742 90.7318 29.5098ZM36.6621 21.0676C37.1409 20.9181 37.6318 20.8105 38.1292 20.7459V20.7395C38.4812 20.7725 38.8313 20.8241 39.178 20.8939C40.5421 21.2478 41.1985 22.361 40.999 23.8795C40.857 24.7587 40.5561 25.6047 40.111 26.3761C38.7526 28.9923 36.9498 31.3524 34.7832 33.3512C33.3869 34.6381 31.8362 35.7127 29.8672 35.9251C29.5165 35.9636 29.1626 35.9636 28.8119 35.9251C28.3286 35.9186 27.8665 35.7255 27.5223 35.3861C27.1781 35.0467 26.9784 34.5873 26.9652 34.1041C26.8396 33.1068 26.9818 32.0941 27.377 31.1699C27.8201 29.9951 28.4034 28.8782 29.1143 27.8432C29.3259 27.5476 29.5221 27.2429 29.7186 26.938C30.048 26.4268 30.3778 25.9148 30.7809 25.4432C32.3197 23.49 34.3491 21.9801 36.6621 21.0676ZM71.6055 20.643H75.1022C75.0332 20.7856 74.9239 20.9049 74.7878 20.9861C74.6517 21.0673 74.4948 21.1068 74.3365 21.0998H71.5246C71.4174 21.0919 71.3103 21.1165 71.2173 21.1705C71.1243 21.2244 71.0498 21.3052 71.0034 21.4022C70.0124 23.1044 69.0165 24.8017 68.0206 26.4991C67.025 28.196 66.0294 29.8929 65.0386 31.5946C64.625 32.266 64.2801 32.9774 64.009 33.718C63.6487 34.8119 64.3565 35.5776 65.5019 35.436C66.5858 35.259 67.6092 34.8169 68.4811 34.1491C70.997 32.3041 73.2636 30.1413 75.2245 27.7145C76.8707 25.7153 78.3757 23.604 79.7287 21.3958C79.776 21.3 79.8509 21.2206 79.9438 21.1678C80.0368 21.115 80.1434 21.0914 80.2499 21.0998H82.8237C82.7802 21.1781 82.7433 21.2472 82.7093 21.3107C82.6679 21.3882 82.631 21.4573 82.5921 21.5245C82.0251 22.5104 81.4572 23.4959 80.8892 24.4814C79.4073 27.0526 77.9252 29.6242 76.4599 32.2059C76.2062 32.7011 75.991 33.2153 75.8165 33.7437C75.768 33.9064 75.7485 34.0763 75.7586 34.2456C75.728 34.4539 75.7537 34.6666 75.8332 34.8615C75.9127 35.0565 76.0431 35.2265 76.2106 35.354C76.3782 35.4814 76.5768 35.5617 76.7859 35.5863C76.995 35.6109 77.2068 35.579 77.3994 35.494C78.2174 35.2293 78.9683 34.7902 79.6 34.207C81.2223 32.8186 82.7168 31.2874 84.0656 29.632C84.4498 29.1632 84.8097 28.6744 85.1696 28.1858C85.5753 27.635 85.9808 27.0844 86.4207 26.5628C88.303 24.2727 90.7055 22.4659 93.4279 21.2929C94.7208 20.6888 96.1746 20.5195 97.5718 20.8103C97.6435 20.8257 97.7144 20.845 97.7841 20.8681C99.4121 21.2671 99.7595 22.3545 99.5086 23.8152C99.2662 24.7804 98.7231 25.6435 97.9579 26.2796C96.4594 27.6842 94.6842 28.7603 92.7458 29.439C91.2107 30.049 89.5717 30.3549 87.9199 30.3399C87.8508 30.3471 87.7843 30.3707 87.7262 30.4088C87.668 30.4468 87.6197 30.4982 87.5853 30.5586C87.2358 31.4041 87.048 32.3078 87.0319 33.2225C86.9896 33.7392 87.1309 34.2542 87.4311 34.6768C87.7313 35.0993 88.171 35.4024 88.6728 35.5326C89.825 35.8991 91.071 35.835 92.1796 35.3524C93.9712 34.6131 95.6637 33.6534 97.2179 32.4954C101.392 29.4595 104.959 25.6659 107.732 21.3121C107.79 21.2034 107.877 21.1135 107.984 21.053C108.092 20.9926 108.214 20.9642 108.337 20.9711H111.335C110.917 21.6983 110.511 22.3886 110.111 23.0697C109.803 23.5939 109.498 24.1127 109.193 24.6388C109.509 24.4171 109.821 24.1947 110.132 23.9736C110.857 23.4567 111.574 22.9461 112.313 22.4639C113.352 21.7284 114.526 21.2077 115.769 20.9325C116.12 20.8674 116.483 20.8947 116.82 21.0116C117.158 21.1285 117.46 21.3311 117.696 21.5996C117.932 21.8681 118.094 22.1932 118.167 22.5432C118.24 22.8932 118.22 23.2561 118.111 23.5964C118.057 23.8558 117.951 24.1014 117.798 24.3179C117.645 24.5343 117.45 24.717 117.223 24.8546C116.997 24.9923 116.745 25.0818 116.482 25.1178C116.22 25.1537 115.953 25.1352 115.698 25.0635C115.477 24.9995 115.272 24.8874 115.1 24.7353C114.857 24.4601 114.698 24.1214 114.641 23.759C114.584 23.3966 114.631 23.0255 114.778 22.6891C114.889 22.3883 115.095 22.1313 115.363 21.9563C115.632 21.7813 115.95 21.6976 116.271 21.7175H116.483L116.522 21.6081C116.462 21.5862 116.401 21.5568 116.339 21.5273C116.203 21.4617 116.065 21.3954 115.936 21.4087C115.382 21.4483 114.835 21.5586 114.308 21.7368C112.06 22.6576 110.091 24.1479 108.594 26.0609C107.811 27.0885 107.091 28.1629 106.439 29.2781C105.01 31.601 103.601 33.9432 102.205 36.2854C102.151 36.3975 102.064 36.4903 101.956 36.5514C101.848 36.6124 101.723 36.6386 101.6 36.6264H98.6528L98.9288 36.1629C101.041 32.6162 103.119 29.1262 105.203 25.6362L105.145 25.5976C104.994 25.7583 104.844 25.919 104.693 26.0797C104.24 26.5625 103.788 27.0452 103.324 27.528C100.663 30.3593 97.6329 32.82 94.3159 34.8441C92.7188 35.8364 90.9444 36.5094 89.091 36.8259C88.877 36.8469 88.6615 36.8469 88.4475 36.8259C88.2394 36.8115 88.0313 36.7918 87.8238 36.7722C87.5693 36.7482 87.3157 36.7242 87.0641 36.7101C86.3372 36.6952 85.6339 36.4497 85.0556 36.0091C84.4773 35.5684 84.054 34.9554 83.8468 34.2585C83.4747 33.0842 83.5433 31.8146 84.0399 30.6873C84.1041 30.5268 84.1618 30.3663 84.2196 30.2058L84.22 30.2047V30.1146C84.1106 30.2497 84.0141 30.3592 83.9176 30.4686C82.2519 32.3443 80.4214 34.0671 78.4482 35.6162C77.5933 36.3166 76.5588 36.7625 75.4626 36.9031C74.7971 36.988 74.1212 36.9287 73.4807 36.7294C73.1472 36.5833 72.8656 36.3399 72.6727 36.031C72.4798 35.7222 72.3847 35.3623 72.3997 34.9985C72.3157 34.2784 72.4361 33.5492 72.7472 32.8944C73.1214 32.1098 73.5051 31.3285 73.8895 30.5459C74.0536 30.2116 74.2179 29.8771 74.3816 29.542C74.4438 29.4372 74.473 29.3161 74.4652 29.1945C74.434 29.2278 74.4028 29.2618 74.3713 29.296C74.3056 29.3675 74.2389 29.4401 74.1692 29.5098C72.3138 31.4832 70.2924 33.2937 68.1271 34.9213C67.411 35.4513 66.6278 35.8841 65.7978 36.2082C65.2496 36.3659 64.6824 36.4481 64.112 36.4527C63.8227 36.4889 63.5293 36.5084 63.235 36.5281C63.1627 36.5329 63.0904 36.5377 63.0181 36.5428C62.6841 36.5877 62.3442 36.5483 62.0293 36.4283C61.7145 36.3082 61.4346 36.1114 61.2152 35.8555C60.9959 35.5997 60.844 35.2931 60.7734 34.9636C60.7028 34.6341 60.7157 34.2922 60.811 33.969C60.9653 33.3069 61.2077 32.6684 61.5317 32.0708C62.911 29.6478 64.2903 27.2412 65.6696 24.8346C66.2207 23.8732 66.7718 22.9117 67.3228 21.9492C67.3958 21.8306 67.4379 21.6957 67.4451 21.5567L67.207 21.8269C66.0616 23.2105 64.7349 24.4334 63.2626 25.4624C62.6243 25.8665 61.888 26.0889 61.1328 26.1059C60.8384 26.0938 60.5555 25.989 60.3243 25.8064C60.0932 25.6238 59.9257 25.3728 59.8459 25.0892C59.7719 24.7657 59.7754 24.4292 59.8559 24.1072C59.9364 23.7852 60.0917 23.4868 60.3092 23.2361C60.4494 23.0497 60.6411 22.9085 60.8606 22.8296C61.0801 22.7507 61.3178 22.7377 61.5446 22.7921C61.7377 22.8436 61.9365 22.8722 62.1353 22.9008C62.2346 22.9151 62.334 22.9294 62.4326 22.9465C62.4559 22.6596 62.366 22.375 62.1819 22.1536C61.9979 21.9323 61.7344 21.7919 61.4481 21.7626C59.048 21.3765 57.3428 22.6055 55.9208 24.2527C55.0003 25.3899 54.1759 26.6016 53.4563 27.8754C52.1553 30.0322 50.8886 32.208 49.6209 34.3853C49.2397 35.0401 48.8583 35.6951 48.476 36.3497C48.4337 36.4543 48.3591 36.5427 48.263 36.6017C48.1668 36.6608 48.0543 36.6875 47.9419 36.6779H44.5637L48.3344 30.6101C48.07 30.8839 47.809 31.161 47.548 31.4382C47.0913 31.9232 46.6345 32.4083 46.1595 32.8751C44.7697 34.3192 43.1192 35.4872 41.295 36.3176C40.6304 36.6202 39.9297 36.8365 39.2102 36.961C38.77 37.0345 38.319 37.0076 37.8907 36.8826C37.4624 36.7575 37.0677 36.5375 36.7363 36.2388C36.4048 35.9401 36.145 35.5704 35.9762 35.1574C35.8073 34.7443 35.7339 34.2985 35.7613 33.8531V33.4284C35.6774 33.4714 35.5958 33.5186 35.5167 33.57C34.0452 34.6974 32.4339 35.6296 30.723 36.3433C29.5656 36.8871 28.2649 37.0472 27.0103 36.8002C26.2122 36.6411 25.4949 36.2079 24.9826 35.5757C24.4702 34.9435 24.1951 34.152 24.2048 33.3384C24.2048 32.969 24.2322 32.5969 24.2601 32.2168C24.275 32.0141 24.2901 31.8091 24.3013 31.601L24.0117 31.8391C21.383 34.1685 18.2239 35.8188 14.8103 36.6457C12.0938 37.2785 9.24673 37.0353 6.67698 35.9508C4.63722 35.1336 3.63989 33.5507 3.20877 31.4852C2.85315 29.3593 3.07538 27.177 3.85223 25.1664C5.22197 21.1395 7.41309 17.4409 10.2868 14.3049C12.7715 11.6085 15.6984 9.35618 18.9413 7.64511C20.6807 6.60906 22.5624 5.83298 24.5265 5.34152C27.2675 4.66229 30.1621 5.00783 32.6662 6.31315C33.5236 6.68443 34.4772 6.77235 35.388 6.56411C35.9617 6.48344 36.5291 6.34346 37.0989 6.20287C37.3473 6.1416 37.5961 6.08022 37.8461 6.02359C36.4262 7.66936 35.1859 9.46187 34.1462 11.3707C33.9743 10.5641 33.7595 9.76723 33.5027 8.98351C33.2514 8.36398 32.9274 7.77644 32.5375 7.23329C32.138 6.7012 31.6255 6.26428 31.037 5.95388C30.4484 5.64347 29.7984 5.46729 29.1337 5.43806C26.4369 5.17768 23.7333 5.85983 21.4829 7.36843C18.0958 9.4237 15.1586 12.142 12.8478 15.3602C12.6155 15.6806 12.3792 16.001 12.1424 16.3221C11.4281 17.2907 10.7091 18.2656 10.0809 19.2659C8.4872 22.0959 7.42103 25.1919 6.93438 28.403C6.63648 30.601 7.19642 32.8292 8.49797 34.6253C8.81068 35.0557 9.2108 35.4151 9.67209 35.6802C10.1334 35.9452 10.6455 36.1098 11.1748 36.1631C13.7029 36.5299 16.2822 36.079 18.5359 34.8762C20.5719 33.8725 22.4653 32.6023 24.1662 31.0991C24.3154 30.9566 24.4413 30.7916 24.5394 30.6101C25.9817 28.0842 27.8295 25.8125 30.0087 23.886C31.961 22.1506 34.347 20.9766 36.9131 20.4885C37.7688 20.3575 38.6414 20.3858 39.4869 20.5722C40.0941 20.7331 40.6316 21.0893 41.0165 21.5858C41.4014 22.0823 41.6123 22.6915 41.6167 23.3197C41.6175 23.5358 41.639 23.7513 41.6811 23.9632C41.6928 23.9426 41.7049 23.9216 41.7172 23.9005C41.7584 23.8293 41.8007 23.756 41.8355 23.6865C42.2666 22.9079 42.6977 22.1293 43.1224 21.3572C43.1803 21.2542 43.3026 21.1255 43.3991 21.1191H46.4362C46.4201 21.1484 46.4043 21.1774 46.3887 21.206C46.3358 21.3031 46.285 21.3964 46.2303 21.4859L39.9759 32.0579C39.5681 32.6969 39.2965 33.4132 39.178 34.162C39.1337 34.39 39.147 34.6254 39.2167 34.8469C39.2863 35.0685 39.4101 35.2691 39.5769 35.4308C39.7436 35.5924 39.948 35.7099 40.1716 35.7726C40.3952 35.8353 40.6309 35.8413 40.8574 35.7899C41.685 35.6262 42.4668 35.2836 43.1482 34.7861C45.2725 33.3026 47.1562 31.5013 48.7334 29.4454C50.7409 26.9145 52.5623 24.2415 54.1834 21.4473C54.2312 21.3395 54.3115 21.2493 54.413 21.1893C54.5145 21.1293 54.6322 21.1025 54.7497 21.1127H57.5938L56.3068 23.2489L56.3454 23.294L56.6479 23.0752C57.8595 22.0934 59.3615 21.5392 60.9205 21.4988C61.2272 21.477 61.5348 21.5257 61.8198 21.6412C62.1048 21.7567 62.3595 21.9359 62.5645 22.1651C62.7695 22.3943 62.9193 22.6674 63.0023 22.9635C63.0854 23.2596 63.0996 23.5707 63.0439 23.8731C62.9689 24.3285 62.8614 24.7779 62.7221 25.2179C62.8041 25.1694 62.8868 25.1214 62.9701 25.0731C63.2071 24.9355 63.4475 24.796 63.6809 24.6388C65.3468 23.4757 66.8025 22.0373 67.9856 20.3856C69.0484 18.9428 70.0286 17.4066 71.0067 15.8736C71.3373 15.3555 71.6676 14.8378 72.0008 14.3242C72.0572 14.2042 72.1493 14.1046 72.2645 14.039C72.3796 13.9733 72.5123 13.9448 72.6442 13.9574H75.4369L71.6055 20.643ZM82.6158 17.1829C82.8818 17.449 83.2424 17.5988 83.6186 17.5995C83.618 17.5995 83.6174 17.5995 83.6167 17.5995H83.6213C83.6204 17.5995 83.6195 17.5995 83.6186 17.5995C83.9754 17.5988 84.3182 17.4602 84.5753 17.2126C84.8333 16.9642 84.985 16.6254 84.9983 16.2675C85.0043 15.8876 84.8653 15.5196 84.6094 15.2386C84.3535 14.9576 84.0001 14.7848 83.6213 14.7554C83.2441 14.7554 82.8824 14.9052 82.6158 15.1719C82.3491 15.4386 82.1992 15.8003 82.1992 16.1774C82.1992 16.5546 82.3491 16.9163 82.6158 17.1829Z" fill="#FBF9F4"/>
</svg>
