<svg width="104" height="28" viewBox="0 0 104 28" fill="none" xmlns="http://www.w3.org/2000/svg">
<path d="M101.391 0H99.5571C97.2078 0 97.0601 0.260175 96.8763 0.670593L93.2443 9.55686C92.03 12.5067 90.7833 15.6801 90.3041 17.3218C89.8645 15.6801 89.0573 13.4778 87.3674 9.40662L83.7354 0.670593C83.5156 0.150242 82.5967 0 80.615 0H78.5503C76.5325 0 76.129 0.186887 76.129 0.597304V27.4027C76.129 27.8864 76.5325 28 78.626 28H79.7646C81.8185 28 82.4058 27.8864 82.4058 27.4027V11.499H82.5535C82.6772 11.9831 82.8362 12.4571 83.0291 12.9172L87.2161 22.8844C87.3999 23.3352 87.6197 23.5184 89.5654 23.5184H90.8121C92.7939 23.5184 92.9416 23.3718 93.1254 22.8844L96.9448 13.2909C97.3051 12.3931 97.5682 11.499 97.5682 11.499H97.7123V27.4027C97.7123 27.8864 98.1195 28 100.285 28H101.384C103.405 28 103.993 27.8864 103.993 27.4027V0.597304C104 0.186887 103.413 0 101.391 0ZM70.9223 0.597304C70.9223 0.186887 70.335 0 68.3172 0H67.1425C65.013 0 64.6455 0.186887 64.6455 0.597304V27.4027C64.6455 27.8864 65.0058 28 67.1425 28H68.3172C70.335 28 70.9223 27.8864 70.9223 27.4027V0.597304ZM59.7271 0C60.2784 0 60.3865 0.0732888 60.3865 2.05209V3.88431C60.3865 5.78615 60.2387 6.00968 59.7271 6.00968H53.4863V27.4027C53.4863 27.8864 52.8989 28 50.8055 28H49.7245C47.595 28 47.2275 27.8864 47.2275 27.4027V6.00968H40.9687C40.4534 6.00968 40.3057 5.86311 40.3057 3.88431V2.05209C40.3057 0 40.4174 0 40.9687 0L59.7271 0Z" fill="#0038FF"/>
<path d="M13.1807 22.0086H1.58188C1.16236 22.0086 0.760018 22.1781 0.463369 22.4798C0.166721 22.7815 6.56693e-05 23.1907 6.56693e-05 23.6173V26.384C-0.000408205 26.5955 0.040157 26.8051 0.119439 27.0007C0.19872 27.1963 0.315161 27.3741 0.462094 27.5239C0.609026 27.6736 0.783564 27.7925 0.975715 27.8735C1.16786 27.9546 1.37385 27.9963 1.58188 27.9963H13.1807V22.0086ZM32.4904 22.485C32.3431 22.3342 32.168 22.2144 31.9751 22.1327C31.7821 22.0509 31.5752 22.0088 31.3662 22.0086H19.7674V27.9963H31.3662C31.5742 27.9963 31.7802 27.9546 31.9723 27.8735C32.1645 27.7925 32.339 27.6736 32.486 27.5239C32.6329 27.3741 32.7493 27.1963 32.8286 27.0007C32.9079 26.8051 32.9485 26.5955 32.948 26.384V23.6173C32.9486 23.1932 32.784 22.7861 32.4904 22.485ZM32.4904 11.4917C32.3454 11.3362 32.1712 11.212 31.9781 11.1263C31.7849 11.0407 31.5769 10.9955 31.3662 10.9933H19.7674V16.9957H31.3662C31.7851 16.9957 32.1869 16.8267 32.4834 16.5258C32.78 16.2249 32.947 15.8167 32.948 15.3907V12.6167C32.9491 12.4065 32.9092 12.1983 32.8306 12.0039C32.7521 11.8096 32.6364 11.633 32.4904 11.4844V11.4917ZM13.1807 10.9933H1.58188C1.37294 10.9933 1.16606 11.0354 0.9732 11.1172C0.78034 11.1989 0.605318 11.3187 0.458243 11.4697C0.311167 11.6206 0.194953 11.7997 0.116312 11.9966C0.0376713 12.1934 -0.00183816 12.4042 6.56693e-05 12.6167V15.3907C-0.000408205 15.6022 0.040157 15.8118 0.119439 16.0074C0.19872 16.203 0.315161 16.3808 0.462094 16.5305C0.609026 16.6803 0.783564 16.7991 0.975715 16.8802C1.16786 16.9613 1.37385 17.003 1.58188 17.003H13.1807V10.9933ZM31.3662 5.99136H1.58188C1.16484 5.99138 0.764672 5.82391 0.468434 5.52538C0.172197 5.22686 0.00386557 4.82144 6.56693e-05 4.39733V1.61602C-0.000883465 1.40415 0.039331 1.19417 0.1184 0.998149C0.197468 0.802127 0.313834 0.62392 0.460814 0.473763C0.607794 0.323605 0.782493 0.204454 0.974879 0.123152C1.16726 0.0418494 1.37355 -2.19869e-06 1.58188 0L31.3662 0C31.786 0.000970429 32.1884 0.171271 32.4849 0.473541C32.7815 0.775811 32.948 1.18537 32.948 1.61235V4.39733C32.948 4.82398 32.7813 5.23316 32.4847 5.53485C32.188 5.83653 31.7857 6.00602 31.3662 6.00602" fill="#0038FF"/>
</svg>
