<svg width="72" height="72" viewBox="0 0 72 72" fill="none" xmlns="http://www.w3.org/2000/svg">
<circle cx="36" cy="36" r="36" transform="rotate(-90 36 36)" fill="#FBF9F4"/>
<circle cx="36" cy="36" r="23.5" transform="rotate(-180 36 36)" stroke="#E81E29"/>
<rect x="67" y="44" width="16" height="16" transform="rotate(-180 67 44)" fill="#FBF9F4"/>
<path d="M68.3536 36.3536C68.5488 36.1583 68.5488 35.8417 68.3536 35.6465L65.1716 32.4645C64.9763 32.2692 64.6597 32.2692 64.4645 32.4645C64.2692 32.6597 64.2692 32.9763 64.4645 33.1716L67.2929 36L64.4645 38.8284C64.2692 39.0237 64.2692 39.3403 64.4645 39.5355C64.6597 39.7308 64.9763 39.7308 65.1716 39.5355L68.3536 36.3536ZM20 36.5L68 36.5L68 35.5L20 35.5L20 36.5Z" fill="#E81E29"/>
</svg>
