<svg width="331" height="363" viewBox="0 0 331 363" fill="none" xmlns="http://www.w3.org/2000/svg">
<ellipse cx="148.705" cy="181.653" rx="176.705" ry="176.653" fill="white"/>
<path d="M-26.7855 197.611C-29.4412 167.702 -24.7686 137.345 -11.5156 108.433L-3.9416 117.617L-17.0101 183.469L-26.7855 197.611ZM190.249 103.526L213.502 55.0203L271.114 71.1122L304.551 130.537L290.331 188.966L232.887 177.527L190.249 103.526ZM209.566 53.1607L186.322 101.648L100.428 115.952L55.8303 75.772L92.8715 29.1895L157.778 20.085L209.566 53.1607ZM308.432 128.741L274.74 68.6557L275.575 59.202C296.02 80.4615 311.022 106.57 318.809 134.962L308.432 128.741ZM213.376 50.2179L161.828 17.7239L171.741 7.1172C189.635 9.26228 207.4 14.5553 224.665 22.8223C242.696 31.4561 258.339 42.1647 271.423 55.3173L270.742 66.6648L213.376 50.2179ZM294.429 191.599L308.073 133.461L320.192 141.011C328.969 178.445 325.753 218.846 308.413 256.17L298.661 254.945L294.429 191.599ZM79.2596 19.4208C106.699 7.82891 136.89 3.32326 166.534 6.48096L157.226 16.1016L92.2516 25.2157L79.2596 19.4208ZM-9.41727 104.029C8.62567 66.5674 38.6712 38.54 74.1196 22.2706L88.409 28.2339L51.2115 74.2162L-1.11949 114.131L-9.41727 104.029ZM232.233 181.526L290.098 193.153L294.502 256.028L250.489 309.291L183.108 310.611L172.557 246.243L232.233 181.526ZM186.646 106.018L229.153 178.89L169.805 243.072L86.1716 203.026L101.504 120.093L186.646 106.018ZM0.0574589 118.277L52.7165 78.5777L97.7048 118.952L81.9703 202.865L27.0427 235.874L-12.8158 183.677L0.0574589 118.277ZM297.505 258.753L306.51 260.125C292.643 287.837 272.635 309.947 249.097 326.412L253.102 312.803L297.505 258.753ZM122.57 341.24L181.724 314.822L248.43 313.698L243.709 330.005C210.333 351.38 170.646 360.989 131.086 356.875L122.57 341.24ZM168.399 247.224L178.954 311.623L119.781 338.05L51.9055 304.164L28.8882 239.726L83.81 206.721L168.399 247.224ZM72.3955 340.453C57.2213 333.187 43.4541 323.916 31.2798 313.167L49.6274 307.897L118.135 341.625L125.93 356.23C107.883 353.867 89.8049 348.789 72.3955 340.453ZM-14.9659 188.048L24.4629 239.993L47.1031 304.244L27.5481 309.617C-1.93295 281.59 -20.9846 244.316 -25.9985 203.644L-14.9659 188.048Z" fill="white" stroke="#0038FF"/>
</svg>
