<svg width="161" height="160" viewBox="0 0 161 160" fill="none" xmlns="http://www.w3.org/2000/svg">
<g clip-path="url(#clip0_1370:9)">
<ellipse cx="79.2543" cy="80.0677" rx="78.7543" ry="77.8638" fill="white"/>
<path d="M1.09939 86.8819C-0.0385407 73.8192 2.03557 60.5675 7.86549 47.9384L11.1392 51.8642L5.3258 80.8352L1.09939 86.8819ZM97.8579 45.6277L108.174 24.3451L133.759 31.4127L148.629 57.549L142.318 83.1986L116.821 78.1774L97.8579 45.6277ZM106.278 23.4615L95.9681 44.7315L57.7613 51.0238L37.9694 33.3889L54.4104 12.9407L83.2812 8.93555L106.278 23.4615ZM150.498 56.6869L135.505 30.2434L135.86 26.2707C144.858 35.563 151.473 46.9457 154.94 59.3204L150.498 56.6869ZM108.108 22.0608L85.2262 7.79592L89.5499 3.22062C97.5035 4.16796 105.4 6.49694 113.076 10.1318C121.094 13.9286 128.049 18.6356 133.868 24.4141L133.573 29.2812L108.108 22.0608ZM144.279 84.4581L150.332 58.9492L155.616 62.2051C159.51 78.6613 158.082 96.4173 150.388 112.827L146.16 112.301L144.279 84.4581ZM48.5048 8.56224C60.6263 3.53173 73.9448 1.56807 87.0297 2.91886L83.0162 7.02179L54.1048 11.0326L48.5048 8.56224ZM8.87399 45.8413C16.9042 29.3812 30.2587 17.0619 46.0143 9.90258L52.2536 12.4777L35.7502 32.6538L12.4923 50.1977L8.87399 45.8413ZM116.508 80.0978L142.198 85.2031L144.154 112.823L124.582 136.248L94.6518 136.828L89.9675 108.563L116.508 80.0978ZM96.125 46.8165L115.012 78.8384L88.6405 107.043L51.4715 89.4418L58.283 53.0035L96.125 46.8165ZM13.0743 52.1795L36.4698 34.7361L56.4401 52.4607L49.4429 89.3662L25.0506 103.864L7.35018 80.9393L13.0743 52.1795ZM145.603 114.136L149.466 114.718C143.33 126.803 134.509 136.464 124.135 143.682L125.851 137.914L145.603 114.136ZM67.716 150.447L93.9866 138.844L123.595 138.351L121.531 145.405C106.686 154.799 89.0407 159.025 71.4493 157.225L67.716 150.447ZM87.9624 109.024L92.6496 137.306L66.365 148.915L36.1739 134.009L25.9492 105.7L50.3357 91.206L87.9624 109.024ZM45.2766 149.99C38.5667 146.812 32.4747 142.764 27.0816 138.072L35.0901 135.797L65.5747 150.64L68.9622 156.917C60.9765 155.868 52.9795 153.637 45.2766 149.99ZM6.31122 83.0173L23.8136 105.821L33.8705 134.048L25.2778 136.382C12.177 124.052 3.70899 107.663 1.47252 89.7822L6.31122 83.0173Z" fill="white" stroke="#0038FF" stroke-width="0.6"/>
</g>
<defs>
<clipPath id="clip0_1370:9">
<rect width="160" height="160" fill="white" transform="translate(0.5)"/>
</clipPath>
</defs>
</svg>
