<svg width="18" height="14" viewBox="0 0 18 14" fill="none" xmlns="http://www.w3.org/2000/svg">
<path d="M17.3531 1.65184C16.7119 1.9379 16.068 2.15385 15.3544 2.22676C16.068 1.79487 16.6395 1.07692 16.9238 0.286058C16.2102 0.717949 15.4966 1.00401 14.7133 1.14984C13.9997 0.431891 13.0714 0 12.0735 0C10.1445 0 8.57517 1.57893 8.57517 3.51683C8.57517 3.80569 8.57517 4.09175 8.64765 4.30769C5.72076 4.16466 3.15345 2.79888 1.43913 0.645032C1.08233 1.14984 0.940167 1.79487 0.940167 2.4399C0.940167 3.66266 1.5813 4.73958 2.50954 5.38462C1.9381 5.3117 1.36944 5.16867 0.940167 4.95272C0.940167 4.95272 0.940167 4.95272 0.940167 5.02564C0.940167 6.7476 2.15274 8.18349 3.72211 8.47236C3.43778 8.54247 3.15345 8.61539 2.79665 8.61539C2.58201 8.61539 2.36737 8.61539 2.15274 8.54247C2.58201 9.97837 3.86706 10.9852 5.43643 10.9852C4.22386 11.9191 2.72418 12.4912 1.08233 12.4912C0.798003 12.4912 0.510889 12.4912 0.226562 12.4211C1.79593 13.4251 3.65242 14 5.57859 14C12.0735 14 15.569 8.61539 15.569 3.94872C15.569 3.80569 15.569 3.66266 15.569 3.51683C16.2827 3.01482 16.8541 2.36979 17.3531 1.65184Z" fill="#3B7AF3"/>
</svg>
