<svg width="16" height="16" viewBox="0 0 16 16" fill="none" xmlns="http://www.w3.org/2000/svg">
<path d="M8 0L6.59649 3.57895L8 8L9.40351 3.57895L8 0ZM2.35088 2.35088L3.89474 5.85965L8 8L5.85965 3.85965L2.35088 2.35088ZM13.6491 2.35088L10.1404 3.85965L8 8L12.1053 5.85965L13.6491 2.35088ZM0 8L3.57895 9.36842L8 8L3.57895 6.59649L0 8ZM16 8L12.4211 6.59649L8 8L12.4211 9.36842L16 8ZM2.35088 13.6491L5.85965 12.1053L8 8L3.89474 10.1404L2.35088 13.6491ZM13.6491 13.6491L12.1053 10.1404L8 8L10.1404 12.1053L13.6491 13.6491ZM8 16L9.40351 12.4211L8 8L6.59649 12.4211L8 16Z" fill="#FBF9F4"/>
<circle cx="8" cy="8" r="5" fill="#FBF9F4"/>
</svg>
