<svg width="337" height="2" viewBox="0 0 337 2" fill="none" xmlns="http://www.w3.org/2000/svg">
<path d="M322.958 0.0439453H322.208V1.54395H322.958V0.0439453ZM294.875 1.54395H295.625V0.0439453H294.875V1.54395ZM266.792 0.0439453H266.042V1.54395H266.792V0.0439453ZM238.708 1.54395H239.458V0.0439453H238.708V1.54395ZM210.625 0.0439453H209.875V1.54395H210.625V0.0439453ZM182.542 1.54395H183.292V0.0439453H182.542V1.54395ZM154.458 0.0439453H153.708V1.54395H154.458V0.0439453ZM126.375 1.54395H127.125V0.0439453H126.375V1.54395ZM98.2917 0.0439453H97.5417V1.54395H98.2917V0.0439453ZM70.2083 1.54395H70.9583V0.0439453H70.2083V1.54395ZM42.125 0.0439453H41.375V1.54395H42.125V0.0439453ZM14.0417 1.54395H14.7917V0.0439453H14.0417V1.54395ZM337 0.0439453L322.958 0.0439453V1.54395L337 1.54395V0.0439453ZM294.875 0.0439453L266.792 0.0439453V1.54395L294.875 1.54395V0.0439453ZM238.708 0.0439453L210.625 0.0439453V1.54395L238.708 1.54395V0.0439453ZM182.542 0.0439453L154.458 0.0439453V1.54395L182.542 1.54395V0.0439453ZM126.375 0.0439453L98.2917 0.0439453V1.54395L126.375 1.54395V0.0439453ZM70.2083 0.0439453L42.125 0.0439453V1.54395L70.2083 1.54395V0.0439453ZM14.0417 0.0439453L0 0.0439453V1.54395L14.0417 1.54395V0.0439453Z" fill="#0038FF"/>
</svg>
