<svg width="335" height="264" viewBox="0 0 335 264" fill="none" xmlns="http://www.w3.org/2000/svg">
<path d="M346.525 251.539C346.74 251.596 346.891 251.788 346.896 252.011C347.002 256.456 343.683 260.422 338.874 261.798C338.67 261.856 338.451 261.78 338.328 261.607C336.07 258.426 332.847 256.041 329.385 253.79L329.384 253.79C329.106 253.608 328.699 253.485 328.281 253.425C328.281 253.425 328.281 253.424 328.281 253.424L328.353 252.93L346.525 251.539ZM346.525 251.539C346.159 251.442 345.808 251.359 345.471 251.28C344.728 251.105 344.048 250.944 343.396 250.677L343.391 250.675C340.072 249.361 336.789 247.977 333.499 246.591C333.312 246.51 333.149 246.322 332.895 246.028L332.883 246.014C330.541 243.305 327.467 241.747 323.677 241.299C323.031 241.221 322.381 241.063 321.891 240.794C319.07 239.243 316.241 237.705 313.413 236.168C306.227 232.263 299.05 228.362 292.026 224.251C278.37 216.254 264.788 208.162 251.205 200.068C244.301 195.954 237.398 191.84 230.483 187.739L230.481 187.738C229.85 187.366 229.059 187.179 228.372 187.085L228.371 187.085C227.092 186.912 226.143 186.514 225.786 185.713L225.786 185.712C225.192 184.383 224.028 183.744 222.994 183.181L222.993 183.18C222.466 182.895 221.803 182.719 221.195 182.698L221.194 182.698C219.728 182.649 218.665 182.178 218.278 181.22M346.525 251.539L217.814 181.408M317.555 246.737L317.554 246.736C303.237 238.673 288.575 231.109 273.789 223.731C262.031 217.864 250.234 212.063 238.435 206.262C234.267 204.213 230.099 202.164 225.933 200.111L226.154 199.663L225.933 200.111C225.314 199.806 224.817 199.432 224.524 198.713C223.998 197.438 222.51 196.697 220.869 196.962C220.869 196.962 220.869 196.962 220.869 196.962L220.789 196.469C219.47 196.685 217.641 195.78 217.199 194.698L317.555 246.737ZM317.555 246.737C317.934 246.949 318.27 247.224 318.44 247.495M317.555 246.737L317.799 246.3C318.213 246.532 318.63 246.857 318.864 247.229M203.121 189.04C203.121 189.04 203.122 189.04 203.122 189.04L203.328 188.585M203.121 189.04L204.736 188.729C204.304 188.832 203.724 188.766 203.328 188.585M203.121 189.04C203.121 189.04 203.12 189.039 203.12 189.039L203.328 188.585M203.121 189.04L203.328 188.585M318.864 247.229L318.44 247.494C318.44 247.495 318.44 247.495 318.44 247.495M318.864 247.229L318.44 247.495M318.864 247.229L318.44 247.495M206.37 173.533C206.846 173.879 207.365 174.182 207.88 174.483C207.984 174.544 208.088 174.605 208.191 174.666C209.072 175.185 209.818 175.695 210.147 176.737C210.589 178.142 212.347 178.892 214.009 178.761L215.245 179.023C216.311 179.623 217.324 180.193 217.814 181.408M206.37 173.533L206.664 173.129C206.664 173.129 206.664 173.129 206.664 173.129M206.37 173.533L206.664 173.129M206.37 173.533C205.754 173.086 205.107 172.986 204.319 173.03C199.576 173.299 195.427 170.621 194.168 166.566C194.052 166.197 193.744 165.79 193.39 165.571M206.664 173.129C207.118 173.459 207.611 173.747 208.126 174.048C208.231 174.11 208.338 174.172 208.445 174.235C209.334 174.759 210.234 175.351 210.624 176.586L210.624 176.587C210.793 177.125 211.226 177.572 211.842 177.877C212.458 178.181 213.221 178.322 213.97 178.263L213.97 178.263C214.464 178.224 215.052 178.342 215.485 178.585L215.485 178.585L215.539 178.616C216.571 179.196 217.721 179.842 218.278 181.22M206.664 173.129C205.921 172.589 205.143 172.483 204.291 172.53L204.29 172.53C199.744 172.788 195.828 170.223 194.646 166.418L194.645 166.415C194.493 165.934 194.11 165.429 193.654 165.146M218.278 181.22L217.814 181.408M218.278 181.22C218.278 181.22 218.278 181.22 218.278 181.221L217.814 181.408M193.654 165.146L193.39 165.571M193.654 165.146C188.754 162.108 183.857 159.068 178.959 156.028C162.153 145.595 145.345 135.162 128.464 124.824L128.464 124.824C117.084 117.857 105.883 110.754 95.6791 102.505L95.3648 102.894L128.203 125.25C145.083 135.587 161.89 146.02 178.696 156.453C183.593 159.493 188.491 162.533 193.39 165.571M193.654 165.146C193.654 165.146 193.654 165.146 193.653 165.146L193.39 165.571M14.4398 122.109C18.6989 121.053 23.0197 120.55 27.4249 120.526H27.4251C34.6904 120.482 41.8549 121.341 48.9063 122.833M14.4398 122.109L185.491 179.945L185.49 179.945C184.991 180.032 184.319 180.002 183.82 179.763L183.818 179.762C176.985 176.457 170.143 173.165 163.3 169.872C145.647 161.377 127.99 152.88 110.47 144.169L110.693 143.721L110.47 144.169C91.0359 134.505 70.5423 127.417 48.9063 122.833M14.4398 122.109L14.3188 121.624L14.4392 122.11L14.4398 122.109ZM48.9063 122.833C48.9062 122.833 48.9062 122.833 48.9062 122.833L49.0098 122.344L48.9063 122.833ZM44.9714 51.9902L45.2362 52.4143L44.9716 51.9901C44.9715 51.9901 44.9715 51.9902 44.9714 51.9902ZM10.966 92.9104L10.5296 92.6664C10.5296 92.6664 10.5296 92.6664 10.5296 92.6664L10.966 92.9104ZM51.4341 49.1778C51.434 49.1778 51.4339 49.1778 51.4339 49.1778L51.535 49.6675L51.4341 49.1778ZM59.2854 52.4119L58.8453 52.649L59.2856 52.4122C59.2856 52.4121 59.2855 52.412 59.2854 52.4119ZM56.3771 58.2966L56.3771 58.2966C56.4652 58.8971 56.5136 59.4957 56.554 59.9948C56.5666 60.1494 56.5783 60.2945 56.5902 60.4271C56.405 65.2081 55.2053 69.5458 53.5278 73.7992L53.5277 73.7994C49.3908 84.3042 43.9891 94.217 36.2146 103.003C32.3385 107.383 27.9175 111.261 22.6989 114.378L22.6986 114.378C19.9007 116.052 16.9996 117.47 13.698 118.028C12.7355 118.19 11.7165 118.241 10.7495 118.16L10.749 118.16C9.63084 118.068 8.82439 117.745 8.26416 117.248C7.70699 116.752 7.3425 116.038 7.19139 115.062C6.82434 112.691 7.36251 110.385 8.08446 108.017C9.97281 101.84 13.0355 96.0753 16.4447 90.4152C21.9716 81.2421 28.2979 72.5484 35.9337 64.6408L35.9338 64.6407C38.6721 61.8044 41.5794 59.1384 44.9368 56.904L44.9368 56.9039C46.6781 55.7448 48.4625 54.7377 50.5465 54.276C51.9417 53.9678 53.0983 54.0734 53.9964 54.5097C54.8875 54.9426 55.5816 55.7285 56.0095 56.8968C56.1781 57.3623 56.309 57.8321 56.3771 58.2966Z" fill="white" stroke="#0038FF" stroke-linejoin="round"/>
<g clip-path="url(#clip0_1182:645)">
<path d="M432.59 226.554C432.8 226.625 432.934 226.827 432.921 227.048C432.644 231.487 428.994 235.219 424.08 236.268C423.871 236.312 423.66 236.221 423.552 236.04C421.574 232.717 418.564 230.122 415.306 227.645L415.306 227.644C415.044 227.445 414.648 227.295 414.237 227.207C414.237 227.206 414.237 227.206 414.237 227.206L414.351 226.718L432.59 226.554ZM432.59 226.554C432.234 226.432 431.891 226.326 431.562 226.224C430.836 226 430.172 225.794 429.545 225.484L429.54 225.482C426.344 223.948 423.189 222.348 420.028 220.744L432.59 226.554ZM404.117 219.817L404.115 219.816C390.533 210.814 376.564 202.287 362.454 193.936C351.235 187.295 339.969 180.718 328.702 174.139C324.723 171.817 320.744 169.494 316.767 167.168C316.176 166.822 315.713 166.415 315.482 165.679C315.067 164.372 313.647 163.533 311.99 163.687C311.989 163.687 311.989 163.687 311.989 163.687L311.951 163.19C310.617 163.317 308.872 162.292 308.524 161.183L404.117 219.817ZM404.117 219.817C404.476 220.054 404.787 220.35 404.934 220.632L404.117 219.817ZM289.593 151.508L289.591 151.507C289.112 151.214 288.645 150.706 288.455 150.168C287.077 146.288 282.854 143.843 278.176 144.341L278.175 144.341C277.67 144.394 277.002 144.319 276.525 144.047L276.523 144.046C269.994 140.292 263.455 136.549 256.915 132.805C240.043 123.148 223.167 113.489 206.447 103.626L206.707 103.195L206.447 103.625C187.899 92.6835 168.074 84.2383 146.895 78.213C146.895 78.213 146.895 78.213 146.895 78.213L147.04 77.7326L289.593 151.508ZM289.593 151.508C291.355 152.578 293.15 153.605 294.972 154.594L289.593 151.508ZM106.991 75.4238L106.991 75.4238C105.452 75.2919 104.192 74.7998 103.246 73.9657C102.3 73.1311 101.705 71.9866 101.437 70.6163L101.437 70.6159C100.875 67.7294 101.571 64.9701 102.451 62.3404L102.451 62.3401C104.458 56.3488 107.667 50.8557 111.222 45.5548C118.558 34.6123 127.172 24.529 137.424 15.5716L137.424 15.5715C140.965 12.4787 144.738 9.59369 149.06 7.31162C151.113 6.22696 153.287 5.27679 155.746 4.94167C157.491 4.70328 159.049 4.87019 160.346 5.49686C161.65 6.12687 162.647 7.20097 163.297 8.69457C163.952 10.1941 164.311 11.8076 164.574 13.3604L164.574 13.3605C165.893 21.153 169.116 28.3531 173.402 35.2447L172.976 35.5135L173.402 35.2447C179.317 44.7533 186.884 53.184 195.28 61.0887L194.933 61.4547L195.28 61.0887C204.746 70.0004 215.304 77.8358 226.052 85.5469L226.052 85.547C241.996 96.9899 257.859 108.523 273.72 120.056C278.342 123.416 282.964 126.777 287.587 130.135C288.018 130.447 288.356 130.976 288.467 131.467L288.467 131.469C289.319 135.344 293.003 138.164 297.558 138.212L297.558 138.212C298.413 138.222 299.179 138.38 299.874 138.969C300.298 139.329 300.765 139.649 301.252 139.983C301.352 140.052 301.453 140.121 301.555 140.192C302.396 140.774 303.242 141.424 303.525 142.682L303.525 142.683C303.648 143.231 304.041 143.706 304.629 144.051C305.216 144.396 305.966 144.587 306.717 144.579L306.717 144.579C307.213 144.574 307.79 144.731 308.2 145.002L308.2 145.002L308.252 145.036C309.231 145.684 310.322 146.406 310.759 147.818C311.062 148.798 312.082 149.34 313.539 149.487L313.54 149.487C314.145 149.549 314.791 149.769 315.292 150.089L315.293 150.089C316.275 150.721 317.381 151.436 317.859 152.801L317.859 152.802C318.147 153.624 319.058 154.085 320.318 154.344L320.319 154.344C320.996 154.484 321.769 154.724 322.367 155.136L322.368 155.137C328.911 159.693 335.442 164.259 341.973 168.825C354.82 177.809 367.666 186.79 380.595 195.681C387.245 200.253 394.067 204.625 400.896 209.002C403.583 210.724 406.272 212.447 408.952 214.184C409.417 214.485 410.05 214.686 410.687 214.807C410.688 214.807 410.688 214.807 410.689 214.807L410.586 215.298C414.216 215.978 417.035 217.678 419.057 220.428C419.072 220.448 419.088 220.469 419.103 220.49C419.296 220.755 419.507 221.042 419.793 221.19L106.991 75.4238ZM106.991 75.4238C108.836 75.5803 110.77 75.4991 112.59 75.1748L106.991 75.4238ZM159.891 14.3659L159.891 14.3658C159.863 13.8979 159.773 13.4204 159.645 12.9447C159.318 11.751 158.694 10.9209 157.843 10.4295C156.985 9.93426 155.841 9.75122 154.424 9.96464L159.891 14.3659ZM159.891 14.3659C159.927 14.9706 159.924 15.5708 159.921 16.0712C159.921 16.2262 159.92 16.3716 159.92 16.5046M159.891 14.3659L159.92 16.5046M159.92 16.5046C159.325 21.2596 157.756 25.5041 155.717 29.6325L155.717 29.6327C150.689 39.8292 144.451 49.3502 135.944 57.5886C131.703 61.6946 126.961 65.2646 121.49 68.0216L121.489 68.0217C118.556 69.5026 115.541 70.722 112.201 71.0557C111.228 71.153 110.208 71.1351 109.25 70.9896L109.25 70.9895C108.143 70.8222 107.367 70.4468 106.851 69.9127C106.338 69.3815 106.036 68.6448 105.969 67.6613C105.807 65.2722 106.542 63.0084 107.465 60.6963C109.879 54.6644 113.428 49.1216 117.314 43.707C123.614 34.9319 130.669 26.6885 138.962 19.3171L138.962 19.3171C141.936 16.6729 145.064 14.2101 148.604 12.2079L148.604 12.2078C150.44 11.1691 152.306 10.2849 154.423 9.96469L159.92 16.5046ZM306.713 145.078C307.118 145.074 307.596 145.207 307.918 145.42L299.545 139.352C299.991 139.729 300.482 140.066 300.969 140.401C301.068 140.468 301.166 140.536 301.264 140.603C302.098 141.181 302.798 141.739 303.036 142.8C303.356 144.23 305.044 145.097 306.713 145.078Z" fill="white" stroke="#0038FF" stroke-linejoin="round"/>
</g>
<defs>
<clipPath id="clip0_1182:645">
<rect width="351.169" height="216.45" fill="white" transform="matrix(0.997735 0.0672629 -0.0858807 0.996305 104.589 0)"/>
</clipPath>
</defs>
</svg>
