<svg width="333" height="266" viewBox="0 0 333 266" fill="none" xmlns="http://www.w3.org/2000/svg">
<g clip-path="url(#clip0_1:7)">
<path d="M433.871 226.554C434.08 226.625 434.215 226.827 434.201 227.048C433.924 231.487 430.274 235.219 425.36 236.268C425.151 236.312 424.94 236.221 424.832 236.04C422.854 232.717 419.845 230.122 416.586 227.645L416.586 227.644C416.324 227.445 415.928 227.295 415.518 227.207C415.517 227.206 415.517 227.206 415.517 227.206L415.631 226.718L433.871 226.554ZM433.871 226.554C433.514 226.432 433.172 226.326 432.842 226.224C432.117 226 431.452 225.794 430.825 225.484L430.82 225.482C427.624 223.948 424.469 222.348 421.308 220.744L433.871 226.554ZM405.397 219.817L405.396 219.816C391.813 210.814 377.844 202.287 363.735 193.936C352.515 187.295 341.249 180.718 329.982 174.139C326.003 171.817 322.025 169.494 318.047 167.168C317.456 166.822 316.993 166.415 316.763 165.679C316.347 164.372 314.927 163.533 313.27 163.687C313.27 163.687 313.269 163.687 313.269 163.687L313.232 163.19C311.898 163.317 310.152 162.292 309.804 161.183L405.397 219.817ZM405.397 219.817C405.757 220.054 406.068 220.351 406.214 220.633L405.397 219.817ZM112.917 45.827C120.231 34.918 128.815 24.8695 139.03 15.9445C142.555 12.8656 146.295 10.0084 150.568 7.75186M112.917 45.827L112.502 45.5548M112.917 45.827L112.502 45.5549C112.502 45.5549 112.502 45.5549 112.502 45.5548M112.917 45.827C109.372 51.1134 106.192 56.5625 104.206 62.4905C103.331 65.1048 102.673 67.7588 103.209 70.5121C103.711 73.0812 105.411 74.6767 108.323 74.9264C110.126 75.0793 112.016 74.9996 113.792 74.6832M112.502 45.5548C119.839 34.6123 128.452 24.529 138.704 15.5716L138.704 15.5715C142.245 12.4787 146.019 9.59369 150.34 7.31162M112.502 45.5548C108.947 50.8557 105.739 56.3488 103.731 62.3401L103.731 62.3404C102.851 64.9701 102.156 67.7294 102.718 70.6159L102.718 70.6163C102.985 71.9866 103.581 73.1311 104.527 73.9657C105.472 74.7998 106.732 75.2919 108.271 75.4238L108.271 75.4238C110.116 75.5803 112.05 75.4991 113.87 75.1748L113.792 74.6832M150.34 7.31162L150.568 7.75186M150.34 7.31162C150.34 7.3116 150.34 7.31158 150.34 7.31156L150.568 7.75186M150.34 7.31162C152.393 6.22696 154.567 5.27679 157.026 4.94167M150.568 7.75186C152.601 6.67777 154.713 5.7596 157.085 5.43634M157.085 5.43634L157.026 4.9417C157.026 4.94169 157.026 4.94168 157.026 4.94167M157.085 5.43634C160.437 4.97833 162.898 6.10119 164.118 8.90063M157.085 5.43634L157.026 4.94167M157.026 4.94167C158.771 4.70328 160.329 4.87019 161.626 5.49686C162.93 6.12687 163.927 7.20097 164.578 8.69457M164.118 8.90063L164.578 8.69427C164.578 8.69437 164.578 8.69447 164.578 8.69457M164.118 8.90063C164.749 10.3457 165.1 11.9131 165.361 13.4524C166.693 21.3267 169.948 28.5869 174.256 35.5135M164.118 8.90063L164.578 8.69457M164.578 8.69457C165.232 10.1941 165.591 11.8076 165.854 13.3604L165.854 13.3605C167.173 21.153 170.396 28.3531 174.683 35.2447L174.256 35.5135M174.256 35.5135L174.683 35.2447C180.597 44.7533 188.164 53.184 196.56 61.0887L196.213 61.4547M174.256 35.5135C180.2 45.0698 187.798 53.5328 196.213 61.4547M196.213 61.4547L196.561 61.0887C206.026 70.0005 216.584 77.8358 227.332 85.5469L227.332 85.547C243.277 96.9901 259.14 108.524 275.001 120.056C279.623 123.417 284.244 126.777 288.868 130.135M196.213 61.4547L288.868 130.135M288.868 130.135C289.299 130.447 289.637 130.976 289.747 131.467L289.747 131.469C290.599 135.344 294.284 138.164 298.838 138.212L298.839 138.212C299.693 138.222 300.459 138.38 301.154 138.969C301.579 139.329 302.045 139.649 302.533 139.984C302.633 140.052 302.734 140.121 302.835 140.192C303.676 140.774 304.522 141.424 304.805 142.682L304.805 142.683C304.928 143.231 305.321 143.706 305.909 144.051C306.497 144.395 307.246 144.587 307.997 144.579L307.998 144.579C308.494 144.574 309.07 144.731 309.48 145.002L309.198 145.42L309.48 145.002L309.532 145.036C310.511 145.684 311.602 146.406 312.039 147.818C312.343 148.798 313.362 149.34 314.819 149.487L314.821 149.487C315.425 149.549 316.071 149.769 316.572 150.089L316.573 150.089C317.556 150.721 318.661 151.436 319.139 152.801L319.14 152.802C319.427 153.624 320.338 154.085 321.599 154.344L321.6 154.344C322.277 154.484 323.049 154.724 323.647 155.136L323.649 155.137C330.191 159.692 336.721 164.258 343.251 168.824C356.1 177.808 368.946 186.79 381.875 195.681C388.525 200.253 395.347 204.625 402.176 209.002C404.864 210.724 407.552 212.447 410.232 214.184C410.697 214.485 411.331 214.686 411.968 214.807C411.968 214.807 411.968 214.807 411.969 214.807L411.866 215.298C415.497 215.979 418.315 217.678 420.338 220.428C420.353 220.448 420.368 220.469 420.383 220.49C420.577 220.755 420.787 221.042 421.074 221.19L288.868 130.135ZM113.792 74.6832C118.172 73.9086 122.563 73.6963 126.995 73.97L113.871 75.1747L113.792 74.6832ZM290.873 151.508L290.872 151.507C290.393 151.214 289.925 150.706 289.735 150.168C288.358 146.288 284.134 143.843 279.456 144.341L279.456 144.341C278.95 144.394 278.283 144.319 277.805 144.047L277.803 144.046C271.274 140.292 264.735 136.549 258.196 132.806C241.324 123.148 224.448 113.489 207.727 103.626L207.988 103.195L207.727 103.625C189.18 92.6835 169.355 84.2383 148.175 78.213C148.175 78.213 148.175 78.213 148.175 78.213L148.321 77.7326L290.873 151.508ZM290.873 151.508C292.636 152.578 294.431 153.606 296.254 154.595L290.873 151.508ZM161.171 14.3659L161.171 14.3658C161.143 13.8979 161.053 13.4205 160.925 12.9449C160.598 11.7511 159.974 10.9209 159.123 10.4295C158.265 9.93426 157.121 9.75122 155.704 9.96464L161.171 14.3659ZM161.171 14.3659C161.207 14.9706 161.204 15.5708 161.202 16.0712C161.201 16.2262 161.2 16.3716 161.201 16.5046M161.171 14.3659L161.201 16.5046M161.201 16.5046C160.605 21.2596 159.036 25.5041 156.998 29.6325L156.997 29.6327C151.97 39.8292 145.732 49.3502 137.224 57.5886C132.983 61.6946 128.241 65.2646 122.77 68.0216L122.77 68.0217C119.836 69.5027 116.822 70.722 113.482 71.0557C112.508 71.153 111.488 71.1351 110.531 70.9896L110.53 70.9895C109.423 70.8222 108.647 70.4468 108.131 69.9127C107.618 69.3815 107.316 68.6448 107.249 67.6613C107.087 65.2722 107.822 63.0084 108.745 60.6963C111.159 54.6644 114.709 49.1216 118.594 43.707C124.894 34.9319 131.949 26.6885 140.243 19.3171L140.243 19.3171C143.217 16.6729 146.345 14.2101 149.884 12.2079L149.884 12.2078C151.72 11.1691 153.586 10.2849 155.704 9.96469L161.201 16.5046Z" fill="white" stroke="#0038FF" stroke-linejoin="round"/>
<path d="M162.162 16.179C162.163 16.2005 162.161 16.2219 162.159 16.2432C161.548 21.1586 159.929 25.5248 157.855 29.7257C152.79 39.9964 146.489 49.623 137.875 57.9642L137.875 57.9643C133.572 62.1302 128.747 65.7656 123.169 68.5765C120.192 70.0795 117.046 71.3629 113.524 71.7148C112.472 71.8199 111.368 71.8013 110.322 71.6423M162.162 16.179L110.407 71.1487M162.162 16.179C162.162 16.0537 162.163 15.9087 162.163 15.7492C162.166 15.2448 162.169 14.5943 162.131 13.9536L162.162 16.179ZM110.322 71.6423L110.407 71.1487M110.322 71.6423C110.322 71.6424 110.322 71.6424 110.323 71.6424L110.407 71.1487M110.322 71.6423C109.069 71.4529 108.07 71.0089 107.364 70.2778C106.655 69.5437 106.289 68.5693 106.211 67.4126L106.71 67.3697C106.856 69.51 108.047 70.792 110.407 71.1487M161.852 12.3324L161.852 12.334C161.993 12.8551 162.098 13.4009 162.131 13.9535L161.852 12.3324ZM161.852 12.3324C161.469 10.931 160.705 9.8685 159.597 9.22855C158.495 8.59238 157.108 8.40556 155.532 8.6429L155.532 8.64294M161.852 12.3324L155.532 8.64294M155.532 8.64294C153.229 8.99113 151.233 9.94877 149.363 11.0071M155.532 8.64294L149.363 11.0071M149.363 11.0071C145.736 13.0587 142.547 15.573 139.544 18.2427L149.363 11.0071Z" fill="white" stroke="#0038FF" stroke-linejoin="round"/>
</g>
<g clip-path="url(#clip1_1:7)">
<path d="M346.435 250.772C346.649 250.828 346.799 251.019 346.801 251.241C346.857 255.688 343.497 259.682 338.675 261.096C338.47 261.156 338.252 261.081 338.131 260.909C335.91 257.742 332.715 255.379 329.281 253.153L329.28 253.153C329.004 252.973 328.598 252.854 328.182 252.796C328.182 252.796 328.182 252.796 328.182 252.796L328.259 252.301L346.435 250.772ZM346.435 250.772C346.07 250.678 345.721 250.598 345.385 250.521C344.644 250.351 343.966 250.196 343.318 249.934L343.313 249.932C340.011 248.641 336.745 247.281 333.473 245.919L346.435 250.772ZM317.537 246.184L317.536 246.183C303.318 238.223 288.751 230.764 274.056 223.491C262.371 217.708 250.645 211.992 238.917 206.275C234.776 204.256 230.635 202.237 226.494 200.215C225.879 199.915 225.387 199.544 225.102 198.827C224.59 197.555 223.111 196.825 221.47 197.102C221.47 197.102 221.469 197.102 221.469 197.102L221.395 196.609C220.074 196.835 218.257 195.944 217.827 194.864L317.537 246.184ZM317.537 246.184C317.914 246.394 318.246 246.666 318.413 246.936L317.537 246.184ZM12.863 94.557C19.3407 83.1315 27.1494 72.4691 36.668 62.8051C39.9529 59.4712 43.4687 56.3423 47.5614 53.7724M12.863 94.557L12.4291 94.3166M12.863 94.557L12.4291 94.3167C12.4291 94.3166 12.4291 94.3166 12.4291 94.3166M12.863 94.557C9.72326 100.094 6.96016 105.765 5.42259 111.825C4.74614 114.498 4.28853 117.193 5.02885 119.899C5.72171 122.423 7.53606 123.887 10.4584 123.918C12.2676 123.936 14.1466 123.715 15.8939 123.267M12.4291 94.3166C18.9268 82.8559 26.7619 72.1568 36.315 62.4576L36.3151 62.4576C39.6149 59.1085 43.1621 55.9494 47.3011 53.3505M12.4291 94.3166C9.28082 99.8685 6.49206 105.586 4.93807 111.711L4.938 111.711C4.25757 114.399 3.77024 117.203 4.54639 120.039L4.54649 120.04C4.91606 121.386 5.5951 122.483 6.60106 123.244C7.60644 124.005 8.8991 124.402 10.4437 124.418L10.4441 124.418C12.2953 124.436 14.2179 124.211 16.009 123.751L15.8939 123.267M47.3011 53.3505L47.5614 53.7724M47.3011 53.3505C47.3012 53.3505 47.3012 53.3504 47.3012 53.3504L47.5614 53.7724M47.3011 53.3505C49.267 52.1153 51.3636 51.0052 53.791 50.4871M47.5614 53.7724C49.5082 52.5493 51.5451 51.4758 53.8866 50.976M53.8866 50.976L53.7909 50.4871C53.7909 50.4871 53.791 50.4871 53.791 50.4871M53.8866 50.976C57.1953 50.2685 59.7329 51.2042 61.1589 53.9046M53.8866 50.976L53.791 50.4871M53.791 50.4871C55.5133 50.1189 57.0794 50.1688 58.4195 50.6967C59.7668 51.2274 60.8412 52.224 61.602 53.6647M61.1589 53.9046L61.6019 53.6644C61.6019 53.6645 61.602 53.6646 61.602 53.6647M61.1589 53.9046C61.8962 55.2984 62.3632 56.8351 62.7386 58.3506C64.6562 66.1032 68.4446 73.0997 73.2589 79.6846M61.1589 53.9046L61.602 53.6647M61.602 53.6647C62.367 55.111 62.8454 56.6932 63.2241 58.2219L63.2242 58.2221C65.1218 65.8941 68.8744 72.833 73.6645 79.3847L73.2589 79.6846M73.2589 79.6846L73.6645 79.3847C80.2732 88.4243 88.4495 96.2655 97.4139 103.52L97.095 103.911M73.2589 79.6846C79.9007 88.7696 88.1111 96.6406 97.095 103.911M97.095 103.911L97.4139 103.52C107.519 111.699 118.634 118.723 129.928 125.608L129.928 125.608C146.685 135.827 163.366 146.142 180.045 156.456C184.905 159.461 189.765 162.466 194.627 165.469M97.095 103.911L194.627 165.469M194.627 165.469C195.08 165.748 195.456 166.25 195.603 166.731L195.604 166.733C196.743 170.534 200.628 173.07 205.173 172.778L205.174 172.778C206.026 172.724 206.803 172.824 207.539 173.359C207.99 173.686 208.479 173.971 208.99 174.268C209.095 174.329 209.201 174.39 209.307 174.453C210.189 174.97 211.082 175.556 211.458 176.789L211.458 176.79C211.622 177.328 212.049 177.772 212.661 178.071C213.273 178.371 214.035 178.506 214.783 178.442L214.783 178.441C215.278 178.399 215.864 178.513 216.294 178.753L216.044 179.19L216.294 178.753L216.348 178.783C217.373 179.356 218.514 179.994 219.056 181.369C219.432 182.324 220.489 182.788 221.953 182.825L221.954 182.825C222.562 182.842 223.223 183.013 223.746 183.295L223.747 183.295C224.774 183.851 225.93 184.482 226.509 185.807L226.509 185.808C226.857 186.607 227.8 186.998 229.077 187.162L229.078 187.162C229.763 187.251 230.551 187.432 231.179 187.799L231.18 187.8C238.045 191.853 244.898 195.918 251.752 199.982C265.236 207.98 278.718 215.976 292.276 223.875C299.25 227.937 306.379 231.786 313.517 235.64C316.325 237.157 319.135 238.674 321.938 240.205C322.424 240.47 323.071 240.624 323.715 240.697C323.715 240.697 323.716 240.697 323.716 240.697L323.651 241.194C327.321 241.601 330.259 243.085 332.482 245.676C332.498 245.695 332.515 245.715 332.532 245.734C332.745 245.984 332.976 246.255 333.273 246.38L194.627 165.469ZM15.8939 123.267C20.2035 122.167 24.567 121.627 29.0063 121.568L16.0096 123.751L15.8939 123.267ZM198.225 186.632L198.224 186.631C197.724 186.375 197.22 185.903 196.99 185.381C195.326 181.615 190.932 179.493 186.304 180.339L186.303 180.339C185.803 180.43 185.132 180.405 184.635 180.169L184.634 180.168C177.842 176.913 171.042 173.67 164.241 170.426C146.693 162.058 129.142 153.688 111.73 145.103L111.958 144.653L111.73 145.102C92.4168 135.578 72.0156 128.64 50.4449 124.215C50.4449 124.215 50.4449 124.215 50.4448 124.215L50.5541 123.725L198.225 186.632ZM198.225 186.632C200.063 187.567 201.93 188.458 203.821 189.308L198.225 186.632ZM58.6292 59.5749L58.6292 59.5748C58.5663 59.1103 58.4406 58.641 58.2773 58.1763C57.8625 57.0103 57.1776 56.2291 56.2922 55.8028C55.3997 55.3731 54.2455 55.2761 52.848 55.5949L58.6292 59.5749ZM58.6292 59.5749C58.7105 60.1752 58.7523 60.774 58.7871 61.2732C58.7979 61.4278 58.808 61.5729 58.8184 61.7055M58.6292 59.5749L58.8184 61.7055M58.8184 61.7055C58.5801 66.4916 57.3329 70.8417 55.6091 75.1109L55.6091 75.1112C51.3579 85.6551 45.8494 95.616 37.9821 104.468C34.0598 108.879 29.5985 112.794 24.3487 115.952L24.3484 115.953C21.5337 117.649 18.6189 119.09 15.3134 119.673C14.3498 119.843 13.331 119.901 12.3656 119.828L12.3651 119.828C11.2489 119.743 10.4467 119.427 9.89244 118.933C9.34114 118.442 8.98474 117.73 8.84456 116.754C8.50413 114.384 9.06762 112.071 9.8154 109.697C11.7713 103.501 14.8962 97.7084 18.3662 92.0183C23.9917 82.7966 30.4105 74.0487 38.1295 66.0776L38.1295 66.0775C40.8976 63.2184 43.8327 60.5285 47.2127 58.2671L47.2127 58.2671C48.9657 57.094 50.7601 56.0727 52.8477 55.595L58.8184 61.7055Z" fill="white" stroke="#0038FF" stroke-linejoin="round"/>
<path d="M59.7533 61.3088C59.7551 61.3302 59.7554 61.3517 59.7543 61.3732C59.5127 66.3205 58.2249 70.7956 56.471 75.1398C52.1888 85.7605 46.625 95.8314 38.6596 104.793L38.6596 104.794C34.68 109.27 30.1407 113.256 24.7883 116.476C21.9317 118.197 18.8906 119.713 15.4045 120.327C14.3639 120.51 13.2609 120.574 12.2066 120.494M59.7533 61.3088L12.2538 119.996M59.7533 61.3088C59.7433 61.1839 59.7332 61.0393 59.7221 60.8801C59.6871 60.377 59.6419 59.728 59.5557 59.092L59.7533 61.3088ZM12.2066 120.494L12.2538 119.996M12.2066 120.494C12.2067 120.494 12.2069 120.494 12.207 120.494L12.2538 119.996M12.2066 120.494C10.9431 120.399 9.91357 120.031 9.1548 119.355C8.39297 118.676 7.95497 117.731 7.79011 116.584L8.28507 116.504C8.59012 118.627 9.87388 119.816 12.2538 119.996M59.156 57.4962L59.1566 57.4978C59.3356 58.0069 59.4814 58.5434 59.5557 59.0919L59.156 57.4962ZM59.156 57.4962C58.6695 56.1274 57.8282 55.125 56.6751 54.5697C55.5287 54.0178 54.1318 53.9352 52.5781 54.2897L52.5778 54.2898M59.156 57.4962L52.5778 54.2898M52.5778 54.2898C50.3076 54.8092 48.3889 55.9135 46.6028 57.1087M52.5778 54.2898L46.6028 57.1087M46.6028 57.1087C43.1395 59.4258 40.1476 62.1716 37.3528 65.0584L46.6028 57.1087Z" fill="white" stroke="#0038FF" stroke-linejoin="round"/>
</g>
<defs>
<clipPath id="clip0_1:7">
<rect width="351.169" height="216.45" fill="white" transform="matrix(0.997735 0.0672629 -0.0858807 0.996305 105.869 0)"/>
</clipPath>
<clipPath id="clip1_1:7">
<rect width="351.169" height="216.45" fill="white" transform="matrix(0.999972 -0.00754892 -0.0111236 0.999938 2.40771 49.3855)"/>
</clipPath>
</defs>
</svg>
