<svg width="1440" height="309" viewBox="0 0 1440 309" fill="none" xmlns="http://www.w3.org/2000/svg">
<rect x="-106.727" y="241.8" width="1794.39" height="80" transform="rotate(-8.47739 -106.727 241.8)" fill="#CCFC82"/>
<path d="M4.27956 274.078C4.05349 273.829 3.96328 273.486 4.03838 273.158L6.54287 262.052C3.62805 261.761 0.719767 262.667 -1.51453 264.561C-3.74895 266.455 -5.11821 269.176 -5.30794 272.099C-5.49757 275.023 -4.49156 277.897 -2.52087 280.065C-0.550188 282.232 2.21631 283.506 5.14448 283.594C8.07265 283.682 10.9108 282.577 13.0081 280.532C15.1059 278.488 16.2829 275.679 16.2696 272.749L5.19066 274.4C4.85237 274.451 4.51084 274.331 4.27962 274.078L4.27956 274.078Z" fill="#3A64F3"/>
<path d="M16.0782 270.698C15.7009 268.774 14.8059 266.99 13.4899 265.537C12.174 264.084 10.4868 263.017 8.6095 262.452L6.41351 272.138L16.0782 270.698Z" fill="#3A64F3"/>
<path d="M39.4861 256.809C38.0077 257.029 36.5913 257.555 35.3278 258.355L41.4958 267.502L39.795 268.649L33.6961 259.617C31.1702 261.991 29.9382 265.433 30.385 268.871C30.8324 272.308 32.9037 275.322 35.9526 276.971C39.0021 278.62 42.6575 278.703 45.7791 277.195C48.9002 275.687 51.1067 272.771 51.7098 269.357C52.3134 265.944 51.2394 262.448 48.8243 259.962C46.4091 257.475 42.9462 256.301 39.5166 256.805L39.4861 256.809Z" fill="#3A64F3"/>
<path d="M27.7367 247.123L35.275 245.999C35.5448 245.959 35.8196 246.028 36.0388 246.19C36.258 246.352 36.4037 246.595 36.444 246.865L36.5956 247.882C36.6358 248.152 36.5672 248.427 36.4049 248.646C36.2426 248.865 35.9997 249.011 35.7299 249.051L33.9496 249.317L34.2529 251.351L36.0331 251.086C36.8425 250.965 37.5712 250.528 38.0581 249.87C38.5449 249.213 38.7508 248.388 38.6302 247.579L38.4786 246.562C38.358 245.752 37.9206 245.024 37.2631 244.537C36.6056 244.05 35.781 243.844 34.9717 243.965L25.8157 245.329C25.4641 245.381 25.1641 245.611 25.0223 245.936C24.8703 246.272 24.9085 246.662 25.123 246.961L27.3978 250.293L9.82866 252.912L6.50579 249.247L11.7247 248.47L11.4214 246.435L1.24805 247.951L1.55131 249.986L4.05372 249.613L8.3095 254.303L6.5527 262.053C7.25015 262.116 7.93913 262.25 8.6092 262.453L10.0316 256.157L22.314 269.77L16.0778 270.7L16.1536 271.208C16.2288 271.719 16.2671 272.234 16.2693 272.751L24.5198 271.521C24.9392 271.457 25.2763 271.143 25.3687 270.729L29.3474 253.186L33.6962 259.619L33.6963 259.62C34.1963 259.14 34.7418 258.71 35.3249 258.337L27.7367 247.123ZM23.8083 268.351L11.4849 254.745L27.4263 252.369L23.8083 268.351Z" fill="#3A64F3"/>
<path d="M77.0745 263.229C76.8484 262.98 76.7582 262.636 76.8333 262.308L79.3378 251.203C76.423 250.912 73.5147 251.817 71.2804 253.711C69.046 255.606 67.6767 258.327 67.487 261.25C67.2973 264.173 68.3034 267.048 70.274 269.215C72.2447 271.382 75.0112 272.656 77.9394 272.744C80.8676 272.833 83.7057 271.728 85.803 269.683C87.9008 267.638 89.0778 264.829 89.0645 261.9L77.9856 263.551C77.6473 263.602 77.3058 263.481 77.0745 263.229L77.0745 263.229Z" fill="#3A64F3"/>
<path d="M88.8731 259.848C88.4958 257.925 87.6008 256.14 86.2849 254.687C84.9689 253.234 83.2817 252.168 81.4044 251.602L79.2084 261.289L88.8731 259.848Z" fill="#3A64F3"/>
<path d="M112.281 245.959C110.803 246.179 109.386 246.706 108.123 247.505L114.291 256.652L112.59 257.8L106.491 248.767C103.965 251.141 102.733 254.584 103.18 258.021C103.627 261.459 105.699 264.472 108.748 266.121C111.797 267.77 115.452 267.853 118.574 266.345C121.695 264.837 123.902 261.921 124.505 258.508C125.108 255.094 124.034 251.599 121.619 249.112C119.204 246.626 115.741 245.451 112.312 245.955L112.281 245.959Z" fill="#3A64F3"/>
<path d="M100.532 236.273L108.07 235.15C108.34 235.109 108.615 235.178 108.834 235.34C109.053 235.503 109.199 235.746 109.239 236.015L109.391 237.033C109.431 237.302 109.362 237.577 109.2 237.796C109.037 238.016 108.795 238.161 108.525 238.202L106.745 238.467L107.048 240.502L108.828 240.236C109.637 240.116 110.366 239.678 110.853 239.021C111.34 238.363 111.546 237.539 111.425 236.729L111.274 235.712C111.153 234.903 110.716 234.174 110.058 233.687C109.401 233.2 108.576 232.994 107.767 233.115L98.6106 234.48C98.259 234.531 97.959 234.761 97.8172 235.087C97.6652 235.422 97.7035 235.813 97.918 236.112L100.193 239.444L82.6236 242.062L79.3007 238.398L84.5196 237.62L84.2163 235.585L74.043 237.102L74.3462 239.136L76.8486 238.763L81.1044 243.454L79.3476 251.203C80.0451 251.266 80.7341 251.4 81.4041 251.603L82.8265 245.308L95.1089 258.92L88.8727 259.85L88.9485 260.359C89.0237 260.869 89.062 261.385 89.0643 261.901L97.3147 260.672C97.7341 260.608 98.0712 260.293 98.1636 259.879L102.142 242.336L106.491 248.77L106.491 248.77C106.991 248.29 107.537 247.861 108.12 247.487L100.532 236.273ZM96.6032 257.502L84.2798 243.895L100.221 241.519L96.6032 257.502Z" fill="#3A64F3"/>
<path d="M149.869 252.378C149.643 252.129 149.553 251.786 149.628 251.458L152.133 240.352C149.218 240.061 146.31 240.967 144.075 242.861C141.841 244.755 140.472 247.476 140.282 250.399C140.092 253.322 141.098 256.197 143.069 258.364C145.04 260.532 147.806 261.806 150.734 261.894C153.662 261.982 156.501 260.877 158.598 258.832C160.696 256.787 161.873 253.978 161.859 251.049L150.781 252.7C150.442 252.751 150.101 252.631 149.869 252.378L149.869 252.378Z" fill="#3A64F3"/>
<path d="M161.668 248.998C161.291 247.074 160.396 245.289 159.08 243.837C157.764 242.384 156.077 241.317 154.199 240.752L152.003 250.438L161.668 248.998Z" fill="#3A64F3"/>
<path d="M185.076 235.109C183.598 235.329 182.181 235.855 180.918 236.654L187.086 245.801L185.385 246.949L179.286 237.917C176.76 240.29 175.528 243.733 175.975 247.171C176.422 250.608 178.494 253.622 181.542 255.27C184.592 256.919 188.247 257.003 191.369 255.495C194.49 253.987 196.697 251.071 197.3 247.657C197.903 244.244 196.829 240.748 194.414 238.262C191.999 235.775 188.536 234.601 185.106 235.104L185.076 235.109Z" fill="#3A64F3"/>
<path d="M173.327 225.423L180.865 224.299C181.135 224.259 181.409 224.327 181.629 224.49C181.848 224.652 181.994 224.895 182.034 225.165L182.185 226.182C182.226 226.452 182.157 226.727 181.995 226.946C181.832 227.165 181.59 227.311 181.32 227.351L179.539 227.616L179.843 229.651L181.623 229.386C182.432 229.265 183.161 228.828 183.648 228.17C184.135 227.513 184.341 226.688 184.22 225.879L184.068 224.862C183.948 224.052 183.51 223.323 182.853 222.837C182.195 222.35 181.371 222.144 180.562 222.264L171.406 223.629C171.054 223.681 170.754 223.911 170.612 224.236C170.46 224.571 170.498 224.962 170.713 225.261L172.988 228.593L155.419 231.212L152.096 227.547L157.315 226.769L157.011 224.735L146.838 226.251L147.141 228.286L149.644 227.913L153.899 232.603L152.143 240.352C152.84 240.416 153.529 240.55 154.199 240.753L155.621 234.457L167.904 248.07L161.668 248.999L161.743 249.508C161.819 250.019 161.857 250.534 161.859 251.051L170.11 249.821C170.529 249.757 170.866 249.443 170.959 249.029L174.937 231.485L179.286 237.919L179.286 237.919C179.786 237.44 180.332 237.01 180.915 236.637L173.327 225.423ZM169.398 246.651L157.075 233.045L173.016 230.669L169.398 246.651Z" fill="#3A64F3"/>
<path d="M222.666 241.529C222.44 241.279 222.35 240.936 222.425 240.608L224.93 229.503C222.015 229.211 219.106 230.117 216.872 232.011C214.638 233.906 213.269 236.626 213.079 239.549C212.889 242.473 213.895 245.347 215.866 247.515C217.837 249.682 220.603 250.956 223.531 251.044C226.459 251.132 229.298 250.027 231.395 247.983C233.493 245.938 234.67 243.129 234.656 240.199L223.577 241.851C223.239 241.902 222.898 241.781 222.666 241.529L222.666 241.529Z" fill="#3A64F3"/>
<path d="M234.465 238.148C234.088 236.224 233.193 234.44 231.877 232.987C230.561 231.534 228.873 230.467 226.996 229.902L224.8 239.589L234.465 238.148Z" fill="#3A64F3"/>
<path d="M257.873 224.259C256.394 224.479 254.978 225.005 253.715 225.805L259.883 234.952L258.182 236.1L252.083 227.067C249.557 229.441 248.325 232.883 248.772 236.321C249.219 239.759 251.29 242.772 254.339 244.421C257.389 246.07 261.044 246.153 264.166 244.645C267.287 243.137 269.493 240.221 270.097 236.807C270.7 233.394 269.626 229.898 267.211 227.412C264.796 224.926 261.333 223.751 257.903 224.255L257.873 224.259Z" fill="#3A64F3"/>
<path d="M246.123 214.573L253.662 213.449C253.931 213.409 254.206 213.478 254.426 213.64C254.645 213.802 254.79 214.045 254.831 214.315L254.982 215.332C255.023 215.602 254.954 215.877 254.792 216.096C254.629 216.315 254.386 216.461 254.117 216.501L252.336 216.767L252.64 218.801L254.42 218.536C255.229 218.415 255.958 217.978 256.445 217.321C256.932 216.663 257.138 215.838 257.017 215.029L256.865 214.012C256.745 213.203 256.307 212.474 255.65 211.987C254.992 211.5 254.168 211.294 253.358 211.415L244.202 212.78C243.851 212.831 243.551 213.061 243.409 213.387C243.257 213.722 243.295 214.113 243.51 214.412L245.784 217.743L228.215 220.362L224.893 216.698L230.111 215.92L229.808 213.885L219.635 215.401L219.938 217.436L222.44 217.063L226.696 221.753L224.939 229.503C225.637 229.566 226.326 229.7 226.996 229.903L228.418 223.608L240.701 237.22L234.465 238.15L234.54 238.658C234.616 239.169 234.654 239.685 234.656 240.201L242.906 238.971C243.326 238.907 243.663 238.593 243.755 238.179L247.734 220.636L252.083 227.069L252.083 227.07C252.583 226.59 253.129 226.16 253.712 225.787L246.123 214.573ZM242.195 235.801L229.872 222.195L245.813 219.819L242.195 235.801Z" fill="#3A64F3"/>
<path d="M295.461 230.678C295.235 230.429 295.145 230.085 295.22 229.758L297.725 218.652C294.81 218.361 291.901 219.266 289.667 221.161C287.433 223.055 286.063 225.776 285.874 228.699C285.684 231.622 286.69 234.497 288.661 236.664C290.631 238.832 293.398 240.105 296.326 240.194C299.254 240.282 302.092 239.177 304.19 237.132C306.288 235.087 307.465 232.278 307.451 229.349L296.372 231C296.034 231.051 295.692 230.931 295.461 230.678L295.461 230.678Z" fill="#3A64F3"/>
<path d="M307.26 227.298C306.883 225.374 305.988 223.589 304.672 222.136C303.356 220.683 301.668 219.617 299.791 219.051L297.595 228.738L307.26 227.298Z" fill="#3A64F3"/>
<path d="M330.668 213.409C329.189 213.629 327.773 214.155 326.509 214.954L332.677 224.101L330.977 225.249L324.878 216.216C322.352 218.59 321.12 222.033 321.567 225.47C322.014 228.908 324.085 231.922 327.134 233.57C330.184 235.219 333.839 235.302 336.961 233.795C340.082 232.287 342.288 229.37 342.891 225.957C343.495 222.543 342.421 219.048 340.006 216.561C337.591 214.075 334.128 212.9 330.698 213.404L330.668 213.409Z" fill="#3A64F3"/>
<path d="M318.918 203.722L326.457 202.599C326.726 202.559 327.001 202.627 327.22 202.79C327.44 202.952 327.585 203.195 327.626 203.465L327.777 204.482C327.817 204.752 327.749 205.026 327.587 205.246C327.424 205.465 327.181 205.611 326.912 205.651L325.131 205.916L325.435 207.951L327.215 207.685C328.024 207.565 328.753 207.128 329.24 206.47C329.727 205.812 329.932 204.988 329.812 204.179L329.66 203.161C329.54 202.352 329.102 201.623 328.445 201.136C327.787 200.65 326.963 200.444 326.153 200.564L316.997 201.929C316.646 201.98 316.346 202.21 316.204 202.536C316.052 202.871 316.09 203.262 316.305 203.561L318.579 206.893L301.01 209.511L297.687 205.847L302.906 205.069L302.603 203.034L292.43 204.551L292.733 206.585L295.235 206.212L299.491 210.903L297.734 218.652C298.432 218.715 299.121 218.849 299.791 219.053L301.213 212.757L313.496 226.37L307.259 227.299L307.335 227.808C307.41 228.318 307.449 228.834 307.451 229.35L315.701 228.121C316.121 228.057 316.458 227.742 316.55 227.328L320.529 209.785L324.878 216.219L324.878 216.219C325.378 215.739 325.923 215.31 326.507 214.937L318.918 203.722ZM314.99 224.951L302.667 211.344L318.608 208.968L314.99 224.951Z" fill="#3A64F3"/>
<path d="M368.256 219.828C368.03 219.579 367.94 219.236 368.015 218.908L370.519 207.802C367.605 207.511 364.696 208.417 362.462 210.311C360.228 212.205 358.858 214.926 358.669 217.849C358.479 220.773 359.485 223.647 361.456 225.815C363.426 227.982 366.193 229.256 369.121 229.344C372.049 229.432 374.887 228.327 376.985 226.282C379.082 224.238 380.259 221.429 380.246 218.499L369.167 220.15C368.829 220.201 368.487 220.081 368.256 219.828L368.256 219.828Z" fill="#3A64F3"/>
<path d="M380.055 216.448C379.677 214.524 378.782 212.74 377.467 211.287C376.151 209.834 374.463 208.767 372.586 208.202L370.39 217.888L380.055 216.448Z" fill="#3A64F3"/>
<path d="M403.463 202.559C401.984 202.779 400.568 203.305 399.304 204.105L405.472 213.252L403.772 214.399L397.673 205.367C395.147 207.741 393.915 211.183 394.362 214.621C394.809 218.058 396.88 221.072 399.929 222.721C402.979 224.37 406.634 224.453 409.756 222.945C412.877 221.437 415.083 218.521 415.686 215.107C416.29 211.694 415.216 208.198 412.801 205.712C410.386 203.225 406.923 202.051 403.493 202.555L403.463 202.559Z" fill="#3A64F3"/>
<path d="M391.713 192.873L399.252 191.749C399.521 191.709 399.796 191.778 400.015 191.94C400.235 192.102 400.38 192.345 400.421 192.615L400.572 193.632C400.612 193.902 400.544 194.177 400.381 194.396C400.219 194.615 399.976 194.761 399.706 194.801L397.926 195.067L398.229 197.101L400.01 196.836C400.819 196.715 401.548 196.278 402.035 195.62C402.521 194.963 402.727 194.138 402.607 193.329L402.455 192.312C402.335 191.502 401.897 190.774 401.24 190.287C400.582 189.8 399.758 189.594 398.948 189.715L389.792 191.079C389.441 191.131 389.141 191.361 388.999 191.686C388.847 192.022 388.885 192.412 389.1 192.711L391.374 196.043L373.805 198.662L370.482 194.997L375.701 194.22L375.398 192.185L365.225 193.701L365.528 195.736L368.03 195.363L372.286 200.053L370.529 207.803C371.227 207.866 371.916 208 372.586 208.203L374.008 201.907L386.291 215.52L380.054 216.45L380.13 216.958C380.205 217.469 380.244 217.984 380.246 218.501L388.496 217.271C388.916 217.207 389.253 216.893 389.345 216.479L393.324 198.936L397.673 205.369L397.673 205.37C398.173 204.89 398.718 204.46 399.302 204.087L391.713 192.873ZM387.785 214.101L375.461 200.495L391.403 198.119L387.785 214.101Z" fill="#3A64F3"/>
<path d="M441.053 208.979C440.827 208.73 440.737 208.386 440.812 208.058L443.316 196.953C440.401 196.662 437.493 197.567 435.259 199.461C433.024 201.356 431.655 204.077 431.466 207C431.276 209.923 432.282 212.798 434.253 214.965C436.223 217.132 438.99 218.406 441.918 218.494C444.846 218.583 447.684 217.478 449.782 215.433C451.879 213.388 453.056 210.579 453.043 207.65L441.964 209.301C441.626 209.352 441.284 209.231 441.053 208.979L441.053 208.979Z" fill="#3A64F3"/>
<path d="M452.852 205.598C452.474 203.675 451.579 201.89 450.263 200.437C448.947 198.984 447.26 197.918 445.383 197.352L443.187 207.039L452.852 205.598Z" fill="#3A64F3"/>
<path d="M476.26 191.709C474.781 191.929 473.365 192.456 472.101 193.255L478.269 202.402L476.568 203.55L470.47 194.517C467.944 196.891 466.712 200.334 467.158 203.771C467.606 207.209 469.677 210.222 472.726 211.871C475.776 213.52 479.431 213.603 482.553 212.095C485.674 210.587 487.88 207.671 488.483 204.258C489.087 200.844 488.013 197.349 485.598 194.862C483.183 192.376 479.72 191.201 476.29 191.705L476.26 191.709Z" fill="#3A64F3"/>
<path d="M464.51 182.023L472.048 180.9C472.318 180.859 472.593 180.928 472.812 181.09C473.031 181.253 473.177 181.496 473.217 181.765L473.369 182.783C473.409 183.052 473.341 183.327 473.178 183.546C473.016 183.766 472.773 183.911 472.503 183.952L470.723 184.217L471.026 186.252L472.807 185.986C473.616 185.866 474.345 185.428 474.832 184.771C475.318 184.113 475.524 183.289 475.404 182.479L475.252 181.462C475.131 180.653 474.694 179.924 474.037 179.437C473.379 178.95 472.554 178.744 471.745 178.865L462.589 180.23C462.238 180.281 461.938 180.511 461.796 180.837C461.644 181.172 461.682 181.563 461.896 181.862L464.171 185.194L446.602 187.812L443.279 184.148L448.498 183.37L448.195 181.335L438.021 182.852L438.325 184.886L440.827 184.513L445.083 189.204L443.326 196.953C444.024 197.016 444.713 197.15 445.383 197.353L446.805 191.058L459.087 204.67L452.851 205.6L452.927 206.109C453.002 206.619 453.041 207.135 453.043 207.651L461.293 206.422C461.713 206.358 462.05 206.043 462.142 205.629L466.121 188.086L470.47 194.52L470.47 194.52C470.97 194.04 471.515 193.611 472.098 193.237L464.51 182.023ZM460.582 203.252L448.258 189.645L464.2 187.269L460.582 203.252Z" fill="#3A64F3"/>
<path d="M513.848 198.128C513.622 197.879 513.532 197.536 513.607 197.208L516.111 186.102C513.196 185.811 510.288 186.717 508.054 188.611C505.819 190.505 504.45 193.226 504.26 196.149C504.071 199.072 505.077 201.947 507.047 204.114C509.018 206.282 511.785 207.556 514.713 207.644C517.641 207.732 520.479 206.627 522.576 204.582C524.674 202.537 525.851 199.728 525.838 196.799L514.759 198.45C514.421 198.501 514.079 198.381 513.848 198.128L513.848 198.128Z" fill="#3A64F3"/>
<path d="M525.647 194.748C525.269 192.824 524.374 191.039 523.058 189.587C521.742 188.134 520.055 187.067 518.178 186.502L515.982 196.188L525.647 194.748Z" fill="#3A64F3"/>
<path d="M549.054 180.859C547.576 181.079 546.16 181.605 544.896 182.404L551.064 191.551L549.363 192.699L543.265 183.667C540.739 186.04 539.507 189.483 539.953 192.921C540.401 196.358 542.472 199.372 545.521 201.02C548.57 202.669 552.226 202.753 555.347 201.245C558.469 199.737 560.675 196.821 561.278 193.407C561.882 189.994 560.808 186.498 558.393 184.012C555.977 181.525 552.515 180.351 549.085 180.854L549.054 180.859Z" fill="#3A64F3"/>
<path d="M537.305 171.173L544.843 170.049C545.113 170.009 545.388 170.077 545.607 170.24C545.826 170.402 545.972 170.645 546.012 170.915L546.164 171.932C546.204 172.202 546.136 172.477 545.973 172.696C545.811 172.915 545.568 173.061 545.298 173.101L543.518 173.366L543.821 175.401L545.602 175.136C546.411 175.015 547.14 174.578 547.626 173.92C548.113 173.263 548.319 172.438 548.199 171.629L548.047 170.612C547.926 169.802 547.489 169.073 546.831 168.587C546.174 168.1 545.349 167.894 544.54 168.014L535.384 169.379C535.032 169.431 534.732 169.661 534.591 169.986C534.439 170.321 534.477 170.712 534.691 171.011L536.966 174.343L519.397 176.962L516.074 173.297L521.293 172.519L520.99 170.485L510.816 172.001L511.12 174.036L513.622 173.663L517.878 178.353L516.121 186.102C516.819 186.166 517.507 186.3 518.178 186.503L519.6 180.207L531.882 193.82L525.646 194.749L525.722 195.258C525.797 195.769 525.835 196.284 525.838 196.801L534.088 195.571C534.508 195.507 534.845 195.193 534.937 194.779L538.916 177.235L543.265 183.669L543.265 183.669C543.765 183.19 544.31 182.76 544.893 182.387L537.305 171.173ZM533.377 192.401L521.053 178.795L536.995 176.419L533.377 192.401Z" fill="#3A64F3"/>
<path d="M586.643 187.279C586.417 187.029 586.327 186.686 586.402 186.358L588.906 175.253C585.991 174.961 583.083 175.867 580.849 177.761C578.614 179.656 577.245 182.376 577.055 185.299C576.866 188.223 577.872 191.097 579.842 193.265C581.813 195.432 584.58 196.706 587.508 196.794C590.436 196.882 593.274 195.777 595.371 193.733C597.469 191.688 598.646 188.879 598.633 185.949L587.554 187.601C587.216 187.652 586.874 187.531 586.643 187.279L586.643 187.279Z" fill="#3A64F3"/>
<path d="M598.441 183.898C598.064 181.974 597.169 180.19 595.853 178.737C594.537 177.284 592.85 176.217 590.973 175.652L588.777 185.339L598.441 183.898Z" fill="#3A64F3"/>
<path d="M621.849 170.009C620.371 170.229 618.955 170.755 617.691 171.555L623.859 180.702L622.158 181.85L616.059 172.817C613.534 175.191 612.301 178.633 612.748 182.071C613.196 185.509 615.267 188.522 618.316 190.171C621.365 191.82 625.021 191.903 628.142 190.395C631.263 188.887 633.47 185.971 634.073 182.557C634.677 179.144 633.603 175.648 631.188 173.162C628.772 170.676 625.309 169.501 621.88 170.005L621.849 170.009Z" fill="#3A64F3"/>
<path d="M610.1 160.323L617.638 159.199C617.908 159.159 618.183 159.228 618.402 159.39C618.621 159.552 618.767 159.795 618.807 160.065L618.959 161.082C618.999 161.352 618.93 161.627 618.768 161.846C618.606 162.065 618.363 162.211 618.093 162.251L616.313 162.517L616.616 164.551L618.396 164.286C619.206 164.165 619.935 163.728 620.421 163.071C620.908 162.413 621.114 161.588 620.993 160.779L620.842 159.762C620.721 158.953 620.284 158.224 619.626 157.737C618.969 157.25 618.144 157.044 617.335 157.165L608.179 158.53C607.827 158.581 607.527 158.811 607.386 159.137C607.234 159.472 607.272 159.863 607.486 160.162L609.761 163.493L592.192 166.112L588.869 162.448L594.088 161.67L593.785 159.635L583.611 161.151L583.915 163.186L586.417 162.813L590.673 167.503L588.916 175.253C589.613 175.316 590.302 175.45 590.972 175.653L592.395 169.358L604.677 182.97L598.441 183.9L598.517 184.408C598.592 184.919 598.63 185.435 598.633 185.951L606.883 184.721C607.302 184.657 607.64 184.343 607.732 183.929L611.711 166.386L616.06 172.819L616.06 172.82C616.56 172.34 617.105 171.91 617.688 171.537L610.1 160.323ZM606.172 181.551L593.848 167.945L609.79 165.569L606.172 181.551Z" fill="#3A64F3"/>
<path d="M659.44 176.428C659.214 176.179 659.123 175.835 659.199 175.508L661.703 164.402C658.788 164.111 655.88 165.016 653.646 166.911C651.411 168.805 650.042 171.526 649.852 174.449C649.663 177.372 650.669 180.247 652.639 182.414C654.61 184.582 657.376 185.855 660.305 185.944C663.233 186.032 666.071 184.927 668.168 182.882C670.266 180.837 671.443 178.028 671.43 175.099L660.351 176.75C660.013 176.801 659.671 176.681 659.44 176.428L659.44 176.428Z" fill="#3A64F3"/>
<path d="M671.238 173.048C670.861 171.124 669.966 169.339 668.65 167.886C667.334 166.433 665.647 165.367 663.77 164.801L661.574 174.488L671.238 173.048Z" fill="#3A64F3"/>
<path d="M694.646 159.159C693.168 159.379 691.751 159.905 690.488 160.704L696.656 169.851L694.955 170.999L688.856 161.966C686.33 164.34 685.098 167.783 685.545 171.22C685.993 174.658 688.064 177.672 691.113 179.32C694.162 180.969 697.818 181.052 700.939 179.545C704.06 178.037 706.267 175.12 706.87 171.707C707.474 168.293 706.4 164.798 703.984 162.311C701.569 159.825 698.106 158.65 694.677 159.154L694.646 159.159Z" fill="#3A64F3"/>
<path d="M682.897 149.472L690.435 148.349C690.705 148.309 690.98 148.377 691.199 148.54C691.418 148.702 691.564 148.945 691.604 149.215L691.756 150.232C691.796 150.502 691.727 150.776 691.565 150.996C691.403 151.215 691.16 151.361 690.89 151.401L689.11 151.666L689.413 153.701L691.193 153.435C692.003 153.315 692.731 152.878 693.218 152.22C693.705 151.562 693.911 150.738 693.79 149.929L693.639 148.911C693.518 148.102 693.081 147.373 692.423 146.886C691.766 146.4 690.941 146.194 690.132 146.314L680.976 147.679C680.624 147.73 680.324 147.96 680.182 148.286C680.03 148.621 680.069 149.012 680.283 149.311L682.558 152.643L664.989 155.261L661.666 151.597L666.885 150.819L666.582 148.784L656.408 150.301L656.711 152.335L659.214 151.962L663.47 156.653L661.713 164.402C662.41 164.465 663.099 164.599 663.769 164.803L665.192 158.507L677.474 172.12L671.238 173.049L671.314 173.558C671.389 174.068 671.427 174.584 671.43 175.1L679.68 173.871C680.099 173.807 680.436 173.492 680.529 173.078L684.508 155.535L688.856 161.969L688.856 161.969C689.356 161.489 689.902 161.06 690.485 160.687L682.897 149.472ZM678.968 170.701L666.645 157.094L682.586 154.718L678.968 170.701Z" fill="#3A64F3"/>
<path d="M732.235 165.578C732.009 165.329 731.918 164.986 731.993 164.658L734.498 153.552C731.583 153.261 728.675 154.167 726.441 156.061C724.206 157.955 722.837 160.676 722.647 163.599C722.458 166.523 723.464 169.397 725.434 171.565C727.405 173.732 730.171 175.006 733.1 175.094C736.028 175.182 738.866 174.077 740.963 172.032C743.061 169.988 744.238 167.179 744.225 164.249L733.146 165.9C732.807 165.951 732.466 165.831 732.235 165.578L732.235 165.578Z" fill="#3A64F3"/>
<path d="M744.033 162.198C743.656 160.274 742.761 158.49 741.445 157.037C740.129 155.584 738.442 154.517 736.565 153.952L734.369 163.638L744.033 162.198Z" fill="#3A64F3"/>
<path d="M767.441 148.309C765.963 148.529 764.546 149.055 763.283 149.855L769.451 159.002L767.75 160.149L761.651 151.117C759.125 153.491 757.893 156.933 758.34 160.371C758.787 163.808 760.859 166.822 763.908 168.471C766.957 170.12 770.613 170.203 773.734 168.695C776.855 167.187 779.062 164.271 779.665 160.857C780.268 157.444 779.195 153.948 776.779 151.462C774.364 148.975 770.901 147.801 767.472 148.305L767.441 148.309Z" fill="#3A64F3"/>
<path d="M755.692 138.623L763.23 137.499C763.5 137.459 763.775 137.528 763.994 137.69C764.213 137.852 764.359 138.095 764.399 138.365L764.551 139.382C764.591 139.652 764.522 139.927 764.36 140.146C764.198 140.365 763.955 140.511 763.685 140.551L761.905 140.817L762.208 142.851L763.988 142.586C764.798 142.465 765.526 142.028 766.013 141.37C766.5 140.713 766.706 139.888 766.585 139.079L766.434 138.062C766.313 137.252 765.876 136.524 765.218 136.037C764.561 135.55 763.736 135.344 762.927 135.465L753.771 136.829C753.419 136.881 753.119 137.111 752.977 137.436C752.825 137.772 752.864 138.162 753.078 138.461L755.353 141.793L737.784 144.412L734.461 140.747L739.68 139.97L739.376 137.935L729.203 139.451L729.506 141.486L732.009 141.113L736.265 145.803L734.508 153.553C735.205 153.616 735.894 153.75 736.564 153.953L737.987 147.657L750.269 161.27L744.033 162.2L744.109 162.708C744.184 163.219 744.222 163.734 744.224 164.251L752.475 163.021C752.894 162.957 753.231 162.643 753.324 162.229L757.302 144.686L761.651 151.119L761.651 151.12C762.151 150.64 762.697 150.21 763.28 149.837L755.692 138.623ZM751.763 159.851L739.44 146.245L755.381 143.869L751.763 159.851Z" fill="#3A64F3"/>
<path d="M805.03 154.729C804.803 154.48 804.713 154.136 804.788 153.808L807.293 142.703C804.378 142.412 801.47 143.317 799.235 145.211C797.001 147.106 795.632 149.827 795.442 152.75C795.252 155.673 796.258 158.548 798.229 160.715C800.2 162.882 802.966 164.156 805.894 164.244C808.823 164.333 811.661 163.228 813.758 161.183C815.856 159.138 817.033 156.329 817.02 153.4L805.941 155.051C805.602 155.102 805.261 154.981 805.03 154.729L805.03 154.729Z" fill="#3A64F3"/>
<path d="M816.828 151.348C816.451 149.425 815.556 147.64 814.24 146.187C812.924 144.734 811.237 143.668 809.36 143.102L807.164 152.789L816.828 151.348Z" fill="#3A64F3"/>
<path d="M840.236 137.459C838.758 137.679 837.341 138.206 836.078 139.005L842.246 148.152L840.545 149.3L834.446 140.267C831.92 142.641 830.688 146.084 831.135 149.521C831.582 152.959 833.654 155.972 836.703 157.621C839.752 159.27 843.407 159.353 846.529 157.845C849.65 156.337 851.857 153.421 852.46 150.008C853.063 146.594 851.989 143.099 849.574 140.612C847.159 138.126 843.696 136.951 840.267 137.455L840.236 137.459Z" fill="#3A64F3"/>
<path d="M828.487 127.773L836.025 126.65C836.295 126.609 836.57 126.678 836.789 126.84C837.008 127.003 837.154 127.246 837.194 127.515L837.346 128.533C837.386 128.802 837.317 129.077 837.155 129.296C836.993 129.516 836.75 129.661 836.48 129.702L834.7 129.967L835.003 132.002L836.783 131.736C837.592 131.616 838.321 131.178 838.808 130.521C839.295 129.863 839.501 129.039 839.38 128.229L839.229 127.212C839.108 126.403 838.671 125.674 838.013 125.187C837.356 124.7 836.531 124.494 835.722 124.615L826.566 125.98C826.214 126.031 825.914 126.261 825.772 126.587C825.62 126.922 825.659 127.313 825.873 127.612L828.148 130.944L810.579 133.562L807.256 129.898L812.475 129.12L812.171 127.085L801.998 128.602L802.301 130.636L804.804 130.263L809.059 134.954L807.303 142.703C808 142.766 808.689 142.9 809.359 143.103L810.782 136.808L823.064 150.42L816.828 151.35L816.904 151.859C816.979 152.369 817.017 152.885 817.019 153.401L825.27 152.172C825.689 152.108 826.026 151.793 826.119 151.379L830.097 133.836L834.446 140.27L834.446 140.27C834.946 139.79 835.492 139.361 836.075 138.987L828.487 127.773ZM824.558 149.002L812.235 135.395L828.176 133.019L824.558 149.002Z" fill="#3A64F3"/>
<path d="M877.826 143.878C877.6 143.629 877.51 143.286 877.585 142.958L880.09 131.852C877.175 131.561 874.267 132.467 872.032 134.361C869.798 136.255 868.429 138.976 868.239 141.899C868.049 144.822 869.055 147.697 871.026 149.864C872.997 152.032 875.763 153.306 878.691 153.394C881.62 153.482 884.458 152.377 886.555 150.332C888.653 148.287 889.83 145.478 889.816 142.549L878.738 144.2C878.399 144.251 878.058 144.131 877.826 143.878L877.826 143.878Z" fill="#3A64F3"/>
<path d="M889.625 140.498C889.248 138.574 888.353 136.789 887.037 135.337C885.721 133.884 884.034 132.817 882.156 132.252L879.96 141.938L889.625 140.498Z" fill="#3A64F3"/>
<path d="M913.033 126.609C911.555 126.829 910.138 127.355 908.875 128.154L915.043 137.301L913.342 138.449L907.243 129.417C904.717 131.79 903.485 135.233 903.932 138.671C904.379 142.108 906.451 145.122 909.5 146.77C912.549 148.419 916.204 148.503 919.326 146.995C922.447 145.487 924.654 142.571 925.257 139.157C925.86 135.744 924.786 132.248 922.371 129.762C919.956 127.275 916.493 126.101 913.063 126.604L913.033 126.609Z" fill="#3A64F3"/>
<path d="M901.284 116.923L908.822 115.799C909.092 115.759 909.366 115.827 909.586 115.99C909.805 116.152 909.951 116.395 909.991 116.665L910.142 117.682C910.183 117.952 910.114 118.227 909.952 118.446C909.789 118.665 909.547 118.811 909.277 118.851L907.496 119.116L907.8 121.151L909.58 120.886C910.389 120.765 911.118 120.328 911.605 119.67C912.092 119.013 912.298 118.188 912.177 117.379L912.025 116.362C911.905 115.552 911.468 114.823 910.81 114.337C910.152 113.85 909.328 113.644 908.519 113.764L899.363 115.129C899.011 115.181 898.711 115.411 898.569 115.736C898.417 116.071 898.455 116.462 898.67 116.761L900.945 120.093L883.376 122.712L880.053 119.047L885.272 118.269L884.968 116.235L874.795 117.751L875.098 119.786L877.601 119.413L881.856 124.103L880.1 131.852C880.797 131.916 881.486 132.05 882.156 132.253L883.578 125.957L895.861 139.57L889.625 140.499L889.701 141.008C889.776 141.519 889.814 142.034 889.816 142.551L898.067 141.321C898.486 141.257 898.823 140.943 898.916 140.529L902.894 122.985L907.243 129.419L907.243 129.419C907.743 128.94 908.289 128.51 908.872 128.137L901.284 116.923ZM897.355 138.151L885.032 124.545L900.973 122.169L897.355 138.151Z" fill="#3A64F3"/>
<path d="M950.621 133.029C950.395 132.779 950.305 132.436 950.38 132.108L952.885 121.003C949.97 120.711 947.062 121.617 944.827 123.511C942.593 125.406 941.224 128.126 941.034 131.049C940.844 133.973 941.85 136.847 943.821 139.015C945.792 141.182 948.558 142.456 951.486 142.544C954.414 142.632 957.253 141.527 959.35 139.483C961.448 137.438 962.625 134.629 962.611 131.699L951.532 133.351C951.194 133.402 950.853 133.281 950.621 133.029L950.621 133.029Z" fill="#3A64F3"/>
<path d="M962.42 129.648C962.043 127.724 961.148 125.94 959.832 124.487C958.516 123.034 956.829 121.967 954.951 121.402L952.755 131.089L962.42 129.648Z" fill="#3A64F3"/>
<path d="M985.828 115.759C984.35 115.979 982.933 116.505 981.67 117.305L987.838 126.452L986.137 127.6L980.038 118.567C977.512 120.941 976.28 124.383 976.727 127.821C977.174 131.259 979.246 134.272 982.294 135.921C985.344 137.57 988.999 137.653 992.121 136.145C995.242 134.637 997.449 131.721 998.052 128.307C998.655 124.894 997.581 121.398 995.166 118.912C992.751 116.426 989.288 115.251 985.858 115.755L985.828 115.759Z" fill="#3A64F3"/>
<path d="M974.079 106.073L981.617 104.949C981.887 104.909 982.161 104.978 982.381 105.14C982.6 105.302 982.746 105.545 982.786 105.815L982.937 106.832C982.978 107.102 982.909 107.377 982.747 107.596C982.584 107.815 982.341 107.961 982.072 108.001L980.291 108.267L980.595 110.301L982.375 110.036C983.184 109.915 983.913 109.478 984.4 108.821C984.887 108.163 985.093 107.338 984.972 106.529L984.82 105.512C984.7 104.703 984.262 103.974 983.605 103.487C982.947 103 982.123 102.794 981.314 102.915L972.158 104.28C971.806 104.331 971.506 104.561 971.364 104.887C971.212 105.222 971.25 105.613 971.465 105.912L973.74 109.243L956.17 111.862L952.848 108.198L958.066 107.42L957.763 105.385L947.59 106.901L947.893 108.936L950.396 108.563L954.651 113.253L952.895 121.003C953.592 121.066 954.281 121.2 954.951 121.403L956.373 115.108L968.656 128.72L962.42 129.65L962.495 130.158C962.571 130.669 962.609 131.185 962.611 131.701L970.862 130.471C971.281 130.407 971.618 130.093 971.711 129.679L975.689 112.136L980.038 118.569L980.038 118.57C980.538 118.09 981.084 117.66 981.667 117.287L974.079 106.073ZM970.15 127.301L957.827 113.695L973.768 111.319L970.15 127.301Z" fill="#3A64F3"/>
<path d="M1023.42 122.178C1023.19 121.929 1023.1 121.585 1023.18 121.258L1025.68 110.152C1022.76 109.861 1019.86 110.766 1017.62 112.661C1015.39 114.555 1014.02 117.276 1013.83 120.199C1013.64 123.122 1014.65 125.997 1016.62 128.164C1018.59 130.332 1021.35 131.605 1024.28 131.694C1027.21 131.782 1030.05 130.677 1032.14 128.632C1034.24 126.587 1035.42 123.778 1035.41 120.849L1024.33 122.5C1023.99 122.551 1023.65 122.431 1023.42 122.178L1023.42 122.178Z" fill="#3A64F3"/>
<path d="M1035.21 118.798C1034.84 116.874 1033.94 115.089 1032.63 113.636C1031.31 112.183 1029.62 111.117 1027.75 110.551L1025.55 120.238L1035.21 118.798Z" fill="#3A64F3"/>
<path d="M1058.62 104.909C1057.14 105.129 1055.73 105.655 1054.46 106.454L1060.63 115.601L1058.93 116.749L1052.83 107.716C1050.31 110.09 1049.07 113.533 1049.52 116.97C1049.97 120.408 1052.04 123.422 1055.09 125.07C1058.14 126.719 1061.79 126.802 1064.92 125.295C1068.04 123.787 1070.24 120.87 1070.85 117.457C1071.45 114.043 1070.38 110.548 1067.96 108.061C1065.55 105.575 1062.08 104.4 1058.65 104.904L1058.62 104.909Z" fill="#3A64F3"/>
<path d="M1046.87 95.2224L1054.41 94.0988C1054.68 94.0586 1054.96 94.1272 1055.18 94.2895C1055.39 94.4518 1055.54 94.6947 1055.58 94.9645L1055.73 95.9818C1055.77 96.2516 1055.7 96.5265 1055.54 96.7457C1055.38 96.9648 1055.14 97.1106 1054.87 97.1508L1053.09 97.4162L1053.39 99.4508L1055.17 99.1855C1055.98 99.0649 1056.71 98.6275 1057.19 97.97C1057.68 97.3125 1057.89 96.4879 1057.77 95.6786L1057.62 94.6613C1057.49 93.852 1057.06 93.1232 1056.4 92.6364C1055.74 92.1495 1054.92 91.9436 1054.11 92.0642L1044.95 93.4289C1044.6 93.4804 1044.3 93.7104 1044.16 94.0361C1044.01 94.3712 1044.05 94.7619 1044.26 95.061L1046.53 98.3928L1028.97 101.011L1025.64 97.347L1030.86 96.5691L1030.56 94.5345L1020.38 96.0508L1020.69 98.0855L1023.19 97.7125L1027.45 102.403L1025.69 110.152C1026.39 110.215 1027.08 110.349 1027.75 110.553L1029.17 104.257L1041.45 117.87L1035.21 118.799L1035.29 119.308C1035.37 119.818 1035.4 120.334 1035.41 120.85L1043.66 119.621C1044.08 119.557 1044.41 119.242 1044.51 118.828L1048.48 101.285L1052.83 107.719L1052.83 107.719C1053.33 107.239 1053.88 106.81 1054.46 106.437L1046.87 95.2224ZM1042.95 116.451L1030.62 102.844L1046.56 100.468L1042.95 116.451Z" fill="#3A64F3"/>
<path d="M1096.21 111.328C1095.99 111.079 1095.9 110.736 1095.97 110.408L1098.48 99.3023C1095.56 99.0112 1092.65 99.9168 1090.42 101.811C1088.18 103.705 1086.82 106.426 1086.63 109.349C1086.44 112.273 1087.44 115.147 1089.41 117.315C1091.38 119.482 1094.15 120.756 1097.08 120.844C1100.01 120.932 1102.84 119.827 1104.94 117.782C1107.04 115.738 1108.22 112.929 1108.2 109.999L1097.12 111.65C1096.79 111.701 1096.44 111.581 1096.21 111.328L1096.21 111.328Z" fill="#3A64F3"/>
<path d="M1108.01 107.948C1107.63 106.024 1106.74 104.24 1105.42 102.787C1104.11 101.334 1102.42 100.267 1100.54 99.7017L1098.35 109.388L1108.01 107.948Z" fill="#3A64F3"/>
<path d="M1131.42 94.059C1129.94 94.2789 1128.52 94.8052 1127.26 95.6045L1133.43 104.752L1131.73 105.899L1125.63 96.8668C1123.1 99.2406 1121.87 102.683 1122.32 106.121C1122.77 109.558 1124.84 112.572 1127.89 114.221C1130.94 115.87 1134.59 115.953 1137.71 114.445C1140.83 112.937 1143.04 110.021 1143.64 106.607C1144.25 103.194 1143.17 99.6982 1140.76 97.2118C1138.34 94.7255 1134.88 93.5507 1131.45 94.0545L1131.42 94.059Z" fill="#3A64F3"/>
<path d="M1119.67 84.3728L1127.21 83.2492C1127.48 83.209 1127.75 83.2776 1127.97 83.4399C1128.19 83.6022 1128.34 83.8451 1128.38 84.1149L1128.53 85.1322C1128.57 85.402 1128.5 85.6769 1128.34 85.896C1128.18 86.1152 1127.93 86.261 1127.66 86.3012L1125.88 86.5665L1126.19 88.6012L1127.97 88.3359C1128.78 88.2152 1129.5 87.7779 1129.99 87.1204C1130.48 86.4629 1130.68 85.6383 1130.56 84.829L1130.41 83.8117C1130.29 83.0024 1129.85 82.2736 1129.2 81.7868C1128.54 81.2999 1127.71 81.094 1126.91 81.2146L1117.75 82.5793C1117.4 82.6308 1117.1 82.8608 1116.96 83.1864C1116.8 83.5215 1116.84 83.9123 1117.06 84.2114L1119.33 87.5432L1101.76 90.1619L1098.44 86.4974L1103.66 85.7195L1103.35 83.6849L1093.18 85.2012L1093.48 87.2358L1095.99 86.8629L1100.24 91.5531L1098.49 99.3025C1099.18 99.3657 1099.87 99.4998 1100.54 99.7031L1101.97 93.4074L1114.25 107.02L1108.01 107.95L1108.09 108.458C1108.16 108.969 1108.2 109.484 1108.2 110.001L1116.45 108.771C1116.87 108.707 1117.21 108.393 1117.3 107.979L1121.28 90.4355L1125.63 96.8691L1125.63 96.8696C1126.13 96.3898 1126.68 95.9603 1127.26 95.5869L1119.67 84.3728ZM1115.74 105.601L1103.42 91.9947L1119.36 89.6187L1115.74 105.601Z" fill="#3A64F3"/>
<path d="M1169.01 100.479C1168.78 100.23 1168.69 99.8861 1168.77 99.5583L1171.27 88.4527C1168.36 88.1615 1165.45 89.0672 1163.21 90.9615C1160.98 92.8559 1159.61 95.5766 1159.42 98.4996C1159.23 101.423 1160.24 104.298 1162.21 106.465C1164.18 108.632 1166.94 109.906 1169.87 109.994C1172.8 110.083 1175.64 108.978 1177.74 106.933C1179.83 104.888 1181.01 102.079 1181 99.1496L1169.92 100.801C1169.58 100.852 1169.24 100.731 1169.01 100.479L1169.01 100.479Z" fill="#3A64F3"/>
<path d="M1180.81 97.0983C1180.43 95.1745 1179.53 93.3901 1178.22 91.9372C1176.9 90.4842 1175.22 89.4177 1173.34 88.8521L1171.14 98.5388L1180.81 97.0983Z" fill="#3A64F3"/>
<path d="M1204.21 83.2094C1202.74 83.4293 1201.32 83.9556 1200.06 84.7549L1206.22 93.9021L1204.52 95.0497L1198.42 86.0172C1195.9 88.3909 1194.67 91.8337 1195.11 95.2712C1195.56 98.7087 1197.63 101.722 1200.68 103.371C1203.73 105.02 1207.39 105.103 1210.51 103.595C1213.63 102.087 1215.84 99.1712 1216.44 95.7577C1217.04 92.3441 1215.97 88.8486 1213.55 86.3622C1211.14 83.8759 1207.67 82.7011 1204.25 83.2049L1204.21 83.2094Z" fill="#3A64F3"/>
<path d="M1192.47 73.5231L1200 72.3996C1200.27 72.3594 1200.55 72.428 1200.77 72.5903C1200.99 72.7526 1201.13 72.9955 1201.17 73.2653L1201.32 74.2826C1201.36 74.5524 1201.3 74.8273 1201.13 75.0464C1200.97 75.2656 1200.73 75.4114 1200.46 75.4516L1198.68 75.7169L1198.98 77.7516L1200.76 77.4863C1201.57 77.3656 1202.3 76.9283 1202.79 76.2708C1203.27 75.6133 1203.48 74.7886 1203.36 73.9794L1203.21 72.9621C1203.09 72.1528 1202.65 71.424 1201.99 70.9372C1201.33 70.4503 1200.51 70.2444 1199.7 70.365L1190.54 71.7297C1190.19 71.7812 1189.89 72.0112 1189.75 72.3368C1189.6 72.6719 1189.64 73.0627 1189.85 73.3618L1192.13 76.6936L1174.56 79.3123L1171.23 75.6478L1176.45 74.8699L1176.15 72.8352L1165.98 74.3516L1166.28 76.3862L1168.78 76.0133L1173.04 80.7035L1171.28 88.4529C1171.98 88.5161 1172.67 88.6502 1173.34 88.8535L1174.76 82.5578L1187.04 96.1705L1180.81 97.0999L1180.88 97.6086C1180.96 98.1192 1181 98.6349 1181 99.1513L1189.25 97.9216C1189.67 97.8577 1190 97.5432 1190.1 97.1293L1194.08 79.5859L1198.42 86.0195L1198.42 86.02C1198.92 85.5401 1199.47 85.1106 1200.05 84.7373L1192.47 73.5231ZM1188.54 94.7517L1176.21 81.1451L1192.15 78.7691L1188.54 94.7517Z" fill="#3A64F3"/>
<path d="M1241.8 89.6281C1241.58 89.3791 1241.49 89.0355 1241.56 88.7077L1244.07 77.6022C1241.15 77.311 1238.24 78.2166 1236.01 80.1109C1233.77 82.0053 1232.41 84.726 1232.22 87.649C1232.03 90.5723 1233.03 93.4471 1235 95.6144C1236.97 97.7817 1239.74 99.0556 1242.67 99.1438C1245.6 99.2319 1248.43 98.1269 1250.53 96.0822C1252.63 94.0374 1253.81 91.2283 1253.79 88.299L1242.71 89.9503C1242.38 90.0012 1242.03 89.8807 1241.8 89.6283L1241.8 89.6281Z" fill="#3A64F3"/>
<path d="M1253.6 86.2477C1253.22 84.3239 1252.33 82.5395 1251.01 81.0866C1249.7 79.6337 1248.01 78.5671 1246.13 78.0015L1243.94 87.6882L1253.6 86.2477Z" fill="#3A64F3"/>
<path d="M1277.01 72.3588C1275.53 72.5787 1274.11 73.105 1272.85 73.9043L1279.02 83.0515L1277.32 84.1991L1271.22 75.1666C1268.69 77.5404 1267.46 80.9831 1267.91 84.4207C1268.36 87.8581 1270.43 90.8717 1273.48 92.5204C1276.53 94.1694 1280.18 94.2527 1283.3 92.7447C1286.42 91.2368 1288.63 88.3206 1289.23 84.9071C1289.84 81.4935 1288.76 77.998 1286.35 75.5116C1283.93 73.0253 1280.47 71.8505 1277.04 72.3543L1277.01 72.3588Z" fill="#3A64F3"/>
<path d="M1265.26 62.6726L1272.8 61.549C1273.07 61.5088 1273.34 61.5774 1273.56 61.7397C1273.78 61.902 1273.93 62.1449 1273.97 62.4147L1274.12 63.432C1274.16 63.7018 1274.09 63.9767 1273.93 64.1958C1273.77 64.415 1273.52 64.5608 1273.25 64.601L1271.47 64.8664L1271.78 66.901L1273.56 66.6357C1274.37 66.515 1275.09 66.0777 1275.58 65.4202C1276.07 64.7627 1276.27 63.9381 1276.15 63.1288L1276 62.1115C1275.88 61.3022 1275.44 60.5734 1274.79 60.0866C1274.13 59.5997 1273.3 59.3938 1272.5 59.5144L1263.34 60.8791C1262.99 60.9306 1262.69 61.1606 1262.55 61.4863C1262.39 61.8214 1262.43 62.2121 1262.65 62.5112L1264.92 65.843L1247.35 68.4617L1244.03 64.7972L1249.25 64.0193L1248.94 61.9847L1238.77 63.501L1239.07 65.5356L1241.58 65.1627L1245.83 69.8529L1244.08 77.6023C1244.77 77.6655 1245.46 77.7996 1246.13 78.0029L1247.55 71.7072L1259.84 85.3199L1253.6 86.2494L1253.68 86.758C1253.75 87.2686 1253.79 87.7843 1253.79 88.3007L1262.04 87.071C1262.46 87.0071 1262.8 86.6927 1262.89 86.2787L1266.87 68.7353L1271.22 75.1689L1271.22 75.1694C1271.72 74.6896 1272.27 74.2601 1272.85 73.8867L1265.26 62.6726ZM1261.33 83.9011L1249.01 70.2945L1264.95 67.9185L1261.33 83.9011Z" fill="#3A64F3"/>
<path d="M1314.6 78.7785C1314.37 78.5295 1314.28 78.1859 1314.36 77.8581L1316.86 66.7525C1313.95 66.4614 1311.04 67.367 1308.81 69.2613C1306.57 71.1557 1305.2 73.8764 1305.01 76.7994C1304.82 79.7227 1305.83 82.5975 1307.8 84.7648C1309.77 86.9321 1312.54 88.206 1315.46 88.2942C1318.39 88.3823 1321.23 87.2773 1323.33 85.2326C1325.43 83.1878 1326.6 80.3787 1326.59 77.4494L1315.51 79.1007C1315.17 79.1515 1314.83 79.0311 1314.6 78.7787L1314.6 78.7785Z" fill="#3A64F3"/>
<path d="M1326.4 75.3981C1326.02 73.4743 1325.13 71.6899 1323.81 70.237C1322.49 68.7841 1320.81 67.7175 1318.93 67.1519L1316.73 76.8386L1326.4 75.3981Z" fill="#3A64F3"/>
<path d="M1349.81 61.5092C1348.33 61.7291 1346.91 62.2554 1345.65 63.0547L1351.82 72.2019L1350.12 73.3495L1344.02 64.317C1341.49 66.6907 1340.26 70.1335 1340.71 73.571C1341.15 77.0085 1343.22 80.0221 1346.27 81.6707C1349.32 83.3198 1352.98 83.403 1356.1 81.8951C1359.22 80.3872 1361.43 77.471 1362.03 74.0575C1362.63 70.6439 1361.56 67.1484 1359.14 64.662C1356.73 62.1757 1353.27 61.0009 1349.84 61.5047L1349.81 61.5092Z" fill="#3A64F3"/>
<path d="M1338.06 51.823L1345.6 50.6994C1345.87 50.6592 1346.14 50.7278 1346.36 50.8901C1346.58 51.0524 1346.72 51.2953 1346.76 51.5651L1346.92 52.5824C1346.96 52.8522 1346.89 53.1271 1346.73 53.3462C1346.56 53.5654 1346.32 53.7112 1346.05 53.7514L1344.27 54.0167L1344.57 56.0514L1346.35 55.7861C1347.16 55.6654 1347.89 55.2281 1348.38 54.5706C1348.87 53.9131 1349.07 53.0885 1348.95 52.2792L1348.8 51.2619C1348.68 50.4526 1348.24 49.7238 1347.58 49.237C1346.93 48.7501 1346.1 48.5442 1345.29 48.6648L1336.14 50.0295C1335.78 50.081 1335.48 50.311 1335.34 50.6366C1335.19 50.9717 1335.23 51.3625 1335.44 51.6616L1337.72 54.9934L1320.15 57.6121L1316.83 53.9476L1322.04 53.1697L1321.74 51.1351L1311.57 52.6514L1311.87 54.686L1314.37 54.3131L1318.63 59.0033L1316.87 66.7527C1317.57 66.8159 1318.26 66.95 1318.93 67.1533L1320.35 60.8576L1332.63 74.4703L1326.4 75.3998L1326.47 75.9084C1326.55 76.419 1326.59 76.9347 1326.59 77.4511L1334.84 76.2214C1335.26 76.1575 1335.6 75.8431 1335.69 75.4291L1339.67 57.8857L1344.02 64.3193L1344.02 64.3198C1344.52 63.8399 1345.06 63.4104 1345.65 63.0371L1338.06 51.823ZM1334.13 73.0515L1321.81 59.4449L1337.75 57.0689L1334.13 73.0515Z" fill="#3A64F3"/>
<path d="M1387.39 67.9279C1387.17 67.6789 1387.08 67.3353 1387.15 67.0075L1389.66 55.902C1386.74 55.6108 1383.84 56.5164 1381.6 58.4107C1379.37 60.3051 1378 63.0258 1377.81 65.9488C1377.62 68.8721 1378.62 71.7469 1380.59 73.9142C1382.57 76.0815 1385.33 77.3554 1388.26 77.4436C1391.19 77.5317 1394.03 76.4267 1396.12 74.382C1398.22 72.3373 1399.4 69.5281 1399.38 66.5988L1388.31 68.2501C1387.97 68.301 1387.63 68.1805 1387.39 67.9281L1387.39 67.9279Z" fill="#3A64F3"/>
<path d="M1399.19 64.5476C1398.82 62.6237 1397.92 60.8393 1396.61 59.3864C1395.29 57.9335 1393.6 56.8669 1391.72 56.3013L1389.53 65.9881L1399.19 64.5476Z" fill="#3A64F3"/>
<path d="M1422.6 50.6586C1421.12 50.8785 1419.71 51.4049 1418.44 52.2041L1424.61 61.3513L1422.91 62.4989L1416.81 53.4664C1414.29 55.8402 1413.05 59.2829 1413.5 62.7205C1413.95 66.1579 1416.02 69.1715 1419.07 70.8202C1422.12 72.4692 1425.77 72.5525 1428.89 71.0445C1432.02 69.5366 1434.22 66.6204 1434.83 63.2069C1435.43 59.7933 1434.35 56.2978 1431.94 53.8114C1429.52 51.3251 1426.06 50.1503 1422.63 50.6541L1422.6 50.6586Z" fill="#3A64F3"/>
<path d="M1410.85 40.9724L1418.39 39.8488C1418.66 39.8086 1418.93 39.8772 1419.15 40.0395C1419.37 40.2018 1419.52 40.4447 1419.56 40.7145L1419.71 41.7318C1419.75 42.0016 1419.68 42.2765 1419.52 42.4957C1419.36 42.7148 1419.11 42.8606 1418.85 42.9008L1417.06 43.1662L1417.37 45.2008L1419.15 44.9355C1419.96 44.8149 1420.69 44.3775 1421.17 43.72C1421.66 43.0625 1421.87 42.2379 1421.75 41.4286L1421.59 40.4113C1421.47 39.602 1421.04 38.8732 1420.38 38.3864C1419.72 37.8995 1418.9 37.6936 1418.09 37.8142L1408.93 39.1789C1408.58 39.2304 1408.28 39.4604 1408.14 39.7861C1407.99 40.1212 1408.02 40.5119 1408.24 40.811L1410.51 44.1428L1392.94 46.7615L1389.62 43.097L1394.84 42.3191L1394.54 40.2845L1384.36 41.8008L1384.67 43.8355L1387.17 43.4625L1391.42 48.1528L1389.67 55.9021C1390.37 55.9653 1391.05 56.0994 1391.72 56.3027L1393.15 50.007L1405.43 63.6197L1399.19 64.5492L1399.27 65.0578C1399.34 65.5684 1399.38 66.0841 1399.38 66.6005L1407.64 65.3708C1408.05 65.3069 1408.39 64.9925 1408.48 64.5785L1412.46 47.0351L1416.81 53.4687L1416.81 53.4692C1417.31 52.9894 1417.86 52.5599 1418.44 52.1865L1410.85 40.9724ZM1406.92 62.2009L1394.6 48.5943L1410.54 46.2183L1406.92 62.2009Z" fill="#3A64F3"/>
<rect x="-106.727" y="241.8" width="1794.39" height="80" transform="rotate(-8.47739 -106.727 241.8)" stroke="#3A64F3" stroke-width="4"/>
</svg>
