<svg width="2514" height="457" viewBox="0 0 2514 457" fill="none" xmlns="http://www.w3.org/2000/svg">
<rect x="2.27299" y="374.8" width="2525.12" height="80.0009" transform="rotate(-8.47739 2.27299 374.8)" fill="#CCFC82"/>
<path d="M40.4827 417.93C40.2566 417.681 40.1664 417.337 40.2415 417.009L42.746 405.904C39.8312 405.613 36.9229 406.518 34.6886 408.413C32.4542 410.307 31.0849 413.028 30.8952 415.951C30.7056 418.874 31.7116 421.749 33.6823 423.916C35.6529 426.083 38.4194 427.357 41.3476 427.446C44.2758 427.534 47.1139 426.429 49.2112 424.384C51.309 422.339 52.486 419.53 52.4727 416.601L41.3938 418.252C41.0555 418.303 40.714 418.183 40.4827 417.93L40.4827 417.93Z" fill="#3A64F3"/>
<path d="M52.2813 414.55C51.9041 412.626 51.009 410.841 49.6931 409.388C48.3771 407.935 46.6899 406.869 44.8126 406.303L42.6166 415.99L52.2813 414.55Z" fill="#3A64F3"/>
<path d="M75.6883 400.661C74.2099 400.88 72.7934 401.407 71.53 402.206L77.698 411.353L75.9971 412.501L69.8983 403.468C67.3724 405.842 66.1403 409.285 66.5872 412.722C67.0345 416.16 69.1059 419.173 72.1548 420.822C75.2042 422.471 78.8596 422.554 81.9812 421.046C85.1023 419.539 87.3089 416.622 87.9119 413.209C88.5155 409.795 87.4416 406.3 85.0264 403.813C82.6113 401.327 79.1483 400.152 75.7187 400.656L75.6883 400.661Z" fill="#3A64F3"/>
<path d="M63.9389 390.974L71.4771 389.851C71.7469 389.811 72.0218 389.879 72.2409 390.041C72.4601 390.204 72.6059 390.447 72.6461 390.716L72.7977 391.734C72.8379 392.004 72.7693 392.278 72.607 392.498C72.4447 392.717 72.2018 392.863 71.932 392.903L70.1518 393.168L70.455 395.203L72.2353 394.937C73.0446 394.817 73.7734 394.379 74.2602 393.722C74.7471 393.064 74.953 392.24 74.8324 391.431L74.6807 390.413C74.5601 389.604 74.1228 388.875 73.4653 388.388C72.8077 387.901 71.9831 387.696 71.1739 387.816L62.0179 389.181C61.6662 389.232 61.3662 389.462 61.2244 389.788C61.0724 390.123 61.1107 390.514 61.3252 390.813L63.5999 394.145L46.0308 396.763L42.7079 393.099L47.9268 392.321L47.6236 390.286L37.4502 391.803L37.7535 393.837L40.2559 393.464L44.5116 398.155L42.7549 405.904C43.4523 405.967 44.1413 406.101 44.8113 406.305L46.2337 400.009L58.5162 413.622L52.28 414.551L52.3558 415.06C52.431 415.57 52.4693 416.086 52.4715 416.602L60.7219 415.373C61.1414 415.309 61.4784 414.994 61.5709 414.58L65.5495 397.037L69.8984 403.471L69.8984 403.471C70.3984 402.991 70.944 402.562 71.5271 402.188L63.9389 390.974ZM60.0104 412.203L47.687 398.596L63.6284 396.22L60.0104 412.203Z" fill="#3A64F3"/>
<path d="M113.279 407.079C113.053 406.83 112.962 406.487 113.037 406.159L115.542 395.053C112.627 394.762 109.719 395.668 107.484 397.562C105.25 399.456 103.881 402.177 103.691 405.1C103.501 408.023 104.507 410.898 106.478 413.066C108.449 415.233 111.215 416.507 114.144 416.595C117.072 416.683 119.91 415.578 122.007 413.533C124.105 411.489 125.282 408.679 125.269 405.75L114.19 407.401C113.851 407.452 113.51 407.332 113.279 407.079L113.279 407.079Z" fill="#3A64F3"/>
<path d="M125.077 403.699C124.7 401.775 123.805 399.991 122.489 398.538C121.173 397.085 119.486 396.018 117.609 395.453L115.413 405.139L125.077 403.699Z" fill="#3A64F3"/>
<path d="M148.484 389.81C147.006 390.03 145.589 390.556 144.326 391.356L150.494 400.503L148.793 401.65L142.694 392.618C140.168 394.992 138.936 398.434 139.383 401.872C139.83 405.309 141.902 408.323 144.951 409.972C148 411.621 151.656 411.704 154.777 410.196C157.898 408.688 160.105 405.772 160.708 402.358C161.311 398.945 160.237 395.449 157.822 392.963C155.407 390.476 151.944 389.302 148.515 389.806L148.484 389.81Z" fill="#3A64F3"/>
<path d="M136.735 380.124L144.273 379C144.543 378.96 144.818 379.029 145.037 379.191C145.256 379.353 145.402 379.596 145.442 379.866L145.594 380.883C145.634 381.153 145.565 381.428 145.403 381.647C145.241 381.866 144.998 382.012 144.728 382.052L142.948 382.318L143.251 384.352L145.031 384.087C145.841 383.966 146.569 383.529 147.056 382.871C147.543 382.214 147.749 381.389 147.628 380.58L147.477 379.563C147.356 378.753 146.919 378.025 146.261 377.538C145.604 377.051 144.779 376.845 143.97 376.966L134.814 378.33C134.462 378.382 134.162 378.612 134.02 378.937C133.868 379.273 133.907 379.663 134.121 379.962L136.396 383.294L118.827 385.913L115.504 382.248L120.723 381.471L120.419 379.436L110.246 380.952L110.549 382.987L113.052 382.614L117.308 387.304L115.551 395.054C116.248 395.117 116.937 395.251 117.607 395.454L119.03 389.158L131.312 402.771L125.076 403.701L125.152 404.209C125.227 404.72 125.265 405.235 125.267 405.752L133.518 404.522C133.937 404.458 134.274 404.144 134.367 403.73L138.345 386.187L142.694 392.62L142.694 392.621C143.194 392.141 143.74 391.711 144.323 391.338L136.735 380.124ZM132.806 401.352L120.483 387.746L136.424 385.37L132.806 401.352Z" fill="#3A64F3"/>
<path d="M186.074 396.23C185.848 395.981 185.758 395.637 185.833 395.309L188.338 384.204C185.423 383.913 182.515 384.818 180.28 386.712C178.046 388.607 176.677 391.328 176.487 394.251C176.297 397.174 177.303 400.049 179.274 402.216C181.245 404.383 184.011 405.657 186.939 405.745C189.868 405.834 192.706 404.728 194.803 402.684C196.901 400.639 198.078 397.83 198.065 394.901L186.986 396.552C186.647 396.603 186.306 396.482 186.075 396.23L186.074 396.23Z" fill="#3A64F3"/>
<path d="M197.873 392.849C197.496 390.926 196.601 389.141 195.285 387.688C193.969 386.235 192.282 385.169 190.404 384.603L188.208 394.29L197.873 392.849Z" fill="#3A64F3"/>
<path d="M221.28 378.96C219.802 379.18 218.385 379.707 217.122 380.506L223.29 389.653L221.589 390.801L215.49 381.768C212.964 384.142 211.732 387.585 212.179 391.022C212.626 394.46 214.698 397.473 217.747 399.122C220.796 400.771 224.451 400.854 227.573 399.346C230.694 397.838 232.901 394.922 233.504 391.509C234.107 388.095 233.033 384.6 230.618 382.113C228.203 379.627 224.74 378.452 221.311 378.956L221.28 378.96Z" fill="#3A64F3"/>
<path d="M209.531 369.274L217.069 368.151C217.339 368.11 217.614 368.179 217.833 368.341C218.052 368.504 218.198 368.746 218.238 369.016L218.39 370.034C218.43 370.303 218.361 370.578 218.199 370.797C218.037 371.017 217.794 371.162 217.524 371.203L215.744 371.468L216.047 373.503L217.827 373.237C218.636 373.117 219.365 372.679 219.852 372.022C220.339 371.364 220.545 370.54 220.424 369.73L220.273 368.713C220.152 367.904 219.715 367.175 219.057 366.688C218.4 366.201 217.575 365.995 216.766 366.116L207.61 367.481C207.258 367.532 206.958 367.762 206.816 368.088C206.664 368.423 206.702 368.814 206.917 369.113L209.192 372.445L191.623 375.063L188.3 371.399L193.519 370.621L193.215 368.586L183.042 370.103L183.345 372.137L185.848 371.764L190.103 376.455L188.347 384.204C189.044 384.267 189.733 384.401 190.403 384.604L191.826 378.309L204.108 391.921L197.872 392.851L197.948 393.36C198.023 393.87 198.061 394.386 198.063 394.902L206.314 393.673C206.733 393.609 207.07 393.294 207.163 392.88L211.141 375.337L215.49 381.77L215.49 381.771C215.99 381.291 216.536 380.862 217.119 380.488L209.531 369.274ZM205.602 390.503L193.279 376.896L209.22 374.52L205.602 390.503Z" fill="#3A64F3"/>
<path d="M258.87 385.379C258.644 385.13 258.554 384.786 258.629 384.459L261.134 373.353C258.219 373.062 255.311 373.968 253.076 375.862C250.842 377.756 249.473 380.477 249.283 383.4C249.093 386.323 250.099 389.198 252.07 391.365C254.041 393.533 256.807 394.807 259.735 394.895C262.663 394.983 265.502 393.878 267.599 391.833C269.697 389.788 270.874 386.979 270.86 384.05L259.781 385.701C259.443 385.752 259.102 385.632 258.87 385.379L258.87 385.379Z" fill="#3A64F3"/>
<path d="M270.669 381.999C270.292 380.075 269.397 378.29 268.081 376.838C266.765 375.385 265.078 374.318 263.2 373.752L261.004 383.439L270.669 381.999Z" fill="#3A64F3"/>
<path d="M294.076 368.11C292.598 368.33 291.181 368.856 289.918 369.655L296.086 378.802L294.385 379.95L288.286 370.918C285.76 373.291 284.528 376.734 284.975 380.172C285.422 383.609 287.494 386.623 290.542 388.271C293.592 389.92 297.247 390.004 300.369 388.496C303.49 386.988 305.697 384.072 306.3 380.658C306.903 377.244 305.829 373.749 303.414 371.263C300.999 368.776 297.536 367.602 294.106 368.105L294.076 368.11Z" fill="#3A64F3"/>
<path d="M282.327 358.424L289.865 357.3C290.135 357.26 290.409 357.328 290.629 357.491C290.848 357.653 290.994 357.896 291.034 358.166L291.185 359.183C291.226 359.453 291.157 359.728 290.995 359.947C290.832 360.166 290.59 360.312 290.32 360.352L288.539 360.617L288.843 362.652L290.623 362.387C291.432 362.266 292.161 361.829 292.648 361.171C293.135 360.514 293.341 359.689 293.22 358.88L293.068 357.862C292.948 357.053 292.51 356.324 291.853 355.838C291.195 355.351 290.371 355.145 289.562 355.265L280.406 356.63C280.054 356.682 279.754 356.912 279.612 357.237C279.46 357.572 279.498 357.963 279.713 358.262L281.988 361.594L264.419 364.213L261.096 360.548L266.315 359.77L266.011 357.736L255.838 359.252L256.141 361.287L258.644 360.914L262.899 365.604L261.143 373.353C261.84 373.416 262.529 373.551 263.199 373.754L264.621 367.458L276.904 381.071L270.668 382L270.743 382.509C270.819 383.02 270.857 383.535 270.859 384.052L279.11 382.822C279.529 382.758 279.866 382.444 279.959 382.03L283.937 364.486L288.286 370.92L288.286 370.92C288.786 370.441 289.332 370.011 289.915 369.638L282.327 358.424ZM278.398 379.652L266.075 366.046L282.016 363.669L278.398 379.652Z" fill="#3A64F3"/>
<path d="M331.665 374.529C331.439 374.28 331.349 373.937 331.424 373.609L333.929 362.504C331.014 362.212 328.106 363.118 325.871 365.012C323.637 366.907 322.268 369.627 322.078 372.55C321.888 375.474 322.894 378.348 324.865 380.516C326.836 382.683 329.602 383.957 332.53 384.045C335.458 384.133 338.297 383.028 340.394 380.984C342.492 378.939 343.669 376.13 343.655 373.2L332.576 374.852C332.238 374.903 331.897 374.782 331.665 374.53L331.665 374.529Z" fill="#3A64F3"/>
<path d="M343.464 371.149C343.087 369.225 342.192 367.441 340.876 365.988C339.56 364.535 337.873 363.468 335.995 362.903L333.799 372.59L343.464 371.149Z" fill="#3A64F3"/>
<path d="M366.871 357.26C365.392 357.48 363.976 358.006 362.713 358.806L368.881 367.953L367.18 369.1L361.081 360.068C358.555 362.442 357.323 365.884 357.77 369.322C358.217 372.76 360.288 375.773 363.337 377.422C366.387 379.071 370.042 379.154 373.164 377.646C376.285 376.138 378.491 373.222 379.095 369.808C379.698 366.395 378.624 362.899 376.209 360.413C373.794 357.927 370.331 356.752 366.901 357.256L366.871 357.26Z" fill="#3A64F3"/>
<path d="M355.121 347.574L362.66 346.45C362.93 346.41 363.204 346.479 363.424 346.641C363.643 346.803 363.789 347.046 363.829 347.316L363.98 348.333C364.021 348.603 363.952 348.878 363.79 349.097C363.627 349.316 363.384 349.462 363.115 349.502L361.334 349.768L361.638 351.802L363.418 351.537C364.227 351.416 364.956 350.979 365.443 350.322C365.93 349.664 366.136 348.839 366.015 348.03L365.863 347.013C365.743 346.204 365.305 345.475 364.648 344.988C363.99 344.501 363.166 344.295 362.357 344.416L353.2 345.78C352.849 345.832 352.549 346.062 352.407 346.388C352.255 346.723 352.293 347.113 352.508 347.413L354.783 350.744L337.213 353.363L333.891 349.699L339.109 348.921L338.806 346.886L328.633 348.402L328.936 350.437L331.438 350.064L335.694 354.754L333.937 362.504C334.635 362.567 335.324 362.701 335.994 362.904L337.416 356.609L349.699 370.221L343.463 371.151L343.538 371.659C343.614 372.17 343.652 372.686 343.654 373.202L351.905 371.972C352.324 371.908 352.661 371.594 352.753 371.18L356.732 353.637L361.081 360.07L361.081 360.071C361.581 359.591 362.127 359.161 362.71 358.788L355.121 347.574ZM351.193 368.802L338.87 355.196L354.811 352.82L351.193 368.802Z" fill="#3A64F3"/>
<path d="M404.461 363.679C404.235 363.43 404.145 363.086 404.22 362.758L406.725 351.653C403.81 351.362 400.901 352.267 398.667 354.162C396.433 356.056 395.063 358.777 394.874 361.7C394.684 364.623 395.69 367.498 397.661 369.665C399.631 371.832 402.398 373.106 405.326 373.195C408.254 373.283 411.092 372.178 413.19 370.133C415.288 368.088 416.465 365.279 416.451 362.35L405.372 364.001C405.034 364.052 404.692 363.932 404.461 363.679L404.461 363.679Z" fill="#3A64F3"/>
<path d="M416.26 360.299C415.883 358.375 414.988 356.59 413.672 355.137C412.356 353.684 410.668 352.618 408.791 352.052L406.595 361.739L416.26 360.299Z" fill="#3A64F3"/>
<path d="M439.667 346.41C438.188 346.629 436.772 347.156 435.509 347.955L441.676 357.102L439.976 358.25L433.877 349.217C431.351 351.591 430.119 355.034 430.566 358.471C431.013 361.909 433.084 364.923 436.133 366.571C439.183 368.22 442.838 368.303 445.96 366.796C449.081 365.288 451.287 362.371 451.89 358.958C452.494 355.544 451.42 352.049 449.005 349.562C446.59 347.076 443.127 345.901 439.697 346.405L439.667 346.41Z" fill="#3A64F3"/>
<path d="M427.917 336.723L435.456 335.6C435.725 335.56 436 335.628 436.219 335.79C436.439 335.953 436.584 336.196 436.625 336.465L436.776 337.483C436.816 337.753 436.748 338.027 436.586 338.247C436.423 338.466 436.18 338.612 435.911 338.652L434.13 338.917L434.434 340.952L436.214 340.686C437.023 340.566 437.752 340.129 438.239 339.471C438.726 338.813 438.931 337.989 438.811 337.18L438.659 336.162C438.539 335.353 438.101 334.624 437.444 334.137C436.786 333.651 435.962 333.445 435.152 333.565L425.996 334.93C425.645 334.981 425.345 335.211 425.203 335.537C425.051 335.872 425.089 336.263 425.304 336.562L427.578 339.894L410.009 342.512L406.686 338.848L411.905 338.07L411.602 336.035L401.429 337.552L401.732 339.586L404.234 339.213L408.49 343.904L406.733 351.653C407.431 351.716 408.12 351.85 408.79 352.054L410.212 345.758L422.495 359.371L416.258 360.3L416.334 360.809C416.409 361.319 416.448 361.835 416.45 362.351L424.7 361.122C425.12 361.058 425.457 360.743 425.549 360.329L429.528 342.786L433.877 349.22L433.877 349.22C434.377 348.74 434.922 348.311 435.506 347.937L427.917 336.723ZM423.989 357.952L411.666 344.345L427.607 341.969L423.989 357.952Z" fill="#3A64F3"/>
<path d="M477.257 352.829C477.031 352.58 476.941 352.237 477.016 351.909L479.52 340.803C476.606 340.512 473.697 341.418 471.463 343.312C469.229 345.206 467.859 347.927 467.67 350.85C467.48 353.773 468.486 356.648 470.457 358.816C472.427 360.983 475.194 362.257 478.122 362.345C481.05 362.433 483.888 361.328 485.986 359.283C488.083 357.239 489.26 354.429 489.247 351.5L478.168 353.151C477.83 353.202 477.488 353.082 477.257 352.829L477.257 352.829Z" fill="#3A64F3"/>
<path d="M489.056 349.449C488.678 347.525 487.783 345.741 486.467 344.288C485.152 342.835 483.464 341.768 481.587 341.203L479.391 350.889L489.056 349.449Z" fill="#3A64F3"/>
<path d="M512.463 335.56C510.984 335.78 509.568 336.306 508.304 337.106L514.472 346.253L512.772 347.4L506.673 338.368C504.147 340.742 502.915 344.184 503.362 347.622C503.809 351.059 505.88 354.073 508.929 355.722C511.979 357.371 515.634 357.454 518.756 355.946C521.877 354.438 524.083 351.522 524.686 348.108C525.29 344.695 524.216 341.199 521.801 338.713C519.386 336.226 515.923 335.052 512.493 335.556L512.463 335.56Z" fill="#3A64F3"/>
<path d="M500.713 325.874L508.252 324.75C508.521 324.71 508.796 324.779 509.015 324.941C509.235 325.103 509.38 325.346 509.421 325.616L509.572 326.633C509.612 326.903 509.544 327.178 509.381 327.397C509.219 327.616 508.976 327.762 508.706 327.802L506.926 328.068L507.229 330.102L509.01 329.837C509.819 329.716 510.548 329.279 511.035 328.621C511.521 327.964 511.727 327.139 511.607 326.33L511.455 325.313C511.335 324.503 510.897 323.775 510.24 323.288C509.582 322.801 508.758 322.595 507.948 322.716L498.792 324.08C498.441 324.132 498.141 324.362 497.999 324.687C497.847 325.023 497.885 325.413 498.1 325.712L500.374 329.044L482.805 331.663L479.482 327.998L484.701 327.221L484.398 325.186L474.225 326.702L474.528 328.737L477.03 328.364L481.286 333.054L479.529 340.804C480.227 340.867 480.916 341.001 481.586 341.204L483.008 334.908L495.291 348.521L489.054 349.451L489.13 349.959C489.205 350.47 489.244 350.985 489.246 351.502L497.496 350.272C497.916 350.208 498.253 349.894 498.345 349.48L502.324 331.937L506.673 338.37L506.673 338.371C507.173 337.891 507.718 337.461 508.301 337.088L500.713 325.874ZM496.785 347.102L484.461 333.496L500.403 331.12L496.785 347.102Z" fill="#3A64F3"/>
<path d="M550.052 341.98C549.826 341.731 549.736 341.387 549.811 341.059L552.315 329.954C549.401 329.663 546.492 330.568 544.258 332.462C542.024 334.357 540.654 337.078 540.465 340.001C540.275 342.924 541.281 345.799 543.252 347.966C545.222 350.133 547.989 351.407 550.917 351.495C553.845 351.584 556.683 350.478 558.781 348.434C560.878 346.389 562.055 343.58 562.042 340.651L550.963 342.302C550.625 342.353 550.283 342.232 550.052 341.98L550.052 341.98Z" fill="#3A64F3"/>
<path d="M561.851 338.599C561.473 336.676 560.578 334.891 559.262 333.438C557.946 331.985 556.259 330.919 554.382 330.353L552.186 340.04L561.851 338.599Z" fill="#3A64F3"/>
<path d="M585.258 324.71C583.779 324.93 582.363 325.457 581.099 326.256L587.267 335.403L585.566 336.551L579.468 327.518C576.942 329.892 575.71 333.335 576.157 336.772C576.604 340.21 578.675 343.223 581.724 344.872C584.774 346.521 588.429 346.604 591.551 345.096C594.672 343.588 596.878 340.672 597.481 337.259C598.085 333.845 597.011 330.35 594.596 327.863C592.181 325.377 588.718 324.202 585.288 324.706L585.258 324.71Z" fill="#3A64F3"/>
<path d="M573.508 315.024L581.046 313.901C581.316 313.86 581.591 313.929 581.81 314.091C582.029 314.254 582.175 314.496 582.215 314.766L582.367 315.784C582.407 316.053 582.339 316.328 582.176 316.547C582.014 316.767 581.771 316.912 581.501 316.953L579.721 317.218L580.024 319.253L581.805 318.987C582.614 318.867 583.343 318.429 583.83 317.772C584.316 317.114 584.522 316.29 584.402 315.48L584.25 314.463C584.129 313.654 583.692 312.925 583.035 312.438C582.377 311.951 581.552 311.745 580.743 311.866L571.587 313.231C571.236 313.282 570.936 313.512 570.794 313.838C570.642 314.173 570.68 314.564 570.895 314.863L573.169 318.195L555.6 320.813L552.277 317.149L557.496 316.371L557.193 314.336L547.02 315.853L547.323 317.887L549.825 317.514L554.081 322.205L552.324 329.954C553.022 330.017 553.711 330.151 554.381 330.354L555.803 324.059L568.086 337.671L561.849 338.601L561.925 339.11C562 339.62 562.039 340.136 562.041 340.652L570.291 339.423C570.711 339.359 571.048 339.044 571.14 338.63L575.119 321.087L579.468 327.52L579.468 327.521C579.968 327.041 580.513 326.612 581.096 326.238L573.508 315.024ZM569.58 336.253L557.256 322.646L573.198 320.27L569.58 336.253Z" fill="#3A64F3"/>
<path d="M622.848 331.129C622.622 330.88 622.532 330.536 622.607 330.209L625.111 319.103C622.196 318.812 619.288 319.718 617.054 321.612C614.819 323.506 613.45 326.227 613.26 329.15C613.071 332.073 614.077 334.948 616.047 337.115C618.018 339.283 620.785 340.557 623.713 340.645C626.641 340.733 629.479 339.628 631.576 337.583C633.674 335.538 634.851 332.729 634.838 329.8L623.759 331.451C623.421 331.502 623.079 331.382 622.848 331.129L622.848 331.129Z" fill="#3A64F3"/>
<path d="M634.647 327.749C634.269 325.825 633.374 324.04 632.058 322.588C630.742 321.135 629.055 320.068 627.178 319.502L624.982 329.189L634.647 327.749Z" fill="#3A64F3"/>
<path d="M658.054 313.86C656.575 314.08 655.159 314.606 653.895 315.405L660.063 324.552L658.362 325.7L652.264 316.668C649.738 319.041 648.506 322.484 648.952 325.922C649.4 329.359 651.471 332.373 654.52 334.021C657.569 335.67 661.225 335.754 664.346 334.246C667.468 332.738 669.674 329.822 670.277 326.408C670.881 322.994 669.807 319.499 667.392 317.013C664.976 314.526 661.514 313.352 658.084 313.855L658.054 313.86Z" fill="#3A64F3"/>
<path d="M646.304 304.174L653.842 303.05C654.112 303.01 654.387 303.078 654.606 303.241C654.825 303.403 654.971 303.646 655.011 303.916L655.163 304.933C655.203 305.203 655.135 305.478 654.972 305.697C654.81 305.916 654.567 306.062 654.297 306.102L652.517 306.367L652.82 308.402L654.601 308.137C655.41 308.016 656.139 307.579 656.625 306.921C657.112 306.264 657.318 305.439 657.198 304.63L657.046 303.612C656.925 302.803 656.488 302.074 655.83 301.588C655.173 301.101 654.348 300.895 653.539 301.015L644.383 302.38C644.031 302.432 643.731 302.662 643.59 302.987C643.438 303.322 643.476 303.713 643.69 304.012L645.965 307.344L628.396 309.963L625.073 306.298L630.292 305.52L629.989 303.486L619.815 305.002L620.119 307.037L622.621 306.664L626.877 311.354L625.12 319.103C625.818 319.166 626.507 319.301 627.177 319.504L628.599 313.208L640.881 326.821L634.645 327.75L634.721 328.259C634.796 328.77 634.835 329.285 634.837 329.802L643.087 328.572C643.507 328.508 643.844 328.194 643.936 327.78L647.915 310.236L652.264 316.67L652.264 316.67C652.764 316.191 653.309 315.761 653.892 315.388L646.304 304.174ZM642.376 325.402L630.052 311.796L645.994 309.419L642.376 325.402Z" fill="#3A64F3"/>
<path d="M695.644 320.279C695.418 320.03 695.328 319.687 695.403 319.359L697.907 308.254C694.992 307.962 692.084 308.868 689.85 310.762C687.615 312.657 686.246 315.377 686.056 318.3C685.867 321.224 686.873 324.098 688.843 326.266C690.814 328.433 693.581 329.707 696.509 329.795C699.437 329.883 702.275 328.778 704.372 326.734C706.47 324.689 707.647 321.88 707.634 318.95L696.555 320.602C696.217 320.653 695.875 320.532 695.644 320.28L695.644 320.279Z" fill="#3A64F3"/>
<path d="M707.442 316.899C707.065 314.975 706.17 313.191 704.854 311.738C703.538 310.285 701.851 309.218 699.974 308.653L697.778 318.34L707.442 316.899Z" fill="#3A64F3"/>
<path d="M730.849 303.01C729.371 303.23 727.955 303.756 726.691 304.556L732.859 313.703L731.158 314.85L725.059 305.818C722.534 308.192 721.301 311.634 721.748 315.072C722.196 318.51 724.267 321.523 727.316 323.172C730.365 324.821 734.021 324.904 737.142 323.396C740.263 321.888 742.47 318.972 743.073 315.558C743.677 312.145 742.603 308.649 740.188 306.163C737.772 303.677 734.309 302.502 730.88 303.006L730.849 303.01Z" fill="#3A64F3"/>
<path d="M719.1 293.324L726.638 292.2C726.908 292.16 727.183 292.229 727.402 292.391C727.621 292.553 727.767 292.796 727.807 293.066L727.959 294.083C727.999 294.353 727.93 294.628 727.768 294.847C727.606 295.066 727.363 295.212 727.093 295.252L725.313 295.518L725.616 297.552L727.396 297.287C728.206 297.166 728.935 296.729 729.421 296.072C729.908 295.414 730.114 294.589 729.993 293.78L729.842 292.763C729.721 291.954 729.284 291.225 728.626 290.738C727.969 290.251 727.144 290.045 726.335 290.166L717.179 291.53C716.827 291.582 716.527 291.812 716.386 292.138C716.234 292.473 716.272 292.863 716.486 293.163L718.761 296.494L701.192 299.113L697.869 295.449L703.088 294.671L702.785 292.636L692.611 294.152L692.915 296.187L695.417 295.814L699.673 300.504L697.916 308.254C698.613 308.317 699.302 308.451 699.972 308.654L701.395 302.359L713.677 315.971L707.441 316.901L707.517 317.409C707.592 317.92 707.63 318.436 707.633 318.952L715.883 317.722C716.302 317.658 716.64 317.344 716.732 316.93L720.711 299.387L725.06 305.82L725.06 305.821C725.56 305.341 726.105 304.911 726.688 304.538L719.1 293.324ZM715.172 314.552L702.848 300.946L718.79 298.57L715.172 314.552Z" fill="#3A64F3"/>
<path d="M768.439 309.429C768.213 309.18 768.122 308.836 768.198 308.508L770.702 297.403C767.787 297.112 764.879 298.017 762.645 299.912C760.41 301.806 759.041 304.527 758.851 307.45C758.662 310.373 759.668 313.248 761.638 315.415C763.609 317.582 766.375 318.856 769.304 318.945C772.232 319.033 775.07 317.928 777.167 315.883C779.265 313.838 780.442 311.029 780.429 308.1L769.35 309.751C769.012 309.802 768.67 309.682 768.439 309.429L768.439 309.429Z" fill="#3A64F3"/>
<path d="M780.237 306.049C779.86 304.125 778.965 302.34 777.649 300.887C776.333 299.434 774.646 298.368 772.769 297.802L770.573 307.489L780.237 306.049Z" fill="#3A64F3"/>
<path d="M803.644 292.16C802.166 292.379 800.749 292.906 799.486 293.705L805.654 302.852L803.953 304L797.854 294.967C795.328 297.341 794.096 300.784 794.543 304.221C794.991 307.659 797.062 310.673 800.111 312.321C803.16 313.97 806.816 314.053 809.937 312.546C813.058 311.038 815.265 308.121 815.868 304.708C816.472 301.294 815.398 297.799 812.982 295.312C810.567 292.826 807.104 291.651 803.675 292.155L803.644 292.16Z" fill="#3A64F3"/>
<path d="M791.895 282.473L799.433 281.35C799.703 281.31 799.978 281.378 800.197 281.54C800.416 281.703 800.562 281.946 800.602 282.215L800.754 283.233C800.794 283.503 800.725 283.777 800.563 283.997C800.401 284.216 800.158 284.362 799.888 284.402L798.108 284.667L798.411 286.702L800.191 286.436C801.001 286.316 801.729 285.879 802.216 285.221C802.703 284.563 802.909 283.739 802.788 282.93L802.637 281.912C802.516 281.103 802.079 280.374 801.421 279.887C800.764 279.401 799.939 279.195 799.13 279.315L789.974 280.68C789.622 280.731 789.322 280.961 789.18 281.287C789.028 281.622 789.067 282.013 789.281 282.312L791.556 285.644L773.987 288.262L770.664 284.598L775.883 283.82L775.58 281.785L765.406 283.302L765.71 285.336L768.212 284.963L772.468 289.654L770.711 297.403C771.408 297.466 772.097 297.6 772.767 297.804L774.19 291.508L786.472 305.121L780.236 306.05L780.312 306.559C780.387 307.069 780.425 307.585 780.428 308.101L788.678 306.872C789.097 306.808 789.434 306.493 789.527 306.079L793.506 288.536L797.854 294.97L797.854 294.97C798.354 294.49 798.9 294.061 799.483 293.687L791.895 282.473ZM787.966 303.702L775.643 290.095L791.584 287.719L787.966 303.702Z" fill="#3A64F3"/>
<path d="M841.235 298.579C841.009 298.33 840.918 297.987 840.993 297.659L843.498 286.553C840.583 286.262 837.675 287.168 835.441 289.062C833.206 290.956 831.837 293.677 831.647 296.6C831.458 299.523 832.464 302.398 834.434 304.566C836.405 306.733 839.171 308.007 842.1 308.095C845.028 308.183 847.866 307.078 849.963 305.033C852.061 302.989 853.238 300.179 853.225 297.25L842.146 298.901C841.807 298.952 841.466 298.832 841.235 298.579L841.235 298.579Z" fill="#3A64F3"/>
<path d="M853.033 295.199C852.656 293.275 851.761 291.491 850.445 290.038C849.129 288.585 847.442 287.518 845.565 286.953L843.369 296.639L853.033 295.199Z" fill="#3A64F3"/>
<path d="M876.44 281.31C874.962 281.53 873.545 282.056 872.282 282.856L878.45 292.003L876.749 293.15L870.65 284.118C868.124 286.492 866.892 289.934 867.339 293.372C867.786 296.809 869.858 299.823 872.907 301.472C875.956 303.121 879.612 303.204 882.733 301.696C885.854 300.188 888.061 297.272 888.664 293.858C889.267 290.445 888.194 286.949 885.778 284.463C883.363 281.976 879.9 280.802 876.471 281.306L876.44 281.31Z" fill="#3A64F3"/>
<path d="M864.691 271.624L872.229 270.5C872.499 270.46 872.774 270.529 872.993 270.691C873.212 270.853 873.358 271.096 873.398 271.366L873.55 272.383C873.59 272.653 873.521 272.928 873.359 273.147C873.197 273.366 872.954 273.512 872.684 273.552L870.904 273.818L871.207 275.852L872.987 275.587C873.797 275.466 874.525 275.029 875.012 274.371C875.499 273.714 875.705 272.889 875.584 272.08L875.433 271.063C875.312 270.253 874.875 269.525 874.217 269.038C873.56 268.551 872.735 268.345 871.926 268.466L862.77 269.83C862.418 269.882 862.118 270.112 861.976 270.437C861.824 270.773 861.863 271.163 862.077 271.462L864.352 274.794L846.783 277.413L843.46 273.748L848.679 272.971L848.376 270.936L838.202 272.452L838.505 274.487L841.008 274.114L845.264 278.804L843.507 286.554C844.204 286.617 844.893 286.751 845.563 286.954L846.986 280.658L859.268 294.271L853.032 295.201L853.108 295.709C853.183 296.22 853.221 296.735 853.223 297.252L861.474 296.022C861.893 295.958 862.23 295.644 862.323 295.23L866.301 277.687L870.65 284.12L870.65 284.121C871.15 283.641 871.696 283.211 872.279 282.838L864.691 271.624ZM860.762 292.852L848.439 279.246L864.38 276.87L860.762 292.852Z" fill="#3A64F3"/>
<path d="M914.031 287.73C913.804 287.481 913.714 287.137 913.789 286.809L916.294 275.704C913.379 275.413 910.471 276.318 908.236 278.212C906.002 280.107 904.633 282.828 904.443 285.751C904.253 288.674 905.259 291.549 907.23 293.716C909.201 295.883 911.967 297.157 914.895 297.245C917.824 297.334 920.662 296.228 922.759 294.184C924.857 292.139 926.034 289.33 926.021 286.401L914.942 288.052C914.603 288.103 914.262 287.982 914.031 287.73L914.031 287.73Z" fill="#3A64F3"/>
<path d="M925.829 284.349C925.452 282.426 924.557 280.641 923.241 279.188C921.925 277.735 920.238 276.669 918.36 276.103L916.164 285.79L925.829 284.349Z" fill="#3A64F3"/>
<path d="M949.236 270.46C947.758 270.68 946.341 271.207 945.078 272.006L951.246 281.153L949.545 282.301L943.446 273.268C940.92 275.642 939.688 279.085 940.135 282.522C940.582 285.96 942.654 288.973 945.703 290.622C948.752 292.271 952.407 292.354 955.529 290.846C958.65 289.338 960.857 286.422 961.46 283.009C962.063 279.595 960.989 276.1 958.574 273.613C956.159 271.127 952.696 269.952 949.267 270.456L949.236 270.46Z" fill="#3A64F3"/>
<path d="M937.487 260.774L945.025 259.651C945.295 259.61 945.57 259.679 945.789 259.841C946.008 260.004 946.154 260.246 946.194 260.516L946.346 261.534C946.386 261.803 946.317 262.078 946.155 262.297C945.993 262.517 945.75 262.662 945.48 262.703L943.7 262.968L944.003 265.003L945.783 264.737C946.592 264.617 947.321 264.179 947.808 263.522C948.295 262.864 948.501 262.04 948.38 261.23L948.229 260.213C948.108 259.404 947.671 258.675 947.013 258.188C946.356 257.701 945.531 257.495 944.722 257.616L935.566 258.981C935.214 259.032 934.914 259.262 934.772 259.588C934.62 259.923 934.659 260.314 934.873 260.613L937.148 263.945L919.579 266.563L916.256 262.899L921.475 262.121L921.171 260.086L910.998 261.603L911.301 263.637L913.804 263.264L918.059 267.955L916.303 275.704C917 275.767 917.689 275.901 918.359 276.104L919.782 269.809L932.064 283.421L925.828 284.351L925.904 284.86C925.979 285.37 926.017 285.886 926.019 286.402L934.27 285.173C934.689 285.109 935.026 284.794 935.119 284.38L939.097 266.837L943.446 273.27L943.446 273.271C943.946 272.791 944.492 272.362 945.075 271.988L937.487 260.774ZM933.558 282.003L921.235 268.396L937.176 266.02L933.558 282.003Z" fill="#3A64F3"/>
<path d="M986.825 276.879C986.599 276.63 986.509 276.286 986.584 275.959L989.089 264.853C986.174 264.562 983.266 265.468 981.031 267.362C978.797 269.256 977.428 271.977 977.238 274.9C977.048 277.823 978.054 280.698 980.025 282.865C981.996 285.033 984.762 286.307 987.69 286.395C990.619 286.483 993.457 285.378 995.554 283.333C997.652 281.288 998.829 278.479 998.816 275.55L987.737 277.201C987.398 277.252 987.057 277.132 986.826 276.879L986.825 276.879Z" fill="#3A64F3"/>
<path d="M998.624 273.499C998.247 271.575 997.352 269.79 996.036 268.338C994.72 266.885 993.033 265.818 991.155 265.252L988.959 274.939L998.624 273.499Z" fill="#3A64F3"/>
<path d="M1022.03 259.61C1020.55 259.83 1019.14 260.356 1017.87 261.155L1024.04 270.302L1022.34 271.45L1016.24 262.418C1013.72 264.791 1012.48 268.234 1012.93 271.672C1013.38 275.109 1015.45 278.123 1018.5 279.771C1021.55 281.42 1025.2 281.504 1028.32 279.996C1031.45 278.488 1033.65 275.572 1034.25 272.158C1034.86 268.744 1033.78 265.249 1031.37 262.763C1028.95 260.276 1025.49 259.102 1022.06 259.605L1022.03 259.61Z" fill="#3A64F3"/>
<path d="M1010.28 249.924L1017.82 248.8C1018.09 248.76 1018.36 248.828 1018.58 248.991C1018.8 249.153 1018.95 249.396 1018.99 249.666L1019.14 250.683C1019.18 250.953 1019.11 251.228 1018.95 251.447C1018.79 251.666 1018.54 251.812 1018.27 251.852L1016.49 252.117L1016.8 254.152L1018.58 253.887C1019.39 253.766 1020.12 253.329 1020.6 252.671C1021.09 252.014 1021.3 251.189 1021.18 250.38L1021.02 249.362C1020.9 248.553 1020.47 247.824 1019.81 247.338C1019.15 246.851 1018.33 246.645 1017.52 246.765L1008.36 248.13C1008.01 248.182 1007.71 248.412 1007.57 248.737C1007.42 249.072 1007.45 249.463 1007.67 249.762L1009.94 253.094L992.374 255.713L989.051 252.048L994.27 251.27L993.966 249.236L983.793 250.752L984.096 252.787L986.599 252.414L990.854 257.104L989.098 264.853C989.795 264.916 990.484 265.051 991.154 265.254L992.576 258.958L1004.86 272.571L998.623 273.5L998.699 274.009C998.774 274.52 998.812 275.035 998.814 275.552L1007.06 274.322C1007.48 274.258 1007.82 273.944 1007.91 273.53L1011.89 255.986L1016.24 262.42L1016.24 262.42C1016.74 261.941 1017.29 261.511 1017.87 261.138L1010.28 249.924ZM1006.35 271.152L994.03 257.546L1009.97 255.169L1006.35 271.152Z" fill="#3A64F3"/>
<path d="M1059.62 266.029C1059.4 265.78 1059.31 265.437 1059.38 265.109L1061.88 254.004C1058.97 253.712 1056.06 254.618 1053.83 256.512C1051.59 258.407 1050.22 261.127 1050.03 264.05C1049.84 266.974 1050.85 269.848 1052.82 272.016C1054.79 274.183 1057.56 275.457 1060.49 275.545C1063.41 275.633 1066.25 274.528 1068.35 272.484C1070.45 270.439 1071.62 267.63 1071.61 264.7L1060.53 266.352C1060.19 266.403 1059.85 266.282 1059.62 266.03L1059.62 266.029Z" fill="#3A64F3"/>
<path d="M1071.42 262.649C1071.04 260.725 1070.15 258.941 1068.83 257.488C1067.52 256.035 1065.83 254.968 1063.95 254.403L1061.76 264.09L1071.42 262.649Z" fill="#3A64F3"/>
<path d="M1094.83 248.76C1093.35 248.98 1091.93 249.506 1090.67 250.306L1096.84 259.453L1095.14 260.6L1089.04 251.568C1086.51 253.942 1085.28 257.384 1085.73 260.822C1086.17 264.26 1088.24 267.273 1091.29 268.922C1094.34 270.571 1098 270.654 1101.12 269.146C1104.24 267.638 1106.45 264.722 1107.05 261.308C1107.65 257.895 1106.58 254.399 1104.17 251.913C1101.75 249.427 1098.29 248.252 1094.86 248.756L1094.83 248.76Z" fill="#3A64F3"/>
<path d="M1083.08 239.074L1090.62 237.95C1090.89 237.91 1091.16 237.979 1091.38 238.141C1091.6 238.303 1091.74 238.546 1091.78 238.816L1091.94 239.833C1091.98 240.103 1091.91 240.378 1091.75 240.597C1091.58 240.816 1091.34 240.962 1091.07 241.002L1089.29 241.268L1089.59 243.302L1091.37 243.037C1092.18 242.916 1092.91 242.479 1093.4 241.822C1093.89 241.164 1094.09 240.339 1093.97 239.53L1093.82 238.513C1093.7 237.704 1093.26 236.975 1092.6 236.488C1091.95 236.001 1091.12 235.795 1090.31 235.916L1081.16 237.28C1080.8 237.332 1080.5 237.562 1080.36 237.888C1080.21 238.223 1080.25 238.613 1080.46 238.913L1082.74 242.244L1065.17 244.863L1061.85 241.199L1067.07 240.421L1066.76 238.386L1056.59 239.902L1056.89 241.937L1059.39 241.564L1063.65 246.254L1061.89 254.004C1062.59 254.067 1063.28 254.201 1063.95 254.404L1065.37 248.109L1077.65 261.721L1071.42 262.651L1071.49 263.159C1071.57 263.67 1071.61 264.186 1071.61 264.702L1079.86 263.472C1080.28 263.408 1080.62 263.094 1080.71 262.68L1084.69 245.137L1089.04 251.57L1089.04 251.571C1089.54 251.091 1090.08 250.661 1090.67 250.288L1083.08 239.074ZM1079.15 260.302L1066.83 246.696L1082.77 244.32L1079.15 260.302Z" fill="#3A64F3"/>
<path d="M1132.42 255.179C1132.19 254.93 1132.1 254.586 1132.18 254.258L1134.68 243.153C1131.77 242.862 1128.86 243.767 1126.62 245.662C1124.39 247.556 1123.02 250.277 1122.83 253.2C1122.64 256.123 1123.65 258.998 1125.62 261.165C1127.59 263.332 1130.35 264.606 1133.28 264.695C1136.21 264.783 1139.05 263.678 1141.15 261.633C1143.24 259.588 1144.42 256.779 1144.41 253.85L1133.33 255.501C1132.99 255.552 1132.65 255.432 1132.42 255.179L1132.42 255.179Z" fill="#3A64F3"/>
<path d="M1144.22 251.799C1143.84 249.875 1142.94 248.09 1141.63 246.637C1140.31 245.184 1138.62 244.118 1136.75 243.552L1134.55 253.239L1144.22 251.799Z" fill="#3A64F3"/>
<path d="M1167.62 237.91C1166.14 238.129 1164.73 238.656 1163.46 239.455L1169.63 248.602L1167.93 249.75L1161.83 240.717C1159.31 243.091 1158.07 246.534 1158.52 249.971C1158.97 253.409 1161.04 256.423 1164.09 258.071C1167.14 259.72 1170.79 259.803 1173.92 258.296C1177.04 256.788 1179.24 253.871 1179.85 250.458C1180.45 247.044 1179.38 243.549 1176.96 241.062C1174.55 238.576 1171.08 237.401 1167.65 237.905L1167.62 237.91Z" fill="#3A64F3"/>
<path d="M1155.87 228.223L1163.41 227.1C1163.68 227.06 1163.96 227.128 1164.18 227.29C1164.39 227.453 1164.54 227.696 1164.58 227.965L1164.73 228.983C1164.77 229.253 1164.7 229.527 1164.54 229.747C1164.38 229.966 1164.14 230.112 1163.87 230.152L1162.09 230.417L1162.39 232.452L1164.17 232.186C1164.98 232.066 1165.71 231.629 1166.19 230.971C1166.68 230.313 1166.89 229.489 1166.77 228.68L1166.62 227.662C1166.49 226.853 1166.06 226.124 1165.4 225.637C1164.74 225.151 1163.92 224.945 1163.11 225.065L1153.95 226.43C1153.6 226.481 1153.3 226.711 1153.16 227.037C1153.01 227.372 1153.05 227.763 1153.26 228.062L1155.53 231.394L1137.97 234.012L1134.64 230.348L1139.86 229.57L1139.56 227.535L1129.38 229.052L1129.69 231.086L1132.19 230.713L1136.45 235.404L1134.69 243.153C1135.39 243.216 1136.08 243.35 1136.75 243.554L1138.17 237.258L1150.45 250.871L1144.21 251.8L1144.29 252.309C1144.37 252.819 1144.4 253.335 1144.41 253.851L1152.66 252.622C1153.08 252.558 1153.41 252.243 1153.51 251.829L1157.48 234.286L1161.83 240.72L1161.83 240.72C1162.33 240.24 1162.88 239.811 1163.46 239.437L1155.87 228.223ZM1151.95 249.452L1139.62 235.845L1155.56 233.469L1151.95 249.452Z" fill="#3A64F3"/>
<path d="M1205.21 244.329C1204.99 244.08 1204.9 243.737 1204.97 243.409L1207.48 232.303C1204.56 232.012 1201.65 232.918 1199.42 234.812C1197.18 236.706 1195.82 239.427 1195.63 242.35C1195.44 245.273 1196.44 248.148 1198.41 250.316C1200.38 252.483 1203.15 253.757 1206.08 253.845C1209.01 253.933 1211.84 252.828 1213.94 250.783C1216.04 248.739 1217.22 245.929 1217.2 243L1206.12 244.651C1205.79 244.702 1205.44 244.582 1205.21 244.329L1205.21 244.329Z" fill="#3A64F3"/>
<path d="M1217.01 240.949C1216.63 239.025 1215.74 237.241 1214.42 235.788C1213.11 234.335 1211.42 233.268 1209.54 232.703L1207.35 242.389L1217.01 240.949Z" fill="#3A64F3"/>
<path d="M1240.42 227.06C1238.94 227.28 1237.52 227.806 1236.26 228.606L1242.43 237.753L1240.73 238.9L1234.63 229.868C1232.1 232.242 1230.87 235.684 1231.32 239.122C1231.77 242.559 1233.84 245.573 1236.89 247.222C1239.93 248.871 1243.59 248.954 1246.71 247.446C1249.83 245.938 1252.04 243.022 1252.64 239.608C1253.25 236.195 1252.17 232.699 1249.76 230.213C1247.34 227.726 1243.88 226.552 1240.45 227.056L1240.42 227.06Z" fill="#3A64F3"/>
<path d="M1228.67 217.374L1236.21 216.25C1236.48 216.21 1236.75 216.279 1236.97 216.441C1237.19 216.603 1237.34 216.846 1237.38 217.116L1237.53 218.133C1237.57 218.403 1237.5 218.678 1237.34 218.897C1237.18 219.116 1236.93 219.262 1236.66 219.302L1234.88 219.568L1235.19 221.602L1236.97 221.337C1237.78 221.216 1238.5 220.779 1238.99 220.121C1239.48 219.464 1239.68 218.639 1239.56 217.83L1239.41 216.813C1239.29 216.003 1238.85 215.275 1238.2 214.788C1237.54 214.301 1236.71 214.095 1235.9 214.216L1226.75 215.58C1226.4 215.632 1226.1 215.862 1225.95 216.187C1225.8 216.523 1225.84 216.913 1226.06 217.212L1228.33 220.544L1210.76 223.163L1207.44 219.498L1212.66 218.721L1212.35 216.686L1202.18 218.202L1202.48 220.237L1204.99 219.864L1209.24 224.554L1207.49 232.304C1208.18 232.367 1208.87 232.501 1209.54 232.704L1210.96 226.408L1223.25 240.021L1217.01 240.951L1217.09 241.459C1217.16 241.97 1217.2 242.485 1217.2 243.002L1225.45 241.772C1225.87 241.708 1226.21 241.394 1226.3 240.98L1230.28 223.437L1234.63 229.87L1234.63 229.871C1235.13 229.391 1235.67 228.961 1236.26 228.588L1228.67 217.374ZM1224.74 238.602L1212.42 224.996L1228.36 222.62L1224.74 238.602Z" fill="#3A64F3"/>
<path d="M1278.01 233.48C1277.78 233.231 1277.69 232.887 1277.77 232.559L1280.27 221.454C1277.36 221.163 1274.45 222.068 1272.21 223.962C1269.98 225.857 1268.61 228.578 1268.42 231.501C1268.23 234.424 1269.24 237.299 1271.21 239.466C1273.18 241.633 1275.94 242.907 1278.87 242.995C1281.8 243.084 1284.64 241.978 1286.74 239.934C1288.83 237.889 1290.01 235.08 1290 232.151L1278.92 233.802C1278.58 233.853 1278.24 233.732 1278.01 233.48L1278.01 233.48Z" fill="#3A64F3"/>
<path d="M1289.81 230.099C1289.43 228.176 1288.53 226.391 1287.22 224.938C1285.9 223.485 1284.22 222.419 1282.34 221.853L1280.14 231.54L1289.81 230.099Z" fill="#3A64F3"/>
<path d="M1313.21 216.21C1311.74 216.43 1310.32 216.957 1309.06 217.756L1315.22 226.903L1313.52 228.051L1307.42 219.018C1304.9 221.392 1303.67 224.835 1304.11 228.272C1304.56 231.71 1306.63 234.723 1309.68 236.372C1312.73 238.021 1316.39 238.104 1319.51 236.596C1322.63 235.088 1324.83 232.172 1325.44 228.759C1326.04 225.345 1324.97 221.85 1322.55 219.363C1320.14 216.877 1316.67 215.702 1313.24 216.206L1313.21 216.21Z" fill="#3A64F3"/>
<path d="M1301.46 206.524L1309 205.401C1309.27 205.36 1309.55 205.429 1309.77 205.591C1309.99 205.754 1310.13 205.996 1310.17 206.266L1310.32 207.284C1310.36 207.553 1310.29 207.828 1310.13 208.047C1309.97 208.267 1309.73 208.412 1309.46 208.453L1307.68 208.718L1307.98 210.753L1309.76 210.487C1310.57 210.367 1311.3 209.929 1311.79 209.272C1312.27 208.614 1312.48 207.79 1312.36 206.98L1312.21 205.963C1312.09 205.154 1311.65 204.425 1310.99 203.938C1310.33 203.451 1309.51 203.245 1308.7 203.366L1299.54 204.731C1299.19 204.782 1298.89 205.012 1298.75 205.338C1298.6 205.673 1298.64 206.064 1298.85 206.363L1301.13 209.695L1283.56 212.313L1280.23 208.649L1285.45 207.871L1285.15 205.836L1274.98 207.353L1275.28 209.387L1277.78 209.014L1282.04 213.705L1280.28 221.454C1280.98 221.517 1281.67 221.651 1282.34 221.854L1283.76 215.559L1296.04 229.171L1289.81 230.101L1289.88 230.61C1289.96 231.12 1289.99 231.636 1290 232.152L1298.25 230.923C1298.67 230.859 1299 230.544 1299.1 230.13L1303.07 212.587L1307.42 219.02L1307.42 219.021C1307.92 218.541 1308.47 218.112 1309.05 217.738L1301.46 206.524ZM1297.54 227.753L1285.21 214.146L1301.15 211.77L1297.54 227.753Z" fill="#3A64F3"/>
<path d="M1350.8 222.629C1350.58 222.38 1350.49 222.036 1350.56 221.709L1353.07 210.603C1350.15 210.312 1347.24 211.218 1345.01 213.112C1342.78 215.006 1341.41 217.727 1341.22 220.65C1341.03 223.573 1342.03 226.448 1344 228.615C1345.97 230.783 1348.74 232.057 1351.67 232.145C1354.6 232.233 1357.44 231.128 1359.53 229.083C1361.63 227.038 1362.81 224.229 1362.79 221.3L1351.72 222.951C1351.38 223.002 1351.04 222.882 1350.8 222.629L1350.8 222.629Z" fill="#3A64F3"/>
<path d="M1362.6 219.249C1362.23 217.325 1361.33 215.54 1360.01 214.088C1358.7 212.635 1357.01 211.568 1355.13 211.002L1352.94 220.689L1362.6 219.249Z" fill="#3A64F3"/>
<path d="M1386.01 205.36C1384.53 205.58 1383.11 206.106 1381.85 206.905L1388.02 216.052L1386.32 217.2L1380.22 208.168C1377.69 210.541 1376.46 213.984 1376.91 217.422C1377.36 220.859 1379.43 223.873 1382.48 225.521C1385.53 227.17 1389.18 227.254 1392.3 225.746C1395.42 224.238 1397.63 221.322 1398.23 217.908C1398.84 214.494 1397.76 210.999 1395.35 208.513C1392.93 206.026 1389.47 204.852 1386.04 205.355L1386.01 205.36Z" fill="#3A64F3"/>
<path d="M1374.26 195.674L1381.8 194.55C1382.07 194.51 1382.34 194.578 1382.56 194.741C1382.78 194.903 1382.93 195.146 1382.97 195.416L1383.12 196.433C1383.16 196.703 1383.09 196.978 1382.93 197.197C1382.77 197.416 1382.52 197.562 1382.25 197.602L1380.47 197.867L1380.78 199.902L1382.56 199.637C1383.37 199.516 1384.09 199.079 1384.58 198.421C1385.07 197.764 1385.27 196.939 1385.15 196.13L1385 195.112C1384.88 194.303 1384.44 193.574 1383.79 193.088C1383.13 192.601 1382.3 192.395 1381.5 192.515L1372.34 193.88C1371.99 193.932 1371.69 194.162 1371.55 194.487C1371.39 194.822 1371.43 195.213 1371.65 195.512L1373.92 198.844L1356.35 201.463L1353.03 197.798L1358.25 197.02L1357.94 194.986L1347.77 196.502L1348.07 198.537L1350.58 198.164L1354.83 202.854L1353.08 210.603C1353.77 210.666 1354.46 210.801 1355.13 211.004L1356.55 204.708L1368.84 218.321L1362.6 219.25L1362.68 219.759C1362.75 220.27 1362.79 220.785 1362.79 221.302L1371.04 220.072C1371.46 220.008 1371.8 219.694 1371.89 219.28L1375.87 201.736L1380.22 208.17L1380.22 208.17C1380.72 207.691 1381.27 207.261 1381.85 206.888L1374.26 195.674ZM1370.33 216.902L1358.01 203.296L1373.95 200.919L1370.33 216.902Z" fill="#3A64F3"/>
<path d="M1423.6 211.779C1423.37 211.53 1423.28 211.187 1423.36 210.859L1425.86 199.754C1422.95 199.462 1420.04 200.368 1417.81 202.262C1415.57 204.157 1414.2 206.877 1414.01 209.8C1413.82 212.724 1414.83 215.598 1416.8 217.766C1418.77 219.933 1421.54 221.207 1424.46 221.295C1427.39 221.383 1430.23 220.278 1432.33 218.234C1434.43 216.189 1435.6 213.38 1435.59 210.45L1424.51 212.102C1424.17 212.153 1423.83 212.032 1423.6 211.78L1423.6 211.779Z" fill="#3A64F3"/>
<path d="M1435.4 208.399C1435.02 206.475 1434.13 204.691 1432.81 203.238C1431.49 201.785 1429.81 200.718 1427.93 200.153L1425.73 209.84L1435.4 208.399Z" fill="#3A64F3"/>
<path d="M1458.81 194.51C1457.33 194.73 1455.91 195.256 1454.65 196.056L1460.82 205.203L1459.11 206.35L1453.02 197.318C1450.49 199.692 1449.26 203.134 1449.7 206.572C1450.15 210.01 1452.22 213.023 1455.27 214.672C1458.32 216.321 1461.98 216.404 1465.1 214.896C1468.22 213.388 1470.43 210.472 1471.03 207.058C1471.63 203.645 1470.56 200.149 1468.14 197.663C1465.73 195.177 1462.27 194.002 1458.84 194.506L1458.81 194.51Z" fill="#3A64F3"/>
<path d="M1447.06 184.824L1454.59 183.7C1454.86 183.66 1455.14 183.729 1455.36 183.891C1455.58 184.053 1455.72 184.296 1455.76 184.566L1455.91 185.583C1455.96 185.853 1455.89 186.128 1455.72 186.347C1455.56 186.566 1455.32 186.712 1455.05 186.752L1453.27 187.018L1453.57 189.052L1455.35 188.787C1456.16 188.666 1456.89 188.229 1457.38 187.572C1457.86 186.914 1458.07 186.089 1457.95 185.28L1457.8 184.263C1457.68 183.454 1457.24 182.725 1456.58 182.238C1455.92 181.751 1455.1 181.545 1454.29 181.666L1445.14 183.03C1444.78 183.082 1444.48 183.312 1444.34 183.638C1444.19 183.973 1444.23 184.363 1444.44 184.663L1446.72 187.994L1429.15 190.613L1425.83 186.949L1431.04 186.171L1430.74 184.136L1420.57 185.652L1420.87 187.687L1423.37 187.314L1427.63 192.004L1425.87 199.754C1426.57 199.817 1427.26 199.951 1427.93 200.154L1429.35 193.859L1441.63 207.471L1435.4 208.401L1435.47 208.909C1435.55 209.42 1435.59 209.936 1435.59 210.452L1443.84 209.222C1444.26 209.158 1444.6 208.844 1444.69 208.43L1448.67 190.887L1453.02 197.32L1453.02 197.321C1453.52 196.841 1454.06 196.411 1454.64 196.038L1447.06 184.824ZM1443.13 206.052L1430.8 192.446L1446.75 190.07L1443.13 206.052Z" fill="#3A64F3"/>
<path d="M1496.39 200.929C1496.17 200.68 1496.08 200.336 1496.15 200.008L1498.66 188.903C1495.74 188.612 1492.84 189.517 1490.6 191.412C1488.37 193.306 1487 196.027 1486.81 198.95C1486.62 201.873 1487.62 204.748 1489.59 206.915C1491.57 209.082 1494.33 210.356 1497.26 210.445C1500.19 210.533 1503.03 209.428 1505.12 207.383C1507.22 205.338 1508.4 202.529 1508.38 199.6L1497.31 201.251C1496.97 201.302 1496.63 201.182 1496.39 200.929L1496.39 200.929Z" fill="#3A64F3"/>
<path d="M1508.19 197.549C1507.82 195.625 1506.92 193.84 1505.61 192.387C1504.29 190.934 1502.6 189.868 1500.72 189.302L1498.53 198.989L1508.19 197.549Z" fill="#3A64F3"/>
<path d="M1531.6 183.66C1530.12 183.879 1528.71 184.406 1527.44 185.205L1533.61 194.352L1531.91 195.5L1525.81 186.467C1523.28 188.841 1522.05 192.284 1522.5 195.721C1522.95 199.159 1525.02 202.173 1528.07 203.821C1531.12 205.47 1534.77 205.553 1537.89 204.046C1541.01 202.538 1543.22 199.621 1543.82 196.208C1544.43 192.794 1543.35 189.299 1540.94 186.812C1538.52 184.326 1535.06 183.151 1531.63 183.655L1531.6 183.66Z" fill="#3A64F3"/>
<path d="M1519.85 173.973L1527.39 172.85C1527.66 172.81 1527.93 172.878 1528.15 173.04C1528.37 173.203 1528.52 173.446 1528.56 173.715L1528.71 174.733C1528.75 175.003 1528.68 175.277 1528.52 175.497C1528.36 175.716 1528.11 175.862 1527.84 175.902L1526.06 176.167L1526.37 178.202L1528.15 177.936C1528.96 177.816 1529.69 177.379 1530.17 176.721C1530.66 176.063 1530.87 175.239 1530.74 174.43L1530.59 173.412C1530.47 172.603 1530.03 171.874 1529.38 171.387C1528.72 170.901 1527.9 170.695 1527.09 170.815L1517.93 172.18C1517.58 172.231 1517.28 172.461 1517.14 172.787C1516.98 173.122 1517.02 173.513 1517.24 173.812L1519.51 177.144L1501.94 179.762L1498.62 176.098L1503.84 175.32L1503.54 173.285L1493.36 174.802L1493.67 176.836L1496.17 176.463L1500.42 181.154L1498.67 188.903C1499.36 188.966 1500.05 189.1 1500.72 189.304L1502.15 183.008L1514.43 196.621L1508.19 197.55L1508.27 198.059C1508.34 198.569 1508.38 199.085 1508.38 199.601L1516.63 198.372C1517.05 198.308 1517.39 197.993 1517.48 197.579L1521.46 180.036L1525.81 186.47L1525.81 186.47C1526.31 185.99 1526.86 185.561 1527.44 185.187L1519.85 173.973ZM1515.92 195.202L1503.6 181.595L1519.54 179.219L1515.92 195.202Z" fill="#3A64F3"/>
<path d="M1569.19 190.079C1568.96 189.83 1568.87 189.487 1568.95 189.159L1571.45 178.053C1568.54 177.762 1565.63 178.668 1563.4 180.562C1561.16 182.456 1559.79 185.177 1559.6 188.1C1559.41 191.023 1560.42 193.898 1562.39 196.066C1564.36 198.233 1567.13 199.507 1570.06 199.595C1572.98 199.683 1575.82 198.578 1577.92 196.533C1580.02 194.489 1581.19 191.679 1581.18 188.75L1570.1 190.401C1569.76 190.452 1569.42 190.332 1569.19 190.079L1569.19 190.079Z" fill="#3A64F3"/>
<path d="M1580.99 186.699C1580.61 184.775 1579.72 182.991 1578.4 181.538C1577.09 180.085 1575.4 179.018 1573.52 178.453L1571.32 188.139L1580.99 186.699Z" fill="#3A64F3"/>
<path d="M1604.4 172.81C1602.92 173.03 1601.5 173.556 1600.24 174.356L1606.41 183.503L1604.71 184.65L1598.61 175.618C1596.08 177.992 1594.85 181.434 1595.3 184.872C1595.74 188.309 1597.81 191.323 1600.86 192.972C1603.91 194.621 1607.57 194.704 1610.69 193.196C1613.81 191.688 1616.02 188.772 1616.62 185.358C1617.22 181.945 1616.15 178.449 1613.73 175.963C1611.32 173.476 1607.86 172.302 1604.43 172.806L1604.4 172.81Z" fill="#3A64F3"/>
<path d="M1592.65 163.124L1600.19 162C1600.45 161.96 1600.73 162.029 1600.95 162.191C1601.17 162.353 1601.31 162.596 1601.35 162.866L1601.51 163.883C1601.55 164.153 1601.48 164.428 1601.32 164.647C1601.15 164.866 1600.91 165.012 1600.64 165.052L1598.86 165.318L1599.16 167.352L1600.94 167.087C1601.75 166.966 1602.48 166.529 1602.97 165.871C1603.46 165.214 1603.66 164.389 1603.54 163.58L1603.39 162.563C1603.27 161.753 1602.83 161.025 1602.17 160.538C1601.52 160.051 1600.69 159.845 1599.88 159.966L1590.73 161.33C1590.37 161.382 1590.07 161.612 1589.93 161.937C1589.78 162.273 1589.82 162.663 1590.03 162.962L1592.31 166.294L1574.74 168.913L1571.42 165.248L1576.63 164.471L1576.33 162.436L1566.16 163.952L1566.46 165.987L1568.96 165.614L1573.22 170.304L1571.46 178.054C1572.16 178.117 1572.85 178.251 1573.52 178.454L1574.94 172.158L1587.22 185.771L1580.99 186.701L1581.06 187.209C1581.14 187.72 1581.18 188.235 1581.18 188.752L1589.43 187.522C1589.85 187.458 1590.19 187.144 1590.28 186.73L1594.26 169.187L1598.61 175.62L1598.61 175.621C1599.11 175.141 1599.65 174.711 1600.24 174.338L1592.65 163.124ZM1588.72 184.352L1576.4 170.746L1592.34 168.37L1588.72 184.352Z" fill="#3A64F3"/>
<path d="M1641.99 179.23C1641.76 178.981 1641.67 178.637 1641.75 178.309L1644.25 167.204C1641.34 166.913 1638.43 167.818 1636.19 169.712C1633.96 171.607 1632.59 174.328 1632.4 177.251C1632.21 180.174 1633.22 183.049 1635.19 185.216C1637.16 187.383 1639.92 188.657 1642.85 188.745C1645.78 188.834 1648.62 187.728 1650.72 185.684C1652.81 183.639 1653.99 180.83 1653.98 177.901L1642.9 179.552C1642.56 179.603 1642.22 179.482 1641.99 179.23L1641.99 179.23Z" fill="#3A64F3"/>
<path d="M1653.79 175.849C1653.41 173.926 1652.51 172.141 1651.2 170.688C1649.88 169.235 1648.19 168.169 1646.32 167.603L1644.12 177.29L1653.79 175.849Z" fill="#3A64F3"/>
<path d="M1677.19 161.96C1675.71 162.18 1674.3 162.707 1673.03 163.506L1679.2 172.653L1677.5 173.801L1671.4 164.768C1668.88 167.142 1667.64 170.585 1668.09 174.022C1668.54 177.46 1670.61 180.473 1673.66 182.122C1676.71 183.771 1680.36 183.854 1683.49 182.346C1686.61 180.838 1688.81 177.922 1689.42 174.509C1690.02 171.095 1688.95 167.6 1686.53 165.113C1684.12 162.627 1680.65 161.452 1677.22 161.956L1677.19 161.96Z" fill="#3A64F3"/>
<path d="M1665.44 152.274L1672.98 151.151C1673.25 151.11 1673.53 151.179 1673.74 151.341C1673.96 151.504 1674.11 151.746 1674.15 152.016L1674.3 153.034C1674.34 153.303 1674.27 153.578 1674.11 153.797C1673.95 154.017 1673.71 154.162 1673.44 154.203L1671.66 154.468L1671.96 156.503L1673.74 156.237C1674.55 156.117 1675.28 155.679 1675.76 155.022C1676.25 154.364 1676.46 153.54 1676.34 152.73L1676.18 151.713C1676.06 150.904 1675.63 150.175 1674.97 149.688C1674.31 149.201 1673.49 148.995 1672.68 149.116L1663.52 150.481C1663.17 150.532 1662.87 150.762 1662.73 151.088C1662.58 151.423 1662.61 151.814 1662.83 152.113L1665.1 155.445L1647.53 158.063L1644.21 154.399L1649.43 153.621L1649.13 151.586L1638.95 153.103L1639.26 155.137L1641.76 154.764L1646.02 159.455L1644.26 167.204C1644.96 167.267 1645.65 167.401 1646.32 167.604L1647.74 161.309L1660.02 174.921L1653.78 175.851L1653.86 176.36C1653.93 176.87 1653.97 177.386 1653.98 177.902L1662.23 176.673C1662.65 176.609 1662.98 176.294 1663.07 175.88L1667.05 158.337L1671.4 164.77L1671.4 164.771C1671.9 164.291 1672.45 163.862 1673.03 163.488L1665.44 152.274ZM1661.51 173.503L1649.19 159.896L1665.13 157.52L1661.51 173.503Z" fill="#3A64F3"/>
<path d="M1714.78 168.379C1714.56 168.13 1714.47 167.786 1714.54 167.459L1717.04 156.353C1714.13 156.062 1711.22 156.968 1708.99 158.862C1706.75 160.756 1705.38 163.477 1705.19 166.4C1705 169.323 1706.01 172.198 1707.98 174.365C1709.95 176.533 1712.72 177.807 1715.65 177.895C1718.57 177.983 1721.41 176.878 1723.51 174.833C1725.61 172.788 1726.78 169.979 1726.77 167.05L1715.69 168.701C1715.35 168.752 1715.01 168.632 1714.78 168.379L1714.78 168.379Z" fill="#3A64F3"/>
<path d="M1726.58 164.999C1726.2 163.075 1725.31 161.29 1723.99 159.838C1722.68 158.385 1720.99 157.318 1719.11 156.752L1716.92 166.439L1726.58 164.999Z" fill="#3A64F3"/>
<path d="M1749.99 151.11C1748.51 151.33 1747.09 151.856 1745.83 152.655L1752 161.802L1750.3 162.95L1744.2 153.918C1741.67 156.291 1740.44 159.734 1740.89 163.172C1741.33 166.609 1743.4 169.623 1746.45 171.271C1749.5 172.92 1753.16 173.004 1756.28 171.496C1759.4 169.988 1761.61 167.072 1762.21 163.658C1762.81 160.244 1761.74 156.749 1759.33 154.263C1756.91 151.776 1753.45 150.602 1750.02 151.105L1749.99 151.11Z" fill="#3A64F3"/>
<path d="M1738.24 141.424L1745.78 140.3C1746.05 140.26 1746.32 140.328 1746.54 140.491C1746.76 140.653 1746.9 140.896 1746.94 141.166L1747.1 142.183C1747.14 142.453 1747.07 142.728 1746.91 142.947C1746.74 143.166 1746.5 143.312 1746.23 143.352L1744.45 143.617L1744.75 145.652L1746.53 145.387C1747.34 145.266 1748.07 144.829 1748.56 144.171C1749.05 143.514 1749.25 142.689 1749.13 141.88L1748.98 140.862C1748.86 140.053 1748.42 139.324 1747.76 138.838C1747.11 138.351 1746.28 138.145 1745.47 138.265L1736.32 139.63C1735.97 139.682 1735.67 139.912 1735.52 140.237C1735.37 140.572 1735.41 140.963 1735.62 141.262L1737.9 144.594L1720.33 147.213L1717.01 143.548L1722.23 142.77L1721.92 140.736L1711.75 142.252L1712.05 144.287L1714.55 143.914L1718.81 148.604L1717.05 156.353C1717.75 156.416 1718.44 156.551 1719.11 156.754L1720.53 150.458L1732.81 164.071L1726.58 165L1726.65 165.509C1726.73 166.02 1726.77 166.535 1726.77 167.052L1735.02 165.822C1735.44 165.758 1735.78 165.444 1735.87 165.03L1739.85 147.486L1744.2 153.92L1744.2 153.92C1744.7 153.441 1745.24 153.011 1745.83 152.638L1738.24 141.424ZM1734.31 162.652L1721.99 149.046L1737.93 146.669L1734.31 162.652Z" fill="#3A64F3"/>
<path d="M1787.58 157.529C1787.35 157.28 1787.26 156.937 1787.34 156.609L1789.84 145.504C1786.93 145.212 1784.02 146.118 1781.78 148.012C1779.55 149.907 1778.18 152.627 1777.99 155.55C1777.8 158.474 1778.81 161.348 1780.78 163.516C1782.75 165.683 1785.51 166.957 1788.44 167.045C1791.37 167.133 1794.21 166.028 1796.31 163.984C1798.4 161.939 1799.58 159.13 1799.57 156.2L1788.49 157.852C1788.15 157.903 1787.81 157.782 1787.58 157.53L1787.58 157.529Z" fill="#3A64F3"/>
<path d="M1799.38 154.149C1799 152.225 1798.1 150.441 1796.79 148.988C1795.47 147.535 1793.78 146.468 1791.91 145.903L1789.71 155.59L1799.38 154.149Z" fill="#3A64F3"/>
<path d="M1822.78 140.26C1821.3 140.48 1819.89 141.006 1818.62 141.806L1824.79 150.953L1823.09 152.1L1816.99 143.068C1814.47 145.442 1813.24 148.884 1813.68 152.322C1814.13 155.76 1816.2 158.773 1819.25 160.422C1822.3 162.071 1825.95 162.154 1829.08 160.646C1832.2 159.138 1834.4 156.222 1835.01 152.808C1835.61 149.395 1834.54 145.899 1832.12 143.413C1829.71 140.927 1826.24 139.752 1822.81 140.256L1822.78 140.26Z" fill="#3A64F3"/>
<path d="M1811.03 130.574L1818.57 129.45C1818.84 129.41 1819.12 129.479 1819.34 129.641C1819.55 129.803 1819.7 130.046 1819.74 130.316L1819.89 131.333C1819.93 131.603 1819.86 131.878 1819.7 132.097C1819.54 132.316 1819.3 132.462 1819.03 132.502L1817.25 132.768L1817.55 134.802L1819.33 134.537C1820.14 134.416 1820.87 133.979 1821.35 133.322C1821.84 132.664 1822.05 131.839 1821.93 131.03L1821.78 130.013C1821.65 129.204 1821.22 128.475 1820.56 127.988C1819.9 127.501 1819.08 127.295 1818.27 127.416L1809.11 128.78C1808.76 128.832 1808.46 129.062 1808.32 129.388C1808.17 129.723 1808.21 130.113 1808.42 130.413L1810.69 133.744L1793.13 136.363L1789.8 132.699L1795.02 131.921L1794.72 129.886L1784.54 131.402L1784.85 133.437L1787.35 133.064L1791.61 137.754L1789.85 145.504C1790.55 145.567 1791.24 145.701 1791.91 145.904L1793.33 139.609L1805.61 153.221L1799.37 154.151L1799.45 154.659C1799.53 155.17 1799.56 155.686 1799.57 156.202L1807.82 154.972C1808.24 154.908 1808.57 154.594 1808.67 154.18L1812.64 136.637L1816.99 143.07L1816.99 143.071C1817.49 142.591 1818.04 142.161 1818.62 141.788L1811.03 130.574ZM1807.11 151.802L1794.78 138.196L1810.72 135.82L1807.11 151.802Z" fill="#3A64F3"/>
<path d="M1860.37 146.679C1860.15 146.43 1860.06 146.086 1860.13 145.758L1862.64 134.653C1859.72 134.362 1856.81 135.267 1854.58 137.162C1852.34 139.056 1850.98 141.777 1850.79 144.7C1850.6 147.623 1851.6 150.498 1853.57 152.665C1855.54 154.832 1858.31 156.106 1861.24 156.195C1864.17 156.283 1867 155.178 1869.1 153.133C1871.2 151.088 1872.38 148.279 1872.36 145.35L1861.28 147.001C1860.95 147.052 1860.6 146.932 1860.37 146.679L1860.37 146.679Z" fill="#3A64F3"/>
<path d="M1872.17 143.299C1871.79 141.375 1870.9 139.59 1869.58 138.137C1868.27 136.684 1866.58 135.618 1864.7 135.052L1862.51 144.739L1872.17 143.299Z" fill="#3A64F3"/>
<path d="M1895.58 129.41C1894.1 129.629 1892.68 130.156 1891.42 130.955L1897.59 140.102L1895.89 141.25L1889.79 132.217C1887.26 134.591 1886.03 138.034 1886.48 141.471C1886.93 144.909 1889 147.923 1892.05 149.571C1895.09 151.22 1898.75 151.303 1901.87 149.796C1904.99 148.288 1907.2 145.371 1907.8 141.958C1908.41 138.544 1907.33 135.049 1904.92 132.562C1902.5 130.076 1899.04 128.901 1895.61 129.405L1895.58 129.41Z" fill="#3A64F3"/>
<path d="M1883.83 119.723L1891.37 118.6C1891.64 118.56 1891.91 118.628 1892.13 118.79C1892.35 118.953 1892.5 119.196 1892.54 119.465L1892.69 120.483C1892.73 120.753 1892.66 121.027 1892.5 121.247C1892.34 121.466 1892.09 121.612 1891.82 121.652L1890.04 121.917L1890.35 123.952L1892.13 123.686C1892.94 123.566 1893.66 123.129 1894.15 122.471C1894.64 121.813 1894.84 120.989 1894.72 120.18L1894.57 119.162C1894.45 118.353 1894.01 117.624 1893.36 117.137C1892.7 116.651 1891.87 116.445 1891.06 116.565L1881.91 117.93C1881.56 117.981 1881.26 118.211 1881.12 118.537C1880.96 118.872 1881 119.263 1881.22 119.562L1883.49 122.894L1865.92 125.512L1862.6 121.848L1867.82 121.07L1867.51 119.035L1857.34 120.552L1857.64 122.586L1860.15 122.213L1864.4 126.904L1862.65 134.653C1863.34 134.716 1864.03 134.85 1864.7 135.054L1866.12 128.758L1878.41 142.371L1872.17 143.3L1872.25 143.809C1872.32 144.319 1872.36 144.835 1872.36 145.351L1880.61 144.122C1881.03 144.058 1881.37 143.743 1881.46 143.329L1885.44 125.786L1889.79 132.22L1889.79 132.22C1890.29 131.74 1890.83 131.311 1891.42 130.937L1883.83 119.723ZM1879.9 140.952L1867.58 127.345L1883.52 124.969L1879.9 140.952Z" fill="#3A64F3"/>
<path d="M1933.17 135.829C1932.94 135.58 1932.85 135.237 1932.93 134.909L1935.43 123.803C1932.52 123.512 1929.61 124.418 1927.37 126.312C1925.14 128.206 1923.77 130.927 1923.58 133.85C1923.39 136.773 1924.4 139.648 1926.37 141.816C1928.34 143.983 1931.1 145.257 1934.03 145.345C1936.96 145.433 1939.8 144.328 1941.9 142.283C1943.99 140.239 1945.17 137.429 1945.16 134.5L1934.08 136.151C1933.74 136.202 1933.4 136.082 1933.17 135.829L1933.17 135.829Z" fill="#3A64F3"/>
<path d="M1944.97 132.449C1944.59 130.525 1943.69 128.741 1942.38 127.288C1941.06 125.835 1939.38 124.768 1937.5 124.203L1935.3 133.889L1944.97 132.449Z" fill="#3A64F3"/>
<path d="M1968.37 118.56C1966.9 118.78 1965.48 119.306 1964.22 120.106L1970.38 129.253L1968.68 130.4L1962.58 121.368C1960.06 123.742 1958.83 127.184 1959.27 130.622C1959.72 134.059 1961.79 137.073 1964.84 138.722C1967.89 140.371 1971.55 140.454 1974.67 138.946C1977.79 137.438 1979.99 134.522 1980.6 131.108C1981.2 127.695 1980.13 124.199 1977.71 121.713C1975.3 119.226 1971.83 118.052 1968.4 118.556L1968.37 118.56Z" fill="#3A64F3"/>
<path d="M1956.62 108.874L1964.16 107.75C1964.43 107.71 1964.71 107.779 1964.93 107.941C1965.15 108.103 1965.29 108.346 1965.33 108.616L1965.48 109.633C1965.52 109.903 1965.45 110.178 1965.29 110.397C1965.13 110.616 1964.89 110.762 1964.62 110.802L1962.84 111.068L1963.14 113.102L1964.92 112.837C1965.73 112.716 1966.46 112.279 1966.95 111.621C1967.43 110.964 1967.64 110.139 1967.52 109.33L1967.37 108.313C1967.25 107.503 1966.81 106.775 1966.15 106.288C1965.49 105.801 1964.67 105.595 1963.86 105.716L1954.7 107.08C1954.35 107.132 1954.05 107.362 1953.91 107.687C1953.76 108.023 1953.8 108.413 1954.01 108.712L1956.29 112.044L1938.72 114.663L1935.39 110.998L1940.61 110.221L1940.31 108.186L1930.14 109.702L1930.44 111.737L1932.94 111.364L1937.2 116.054L1935.44 123.804C1936.14 123.867 1936.83 124.001 1937.5 124.204L1938.92 117.908L1951.2 131.521L1944.97 132.451L1945.04 132.959C1945.12 133.47 1945.15 133.985 1945.16 134.502L1953.41 133.272C1953.83 133.208 1954.16 132.894 1954.26 132.48L1958.24 114.937L1962.58 121.37L1962.58 121.371C1963.08 120.891 1963.63 120.461 1964.21 120.088L1956.62 108.874ZM1952.7 130.102L1940.37 116.496L1956.31 114.12L1952.7 130.102Z" fill="#3A64F3"/>
<path d="M2005.96 124.98C2005.74 124.731 2005.65 124.387 2005.72 124.059L2008.23 112.954C2005.31 112.663 2002.4 113.568 2000.17 115.462C1997.94 117.357 1996.57 120.078 1996.38 123.001C1996.19 125.924 1997.19 128.799 1999.16 130.966C2001.13 133.133 2003.9 134.407 2006.83 134.495C2009.76 134.584 2012.6 133.478 2014.69 131.434C2016.79 129.389 2017.97 126.58 2017.95 123.651L2006.88 125.302C2006.54 125.353 2006.2 125.232 2005.96 124.98L2005.96 124.98Z" fill="#3A64F3"/>
<path d="M2017.76 121.599C2017.39 119.676 2016.49 117.891 2015.17 116.438C2013.86 114.985 2012.17 113.919 2010.29 113.353L2008.1 123.04L2017.76 121.599Z" fill="#3A64F3"/>
<path d="M2041.17 107.71C2039.69 107.93 2038.27 108.457 2037.01 109.256L2043.18 118.403L2041.48 119.551L2035.38 110.518C2032.85 112.892 2031.62 116.335 2032.07 119.772C2032.52 123.21 2034.59 126.223 2037.64 127.872C2040.69 129.521 2044.34 129.604 2047.46 128.096C2050.58 126.588 2052.79 123.672 2053.39 120.259C2054 116.845 2052.92 113.35 2050.51 110.863C2048.09 108.377 2044.63 107.202 2041.2 107.706L2041.17 107.71Z" fill="#3A64F3"/>
<path d="M2029.42 98.0241L2036.96 96.9006C2037.23 96.8604 2037.5 96.9289 2037.72 97.0913C2037.94 97.2536 2038.09 97.4965 2038.13 97.7663L2038.28 98.7836C2038.32 99.0534 2038.25 99.3282 2038.09 99.5474C2037.93 99.7666 2037.68 99.9124 2037.41 99.9526L2035.63 100.218L2035.94 102.253L2037.72 101.987C2038.53 101.867 2039.25 101.429 2039.74 100.772C2040.23 100.114 2040.43 99.2896 2040.31 98.4804L2040.16 97.4631C2040.04 96.6537 2039.6 95.925 2038.95 95.4381C2038.29 94.9513 2037.46 94.7454 2036.66 94.866L2027.5 96.2307C2027.15 96.2822 2026.85 96.5121 2026.71 96.8378C2026.55 97.1729 2026.59 97.5637 2026.81 97.8627L2029.08 101.195L2011.51 103.813L2008.19 100.149L2013.41 99.3709L2013.1 97.3362L2002.93 98.8525L2003.23 100.887L2005.74 100.514L2009.99 105.205L2008.24 112.954C2008.93 113.017 2009.62 113.151 2010.29 113.354L2011.72 107.059L2024 120.671L2017.76 121.601L2017.84 122.11C2017.91 122.62 2017.95 123.136 2017.95 123.652L2026.2 122.423C2026.62 122.359 2026.96 122.044 2027.05 121.63L2031.03 104.087L2035.38 110.52L2035.38 110.521C2035.88 110.041 2036.43 109.612 2037.01 109.238L2029.42 98.0241ZM2025.49 119.253L2013.17 105.646L2029.11 103.27L2025.49 119.253Z" fill="#3A64F3"/>
<path d="M2078.76 114.129C2078.53 113.88 2078.44 113.536 2078.52 113.209L2081.02 102.103C2078.11 101.812 2075.2 102.718 2072.97 104.612C2070.73 106.506 2069.36 109.227 2069.17 112.15C2068.98 115.073 2069.99 117.948 2071.96 120.115C2073.93 122.283 2076.7 123.557 2079.62 123.645C2082.55 123.733 2085.39 122.628 2087.49 120.583C2089.59 118.538 2090.76 115.729 2090.75 112.8L2079.67 114.451C2079.33 114.502 2078.99 114.382 2078.76 114.129L2078.76 114.129Z" fill="#3A64F3"/>
<path d="M2090.56 110.749C2090.18 108.825 2089.29 107.04 2087.97 105.588C2086.65 104.135 2084.97 103.068 2083.09 102.502L2080.89 112.189L2090.56 110.749Z" fill="#3A64F3"/>
<path d="M2113.97 96.8598C2112.49 97.0797 2111.07 97.606 2109.81 98.4053L2115.98 107.552L2114.27 108.7L2108.18 99.6676C2105.65 102.041 2104.42 105.484 2104.86 108.922C2105.31 112.359 2107.38 115.373 2110.43 117.021C2113.48 118.67 2117.14 118.754 2120.26 117.246C2123.38 115.738 2125.59 112.822 2126.19 109.408C2126.79 105.994 2125.72 102.499 2123.3 100.013C2120.89 97.5262 2117.43 96.3515 2114 96.8553L2113.97 96.8598Z" fill="#3A64F3"/>
<path d="M2102.22 87.1735L2109.75 86.05C2110.02 86.0098 2110.3 86.0784 2110.52 86.2407C2110.74 86.403 2110.88 86.6459 2110.92 86.9157L2111.08 87.933C2111.12 88.2028 2111.05 88.4776 2110.88 88.6968C2110.72 88.916 2110.48 89.0618 2110.21 89.102L2108.43 89.3673L2108.73 91.402L2110.51 91.1367C2111.32 91.016 2112.05 90.5787 2112.54 89.9212C2113.02 89.2637 2113.23 88.439 2113.11 87.6298L2112.96 86.6125C2112.84 85.8032 2112.4 85.0744 2111.74 84.5876C2111.09 84.1007 2110.26 83.8948 2109.45 84.0154L2100.3 85.3801C2099.94 85.4316 2099.64 85.6615 2099.5 85.9872C2099.35 86.3223 2099.39 86.7131 2099.6 87.0121L2101.88 90.344L2084.31 92.9626L2080.99 89.2982L2086.2 88.5203L2085.9 86.4856L2075.73 88.002L2076.03 90.0366L2078.53 89.6636L2082.79 94.3539L2081.03 102.103C2081.73 102.166 2082.42 102.301 2083.09 102.504L2084.51 96.2082L2096.79 109.821L2090.56 110.75L2090.63 111.259C2090.71 111.77 2090.75 112.285 2090.75 112.802L2099 111.572C2099.42 111.508 2099.76 111.194 2099.85 110.78L2103.83 93.2363L2108.18 99.6699L2108.18 99.6704C2108.68 99.1905 2109.22 98.761 2109.8 98.3877L2102.22 87.1735ZM2098.29 108.402L2085.96 94.7955L2101.91 92.4195L2098.29 108.402Z" fill="#3A64F3"/>
<path d="M2151.56 103.279C2151.33 103.03 2151.24 102.687 2151.31 102.359L2153.82 91.2535C2150.9 90.9623 2148 91.868 2145.76 93.7623C2143.53 95.6566 2142.16 98.3774 2141.97 101.3C2141.78 104.224 2142.78 107.098 2144.76 109.266C2146.73 111.433 2149.49 112.707 2152.42 112.795C2155.35 112.883 2158.19 111.778 2160.28 109.734C2162.38 107.689 2163.56 104.88 2163.55 101.95L2152.47 103.602C2152.13 103.653 2151.79 103.532 2151.56 103.28L2151.56 103.279Z" fill="#3A64F3"/>
<path d="M2163.35 99.8991C2162.98 97.9753 2162.08 96.1908 2160.77 94.7379C2159.45 93.285 2157.76 92.2185 2155.89 91.6529L2153.69 101.34L2163.35 99.8991Z" fill="#3A64F3"/>
<path d="M2186.76 86.0102C2185.28 86.2301 2183.87 86.7564 2182.6 87.5557L2188.77 96.7028L2187.07 97.8505L2180.97 88.818C2178.45 91.1917 2177.21 94.6345 2177.66 98.072C2178.11 101.51 2180.18 104.523 2183.23 106.172C2186.28 107.821 2189.93 107.904 2193.05 106.396C2196.18 104.888 2198.38 101.972 2198.99 98.5585C2199.59 95.1449 2198.51 91.6494 2196.1 89.163C2193.68 86.6766 2190.22 85.5019 2186.79 86.0057L2186.76 86.0102Z" fill="#3A64F3"/>
<path d="M2175.01 76.3239L2182.55 75.2004C2182.82 75.1602 2183.1 75.2288 2183.31 75.3911C2183.53 75.5534 2183.68 75.7963 2183.72 76.0661L2183.87 77.0834C2183.91 77.3532 2183.84 77.628 2183.68 77.8472C2183.52 78.0664 2183.28 78.2122 2183.01 78.2524L2181.22 78.5177L2181.53 80.5524L2183.31 80.287C2184.12 80.1664 2184.85 79.7291 2185.33 79.0716C2185.82 78.414 2186.03 77.5894 2185.91 76.7802L2185.75 75.7629C2185.63 74.9536 2185.2 74.2248 2184.54 73.7379C2183.88 73.2511 2183.06 73.0452 2182.25 73.1658L2173.09 74.5305C2172.74 74.582 2172.44 74.8119 2172.3 75.1376C2172.15 75.4727 2172.18 75.8635 2172.4 76.1625L2174.67 79.4944L2157.1 82.113L2153.78 78.4486L2159 77.6707L2158.7 75.636L2148.52 77.1523L2148.83 79.187L2151.33 78.814L2155.58 83.5043L2153.83 91.2537C2154.53 91.3169 2155.21 91.451 2155.88 91.6542L2157.31 85.3586L2169.59 98.9712L2163.35 99.9007L2163.43 100.409C2163.5 100.92 2163.54 101.436 2163.54 101.952L2171.8 100.722C2172.21 100.658 2172.55 100.344 2172.64 99.9301L2176.62 82.3867L2180.97 88.8203L2180.97 88.8207C2181.47 88.3409 2182.02 87.9114 2182.6 87.5381L2175.01 76.3239ZM2171.08 97.5525L2158.76 83.9459L2174.7 81.5699L2171.08 97.5525Z" fill="#3A64F3"/>
<path d="M2224.35 92.4289C2224.12 92.1799 2224.03 91.8363 2224.11 91.5085L2226.61 80.4029C2223.7 80.1117 2220.79 81.0174 2218.56 82.9117C2216.32 84.8061 2214.95 87.5268 2214.76 90.4498C2214.57 93.3731 2215.58 96.2479 2217.55 98.4152C2219.52 100.582 2222.29 101.856 2225.22 101.945C2228.14 102.033 2230.98 100.928 2233.08 98.883C2235.18 96.8382 2236.35 94.0291 2236.34 91.0998L2225.26 92.751C2224.92 92.8019 2224.58 92.6815 2224.35 92.4291L2224.35 92.4289Z" fill="#3A64F3"/>
<path d="M2236.15 89.0485C2235.77 87.1247 2234.88 85.3402 2233.56 83.8873C2232.25 82.4344 2230.56 81.3679 2228.68 80.8023L2226.48 90.489L2236.15 89.0485Z" fill="#3A64F3"/>
<path d="M2259.56 75.1596C2258.08 75.3795 2256.66 75.9058 2255.4 76.7051L2261.57 85.8523L2259.87 86.9999L2253.77 77.9674C2251.24 80.3411 2250.01 83.7839 2250.46 87.2214C2250.9 90.6589 2252.97 93.6725 2256.02 95.3211C2259.07 96.9701 2262.73 97.0534 2265.85 95.5455C2268.97 94.0376 2271.18 91.1214 2271.78 87.7079C2272.38 84.2943 2271.31 80.7988 2268.89 78.3124C2266.48 75.8261 2263.02 74.6513 2259.59 75.1551L2259.56 75.1596Z" fill="#3A64F3"/>
<path d="M2247.81 65.4733L2255.35 64.3498C2255.62 64.3096 2255.89 64.3782 2256.11 64.5405C2256.33 64.7028 2256.47 64.9457 2256.51 65.2155L2256.67 66.2328C2256.71 66.5026 2256.64 66.7774 2256.48 66.9966C2256.31 67.2158 2256.07 67.3616 2255.8 67.4018L2254.02 67.6671L2254.32 69.7018L2256.1 69.4365C2256.91 69.3158 2257.64 68.8785 2258.13 68.221C2258.62 67.5635 2258.82 66.7388 2258.7 65.9296L2258.55 64.9123C2258.43 64.103 2257.99 63.3742 2257.33 62.8874C2256.68 62.4005 2255.85 62.1946 2255.04 62.3152L2245.89 63.6799C2245.53 63.7314 2245.23 63.9613 2245.09 64.287C2244.94 64.6221 2244.98 65.0129 2245.19 65.312L2247.47 68.6438L2229.9 71.2625L2226.58 67.598L2231.79 66.8201L2231.49 64.7854L2221.32 66.3018L2221.62 68.3364L2224.12 67.9635L2228.38 72.6537L2226.62 80.4031C2227.32 80.4663 2228.01 80.6004 2228.68 80.8037L2230.1 74.508L2242.38 88.1206L2236.15 89.0501L2236.22 89.5588C2236.3 90.0694 2236.34 90.5851 2236.34 91.1015L2244.59 89.8718C2245.01 89.8078 2245.35 89.4934 2245.44 89.0795L2249.42 71.5361L2253.77 77.9697L2253.77 77.9702C2254.27 77.4903 2254.81 77.0608 2255.4 76.6875L2247.81 65.4733ZM2243.88 86.7019L2231.56 73.0953L2247.5 70.7193L2243.88 86.7019Z" fill="#3A64F3"/>
<path d="M2297.15 81.5793C2296.92 81.3303 2296.83 80.9867 2296.91 80.6589L2299.41 69.5533C2296.5 69.2621 2293.59 70.1678 2291.35 72.0621C2289.12 73.9564 2287.75 76.6772 2287.56 79.6002C2287.37 82.5235 2288.38 85.3983 2290.35 87.5656C2292.32 89.7329 2295.08 91.0068 2298.01 91.0949C2300.94 91.1831 2303.78 90.0781 2305.88 88.0334C2307.97 85.9886 2309.15 83.1795 2309.14 80.2501L2298.06 81.9014C2297.72 81.9523 2297.38 81.8319 2297.15 81.5795L2297.15 81.5793Z" fill="#3A64F3"/>
<path d="M2308.95 78.1989C2308.57 76.2751 2307.67 74.4906 2306.36 73.0377C2305.04 71.5848 2303.35 70.5183 2301.48 69.9527L2299.28 79.6394L2308.95 78.1989Z" fill="#3A64F3"/>
<path d="M2332.35 64.31C2330.87 64.5299 2329.46 65.0562 2328.19 65.8555L2334.36 75.0026L2332.66 76.1503L2326.56 67.1178C2324.04 69.4915 2322.8 72.9343 2323.25 76.3718C2323.7 79.8093 2325.77 82.8229 2328.82 84.4715C2331.87 86.1205 2335.52 86.2038 2338.65 84.6959C2341.77 83.188 2343.97 80.2718 2344.58 76.8583C2345.18 73.4447 2344.11 69.9492 2341.69 67.4628C2339.28 64.9764 2335.81 63.8017 2332.38 64.3055L2332.35 64.31Z" fill="#3A64F3"/>
<path d="M2320.6 54.6237L2328.14 53.5002C2328.41 53.46 2328.69 53.5286 2328.91 53.6909C2329.12 53.8532 2329.27 54.0961 2329.31 54.3659L2329.46 55.3832C2329.5 55.653 2329.43 55.9278 2329.27 56.147C2329.11 56.3662 2328.87 56.512 2328.6 56.5522L2326.82 56.8175L2327.12 58.8522L2328.9 58.5868C2329.71 58.4662 2330.44 58.0289 2330.92 57.3714C2331.41 56.7138 2331.62 55.8892 2331.5 55.08L2331.34 54.0627C2331.22 53.2534 2330.79 52.5246 2330.13 52.0378C2329.47 51.5509 2328.65 51.345 2327.84 51.4656L2318.68 52.8303C2318.33 52.8818 2318.03 53.1117 2317.89 53.4374C2317.74 53.7725 2317.77 54.1633 2317.99 54.4623L2320.26 57.7942L2302.69 60.4128L2299.37 56.7484L2304.59 55.9705L2304.29 53.9358L2294.11 55.4521L2294.42 57.4868L2296.92 57.1138L2301.18 61.8041L2299.42 69.5535C2300.12 69.6167 2300.81 69.7508 2301.48 69.954L2302.9 63.6584L2315.18 77.271L2308.94 78.2005L2309.02 78.7092C2309.1 79.2198 2309.13 79.7355 2309.14 80.2519L2317.39 79.0222C2317.81 78.9582 2318.14 78.6438 2318.23 78.2299L2322.21 60.6865L2326.56 67.1201L2326.56 67.1205C2327.06 66.6407 2327.61 66.2112 2328.19 65.8379L2320.6 54.6237ZM2316.67 75.8523L2304.35 62.2457L2320.29 59.8697L2316.67 75.8523Z" fill="#3A64F3"/>
<path d="M2369.94 70.7287C2369.72 70.4797 2369.63 70.1361 2369.7 69.8083L2372.21 58.7027C2369.29 58.4115 2366.38 59.3172 2364.15 61.2115C2361.91 63.1059 2360.54 65.8266 2360.36 68.7496C2360.17 71.6729 2361.17 74.5477 2363.14 76.715C2365.11 78.8823 2367.88 80.1562 2370.81 80.2444C2373.74 80.3325 2376.57 79.2275 2378.67 77.1828C2380.77 75.138 2381.95 72.3289 2381.93 69.3996L2370.85 71.0509C2370.52 71.1017 2370.17 70.9813 2369.94 70.7289L2369.94 70.7287Z" fill="#3A64F3"/>
<path d="M2381.74 67.3483C2381.36 65.4245 2380.47 63.6401 2379.15 62.1872C2377.84 60.7342 2376.15 59.6677 2374.27 59.1021L2372.08 68.7888L2381.74 67.3483Z" fill="#3A64F3"/>
<path d="M2405.15 53.4594C2403.67 53.6793 2402.25 54.2056 2400.99 55.0049L2407.16 64.1521L2405.46 65.2997L2399.36 56.2672C2396.83 58.6409 2395.6 62.0837 2396.05 65.5212C2396.49 68.9587 2398.57 71.9723 2401.61 73.6209C2404.66 75.2699 2408.32 75.3532 2411.44 73.8453C2414.56 72.3374 2416.77 69.4212 2417.37 66.0077C2417.98 62.5941 2416.9 59.0986 2414.49 56.6122C2412.07 54.1259 2408.61 52.9511 2405.18 53.4549L2405.15 53.4594Z" fill="#3A64F3"/>
<path d="M2393.4 43.7731L2400.94 42.6496C2401.21 42.6094 2401.48 42.678 2401.7 42.8403C2401.92 43.0026 2402.07 43.2455 2402.11 43.5153L2402.26 44.5326C2402.3 44.8024 2402.23 45.0773 2402.07 45.2964C2401.9 45.5156 2401.66 45.6614 2401.39 45.7016L2399.61 45.9669L2399.91 48.0016L2401.7 47.7363C2402.5 47.6156 2403.23 47.1783 2403.72 46.5208C2404.21 45.8633 2404.41 45.0386 2404.29 44.2294L2404.14 43.2121C2404.02 42.4028 2403.58 41.674 2402.93 41.1872C2402.27 40.7003 2401.44 40.4944 2400.63 40.615L2391.48 41.9797C2391.13 42.0312 2390.83 42.2612 2390.68 42.5868C2390.53 42.9219 2390.57 43.3127 2390.79 43.6118L2393.06 46.9436L2375.49 49.5623L2372.17 45.8978L2377.39 45.1199L2377.08 43.0852L2366.91 44.6016L2367.21 46.6362L2369.72 46.2633L2373.97 50.9535L2372.21 58.7029C2372.91 58.7661 2373.6 58.9002 2374.27 59.1035L2375.69 52.8078L2387.98 66.4205L2381.74 67.3499L2381.82 67.8586C2381.89 68.3692 2381.93 68.8849 2381.93 69.4013L2390.18 68.1716C2390.6 68.1077 2390.94 67.7932 2391.03 67.3793L2395.01 49.8359L2399.36 56.2695L2399.36 56.27C2399.86 55.7901 2400.4 55.3606 2400.99 54.9873L2393.4 43.7731ZM2389.47 65.0017L2377.15 51.3951L2393.09 49.0191L2389.47 65.0017Z" fill="#3A64F3"/>
<path d="M2442.74 59.8791C2442.51 59.6301 2442.42 59.2865 2442.5 58.9587L2445 47.8531C2442.09 47.5619 2439.18 48.4676 2436.94 50.3619C2434.71 52.2563 2433.34 54.977 2433.15 57.9C2432.96 60.8233 2433.97 63.6981 2435.94 65.8654C2437.91 68.0327 2440.68 69.3066 2443.6 69.3947C2446.53 69.4829 2449.37 68.3779 2451.47 66.3332C2453.56 64.2884 2454.74 61.4793 2454.73 58.55L2443.65 60.2012C2443.31 60.2521 2442.97 60.1317 2442.74 59.8793L2442.74 59.8791Z" fill="#3A64F3"/>
<path d="M2454.54 56.4987C2454.16 54.5749 2453.26 52.7904 2451.95 51.3375C2450.63 49.8846 2448.95 48.8181 2447.07 48.2525L2444.87 57.9392L2454.54 56.4987Z" fill="#3A64F3"/>
<path d="M2477.94 42.6098C2476.47 42.8297 2475.05 43.356 2473.79 44.1553L2479.95 53.3024L2478.25 54.4501L2472.15 45.4176C2469.63 47.7913 2468.4 51.2341 2468.84 54.6716C2469.29 58.1091 2471.36 61.1227 2474.41 62.7713C2477.46 64.4203 2481.12 64.5036 2484.24 62.9957C2487.36 61.4878 2489.56 58.5716 2490.17 55.1581C2490.77 51.7445 2489.7 48.249 2487.28 45.7626C2484.87 43.2762 2481.4 42.1015 2477.97 42.6053L2477.94 42.6098Z" fill="#3A64F3"/>
<path d="M2466.19 32.9235L2473.73 31.8C2474 31.7598 2474.28 31.8284 2474.5 31.9907C2474.72 32.153 2474.86 32.3959 2474.9 32.6657L2475.05 33.683C2475.09 33.9528 2475.03 34.2276 2474.86 34.4468C2474.7 34.666 2474.46 34.8118 2474.19 34.852L2472.41 35.1173L2472.71 37.152L2474.49 36.8867C2475.3 36.766 2476.03 36.3287 2476.52 35.6712C2477 35.0137 2477.21 34.189 2477.09 33.3798L2476.94 32.3625C2476.82 31.5532 2476.38 30.8244 2475.72 30.3376C2475.06 29.8507 2474.24 29.6448 2473.43 29.7654L2464.27 31.1301C2463.92 31.1816 2463.62 31.4115 2463.48 31.7372C2463.33 32.0723 2463.37 32.4631 2463.58 32.7621L2465.86 36.094L2448.29 38.7126L2444.96 35.0482L2450.18 34.2703L2449.88 32.2356L2439.71 33.752L2440.01 35.7866L2442.51 35.4136L2446.77 40.1039L2445.01 47.8533C2445.71 47.9165 2446.4 48.0506 2447.07 48.2539L2448.49 41.9582L2460.77 55.5708L2454.54 56.5003L2454.61 57.009C2454.69 57.5196 2454.73 58.0353 2454.73 58.5517L2462.98 57.322C2463.4 57.258 2463.73 56.9436 2463.83 56.5297L2467.81 38.9863L2472.15 45.4199L2472.15 45.4204C2472.65 44.9405 2473.2 44.511 2473.78 44.1377L2466.19 32.9235ZM2462.27 54.1521L2449.94 40.5455L2465.88 38.1695L2462.27 54.1521Z" fill="#3A64F3"/>
<rect x="2.27299" y="374.8" width="2525.12" height="80.0009" transform="rotate(-8.47739 2.27299 374.8)" stroke="#3A64F3" stroke-width="4"/>
</svg>
