<svg width="365" height="295" viewBox="0 0 365 295" fill="none" xmlns="http://www.w3.org/2000/svg">
<g clip-path="url(#clip0_4662_1805)">
<path d="M86 42L86 295" stroke="#F3F2EF" stroke-opacity="0.2" stroke-width="1.5" stroke-linecap="round" stroke-dasharray="3 3"/>
<path d="M182 42L182 295" stroke="#F3F2EF" stroke-opacity="0.2" stroke-width="1.5" stroke-linecap="round" stroke-dasharray="3 3"/>
<path d="M278 42L278 295" stroke="#F3F2EF" stroke-opacity="0.2" stroke-width="1.5" stroke-linecap="round" stroke-dasharray="3 3"/>
<path d="M7.512 61H6.324L3.012 55.696L2.172 54.136H2.16L2.208 55.408V61H1.296V53.08H2.484L5.784 58.36L6.636 59.944H6.648L6.6 58.672V53.08H7.512V61ZM14.971 57.688C14.971 57.912 14.955 58.136 14.923 58.36H10.399C10.455 58.968 10.655 59.44 10.999 59.776C11.351 60.112 11.803 60.28 12.355 60.28C12.795 60.28 13.159 60.204 13.447 60.052C13.743 59.9 13.943 59.68 14.047 59.392L14.851 59.812C14.611 60.236 14.291 60.56 13.891 60.784C13.491 61.008 12.979 61.12 12.355 61.12C11.451 61.12 10.739 60.844 10.219 60.292C9.70703 59.74 9.45103 58.976 9.45103 58C9.45103 57.024 9.69503 56.26 10.183 55.708C10.679 55.156 11.379 54.88 12.283 54.88C12.843 54.88 13.327 55.004 13.735 55.252C14.143 55.5 14.451 55.836 14.659 56.26C14.867 56.684 14.971 57.16 14.971 57.688ZM12.283 55.72C11.755 55.72 11.327 55.876 10.999 56.188C10.679 56.5 10.483 56.94 10.411 57.508H14.047C13.983 56.948 13.799 56.512 13.495 56.2C13.191 55.88 12.787 55.72 12.283 55.72ZM20.2919 60.58C19.8919 60.94 19.3759 61.12 18.7439 61.12C18.2559 61.12 17.8559 60.988 17.5439 60.724C17.2399 60.46 17.0839 60.056 17.0759 59.512V55.828H15.8759V55H17.0759V53.56L18.0359 53.296V55H20.2559V55.828H18.0359V59.344C18.0359 59.632 18.1159 59.852 18.2759 60.004C18.4439 60.148 18.6639 60.22 18.9359 60.22C19.3199 60.22 19.6599 60.072 19.9559 59.776L20.2919 60.58ZM33.9785 58.804H30.3905L29.5505 61H28.5425L31.6265 53.08H32.7665L35.8385 61H34.8185L33.9785 58.804ZM33.6305 57.904L32.5625 55.096L32.1905 53.992H32.1665L31.8185 55.06L30.7385 57.904H33.6305ZM40.2203 54.88C41.0603 54.88 41.7243 55.16 42.2123 55.72C42.7083 56.272 42.9563 57.032 42.9563 58C42.9563 58.968 42.7083 59.732 42.2123 60.292C41.7243 60.844 41.0603 61.12 40.2203 61.12C39.7563 61.12 39.3403 61.016 38.9723 60.808C38.6123 60.592 38.3443 60.308 38.1683 59.956L38.1083 61H37.2683V52.24H38.2283V55.936C38.4203 55.616 38.6883 55.36 39.0323 55.168C39.3843 54.976 39.7803 54.88 40.2203 54.88ZM40.1123 60.28C40.6963 60.28 41.1563 60.076 41.4923 59.668C41.8283 59.252 41.9963 58.696 41.9963 58C41.9963 57.304 41.8283 56.752 41.4923 56.344C41.1563 55.928 40.6963 55.72 40.1123 55.72C39.5363 55.72 39.0763 55.92 38.7323 56.32C38.3963 56.72 38.2283 57.256 38.2283 57.928V58.072C38.2283 58.744 38.3963 59.28 38.7323 59.68C39.0763 60.08 39.5363 60.28 40.1123 60.28ZM46.8669 61.12C46.2909 61.12 45.7709 61.008 45.3069 60.784C44.8429 60.552 44.5029 60.212 44.2869 59.764L45.0669 59.224C45.2029 59.576 45.4389 59.84 45.7749 60.016C46.1109 60.192 46.5069 60.28 46.9629 60.28C47.4349 60.28 47.7949 60.196 48.0429 60.028C48.2909 59.86 48.4149 59.648 48.4149 59.392C48.4149 59.16 48.2989 58.976 48.0669 58.84C47.8349 58.696 47.4269 58.572 46.8429 58.468C46.2669 58.364 45.8109 58.24 45.4749 58.096C45.1389 57.944 44.8949 57.756 44.7429 57.532C44.5909 57.3 44.5149 57.016 44.5149 56.68C44.5149 56.352 44.6109 56.052 44.8029 55.78C44.9949 55.508 45.2709 55.292 45.6309 55.132C45.9909 54.964 46.4069 54.88 46.8789 54.88C47.5189 54.88 48.0309 55 48.4149 55.24C48.8069 55.472 49.0869 55.832 49.2549 56.32L48.4389 56.8C48.3109 56.416 48.1149 56.14 47.8509 55.972C47.5949 55.804 47.2709 55.72 46.8789 55.72C46.4869 55.72 46.1549 55.808 45.8829 55.984C45.6109 56.16 45.4749 56.364 45.4749 56.596C45.4749 56.86 45.5909 57.064 45.8229 57.208C46.0629 57.352 46.4869 57.476 47.0949 57.58C47.9269 57.716 48.5149 57.92 48.8589 58.192C49.2029 58.464 49.3749 58.848 49.3749 59.344C49.3749 59.688 49.2709 59.996 49.0629 60.268C48.8629 60.532 48.5709 60.74 48.1869 60.892C47.8109 61.044 47.3709 61.12 46.8669 61.12ZM53.6871 54.88C54.5911 54.88 55.2991 55.156 55.8111 55.708C56.3311 56.26 56.5911 57.024 56.5911 58C56.5911 58.976 56.3311 59.74 55.8111 60.292C55.2991 60.844 54.5911 61.12 53.6871 61.12C52.7831 61.12 52.0711 60.844 51.5511 60.292C51.0391 59.74 50.7831 58.976 50.7831 58C50.7831 57.024 51.0391 56.26 51.5511 55.708C52.0711 55.156 52.7831 54.88 53.6871 54.88ZM53.6871 55.708C53.0791 55.708 52.6031 55.912 52.2591 56.32C51.9151 56.728 51.7431 57.288 51.7431 58C51.7431 58.712 51.9151 59.272 52.2591 59.68C52.6031 60.088 53.0791 60.292 53.6871 60.292C54.2951 60.292 54.7711 60.088 55.1151 59.68C55.4591 59.272 55.6311 58.712 55.6311 58C55.6311 57.288 55.4591 56.728 55.1151 56.32C54.7711 55.912 54.2951 55.708 53.6871 55.708ZM59.3678 59.392C59.3678 59.696 59.4118 59.908 59.4998 60.028C59.5958 60.14 59.7678 60.196 60.0158 60.196C60.1838 60.196 60.3278 60.184 60.4478 60.16C60.5758 60.136 60.7238 60.092 60.8918 60.028L60.7358 60.952C60.4718 61.064 60.1758 61.12 59.8478 61.12C59.3598 61.12 58.9958 60.988 58.7558 60.724C58.5238 60.46 58.4078 60.056 58.4078 59.512V52.24H59.3678V59.392ZM67.3198 55V61H66.4798L66.4198 60.088C66.0198 60.776 65.3038 61.12 64.2718 61.12C63.6238 61.12 63.0918 60.94 62.6758 60.58C62.2678 60.22 62.0638 59.668 62.0638 58.924V55H63.0238V58.672C63.0238 59.256 63.1438 59.672 63.3838 59.92C63.6238 60.16 63.9758 60.28 64.4398 60.28C64.9918 60.28 65.4478 60.112 65.8078 59.776C66.1758 59.44 66.3598 58.936 66.3598 58.264V55H67.3198ZM73.2255 60.58C72.8255 60.94 72.3095 61.12 71.6775 61.12C71.1895 61.12 70.7895 60.988 70.4775 60.724C70.1735 60.46 70.0175 60.056 70.0095 59.512V55.828H68.8095V55H70.0095V53.56L70.9695 53.296V55H73.1895V55.828H70.9695V59.344C70.9695 59.632 71.0495 59.852 71.2095 60.004C71.3775 60.148 71.5975 60.22 71.8695 60.22C72.2535 60.22 72.5935 60.072 72.8895 59.776L73.2255 60.58ZM79.7288 57.688C79.7288 57.912 79.7128 58.136 79.6808 58.36H75.1568C75.2128 58.968 75.4128 59.44 75.7568 59.776C76.1088 60.112 76.5608 60.28 77.1128 60.28C77.5528 60.28 77.9168 60.204 78.2048 60.052C78.5008 59.9 78.7008 59.68 78.8048 59.392L79.6088 59.812C79.3688 60.236 79.0488 60.56 78.6488 60.784C78.2488 61.008 77.7368 61.12 77.1128 61.12C76.2088 61.12 75.4968 60.844 74.9768 60.292C74.4648 59.74 74.2088 58.976 74.2088 58C74.2088 57.024 74.4528 56.26 74.9408 55.708C75.4368 55.156 76.1368 54.88 77.0408 54.88C77.6008 54.88 78.0848 55.004 78.4928 55.252C78.9008 55.5 79.2088 55.836 79.4168 56.26C79.6248 56.684 79.7288 57.16 79.7288 57.688ZM77.0408 55.72C76.5128 55.72 76.0848 55.876 75.7568 56.188C75.4368 56.5 75.2408 56.94 75.1688 57.508H78.8048C78.7408 56.948 78.5568 56.512 78.2528 56.2C77.9488 55.88 77.5448 55.72 77.0408 55.72ZM92.2673 57.004V61H91.5473L91.5113 59.932C91.2793 60.316 90.9513 60.612 90.5273 60.82C90.1113 61.02 89.6073 61.12 89.0153 61.12C88.2713 61.12 87.6233 60.956 87.0713 60.628C86.5193 60.292 86.0913 59.82 85.7873 59.212C85.4913 58.596 85.3433 57.872 85.3433 57.04C85.3433 56.216 85.4953 55.496 85.7993 54.88C86.1113 54.264 86.5433 53.792 87.0953 53.464C87.6553 53.128 88.3033 52.96 89.0393 52.96C89.8233 52.96 90.4673 53.108 90.9713 53.404C91.4833 53.7 91.8953 54.156 92.2073 54.772L91.3313 55.252C91.1553 54.804 90.8673 54.46 90.4673 54.22C90.0753 53.98 89.5993 53.86 89.0393 53.86C88.5033 53.86 88.0313 53.988 87.6233 54.244C87.2233 54.5 86.9113 54.868 86.6873 55.348C86.4633 55.82 86.3513 56.384 86.3513 57.04C86.3513 58.048 86.5833 58.832 87.0473 59.392C87.5113 59.944 88.1793 60.22 89.0513 60.22C89.7393 60.22 90.2993 60.044 90.7313 59.692C91.1713 59.34 91.3913 58.836 91.3913 58.18V57.904H88.8713V57.004H92.2673ZM100.723 53.08V61H99.7629V57.436H95.4669V61H94.5069V53.08H95.4669V56.536H99.7629V53.08H100.723ZM109.763 57.004V61H109.043L109.007 59.932C108.775 60.316 108.447 60.612 108.023 60.82C107.607 61.02 107.103 61.12 106.511 61.12C105.767 61.12 105.119 60.956 104.567 60.628C104.015 60.292 103.587 59.82 103.283 59.212C102.987 58.596 102.839 57.872 102.839 57.04C102.839 56.216 102.991 55.496 103.295 54.88C103.607 54.264 104.039 53.792 104.591 53.464C105.151 53.128 105.799 52.96 106.535 52.96C107.319 52.96 107.963 53.108 108.467 53.404C108.979 53.7 109.391 54.156 109.703 54.772L108.827 55.252C108.651 54.804 108.363 54.46 107.963 54.22C107.571 53.98 107.095 53.86 106.535 53.86C105.999 53.86 105.527 53.988 105.119 54.244C104.719 54.5 104.407 54.868 104.183 55.348C103.959 55.82 103.847 56.384 103.847 57.04C103.847 58.048 104.079 58.832 104.543 59.392C105.007 59.944 105.675 60.22 106.547 60.22C107.235 60.22 107.795 60.044 108.227 59.692C108.667 59.34 108.887 58.836 108.887 58.18V57.904H106.367V57.004H109.763ZM7.032 74.1V75H1.296V67.08H6.852V67.98H2.256V70.536H5.832V71.436H2.256V74.1H7.032ZM15.7403 68.88C16.1403 68.88 16.5123 68.964 16.8563 69.132C17.2083 69.292 17.4923 69.544 17.7083 69.888C17.9243 70.232 18.0323 70.656 18.0323 71.16V75H17.0723V71.256C17.0723 70.736 16.9403 70.352 16.6763 70.104C16.4203 69.848 16.0803 69.72 15.6563 69.72C15.3363 69.72 15.0403 69.8 14.7683 69.96C14.5043 70.112 14.2883 70.34 14.1203 70.644C13.9603 70.94 13.8803 71.296 13.8803 71.712V75H12.9203V71.256C12.9203 70.736 12.7883 70.352 12.5243 70.104C12.2683 69.848 11.9283 69.72 11.5043 69.72C11.2163 69.72 10.9363 69.796 10.6643 69.948C10.3923 70.092 10.1683 70.32 9.99234 70.632C9.81634 70.944 9.72834 71.332 9.72834 71.796V75H8.76834V69H9.60834L9.66834 69.936C9.87634 69.584 10.1483 69.32 10.4843 69.144C10.8283 68.968 11.1963 68.88 11.5883 68.88C12.0283 68.88 12.4323 68.98 12.8003 69.18C13.1763 69.38 13.4603 69.672 13.6523 70.056C13.8283 69.672 14.1163 69.38 14.5163 69.18C14.9163 68.98 15.3243 68.88 15.7403 68.88ZM20.6858 67.848C20.4698 67.848 20.2938 67.784 20.1578 67.656C20.0298 67.52 19.9658 67.344 19.9658 67.128C19.9658 66.912 20.0298 66.74 20.1578 66.612C20.2938 66.476 20.4698 66.408 20.6858 66.408C20.9018 66.408 21.0738 66.476 21.2018 66.612C21.3378 66.74 21.4058 66.912 21.4058 67.128C21.4058 67.344 21.3378 67.52 21.2018 67.656C21.0738 67.784 20.9018 67.848 20.6858 67.848ZM21.1658 75H20.2058V69H21.1658V75ZM25.4333 75.12C24.8573 75.12 24.3373 75.008 23.8733 74.784C23.4093 74.552 23.0693 74.212 22.8533 73.764L23.6333 73.224C23.7693 73.576 24.0053 73.84 24.3413 74.016C24.6773 74.192 25.0733 74.28 25.5293 74.28C26.0013 74.28 26.3613 74.196 26.6093 74.028C26.8573 73.86 26.9813 73.648 26.9813 73.392C26.9813 73.16 26.8653 72.976 26.6333 72.84C26.4013 72.696 25.9933 72.572 25.4093 72.468C24.8333 72.364 24.3773 72.24 24.0413 72.096C23.7053 71.944 23.4613 71.756 23.3093 71.532C23.1573 71.3 23.0813 71.016 23.0813 70.68C23.0813 70.352 23.1773 70.052 23.3693 69.78C23.5613 69.508 23.8373 69.292 24.1973 69.132C24.5573 68.964 24.9733 68.88 25.4453 68.88C26.0853 68.88 26.5973 69 26.9813 69.24C27.3733 69.472 27.6533 69.832 27.8213 70.32L27.0053 70.8C26.8773 70.416 26.6813 70.14 26.4173 69.972C26.1613 69.804 25.8373 69.72 25.4453 69.72C25.0533 69.72 24.7213 69.808 24.4493 69.984C24.1773 70.16 24.0413 70.364 24.0413 70.596C24.0413 70.86 24.1573 71.064 24.3893 71.208C24.6293 71.352 25.0533 71.476 25.6613 71.58C26.4933 71.716 27.0813 71.92 27.4253 72.192C27.7693 72.464 27.9413 72.848 27.9413 73.344C27.9413 73.688 27.8373 73.996 27.6293 74.268C27.4293 74.532 27.1373 74.74 26.7533 74.892C26.3773 75.044 25.9373 75.12 25.4333 75.12ZM31.7615 75.12C31.1855 75.12 30.6655 75.008 30.2015 74.784C29.7375 74.552 29.3975 74.212 29.1815 73.764L29.9615 73.224C30.0975 73.576 30.3335 73.84 30.6695 74.016C31.0055 74.192 31.4015 74.28 31.8575 74.28C32.3295 74.28 32.6895 74.196 32.9375 74.028C33.1855 73.86 33.3095 73.648 33.3095 73.392C33.3095 73.16 33.1935 72.976 32.9615 72.84C32.7295 72.696 32.3215 72.572 31.7375 72.468C31.1615 72.364 30.7055 72.24 30.3695 72.096C30.0335 71.944 29.7895 71.756 29.6375 71.532C29.4855 71.3 29.4095 71.016 29.4095 70.68C29.4095 70.352 29.5055 70.052 29.6975 69.78C29.8895 69.508 30.1655 69.292 30.5255 69.132C30.8855 68.964 31.3015 68.88 31.7735 68.88C32.4135 68.88 32.9255 69 33.3095 69.24C33.7015 69.472 33.9815 69.832 34.1495 70.32L33.3335 70.8C33.2055 70.416 33.0095 70.14 32.7455 69.972C32.4895 69.804 32.1655 69.72 31.7735 69.72C31.3815 69.72 31.0495 69.808 30.7775 69.984C30.5055 70.16 30.3695 70.364 30.3695 70.596C30.3695 70.86 30.4855 71.064 30.7175 71.208C30.9575 71.352 31.3815 71.476 31.9895 71.58C32.8215 71.716 33.4095 71.92 33.7535 72.192C34.0975 72.464 34.2695 72.848 34.2695 73.344C34.2695 73.688 34.1655 73.996 33.9575 74.268C33.7575 74.532 33.4655 74.74 33.0815 74.892C32.7055 75.044 32.2655 75.12 31.7615 75.12ZM36.5296 67.848C36.3136 67.848 36.1376 67.784 36.0016 67.656C35.8736 67.52 35.8096 67.344 35.8096 67.128C35.8096 66.912 35.8736 66.74 36.0016 66.612C36.1376 66.476 36.3136 66.408 36.5296 66.408C36.7456 66.408 36.9176 66.476 37.0456 66.612C37.1816 66.74 37.2496 66.912 37.2496 67.128C37.2496 67.344 37.1816 67.52 37.0456 67.656C36.9176 67.784 36.7456 67.848 36.5296 67.848ZM37.0096 75H36.0496V69H37.0096V75ZM41.7691 68.88C42.6731 68.88 43.3811 69.156 43.8931 69.708C44.4131 70.26 44.6731 71.024 44.6731 72C44.6731 72.976 44.4131 73.74 43.8931 74.292C43.3811 74.844 42.6731 75.12 41.7691 75.12C40.8651 75.12 40.1531 74.844 39.6331 74.292C39.1211 73.74 38.8651 72.976 38.8651 72C38.8651 71.024 39.1211 70.26 39.6331 69.708C40.1531 69.156 40.8651 68.88 41.7691 68.88ZM41.7691 69.708C41.1611 69.708 40.6851 69.912 40.3411 70.32C39.9971 70.728 39.8251 71.288 39.8251 72C39.8251 72.712 39.9971 73.272 40.3411 73.68C40.6851 74.088 41.1611 74.292 41.7691 74.292C42.3771 74.292 42.8531 74.088 43.1971 73.68C43.5411 73.272 43.7131 72.712 43.7131 72C43.7131 71.288 43.5411 70.728 43.1971 70.32C42.8531 69.912 42.3771 69.708 41.7691 69.708ZM49.4539 68.88C50.1339 68.88 50.6939 69.076 51.1339 69.468C51.5739 69.86 51.7939 70.424 51.7939 71.16V75H50.8339V71.496C50.8339 70.872 50.6979 70.42 50.4259 70.14C50.1619 69.86 49.8059 69.72 49.3579 69.72C49.0379 69.72 48.7379 69.792 48.4579 69.936C48.1779 70.072 47.9459 70.3 47.7619 70.62C47.5859 70.932 47.4979 71.328 47.4979 71.808V75H46.5379V69H47.3779L47.4379 69.936C47.6379 69.576 47.9139 69.312 48.2659 69.144C48.6179 68.968 49.0139 68.88 49.4539 68.88ZM56.0076 75.12C55.4316 75.12 54.9116 75.008 54.4476 74.784C53.9836 74.552 53.6436 74.212 53.4276 73.764L54.2076 73.224C54.3436 73.576 54.5796 73.84 54.9156 74.016C55.2516 74.192 55.6476 74.28 56.1036 74.28C56.5756 74.28 56.9356 74.196 57.1836 74.028C57.4316 73.86 57.5556 73.648 57.5556 73.392C57.5556 73.16 57.4396 72.976 57.2076 72.84C56.9756 72.696 56.5676 72.572 55.9836 72.468C55.4076 72.364 54.9516 72.24 54.6156 72.096C54.2796 71.944 54.0356 71.756 53.8836 71.532C53.7316 71.3 53.6556 71.016 53.6556 70.68C53.6556 70.352 53.7516 70.052 53.9436 69.78C54.1356 69.508 54.4116 69.292 54.7716 69.132C55.1316 68.964 55.5476 68.88 56.0196 68.88C56.6596 68.88 57.1716 69 57.5556 69.24C57.9476 69.472 58.2276 69.832 58.3956 70.32L57.5796 70.8C57.4516 70.416 57.2556 70.14 56.9916 69.972C56.7356 69.804 56.4116 69.72 56.0196 69.72C55.6276 69.72 55.2956 69.808 55.0236 69.984C54.7516 70.16 54.6156 70.364 54.6156 70.596C54.6156 70.86 54.7316 71.064 54.9636 71.208C55.2036 71.352 55.6276 71.476 56.2356 71.58C57.0676 71.716 57.6556 71.92 57.9996 72.192C58.3436 72.464 58.5156 72.848 58.5156 73.344C58.5156 73.688 58.4116 73.996 58.2036 74.268C58.0036 74.532 57.7116 74.74 57.3276 74.892C56.9516 75.044 56.5116 75.12 56.0076 75.12ZM67.1215 66.54C66.3375 67.252 65.7855 68 65.4655 68.784C65.1455 69.568 64.9855 70.516 64.9855 71.628C64.9855 72.74 65.1455 73.688 65.4655 74.472C65.7855 75.256 66.3375 76.004 67.1215 76.716L66.5695 77.268C65.7215 76.532 65.0815 75.692 64.6495 74.748C64.2175 73.796 64.0015 72.756 64.0015 71.628C64.0015 70.5 64.2175 69.464 64.6495 68.52C65.0815 67.568 65.7215 66.724 66.5695 65.988L67.1215 66.54ZM70.965 66.96C72.381 66.96 73.401 67.52 74.025 68.64L73.197 69.312C72.957 68.784 72.669 68.412 72.333 68.196C72.005 67.972 71.553 67.86 70.977 67.86C70.369 67.86 69.889 67.988 69.537 68.244C69.193 68.492 69.021 68.812 69.021 69.204C69.021 69.46 69.089 69.672 69.225 69.84C69.361 70.008 69.585 70.156 69.897 70.284C70.217 70.404 70.657 70.512 71.217 70.608C72.265 70.784 73.005 71.048 73.437 71.4C73.877 71.752 74.097 72.24 74.097 72.864C74.097 73.312 73.969 73.708 73.713 74.052C73.465 74.388 73.109 74.652 72.645 74.844C72.181 75.028 71.645 75.12 71.037 75.12C70.237 75.12 69.553 74.964 68.985 74.652C68.425 74.34 67.997 73.924 67.701 73.404L68.529 72.732C68.745 73.204 69.061 73.572 69.477 73.836C69.901 74.092 70.429 74.22 71.061 74.22C71.685 74.22 72.181 74.108 72.549 73.884C72.917 73.652 73.101 73.328 73.101 72.912C73.101 72.56 72.941 72.28 72.621 72.072C72.301 71.864 71.733 71.688 70.917 71.544C69.861 71.36 69.113 71.096 68.673 70.752C68.233 70.408 68.013 69.928 68.013 69.312C68.013 68.888 68.133 68.496 68.373 68.136C68.613 67.776 68.957 67.492 69.405 67.284C69.853 67.068 70.373 66.96 70.965 66.96ZM78.4605 68.88C79.0605 68.88 79.5645 69.02 79.9725 69.3C80.3885 69.572 80.7125 69.964 80.9445 70.476L80.0325 70.908C79.7765 70.116 79.2445 69.72 78.4365 69.72C77.8365 69.72 77.3645 69.924 77.0205 70.332C76.6845 70.732 76.5165 71.288 76.5165 72C76.5165 72.712 76.6845 73.272 77.0205 73.68C77.3645 74.08 77.8365 74.28 78.4365 74.28C78.9005 74.28 79.2725 74.176 79.5525 73.968C79.8405 73.752 80.0285 73.444 80.1165 73.044L81.0045 73.356C80.7965 73.916 80.4765 74.352 80.0445 74.664C79.6125 74.968 79.0845 75.12 78.4605 75.12C77.5565 75.12 76.8445 74.844 76.3245 74.292C75.8125 73.74 75.5565 72.976 75.5565 72C75.5565 71.024 75.8125 70.26 76.3245 69.708C76.8445 69.156 77.5565 68.88 78.4605 68.88ZM85.2339 68.88C86.1379 68.88 86.8459 69.156 87.3579 69.708C87.8779 70.26 88.1379 71.024 88.1379 72C88.1379 72.976 87.8779 73.74 87.3579 74.292C86.8459 74.844 86.1379 75.12 85.2339 75.12C84.3299 75.12 83.6179 74.844 83.0979 74.292C82.5859 73.74 82.3299 72.976 82.3299 72C82.3299 71.024 82.5859 70.26 83.0979 69.708C83.6179 69.156 84.3299 68.88 85.2339 68.88ZM85.2339 69.708C84.6259 69.708 84.1499 69.912 83.8059 70.32C83.4619 70.728 83.2899 71.288 83.2899 72C83.2899 72.712 83.4619 73.272 83.8059 73.68C84.1499 74.088 84.6259 74.292 85.2339 74.292C85.8419 74.292 86.3179 74.088 86.6619 73.68C87.0059 73.272 87.1779 72.712 87.1779 72C87.1779 71.288 87.0059 70.728 86.6619 70.32C86.3179 69.912 85.8419 69.708 85.2339 69.708ZM92.9547 68.88C93.7947 68.88 94.4587 69.16 94.9467 69.72C95.4427 70.272 95.6907 71.032 95.6907 72C95.6907 72.968 95.4427 73.732 94.9467 74.292C94.4587 74.844 93.7947 75.12 92.9547 75.12C92.5147 75.12 92.1187 75.024 91.7667 74.832C91.4227 74.64 91.1547 74.384 90.9627 74.064V77.52H90.0027V69H90.8427L90.9027 70.044C91.0787 69.692 91.3467 69.412 91.7067 69.204C92.0747 68.988 92.4907 68.88 92.9547 68.88ZM92.8467 74.28C93.4307 74.28 93.8907 74.076 94.2267 73.668C94.5627 73.252 94.7307 72.696 94.7307 72C94.7307 71.304 94.5627 70.752 94.2267 70.344C93.8907 69.928 93.4307 69.72 92.8467 69.72C92.2707 69.72 91.8107 69.92 91.4667 70.32C91.1307 70.72 90.9627 71.256 90.9627 71.928V72.072C90.9627 72.744 91.1307 73.28 91.4667 73.68C91.8107 74.08 92.2707 74.28 92.8467 74.28ZM102.709 71.688C102.709 71.912 102.693 72.136 102.661 72.36H98.1373C98.1933 72.968 98.3933 73.44 98.7373 73.776C99.0893 74.112 99.5413 74.28 100.093 74.28C100.533 74.28 100.897 74.204 101.185 74.052C101.481 73.9 101.681 73.68 101.785 73.392L102.589 73.812C102.349 74.236 102.029 74.56 101.629 74.784C101.229 75.008 100.717 75.12 100.093 75.12C99.1893 75.12 98.4773 74.844 97.9573 74.292C97.4453 73.74 97.1893 72.976 97.1893 72C97.1893 71.024 97.4333 70.26 97.9213 69.708C98.4173 69.156 99.1173 68.88 100.021 68.88C100.581 68.88 101.065 69.004 101.473 69.252C101.881 69.5 102.189 69.836 102.397 70.26C102.605 70.684 102.709 71.16 102.709 71.688ZM100.021 69.72C99.4933 69.72 99.0653 69.876 98.7373 70.188C98.4173 70.5 98.2213 70.94 98.1493 71.508H101.785C101.721 70.948 101.537 70.512 101.233 70.2C100.929 69.88 100.525 69.72 100.021 69.72ZM110.957 67.08V75H109.997V69.192C109.997 69.024 110.005 68.716 110.021 68.268C109.749 68.532 109.433 68.764 109.073 68.964C108.713 69.156 108.345 69.296 107.969 69.384L107.717 68.508C107.909 68.484 108.169 68.396 108.497 68.244C108.825 68.084 109.141 67.9 109.445 67.692C109.749 67.476 109.973 67.272 110.117 67.08H110.957ZM118.724 71.652H116.264V74.184H115.364V71.652H112.892V70.752H115.364V68.232H116.264V70.752H118.724V71.652ZM120.091 74.22C121.187 73.412 122.027 72.748 122.611 72.228C123.195 71.7 123.611 71.224 123.859 70.8C124.115 70.368 124.243 69.916 124.243 69.444C124.243 68.972 124.091 68.592 123.787 68.304C123.483 68.008 123.075 67.86 122.563 67.86C122.027 67.86 121.591 68.036 121.255 68.388C120.927 68.74 120.735 69.216 120.679 69.816L119.839 69.312C119.943 68.6 120.231 68.032 120.703 67.608C121.183 67.176 121.815 66.96 122.599 66.96C123.127 66.96 123.591 67.064 123.991 67.272C124.399 67.48 124.711 67.772 124.927 68.148C125.143 68.524 125.251 68.956 125.251 69.444C125.251 69.956 125.127 70.448 124.879 70.92C124.639 71.392 124.243 71.888 123.691 72.408C123.139 72.928 122.395 73.5 121.459 74.124V74.136C121.987 74.112 122.383 74.1 122.647 74.1H125.419V75H120.091V74.22ZM132.739 71.652H130.279V74.184H129.379V71.652H126.907V70.752H129.379V68.232H130.279V70.752H132.739V71.652ZM136.734 66.96C137.254 66.96 137.698 67.056 138.066 67.248C138.442 67.432 138.726 67.68 138.918 67.992C139.11 68.304 139.206 68.648 139.206 69.024C139.206 69.392 139.138 69.724 139.002 70.02C138.866 70.316 138.682 70.552 138.45 70.728C138.226 70.896 137.982 70.98 137.718 70.98V71.004C138.222 71.004 138.626 71.188 138.93 71.556C139.234 71.916 139.386 72.356 139.386 72.876C139.386 73.3 139.27 73.684 139.038 74.028C138.814 74.372 138.49 74.64 138.066 74.832C137.642 75.024 137.154 75.12 136.602 75.12C135.282 75.12 134.37 74.488 133.866 73.224L134.754 72.756C134.914 73.244 135.134 73.612 135.414 73.86C135.702 74.1 136.122 74.22 136.674 74.22C137.21 74.22 137.63 74.088 137.934 73.824C138.238 73.552 138.39 73.204 138.39 72.78C138.39 72.292 138.242 71.952 137.946 71.76C137.658 71.56 137.198 71.46 136.566 71.46H136.254V70.56H136.566C137.662 70.56 138.21 70.112 138.21 69.216C138.21 68.768 138.082 68.432 137.826 68.208C137.578 67.976 137.218 67.86 136.746 67.86C136.282 67.86 135.91 67.968 135.63 68.184C135.358 68.392 135.17 68.688 135.066 69.072L134.166 68.652C134.358 68.132 134.682 67.72 135.138 67.416C135.602 67.112 136.134 66.96 136.734 66.96ZM140.822 65.988C141.67 66.724 142.31 67.568 142.742 68.52C143.174 69.464 143.39 70.5 143.39 71.628C143.39 72.756 143.174 73.796 142.742 74.748C142.31 75.692 141.67 76.532 140.822 77.268L140.27 76.716C141.054 76.004 141.606 75.256 141.926 74.472C142.246 73.688 142.406 72.74 142.406 71.628C142.406 70.516 142.246 69.568 141.926 68.784C141.606 68 141.054 67.252 140.27 66.54L140.822 65.988Z" fill="#F3F2EF"/>
<path d="M1.62 86.4V93.98H3.15V94.68H0.87V85.7H3.15V86.4H1.62ZM10.9366 93H10.1766V88.85L10.2666 87.11H10.2566L8.08656 93H7.40656L5.23656 87.11H5.22656L5.31656 88.85V93H4.55656V86.4H5.78656L7.23656 90.41L7.73656 92.06H7.75656L8.26656 90.42L9.70656 86.4H10.9366V93ZM16.0017 92.65C15.6684 92.95 15.2384 93.1 14.7117 93.1C14.3051 93.1 13.9717 92.99 13.7117 92.77C13.4584 92.55 13.3284 92.2133 13.3217 91.76V88.69H12.3217V88H13.3217V86.8L14.1217 86.58V88H15.9717V88.69H14.1217V91.62C14.1217 91.86 14.1884 92.0433 14.3217 92.17C14.4617 92.29 14.6451 92.35 14.8717 92.35C15.1917 92.35 15.4751 92.2267 15.7217 91.98L16.0017 92.65ZM22.6012 91.31C22.3945 91.87 22.0545 92.31 21.5812 92.63C21.1078 92.9433 20.5612 93.1 19.9412 93.1C19.3212 93.1 18.7812 92.9633 18.3212 92.69C17.8612 92.41 17.5045 92.0167 17.2512 91.51C17.0045 90.9967 16.8812 90.3933 16.8812 89.7C16.8812 89.0133 17.0045 88.4133 17.2512 87.9C17.5045 87.3867 17.8612 86.9933 18.3212 86.72C18.7812 86.44 19.3145 86.3 19.9212 86.3C20.5545 86.3 21.0845 86.43 21.5112 86.69C21.9445 86.95 22.2678 87.3333 22.4812 87.84L21.6912 88.21C21.5445 87.8233 21.3312 87.5333 21.0512 87.34C20.7712 87.1467 20.4145 87.05 19.9812 87.05C19.5278 87.05 19.1312 87.1567 18.7912 87.37C18.4512 87.5767 18.1878 87.88 18.0012 88.28C17.8145 88.68 17.7212 89.1533 17.7212 89.7C17.7212 90.5267 17.9178 91.1767 18.3112 91.65C18.7112 92.1167 19.2545 92.35 19.9412 92.35C20.3878 92.35 20.7745 92.2367 21.1012 92.01C21.4278 91.7833 21.6612 91.45 21.8012 91.01L22.6012 91.31ZM26.7966 86.3C27.4166 86.3 27.9566 86.44 28.4166 86.72C28.8766 86.9933 29.23 87.3867 29.4766 87.9C29.73 88.4067 29.8566 89.0067 29.8566 89.7C29.8566 90.3933 29.73 90.9967 29.4766 91.51C29.23 92.0167 28.8766 92.41 28.4166 92.69C27.9566 92.9633 27.4166 93.1 26.7966 93.1C26.1766 93.1 25.6366 92.9633 25.1766 92.69C24.7166 92.41 24.36 92.0167 24.1066 91.51C23.86 90.9967 23.7366 90.3933 23.7366 89.7C23.7366 89.0067 23.86 88.4067 24.1066 87.9C24.36 87.3867 24.7166 86.9933 25.1766 86.72C25.6366 86.44 26.1766 86.3 26.7966 86.3ZM26.7966 87.05C26.11 87.05 25.5666 87.2867 25.1666 87.76C24.7733 88.2267 24.5766 88.8733 24.5766 89.7C24.5766 90.5267 24.7733 91.1767 25.1666 91.65C25.5666 92.1167 26.11 92.35 26.7966 92.35C27.4833 92.35 28.0233 92.1167 28.4166 91.65C28.8166 91.1767 29.0166 90.5267 29.0166 89.7C29.0166 88.8733 28.8166 88.2267 28.4166 87.76C28.0233 87.2867 27.4833 87.05 26.7966 87.05ZM30.9271 94.41C31.3671 94.1033 31.6738 93.88 31.8471 93.74C32.3271 93.36 32.6504 93.0633 32.8171 92.85C32.9904 92.63 33.0771 92.4067 33.0771 92.18C33.0771 91.96 33.0104 91.7833 32.8771 91.65C32.7438 91.5167 32.5538 91.45 32.3071 91.45C32.0471 91.45 31.8404 91.5333 31.6871 91.7C31.5404 91.86 31.4604 92.0867 31.4471 92.38L30.8171 92.16C30.8438 91.76 30.9938 91.4467 31.2671 91.22C31.5404 90.9867 31.8971 90.87 32.3371 90.87C32.8038 90.87 33.1638 90.9933 33.4171 91.24C33.6771 91.4867 33.8071 91.7867 33.8071 92.14C33.8071 92.4333 33.6904 92.7267 33.4571 93.02C33.2238 93.32 32.8571 93.6433 32.3571 93.99L31.8371 94.34V94.35C32.0771 94.33 32.2904 94.32 32.4771 94.32H33.8971V94.89H30.9271V94.41ZM42.8177 90.24C42.8177 90.4267 42.8043 90.6133 42.7777 90.8H39.0077C39.0543 91.3067 39.221 91.7 39.5077 91.98C39.801 92.26 40.1777 92.4 40.6377 92.4C41.0043 92.4 41.3077 92.3367 41.5477 92.21C41.7943 92.0833 41.961 91.9 42.0477 91.66L42.7177 92.01C42.5177 92.3633 42.251 92.6333 41.9177 92.82C41.5843 93.0067 41.1577 93.1 40.6377 93.1C39.8843 93.1 39.291 92.87 38.8577 92.41C38.431 91.95 38.2177 91.3133 38.2177 90.5C38.2177 89.6867 38.421 89.05 38.8277 88.59C39.241 88.13 39.8243 87.9 40.5777 87.9C41.0443 87.9 41.4477 88.0033 41.7877 88.21C42.1277 88.4167 42.3843 88.6967 42.5577 89.05C42.731 89.4033 42.8177 89.8 42.8177 90.24ZM40.5777 88.6C40.1377 88.6 39.781 88.73 39.5077 88.99C39.241 89.25 39.0777 89.6167 39.0177 90.09H42.0477C41.9943 89.6233 41.841 89.26 41.5877 89C41.3343 88.7333 40.9977 88.6 40.5777 88.6ZM48.7882 88V95.1H47.9882V92.22C47.8282 92.4867 47.6015 92.7 47.3082 92.86C47.0215 93.02 46.6949 93.1 46.3282 93.1C45.6282 93.1 45.0715 92.87 44.6582 92.41C44.2515 91.9433 44.0482 91.3067 44.0482 90.5C44.0482 89.6933 44.2515 89.06 44.6582 88.6C45.0715 88.1333 45.6282 87.9 46.3282 87.9C46.7149 87.9 47.0582 87.99 47.3582 88.17C47.6649 88.3433 47.8915 88.5767 48.0382 88.87L48.0882 88H48.7882ZM46.4182 92.4C46.8982 92.4 47.2782 92.2333 47.5582 91.9C47.8449 91.5667 47.9882 91.12 47.9882 90.56V90.44C47.9882 89.88 47.8449 89.4333 47.5582 89.1C47.2782 88.7667 46.8982 88.6 46.4182 88.6C45.9315 88.6 45.5482 88.7733 45.2682 89.12C44.9882 89.46 44.8482 89.92 44.8482 90.5C44.8482 91.08 44.9882 91.5433 45.2682 91.89C45.5482 92.23 45.9315 92.4 46.4182 92.4ZM51.8971 94.68H49.6171V93.98H51.1471V86.4H49.6171V85.7H51.8971V94.68Z" fill="#F3F2EF"/>
<path d="M38 42L38 295" stroke="#F3F2EF" stroke-opacity="0.2" stroke-width="1.5" stroke-linecap="round" stroke-dasharray="3 3"/>
<path d="M25.3283 12.052C26.3683 11.324 27.1763 10.708 27.7523 10.204C28.3283 9.692 28.7403 9.228 28.9883 8.812C29.2443 8.388 29.3723 7.952 29.3723 7.504C29.3723 7.08 29.2363 6.736 28.9643 6.472C28.7003 6.208 28.3363 6.076 27.8723 6.076C27.3763 6.076 26.9803 6.24 26.6843 6.568C26.3963 6.896 26.2323 7.352 26.1923 7.936L25.0763 7.42C25.1563 6.66 25.4483 6.06 25.9523 5.62C26.4563 5.18 27.1203 4.96 27.9443 4.96C28.5123 4.96 29.0043 5.072 29.4203 5.296C29.8363 5.512 30.1523 5.808 30.3683 6.184C30.5843 6.56 30.6923 6.984 30.6923 7.456C30.6923 8.216 30.4083 8.94 29.8403 9.628C29.2803 10.316 28.3443 11.08 27.0323 11.92V11.944C27.4323 11.912 27.8683 11.896 28.3403 11.896H30.8363V13H25.3283V12.052ZM35.2993 13.12C34.2993 13.12 33.5393 12.776 33.0193 12.088C32.5073 11.392 32.2513 10.376 32.2513 9.04C32.2513 7.704 32.5073 6.692 33.0193 6.004C33.5393 5.308 34.2993 4.96 35.2993 4.96C36.2993 4.96 37.0593 5.308 37.5793 6.004C38.0993 6.692 38.3593 7.704 38.3593 9.04C38.3593 10.376 38.0993 11.392 37.5793 12.088C37.0593 12.776 36.2993 13.12 35.2993 13.12ZM35.2993 12.028C35.8753 12.028 36.3113 11.78 36.6073 11.284C36.9033 10.78 37.0513 10.032 37.0513 9.04C37.0513 8.048 36.9033 7.304 36.6073 6.808C36.3113 6.304 35.8753 6.052 35.2993 6.052C34.1393 6.052 33.5593 7.048 33.5593 9.04C33.5593 11.032 34.1393 12.028 35.2993 12.028ZM42.9544 5.08V13H41.6944V7.144C41.6944 6.872 41.6984 6.66 41.7064 6.508C41.4344 6.772 41.1224 7 40.7704 7.192C40.4264 7.384 40.0744 7.52 39.7144 7.6L39.4744 6.484C39.6824 6.46 39.9504 6.372 40.2784 6.22C40.6144 6.068 40.9304 5.888 41.2264 5.68C41.5224 5.472 41.7384 5.272 41.8744 5.08H42.9544ZM47.802 4.972C48.61 4.972 49.254 5.164 49.734 5.548C50.214 5.932 50.454 6.448 50.454 7.096C50.454 7.504 50.35 7.86 50.142 8.164C49.942 8.468 49.658 8.7 49.29 8.86V8.872C49.762 9.048 50.126 9.304 50.382 9.64C50.646 9.976 50.778 10.388 50.778 10.876C50.778 11.564 50.51 12.112 49.974 12.52C49.438 12.92 48.714 13.12 47.802 13.12C46.89 13.12 46.162 12.92 45.618 12.52C45.082 12.112 44.814 11.564 44.814 10.876C44.814 10.396 44.946 9.984 45.21 9.64C45.474 9.296 45.842 9.04 46.314 8.872V8.86C45.946 8.708 45.658 8.48 45.45 8.176C45.242 7.864 45.138 7.504 45.138 7.096C45.138 6.44 45.378 5.924 45.858 5.548C46.338 5.164 46.986 4.972 47.802 4.972ZM47.802 6.052C47.378 6.052 47.042 6.156 46.794 6.364C46.546 6.564 46.422 6.848 46.422 7.216C46.422 7.576 46.546 7.86 46.794 8.068C47.042 8.268 47.378 8.368 47.802 8.368C48.218 8.368 48.55 8.268 48.798 8.068C49.054 7.86 49.182 7.576 49.182 7.216C49.182 6.856 49.058 6.572 48.81 6.364C48.562 6.156 48.226 6.052 47.802 6.052ZM47.802 12.04C48.322 12.04 48.73 11.924 49.026 11.692C49.33 11.46 49.482 11.14 49.482 10.732C49.482 10.324 49.33 10.004 49.026 9.772C48.722 9.532 48.314 9.412 47.802 9.412C47.29 9.412 46.878 9.532 46.566 9.772C46.262 10.004 46.11 10.324 46.11 10.732C46.11 11.14 46.262 11.46 46.566 11.692C46.87 11.924 47.282 12.04 47.802 12.04Z" fill="#F3F2EF"/>
<rect x="0.5" y="0.5" width="75" height="17" rx="8.5" stroke="#F3F2EF"/>
<path d="M134 42L134 295" stroke="#F3F2EF" stroke-opacity="0.2" stroke-width="1.5" stroke-linecap="round" stroke-dasharray="3 3"/>
<path d="M119.861 12.052C120.901 11.324 121.709 10.708 122.285 10.204C122.861 9.692 123.273 9.228 123.521 8.812C123.777 8.388 123.905 7.952 123.905 7.504C123.905 7.08 123.769 6.736 123.497 6.472C123.233 6.208 122.869 6.076 122.405 6.076C121.909 6.076 121.513 6.24 121.217 6.568C120.929 6.896 120.765 7.352 120.725 7.936L119.609 7.42C119.689 6.66 119.981 6.06 120.485 5.62C120.989 5.18 121.653 4.96 122.477 4.96C123.045 4.96 123.537 5.072 123.953 5.296C124.369 5.512 124.685 5.808 124.901 6.184C125.117 6.56 125.225 6.984 125.225 7.456C125.225 8.216 124.941 8.94 124.373 9.628C123.813 10.316 122.877 11.08 121.565 11.92V11.944C121.965 11.912 122.401 11.896 122.873 11.896H125.369V13H119.861V12.052ZM129.832 13.12C128.832 13.12 128.072 12.776 127.552 12.088C127.04 11.392 126.784 10.376 126.784 9.04C126.784 7.704 127.04 6.692 127.552 6.004C128.072 5.308 128.832 4.96 129.832 4.96C130.832 4.96 131.592 5.308 132.112 6.004C132.632 6.692 132.892 7.704 132.892 9.04C132.892 10.376 132.632 11.392 132.112 12.088C131.592 12.776 130.832 13.12 129.832 13.12ZM129.832 12.028C130.408 12.028 130.844 11.78 131.14 11.284C131.436 10.78 131.584 10.032 131.584 9.04C131.584 8.048 131.436 7.304 131.14 6.808C130.844 6.304 130.408 6.052 129.832 6.052C128.672 6.052 128.092 7.048 128.092 9.04C128.092 11.032 128.672 12.028 129.832 12.028ZM136.928 4.96C137.472 4.96 137.936 5.056 138.32 5.248C138.712 5.432 139.008 5.684 139.208 6.004C139.408 6.324 139.508 6.68 139.508 7.072C139.508 7.448 139.432 7.784 139.28 8.08C139.136 8.368 138.948 8.592 138.716 8.752C138.492 8.912 138.26 8.992 138.02 8.992V9.016C138.324 9.016 138.6 9.092 138.848 9.244C139.104 9.396 139.308 9.612 139.46 9.892C139.612 10.172 139.688 10.496 139.688 10.864C139.688 11.296 139.568 11.684 139.328 12.028C139.088 12.372 138.748 12.64 138.308 12.832C137.876 13.024 137.376 13.12 136.808 13.12C135.376 13.12 134.428 12.48 133.964 11.2L135.14 10.636C135.26 11.1 135.452 11.448 135.716 11.68C135.98 11.904 136.36 12.016 136.856 12.016C137.336 12.016 137.712 11.9 137.984 11.668C138.256 11.428 138.392 11.112 138.392 10.72C138.392 10.288 138.26 9.984 137.996 9.808C137.74 9.624 137.328 9.532 136.76 9.532H136.4V8.512H136.724C137.716 8.512 138.212 8.104 138.212 7.288C138.212 6.888 138.096 6.584 137.864 6.376C137.64 6.168 137.32 6.064 136.904 6.064C136.48 6.064 136.14 6.168 135.884 6.376C135.636 6.576 135.476 6.864 135.404 7.24L134.228 6.76C134.396 6.184 134.72 5.74 135.2 5.428C135.688 5.116 136.264 4.96 136.928 4.96ZM144.211 13.12C143.211 13.12 142.451 12.776 141.931 12.088C141.419 11.392 141.163 10.376 141.163 9.04C141.163 7.704 141.419 6.692 141.931 6.004C142.451 5.308 143.211 4.96 144.211 4.96C145.211 4.96 145.971 5.308 146.491 6.004C147.011 6.692 147.271 7.704 147.271 9.04C147.271 10.376 147.011 11.392 146.491 12.088C145.971 12.776 145.211 13.12 144.211 13.12ZM144.211 12.028C144.787 12.028 145.223 11.78 145.519 11.284C145.815 10.78 145.963 10.032 145.963 9.04C145.963 8.048 145.815 7.304 145.519 6.808C145.223 6.304 144.787 6.052 144.211 6.052C143.051 6.052 142.471 7.048 142.471 9.04C142.471 11.032 143.051 12.028 144.211 12.028Z" fill="#F3F2EF"/>
<rect x="95.5" y="0.5" width="76" height="17" rx="8.5" stroke="#F3F2EF"/>
<path d="M230 42L230 295" stroke="#F3F2EF" stroke-opacity="0.2" stroke-width="1.5" stroke-linecap="round" stroke-dasharray="3 3"/>
<path d="M216.051 12.052C217.091 11.324 217.899 10.708 218.475 10.204C219.051 9.692 219.463 9.228 219.711 8.812C219.967 8.388 220.095 7.952 220.095 7.504C220.095 7.08 219.959 6.736 219.687 6.472C219.423 6.208 219.059 6.076 218.595 6.076C218.099 6.076 217.703 6.24 217.407 6.568C217.119 6.896 216.955 7.352 216.915 7.936L215.799 7.42C215.879 6.66 216.171 6.06 216.675 5.62C217.179 5.18 217.843 4.96 218.667 4.96C219.235 4.96 219.727 5.072 220.143 5.296C220.559 5.512 220.875 5.808 221.091 6.184C221.307 6.56 221.415 6.984 221.415 7.456C221.415 8.216 221.131 8.94 220.563 9.628C220.003 10.316 219.067 11.08 217.755 11.92V11.944C218.155 11.912 218.591 11.896 219.063 11.896H221.559V13H216.051V12.052ZM226.022 13.12C225.022 13.12 224.262 12.776 223.742 12.088C223.23 11.392 222.974 10.376 222.974 9.04C222.974 7.704 223.23 6.692 223.742 6.004C224.262 5.308 225.022 4.96 226.022 4.96C227.022 4.96 227.782 5.308 228.302 6.004C228.822 6.692 229.082 7.704 229.082 9.04C229.082 10.376 228.822 11.392 228.302 12.088C227.782 12.776 227.022 13.12 226.022 13.12ZM226.022 12.028C226.598 12.028 227.034 11.78 227.33 11.284C227.626 10.78 227.774 10.032 227.774 9.04C227.774 8.048 227.626 7.304 227.33 6.808C227.034 6.304 226.598 6.052 226.022 6.052C224.862 6.052 224.282 7.048 224.282 9.04C224.282 11.032 224.862 12.028 226.022 12.028ZM236.737 11.02H235.393V13H234.181V11.02H230.281V10.24L233.821 5.08H235.393V10.024H236.737V11.02ZM231.565 10.024H234.181V7.312L234.229 6.028H234.205C234.013 6.436 233.757 6.876 233.437 7.348L231.565 10.024ZM241.022 13.12C240.022 13.12 239.262 12.776 238.742 12.088C238.23 11.392 237.974 10.376 237.974 9.04C237.974 7.704 238.23 6.692 238.742 6.004C239.262 5.308 240.022 4.96 241.022 4.96C242.022 4.96 242.782 5.308 243.302 6.004C243.822 6.692 244.082 7.704 244.082 9.04C244.082 10.376 243.822 11.392 243.302 12.088C242.782 12.776 242.022 13.12 241.022 13.12ZM241.022 12.028C241.598 12.028 242.034 11.78 242.33 11.284C242.626 10.78 242.774 10.032 242.774 9.04C242.774 8.048 242.626 7.304 242.33 6.808C242.034 6.304 241.598 6.052 241.022 6.052C239.862 6.052 239.282 7.048 239.282 9.04C239.282 11.032 239.862 12.028 241.022 12.028Z" fill="#F3F2EF"/>
<rect x="191.5" y="0.5" width="77" height="17" rx="8.5" stroke="#F3F2EF"/>
<path d="M326 42L326 295" stroke="#F3F2EF" stroke-opacity="0.2" stroke-width="1.5" stroke-linecap="round" stroke-dasharray="3 3"/>
<path d="M312.303 12.052C313.343 11.324 314.151 10.708 314.727 10.204C315.303 9.692 315.715 9.228 315.963 8.812C316.219 8.388 316.347 7.952 316.347 7.504C316.347 7.08 316.211 6.736 315.939 6.472C315.675 6.208 315.311 6.076 314.847 6.076C314.351 6.076 313.955 6.24 313.659 6.568C313.371 6.896 313.207 7.352 313.167 7.936L312.051 7.42C312.131 6.66 312.423 6.06 312.927 5.62C313.431 5.18 314.095 4.96 314.919 4.96C315.487 4.96 315.979 5.072 316.395 5.296C316.811 5.512 317.127 5.808 317.343 6.184C317.559 6.56 317.667 6.984 317.667 7.456C317.667 8.216 317.383 8.94 316.815 9.628C316.255 10.316 315.319 11.08 314.007 11.92V11.944C314.407 11.912 314.843 11.896 315.315 11.896H317.811V13H312.303V12.052ZM322.274 13.12C321.274 13.12 320.514 12.776 319.994 12.088C319.482 11.392 319.226 10.376 319.226 9.04C319.226 7.704 319.482 6.692 319.994 6.004C320.514 5.308 321.274 4.96 322.274 4.96C323.274 4.96 324.034 5.308 324.554 6.004C325.074 6.692 325.334 7.704 325.334 9.04C325.334 10.376 325.074 11.392 324.554 12.088C324.034 12.776 323.274 13.12 322.274 13.12ZM322.274 12.028C322.85 12.028 323.286 11.78 323.582 11.284C323.878 10.78 324.026 10.032 324.026 9.04C324.026 8.048 323.878 7.304 323.582 6.808C323.286 6.304 322.85 6.052 322.274 6.052C321.114 6.052 320.534 7.048 320.534 9.04C320.534 11.032 321.114 12.028 322.274 12.028ZM329.846 7.912C330.35 7.912 330.79 8.02 331.166 8.236C331.542 8.444 331.83 8.736 332.03 9.112C332.238 9.488 332.342 9.924 332.342 10.42C332.342 11.276 332.086 11.94 331.574 12.412C331.062 12.884 330.378 13.12 329.522 13.12C328.802 13.12 328.21 12.976 327.746 12.688C327.29 12.4 326.926 11.964 326.654 11.38L327.854 10.72C327.974 11.152 328.154 11.48 328.394 11.704C328.642 11.92 329.01 12.028 329.498 12.028C329.986 12.028 330.37 11.896 330.65 11.632C330.938 11.368 331.082 10.996 331.082 10.516C331.082 10.02 330.95 9.64 330.686 9.376C330.422 9.104 330.042 8.968 329.546 8.968C328.794 8.968 328.258 9.196 327.938 9.652L326.87 9.58L327.362 5.08H331.958V6.184H328.382L328.106 8.38L328.082 8.548H328.094C328.478 8.124 329.062 7.912 329.846 7.912ZM336.77 13.12C335.77 13.12 335.01 12.776 334.49 12.088C333.978 11.392 333.722 10.376 333.722 9.04C333.722 7.704 333.978 6.692 334.49 6.004C335.01 5.308 335.77 4.96 336.77 4.96C337.77 4.96 338.53 5.308 339.05 6.004C339.57 6.692 339.83 7.704 339.83 9.04C339.83 10.376 339.57 11.392 339.05 12.088C338.53 12.776 337.77 13.12 336.77 13.12ZM336.77 12.028C337.346 12.028 337.782 11.78 338.078 11.284C338.374 10.78 338.522 10.032 338.522 9.04C338.522 8.048 338.374 7.304 338.078 6.808C337.782 6.304 337.346 6.052 336.77 6.052C335.61 6.052 335.03 7.048 335.03 9.04C335.03 11.032 335.61 12.028 336.77 12.028Z" fill="#F3F2EF"/>
<rect x="287.5" y="0.5" width="77" height="17" rx="8.5" stroke="#F3F2EF"/>
<path d="M39 108.266C65.3834 102.563 248.072 189.453 327 275" stroke="#86AF88" stroke-width="4" stroke-linecap="round"/>
<path d="M39 108C101.715 108 268.733 245.74 327 275" stroke="#D7D771" stroke-width="4" stroke-linecap="round"/>
<path d="M39 108C134.797 110.352 206.696 275 327 275" stroke="#F8D448" stroke-width="8" stroke-linecap="round"/>
<circle cx="39" cy="108" r="3.5" fill="#F3F2EF" stroke="#332827"/>
<circle cx="135" cy="157" r="3.5" fill="#F3F2EF" stroke="#332827"/>
<circle cx="183" cy="201" r="3.5" fill="#F3F2EF" stroke="#332827"/>
<circle cx="231" cy="240" r="3.5" fill="#F3F2EF" stroke="#332827"/>
<circle cx="327" cy="275" r="3.5" fill="#F3F2EF" stroke="#332827"/>
<rect x="110.5" y="133.5" width="49" height="15" rx="1.5" fill="#332827"/>
<path d="M126.28 141.86H122.87V140.87H126.28V141.86ZM129.891 137.3C130.344 137.3 130.731 137.38 131.051 137.54C131.378 137.693 131.624 137.903 131.791 138.17C131.958 138.437 132.041 138.733 132.041 139.06C132.041 139.373 131.978 139.653 131.851 139.9C131.731 140.14 131.574 140.327 131.381 140.46C131.194 140.593 131.001 140.66 130.801 140.66V140.68C131.054 140.68 131.284 140.743 131.491 140.87C131.704 140.997 131.874 141.177 132.001 141.41C132.128 141.643 132.191 141.913 132.191 142.22C132.191 142.58 132.091 142.903 131.891 143.19C131.691 143.477 131.408 143.7 131.041 143.86C130.681 144.02 130.264 144.1 129.791 144.1C128.598 144.1 127.808 143.567 127.421 142.5L128.401 142.03C128.501 142.417 128.661 142.707 128.881 142.9C129.101 143.087 129.418 143.18 129.831 143.18C130.231 143.18 130.544 143.083 130.771 142.89C130.998 142.69 131.111 142.427 131.111 142.1C131.111 141.74 131.001 141.487 130.781 141.34C130.568 141.187 130.224 141.11 129.751 141.11H129.451V140.26H129.721C130.548 140.26 130.961 139.92 130.961 139.24C130.961 138.907 130.864 138.653 130.671 138.48C130.484 138.307 130.218 138.22 129.871 138.22C129.518 138.22 129.234 138.307 129.021 138.48C128.814 138.647 128.681 138.887 128.621 139.2L127.641 138.8C127.781 138.32 128.051 137.95 128.451 137.69C128.858 137.43 129.338 137.3 129.891 137.3ZM136.01 139.76C136.43 139.76 136.797 139.85 137.11 140.03C137.424 140.203 137.664 140.447 137.83 140.76C138.004 141.073 138.09 141.437 138.09 141.85C138.09 142.563 137.877 143.117 137.45 143.51C137.024 143.903 136.454 144.1 135.74 144.1C135.14 144.1 134.647 143.98 134.26 143.74C133.88 143.5 133.577 143.137 133.35 142.65L134.35 142.1C134.45 142.46 134.6 142.733 134.8 142.92C135.007 143.1 135.314 143.19 135.72 143.19C136.127 143.19 136.447 143.08 136.68 142.86C136.92 142.64 137.04 142.33 137.04 141.93C137.04 141.517 136.93 141.2 136.71 140.98C136.49 140.753 136.174 140.64 135.76 140.64C135.134 140.64 134.687 140.83 134.42 141.21L133.53 141.15L133.94 137.4H137.77V138.32H134.79L134.56 140.15L134.54 140.29H134.55C134.87 139.937 135.357 139.76 136.01 139.76ZM140.681 137.3C141.187 137.3 141.591 137.47 141.891 137.81C142.197 138.143 142.351 138.587 142.351 139.14C142.351 139.693 142.197 140.14 141.891 140.48C141.591 140.813 141.187 140.98 140.681 140.98C140.174 140.98 139.767 140.813 139.461 140.48C139.161 140.14 139.011 139.693 139.011 139.14C139.011 138.587 139.161 138.143 139.461 137.81C139.767 137.47 140.174 137.3 140.681 137.3ZM144.741 137.4H145.661L141.351 144H140.421L144.741 137.4ZM140.681 138.08C140.427 138.08 140.231 138.173 140.091 138.36C139.957 138.54 139.891 138.8 139.891 139.14C139.891 139.473 139.957 139.733 140.091 139.92C140.231 140.1 140.427 140.19 140.681 140.19C140.941 140.19 141.137 140.1 141.271 139.92C141.411 139.733 141.481 139.473 141.481 139.14C141.481 138.8 141.411 138.54 141.271 138.36C141.137 138.173 140.941 138.08 140.681 138.08ZM145.401 140.42C145.907 140.42 146.311 140.59 146.611 140.93C146.917 141.263 147.071 141.707 147.071 142.26C147.071 142.813 146.917 143.26 146.611 143.6C146.311 143.933 145.907 144.1 145.401 144.1C144.894 144.1 144.487 143.933 144.181 143.6C143.881 143.26 143.731 142.813 143.731 142.26C143.731 141.707 143.881 141.263 144.181 140.93C144.487 140.59 144.894 140.42 145.401 140.42ZM145.401 141.21C145.147 141.21 144.951 141.303 144.811 141.49C144.677 141.67 144.611 141.927 144.611 142.26C144.611 142.6 144.677 142.863 144.811 143.05C144.951 143.23 145.147 143.32 145.401 143.32C145.661 143.32 145.857 143.23 145.991 143.05C146.131 142.863 146.201 142.6 146.201 142.26C146.201 141.927 146.131 141.67 145.991 141.49C145.857 141.303 145.661 141.21 145.401 141.21Z" fill="#F3F2EF"/>
<rect x="110.5" y="133.5" width="49" height="15" rx="1.5" stroke="#F3F2EF"/>
<rect x="158.5" y="177.5" width="49" height="15" rx="1.5" fill="#332827"/>
<path d="M174.28 185.86H170.87V184.87H174.28V185.86ZM178.336 183.76C178.756 183.76 179.123 183.85 179.436 184.03C179.75 184.203 179.99 184.447 180.156 184.76C180.33 185.073 180.416 185.437 180.416 185.85C180.416 186.563 180.203 187.117 179.776 187.51C179.35 187.903 178.78 188.1 178.066 188.1C177.466 188.1 176.973 187.98 176.586 187.74C176.206 187.5 175.903 187.137 175.676 186.65L176.676 186.1C176.776 186.46 176.926 186.733 177.126 186.92C177.333 187.1 177.64 187.19 178.046 187.19C178.453 187.19 178.773 187.08 179.006 186.86C179.246 186.64 179.366 186.33 179.366 185.93C179.366 185.517 179.256 185.2 179.036 184.98C178.816 184.753 178.5 184.64 178.086 184.64C177.46 184.64 177.013 184.83 176.746 185.21L175.856 185.15L176.266 181.4H180.096V182.32H177.116L176.886 184.15L176.866 184.29H176.876C177.196 183.937 177.683 183.76 178.336 183.76ZM184.157 183.76C184.577 183.76 184.943 183.85 185.257 184.03C185.57 184.203 185.81 184.447 185.977 184.76C186.15 185.073 186.237 185.437 186.237 185.85C186.237 186.563 186.023 187.117 185.597 187.51C185.17 187.903 184.6 188.1 183.887 188.1C183.287 188.1 182.793 187.98 182.407 187.74C182.027 187.5 181.723 187.137 181.497 186.65L182.497 186.1C182.597 186.46 182.747 186.733 182.947 186.92C183.153 187.1 183.46 187.19 183.867 187.19C184.273 187.19 184.593 187.08 184.827 186.86C185.067 186.64 185.187 186.33 185.187 185.93C185.187 185.517 185.077 185.2 184.857 184.98C184.637 184.753 184.32 184.64 183.907 184.64C183.28 184.64 182.833 184.83 182.567 185.21L181.677 185.15L182.087 181.4H185.917V182.32H182.937L182.707 184.15L182.687 184.29H182.697C183.017 183.937 183.503 183.76 184.157 183.76ZM188.827 181.3C189.334 181.3 189.737 181.47 190.037 181.81C190.344 182.143 190.497 182.587 190.497 183.14C190.497 183.693 190.344 184.14 190.037 184.48C189.737 184.813 189.334 184.98 188.827 184.98C188.32 184.98 187.914 184.813 187.607 184.48C187.307 184.14 187.157 183.693 187.157 183.14C187.157 182.587 187.307 182.143 187.607 181.81C187.914 181.47 188.32 181.3 188.827 181.3ZM192.887 181.4H193.807L189.497 188H188.567L192.887 181.4ZM188.827 182.08C188.574 182.08 188.377 182.173 188.237 182.36C188.104 182.54 188.037 182.8 188.037 183.14C188.037 183.473 188.104 183.733 188.237 183.92C188.377 184.1 188.574 184.19 188.827 184.19C189.087 184.19 189.284 184.1 189.417 183.92C189.557 183.733 189.627 183.473 189.627 183.14C189.627 182.8 189.557 182.54 189.417 182.36C189.284 182.173 189.087 182.08 188.827 182.08ZM193.547 184.42C194.054 184.42 194.457 184.59 194.757 184.93C195.064 185.263 195.217 185.707 195.217 186.26C195.217 186.813 195.064 187.26 194.757 187.6C194.457 187.933 194.054 188.1 193.547 188.1C193.04 188.1 192.634 187.933 192.327 187.6C192.027 187.26 191.877 186.813 191.877 186.26C191.877 185.707 192.027 185.263 192.327 184.93C192.634 184.59 193.04 184.42 193.547 184.42ZM193.547 185.21C193.294 185.21 193.097 185.303 192.957 185.49C192.824 185.67 192.757 185.927 192.757 186.26C192.757 186.6 192.824 186.863 192.957 187.05C193.097 187.23 193.294 187.32 193.547 187.32C193.807 187.32 194.004 187.23 194.137 187.05C194.277 186.863 194.347 186.6 194.347 186.26C194.347 185.927 194.277 185.67 194.137 185.49C194.004 185.303 193.807 185.21 193.547 185.21Z" fill="#F3F2EF"/>
<rect x="158.5" y="177.5" width="49" height="15" rx="1.5" stroke="#F3F2EF"/>
<rect x="206.5" y="216.5" width="50" height="15" rx="1.5" fill="#332827"/>
<path d="M222.28 224.86H218.87V223.87H222.28V224.86ZM226.246 220.31C226.92 220.31 227.456 220.47 227.856 220.79C228.256 221.11 228.456 221.54 228.456 222.08C228.456 222.42 228.37 222.717 228.196 222.97C228.03 223.223 227.793 223.417 227.486 223.55V223.56C227.88 223.707 228.183 223.92 228.396 224.2C228.616 224.48 228.726 224.823 228.726 225.23C228.726 225.803 228.503 226.26 228.056 226.6C227.61 226.933 227.006 227.1 226.246 227.1C225.486 227.1 224.88 226.933 224.426 226.6C223.98 226.26 223.756 225.803 223.756 225.23C223.756 224.83 223.866 224.487 224.086 224.2C224.306 223.913 224.613 223.7 225.006 223.56V223.55C224.7 223.423 224.46 223.233 224.286 222.98C224.113 222.72 224.026 222.42 224.026 222.08C224.026 221.533 224.226 221.103 224.626 220.79C225.026 220.47 225.566 220.31 226.246 220.31ZM226.246 221.21C225.893 221.21 225.613 221.297 225.406 221.47C225.2 221.637 225.096 221.873 225.096 222.18C225.096 222.48 225.2 222.717 225.406 222.89C225.613 223.057 225.893 223.14 226.246 223.14C226.593 223.14 226.87 223.057 227.076 222.89C227.29 222.717 227.396 222.48 227.396 222.18C227.396 221.88 227.293 221.643 227.086 221.47C226.88 221.297 226.6 221.21 226.246 221.21ZM226.246 226.2C226.68 226.2 227.02 226.103 227.266 225.91C227.52 225.717 227.646 225.45 227.646 225.11C227.646 224.77 227.52 224.503 227.266 224.31C227.013 224.11 226.673 224.01 226.246 224.01C225.82 224.01 225.476 224.11 225.216 224.31C224.963 224.503 224.836 224.77 224.836 225.11C224.836 225.45 224.963 225.717 225.216 225.91C225.47 226.103 225.813 226.2 226.246 226.2ZM232.478 227.1C231.645 227.1 231.011 226.813 230.578 226.24C230.151 225.66 229.938 224.813 229.938 223.7C229.938 222.587 230.151 221.743 230.578 221.17C231.011 220.59 231.645 220.3 232.478 220.3C233.311 220.3 233.945 220.59 234.378 221.17C234.811 221.743 235.028 222.587 235.028 223.7C235.028 224.813 234.811 225.66 234.378 226.24C233.945 226.813 233.311 227.1 232.478 227.1ZM232.478 226.19C232.958 226.19 233.321 225.983 233.568 225.57C233.815 225.15 233.938 224.527 233.938 223.7C233.938 222.873 233.815 222.253 233.568 221.84C233.321 221.42 232.958 221.21 232.478 221.21C231.511 221.21 231.028 222.04 231.028 223.7C231.028 225.36 231.511 226.19 232.478 226.19ZM237.657 220.3C238.164 220.3 238.567 220.47 238.867 220.81C239.174 221.143 239.327 221.587 239.327 222.14C239.327 222.693 239.174 223.14 238.867 223.48C238.567 223.813 238.164 223.98 237.657 223.98C237.151 223.98 236.744 223.813 236.437 223.48C236.137 223.14 235.987 222.693 235.987 222.14C235.987 221.587 236.137 221.143 236.437 220.81C236.744 220.47 237.151 220.3 237.657 220.3ZM241.717 220.4H242.637L238.327 227H237.397L241.717 220.4ZM237.657 221.08C237.404 221.08 237.207 221.173 237.067 221.36C236.934 221.54 236.867 221.8 236.867 222.14C236.867 222.473 236.934 222.733 237.067 222.92C237.207 223.1 237.404 223.19 237.657 223.19C237.917 223.19 238.114 223.1 238.247 222.92C238.387 222.733 238.457 222.473 238.457 222.14C238.457 221.8 238.387 221.54 238.247 221.36C238.114 221.173 237.917 221.08 237.657 221.08ZM242.377 223.42C242.884 223.42 243.287 223.59 243.587 223.93C243.894 224.263 244.047 224.707 244.047 225.26C244.047 225.813 243.894 226.26 243.587 226.6C243.287 226.933 242.884 227.1 242.377 227.1C241.871 227.1 241.464 226.933 241.157 226.6C240.857 226.26 240.707 225.813 240.707 225.26C240.707 224.707 240.857 224.263 241.157 223.93C241.464 223.59 241.871 223.42 242.377 223.42ZM242.377 224.21C242.124 224.21 241.927 224.303 241.787 224.49C241.654 224.67 241.587 224.927 241.587 225.26C241.587 225.6 241.654 225.863 241.787 226.05C241.927 226.23 242.124 226.32 242.377 226.32C242.637 226.32 242.834 226.23 242.967 226.05C243.107 225.863 243.177 225.6 243.177 225.26C243.177 224.927 243.107 224.67 242.967 224.49C242.834 224.303 242.637 224.21 242.377 224.21Z" fill="#F3F2EF"/>
<rect x="206.5" y="216.5" width="50" height="15" rx="1.5" stroke="#F3F2EF"/>
<rect x="294.5" y="251.5" width="66" height="15" rx="1.5" fill="#332827"/>
<path d="M312.39 262H311.12L308.57 257.84L307.93 256.62H307.92L307.96 257.74V262H306.98V255.4H308.24L310.78 259.55L311.43 260.78H311.44L311.4 259.66V255.4H312.39V262ZM318.595 259.35C318.595 259.543 318.582 259.727 318.555 259.9H314.895C314.955 260.34 315.112 260.677 315.365 260.91C315.618 261.137 315.945 261.25 316.345 261.25C316.672 261.25 316.942 261.193 317.155 261.08C317.375 260.96 317.525 260.79 317.605 260.57L318.495 260.94C318.122 261.713 317.405 262.1 316.345 262.1C315.558 262.1 314.942 261.87 314.495 261.41C314.055 260.95 313.835 260.313 313.835 259.5C313.835 258.68 314.048 258.043 314.475 257.59C314.902 257.13 315.502 256.9 316.275 256.9C317.008 256.9 317.578 257.123 317.985 257.57C318.392 258.017 318.595 258.61 318.595 259.35ZM316.275 257.75C315.888 257.75 315.575 257.863 315.335 258.09C315.102 258.317 314.955 258.647 314.895 259.08H317.595C317.542 258.66 317.398 258.333 317.165 258.1C316.938 257.867 316.642 257.75 316.275 257.75ZM323.058 261.67C322.898 261.803 322.702 261.91 322.468 261.99C322.242 262.063 321.995 262.1 321.728 262.1C321.268 262.1 320.898 261.987 320.618 261.76C320.345 261.527 320.205 261.167 320.198 260.68V257.84H319.248V257H320.198V255.83L321.268 255.53V257H323.018V257.84H321.268V260.5C321.268 260.74 321.332 260.92 321.458 261.04C321.592 261.153 321.772 261.21 321.998 261.21C322.305 261.21 322.575 261.103 322.808 260.89L323.058 261.67ZM332.309 261.09V262H326.979V261.13L330.969 256.31H327.069V255.4H332.189V256.27L328.199 261.09H332.309ZM337.892 259.35C337.892 259.543 337.878 259.727 337.852 259.9H334.192C334.252 260.34 334.408 260.677 334.662 260.91C334.915 261.137 335.242 261.25 335.642 261.25C335.968 261.25 336.238 261.193 336.452 261.08C336.672 260.96 336.822 260.79 336.902 260.57L337.792 260.94C337.418 261.713 336.702 262.1 335.642 262.1C334.855 262.1 334.238 261.87 333.792 261.41C333.352 260.95 333.132 260.313 333.132 259.5C333.132 258.68 333.345 258.043 333.772 257.59C334.198 257.13 334.798 256.9 335.572 256.9C336.305 256.9 336.875 257.123 337.282 257.57C337.688 258.017 337.892 258.61 337.892 259.35ZM335.572 257.75C335.185 257.75 334.872 257.863 334.632 258.09C334.398 258.317 334.252 258.647 334.192 259.08H336.892C336.838 258.66 336.695 258.333 336.462 258.1C336.235 257.867 335.938 257.75 335.572 257.75ZM341.812 256.9C342.046 256.9 342.229 256.933 342.362 257L342.192 257.98C342.039 257.893 341.829 257.85 341.562 257.85C341.349 257.85 341.146 257.907 340.952 258.02C340.766 258.133 340.609 258.303 340.482 258.53C340.362 258.757 340.302 259.03 340.302 259.35V262H339.232V257H340.142L340.232 257.9C340.512 257.233 341.039 256.9 341.812 256.9ZM345.446 256.9C346.226 256.9 346.836 257.13 347.276 257.59C347.716 258.05 347.936 258.687 347.936 259.5C347.936 260.313 347.716 260.95 347.276 261.41C346.836 261.87 346.226 262.1 345.446 262.1C344.666 262.1 344.056 261.87 343.616 261.41C343.176 260.95 342.956 260.313 342.956 259.5C342.956 258.687 343.176 258.05 343.616 257.59C344.056 257.13 344.666 256.9 345.446 256.9ZM345.446 257.74C344.993 257.74 344.643 257.893 344.396 258.2C344.156 258.5 344.036 258.933 344.036 259.5C344.036 260.067 344.156 260.503 344.396 260.81C344.643 261.11 344.993 261.26 345.446 261.26C345.899 261.26 346.249 261.107 346.496 260.8C346.743 260.493 346.866 260.06 346.866 259.5C346.866 258.94 346.743 258.507 346.496 258.2C346.249 257.893 345.899 257.74 345.446 257.74Z" fill="#F3F2EF"/>
<rect x="294.5" y="251.5" width="66" height="15" rx="1.5" stroke="#F3F2EF"/>
<path d="M7.512 148H6.324L3.012 142.696L2.172 141.136H2.16L2.208 142.408V148H1.296V140.08H2.484L5.784 145.36L6.636 146.944H6.648L6.6 145.672V140.08H7.512V148ZM14.971 144.688C14.971 144.912 14.955 145.136 14.923 145.36H10.399C10.455 145.968 10.655 146.44 10.999 146.776C11.351 147.112 11.803 147.28 12.355 147.28C12.795 147.28 13.159 147.204 13.447 147.052C13.743 146.9 13.943 146.68 14.047 146.392L14.851 146.812C14.611 147.236 14.291 147.56 13.891 147.784C13.491 148.008 12.979 148.12 12.355 148.12C11.451 148.12 10.739 147.844 10.219 147.292C9.70703 146.74 9.45103 145.976 9.45103 145C9.45103 144.024 9.69503 143.26 10.183 142.708C10.679 142.156 11.379 141.88 12.283 141.88C12.843 141.88 13.327 142.004 13.735 142.252C14.143 142.5 14.451 142.836 14.659 143.26C14.867 143.684 14.971 144.16 14.971 144.688ZM12.283 142.72C11.755 142.72 11.327 142.876 10.999 143.188C10.679 143.5 10.483 143.94 10.411 144.508H14.047C13.983 143.948 13.799 143.512 13.495 143.2C13.191 142.88 12.787 142.72 12.283 142.72ZM20.2919 147.58C19.8919 147.94 19.3759 148.12 18.7439 148.12C18.2559 148.12 17.8559 147.988 17.5439 147.724C17.2399 147.46 17.0839 147.056 17.0759 146.512V142.828H15.8759V142H17.0759V140.56L18.0359 140.296V142H20.2559V142.828H18.0359V146.344C18.0359 146.632 18.1159 146.852 18.2759 147.004C18.4439 147.148 18.6639 147.22 18.9359 147.22C19.3199 147.22 19.6599 147.072 19.9559 146.776L20.2919 147.58ZM32.3011 145.972C32.0531 146.644 31.6451 147.172 31.0771 147.556C30.5091 147.932 29.8531 148.12 29.1091 148.12C28.3651 148.12 27.7171 147.956 27.1651 147.628C26.6131 147.292 26.1851 146.82 25.8811 146.212C25.5851 145.596 25.4371 144.872 25.4371 144.04C25.4371 143.216 25.5851 142.496 25.8811 141.88C26.1851 141.264 26.6131 140.792 27.1651 140.464C27.7171 140.128 28.3571 139.96 29.0851 139.96C29.8451 139.96 30.4811 140.116 30.9931 140.428C31.5131 140.74 31.9011 141.2 32.1571 141.808L31.2091 142.252C31.0331 141.788 30.7771 141.44 30.4411 141.208C30.1051 140.976 29.6771 140.86 29.1571 140.86C28.6131 140.86 28.1371 140.988 27.7291 141.244C27.3211 141.492 27.0051 141.856 26.7811 142.336C26.5571 142.816 26.4451 143.384 26.4451 144.04C26.4451 145.032 26.6811 145.812 27.1531 146.38C27.6331 146.94 28.2851 147.22 29.1091 147.22C29.6451 147.22 30.1091 147.084 30.5011 146.812C30.8931 146.54 31.1731 146.14 31.3411 145.612L32.3011 145.972ZM38.8837 147.304C39.0437 147.304 39.2037 147.284 39.3637 147.244L39.3037 148C39.0797 148.08 38.8397 148.12 38.5837 148.12C38.2717 148.12 38.0237 148.052 37.8397 147.916C37.6637 147.78 37.5517 147.552 37.5037 147.232C37.3197 147.512 37.0477 147.732 36.6877 147.892C36.3357 148.044 35.9637 148.12 35.5717 148.12C34.9797 148.12 34.4917 147.984 34.1077 147.712C33.7237 147.432 33.5317 147.032 33.5317 146.512C33.5317 146.056 33.7317 145.664 34.1317 145.336C34.5317 145 35.1117 144.768 35.8717 144.64L37.4677 144.376V144.04C37.4677 143.64 37.3437 143.32 37.0957 143.08C36.8477 142.84 36.5037 142.72 36.0637 142.72C35.6637 142.72 35.3157 142.816 35.0197 143.008C34.7317 143.2 34.5077 143.484 34.3477 143.86L33.6397 143.344C33.7997 142.896 34.0957 142.54 34.5277 142.276C34.9677 142.012 35.4797 141.88 36.0637 141.88C36.7757 141.88 37.3477 142.052 37.7797 142.396C38.2117 142.74 38.4277 143.248 38.4277 143.92V146.872C38.4277 147.016 38.4637 147.124 38.5357 147.196C38.6077 147.268 38.7237 147.304 38.8837 147.304ZM35.6197 147.28C36.1237 147.28 36.5557 147.16 36.9157 146.92C37.2837 146.68 37.4677 146.368 37.4677 145.984V145.156L36.1237 145.408C35.5877 145.504 35.1877 145.644 34.9237 145.828C34.6597 146.004 34.5277 146.232 34.5277 146.512C34.5277 146.76 34.6237 146.952 34.8157 147.088C35.0077 147.216 35.2757 147.28 35.6197 147.28ZM43.5925 141.88C43.8805 141.88 44.1005 141.92 44.2525 142L44.0605 142.936C43.8685 142.832 43.6165 142.78 43.3045 142.78C43.0485 142.78 42.7965 142.856 42.5485 143.008C42.3085 143.152 42.1085 143.376 41.9485 143.68C41.7965 143.976 41.7205 144.336 41.7205 144.76V148H40.7605V142H41.5405L41.6725 142.984C42.0085 142.248 42.6485 141.88 43.5925 141.88ZM48.611 141.88C49.451 141.88 50.115 142.16 50.603 142.72C51.099 143.272 51.347 144.032 51.347 145C51.347 145.968 51.099 146.732 50.603 147.292C50.115 147.844 49.451 148.12 48.611 148.12C48.147 148.12 47.731 148.016 47.363 147.808C47.003 147.592 46.735 147.308 46.559 146.956L46.499 148H45.659V139.24H46.619V142.936C46.811 142.616 47.079 142.36 47.423 142.168C47.775 141.976 48.171 141.88 48.611 141.88ZM48.503 147.28C49.087 147.28 49.547 147.076 49.883 146.668C50.219 146.252 50.387 145.696 50.387 145C50.387 144.304 50.219 143.752 49.883 143.344C49.547 142.928 49.087 142.72 48.503 142.72C47.927 142.72 47.467 142.92 47.123 143.32C46.787 143.72 46.619 144.256 46.619 144.928V145.072C46.619 145.744 46.787 146.28 47.123 146.68C47.467 147.08 47.927 147.28 48.503 147.28ZM55.7496 141.88C56.6536 141.88 57.3616 142.156 57.8736 142.708C58.3936 143.26 58.6536 144.024 58.6536 145C58.6536 145.976 58.3936 146.74 57.8736 147.292C57.3616 147.844 56.6536 148.12 55.7496 148.12C54.8456 148.12 54.1336 147.844 53.6136 147.292C53.1016 146.74 52.8456 145.976 52.8456 145C52.8456 144.024 53.1016 143.26 53.6136 142.708C54.1336 142.156 54.8456 141.88 55.7496 141.88ZM55.7496 142.708C55.1416 142.708 54.6656 142.912 54.3216 143.32C53.9776 143.728 53.8056 144.288 53.8056 145C53.8056 145.712 53.9776 146.272 54.3216 146.68C54.6656 147.088 55.1416 147.292 55.7496 147.292C56.3576 147.292 56.8336 147.088 57.1776 146.68C57.5216 146.272 57.6936 145.712 57.6936 145C57.6936 144.288 57.5216 143.728 57.1776 143.32C56.8336 142.912 56.3576 142.708 55.7496 142.708ZM63.4343 141.88C64.1143 141.88 64.6743 142.076 65.1143 142.468C65.5543 142.86 65.7743 143.424 65.7743 144.16V148H64.8143V144.496C64.8143 143.872 64.6783 143.42 64.4063 143.14C64.1423 142.86 63.7863 142.72 63.3383 142.72C63.0183 142.72 62.7183 142.792 62.4383 142.936C62.1583 143.072 61.9263 143.3 61.7423 143.62C61.5663 143.932 61.4783 144.328 61.4783 144.808V148H60.5183V142H61.3583L61.4183 142.936C61.6183 142.576 61.8943 142.312 62.2463 142.144C62.5983 141.968 62.9943 141.88 63.4343 141.88ZM2.256 154.98V157.536H5.832V158.436H2.256V162H1.296V154.08H6.84V154.98H2.256ZM10.316 155.88C11.22 155.88 11.928 156.156 12.44 156.708C12.96 157.26 13.22 158.024 13.22 159C13.22 159.976 12.96 160.74 12.44 161.292C11.928 161.844 11.22 162.12 10.316 162.12C9.41197 162.12 8.69997 161.844 8.17997 161.292C7.66797 160.74 7.41197 159.976 7.41197 159C7.41197 158.024 7.66797 157.26 8.17997 156.708C8.69997 156.156 9.41197 155.88 10.316 155.88ZM10.316 156.708C9.70797 156.708 9.23197 156.912 8.88797 157.32C8.54397 157.728 8.37197 158.288 8.37197 159C8.37197 159.712 8.54397 160.272 8.88797 160.68C9.23197 161.088 9.70797 161.292 10.316 161.292C10.924 161.292 11.4 161.088 11.744 160.68C12.088 160.272 12.26 159.712 12.26 159C12.26 158.288 12.088 157.728 11.744 157.32C11.4 156.912 10.924 156.708 10.316 156.708ZM17.6168 155.88C18.5208 155.88 19.2288 156.156 19.7408 156.708C20.2608 157.26 20.5208 158.024 20.5208 159C20.5208 159.976 20.2608 160.74 19.7408 161.292C19.2288 161.844 18.5208 162.12 17.6168 162.12C16.7128 162.12 16.0008 161.844 15.4808 161.292C14.9688 160.74 14.7128 159.976 14.7128 159C14.7128 158.024 14.9688 157.26 15.4808 156.708C16.0008 156.156 16.7128 155.88 17.6168 155.88ZM17.6168 156.708C17.0088 156.708 16.5328 156.912 16.1888 157.32C15.8448 157.728 15.6728 158.288 15.6728 159C15.6728 159.712 15.8448 160.272 16.1888 160.68C16.5328 161.088 17.0088 161.292 17.6168 161.292C18.2248 161.292 18.7008 161.088 19.0448 160.68C19.3888 160.272 19.5608 159.712 19.5608 159C19.5608 158.288 19.3888 157.728 19.0448 157.32C18.7008 156.912 18.2248 156.708 17.6168 156.708ZM25.9521 161.58C25.5521 161.94 25.0361 162.12 24.4041 162.12C23.9161 162.12 23.5161 161.988 23.2041 161.724C22.9001 161.46 22.7441 161.056 22.7361 160.512V156.828H21.5361V156H22.7361V154.56L23.6961 154.296V156H25.9161V156.828H23.6961V160.344C23.6961 160.632 23.7761 160.852 23.9361 161.004C24.1041 161.148 24.3241 161.22 24.5961 161.22C24.9801 161.22 25.3201 161.072 25.6161 160.776L25.9521 161.58ZM30.2594 155.88C31.0994 155.88 31.7634 156.16 32.2514 156.72C32.7474 157.272 32.9954 158.032 32.9954 159C32.9954 159.968 32.7474 160.732 32.2514 161.292C31.7634 161.844 31.0994 162.12 30.2594 162.12C29.8194 162.12 29.4234 162.024 29.0714 161.832C28.7274 161.64 28.4594 161.384 28.2674 161.064V164.52H27.3074V156H28.1474L28.2074 157.044C28.3834 156.692 28.6514 156.412 29.0114 156.204C29.3794 155.988 29.7954 155.88 30.2594 155.88ZM30.1514 161.28C30.7354 161.28 31.1954 161.076 31.5314 160.668C31.8674 160.252 32.0354 159.696 32.0354 159C32.0354 158.304 31.8674 157.752 31.5314 157.344C31.1954 156.928 30.7354 156.72 30.1514 156.72C29.5754 156.72 29.1154 156.92 28.7714 157.32C28.4354 157.72 28.2674 158.256 28.2674 158.928V159.072C28.2674 159.744 28.4354 160.28 28.7714 160.68C29.1154 161.08 29.5754 161.28 30.1514 161.28ZM37.698 155.88C37.986 155.88 38.206 155.92 38.358 156L38.166 156.936C37.974 156.832 37.722 156.78 37.41 156.78C37.154 156.78 36.902 156.856 36.654 157.008C36.414 157.152 36.214 157.376 36.054 157.68C35.902 157.976 35.826 158.336 35.826 158.76V162H34.866V156H35.646L35.778 156.984C36.114 156.248 36.754 155.88 37.698 155.88ZM40.2444 154.848C40.0284 154.848 39.8524 154.784 39.7164 154.656C39.5884 154.52 39.5244 154.344 39.5244 154.128C39.5244 153.912 39.5884 153.74 39.7164 153.612C39.8524 153.476 40.0284 153.408 40.2444 153.408C40.4604 153.408 40.6324 153.476 40.7604 153.612C40.8964 153.74 40.9644 153.912 40.9644 154.128C40.9644 154.344 40.8964 154.52 40.7604 154.656C40.6324 154.784 40.4604 154.848 40.2444 154.848ZM40.7244 162H39.7644V156H40.7244V162ZM45.8679 155.88C46.5479 155.88 47.1079 156.076 47.5479 156.468C47.9879 156.86 48.2079 157.424 48.2079 158.16V162H47.2479V158.496C47.2479 157.872 47.1119 157.42 46.8399 157.14C46.5759 156.86 46.2199 156.72 45.7719 156.72C45.4519 156.72 45.1519 156.792 44.8719 156.936C44.5919 157.072 44.3599 157.3 44.1759 157.62C43.9999 157.932 43.9119 158.328 43.9119 158.808V162H42.9519V156H43.7919L43.8519 156.936C44.0519 156.576 44.3279 156.312 44.6799 156.144C45.0319 155.968 45.4279 155.88 45.8679 155.88ZM53.9716 161.58C53.5716 161.94 53.0556 162.12 52.4236 162.12C51.9356 162.12 51.5356 161.988 51.2236 161.724C50.9196 161.46 50.7636 161.056 50.7556 160.512V156.828H49.5556V156H50.7556V154.56L51.7156 154.296V156H53.9356V156.828H51.7156V160.344C51.7156 160.632 51.7956 160.852 51.9556 161.004C52.1236 161.148 52.3436 161.22 52.6156 161.22C52.9996 161.22 53.3396 161.072 53.6356 160.776L53.9716 161.58ZM65.3328 161.1V162H59.5968V154.08H65.1528V154.98H60.5568V157.536H64.1328V158.436H60.5568V161.1H65.3328ZM69.9851 155.88C70.6651 155.88 71.2251 156.076 71.6651 156.468C72.1051 156.86 72.3251 157.424 72.3251 158.16V162H71.3651V158.496C71.3651 157.872 71.2291 157.42 70.9571 157.14C70.6931 156.86 70.3371 156.72 69.8891 156.72C69.5691 156.72 69.2691 156.792 68.9891 156.936C68.7091 157.072 68.4771 157.3 68.2931 157.62C68.1171 157.932 68.0291 158.328 68.0291 158.808V162H67.0691V156H67.9091L67.9691 156.936C68.1691 156.576 68.4451 156.312 68.7971 156.144C69.1491 155.968 69.5451 155.88 69.9851 155.88ZM74.9788 154.848C74.7628 154.848 74.5868 154.784 74.4508 154.656C74.3228 154.52 74.2588 154.344 74.2588 154.128C74.2588 153.912 74.3228 153.74 74.4508 153.612C74.5868 153.476 74.7628 153.408 74.9788 153.408C75.1948 153.408 75.3668 153.476 75.4948 153.612C75.6308 153.74 75.6988 153.912 75.6988 154.128C75.6988 154.344 75.6308 154.52 75.4948 154.656C75.3668 154.784 75.1948 154.848 74.9788 154.848ZM75.4588 162H74.4988V156H75.4588V162ZM3.852 167.54C3.068 168.252 2.516 169 2.196 169.784C1.876 170.568 1.716 171.516 1.716 172.628C1.716 173.74 1.876 174.688 2.196 175.472C2.516 176.256 3.068 177.004 3.852 177.716L3.3 178.268C2.452 177.532 1.812 176.692 1.38 175.748C0.948 174.796 0.732 173.756 0.732 172.628C0.732 171.5 0.948 170.464 1.38 169.52C1.812 168.568 2.452 167.724 3.3 166.988L3.852 167.54ZM7.69547 167.96C9.11147 167.96 10.1315 168.52 10.7555 169.64L9.92747 170.312C9.68747 169.784 9.39947 169.412 9.06347 169.196C8.73547 168.972 8.28347 168.86 7.70747 168.86C7.09947 168.86 6.61947 168.988 6.26747 169.244C5.92347 169.492 5.75147 169.812 5.75147 170.204C5.75147 170.46 5.81947 170.672 5.95547 170.84C6.09147 171.008 6.31547 171.156 6.62747 171.284C6.94747 171.404 7.38747 171.512 7.94747 171.608C8.99547 171.784 9.73547 172.048 10.1675 172.4C10.6075 172.752 10.8275 173.24 10.8275 173.864C10.8275 174.312 10.6995 174.708 10.4435 175.052C10.1955 175.388 9.83947 175.652 9.37547 175.844C8.91147 176.028 8.37547 176.12 7.76747 176.12C6.96747 176.12 6.28347 175.964 5.71547 175.652C5.15547 175.34 4.72747 174.924 4.43147 174.404L5.25947 173.732C5.47547 174.204 5.79147 174.572 6.20747 174.836C6.63147 175.092 7.15947 175.22 7.79147 175.22C8.41547 175.22 8.91147 175.108 9.27947 174.884C9.64747 174.652 9.83147 174.328 9.83147 173.912C9.83147 173.56 9.67147 173.28 9.35147 173.072C9.03147 172.864 8.46347 172.688 7.64747 172.544C6.59147 172.36 5.84347 172.096 5.40347 171.752C4.96347 171.408 4.74347 170.928 4.74347 170.312C4.74347 169.888 4.86347 169.496 5.10347 169.136C5.34347 168.776 5.68747 168.492 6.13547 168.284C6.58347 168.068 7.10347 167.96 7.69547 167.96ZM15.191 169.88C15.791 169.88 16.295 170.02 16.703 170.3C17.119 170.572 17.443 170.964 17.675 171.476L16.763 171.908C16.507 171.116 15.975 170.72 15.167 170.72C14.567 170.72 14.095 170.924 13.751 171.332C13.415 171.732 13.247 172.288 13.247 173C13.247 173.712 13.415 174.272 13.751 174.68C14.095 175.08 14.567 175.28 15.167 175.28C15.631 175.28 16.003 175.176 16.283 174.968C16.571 174.752 16.759 174.444 16.847 174.044L17.735 174.356C17.527 174.916 17.207 175.352 16.775 175.664C16.343 175.968 15.815 176.12 15.191 176.12C14.287 176.12 13.575 175.844 13.055 175.292C12.543 174.74 12.287 173.976 12.287 173C12.287 172.024 12.543 171.26 13.055 170.708C13.575 170.156 14.287 169.88 15.191 169.88ZM21.9644 169.88C22.8684 169.88 23.5764 170.156 24.0884 170.708C24.6084 171.26 24.8684 172.024 24.8684 173C24.8684 173.976 24.6084 174.74 24.0884 175.292C23.5764 175.844 22.8684 176.12 21.9644 176.12C21.0604 176.12 20.3484 175.844 19.8284 175.292C19.3164 174.74 19.0604 173.976 19.0604 173C19.0604 172.024 19.3164 171.26 19.8284 170.708C20.3484 170.156 21.0604 169.88 21.9644 169.88ZM21.9644 170.708C21.3564 170.708 20.8804 170.912 20.5364 171.32C20.1924 171.728 20.0204 172.288 20.0204 173C20.0204 173.712 20.1924 174.272 20.5364 174.68C20.8804 175.088 21.3564 175.292 21.9644 175.292C22.5724 175.292 23.0484 175.088 23.3924 174.68C23.7364 174.272 23.9084 173.712 23.9084 173C23.9084 172.288 23.7364 171.728 23.3924 171.32C23.0484 170.912 22.5724 170.708 21.9644 170.708ZM29.6852 169.88C30.5252 169.88 31.1892 170.16 31.6772 170.72C32.1732 171.272 32.4212 172.032 32.4212 173C32.4212 173.968 32.1732 174.732 31.6772 175.292C31.1892 175.844 30.5252 176.12 29.6852 176.12C29.2452 176.12 28.8492 176.024 28.4972 175.832C28.1532 175.64 27.8852 175.384 27.6932 175.064V178.52H26.7332V170H27.5732L27.6332 171.044C27.8092 170.692 28.0772 170.412 28.4372 170.204C28.8052 169.988 29.2212 169.88 29.6852 169.88ZM29.5772 175.28C30.1612 175.28 30.6212 175.076 30.9572 174.668C31.2932 174.252 31.4612 173.696 31.4612 173C31.4612 172.304 31.2932 171.752 30.9572 171.344C30.6212 170.928 30.1612 170.72 29.5772 170.72C29.0012 170.72 28.5412 170.92 28.1972 171.32C27.8612 171.72 27.6932 172.256 27.6932 172.928V173.072C27.6932 173.744 27.8612 174.28 28.1972 174.68C28.5412 175.08 29.0012 175.28 29.5772 175.28ZM39.4398 172.688C39.4398 172.912 39.4238 173.136 39.3918 173.36H34.8678C34.9238 173.968 35.1238 174.44 35.4678 174.776C35.8198 175.112 36.2718 175.28 36.8238 175.28C37.2638 175.28 37.6278 175.204 37.9158 175.052C38.2118 174.9 38.4118 174.68 38.5158 174.392L39.3198 174.812C39.0798 175.236 38.7598 175.56 38.3598 175.784C37.9598 176.008 37.4478 176.12 36.8238 176.12C35.9198 176.12 35.2078 175.844 34.6878 175.292C34.1758 174.74 33.9198 173.976 33.9198 173C33.9198 172.024 34.1638 171.26 34.6518 170.708C35.1478 170.156 35.8478 169.88 36.7518 169.88C37.3118 169.88 37.7958 170.004 38.2038 170.252C38.6118 170.5 38.9198 170.836 39.1278 171.26C39.3358 171.684 39.4398 172.16 39.4398 172.688ZM36.7518 170.72C36.2238 170.72 35.7958 170.876 35.4678 171.188C35.1478 171.5 34.9518 171.94 34.8798 172.508H38.5158C38.4518 171.948 38.2678 171.512 37.9638 171.2C37.6598 170.88 37.2558 170.72 36.7518 170.72ZM47.6879 168.08V176H46.7279V170.192C46.7279 170.024 46.7359 169.716 46.7519 169.268C46.4799 169.532 46.1639 169.764 45.8039 169.964C45.4439 170.156 45.0759 170.296 44.6999 170.384L44.4479 169.508C44.6399 169.484 44.8999 169.396 45.2279 169.244C45.5559 169.084 45.8719 168.9 46.1759 168.692C46.4799 168.476 46.7039 168.272 46.8479 168.08H47.6879ZM55.4541 172.652H52.9941V175.184H52.0941V172.652H49.6221V171.752H52.0941V169.232H52.9941V171.752H55.4541V172.652ZM56.8216 175.22C57.9176 174.412 58.7576 173.748 59.3416 173.228C59.9256 172.7 60.3416 172.224 60.5896 171.8C60.8456 171.368 60.9736 170.916 60.9736 170.444C60.9736 169.972 60.8216 169.592 60.5176 169.304C60.2136 169.008 59.8056 168.86 59.2936 168.86C58.7576 168.86 58.3216 169.036 57.9856 169.388C57.6576 169.74 57.4656 170.216 57.4096 170.816L56.5696 170.312C56.6736 169.6 56.9616 169.032 57.4336 168.608C57.9136 168.176 58.5456 167.96 59.3296 167.96C59.8576 167.96 60.3216 168.064 60.7216 168.272C61.1296 168.48 61.4416 168.772 61.6576 169.148C61.8736 169.524 61.9816 169.956 61.9816 170.444C61.9816 170.956 61.8576 171.448 61.6096 171.92C61.3696 172.392 60.9736 172.888 60.4216 173.408C59.8696 173.928 59.1256 174.5 58.1896 175.124V175.136C58.7176 175.112 59.1136 175.1 59.3776 175.1H62.1496V176H56.8216V175.22ZM63.6422 166.988C64.4902 167.724 65.1302 168.568 65.5622 169.52C65.9942 170.464 66.2102 171.5 66.2102 172.628C66.2102 173.756 65.9942 174.796 65.5622 175.748C65.1302 176.692 64.4902 177.532 63.6422 178.268L63.0902 177.716C63.8742 177.004 64.4262 176.256 64.7462 175.472C65.0662 174.688 65.2262 173.74 65.2262 172.628C65.2262 171.516 65.0662 170.568 64.7462 169.784C64.4262 169 63.8742 168.252 63.0902 167.54L63.6422 166.988Z" fill="#F3F2EF"/>
<path d="M1.62 187.4V194.98H3.15V195.68H0.87V186.7H3.15V187.4H1.62ZM10.9366 194H10.1766V189.85L10.2666 188.11H10.2566L8.08656 194H7.40656L5.23656 188.11H5.22656L5.31656 189.85V194H4.55656V187.4H5.78656L7.23656 191.41L7.73656 193.06H7.75656L8.26656 191.42L9.70656 187.4H10.9366V194ZM16.0017 193.65C15.6684 193.95 15.2384 194.1 14.7117 194.1C14.3051 194.1 13.9717 193.99 13.7117 193.77C13.4584 193.55 13.3284 193.213 13.3217 192.76V189.69H12.3217V189H13.3217V187.8L14.1217 187.58V189H15.9717V189.69H14.1217V192.62C14.1217 192.86 14.1884 193.043 14.3217 193.17C14.4617 193.29 14.6451 193.35 14.8717 193.35C15.1917 193.35 15.4751 193.227 15.7217 192.98L16.0017 193.65ZM22.6012 192.31C22.3945 192.87 22.0545 193.31 21.5812 193.63C21.1078 193.943 20.5612 194.1 19.9412 194.1C19.3212 194.1 18.7812 193.963 18.3212 193.69C17.8612 193.41 17.5045 193.017 17.2512 192.51C17.0045 191.997 16.8812 191.393 16.8812 190.7C16.8812 190.013 17.0045 189.413 17.2512 188.9C17.5045 188.387 17.8612 187.993 18.3212 187.72C18.7812 187.44 19.3145 187.3 19.9212 187.3C20.5545 187.3 21.0845 187.43 21.5112 187.69C21.9445 187.95 22.2678 188.333 22.4812 188.84L21.6912 189.21C21.5445 188.823 21.3312 188.533 21.0512 188.34C20.7712 188.147 20.4145 188.05 19.9812 188.05C19.5278 188.05 19.1312 188.157 18.7912 188.37C18.4512 188.577 18.1878 188.88 18.0012 189.28C17.8145 189.68 17.7212 190.153 17.7212 190.7C17.7212 191.527 17.9178 192.177 18.3112 192.65C18.7112 193.117 19.2545 193.35 19.9412 193.35C20.3878 193.35 20.7745 193.237 21.1012 193.01C21.4278 192.783 21.6612 192.45 21.8012 192.01L22.6012 192.31ZM26.7966 187.3C27.4166 187.3 27.9566 187.44 28.4166 187.72C28.8766 187.993 29.23 188.387 29.4766 188.9C29.73 189.407 29.8566 190.007 29.8566 190.7C29.8566 191.393 29.73 191.997 29.4766 192.51C29.23 193.017 28.8766 193.41 28.4166 193.69C27.9566 193.963 27.4166 194.1 26.7966 194.1C26.1766 194.1 25.6366 193.963 25.1766 193.69C24.7166 193.41 24.36 193.017 24.1066 192.51C23.86 191.997 23.7366 191.393 23.7366 190.7C23.7366 190.007 23.86 189.407 24.1066 188.9C24.36 188.387 24.7166 187.993 25.1766 187.72C25.6366 187.44 26.1766 187.3 26.7966 187.3ZM26.7966 188.05C26.11 188.05 25.5666 188.287 25.1666 188.76C24.7733 189.227 24.5766 189.873 24.5766 190.7C24.5766 191.527 24.7733 192.177 25.1666 192.65C25.5666 193.117 26.11 193.35 26.7966 193.35C27.4833 193.35 28.0233 193.117 28.4166 192.65C28.8166 192.177 29.0166 191.527 29.0166 190.7C29.0166 189.873 28.8166 189.227 28.4166 188.76C28.0233 188.287 27.4833 188.05 26.7966 188.05ZM30.9271 195.41C31.3671 195.103 31.6738 194.88 31.8471 194.74C32.3271 194.36 32.6504 194.063 32.8171 193.85C32.9904 193.63 33.0771 193.407 33.0771 193.18C33.0771 192.96 33.0104 192.783 32.8771 192.65C32.7438 192.517 32.5538 192.45 32.3071 192.45C32.0471 192.45 31.8404 192.533 31.6871 192.7C31.5404 192.86 31.4604 193.087 31.4471 193.38L30.8171 193.16C30.8438 192.76 30.9938 192.447 31.2671 192.22C31.5404 191.987 31.8971 191.87 32.3371 191.87C32.8038 191.87 33.1638 191.993 33.4171 192.24C33.6771 192.487 33.8071 192.787 33.8071 193.14C33.8071 193.433 33.6904 193.727 33.4571 194.02C33.2238 194.32 32.8571 194.643 32.3571 194.99L31.8371 195.34V195.35C32.0771 195.33 32.2904 195.32 32.4771 195.32H33.8971V195.89H30.9271V195.41ZM42.8177 191.24C42.8177 191.427 42.8043 191.613 42.7777 191.8H39.0077C39.0543 192.307 39.221 192.7 39.5077 192.98C39.801 193.26 40.1777 193.4 40.6377 193.4C41.0043 193.4 41.3077 193.337 41.5477 193.21C41.7943 193.083 41.961 192.9 42.0477 192.66L42.7177 193.01C42.5177 193.363 42.251 193.633 41.9177 193.82C41.5843 194.007 41.1577 194.1 40.6377 194.1C39.8843 194.1 39.291 193.87 38.8577 193.41C38.431 192.95 38.2177 192.313 38.2177 191.5C38.2177 190.687 38.421 190.05 38.8277 189.59C39.241 189.13 39.8243 188.9 40.5777 188.9C41.0443 188.9 41.4477 189.003 41.7877 189.21C42.1277 189.417 42.3843 189.697 42.5577 190.05C42.731 190.403 42.8177 190.8 42.8177 191.24ZM40.5777 189.6C40.1377 189.6 39.781 189.73 39.5077 189.99C39.241 190.25 39.0777 190.617 39.0177 191.09H42.0477C41.9943 190.623 41.841 190.26 41.5877 190C41.3343 189.733 40.9977 189.6 40.5777 189.6ZM48.7882 189V196.1H47.9882V193.22C47.8282 193.487 47.6015 193.7 47.3082 193.86C47.0215 194.02 46.6949 194.1 46.3282 194.1C45.6282 194.1 45.0715 193.87 44.6582 193.41C44.2515 192.943 44.0482 192.307 44.0482 191.5C44.0482 190.693 44.2515 190.06 44.6582 189.6C45.0715 189.133 45.6282 188.9 46.3282 188.9C46.7149 188.9 47.0582 188.99 47.3582 189.17C47.6649 189.343 47.8915 189.577 48.0382 189.87L48.0882 189H48.7882ZM46.4182 193.4C46.8982 193.4 47.2782 193.233 47.5582 192.9C47.8449 192.567 47.9882 192.12 47.9882 191.56V191.44C47.9882 190.88 47.8449 190.433 47.5582 190.1C47.2782 189.767 46.8982 189.6 46.4182 189.6C45.9315 189.6 45.5482 189.773 45.2682 190.12C44.9882 190.46 44.8482 190.92 44.8482 191.5C44.8482 192.08 44.9882 192.543 45.2682 192.89C45.5482 193.23 45.9315 193.4 46.4182 193.4ZM51.8971 195.68H49.6171V194.98H51.1471V187.4H49.6171V186.7H51.8971V195.68Z" fill="#F3F2EF"/>
<path d="M38 231C91.6949 231 102.758 275 182 275" stroke="#F8D448" stroke-width="8" stroke-linecap="round"/>
<rect x="13.5" y="207.5" width="50" height="15" rx="1.5" fill="#332827"/>
<path d="M29.28 215.86H25.87V214.87H29.28V215.86ZM35.9365 216.35H34.8165V218H33.8065V216.35H30.5565V215.7L33.5065 211.4H34.8165V215.52H35.9365V216.35ZM31.6265 215.52H33.8065V213.26L33.8465 212.19H33.8265C33.6665 212.53 33.4532 212.897 33.1865 213.29L31.6265 215.52ZM39.5072 218.1C38.6739 218.1 38.0405 217.813 37.6072 217.24C37.1805 216.66 36.9672 215.813 36.9672 214.7C36.9672 213.587 37.1805 212.743 37.6072 212.17C38.0405 211.59 38.6739 211.3 39.5072 211.3C40.3405 211.3 40.9739 211.59 41.4072 212.17C41.8405 212.743 42.0572 213.587 42.0572 214.7C42.0572 215.813 41.8405 216.66 41.4072 217.24C40.9739 217.813 40.3405 218.1 39.5072 218.1ZM39.5072 217.19C39.9872 217.19 40.3505 216.983 40.5972 216.57C40.8439 216.15 40.9672 215.527 40.9672 214.7C40.9672 213.873 40.8439 213.253 40.5972 212.84C40.3505 212.42 39.9872 212.21 39.5072 212.21C38.5405 212.21 38.0572 213.04 38.0572 214.7C38.0572 216.36 38.5405 217.19 39.5072 217.19ZM44.6865 211.3C45.1932 211.3 45.5965 211.47 45.8965 211.81C46.2032 212.143 46.3565 212.587 46.3565 213.14C46.3565 213.693 46.2032 214.14 45.8965 214.48C45.5965 214.813 45.1932 214.98 44.6865 214.98C44.1798 214.98 43.7732 214.813 43.4665 214.48C43.1665 214.14 43.0165 213.693 43.0165 213.14C43.0165 212.587 43.1665 212.143 43.4665 211.81C43.7732 211.47 44.1798 211.3 44.6865 211.3ZM48.7465 211.4H49.6665L45.3565 218H44.4265L48.7465 211.4ZM44.6865 212.08C44.4332 212.08 44.2365 212.173 44.0965 212.36C43.9632 212.54 43.8965 212.8 43.8965 213.14C43.8965 213.473 43.9632 213.733 44.0965 213.92C44.2365 214.1 44.4332 214.19 44.6865 214.19C44.9465 214.19 45.1432 214.1 45.2765 213.92C45.4165 213.733 45.4865 213.473 45.4865 213.14C45.4865 212.8 45.4165 212.54 45.2765 212.36C45.1432 212.173 44.9465 212.08 44.6865 212.08ZM49.4065 214.42C49.9132 214.42 50.3165 214.59 50.6165 214.93C50.9232 215.263 51.0765 215.707 51.0765 216.26C51.0765 216.813 50.9232 217.26 50.6165 217.6C50.3165 217.933 49.9132 218.1 49.4065 218.1C48.8998 218.1 48.4932 217.933 48.1865 217.6C47.8865 217.26 47.7365 216.813 47.7365 216.26C47.7365 215.707 47.8865 215.263 48.1865 214.93C48.4932 214.59 48.8998 214.42 49.4065 214.42ZM49.4065 215.21C49.1532 215.21 48.9565 215.303 48.8165 215.49C48.6832 215.67 48.6165 215.927 48.6165 216.26C48.6165 216.6 48.6832 216.863 48.8165 217.05C48.9565 217.23 49.1532 217.32 49.4065 217.32C49.6665 217.32 49.8632 217.23 49.9965 217.05C50.1365 216.863 50.2065 216.6 50.2065 216.26C50.2065 215.927 50.1365 215.67 49.9965 215.49C49.8632 215.303 49.6665 215.21 49.4065 215.21Z" fill="#F3F2EF"/>
<rect x="13.5" y="207.5" width="50" height="15" rx="1.5" stroke="#F3F2EF"/>
<circle cx="182" cy="275" r="3.5" fill="#F3F2EF" stroke="#332827"/>
<rect x="149.5" y="251.5" width="66" height="15" rx="1.5" fill="#332827"/>
<path d="M167.39 262H166.12L163.57 257.84L162.93 256.62H162.92L162.96 257.74V262H161.98V255.4H163.24L165.78 259.55L166.43 260.78H166.44L166.4 259.66V255.4H167.39V262ZM173.595 259.35C173.595 259.543 173.582 259.727 173.555 259.9H169.895C169.955 260.34 170.112 260.677 170.365 260.91C170.618 261.137 170.945 261.25 171.345 261.25C171.672 261.25 171.942 261.193 172.155 261.08C172.375 260.96 172.525 260.79 172.605 260.57L173.495 260.94C173.122 261.713 172.405 262.1 171.345 262.1C170.558 262.1 169.942 261.87 169.495 261.41C169.055 260.95 168.835 260.313 168.835 259.5C168.835 258.68 169.048 258.043 169.475 257.59C169.902 257.13 170.502 256.9 171.275 256.9C172.008 256.9 172.578 257.123 172.985 257.57C173.392 258.017 173.595 258.61 173.595 259.35ZM171.275 257.75C170.888 257.75 170.575 257.863 170.335 258.09C170.102 258.317 169.955 258.647 169.895 259.08H172.595C172.542 258.66 172.398 258.333 172.165 258.1C171.938 257.867 171.642 257.75 171.275 257.75ZM178.058 261.67C177.898 261.803 177.702 261.91 177.468 261.99C177.242 262.063 176.995 262.1 176.728 262.1C176.268 262.1 175.898 261.987 175.618 261.76C175.345 261.527 175.205 261.167 175.198 260.68V257.84H174.248V257H175.198V255.83L176.268 255.53V257H178.018V257.84H176.268V260.5C176.268 260.74 176.332 260.92 176.458 261.04C176.592 261.153 176.772 261.21 176.998 261.21C177.305 261.21 177.575 261.103 177.808 260.89L178.058 261.67ZM187.309 261.09V262H181.979V261.13L185.969 256.31H182.069V255.4H187.189V256.27L183.199 261.09H187.309ZM192.892 259.35C192.892 259.543 192.878 259.727 192.852 259.9H189.192C189.252 260.34 189.408 260.677 189.662 260.91C189.915 261.137 190.242 261.25 190.642 261.25C190.968 261.25 191.238 261.193 191.452 261.08C191.672 260.96 191.822 260.79 191.902 260.57L192.792 260.94C192.418 261.713 191.702 262.1 190.642 262.1C189.855 262.1 189.238 261.87 188.792 261.41C188.352 260.95 188.132 260.313 188.132 259.5C188.132 258.68 188.345 258.043 188.772 257.59C189.198 257.13 189.798 256.9 190.572 256.9C191.305 256.9 191.875 257.123 192.282 257.57C192.688 258.017 192.892 258.61 192.892 259.35ZM190.572 257.75C190.185 257.75 189.872 257.863 189.632 258.09C189.398 258.317 189.252 258.647 189.192 259.08H191.892C191.838 258.66 191.695 258.333 191.462 258.1C191.235 257.867 190.938 257.75 190.572 257.75ZM196.812 256.9C197.046 256.9 197.229 256.933 197.362 257L197.192 257.98C197.039 257.893 196.829 257.85 196.562 257.85C196.349 257.85 196.146 257.907 195.952 258.02C195.766 258.133 195.609 258.303 195.482 258.53C195.362 258.757 195.302 259.03 195.302 259.35V262H194.232V257H195.142L195.232 257.9C195.512 257.233 196.039 256.9 196.812 256.9ZM200.446 256.9C201.226 256.9 201.836 257.13 202.276 257.59C202.716 258.05 202.936 258.687 202.936 259.5C202.936 260.313 202.716 260.95 202.276 261.41C201.836 261.87 201.226 262.1 200.446 262.1C199.666 262.1 199.056 261.87 198.616 261.41C198.176 260.95 197.956 260.313 197.956 259.5C197.956 258.687 198.176 258.05 198.616 257.59C199.056 257.13 199.666 256.9 200.446 256.9ZM200.446 257.74C199.993 257.74 199.643 257.893 199.396 258.2C199.156 258.5 199.036 258.933 199.036 259.5C199.036 260.067 199.156 260.503 199.396 260.81C199.643 261.11 199.993 261.26 200.446 261.26C200.899 261.26 201.249 261.107 201.496 260.8C201.743 260.493 201.866 260.06 201.866 259.5C201.866 258.94 201.743 258.507 201.496 258.2C201.249 257.893 200.899 257.74 200.446 257.74Z" fill="#F3F2EF"/>
<rect x="149.5" y="251.5" width="66" height="15" rx="1.5" stroke="#F3F2EF"/>
<circle cx="38" cy="231" r="3.5" fill="#F3F2EF" stroke="#332827"/>
</g>
<defs>
<clipPath id="clip0_4662_1805">
<rect width="365" height="295" fill="white"/>
</clipPath>
</defs>
</svg>
