<svg width="803" height="449" viewBox="0 0 803 449" fill="none" xmlns="http://www.w3.org/2000/svg">
<path d="M8.764 66H7.378L3.514 59.812L2.534 57.992H2.52L2.576 59.476V66H1.512V56.76H2.898L6.748 62.92L7.742 64.768H7.756L7.7 63.284V56.76H8.764V66ZM17.4662 62.136C17.4662 62.3973 17.4475 62.6587 17.4102 62.92H12.1322C12.1975 63.6293 12.4309 64.18 12.8322 64.572C13.2429 64.964 13.7702 65.16 14.4142 65.16C14.9275 65.16 15.3522 65.0713 15.6882 64.894C16.0335 64.7167 16.2669 64.46 16.3882 64.124L17.3262 64.614C17.0462 65.1087 16.6729 65.4867 16.2062 65.748C15.7395 66.0093 15.1422 66.14 14.4142 66.14C13.3595 66.14 12.5289 65.818 11.9222 65.174C11.3249 64.53 11.0262 63.6387 11.0262 62.5C11.0262 61.3613 11.3109 60.47 11.8802 59.826C12.4589 59.182 13.2755 58.86 14.3302 58.86C14.9835 58.86 15.5482 59.0047 16.0242 59.294C16.5002 59.5833 16.8595 59.9753 17.1022 60.47C17.3449 60.9647 17.4662 61.52 17.4662 62.136ZM14.3302 59.84C13.7142 59.84 13.2149 60.022 12.8322 60.386C12.4589 60.75 12.2302 61.2633 12.1462 61.926H16.3882C16.3135 61.2727 16.0989 60.764 15.7442 60.4C15.3895 60.0267 14.9182 59.84 14.3302 59.84ZM23.6739 65.51C23.2072 65.93 22.6052 66.14 21.8679 66.14C21.2986 66.14 20.8319 65.986 20.4679 65.678C20.1132 65.37 19.9312 64.8987 19.9219 64.264V59.966H18.5219V59H19.9219V57.32L21.0419 57.012V59H23.6319V59.966H21.0419V64.068C21.0419 64.404 21.1352 64.6607 21.3219 64.838C21.5179 65.006 21.7746 65.09 22.0919 65.09C22.5399 65.09 22.9366 64.9173 23.2819 64.572L23.6739 65.51ZM39.6415 63.438H35.4555L34.4755 66H33.2995L36.8975 56.76H38.2275L41.8115 66H40.6215L39.6415 63.438ZM39.2355 62.388L37.9895 59.112L37.5555 57.824H37.5275L37.1215 59.07L35.8615 62.388H39.2355ZM46.9237 58.86C47.9037 58.86 48.6784 59.1867 49.2477 59.84C49.8264 60.484 50.1157 61.3707 50.1157 62.5C50.1157 63.6293 49.8264 64.5207 49.2477 65.174C48.6784 65.818 47.9037 66.14 46.9237 66.14C46.3824 66.14 45.8971 66.0187 45.4677 65.776C45.0477 65.524 44.7351 65.1927 44.5297 64.782L44.4597 66H43.4797V55.78H44.5997V60.092C44.8237 59.7187 45.1364 59.42 45.5377 59.196C45.9484 58.972 46.4104 58.86 46.9237 58.86ZM46.7977 65.16C47.4791 65.16 48.0157 64.922 48.4077 64.446C48.7997 63.9607 48.9957 63.312 48.9957 62.5C48.9957 61.688 48.7997 61.044 48.4077 60.568C48.0157 60.0827 47.4791 59.84 46.7977 59.84C46.1257 59.84 45.5891 60.0733 45.1877 60.54C44.7957 61.0067 44.5997 61.632 44.5997 62.416V62.584C44.5997 63.368 44.7957 63.9933 45.1877 64.46C45.5891 64.9267 46.1257 65.16 46.7977 65.16ZM54.6781 66.14C54.0061 66.14 53.3994 66.0093 52.8581 65.748C52.3168 65.4773 51.9201 65.0807 51.6681 64.558L52.5781 63.928C52.7368 64.3387 53.0121 64.6467 53.4041 64.852C53.7961 65.0573 54.2581 65.16 54.7901 65.16C55.3408 65.16 55.7608 65.062 56.0501 64.866C56.3394 64.67 56.4841 64.4227 56.4841 64.124C56.4841 63.8533 56.3488 63.6387 56.0781 63.48C55.8074 63.312 55.3314 63.1673 54.6501 63.046C53.9781 62.9247 53.4461 62.78 53.0541 62.612C52.6621 62.4347 52.3774 62.2153 52.2001 61.954C52.0228 61.6833 51.9341 61.352 51.9341 60.96C51.9341 60.5773 52.0461 60.2273 52.2701 59.91C52.4941 59.5927 52.8161 59.3407 53.2361 59.154C53.6561 58.958 54.1414 58.86 54.6921 58.86C55.4388 58.86 56.0361 59 56.4841 59.28C56.9414 59.5507 57.2681 59.9707 57.4641 60.54L56.5121 61.1C56.3628 60.652 56.1341 60.33 55.8261 60.134C55.5274 59.938 55.1494 59.84 54.6921 59.84C54.2348 59.84 53.8474 59.9427 53.5301 60.148C53.2128 60.3533 53.0541 60.5913 53.0541 60.862C53.0541 61.17 53.1894 61.408 53.4601 61.576C53.7401 61.744 54.2348 61.8887 54.9441 62.01C55.9148 62.1687 56.6008 62.4067 57.0021 62.724C57.4034 63.0413 57.6041 63.4893 57.6041 64.068C57.6041 64.4693 57.4828 64.8287 57.2401 65.146C57.0068 65.454 56.6661 65.6967 56.2181 65.874C55.7794 66.0513 55.2661 66.14 54.6781 66.14ZM62.6349 58.86C63.6896 58.86 64.5156 59.182 65.1129 59.826C65.7196 60.47 66.0229 61.3613 66.0229 62.5C66.0229 63.6387 65.7196 64.53 65.1129 65.174C64.5156 65.818 63.6896 66.14 62.6349 66.14C61.5802 66.14 60.7496 65.818 60.1429 65.174C59.5456 64.53 59.2469 63.6387 59.2469 62.5C59.2469 61.3613 59.5456 60.47 60.1429 59.826C60.7496 59.182 61.5802 58.86 62.6349 58.86ZM62.6349 59.826C61.9256 59.826 61.3702 60.064 60.9689 60.54C60.5676 61.016 60.3669 61.6693 60.3669 62.5C60.3669 63.3307 60.5676 63.984 60.9689 64.46C61.3702 64.936 61.9256 65.174 62.6349 65.174C63.3442 65.174 63.8996 64.936 64.3009 64.46C64.7022 63.984 64.9029 63.3307 64.9029 62.5C64.9029 61.6693 64.7022 61.016 64.3009 60.54C63.8996 60.064 63.3442 59.826 62.6349 59.826ZM69.2625 64.124C69.2625 64.4787 69.3138 64.726 69.4165 64.866C69.5285 64.9967 69.7292 65.062 70.0185 65.062C70.2145 65.062 70.3825 65.048 70.5225 65.02C70.6718 64.992 70.8445 64.9407 71.0405 64.866L70.8585 65.944C70.5505 66.0747 70.2052 66.14 69.8225 66.14C69.2532 66.14 68.8285 65.986 68.5485 65.678C68.2778 65.37 68.1425 64.8987 68.1425 64.264V55.78H69.2625V64.124ZM78.5398 59V66H77.5598L77.4898 64.936C77.0231 65.7387 76.1878 66.14 74.9838 66.14C74.2278 66.14 73.6071 65.93 73.1218 65.51C72.6458 65.09 72.4078 64.446 72.4078 63.578V59H73.5278V63.284C73.5278 63.9653 73.6678 64.4507 73.9478 64.74C74.2278 65.02 74.6384 65.16 75.1798 65.16C75.8238 65.16 76.3558 64.964 76.7758 64.572C77.2051 64.18 77.4198 63.592 77.4198 62.808V59H78.5398ZM85.4298 65.51C84.9631 65.93 84.3611 66.14 83.6238 66.14C83.0544 66.14 82.5878 65.986 82.2238 65.678C81.8691 65.37 81.6871 64.8987 81.6778 64.264V59.966H80.2778V59H81.6778V57.32L82.7978 57.012V59H85.3878V59.966H82.7978V64.068C82.7978 64.404 82.8911 64.6607 83.0778 64.838C83.2738 65.006 83.5304 65.09 83.8478 65.09C84.2958 65.09 84.6924 64.9173 85.0378 64.572L85.4298 65.51ZM93.017 62.136C93.017 62.3973 92.9983 62.6587 92.961 62.92H87.683C87.7483 63.6293 87.9817 64.18 88.383 64.572C88.7937 64.964 89.321 65.16 89.965 65.16C90.4783 65.16 90.903 65.0713 91.239 64.894C91.5843 64.7167 91.8177 64.46 91.939 64.124L92.877 64.614C92.597 65.1087 92.2237 65.4867 91.757 65.748C91.2903 66.0093 90.693 66.14 89.965 66.14C88.9103 66.14 88.0797 65.818 87.473 65.174C86.8757 64.53 86.577 63.6387 86.577 62.5C86.577 61.3613 86.8617 60.47 87.431 59.826C88.0097 59.182 88.8263 58.86 89.881 58.86C90.5343 58.86 91.099 59.0047 91.575 59.294C92.051 59.5833 92.4103 59.9753 92.653 60.47C92.8957 60.9647 93.017 61.52 93.017 62.136ZM89.881 59.84C89.265 59.84 88.7657 60.022 88.383 60.386C88.0097 60.75 87.781 61.2633 87.697 61.926H91.939C91.8643 61.2727 91.6497 60.764 91.295 60.4C90.9403 60.0267 90.469 59.84 89.881 59.84ZM107.645 61.338V66H106.805L106.763 64.754C106.493 65.202 106.11 65.5473 105.615 65.79C105.13 66.0233 104.542 66.14 103.851 66.14C102.983 66.14 102.227 65.9487 101.583 65.566C100.939 65.174 100.44 64.6233 100.085 63.914C99.7399 63.1953 99.5672 62.3507 99.5672 61.38C99.5672 60.4187 99.7446 59.5787 100.099 58.86C100.463 58.1413 100.967 57.5907 101.611 57.208C102.265 56.816 103.021 56.62 103.879 56.62C104.794 56.62 105.545 56.7927 106.133 57.138C106.731 57.4833 107.211 58.0153 107.575 58.734L106.553 59.294C106.348 58.7713 106.012 58.37 105.545 58.09C105.088 57.81 104.533 57.67 103.879 57.67C103.254 57.67 102.703 57.8193 102.227 58.118C101.761 58.4167 101.397 58.846 101.135 59.406C100.874 59.9567 100.743 60.6147 100.743 61.38C100.743 62.556 101.014 63.4707 101.555 64.124C102.097 64.768 102.876 65.09 103.893 65.09C104.696 65.09 105.349 64.8847 105.853 64.474C106.367 64.0633 106.623 63.4753 106.623 62.71V62.388H103.683V61.338H107.645ZM117.51 56.76V66H116.39V61.842H111.378V66H110.258V56.76H111.378V60.792H116.39V56.76H117.51ZM128.057 61.338V66H127.217L127.175 64.754C126.905 65.202 126.522 65.5473 126.027 65.79C125.542 66.0233 124.954 66.14 124.263 66.14C123.395 66.14 122.639 65.9487 121.995 65.566C121.351 65.174 120.852 64.6233 120.497 63.914C120.152 63.1953 119.979 62.3507 119.979 61.38C119.979 60.4187 120.157 59.5787 120.511 58.86C120.875 58.1413 121.379 57.5907 122.023 57.208C122.677 56.816 123.433 56.62 124.291 56.62C125.206 56.62 125.957 56.7927 126.545 57.138C127.143 57.4833 127.623 58.0153 127.987 58.734L126.965 59.294C126.76 58.7713 126.424 58.37 125.957 58.09C125.5 57.81 124.945 57.67 124.291 57.67C123.666 57.67 123.115 57.8193 122.639 58.118C122.173 58.4167 121.809 58.846 121.547 59.406C121.286 59.9567 121.155 60.6147 121.155 61.38C121.155 62.556 121.426 63.4707 121.967 64.124C122.509 64.768 123.288 65.09 124.305 65.09C125.108 65.09 125.761 64.8847 126.265 64.474C126.779 64.0633 127.035 63.4753 127.035 62.71V62.388H124.095V61.338H128.057ZM142.134 64.95V66H135.442V56.76H141.924V57.81H136.562V60.792H140.734V61.842H136.562V64.95H142.134ZM152.293 58.86C152.76 58.86 153.194 58.958 153.595 59.154C154.006 59.3407 154.337 59.6347 154.589 60.036C154.841 60.4373 154.967 60.932 154.967 61.52V66H153.847V61.632C153.847 61.0253 153.693 60.5773 153.385 60.288C153.087 59.9893 152.69 59.84 152.195 59.84C151.822 59.84 151.477 59.9333 151.159 60.12C150.851 60.2973 150.599 60.5633 150.403 60.918C150.217 61.2633 150.123 61.6787 150.123 62.164V66H149.003V61.632C149.003 61.0253 148.849 60.5773 148.541 60.288C148.243 59.9893 147.846 59.84 147.351 59.84C147.015 59.84 146.689 59.9287 146.371 60.106C146.054 60.274 145.793 60.54 145.587 60.904C145.382 61.268 145.279 61.7207 145.279 62.262V66H144.159V59H145.139L145.209 60.092C145.452 59.6813 145.769 59.3733 146.161 59.168C146.563 58.9627 146.992 58.86 147.449 58.86C147.963 58.86 148.434 58.9767 148.863 59.21C149.302 59.4433 149.633 59.784 149.857 60.232C150.063 59.784 150.399 59.4433 150.865 59.21C151.332 58.9767 151.808 58.86 152.293 58.86ZM158.063 57.656C157.811 57.656 157.606 57.5813 157.447 57.432C157.298 57.2733 157.223 57.068 157.223 56.816C157.223 56.564 157.298 56.3633 157.447 56.214C157.606 56.0553 157.811 55.976 158.063 55.976C158.315 55.976 158.516 56.0553 158.665 56.214C158.824 56.3633 158.903 56.564 158.903 56.816C158.903 57.068 158.824 57.2733 158.665 57.432C158.516 57.5813 158.315 57.656 158.063 57.656ZM158.623 66H157.503V59H158.623V66ZM163.602 66.14C162.93 66.14 162.323 66.0093 161.782 65.748C161.241 65.4773 160.844 65.0807 160.592 64.558L161.502 63.928C161.661 64.3387 161.936 64.6467 162.328 64.852C162.72 65.0573 163.182 65.16 163.714 65.16C164.265 65.16 164.685 65.062 164.974 64.866C165.263 64.67 165.408 64.4227 165.408 64.124C165.408 63.8533 165.273 63.6387 165.002 63.48C164.731 63.312 164.255 63.1673 163.574 63.046C162.902 62.9247 162.37 62.78 161.978 62.612C161.586 62.4347 161.301 62.2153 161.124 61.954C160.947 61.6833 160.858 61.352 160.858 60.96C160.858 60.5773 160.97 60.2273 161.194 59.91C161.418 59.5927 161.74 59.3407 162.16 59.154C162.58 58.958 163.065 58.86 163.616 58.86C164.363 58.86 164.96 59 165.408 59.28C165.865 59.5507 166.192 59.9707 166.388 60.54L165.436 61.1C165.287 60.652 165.058 60.33 164.75 60.134C164.451 59.938 164.073 59.84 163.616 59.84C163.159 59.84 162.771 59.9427 162.454 60.148C162.137 60.3533 161.978 60.5913 161.978 60.862C161.978 61.17 162.113 61.408 162.384 61.576C162.664 61.744 163.159 61.8887 163.868 62.01C164.839 62.1687 165.525 62.4067 165.926 62.724C166.327 63.0413 166.528 63.4893 166.528 64.068C166.528 64.4693 166.407 64.8287 166.164 65.146C165.931 65.454 165.59 65.6967 165.142 65.874C164.703 66.0513 164.19 66.14 163.602 66.14ZM170.985 66.14C170.313 66.14 169.706 66.0093 169.165 65.748C168.623 65.4773 168.227 65.0807 167.975 64.558L168.885 63.928C169.043 64.3387 169.319 64.6467 169.711 64.852C170.103 65.0573 170.565 65.16 171.097 65.16C171.647 65.16 172.067 65.062 172.357 64.866C172.646 64.67 172.791 64.4227 172.791 64.124C172.791 63.8533 172.655 63.6387 172.385 63.48C172.114 63.312 171.638 63.1673 170.957 63.046C170.285 62.9247 169.753 62.78 169.361 62.612C168.969 62.4347 168.684 62.2153 168.507 61.954C168.329 61.6833 168.241 61.352 168.241 60.96C168.241 60.5773 168.353 60.2273 168.577 59.91C168.801 59.5927 169.123 59.3407 169.543 59.154C169.963 58.958 170.448 58.86 170.999 58.86C171.745 58.86 172.343 59 172.791 59.28C173.248 59.5507 173.575 59.9707 173.771 60.54L172.819 61.1C172.669 60.652 172.441 60.33 172.133 60.134C171.834 59.938 171.456 59.84 170.999 59.84C170.541 59.84 170.154 59.9427 169.837 60.148C169.519 60.3533 169.361 60.5913 169.361 60.862C169.361 61.17 169.496 61.408 169.767 61.576C170.047 61.744 170.541 61.8887 171.251 62.01C172.221 62.1687 172.907 62.4067 173.309 62.724C173.71 63.0413 173.911 63.4893 173.911 64.068C173.911 64.4693 173.789 64.8287 173.547 65.146C173.313 65.454 172.973 65.6967 172.525 65.874C172.086 66.0513 171.573 66.14 170.985 66.14ZM176.548 57.656C176.296 57.656 176.09 57.5813 175.932 57.432C175.782 57.2733 175.708 57.068 175.708 56.816C175.708 56.564 175.782 56.3633 175.932 56.214C176.09 56.0553 176.296 55.976 176.548 55.976C176.8 55.976 177 56.0553 177.15 56.214C177.308 56.3633 177.388 56.564 177.388 56.816C177.388 57.068 177.308 57.2733 177.15 57.432C177 57.5813 176.8 57.656 176.548 57.656ZM177.108 66H175.988V59H177.108V66ZM182.66 58.86C183.715 58.86 184.541 59.182 185.138 59.826C185.745 60.47 186.048 61.3613 186.048 62.5C186.048 63.6387 185.745 64.53 185.138 65.174C184.541 65.818 183.715 66.14 182.66 66.14C181.606 66.14 180.775 65.818 180.168 65.174C179.571 64.53 179.272 63.6387 179.272 62.5C179.272 61.3613 179.571 60.47 180.168 59.826C180.775 59.182 181.606 58.86 182.66 58.86ZM182.66 59.826C181.951 59.826 181.396 60.064 180.994 60.54C180.593 61.016 180.392 61.6693 180.392 62.5C180.392 63.3307 180.593 63.984 180.994 64.46C181.396 64.936 181.951 65.174 182.66 65.174C183.37 65.174 183.925 64.936 184.326 64.46C184.728 63.984 184.928 63.3307 184.928 62.5C184.928 61.6693 184.728 61.016 184.326 60.54C183.925 60.064 183.37 59.826 182.66 59.826ZM191.626 58.86C192.419 58.86 193.073 59.0887 193.586 59.546C194.099 60.0033 194.356 60.6613 194.356 61.52V66H193.236V61.912C193.236 61.184 193.077 60.6567 192.76 60.33C192.452 60.0033 192.037 59.84 191.514 59.84C191.141 59.84 190.791 59.924 190.464 60.092C190.137 60.2507 189.867 60.5167 189.652 60.89C189.447 61.254 189.344 61.716 189.344 62.276V66H188.224V59H189.204L189.274 60.092C189.507 59.672 189.829 59.364 190.24 59.168C190.651 58.9627 191.113 58.86 191.626 58.86ZM199.272 66.14C198.6 66.14 197.993 66.0093 197.452 65.748C196.911 65.4773 196.514 65.0807 196.262 64.558L197.172 63.928C197.331 64.3387 197.606 64.6467 197.998 64.852C198.39 65.0573 198.852 65.16 199.384 65.16C199.935 65.16 200.355 65.062 200.644 64.866C200.933 64.67 201.078 64.4227 201.078 64.124C201.078 63.8533 200.943 63.6387 200.672 63.48C200.401 63.312 199.925 63.1673 199.244 63.046C198.572 62.9247 198.04 62.78 197.648 62.612C197.256 62.4347 196.971 62.2153 196.794 61.954C196.617 61.6833 196.528 61.352 196.528 60.96C196.528 60.5773 196.64 60.2273 196.864 59.91C197.088 59.5927 197.41 59.3407 197.83 59.154C198.25 58.958 198.735 58.86 199.286 58.86C200.033 58.86 200.63 59 201.078 59.28C201.535 59.5507 201.862 59.9707 202.058 60.54L201.106 61.1C200.957 60.652 200.728 60.33 200.42 60.134C200.121 59.938 199.743 59.84 199.286 59.84C198.829 59.84 198.441 59.9427 198.124 60.148C197.807 60.3533 197.648 60.5913 197.648 60.862C197.648 61.17 197.783 61.408 198.054 61.576C198.334 61.744 198.829 61.8887 199.538 62.01C200.509 62.1687 201.195 62.4067 201.596 62.724C201.997 63.0413 202.198 63.4893 202.198 64.068C202.198 64.4693 202.077 64.8287 201.834 65.146C201.601 65.454 201.26 65.6967 200.812 65.874C200.373 66.0513 199.86 66.14 199.272 66.14ZM212.238 56.13C211.323 56.9607 210.679 57.8333 210.306 58.748C209.933 59.6627 209.746 60.7687 209.746 62.066C209.746 63.3633 209.933 64.4693 210.306 65.384C210.679 66.2987 211.323 67.1713 212.238 68.002L211.594 68.646C210.605 67.7873 209.858 66.8073 209.354 65.706C208.85 64.5953 208.598 63.382 208.598 62.066C208.598 60.75 208.85 59.5413 209.354 58.44C209.858 57.3293 210.605 56.3447 211.594 55.486L212.238 56.13ZM216.722 56.62C218.374 56.62 219.564 57.2733 220.292 58.58L219.326 59.364C219.046 58.748 218.71 58.314 218.318 58.062C217.936 57.8007 217.408 57.67 216.736 57.67C216.027 57.67 215.467 57.8193 215.056 58.118C214.655 58.4073 214.454 58.7807 214.454 59.238C214.454 59.5367 214.534 59.784 214.692 59.98C214.851 60.176 215.112 60.3487 215.476 60.498C215.85 60.638 216.363 60.764 217.016 60.876C218.239 61.0813 219.102 61.3893 219.606 61.8C220.12 62.2107 220.376 62.78 220.376 63.508C220.376 64.0307 220.227 64.4927 219.928 64.894C219.639 65.286 219.224 65.594 218.682 65.818C218.141 66.0327 217.516 66.14 216.806 66.14C215.873 66.14 215.075 65.958 214.412 65.594C213.759 65.23 213.26 64.7447 212.914 64.138L213.88 63.354C214.132 63.9047 214.501 64.334 214.986 64.642C215.481 64.9407 216.097 65.09 216.834 65.09C217.562 65.09 218.141 64.9593 218.57 64.698C219 64.4273 219.214 64.0493 219.214 63.564C219.214 63.1533 219.028 62.8267 218.654 62.584C218.281 62.3413 217.618 62.136 216.666 61.968C215.434 61.7533 214.562 61.4453 214.048 61.044C213.535 60.6427 213.278 60.0827 213.278 59.364C213.278 58.8693 213.418 58.412 213.698 57.992C213.978 57.572 214.38 57.2407 214.902 56.998C215.425 56.746 216.032 56.62 216.722 56.62ZM225.467 58.86C226.167 58.86 226.755 59.0233 227.231 59.35C227.716 59.6673 228.094 60.1247 228.365 60.722L227.301 61.226C227.002 60.302 226.382 59.84 225.439 59.84C224.739 59.84 224.188 60.078 223.787 60.554C223.395 61.0207 223.199 61.6693 223.199 62.5C223.199 63.3307 223.395 63.984 223.787 64.46C224.188 64.9267 224.739 65.16 225.439 65.16C225.98 65.16 226.414 65.0387 226.741 64.796C227.077 64.544 227.296 64.1847 227.399 63.718L228.435 64.082C228.192 64.7353 227.819 65.244 227.315 65.608C226.811 65.9627 226.195 66.14 225.467 66.14C224.412 66.14 223.582 65.818 222.975 65.174C222.378 64.53 222.079 63.6387 222.079 62.5C222.079 61.3613 222.378 60.47 222.975 59.826C223.582 59.182 224.412 58.86 225.467 58.86ZM233.369 58.86C234.424 58.86 235.25 59.182 235.847 59.826C236.454 60.47 236.757 61.3613 236.757 62.5C236.757 63.6387 236.454 64.53 235.847 65.174C235.25 65.818 234.424 66.14 233.369 66.14C232.315 66.14 231.484 65.818 230.877 65.174C230.28 64.53 229.981 63.6387 229.981 62.5C229.981 61.3613 230.28 60.47 230.877 59.826C231.484 59.182 232.315 58.86 233.369 58.86ZM233.369 59.826C232.66 59.826 232.105 60.064 231.703 60.54C231.302 61.016 231.101 61.6693 231.101 62.5C231.101 63.3307 231.302 63.984 231.703 64.46C232.105 64.936 232.66 65.174 233.369 65.174C234.079 65.174 234.634 64.936 235.035 64.46C235.437 63.984 235.637 63.3307 235.637 62.5C235.637 61.6693 235.437 61.016 235.035 60.54C234.634 60.064 234.079 59.826 233.369 59.826ZM242.377 58.86C243.357 58.86 244.132 59.1867 244.701 59.84C245.28 60.484 245.569 61.3707 245.569 62.5C245.569 63.6293 245.28 64.5207 244.701 65.174C244.132 65.818 243.357 66.14 242.377 66.14C241.864 66.14 241.402 66.028 240.991 65.804C240.59 65.58 240.277 65.2813 240.053 64.908V68.94H238.933V59H239.913L239.983 60.218C240.188 59.8073 240.501 59.4807 240.921 59.238C241.35 58.986 241.836 58.86 242.377 58.86ZM242.251 65.16C242.932 65.16 243.469 64.922 243.861 64.446C244.253 63.9607 244.449 63.312 244.449 62.5C244.449 61.688 244.253 61.044 243.861 60.568C243.469 60.0827 242.932 59.84 242.251 59.84C241.579 59.84 241.042 60.0733 240.641 60.54C240.249 61.0067 240.053 61.632 240.053 62.416V62.584C240.053 63.368 240.249 63.9933 240.641 64.46C241.042 64.9267 241.579 65.16 242.251 65.16ZM253.757 62.136C253.757 62.3973 253.739 62.6587 253.701 62.92H248.423C248.489 63.6293 248.722 64.18 249.123 64.572C249.534 64.964 250.061 65.16 250.705 65.16C251.219 65.16 251.643 65.0713 251.979 64.894C252.325 64.7167 252.558 64.46 252.679 64.124L253.617 64.614C253.337 65.1087 252.964 65.4867 252.497 65.748C252.031 66.0093 251.433 66.14 250.705 66.14C249.651 66.14 248.82 65.818 248.213 65.174C247.616 64.53 247.317 63.6387 247.317 62.5C247.317 61.3613 247.602 60.47 248.171 59.826C248.75 59.182 249.567 58.86 250.621 58.86C251.275 58.86 251.839 59.0047 252.315 59.294C252.791 59.5833 253.151 59.9753 253.393 60.47C253.636 60.9647 253.757 61.52 253.757 62.136ZM250.621 59.84C250.005 59.84 249.506 60.022 249.123 60.386C248.75 60.75 248.521 61.2633 248.437 61.926H252.679C252.605 61.2727 252.39 60.764 252.035 60.4C251.681 60.0267 251.209 59.84 250.621 59.84ZM263.38 56.76V66H262.26V59.224C262.26 59.028 262.269 58.6687 262.288 58.146C261.971 58.454 261.602 58.7247 261.182 58.958C260.762 59.182 260.333 59.3453 259.894 59.448L259.6 58.426C259.824 58.398 260.127 58.2953 260.51 58.118C260.893 57.9313 261.261 57.7167 261.616 57.474C261.971 57.222 262.232 56.984 262.4 56.76H263.38ZM272.441 62.094H269.571V65.048H268.521V62.094H265.637V61.044H268.521V58.104H269.571V61.044H272.441V62.094ZM274.036 65.09C275.315 64.1473 276.295 63.3727 276.976 62.766C277.657 62.15 278.143 61.5947 278.432 61.1C278.731 60.596 278.88 60.0687 278.88 59.518C278.88 58.9673 278.703 58.524 278.348 58.188C277.993 57.8427 277.517 57.67 276.92 57.67C276.295 57.67 275.786 57.8753 275.394 58.286C275.011 58.6967 274.787 59.252 274.722 59.952L273.742 59.364C273.863 58.5333 274.199 57.8707 274.75 57.376C275.31 56.872 276.047 56.62 276.962 56.62C277.578 56.62 278.119 56.7413 278.586 56.984C279.062 57.2267 279.426 57.5673 279.678 58.006C279.93 58.4447 280.056 58.9487 280.056 59.518C280.056 60.1153 279.911 60.6893 279.622 61.24C279.342 61.7907 278.88 62.3693 278.236 62.976C277.592 63.5827 276.724 64.25 275.632 64.978V64.992C276.248 64.964 276.71 64.95 277.018 64.95H280.252V66H274.036V65.09ZM288.792 62.094H285.922V65.048H284.872V62.094H281.988V61.044H284.872V58.104H285.922V61.044H288.792V62.094ZM293.453 56.62C294.06 56.62 294.578 56.732 295.007 56.956C295.446 57.1707 295.777 57.46 296.001 57.824C296.225 58.188 296.337 58.5893 296.337 59.028C296.337 59.4573 296.258 59.8447 296.099 60.19C295.94 60.5353 295.726 60.8107 295.455 61.016C295.194 61.212 294.909 61.31 294.601 61.31V61.338C295.189 61.338 295.66 61.5527 296.015 61.982C296.37 62.402 296.547 62.9153 296.547 63.522C296.547 64.0167 296.412 64.4647 296.141 64.866C295.88 65.2673 295.502 65.58 295.007 65.804C294.512 66.028 293.943 66.14 293.299 66.14C291.759 66.14 290.695 65.4027 290.107 63.928L291.143 63.382C291.33 63.9513 291.586 64.3807 291.913 64.67C292.249 64.95 292.739 65.09 293.383 65.09C294.008 65.09 294.498 64.936 294.853 64.628C295.208 64.3107 295.385 63.9047 295.385 63.41C295.385 62.8407 295.212 62.444 294.867 62.22C294.531 61.9867 293.994 61.87 293.257 61.87H292.893V60.82H293.257C294.536 60.82 295.175 60.2973 295.175 59.252C295.175 58.7293 295.026 58.3373 294.727 58.076C294.438 57.8053 294.018 57.67 293.467 57.67C292.926 57.67 292.492 57.796 292.165 58.048C291.848 58.2907 291.628 58.636 291.507 59.084L290.457 58.594C290.681 57.9873 291.059 57.5067 291.591 57.152C292.132 56.7973 292.753 56.62 293.453 56.62ZM298.222 55.486C299.211 56.3447 299.958 57.3293 300.462 58.44C300.966 59.5413 301.218 60.75 301.218 62.066C301.218 63.382 300.966 64.5953 300.462 65.706C299.958 66.8073 299.211 67.7873 298.222 68.646L297.578 68.002C298.493 67.1713 299.137 66.2987 299.51 65.384C299.883 64.4693 300.07 63.3633 300.07 62.066C300.07 60.7687 299.883 59.6627 299.51 58.748C299.137 57.8333 298.493 56.9607 297.578 56.13L298.222 55.486Z" fill="#F3F2EF"/>
<path d="M51 33L51 443" stroke="#F3F2EF" stroke-opacity="0.2" stroke-width="1.5" stroke-linecap="round" stroke-dasharray="3 3"/>
<path d="M288 33L288 443" stroke="#F3F2EF" stroke-opacity="0.2" stroke-width="1.5" stroke-linecap="round" stroke-dasharray="3 3"/>
<path d="M170 33L170 443" stroke="#F3F2EF" stroke-opacity="0.2" stroke-width="1.5" stroke-linecap="round" stroke-dasharray="3 3"/>
<path d="M406 33L406 443" stroke="#F3F2EF" stroke-opacity="0.2" stroke-width="1.5" stroke-linecap="round" stroke-dasharray="3 3"/>
<path d="M525 33L525 443" stroke="#F3F2EF" stroke-opacity="0.2" stroke-width="1.5" stroke-linecap="round" stroke-dasharray="3 3"/>
<path d="M643 33L643 443" stroke="#F3F2EF" stroke-opacity="0.2" stroke-width="1.5" stroke-linecap="round" stroke-dasharray="3 3"/>
<path d="M762 33L762 443" stroke="#F3F2EF" stroke-opacity="0.2" stroke-width="1.5" stroke-linecap="round" stroke-dasharray="3 3"/>
<path d="M51 88.566C116.134 76.4425 567.145 261.148 762 443" stroke="#FFFCAD" stroke-opacity="0.4" stroke-width="5" stroke-linecap="round"/>
<path d="M51 88C205.828 88.0001 618.153 380.802 762 443" stroke="#FFEE71" stroke-opacity="0.8" stroke-width="5" stroke-linecap="round"/>
<path d="M312.944 58.08V67.176H314.78V68.016H312.044V57.24H314.78V58.08H312.944ZM324.124 66H323.212V61.02L323.32 58.932H323.308L320.704 66H319.888L317.284 58.932H317.272L317.38 61.02V66H316.468V58.08H317.944L319.684 62.892L320.284 64.872H320.308L320.92 62.904L322.648 58.08H324.124V66ZM330.202 65.58C329.802 65.94 329.286 66.12 328.654 66.12C328.166 66.12 327.766 65.988 327.454 65.724C327.15 65.46 326.994 65.056 326.986 64.512V60.828H325.786V60H326.986V58.56L327.946 58.296V60H330.166V60.828H327.946V64.344C327.946 64.632 328.026 64.852 328.186 65.004C328.354 65.148 328.574 65.22 328.846 65.22C329.23 65.22 329.57 65.072 329.866 64.776L330.202 65.58ZM338.121 63.972C337.873 64.644 337.465 65.172 336.897 65.556C336.329 65.932 335.673 66.12 334.929 66.12C334.185 66.12 333.537 65.956 332.985 65.628C332.433 65.292 332.005 64.82 331.701 64.212C331.405 63.596 331.257 62.872 331.257 62.04C331.257 61.216 331.405 60.496 331.701 59.88C332.005 59.264 332.433 58.792 332.985 58.464C333.537 58.128 334.177 57.96 334.905 57.96C335.665 57.96 336.301 58.116 336.813 58.428C337.333 58.74 337.721 59.2 337.977 59.808L337.029 60.252C336.853 59.788 336.597 59.44 336.261 59.208C335.925 58.976 335.497 58.86 334.977 58.86C334.433 58.86 333.957 58.988 333.549 59.244C333.141 59.492 332.825 59.856 332.601 60.336C332.377 60.816 332.265 61.384 332.265 62.04C332.265 63.032 332.501 63.812 332.973 64.38C333.453 64.94 334.105 65.22 334.929 65.22C335.465 65.22 335.929 65.084 336.321 64.812C336.713 64.54 336.993 64.14 337.161 63.612L338.121 63.972ZM343.156 57.96C343.9 57.96 344.548 58.128 345.1 58.464C345.652 58.792 346.076 59.264 346.372 59.88C346.676 60.488 346.828 61.208 346.828 62.04C346.828 62.872 346.676 63.596 346.372 64.212C346.076 64.82 345.652 65.292 345.1 65.628C344.548 65.956 343.9 66.12 343.156 66.12C342.412 66.12 341.764 65.956 341.212 65.628C340.66 65.292 340.232 64.82 339.928 64.212C339.632 63.596 339.484 62.872 339.484 62.04C339.484 61.208 339.632 60.488 339.928 59.88C340.232 59.264 340.66 58.792 341.212 58.464C341.764 58.128 342.412 57.96 343.156 57.96ZM343.156 58.86C342.332 58.86 341.68 59.144 341.2 59.712C340.728 60.272 340.492 61.048 340.492 62.04C340.492 63.032 340.728 63.812 341.2 64.38C341.68 64.94 342.332 65.22 343.156 65.22C343.98 65.22 344.628 64.94 345.1 64.38C345.58 63.812 345.82 63.032 345.82 62.04C345.82 61.048 345.58 60.272 345.1 59.712C344.628 59.144 343.98 58.86 343.156 58.86ZM348.113 67.692C348.641 67.324 349.009 67.056 349.217 66.888C349.793 66.432 350.181 66.076 350.381 65.82C350.589 65.556 350.693 65.288 350.693 65.016C350.693 64.752 350.613 64.54 350.453 64.38C350.293 64.22 350.065 64.14 349.769 64.14C349.457 64.14 349.209 64.24 349.025 64.44C348.849 64.632 348.753 64.904 348.737 65.256L347.981 64.992C348.013 64.512 348.193 64.136 348.521 63.864C348.849 63.584 349.277 63.444 349.805 63.444C350.365 63.444 350.797 63.592 351.101 63.888C351.413 64.184 351.569 64.544 351.569 64.968C351.569 65.32 351.429 65.672 351.149 66.024C350.869 66.384 350.429 66.772 349.829 67.188L349.205 67.608V67.62C349.493 67.596 349.749 67.584 349.973 67.584H351.677V68.268H348.113V67.692ZM362.381 62.688C362.381 62.912 362.365 63.136 362.333 63.36H357.809C357.865 63.968 358.065 64.44 358.409 64.776C358.761 65.112 359.213 65.28 359.765 65.28C360.205 65.28 360.569 65.204 360.857 65.052C361.153 64.9 361.353 64.68 361.457 64.392L362.261 64.812C362.021 65.236 361.701 65.56 361.301 65.784C360.901 66.008 360.389 66.12 359.765 66.12C358.861 66.12 358.149 65.844 357.629 65.292C357.117 64.74 356.861 63.976 356.861 63C356.861 62.024 357.105 61.26 357.593 60.708C358.089 60.156 358.789 59.88 359.693 59.88C360.253 59.88 360.737 60.004 361.145 60.252C361.553 60.5 361.861 60.836 362.069 61.26C362.277 61.684 362.381 62.16 362.381 62.688ZM359.693 60.72C359.165 60.72 358.737 60.876 358.409 61.188C358.089 61.5 357.893 61.94 357.821 62.508H361.457C361.393 61.948 361.209 61.512 360.905 61.2C360.601 60.88 360.197 60.72 359.693 60.72ZM369.546 60V68.52H368.586V65.064C368.394 65.384 368.122 65.64 367.77 65.832C367.426 66.024 367.034 66.12 366.594 66.12C365.754 66.12 365.086 65.844 364.59 65.292C364.102 64.732 363.858 63.968 363.858 63C363.858 62.032 364.102 61.272 364.59 60.72C365.086 60.16 365.754 59.88 366.594 59.88C367.058 59.88 367.47 59.988 367.83 60.204C368.198 60.412 368.47 60.692 368.646 61.044L368.706 60H369.546ZM366.702 65.28C367.278 65.28 367.734 65.08 368.07 64.68C368.414 64.28 368.586 63.744 368.586 63.072V62.928C368.586 62.256 368.414 61.72 368.07 61.32C367.734 60.92 367.278 60.72 366.702 60.72C366.118 60.72 365.658 60.928 365.322 61.344C364.986 61.752 364.818 62.304 364.818 63C364.818 63.696 364.986 64.252 365.322 64.668C365.658 65.076 366.118 65.28 366.702 65.28ZM373.277 68.016H370.541V67.176H372.377V58.08H370.541V57.24H373.277V68.016Z" fill="#A6A5A3"/>
<path d="M8.764 317H7.378L3.514 310.812L2.534 308.992H2.52L2.576 310.476V317H1.512V307.76H2.898L6.748 313.92L7.742 315.768H7.756L7.7 314.284V307.76H8.764V317ZM17.4662 313.136C17.4662 313.397 17.4475 313.659 17.4102 313.92H12.1322C12.1975 314.629 12.4309 315.18 12.8322 315.572C13.2429 315.964 13.7702 316.16 14.4142 316.16C14.9275 316.16 15.3522 316.071 15.6882 315.894C16.0335 315.717 16.2669 315.46 16.3882 315.124L17.3262 315.614C17.0462 316.109 16.6729 316.487 16.2062 316.748C15.7395 317.009 15.1422 317.14 14.4142 317.14C13.3595 317.14 12.5289 316.818 11.9222 316.174C11.3249 315.53 11.0262 314.639 11.0262 313.5C11.0262 312.361 11.3109 311.47 11.8802 310.826C12.4589 310.182 13.2755 309.86 14.3302 309.86C14.9835 309.86 15.5482 310.005 16.0242 310.294C16.5002 310.583 16.8595 310.975 17.1022 311.47C17.3449 311.965 17.4662 312.52 17.4662 313.136ZM14.3302 310.84C13.7142 310.84 13.2149 311.022 12.8322 311.386C12.4589 311.75 12.2302 312.263 12.1462 312.926H16.3882C16.3135 312.273 16.0989 311.764 15.7442 311.4C15.3895 311.027 14.9182 310.84 14.3302 310.84ZM23.6739 316.51C23.2072 316.93 22.6052 317.14 21.8679 317.14C21.2986 317.14 20.8319 316.986 20.4679 316.678C20.1132 316.37 19.9312 315.899 19.9219 315.264V310.966H18.5219V310H19.9219V308.32L21.0419 308.012V310H23.6319V310.966H21.0419V315.068C21.0419 315.404 21.1352 315.661 21.3219 315.838C21.5179 316.006 21.7746 316.09 22.0919 316.09C22.5399 316.09 22.9366 315.917 23.2819 315.572L23.6739 316.51ZM37.6846 314.634C37.3953 315.418 36.9193 316.034 36.2566 316.482C35.5939 316.921 34.8286 317.14 33.9606 317.14C33.0926 317.14 32.3366 316.949 31.6926 316.566C31.0486 316.174 30.5493 315.623 30.1946 314.914C29.8493 314.195 29.6766 313.351 29.6766 312.38C29.6766 311.419 29.8493 310.579 30.1946 309.86C30.5493 309.141 31.0486 308.591 31.6926 308.208C32.3366 307.816 33.0833 307.62 33.9326 307.62C34.8193 307.62 35.5613 307.802 36.1586 308.166C36.7653 308.53 37.2179 309.067 37.5166 309.776L36.4106 310.294C36.2053 309.753 35.9066 309.347 35.5146 309.076C35.1226 308.805 34.6233 308.67 34.0166 308.67C33.3819 308.67 32.8266 308.819 32.3506 309.118C31.8746 309.407 31.5059 309.832 31.2446 310.392C30.9833 310.952 30.8526 311.615 30.8526 312.38C30.8526 313.537 31.1279 314.447 31.6786 315.11C32.2386 315.763 32.9993 316.09 33.9606 316.09C34.5859 316.09 35.1273 315.931 35.5846 315.614C36.0419 315.297 36.3686 314.83 36.5646 314.214L37.6846 314.634ZM45.3643 316.188C45.5509 316.188 45.7376 316.165 45.9243 316.118L45.8543 317C45.5929 317.093 45.3129 317.14 45.0143 317.14C44.6503 317.14 44.3609 317.061 44.1463 316.902C43.9409 316.743 43.8103 316.477 43.7543 316.104C43.5396 316.431 43.2223 316.687 42.8023 316.874C42.3916 317.051 41.9576 317.14 41.5003 317.14C40.8096 317.14 40.2403 316.981 39.7923 316.664C39.3443 316.337 39.1203 315.871 39.1203 315.264C39.1203 314.732 39.3536 314.275 39.8203 313.892C40.2869 313.5 40.9636 313.229 41.8503 313.08L43.7123 312.772V312.38C43.7123 311.913 43.5676 311.54 43.2783 311.26C42.9889 310.98 42.5876 310.84 42.0743 310.84C41.6076 310.84 41.2016 310.952 40.8563 311.176C40.5203 311.4 40.2589 311.731 40.0723 312.17L39.2463 311.568C39.4329 311.045 39.7783 310.63 40.2823 310.322C40.7956 310.014 41.3929 309.86 42.0743 309.86C42.9049 309.86 43.5723 310.061 44.0763 310.462C44.5803 310.863 44.8323 311.456 44.8323 312.24V315.684C44.8323 315.852 44.8743 315.978 44.9583 316.062C45.0423 316.146 45.1776 316.188 45.3643 316.188ZM41.5563 316.16C42.1443 316.16 42.6483 316.02 43.0683 315.74C43.4976 315.46 43.7123 315.096 43.7123 314.648V313.682L42.1443 313.976C41.5189 314.088 41.0523 314.251 40.7443 314.466C40.4363 314.671 40.2823 314.937 40.2823 315.264C40.2823 315.553 40.3943 315.777 40.6183 315.936C40.8423 316.085 41.1549 316.16 41.5563 316.16ZM50.858 309.86C51.194 309.86 51.4506 309.907 51.628 310L51.404 311.092C51.18 310.971 50.886 310.91 50.522 310.91C50.2233 310.91 49.9293 310.999 49.64 311.176C49.36 311.344 49.1266 311.605 48.94 311.96C48.7626 312.305 48.674 312.725 48.674 313.22V317H47.554V310H48.464L48.618 311.148C49.01 310.289 49.7566 309.86 50.858 309.86ZM56.7128 309.86C57.6928 309.86 58.4675 310.187 59.0368 310.84C59.6155 311.484 59.9048 312.371 59.9048 313.5C59.9048 314.629 59.6155 315.521 59.0368 316.174C58.4675 316.818 57.6928 317.14 56.7128 317.14C56.1715 317.14 55.6861 317.019 55.2568 316.776C54.8368 316.524 54.5241 316.193 54.3188 315.782L54.2488 317H53.2688V306.78H54.3888V311.092C54.6128 310.719 54.9255 310.42 55.3268 310.196C55.7375 309.972 56.1995 309.86 56.7128 309.86ZM56.5868 316.16C57.2681 316.16 57.8048 315.922 58.1968 315.446C58.5888 314.961 58.7848 314.312 58.7848 313.5C58.7848 312.688 58.5888 312.044 58.1968 311.568C57.8048 311.083 57.2681 310.84 56.5868 310.84C55.9148 310.84 55.3781 311.073 54.9768 311.54C54.5848 312.007 54.3888 312.632 54.3888 313.416V313.584C54.3888 314.368 54.5848 314.993 54.9768 315.46C55.3781 315.927 55.9148 316.16 56.5868 316.16ZM65.0412 309.86C66.0958 309.86 66.9218 310.182 67.5192 310.826C68.1258 311.47 68.4292 312.361 68.4292 313.5C68.4292 314.639 68.1258 315.53 67.5192 316.174C66.9218 316.818 66.0958 317.14 65.0412 317.14C63.9865 317.14 63.1558 316.818 62.5492 316.174C61.9518 315.53 61.6532 314.639 61.6532 313.5C61.6532 312.361 61.9518 311.47 62.5492 310.826C63.1558 310.182 63.9865 309.86 65.0412 309.86ZM65.0412 310.826C64.3318 310.826 63.7765 311.064 63.3752 311.54C62.9738 312.016 62.7732 312.669 62.7732 313.5C62.7732 314.331 62.9738 314.984 63.3752 315.46C63.7765 315.936 64.3318 316.174 65.0412 316.174C65.7505 316.174 66.3058 315.936 66.7072 315.46C67.1085 314.984 67.3092 314.331 67.3092 313.5C67.3092 312.669 67.1085 312.016 66.7072 311.54C66.3058 311.064 65.7505 310.826 65.0412 310.826ZM74.0067 309.86C74.8001 309.86 75.4534 310.089 75.9667 310.546C76.4801 311.003 76.7367 311.661 76.7367 312.52V317H75.6167V312.912C75.6167 312.184 75.4581 311.657 75.1407 311.33C74.8327 311.003 74.4174 310.84 73.8947 310.84C73.5214 310.84 73.1714 310.924 72.8447 311.092C72.5181 311.251 72.2474 311.517 72.0327 311.89C71.8274 312.254 71.7247 312.716 71.7247 313.276V317H70.6047V310H71.5847L71.6547 311.092C71.8881 310.672 72.2101 310.364 72.6207 310.168C73.0314 309.963 73.4934 309.86 74.0067 309.86ZM85.3742 308.81V311.792H89.5462V312.842H85.3742V317H84.2542V307.76H90.7222V308.81H85.3742ZM94.7775 309.86C95.8322 309.86 96.6582 310.182 97.2555 310.826C97.8622 311.47 98.1655 312.361 98.1655 313.5C98.1655 314.639 97.8622 315.53 97.2555 316.174C96.6582 316.818 95.8322 317.14 94.7775 317.14C93.7228 317.14 92.8922 316.818 92.2855 316.174C91.6882 315.53 91.3895 314.639 91.3895 313.5C91.3895 312.361 91.6882 311.47 92.2855 310.826C92.8922 310.182 93.7228 309.86 94.7775 309.86ZM94.7775 310.826C94.0682 310.826 93.5128 311.064 93.1115 311.54C92.7102 312.016 92.5095 312.669 92.5095 313.5C92.5095 314.331 92.7102 314.984 93.1115 315.46C93.5128 315.936 94.0682 316.174 94.7775 316.174C95.4868 316.174 96.0422 315.936 96.4435 315.46C96.8448 314.984 97.0455 314.331 97.0455 313.5C97.0455 312.669 96.8448 312.016 96.4435 311.54C96.0422 311.064 95.4868 310.826 94.7775 310.826ZM103.295 309.86C104.35 309.86 105.176 310.182 105.773 310.826C106.38 311.47 106.683 312.361 106.683 313.5C106.683 314.639 106.38 315.53 105.773 316.174C105.176 316.818 104.35 317.14 103.295 317.14C102.24 317.14 101.41 316.818 100.803 316.174C100.206 315.53 99.9071 314.639 99.9071 313.5C99.9071 312.361 100.206 311.47 100.803 310.826C101.41 310.182 102.24 309.86 103.295 309.86ZM103.295 310.826C102.586 310.826 102.03 311.064 101.629 311.54C101.228 312.016 101.027 312.669 101.027 313.5C101.027 314.331 101.228 314.984 101.629 315.46C102.03 315.936 102.586 316.174 103.295 316.174C104.004 316.174 104.56 315.936 104.961 315.46C105.362 314.984 105.563 314.331 105.563 313.5C105.563 312.669 105.362 312.016 104.961 311.54C104.56 311.064 104.004 310.826 103.295 310.826ZM113.02 316.51C112.553 316.93 111.951 317.14 111.214 317.14C110.644 317.14 110.178 316.986 109.814 316.678C109.459 316.37 109.277 315.899 109.268 315.264V310.966H107.868V310H109.268V308.32L110.388 308.012V310H112.978V310.966H110.388V315.068C110.388 315.404 110.481 315.661 110.668 315.838C110.864 316.006 111.12 316.09 111.438 316.09C111.886 316.09 112.282 315.917 112.628 315.572L113.02 316.51ZM118.045 309.86C119.025 309.86 119.799 310.187 120.369 310.84C120.947 311.484 121.237 312.371 121.237 313.5C121.237 314.629 120.947 315.521 120.369 316.174C119.799 316.818 119.025 317.14 118.045 317.14C117.531 317.14 117.069 317.028 116.659 316.804C116.257 316.58 115.945 316.281 115.721 315.908V319.94H114.601V310H115.581L115.651 311.218C115.856 310.807 116.169 310.481 116.589 310.238C117.018 309.986 117.503 309.86 118.045 309.86ZM117.919 316.16C118.6 316.16 119.137 315.922 119.529 315.446C119.921 314.961 120.117 314.312 120.117 313.5C120.117 312.688 119.921 312.044 119.529 311.568C119.137 311.083 118.6 310.84 117.919 310.84C117.247 310.84 116.71 311.073 116.309 311.54C115.917 312.007 115.721 312.632 115.721 313.416V313.584C115.721 314.368 115.917 314.993 116.309 315.46C116.71 315.927 117.247 316.16 117.919 316.16ZM126.723 309.86C127.059 309.86 127.316 309.907 127.493 310L127.269 311.092C127.045 310.971 126.751 310.91 126.387 310.91C126.089 310.91 125.795 310.999 125.505 311.176C125.225 311.344 124.992 311.605 124.805 311.96C124.628 312.305 124.539 312.725 124.539 313.22V317H123.419V310H124.329L124.483 311.148C124.875 310.289 125.622 309.86 126.723 309.86ZM129.694 308.656C129.442 308.656 129.237 308.581 129.078 308.432C128.929 308.273 128.854 308.068 128.854 307.816C128.854 307.564 128.929 307.363 129.078 307.214C129.237 307.055 129.442 306.976 129.694 306.976C129.946 306.976 130.147 307.055 130.296 307.214C130.455 307.363 130.534 307.564 130.534 307.816C130.534 308.068 130.455 308.273 130.296 308.432C130.147 308.581 129.946 308.656 129.694 308.656ZM130.254 317H129.134V310H130.254V317ZM136.255 309.86C137.048 309.86 137.701 310.089 138.215 310.546C138.728 311.003 138.985 311.661 138.985 312.52V317H137.865V312.912C137.865 312.184 137.706 311.657 137.389 311.33C137.081 311.003 136.665 310.84 136.143 310.84C135.769 310.84 135.419 310.924 135.093 311.092C134.766 311.251 134.495 311.517 134.281 311.89C134.075 312.254 133.973 312.716 133.973 313.276V317H132.853V310H133.833L133.903 311.092C134.136 310.672 134.458 310.364 134.869 310.168C135.279 309.963 135.741 309.86 136.255 309.86ZM145.709 316.51C145.242 316.93 144.64 317.14 143.903 317.14C143.334 317.14 142.867 316.986 142.503 316.678C142.148 316.37 141.966 315.899 141.957 315.264V310.966H140.557V310H141.957V308.32L143.077 308.012V310H145.667V310.966H143.077V315.068C143.077 315.404 143.17 315.661 143.357 315.838C143.553 316.006 143.81 316.09 144.127 316.09C144.575 316.09 144.972 315.917 145.317 315.572L145.709 316.51ZM158.964 315.95V317H152.272V307.76H158.754V308.81H153.392V311.792H157.564V312.842H153.392V315.95H158.964ZM164.392 309.86C165.185 309.86 165.838 310.089 166.352 310.546C166.865 311.003 167.122 311.661 167.122 312.52V317H166.002V312.912C166.002 312.184 165.843 311.657 165.526 311.33C165.218 311.003 164.802 310.84 164.28 310.84C163.906 310.84 163.556 310.924 163.23 311.092C162.903 311.251 162.632 311.517 162.418 311.89C162.212 312.254 162.11 312.716 162.11 313.276V317H160.99V310H161.97L162.04 311.092C162.273 310.672 162.595 310.364 163.006 310.168C163.416 309.963 163.878 309.86 164.392 309.86ZM170.217 308.656C169.965 308.656 169.76 308.581 169.601 308.432C169.452 308.273 169.377 308.068 169.377 307.816C169.377 307.564 169.452 307.363 169.601 307.214C169.76 307.055 169.965 306.976 170.217 306.976C170.469 306.976 170.67 307.055 170.819 307.214C170.978 307.363 171.057 307.564 171.057 307.816C171.057 308.068 170.978 308.273 170.819 308.432C170.67 308.581 170.469 308.656 170.217 308.656ZM170.777 317H169.657V310H170.777V317ZM181.34 307.13C180.425 307.961 179.781 308.833 179.408 309.748C179.034 310.663 178.848 311.769 178.848 313.066C178.848 314.363 179.034 315.469 179.408 316.384C179.781 317.299 180.425 318.171 181.34 319.002L180.696 319.646C179.706 318.787 178.96 317.807 178.456 316.706C177.952 315.595 177.7 314.382 177.7 313.066C177.7 311.75 177.952 310.541 178.456 309.44C178.96 308.329 179.706 307.345 180.696 306.486L181.34 307.13ZM185.824 307.62C187.476 307.62 188.666 308.273 189.394 309.58L188.428 310.364C188.148 309.748 187.812 309.314 187.42 309.062C187.037 308.801 186.51 308.67 185.838 308.67C185.128 308.67 184.568 308.819 184.158 309.118C183.756 309.407 183.556 309.781 183.556 310.238C183.556 310.537 183.635 310.784 183.794 310.98C183.952 311.176 184.214 311.349 184.578 311.498C184.951 311.638 185.464 311.764 186.118 311.876C187.34 312.081 188.204 312.389 188.708 312.8C189.221 313.211 189.478 313.78 189.478 314.508C189.478 315.031 189.328 315.493 189.03 315.894C188.74 316.286 188.325 316.594 187.784 316.818C187.242 317.033 186.617 317.14 185.908 317.14C184.974 317.14 184.176 316.958 183.514 316.594C182.86 316.23 182.361 315.745 182.016 315.138L182.982 314.354C183.234 314.905 183.602 315.334 184.088 315.642C184.582 315.941 185.198 316.09 185.936 316.09C186.664 316.09 187.242 315.959 187.672 315.698C188.101 315.427 188.316 315.049 188.316 314.564C188.316 314.153 188.129 313.827 187.756 313.584C187.382 313.341 186.72 313.136 185.768 312.968C184.536 312.753 183.663 312.445 183.15 312.044C182.636 311.643 182.38 311.083 182.38 310.364C182.38 309.869 182.52 309.412 182.8 308.992C183.08 308.572 183.481 308.241 184.004 307.998C184.526 307.746 185.133 307.62 185.824 307.62ZM194.569 309.86C195.269 309.86 195.857 310.023 196.333 310.35C196.818 310.667 197.196 311.125 197.467 311.722L196.403 312.226C196.104 311.302 195.483 310.84 194.541 310.84C193.841 310.84 193.29 311.078 192.889 311.554C192.497 312.021 192.301 312.669 192.301 313.5C192.301 314.331 192.497 314.984 192.889 315.46C193.29 315.927 193.841 316.16 194.541 316.16C195.082 316.16 195.516 316.039 195.843 315.796C196.179 315.544 196.398 315.185 196.501 314.718L197.537 315.082C197.294 315.735 196.921 316.244 196.417 316.608C195.913 316.963 195.297 317.14 194.569 317.14C193.514 317.14 192.683 316.818 192.077 316.174C191.479 315.53 191.181 314.639 191.181 313.5C191.181 312.361 191.479 311.47 192.077 310.826C192.683 310.182 193.514 309.86 194.569 309.86ZM202.471 309.86C203.526 309.86 204.352 310.182 204.949 310.826C205.556 311.47 205.859 312.361 205.859 313.5C205.859 314.639 205.556 315.53 204.949 316.174C204.352 316.818 203.526 317.14 202.471 317.14C201.416 317.14 200.586 316.818 199.979 316.174C199.382 315.53 199.083 314.639 199.083 313.5C199.083 312.361 199.382 311.47 199.979 310.826C200.586 310.182 201.416 309.86 202.471 309.86ZM202.471 310.826C201.762 310.826 201.206 311.064 200.805 311.54C200.404 312.016 200.203 312.669 200.203 313.5C200.203 314.331 200.404 314.984 200.805 315.46C201.206 315.936 201.762 316.174 202.471 316.174C203.18 316.174 203.736 315.936 204.137 315.46C204.538 314.984 204.739 314.331 204.739 313.5C204.739 312.669 204.538 312.016 204.137 311.54C203.736 311.064 203.18 310.826 202.471 310.826ZM211.478 309.86C212.458 309.86 213.233 310.187 213.802 310.84C214.381 311.484 214.67 312.371 214.67 313.5C214.67 314.629 214.381 315.521 213.802 316.174C213.233 316.818 212.458 317.14 211.478 317.14C210.965 317.14 210.503 317.028 210.092 316.804C209.691 316.58 209.378 316.281 209.154 315.908V319.94H208.034V310H209.014L209.084 311.218C209.29 310.807 209.602 310.481 210.022 310.238C210.452 309.986 210.937 309.86 211.478 309.86ZM211.352 316.16C212.034 316.16 212.57 315.922 212.962 315.446C213.354 314.961 213.55 314.312 213.55 313.5C213.55 312.688 213.354 312.044 212.962 311.568C212.57 311.083 212.034 310.84 211.352 310.84C210.68 310.84 210.144 311.073 209.742 311.54C209.35 312.007 209.154 312.632 209.154 313.416V313.584C209.154 314.368 209.35 314.993 209.742 315.46C210.144 315.927 210.68 316.16 211.352 316.16ZM222.859 313.136C222.859 313.397 222.84 313.659 222.803 313.92H217.525C217.59 314.629 217.823 315.18 218.225 315.572C218.635 315.964 219.163 316.16 219.807 316.16C220.32 316.16 220.745 316.071 221.081 315.894C221.426 315.717 221.659 315.46 221.781 315.124L222.719 315.614C222.439 316.109 222.065 316.487 221.599 316.748C221.132 317.009 220.535 317.14 219.807 317.14C218.752 317.14 217.921 316.818 217.315 316.174C216.717 315.53 216.419 314.639 216.419 313.5C216.419 312.361 216.703 311.47 217.273 310.826C217.851 310.182 218.668 309.86 219.723 309.86C220.376 309.86 220.941 310.005 221.417 310.294C221.893 310.583 222.252 310.975 222.495 311.47C222.737 311.965 222.859 312.52 222.859 313.136ZM219.723 310.84C219.107 310.84 218.607 311.022 218.225 311.386C217.851 311.75 217.623 312.263 217.539 312.926H221.781C221.706 312.273 221.491 311.764 221.137 311.4C220.782 311.027 220.311 310.84 219.723 310.84ZM232.482 307.76V317H231.362V310.224C231.362 310.028 231.371 309.669 231.39 309.146C231.072 309.454 230.704 309.725 230.284 309.958C229.864 310.182 229.434 310.345 228.996 310.448L228.702 309.426C228.926 309.398 229.229 309.295 229.612 309.118C229.994 308.931 230.363 308.717 230.718 308.474C231.072 308.222 231.334 307.984 231.502 307.76H232.482ZM241.542 313.094H238.672V316.048H237.622V313.094H234.738V312.044H237.622V309.104H238.672V312.044H241.542V313.094ZM243.138 316.09C244.416 315.147 245.396 314.373 246.078 313.766C246.759 313.15 247.244 312.595 247.534 312.1C247.832 311.596 247.982 311.069 247.982 310.518C247.982 309.967 247.804 309.524 247.45 309.188C247.095 308.843 246.619 308.67 246.022 308.67C245.396 308.67 244.888 308.875 244.496 309.286C244.113 309.697 243.889 310.252 243.824 310.952L242.844 310.364C242.965 309.533 243.301 308.871 243.852 308.376C244.412 307.872 245.149 307.62 246.064 307.62C246.68 307.62 247.221 307.741 247.688 307.984C248.164 308.227 248.528 308.567 248.78 309.006C249.032 309.445 249.158 309.949 249.158 310.518C249.158 311.115 249.013 311.689 248.724 312.24C248.444 312.791 247.982 313.369 247.338 313.976C246.694 314.583 245.826 315.25 244.734 315.978V315.992C245.35 315.964 245.812 315.95 246.12 315.95H249.354V317H243.138V316.09ZM251.095 306.486C252.084 307.345 252.831 308.329 253.335 309.44C253.839 310.541 254.091 311.75 254.091 313.066C254.091 314.382 253.839 315.595 253.335 316.706C252.831 317.807 252.084 318.787 251.095 319.646L250.451 319.002C251.366 318.171 252.01 317.299 252.383 316.384C252.756 315.469 252.943 314.363 252.943 313.066C252.943 311.769 252.756 310.663 252.383 309.748C252.01 308.833 251.366 307.961 250.451 307.13L251.095 306.486Z" fill="#F3F2EF"/>
<path d="M264.944 308.58V317.676H266.78V318.516H264.044V307.74H266.78V308.58H264.944ZM276.124 316.5H275.212V311.52L275.32 309.432H275.308L272.704 316.5H271.888L269.284 309.432H269.272L269.38 311.52V316.5H268.468V308.58H269.944L271.684 313.392L272.284 315.372H272.308L272.92 313.404L274.648 308.58H276.124V316.5ZM282.202 316.08C281.802 316.44 281.286 316.62 280.654 316.62C280.166 316.62 279.766 316.488 279.454 316.224C279.15 315.96 278.994 315.556 278.986 315.012V311.328H277.786V310.5H278.986V309.06L279.946 308.796V310.5H282.166V311.328H279.946V314.844C279.946 315.132 280.026 315.352 280.186 315.504C280.354 315.648 280.574 315.72 280.846 315.72C281.23 315.72 281.57 315.572 281.866 315.276L282.202 316.08ZM290.121 314.472C289.873 315.144 289.465 315.672 288.897 316.056C288.329 316.432 287.673 316.62 286.929 316.62C286.185 316.62 285.537 316.456 284.985 316.128C284.433 315.792 284.005 315.32 283.701 314.712C283.405 314.096 283.257 313.372 283.257 312.54C283.257 311.716 283.405 310.996 283.701 310.38C284.005 309.764 284.433 309.292 284.985 308.964C285.537 308.628 286.177 308.46 286.905 308.46C287.665 308.46 288.301 308.616 288.813 308.928C289.333 309.24 289.721 309.7 289.977 310.308L289.029 310.752C288.853 310.288 288.597 309.94 288.261 309.708C287.925 309.476 287.497 309.36 286.977 309.36C286.433 309.36 285.957 309.488 285.549 309.744C285.141 309.992 284.825 310.356 284.601 310.836C284.377 311.316 284.265 311.884 284.265 312.54C284.265 313.532 284.501 314.312 284.973 314.88C285.453 315.44 286.105 315.72 286.929 315.72C287.465 315.72 287.929 315.584 288.321 315.312C288.713 315.04 288.993 314.64 289.161 314.112L290.121 314.472ZM295.156 308.46C295.9 308.46 296.548 308.628 297.1 308.964C297.652 309.292 298.076 309.764 298.372 310.38C298.676 310.988 298.828 311.708 298.828 312.54C298.828 313.372 298.676 314.096 298.372 314.712C298.076 315.32 297.652 315.792 297.1 316.128C296.548 316.456 295.9 316.62 295.156 316.62C294.412 316.62 293.764 316.456 293.212 316.128C292.66 315.792 292.232 315.32 291.928 314.712C291.632 314.096 291.484 313.372 291.484 312.54C291.484 311.708 291.632 310.988 291.928 310.38C292.232 309.764 292.66 309.292 293.212 308.964C293.764 308.628 294.412 308.46 295.156 308.46ZM295.156 309.36C294.332 309.36 293.68 309.644 293.2 310.212C292.728 310.772 292.492 311.548 292.492 312.54C292.492 313.532 292.728 314.312 293.2 314.88C293.68 315.44 294.332 315.72 295.156 315.72C295.98 315.72 296.628 315.44 297.1 314.88C297.58 314.312 297.82 313.532 297.82 312.54C297.82 311.548 297.58 310.772 297.1 310.212C296.628 309.644 295.98 309.36 295.156 309.36ZM300.113 318.192C300.641 317.824 301.009 317.556 301.217 317.388C301.793 316.932 302.181 316.576 302.381 316.32C302.589 316.056 302.693 315.788 302.693 315.516C302.693 315.252 302.613 315.04 302.453 314.88C302.293 314.72 302.065 314.64 301.769 314.64C301.457 314.64 301.209 314.74 301.025 314.94C300.849 315.132 300.753 315.404 300.737 315.756L299.981 315.492C300.013 315.012 300.193 314.636 300.521 314.364C300.849 314.084 301.277 313.944 301.805 313.944C302.365 313.944 302.797 314.092 303.101 314.388C303.413 314.684 303.569 315.044 303.569 315.468C303.569 315.82 303.429 316.172 303.149 316.524C302.869 316.884 302.429 317.272 301.829 317.688L301.205 318.108V318.12C301.493 318.096 301.749 318.084 301.973 318.084H303.677V318.768H300.113V318.192ZM314.381 313.188C314.381 313.412 314.365 313.636 314.333 313.86H309.809C309.865 314.468 310.065 314.94 310.409 315.276C310.761 315.612 311.213 315.78 311.765 315.78C312.205 315.78 312.569 315.704 312.857 315.552C313.153 315.4 313.353 315.18 313.457 314.892L314.261 315.312C314.021 315.736 313.701 316.06 313.301 316.284C312.901 316.508 312.389 316.62 311.765 316.62C310.861 316.62 310.149 316.344 309.629 315.792C309.117 315.24 308.861 314.476 308.861 313.5C308.861 312.524 309.105 311.76 309.593 311.208C310.089 310.656 310.789 310.38 311.693 310.38C312.253 310.38 312.737 310.504 313.145 310.752C313.553 311 313.861 311.336 314.069 311.76C314.277 312.184 314.381 312.66 314.381 313.188ZM311.693 311.22C311.165 311.22 310.737 311.376 310.409 311.688C310.089 312 309.893 312.44 309.821 313.008H313.457C313.393 312.448 313.209 312.012 312.905 311.7C312.601 311.38 312.197 311.22 311.693 311.22ZM321.546 310.5V319.02H320.586V315.564C320.394 315.884 320.122 316.14 319.77 316.332C319.426 316.524 319.034 316.62 318.594 316.62C317.754 316.62 317.086 316.344 316.59 315.792C316.102 315.232 315.858 314.468 315.858 313.5C315.858 312.532 316.102 311.772 316.59 311.22C317.086 310.66 317.754 310.38 318.594 310.38C319.058 310.38 319.47 310.488 319.83 310.704C320.198 310.912 320.47 311.192 320.646 311.544L320.706 310.5H321.546ZM318.702 315.78C319.278 315.78 319.734 315.58 320.07 315.18C320.414 314.78 320.586 314.244 320.586 313.572V313.428C320.586 312.756 320.414 312.22 320.07 311.82C319.734 311.42 319.278 311.22 318.702 311.22C318.118 311.22 317.658 311.428 317.322 311.844C316.986 312.252 316.818 312.804 316.818 313.5C316.818 314.196 316.986 314.752 317.322 315.168C317.658 315.576 318.118 315.78 318.702 315.78ZM325.277 318.516H322.541V317.676H324.377V308.58H322.541V307.74H325.277V318.516Z" fill="#A6A5A3"/>
<path d="M35.2163 13.894C36.4297 13.0447 37.3723 12.326 38.0443 11.738C38.7163 11.1407 39.197 10.5993 39.4863 10.114C39.785 9.61933 39.9343 9.11067 39.9343 8.588C39.9343 8.09333 39.7757 7.692 39.4583 7.384C39.1503 7.076 38.7257 6.922 38.1843 6.922C37.6057 6.922 37.1437 7.11333 36.7983 7.496C36.4623 7.87867 36.271 8.41067 36.2243 9.092L34.9223 8.49C35.0157 7.60333 35.3563 6.90333 35.9443 6.39C36.5323 5.87667 37.307 5.62 38.2683 5.62C38.931 5.62 39.505 5.75067 39.9903 6.012C40.4757 6.264 40.8443 6.60933 41.0963 7.048C41.3483 7.48667 41.4743 7.98133 41.4743 8.532C41.4743 9.41867 41.143 10.2633 40.4803 11.066C39.827 11.8687 38.735 12.76 37.2043 13.74V13.768C37.671 13.7307 38.1797 13.712 38.7303 13.712H41.6423V15H35.2163V13.894ZM46.8491 15.14C45.6825 15.14 44.7958 14.7387 44.1891 13.936C43.5918 13.124 43.2931 11.9387 43.2931 10.38C43.2931 8.82133 43.5918 7.64067 44.1891 6.838C44.7958 6.026 45.6825 5.62 46.8491 5.62C48.0158 5.62 48.9025 6.026 49.5091 6.838C50.1158 7.64067 50.4191 8.82133 50.4191 10.38C50.4191 11.9387 50.1158 13.124 49.5091 13.936C48.9025 14.7387 48.0158 15.14 46.8491 15.14ZM46.8491 13.866C47.5211 13.866 48.0298 13.5767 48.3751 12.998C48.7205 12.41 48.8931 11.5373 48.8931 10.38C48.8931 9.22267 48.7205 8.35467 48.3751 7.776C48.0298 7.188 47.5211 6.894 46.8491 6.894C45.4958 6.894 44.8191 8.056 44.8191 10.38C44.8191 12.704 45.4958 13.866 46.8491 13.866ZM55.7801 5.76V15H54.3101V8.168C54.3101 7.85067 54.3148 7.60333 54.3241 7.426C54.0068 7.734 53.6428 8 53.2321 8.224C52.8308 8.448 52.4201 8.60667 52.0001 8.7L51.7201 7.398C51.9628 7.37 52.2755 7.26733 52.6581 7.09C53.0501 6.91267 53.4188 6.70267 53.7641 6.46C54.1095 6.21733 54.3615 5.984 54.5201 5.76H55.7801ZM61.4357 5.634C62.3784 5.634 63.1297 5.858 63.6897 6.306C64.2497 6.754 64.5297 7.356 64.5297 8.112C64.5297 8.588 64.4084 9.00333 64.1657 9.358C63.9324 9.71267 63.601 9.98333 63.1717 10.17V10.184C63.7224 10.3893 64.147 10.688 64.4457 11.08C64.7537 11.472 64.9077 11.9527 64.9077 12.522C64.9077 13.3247 64.595 13.964 63.9697 14.44C63.3444 14.9067 62.4997 15.14 61.4357 15.14C60.3717 15.14 59.5224 14.9067 58.8877 14.44C58.2624 13.964 57.9497 13.3247 57.9497 12.522C57.9497 11.962 58.1037 11.4813 58.4117 11.08C58.7197 10.6787 59.149 10.38 59.6997 10.184V10.17C59.2704 9.99267 58.9344 9.72667 58.6917 9.372C58.449 9.008 58.3277 8.588 58.3277 8.112C58.3277 7.34667 58.6077 6.74467 59.1677 6.306C59.7277 5.858 60.4837 5.634 61.4357 5.634ZM61.4357 6.894C60.941 6.894 60.549 7.01533 60.2597 7.258C59.9704 7.49133 59.8257 7.82267 59.8257 8.252C59.8257 8.672 59.9704 9.00333 60.2597 9.246C60.549 9.47933 60.941 9.596 61.4357 9.596C61.921 9.596 62.3084 9.47933 62.5977 9.246C62.8964 9.00333 63.0457 8.672 63.0457 8.252C63.0457 7.832 62.901 7.50067 62.6117 7.258C62.3224 7.01533 61.9304 6.894 61.4357 6.894ZM61.4357 13.88C62.0424 13.88 62.5184 13.7447 62.8637 13.474C63.2184 13.2033 63.3957 12.83 63.3957 12.354C63.3957 11.878 63.2184 11.5047 62.8637 11.234C62.509 10.954 62.033 10.814 61.4357 10.814C60.8384 10.814 60.3577 10.954 59.9937 11.234C59.639 11.5047 59.4617 11.878 59.4617 12.354C59.4617 12.83 59.639 13.2033 59.9937 13.474C60.3484 13.7447 60.829 13.88 61.4357 13.88Z" fill="#F3F2EF"/>
<rect x="10.5" y="0.5" width="79" height="19" rx="9.5" stroke="#F3F2EF"/>
<path d="M272.088 13.894C273.302 13.0447 274.244 12.326 274.916 11.738C275.588 11.1407 276.069 10.5993 276.358 10.114C276.657 9.61933 276.806 9.11067 276.806 8.588C276.806 8.09333 276.648 7.692 276.33 7.384C276.022 7.076 275.598 6.922 275.056 6.922C274.478 6.922 274.016 7.11333 273.67 7.496C273.334 7.87867 273.143 8.41067 273.096 9.092L271.794 8.49C271.888 7.60333 272.228 6.90333 272.816 6.39C273.404 5.87667 274.179 5.62 275.14 5.62C275.803 5.62 276.377 5.75067 276.862 6.012C277.348 6.264 277.716 6.60933 277.968 7.048C278.22 7.48667 278.346 7.98133 278.346 8.532C278.346 9.41867 278.015 10.2633 277.352 11.066C276.699 11.8687 275.607 12.76 274.076 13.74V13.768C274.543 13.7307 275.052 13.712 275.602 13.712H278.514V15H272.088V13.894ZM283.721 15.14C282.555 15.14 281.668 14.7387 281.061 13.936C280.464 13.124 280.165 11.9387 280.165 10.38C280.165 8.82133 280.464 7.64067 281.061 6.838C281.668 6.026 282.555 5.62 283.721 5.62C284.888 5.62 285.775 6.026 286.381 6.838C286.988 7.64067 287.291 8.82133 287.291 10.38C287.291 11.9387 286.988 13.124 286.381 13.936C285.775 14.7387 284.888 15.14 283.721 15.14ZM283.721 13.866C284.393 13.866 284.902 13.5767 285.247 12.998C285.593 12.41 285.765 11.5373 285.765 10.38C285.765 9.22267 285.593 8.35467 285.247 7.776C284.902 7.188 284.393 6.894 283.721 6.894C282.368 6.894 281.691 8.056 281.691 10.38C281.691 12.704 282.368 13.866 283.721 13.866ZM291.999 5.62C292.634 5.62 293.175 5.732 293.623 5.956C294.081 6.17067 294.426 6.46467 294.659 6.838C294.893 7.21133 295.009 7.62667 295.009 8.084C295.009 8.52267 294.921 8.91467 294.743 9.26C294.575 9.596 294.356 9.85733 294.085 10.044C293.824 10.2307 293.553 10.324 293.273 10.324V10.352C293.628 10.352 293.95 10.4407 294.239 10.618C294.538 10.7953 294.776 11.0473 294.953 11.374C295.131 11.7007 295.219 12.0787 295.219 12.508C295.219 13.012 295.079 13.4647 294.799 13.866C294.519 14.2673 294.123 14.58 293.609 14.804C293.105 15.028 292.522 15.14 291.859 15.14C290.189 15.14 289.083 14.3933 288.541 12.9L289.913 12.242C290.053 12.7833 290.277 13.1893 290.585 13.46C290.893 13.7213 291.337 13.852 291.915 13.852C292.475 13.852 292.914 13.7167 293.231 13.446C293.549 13.166 293.707 12.7973 293.707 12.34C293.707 11.836 293.553 11.4813 293.245 11.276C292.947 11.0613 292.466 10.954 291.803 10.954H291.383V9.764H291.761C292.919 9.764 293.497 9.288 293.497 8.336C293.497 7.86933 293.362 7.51467 293.091 7.272C292.83 7.02933 292.457 6.908 291.971 6.908C291.477 6.908 291.08 7.02933 290.781 7.272C290.492 7.50533 290.305 7.84133 290.221 8.28L288.849 7.72C289.045 7.048 289.423 6.53 289.983 6.166C290.553 5.802 291.225 5.62 291.999 5.62ZM300.497 15.14C299.33 15.14 298.443 14.7387 297.837 13.936C297.239 13.124 296.941 11.9387 296.941 10.38C296.941 8.82133 297.239 7.64067 297.837 6.838C298.443 6.026 299.33 5.62 300.497 5.62C301.663 5.62 302.55 6.026 303.157 6.838C303.763 7.64067 304.067 8.82133 304.067 10.38C304.067 11.9387 303.763 13.124 303.157 13.936C302.55 14.7387 301.663 15.14 300.497 15.14ZM300.497 13.866C301.169 13.866 301.677 13.5767 302.023 12.998C302.368 12.41 302.541 11.5373 302.541 10.38C302.541 9.22267 302.368 8.35467 302.023 7.776C301.677 7.188 301.169 6.894 300.497 6.894C299.143 6.894 298.467 8.056 298.467 10.38C298.467 12.704 299.143 13.866 300.497 13.866Z" fill="#F3F2EF"/>
<rect x="247.5" y="0.5" width="81" height="19" rx="9.5" stroke="#F3F2EF"/>
<path d="M509.226 13.894C510.439 13.0447 511.382 12.326 512.054 11.738C512.726 11.1407 513.207 10.5993 513.496 10.114C513.795 9.61933 513.944 9.11067 513.944 8.588C513.944 8.09333 513.785 7.692 513.468 7.384C513.16 7.076 512.735 6.922 512.194 6.922C511.615 6.922 511.153 7.11333 510.808 7.496C510.472 7.87867 510.281 8.41067 510.234 9.092L508.932 8.49C509.025 7.60333 509.366 6.90333 509.954 6.39C510.542 5.87667 511.317 5.62 512.278 5.62C512.941 5.62 513.515 5.75067 514 6.012C514.485 6.264 514.854 6.60933 515.106 7.048C515.358 7.48667 515.484 7.98133 515.484 8.532C515.484 9.41867 515.153 10.2633 514.49 11.066C513.837 11.8687 512.745 12.76 511.214 13.74V13.768C511.681 13.7307 512.189 13.712 512.74 13.712H515.652V15H509.226V13.894ZM520.859 15.14C519.692 15.14 518.806 14.7387 518.199 13.936C517.602 13.124 517.303 11.9387 517.303 10.38C517.303 8.82133 517.602 7.64067 518.199 6.838C518.806 6.026 519.692 5.62 520.859 5.62C522.026 5.62 522.912 6.026 523.519 6.838C524.126 7.64067 524.429 8.82133 524.429 10.38C524.429 11.9387 524.126 13.124 523.519 13.936C522.912 14.7387 522.026 15.14 520.859 15.14ZM520.859 13.866C521.531 13.866 522.04 13.5767 522.385 12.998C522.73 12.41 522.903 11.5373 522.903 10.38C522.903 9.22267 522.73 8.35467 522.385 7.776C522.04 7.188 521.531 6.894 520.859 6.894C519.506 6.894 518.829 8.056 518.829 10.38C518.829 12.704 519.506 13.866 520.859 13.866ZM533.36 12.69H531.792V15H530.378V12.69H525.828V11.78L529.958 5.76H531.792V11.528H533.36V12.69ZM527.326 11.528H530.378V8.364L530.434 6.866H530.406C530.182 7.342 529.883 7.85533 529.51 8.406L527.326 11.528ZM538.359 15.14C537.192 15.14 536.306 14.7387 535.699 13.936C535.102 13.124 534.803 11.9387 534.803 10.38C534.803 8.82133 535.102 7.64067 535.699 6.838C536.306 6.026 537.192 5.62 538.359 5.62C539.526 5.62 540.412 6.026 541.019 6.838C541.626 7.64067 541.929 8.82133 541.929 10.38C541.929 11.9387 541.626 13.124 541.019 13.936C540.412 14.7387 539.526 15.14 538.359 15.14ZM538.359 13.866C539.031 13.866 539.54 13.5767 539.885 12.998C540.23 12.41 540.403 11.5373 540.403 10.38C540.403 9.22267 540.23 8.35467 539.885 7.776C539.54 7.188 539.031 6.894 538.359 6.894C537.006 6.894 536.329 8.056 536.329 10.38C536.329 12.704 537.006 13.866 538.359 13.866Z" fill="#F3F2EF"/>
<rect x="484.5" y="0.5" width="82" height="19" rx="9.5" stroke="#F3F2EF"/>
<path d="M746.02 13.894C747.233 13.0447 748.176 12.326 748.848 11.738C749.52 11.1407 750.001 10.5993 750.29 10.114C750.589 9.61933 750.738 9.11067 750.738 8.588C750.738 8.09333 750.579 7.692 750.262 7.384C749.954 7.076 749.529 6.922 748.988 6.922C748.409 6.922 747.947 7.11333 747.602 7.496C747.266 7.87867 747.075 8.41067 747.028 9.092L745.726 8.49C745.819 7.60333 746.16 6.90333 746.748 6.39C747.336 5.87667 748.111 5.62 749.072 5.62C749.735 5.62 750.309 5.75067 750.794 6.012C751.279 6.264 751.648 6.60933 751.9 7.048C752.152 7.48667 752.278 7.98133 752.278 8.532C752.278 9.41867 751.947 10.2633 751.284 11.066C750.631 11.8687 749.539 12.76 748.008 13.74V13.768C748.475 13.7307 748.983 13.712 749.534 13.712H752.446V15H746.02V13.894ZM757.653 15.14C756.486 15.14 755.6 14.7387 754.993 13.936C754.396 13.124 754.097 11.9387 754.097 10.38C754.097 8.82133 754.396 7.64067 754.993 6.838C755.6 6.026 756.486 5.62 757.653 5.62C758.82 5.62 759.706 6.026 760.313 6.838C760.92 7.64067 761.223 8.82133 761.223 10.38C761.223 11.9387 760.92 13.124 760.313 13.936C759.706 14.7387 758.82 15.14 757.653 15.14ZM757.653 13.866C758.325 13.866 758.834 13.5767 759.179 12.998C759.524 12.41 759.697 11.5373 759.697 10.38C759.697 9.22267 759.524 8.35467 759.179 7.776C758.834 7.188 758.325 6.894 757.653 6.894C756.3 6.894 755.623 8.056 755.623 10.38C755.623 12.704 756.3 13.866 757.653 13.866ZM766.487 9.064C767.075 9.064 767.588 9.19 768.027 9.442C768.465 9.68467 768.801 10.0253 769.035 10.464C769.277 10.9027 769.399 11.4113 769.399 11.99C769.399 12.9887 769.1 13.7633 768.503 14.314C767.905 14.8647 767.107 15.14 766.109 15.14C765.269 15.14 764.578 14.972 764.037 14.636C763.505 14.3 763.08 13.7913 762.763 13.11L764.163 12.34C764.303 12.844 764.513 13.2267 764.793 13.488C765.082 13.74 765.511 13.866 766.081 13.866C766.65 13.866 767.098 13.712 767.425 13.404C767.761 13.096 767.929 12.662 767.929 12.102C767.929 11.5233 767.775 11.08 767.467 10.772C767.159 10.4547 766.715 10.296 766.137 10.296C765.259 10.296 764.634 10.562 764.261 11.094L763.015 11.01L763.589 5.76H768.951V7.048H764.779L764.457 9.61L764.429 9.806H764.443C764.891 9.31133 765.572 9.064 766.487 9.064ZM774.565 15.14C773.398 15.14 772.512 14.7387 771.905 13.936C771.308 13.124 771.009 11.9387 771.009 10.38C771.009 8.82133 771.308 7.64067 771.905 6.838C772.512 6.026 773.398 5.62 774.565 5.62C775.732 5.62 776.618 6.026 777.225 6.838C777.832 7.64067 778.135 8.82133 778.135 10.38C778.135 11.9387 777.832 13.124 777.225 13.936C776.618 14.7387 775.732 15.14 774.565 15.14ZM774.565 13.866C775.237 13.866 775.746 13.5767 776.091 12.998C776.436 12.41 776.609 11.5373 776.609 10.38C776.609 9.22267 776.436 8.35467 776.091 7.776C775.746 7.188 775.237 6.894 774.565 6.894C773.212 6.894 772.535 8.056 772.535 10.38C772.535 12.704 773.212 13.866 774.565 13.866Z" fill="#F3F2EF"/>
<rect x="721.5" y="0.5" width="81" height="19" rx="9.5" stroke="#F3F2EF"/>
<path d="M51 88C287.5 93 465 443 762 443" stroke="#F8D448" stroke-width="12" stroke-linecap="round"/>
<circle cx="288" cy="192" r="5.5" fill="#F3F2EF" stroke="#332827"/>
<circle cx="405" cy="284" r="5.5" fill="#F3F2EF" stroke="#332827"/>
<circle cx="524" cy="368" r="5.5" fill="#F3F2EF" stroke="#332827"/>
<rect x="297.5" y="163.5" width="64" height="22" rx="1.5" fill="#332827"/>
<path d="M315.848 176.576H310.392V174.992H315.848V176.576ZM321.626 169.28C322.351 169.28 322.97 169.408 323.482 169.664C324.004 169.909 324.399 170.245 324.666 170.672C324.932 171.099 325.066 171.573 325.066 172.096C325.066 172.597 324.964 173.045 324.762 173.44C324.57 173.824 324.319 174.123 324.01 174.336C323.711 174.549 323.402 174.656 323.082 174.656V174.688C323.487 174.688 323.855 174.789 324.186 174.992C324.527 175.195 324.799 175.483 325.002 175.856C325.204 176.229 325.306 176.661 325.306 177.152C325.306 177.728 325.146 178.245 324.826 178.704C324.506 179.163 324.052 179.52 323.466 179.776C322.89 180.032 322.223 180.16 321.466 180.16C319.556 180.16 318.292 179.307 317.674 177.6L319.242 176.848C319.402 177.467 319.658 177.931 320.01 178.24C320.362 178.539 320.868 178.688 321.53 178.688C322.17 178.688 322.671 178.533 323.034 178.224C323.396 177.904 323.578 177.483 323.578 176.96C323.578 176.384 323.402 175.979 323.05 175.744C322.708 175.499 322.159 175.376 321.402 175.376H320.922V174.016H321.354C322.676 174.016 323.338 173.472 323.338 172.384C323.338 171.851 323.183 171.445 322.874 171.168C322.575 170.891 322.148 170.752 321.594 170.752C321.028 170.752 320.575 170.891 320.234 171.168C319.903 171.435 319.69 171.819 319.594 172.32L318.026 171.68C318.25 170.912 318.682 170.32 319.322 169.904C319.972 169.488 320.74 169.28 321.626 169.28ZM331.417 173.216C332.089 173.216 332.675 173.36 333.177 173.648C333.678 173.925 334.062 174.315 334.329 174.816C334.606 175.317 334.745 175.899 334.745 176.56C334.745 177.701 334.403 178.587 333.721 179.216C333.038 179.845 332.126 180.16 330.985 180.16C330.025 180.16 329.235 179.968 328.617 179.584C328.009 179.2 327.523 178.619 327.161 177.84L328.761 176.96C328.921 177.536 329.161 177.973 329.481 178.272C329.811 178.56 330.302 178.704 330.953 178.704C331.603 178.704 332.115 178.528 332.489 178.176C332.873 177.824 333.065 177.328 333.065 176.688C333.065 176.027 332.889 175.52 332.537 175.168C332.185 174.805 331.678 174.624 331.016 174.624C330.014 174.624 329.299 174.928 328.873 175.536L327.449 175.44L328.105 169.44H334.233V170.912H329.465L329.097 173.84L329.065 174.064H329.081C329.593 173.499 330.371 173.216 331.417 173.216ZM338.889 169.28C339.7 169.28 340.345 169.552 340.825 170.096C341.316 170.629 341.561 171.339 341.561 172.224C341.561 173.109 341.316 173.824 340.825 174.368C340.345 174.901 339.7 175.168 338.889 175.168C338.078 175.168 337.428 174.901 336.937 174.368C336.457 173.824 336.217 173.109 336.217 172.224C336.217 171.339 336.457 170.629 336.937 170.096C337.428 169.552 338.078 169.28 338.889 169.28ZM345.385 169.44H346.857L339.961 180H338.473L345.385 169.44ZM338.889 170.528C338.484 170.528 338.169 170.677 337.945 170.976C337.732 171.264 337.625 171.68 337.625 172.224C337.625 172.757 337.732 173.173 337.945 173.472C338.169 173.76 338.484 173.904 338.889 173.904C339.305 173.904 339.62 173.76 339.833 173.472C340.057 173.173 340.169 172.757 340.169 172.224C340.169 171.68 340.057 171.264 339.833 170.976C339.62 170.677 339.305 170.528 338.889 170.528ZM346.441 174.272C347.252 174.272 347.897 174.544 348.377 175.088C348.868 175.621 349.113 176.331 349.113 177.216C349.113 178.101 348.868 178.816 348.377 179.36C347.897 179.893 347.252 180.16 346.441 180.16C345.63 180.16 344.98 179.893 344.489 179.36C344.009 178.816 343.769 178.101 343.769 177.216C343.769 176.331 344.009 175.621 344.489 175.088C344.98 174.544 345.63 174.272 346.441 174.272ZM346.441 175.536C346.036 175.536 345.721 175.685 345.497 175.984C345.284 176.272 345.177 176.683 345.177 177.216C345.177 177.76 345.284 178.181 345.497 178.48C345.721 178.768 346.036 178.912 346.441 178.912C346.857 178.912 347.172 178.768 347.385 178.48C347.609 178.181 347.721 177.76 347.721 177.216C347.721 176.683 347.609 176.272 347.385 175.984C347.172 175.685 346.857 175.536 346.441 175.536Z" fill="#F3F2EF"/>
<rect x="297.5" y="163.5" width="64" height="22" rx="1.5" stroke="#F3F2EF"/>
<rect x="414.5" y="255.5" width="64" height="22" rx="1.5" fill="#332827"/>
<path d="M432.848 268.576H427.392V266.992H432.848V268.576ZM439.338 265.216C440.01 265.216 440.597 265.36 441.098 265.648C441.6 265.925 441.984 266.315 442.25 266.816C442.528 267.317 442.666 267.899 442.666 268.56C442.666 269.701 442.325 270.587 441.642 271.216C440.96 271.845 440.048 272.16 438.906 272.16C437.946 272.16 437.157 271.968 436.538 271.584C435.93 271.2 435.445 270.619 435.082 269.84L436.682 268.96C436.842 269.536 437.082 269.973 437.402 270.272C437.733 270.56 438.224 270.704 438.874 270.704C439.525 270.704 440.037 270.528 440.41 270.176C440.794 269.824 440.986 269.328 440.986 268.688C440.986 268.027 440.81 267.52 440.458 267.168C440.106 266.805 439.6 266.624 438.938 266.624C437.936 266.624 437.221 266.928 436.794 267.536L435.37 267.44L436.026 261.44H442.154V262.912H437.386L437.018 265.84L436.986 266.064H437.002C437.514 265.499 438.293 265.216 439.338 265.216ZM448.651 265.216C449.323 265.216 449.91 265.36 450.411 265.648C450.912 265.925 451.296 266.315 451.563 266.816C451.84 267.317 451.979 267.899 451.979 268.56C451.979 269.701 451.638 270.587 450.955 271.216C450.272 271.845 449.36 272.16 448.219 272.16C447.259 272.16 446.47 271.968 445.851 271.584C445.243 271.2 444.758 270.619 444.395 269.84L445.995 268.96C446.155 269.536 446.395 269.973 446.715 270.272C447.046 270.56 447.536 270.704 448.187 270.704C448.838 270.704 449.35 270.528 449.723 270.176C450.107 269.824 450.299 269.328 450.299 268.688C450.299 268.027 450.123 267.52 449.771 267.168C449.419 266.805 448.912 266.624 448.251 266.624C447.248 266.624 446.534 266.928 446.107 267.536L444.683 267.44L445.339 261.44H451.467V262.912H446.699L446.331 265.84L446.299 266.064H446.315C446.827 265.499 447.606 265.216 448.651 265.216ZM456.123 261.28C456.934 261.28 457.579 261.552 458.059 262.096C458.55 262.629 458.795 263.339 458.795 264.224C458.795 265.109 458.55 265.824 458.059 266.368C457.579 266.901 456.934 267.168 456.123 267.168C455.313 267.168 454.662 266.901 454.171 266.368C453.691 265.824 453.451 265.109 453.451 264.224C453.451 263.339 453.691 262.629 454.171 262.096C454.662 261.552 455.313 261.28 456.123 261.28ZM462.619 261.44H464.091L457.195 272H455.707L462.619 261.44ZM456.123 262.528C455.718 262.528 455.403 262.677 455.179 262.976C454.966 263.264 454.859 263.68 454.859 264.224C454.859 264.757 454.966 265.173 455.179 265.472C455.403 265.76 455.718 265.904 456.123 265.904C456.539 265.904 456.854 265.76 457.067 265.472C457.291 265.173 457.403 264.757 457.403 264.224C457.403 263.68 457.291 263.264 457.067 262.976C456.854 262.677 456.539 262.528 456.123 262.528ZM463.675 266.272C464.486 266.272 465.131 266.544 465.611 267.088C466.102 267.621 466.347 268.331 466.347 269.216C466.347 270.101 466.102 270.816 465.611 271.36C465.131 271.893 464.486 272.16 463.675 272.16C462.865 272.16 462.214 271.893 461.723 271.36C461.243 270.816 461.003 270.101 461.003 269.216C461.003 268.331 461.243 267.621 461.723 267.088C462.214 266.544 462.865 266.272 463.675 266.272ZM463.675 267.536C463.27 267.536 462.955 267.685 462.731 267.984C462.518 268.272 462.411 268.683 462.411 269.216C462.411 269.76 462.518 270.181 462.731 270.48C462.955 270.768 463.27 270.912 463.675 270.912C464.091 270.912 464.406 270.768 464.619 270.48C464.843 270.181 464.955 269.76 464.955 269.216C464.955 268.683 464.843 268.272 464.619 267.984C464.406 267.685 464.091 267.536 463.675 267.536Z" fill="#F3F2EF"/>
<rect x="414.5" y="255.5" width="64" height="22" rx="1.5" stroke="#F3F2EF"/>
<rect x="534.5" y="339.5" width="66" height="22" rx="1.5" fill="#332827"/>
<path d="M552.848 352.576H547.392V350.992H552.848V352.576ZM559.194 345.296C560.272 345.296 561.13 345.552 561.77 346.064C562.41 346.576 562.73 347.264 562.73 348.128C562.73 348.672 562.592 349.147 562.314 349.552C562.048 349.957 561.669 350.267 561.178 350.48V350.496C561.808 350.731 562.293 351.072 562.634 351.52C562.986 351.968 563.162 352.517 563.162 353.168C563.162 354.085 562.805 354.816 562.09 355.36C561.376 355.893 560.41 356.16 559.194 356.16C557.978 356.16 557.008 355.893 556.282 355.36C555.568 354.816 555.21 354.085 555.21 353.168C555.21 352.528 555.386 351.979 555.738 351.52C556.09 351.061 556.581 350.72 557.21 350.496V350.48C556.72 350.277 556.336 349.973 556.058 349.568C555.781 349.152 555.642 348.672 555.642 348.128C555.642 347.253 555.962 346.565 556.602 346.064C557.242 345.552 558.106 345.296 559.194 345.296ZM559.194 346.736C558.629 346.736 558.181 346.875 557.85 347.152C557.52 347.419 557.354 347.797 557.354 348.288C557.354 348.768 557.52 349.147 557.85 349.424C558.181 349.691 558.629 349.824 559.194 349.824C559.749 349.824 560.192 349.691 560.522 349.424C560.864 349.147 561.034 348.768 561.034 348.288C561.034 347.808 560.869 347.429 560.538 347.152C560.208 346.875 559.76 346.736 559.194 346.736ZM559.194 354.72C559.888 354.72 560.432 354.565 560.826 354.256C561.232 353.947 561.434 353.52 561.434 352.976C561.434 352.432 561.232 352.005 560.826 351.696C560.421 351.376 559.877 351.216 559.194 351.216C558.512 351.216 557.962 351.376 557.546 351.696C557.141 352.005 556.938 352.432 556.938 352.976C556.938 353.52 557.141 353.947 557.546 354.256C557.952 354.565 558.501 354.72 559.194 354.72ZM569.165 356.16C567.831 356.16 566.818 355.701 566.125 354.784C565.442 353.856 565.101 352.501 565.101 350.72C565.101 348.939 565.442 347.589 566.125 346.672C566.818 345.744 567.831 345.28 569.165 345.28C570.498 345.28 571.511 345.744 572.205 346.672C572.898 347.589 573.245 348.939 573.245 350.72C573.245 352.501 572.898 353.856 572.205 354.784C571.511 355.701 570.498 356.16 569.165 356.16ZM569.165 354.704C569.933 354.704 570.514 354.373 570.909 353.712C571.303 353.04 571.501 352.043 571.501 350.72C571.501 349.397 571.303 348.405 570.909 347.744C570.514 347.072 569.933 346.736 569.165 346.736C567.618 346.736 566.845 348.064 566.845 350.72C566.845 353.376 567.618 354.704 569.165 354.704ZM577.452 345.28C578.262 345.28 578.908 345.552 579.388 346.096C579.878 346.629 580.124 347.339 580.124 348.224C580.124 349.109 579.878 349.824 579.388 350.368C578.908 350.901 578.262 351.168 577.452 351.168C576.641 351.168 575.99 350.901 575.5 350.368C575.02 349.824 574.78 349.109 574.78 348.224C574.78 347.339 575.02 346.629 575.5 346.096C575.99 345.552 576.641 345.28 577.452 345.28ZM583.948 345.44H585.42L578.524 356H577.036L583.948 345.44ZM577.452 346.528C577.046 346.528 576.732 346.677 576.508 346.976C576.294 347.264 576.188 347.68 576.188 348.224C576.188 348.757 576.294 349.173 576.508 349.472C576.732 349.76 577.046 349.904 577.452 349.904C577.868 349.904 578.182 349.76 578.396 349.472C578.62 349.173 578.732 348.757 578.732 348.224C578.732 347.68 578.62 347.264 578.396 346.976C578.182 346.677 577.868 346.528 577.452 346.528ZM585.004 350.272C585.814 350.272 586.46 350.544 586.94 351.088C587.43 351.621 587.676 352.331 587.676 353.216C587.676 354.101 587.43 354.816 586.94 355.36C586.46 355.893 585.814 356.16 585.004 356.16C584.193 356.16 583.542 355.893 583.052 355.36C582.572 354.816 582.332 354.101 582.332 353.216C582.332 352.331 582.572 351.621 583.052 351.088C583.542 350.544 584.193 350.272 585.004 350.272ZM585.004 351.536C584.598 351.536 584.284 351.685 584.06 351.984C583.846 352.272 583.74 352.683 583.74 353.216C583.74 353.76 583.846 354.181 584.06 354.48C584.284 354.768 584.598 354.912 585.004 354.912C585.42 354.912 585.734 354.768 585.948 354.48C586.172 354.181 586.284 353.76 586.284 353.216C586.284 352.683 586.172 352.272 585.948 351.984C585.734 351.685 585.42 351.536 585.004 351.536Z" fill="#F3F2EF"/>
<rect x="534.5" y="339.5" width="66" height="22" rx="1.5" stroke="#F3F2EF"/>
<path d="M51 334C183 334 210.196 443 405 443" stroke="#F8D448" stroke-width="12" stroke-linecap="round"/>
<rect x="178.5" y="339.5" width="66" height="22" rx="1.5" fill="#332827"/>
<path d="M196.848 352.576H191.392V350.992H196.848V352.576ZM207.498 353.36H205.706V356H204.09V353.36H198.89V352.32L203.61 345.44H205.706V352.032H207.498V353.36ZM200.602 352.032H204.09V348.416L204.154 346.704H204.122C203.866 347.248 203.525 347.835 203.098 348.464L200.602 352.032ZM213.212 356.16C211.878 356.16 210.865 355.701 210.172 354.784C209.489 353.856 209.148 352.501 209.148 350.72C209.148 348.939 209.489 347.589 210.172 346.672C210.865 345.744 211.878 345.28 213.212 345.28C214.545 345.28 215.558 345.744 216.252 346.672C216.945 347.589 217.292 348.939 217.292 350.72C217.292 352.501 216.945 353.856 216.252 354.784C215.558 355.701 214.545 356.16 213.212 356.16ZM213.212 354.704C213.98 354.704 214.561 354.373 214.956 353.712C215.35 353.04 215.548 352.043 215.548 350.72C215.548 349.397 215.35 348.405 214.956 347.744C214.561 347.072 213.98 346.736 213.212 346.736C211.665 346.736 210.892 348.064 210.892 350.72C210.892 353.376 211.665 354.704 213.212 354.704ZM221.498 345.28C222.309 345.28 222.954 345.552 223.434 346.096C223.925 346.629 224.17 347.339 224.17 348.224C224.17 349.109 223.925 349.824 223.434 350.368C222.954 350.901 222.309 351.168 221.498 351.168C220.688 351.168 220.037 350.901 219.546 350.368C219.066 349.824 218.826 349.109 218.826 348.224C218.826 347.339 219.066 346.629 219.546 346.096C220.037 345.552 220.688 345.28 221.498 345.28ZM227.994 345.44H229.466L222.57 356H221.082L227.994 345.44ZM221.498 346.528C221.093 346.528 220.778 346.677 220.554 346.976C220.341 347.264 220.234 347.68 220.234 348.224C220.234 348.757 220.341 349.173 220.554 349.472C220.778 349.76 221.093 349.904 221.498 349.904C221.914 349.904 222.229 349.76 222.442 349.472C222.666 349.173 222.778 348.757 222.778 348.224C222.778 347.68 222.666 347.264 222.442 346.976C222.229 346.677 221.914 346.528 221.498 346.528ZM229.05 350.272C229.861 350.272 230.506 350.544 230.986 351.088C231.477 351.621 231.722 352.331 231.722 353.216C231.722 354.101 231.477 354.816 230.986 355.36C230.506 355.893 229.861 356.16 229.05 356.16C228.24 356.16 227.589 355.893 227.098 355.36C226.618 354.816 226.378 354.101 226.378 353.216C226.378 352.331 226.618 351.621 227.098 351.088C227.589 350.544 228.24 350.272 229.05 350.272ZM229.05 351.536C228.645 351.536 228.33 351.685 228.106 351.984C227.893 352.272 227.786 352.683 227.786 353.216C227.786 353.76 227.893 354.181 228.106 354.48C228.33 354.768 228.645 354.912 229.05 354.912C229.466 354.912 229.781 354.768 229.994 354.48C230.218 354.181 230.33 353.76 230.33 353.216C230.33 352.683 230.218 352.272 229.994 351.984C229.781 351.685 229.466 351.536 229.05 351.536Z" fill="#F3F2EF"/>
<rect x="178.5" y="339.5" width="66" height="22" rx="1.5" stroke="#F3F2EF"/>
<circle cx="763" cy="443" r="5.5" fill="#F3F2EF" stroke="#332827"/>
<rect x="414.5" y="414.5" width="91" height="22" rx="1.5" fill="#332827"/>
<path d="M436.224 431H434.192L430.112 424.344L429.088 422.392H429.072L429.136 424.184V431H427.568V420.44H429.584L433.648 427.08L434.688 429.048H434.704L434.64 427.256V420.44H436.224V431ZM446.152 426.76C446.152 427.069 446.131 427.363 446.088 427.64H440.232C440.328 428.344 440.579 428.883 440.984 429.256C441.389 429.619 441.912 429.8 442.552 429.8C443.075 429.8 443.507 429.709 443.848 429.528C444.2 429.336 444.44 429.064 444.568 428.712L445.992 429.304C445.395 430.541 444.248 431.16 442.552 431.16C441.293 431.16 440.307 430.792 439.592 430.056C438.888 429.32 438.536 428.301 438.536 427C438.536 425.688 438.877 424.669 439.56 423.944C440.243 423.208 441.203 422.84 442.44 422.84C443.613 422.84 444.525 423.197 445.176 423.912C445.827 424.627 446.152 425.576 446.152 426.76ZM442.44 424.2C441.821 424.2 441.32 424.381 440.936 424.744C440.563 425.107 440.328 425.635 440.232 426.328H444.552C444.467 425.656 444.237 425.133 443.864 424.76C443.501 424.387 443.027 424.2 442.44 424.2ZM453.293 430.472C453.037 430.685 452.723 430.856 452.349 430.984C451.987 431.101 451.592 431.16 451.165 431.16C450.429 431.16 449.837 430.979 449.389 430.616C448.952 430.243 448.728 429.667 448.717 428.888V424.344H447.197V423H448.717V421.128L450.429 420.648V423H453.229V424.344H450.429V428.6C450.429 428.984 450.531 429.272 450.733 429.464C450.947 429.645 451.235 429.736 451.597 429.736C452.088 429.736 452.52 429.565 452.893 429.224L453.293 430.472ZM468.094 429.544V431H459.566V429.608L465.95 421.896H459.71V420.44H467.902V421.832L461.518 429.544H468.094ZM477.027 426.76C477.027 427.069 477.006 427.363 476.963 427.64H471.107C471.203 428.344 471.454 428.883 471.859 429.256C472.264 429.619 472.787 429.8 473.427 429.8C473.95 429.8 474.382 429.709 474.723 429.528C475.075 429.336 475.315 429.064 475.443 428.712L476.867 429.304C476.27 430.541 475.123 431.16 473.427 431.16C472.168 431.16 471.182 430.792 470.467 430.056C469.763 429.32 469.411 428.301 469.411 427C469.411 425.688 469.752 424.669 470.435 423.944C471.118 423.208 472.078 422.84 473.315 422.84C474.488 422.84 475.4 423.197 476.051 423.912C476.702 424.627 477.027 425.576 477.027 426.76ZM473.315 424.2C472.696 424.2 472.195 424.381 471.811 424.744C471.438 425.107 471.203 425.635 471.107 426.328H475.427C475.342 425.656 475.112 425.133 474.739 424.76C474.376 424.387 473.902 424.2 473.315 424.2ZM483.3 422.84C483.673 422.84 483.966 422.893 484.18 423L483.908 424.568C483.662 424.429 483.326 424.36 482.9 424.36C482.558 424.36 482.233 424.451 481.924 424.632C481.625 424.813 481.374 425.085 481.172 425.448C480.98 425.811 480.884 426.248 480.884 426.76V431H479.172V423H480.628L480.772 424.44C481.22 423.373 482.062 422.84 483.3 422.84ZM489.114 422.84C490.362 422.84 491.338 423.208 492.042 423.944C492.746 424.68 493.098 425.699 493.098 427C493.098 428.301 492.746 429.32 492.042 430.056C491.338 430.792 490.362 431.16 489.114 431.16C487.866 431.16 486.89 430.792 486.186 430.056C485.482 429.32 485.13 428.301 485.13 427C485.13 425.699 485.482 424.68 486.186 423.944C486.89 423.208 487.866 422.84 489.114 422.84ZM489.114 424.184C488.388 424.184 487.828 424.429 487.434 424.92C487.05 425.4 486.858 426.093 486.858 427C486.858 427.907 487.05 428.605 487.434 429.096C487.828 429.576 488.388 429.816 489.114 429.816C489.839 429.816 490.399 429.571 490.794 429.08C491.188 428.589 491.386 427.896 491.386 427C491.386 426.104 491.188 425.411 490.794 424.92C490.399 424.429 489.839 424.184 489.114 424.184Z" fill="#F3F2EF"/>
<rect x="414.5" y="414.5" width="91" height="22" rx="1.5" stroke="#F3F2EF"/>
<rect x="661.5" y="414.5" width="91" height="22" rx="1.5" fill="#332827"/>
<path d="M683.224 431H681.192L677.112 424.344L676.088 422.392H676.072L676.136 424.184V431H674.568V420.44H676.584L680.648 427.08L681.688 429.048H681.704L681.64 427.256V420.44H683.224V431ZM693.152 426.76C693.152 427.069 693.131 427.363 693.088 427.64H687.232C687.328 428.344 687.579 428.883 687.984 429.256C688.389 429.619 688.912 429.8 689.552 429.8C690.075 429.8 690.507 429.709 690.848 429.528C691.2 429.336 691.44 429.064 691.568 428.712L692.992 429.304C692.395 430.541 691.248 431.16 689.552 431.16C688.293 431.16 687.307 430.792 686.592 430.056C685.888 429.32 685.536 428.301 685.536 427C685.536 425.688 685.877 424.669 686.56 423.944C687.243 423.208 688.203 422.84 689.44 422.84C690.613 422.84 691.525 423.197 692.176 423.912C692.827 424.627 693.152 425.576 693.152 426.76ZM689.44 424.2C688.821 424.2 688.32 424.381 687.936 424.744C687.563 425.107 687.328 425.635 687.232 426.328H691.552C691.467 425.656 691.237 425.133 690.864 424.76C690.501 424.387 690.027 424.2 689.44 424.2ZM700.293 430.472C700.037 430.685 699.723 430.856 699.349 430.984C698.987 431.101 698.592 431.16 698.165 431.16C697.429 431.16 696.837 430.979 696.389 430.616C695.952 430.243 695.728 429.667 695.717 428.888V424.344H694.197V423H695.717V421.128L697.429 420.648V423H700.229V424.344H697.429V428.6C697.429 428.984 697.531 429.272 697.733 429.464C697.947 429.645 698.235 429.736 698.597 429.736C699.088 429.736 699.52 429.565 699.893 429.224L700.293 430.472ZM715.094 429.544V431H706.566V429.608L712.95 421.896H706.71V420.44H714.902V421.832L708.518 429.544H715.094ZM724.027 426.76C724.027 427.069 724.006 427.363 723.963 427.64H718.107C718.203 428.344 718.454 428.883 718.859 429.256C719.264 429.619 719.787 429.8 720.427 429.8C720.95 429.8 721.382 429.709 721.723 429.528C722.075 429.336 722.315 429.064 722.443 428.712L723.867 429.304C723.27 430.541 722.123 431.16 720.427 431.16C719.168 431.16 718.182 430.792 717.467 430.056C716.763 429.32 716.411 428.301 716.411 427C716.411 425.688 716.752 424.669 717.435 423.944C718.118 423.208 719.078 422.84 720.315 422.84C721.488 422.84 722.4 423.197 723.051 423.912C723.702 424.627 724.027 425.576 724.027 426.76ZM720.315 424.2C719.696 424.2 719.195 424.381 718.811 424.744C718.438 425.107 718.203 425.635 718.107 426.328H722.427C722.342 425.656 722.112 425.133 721.739 424.76C721.376 424.387 720.902 424.2 720.315 424.2ZM730.3 422.84C730.673 422.84 730.966 422.893 731.18 423L730.908 424.568C730.662 424.429 730.326 424.36 729.9 424.36C729.558 424.36 729.233 424.451 728.924 424.632C728.625 424.813 728.374 425.085 728.172 425.448C727.98 425.811 727.884 426.248 727.884 426.76V431H726.172V423H727.628L727.772 424.44C728.22 423.373 729.062 422.84 730.3 422.84ZM736.114 422.84C737.362 422.84 738.338 423.208 739.042 423.944C739.746 424.68 740.098 425.699 740.098 427C740.098 428.301 739.746 429.32 739.042 430.056C738.338 430.792 737.362 431.16 736.114 431.16C734.866 431.16 733.89 430.792 733.186 430.056C732.482 429.32 732.13 428.301 732.13 427C732.13 425.699 732.482 424.68 733.186 423.944C733.89 423.208 734.866 422.84 736.114 422.84ZM736.114 424.184C735.388 424.184 734.828 424.429 734.434 424.92C734.05 425.4 733.858 426.093 733.858 427C733.858 427.907 734.05 428.605 734.434 429.096C734.828 429.576 735.388 429.816 736.114 429.816C736.839 429.816 737.399 429.571 737.794 429.08C738.188 428.589 738.386 427.896 738.386 427C738.386 426.104 738.188 425.411 737.794 424.92C737.399 424.429 736.839 424.184 736.114 424.184Z" fill="#F3F2EF"/>
<rect x="661.5" y="414.5" width="91" height="22" rx="1.5" stroke="#F3F2EF"/>
</svg>
