<svg width="934" height="567" viewBox="0 0 934 567" fill="none" xmlns="http://www.w3.org/2000/svg">
<path d="M27.5 532L27.5 532.5L28 532.5L52 532.5L52.5 532.5L52.5 532L52.5 30C52.5 23.0964 46.9035 17.5 40 17.5C33.0964 17.5 27.5 23.0964 27.5 30L27.5 532Z" fill="#F8D448" stroke="#332827"/>
<path d="M95.5 532.267L95.5 532.767L96 532.767L120 532.767L120.5 532.767L120.5 532.267L120.5 78.0002C120.5 71.0966 114.904 65.5002 108 65.5002C101.096 65.5002 95.5 71.0966 95.5 78.0001L95.5 532.267Z" fill="#F8D448" stroke="#332827"/>
<path d="M163.5 532.298L163.5 532.798L164 532.798L188 532.798L188.5 532.798L188.5 532.298L188.5 145.135C188.5 138.231 182.904 132.635 176 132.635C169.096 132.635 163.5 138.231 163.5 145.135L163.5 532.298Z" fill="#F8D448" stroke="#332827"/>
<path d="M15.5 532.191L15.5 532.691L16 532.691L40 532.691L40.5 532.691L40.5 532.191L40.5 79.9998C40.5 73.0962 34.9035 67.4998 28 67.4998C21.0964 67.4998 15.5 73.0962 15.5 79.9998L15.5 532.191Z" fill="#332827" stroke="#F3F2EF"/>
<path d="M83.5 532.355L83.5 532.855L84 532.855L108 532.855L108.5 532.855L108.5 532.355L108.5 94.0002C108.5 87.0966 102.904 81.5002 96 81.5002C89.0964 81.5002 83.5 87.0966 83.5 94.0002L83.5 532.355Z" fill="#332827" stroke="#F3F2EF"/>
<path d="M151.5 532.382L151.5 532.882L152 532.882L176 532.882L176.5 532.882L176.5 532.382L176.5 130C176.5 123.097 170.904 117.5 164 117.5C157.096 117.5 151.5 123.097 151.5 130L151.5 532.382Z" fill="#332827" stroke="#F3F2EF"/>
<path d="M231.5 532.642L231.5 533.142L232 533.142L256 533.142L256.5 533.142L256.5 532.642L256.5 169C256.5 162.097 250.904 156.5 244 156.5C237.096 156.5 231.5 162.097 231.5 169L231.5 532.642Z" fill="#F8D448" stroke="#332827"/>
<path d="M219.5 532.409L219.5 532.909L220 532.909L244 532.909L244.5 532.909L244.5 532.409L244.5 166C244.5 159.096 238.904 153.5 232 153.5C225.096 153.5 219.5 159.096 219.5 166L219.5 532.409Z" fill="#332827" stroke="#F3F2EF"/>
<rect x="84" y="532" width="37" height="2" fill="#332827"/>
<rect x="152" y="532" width="37" height="2" fill="#332827"/>
<rect x="220" y="532" width="37" height="2" fill="#332827"/>
<path d="M23.62 98.005C23.62 97.2303 23.7833 96.5863 24.11 96.073C24.4273 95.5503 24.936 95.1583 25.636 94.897L26.392 96.521C25.608 96.7637 25.216 97.3003 25.216 98.131C25.216 98.523 25.3513 98.873 25.622 99.181C25.8833 99.489 26.252 99.7317 26.728 99.909C27.204 100.077 27.75 100.161 28.366 100.161L28.604 100.161L28.604 100.119C28.1467 99.9697 27.8013 99.6803 27.568 99.251C27.3347 98.8217 27.218 98.327 27.218 97.767C27.218 97.179 27.3393 96.6563 27.582 96.199C27.8153 95.7417 28.1513 95.387 28.59 95.135C29.0287 94.8737 29.542 94.743 30.13 94.743C31.054 94.743 31.7867 95.0463 32.328 95.653C32.8693 96.2597 33.14 97.095 33.14 98.159C33.14 99.3537 32.7247 100.278 31.894 100.931C31.054 101.575 29.8827 101.897 28.38 101.897C27.344 101.897 26.4713 101.729 25.762 101.393C25.0433 101.057 24.5067 100.6 24.152 100.021C23.7973 99.433 23.62 98.761 23.62 98.005ZM28.632 98.131C28.632 98.607 28.7673 98.9897 29.038 99.279C29.3087 99.5683 29.6633 99.713 30.102 99.713C30.5593 99.713 30.9233 99.5683 31.194 99.279C31.4647 98.9897 31.6 98.607 31.6 98.131C31.6 97.6363 31.4693 97.2537 31.208 96.983C30.9467 96.703 30.578 96.563 30.102 96.563C29.6447 96.563 29.2853 96.703 29.024 96.983C28.7627 97.2537 28.632 97.6363 28.632 98.131ZM23.76 86.4185L25.23 86.4185C26.35 87.5385 27.54 88.3411 28.8 88.8265C30.06 89.3118 31.46 89.5545 33 89.5545L33 91.4865C30.0787 91.4865 27.526 90.4411 25.342 88.3505L25.342 93.7405L23.76 93.7405L23.76 86.4185ZM23.76 81.1863L33 81.1863L33 83.0623L26.112 83.0623C25.9627 83.0623 25.846 83.0576 25.762 83.0483C26.07 83.3843 26.3313 83.7483 26.546 84.1403C26.7607 84.5229 26.9053 84.9103 26.98 85.3023L25.356 85.5543C25.3093 85.1249 25.118 84.6116 24.782 84.0143C24.4367 83.4076 24.096 82.9876 23.76 82.7543L23.76 81.1863Z" fill="#F3F2EF"/>
<path d="M91.62 112.073C91.62 111.299 91.7833 110.655 92.11 110.141C92.4273 109.619 92.936 109.227 93.636 108.965L94.392 110.589C93.608 110.832 93.216 111.369 93.216 112.199C93.216 112.591 93.3513 112.941 93.622 113.249C93.8833 113.557 94.252 113.8 94.728 113.977C95.204 114.145 95.75 114.229 96.366 114.229L96.604 114.229L96.604 114.187C96.1467 114.038 95.8013 113.749 95.568 113.319C95.3347 112.89 95.218 112.395 95.218 111.835C95.218 111.247 95.3393 110.725 95.582 110.267C95.8153 109.81 96.1513 109.455 96.59 109.203C97.0287 108.942 97.542 108.811 98.13 108.811C99.054 108.811 99.7867 109.115 100.328 109.721C100.869 110.328 101.14 111.163 101.14 112.227C101.14 113.422 100.725 114.346 99.894 114.999C99.054 115.643 97.8827 115.965 96.38 115.965C95.344 115.965 94.4713 115.797 93.762 115.461C93.0433 115.125 92.5067 114.668 92.152 114.089C91.7973 113.501 91.62 112.829 91.62 112.073ZM96.632 112.199C96.632 112.675 96.7673 113.058 97.038 113.347C97.3087 113.637 97.6633 113.781 98.102 113.781C98.5593 113.781 98.9233 113.637 99.194 113.347C99.4647 113.058 99.6 112.675 99.6 112.199C99.6 111.705 99.4693 111.322 99.208 111.051C98.9467 110.771 98.578 110.631 98.102 110.631C97.6447 110.631 97.2853 110.771 97.024 111.051C96.7627 111.322 96.632 111.705 96.632 112.199ZM95.05 103.545C95.05 102.649 95.316 101.944 95.848 101.431C96.3707 100.908 97.0613 100.647 97.92 100.647C98.956 100.647 99.754 100.964 100.314 101.599C100.865 102.224 101.14 103.05 101.14 104.077C101.14 104.907 100.986 105.607 100.678 106.177C100.361 106.737 99.866 107.194 99.194 107.549L98.228 105.813C98.6853 105.691 99.0307 105.505 99.264 105.253C99.488 104.991 99.6 104.604 99.6 104.091C99.6 103.577 99.4647 103.176 99.194 102.887C98.9233 102.588 98.5407 102.439 98.046 102.439C97.542 102.448 97.1593 102.588 96.898 102.859C96.6273 103.129 96.492 103.526 96.492 104.049C96.492 104.823 96.716 105.388 97.164 105.743L96.996 107.255L91.76 106.681L91.76 101.123L93.314 101.123L93.314 105.225L95.484 105.491L95.75 105.533L95.75 105.519C95.526 105.313 95.3533 105.043 95.232 104.707C95.1107 104.361 95.05 103.974 95.05 103.545ZM91.76 95.1863L101 95.1863L101 97.0623L94.112 97.0623C93.9627 97.0623 93.846 97.0576 93.762 97.0483C94.07 97.3843 94.3313 97.7483 94.546 98.1403C94.7607 98.5229 94.9053 98.9103 94.98 99.3023L93.356 99.5543C93.3093 99.1249 93.118 98.6116 92.782 98.0143C92.4367 97.4076 92.096 96.9876 91.76 96.7543L91.76 95.1863Z" fill="#F3F2EF"/>
<path d="M163.05 162.951C163.05 162.055 163.316 161.35 163.848 160.837C164.371 160.314 165.061 160.053 165.92 160.053C166.956 160.053 167.754 160.37 168.314 161.005C168.865 161.63 169.14 162.456 169.14 163.483C169.14 164.314 168.986 165.014 168.678 165.583C168.361 166.143 167.866 166.6 167.194 166.955L166.228 165.219C166.685 165.098 167.031 164.911 167.264 164.659C167.488 164.398 167.6 164.01 167.6 163.497C167.6 162.984 167.465 162.582 167.194 162.293C166.923 161.994 166.541 161.845 166.046 161.845C165.542 161.854 165.159 161.994 164.898 162.265C164.627 162.536 164.492 162.932 164.492 163.455C164.492 164.23 164.716 164.794 165.164 165.149L164.996 166.661L159.76 166.087L159.76 160.529L161.314 160.529L161.314 164.631L163.484 164.897L163.75 164.939L163.75 164.925C163.526 164.72 163.353 164.449 163.232 164.113C163.111 163.768 163.05 163.38 163.05 162.951ZM159.62 155.237C159.62 154.042 160.04 153.123 160.88 152.479C161.711 151.825 162.887 151.499 164.408 151.499C165.995 151.499 167.18 151.825 167.964 152.479C168.748 153.132 169.14 154.065 169.14 155.279C169.14 156.128 168.972 156.828 168.636 157.379C168.3 157.92 167.787 158.331 167.096 158.611L166.34 156.833C166.76 156.721 167.077 156.553 167.292 156.329C167.497 156.095 167.6 155.741 167.6 155.265C167.6 154.565 167.329 154.056 166.788 153.739C166.247 153.412 165.467 153.249 164.45 153.249L164.254 153.249L164.254 153.305C164.73 153.426 165.085 153.706 165.318 154.145C165.551 154.583 165.668 155.083 165.668 155.643C165.668 156.221 165.547 156.739 165.304 157.197C165.061 157.654 164.716 158.018 164.268 158.289C163.82 158.55 163.297 158.681 162.7 158.681C161.748 158.681 160.997 158.377 160.446 157.771C159.895 157.155 159.62 156.31 159.62 155.237ZM161.202 155.265C161.202 155.769 161.333 156.156 161.594 156.427C161.855 156.697 162.224 156.833 162.7 156.833C163.167 156.833 163.531 156.697 163.792 156.427C164.053 156.156 164.184 155.769 164.184 155.265C164.184 154.789 164.049 154.411 163.778 154.131C163.507 153.841 163.148 153.697 162.7 153.697C162.243 153.697 161.879 153.841 161.608 154.131C161.337 154.411 161.202 154.789 161.202 155.265ZM159.62 146.582C159.62 145.388 160.04 144.468 160.88 143.824C161.711 143.171 162.887 142.844 164.408 142.844C165.995 142.844 167.18 143.171 167.964 143.824C168.748 144.478 169.14 145.411 169.14 146.624C169.14 147.474 168.972 148.174 168.636 148.724C168.3 149.266 167.787 149.676 167.096 149.956L166.34 148.178C166.76 148.066 167.077 147.898 167.292 147.674C167.497 147.441 167.6 147.086 167.6 146.61C167.6 145.91 167.329 145.402 166.788 145.084C166.247 144.758 165.467 144.594 164.45 144.594L164.254 144.594L164.254 144.65C164.73 144.772 165.085 145.052 165.318 145.49C165.551 145.929 165.668 146.428 165.668 146.988C165.668 147.567 165.547 148.085 165.304 148.542C165.061 149 164.716 149.364 164.268 149.634C163.82 149.896 163.297 150.026 162.7 150.026C161.748 150.026 160.997 149.723 160.446 149.116C159.895 148.5 159.62 147.656 159.62 146.582ZM161.202 146.61C161.202 147.114 161.333 147.502 161.594 147.772C161.855 148.043 162.224 148.178 162.7 148.178C163.167 148.178 163.531 148.043 163.792 147.772C164.053 147.502 164.184 147.114 164.184 146.61C164.184 146.134 164.049 145.756 163.778 145.476C163.507 145.187 163.148 145.042 162.7 145.042C162.243 145.042 161.879 145.187 161.608 145.476C161.337 145.756 161.202 146.134 161.202 146.61ZM166.858 140.263C166.858 139.834 167.012 139.502 167.32 139.269C167.619 139.036 168.011 138.919 168.496 138.919C169.065 138.919 169.583 139.073 170.05 139.381C170.526 139.68 170.895 140.123 171.156 140.711L170.484 141.593C170.325 141.182 170.12 140.837 169.868 140.557C169.616 140.277 169.331 140.09 169.014 139.997L168.972 140.053C169.065 140.146 169.112 140.282 169.112 140.459C169.112 140.73 169.019 140.968 168.832 141.173C168.645 141.378 168.379 141.481 168.034 141.481C167.67 141.481 167.385 141.369 167.18 141.145C166.965 140.921 166.858 140.627 166.858 140.263ZM167.684 137.361C166.928 136.232 166.265 135.336 165.696 134.673C165.127 134.011 164.599 133.53 164.114 133.231C163.629 132.933 163.148 132.783 162.672 132.783C162.233 132.783 161.879 132.919 161.608 133.189C161.337 133.451 161.202 133.815 161.202 134.281C161.202 134.795 161.379 135.201 161.734 135.499C162.089 135.798 162.593 135.961 163.246 135.989L162.616 137.655C161.683 137.59 160.95 137.245 160.418 136.619C159.886 135.994 159.62 135.177 159.62 134.169C159.62 133.451 159.755 132.844 160.026 132.349C160.297 131.845 160.656 131.467 161.104 131.215C161.543 130.963 162.028 130.837 162.56 130.837C163.428 130.837 164.249 131.164 165.024 131.817C165.789 132.471 166.611 133.511 167.488 134.939L167.502 134.939C167.465 134.398 167.446 133.833 167.446 133.245L167.446 130.697L169 130.697L169 137.361L167.684 137.361Z" fill="#F3F2EF"/>
<path d="M231.05 193.373C231.05 192.477 231.316 191.772 231.848 191.259C232.371 190.736 233.061 190.475 233.92 190.475C234.956 190.475 235.754 190.792 236.314 191.427C236.865 192.052 237.14 192.878 237.14 193.905C237.14 194.736 236.986 195.436 236.678 196.005C236.361 196.565 235.866 197.022 235.194 197.377L234.228 195.641C234.685 195.52 235.031 195.333 235.264 195.081C235.488 194.82 235.6 194.432 235.6 193.919C235.6 193.406 235.465 193.004 235.194 192.715C234.923 192.416 234.541 192.267 234.046 192.267C233.542 192.276 233.159 192.416 232.898 192.687C232.627 192.958 232.492 193.354 232.492 193.877C232.492 194.652 232.716 195.216 233.164 195.571L232.996 197.083L227.76 196.509L227.76 190.951L229.314 190.951L229.314 195.053L231.484 195.319L231.75 195.361L231.75 195.347C231.526 195.142 231.353 194.871 231.232 194.535C231.111 194.19 231.05 193.802 231.05 193.373ZM234.83 181.444L234.83 182.942L237 182.942L237 184.692L234.83 184.692L234.83 189.298L233.808 189.298L227.76 185.252L227.76 182.942L233.43 182.942L233.43 181.444L234.83 181.444ZM233.43 187.436L233.43 184.692L230.602 184.692L229.09 184.65L229.09 184.678C229.566 184.884 230.075 185.164 230.616 185.518L233.43 187.436ZM227.76 173.758L229.23 173.758C230.35 174.878 231.54 175.681 232.8 176.166C234.06 176.652 235.46 176.894 237 176.894L237 178.826C234.079 178.826 231.526 177.781 229.342 175.69L229.342 181.08L227.76 181.08L227.76 173.758ZM234.858 172.695C234.858 172.265 235.012 171.934 235.32 171.701C235.619 171.467 236.011 171.351 236.496 171.351C237.065 171.351 237.583 171.505 238.05 171.813C238.526 172.111 238.895 172.555 239.156 173.143L238.484 174.025C238.325 173.614 238.12 173.269 237.868 172.989C237.616 172.709 237.331 172.522 237.014 172.429L236.972 172.485C237.065 172.578 237.112 172.713 237.112 172.891C237.112 173.161 237.019 173.399 236.832 173.605C236.645 173.81 236.379 173.913 236.034 173.913C235.67 173.913 235.385 173.801 235.18 173.577C234.965 173.353 234.858 173.059 234.858 172.695ZM227.76 167.186L237 167.186L237 169.062L230.112 169.062C229.963 169.062 229.846 169.058 229.762 169.048C230.07 169.384 230.331 169.748 230.546 170.14C230.761 170.523 230.905 170.91 230.98 171.302L229.356 171.554C229.309 171.125 229.118 170.612 228.782 170.014C228.437 169.408 228.096 168.988 227.76 168.754L227.76 167.186Z" fill="#F3F2EF"/>
<path d="M125.62 99.296C125.62 98.5213 125.783 97.8773 126.11 97.364C126.427 96.8413 126.936 96.4493 127.636 96.188L128.392 97.812C127.608 98.0547 127.216 98.5913 127.216 99.422C127.216 99.814 127.351 100.164 127.622 100.472C127.883 100.78 128.252 101.023 128.728 101.2C129.204 101.368 129.75 101.452 130.366 101.452L130.604 101.452L130.604 101.41C130.147 101.261 129.801 100.971 129.568 100.542C129.335 100.113 129.218 99.618 129.218 99.058C129.218 98.47 129.339 97.9473 129.582 97.49C129.815 97.0327 130.151 96.678 130.59 96.426C131.029 96.1647 131.542 96.034 132.13 96.034C133.054 96.034 133.787 96.3373 134.328 96.944C134.869 97.5507 135.14 98.386 135.14 99.45C135.14 100.645 134.725 101.569 133.894 102.222C133.054 102.866 131.883 103.188 130.38 103.188C129.344 103.188 128.471 103.02 127.762 102.684C127.043 102.348 126.507 101.891 126.152 101.312C125.797 100.724 125.62 100.052 125.62 99.296ZM130.632 99.422C130.632 99.898 130.767 100.281 131.038 100.57C131.309 100.859 131.663 101.004 132.102 101.004C132.559 101.004 132.923 100.859 133.194 100.57C133.465 100.281 133.6 99.898 133.6 99.422C133.6 98.9273 133.469 98.5447 133.208 98.274C132.947 97.994 132.578 97.854 132.102 97.854C131.645 97.854 131.285 97.994 131.024 98.274C130.763 98.5447 130.632 98.9273 130.632 99.422ZM125.76 87.7095L127.23 87.7095C128.35 88.8295 129.54 89.6321 130.8 90.1175C132.06 90.6028 133.46 90.8455 135 90.8455L135 92.7775C132.079 92.7775 129.526 91.7321 127.342 89.6415L127.342 95.0315L125.76 95.0315L125.76 87.7095ZM132.83 80.001L132.83 81.499L135 81.499L135 83.249L132.83 83.249L132.83 87.855L131.808 87.855L125.76 83.809L125.76 81.499L131.43 81.499L131.43 80.001L132.83 80.001ZM131.43 85.993L131.43 83.249L128.602 83.249L127.09 83.207L127.09 83.235C127.566 83.4404 128.075 83.7204 128.616 84.075L131.43 85.993ZM132.858 77.6634C132.858 77.234 133.012 76.9027 133.32 76.6694C133.619 76.436 134.011 76.3194 134.496 76.3194C135.065 76.3194 135.583 76.4734 136.05 76.7814C136.526 77.08 136.895 77.5234 137.156 78.1114L136.484 78.9934C136.325 78.5827 136.12 78.2374 135.868 77.9574C135.616 77.6774 135.331 77.4907 135.014 77.3974L134.972 77.4534C135.065 77.5467 135.112 77.682 135.112 77.8594C135.112 78.13 135.019 78.368 134.832 78.5734C134.645 78.7787 134.379 78.8814 134.034 78.8814C133.67 78.8814 133.385 78.7694 133.18 78.5454C132.965 78.3214 132.858 78.0274 132.858 77.6634ZM132.83 67.3819L132.83 68.8799L135 68.8799L135 70.6299L132.83 70.6299L132.83 75.2359L131.808 75.2359L125.76 71.1899L125.76 68.8799L131.43 68.8799L131.43 67.3819L132.83 67.3819ZM131.43 73.3739L131.43 70.6299L128.602 70.6299L127.09 70.5879L127.09 70.6159C127.566 70.8212 128.075 71.1012 128.616 71.4559L131.43 73.3739Z" fill="#F3F2EF"/>
<path d="M197.05 171.408C197.05 170.512 197.316 169.807 197.848 169.294C198.371 168.771 199.061 168.51 199.92 168.51C200.956 168.51 201.754 168.827 202.314 169.462C202.865 170.087 203.14 170.913 203.14 171.94C203.14 172.771 202.986 173.471 202.678 174.04C202.361 174.6 201.866 175.057 201.194 175.412L200.228 173.676C200.685 173.555 201.031 173.368 201.264 173.116C201.488 172.855 201.6 172.467 201.6 171.954C201.6 171.441 201.465 171.039 201.194 170.75C200.923 170.451 200.541 170.302 200.046 170.302C199.542 170.311 199.159 170.451 198.898 170.722C198.627 170.993 198.492 171.389 198.492 171.912C198.492 172.687 198.716 173.251 199.164 173.606L198.996 175.118L193.76 174.544L193.76 168.986L195.314 168.986L195.314 173.088L197.484 173.354L197.75 173.396L197.75 173.382C197.526 173.177 197.353 172.906 197.232 172.57C197.111 172.225 197.05 171.837 197.05 171.408ZM193.76 160.215L195.23 160.215C196.35 161.335 197.54 162.138 198.8 162.623C200.06 163.109 201.46 163.351 203 163.351L203 165.283C200.079 165.283 197.526 164.238 195.342 162.147L195.342 167.537L193.76 167.537L193.76 160.215ZM193.76 151.889L195.23 151.889C196.35 153.009 197.54 153.812 198.8 154.297C200.06 154.782 201.46 155.025 203 155.025L203 156.957C200.079 156.957 197.526 155.912 195.342 153.821L195.342 159.211L193.76 159.211L193.76 151.889ZM200.858 150.825C200.858 150.396 201.012 150.065 201.32 149.831C201.619 149.598 202.011 149.481 202.496 149.481C203.065 149.481 203.583 149.635 204.05 149.943C204.526 150.242 204.895 150.685 205.156 151.273L204.484 152.155C204.325 151.745 204.12 151.399 203.868 151.119C203.616 150.839 203.331 150.653 203.014 150.559L202.972 150.615C203.065 150.709 203.112 150.844 203.112 151.021C203.112 151.292 203.019 151.53 202.832 151.735C202.645 151.941 202.379 152.043 202.034 152.043C201.67 152.043 201.385 151.931 201.18 151.707C200.965 151.483 200.858 151.189 200.858 150.825ZM193.62 144.676C193.62 143.481 194.04 142.562 194.88 141.918C195.711 141.265 196.887 140.938 198.408 140.938C199.995 140.938 201.18 141.265 201.964 141.918C202.748 142.571 203.14 143.505 203.14 144.718C203.14 145.567 202.972 146.267 202.636 146.818C202.3 147.359 201.787 147.77 201.096 148.05L200.34 146.272C200.76 146.16 201.077 145.992 201.292 145.768C201.497 145.535 201.6 145.18 201.6 144.704C201.6 144.004 201.329 143.495 200.788 143.178C200.247 142.851 199.467 142.688 198.45 142.688L198.254 142.688L198.254 142.744C198.73 142.865 199.085 143.145 199.318 143.584C199.551 144.023 199.668 144.522 199.668 145.082C199.668 145.661 199.547 146.179 199.304 146.636C199.061 147.093 198.716 147.457 198.268 147.728C197.82 147.989 197.297 148.12 196.7 148.12C195.748 148.12 194.997 147.817 194.446 147.21C193.895 146.594 193.62 145.749 193.62 144.676ZM195.202 144.704C195.202 145.208 195.333 145.595 195.594 145.866C195.855 146.137 196.224 146.272 196.7 146.272C197.167 146.272 197.531 146.137 197.792 145.866C198.053 145.595 198.184 145.208 198.184 144.704C198.184 144.228 198.049 143.85 197.778 143.57C197.507 143.281 197.148 143.136 196.7 143.136C196.243 143.136 195.879 143.281 195.608 143.57C195.337 143.85 195.202 144.228 195.202 144.704Z" fill="#F3F2EF"/>
<path d="M265.05 178.408C265.05 177.512 265.316 176.807 265.848 176.294C266.371 175.771 267.061 175.51 267.92 175.51C268.956 175.51 269.754 175.827 270.314 176.462C270.865 177.087 271.14 177.913 271.14 178.94C271.14 179.771 270.986 180.471 270.678 181.04C270.361 181.6 269.866 182.057 269.194 182.412L268.228 180.676C268.685 180.555 269.031 180.368 269.264 180.116C269.488 179.855 269.6 179.467 269.6 178.954C269.6 178.441 269.465 178.039 269.194 177.75C268.923 177.451 268.541 177.302 268.046 177.302C267.542 177.311 267.159 177.451 266.898 177.722C266.627 177.993 266.492 178.389 266.492 178.912C266.492 179.687 266.716 180.251 267.164 180.606L266.996 182.118L261.76 181.544L261.76 175.986L263.314 175.986L263.314 180.088L265.484 180.354L265.75 180.396L265.75 180.382C265.526 180.177 265.353 179.906 265.232 179.57C265.111 179.225 265.05 178.837 265.05 178.408ZM268.83 166.48L268.83 167.978L271 167.978L271 169.728L268.83 169.728L268.83 174.334L267.808 174.334L261.76 170.288L261.76 167.978L267.43 167.978L267.43 166.48L268.83 166.48ZM267.43 172.472L267.43 169.728L264.602 169.728L263.09 169.686L263.09 169.714C263.566 169.919 264.075 170.199 264.616 170.554L267.43 172.472ZM261.62 161.848C261.62 160.859 261.853 160.089 262.32 159.538C262.787 158.978 263.393 158.698 264.14 158.698C264.597 158.698 264.994 158.792 265.33 158.978C265.657 159.165 265.904 159.394 266.072 159.664C266.24 159.935 266.324 160.192 266.324 160.434L266.366 160.434C266.366 160.126 266.445 159.828 266.604 159.538C266.763 159.24 267.005 158.997 267.332 158.81C267.649 158.614 268.037 158.516 268.494 158.516C269.007 158.516 269.465 158.666 269.866 158.964C270.267 159.254 270.58 159.66 270.804 160.182C271.028 160.705 271.14 161.302 271.14 161.974C271.14 162.88 270.958 163.622 270.594 164.2C270.221 164.77 269.647 165.185 268.872 165.446L268.088 163.696C268.601 163.594 268.979 163.407 269.222 163.136C269.465 162.856 269.586 162.464 269.586 161.96C269.586 161.484 269.469 161.106 269.236 160.826C268.993 160.546 268.671 160.406 268.27 160.406C267.841 160.406 267.533 160.542 267.346 160.812C267.15 161.074 267.052 161.489 267.052 162.058L267.052 162.52L265.708 162.52L265.708 162.128C265.708 161.12 265.283 160.616 264.434 160.616C264.023 160.616 263.711 160.733 263.496 160.966C263.281 161.19 263.174 161.512 263.174 161.932C263.174 162.362 263.286 162.707 263.51 162.968C263.734 163.23 264.061 163.393 264.49 163.458L263.86 165.18C263.123 165.003 262.567 164.62 262.194 164.032C261.811 163.435 261.62 162.707 261.62 161.848Z" fill="#F3F2EF"/>
<path d="M35.76 59.0317L37.23 59.0317C38.35 60.1517 39.54 60.9544 40.8 61.4397C42.06 61.9251 43.46 62.1677 45 62.1677L45 64.0997C42.0787 64.0997 39.526 63.0544 37.342 60.9637L37.342 66.3537L35.76 66.3537L35.76 59.0317ZM42.83 51.3233L42.83 52.8213L45 52.8213L45 54.5713L42.83 54.5713L42.83 59.1773L41.808 59.1773L35.76 55.1313L35.76 52.8213L41.43 52.8213L41.43 51.3233L42.83 51.3233ZM41.43 57.3153L41.43 54.5713L38.602 54.5713L37.09 54.5293L37.09 54.5573C37.566 54.7626 38.0747 55.0426 38.616 55.3973L41.43 57.3153ZM35.62 46.6919C35.62 45.7026 35.8533 44.9326 36.32 44.3819C36.7867 43.8219 37.3933 43.5419 38.14 43.5419C38.5973 43.5419 38.994 43.6353 39.33 43.8219C39.6567 44.0086 39.904 44.2373 40.072 44.5079C40.24 44.7786 40.324 45.0353 40.324 45.2779L40.366 45.2779C40.366 44.9699 40.4453 44.6713 40.604 44.3819C40.7627 44.0833 41.0053 43.8406 41.332 43.6539C41.6493 43.4579 42.0367 43.3599 42.494 43.3599C43.0073 43.3599 43.4647 43.5093 43.866 43.8079C44.2673 44.0973 44.58 44.5033 44.804 45.0259C45.028 45.5486 45.14 46.1459 45.14 46.8179C45.14 47.7233 44.958 48.4653 44.594 49.0439C44.2207 49.6133 43.6467 50.0286 42.872 50.2899L42.088 48.5399C42.6013 48.4373 42.9793 48.2506 43.222 47.9799C43.4647 47.6999 43.586 47.3079 43.586 46.8039C43.586 46.3279 43.4693 45.9499 43.236 45.6699C42.9933 45.3899 42.6713 45.2499 42.27 45.2499C41.8407 45.2499 41.5327 45.3853 41.346 45.6559C41.15 45.9173 41.052 46.3326 41.052 46.9019L41.052 47.3639L39.708 47.3639L39.708 46.9719C39.708 45.9639 39.2833 45.4599 38.434 45.4599C38.0233 45.4599 37.7107 45.5766 37.496 45.8099C37.2813 46.0339 37.174 46.3559 37.174 46.7759C37.174 47.2053 37.286 47.5506 37.51 47.8119C37.734 48.0733 38.0607 48.2366 38.49 48.3019L37.86 50.0239C37.1227 49.8466 36.5673 49.4639 36.194 48.8759C35.8113 48.2786 35.62 47.5506 35.62 46.6919ZM42.858 40.6458C42.858 40.2165 43.012 39.8851 43.32 39.6518C43.6187 39.4185 44.0107 39.3018 44.496 39.3018C45.0653 39.3018 45.5833 39.4558 46.05 39.7638C46.526 40.0625 46.8947 40.5058 47.156 41.0938L46.484 41.9758C46.3253 41.5651 46.12 41.2198 45.868 40.9398C45.616 40.6598 45.3313 40.4731 45.014 40.3798L44.972 40.4358C45.0653 40.5291 45.112 40.6645 45.112 40.8418C45.112 41.1125 45.0187 41.3505 44.832 41.5558C44.6453 41.7611 44.3793 41.8638 44.034 41.8638C43.67 41.8638 43.3853 41.7518 43.18 41.5278C42.9653 41.3038 42.858 41.0098 42.858 40.6458ZM35.62 34.4963C35.62 33.3016 36.04 32.3823 36.88 31.7383C37.7107 31.085 38.8867 30.7583 40.408 30.7583C41.9947 30.7583 43.18 31.085 43.964 31.7383C44.748 32.3916 45.14 33.325 45.14 34.5383C45.14 35.3876 44.972 36.0876 44.636 36.6383C44.3 37.1796 43.7867 37.5903 43.096 37.8703L42.34 36.0923C42.76 35.9803 43.0773 35.8123 43.292 35.5883C43.4973 35.355 43.6 35.0003 43.6 34.5243C43.6 33.8243 43.3293 33.3156 42.788 32.9983C42.2467 32.6716 41.4673 32.5083 40.45 32.5083L40.254 32.5083L40.254 32.5643C40.73 32.6856 41.0847 32.9656 41.318 33.4043C41.5513 33.843 41.668 34.3423 41.668 34.9023C41.668 35.481 41.5467 35.999 41.304 36.4563C41.0613 36.9136 40.716 37.2776 40.268 37.5483C39.82 37.8096 39.2973 37.9403 38.7 37.9403C37.748 37.9403 36.9967 37.637 36.446 37.0303C35.8953 36.4143 35.62 35.5696 35.62 34.4963ZM37.202 34.5243C37.202 35.0283 37.3327 35.4156 37.594 35.6863C37.8553 35.957 38.224 36.0923 38.7 36.0923C39.1667 36.0923 39.5307 35.957 39.792 35.6863C40.0533 35.4156 40.184 35.0283 40.184 34.5243C40.184 34.0483 40.0487 33.6703 39.778 33.3903C39.5073 33.101 39.148 32.9563 38.7 32.9563C38.2427 32.9563 37.8787 33.101 37.608 33.3903C37.3373 33.6703 37.202 34.0483 37.202 34.5243Z" fill="#332827"/>
<path d="M14.2867 547.28C15.268 547.28 16.1107 547.445 16.8147 547.776C17.5187 548.096 18.1374 548.608 18.6707 549.312L17.1507 550.8C16.8734 550.224 16.5054 549.797 16.0467 549.52C15.588 549.232 15.0067 549.088 14.3027 549.088C13.6627 549.088 13.1667 549.211 12.8147 549.456C12.4734 549.691 12.3027 550.005 12.3027 550.4C12.3027 550.763 12.4787 551.051 12.8307 551.264C13.1827 551.477 13.8174 551.664 14.7347 551.824C15.6947 552.005 16.4574 552.229 17.0227 552.496C17.588 552.763 17.9987 553.099 18.2547 553.504C18.5214 553.899 18.6547 554.395 18.6547 554.992C18.6547 555.643 18.468 556.208 18.0947 556.688C17.732 557.157 17.22 557.52 16.5587 557.776C15.908 558.032 15.1614 558.16 14.3187 558.16C13.156 558.16 12.2014 558 11.4547 557.68C10.7187 557.349 10.1214 556.853 9.66269 556.192L10.9747 554.624C11.3694 555.275 11.8227 555.728 12.3347 555.984C12.8467 556.229 13.4814 556.352 14.2387 556.352C14.9214 556.352 15.4387 556.245 15.7907 556.032C16.1534 555.819 16.3347 555.515 16.3347 555.12C16.3347 554.832 16.164 554.592 15.8227 554.4C15.492 554.208 14.8947 554.027 14.0307 553.856C13.0387 553.653 12.244 553.413 11.6467 553.136C11.06 552.859 10.6334 552.517 10.3667 552.112C10.1 551.707 9.96669 551.205 9.96669 550.608C9.96669 549.979 10.1374 549.413 10.4787 548.912C10.82 548.4 11.316 548 11.9667 547.712C12.628 547.424 13.4014 547.28 14.2867 547.28ZM28.7671 549.216H25.2311L25.2311 558H23.0231V549.216H19.4711V547.44H28.7671V549.216ZM38.7153 556.224V558H30.5713L30.5713 547.44H38.4913V549.216H32.7793V551.84H37.2753V553.536H32.7793V556.224H38.7153ZM45.1283 547.44C46.355 547.44 47.3096 547.739 47.9923 548.336C48.675 548.923 49.0163 549.755 49.0163 550.832C49.0163 551.877 48.675 552.693 47.9923 553.28C47.3096 553.867 46.355 554.16 45.1283 554.16H42.9043V558H40.6963V547.44H45.1283ZM44.7923 552.448C45.475 552.448 45.9763 552.315 46.2963 552.048C46.6163 551.771 46.7763 551.36 46.7763 550.816C46.7763 550.272 46.6163 549.867 46.2963 549.6C45.9763 549.333 45.475 549.2 44.7923 549.2H42.9043V552.448H44.7923ZM54.8961 547.28C55.8774 547.28 56.7201 547.445 57.4241 547.776C58.1281 548.096 58.7467 548.608 59.2801 549.312L57.7601 550.8C57.4827 550.224 57.1147 549.797 56.6561 549.52C56.1974 549.232 55.6161 549.088 54.9121 549.088C54.2721 549.088 53.7761 549.211 53.4241 549.456C53.0827 549.691 52.9121 550.005 52.9121 550.4C52.9121 550.763 53.0881 551.051 53.4401 551.264C53.7921 551.477 54.4267 551.664 55.3441 551.824C56.3041 552.005 57.0667 552.229 57.6321 552.496C58.1974 552.763 58.6081 553.099 58.8641 553.504C59.1307 553.899 59.2641 554.395 59.2641 554.992C59.2641 555.643 59.0774 556.208 58.7041 556.688C58.3414 557.157 57.8294 557.52 57.1681 557.776C56.5174 558.032 55.7707 558.16 54.9281 558.16C53.7654 558.16 52.8107 558 52.0641 557.68C51.3281 557.349 50.7307 556.853 50.2721 556.192L51.5841 554.624C51.9787 555.275 52.4321 555.728 52.9441 555.984C53.4561 556.229 54.0907 556.352 54.8481 556.352C55.5307 556.352 56.0481 556.245 56.4001 556.032C56.7627 555.819 56.9441 555.515 56.9441 555.12C56.9441 554.832 56.7734 554.592 56.4321 554.4C56.1014 554.208 55.5041 554.027 54.6401 553.856C53.6481 553.653 52.8534 553.413 52.2561 553.136C51.6694 552.859 51.2427 552.517 50.9761 552.112C50.7094 551.707 50.5761 551.205 50.5761 550.608C50.5761 549.979 50.7467 549.413 51.0881 548.912C51.4294 548.4 51.9254 548 52.5761 547.712C53.2374 547.424 54.0107 547.28 54.8961 547.28Z" fill="#F3F2EF"/>
<path d="M93.6963 555.424H89.6323L88.7683 558H86.5123L90.3683 547.44H93.0083L96.8643 558H94.5763L93.6963 555.424ZM93.1523 553.792L92.1603 550.816L91.6803 549.216H91.6483L91.2003 550.784L90.1763 553.792H93.1523ZM102.863 547.44C104.089 547.44 105.044 547.739 105.727 548.336C106.409 548.923 106.751 549.755 106.751 550.832C106.751 551.877 106.409 552.693 105.727 553.28C105.044 553.867 104.089 554.16 102.863 554.16H100.639V558H98.4307V547.44H102.863ZM102.527 552.448C103.209 552.448 103.711 552.315 104.031 552.048C104.351 551.771 104.511 551.36 104.511 550.816C104.511 550.272 104.351 549.867 104.031 549.6C103.711 549.333 103.209 549.2 102.527 549.2H100.639V552.448H102.527ZM112.63 547.28C113.612 547.28 114.454 547.445 115.158 547.776C115.862 548.096 116.481 548.608 117.014 549.312L115.494 550.8C115.217 550.224 114.849 549.797 114.39 549.52C113.932 549.232 113.35 549.088 112.646 549.088C112.006 549.088 111.51 549.211 111.158 549.456C110.817 549.691 110.646 550.005 110.646 550.4C110.646 550.763 110.822 551.051 111.174 551.264C111.526 551.477 112.161 551.664 113.078 551.824C114.038 552.005 114.801 552.229 115.366 552.496C115.932 552.763 116.342 553.099 116.598 553.504C116.865 553.899 116.998 554.395 116.998 554.992C116.998 555.643 116.812 556.208 116.438 556.688C116.076 557.157 115.564 557.52 114.902 557.776C114.252 558.032 113.505 558.16 112.662 558.16C111.5 558.16 110.545 558 109.798 557.68C109.062 557.349 108.465 556.853 108.006 556.192L109.318 554.624C109.713 555.275 110.166 555.728 110.678 555.984C111.19 556.229 111.825 556.352 112.582 556.352C113.265 556.352 113.782 556.245 114.134 556.032C114.497 555.819 114.678 555.515 114.678 555.12C114.678 554.832 114.508 554.592 114.166 554.4C113.836 554.208 113.238 554.027 112.374 553.856C111.382 553.653 110.588 553.413 109.99 553.136C109.404 552.859 108.977 552.517 108.71 552.112C108.444 551.707 108.31 551.205 108.31 550.608C108.31 549.979 108.481 549.413 108.822 548.912C109.164 548.4 109.66 548 110.31 547.712C110.972 547.424 111.745 547.28 112.63 547.28Z" fill="#F3F2EF"/>
<path d="M159.232 547.28C160.213 547.28 161.056 547.445 161.76 547.776C162.464 548.096 163.083 548.608 163.616 549.312L162.096 550.8C161.819 550.224 161.451 549.797 160.992 549.52C160.533 549.232 159.952 549.088 159.248 549.088C158.608 549.088 158.112 549.211 157.76 549.456C157.419 549.691 157.248 550.005 157.248 550.4C157.248 550.763 157.424 551.051 157.776 551.264C158.128 551.477 158.763 551.664 159.68 551.824C160.64 552.005 161.403 552.229 161.968 552.496C162.533 552.763 162.944 553.099 163.2 553.504C163.467 553.899 163.6 554.395 163.6 554.992C163.6 555.643 163.413 556.208 163.04 556.688C162.677 557.157 162.165 557.52 161.504 557.776C160.853 558.032 160.107 558.16 159.264 558.16C158.101 558.16 157.147 558 156.4 557.68C155.664 557.349 155.067 556.853 154.608 556.192L155.92 554.624C156.315 555.275 156.768 555.728 157.28 555.984C157.792 556.229 158.427 556.352 159.184 556.352C159.867 556.352 160.384 556.245 160.736 556.032C161.099 555.819 161.28 555.515 161.28 555.12C161.28 554.832 161.109 554.592 160.768 554.4C160.437 554.208 159.84 554.027 158.976 553.856C157.984 553.653 157.189 553.413 156.592 553.136C156.005 552.859 155.579 552.517 155.312 552.112C155.045 551.707 154.912 551.205 154.912 550.608C154.912 549.979 155.083 549.413 155.424 548.912C155.765 548.4 156.261 548 156.912 547.712C157.573 547.424 158.347 547.28 159.232 547.28ZM169.737 547.44C171.391 547.44 172.671 547.899 173.577 548.816C174.484 549.733 174.937 551.035 174.937 552.72C174.937 554.405 174.484 555.707 173.577 556.624C172.671 557.541 171.391 558 169.737 558H165.657V547.44H169.737ZM169.625 556.24C170.628 556.24 171.38 555.941 171.881 555.344C172.393 554.736 172.649 553.861 172.649 552.72C172.649 551.579 172.393 550.709 171.881 550.112C171.38 549.504 170.628 549.2 169.625 549.2H167.865V556.24H169.625ZM180.951 547.28C181.932 547.28 182.775 547.445 183.479 547.776C184.183 548.096 184.801 548.608 185.335 549.312L183.815 550.8C183.537 550.224 183.169 549.797 182.711 549.52C182.252 549.232 181.671 549.088 180.967 549.088C180.327 549.088 179.831 549.211 179.479 549.456C179.137 549.691 178.967 550.005 178.967 550.4C178.967 550.763 179.143 551.051 179.495 551.264C179.847 551.477 180.481 551.664 181.399 551.824C182.359 552.005 183.121 552.229 183.687 552.496C184.252 552.763 184.663 553.099 184.919 553.504C185.185 553.899 185.319 554.395 185.319 554.992C185.319 555.643 185.132 556.208 184.759 556.688C184.396 557.157 183.884 557.52 183.223 557.776C182.572 558.032 181.825 558.16 180.983 558.16C179.82 558.16 178.865 558 178.119 557.68C177.383 557.349 176.785 556.853 176.327 556.192L177.639 554.624C178.033 555.275 178.487 555.728 178.999 555.984C179.511 556.229 180.145 556.352 180.903 556.352C181.585 556.352 182.103 556.245 182.455 556.032C182.817 555.819 182.999 555.515 182.999 555.12C182.999 554.832 182.828 554.592 182.487 554.4C182.156 554.208 181.559 554.027 180.695 553.856C179.703 553.653 178.908 553.413 178.311 553.136C177.724 552.859 177.297 552.517 177.031 552.112C176.764 551.707 176.631 551.205 176.631 550.608C176.631 549.979 176.801 549.413 177.143 548.912C177.484 548.4 177.98 548 178.631 547.712C179.292 547.424 180.065 547.28 180.951 547.28Z" fill="#F3F2EF"/>
<circle cx="178" cy="62" r="3.5" fill="#332827" stroke="#332827"/>
<circle cx="178" cy="80" r="3.5" fill="#F8D448" stroke="#332827"/>
<path d="M187.143 64.872C188.111 64.224 188.879 63.656 189.447 63.168C190.015 62.68 190.427 62.228 190.683 61.812C190.939 61.396 191.067 60.984 191.067 60.576C191.067 60.2 190.951 59.896 190.719 59.664C190.495 59.432 190.183 59.316 189.783 59.316C189.343 59.316 188.995 59.468 188.739 59.772C188.483 60.076 188.343 60.508 188.319 61.068L186.891 60.528C186.947 59.728 187.243 59.1 187.779 58.644C188.315 58.188 189.015 57.96 189.879 57.96C190.495 57.96 191.015 58.076 191.439 58.308C191.871 58.54 192.195 58.848 192.411 59.232C192.627 59.608 192.735 60.024 192.735 60.48C192.735 61.224 192.455 61.928 191.895 62.592C191.335 63.248 190.443 63.952 189.219 64.704V64.716C189.683 64.684 190.167 64.668 190.671 64.668H192.855V66H187.143V64.872ZM197.269 66.12C196.221 66.12 195.429 65.776 194.893 65.088C194.365 64.4 194.101 63.384 194.101 62.04C194.101 60.696 194.365 59.68 194.893 58.992C195.429 58.304 196.221 57.96 197.269 57.96C198.317 57.96 199.105 58.304 199.633 58.992C200.169 59.68 200.437 60.696 200.437 62.04C200.437 63.384 200.169 64.4 199.633 65.088C199.105 65.776 198.317 66.12 197.269 66.12ZM197.269 64.788C197.781 64.788 198.161 64.564 198.409 64.116C198.657 63.668 198.781 62.976 198.781 62.04C198.781 61.104 198.657 60.412 198.409 59.964C198.161 59.516 197.781 59.292 197.269 59.292C196.757 59.292 196.377 59.516 196.129 59.964C195.881 60.412 195.757 61.104 195.757 62.04C195.757 62.976 195.881 63.668 196.129 64.116C196.377 64.564 196.757 64.788 197.269 64.788ZM204.493 57.96C205.341 57.96 206.001 58.16 206.473 58.56C206.953 58.96 207.193 59.48 207.193 60.12C207.193 60.512 207.113 60.852 206.953 61.14C206.793 61.42 206.597 61.632 206.365 61.776C206.133 61.92 205.913 61.992 205.705 61.992V62.028C205.969 62.028 206.225 62.096 206.473 62.232C206.729 62.368 206.937 62.576 207.097 62.856C207.265 63.128 207.349 63.46 207.349 63.852C207.349 64.292 207.221 64.684 206.965 65.028C206.717 65.372 206.369 65.64 205.921 65.832C205.473 66.024 204.961 66.12 204.385 66.12C203.609 66.12 202.973 65.964 202.477 65.652C201.989 65.332 201.633 64.84 201.409 64.176L202.909 63.504C202.997 63.944 203.157 64.268 203.389 64.476C203.629 64.684 203.965 64.788 204.397 64.788C204.805 64.788 205.129 64.688 205.369 64.488C205.609 64.28 205.729 64.004 205.729 63.66C205.729 63.292 205.613 63.028 205.381 62.868C205.157 62.7 204.801 62.616 204.313 62.616H203.917V61.464H204.253C205.117 61.464 205.549 61.1 205.549 60.372C205.549 60.02 205.449 59.752 205.249 59.568C205.057 59.384 204.781 59.292 204.421 59.292C204.053 59.292 203.757 59.388 203.533 59.58C203.309 59.772 203.169 60.052 203.113 60.42L201.637 59.88C201.789 59.248 202.117 58.772 202.621 58.452C203.133 58.124 203.757 57.96 204.493 57.96ZM211.824 66.12C210.776 66.12 209.984 65.776 209.448 65.088C208.92 64.4 208.656 63.384 208.656 62.04C208.656 60.696 208.92 59.68 209.448 58.992C209.984 58.304 210.776 57.96 211.824 57.96C212.872 57.96 213.66 58.304 214.188 58.992C214.724 59.68 214.992 60.696 214.992 62.04C214.992 63.384 214.724 64.4 214.188 65.088C213.66 65.776 212.872 66.12 211.824 66.12ZM211.824 64.788C212.336 64.788 212.716 64.564 212.964 64.116C213.212 63.668 213.336 62.976 213.336 62.04C213.336 61.104 213.212 60.412 212.964 59.964C212.716 59.516 212.336 59.292 211.824 59.292C211.312 59.292 210.932 59.516 210.684 59.964C210.436 60.412 210.312 61.104 210.312 62.04C210.312 62.976 210.436 63.668 210.684 64.116C210.932 64.564 211.312 64.788 211.824 64.788Z" fill="#F3F2EF"/>
<path d="M186.78 82.872C187.748 82.224 188.516 81.656 189.084 81.168C189.652 80.68 190.064 80.228 190.32 79.812C190.576 79.396 190.704 78.984 190.704 78.576C190.704 78.2 190.588 77.896 190.356 77.664C190.132 77.432 189.82 77.316 189.42 77.316C188.98 77.316 188.632 77.468 188.376 77.772C188.12 78.076 187.98 78.508 187.956 79.068L186.528 78.528C186.584 77.728 186.88 77.1 187.416 76.644C187.952 76.188 188.652 75.96 189.516 75.96C190.132 75.96 190.652 76.076 191.076 76.308C191.508 76.54 191.832 76.848 192.048 77.232C192.264 77.608 192.372 78.024 192.372 78.48C192.372 79.224 192.092 79.928 191.532 80.592C190.972 81.248 190.08 81.952 188.856 82.704V82.716C189.32 82.684 189.804 82.668 190.308 82.668H192.492V84H186.78V82.872ZM196.906 84.12C195.858 84.12 195.066 83.776 194.53 83.088C194.002 82.4 193.738 81.384 193.738 80.04C193.738 78.696 194.002 77.68 194.53 76.992C195.066 76.304 195.858 75.96 196.906 75.96C197.954 75.96 198.742 76.304 199.27 76.992C199.806 77.68 200.074 78.696 200.074 80.04C200.074 81.384 199.806 82.4 199.27 83.088C198.742 83.776 197.954 84.12 196.906 84.12ZM196.906 82.788C197.418 82.788 197.798 82.564 198.046 82.116C198.294 81.668 198.418 80.976 198.418 80.04C198.418 79.104 198.294 78.412 198.046 77.964C197.798 77.516 197.418 77.292 196.906 77.292C196.394 77.292 196.014 77.516 195.766 77.964C195.518 78.412 195.394 79.104 195.394 80.04C195.394 80.976 195.518 81.668 195.766 82.116C196.014 82.564 196.394 82.788 196.906 82.788ZM204.608 78.9C205.376 78.9 205.98 79.128 206.42 79.584C206.868 80.032 207.092 80.624 207.092 81.36C207.092 82.248 206.82 82.932 206.276 83.412C205.74 83.884 205.032 84.12 204.152 84.12C203.44 84.12 202.84 83.988 202.352 83.724C201.872 83.452 201.48 83.028 201.176 82.452L202.664 81.624C202.768 82.016 202.928 82.312 203.144 82.512C203.368 82.704 203.7 82.8 204.14 82.8C204.58 82.8 204.924 82.684 205.172 82.452C205.428 82.22 205.556 81.892 205.556 81.468C205.548 81.036 205.428 80.708 205.196 80.484C204.964 80.252 204.624 80.136 204.176 80.136C203.512 80.136 203.028 80.328 202.724 80.712L201.428 80.568L201.92 76.08H206.684V77.412H203.168L202.94 79.272L202.904 79.5H202.916C203.092 79.308 203.324 79.16 203.612 79.056C203.908 78.952 204.24 78.9 204.608 78.9ZM211.472 84.12C210.424 84.12 209.632 83.776 209.096 83.088C208.568 82.4 208.304 81.384 208.304 80.04C208.304 78.696 208.568 77.68 209.096 76.992C209.632 76.304 210.424 75.96 211.472 75.96C212.52 75.96 213.308 76.304 213.836 76.992C214.372 77.68 214.64 78.696 214.64 80.04C214.64 81.384 214.372 82.4 213.836 83.088C213.308 83.776 212.52 84.12 211.472 84.12ZM211.472 82.788C211.984 82.788 212.364 82.564 212.612 82.116C212.86 81.668 212.984 80.976 212.984 80.04C212.984 79.104 212.86 78.412 212.612 77.964C212.364 77.516 211.984 77.292 211.472 77.292C210.96 77.292 210.58 77.516 210.332 77.964C210.084 78.412 209.96 79.104 209.96 80.04C209.96 80.976 210.084 81.668 210.332 82.116C210.58 82.564 210.96 82.788 211.472 82.788Z" fill="#F3F2EF"/>
<path d="M231.909 558H229.381L225.685 551.792L224.773 550.016H224.757L224.821 551.888V558H222.837V547.44H225.349L229.045 553.632L229.957 555.424H229.989L229.925 553.552V547.44H231.909V558ZM242.777 556.24V558H233.993V556.336L240.153 549.2H234.121V547.44H242.585V549.104L236.425 556.24H242.777ZM252.934 556.224V558H244.79V547.44H252.71V549.216H246.998V551.84H251.494V553.536H246.998V556.224H252.934Z" fill="#F3F2EF"/>
<rect x="237" y="534" width="1" height="8" fill="#F3F2EF"/>
<rect x="170" y="534" width="1" height="8" fill="#F3F2EF"/>
<rect x="101" y="534" width="1" height="8" fill="#F3F2EF"/>
<rect x="33" y="534" width="1" height="8" fill="#F3F2EF"/>
<rect y="532" width="273" height="2" fill="#F3F2EF"/>
<mask id="path-33-inside-1_4611_79" fill="white">
<path d="M504.5 18C610.263 18 696 103.737 696 209.5C696 315.263 610.263 401 504.5 401C398.737 401 313 315.263 313 209.5C313 103.737 398.737 18 504.5 18ZM504.5 378.02C597.571 378.02 673.02 302.571 673.02 209.5C673.02 116.429 597.571 40.98 504.5 40.98C411.429 40.98 335.98 116.429 335.98 209.5C335.98 302.571 411.429 378.02 504.5 378.02Z"/>
</mask>
<path d="M504.5 18C610.263 18 696 103.737 696 209.5C696 315.263 610.263 401 504.5 401C398.737 401 313 315.263 313 209.5C313 103.737 398.737 18 504.5 18ZM504.5 378.02C597.571 378.02 673.02 302.571 673.02 209.5C673.02 116.429 597.571 40.98 504.5 40.98C411.429 40.98 335.98 116.429 335.98 209.5C335.98 302.571 411.429 378.02 504.5 378.02Z" fill="#FFFFFC" stroke="#332827" stroke-width="2" mask="url(#path-33-inside-1_4611_79)"/>
<mask id="path-34-inside-2_4611_79" fill="white">
<path d="M504.5 29.49C504.5 23.1443 509.649 17.9641 515.983 18.3446C544.761 20.0733 572.831 28.2819 598.071 42.417C626.659 58.427 650.661 81.5043 667.781 109.442C684.901 137.379 694.566 169.241 695.852 201.982C697.139 234.722 690.003 267.245 675.128 296.439C660.252 325.634 638.135 350.523 610.892 368.726C583.648 386.93 552.189 397.839 519.525 400.41C486.86 402.98 454.082 397.127 424.327 383.409C398.055 371.298 374.916 353.414 356.602 331.149C352.571 326.248 353.735 319.037 358.869 315.307C364.003 311.577 371.159 312.744 375.23 317.612C391.205 336.713 411.248 352.075 433.947 362.54C460.133 374.612 488.977 379.763 517.722 377.501C546.467 375.238 574.15 365.638 598.125 349.619C622.099 333.6 641.562 311.698 654.652 286.006C667.743 260.315 674.022 231.695 672.89 202.884C671.758 174.072 663.253 146.033 648.187 121.449C633.121 96.8638 612 76.5557 586.842 62.467C565.034 50.2535 540.824 43.068 515.981 41.3715C509.65 40.9392 504.5 35.8358 504.5 29.49Z"/>
</mask>
<path d="M504.5 29.49C504.5 23.1443 509.649 17.9641 515.983 18.3446C544.761 20.0733 572.831 28.2819 598.071 42.417C626.659 58.427 650.661 81.5043 667.781 109.442C684.901 137.379 694.566 169.241 695.852 201.982C697.139 234.722 690.003 267.245 675.128 296.439C660.252 325.634 638.135 350.523 610.892 368.726C583.648 386.93 552.189 397.839 519.525 400.41C486.86 402.98 454.082 397.127 424.327 383.409C398.055 371.298 374.916 353.414 356.602 331.149C352.571 326.248 353.735 319.037 358.869 315.307C364.003 311.577 371.159 312.744 375.23 317.612C391.205 336.713 411.248 352.075 433.947 362.54C460.133 374.612 488.977 379.763 517.722 377.501C546.467 375.238 574.15 365.638 598.125 349.619C622.099 333.6 641.562 311.698 654.652 286.006C667.743 260.315 674.022 231.695 672.89 202.884C671.758 174.072 663.253 146.033 648.187 121.449C633.121 96.8638 612 76.5557 586.842 62.467C565.034 50.2535 540.824 43.068 515.981 41.3715C509.65 40.9392 504.5 35.8358 504.5 29.49Z" fill="#FFF68C" stroke="#332827" stroke-width="2" mask="url(#path-34-inside-2_4611_79)"/>
<mask id="path-35-inside-3_4611_79" fill="white">
<path d="M504.5 29.49C504.5 23.1443 509.649 17.9641 515.984 18.3445C555.416 20.7127 593.258 35.2313 624.234 60.0476C658.206 87.2646 681.892 125.244 691.388 167.726C700.884 210.207 695.623 254.657 676.472 293.748C659.011 329.392 630.952 358.641 596.281 377.573C590.711 380.614 583.846 378.12 581.145 372.378C578.443 366.636 580.93 359.825 586.475 356.739C616.429 340.062 640.673 314.59 655.836 283.639C672.688 249.238 677.318 210.123 668.962 172.738C660.605 135.354 639.762 101.933 609.866 77.9819C582.968 56.4324 550.186 43.7067 515.982 41.3715C509.651 40.9392 504.5 35.8358 504.5 29.49Z"/>
</mask>
<path d="M504.5 29.49C504.5 23.1443 509.649 17.9641 515.984 18.3445C555.416 20.7127 593.258 35.2313 624.234 60.0476C658.206 87.2646 681.892 125.244 691.388 167.726C700.884 210.207 695.623 254.657 676.472 293.748C659.011 329.392 630.952 358.641 596.281 377.573C590.711 380.614 583.846 378.12 581.145 372.378C578.443 366.636 580.93 359.825 586.475 356.739C616.429 340.062 640.673 314.59 655.836 283.639C672.688 249.238 677.318 210.123 668.962 172.738C660.605 135.354 639.762 101.933 609.866 77.9819C582.968 56.4324 550.186 43.7067 515.982 41.3715C509.651 40.9392 504.5 35.8358 504.5 29.49Z" fill="#F8D448" stroke="#332827" stroke-width="4" mask="url(#path-35-inside-3_4611_79)"/>
<path d="M323.273 12H321.989V4.08H323.273V12ZM328.622 5.88C329.286 5.88 329.826 6.072 330.242 6.456C330.666 6.84 330.878 7.392 330.878 8.112V12H329.594V8.52C329.594 7.464 329.166 6.936 328.31 6.936C327.862 6.936 327.478 7.092 327.158 7.404C326.838 7.708 326.678 8.18 326.678 8.82V12H325.394V6H326.534L326.594 6.996C326.794 6.62 327.07 6.34 327.422 6.156C327.774 5.972 328.174 5.88 328.622 5.88ZM338.38 3.3V12H337.252L337.18 10.932C337.004 11.292 336.736 11.58 336.376 11.796C336.024 12.012 335.62 12.12 335.164 12.12C334.34 12.12 333.688 11.848 333.208 11.304C332.736 10.752 332.5 9.988 332.5 9.012C332.5 8.036 332.736 7.272 333.208 6.72C333.688 6.16 334.34 5.88 335.164 5.88C335.604 5.88 335.992 5.98 336.328 6.18C336.664 6.372 336.92 6.636 337.096 6.972V3.3H338.38ZM335.452 11.088C335.956 11.088 336.356 10.908 336.652 10.548C336.948 10.188 337.096 9.696 337.096 9.072V8.928C337.096 8.304 336.948 7.816 336.652 7.464C336.356 7.104 335.956 6.924 335.452 6.924C334.932 6.924 334.524 7.108 334.228 7.476C333.94 7.836 333.796 8.344 333.796 9C333.796 9.656 333.94 10.168 334.228 10.536C334.524 10.904 334.932 11.088 335.452 11.088ZM345.807 6V12H344.667L344.619 11.028C344.211 11.756 343.499 12.12 342.483 12.12C341.835 12.12 341.311 11.944 340.911 11.592C340.519 11.232 340.323 10.684 340.323 9.948V6H341.607V9.612C341.607 10.14 341.711 10.516 341.919 10.74C342.127 10.956 342.435 11.064 342.843 11.064C343.331 11.064 343.731 10.912 344.043 10.608C344.363 10.296 344.523 9.84 344.523 9.24V6H345.807ZM349.973 12.12C349.365 12.12 348.825 12.016 348.353 11.808C347.889 11.6 347.537 11.284 347.297 10.86L348.161 10.116C348.313 10.46 348.549 10.712 348.869 10.872C349.189 11.032 349.573 11.112 350.021 11.112C350.429 11.112 350.745 11.048 350.969 10.92C351.193 10.784 351.305 10.608 351.305 10.392C351.305 10.2 351.201 10.048 350.993 9.936C350.785 9.816 350.425 9.704 349.913 9.6C349.025 9.432 348.401 9.208 348.041 8.928C347.681 8.648 347.501 8.252 347.501 7.74C347.501 7.412 347.601 7.108 347.801 6.828C348.001 6.54 348.289 6.312 348.665 6.144C349.049 5.968 349.501 5.88 350.021 5.88C350.685 5.88 351.217 5.992 351.617 6.216C352.017 6.432 352.325 6.772 352.541 7.236L351.629 7.908C351.485 7.556 351.281 7.3 351.017 7.14C350.761 6.972 350.433 6.888 350.033 6.888C349.673 6.888 349.373 6.964 349.133 7.116C348.901 7.26 348.785 7.428 348.785 7.62C348.785 7.836 348.889 8.008 349.097 8.136C349.313 8.264 349.701 8.38 350.261 8.484C351.109 8.636 351.709 8.852 352.061 9.132C352.413 9.412 352.589 9.804 352.589 10.308C352.589 10.844 352.357 11.28 351.893 11.616C351.429 11.952 350.789 12.12 349.973 12.12ZM358.04 11.604C357.848 11.764 357.612 11.892 357.332 11.988C357.06 12.076 356.764 12.12 356.444 12.12C355.892 12.12 355.448 11.984 355.112 11.712C354.784 11.432 354.616 11 354.608 10.416V7.008H353.468V6H354.608V4.596L355.892 4.236V6H357.992V7.008H355.892V10.2C355.892 10.488 355.968 10.704 356.12 10.848C356.28 10.984 356.496 11.052 356.768 11.052C357.136 11.052 357.46 10.924 357.74 10.668L358.04 11.604ZM362.334 5.88C362.614 5.88 362.834 5.92 362.994 6L362.79 7.176C362.606 7.072 362.354 7.02 362.034 7.02C361.778 7.02 361.534 7.088 361.302 7.224C361.078 7.36 360.89 7.564 360.738 7.836C360.594 8.108 360.522 8.436 360.522 8.82V12H359.238V6H360.33L360.438 7.08C360.774 6.28 361.406 5.88 362.334 5.88ZM364.855 4.992C364.583 4.992 364.371 4.924 364.219 4.788C364.067 4.644 363.991 4.444 363.991 4.188C363.991 3.932 364.067 3.736 364.219 3.6C364.371 3.464 364.583 3.396 364.855 3.396C365.127 3.396 365.335 3.464 365.479 3.6C365.631 3.736 365.707 3.932 365.707 4.188C365.707 4.444 365.631 4.644 365.479 4.788C365.335 4.924 365.127 4.992 364.855 4.992ZM365.491 12H364.207V6H365.491V12ZM372.684 11.16C372.86 11.16 373.008 11.144 373.128 11.112L373.044 11.976C372.828 12.072 372.58 12.12 372.3 12.12C371.956 12.12 371.68 12.052 371.472 11.916C371.272 11.78 371.14 11.552 371.076 11.232C370.892 11.512 370.62 11.732 370.26 11.892C369.9 12.044 369.496 12.12 369.048 12.12C368.464 12.12 367.992 11.984 367.632 11.712C367.272 11.44 367.092 11.052 367.092 10.548C367.092 10.076 367.288 9.68 367.68 9.36C368.072 9.032 368.656 8.8 369.432 8.664L370.956 8.4V8.076C370.956 7.708 370.848 7.42 370.632 7.212C370.416 6.996 370.116 6.888 369.732 6.888C368.94 6.888 368.424 7.248 368.184 7.968L367.188 7.44C367.332 6.96 367.624 6.58 368.064 6.3C368.512 6.02 369.06 5.88 369.708 5.88C370.484 5.88 371.1 6.06 371.556 6.42C372.012 6.78 372.24 7.308 372.24 8.004V10.716C372.24 10.868 372.272 10.98 372.336 11.052C372.408 11.124 372.524 11.16 372.684 11.16ZM369.324 11.148C369.756 11.148 370.136 11.044 370.464 10.836C370.792 10.628 370.956 10.352 370.956 10.008V9.288L369.648 9.552C369.232 9.632 368.924 9.744 368.724 9.888C368.524 10.032 368.424 10.224 368.424 10.464C368.424 10.688 368.5 10.86 368.652 10.98C368.812 11.092 369.036 11.148 369.324 11.148ZM383.387 8.82C383.387 9.052 383.371 9.272 383.339 9.48H378.947C379.019 10.008 379.207 10.412 379.511 10.692C379.815 10.964 380.207 11.1 380.687 11.1C381.079 11.1 381.403 11.032 381.659 10.896C381.923 10.752 382.103 10.548 382.199 10.284L383.267 10.728C382.819 11.656 381.959 12.12 380.687 12.12C379.743 12.12 379.003 11.844 378.467 11.292C377.939 10.74 377.675 9.976 377.675 9C377.675 8.016 377.931 7.252 378.443 6.708C378.955 6.156 379.675 5.88 380.603 5.88C381.483 5.88 382.167 6.148 382.655 6.684C383.143 7.22 383.387 7.932 383.387 8.82ZM380.603 6.9C380.139 6.9 379.763 7.036 379.475 7.308C379.195 7.58 379.019 7.976 378.947 8.496H382.187C382.123 7.992 381.951 7.6 381.671 7.32C381.399 7.04 381.043 6.9 380.603 6.9ZM324.547 27.1449C324.132 27.1449 323.757 27.0682 323.422 26.9148C323.086 26.7585 322.821 26.5327 322.625 26.2372C322.431 25.9418 322.335 25.5795 322.335 25.1506C322.335 24.7812 322.406 24.4773 322.548 24.2386C322.69 24 322.882 23.8111 323.123 23.6719C323.365 23.5327 323.635 23.4276 323.933 23.3565C324.231 23.2855 324.535 23.2315 324.845 23.1946C325.237 23.1491 325.555 23.1122 325.799 23.0838C326.044 23.0526 326.221 23.0028 326.332 22.9347C326.443 22.8665 326.498 22.7557 326.498 22.6023V22.5724C326.498 22.2003 326.393 21.9119 326.183 21.7074C325.975 21.5028 325.666 21.4006 325.254 21.4006C324.825 21.4006 324.487 21.4957 324.24 21.6861C323.995 21.8736 323.826 22.0824 323.733 22.3125L322.535 22.0398C322.677 21.642 322.885 21.321 323.157 21.0767C323.433 20.8295 323.75 20.6506 324.108 20.5398C324.466 20.4261 324.842 20.3693 325.237 20.3693C325.498 20.3693 325.775 20.4006 326.068 20.4631C326.363 20.5227 326.639 20.6335 326.895 20.7955C327.153 20.9574 327.365 21.1889 327.529 21.4901C327.694 21.7884 327.777 22.1761 327.777 22.6534V27H326.532V26.1051H326.481C326.399 26.2699 326.275 26.4318 326.11 26.5909C325.946 26.75 325.734 26.8821 325.475 26.9872C325.217 27.0923 324.907 27.1449 324.547 27.1449ZM324.824 26.1222C325.176 26.1222 325.477 26.0526 325.727 25.9134C325.98 25.7741 326.172 25.5923 326.302 25.3679C326.436 25.1406 326.502 24.8977 326.502 24.6392V23.7955C326.457 23.8409 326.369 23.8835 326.238 23.9233C326.11 23.9602 325.964 23.9929 325.799 24.0213C325.635 24.0469 325.474 24.071 325.318 24.0938C325.162 24.1136 325.031 24.1307 324.926 24.1449C324.679 24.1761 324.453 24.2287 324.248 24.3026C324.047 24.3764 323.885 24.483 323.762 24.6222C323.643 24.7585 323.583 24.9403 323.583 25.1676C323.583 25.483 323.7 25.7216 323.933 25.8835C324.166 26.0426 324.463 26.1222 324.824 26.1222ZM330.748 18.2727V27H329.474V18.2727H330.748ZM335.517 20.4545V21.4773H331.942V20.4545H335.517ZM332.901 18.8864H334.175V25.0781C334.175 25.3253 334.212 25.5114 334.286 25.6364C334.36 25.7585 334.455 25.8423 334.571 25.8878C334.691 25.9304 334.82 25.9517 334.959 25.9517C335.061 25.9517 335.151 25.9446 335.228 25.9304C335.304 25.9162 335.364 25.9048 335.407 25.8963L335.637 26.9489C335.563 26.9773 335.458 27.0057 335.321 27.0341C335.185 27.0653 335.015 27.0824 334.81 27.0852C334.475 27.0909 334.162 27.0312 333.873 26.9062C333.583 26.7812 333.348 26.5881 333.169 26.3267C332.99 26.0653 332.901 25.7372 332.901 25.3423V18.8864ZM336.927 27V20.4545H338.158V21.4943H338.227C338.346 21.142 338.556 20.8651 338.857 20.6634C339.161 20.4588 339.505 20.3565 339.888 20.3565C339.968 20.3565 340.062 20.3594 340.17 20.3651C340.281 20.3707 340.367 20.3778 340.43 20.3864V21.6051C340.379 21.5909 340.288 21.5753 340.157 21.5582C340.026 21.5384 339.896 21.5284 339.765 21.5284C339.464 21.5284 339.195 21.5923 338.96 21.7202C338.727 21.8452 338.542 22.0199 338.406 22.2443C338.269 22.4659 338.201 22.7187 338.201 23.0028V27H336.927ZM341.532 27V20.4545H342.806V27H341.532ZM342.176 19.4446C341.954 19.4446 341.764 19.3707 341.605 19.223C341.449 19.0724 341.37 18.8935 341.37 18.6861C341.37 18.4759 341.449 18.2969 341.605 18.1491C341.764 17.9986 341.954 17.9233 342.176 17.9233C342.397 17.9233 342.586 17.9986 342.743 18.1491C342.902 18.2969 342.981 18.4759 342.981 18.6861C342.981 18.8935 342.902 19.0724 342.743 19.223C342.586 19.3707 342.397 19.4446 342.176 19.4446ZM352.601 22.0526L351.446 22.2571C351.398 22.1094 351.321 21.9687 351.216 21.8352C351.114 21.7017 350.975 21.5923 350.799 21.5071C350.623 21.4219 350.402 21.3793 350.138 21.3793C349.777 21.3793 349.476 21.4602 349.235 21.6222C348.993 21.7812 348.873 21.9872 348.873 22.2401C348.873 22.4588 348.953 22.6349 349.115 22.7685C349.277 22.902 349.539 23.0114 349.9 23.0966L350.939 23.3352C351.542 23.4744 351.99 23.6889 352.286 23.9787C352.581 24.2685 352.729 24.6449 352.729 25.108C352.729 25.5 352.615 25.8494 352.388 26.1562C352.164 26.4602 351.85 26.6989 351.446 26.8722C351.046 27.0455 350.581 27.1321 350.053 27.1321C349.32 27.1321 348.722 26.9759 348.259 26.6634C347.796 26.348 347.512 25.9006 347.407 25.321L348.638 25.1335C348.715 25.4545 348.873 25.6974 349.111 25.8622C349.35 26.0241 349.661 26.1051 350.044 26.1051C350.462 26.1051 350.796 26.0185 351.046 25.8452C351.296 25.669 351.421 25.4545 351.421 25.2017C351.421 24.9972 351.344 24.8253 351.191 24.6861C351.04 24.5469 350.809 24.4418 350.496 24.3707L349.388 24.1278C348.777 23.9886 348.326 23.767 348.033 23.4631C347.743 23.1591 347.598 22.7741 347.598 22.3082C347.598 21.9219 347.706 21.5838 347.922 21.294C348.138 21.0043 348.436 20.7784 348.817 20.6165C349.198 20.4517 349.634 20.3693 350.125 20.3693C350.833 20.3693 351.39 20.5227 351.796 20.8295C352.202 21.1335 352.471 21.5412 352.601 22.0526ZM356.951 27.1321C356.306 27.1321 355.751 26.9943 355.285 26.7188C354.822 26.4403 354.464 26.0497 354.211 25.5469C353.961 25.0412 353.836 24.4489 353.836 23.7699C353.836 23.0994 353.961 22.5085 354.211 21.9972C354.464 21.4858 354.816 21.0866 355.268 20.7997C355.722 20.5128 356.254 20.3693 356.862 20.3693C357.231 20.3693 357.589 20.4304 357.935 20.5526C358.282 20.6747 358.593 20.8665 358.869 21.1278C359.144 21.3892 359.362 21.7287 359.521 22.1463C359.68 22.5611 359.759 23.0653 359.759 23.6591V24.1108H354.556V23.1562H358.511C358.511 22.821 358.442 22.5241 358.306 22.2656C358.17 22.0043 357.978 21.7983 357.731 21.6477C357.487 21.4972 357.2 21.4219 356.87 21.4219C356.512 21.4219 356.2 21.5099 355.933 21.6861C355.668 21.8594 355.464 22.0866 355.319 22.3679C355.177 22.6463 355.106 22.9489 355.106 23.2756V24.0213C355.106 24.4588 355.183 24.831 355.336 25.1378C355.492 25.4446 355.71 25.679 355.988 25.8409C356.266 26 356.592 26.0795 356.964 26.0795C357.205 26.0795 357.425 26.0455 357.624 25.9773C357.823 25.9062 357.995 25.8011 358.14 25.6619C358.285 25.5227 358.396 25.3509 358.472 25.1463L359.678 25.3636C359.582 25.7187 359.408 26.0298 359.158 26.2969C358.911 26.5611 358.6 26.767 358.225 26.9148C357.853 27.0597 357.428 27.1321 356.951 27.1321ZM364.228 20.4545V21.4773H360.653V20.4545H364.228ZM361.612 18.8864H362.886V25.0781C362.886 25.3253 362.923 25.5114 362.997 25.6364C363.071 25.7585 363.166 25.8423 363.282 25.8878C363.402 25.9304 363.531 25.9517 363.67 25.9517C363.772 25.9517 363.862 25.9446 363.939 25.9304C364.015 25.9162 364.075 25.9048 364.118 25.8963L364.348 26.9489C364.274 26.9773 364.169 27.0057 364.032 27.0341C363.896 27.0653 363.725 27.0824 363.521 27.0852C363.186 27.0909 362.873 27.0312 362.583 26.9062C362.294 26.7812 362.059 26.5881 361.88 26.3267C361.701 26.0653 361.612 25.7372 361.612 25.3423V18.8864ZM368.693 20.4545V21.4773H365.118V20.4545H368.693ZM366.077 18.8864H367.351V25.0781C367.351 25.3253 367.388 25.5114 367.462 25.6364C367.536 25.7585 367.631 25.8423 367.747 25.8878C367.866 25.9304 367.996 25.9517 368.135 25.9517C368.237 25.9517 368.327 25.9446 368.403 25.9304C368.48 25.9162 368.54 25.9048 368.582 25.8963L368.812 26.9489C368.739 26.9773 368.634 27.0057 368.497 27.0341C368.361 27.0653 368.19 27.0824 367.986 27.0852C367.651 27.0909 367.338 27.0312 367.048 26.9062C366.759 26.7812 366.524 26.5881 366.345 26.3267C366.166 26.0653 366.077 25.7372 366.077 25.3423V18.8864ZM372.789 27.1321C372.176 27.1321 371.64 26.9915 371.183 26.7102C370.725 26.429 370.37 26.0355 370.118 25.5298C369.865 25.0241 369.738 24.4332 369.738 23.7571C369.738 23.0781 369.865 22.4844 370.118 21.9759C370.37 21.4673 370.725 21.0724 371.183 20.7912C371.64 20.5099 372.176 20.3693 372.789 20.3693C373.403 20.3693 373.939 20.5099 374.396 20.7912C374.853 21.0724 375.208 21.4673 375.461 21.9759C375.714 22.4844 375.841 23.0781 375.841 23.7571C375.841 24.4332 375.714 25.0241 375.461 25.5298C375.208 26.0355 374.853 26.429 374.396 26.7102C373.939 26.9915 373.403 27.1321 372.789 27.1321ZM372.794 26.0625C373.191 26.0625 373.521 25.9574 373.782 25.7472C374.044 25.5369 374.237 25.2571 374.362 24.9077C374.49 24.5582 374.554 24.1733 374.554 23.7528C374.554 23.3352 374.49 22.9517 374.362 22.6023C374.237 22.25 374.044 21.9673 373.782 21.7543C373.521 21.5412 373.191 21.4347 372.794 21.4347C372.393 21.4347 372.061 21.5412 371.797 21.7543C371.535 21.9673 371.341 22.25 371.213 22.6023C371.088 22.9517 371.025 23.3352 371.025 23.7528C371.025 24.1733 371.088 24.5582 371.213 24.9077C371.341 25.2571 371.535 25.5369 371.797 25.7472C372.061 25.9574 372.393 26.0625 372.794 26.0625ZM377.263 27V20.4545H378.494V21.4943H378.562C378.682 21.142 378.892 20.8651 379.193 20.6634C379.497 20.4588 379.841 20.3565 380.224 20.3565C380.304 20.3565 380.398 20.3594 380.506 20.3651C380.616 20.3707 380.703 20.3778 380.766 20.3864V21.6051C380.714 21.5909 380.624 21.5753 380.493 21.5582C380.362 21.5384 380.232 21.5284 380.101 21.5284C379.8 21.5284 379.531 21.5923 379.295 21.7202C379.063 21.8452 378.878 22.0199 378.741 22.2443C378.605 22.4659 378.537 22.7187 378.537 23.0028V27H377.263ZM381.868 27V20.4545H383.142V27H381.868ZM382.512 19.4446C382.29 19.4446 382.1 19.3707 381.941 19.223C381.784 19.0724 381.706 18.8935 381.706 18.6861C381.706 18.4759 381.784 18.2969 381.941 18.1491C382.1 17.9986 382.29 17.9233 382.512 17.9233C382.733 17.9233 382.922 17.9986 383.078 18.1491C383.238 18.2969 383.317 18.4759 383.317 18.6861C383.317 18.8935 383.238 19.0724 383.078 19.223C382.922 19.3707 382.733 19.4446 382.512 19.4446Z" fill="#F3F2EF"/>
<path d="M393.487 21.5199V27H388.011L388.002 25.9219H391.625L386.899 21.1875L387.679 20.4034L392.409 25.142L392.4 21.5199H393.487Z" fill="#F3F2EF"/>
<mask id="path-38-inside-4_4611_79" fill="white">
<path d="M807 313C877.14 313 934 369.86 934 440C934 510.14 877.14 567 807 567C736.86 567 680 510.14 680 440C680 369.86 736.86 313 807 313ZM807 551.76C868.723 551.76 918.76 501.723 918.76 440C918.76 378.277 868.723 328.24 807 328.24C745.277 328.24 695.24 378.277 695.24 440C695.24 501.723 745.277 551.76 807 551.76Z"/>
</mask>
<path d="M807 313C877.14 313 934 369.86 934 440C934 510.14 877.14 567 807 567C736.86 567 680 510.14 680 440C680 369.86 736.86 313 807 313ZM807 551.76C868.723 551.76 918.76 501.723 918.76 440C918.76 378.277 868.723 328.24 807 328.24C745.277 328.24 695.24 378.277 695.24 440C695.24 501.723 745.277 551.76 807 551.76Z" fill="#FFFCAD" stroke="#332827" stroke-width="2" mask="url(#path-38-inside-4_4611_79)"/>
<mask id="path-39-inside-5_4611_79" fill="white">
<path d="M807 320.62C807 316.412 810.415 312.976 814.616 313.228C837.73 314.617 860.079 322.304 879.207 335.525C900.43 350.193 916.682 370.976 925.801 395.109C934.92 419.241 936.474 445.579 930.254 470.617C924.035 495.654 910.338 518.203 890.987 535.264C871.635 552.325 847.547 563.087 821.927 566.12C796.308 569.152 770.373 564.31 747.573 552.238C724.773 540.166 706.191 521.437 694.298 498.544C683.58 477.909 678.754 454.773 680.274 431.667C680.55 427.468 684.386 424.51 688.561 425.038C692.737 425.565 695.666 429.378 695.424 433.58C694.272 453.609 698.531 473.632 707.823 491.518C718.288 511.665 734.641 528.146 754.704 538.77C774.768 549.393 797.591 553.654 820.136 550.985C842.681 548.317 863.879 538.846 880.908 523.832C897.938 508.819 909.991 488.975 915.464 466.943C920.937 444.91 919.57 421.733 911.545 400.496C903.52 379.259 889.218 360.969 870.542 348.062C853.961 336.602 834.63 329.866 814.614 328.5C810.416 328.213 807 324.828 807 320.62Z"/>
</mask>
<path d="M807 320.62C807 316.412 810.415 312.976 814.616 313.228C837.73 314.617 860.079 322.304 879.207 335.525C900.43 350.193 916.682 370.976 925.801 395.109C934.92 419.241 936.474 445.579 930.254 470.617C924.035 495.654 910.338 518.203 890.987 535.264C871.635 552.325 847.547 563.087 821.927 566.12C796.308 569.152 770.373 564.31 747.573 552.238C724.773 540.166 706.191 521.437 694.298 498.544C683.58 477.909 678.754 454.773 680.274 431.667C680.55 427.468 684.386 424.51 688.561 425.038C692.737 425.565 695.666 429.378 695.424 433.58C694.272 453.609 698.531 473.632 707.823 491.518C718.288 511.665 734.641 528.146 754.704 538.77C774.768 549.393 797.591 553.654 820.136 550.985C842.681 548.317 863.879 538.846 880.908 523.832C897.938 508.819 909.991 488.975 915.464 466.943C920.937 444.91 919.57 421.733 911.545 400.496C903.52 379.259 889.218 360.969 870.542 348.062C853.961 336.602 834.63 329.866 814.614 328.5C810.416 328.213 807 324.828 807 320.62Z" fill="#FFEE71" stroke="#332827" stroke-width="2" mask="url(#path-39-inside-5_4611_79)"/>
<mask id="path-40-inside-6_4611_79" fill="white">
<path d="M807 320.62C807 316.412 810.415 312.976 814.616 313.229C836.385 314.536 857.497 321.432 875.89 333.308C896.421 346.565 912.691 365.464 922.748 387.738C932.805 410.011 936.222 434.714 932.589 458.881C928.955 483.049 918.426 505.655 902.264 523.987C886.102 542.319 864.994 555.598 841.473 562.232C817.951 568.866 793.016 568.572 769.657 561.386C746.298 554.2 725.509 540.427 709.784 521.719C695.696 504.96 686.208 484.878 682.183 463.444C681.406 459.308 684.386 455.49 688.561 454.962C692.737 454.435 696.523 457.399 697.333 461.529C700.97 480.053 709.249 497.399 721.45 511.913C735.288 528.375 753.582 540.496 774.138 546.819C794.694 553.143 816.637 553.402 837.336 547.564C858.035 541.726 876.61 530.04 890.832 513.908C905.055 497.776 914.321 477.883 917.518 456.616C920.715 435.348 917.709 413.61 908.858 394.009C900.008 374.408 885.691 357.777 867.623 346.111C851.695 335.826 833.448 329.786 814.614 328.5C810.416 328.213 807 324.828 807 320.62Z"/>
</mask>
<path d="M807 320.62C807 316.412 810.415 312.976 814.616 313.229C836.385 314.536 857.497 321.432 875.89 333.308C896.421 346.565 912.691 365.464 922.748 387.738C932.805 410.011 936.222 434.714 932.589 458.881C928.955 483.049 918.426 505.655 902.264 523.987C886.102 542.319 864.994 555.598 841.473 562.232C817.951 568.866 793.016 568.572 769.657 561.386C746.298 554.2 725.509 540.427 709.784 521.719C695.696 504.96 686.208 484.878 682.183 463.444C681.406 459.308 684.386 455.49 688.561 454.962C692.737 454.435 696.523 457.399 697.333 461.529C700.97 480.053 709.249 497.399 721.45 511.913C735.288 528.375 753.582 540.496 774.138 546.819C794.694 553.143 816.637 553.402 837.336 547.564C858.035 541.726 876.61 530.04 890.832 513.908C905.055 497.776 914.321 477.883 917.518 456.616C920.715 435.348 917.709 413.61 908.858 394.009C900.008 374.408 885.691 357.777 867.623 346.111C851.695 335.826 833.448 329.786 814.614 328.5C810.416 328.213 807 324.828 807 320.62Z" fill="#F8D448" stroke="#332827" stroke-width="2" mask="url(#path-40-inside-6_4611_79)"/>
<path d="M824.017 436.76V438.23C822.897 439.35 822.094 440.54 821.609 441.8C821.124 443.06 820.881 444.46 820.881 446H818.949C818.949 443.079 819.994 440.526 822.085 438.342H816.695V436.76H824.017ZM828.591 436.62C829.581 436.62 830.351 436.853 830.901 437.32C831.461 437.787 831.741 438.393 831.741 439.14C831.741 439.597 831.648 439.994 831.461 440.33C831.275 440.657 831.046 440.904 830.775 441.072C830.505 441.24 830.248 441.324 830.005 441.324V441.366C830.313 441.366 830.612 441.445 830.901 441.604C831.2 441.763 831.443 442.005 831.629 442.332C831.825 442.649 831.923 443.037 831.923 443.494C831.923 444.007 831.774 444.465 831.475 444.866C831.186 445.267 830.78 445.58 830.257 445.804C829.735 446.028 829.137 446.14 828.465 446.14C827.56 446.14 826.818 445.958 826.239 445.594C825.67 445.221 825.255 444.647 824.993 443.872L826.743 443.088C826.846 443.601 827.033 443.979 827.303 444.222C827.583 444.465 827.975 444.586 828.479 444.586C828.955 444.586 829.333 444.469 829.613 444.236C829.893 443.993 830.033 443.671 830.033 443.27C830.033 442.841 829.898 442.533 829.627 442.346C829.366 442.15 828.951 442.052 828.381 442.052H827.919V440.708H828.311C829.319 440.708 829.823 440.283 829.823 439.434C829.823 439.023 829.707 438.711 829.473 438.496C829.249 438.281 828.927 438.174 828.507 438.174C828.078 438.174 827.733 438.286 827.471 438.51C827.21 438.734 827.047 439.061 826.981 439.49L825.259 438.86C825.437 438.123 825.819 437.567 826.407 437.194C827.005 436.811 827.733 436.62 828.591 436.62ZM835.631 436.62C836.378 436.62 836.975 436.858 837.423 437.334C837.871 437.81 838.095 438.44 838.095 439.224C838.095 440.008 837.871 440.638 837.423 441.114C836.975 441.59 836.378 441.828 835.631 441.828C834.894 441.828 834.297 441.59 833.839 441.114C833.391 440.638 833.167 440.008 833.167 439.224C833.167 438.44 833.391 437.81 833.839 437.334C834.297 436.858 834.894 436.62 835.631 436.62ZM841.399 436.76H842.939L836.709 446H835.169L841.399 436.76ZM835.631 437.95C835.314 437.95 835.071 438.062 834.903 438.286C834.735 438.51 834.651 438.823 834.651 439.224C834.651 439.625 834.735 439.938 834.903 440.162C835.071 440.377 835.314 440.484 835.631 440.484C835.949 440.484 836.191 440.377 836.359 440.162C836.527 439.938 836.611 439.625 836.611 439.224C836.611 438.823 836.527 438.51 836.359 438.286C836.191 438.062 835.949 437.95 835.631 437.95ZM842.463 440.932C843.201 440.932 843.793 441.17 844.241 441.646C844.699 442.122 844.927 442.752 844.927 443.536C844.927 444.32 844.699 444.95 844.241 445.426C843.793 445.902 843.201 446.14 842.463 446.14C841.717 446.14 841.119 445.902 840.671 445.426C840.223 444.95 839.999 444.32 839.999 443.536C839.999 442.752 840.223 442.122 840.671 441.646C841.119 441.17 841.717 440.932 842.463 440.932ZM842.463 442.276C842.146 442.276 841.903 442.388 841.735 442.612C841.567 442.827 841.483 443.135 841.483 443.536C841.483 443.937 841.567 444.25 841.735 444.474C841.903 444.698 842.146 444.81 842.463 444.81C842.781 444.81 843.023 444.698 843.191 444.474C843.359 444.25 843.443 443.937 843.443 443.536C843.443 443.135 843.359 442.827 843.191 442.612C843.023 442.388 842.781 442.276 842.463 442.276ZM857.049 443.9C856.809 444.612 856.397 445.16 855.813 445.544C855.237 445.928 854.557 446.12 853.773 446.12C853.013 446.12 852.353 445.956 851.793 445.628C851.233 445.3 850.801 444.828 850.497 444.212C850.193 443.596 850.041 442.872 850.041 442.04C850.041 441.208 850.193 440.484 850.497 439.868C850.801 439.252 851.233 438.78 851.793 438.452C852.353 438.124 853.009 437.96 853.761 437.96C854.553 437.96 855.217 438.124 855.753 438.452C856.297 438.78 856.689 439.264 856.929 439.904L855.717 440.444C855.557 439.972 855.325 439.628 855.021 439.412C854.717 439.188 854.321 439.076 853.833 439.076C853.089 439.076 852.493 439.34 852.045 439.868C851.605 440.388 851.385 441.112 851.385 442.04C851.385 442.976 851.597 443.704 852.021 444.224C852.445 444.744 853.033 445.004 853.785 445.004C854.297 445.004 854.725 444.876 855.069 444.62C855.421 444.364 855.673 443.988 855.825 443.492L857.049 443.9ZM863.692 445.16C863.868 445.16 864.016 445.144 864.136 445.112L864.052 445.976C863.836 446.072 863.588 446.12 863.308 446.12C862.964 446.12 862.688 446.052 862.48 445.916C862.28 445.78 862.148 445.552 862.084 445.232C861.9 445.512 861.628 445.732 861.268 445.892C860.908 446.044 860.504 446.12 860.056 446.12C859.472 446.12 859 445.984 858.64 445.712C858.28 445.44 858.1 445.052 858.1 444.548C858.1 444.076 858.296 443.68 858.688 443.36C859.08 443.032 859.664 442.8 860.44 442.664L861.964 442.4V442.076C861.964 441.708 861.856 441.42 861.64 441.212C861.424 440.996 861.124 440.888 860.74 440.888C859.948 440.888 859.432 441.248 859.192 441.968L858.196 441.44C858.34 440.96 858.632 440.58 859.072 440.3C859.52 440.02 860.068 439.88 860.716 439.88C861.492 439.88 862.108 440.06 862.564 440.42C863.02 440.78 863.248 441.308 863.248 442.004V444.716C863.248 444.868 863.28 444.98 863.344 445.052C863.416 445.124 863.532 445.16 863.692 445.16ZM860.332 445.148C860.764 445.148 861.144 445.044 861.472 444.836C861.8 444.628 861.964 444.352 861.964 444.008V443.288L860.656 443.552C860.24 443.632 859.932 443.744 859.732 443.888C859.532 444.032 859.432 444.224 859.432 444.464C859.432 444.688 859.508 444.86 859.66 444.98C859.82 445.092 860.044 445.148 860.332 445.148ZM868.447 439.88C868.727 439.88 868.947 439.92 869.107 440L868.903 441.176C868.719 441.072 868.467 441.02 868.147 441.02C867.891 441.02 867.647 441.088 867.415 441.224C867.191 441.36 867.003 441.564 866.851 441.836C866.707 442.108 866.635 442.436 866.635 442.82V446H865.351V440H866.443L866.551 441.08C866.887 440.28 867.519 439.88 868.447 439.88ZM873.548 439.88C874.372 439.88 875.02 440.16 875.492 440.72C875.964 441.272 876.2 442.036 876.2 443.012C876.2 443.988 875.964 444.752 875.492 445.304C875.02 445.848 874.372 446.12 873.548 446.12C873.076 446.12 872.66 446.008 872.3 445.784C871.948 445.56 871.684 445.26 871.508 444.884L871.448 446H870.32V437.3H871.604V440.96C871.788 440.624 872.048 440.36 872.384 440.168C872.728 439.976 873.116 439.88 873.548 439.88ZM873.26 445.088C873.78 445.088 874.184 444.904 874.472 444.536C874.768 444.168 874.916 443.656 874.916 443C874.916 442.344 874.768 441.836 874.472 441.476C874.184 441.108 873.78 440.924 873.26 440.924C872.772 440.924 872.38 441.088 872.084 441.416C871.796 441.744 871.636 442.196 871.604 442.772V443.228C871.636 443.812 871.796 444.268 872.084 444.596C872.38 444.924 872.772 445.088 873.26 445.088ZM880.507 439.88C881.443 439.88 882.175 440.156 882.703 440.708C883.231 441.26 883.495 442.024 883.495 443C883.495 443.976 883.231 444.74 882.703 445.292C882.175 445.844 881.443 446.12 880.507 446.12C879.571 446.12 878.839 445.844 878.311 445.292C877.783 444.74 877.519 443.976 877.519 443C877.519 442.024 877.783 441.26 878.311 440.708C878.839 440.156 879.571 439.88 880.507 439.88ZM880.507 440.888C879.963 440.888 879.543 441.072 879.247 441.44C878.959 441.8 878.815 442.32 878.815 443C878.815 443.68 878.959 444.204 879.247 444.572C879.543 444.932 879.963 445.112 880.507 445.112C881.051 445.112 881.471 444.928 881.767 444.56C882.063 444.192 882.211 443.672 882.211 443C882.211 442.328 882.063 441.808 881.767 441.44C881.471 441.072 881.051 440.888 880.507 440.888ZM888.372 439.88C889.036 439.88 889.576 440.072 889.992 440.456C890.416 440.84 890.628 441.392 890.628 442.112V446H889.344V442.52C889.344 441.464 888.916 440.936 888.06 440.936C887.612 440.936 887.228 441.092 886.908 441.404C886.588 441.708 886.428 442.18 886.428 442.82V446H885.144V440H886.284L886.344 440.996C886.544 440.62 886.82 440.34 887.172 440.156C887.524 439.972 887.924 439.88 888.372 439.88ZM897.938 442.82C897.938 443.052 897.922 443.272 897.89 443.48H893.498C893.57 444.008 893.758 444.412 894.062 444.692C894.366 444.964 894.758 445.1 895.238 445.1C895.63 445.1 895.954 445.032 896.21 444.896C896.474 444.752 896.654 444.548 896.75 444.284L897.818 444.728C897.37 445.656 896.51 446.12 895.238 446.12C894.294 446.12 893.554 445.844 893.018 445.292C892.49 444.74 892.226 443.976 892.226 443C892.226 442.016 892.482 441.252 892.994 440.708C893.506 440.156 894.226 439.88 895.154 439.88C896.034 439.88 896.718 440.148 897.206 440.684C897.694 441.22 897.938 441.932 897.938 442.82ZM895.154 440.9C894.69 440.9 894.314 441.036 894.026 441.308C893.746 441.58 893.57 441.976 893.498 442.496H896.738C896.674 441.992 896.502 441.6 896.222 441.32C895.95 441.04 895.594 440.9 895.154 440.9ZM904.845 446.158L904.078 445.399L906.741 442.736H900.051V441.628H906.741L904.078 438.969L904.845 438.206L908.821 442.182L904.845 446.158Z" fill="#F3F2EF"/>
<path d="M745.518 370.753V365.273H750.994L751.003 366.351H747.381L752.107 371.085L751.327 371.869L746.597 367.131L746.605 370.753H745.518ZM762.189 371.9C761.949 372.612 761.537 373.16 760.953 373.544C760.377 373.928 759.697 374.12 758.913 374.12C758.153 374.12 757.493 373.956 756.933 373.628C756.373 373.3 755.941 372.828 755.637 372.212C755.333 371.596 755.181 370.872 755.181 370.04C755.181 369.208 755.333 368.484 755.637 367.868C755.941 367.252 756.373 366.78 756.933 366.452C757.493 366.124 758.149 365.96 758.901 365.96C759.693 365.96 760.357 366.124 760.893 366.452C761.437 366.78 761.829 367.264 762.069 367.904L760.857 368.444C760.697 367.972 760.465 367.628 760.161 367.412C759.857 367.188 759.461 367.076 758.973 367.076C758.229 367.076 757.633 367.34 757.185 367.868C756.745 368.388 756.525 369.112 756.525 370.04C756.525 370.976 756.737 371.704 757.161 372.224C757.585 372.744 758.173 373.004 758.925 373.004C759.437 373.004 759.865 372.876 760.209 372.62C760.561 372.364 760.813 371.988 760.965 371.492L762.189 371.9ZM768.832 373.16C769.008 373.16 769.156 373.144 769.276 373.112L769.192 373.976C768.976 374.072 768.728 374.12 768.448 374.12C768.104 374.12 767.828 374.052 767.62 373.916C767.42 373.78 767.288 373.552 767.224 373.232C767.04 373.512 766.768 373.732 766.408 373.892C766.048 374.044 765.644 374.12 765.196 374.12C764.612 374.12 764.14 373.984 763.78 373.712C763.42 373.44 763.24 373.052 763.24 372.548C763.24 372.076 763.436 371.68 763.828 371.36C764.22 371.032 764.804 370.8 765.58 370.664L767.104 370.4V370.076C767.104 369.708 766.996 369.42 766.78 369.212C766.564 368.996 766.264 368.888 765.88 368.888C765.088 368.888 764.572 369.248 764.332 369.968L763.336 369.44C763.48 368.96 763.772 368.58 764.212 368.3C764.66 368.02 765.208 367.88 765.856 367.88C766.632 367.88 767.248 368.06 767.704 368.42C768.16 368.78 768.388 369.308 768.388 370.004V372.716C768.388 372.868 768.42 372.98 768.484 373.052C768.556 373.124 768.672 373.16 768.832 373.16ZM765.472 373.148C765.904 373.148 766.284 373.044 766.612 372.836C766.94 372.628 767.104 372.352 767.104 372.008V371.288L765.796 371.552C765.38 371.632 765.072 371.744 764.872 371.888C764.672 372.032 764.572 372.224 764.572 372.464C764.572 372.688 764.648 372.86 764.8 372.98C764.96 373.092 765.184 373.148 765.472 373.148ZM773.588 367.88C773.868 367.88 774.088 367.92 774.248 368L774.044 369.176C773.86 369.072 773.608 369.02 773.288 369.02C773.032 369.02 772.788 369.088 772.556 369.224C772.332 369.36 772.144 369.564 771.992 369.836C771.848 370.108 771.776 370.436 771.776 370.82V374H770.492V368H771.584L771.692 369.08C772.028 368.28 772.66 367.88 773.588 367.88ZM778.689 367.88C779.513 367.88 780.161 368.16 780.633 368.72C781.105 369.272 781.341 370.036 781.341 371.012C781.341 371.988 781.105 372.752 780.633 373.304C780.161 373.848 779.513 374.12 778.689 374.12C778.217 374.12 777.801 374.008 777.441 373.784C777.089 373.56 776.825 373.26 776.649 372.884L776.589 374H775.461V365.3H776.745V368.96C776.929 368.624 777.189 368.36 777.525 368.168C777.869 367.976 778.257 367.88 778.689 367.88ZM778.401 373.088C778.921 373.088 779.325 372.904 779.613 372.536C779.909 372.168 780.057 371.656 780.057 371C780.057 370.344 779.909 369.836 779.613 369.476C779.325 369.108 778.921 368.924 778.401 368.924C777.913 368.924 777.521 369.088 777.225 369.416C776.937 369.744 776.777 370.196 776.745 370.772V371.228C776.777 371.812 776.937 372.268 777.225 372.596C777.521 372.924 777.913 373.088 778.401 373.088ZM785.648 367.88C786.584 367.88 787.316 368.156 787.844 368.708C788.372 369.26 788.636 370.024 788.636 371C788.636 371.976 788.372 372.74 787.844 373.292C787.316 373.844 786.584 374.12 785.648 374.12C784.712 374.12 783.98 373.844 783.452 373.292C782.924 372.74 782.66 371.976 782.66 371C782.66 370.024 782.924 369.26 783.452 368.708C783.98 368.156 784.712 367.88 785.648 367.88ZM785.648 368.888C785.104 368.888 784.684 369.072 784.388 369.44C784.1 369.8 783.956 370.32 783.956 371C783.956 371.68 784.1 372.204 784.388 372.572C784.684 372.932 785.104 373.112 785.648 373.112C786.192 373.112 786.612 372.928 786.908 372.56C787.204 372.192 787.352 371.672 787.352 371C787.352 370.328 787.204 369.808 786.908 369.44C786.612 369.072 786.192 368.888 785.648 368.888ZM793.513 367.88C794.177 367.88 794.717 368.072 795.133 368.456C795.557 368.84 795.769 369.392 795.769 370.112V374H794.485V370.52C794.485 369.464 794.057 368.936 793.201 368.936C792.753 368.936 792.369 369.092 792.049 369.404C791.729 369.708 791.569 370.18 791.569 370.82V374H790.285V368H791.425L791.485 368.996C791.685 368.62 791.961 368.34 792.313 368.156C792.665 367.972 793.065 367.88 793.513 367.88ZM803.079 370.82C803.079 371.052 803.063 371.272 803.031 371.48H798.639C798.711 372.008 798.899 372.412 799.203 372.692C799.507 372.964 799.899 373.1 800.379 373.1C800.771 373.1 801.095 373.032 801.351 372.896C801.615 372.752 801.795 372.548 801.891 372.284L802.959 372.728C802.511 373.656 801.651 374.12 800.379 374.12C799.435 374.12 798.695 373.844 798.159 373.292C797.631 372.74 797.367 371.976 797.367 371C797.367 370.016 797.623 369.252 798.135 368.708C798.647 368.156 799.367 367.88 800.295 367.88C801.175 367.88 801.859 368.148 802.347 368.684C802.835 369.22 803.079 369.932 803.079 370.82ZM800.295 368.9C799.831 368.9 799.455 369.036 799.167 369.308C798.887 369.58 798.711 369.976 798.639 370.496H801.879C801.815 369.992 801.643 369.6 801.363 369.32C801.091 369.04 800.735 368.9 800.295 368.9ZM808.504 372.684C809.633 371.928 810.529 371.265 811.192 370.696C811.854 370.127 812.335 369.599 812.634 369.114C812.932 368.629 813.082 368.148 813.082 367.672C813.082 367.233 812.946 366.879 812.676 366.608C812.414 366.337 812.05 366.202 811.584 366.202C811.07 366.202 810.664 366.379 810.366 366.734C810.067 367.089 809.904 367.593 809.876 368.246L808.21 367.616C808.275 366.683 808.62 365.95 809.246 365.418C809.871 364.886 810.688 364.62 811.696 364.62C812.414 364.62 813.021 364.755 813.516 365.026C814.02 365.297 814.398 365.656 814.65 366.104C814.902 366.543 815.028 367.028 815.028 367.56C815.028 368.428 814.701 369.249 814.048 370.024C813.394 370.789 812.354 371.611 810.926 372.488V372.502C811.467 372.465 812.032 372.446 812.62 372.446H815.168V374H808.504V372.684ZM820.009 364.62C820.999 364.62 821.769 364.853 822.319 365.32C822.879 365.787 823.159 366.393 823.159 367.14C823.159 367.597 823.066 367.994 822.879 368.33C822.693 368.657 822.464 368.904 822.193 369.072C821.923 369.24 821.666 369.324 821.423 369.324V369.366C821.731 369.366 822.03 369.445 822.319 369.604C822.618 369.763 822.861 370.005 823.047 370.332C823.243 370.649 823.341 371.037 823.341 371.494C823.341 372.007 823.192 372.465 822.893 372.866C822.604 373.267 822.198 373.58 821.675 373.804C821.153 374.028 820.555 374.14 819.883 374.14C818.978 374.14 818.236 373.958 817.657 373.594C817.088 373.221 816.673 372.647 816.411 371.872L818.161 371.088C818.264 371.601 818.451 371.979 818.721 372.222C819.001 372.465 819.393 372.586 819.897 372.586C820.373 372.586 820.751 372.469 821.031 372.236C821.311 371.993 821.451 371.671 821.451 371.27C821.451 370.841 821.316 370.533 821.045 370.346C820.784 370.15 820.369 370.052 819.799 370.052H819.337V368.708H819.729C820.737 368.708 821.241 368.283 821.241 367.434C821.241 367.023 821.125 366.711 820.891 366.496C820.667 366.281 820.345 366.174 819.925 366.174C819.496 366.174 819.151 366.286 818.889 366.51C818.628 366.734 818.465 367.061 818.399 367.49L816.677 366.86C816.855 366.123 817.237 365.567 817.825 365.194C818.423 364.811 819.151 364.62 820.009 364.62ZM827.049 364.62C827.796 364.62 828.393 364.858 828.841 365.334C829.289 365.81 829.513 366.44 829.513 367.224C829.513 368.008 829.289 368.638 828.841 369.114C828.393 369.59 827.796 369.828 827.049 369.828C826.312 369.828 825.715 369.59 825.257 369.114C824.809 368.638 824.585 368.008 824.585 367.224C824.585 366.44 824.809 365.81 825.257 365.334C825.715 364.858 826.312 364.62 827.049 364.62ZM832.817 364.76H834.357L828.127 374H826.587L832.817 364.76ZM827.049 365.95C826.732 365.95 826.489 366.062 826.321 366.286C826.153 366.51 826.069 366.823 826.069 367.224C826.069 367.625 826.153 367.938 826.321 368.162C826.489 368.377 826.732 368.484 827.049 368.484C827.367 368.484 827.609 368.377 827.777 368.162C827.945 367.938 828.029 367.625 828.029 367.224C828.029 366.823 827.945 366.51 827.777 366.286C827.609 366.062 827.367 365.95 827.049 365.95ZM833.881 368.932C834.619 368.932 835.211 369.17 835.659 369.646C836.117 370.122 836.345 370.752 836.345 371.536C836.345 372.32 836.117 372.95 835.659 373.426C835.211 373.902 834.619 374.14 833.881 374.14C833.135 374.14 832.537 373.902 832.089 373.426C831.641 372.95 831.417 372.32 831.417 371.536C831.417 370.752 831.641 370.122 832.089 369.646C832.537 369.17 833.135 368.932 833.881 368.932ZM833.881 370.276C833.564 370.276 833.321 370.388 833.153 370.612C832.985 370.827 832.901 371.135 832.901 371.536C832.901 371.937 832.985 372.25 833.153 372.474C833.321 372.698 833.564 372.81 833.881 372.81C834.199 372.81 834.441 372.698 834.609 372.474C834.777 372.25 834.861 371.937 834.861 371.536C834.861 371.135 834.777 370.827 834.609 370.612C834.441 370.388 834.199 370.276 833.881 370.276Z" fill="#F3F2EF"/>
<path d="M708.161 446.158L704.185 442.182L708.161 438.206L708.928 438.964L706.264 441.628H712.955V442.736H706.264L708.928 445.395L708.161 446.158ZM718.673 438.08C719.529 438.08 720.205 438.3 720.701 438.74C721.205 439.18 721.457 439.784 721.457 440.552C721.457 441.32 721.205 441.924 720.701 442.364C720.205 442.796 719.529 443.012 718.673 443.012H716.909V446H715.625V438.08H718.673ZM718.469 441.92C719.029 441.92 719.445 441.808 719.717 441.584C719.989 441.352 720.125 441.008 720.125 440.552C720.125 439.632 719.573 439.172 718.469 439.172H716.909V441.92H718.469ZM728.204 442.82C728.204 443.052 728.188 443.272 728.156 443.48H723.764C723.836 444.008 724.024 444.412 724.328 444.692C724.632 444.964 725.024 445.1 725.504 445.1C725.896 445.1 726.22 445.032 726.476 444.896C726.74 444.752 726.92 444.548 727.016 444.284L728.084 444.728C727.636 445.656 726.776 446.12 725.504 446.12C724.56 446.12 723.82 445.844 723.284 445.292C722.756 444.74 722.492 443.976 722.492 443C722.492 442.016 722.748 441.252 723.26 440.708C723.772 440.156 724.492 439.88 725.42 439.88C726.3 439.88 726.984 440.148 727.472 440.684C727.96 441.22 728.204 441.932 728.204 442.82ZM725.42 440.9C724.956 440.9 724.58 441.036 724.292 441.308C724.012 441.58 723.836 441.976 723.764 442.496H727.004C726.94 441.992 726.768 441.6 726.488 441.32C726.216 441.04 725.86 440.9 725.42 440.9ZM733.56 445.604C733.368 445.764 733.132 445.892 732.852 445.988C732.58 446.076 732.284 446.12 731.964 446.12C731.412 446.12 730.968 445.984 730.632 445.712C730.304 445.432 730.136 445 730.128 444.416V441.008H728.988V440H730.128V438.596L731.412 438.236V440H733.512V441.008H731.412V444.2C731.412 444.488 731.488 444.704 731.64 444.848C731.8 444.984 732.016 445.052 732.288 445.052C732.656 445.052 732.98 444.924 733.26 444.668L733.56 445.604ZM737.854 439.88C738.134 439.88 738.354 439.92 738.514 440L738.31 441.176C738.126 441.072 737.874 441.02 737.554 441.02C737.298 441.02 737.054 441.088 736.822 441.224C736.598 441.36 736.41 441.564 736.258 441.836C736.114 442.108 736.042 442.436 736.042 442.82V446H734.758V440H735.85L735.958 441.08C736.294 440.28 736.926 439.88 737.854 439.88ZM742.214 439.88C743.15 439.88 743.882 440.156 744.41 440.708C744.938 441.26 745.202 442.024 745.202 443C745.202 443.976 744.938 444.74 744.41 445.292C743.882 445.844 743.15 446.12 742.214 446.12C741.278 446.12 740.546 445.844 740.018 445.292C739.49 444.74 739.226 443.976 739.226 443C739.226 442.024 739.49 441.26 740.018 440.708C740.546 440.156 741.278 439.88 742.214 439.88ZM742.214 440.888C741.67 440.888 741.25 441.072 740.954 441.44C740.666 441.8 740.522 442.32 740.522 443C740.522 443.68 740.666 444.204 740.954 444.572C741.25 444.932 741.67 445.112 742.214 445.112C742.758 445.112 743.178 444.928 743.474 444.56C743.77 444.192 743.918 443.672 743.918 443C743.918 442.328 743.77 441.808 743.474 441.44C743.178 441.072 742.758 440.888 742.214 440.888ZM748.099 444.248C748.099 444.544 748.143 444.752 748.231 444.872C748.319 444.984 748.483 445.04 748.723 445.04C748.875 445.04 749.003 445.032 749.107 445.016C749.219 444.992 749.355 444.948 749.515 444.884L749.371 445.916C749.099 446.052 748.767 446.12 748.375 446.12C747.839 446.12 747.443 445.984 747.187 445.712C746.939 445.44 746.815 445.012 746.815 444.428V437.3H748.099V444.248ZM751.238 438.992C750.966 438.992 750.754 438.924 750.602 438.788C750.45 438.644 750.374 438.444 750.374 438.188C750.374 437.932 750.45 437.736 750.602 437.6C750.754 437.464 750.966 437.396 751.238 437.396C751.51 437.396 751.718 437.464 751.862 437.6C752.014 437.736 752.09 437.932 752.09 438.188C752.09 438.444 752.014 438.644 751.862 438.788C751.718 438.924 751.51 438.992 751.238 438.992ZM751.874 446H750.59V440H751.874V446ZM756.523 439.88C757.459 439.88 758.191 440.156 758.719 440.708C759.247 441.26 759.511 442.024 759.511 443C759.511 443.976 759.247 444.74 758.719 445.292C758.191 445.844 757.459 446.12 756.523 446.12C755.587 446.12 754.855 445.844 754.327 445.292C753.799 444.74 753.535 443.976 753.535 443C753.535 442.024 753.799 441.26 754.327 440.708C754.855 440.156 755.587 439.88 756.523 439.88ZM756.523 440.888C755.979 440.888 755.559 441.072 755.263 441.44C754.975 441.8 754.831 442.32 754.831 443C754.831 443.68 754.975 444.204 755.263 444.572C755.559 444.932 755.979 445.112 756.523 445.112C757.067 445.112 757.487 444.928 757.783 444.56C758.079 444.192 758.227 443.672 758.227 443C758.227 442.328 758.079 441.808 757.783 441.44C757.487 441.072 757.067 440.888 756.523 440.888ZM772.438 443.83H770.94V446H769.19V443.83H764.584V442.808L768.63 436.76H770.94V442.43H772.438V443.83ZM766.446 442.43H769.19V439.602L769.232 438.09H769.204C768.999 438.566 768.719 439.075 768.364 439.616L766.446 442.43ZM775.866 436.62C776.612 436.62 777.21 436.858 777.658 437.334C778.106 437.81 778.33 438.44 778.33 439.224C778.33 440.008 778.106 440.638 777.658 441.114C777.21 441.59 776.612 441.828 775.866 441.828C775.128 441.828 774.531 441.59 774.074 441.114C773.626 440.638 773.402 440.008 773.402 439.224C773.402 438.44 773.626 437.81 774.074 437.334C774.531 436.858 775.128 436.62 775.866 436.62ZM781.634 436.76H783.174L776.944 446H775.404L781.634 436.76ZM775.866 437.95C775.548 437.95 775.306 438.062 775.138 438.286C774.97 438.51 774.886 438.823 774.886 439.224C774.886 439.625 774.97 439.938 775.138 440.162C775.306 440.377 775.548 440.484 775.866 440.484C776.183 440.484 776.426 440.377 776.594 440.162C776.762 439.938 776.846 439.625 776.846 439.224C776.846 438.823 776.762 438.51 776.594 438.286C776.426 438.062 776.183 437.95 775.866 437.95ZM782.698 440.932C783.435 440.932 784.028 441.17 784.476 441.646C784.933 442.122 785.162 442.752 785.162 443.536C785.162 444.32 784.933 444.95 784.476 445.426C784.028 445.902 783.435 446.14 782.698 446.14C781.951 446.14 781.354 445.902 780.906 445.426C780.458 444.95 780.234 444.32 780.234 443.536C780.234 442.752 780.458 442.122 780.906 441.646C781.354 441.17 781.951 440.932 782.698 440.932ZM782.698 442.276C782.38 442.276 782.138 442.388 781.97 442.612C781.802 442.827 781.718 443.135 781.718 443.536C781.718 443.937 781.802 444.25 781.97 444.474C782.138 444.698 782.38 444.81 782.698 444.81C783.015 444.81 783.258 444.698 783.426 444.474C783.594 444.25 783.678 443.937 783.678 443.536C783.678 443.135 783.594 442.827 783.426 442.612C783.258 442.388 783.015 442.276 782.698 442.276Z" fill="#F3F2EF"/>
<path d="M679.5 189C679.5 191.209 681.291 193 683.5 193C685.709 193 687.5 191.209 687.5 189C687.5 186.791 685.709 185 683.5 185C681.291 185 679.5 186.791 679.5 189ZM812.97 300.53C813.263 300.823 813.737 300.823 814.03 300.53L818.803 295.757C819.096 295.464 819.096 294.99 818.803 294.697C818.51 294.404 818.036 294.404 817.743 294.697L813.5 298.939L809.257 294.697C808.964 294.404 808.49 294.404 808.197 294.697C807.904 294.99 807.904 295.464 808.197 295.757L812.97 300.53ZM683.5 189.75H704.5V188.25H683.5V189.75ZM812.75 298V300H814.25V298H812.75ZM704.5 189.75C764.285 189.75 812.75 238.215 812.75 298H814.25C814.25 237.387 765.113 188.25 704.5 188.25V189.75Z" fill="#332827"/>
</svg>
