<svg width="200" height="38" viewBox="0 0 200 38" fill="none" xmlns="http://www.w3.org/2000/svg">
<path d="M138.594 8.32307H147.188V37.1674H148.087V8.32307H149V37.1674H149.899V8.32307H150.807V37.1674H151.706V8.32307H152.618V37.1674H153.517V8.32307H154.425V37.1674H155.324V8.32307H163.923V7.42407H138.594V8.32307Z" fill="white"/>
<path d="M163.923 5.61255H138.594V6.51155H163.923V5.61255Z" fill="white"/>
<path d="M163.923 3.80542H138.594V4.70442H163.923V3.80542Z" fill="white"/>
<path d="M163.923 1.9939H138.594V2.89289H163.923V1.9939Z" fill="white"/>
<path d="M163.923 0.187012H138.594V1.08601H163.923V0.187012Z" fill="white"/>
<path d="M181.512 29.926C175.309 29.926 170.261 24.8781 170.261 18.675C170.261 12.4719 175.309 7.42407 181.512 7.42407C187.715 7.42407 192.763 12.4719 192.763 18.675C192.763 24.8781 187.715 29.926 181.512 29.926ZM181.512 8.32307C175.803 8.32307 171.16 12.9664 171.16 18.675C171.16 24.3837 175.803 29.027 181.512 29.027C187.221 29.027 191.864 24.3837 191.864 18.675C191.864 12.9664 187.221 8.32307 181.512 8.32307Z" fill="white"/>
<path d="M181.512 31.7374C174.311 31.7374 168.45 25.8804 168.45 18.675C168.45 11.4695 174.307 5.61255 181.512 5.61255C188.718 5.61255 194.575 11.4695 194.575 18.675C194.575 25.8804 188.718 31.7374 181.512 31.7374ZM181.512 6.51604C174.806 6.51604 169.349 11.973 169.349 18.6795C169.349 25.386 174.806 30.8429 181.512 30.8429C188.219 30.8429 193.676 25.386 193.676 18.6795C193.676 11.973 188.219 6.51604 181.512 6.51604Z" fill="white"/>
<path d="M181.512 33.5489C173.313 33.5489 166.643 26.8783 166.643 18.6795C166.643 10.4806 173.313 3.81006 181.512 3.81006C189.711 3.81006 196.382 10.4806 196.382 18.6795C196.382 26.8783 189.711 33.5489 181.512 33.5489ZM181.512 4.70906C173.808 4.70906 167.542 10.9751 167.542 18.6795C167.542 26.3839 173.808 32.6499 181.512 32.6499C189.216 32.6499 195.483 26.3839 195.483 18.6795C195.483 10.9751 189.216 4.70906 181.512 4.70906Z" fill="white"/>
<path d="M181.512 35.3557C172.315 35.3557 164.831 27.8715 164.831 18.6748C164.831 9.47805 172.315 1.9939 181.512 1.9939C190.709 1.9939 198.193 9.47805 198.193 18.6748C198.193 27.8715 190.709 35.3557 181.512 35.3557ZM181.512 2.89289C172.81 2.89289 165.73 9.9725 165.73 18.6748C165.73 27.3771 172.81 34.4567 181.512 34.4567C190.214 34.4567 197.294 27.3771 197.294 18.6748C197.294 9.9725 190.214 2.89289 181.512 2.89289Z" fill="white"/>
<path d="M181.512 37.1673C171.317 37.1673 163.024 28.874 163.024 18.6794C163.024 8.48476 171.317 0.187012 181.512 0.187012C191.707 0.187012 200 8.48026 200 18.6749C200 28.8695 191.707 37.1628 181.512 37.1628V37.1673ZM181.512 1.08601C171.812 1.08601 163.923 8.97921 163.923 18.6749C163.923 28.3706 171.816 36.2638 181.512 36.2638C191.208 36.2638 199.101 28.3706 199.101 18.6749C199.101 8.97921 191.212 1.08601 181.512 1.08601Z" fill="white"/>
<path d="M110.797 0.187012V22.2754C110.797 29.9888 104.522 36.2683 96.8041 36.2683C89.0862 36.2683 82.8112 29.9933 82.8112 22.2754V0.187012H81.9122V22.2754C81.9122 30.4877 88.5917 37.1673 96.8041 37.1673C105.016 37.1673 111.696 30.4877 111.696 22.2754V0.187012H110.797Z" fill="white"/>
<path d="M96.8085 29.9303C101.029 29.9303 104.463 26.4962 104.463 22.2754V0.187012H103.564V22.2754C103.564 26.0017 100.535 29.0313 96.8085 29.0313C93.0822 29.0313 90.0526 26.0017 90.0526 22.2754V0.187012H89.1536V22.2754C89.1536 26.4962 92.5877 29.9303 96.8085 29.9303Z" fill="white"/>
<path d="M96.8086 31.7373C102.027 31.7373 106.271 27.4941 106.271 22.2754V0.187012H105.372V22.2754C105.372 26.9996 101.528 30.8383 96.8086 30.8383C92.0888 30.8383 88.2456 26.9951 88.2456 22.2754V0.187012H87.3466V22.2754C87.3466 27.4941 91.5899 31.7373 96.8086 31.7373Z" fill="white"/>
<path d="M96.8085 33.5488C103.025 33.5488 108.082 28.4919 108.082 22.2754V0.187012H107.183V22.2754C107.183 27.993 102.531 32.6498 96.8085 32.6498C91.0864 32.6498 86.4341 27.9975 86.4341 22.2754V0.187012H85.5351V22.2754C85.5351 28.4919 90.592 33.5488 96.8085 33.5488Z" fill="white"/>
<path d="M96.8086 35.3558C104.023 35.3558 109.889 29.4898 109.889 22.2754V0.187012H108.99V22.2754C108.99 28.9909 103.524 34.4568 96.8086 34.4568C90.093 34.4568 84.6271 28.9909 84.6271 22.2754V0.187012H83.7281V22.2754C83.7281 29.4898 89.5941 35.3558 96.8086 35.3558Z" fill="white"/>
<path d="M126.183 30.4023C124.408 30.4023 122.781 29.364 122.03 27.7548L122.844 27.3727C123.446 28.6628 124.758 29.4988 126.183 29.4988C128.318 29.4988 129.869 28.0559 129.869 26.0647C129.869 24.8106 129.11 23.1519 125.505 22.3878C122.524 21.7585 119.967 20.5223 118.115 18.8142C115.971 16.8409 114.838 14.2653 114.838 11.3616C114.838 8.45779 116.02 5.64842 118.164 3.5178C120.322 1.37369 123.172 0.187012 126.183 0.187012C130.575 0.187012 134.611 2.75814 136.472 6.73621L135.659 7.11828C133.946 3.45487 130.229 1.08601 126.188 1.08601C123.414 1.08601 120.789 2.17829 118.798 4.16058C116.825 6.12489 115.737 8.68254 115.737 11.3705C115.737 14.0585 116.739 16.3375 118.722 18.158C120.457 19.7537 122.866 20.9134 125.689 21.5112C128.966 22.2035 130.768 23.8217 130.768 26.0647C130.768 28.5774 128.84 30.3978 126.183 30.3978V30.4023Z" fill="white"/>
<path d="M126.183 32.0969C123.756 32.0969 121.522 30.6764 120.497 28.4739L121.311 28.0918C122.192 29.9752 124.102 31.1934 126.183 31.1934C129.199 31.1934 131.559 28.9324 131.559 26.0466C131.559 24.6756 131.002 23.5114 129.905 22.581C128.921 21.7449 127.496 21.1156 125.797 20.7515C123.194 20.1986 120.969 19.1423 119.369 17.6949C117.486 15.9913 116.528 13.8562 116.528 11.3435C116.528 8.8308 117.53 6.47992 119.351 4.68193C121.18 2.87045 123.612 1.87256 126.188 1.87256C129.923 1.87256 133.362 4.06162 134.944 7.44634L134.13 7.82842C132.697 4.75834 129.577 2.77156 126.192 2.77156C123.855 2.77156 121.652 3.67505 119.989 5.32021C118.344 6.9474 117.436 9.08701 117.436 11.3435C117.436 13.6 118.29 15.5014 119.98 17.0252C121.468 18.3692 123.545 19.3491 125.995 19.8705C130.112 20.7425 132.472 22.99 132.472 26.0421C132.472 29.4313 129.716 32.0879 126.197 32.0879L126.183 32.0969Z" fill="white"/>
<path d="M126.183 33.7871C123.1 33.7871 120.268 31.9801 118.964 29.1887L119.778 28.8066C120.938 31.2834 123.45 32.8881 126.183 32.8881C130.08 32.8881 133.249 29.8135 133.249 26.0287C133.249 24.406 132.553 20.4864 126.089 19.1199C123.864 18.648 121.971 17.7714 120.623 16.5803C119.027 15.1778 118.218 13.4113 118.218 11.3301C118.218 9.24895 119.041 7.3161 120.538 5.85074C122.039 4.38088 124.044 3.57178 126.188 3.57178C129.271 3.57178 132.103 5.37876 133.411 8.17015L132.598 8.55222C131.438 6.07549 128.925 4.47077 126.192 4.47077C122.295 4.47077 119.126 7.54535 119.126 11.3301C119.126 12.9528 119.823 16.8724 126.287 18.2389C128.512 18.7109 130.404 19.5874 131.757 20.7786C133.353 22.181 134.162 23.9476 134.162 26.0287C134.162 28.1099 133.339 30.0428 131.842 31.5081C130.341 32.978 128.336 33.7871 126.192 33.7871H126.183Z" fill="white"/>
<path d="M126.183 35.4773C122.448 35.4773 119.009 33.2882 117.427 29.9035L118.241 29.5214C119.675 32.5915 122.794 34.5783 126.179 34.5783C128.516 34.5783 130.719 33.6748 132.382 32.0296C134.027 30.4024 134.935 28.2628 134.935 26.0063C134.935 23.7498 134.081 21.8485 132.391 20.3247C130.903 18.9807 128.826 18.0008 126.377 17.4793C122.259 16.6073 119.899 14.3598 119.899 11.3077C119.899 7.9185 122.655 5.26196 126.174 5.26196C128.602 5.26196 130.836 6.68238 131.86 8.88492L131.047 9.267C130.166 7.3836 128.251 6.16546 126.174 6.16546C123.158 6.16546 120.798 8.42643 120.798 11.3122C120.798 12.6832 121.356 13.8474 122.452 14.7779C123.441 15.6139 124.862 16.2432 126.561 16.6073C129.163 17.1602 131.388 18.2165 132.989 19.6639C134.872 21.3675 135.83 23.5026 135.83 26.0153C135.83 28.528 134.827 30.8789 133.007 32.6769C131.177 34.4884 128.745 35.4863 126.17 35.4863L126.183 35.4773Z" fill="white"/>
<path d="M126.183 37.1674C121.792 37.1674 117.755 34.5962 115.894 30.6182L116.708 30.2361C118.42 33.8995 122.138 36.2684 126.179 36.2684C128.952 36.2684 131.577 35.1761 133.569 33.1938C135.542 31.2295 136.63 28.6718 136.63 25.9838C136.63 23.2958 135.627 21.0169 133.645 19.1964C131.91 17.6007 129.501 16.441 126.678 15.8431C123.401 15.1509 121.598 13.5327 121.598 11.2897C121.598 8.77701 123.527 6.95654 126.183 6.95654C127.954 6.95654 129.586 7.99489 130.337 9.60409L129.523 9.98616C128.921 8.6961 127.608 7.86004 126.183 7.86004C124.048 7.86004 122.497 9.30293 122.497 11.2942C122.497 12.5483 123.257 14.207 126.862 14.9711C129.842 15.6004 132.4 16.8365 134.252 18.5446C136.396 20.5179 137.529 23.0935 137.529 25.9973C137.529 28.9011 136.346 31.7104 134.202 33.8411C132.04 35.9942 129.19 37.1763 126.179 37.1763L126.183 37.1674Z" fill="white"/>
<path d="M78.86 17.7625H60.9745V18.6614H78.86V17.7625Z" fill="white"/>
<path d="M78.86 15.8835H60.9745V16.7825H78.86V15.8835Z" fill="white"/>
<path d="M78.86 19.6414H60.9745V20.5404H78.86V19.6414Z" fill="white"/>
<path d="M78.86 21.5247H60.9745V22.4237H78.86V21.5247Z" fill="white"/>
<path d="M60.9745 23.4037V24.3027H69.3262C67.4653 27.0626 64.3323 28.7527 60.9745 28.7527C55.4232 28.7527 50.9057 24.2352 50.9057 18.6839C50.9057 13.1326 55.4232 8.61516 60.9745 8.61516C63.6625 8.61516 66.1932 9.66249 68.0946 11.5639L68.7284 10.9301C66.6562 8.85789 63.9052 7.71616 60.9745 7.71616C54.9287 7.71616 50.0067 12.6337 50.0067 18.6839C50.0067 24.7342 54.9243 29.6517 60.9745 29.6517C64.8312 29.6517 68.4182 27.611 70.3915 24.3027H71.5018C70.8095 25.5972 69.8791 26.7659 68.7463 27.7413C66.5843 29.6023 63.8198 30.6226 60.9655 30.6226C54.3804 30.6226 49.0268 25.2646 49.0268 18.6839C49.0268 12.1033 54.3849 6.74524 60.9655 6.74524C64.157 6.74524 67.1551 7.98586 69.4071 10.2423L70.0409 9.60855C67.6181 7.18575 64.3907 5.84624 60.961 5.84624C53.8814 5.84624 48.1233 11.6043 48.1233 18.6839C48.1233 25.7635 53.8814 31.5216 60.961 31.5216C64.0311 31.5216 67.0023 30.4203 69.3262 28.4201C70.6657 27.2694 71.74 25.8624 72.5042 24.2982H73.6054C72.8862 25.9164 71.8524 27.3952 70.5443 28.6538C67.9597 31.1395 64.557 32.506 60.97 32.506C53.3465 32.506 47.1434 26.3029 47.1434 18.6794C47.1434 11.0559 53.3465 4.85285 60.97 4.85285C64.6649 4.85285 68.135 6.29125 70.7466 8.90284L71.3804 8.26904C68.598 5.48665 64.9031 3.95835 60.97 3.95835C52.8521 3.95835 46.2444 10.566 46.2444 18.6839C46.2444 26.8019 52.8521 33.4095 60.97 33.4095C64.7908 33.4095 68.4137 31.9531 71.1691 29.3056C72.6615 27.8717 73.8167 26.1681 74.5853 24.3027H75.6372C73.3717 30.1956 67.6541 34.3894 60.97 34.3894C52.3082 34.3894 45.2645 27.3458 45.2645 18.6839C45.2645 10.0221 52.3127 2.97395 60.9745 2.97395C65.1683 2.97395 69.1149 4.60563 72.0816 7.57232L72.7154 6.93853C69.5779 3.80103 65.4111 2.07495 60.9745 2.07495C51.8182 2.07495 44.37 9.52314 44.37 18.6794C44.37 27.8357 51.8182 35.2839 60.9745 35.2839C68.1575 35.2839 74.2887 30.699 76.5991 24.2982H77.6419C76.5227 27.6155 74.3831 30.5867 71.5737 32.7128C68.5036 35.0367 64.8357 36.2638 60.9745 36.2638C51.2788 36.2638 43.3901 28.3751 43.3901 18.6794C43.3901 8.98375 51.2788 1.09504 60.9745 1.09504C65.6718 1.09504 70.0858 2.9245 73.4076 6.2463L74.0414 5.6125C70.5533 2.1199 65.91 0.196045 60.9745 0.196045C50.7799 0.196045 42.4911 8.4893 42.4911 18.6839C42.4911 28.8786 50.7844 37.1673 60.9745 37.1673C65.0335 37.1673 68.8857 35.8773 72.1131 33.432C75.2371 31.0676 77.57 27.7144 78.6848 23.979L78.8556 23.3992H60.97L60.9745 23.4037Z" fill="white"/>
<path d="M20.7893 0.187012H19.8903V37.1673H20.7893V0.187012Z" fill="white"/>
<path d="M18.9778 0.187012H18.0788V37.1673H18.9778V0.187012Z" fill="white"/>
<path d="M17.1708 0.187012H16.2719V37.1673H17.1708V0.187012Z" fill="white"/>
<path d="M15.3594 0.187012H14.4604V37.1673H15.3594V0.187012Z" fill="white"/>
<path d="M36.1576 29.9348V29.0358H22.5963V0.187012H21.6973V37.1673H22.5963H36.1576V36.2683H22.5963V35.3603H36.1576V34.4613H22.5963V33.5533H36.1576V32.6543H22.5963V31.7418H36.1576V30.8428H22.5963V29.9348H36.1576Z" fill="white"/>
<path d="M6.32447 0.187012H5.42548V37.1673H6.32447V0.187012Z" fill="white"/>
<path d="M4.51747 0.187012H3.61847V37.1673H4.51747V0.187012Z" fill="white"/>
<path d="M2.706 0.187012H1.80701V37.1673H2.706V0.187012Z" fill="white"/>
<path d="M0.898998 0.187012H0V37.1673H0.898998V0.187012Z" fill="white"/>
<path d="M8.13594 0.187012H7.23694V37.1673H8.13594V0.187012Z" fill="white"/>
</svg>
