<svg width="190" height="28" viewBox="0 0 190 28" fill="none" xmlns="http://www.w3.org/2000/svg">
<g clip-path="url(#clip0_4314_207)">
<path d="M17.3969 3.4947L18.6536 1.37409H19.0463V8.28573H18.4965C18.0645 3.33762 14.9621 1.76679 11.7812 1.76679C7.06872 1.76679 5.10519 5.22261 5.10519 12.4877V16.6504C5.10519 23.9155 6.67602 27.4498 11.3885 27.4498C15.1192 27.4498 16.1403 25.3292 16.1403 20.2633V17.2394C16.1403 16.7682 15.8654 16.5718 15.4334 16.5718H13.9411V16.0613H22.5806V16.5718H21.4811C21.0098 16.5718 20.7742 16.7289 20.7742 17.1609V19.0459C20.7742 23.994 16.2973 27.9996 11.2314 27.9996C5.45863 27.9996 0 21.9127 0 14.569C0 7.26469 5.57644 1.17773 11.7027 1.17773C14.0982 1.17773 16.101 2.00242 17.3969 3.4947Z" fill="#F7F7F5"/>
<path d="M24.7796 11.1142H23.248V10.6036H25.2901C28.1176 10.6036 28.7852 10.2109 29.0994 10.2109C29.4135 10.2109 29.5706 10.368 29.5706 10.6822V14.0987C30.0026 12.2923 31.22 10.2502 33.4977 10.2502C35.2256 10.2502 36.2466 11.3498 36.2466 12.685C36.2466 13.8631 35.3827 14.6485 34.2831 14.6485C33.1443 14.6485 32.2803 13.8631 32.2803 12.6064C32.2803 11.8996 32.673 11.5069 32.673 11.3105C32.673 11.1927 32.5945 11.1142 32.4374 11.1142C31.1415 11.1142 29.5706 13.8238 29.5706 17.2797V26.6261C29.5706 26.9403 29.767 27.1366 30.0811 27.1366H31.5734V27.6471H23.248V27.1366H24.7796C25.0938 27.1366 25.2901 26.901 25.2901 26.6261V11.6247C25.2901 11.3105 25.0938 11.1142 24.7796 11.1142Z" fill="#F7F7F5"/>
<path d="M41.4302 17.6329V20.1462C41.4302 24.4267 42.3727 27.372 45.5143 27.372C47.9884 27.372 49.9912 25.6834 51.0122 22.3846L51.5228 22.5417C50.5017 25.7227 48.3811 28.0004 45.0038 28.0004C40.6841 28.0004 36.9141 23.9555 36.9141 19.1252C36.9141 14.2163 40.6841 10.25 44.5719 10.25C48.224 10.25 51.5228 13.588 51.5228 17.0831C51.5228 17.4758 51.3657 17.5936 51.0122 17.5936H41.4302V17.6329ZM41.4302 17.1224H47.1637V16.6119C47.1637 12.8811 46.6925 10.7998 44.6111 10.7998C42.569 10.7998 41.5873 13.1953 41.4302 17.1224Z" fill="#F7F7F5"/>
<path d="M57.7661 17.6329V20.1462C57.7661 24.4267 58.7086 27.372 61.8503 27.372C64.3243 27.372 66.3271 25.6834 67.3482 22.3846L67.8587 22.5417C66.8377 25.7227 64.717 28.0004 61.3398 28.0004C57.02 28.0004 53.25 23.9555 53.25 19.1252C53.25 14.2163 57.02 10.25 60.9078 10.25C64.56 10.25 67.8587 13.588 67.8587 17.0831C67.8587 17.4758 67.7016 17.5936 67.3482 17.5936H57.7661V17.6329ZM57.7661 17.1224H63.4996V16.6119C63.4996 12.8811 63.0284 10.7998 60.947 10.7998C58.905 10.7998 57.9232 13.1953 57.7661 17.1224Z" fill="#F7F7F5"/>
<path d="M70.53 11.1142H68.9985V10.6036H71.0405C73.868 10.6036 74.5356 10.2109 74.8498 10.2109C75.164 10.2109 75.321 10.368 75.321 10.6822V13.7453C75.8316 12.2137 77.5202 10.2502 80.6619 10.2502C83.9213 10.2502 85.8063 12.3708 85.8063 15.3161V26.6261C85.8063 26.9403 86.0027 27.1366 86.3168 27.1366H87.8091V27.6471H79.3267V27.1366H80.976C81.2902 27.1366 81.4865 26.901 81.4865 26.6261V15.4732C81.4865 12.685 81.3687 11.0749 79.3267 11.0749C77.1275 11.0749 75.2818 13.5489 75.2818 16.1408V26.5868C75.2818 26.901 75.4781 27.0973 75.7923 27.0973H77.3631V27.6079H68.9199V27.0973H70.4515C70.7656 27.0973 70.962 26.8617 70.962 26.5868V11.6247C71.0405 11.3105 70.8442 11.1142 70.53 11.1142Z" fill="#F7F7F5"/>
<path d="M100.494 10.8382C100.886 10.7204 101.201 10.6811 101.554 10.6811C102.771 10.6811 103.635 11.2309 103.635 12.0949C103.635 12.8018 103.125 13.2337 102.379 13.2337C101.476 13.2337 100.69 12.6054 100.101 11.6629C98.5695 12.6447 97.195 14.9616 97.195 17.7106C97.195 21.6769 99.5513 25.604 105.756 25.604C111.922 25.604 114.749 20.7344 114.749 16.179C114.749 12.0949 112.118 11.0738 110.076 11.0738C107.837 11.0738 106.738 12.4091 106.738 14.0191C106.738 15.5114 107.916 16.3754 108.701 16.3754C108.387 15.2758 108.819 13.7443 110.272 13.7443C111.175 13.7443 111.843 14.3726 111.843 15.2365C111.843 16.4539 110.979 17.3179 109.448 17.3179C107.602 17.3179 106.149 15.9827 106.149 13.9799C106.149 11.7807 107.837 9.62083 110.783 9.62083C112.393 9.62083 114.435 10.3277 116.084 10.3277C118.362 10.3277 119.54 8.87469 119.54 7.02897C119.54 5.1047 118.755 4.28002 117.851 3.7695C117.616 5.18325 116.909 5.92939 115.888 5.92939C114.985 5.92939 114.317 5.26179 114.317 4.35856C114.317 3.45534 115.063 2.74846 116.084 2.74846C118.048 2.74846 121.072 4.82981 121.072 7.61803C121.072 10.4848 119.304 12.2127 116.516 12.2127C115.731 12.2127 114.553 12.0163 113.453 11.5844C114.945 12.7232 115.849 15.1187 115.849 17.1608C115.849 22.2267 112.55 27.8817 104.971 27.8817C98.8837 27.921 95.0352 23.7976 95.0352 18.8494C95.0352 14.4904 97.3521 12.0556 99.7869 11.0346C99.4727 10.3277 99.3157 9.42448 99.3157 8.52125C99.3157 5.26179 101.358 2.66992 104.774 2.66992C107.523 2.66992 109.251 3.96585 109.251 6.16501C109.251 7.61803 108.505 8.48198 107.366 8.91396L107.248 8.75688C107.759 8.40344 108.073 7.97146 108.073 6.9897C108.073 5.61522 107.013 4.24075 104.578 4.24075C102.3 4.24075 100.258 6.20428 100.258 9.30667C100.297 9.77792 100.376 10.367 100.494 10.8382Z" fill="#F7F7F5"/>
<path d="M126.648 26.8621H128.101C128.573 26.8621 128.769 26.5872 128.769 26.1945V2.475C128.769 2.04302 128.533 1.80739 128.101 1.80739H126.648V1.29688H135.838C141.022 1.29688 144.556 4.12437 144.556 7.73727C144.556 10.6433 142.003 13.1566 138.037 13.785C142.71 14.2169 145.734 16.8873 145.734 20.3039C145.734 24.0739 142.043 27.3726 136.584 27.3726H126.648V26.8621ZM133.403 13.5101H135.877C138.979 13.5101 140.04 11.6643 140.04 7.97289V7.22675C140.04 3.57457 138.783 1.84666 135.799 1.84666H134.11C133.639 1.84666 133.403 2.12156 133.403 2.55354V13.5101ZM134.11 26.8228H136.584C139.922 26.8228 141.061 24.7807 141.061 20.6181V19.8326C141.061 15.9448 139.961 14.0991 136.662 14.0991H133.403V26.1552C133.403 26.5479 133.678 26.8228 134.11 26.8228Z" fill="#F7F7F5"/>
<path d="M148.68 0.863955H147.149V0.392707H149.191C152.018 0.392707 152.686 0 153 0C153.314 0 153.471 0.157083 153.471 0.471248V26.3506C153.471 26.6648 153.668 26.8611 153.982 26.8611H155.553V27.3717H147.109V26.8611H148.641C148.955 26.8611 149.151 26.6255 149.151 26.3506V1.37447C149.151 1.06031 148.955 0.863955 148.68 0.863955Z" fill="#F7F7F5"/>
<path d="M172.557 26.8611H174.088V27.3716H172.046C169.179 27.3716 168.551 27.6465 168.237 27.6465C167.923 27.6465 167.766 27.4894 167.766 27.1752V24.2299C167.294 25.683 165.802 27.725 162.7 27.725C159.519 27.725 157.634 25.6044 157.634 22.6199V11.3492C157.634 11.035 157.398 10.8386 157.123 10.8386H155.631V10.3281H161.286C161.757 10.3281 161.914 10.5245 161.914 10.9565V22.8555C161.914 25.9579 162.464 26.8611 163.996 26.8611C166.116 26.8611 167.766 24.387 167.766 21.7952V11.3492C167.766 11.035 167.53 10.8386 167.255 10.8386H165.763V10.3281H171.418C171.889 10.3281 172.046 10.5245 172.046 10.9565V26.3113C172.085 26.6647 172.282 26.8611 172.557 26.8611Z" fill="#F7F7F5"/>
<path d="M179.665 17.3575V19.8708C179.665 24.1513 180.607 27.0966 183.749 27.0966C186.223 27.0966 188.226 25.408 189.247 22.1093L189.757 22.2663C188.736 25.4473 186.615 27.725 183.238 27.725C178.918 27.725 175.148 23.6801 175.148 18.8498C175.148 13.9409 178.918 9.97461 182.806 9.97461C186.458 9.97461 189.757 13.3126 189.757 16.8077C189.757 17.2004 189.6 17.3182 189.247 17.3182H179.665V17.3575ZM179.665 16.847H185.398V16.3365C185.398 12.6057 184.927 10.5244 182.845 10.5244C180.803 10.4851 179.822 12.9199 179.665 16.847Z" fill="#F7F7F5"/>
</g>
<defs>
<clipPath id="clip0_4314_207">
<rect width="189.756" height="28" fill="white"/>
</clipPath>
</defs>
</svg>
