<svg width="177" height="26" viewBox="0 0 177 26" fill="none" xmlns="http://www.w3.org/2000/svg">
<g clip-path="url(#clip0_3701_6395)">
<path d="M16.1543 3.24547L17.3212 1.27632H17.6858V7.69427H17.1753C16.7742 3.0996 13.8934 1.64098 10.9397 1.64098C6.56382 1.64098 4.74053 4.84995 4.74053 11.5961V15.4615C4.74053 22.2076 6.19916 25.4895 10.575 25.4895C14.0393 25.4895 14.9874 23.5204 14.9874 18.8163V16.0084C14.9874 15.5709 14.7321 15.3885 14.331 15.3885H12.9453V14.9145H20.9677V15.3885H19.9467C19.5091 15.3885 19.2903 15.5344 19.2903 15.9355V17.6859C19.2903 22.2805 15.1332 26 10.4292 26C5.06872 26 0 20.3478 0 13.5288C0 6.74617 5.17812 1.09399 10.8668 1.09399C13.0912 1.09399 14.9509 1.85977 16.1543 3.24547Z" fill="white"/>
<path d="M23.01 10.3198H21.5879V9.84574H23.4841C26.1096 9.84574 26.7295 9.48108 27.0213 9.48108C27.313 9.48108 27.4589 9.62694 27.4589 9.91867V13.0912C27.86 11.4138 28.9904 9.51754 31.1054 9.51754C32.7099 9.51754 33.658 10.5386 33.658 11.7784C33.658 12.8724 32.8558 13.6017 31.8347 13.6017C30.7772 13.6017 29.975 12.8724 29.975 11.7055C29.975 11.0491 30.3396 10.6844 30.3396 10.5021C30.3396 10.3927 30.2667 10.3198 30.1208 10.3198C28.9175 10.3198 27.4589 12.8359 27.4589 16.0449V24.7237C27.4589 25.0154 27.6412 25.1978 27.9329 25.1978H29.3186V25.6718H21.5879V25.1978H23.01C23.3018 25.1978 23.4841 24.979 23.4841 24.7237V10.7938C23.4841 10.5021 23.3018 10.3198 23.01 10.3198Z" fill="white"/>
<path d="M38.4709 16.3732V18.707C38.4709 22.6818 39.3461 25.4167 42.2633 25.4167C44.5607 25.4167 46.4204 23.8487 47.3685 20.7856L47.8426 20.9314C46.8945 23.8852 44.9253 26.0002 41.7893 26.0002C37.778 26.0002 34.2773 22.2442 34.2773 17.7589C34.2773 13.2007 37.778 9.5177 41.3881 9.5177C44.7795 9.5177 47.8426 12.6173 47.8426 15.8627C47.8426 16.2274 47.6967 16.3368 47.3685 16.3368H38.4709V16.3732ZM38.4709 15.8992H43.7949V15.4251C43.7949 11.9609 43.3573 10.0282 41.4246 10.0282C39.5284 10.0282 38.6168 12.2526 38.4709 15.8992Z" fill="white"/>
<path d="M53.6408 16.3732V18.707C53.6408 22.6818 54.516 25.4167 57.4332 25.4167C59.7306 25.4167 61.5903 23.8487 62.5384 20.7856L63.0125 20.9314C62.0644 23.8852 60.0952 26.0002 56.9592 26.0002C52.948 26.0002 49.4473 22.2442 49.4473 17.7589C49.4473 13.2007 52.948 9.5177 56.5581 9.5177C59.9494 9.5177 63.0125 12.6173 63.0125 15.8627C63.0125 16.2274 62.8666 16.3368 62.5384 16.3368H53.6408V16.3732ZM53.6408 15.8992H58.9648V15.4251C58.9648 11.9609 58.5272 10.0282 56.5945 10.0282C54.6983 10.0282 53.7867 12.2526 53.6408 15.8992Z" fill="white"/>
<path d="M65.4922 10.3198H64.07V9.84574H65.9662C68.5917 9.84574 69.2117 9.48108 69.5034 9.48108C69.7951 9.48108 69.941 9.62694 69.941 9.91867V12.763C70.415 11.3408 71.983 9.51754 74.9003 9.51754C77.9269 9.51754 79.6773 11.4867 79.6773 14.2216V24.7237C79.6773 25.0154 79.8596 25.1978 80.1513 25.1978H81.537V25.6718H73.6605V25.1978H75.192C75.4837 25.1978 75.6661 24.979 75.6661 24.7237V14.3675C75.6661 11.7784 75.5567 10.2833 73.6605 10.2833C71.6184 10.2833 69.9045 12.5807 69.9045 14.9874V24.6872C69.9045 24.979 70.0868 25.1613 70.3786 25.1613H71.8372V25.6354H63.9971V25.1613H65.4192C65.711 25.1613 65.8933 24.9425 65.8933 24.6872V10.7938C65.9662 10.5021 65.7839 10.3198 65.4922 10.3198Z" fill="white"/>
<path d="M93.3158 10.0648C93.6804 9.95537 93.9722 9.91891 94.3004 9.91891C95.4308 9.91891 96.233 10.4294 96.233 11.2317C96.233 11.8881 95.759 12.2892 95.0661 12.2892C94.2274 12.2892 93.4981 11.7057 92.9511 10.8306C91.529 11.7422 90.2527 13.8937 90.2527 16.4463C90.2527 20.1293 92.4406 23.7759 98.2022 23.7759C103.927 23.7759 106.553 19.2541 106.553 15.0241C106.553 11.2317 104.11 10.2836 102.213 10.2836C100.135 10.2836 99.1138 11.5234 99.1138 13.0185C99.1138 14.4042 100.208 15.2064 100.937 15.2064C100.645 14.1854 101.047 12.7632 102.396 12.7632C103.234 12.7632 103.854 13.3467 103.854 14.1489C103.854 15.2794 103.052 16.0816 101.63 16.0816C99.9161 16.0816 98.5668 14.8418 98.5668 12.982C98.5668 10.9399 100.135 8.93434 102.87 8.93434C104.365 8.93434 106.261 9.59072 107.793 9.59072C109.908 9.59072 111.002 8.24149 111.002 6.5276C111.002 4.74079 110.272 3.97501 109.434 3.50096C109.215 4.81372 108.558 5.50657 107.61 5.50657C106.772 5.50657 106.152 4.88665 106.152 4.04794C106.152 3.20923 106.845 2.55285 107.793 2.55285C109.616 2.55285 112.424 4.48553 112.424 7.07459C112.424 9.73658 110.783 11.3411 108.194 11.3411C107.464 11.3411 106.37 11.1587 105.349 10.7576C106.735 11.8151 107.574 14.0395 107.574 15.9357C107.574 20.6398 104.511 25.8909 97.4729 25.8909C91.8207 25.9273 88.2471 22.0984 88.2471 17.5038C88.2471 13.4561 90.3985 11.1952 92.6594 10.2471C92.3677 9.59072 92.2218 8.75201 92.2218 7.9133C92.2218 4.88665 94.118 2.47992 97.2905 2.47992C99.8431 2.47992 101.448 3.68329 101.448 5.72536C101.448 7.07459 100.755 7.87683 99.6973 8.27796L99.5879 8.13209C100.062 7.8039 100.354 7.40278 100.354 6.49114C100.354 5.21484 99.3691 3.93854 97.1082 3.93854C94.9932 3.93854 93.097 5.76183 93.097 8.64261C93.1335 9.0802 93.2064 9.62718 93.3158 10.0648Z" fill="white"/>
<path d="M117.602 24.9427H118.951C119.388 24.9427 119.571 24.6874 119.571 24.3228V2.29752C119.571 1.8964 119.352 1.67761 118.951 1.67761H117.602V1.20355H126.135C130.948 1.20355 134.23 3.82908 134.23 7.18392C134.23 9.88237 131.86 12.2162 128.177 12.7996C132.516 13.2007 135.324 15.6804 135.324 18.8529C135.324 22.3536 131.896 25.4167 126.827 25.4167H117.602V24.9427ZM123.874 12.5444H126.171C129.052 12.5444 130.036 10.8305 130.036 7.40271V6.70986C130.036 3.31856 128.869 1.71407 126.098 1.71407H124.53C124.092 1.71407 123.874 1.96933 123.874 2.37045V12.5444ZM124.53 24.9062H126.827C129.927 24.9062 130.984 23.01 130.984 19.1446V18.4153C130.984 14.8052 129.963 13.0914 126.9 13.0914H123.874V24.2863C123.874 24.651 124.129 24.9062 124.53 24.9062Z" fill="white"/>
<path d="M138.059 0.802244H136.637V0.364656H138.533C141.159 0.364656 141.779 0 142.07 0C142.362 0 142.508 0.145863 142.508 0.437588V24.4684C142.508 24.7602 142.69 24.9425 142.982 24.9425H144.441V25.4165H136.601V24.9425H138.023C138.314 24.9425 138.497 24.7237 138.497 24.4684V1.2763C138.497 0.984572 138.314 0.802244 138.059 0.802244Z" fill="white"/>
<path d="M160.23 24.9426H161.653V25.4167H159.756C157.094 25.4167 156.511 25.6719 156.219 25.6719C155.927 25.6719 155.782 25.5261 155.782 25.2343V22.4994C155.344 23.8486 153.958 25.7449 151.077 25.7449C148.124 25.7449 146.373 23.7757 146.373 21.0043V10.5387C146.373 10.247 146.155 10.0646 145.899 10.0646H144.514V9.59058H149.765C150.202 9.59058 150.348 9.7729 150.348 10.174V21.2231C150.348 24.1039 150.859 24.9426 152.281 24.9426C154.25 24.9426 155.782 22.6453 155.782 20.2385V10.5387C155.782 10.247 155.563 10.0646 155.308 10.0646H153.922V9.59058H159.173C159.61 9.59058 159.756 9.7729 159.756 10.174V24.4321C159.793 24.7603 159.975 24.9426 160.23 24.9426Z" fill="white"/>
<path d="M166.83 16.1176V18.4514C166.83 22.4262 167.705 25.1611 170.623 25.1611C172.92 25.1611 174.78 23.5931 175.728 20.53L176.202 20.6758C175.254 23.6295 173.285 25.7446 170.149 25.7446C166.137 25.7446 162.637 21.9886 162.637 17.5033C162.637 12.9451 166.137 9.26208 169.748 9.26208C173.139 9.26208 176.202 12.3617 176.202 15.6071C176.202 15.9718 176.056 16.0812 175.728 16.0812H166.83V16.1176ZM166.83 15.6436H172.154V15.1695C172.154 11.7053 171.717 9.7726 169.784 9.7726C167.888 9.73614 166.976 11.997 166.83 15.6436Z" fill="white"/>
</g>
<defs>
<clipPath id="clip0_3701_6395">
<rect width="176.202" height="26" fill="white"/>
</clipPath>
</defs>
</svg>
