<svg width="149" height="26" viewBox="0 0 149 26" fill="none" xmlns="http://www.w3.org/2000/svg">
<g clip-path="url(#clip0_4859_865)">
<path d="M0 21.303H6.71883V20.3262C5.66902 20.2797 5.56403 19.9076 5.56403 18.9773V0H4.51422L0 1.90703V2.5117L1.1548 3.48848V18.9773C1.1548 19.9076 1.10231 20.2797 0 20.3262V21.303Z" fill="#F0EEE6"/>
<path d="M13.9635 13.86V17.9996C13.9635 18.8834 13.3861 19.5811 12.5462 19.5811C11.6539 19.5811 11.234 18.9299 11.234 17.581C11.234 15.9531 11.7589 15.2554 12.8087 14.6042L13.9635 13.86ZM11.8114 8.41796C13.3336 8.41796 14.016 9.06914 14.016 10.6971V12.6506L11.3389 13.7204C8.39943 14.8833 7.13965 16.0461 7.13965 18.1857C7.13965 20.4183 8.81936 21.5811 11.024 21.5811C12.3363 21.5811 13.6485 20.8834 14.3309 19.7671C14.6459 20.8834 15.5907 21.5811 17.008 21.5811C18.2153 21.5811 19.3176 21.116 19.8425 20.5113V19.5346C19.6325 19.6276 19.4226 19.7206 19.2126 19.7206C18.7402 19.7206 18.5302 19.395 18.5302 18.5578V11.6274C18.5302 8.65052 16.5355 7.16211 12.6512 7.16211C9.60673 7.16211 7.61207 8.51099 7.61207 10.3715C7.61207 11.3948 8.39943 12.3716 9.81669 12.3716C11.0765 12.3716 11.7589 11.6274 11.7589 10.7436C11.7589 9.58079 10.6041 9.34822 10.6041 8.97612C10.4991 8.60401 11.0765 8.41796 11.8114 8.41796Z" fill="#F0EEE6"/>
<path d="M32.3346 1.86034H32.702C35.3791 1.86034 36.0614 3.11619 36.0614 6.13954C36.0614 9.16289 35.3791 10.0466 32.597 10.0466H32.2821V1.86034H32.3346ZM35.904 10.8374C39.5783 10.1862 41.258 8.46519 41.258 6C41.258 2.65107 38.686 0.604492 33.4369 0.604492H25.5107V1.58127C27.138 1.67429 27.2954 2.13942 27.2954 3.53481V18.3725C27.2954 19.7213 26.928 20.1865 25.5107 20.326V21.3028H34.0668V20.326C32.6495 20.233 32.2821 19.7213 32.2821 18.3725V11.3025H32.7545C33.8568 11.3025 34.7492 11.6746 35.0641 12.5583C35.5365 14.0002 35.5365 17.0701 36.1664 19.0702C36.7963 20.9307 38.3185 21.3958 40.2607 21.3958C41.783 21.3958 42.8328 20.9772 43.2527 20.7446L43.2002 19.7679C41.8879 20.0469 41.363 19.5818 40.7856 16.2794C40.2082 12.6979 38.8435 11.3955 35.904 10.8374Z" fill="#F0EEE6"/>
<path d="M46.1919 13.2553H54.1706V12.7902C54.1706 9.20868 51.966 7.16211 48.974 7.16211C45.4571 7.16211 42.7275 9.9994 42.7275 14.6042C42.7275 18.9764 45.3521 21.6276 48.9215 21.6276C51.546 21.6276 53.2782 20.4183 54.3281 18.0461L53.3307 17.4415C52.5959 18.5113 51.861 19.0694 50.6012 19.0694C48.5016 19.0694 47.0318 16.9763 47.0318 12.4646C47.0318 9.30171 47.7667 8.41796 48.7115 8.41796C49.4989 8.41796 50.1288 9.30171 50.1288 11.6274V12.046H46.1919V13.2553Z" fill="#F0EEE6"/>
<path d="M60.3128 11.2553C60.3128 10.1389 60.9952 9.34822 61.94 9.34822C63.2523 9.34822 63.6722 11.1157 63.6722 15.3019C63.6722 18.6973 63.4098 20.3718 61.8351 20.3718C60.7328 20.3718 60.2603 19.5811 60.2603 18.2322V11.2553H60.3128ZM54.6963 25.9999H61.5201V25.0231C60.3653 24.9766 60.3128 24.6045 60.3128 23.6742V21.3021C60.8902 21.4881 61.6251 21.6277 62.36 21.6277C66.0868 21.6277 68.4489 18.6508 68.4489 13.7204C68.4489 9.34822 66.5593 7.20862 63.9347 7.20862C62.36 7.20862 61.2052 7.90632 60.3128 9.02263V7.16211H59.263L54.7488 8.79006V9.39473L55.9036 10.3715V23.6742C55.9036 24.6045 55.8511 24.9766 54.6963 25.0231V25.9999Z" fill="#F0EEE6"/>
<path d="M74.2747 7.16211H73.2249L68.6582 8.09237V8.9296C69.6555 9.06914 69.813 9.72032 69.813 11.0227V17.0229C69.813 20.2323 71.3877 21.6276 73.6449 21.6276C75.1671 21.6276 76.3744 20.8834 77.1617 19.7206V21.3951H78.0541L82.6208 20.7904V19.8136C81.676 19.6276 81.571 19.395 81.571 17.9996V7.16211H80.5212L76.1644 8.09237V8.9296C77.0568 9.25519 77.1617 9.85986 77.1617 11.0227V17.6275C77.1617 18.6043 76.4794 19.395 75.482 19.395C74.5897 19.395 74.2223 18.8369 74.2223 17.9066V7.16211H74.2747Z" fill="#F0EEE6"/>
<path d="M88.1849 11.2562C88.1849 10.1398 88.8673 9.34912 89.8121 9.34912C91.1244 9.34912 91.5968 11.1166 91.5968 15.3028C91.5968 18.6982 91.3344 20.3727 89.7596 20.3727C88.6573 20.3727 88.1849 19.7215 88.1849 18.5587V11.2562ZM89.9171 21.6286C93.9064 21.6286 96.2685 18.6517 96.2685 13.7213C96.2685 9.34912 94.3788 7.20952 91.7018 7.20952C90.1796 7.20952 88.9723 7.90721 88.1324 9.02353V0H87.0826L82.5684 1.90703V2.5117L83.7232 3.48848V19.675C84.9305 20.7448 87.0826 21.6286 89.9171 21.6286Z" fill="#F0EEE6"/>
<path d="M101.781 11.2562C101.781 10.1398 102.463 9.34912 103.408 9.34912C104.72 9.34912 105.14 11.1166 105.14 15.3028C105.14 18.6982 104.878 20.3727 103.303 20.3727C102.201 20.3727 101.728 19.7215 101.728 18.5587V11.2562H101.781ZM103.566 21.6286C107.555 21.6286 109.917 18.6517 109.917 13.7213C109.917 9.34912 108.027 7.20952 105.35 7.20952C103.828 7.20952 102.621 7.90721 101.781 9.02353V0H100.731L96.2168 1.90703V2.5117L97.3716 3.48848V19.675C98.5789 20.7448 100.731 21.6286 103.566 21.6286Z" fill="#F0EEE6"/>
<path d="M110.441 21.303H117.16V20.3262C116.11 20.2797 116.005 19.9076 116.005 18.9773V0H114.956L110.441 1.90703V2.5117L111.596 3.48848V18.9773C111.596 19.9076 111.544 20.2797 110.441 20.3262V21.303Z" fill="#F0EEE6"/>
<path d="M118.63 3.11616C118.63 4.27899 119.733 5.25576 121.097 5.25576C122.41 5.25576 123.565 4.3255 123.565 3.11616C123.565 1.90682 122.462 0.976562 121.097 0.976562C119.733 0.976562 118.63 1.95334 118.63 3.11616ZM117.686 21.3027H124.404V20.326C123.355 20.2795 123.25 19.9074 123.25 18.9771V7.16279H122.2L117.686 8.79075V9.39541L118.84 10.3722V18.9771C118.84 19.9074 118.788 20.2795 117.686 20.326V21.3027Z" fill="#F0EEE6"/>
<path d="M131.385 8.41832C132.12 8.41832 132.645 8.65089 132.645 9.02299C132.645 9.3951 131.543 9.62766 131.543 10.7905C131.543 11.6742 132.12 12.4184 133.433 12.4184C134.85 12.4184 135.585 11.3952 135.585 10.3254C135.585 8.41832 133.8 7.20898 131.28 7.20898C127.606 7.20898 124.562 9.72069 124.562 14.8836C124.562 18.9303 127.029 21.6745 130.651 21.6745C133.275 21.6745 134.535 20.0931 135.375 18.1861L133.905 17.4884C133.223 18.8838 132.645 19.628 131.49 19.628C129.653 19.628 128.866 17.4884 128.866 13.0696C128.866 9.30207 129.916 8.41832 131.385 8.41832Z" fill="#F0EEE6"/>
<path d="M142.933 13.86V17.9996C142.933 18.8834 142.356 19.5811 141.516 19.5811C140.623 19.5811 140.203 18.9299 140.203 17.581C140.203 15.9531 140.728 15.2554 141.778 14.6042L142.933 13.86ZM140.728 8.41796C142.251 8.41796 142.933 9.06914 142.933 10.6971V12.6506L140.256 13.7204C137.316 14.8833 136.057 16.0461 136.057 18.1857C136.057 20.4183 137.736 21.5811 139.941 21.5811C141.253 21.5811 142.566 20.8834 143.248 19.7671C143.563 20.8834 144.508 21.5811 145.925 21.5811C147.132 21.5811 148.235 21.116 148.759 20.5113V19.5346C148.55 19.6276 148.34 19.7206 148.13 19.7206C147.657 19.7206 147.447 19.395 147.447 18.5578V11.6274C147.447 8.65052 145.453 7.16211 141.568 7.16211C138.524 7.16211 136.529 8.51099 136.529 10.3715C136.529 11.3948 137.316 12.3716 138.734 12.3716C139.993 12.3716 140.676 11.6274 140.676 10.7436C140.676 9.58079 139.521 9.34822 139.521 8.97612C139.416 8.60401 139.993 8.41796 140.728 8.41796Z" fill="#F0EEE6"/>
</g>
<defs>
<clipPath id="clip0_4859_865">
<rect width="148.76" height="26" fill="white"/>
</clipPath>
</defs>
</svg>
