<svg width="150" height="22" viewBox="0 0 150 22" fill="none" xmlns="http://www.w3.org/2000/svg">
<g clip-path="url(#clip0_4603_1063)">
<path d="M13.669 2.74626L14.6564 1.08006H14.9649V6.51063H14.533C14.1935 2.62284 11.756 1.38861 9.25666 1.38861C5.554 1.38861 4.01122 4.1039 4.01122 9.81218V13.0829C4.01122 18.7911 5.24544 21.5681 8.94811 21.5681C11.8794 21.5681 12.6816 19.9019 12.6816 15.9216V13.5457C12.6816 13.1754 12.4656 13.0212 12.1262 13.0212H10.9537V12.62H17.7419V13.0212H16.878C16.5077 13.0212 16.3226 13.1446 16.3226 13.484V14.9651C16.3226 18.8528 12.805 22.0001 8.82468 22.0001C4.28892 22.0001 0 17.2175 0 11.4475C0 5.70839 4.38149 0.925781 9.19495 0.925781C11.0771 0.925781 12.6508 1.57375 13.669 2.74626Z" fill="#F3F2EF"/>
<path d="M19.469 8.73214H18.2656V8.33102H19.8701C22.0917 8.33102 22.6163 8.02246 22.8631 8.02246C23.1099 8.02246 23.2334 8.14588 23.2334 8.39273V11.0772C23.5728 9.6578 24.5293 8.05332 26.3189 8.05332C27.6766 8.05332 28.4788 8.91727 28.4788 9.96636C28.4788 10.892 27.8 11.5091 26.936 11.5091C26.0412 11.5091 25.3624 10.892 25.3624 9.90465C25.3624 9.34925 25.671 9.04069 25.671 8.88642C25.671 8.79385 25.6092 8.73214 25.4858 8.73214C24.4676 8.73214 23.2334 10.8612 23.2334 13.5765V20.9201C23.2334 21.1669 23.3876 21.3212 23.6345 21.3212H24.807V21.7223H18.2656V21.3212H19.469C19.7158 21.3212 19.8701 21.1361 19.8701 20.9201V9.13326C19.8701 8.88642 19.7158 8.73214 19.469 8.73214Z" fill="#F3F2EF"/>
<path d="M32.5523 13.8546V15.8293C32.5523 19.1926 33.2928 21.5067 35.7613 21.5067C37.7052 21.5067 39.2788 20.1799 40.081 17.5881L40.4822 17.7115C39.6799 20.2108 38.0137 22.0004 35.3601 22.0004C31.966 22.0004 29.0039 18.8223 29.0039 15.0271C29.0039 11.1701 31.966 8.05371 35.0207 8.05371C37.8903 8.05371 40.4822 10.6764 40.4822 13.4226C40.4822 13.7311 40.3587 13.8237 40.081 13.8237H32.5523V13.8546ZM32.5523 13.4534H37.0572V13.0523C37.0572 10.121 36.6869 8.48569 35.0516 8.48569C33.4471 8.48569 32.6757 10.3679 32.5523 13.4534Z" fill="#F3F2EF"/>
<path d="M45.3882 13.8546V15.8293C45.3882 19.1926 46.1288 21.5067 48.5972 21.5067C50.5411 21.5067 52.1147 20.1799 52.917 17.5881L53.3181 17.7115C52.5159 20.2108 50.8497 22.0004 48.1961 22.0004C44.802 22.0004 41.8398 18.8223 41.8398 15.0271C41.8398 11.1701 44.802 8.05371 47.8567 8.05371C50.7262 8.05371 53.3181 10.6764 53.3181 13.4226C53.3181 13.7311 53.1947 13.8237 52.917 13.8237H45.3882V13.8546ZM45.3882 13.4534H49.8931V13.0523C49.8931 10.121 49.5229 8.48569 47.8875 8.48569C46.283 8.48569 45.5117 10.3679 45.3882 13.4534Z" fill="#F3F2EF"/>
<path d="M55.4174 8.73214H54.2141V8.33102H55.8185C58.0401 8.33102 58.5647 8.02246 58.8115 8.02246C59.0584 8.02246 59.1818 8.14588 59.1818 8.39273V10.7995C59.5829 9.59609 60.9097 8.05332 63.3781 8.05332C65.9392 8.05332 67.4202 9.71952 67.4202 12.0337V20.9201C67.4202 21.1669 67.5745 21.3212 67.8213 21.3212H68.9939V21.7223H62.3291V21.3212H63.625C63.8718 21.3212 64.0261 21.1361 64.0261 20.9201V12.1571C64.0261 9.96636 63.9335 8.70128 62.3291 8.70128C60.6011 8.70128 59.1509 10.6452 59.1509 12.6816V20.8892C59.1509 21.1361 59.3052 21.2903 59.5521 21.2903H60.7863V21.6915H54.1523V21.2903H55.3557C55.6026 21.2903 55.7568 21.1052 55.7568 20.8892V9.13326C55.8185 8.88642 55.6643 8.73214 55.4174 8.73214Z" fill="#F3F2EF"/>
<path d="M78.9588 8.51658C79.2674 8.42402 79.5142 8.39316 79.7919 8.39316C80.7485 8.39316 81.4273 8.82514 81.4273 9.50396C81.4273 10.0594 81.0262 10.3988 80.4399 10.3988C79.7302 10.3988 79.1131 9.90508 78.6503 9.16455C77.4469 9.93594 76.367 11.7564 76.367 13.9163C76.367 17.0327 78.2183 20.1183 83.0935 20.1183C87.9378 20.1183 90.1594 16.2922 90.1594 12.7129C90.1594 9.50396 88.0921 8.70172 86.4876 8.70172C84.7288 8.70172 83.8649 9.75081 83.8649 11.0159C83.8649 12.1884 84.7905 12.8672 85.4076 12.8672C85.1608 12.0033 85.5002 10.7999 86.6419 10.7999C87.3515 10.7999 87.8761 11.2936 87.8761 11.9724C87.8761 12.9289 87.1973 13.6077 85.9939 13.6077C84.5437 13.6077 83.402 12.5587 83.402 10.985C83.402 9.25712 84.7288 7.56006 87.043 7.56006C88.3081 7.56006 89.9126 8.11546 91.2085 8.11546C92.9981 8.11546 93.9238 6.97381 93.9238 5.5236C93.9238 4.01168 93.3067 3.36371 92.597 2.96259C92.4119 4.07339 91.8565 4.65964 91.0542 4.65964C90.3445 4.65964 89.82 4.1351 89.82 3.42542C89.82 2.71574 90.4062 2.16034 91.2085 2.16034C92.7513 2.16034 95.1271 3.79569 95.1271 5.98643C95.1271 8.23888 93.7386 9.59653 91.5479 9.59653C90.9308 9.59653 90.0051 9.44225 89.1412 9.10284C90.3137 9.99765 91.0234 11.8798 91.0234 13.4843C91.0234 17.4647 88.4315 21.9079 82.4764 21.9079C77.6938 21.9387 74.6699 18.6989 74.6699 14.8111C74.6699 11.3861 76.4904 9.47311 78.4034 8.67086C78.1566 8.11546 78.0332 7.40579 78.0332 6.69611C78.0332 4.1351 79.6377 2.09863 82.3221 2.09863C84.482 2.09863 85.8396 3.11687 85.8396 4.84478C85.8396 5.98643 85.2534 6.66525 84.3586 7.00466L84.266 6.88124C84.6671 6.60354 84.914 6.26413 84.914 5.49274C84.914 4.4128 84.0809 3.33285 82.1678 3.33285C80.3782 3.33285 78.7737 4.87563 78.7737 7.31322C78.8046 7.68349 78.8663 8.14632 78.9588 8.51658Z" fill="#F3F2EF"/>
<path d="M99.5098 21.1055H100.651C101.022 21.1055 101.176 20.8895 101.176 20.581V1.94422C101.176 1.60481 100.991 1.41968 100.651 1.41968H99.5098V1.01855H106.73C110.803 1.01855 113.58 3.24015 113.58 6.07886C113.58 8.36217 111.574 10.3369 108.458 10.8306C112.13 11.17 114.506 13.2682 114.506 15.9526C114.506 18.9148 111.605 21.5066 107.316 21.5066H99.5098V21.1055ZM104.817 10.6146H106.761C109.198 10.6146 110.032 9.16442 110.032 6.264V5.67774C110.032 2.80818 109.044 1.45053 106.699 1.45053H105.372C105.002 1.45053 104.817 1.66652 104.817 2.00593V10.6146ZM105.372 21.0747H107.316C109.939 21.0747 110.834 19.4702 110.834 16.1995V15.5824C110.834 12.5277 109.97 11.0775 107.378 11.0775H104.817V20.5501C104.817 20.8587 105.033 21.0747 105.372 21.0747Z" fill="#F3F2EF"/>
<path d="M116.82 0.678822H115.617V0.308555H117.221C119.443 0.308555 119.967 0 120.214 0C120.461 0 120.585 0.123422 120.585 0.370266V20.7041C120.585 20.9509 120.739 21.1052 120.986 21.1052H122.22V21.5063H115.586V21.1052H116.789C117.036 21.1052 117.19 20.9201 117.19 20.7041V1.07994C117.19 0.833099 117.036 0.678822 116.82 0.678822Z" fill="#F3F2EF"/>
<path d="M135.58 21.1054H136.783V21.5065H135.179C132.926 21.5065 132.433 21.7225 132.186 21.7225C131.939 21.7225 131.816 21.5991 131.816 21.3523V19.0381C131.445 20.1797 130.273 21.7842 127.835 21.7842C125.336 21.7842 123.855 20.118 123.855 17.773V8.91748C123.855 8.67063 123.67 8.51636 123.454 8.51636H122.281V8.11523H126.724C127.095 8.11523 127.218 8.26951 127.218 8.60892V17.9581C127.218 20.3957 127.65 21.1054 128.853 21.1054C130.52 21.1054 131.816 19.1615 131.816 17.1251V8.91748C131.816 8.67063 131.63 8.51636 131.414 8.51636H130.242V8.11523H134.685C135.055 8.11523 135.179 8.26951 135.179 8.60892V20.6734C135.21 20.9511 135.364 21.1054 135.58 21.1054Z" fill="#F3F2EF"/>
<path d="M141.166 13.6378V15.6125C141.166 18.9758 141.906 21.2899 144.375 21.2899C146.318 21.2899 147.892 19.9631 148.694 17.3713L149.095 17.4947C148.293 19.994 146.627 21.7836 143.973 21.7836C140.579 21.7836 137.617 18.6055 137.617 14.8103C137.617 10.9533 140.579 7.83691 143.634 7.83691C146.504 7.83691 149.095 10.4596 149.095 13.2058C149.095 13.5143 148.972 13.6069 148.694 13.6069H141.166V13.6378ZM141.166 13.2366H145.67V12.8355C145.67 9.90424 145.3 8.26889 143.665 8.26889C142.06 8.23804 141.289 10.1511 141.166 13.2366Z" fill="#F3F2EF"/>
</g>
<defs>
<clipPath id="clip0_4603_1063">
<rect width="149.094" height="22" fill="white"/>
</clipPath>
</defs>
</svg>
