<svg width="1485" height="994" viewBox="0 0 1485 994" fill="none" xmlns="http://www.w3.org/2000/svg">
<circle cx="542.091" cy="233.957" r="10.0954" fill="white"/>
<path d="M743.038 923.373L742.766 923.1L742.518 923.174L742.096 923.273L741.699 923.918L741.625 924.067L741.774 924.265L741.922 924.216L742.567 924.365L743.063 924.166L743.113 924.017L743.014 923.819V923.373H743.038Z" stroke="white"/>
<path d="M736.987 577.877L746.486 578.944L747.453 575.62L750.28 571.752L749.487 562.451L740.311 568.602L736.194 568.676L736.888 577.629L736.987 577.877V577.877Z" stroke="white"/>
<path d="M357.217 733.674L362.375 738.014L360.838 742.131L363.119 746.67L366.145 769.312L362.673 777.621L360.243 792.451L369.617 808.621L371.452 815.466L372.593 834.488L371.13 844.135L374.652 859.239L373.982 886.395L373.312 889.818L355.853 915.387L356.076 921.86L353.968 928.234L355.134 938.005L353.596 941.601L355.382 947.082L355.158 956.085L354.464 959.433L350.868 961.938L352.951 965.658L350.62 969.08L348.636 972.478L342.709 970.494V972.503L339.286 974.388L340.129 979.596L344.023 974.487L350.347 976.768L347.247 982.249L338.393 987.085L339.782 989.317L337.773 992.318L340.229 993.211L339.782 995.964L337.476 997.229L338.989 998.27L331.945 1001.94L332.466 1006.21L331.102 1007.57L331.871 1008.46L337.352 1004.37L336.608 1006.83L331.697 1014.81L326.464 1015.21L323.563 1010.47L315.478 1010.17L318.702 1001.99L312.477 1001.72L308.608 999.634L306.773 998.866L301.465 996.733L298.589 993.583L293.43 994.154L289.685 989.565L287.825 988.201L283.584 989.293L284.973 984.357L280.906 984.853L276.516 982.845L275.896 981.059L274.879 976.719L276.863 975.925L276.963 970.494L278.773 968.311L280.633 970.37L284.725 967.195L287.379 967.443L288.569 963.351L292.81 961.665L292.537 959.929L283.51 958.937L279.666 956.035L275.797 958.49L274.929 951.472L266.298 954.795L266.001 951.819L260.173 951.621L260.396 949.984L263.446 950.554L269.299 945.52L269.969 942.048L271.655 939.518H274.532L276.045 935.996L276.64 932.946L275.375 927.44L278.5 925.307L275.871 920.645L273.54 921.067L270.961 921.414L267.811 923.15L257.99 922.778L253.65 925.58L255.609 918.562L251.74 913.428L258.833 912.833L261.462 910.402L259.627 907.6L260.346 905.368L271.432 899.019L270.217 896.316L267.861 896.663L265.43 888.305L260.247 890.314L258.61 886.743L254.245 884.461L250.252 885.602L251.889 882.973L250.798 881.584L247.301 882.601L247.698 878.186L250.748 876.897L250.252 872.334L248.368 872.458L246.508 868.688L245.069 866.902L264.761 861.893L260.371 855.792L257.792 856.337L255.957 854.08L253.253 855.246L252.41 852.94L256.254 850.708L254.766 847.806L251.641 847.136L247.425 850.732L247.326 845.921L245.466 844.582L246.012 842.623L248.789 844.383L249.732 841.978L253.873 841.407L253.452 836.274L259.776 836.447L261.437 831.388L262.925 827.246L258.957 825.585L261.239 819.211L266.819 815.739L268.382 812.168L267.811 809.836L266.298 809.96L268.778 807.356L269.002 811.374L272.523 809.638L273.069 811.771L276.814 812.713L279.591 806.538L278.5 804.331L286.759 803.314L288.272 799.743L292.388 799.792L293.852 797.932L305.607 797.684L311.361 794.237L312.626 788.954L314.61 785.011L319.545 782.109L324.951 781.241L328.87 783.3L331.896 781.465L333.21 784.044L336.459 784.49L337.897 787.318L339.881 791.782L341.642 791.558L347.495 781.341L347.197 771.172L342.981 764.575L346.9 758.921L344.569 753.018L349.578 748.877L348.016 747.934L349.281 745.256L346.925 736.774L349.107 734.492L357.217 733.674V733.674Z" stroke="white"/>
<path d="M928.968 754.457L932.341 770.181L937.896 783.846L953.446 811.573L970.831 830.694L991.267 845.946L993.424 851.725L1002.53 860.479L1003.34 863.827L1017.13 873.004L1029.93 877.542L1030.45 889.57L1038.96 895.597L1036.06 900.185L1038.31 902.268L1031.27 907.129L1025.57 914.172L1023.53 921.861L1017.68 925.977L1013.41 935.228L1001.61 947.951L996.549 947.033L998.508 945.446L995.855 934.806L993.127 932.153L987.075 928.135L984.471 931.409L983.058 930.863L980.627 925.432L977.552 925.754L975.221 922.629L968.004 928.532L964.457 934.038L958.951 934.41L957.91 936.642L961.01 945.446L964.78 947.653L963.738 950.208L961.63 949.885L961.01 947.38L959.348 950.456L954.413 950.58L952.851 957.127L950.891 951.993L948.015 952.216L945.857 958.168L942.558 958.292L941.864 961.913L937.226 959.483L932.018 960.773L925.843 952.663L920.982 953.134L915.03 949.637L912.475 951.249L909.177 950.257L904.837 942.048L901.563 943.859L898.91 940.932L894.495 939.717L891.866 944.9L881.822 948.248L878.152 945.942L876.341 941.453L871.778 940.387L868.107 936.84L863.817 935.104L860.345 938.477L857.865 929.474L861.039 923.795L858.559 920.298L856.054 920.745L851.144 915.09L848.912 916.008L829.939 904.872L824.905 903.087L824.855 906.162L818.953 904.575L815.456 898.995L815.828 886.793L817.762 887.686L822.921 883.271L823.045 877.344L827.335 877.021L843.604 885.776L846.68 883.866L850.871 885.404L853.525 879.873L857.245 879.154L855.93 877.393L860.469 876.575L855.682 873.549L854.938 869.507L848.912 867.423L842.513 861.124L840.901 852.99L831.626 846.839L836.784 841.061L826.889 831.785L834.776 825.783L834.528 819.881L832.047 815.268L834.602 813.83L836.487 806.985L843.307 809.564L844.82 807.754H848.168L849.606 810.184L853.326 808.274L858.931 809.043L862.279 806.142L864.164 797.635L859.229 796.073L856.377 792.675L857.716 788.508L861.833 789.699L866.495 786.4L867.909 787.541L869.397 781.663L875.275 780.696L876.019 774.521L879.342 770.826L879.937 767.254L885.096 770.057L890.973 767.304L892.635 769.635L895.983 769.214L900.968 766.882L902.109 761.401L903.795 760.459L910.69 760.013L915.923 756.516L928.298 753.862L928.968 754.457V754.457Z" stroke="white"/>
<path d="M967.83 1150.12L972.815 1150.72L971.104 1153L963.837 1154.02L964.16 1149.98L967.83 1150.12V1150.12ZM922.421 1116.72L933.358 1119.69L934.672 1121.6L932.961 1126.74L925.967 1126.81L925.198 1128.3L920.288 1125.72L920.189 1121.08L922.421 1116.72V1116.72ZM936.309 998.494L940.079 1000.4L939.384 1004.17L944.493 1010.25L949.825 1009.06L953.049 1011.19L952.38 1005.19L948.982 1001.05L954.438 991.054L960.117 995.791L961.085 992.369L969.641 992.517L970.162 994.625H974.551L975.221 997.18L980.255 999.883L1000.12 1005.69L1001.06 1009.63L1004.01 1011.89L1012.3 1010.6L1015.32 1014.96L1020.75 1010.13L1023.36 1009.98L1023.26 1007.65L1028.15 1007.05L1030.48 1008.89L1035.14 1007.45L1039.4 1000.28L1049.35 1004.5L1053.24 1000.55L1059.82 1000.01L1067.21 994.799L1071.69 1001.84L1078.79 1003.83L1079.26 1005.81L1077.23 1007.74L1078.56 1010.72L1075.94 1011.17L1073.85 1014.07L1075.39 1020.57L1082.76 1023.2L1083.28 1028.58L1091.76 1028.23L1094.34 1031.9L1098.36 1031.11L1101.48 1034.65L1097.49 1037.18L1099.6 1043.09L1094.59 1046.06L1092.58 1051L1096.47 1052.91L1098.28 1057.59L1103.27 1061.17L1105.99 1058.93L1113.01 1061.88L1117.23 1058.69L1122.44 1063.15L1126.33 1062.8L1135.26 1067.27L1138.66 1077.11L1133.05 1091.67L1125.71 1094.87L1126.28 1097.75L1124.69 1098.61L1112.81 1095.91L1111.72 1097.57L1114.25 1098.84L1113.95 1104.17L1108.75 1104.54L1113.86 1107.69L1113.31 1110.59L1115.37 1110.77L1114.95 1122.79L1129.65 1132.34L1129.5 1134.35L1125.39 1136.83L1123.58 1141.84L1134.37 1148.36L1132.65 1150.4L1136 1158.36L1134.22 1161.04L1139.57 1165.28L1140.79 1169.57L1145.9 1172.12L1149.87 1177.43L1155.07 1179.31L1155.2 1185.66L1159.29 1189.41L1159.64 1192.68L1166.9 1194.79L1168.42 1197.64L1168.52 1201.19L1166.21 1203.25L1167.5 1206.3L1158.89 1209.94L1159.24 1212.42L1155.25 1216.52L1156.04 1223.73L1152.17 1228.99L1149.2 1229.83L1152.35 1233.23L1148.13 1235.74L1146 1230.87L1139.1 1229.93L1130.22 1232.26L1119.71 1244.34L1111.3 1242.93L1106.27 1238.02L1100.79 1239.38L1100.31 1237.82L1102.45 1236.21L1100.74 1230.68L1092.53 1222.79L1088.86 1222.24L1082.63 1214.73L1071.03 1214.88L1064.45 1206.69L1055.33 1203.87L1053.79 1201.24L1058.7 1197.52L1058.95 1187.57L1065.42 1183.85V1176.56L1050.44 1145.41L1037.22 1131.52L1030.45 1132.57L1027.08 1137.85L1018.8 1135.44L1012.07 1141.39L1006.25 1142.41L1000.22 1139.11L980.231 1148.71L982.165 1138.54L990.002 1136.98L991.068 1133.33L999.947 1127.23L997.268 1119.37L989.58 1116.94L980.801 1107.29L973.956 1102.73L967.384 1105.48L962.821 1111.39L959.175 1110.84L961.109 1109.9L959.349 1107.37L951.04 1104.99L948.312 1106.92L950.42 1113.59L944.84 1111.71V1100.5L942.038 1090.75L935.466 1080.26L935.317 1079.89L929.34 1073.44L925.868 1061.46L917.039 1047.03L909.128 1039.07L910.492 1035.79L917.932 1034.36L919.172 1032.45L917.56 1031.85L917.808 1029.3L925.521 1026.54L922.966 1015.46L925 1011.74L921.726 1006.23L927.058 1005.31L934.622 998.445L936.309 998.494V998.494Z" stroke="white"/>
<path d="M780.264 566.345L777.363 574.009L777.933 584.251L771.683 586.706L770.344 591.915L763.102 591.022L763.574 588.443L761.59 587.674L759.878 581.449L753.133 584.251V578.944L747.503 575.67L750.305 571.801L749.512 562.501L740.336 568.652L736.219 568.751L736.913 577.679L739.914 583.185H735.896L735.053 581.126L730.118 583.086L727.613 591.691L721.165 596.875L720.669 602.256L720.57 602.182L716.502 604.389L711.468 603.472L709.409 608.357L705.565 602.628L701.994 604.612L698.497 604.216L694.231 606.448L691.479 603.298L689.197 603.918L685.576 601.686L682.947 602.728L678.905 600.124L678.384 597.718L675.036 597.271L673.746 594.072L662.189 593.551L657.229 587.574L648.351 582.614L649.02 575.025L644.507 572L645.325 567.957L639.943 562.799L640.563 559.947L642.225 560.17L641.729 557.467L645.895 555.879L646.962 550.944L651.996 545.513L652.839 538.842L639.274 541.57L632.701 540.677L636.298 535.469L635.826 532.889L629.378 531.575L626.824 534.055L623.848 533.41L619.557 528.525L616.11 527.582L615.267 522.275L611.968 519.299L605.867 525.226L599.692 525.871L599.196 528.525L593.542 533.658L583.646 534.005L583.373 536.337L590.64 540.553L591.26 543.231L584.961 543.628L577.297 541.421L569.014 545.017L562.169 544.223L558.325 541.371L559.862 538.792L558.87 536.535L546.817 550.076L545.181 549.332L545.974 546.976L544.288 544.719L538.633 543.479L526.307 533.485L512.494 533.162L510.013 536.213L510.187 539.561L506.045 540.602L497.564 533.038L496.968 529.194L492.653 525.226L492.777 521.804L489.752 520.142L485.61 520.861L478.294 513.322L474.326 513.247L468.894 510.197L462.992 513.148L449.029 498.392L442.978 499.657L432.363 492.365L429.561 489.241L430.9 482.743L428.296 482.222L427.056 479.147L421.029 476.989L407.761 478.452L399.304 491.77L390.376 496.953L386.854 488.72L380.158 483.784L377.554 485.396L374.057 483.239L373.189 485.62L366.295 486.289L363.963 489.092L363.319 486.19L359.227 487.157L363.046 475.972L366.319 475.451L367.51 466.97L365.377 461.786L357.367 459.034L355.407 454.743L349.356 459.182L341.544 452.858L340.453 455.462L335.244 454.594L336.088 452.511L334.624 450.949L329.02 452.04L328.945 439.441L330.16 439.912L334.5 439.64L333.707 434.63L336.956 440.855L344.966 438.747L343.205 435.3L345.413 432.72L345.041 429.695L340.725 427.388L339.981 424.66L349.53 415.038L346.876 406.977L344.47 404.944L342.66 405.936L338.32 401.943L341.42 397.876L339.932 395.346L344.049 394.304L347.446 384.26L351.514 379.92L351.216 374.514L356.3 369.95L356.027 368.289L359.078 368.735L359.871 366.726L366.915 364.941L370.808 369.553L373.611 366.999L372.048 360.228L373.859 359.931L377.827 365.238L381.001 363.899L382.613 359.162L384.895 362.262L384.523 368.462L394.89 372.902L398.907 369.38L400.147 366.875L398.287 364.172L400.445 363.502L402.503 367.321L407.091 369.677L408.009 374.29L410.316 366.329L412.796 366.404L415.3 370.074L417.483 369.107L417.979 366.23L415.176 362.287L419.641 358.666L421.451 360.179L420.509 365.61L427.651 360.129L429.858 360.352L434.521 366.429L433.43 370.124L437.199 373.174L437.373 376.2L441.068 375.332L443.052 379.647L451.311 375.778L452.625 378.085L458.131 377.936L465.571 383.814L469.539 383.913L476.558 389.543L482.634 386.219L486.279 393.461L497.613 398.992L507.385 398.57L510.981 396.487L518.074 386.269L519.19 390.287L523.654 385.153L526.059 392.891L536.996 394.676L538.856 396.636L541.039 396.239L541.237 398.099L544.561 397.677L544.065 399.116L547.685 396.884L551.034 397.429L551.604 394.577L557.358 391.626L565.095 392.271L567.402 390.311L573.974 391.899L577 395.743L578.364 394.131L588.011 393.362L588.904 391.725L592.574 394.329L596.716 390.386L612.167 392.667L612.564 396.363L626.7 395.445L631.908 398.942L632.974 402.96L634.735 403.58L637.81 403.282L642.82 398.57L650.731 396.363L652.567 390.857L659.808 387.484L675.358 387.683L680.839 385.748L697.456 388.402L703.135 396.04L706.805 393.635L708.814 396.239L714.146 396.66L717.767 393.461H720.446L722.504 396.115L720.942 399.19L721.76 406.357L723.347 408.713L728.283 409.978L729.771 415.385L728.159 415.806L725.207 411.243L722.256 410.35L717.966 416.005L721.09 414.765L716.974 425.603L715.51 437.953L716.701 446.162L721.562 455.661L721.289 477.584L725.678 489.389L726.199 497.797L731.283 515.529L735.648 524.284L752.289 543.678L758.539 547.869L773.345 563.816L780.264 566.345V566.345ZM707.301 594.395L706.632 597.197L710.029 601.14L715.436 598.363L714.692 595.635L714.171 594.469L707.301 594.395V594.395Z" stroke="white"/>
<path d="M786.043 85.4638L790.829 87.0511V90.5975L792.565 91.5152L802.758 90.7711L818.01 93.7224L822.822 92.3832L833.164 94.9128L842.241 101.758L846.457 99.9969L852.781 101.758L855.707 98.5833L859.006 98.9553L859.278 96.6985L863.842 97.9881L863.594 99.9721L865.975 100.741L875.647 99.0049L877.556 102.576L883.037 101.758L884.525 104.287L890.477 103.568L902.828 107.462L899.108 122.59L894.396 120.978L887.154 122.813L883.757 129.881L871.654 136.726L867.76 136.9L867.81 143.522L859.477 148.68L865.603 160.014L864.164 164.255L868.703 163.809L868.529 161.527L873.018 161.676L875.473 163.437L879.02 162.841L882.963 165.445L884.55 169.116L892.486 167.876L896.008 169.885L893.454 177.87L884.6 186.427L875.25 192.354L875.994 197.984L872.1 201.976L879.664 209.045L883.732 208.474L887.03 204.779L893.429 205.622L892.734 214.253L884.947 229.282L887.526 237.367L890.825 239.574L896.727 238.632L906.598 246.989L912.848 248.651L921.776 264.25L928.695 269.285L918.477 278.412L913.12 278.759L906.995 275.535L903.275 276.452L903.051 274.146L904.986 273.104L911.707 275.212L914.708 272.831L911.161 272.955L910.02 269.087L907.515 269.632L906.052 267.995L909.103 265.664L907.317 260.555L892.065 244.212L885.865 242.401L883.062 243.319L881.673 241.335L878.276 245.005L877.804 249.122L882.169 252.644L873.836 256.662L871.852 255.992L866.595 261.101L860.593 261.671L847.87 254.826L843.307 254.082H842.538L842.315 253.909L831.824 256.686L824.682 267.648L822.028 266.16L822.326 264.647L819.895 264.945L820.317 261.671L817.812 259.687L818.73 257.703L816.77 257.207L815.357 250.585L812.951 252.346L813.819 249.445L812.207 246.221L813.422 245.576L808.388 240.789L811.091 239.202L809.057 238.359L809.504 236.325L808.537 235.408L808.636 234.639L807.197 230.72L805.734 231.315L806.85 234.837L803.006 236.077L801.791 233.374L798.021 235.705L794.921 232.878L795.913 230.15L794.326 229.976L788.944 232.679L787.58 235.259L786.018 233.448L787.084 230.968L784.282 228.885L779.371 234.093L777.71 232.431L768.087 241.335L767.963 237.317L765.186 236.028L764.888 233.82L761.813 232.183L760.126 236.176L755.166 233.572L755.712 230.596L752.264 227.471L749.14 216.237H745.469L742.89 212.467L739.343 212.368L739.294 203.762L737.533 197.314L735.251 195.33L739.641 188.361L746.833 183.5L747.949 174.622L741.947 169.785L741.203 164.503L736.665 164.751L736.02 160.832L730.862 160.882L725.604 153.814L730.068 149.151L729.969 144.216L732.548 142.133L737.285 142.803L738.103 137.793L742.642 135.486L742.195 133.998L743.683 134.668L742.89 131.246L747.85 126.881L748.544 122.541L752.215 117.481L753.232 118.548L757.125 115.448L761.713 117.407L764.293 115.448L768.806 117.382L767.839 113.067L764.789 111.083L765.086 108.751L773.667 103.345L779.991 103.196L777.809 100.319L779.545 94.6896L777.139 90.5727L777.61 86.1086L781.703 83.8518L786.043 85.4638V85.4638Z" stroke="white"/>
<path d="M807.693 1090.75L807.073 1094.03L808.487 1094.5L806.007 1097.35L805.56 1090.36L811.116 1087.85L807.693 1090.75ZM935.688 993.187L938.193 995.295L936.308 998.519L934.448 998.445L926.909 1005.31L921.577 1006.23L924.851 1011.74L922.842 1015.46L925.396 1026.54L917.683 1029.32L917.435 1031.88L919.047 1032.47L917.807 1034.38L910.367 1035.82L909.003 1039.09L902.034 1034.08L899.009 1035.57L892.04 1032.72L884.723 1036.84L884.996 1040.46L887.228 1041.94L882.169 1042.12L859.997 1029.2L849.234 1026.62L845.167 1029.1L839.413 1028.8L832.171 1031.11L823.962 1038.92L817.985 1038.45L810.719 1021.76L801.642 1012.11L792.714 1007.17L784.356 1006.33L782.347 1007.89L770.393 999.883L766.177 1000.58L765.83 1002.34L763.672 1001.42L755.438 986.888L737.88 965.931L728.753 958.194L713.352 951.175L711.046 936.543L703.283 922.282L691.304 915.264L688.08 910.453L681.731 908.022L680.318 905.021L674.514 901.351L663.925 902.913L659.783 893.266L652.244 883.321L651.797 878.658L646.54 868.069L640.959 860.232L627.468 849.245L614.745 843.169L619.358 832.877L636.223 832.678L635.999 824.172L629.08 819.435L632.478 814.624L631.362 810.259L632.899 809.44L635.727 812.044L637.388 809.837L639.397 810.407L643.712 808.225L644.233 805.547L647.953 802.794L651.152 803.414L653.409 798.106L656.807 798.578L660.279 796.296L660.081 793.618L657.477 792.427L656.46 785.929H659.51L662.09 780.101L652.715 772.76L655.592 766.709L658.593 767.875L660.329 771.148L661.593 766.163L665.636 763.51L671.787 763.857L675.804 773.504L682.699 777.968L680.194 782.879L675.606 785.458L678.805 790.691L689.072 797.04L698.199 793.791L700.704 796.445L701.001 794.585L702.663 795.13L706.086 792.179L710.128 793.866L714.27 798.974L715.634 810.06L719.775 811.995L719.255 816.856L721.834 818.964L719.974 820.625L723.743 822.609L722.032 823.75L726.67 823.229L729.72 826.354L734.68 822.337L738.326 822.733L737.706 827.346L739.541 829.033L737.855 829.603V834.712L743.509 836.696L741.104 840.218L750.131 838.928L750.007 843.095L752.165 845.575L762.903 837.242L763.449 827.619L766.4 827.421L768.608 832.034L771.608 831.909L779.024 827.024L775.626 821.965L783.215 819.782L783.637 816.484L788.721 816.732L793.309 812.689L798.492 811.027L796.955 804.703L798.393 801.802L803.403 804.257L805.387 801.851L813.447 801.951L815.208 798.156L820.317 800.834L827.261 796.569L827.385 794.634L831.402 796.222L834.701 793.047L836.561 782.011L844.695 783.97L846.035 781.068L848.738 780.821L857.865 788.657L856.525 792.849L859.377 796.222L864.313 797.784L862.428 806.315L859.08 809.217L853.475 808.423L849.755 810.333L848.316 807.927H844.968L843.455 809.713L836.635 807.159L834.75 814.004L832.196 815.417L834.676 820.03L834.924 825.933L827.037 831.934L836.933 841.21L831.75 847.013L841.025 853.139L842.637 861.298L849.036 867.597L855.037 869.656L855.781 873.698L860.593 876.724L856.054 877.542L857.344 879.278L853.648 879.998L850.995 885.528L846.803 883.99L843.728 885.9L827.459 877.146L823.169 877.468L823.045 883.42L817.886 887.835L815.976 886.942L815.604 899.144L819.077 904.724L825.004 906.311L825.053 903.236L830.088 905.021L849.06 916.157L851.268 915.239L856.178 920.894L858.708 920.422L861.188 923.919L858.013 929.599L860.493 938.601L863.965 935.228L868.256 936.964L871.926 940.511L876.49 941.577L878.325 946.066L881.995 948.373L892.04 945L894.693 939.816L899.083 941.032L901.737 943.958L905.035 942.148L909.375 950.357L912.674 951.349L915.203 949.712L921.155 953.233L926.016 952.762L932.216 960.872L937.152 965.138L940.624 974.041L940.872 977.439L939.185 979.026L942.583 982.771L942.037 985.127L939.929 985.573L942.955 988.202L935.688 993.187V993.187ZM743.113 924.018L743.013 923.82V923.374L742.765 923.101L742.542 923.175L742.121 923.274L741.724 923.919L741.649 924.068L741.823 924.267L741.972 924.217L742.617 924.366L743.113 924.167V924.018V924.018Z" stroke="white"/>
<path d="M411.977 552.506L410.985 554.962L409.447 552.506H411.977ZM139.593 549.605L141.552 550.274L145.396 546.133L142.148 546.182L139.891 542.611L141.056 538.792L145.868 536.138L168.188 543.281L172.255 541.123L177.116 542.834L178.207 541.024L176.819 538.866L173.57 537.353L178.133 533.584L181.928 536.113L185.449 534.898L188.376 531.079L188.252 526.267L184.631 523.093L186.441 518.877L184.308 516.149L187.408 513.098L184.259 509.85V507.369L185.325 506.03L188.946 507.642L189.69 502.261L192.889 502.657L195.32 498.664L194.725 493.729L202.636 489.364L204.496 484.578L201.098 476.443L204.521 475.327L204.422 470.615L208.266 467.54L210.696 471.334L215.284 471.806L222.923 478.278L226.172 476.518L227.56 471.062L229.569 470.119L233.215 472.723L236.042 468.482L236.91 470.615L244.846 470.318L247.326 472.178L254.122 464.663L252.162 462.406L255.213 457.62L264.042 458.116L268.06 458.711L272.499 466.002L271.755 468.234L273.888 468.135L274.83 473.591L277.98 472.45L277.087 468.78L281.402 465.159L281.353 461.513L287.007 460.794L289.19 463.721L292.761 461.811L292.017 452.585L288.446 448.716L292.314 445.591L293.902 441.475L297.895 440.879L299.68 443.409L305.335 442.789L309.303 451.296L312.874 450.576L316.495 452.684L316.371 456.355L320.413 459.356L329.143 455.735L328.994 452.114L334.599 451.023L336.087 452.585L335.244 454.668L340.452 455.536L341.543 452.932L349.356 459.257L355.407 454.817L357.366 459.108L365.377 461.861L367.51 467.044L366.319 475.526L363.045 476.046L359.226 487.231L363.318 486.264L363.963 489.166L366.294 486.363L373.189 485.694L374.057 483.313L377.579 485.471L380.183 483.859L386.879 488.794L390.4 497.028L393.674 496.556L396.179 502.955L406.173 510.718L412.597 513.346L412.82 519.72L414.829 521.456L413.762 528.227L418.921 523.887L422.567 526.416L420.707 526.565L417.631 531.476L427.378 531.153L427.874 537.006L430.205 540.453L428.99 543.504L433.404 539.784L439.282 543.429L438.613 546.852L433.107 553.176L429.188 552.506L426.237 554.664L418.921 549.208L419.045 546.926H415.697L410.762 541.941L407.562 543.901L410.786 547.918L410.191 549.381L412.051 549.059L409.447 552.531L397.642 544.818L392.93 538.717L386.879 535.543L384.101 537.576L380.753 531.228L375.694 528.995L373.437 524.804L368.179 522.82L365.873 519.298L360.02 519.1L356.548 515.504L354.911 516.67L350.893 509.75L333.458 499.929L330.755 502.509L331.053 508.485L322.025 504.294L323.315 499.88L321.604 497.499L295.142 490.803L293.53 488.174L292.066 489.265L293.083 490.927L281.824 487.876L284.726 487.355L282.444 486.438L276.541 486.165L277.211 487.455L272.102 486.264L266.968 488.248L263.174 491.894L258.635 492.762L254.99 496.581L240.258 504.071L238.349 506.576L240.085 506.229L232.645 513.049L234.529 515.554L229.768 521.878L230.71 526.937L210.87 536.857L205.934 545.438L205.265 553.722L197.477 562.476L196.932 565.973L198.767 569.346L188.128 576.513L185.871 580.655L180.142 581.895L169.726 588.715L158.714 590.947L155.143 593.948L151.324 592.807L143.065 597.668L138.576 596.924L134.782 600.867L123.15 598.214L120.075 600.718L117.545 600.173L112.213 587.351L112.437 583.532L114.297 581.2L120.373 579.34L121.315 571.479L132.153 565.799L134.112 561.459L133.492 556.202L138.874 553.895L139.593 549.605V549.605Z" stroke="white"/>
<path d="M462.297 88.8625L463.586 90.3009L461.329 93.8721L461.974 96.6498L467.108 97.5922L468.298 101.436L473.854 102.9L475.491 100.395L481.021 102.577L483.749 101.387L488.486 105.057L491.338 111.753L500.688 112.497L507.235 116.887L509.79 120.26L509.219 125.691L511.302 129.138L507.607 133.007L502.721 133.28L496.323 139.604L502.87 142.754L504.358 147.764L502.151 150.913L504.16 152.079L505.45 157.386L499.795 167.703L502.449 171.646L500.117 182.633L491.859 192.727L492.752 197.439L489.8 199.77L488.387 204.309L488.511 206.789L492.826 207.582L492.429 212.617L495.653 217.552L493.396 222.76L494.686 233.449L500.266 235.805L498.505 239.203L499.547 241.361L502.821 241.683L508.128 238.385L513.038 238.211L514.204 232.879L524.149 230.87L527.299 233.3L528.266 231.168L538.112 233.077L510.608 273.998L513.41 303.139L512.418 308.049L514.502 308.496L516.238 306.487L522.339 309.289L519.958 315.663L522.339 317.523L519.115 319.953L521.595 323.649L519.908 328.385L523.603 329.353L524.868 331.808L530.845 326.848L535.706 331.634L538.484 337.462L545.031 338.926L545.304 340.612L549.842 341.803L549.594 345.027L556.712 348.251L558.696 351.276L557.754 355.517L561.747 354.724L563.904 356.088L561.523 360.75L567.277 365.586L570.253 366.132L570.848 362.982L574.221 364.793L576.528 360.626L583.968 363.404L580.818 365.933L581.835 368.438L580.372 372.456L588.134 375.333L591.681 373.225V379.326L611.496 389.94L612.067 392.495L596.616 390.213L592.474 394.156L588.804 391.552L587.911 393.189L578.264 393.958L576.9 395.57L573.874 391.751L567.302 390.163L564.995 392.123L557.258 391.478L551.504 394.429L550.934 397.306L547.586 396.76L543.965 398.992L544.461 397.554L541.137 397.976L540.939 396.116L538.757 396.512L536.897 394.553L525.96 392.792L523.554 385.055L519.09 390.188L517.974 386.171L510.906 396.388L507.31 398.472L497.538 398.893L486.204 393.363L482.559 386.121L476.483 389.444L469.464 383.815L465.496 383.715L458.056 377.838L452.55 378.011L451.236 375.73L442.977 379.598L441.018 375.308L437.323 376.176L437.149 373.15L433.379 370.1L434.471 366.405L429.808 360.328L427.601 360.105L420.458 365.611L421.401 360.18L419.59 358.667L415.126 362.288L417.929 366.231L417.457 369.108L415.275 370.075L412.77 366.405L410.29 366.33L407.984 374.291L407.066 369.678L402.478 367.322L400.444 363.503L398.287 364.173L400.147 366.876L398.907 369.381L394.889 372.902L384.522 368.463L384.894 362.263L382.613 359.163L381.001 363.9L377.826 365.239L373.858 359.932L372.048 360.229L373.61 367L370.808 369.554L366.914 364.941L359.896 366.727L359.102 368.736L356.051 368.289L356.324 369.951L351.265 374.514L351.563 379.921L347.52 384.261L344.122 394.305L340.006 395.347L341.494 397.876L338.393 401.944L342.734 405.937L344.544 404.945L346.95 406.978L349.603 415.038L340.055 424.661L340.799 427.389L345.114 429.695L345.486 432.721L343.279 435.3L345.04 438.772L337.029 440.905L333.781 434.68L334.574 439.69L330.234 439.963L329.317 432.895L330.879 427.935L325.249 423.768L324.084 416.502L317.338 418.362L316.222 416.427L312.601 416.13L312.899 413.798L310.022 410.897L312.353 408.392L310.543 403.481L308.013 403.779L303.846 400.084L300.002 393.76L300.598 389.469L298.787 386.27L297.622 385.179L294.348 386.716L291.149 382.376L290.429 374.44L283.212 375.01L279.195 379.003L275.127 379.45L274.507 382.004L271.333 381.583L270.911 379.102L268.134 379.499L267.167 376.622L266.026 380.987L257.792 376.226L257.073 367.496L253.551 364.272L254.419 361.048L251.641 360.279L250.178 356.584L246.632 355.517L245.268 353.087L249.707 346.713L244.325 349.094L243.085 348.127L246.036 347.06L242.936 344.159L245.268 342.051L243.854 341.034L246.979 340.637L242.986 339.322L242.936 338.107L245.342 338.43L244.573 334.04L239.588 331.461L241.399 327.765L244.747 326.625L243.259 322.185L246.979 318.763L249.905 321.243L256.8 320.97V323.227L259.602 325.062L260.818 331.386L264.463 331.114L267.191 329.65L268.58 324.442L273.243 321.466L267.861 315.712L271.606 316.407L274.507 314.423L278.401 315.514L283.684 312.836L281.377 305.916L279.17 306.065L276.318 296.393L267.613 291.904L264.414 279.702L265.505 275.461L260.718 271.394L259.925 268.269L263.694 269.038L261.686 264.475L262.603 261.995L257.569 261.003L258.933 254.406L251.369 252.149L246.359 242.675L246.508 238.98L251.666 233.152L248.492 220.875L268.456 199.15L265.951 187.866L267.514 183.873L270.515 180.575L272.623 184.047L275.747 185.659L278.773 184.369L284.626 189.156L284.7 191.908L282.096 193.471L275.946 204.482L281.774 204.557L286.585 209.616L290.107 210.434L290.206 214.601L296.332 226.704L291.992 233.226L297.746 231.068L302.954 233.003L302.11 235.483L307.889 235.681L309.724 226.604L314.783 221.223L312.948 220.975L310.915 217.007L305.806 215.667L305.161 210.062L302.135 208.326L306.822 204.036L304.02 195.926L305.359 193.347L312.874 190.644L314.362 186.601L312.403 180.599L318.404 177.648L323.712 171.597L326.34 171.423L331.375 159.792L334.996 159.42L335.417 153.492L341.221 142.655L340.948 137.571L338.269 134.57L338.939 126.559L334.822 121.401L338.145 118.573L338.592 111.406L349.504 108.951L351.042 113.39L355.704 116.639L358.829 110.687L362.425 108.926L361.83 112.547L360.119 113.192L362.549 114.655L362.252 133.627L366.939 135.19L369.419 142.655L373.189 147.168L374.329 146.226L383.927 150.095L389.234 147.094L393.699 148.979L397.195 138.364L402.428 141.092L418.846 132.71L421.227 135.438L424.674 132.958L430.279 138.042L428.37 143.374L430.949 145.036L430.651 150.467L437.893 154.162L436.579 160.511L439.604 162.619L442.332 160.709L446.375 161.429L453.22 155.576L450.516 149.078L444.168 141.663L444.49 137.943L447.168 136.231L448.458 131.842L451.409 131.246L451.93 127.477L449.698 126.981L448.805 123.906L441.067 125.27L435.859 120.979L437.595 117.234L436.182 114.63L437.695 107.165L436.43 103.47L443.572 95.757L443.82 90.3753L447.317 91.3177L454.832 87.4736L458.081 89.0608L461.131 85.9856L462.297 88.8625V88.8625Z" stroke="white"/>
<path d="M891.643 640.052L884.773 636.059L881.847 630.306L876.688 626.015L874.605 629.785L869.496 629.165L850.747 618.724L799.931 574.157L786.315 566.965L780.289 566.37L777.387 574.033L777.957 584.276L771.708 586.731L770.368 591.939L763.127 591.047L763.598 588.467L761.614 587.699L759.903 581.474L753.157 584.276V578.969L747.527 575.695L746.535 579.043L737.061 577.977L736.962 577.729L739.963 583.234H735.945L735.102 581.176L730.167 583.135L727.662 591.741L721.214 596.924L720.718 602.306L721.04 602.554L726.372 604.687L732.052 612.325L726.844 612.375L727.588 617.782L725.306 617.633L723.793 608.407L722.702 616.145L719.651 617.782L716.031 617.087L716.527 619.096L714.195 621.7L708.466 623.758L712.063 629.289L713.823 632.191L721.487 632.091L722.355 633.48L727.513 629.314L732.176 629.016L730.911 630.951L732.101 634.522L724.86 641.218L728.232 644.74L731.779 642.929L734.929 647.22L738.45 642.036L740.906 642.359L742.964 645.88L745.246 646.004L745.965 643.872L748.222 644.913L763.995 662.993L769.277 659.794L774.808 661.827L778.081 655.156L783.24 656.545L782.322 661.53L784.554 663.613L780.09 667.804L780.214 669.887L785.844 677.228L786.786 684.445L785.249 686.181L789.911 689.505L791.573 697.986L795.02 699.697L794.673 706.89L790.655 710.734L792.317 714.553L797.451 715.595L798.864 719.835L798.269 726.705L800.129 731.938L797.971 733.575L800.303 738.411L798.914 742.106L805.585 746.099L806.081 748.257L808.834 748.579L809.132 758.599L812.132 755.226L812.182 750.985L815.406 752.895L818.878 749.447L826.343 755.151L832.543 764.923L839.165 763.41L842.265 758.896L845.762 767.874L845.142 772.388L842.86 777.1L841.918 775.19L837.156 777.125L836.536 782.085L844.671 784.044L846.01 781.142L848.713 780.894L857.84 788.731L861.981 789.946L866.644 786.648L868.033 787.789L869.521 781.886L875.398 780.919L876.143 774.744L879.441 771.073L880.061 767.477L885.22 770.304L891.072 767.552L892.734 769.908L896.082 769.486L901.067 767.155L902.208 761.674L903.894 760.732L910.789 760.26L916.046 756.763L928.422 754.11L922.966 737.493L919.147 717.331L891.221 648.113L891.643 640.052V640.052ZM739.913 632.017L738.078 631.372L737.607 631.223L738.401 629.487L739.814 630.306L740.062 631.62L739.913 632.017V632.017Z" stroke="white"/>
<path d="M1040.07 896.564L1053.57 903.731L1065.94 906.038L1075.79 916.801L1083.62 919.852L1084.14 927.961L1078.86 935.575L1080.9 942.842L1078.51 946.785L1080.99 949.81L1079.13 951.1L1081.61 954.795L1086.23 956.903L1081.14 959.433L1079.46 963.153L1077.55 961.244L1077.47 963.277L1072.29 965.534L1069.02 971.536L1060.98 967.816L1057.88 971.585L1060.14 973.569L1058.38 987.408L1062.25 989.07L1067.18 994.774L1059.79 999.982L1053.22 1000.5L1049.3 1004.47L1039.35 1000.23L1035.09 1007.42L1030.43 1008.86L1028.1 1007.03L1023.21 1007.6L1023.31 1009.93L1020.7 1010.1L1015.27 1014.94L1012.25 1010.57L1003.96 1011.86L1001.01 1009.6L1000.07 1005.66L980.206 999.858L975.171 997.155L974.526 994.65H970.112L969.616 992.542L961.06 992.368L960.092 995.791L954.413 991.054L948.957 1001.05L952.379 1005.19L953.049 1011.19L949.825 1009.06L944.493 1010.25L939.384 1004.17L940.078 1000.4L936.309 998.494L938.194 995.295L935.689 993.187L942.782 988.078L939.756 985.449L941.864 985.002L942.385 982.646L938.987 978.901L940.674 977.339L940.426 973.941L936.954 965.038L932.018 960.772L937.226 959.483L941.864 961.913L942.559 958.292L945.857 958.168L948.015 952.216L950.891 951.993L952.851 957.127L954.413 950.579L959.348 950.455L961.01 947.38L961.63 949.885L963.738 950.207L964.78 947.653L961.01 945.446L957.91 936.641L958.952 934.409L964.457 934.037L968.004 928.532L975.221 922.629L977.552 925.754L980.627 925.432L983.058 930.863L984.471 931.409L987.075 928.135L993.127 932.153L995.855 934.806L998.508 945.446L996.549 947.033L1001.61 947.95L1013.41 935.228L1017.68 925.977L1023.53 921.86L1025.57 914.172L1031.27 907.129L1038.31 902.268L1036.06 900.185L1038.96 895.597L1040.07 896.564V896.564Z" stroke="white"/>
<path d="M232.025 117.358L235.869 121.252L234.331 125.021L236.167 129.907L235.274 141.662L230.438 147.987L234.158 154.162L232.521 157.088L236.043 160.238L243.607 162.718L249.063 172.613L252.733 174.176L251.964 176.805L253.849 180.227L258.338 180.078L263.348 183.922L267.415 183.6L265.853 187.593L268.358 198.877L248.393 220.602L251.568 232.903L246.409 238.731L246.26 242.452L251.27 251.925L258.834 254.182L257.47 260.754L262.505 261.746L261.587 264.226L263.596 268.814L259.801 268.021L260.595 271.17L265.381 275.213L264.29 279.454L267.49 291.656L276.194 296.145L279.047 305.817L281.254 305.668L283.56 312.587L278.278 315.266L274.359 314.199L271.458 316.183L267.713 315.464L273.094 321.218L268.432 324.194L267.043 329.402L264.315 330.865L260.669 331.138L259.454 324.814L256.652 322.979V320.722L249.782 320.995L246.831 318.515L243.135 321.937L244.623 326.376L241.251 327.517L239.465 331.212L244.45 333.792L245.219 338.181L242.788 337.859L242.838 339.049L246.856 340.364L243.731 340.761L245.144 341.802L242.788 343.91L245.888 346.812L242.937 347.878L244.177 348.846L249.559 346.465L245.119 352.839L246.484 355.269L250.03 356.36L251.493 360.055L254.271 360.824L253.378 364.048L256.925 367.248L257.644 376.002L265.853 380.739L266.994 376.399L267.986 379.251L270.763 378.854L271.21 381.359L274.384 381.756L275.004 379.226L279.071 378.78L283.089 374.787L290.306 374.192L291.025 382.153L294.224 386.493L297.498 384.955L298.639 386.046L300.449 389.246L299.854 393.536L303.698 399.86L307.865 403.555L310.394 403.258L312.18 408.193L309.849 410.698L312.726 413.6L312.428 415.931L316.024 416.253L317.14 418.188L323.886 416.328L325.051 423.594L330.681 427.761L329.144 432.721L330.061 439.789L328.821 439.318L328.896 451.916L329.044 455.512L320.315 459.158L316.297 456.157L316.421 452.487L312.8 450.379L309.229 451.098L305.261 442.591L299.606 443.211L297.821 440.682L293.828 441.277L292.265 445.394L288.372 448.519L291.943 452.388L292.687 461.613L289.116 463.548L286.958 460.597L281.303 461.341L281.378 464.986L277.062 468.607L277.955 472.278L274.806 473.443L273.838 467.987L271.706 468.062L272.45 465.83L268.01 458.538L263.993 457.968L255.188 457.447L252.138 462.233L254.097 464.49L247.302 472.03L244.822 470.17L236.861 470.467L236.018 468.334L233.19 472.575L229.545 469.996L227.561 470.938L226.172 476.394L222.923 478.155L215.285 471.682L210.696 471.211L208.266 467.442L204.422 470.517L204.521 475.204L201.099 476.345L204.496 484.455L202.636 489.241L194.75 493.606L195.32 498.566L192.89 502.559L189.69 502.162L188.946 507.569L185.326 505.957L184.284 507.296V509.776L187.434 513.025L184.334 516.075L186.466 518.803L184.631 523.044L188.252 526.194L188.376 531.005L185.45 534.849L181.928 536.064L178.133 533.535L173.57 537.28L176.819 538.817L178.208 540.975L177.141 542.785L172.256 541.074L168.213 543.257L145.893 536.114L141.081 538.793L139.916 542.612L142.173 546.183L145.422 546.133L141.577 550.275L139.593 549.606L139.742 545.91L133.691 537.751L135.923 530.038L129.772 529.79L127.59 534.527L120.398 533.336L107.551 538.768L103.707 537.9L102.914 541.124L98.8463 538.817L94.3078 540.529L92.5221 535.122L84.4372 536.064L79.9235 530.584L76.625 531.129L72.781 525.375L69.5073 524.284L67.1512 525.574L59.6119 520.465L52.9654 521.432L49.8405 519.299L48.3029 511.438L43.4668 508.635L43.9132 506.105L39.7467 502.261L39.1763 498.938L34.6626 496.88L35.357 486.389L42.45 485L33.497 475.998L30.7193 466.995L33.5218 462.779L37.4899 462.357L40.4163 459.481L42.5988 451.594L44.9052 451.396L42.4748 445.444L44.2356 441.153L47.4349 438.723L58.7935 439.442L57.6031 434.779L53.015 432.076L51.6509 424.09L49.0221 421.213L51.8989 415.088L49.7661 412.26L40.8875 408.168L37.6635 411.392L31.7114 410.252L24.0728 405.068L23.676 402.861L17.4015 400.406L17.8975 395.247L16.4591 394.379L19.1375 390.56L15.6654 385.154L17.3767 383.79L16.5335 380.913L7.53089 379.896L5.99326 370.596L3.71162 369.951L1.52917 364.52L7.43169 360.849L8.42371 358.171L16.2855 358.617L19.5343 354.748L29.6529 358.989L29.8761 360.576L35.481 358.865V353.161L42.1772 352.913L43.2188 349.168L49.1957 343.91L52.395 344.431L55.4454 342.596L57.8511 345.398L63.1584 338.901L64.9688 339.149L66.2832 332.626L63.1336 324.492L65.564 324.045L66.5808 320.226L69.8545 318.515V314.869L72.9546 310.405L63.6792 305.42L62.1415 299.344L66.5312 290.515L67.424 297.583L69.6561 295.897L77.2698 298.55L83.1972 291.085L90.1413 290.912L94.8038 288.704L97.1846 290.366L105.964 283.323L108.27 279.429L111.321 278.462L115.909 279.627L121.067 276.825L126.052 279.925L126.375 282.083L129.872 280.446L134.757 283.67L140.511 282.728L142.197 284.24L154.325 275.635L160.872 275.139L163.377 276.751L165.188 269.211L168.164 268.616L163.65 259.365L167.767 252.347L166.874 249.371L162.856 247.883L158.615 240.195L160.351 227.67L158.615 217.601L160.401 215.915L160.649 206.912L164.295 202.994L174.587 203.292L177.34 200.39L177.637 196.62L180.514 194.562L178.853 189.329L180.192 184.394L189.418 182.236L190.806 178.69L195.543 176.209L195.246 172.514L197.205 169.687L193.807 161.552L190.162 157.063L185.921 155.079L193.832 147.218L197.428 148.309L202.859 146.151L204.695 141.365L209.456 139.257L209.531 135.909L215.433 133.453L216.599 129.733L213.003 127.997L214.937 124.922L217.417 124.724L222.353 119.962L232.025 117.358V117.358Z" stroke="white"/>
<path d="M1195.5 916.033L1205.05 917.893L1217.22 927.168L1215.56 930.987L1218.69 936.915L1218.49 940.883L1217.52 945.768L1214.15 949.141L1202.42 956.978L1201.7 959.657L1180.89 972.677L1181.26 986.788L1187.46 998.519L1196.04 1004.74L1219.28 1015.51L1226.67 1021.31L1246.76 1028.87L1267.67 1041.5L1292.3 1049.34L1296.41 1052.88L1300.88 1053.01L1301.99 1054.87L1304.32 1053.85L1304.94 1055.66L1315.33 1060.17L1332.32 1065.73L1356.23 1081.38L1365.23 1092.36L1370.19 1094.62L1381.5 1105.26L1410.79 1117.02L1426.17 1127.68L1440.08 1129.34L1442.86 1133.93L1441.64 1136.04L1450.55 1136.34L1449.73 1139.04L1453.6 1143.83L1452.26 1148.88L1457.84 1155.78L1463.74 1161.16L1478.32 1169.3L1501.59 1194.24L1506.55 1205.31L1505.98 1209.67L1509.82 1218.65L1513.34 1220.81L1512.08 1222L1513.54 1226.09L1509.27 1230.01L1508.06 1235.91L1503.12 1239.33L1499.55 1247.19L1497.37 1258.5L1497.44 1273.38L1494.69 1277.25L1491.69 1278.05L1482.19 1270.7L1469.54 1268.05L1453.6 1255.08L1446.85 1243.32L1449.85 1242.08L1449.41 1237.25L1444.25 1234.47L1447.99 1231.72L1449.01 1225.52L1437.58 1211.31L1438.39 1206.57L1435.86 1201.14L1429.62 1195.96L1407.12 1192.66L1385.35 1194.34L1377.53 1188.69L1370.84 1187.97L1349.31 1175.52L1346.53 1175.59L1347.28 1173.34L1352.04 1171.25L1352.59 1167.58L1349.24 1163.52L1343.56 1163.79L1342.12 1159.77L1335.05 1157.12L1325.58 1158.53L1316.9 1163.24L1308.04 1171.08L1302.76 1179.79L1300.83 1175.17L1296.49 1171.53L1295.59 1167.51L1291.2 1164.86L1286.99 1165.95L1284.85 1163.59L1287.24 1158.43L1284.36 1156.25L1285.45 1154.24L1283.07 1151.74L1284.14 1144.57L1285.7 1143.43L1283.42 1138.32L1285.65 1129.37L1282.62 1125.87L1285.15 1124.6L1277.91 1119.1L1276.6 1120.96L1273.69 1119.22L1273.27 1116.77L1270.79 1118.36L1266.6 1116.54L1266.33 1120.86L1264.22 1117.56L1261.82 1118.21L1261.99 1122.89L1256.93 1116.77L1248.27 1126.79L1244.48 1125.75L1242.57 1121.43L1226.28 1106.45L1218.98 1090.43L1214.02 1088.82L1208.74 1093.68L1204.8 1089.93L1190.94 1084.03L1189.45 1081.23L1193.19 1081.9L1197.66 1076.81L1196.89 1072.97L1198.47 1070.39L1193.91 1066.67L1192.4 1067.71L1190.89 1061.88L1187.76 1061.14L1187.17 1058.61L1182.85 1057.87L1177.15 1053.77L1173.62 1055.88L1171.62 1055.16L1172.06 1057.05L1167.92 1058.11L1168.29 1060.47L1164.13 1062.75L1160.51 1060.12L1154.28 1062.36L1142.75 1060.42L1137.94 1061.36L1134.59 1064.41L1135.41 1067.46L1126.48 1063L1122.59 1063.35L1117.38 1058.88L1113.16 1062.08L1106.14 1059.13L1103.41 1061.36L1098.43 1057.79L1096.62 1053.1L1092.73 1051.2L1094.76 1046.26L1099.77 1043.28L1097.66 1037.38L1101.65 1034.85L1098.53 1031.31L1094.51 1032.1L1091.93 1028.43L1083.45 1028.78L1082.93 1023.39L1075.56 1020.77L1074.03 1014.27L1076.11 1011.37L1078.74 1010.92L1077.4 1007.94L1079.43 1006.01L1078.99 1004.02L1071.92 1002.04L1067.43 994.997L1062.49 989.293L1058.62 987.632L1060.41 973.793L1058.13 971.784L1061.23 968.015L1069.26 971.735L1072.54 965.758L1077.72 963.501L1077.8 961.442L1079.71 963.352L1081.39 959.632L1086.5 957.102L1081.89 955.019L1079.41 951.299L1081.24 950.009L1078.79 946.984L1081.17 943.04L1079.13 935.774L1084.42 928.185L1083.9 920.075L1109.76 921.662L1112.86 924.192L1120.77 924.49L1145.4 919.902L1153.76 922.258L1164 921.737L1195.5 916.033V916.033Z" stroke="white"/>
<path d="M470.58 847.384L472.713 851.848L470.828 853.659L468.323 853.237L467.926 847.905L470.58 847.384V847.384ZM543.32 840.564L548.205 845.599L547.66 853.088L542.774 847.037L540.741 846.715L543.32 840.564V840.564ZM440.869 801.181L443.547 806.414L441.935 810.084L436.43 807.654L439.976 805.992L440.869 801.181V801.181ZM483.848 758.35L487.147 761.823L485.237 767.105L486.031 773.727L479.781 777.1L485.857 781.316L484.493 785.978L478.367 783.994L476.086 777.224L474.176 776.306L471.15 776.901L471.324 781.043L469.092 777.075L467.033 781.192L461.503 778.736L460.957 782.829L454.212 780.993L450.12 781.638L450.591 782.953L446.102 780.2L443.547 775.86L443.795 771.941L448.359 768.444L455.427 768.271L461.726 772.115L462.148 770.156L464.801 769.461L463.909 768.047L465.521 766.882L464.008 764.799L473.01 766.956L471.126 769.362L475.838 770.205L482.459 757.78L483.848 758.35V758.35ZM409.248 724.25L410.96 729.16L406.421 735.162L404.139 731.864L405.404 726.16L408.455 722.935L409.248 724.25V724.25ZM714.517 595.213L714.716 595.61L715.46 598.338L710.053 601.14L706.656 597.197L707.325 594.419L714.195 594.469L714.517 595.213V595.213ZM390.251 496.879L399.179 491.696L407.636 478.403L420.905 476.939L426.956 479.097L428.196 482.172L430.8 482.718L429.461 489.241L432.263 492.365L442.878 499.657L448.929 498.392L462.892 513.173L468.794 510.222L474.226 513.272L478.194 513.347L485.51 520.886L489.652 520.167L492.677 521.828L492.553 525.251L496.868 529.219L497.464 533.063L505.945 540.627L510.087 539.585L509.914 536.262L512.394 533.212L526.207 533.534L538.533 543.529L544.188 544.794L545.874 547.05L545.081 549.406L546.717 550.15L558.77 536.609L559.762 538.866L558.25 541.445L562.094 544.298L568.939 545.091L577.222 541.495L584.885 543.702L591.185 543.306L590.565 540.627L583.298 536.411L583.571 534.08L593.466 533.733L599.121 528.599L599.617 525.945L605.792 525.3L611.893 519.373L615.192 522.374L616.035 527.706L619.507 528.648L623.797 533.534L626.798 534.179L629.353 531.699L635.801 533.013L636.297 535.593L632.701 540.801L639.298 541.694L652.864 538.965L652.02 545.637L646.986 551.068L645.919 556.003L641.753 557.591L642.249 560.294L640.587 560.071L639.967 562.923L645.349 568.081L644.531 572.124L649.044 575.149L648.375 582.738L657.253 587.698L662.213 593.675L673.795 594.196L675.085 597.42L678.433 597.867L678.954 600.272L683.021 602.876L685.65 601.835L689.271 604.067L691.552 603.447L694.305 606.596L698.571 604.364L702.092 604.761L705.664 602.777L709.508 608.506L711.566 603.62L716.626 604.563L720.693 602.355L721.114 602.678L726.447 604.811L732.126 612.449L726.918 612.499L727.662 617.905L725.38 617.757L723.867 608.531L722.776 616.269L719.726 617.905L716.105 617.211L716.601 619.22L714.27 621.824L708.541 623.882L712.137 629.413L705.986 637.175L704.077 643.599L698.645 643.152L697.281 644.541L696.86 648.906L703.333 652.576L703.084 653.965L697.802 656.197L695.297 660.413L692.594 659.57L688.353 663.885L689.171 666.366L694.479 665.82L694.751 672.417L698.298 671.078L699.91 672.566L702.415 678.245L700.952 682.486L701.944 684.718L707.474 686.801L709.706 681.271L713.525 684.396L696.984 694.762L691.527 691.712L689.494 692.629L690.734 695.928L688.279 702.698L675.432 710.262L674.217 713.536L676.399 719.587L675.581 722.613L677.54 726.507L679.623 723.903L682.773 727.275L676.771 751.704L679.474 753.564L679.846 758.053L676.672 758.251L671.836 764.055L665.685 763.707L661.668 766.361L660.403 771.346L658.667 768.072L655.691 766.907L652.814 772.958L662.189 780.299L659.609 786.152H656.559L657.576 792.625L660.18 793.815L660.378 796.494L656.906 798.775L653.508 798.304L651.252 803.611L648.052 802.991L644.332 805.744L643.836 808.423L639.521 810.605L637.512 810.035L635.85 812.242L633.023 809.638L631.485 810.456L632.602 814.821L629.204 819.633L636.123 824.369L636.346 832.876L619.482 833.074L614.894 843.367L594.136 838.53L591.234 836.174L584.464 837.96L584.786 841.631L582.331 842.821L581.761 845.847L577.247 846.219L573.874 842.003L569.856 840.738L568.765 834.339L571.196 831.289L573.304 833.446L578.859 832.975L581.364 827.866L582.133 820.128L577.842 811.275L573.477 812.168L571.047 805.025L568.319 802.371L568.839 799.941L558.572 795.551L556.266 786.325L550.785 780.646L539.798 776.232L531.391 775.24L523.752 770.23L528.315 767.427L528.663 758.375L530.87 755.176L529.233 751.53L524.794 748.207L516.858 744.512L509.765 743.743L500.514 745.181L499.547 749.571L493.818 747.637L492.355 737.865L496.546 735.881L499.324 720.48L497.687 692.902L494.785 685.71L489.428 680.105L484.89 666.589L482.211 666.341L479.359 658.504L472.862 653.593L468.844 642.855L469.638 637.002L465.025 617.856L466.513 615.673L465.893 605.728L461.329 584.078L448.83 565.006L438.612 555.954L433.255 553.375L438.786 547.075L439.455 543.653L433.578 540.007L429.163 543.727L430.378 540.677L428.047 537.229L427.576 531.377L417.829 531.724L420.905 526.813L422.765 526.664L419.119 524.135L413.96 528.475L415.027 521.704L413.018 519.968L412.795 513.595L406.372 510.966L396.377 503.203L393.872 496.805L390.251 496.879V496.879Z" stroke="white"/>
<path d="M710.625 2.20902L714.915 5.58188L712.038 7.61552L710.699 12.9972L703.333 13.766L700.06 16.9157L702.168 26.3399L706.136 30.1096L702.912 34.8712L708.541 35.9377L712.113 41.6914L715.51 39.0377L719.875 40.0546L723.794 48.0403L720.991 52.6284L720.843 58.3821L729.82 59.9941L733.218 70.5591L745.717 77.7761L739.616 80.0577L735.475 84.6954L733.292 84.1994L734.235 87.4979L732.97 88.6387L729.845 88.7875L728.01 86.5802L720.595 88.9115L717.594 87.0267L709.31 93.5988L709.038 87.9939L705.193 85.5634L703.135 86.2826L693.388 78.6689L694.132 84.4474L690.388 91.0939L690.809 94.7892L684.708 104.511L683.27 102.601L680.393 102.75L677.466 105.677L673.573 104.883L661.495 110.984L661.197 115.051L668.811 116.093L670.299 119.54L664.595 126.286L663.925 135.363L661.917 133.528L656.064 137.074L663.281 143.125L664.719 146.597L663.057 151.31L665.017 153.046L670.374 151.806L671.465 156.617L673.052 155.6L676.053 157.063L674.094 161.949L680.12 167.455L678.607 171.423L675.879 170.331L671.638 180.128L661.247 183.749L655.716 183.153L653.856 185.088L652.22 183.178L645.424 185.336V190.345L647.706 194.14L642.597 195.653L644.432 197.339L642.622 199.348L645.449 204.358L643.192 208.995L632.751 208.251L631.412 201.282L626.725 199.794L621.393 200.514L614.597 206.143L605.62 205.573L606.562 212.641L603.363 213.038L601.676 216.857L602.544 219.312L596.394 215.989L596.22 214.055L596.27 217.428L590.268 216.981L588.135 229.158L582.307 236.177L583.795 242.03L579.951 241.658L580.273 250.586L574.073 258.944L570.105 258.423L565.319 253.859L561.251 256.042L560.16 253.14L555.597 259.712L554.382 257.133L550.662 261.324L546.966 259.018L548.578 256.191L543.494 253.686H538.063L543.494 243.666L541.56 239.922L544.734 237.194L538.088 233.077L528.267 231.167L527.3 233.325L524.15 230.869L514.205 232.878L513.015 238.21L508.129 238.359L502.797 241.682L499.523 241.36L498.506 239.202L500.217 235.755L494.637 233.374L493.348 222.685L495.605 217.477L492.381 212.542L492.777 207.507L488.462 206.714L488.338 204.234L489.752 199.695L492.728 197.339L491.835 192.627L500.093 182.533L502.4 171.572L499.771 167.628L505.401 157.311L504.136 152.029L502.127 150.863L504.31 147.713L502.822 142.704L496.274 139.554L502.698 133.255L507.583 132.957L511.278 129.088L509.195 125.666L509.766 120.21L507.211 116.837L500.664 112.447L491.314 111.703L488.487 105.032L490.967 102.825L493.174 90.2507L487.52 85.0922L481.84 85.861L479.757 76.8089L483.576 72.072L481.716 67.7319L487.148 63.4166L484.122 57.0429L487.693 55.0588L491.314 44.7914L494.092 47.0235L501.036 46.5275L500.118 48.7099L515.222 41.6666L518.595 43.5762V46.0811L526.432 49.2803L527.548 51.2892L523.208 57.8365L526.531 58.4069L530.573 56.3733L534.045 60.1429L536.972 58.9277L543.122 62.5238L547.239 60.3661L560.259 61.755L562.591 54.662L568.27 51.686L566.732 45.6347L570.279 39.1369L569.932 34.6728L572.164 31.4488L575.413 31.8952L578.339 29.7127L578.686 24.8767L581.786 23.959L584.068 25.4719L598.378 19.9414L600.486 21.3798L603.139 20.2142L609.067 25.0503L613.704 23.091L618.665 16.3453L625.931 21.603L636.347 16.0477L642.002 19.8174L647.954 19.9662L650.112 23.4878L652.666 24.207L657.08 20.115L664 19.7926L673.97 12.1044L677.963 11.906L681.509 9.05395L687.04 9.52516L689.52 6.79711L694.058 7.26832L696.885 3.69705L699.539 4.66427L707.921 1.1178L710.625 2.20902V2.20902Z" stroke="white"/>
<path d="M739.368 632.811L738.078 631.373L737.607 631.224L738.202 629.538L739.839 630.306L740.087 631.621L739.368 632.811V632.811ZM712.013 629.141L713.774 632.042L721.437 631.943L722.305 633.332L727.464 629.166L732.126 628.868L730.861 630.802L732.052 634.374L724.81 641.07L728.183 644.591L731.729 642.781L734.879 647.071L738.401 641.888L740.856 642.211L742.914 645.732L745.196 645.856L745.915 643.723L748.172 644.765L763.945 662.845L769.228 659.645L774.758 661.679L778.032 655.008L783.19 656.396L782.273 661.381L784.505 663.465L780.041 667.656L780.165 669.739L785.794 677.08L786.737 684.297L785.199 686.033L789.862 689.356L791.523 697.838L794.97 699.549L794.623 706.741L790.606 710.586L792.267 714.405L797.401 715.446L798.815 719.687L798.219 726.557L800.079 731.79L797.922 733.427L800.253 738.263L798.864 741.958L805.535 745.951L806.031 748.109L808.784 748.431L809.082 758.45L812.083 755.078L812.132 750.837L815.356 752.746L818.828 749.299L826.293 755.003L832.494 764.775L839.115 763.262L842.215 758.748L845.712 767.726L845.092 772.239L842.811 776.952L841.868 775.042L837.106 776.976L836.486 781.936L834.626 792.997L831.328 796.172L827.31 794.585L827.186 796.519L820.242 800.785L815.133 798.106L813.372 801.901L805.312 801.802L803.353 804.207L798.368 801.752L796.93 804.654L798.467 810.978L793.284 812.64L788.696 816.682L783.612 816.434L783.19 819.732L775.601 821.915L778.999 826.974L771.584 831.86L768.608 831.984L766.4 827.396L763.449 827.594L762.903 837.217L752.165 845.55L750.007 843.07L750.131 838.903L741.104 840.218L743.509 836.696L737.83 834.737L737.88 829.628L739.566 829.057L737.731 827.371L738.351 822.758L734.705 822.361L729.745 826.379L726.695 823.254L722.057 823.8L723.768 822.659L719.999 820.675L721.859 819.013L719.279 816.905L719.8 812.069L715.659 810.135L714.294 799.049L710.153 793.94L706.135 792.254L702.713 795.205L701.051 794.684L700.753 796.544L698.249 793.89L689.122 797.139L678.855 790.79L675.655 785.557L680.243 782.978L682.748 778.068L675.854 773.628L671.836 764.006L676.672 758.202L679.847 758.004L679.475 753.515L676.771 751.655L682.773 727.227L679.623 723.854L677.54 726.458L675.606 722.564L676.424 719.538L674.242 713.512L675.457 710.238L688.304 702.674L690.784 695.904L689.544 692.63L691.602 691.737L697.058 694.788L713.6 684.421L709.781 681.296L707.549 686.827L702.018 684.743L701.051 682.511L702.514 678.271L700.009 672.591L698.397 671.103L694.876 672.442L694.603 665.845L689.296 666.391L688.477 663.911L692.718 659.596L695.421 660.439L697.926 656.223L703.209 653.991L703.457 652.602L696.984 648.932L697.405 644.567L698.769 643.178L704.201 643.624L706.11 637.201L712.013 629.141V629.141Z" stroke="white"/>
<path d="M122.456 204.929L123.894 207.83L133.368 206.491L135.625 210.162L138.898 211.501L140.486 216.287L144.454 213.435L150.579 217.428L153.481 215.791L158.615 217.602L160.351 227.671L158.615 240.195L162.856 247.883L166.873 249.371L167.766 252.347L163.649 259.366L168.163 268.616L165.187 269.212L163.376 276.751L160.872 275.139L154.324 275.635L142.197 284.241L140.51 282.728L134.757 283.67L129.871 280.446L126.374 282.083L126.052 279.925L121.067 276.825L115.908 279.628L111.32 278.462L108.27 279.429L105.963 283.323L97.184 290.366L94.8031 288.705L90.1406 290.912L83.1965 291.086L77.2692 298.551L69.6554 295.897L67.4234 297.583L66.5306 290.515L62.1409 299.344L55.3951 298.377L56.0648 294.334L49.1454 292.45L48.575 279.901L46.219 277.421L49.1206 268.021L44.8053 265.417L38.3572 265.863L37.0676 262.267L30.9915 259.986L24.7418 252.769L25.6594 249.793L23.7745 242.477L26.2794 232.209L29.2306 231.366L31.6859 232.953L33.4963 230.002L37.9356 231.54L41.6309 230.374L42.9453 227.82L48.6742 225.811L49.4678 220.702L54.5767 216.387L62.4137 228.291L68.7874 224.447L73.4003 228.167L76.4756 222.934L81.7581 222.785L86.2965 216.783L98.0024 221.347L109.039 214.402L108.939 211.947L112.287 209.343L117.793 210.385L118.537 205.102L122.456 204.929V204.929Z" stroke="white"/>
<path d="M754.447 390.932L751.099 392.841L753.43 390.237L751.198 389.32L755.166 388.873L754.447 390.932ZM750.38 385.724L753.331 387.956L747.453 389.27L748.991 384.93L750.38 385.724ZM749.462 77.9993L756.506 82.8354L770.245 81.4465L775.379 83.2818L777.586 85.985L777.115 90.4491L779.521 94.566L777.784 100.196L779.967 103.073L773.643 103.221L765.062 108.628L764.764 110.959L767.815 112.943L768.807 117.258L764.293 115.324L761.714 117.283L757.126 115.324L753.232 118.424L752.215 117.358L748.545 122.417L747.85 126.757L742.89 131.122L743.684 134.569L742.196 133.9L742.642 135.388L738.104 137.694L737.285 142.704L732.548 142.034L729.969 144.117L730.068 149.053L725.604 153.74L730.862 160.808H736.02L736.665 164.702L741.229 164.454L741.973 169.736L747.974 174.572L746.858 183.451L739.666 188.312L735.276 195.281L737.558 197.265L739.319 203.713L739.369 212.319L742.915 212.418L745.519 216.163H749.19L752.314 227.422L755.762 230.547L755.241 233.523L760.201 236.127L761.887 232.159L764.963 233.796L765.26 236.028L768.038 237.318L768.162 241.335L777.784 232.432L779.446 234.118L784.357 228.91L787.159 230.993L786.093 233.473L787.655 235.284L789.019 232.705L794.401 230.026L795.988 230.2L794.996 232.928L798.096 235.755L801.866 233.424L803.081 236.127L806.925 234.887L805.809 231.39L807.272 230.795L808.711 234.714L808.611 235.482L809.603 236.4L809.182 238.434L811.216 239.302L808.512 240.889L813.547 245.675L812.332 246.32L813.944 249.544L813.076 252.446L815.481 250.685L816.895 257.307L818.854 257.803L817.936 259.787L820.441 261.796L820.02 265.069L822.45 264.772L822.153 266.285L824.806 267.773L823.417 269.682L811.216 270.525L811.439 268.665L809.182 267.797L807.991 271.17L800.551 272.137L798.195 275.337L782.67 285.034L743.188 303.411L739.393 308.297L735.252 306.213L730.49 312.612L726.919 319.581L726.671 322.259L728.729 323.226L726.051 324.218L722.182 340.314L725.555 341.356L722.876 344.009L724.29 350.259L727.464 353.855L726.745 366.999L730.316 370.025L734.235 377.713L732.97 376.87L730.986 379.226L733.243 380.615L735.376 379.052L734.78 381.805L736.045 382.152L737.409 381.384L736.318 377.019L737.533 377.093L748.198 390.411L746.561 401.497L743.907 403.927L744.006 410.995L740.038 409.631L740.881 402.538L738.352 401.447L736.07 402.39L734.21 406.655L736.368 409.358L735.425 414.492L737.36 416.129L738.972 415.013L739.121 416.799L735.847 416.476L735.574 420.047L729.597 415.286L728.109 409.879L723.174 408.614L721.587 406.258L720.768 399.091L722.331 396.016L720.272 393.337H717.594L713.973 396.561L708.641 396.14L706.632 393.536L702.961 395.941L697.282 388.303L680.666 385.649L675.21 387.584L659.66 387.385L652.418 390.758L650.583 396.264L642.671 398.496L637.687 403.208L634.611 403.506L632.85 402.91L631.784 398.893L626.576 395.396L612.44 396.338L612.043 392.643L611.472 390.088L591.682 379.474V373.373L588.16 375.481L580.397 372.604L581.861 368.586L580.844 366.082L583.994 363.552L576.553 360.774L574.247 364.941L570.874 363.13L570.279 366.28L567.303 365.734L561.549 360.898L563.93 356.236L561.772 354.872L557.779 355.665L558.722 351.425L556.763 348.399L549.645 345.175L549.893 341.951L545.379 340.76L545.106 339.074L538.559 337.611L535.781 331.783L530.92 327.021L524.944 332.006L523.679 329.551L519.983 328.608L521.67 323.871L519.215 320.176L522.439 317.77L520.058 315.91L522.439 309.537L516.338 306.734L514.602 308.743L512.543 308.297L513.56 303.386L510.758 274.245L538.261 233.325L544.908 237.442L541.734 240.17L543.643 243.939L538.237 253.934H543.643L548.727 256.488L547.115 259.291L550.81 261.597L554.506 257.406L555.721 260.01L560.309 253.413L561.4 256.315L565.468 254.132L570.254 258.696L574.222 259.216L580.422 250.859L580.1 241.93L583.944 242.302L582.456 236.425L588.284 229.406L590.442 217.254L596.443 217.7L596.394 214.328L596.567 216.262L602.718 219.585L601.85 217.155L603.536 213.335L606.736 212.939L605.818 205.895L614.796 206.466L621.591 200.861L626.923 200.142L631.61 201.63L632.95 208.599L643.391 209.343L645.648 204.705L642.82 199.695L644.631 197.711L642.82 196.025L647.929 194.537L645.623 190.717V185.708L652.443 183.55L654.104 185.46L655.94 183.55L661.495 184.145L671.862 180.524L676.102 170.728L678.831 171.819L680.319 167.851L674.317 162.346L676.276 157.46L673.275 156.022L671.688 157.038L670.597 152.227L665.24 153.467L663.281 151.731L664.967 147.044L663.529 143.547L656.287 137.52L662.14 133.949L664.149 135.784L664.818 126.707L670.522 119.986L669.059 116.539L661.421 115.498L661.718 111.406L673.796 105.305L677.69 106.123L680.591 103.197L683.468 103.023L684.907 104.933L691.032 95.2108L690.611 91.5403L694.38 84.869L693.612 79.0905L703.383 86.729L705.441 86.0098L709.286 88.4403L709.558 94.0452L717.842 87.473L720.843 89.3579L728.233 87.0266L730.093 89.2339L733.218 89.0851L734.483 87.9443L733.54 84.6706L735.698 85.1666L739.84 80.5041L745.965 78.2225L749.462 77.9993V77.9993Z" stroke="white"/>
</svg>
