<svg width="163" height="34" viewBox="0 0 163 34" fill="none" xmlns="http://www.w3.org/2000/svg">
  <g id="Group 55">
    <rect id="Rectangle 123" x="4" y="4" width="159" height="30" fill="#282928"/>
    <g id="Frame 6">
      <rect x="0.5" y="0.5" width="158.244" height="29" fill="white"/>
      <g id="facebook">
        <path
          id="Vector"
          d="M24.6475 16.125L25.1274 12.8674H22.127V10.7535C22.127 9.86227 22.5462 8.99355 23.8899 8.99355H25.254V6.22008C25.254 6.22008 24.0162 6 22.8327 6C20.3617 6 18.7466 7.56023 18.7466 10.3847V12.8674H16V16.125H18.7466V24H22.127V16.125H24.6475Z"
          fill="#282928"/>
      </g>
      <rect id="Rectangle 38" x="34.7998" y="14.5" width="80" height="1" fill="#282928"/>
      <g id="twitter">
        <path
          id="Vector_2"
          d="M142.596 8.88782C141.863 9.21474 141.127 9.46154 140.311 9.54487C141.127 9.05128 141.78 8.23077 142.105 7.32692C141.289 7.82051 140.474 8.14744 139.579 8.3141C138.763 7.49359 137.702 7 136.562 7C134.357 7 132.564 8.80449 132.564 11.0192C132.564 11.3494 132.564 11.6763 132.647 11.9231C129.302 11.7596 126.367 10.1987 124.408 7.73718C124 8.3141 123.838 9.05128 123.838 9.78846C123.838 11.1859 124.571 12.4167 125.632 13.1538C124.979 13.0705 124.329 12.9071 123.838 12.6603C123.838 12.6603 123.838 12.6603 123.838 12.7436C123.838 14.7115 125.224 16.3526 127.017 16.6827C126.692 16.7628 126.367 16.8462 125.96 16.8462C125.714 16.8462 125.469 16.8462 125.224 16.7628C125.714 18.4038 127.183 19.5545 128.977 19.5545C127.591 20.6218 125.877 21.2756 124 21.2756C123.676 21.2756 123.347 21.2756 123.022 21.1955C124.816 22.3429 126.938 23 129.139 23C136.562 23 140.557 16.8462 140.557 11.5128C140.557 11.3494 140.557 11.1859 140.557 11.0192C141.372 10.4455 142.025 9.70833 142.596 8.88782Z"
          fill="#282928"/>
      </g>
      <rect x="0.5" y="0.5" width="158.244" height="29" stroke="#282928"/>
    </g>
  </g>
</svg>
